<svg xmlns="http://www.w3.org/2000/svg" width="712" height="288" viewBox="0 0 712 288"><path d="M701,102.38a7.13,7.13,0,0,0,.29-3.12,7.85,7.85,0,0,0-1.89-5.09,7.17,7.17,0,0,0-5.42-1.58,15.68,15.68,0,0,0-5.06,1.12,12.69,12.69,0,0,0,.46-7.16,8,8,0,0,0-4.51-5.48,5.84,5.84,0,0,0-6.67,1.58c-1.45,1.86-1.41,4.43-1.28,6.78q.45,8.8,1.2,17.6l14.85-.91C696.05,105.93,699.82,105.3,701,102.38Z" fill="#ff6b60" stroke="#1c2126" stroke-linejoin="round" stroke-width="2"/><path d="M651.22,67.81a8.14,8.14,0,0,0-2-3c-1.46-1.55-3.26-3-5.38-3.18s-4.35,1-6,2.52a17.87,17.87,0,0,0-3.71,4.67,14.77,14.77,0,0,0-4.79-6.75,9.24,9.24,0,0,0-8-1.63,6.75,6.75,0,0,0-4.83,6.27c.06,2.71,2,5,3.78,7q6.81,7.55,13.86,14.88L646.75,77C649.41,74.56,652.33,71.25,651.22,67.81Z" fill="#ff6b60" stroke="#1c2126" stroke-linejoin="round" stroke-width="2"/><path d="M84,29.37a8.22,8.22,0,0,0-2-3c-1.47-1.55-3.26-3-5.39-3.18s-4.34,1-6,2.52a18.28,18.28,0,0,0-3.72,4.67,14.75,14.75,0,0,0-4.78-6.74,9.22,9.22,0,0,0-8-1.63,6.74,6.74,0,0,0-4.83,6.26c.05,2.71,2,5,3.77,7q6.81,7.56,13.86,14.89L79.5,38.55C82.16,36.11,85.07,32.8,84,29.37Z" fill="#ff6b60" stroke="#1c2126" stroke-linejoin="round" stroke-width="2"/><path d="M684.73,139.45a8.78,8.78,0,0,0-2.52-2.91c-1.75-1.44-3.84-2.72-6.11-2.64s-4.44,1.66-6,3.46a19.41,19.41,0,0,0-3.3,5.42,15.71,15.71,0,0,0-5.95-6.48,9.79,9.79,0,0,0-8.68-.65,7.18,7.18,0,0,0-4.26,7.25c.42,2.85,2.73,5,4.92,6.89q8.19,7.07,16.6,13.86l11.8-13.92C683.72,146.8,686.35,142.93,684.73,139.45Z" fill="#ff6b60" stroke="#1c2126" stroke-linejoin="round" stroke-width="2"/><path d="M39.93,49.21a8.62,8.62,0,0,0-3.76-.81c-2.27-.09-4.71.13-6.47,1.56S27.14,54,27,56.33a19.54,19.54,0,0,0,.62,6.32A15.58,15.58,0,0,0,19,61.05a9.81,9.81,0,0,0-7.33,4.69,7.19,7.19,0,0,0,1,8.36c2.05,2,5.19,2.35,8.07,2.55q10.79.72,21.6,1.1.54-9.1,1.07-18.22C43.54,55.7,43.31,51,39.93,49.21Z" fill="#ff6b60" stroke="#1c2126" stroke-linejoin="round" stroke-width="2"/><g opacity="0.1"><path d="M403.33,82.81l.39,0L620.5,115.65a2.59,2.59,0,0,1,2.17,2.94l-22,145.55a2.6,2.6,0,0,1-2.56,2.2l-.39,0-216.78-32.8a2.59,2.59,0,0,1-2.17-2.95L400.77,85a2.59,2.59,0,0,1,2.56-2.2m0-12h0a14.49,14.49,0,0,0-14.41,12.41l-22,145.55a14.6,14.6,0,0,0,12.24,16.6L595.9,278.18a16.13,16.13,0,0,0,2.19.16,14.5,14.5,0,0,0,14.42-12.41l22-145.54a14.59,14.59,0,0,0-12.24-16.61L405.51,71a14.55,14.55,0,0,0-2.18-.17Z" fill="#ff6b60"/></g><rect x="388.49" y="98.39" width="224.43" height="152.38" rx="2.59" transform="translate(31.76 -72.95) rotate(8.6)" fill="#fff6d0" stroke="#1c2126" stroke-linejoin="round" stroke-width="2"/><path d="M473.16,163.47s11.62-8.85,20.42,3.09" fill="none" stroke="#1c2126" stroke-linecap="round" stroke-miterlimit="10" stroke-width="2"/><path d="M508.19,168.77s11.62-8.85,20.42,3.09" fill="none" stroke="#1c2126" stroke-linecap="round" stroke-miterlimit="10" stroke-width="2"/><path d="M477.29,176.5c-1.3,11,7.1,21.29,19.07,23.1s23-5.51,25-16.42Z" fill="#7a122d" stroke="#1c2126" stroke-linecap="round" stroke-linejoin="round" stroke-width="2"/><rect x="589.91" y="120.53" width="22.53" height="25.93" transform="translate(26.74 -88.45) rotate(8.6)" fill="#ffb916" stroke="#1c2126" stroke-linejoin="round" stroke-width="2"/><line x1="409.33" y1="93.83" x2="460.47" y2="101.57" fill="#5cebdf" stroke="#1c2126" stroke-linecap="round" stroke-linejoin="round" stroke-width="2"/><line x1="408.07" y1="102.13" x2="459.21" y2="109.87" fill="#5cebdf" stroke="#1c2126" stroke-linecap="round" stroke-linejoin="round" stroke-width="2"/><line x1="406.81" y1="110.43" x2="457.96" y2="118.17" fill="#5cebdf" stroke="#1c2126" stroke-linecap="round" stroke-linejoin="round" stroke-width="2"/><g opacity="0.1"><path d="M296.28,44a2.6,2.6,0,0,1,2.54,2.09L327,190.61a2.58,2.58,0,0,1-2,3l-215.21,42a2.72,2.72,0,0,1-.49,0,2.59,2.59,0,0,1-2.54-2.1L78.54,89.06a2.58,2.58,0,0,1,2-3l215.2-41.95a2.92,2.92,0,0,1,.5,0m0-12h0a14.47,14.47,0,0,0-2.78.27l-215.2,42A14.58,14.58,0,0,0,66.76,91.36L94.92,235.84A14.58,14.58,0,0,0,112,247.37l215.2-42a14.61,14.61,0,0,0,11.53-17.11L310.59,43.83A14.61,14.61,0,0,0,296.28,32Z" fill="#ff6b60"/></g><rect x="90.55" y="63.64" width="224.43" height="152.38" rx="2.59" transform="matrix(0.98, -0.19, 0.19, 0.98, -23.01, 41.38)" fill="#fff" stroke="#1c2126" stroke-linejoin="round" stroke-width="2"/><path d="M173.08,138.63s8-12.24,20.27-3.95" fill="none" stroke="#1c2126" stroke-linecap="round" stroke-miterlimit="10" stroke-width="2"/><path d="M207.85,131.85s8-12.24,20.27-3.95" fill="none" stroke="#1c2126" stroke-linecap="round" stroke-miterlimit="10" stroke-width="2"/><path d="M181.35,149.51c2.48,10.82,13.83,17.67,25.72,15.36S226.9,151.94,225.14,141Z" fill="#7a122d" stroke="#1c2126" stroke-linecap="round" stroke-linejoin="round" stroke-width="2"/><rect x="272.32" y="54.41" width="22.53" height="25.93" transform="translate(-7.65 55.5) rotate(-11.03)" fill="#5cebdf" stroke="#1c2126" stroke-linejoin="round" stroke-width="2"/><line x1="89.56" y1="94.49" x2="140.33" y2="84.6" fill="#5cebdf" stroke="#1c2126" stroke-linecap="round" stroke-linejoin="round" stroke-width="2"/><line x1="91.16" y1="102.73" x2="141.93" y2="92.84" fill="#5cebdf" stroke="#1c2126" stroke-linecap="round" stroke-linejoin="round" stroke-width="2"/><line x1="92.77" y1="110.97" x2="143.54" y2="101.08" fill="#5cebdf" stroke="#1c2126" stroke-linecap="round" stroke-linejoin="round" stroke-width="2"/></svg>