<svg xmlns="http://www.w3.org/2000/svg" xmlns:xlink="http://www.w3.org/1999/xlink" width="39" height="39" viewBox="0 0 39 39"><defs><radialGradient id="a" cx="-5729.08" cy="-1859.59" r="1" gradientTransform="matrix(0, 38.3, 44.12, 0, 82069.67, 219429.6)" gradientUnits="userSpaceOnUse"><stop offset="0" stop-color="#20c6b7"/><stop offset="1" stop-color="#4d9abf"/></radialGradient></defs><path d="M28.11,13.63h0a.17.17,0,0,1,0-.1l.78-4.72,3.62,3.62L28.67,14H28.6A1.83,1.83,0,0,0,28.11,13.63Zm5.26-.28,3.87,3.87c.81.81,1.21,1.21,1.36,1.68a1.29,1.29,0,0,1,0,.21l-9.26-3.93h0s-.08,0-.08-.07.05-.06.08-.07h0Zm5.12,7a7.15,7.15,0,0,1-1.25,1.43l-4.37,4.37L27.22,25h0c-.05,0-.1,0-.1-.06a1.71,1.71,0,0,0-.66-1.19s0-.06,0-.09v0l1.07-6.52v0c0-.05,0-.1.06-.1a1.74,1.74,0,0,0,1.16-.67l0,0a.12.12,0,0,1,.1,0l9.65,4.08Zm-6.62,6.8-7.19,7.19,1.23-7.56h0s0,0,0,0,0,0,.06,0h0a1.89,1.89,0,0,0,.7-.52.15.15,0,0,1,.09-.06h0l5.06,1Zm-8.71,8.71-.81.81-9-12.94v0a.09.09,0,0,1,0-.06.08.08,0,0,1,0,0h0l.08-.13,0,0h0a.1.1,0,0,1,0-.06h.07l9.92,2.05a.19.19,0,0,1,.08,0s0,0,0,.05a1.75,1.75,0,0,0,1,1.17s0,0,0,.08a.06.06,0,0,0,0,0C24.52,27.55,23.45,34.09,23.16,35.86Zm-1.69,1.69a3.83,3.83,0,0,1-1.35,1,2,2,0,0,1-1.2,0c-.47-.15-.87-.55-1.68-1.36l-9-9,2.35-3.64a.1.1,0,0,1,0-.05s.06,0,.09,0a2.49,2.49,0,0,0,1.64-.08s.05,0,.07,0l0,0,9,13.06ZM7.38,27.36,5.32,25.3l4.07-1.74h0s.05,0,.07.07l.13.18v0s0,0,0,.05L7.38,27.36Zm-3-3L1.8,21.78a13.4,13.4,0,0,1-1-1.05l7.93,1.65h0c.05,0,.1,0,.1.07s0,.07-.1.09h0Zm-4.06-5a2,2,0,0,1,.09-.49C.59,18.43,1,18,1.8,17.22l3.34-3.34c1.53,2.23,3.08,4.46,4.62,6.69,0,0,.06.08,0,.11a2.88,2.88,0,0,0-.4.52.18.18,0,0,1-.05.07h0l-9-1.88ZM6,13,10.52,8.5l3.33,1.41,2.29,1a.13.13,0,0,1,.07.06s0,0,0,.06a2,2,0,0,0,.52,1.82s0,.08,0,.11v0L12.13,20l0,.05H12a2.52,2.52,0,0,0-.54-.08,2.4,2.4,0,0,0-.52.07h-.06a.1.1,0,0,1,0-.05L6,13Zm5.4-5.4,5.81-5.81C18.05,1,18.45.57,18.92.42a2,2,0,0,1,1.2,0c.47.15.87.55,1.68,1.36L23.06,3l-4.14,6.4a.1.1,0,0,1,0,.05.1.1,0,0,1-.09,0,2.11,2.11,0,0,0-1.92.37s-.07,0-.1,0C16.23,9.62,12,7.85,11.43,7.59Zm12.5-3.68,3.82,3.82-.92,5.7v0a0,0,0,0,1,0,0,.05.05,0,0,1-.05,0,1.85,1.85,0,0,0-.54.28h0l0,0h-.05L20.3,11.35h0s-.08,0-.08-.07a2.15,2.15,0,0,0-.31-.91s-.06-.1,0-.14ZM20,12.52l5.46,2.31a.11.11,0,0,1,.07.06.06.06,0,0,1,0,.06,2.06,2.06,0,0,0,0,.26v.15s0,.06-.07.07h0L13.27,20.61s0,0,0,0,0-.07,0-.11l0,0,4.48-6.94h0s.05-.09.1-.09h0l.28,0a2,2,0,0,0,1.69-.89l0,0A.12.12,0,0,1,20,12.52Zm-6.24,9.19L26,16.47l0,0a2,2,0,0,0,.18.15l0,0s0,0,0,.05v0L25.27,23.2v0c0,.05,0,.1-.06.1a1.73,1.73,0,0,0-1.37.85h0a.12.12,0,0,1,0,0h-.07l-9.79-2S13.77,21.71,13.76,21.71Z" fill="url(#a)"/></svg>