<?xml version="1.0" encoding="utf-8"?>
<!-- Generator: Adobe Illustrator 28.2.0, SVG Export Plug-In . SVG Version: 6.00 Build 0)  -->
<svg version="1.1" id="Layer_1" xmlns="http://www.w3.org/2000/svg" xmlns:xlink="http://www.w3.org/1999/xlink" x="0px" y="0px"
	 viewBox="0 0 140 24" style="enable-background:new 0 0 140 24;" xml:space="preserve">
<style type="text/css">
	.st0{fill:url(#SVGID_1_);}
	.st1{fill:#11181C;}
</style>
<linearGradient id="SVGID_1_" gradientUnits="userSpaceOnUse" x1="-1.147389e-06" y1="754.0304" x2="19.3" y2="754.0304" gradientTransform="matrix(1 0 0 1 0 -742)">
	<stop  offset="0" style="stop-color:#FCB60A"/>
	<stop  offset="0.115" style="stop-color:#F69319"/>
	<stop  offset="0.305" style="stop-color:#EF6D2A"/>
	<stop  offset="0.727" style="stop-color:#ED5332"/>
	<stop  offset="1" style="stop-color:#ED6A32"/>
</linearGradient>
<path class="st0" d="M19.1,14.2c0,0.5,0.2,3.6,0.2,4c0,0.5,0,0.9,0,1.4c0,0.6-0.1,1.2-0.2,1.8c0,0.2-0.1,0.3-0.1,0.5
	c-0.1,0.4-0.3,0.7-0.6,0.9c-0.4,0.2-0.7,0.4-1.2,0.6c-3.6,1.1-11.7,0.6-13,0.5c-0.1,0-0.2,0-0.3,0c-0.7-0.1-2.2-0.2-2.7-0.5
	c-0.4-0.2-0.8-0.5-1-0.9c-0.1-0.1-0.1-0.3-0.2-0.4c0-0.3,0-0.6,0-0.9c0.1-0.6,0.2-1.1,0.4-1.6c0-0.1,0.1-0.3,0.1-0.4
	C1.2,17.4,6.9,3.4,9.4,1C9.5,1,9.8,0.7,10,0.5c0.5-0.3,0.9-0.4,1.5-0.5l0,0h0.1c0.6-0.1,1.2,0,1.8,0.2c0.9,0.4,2.3,0.9,2.6,1
	c0.5,0.2,0.9,0.5,1.1,0.9l0.1,0.1c0.4,0.5,0.6,1.1,0.7,1.8C18.2,5.4,18.6,8.2,19.1,14.2L19.1,14.2z"/>
<path class="st1" d="M38.5,12.2c0,1.5-0.3,2.8-0.9,3.9c-0.6,1.1-1.4,1.9-2.4,2.5s-2.1,0.8-3.4,0.8c-1.3,0-2.4-0.3-3.4-0.8
	c-1-0.6-1.8-1.4-2.4-2.5s-0.9-2.4-0.9-3.9s0.3-2.8,0.9-3.9s1.4-1.9,2.4-2.5S30.5,5,31.8,5c1.3,0,2.4,0.3,3.4,0.8
	c1,0.6,1.8,1.4,2.4,2.5C38.2,9.3,38.5,10.6,38.5,12.2L38.5,12.2z M35.5,12.2c0-1-0.1-1.8-0.4-2.5c-0.3-0.7-0.7-1.2-1.3-1.5
	c-0.5-0.4-1.2-0.5-1.9-0.5c-0.7,0-1.4,0.2-1.9,0.5c-0.5,0.4-1,0.9-1.3,1.5c-0.3,0.7-0.4,1.5-0.4,2.5s0.1,1.8,0.4,2.5
	s0.7,1.2,1.3,1.5c0.5,0.4,1.2,0.5,1.9,0.5s1.4-0.2,1.9-0.5c0.5-0.4,1-0.9,1.3-1.5C35.3,14,35.5,13.1,35.5,12.2z"/>
<path class="st1" d="M39.6,23.1V8.6h2.9v1.8h0.1c0.1-0.3,0.3-0.6,0.6-0.9c0.2-0.3,0.6-0.5,1-0.7s0.9-0.3,1.5-0.3
	c0.8,0,1.5,0.2,2.1,0.6c0.7,0.4,1.2,1,1.6,1.8c0.4,0.8,0.6,1.8,0.6,3s-0.2,2.2-0.6,3c-0.4,0.8-0.9,1.4-1.6,1.8
	c-0.7,0.4-1.4,0.6-2.2,0.6c-0.6,0-1.1-0.1-1.5-0.3c-0.4-0.2-0.7-0.4-1-0.7c-0.3-0.3-0.4-0.6-0.6-0.9h-0.1V23L39.6,23.1L39.6,23.1z
	 M42.5,13.9c0,0.6,0.1,1.2,0.3,1.6c0.2,0.5,0.4,0.8,0.8,1.1c0.3,0.3,0.7,0.4,1.2,0.4s0.9-0.1,1.2-0.4s0.6-0.6,0.8-1.1s0.3-1,0.3-1.6
	s-0.1-1.1-0.3-1.6s-0.4-0.8-0.8-1.1c-0.3-0.3-0.7-0.4-1.2-0.4s-0.9,0.1-1.2,0.4c-0.3,0.3-0.6,0.6-0.8,1.1
	C42.6,12.7,42.5,13.3,42.5,13.9L42.5,13.9z"/>
<path class="st1" d="M56.4,19.4c-1.1,0-2-0.2-2.8-0.7c-0.8-0.4-1.4-1.1-1.8-1.9c-0.4-0.8-0.6-1.8-0.6-2.9s0.2-2,0.6-2.8
	c0.4-0.8,1-1.5,1.8-1.9c0.8-0.5,1.7-0.7,2.7-0.7c0.7,0,1.4,0.1,2,0.3s1.1,0.6,1.6,1s0.8,1,1.1,1.7s0.4,1.5,0.4,2.3v0.8h-9v-1.8h6.2
	c0-0.4-0.1-0.8-0.3-1.1s-0.4-0.6-0.8-0.8c-0.3-0.2-0.7-0.3-1.1-0.3c-0.4,0-0.8,0.1-1.2,0.3c-0.3,0.2-0.6,0.5-0.8,0.8
	s-0.3,0.7-0.3,1.1v1.7c0,0.5,0.1,1,0.3,1.3c0.2,0.4,0.5,0.7,0.8,0.9c0.4,0.2,0.8,0.3,1.3,0.3c0.3,0,0.6,0,0.9-0.1
	c0.3-0.1,0.5-0.2,0.7-0.4c0.2-0.2,0.3-0.4,0.4-0.7l2.7,0.2c-0.1,0.6-0.4,1.2-0.8,1.7c-0.4,0.5-1,0.9-1.6,1.1
	C58,19.2,57.2,19.4,56.4,19.4L56.4,19.4z"/>
<path class="st1" d="M65.4,13.1v6.1h-2.9V8.6h2.8v1.9h0.1C65.6,9.9,66,9.4,66.5,9c0.6-0.4,1.2-0.5,2-0.5c0.7,0,1.4,0.2,1.9,0.5
	s1,0.8,1.3,1.4c0.3,0.6,0.5,1.3,0.5,2.1v6.7h-2.9V13c0-0.6-0.2-1.1-0.5-1.5S68,11,67.4,11c-0.4,0-0.7,0.1-1,0.3s-0.5,0.4-0.7,0.7
	C65.5,12.2,65.4,12.6,65.4,13.1L65.4,13.1z"/>
<path class="st1" d="M81.5,9.2c-0.1-0.6-0.3-1-0.7-1.3c-0.4-0.3-1-0.5-1.7-0.5c-0.5,0-0.9,0.1-1.2,0.2C77.5,7.8,77.2,8,77,8.2
	S76.7,8.7,76.7,9s0,0.5,0.2,0.7c0.1,0.2,0.3,0.3,0.5,0.5c0.2,0.1,0.4,0.3,0.7,0.3c0.3,0.1,0.6,0.2,0.9,0.2l1.3,0.3
	c0.6,0.1,1.2,0.3,1.7,0.5s1,0.5,1.3,0.8c0.4,0.3,0.7,0.7,0.9,1.2c0.2,0.5,0.3,1,0.3,1.6c0,0.9-0.2,1.6-0.7,2.2
	c-0.4,0.6-1.1,1.1-1.9,1.5c-0.8,0.3-1.8,0.5-3,0.5c-1.1,0-2.1-0.2-3-0.5c-0.8-0.3-1.5-0.9-2-1.5c-0.5-0.7-0.7-1.5-0.7-2.5h2.9
	c0,0.5,0.2,0.9,0.4,1.2c0.2,0.3,0.6,0.5,1,0.7s0.9,0.2,1.4,0.2s0.9-0.1,1.3-0.2s0.7-0.3,0.9-0.6c0.2-0.3,0.3-0.6,0.3-0.9
	c0-0.3-0.1-0.6-0.3-0.8c-0.2-0.2-0.5-0.4-0.8-0.5c-0.4-0.2-0.8-0.3-1.3-0.4L77.6,13c-1.2-0.3-2.1-0.7-2.8-1.3c-0.7-0.6-1-1.4-1-2.5
	c0-0.8,0.2-1.6,0.7-2.2s1.1-1.1,1.9-1.5C77.1,5.1,78,5,79.1,5s2,0.2,2.8,0.5c0.8,0.4,1.4,0.9,1.8,1.5s0.7,1.4,0.7,2.2H81.5L81.5,9.2
	z"/>
<path class="st1" d="M89.1,19.4c-0.7,0-1.3-0.1-1.8-0.4c-0.5-0.2-0.9-0.6-1.3-1c-0.3-0.5-0.5-1-0.5-1.7c0-0.6,0.1-1.1,0.3-1.5
	c0.2-0.4,0.5-0.7,0.9-1c0.4-0.2,0.8-0.4,1.3-0.5s1-0.2,1.5-0.3c0.6-0.1,1.1-0.1,1.5-0.2c0.4-0.1,0.7-0.1,0.8-0.3
	c0.2-0.1,0.3-0.3,0.3-0.5l0,0c0-0.4-0.1-0.8-0.4-1s-0.7-0.4-1.2-0.4s-1,0.1-1.3,0.3s-0.5,0.5-0.6,0.9l-2.7-0.2
	c0.1-0.6,0.4-1.2,0.8-1.7s0.9-0.8,1.6-1.1c0.6-0.3,1.4-0.4,2.2-0.4c0.6,0,1.2,0.1,1.7,0.2c0.5,0.1,1,0.3,1.4,0.6s0.8,0.7,1,1.1
	c0.2,0.4,0.4,1,0.4,1.6V19h-2.8v-1.5h-0.1c-0.2,0.3-0.4,0.6-0.7,0.9c-0.3,0.2-0.6,0.4-1,0.6C90.1,19.3,89.6,19.4,89.1,19.4
	L89.1,19.4z M89.9,17.4c0.4,0,0.8-0.1,1.1-0.3c0.3-0.2,0.6-0.4,0.8-0.7c0.2-0.3,0.3-0.6,0.3-1v-1.1c-0.1,0.1-0.2,0.1-0.4,0.2
	c-0.2,0-0.3,0.1-0.5,0.1s-0.4,0.1-0.6,0.1s-0.4,0.1-0.5,0.1c-0.3,0.1-0.6,0.1-0.9,0.2c-0.3,0.1-0.5,0.3-0.6,0.4
	c-0.1,0.2-0.2,0.4-0.2,0.7c0,0.4,0.1,0.7,0.4,0.9C89.1,17.2,89.5,17.4,89.9,17.4L89.9,17.4z"/>
<path class="st1" d="M103.2,14.7v-6h2.9v10.5h-2.8v-1.9h-0.1c-0.2,0.6-0.6,1.1-1.2,1.5s-1.2,0.6-2,0.6c-0.7,0-1.3-0.2-1.9-0.5
	c-0.5-0.3-1-0.8-1.3-1.4s-0.5-1.3-0.5-2.1V8.6h2.9v6.2c0,0.6,0.2,1.1,0.5,1.5c0.3,0.4,0.8,0.5,1.3,0.5c0.4,0,0.7-0.1,1-0.2
	c0.3-0.2,0.6-0.4,0.8-0.7C103.1,15.6,103.2,15.2,103.2,14.7L103.2,14.7z"/>
<path class="st1" d="M112.5,19.4c-1.1,0-2-0.2-2.8-0.7s-1.4-1.1-1.8-1.9c-0.4-0.8-0.6-1.8-0.6-2.8c0-1.1,0.2-2,0.6-2.8
	s1-1.5,1.8-1.9c0.8-0.5,1.7-0.7,2.8-0.7c0.9,0,1.7,0.2,2.4,0.5c0.7,0.3,1.2,0.8,1.7,1.4c0.4,0.6,0.6,1.3,0.7,2.1h-2.8
	c-0.1-0.5-0.3-0.9-0.6-1.3c-0.3-0.3-0.8-0.5-1.3-0.5s-0.9,0.1-1.2,0.4c-0.3,0.2-0.6,0.6-0.8,1.1c-0.2,0.5-0.3,1-0.3,1.7
	s0.1,1.2,0.3,1.7c0.2,0.5,0.5,0.8,0.8,1.1c0.3,0.2,0.7,0.4,1.2,0.4c0.3,0,0.6-0.1,0.9-0.2s0.5-0.3,0.7-0.6c0.2-0.3,0.3-0.6,0.3-0.9
	h2.8c0,0.8-0.3,1.5-0.7,2.1c-0.4,0.6-0.9,1.1-1.6,1.4C114.2,19.2,113.4,19.4,112.5,19.4L112.5,19.4z"/>
<path class="st1" d="M123.5,19.4c-1.1,0-2-0.2-2.8-0.7c-0.8-0.4-1.4-1.1-1.8-1.9c-0.4-0.8-0.6-1.8-0.6-2.9s0.2-2,0.6-2.8
	s1-1.5,1.8-1.9c0.8-0.5,1.7-0.7,2.7-0.7c0.7,0,1.4,0.1,2,0.3s1.1,0.6,1.6,1s0.8,1,1.1,1.7c0.3,0.7,0.4,1.5,0.4,2.3v0.8h-9v-1.8h6.2
	c0-0.4-0.1-0.8-0.3-1.1c-0.2-0.3-0.4-0.6-0.8-0.8c-0.3-0.2-0.7-0.3-1.1-0.3s-0.8,0.1-1.2,0.3c-0.3,0.2-0.6,0.5-0.8,0.8
	c-0.2,0.3-0.3,0.7-0.3,1.1v1.7c0,0.5,0.1,1,0.3,1.3c0.2,0.4,0.5,0.7,0.8,0.9c0.4,0.2,0.8,0.3,1.3,0.3c0.3,0,0.6,0,0.9-0.1
	s0.5-0.2,0.7-0.4c0.2-0.2,0.3-0.4,0.4-0.7l2.7,0.2c-0.1,0.6-0.4,1.2-0.8,1.7s-1,0.9-1.6,1.1C125.1,19.2,124.4,19.4,123.5,19.4
	L123.5,19.4z"/>
<path class="st1" d="M133.8,19.3c-0.8,0-1.5-0.2-2.2-0.6s-1.2-1-1.6-1.8c-0.4-0.8-0.6-1.8-0.6-3s0.2-2.2,0.6-3
	c0.4-0.8,0.9-1.4,1.6-1.8c0.7-0.4,1.4-0.6,2.1-0.6c0.6,0,1.1,0.1,1.5,0.3s0.7,0.4,1,0.7c0.2,0.3,0.4,0.6,0.6,0.9h0.1V5.1h2.9v14H137
	v-1.7h-0.1c-0.1,0.3-0.3,0.6-0.6,0.9s-0.6,0.5-1,0.7S134.4,19.3,133.8,19.3L133.8,19.3z M134.7,17c0.5,0,0.9-0.1,1.2-0.4
	s0.6-0.6,0.8-1.1s0.3-1,0.3-1.6s-0.1-1.2-0.3-1.6c-0.2-0.5-0.4-0.8-0.8-1.1c-0.3-0.3-0.7-0.4-1.2-0.4s-0.9,0.1-1.2,0.4
	c-0.3,0.3-0.6,0.6-0.8,1.1s-0.3,1-0.3,1.6s0.1,1.2,0.3,1.6c0.2,0.5,0.4,0.8,0.8,1.1C133.9,16.9,134.3,17,134.7,17z"/>
</svg>
