<?xml version="1.0" encoding="utf-8"?>
<!-- Generator: Adobe Illustrator 28.2.0, SVG Export Plug-In . SVG Version: 6.00 Build 0)  -->
<svg version="1.1" id="Layer_1" xmlns="http://www.w3.org/2000/svg" xmlns:xlink="http://www.w3.org/1999/xlink" x="0px" y="0px"
	 viewBox="0 0 1200 1200" style="enable-background:new 0 0 1200 1200;" xml:space="preserve">
<style type="text/css">
	.st0{fill:#231F20;}
	.st1{fill:#F9F4DA;}
</style>
<circle class="st0" cx="600" cy="600" r="593"/>
<g>
	<path class="st1" d="M763.2,369.3V720c0,121.4-96.9,186.8-246.1,186.8S271,841.4,271,720V369.3h154.8v344.4
		c0,39.4,34.5,66.4,91.3,66.4s92.4-27,92.4-66.4V369.3L763.2,369.3L763.2,369.3z"/>
	<path class="st1" d="M842.9,533.1c-0.5-33.4,29-60.6,65-60.6c34.1,0,64.6,27.2,65,60.6c-0.5,34.2-30.9,61.5-65,61.5
		C872,594.6,842.5,567.4,842.9,533.1"/>
	<path class="st1" d="M819,867.9c12-40.9,26.6-99.9,26.6-157l-0.4-32.8l32.9,0h61.8l32.3,0v32.8c-5.5,71.4-33.5,138.4-51,177.2
		l-7.6,18.3l-22.2,0.3h-84.4L819,867.9L819,867.9z"/>
</g>
</svg>
