<svg width="1200" height="630" viewBox="0 0 1200 630" fill="none" xmlns="http://www.w3.org/2000/svg">
<g clip-path="url(#clip0_41_18563)">
<rect width="1200" height="630" fill="white"/>
<rect width="1200" height="630" fill="#C4C4C4"/>
<path d="M2 499H1200.5" stroke="black"/>
<path d="M600 502.5V635" stroke="black"/>
<path d="M46.5615 576V557.235H52.9482V554.862H37.5967V557.235H43.9834V576H46.5615ZM71.5664 567.138V563.725C71.5664 557.88 68.6221 554.423 63.8174 554.423C59.0127 554.423 56.0684 557.88 56.0684 563.725V567.138C56.0684 572.982 59.0127 576.439 63.8174 576.439C68.6221 576.439 71.5664 572.982 71.5664 567.138ZM63.8174 573.993C60.6094 573.993 58.6758 571.532 58.6758 567.123V563.739C58.6758 559.33 60.6094 556.869 63.8174 556.869C67.0254 556.869 68.959 559.33 68.959 563.739V567.123C68.959 571.532 67.0254 573.993 63.8174 573.993ZM82.3623 564.838C83.8125 564.838 85.0137 563.607 85.0137 562.128C85.0137 560.648 83.8125 559.418 82.3623 559.418C80.9121 559.418 79.7109 560.648 79.7109 562.128C79.7109 563.607 80.9121 564.838 82.3623 564.838ZM82.3623 576.088C83.8125 576.088 85.0137 574.872 85.0137 573.378C85.0137 571.898 83.8125 570.683 82.3623 570.683C80.9121 570.683 79.7109 571.898 79.7109 573.378C79.7109 574.872 80.9121 576.088 82.3623 576.088Z" fill="black"/>
<path d="M649.313 576V566.786H658.337V564.486H649.313V557.235H659.187V554.862H646.721V576H649.313ZM671.623 567.577L675.563 576H678.479L674.172 567.05C676.574 566.259 678.112 563.988 678.112 561.22C678.112 557.294 675.49 554.862 671.301 554.862H664.211V576H666.76V567.577H671.623ZM666.76 557.162H671.066C673.894 557.162 675.505 558.656 675.505 561.278C675.505 563.915 673.864 565.395 670.949 565.395H666.76V557.162ZM697.111 567.138V563.725C697.111 557.88 694.167 554.423 689.362 554.423C684.558 554.423 681.613 557.88 681.613 563.725V567.138C681.613 572.982 684.558 576.439 689.362 576.439C694.167 576.439 697.111 572.982 697.111 567.138ZM689.362 573.993C686.154 573.993 684.221 571.532 684.221 567.123V563.739C684.221 559.33 686.154 556.869 689.362 556.869C692.57 556.869 694.504 559.33 694.504 563.739V567.123C694.504 571.532 692.57 573.993 689.362 573.993ZM702.59 567.885L702.458 559.33H702.648L706.896 571.034H708.918L713.166 559.33H713.356L713.225 567.885V576H715.524V554.862H712.624L708.01 567.987H707.819L703.176 554.862H700.29V576H702.59V567.885ZM726.452 564.838C727.902 564.838 729.104 563.607 729.104 562.128C729.104 560.648 727.902 559.418 726.452 559.418C725.002 559.418 723.801 560.648 723.801 562.128C723.801 563.607 725.002 564.838 726.452 564.838ZM726.452 576.088C727.902 576.088 729.104 574.872 729.104 573.378C729.104 571.898 727.902 570.683 726.452 570.683C725.002 570.683 723.801 571.898 723.801 573.378C723.801 574.872 725.002 576.088 726.452 576.088Z" fill="black"/>
<path d="M377.922 273.719H377.727L363.117 225.633H355.891L374.055 282H381.398L399.562 225.633H392.609L377.922 273.719ZM441.75 282H449.016L430.852 225.633H423.508L405.344 282H412.336L417.258 265.828H436.867L441.75 282ZM426.984 233.914H427.18L435.07 259.93H419.055L426.984 233.914ZM495.734 275.594H469.016V225.633H462.18V282H495.734V275.594ZM543.625 275.672H517.258V256.297H542.18V250.242H517.258V231.961H543.625V225.633H510.344V282H543.625V275.672ZM563 282V238.016H563.547L587.766 282H594.289V225.633H588.078V269.5H587.531L563.391 225.633H556.789V282H563ZM628.43 282V231.961H645.461V225.633H604.523V231.961H621.555V282H628.43ZM689.289 282V275.867H677.883V231.766H689.289V225.633H659.602V231.766H671.008V275.867H659.602V282H689.289ZM711.359 282V238.016H711.906L736.125 282H742.648V225.633H736.438V269.5H735.891L711.75 225.633H705.148V282H711.359ZM790.891 275.672H764.523V256.297H789.445V250.242H764.523V231.961H790.891V225.633H757.609V282H790.891V275.672ZM844.094 282V275.945H828.234V225.633H821.477L804.68 236.531V243.875L820.812 233.445H821.438V275.945H804.797V282H844.094Z" fill="black"/>
</g>
<defs>
<clipPath id="clip0_41_18563">
<rect width="1200" height="630" fill="white"/>
</clipPath>
</defs>
</svg>
