<?xml version="1.0" encoding="UTF-8"?>
<svg id="Layer_1" data-name="Layer 1" xmlns="http://www.w3.org/2000/svg" viewBox="0 0 191 70">
  <g>
    <path d="M14.7,25.52c2.26,3.52,4.12,6.51,4.75,7.32,1.74,2.31,3.14,3.73,4.07,3.81.23.01.34.31.39.73.09,1.42-.35,1.97-1.26,2.08-1.37.16-2.94-.35-4.52-1.71-.81-.68-3.17-3.69-5.87-7.31-1.79,3.49-4.12,8.08-4.85,10.41-.06.12-.21.22-.43.24-1.18.14-4.15-.83-4.3-2.16,0-.08-.02-.15,0-.27.71-3.87,3.56-9.87,5.45-13.88-3.41-4.78-5.92-8.77-5.98-9.26-.19-1.64,1.18-5.43,2.17-5.54.5-.06,3.19,4.15,6.55,9.47,3.32-5.95,6.87-10.99,7.82-11.1,1.37-.16,3.05,1.65,3.25,3.37.08.65-.04,1.35-.43,1.98-.97,1.58-4.94,8.3-6.81,11.83Z" fill="#db4648" stroke-width="0"/>
    <path d="M34.58,38.46c-5.14.6-10.08-6.04-11.21-15.72-1.08-9.99,4.43-15.69,6.11-15.88.88-.1,1.59.43,2,.58.76-.44,1.77-1.71,3.29-1.89,2.48-.29,6.85,2.79,8.11,13.65.06.5.08,1.07.15,1.61.94,10.78-3.27,17.06-8.45,17.66ZM32.49,11.49c-1.71.2-4.26,4.86-3.41,12.13.74,6.32,3.61,9.81,5.36,9.61,1.83-.21,4.12-3.72,3.26-11.46-.84-7.2-3.38-10.49-5.21-10.28Z" fill="#db4648" stroke-width="0"/>
    <path d="M58.01,20.49c2.26,3.52,4.12,6.51,4.75,7.32,1.73,2.31,3.14,3.73,4.07,3.81.23.01.34.31.39.73.09,1.42-.35,1.97-1.26,2.08-1.37.16-2.94-.35-4.52-1.71-.81-.68-3.17-3.68-5.87-7.31-1.79,3.49-4.12,8.08-4.85,10.41-.06.12-.21.22-.43.24-1.18.14-4.15-.83-4.3-2.16,0-.08-.02-.15,0-.27.71-3.87,3.56-9.87,5.45-13.87-3.41-4.78-5.92-8.77-5.98-9.26-.19-1.64,1.18-5.43,2.17-5.54.5-.06,3.19,4.15,6.55,9.47,3.32-5.95,6.87-10.99,7.82-11.1,1.37-.16,3.05,1.65,3.25,3.37.08.65-.04,1.35-.43,1.98-.97,1.58-4.94,8.3-6.81,11.83Z" fill="#db4648" stroke-width="0"/>
    <path d="M77.9,33.42c-5.14.6-10.08-6.04-11.21-15.72-1.08-9.99,4.43-15.69,6.1-15.88.88-.1,1.59.43,2,.58.76-.43,1.77-1.71,3.29-1.89,2.48-.29,6.85,2.79,8.11,13.65.06.5.08,1.07.15,1.61.94,10.78-3.27,17.06-8.45,17.66ZM75.8,6.45c-1.71.2-4.26,4.86-3.42,12.13.74,6.32,3.61,9.81,5.36,9.61,1.83-.21,4.12-3.72,3.26-11.46-.84-7.2-3.38-10.49-5.21-10.28Z" fill="#db4648" stroke-width="0"/>
    <path d="M93.68,35.64c-.34.04-.74-.03-.78-.37-.1-.84,1.52-2.84,1.44-3.53-.02-.19-.11-.3-.34-.31-1.01-.08-1.52-.79-1.63-1.78-.3-2.59.54-3.3,2.22-3.5,1.33-.16,2.67.42,2.87,2.14.02.15.03.27.04.38.01,2.08-1.92,6.75-3.82,6.97Z" fill="#db4648" stroke-width="0"/>
  </g>
  <g>
    <path d="M39.59,64.5c0,.39-.1.79-.43,1.01-3.07,2.09-6.24,3.58-8.69,3.64-1.33.03-3.96-1.3-4.16-2.06-.72-2.65-1.09-5.51-1.15-8.41-.09-4.02.35-11.71.95-13.17.26-.67,1.82-1.34,2.93-1.36,1.18-.03,1.43.48,1.47,2.24.06,2.6-.59,7.51-.44,14.64.03,1.36.12,2.84.33,3.95.09,0,.18,0,.3,0,2.27-.05,6.36-1.08,8.12-1.96.03,0,.06-.03.06-.03.09,0,.18.09.28.21.18.21.41.78.42,1.32Z" fill="#db4648" stroke-width="0"/>
    <path d="M52.44,45.23c.03,1.45-4.27,12.37-5.09,14.68-.04,1.12-.01,2.21.01,3.26.04,1.75.13,3.44.38,4.86,0,.36-1.28.81-2.55.84-.88.02-1.73-.14-1.89-.71-.62-2.17-.99-5.15-1.12-8.26-1.26-2.24-5.64-11.79-5.67-13.42-.02-.94,2.67-2.23,3.67-2.26.33,0,.55.08.58.29.26,2.44,3.65,9.38,4.12,10.16,0,0,2.91-9.35,3.83-10.33.06-.06.27-.13.54-.13.97-.02,2.79.33,3.16.87,0,.03.03.09.03.15Z" fill="#db4648" stroke-width="0"/>
    <path d="M68.49,67.13c0,.48-.41.64-.98.66-1.03.02-2.58-.34-2.84-1.06-.29-.72-5.96-11.42-5.96-11.42-.36,2.85-.59,6.06-.53,9.2.03,1.39.24,2.72.27,4.02,0,.27-.23.58-.62.59-.63.01-3.36-1.5-3.45-3.1-.08-1.12-.14-2.45-.18-3.9-.11-5.23.07-12,.41-15.91.14-1.7,1.67-2.39,2.91-2.42.6-.01,1.09.13,1.22.4.38.78,6.47,13.89,6.47,13.89-.15-1.54-.25-3.11-.28-4.62-.08-3.54.19-6.72.39-8.38.08-.58.35-.76.8-.77,1.12-.02,3.41,1.2,3.43,2.16,0,.03,0,.06,0,.09-.87,5.76-.95,14.71-1.06,20.58Z" fill="#db4648" stroke-width="0"/>
    <path d="M86.23,66.75c0,.48-.41.64-.98.66-1.03.02-2.58-.34-2.83-1.06-.29-.72-5.96-11.42-5.96-11.42-.36,2.85-.59,6.06-.53,9.2.03,1.39.24,2.72.27,4.02,0,.27-.23.58-.62.59-.63.01-3.36-1.5-3.45-3.1-.08-1.12-.14-2.45-.18-3.9-.11-5.23.07-12,.41-15.91.14-1.7,1.67-2.39,2.91-2.42.6-.01,1.09.13,1.22.4.38.78,6.47,13.89,6.47,13.89-.15-1.54-.25-3.11-.28-4.62-.08-3.54.19-6.72.39-8.38.08-.58.35-.76.8-.77,1.12-.02,3.41,1.2,3.43,2.16,0,.03,0,.06,0,.09-.87,5.76-.95,14.71-1.07,20.58Z" fill="#db4648" stroke-width="0"/>
    <path d="M114.35,45.73c0,.36-.23.61-.74.65-1.75.13-6.24.71-7.62,1.37-.09,1.36-.14,3.39-.16,5.23.24.03.54.02.82.01,1.63-.04,3.65-.29,5.49-.75.36,0,.74.5.76,1.5.01.67-.21,1.46-.96,1.71-2.07.77-4.42,1.06-6.05,1.43.03,1.15,0,3.75.05,6.68.03,1.21.11,2.45.14,3.65,0,.33-.23.46-.59.47-1.12.02-3.23-1.02-3.49-1.92-.78-2.64-.88-5.91-1.01-8.78-1.22-.43-1.68-2.14-1.7-3.05-.01-.67.32-.79.98-.81.21,0,.42,0,.6.02,0-1.66.15-2.72.13-3.72-.01-.48-.05-.94-.18-1.45-.06,0-.12.03-.18.03-.91.02-1.11-.94-1.13-1.82-.02-.73.12-1.45.21-1.67.4-.92,4.78-1.34,8.25-1.42,1.66-.04,3.14,0,3.84.13.97.19,2.17,1.22,2.46,2.12.03.12.07.24.07.36ZM118.33,67.29c-.79.02-1.46-.18-1.62-.72-.98-3.37-1.46-8.62-1.53-12.06-.11-4.87.33-8.41.9-10.12.17-.52.65-.68,1.22-.69,1.33-.03,2.96,1.18,2.99,2.72.03,1.42-.23,5.9-.18,8.5.05,2.45.22,8.79.67,11.53,0,.33-1.16.81-2.46.84Z" fill="#db4648" stroke-width="0"/>
    <path d="M138.84,45.65c.08,3.66-2.26,8.82-2.91,9.22-.15.09-.33.13-.54.13-1.33.03-3.81-1.46-3.83-2.46,0-.15.02-.27.14-.4,1.12-1.26,3.61-5.19,3.58-6.31,0-.21-.1-.33-.28-.33-1.06.02-4.46,3.27-5.5,4.35-1.74,1.85-3,3.87-2.98,4.81.01.6.26.81,4.19,1,3.87.19,6.78,1.58,6.84,4.45.08,3.63-3,6.81-7.62,6.91-3.78.08-6.38-1.49-6.88-1.97-.28-.24-.57-1.17-.59-1.89-.01-.48.13-1.03.61-1.04.12,0,.24.03.37.08,1.13.46,2.95.78,5,.74,3.02-.07,6.1-1.74,6.08-2.88-.12-1.57-9.58,1.54-12.26-3.51-.19-.36-.29-.81-.3-1.32-.05-2.24,1.63-5.75,3.85-8.01,2.25-2.29,6.05-5.21,9.35-5.31.6-.01,1.21.06,1.76.26,1.37.48,1.88,1.83,1.92,3.46Z" fill="#db4648" stroke-width="0"/>
    <path d="M155.03,54.25c.05,2.45.22,8.82.67,11.54,0,.36-.98.78-2.31.81-.91.02-1.79-.17-1.95-.77-.62-2.22-.81-5.33-.87-8.17-.88-.04-1.84-.08-2.75-.06-.54.01-1.09.05-1.6.09.07,3.42.18,8.1.49,10.03,0,.33-.95.78-2.19.8-.88.02-1.7-.14-1.86-.75-.62-2.16-1.04-5.96-1.2-9.26-.06.03-.09.03-.15.03-1.57.03-2.76-1.6-2.77-2.12-.01-.51,1.16-.96,2.75-1.45v-.63c-.02-.21-.02-.42-.03-.63-.1-4.81.41-9.02.98-10.66.17-.52.65-.68,1.25-.69,1.33-.03,2.93,1.27,2.96,2.84.03,1.21-.3,5.84-.3,8.59.66-.1,1.27-.18,1.84-.19.85-.02,1.69.02,2.48.07-.11-4.84-.09-8.34.45-10.08.14-.49.65-.68,1.22-.69,1.36,0,3.11,1.29,3.15,2.84,0,.09,0,.18,0,.24-.14,1.7-.33,5.84-.27,8.29Z" fill="#db4648" stroke-width="0"/>
    <path d="M172.48,59.98c0,.45-.1.97-.39,1.31-2.69,2.99-6.67,4.92-8.75,4.97-1.36.03-3.84-1.34-4.04-2.06-.95-3.34-1.12-7.08-1.2-10.65-.11-4.87.3-8.38.9-10.09.4-1.16,4.08-1.45,6.92-1.51,1.48-.03,2.72,0,3.12.05,1.12.13,2.48,1.58,2.5,2.51,0,.33-.2.58-.74.62-1.72.13-6.24.71-7.62,1.37-.06,1.36-.12,2.79-.11,4.63.3.02.64.02,1,0,1.57-.03,3.44-.26,5.09-.9.03,0,.06,0,.09,0,.33,0,.65.62.66,1.32.01.67-.21,1.43-.93,1.86-1.91,1.19-4.28,1.85-5.91,2.21.04,1.6.22,4.47.35,6.43,2.78-.3,6.7-2.2,8.39-3.39.03,0,.03-.03.06-.03.09,0,.21.09.31.21.16.18.29.63.3,1.11Z" fill="#db4648" stroke-width="0"/>
    <path d="M189.53,62.36c.02.88-.3,1.64-2.2,1.68-1.33.03-3.33-.26-5.09-1.73-1.63-1.39-2.7-3.03-3.39-4.49.05,2.54.17,4.95.42,6.76,0,.06,0,.15,0,.21.02.91-.49,1.28-1.15,1.3-1.12.02-2.68-.88-2.82-1.84-.35-2.35-.52-5.64-.59-9-.07-3.23-.05-6.56.01-9.16-1.3-.21-2.85-1.75-2.87-2.63-.02-.76,3.77-1.84,8.03-1.93,3.93-.09,8.06.97,8.17,5.66.12,5.44-4.08,8.37-5.01,8.85.07.57.33,1.42,1.42,2.9,2.18,3.04,4.86,2.43,5.06,3.28,0,.03,0,.09,0,.15ZM179.46,45.56h-.27c-.21,2.82-.34,6.48-.36,10.02,1.44-.76,4.65-3.09,4.56-7.39-.06-1.6-1.78-2.68-3.93-2.64Z" fill="#db4648" stroke-width="0"/>
  </g>
</svg>