<?xml version="1.0" encoding="UTF-8"?><svg xmlns="http://www.w3.org/2000/svg" xmlns:xlink="http://www.w3.org/1999/xlink" viewBox="0 0 1200 630"><defs><path id="reuse-0" fill="none" stroke-width="0" d="M0 0h100v100H0z"/></defs><defs><clipPath id="e"><use xlink:href="#reuse-0" stroke-width="0"/></clipPath><pattern id="d" width="100" height="100" x="0" y="0" patternTransform="rotate(45 -12980.601 -15869.371)" patternUnits="userSpaceOnUse" viewBox="0 0 100 100"><use xlink:href="#reuse-0" stroke-width="0"/><g fill="#30c8c9" stroke-width="0" clip-path="url(#e)"><path d="M2.27 40.97 5.4 44.1c5.61 5.61 9.2 5.64 14.71.12l4.6-4.6c3.23-3.23 6.38-3.11 10.75 1.88l4.93-4.93c-4.99-4.37-5.12-7.52-1.86-10.77l4.6-4.6c5.51-5.51 5.49-9.09-.12-14.71l-3.13-3.13-3.85 3.85 2.09 2.09c3 3 2.9 4.31-.58 7.79l-5.7 5.7c-2.84 2.84-2.63 6.82 1.12 10.9l-.37.37c-4.08-3.75-8.04-3.98-10.89-1.12l-5.68 5.68c-3.48 3.48-4.79 3.58-7.79.58l-2.09-2.09-3.85 3.85ZM93.88 37.12l-2.09 2.09c-3 3-4.31 2.9-7.79-.58l-5.68-5.68c-2.86-2.86-6.81-2.63-10.89 1.12l-.37-.37c3.75-4.08 3.96-8.06 1.12-10.9l-5.7-5.7c-3.48-3.48-3.58-4.79-.58-7.79l2.09-2.09-3.85-3.85-3.13 3.13c-5.61 5.61-5.64 9.2-.12 14.71l4.6 4.6c3.25 3.25 3.13 6.4-1.86 10.77l4.93 4.93c4.37-4.99 7.52-5.12 10.75-1.88l4.6 4.6c5.51 5.51 9.1 5.49 14.71-.12l3.13-3.13-3.85-3.85ZM6.13 65.14l2.09-2.09c3-3 4.31-2.9 7.79.58l5.68 5.68c2.86 2.86 6.81 2.63 10.89-1.12l.37.37c-3.75 4.08-3.96 8.06-1.12 10.9l5.7 5.7c3.48 3.48 3.58 4.79.58 7.79l-2.09 2.09 3.85 3.85L43 95.76c5.61-5.61 5.64-9.2.12-14.71l-4.6-4.6c-3.25-3.25-3.13-6.4 1.86-10.77l-4.93-4.93c-4.37 4.99-7.52 5.12-10.75 1.88l-4.6-4.6c-5.51-5.51-9.1-5.49-14.71.12l-3.13 3.13 3.85 3.85ZM97.73 61.29l-3.13-3.13c-5.61-5.61-9.2-5.64-14.71-.12l-4.6 4.6c-3.23 3.23-6.38 3.11-10.75-1.88l-4.93 4.93c4.99 4.37 5.12 7.52 1.86 10.77l-4.6 4.6c-5.51 5.51-5.49 9.09.12 14.71l3.13 3.13 3.85-3.85-2.09-2.09c-3-3-2.9-4.31.58-7.79l5.7-5.7c2.84-2.84 2.63-6.82-1.12-10.9l.37-.37c4.08 3.75 8.04 3.98 10.89 1.12l5.68-5.68c3.48-3.48 4.79-3.58 7.79-.58l2.09 2.09 3.85-3.85ZM45.17 48.18l3.43 1.83-3.43 1.83.82 1.46 3.33-2.09-.14 3.92h1.64l-.14-3.92 3.33 2.1.82-1.47-3.44-1.83 3.44-1.83-.82-1.46-3.33 2.09.14-3.92h-1.64l.14 3.92-3.33-2.1-.82 1.47ZM95.17 98.17 98.6 100l-3.43 1.83.82 1.46 3.33-2.09-.14 3.92h1.64l-.14-3.92 3.33 2.1.82-1.47-3.44-1.83 3.44-1.83-.82-1.46-3.33 2.09.14-3.92h-1.64l.14 3.92-3.33-2.1-.82 1.47ZM95.17-1.83 98.6 0l-3.43 1.83.82 1.46 3.33-2.09-.14 3.92h1.64l-.14-3.92 3.33 2.1.82-1.47L101.39 0l3.44-1.83-.82-1.46-3.33 2.09.14-3.92h-1.64l.14 3.92-3.33-2.1-.82 1.47ZM-4.83-1.83-1.4 0l-3.43 1.83.82 1.46L-.68 1.2l-.14 3.92H.82L.68 1.2l3.33 2.1.82-1.47L1.39 0l3.44-1.83-.82-1.46L.68-1.2l.14-3.92H-.82l.14 3.92-3.33-2.1-.82 1.47ZM-4.83 98.17-1.4 100l-3.43 1.83.82 1.46 3.33-2.09-.14 3.92H.82l-.14-3.92 3.33 2.1.82-1.47L1.39 100l3.44-1.83-.82-1.46L.68 98.8l.14-3.92H-.82l.14 3.92-3.33-2.1-.82 1.47ZM80.42 20.98c2.97 2.97 6.48 4.66 10.12 4.87l1.98-1.98c-4.38-.83-7.26-2.27-10-5s-4.18-5.63-5.01-10.01l-1.98 1.98c.21 3.64 1.9 7.15 4.89 10.14ZM19.6 20.96c2.97-2.97 4.66-6.48 4.87-10.12l-1.98-1.98c-.83 4.38-2.27 7.26-5 10s-5.63 4.18-10.01 5.01l1.98 1.98c3.64-.21 7.15-1.9 10.14-4.89ZM19.58 79.68c-2.97-2.97-6.48-4.66-10.12-4.87l-1.98 1.98c4.38.83 7.26 2.27 10 5s4.18 5.63 5.01 10.01l1.98-1.98c-.21-3.64-1.9-7.15-4.89-10.14ZM80.4 79.69c-2.97 2.97-4.66 6.48-4.87 10.12l1.98 1.98c.83-4.38 2.27-7.26 5-10s5.63-4.18 10.01-5.01l-1.98-1.98c-3.64.21-7.15 1.9-10.14 4.89Z"/></g></pattern></defs><path id="b" fill="#5cebdf" stroke-width="0" d="M0 0h1200v498.72H0z"/><path id="c" fill="url(#d)" stroke-width="0" d="M0 0h1200v498.72H0z" opacity=".5"/><g id="f"><path fill="#5bebde" stroke-width="0" d="M780.12 291.75c-6.13-10.58-13.72-21.13-23.46-28.67-6.37-4.93-14.61-11.25-23.18-10.43-9.87.95-19.73 1.91-29.6 2.87a95.78 95.78 0 0 0-5.69-9.26c15.34-2.11 30.58-4.74 45.58-8.36 6.92-1.67 10.33-6.08 10.32-13.48 0-10.28-4.4-19.98-9.01-28.91-13.78-26.69-37.99-44.79-65.69-54.68-15.67-5.59-32.18-9.01-48.6-11.53-15.09-2.32-30.95-4.93-46.31-4.12-9.62.51-19.29 2.31-28.85 3.48a4408.6 4408.6 0 0 1-34.37 4.04c-100 11.37-200.35 19.9-300.81 26.06-53.74 3.29-107.54 5.87-161.37 7.21-7.24.18-10.03 7.52-10.32 13.48-.46 9.35 4.51 21.15 9.01 28.91 6.13 10.58 13.72 21.13 23.46 28.67 3.05 2.36 6.3 4.78 9.78 6.7-6.73 1.48-13.45 3.02-20.15 4.64-9.19 2.22-21.14 3.78-27.87 11.06-17.01 18.39-1.95 47.39 10.16 64.23 12.97 18.02 30.42 32.34 52.95 34.1 10.92.85 22.49-.98 33.42-1.6l36.7-2.1c23.81-1.36 47.61-2.73 71.42-4.09 19.13-1.1 38.23-2.28 57.28-3.89.98 1.53 1.99 3.05 3.03 4.54 5.51 7.91 15.77 19.66 24.95 23.82 8.01 3.63 15.83 7.23 24.32 9.53 8.32 2.25 16.96 3.46 25.52 4.33 13.29 1.35 26.71.62 39.93-1.11 27.23-3.56 53.84-11.01 80.71-16.54 58.19-11.98 117.12-19.96 176.15-26.48 33.06-3.65 66.17-6.84 99.28-10.03 7.25-.7 10-7.02 10.32-13.48.46-9.35-4.51-21.15-9.01-28.91Z"/><path fill="#1c2126" stroke-width="0" d="M94.5 227.41c-.38 0-.71-.13-.98-.4s-.4-.61-.4-1.04V188.6c0-.42.13-.77.4-1.04s.59-.4.98-.4h6.61c.38 0 .71.13.98.4s.4.61.4 1.04v37.37c0 .42-.13.77-.4 1.04s-.59.4-.98.4H94.5ZM130.04 227.41c-.54 0-.95-.13-1.24-.4-.29-.27-.51-.61-.66-1.04l-8.22-26.62c-.08-.19-.11-.38-.11-.57 0-.35.12-.64.37-.89s.55-.37.89-.37h5.12c.46 0 .82.13 1.09.4.27.27.44.52.52.75l5.23 17.71 5.58-17.59c.08-.27.26-.55.55-.83s.7-.43 1.24-.43h3.28c.54 0 .95.14 1.24.43.29.29.47.57.55.83l5.58 17.59 5.23-17.71c.04-.23.19-.48.46-.75s.65-.4 1.15-.4h5.12c.34 0 .64.12.89.37s.37.55.37.89c0 .19-.04.38-.12.57l-8.22 26.62c-.15.42-.37.77-.63 1.04-.27.27-.69.4-1.26.4h-4.43c-.54 0-.96-.13-1.26-.4-.31-.27-.54-.61-.69-1.04l-5.58-16.96-5.63 16.96c-.15.42-.37.77-.66 1.04-.29.27-.72.4-1.29.4h-4.43ZM182.3 227.98c-3.18 0-5.85-.53-7.99-1.58-2.15-1.05-3.79-2.56-4.92-4.51-1.13-1.95-1.75-4.23-1.87-6.84-.04-.77-.06-1.64-.06-2.62s.02-1.83.06-2.56c.11-2.64.77-4.93 1.95-6.87 1.19-1.94 2.86-3.43 5-4.48 2.15-1.05 4.75-1.58 7.82-1.58s5.62.53 7.76 1.58c2.15 1.05 3.81 2.55 5 4.48 1.19 1.94 1.86 4.23 2.01 6.87.04.73.06 1.58.06 2.56s-.02 1.85-.06 2.62c-.15 2.61-.8 4.89-1.93 6.84-1.13 1.96-2.77 3.46-4.92 4.51-2.15 1.05-4.79 1.58-7.93 1.58Zm0-6.38c1.88 0 3.29-.58 4.23-1.73.94-1.15 1.47-2.85 1.58-5.12.04-.58.06-1.34.06-2.3s-.02-1.73-.06-2.3c-.12-2.22-.64-3.92-1.58-5.09-.94-1.17-2.35-1.75-4.23-1.75s-3.3.58-4.25 1.75c-.96 1.17-1.5 2.87-1.61 5.09-.04.58-.06 1.34-.06 2.3s.02 1.72.06 2.3c.11 2.26.65 3.97 1.61 5.12s2.38 1.73 4.25 1.73ZM214.16 227.98c-2.22 0-4.19-.51-5.89-1.52-1.71-1.02-3.04-2.49-4-4.43-.96-1.94-1.44-4.28-1.44-7.04v-16.04c0-.42.14-.77.43-1.04s.62-.4 1.01-.4h6.15c.38 0 .71.13.98.4s.4.61.4 1.04v15.7c0 4.29 1.88 6.44 5.63 6.44 1.8 0 3.23-.56 4.28-1.7 1.05-1.13 1.58-2.71 1.58-4.74v-15.7c0-.42.13-.77.4-1.04s.61-.4 1.04-.4h6.09c.38 0 .71.13.98.4s.4.61.4 1.04v27.02c0 .42-.13.77-.4 1.04s-.59.4-.98.4h-5.69c-.38 0-.71-.13-.98-.4s-.4-.61-.4-1.04v-2.24c-1 1.38-2.28 2.43-3.85 3.16-1.57.73-3.49 1.09-5.75 1.09ZM240.89 227.41c-.42 0-.77-.13-1.04-.4s-.4-.61-.4-1.04v-37.95c0-.42.13-.77.4-1.03.27-.27.61-.4 1.04-.4h5.75c.42 0 .77.13 1.04.4s.4.61.4 1.03v37.95c0 .42-.13.77-.4 1.04s-.61.4-1.04.4h-5.75ZM266.42 227.98c-1.92 0-3.62-.32-5.12-.95a9.968 9.968 0 0 1-3.79-2.76c-1.04-1.21-1.82-2.64-2.36-4.31-.54-1.67-.86-3.52-.98-5.55-.04-.73-.06-1.39-.06-1.98s.02-1.24.06-1.93c.08-1.99.39-3.81.95-5.46.56-1.65 1.34-3.08 2.36-4.28s2.28-2.15 3.79-2.82c1.51-.67 3.23-1.01 5.15-1.01s3.7.34 5.12 1.01c1.42.67 2.59 1.52 3.51 2.56v-12.48c0-.42.13-.77.4-1.03.27-.27.61-.4 1.03-.4h5.92c.42 0 .77.13 1.04.4s.4.61.4 1.03v37.95c0 .42-.13.77-.4 1.04s-.61.4-1.04.4h-5.52c-.38 0-.71-.13-.98-.4s-.4-.61-.4-1.04v-1.96c-.96 1.15-2.17 2.1-3.62 2.85-1.46.75-3.28 1.12-5.46 1.12Zm2.65-6.9c1.42 0 2.56-.33 3.42-.98.86-.65 1.5-1.48 1.9-2.47.4-1 .62-2.07.66-3.22.08-.73.12-1.46.12-2.19s-.04-1.44-.12-2.13a7.742 7.742 0 0 0-.72-3.02 5.967 5.967 0 0 0-1.93-2.33c-.84-.61-1.96-.92-3.33-.92-1.46 0-2.61.32-3.45.95s-1.45 1.47-1.81 2.5c-.37 1.04-.58 2.17-.66 3.39-.08 1.19-.08 2.38 0 3.56.08 1.23.3 2.36.66 3.39.36 1.03.97 1.87 1.81 2.5s1.99.95 3.45.95ZM292.47 227.41c-.38 0-.72-.13-1.01-.4-.29-.27-.43-.61-.43-1.04v-27.02c0-.42.14-.77.43-1.04s.62-.4 1.01-.4h5.63c.42 0 .77.13 1.04.4s.4.61.4 1.04v2.24c1-1.23 2.29-2.24 3.88-3.05 1.59-.8 3.5-1.21 5.72-1.21s4.25.51 5.98 1.52c1.73 1.02 3.07 2.49 4.03 4.43.96 1.94 1.44 4.28 1.44 7.04v16.04c0 .42-.13.77-.4 1.04s-.61.4-1.04.4h-6.09c-.42 0-.77-.13-1.04-.4s-.4-.61-.4-1.04v-15.7c0-2.03-.49-3.61-1.47-4.74-.98-1.13-2.41-1.7-4.28-1.7s-3.23.57-4.28 1.7c-1.06 1.13-1.58 2.71-1.58 4.74v15.7c0 .42-.13.77-.4 1.04s-.61.4-1.04.4h-6.09ZM326.22 200.27c-.34 0-.62-.11-.83-.34s-.3-.56-.26-.98l1.67-10.46c.08-.5.27-.94.58-1.32.31-.38.77-.58 1.38-.58h5.98c.31 0 .57.12.78.35.21.23.32.48.32.75s-.06.5-.17.69l-3.97 10.35c-.15.38-.37.74-.66 1.06-.29.33-.74.49-1.35.49h-3.45ZM355.2 227.41c-2.38 0-4.4-.39-6.07-1.18-1.67-.79-2.94-2-3.82-3.65-.88-1.65-1.32-3.72-1.32-6.21V204.3h-4.49c-.42 0-.77-.13-1.04-.4s-.4-.59-.4-.98v-3.97c0-.42.13-.77.4-1.04s.61-.4 1.04-.4h4.49v-9.49c0-.42.14-.77.43-1.03.29-.27.62-.4 1.01-.4h5.69c.38 0 .71.13.98.4s.4.61.4 1.03v9.49h7.19c.42 0 .77.13 1.04.4s.4.61.4 1.04v3.97c0 .38-.13.71-.4.98s-.61.4-1.04.4h-7.19v11.38c0 1.46.27 2.6.8 3.42.54.82 1.44 1.24 2.7 1.24h4.2c.42 0 .77.13 1.04.4s.4.59.4.98v4.25c0 .42-.13.77-.4 1.04s-.61.4-1.04.4h-5ZM393.32 240.06c-2.84 0-5.2-.37-7.07-1.12-1.88-.75-3.36-1.65-4.46-2.7-1.09-1.06-1.87-2.1-2.33-3.13-.46-1.04-.71-1.86-.75-2.47-.04-.38.09-.72.4-1.01.31-.29.65-.43 1.03-.43h6.15c.38 0 .69.09.92.26.23.17.42.49.58.95.23.46.52.95.86 1.47.35.52.86.95 1.55 1.29.69.34 1.63.52 2.82.52 1.34 0 2.45-.19 3.33-.57.88-.38 1.54-1.04 1.98-1.96s.66-2.17.66-3.74v-3.85c-.92 1-2.08 1.82-3.48 2.47-1.4.65-3.11.98-5.15.98s-3.75-.32-5.26-.95c-1.51-.63-2.77-1.53-3.77-2.7-1-1.17-1.76-2.58-2.3-4.23-.54-1.65-.84-3.51-.92-5.58-.04-1.04-.04-2.05 0-3.05.08-1.99.38-3.81.92-5.46s1.3-3.08 2.3-4.28c1-1.21 2.25-2.15 3.77-2.82 1.51-.67 3.27-1.01 5.26-1.01 2.11 0 3.91.4 5.4 1.21 1.5.81 2.72 1.8 3.68 2.99v-2.19c0-.38.13-.72.4-1.01.27-.29.59-.43.98-.43h5.63c.42 0 .77.14 1.03.43.27.29.4.62.4 1.01l.06 27.66c0 2.88-.56 5.31-1.67 7.3-1.11 1.99-2.75 3.52-4.92 4.57-2.17 1.05-4.86 1.58-8.08 1.58Zm-.29-19.84c1.38 0 2.5-.31 3.36-.92.86-.61 1.5-1.41 1.93-2.39.42-.98.65-2 .69-3.08.04-.42.06-1.03.06-1.81s-.02-1.39-.06-1.81a8.328 8.328 0 0 0-.69-3.05 5.81 5.81 0 0 0-1.93-2.39c-.86-.63-1.98-.95-3.36-.95-1.46 0-2.61.32-3.45.95s-1.45 1.47-1.81 2.5c-.37 1.04-.58 2.17-.66 3.39-.08.92-.08 1.82 0 2.7.08 1.26.3 2.41.66 3.45.36 1.04.97 1.86 1.81 2.47.84.61 1.99.92 3.45.92ZM428.91 227.98c-3.18 0-5.85-.53-7.99-1.58-2.15-1.05-3.79-2.56-4.92-4.51-1.13-1.95-1.75-4.23-1.87-6.84-.04-.77-.06-1.64-.06-2.62s.02-1.83.06-2.56c.11-2.64.77-4.93 1.95-6.87 1.19-1.94 2.86-3.43 5-4.48 2.15-1.05 4.75-1.58 7.82-1.58s5.62.53 7.76 1.58c2.15 1.05 3.81 2.55 5 4.48 1.19 1.94 1.86 4.23 2.01 6.87.04.73.06 1.58.06 2.56s-.02 1.85-.06 2.62c-.15 2.61-.8 4.89-1.93 6.84-1.13 1.96-2.77 3.46-4.92 4.51-2.15 1.05-4.79 1.58-7.93 1.58Zm0-6.38c1.88 0 3.29-.58 4.23-1.73.94-1.15 1.47-2.85 1.58-5.12.04-.58.06-1.34.06-2.3s-.02-1.73-.06-2.3c-.12-2.22-.64-3.92-1.58-5.09-.94-1.17-2.35-1.75-4.23-1.75s-3.3.58-4.25 1.75c-.96 1.17-1.5 2.87-1.61 5.09-.04.58-.06 1.34-.06 2.3s.02 1.72.06 2.3c.11 2.26.65 3.97 1.61 5.12s2.38 1.73 4.25 1.73ZM479.91 227.98c-2.18 0-4.02-.37-5.49-1.12s-2.67-1.7-3.59-2.85v1.96c0 .42-.13.77-.4 1.04s-.61.4-1.03.4h-5.46c-.42 0-.77-.13-1.04-.4s-.4-.61-.4-1.04v-37.95c0-.42.13-.77.4-1.03.27-.27.61-.4 1.04-.4h5.92c.42 0 .77.13 1.03.4.27.27.4.61.4 1.03v12.48c.92-1.03 2.09-1.89 3.51-2.56 1.42-.67 3.12-1.01 5.12-1.01s3.67.34 5.15 1.01c1.47.67 2.73 1.61 3.77 2.82 1.04 1.21 1.83 2.64 2.39 4.28.55 1.65.87 3.47.95 5.46.04.69.06 1.33.06 1.93s-.02 1.26-.06 1.98c-.08 2.03-.4 3.88-.98 5.55-.57 1.67-1.37 3.1-2.39 4.31a9.873 9.873 0 0 1-3.74 2.76c-1.48.63-3.19.95-5.15.95Zm-2.65-6.9c1.46 0 2.61-.32 3.45-.95a5.21 5.21 0 0 0 1.81-2.5c.36-1.04.58-2.17.66-3.39.08-1.19.08-2.38 0-3.56-.08-1.23-.3-2.36-.66-3.39a5.21 5.21 0 0 0-1.81-2.5c-.84-.63-1.99-.95-3.45-.95-1.34 0-2.45.31-3.33.92-.88.61-1.53 1.39-1.96 2.33-.42.94-.65 1.95-.69 3.02-.04.69-.06 1.4-.06 2.13s.02 1.46.06 2.19c.04 1.15.26 2.22.66 3.22s1.04 1.82 1.9 2.47c.86.65 2 .98 3.42.98ZM507.05 227.98c-2.03 0-3.85-.39-5.46-1.18-1.61-.79-2.89-1.85-3.85-3.19a7.528 7.528 0 0 1-1.44-4.48c0-2.72 1.1-4.87 3.31-6.44 2.2-1.57 5.11-2.65 8.71-3.22l7.53-1.09v-1.04c0-1.49-.34-2.65-1.04-3.45-.69-.81-1.9-1.21-3.62-1.21-1.26 0-2.27.25-3.02.75a5.17 5.17 0 0 0-1.75 1.96c-.31.5-.77.75-1.38.75h-5.46c-.42 0-.75-.12-.98-.37a1.08 1.08 0 0 1-.29-.89c0-.65.25-1.42.75-2.3.5-.88 1.26-1.75 2.3-2.62 1.04-.86 2.37-1.58 4-2.16 1.63-.58 3.59-.86 5.89-.86 2.42 0 4.48.29 6.21.86 1.72.57 3.11 1.38 4.17 2.42a9.332 9.332 0 0 1 2.3 3.59c.48 1.36.72 2.83.72 4.4v17.77c0 .42-.13.77-.4 1.04s-.59.4-.98.4h-5.69c-.38 0-.71-.13-.98-.4s-.4-.61-.4-1.04v-2.13c-.5.73-1.17 1.41-2.01 2.04-.84.63-1.85 1.14-3.02 1.52s-2.54.58-4.11.58Zm2.3-5.98c1.26 0 2.39-.27 3.39-.81s1.78-1.36 2.36-2.47c.57-1.11.86-2.51.86-4.2v-.98l-5.35.86c-2.03.35-3.53.86-4.48 1.55-.96.69-1.44 1.53-1.44 2.53 0 .73.22 1.35.66 1.87.44.52 1.01.92 1.72 1.21.71.29 1.47.43 2.27.43ZM544.94 227.98c-2.84 0-5.32-.52-7.45-1.55a11.94 11.94 0 0 1-5.03-4.51c-1.23-1.97-1.9-4.34-2.01-7.1-.04-.61-.06-1.39-.06-2.33s.02-1.71.06-2.33c.12-2.8.78-5.18 1.98-7.16 1.21-1.97 2.88-3.48 5.03-4.51 2.15-1.04 4.64-1.55 7.47-1.55 2.53 0 4.7.35 6.5 1.06 1.8.71 3.28 1.61 4.43 2.7s2.01 2.21 2.59 3.36.88 2.17.92 3.05c.04.42-.1.77-.4 1.04-.31.27-.65.4-1.04.4h-6.15c-.42 0-.74-.1-.95-.29-.21-.19-.41-.5-.6-.92-.5-1.34-1.17-2.3-2.01-2.88-.84-.57-1.9-.86-3.16-.86-1.73 0-3.08.56-4.05 1.67-.98 1.11-1.5 2.84-1.58 5.17-.08 1.5-.08 2.86 0 4.08.08 2.38.6 4.1 1.58 5.17.98 1.07 2.33 1.61 4.05 1.61 1.34 0 2.42-.29 3.22-.86.8-.58 1.46-1.53 1.96-2.88.19-.42.39-.73.6-.92.21-.19.53-.29.95-.29h6.15c.38 0 .73.13 1.04.4.31.27.44.61.4 1.04-.04.65-.23 1.42-.57 2.3-.35.88-.87 1.78-1.58 2.7-.71.92-1.62 1.77-2.73 2.56-1.11.79-2.46 1.42-4.05 1.9-1.59.48-3.42.72-5.49.72ZM566.38 227.41c-.42 0-.77-.13-1.04-.4s-.4-.61-.4-1.04v-37.95c0-.42.13-.77.4-1.03.27-.27.61-.4 1.04-.4h5.63c.38 0 .72.13 1.01.4.29.27.43.61.43 1.03v19.43l8.8-8.97c.31-.27.58-.5.83-.69.25-.19.64-.29 1.18-.29h6.55c.35 0 .64.12.89.37s.37.55.37.89c0 .15-.04.33-.12.52a.94.94 0 0 1-.4.46l-11.1 11.15 12.54 14.32c.31.31.46.61.46.92 0 .35-.12.64-.35.89-.23.25-.54.37-.92.37h-6.67c-.58 0-.99-.1-1.24-.29-.25-.19-.53-.42-.83-.69l-10-11.27v10.81c0 .42-.14.77-.43 1.04s-.62.4-1.01.4h-5.63ZM623.13 227.41c-2.38 0-4.4-.39-6.07-1.18-1.67-.79-2.94-2-3.82-3.65-.88-1.65-1.32-3.72-1.32-6.21V204.3h-4.49c-.42 0-.77-.13-1.04-.4s-.4-.59-.4-.98v-3.97c0-.42.13-.77.4-1.04s.61-.4 1.04-.4h4.49v-9.49c0-.42.14-.77.43-1.03.29-.27.62-.4 1.01-.4h5.69c.38 0 .71.13.98.4s.4.61.4 1.03v9.49h7.19c.42 0 .77.13 1.04.4s.4.61.4 1.04v3.97c0 .38-.13.71-.4.98s-.61.4-1.04.4h-7.19v11.38c0 1.46.27 2.6.8 3.42.54.82 1.44 1.24 2.7 1.24h4.2c.42 0 .77.13 1.04.4s.4.59.4.98v4.25c0 .42-.13.77-.4 1.04s-.61.4-1.04.4h-5ZM648.2 227.98c-3.18 0-5.85-.53-7.99-1.58-2.15-1.05-3.79-2.56-4.92-4.51-1.13-1.95-1.75-4.23-1.87-6.84-.04-.77-.06-1.64-.06-2.62s.02-1.83.06-2.56c.11-2.64.77-4.93 1.95-6.87 1.19-1.94 2.86-3.43 5-4.48 2.15-1.05 4.75-1.58 7.82-1.58s5.62.53 7.76 1.58c2.15 1.05 3.81 2.55 5 4.48 1.19 1.94 1.86 4.23 2.01 6.87.04.73.06 1.58.06 2.56s-.02 1.85-.06 2.62c-.15 2.61-.8 4.89-1.93 6.84-1.13 1.96-2.77 3.46-4.92 4.51-2.15 1.05-4.79 1.58-7.93 1.58Zm0-6.38c1.88 0 3.29-.58 4.23-1.73.94-1.15 1.47-2.85 1.58-5.12.04-.58.06-1.34.06-2.3s-.02-1.73-.06-2.3c-.12-2.22-.64-3.92-1.58-5.09-.94-1.17-2.35-1.75-4.23-1.75s-3.3.58-4.25 1.75c-.96 1.17-1.5 2.87-1.61 5.09-.04.58-.06 1.34-.06 2.3s.02 1.72.06 2.3c.11 2.26.65 3.97 1.61 5.12s2.38 1.73 4.25 1.73ZM101.29 318.33c-2.03 0-3.85-.39-5.46-1.18-1.61-.79-2.89-1.85-3.85-3.19a7.528 7.528 0 0 1-1.44-4.48c0-2.72 1.1-4.87 3.31-6.44 2.2-1.57 5.11-2.65 8.71-3.22l7.53-1.09v-1.04c0-1.49-.34-2.65-1.04-3.45-.69-.81-1.9-1.21-3.62-1.21-1.26 0-2.27.25-3.02.75a5.17 5.17 0 0 0-1.75 1.96c-.31.5-.77.75-1.38.75h-5.46c-.42 0-.75-.12-.98-.37a1.08 1.08 0 0 1-.29-.89c0-.65.25-1.42.75-2.3.5-.88 1.26-1.75 2.3-2.62 1.04-.86 2.37-1.58 4-2.16 1.63-.58 3.59-.86 5.89-.86 2.42 0 4.48.29 6.21.86 1.72.57 3.11 1.38 4.17 2.42a9.332 9.332 0 0 1 2.3 3.59c.48 1.36.72 2.83.72 4.4v17.77c0 .42-.13.77-.4 1.04s-.59.4-.98.4h-5.69c-.38 0-.71-.13-.98-.4s-.4-.61-.4-1.04v-2.13c-.5.73-1.17 1.41-2.01 2.04-.84.63-1.85 1.14-3.02 1.52s-2.54.58-4.11.58Zm2.3-5.98c1.26 0 2.39-.27 3.39-.81s1.78-1.36 2.36-2.47c.57-1.11.86-2.51.86-4.2v-.98l-5.35.86c-2.03.35-3.53.86-4.48 1.55-.96.69-1.44 1.53-1.44 2.53 0 .73.22 1.35.66 1.87.44.52 1.01.92 1.72 1.21.71.29 1.47.43 2.27.43ZM151.77 317.76c-2.38 0-4.4-.39-6.07-1.18-1.67-.79-2.94-2-3.82-3.65-.88-1.65-1.32-3.72-1.32-6.21v-12.07h-4.49c-.42 0-.77-.13-1.04-.4s-.4-.59-.4-.98v-3.97c0-.42.13-.77.4-1.04s.61-.4 1.04-.4h4.49v-9.49c0-.42.14-.77.43-1.03.29-.27.62-.4 1.01-.4h5.69c.38 0 .71.13.98.4s.4.61.4 1.03v9.49h7.19c.42 0 .77.13 1.04.4s.4.61.4 1.04v3.97c0 .38-.13.71-.4.98s-.61.4-1.04.4h-7.19v11.38c0 1.46.27 2.6.8 3.42.54.82 1.44 1.24 2.7 1.24h4.2c.42 0 .77.13 1.04.4s.4.59.4.98v4.25c0 .42-.13.77-.4 1.04s-.61.4-1.04.4h-5ZM164.36 283.26c-.38 0-.71-.13-.98-.4s-.4-.61-.4-1.03v-4.66c0-.38.13-.72.4-1.01.27-.29.59-.43.98-.43h6.09c.38 0 .72.14 1.01.43.29.29.43.62.43 1.01v4.66c0 .42-.14.77-.43 1.03-.29.27-.62.4-1.01.4h-6.09Zm.18 34.5c-.38 0-.72-.13-1.01-.4-.29-.27-.43-.61-.43-1.04V289.3c0-.42.14-.77.43-1.04s.62-.4 1.01-.4h5.81c.38 0 .71.13.98.4s.4.61.4 1.04v27.02c0 .42-.13.77-.4 1.04s-.59.4-.98.4h-5.81ZM180.35 317.76c-.38 0-.72-.13-1.01-.4-.29-.27-.43-.61-.43-1.04V289.3c0-.42.14-.77.43-1.04s.62-.4 1.01-.4h5.35c.42 0 .77.13 1.04.4s.4.61.4 1.04v1.96c.8-1.07 1.89-1.99 3.25-2.76 1.36-.77 2.98-1.17 4.86-1.21 4.41-.08 7.46 1.61 9.14 5.06.88-1.5 2.15-2.71 3.79-3.65 1.65-.94 3.47-1.41 5.46-1.41s3.79.45 5.4 1.35c1.61.9 2.89 2.28 3.85 4.14.96 1.86 1.44 4.25 1.44 7.16v16.39c0 .42-.14.77-.43 1.04s-.62.4-1.01.4h-5.69c-.42 0-.77-.13-1.04-.4s-.4-.61-.4-1.04V300.4c0-1.57-.22-2.8-.66-3.68-.44-.88-1.04-1.52-1.78-1.93-.75-.4-1.58-.6-2.5-.6-.81 0-1.58.2-2.33.6-.75.4-1.36 1.04-1.84 1.93-.48.88-.72 2.11-.72 3.68v15.93c0 .42-.13.77-.4 1.04s-.59.4-.98.4h-5.69c-.42 0-.77-.13-1.04-.4s-.4-.61-.4-1.04V300.4c0-1.57-.23-2.8-.69-3.68-.46-.88-1.06-1.52-1.81-1.93-.75-.4-1.56-.6-2.44-.6-.81 0-1.58.2-2.33.6-.75.4-1.36 1.04-1.84 1.93-.48.88-.72 2.09-.72 3.62v15.98c0 .42-.13.77-.4 1.04s-.61.4-1.04.4h-5.81ZM244.57 318.33c-4.41 0-7.91-1.23-10.49-3.68-2.59-2.45-3.96-6.02-4.11-10.69v-2.42c.15-2.99.82-5.55 2.01-7.68s2.85-3.76 5-4.89 4.66-1.7 7.53-1.7c3.26 0 5.96.66 8.11 1.98a12.57 12.57 0 0 1 4.86 5.4c1.09 2.28 1.64 4.9 1.64 7.85v1.32c0 .38-.13.72-.4 1.01-.27.29-.61.43-1.04.43h-18.74v.4c.04 1.23.27 2.35.69 3.36.42 1.02 1.04 1.83 1.87 2.44.82.61 1.83.92 3.02.92.92 0 1.69-.14 2.3-.43.61-.29 1.12-.61 1.52-.98.4-.36.7-.68.89-.95.34-.42.62-.68.83-.78.21-.1.53-.14.95-.14h6.09c.35 0 .64.11.89.34.25.23.35.52.32.86-.04.65-.36 1.43-.95 2.33-.59.9-1.47 1.78-2.62 2.64-1.15.86-2.58 1.58-4.28 2.16-1.71.58-3.67.86-5.89.86Zm-5.63-18.34h11.21v-.17c0-1.34-.22-2.52-.66-3.54-.44-1.02-1.08-1.81-1.93-2.39-.84-.57-1.86-.86-3.05-.86s-2.19.29-3.02.86c-.83.58-1.46 1.37-1.9 2.39-.44 1.02-.66 2.19-.66 3.54v.17ZM637.39 328.68c-.31 0-.58-.12-.83-.35a1.12 1.12 0 0 1-.37-.86c0-.08.02-.18.06-.32.04-.13.1-.3.17-.49l4.48-10.75-11.04-26.05c-.12-.31-.17-.56-.17-.75.04-.35.17-.64.4-.89s.52-.37.86-.37h5.63c.46 0 .81.12 1.04.37.23.25.4.51.52.78l7.13 17.77 7.3-17.77c.15-.31.35-.57.58-.8.23-.23.59-.35 1.09-.35h5.46c.35 0 .64.12.89.37s.37.53.37.83c0 .19-.06.46-.17.8l-16.27 37.66c-.15.31-.36.58-.6.81s-.62.35-1.12.35h-5.4ZM678.15 318.33c-3.18 0-5.85-.53-7.99-1.58-2.15-1.05-3.79-2.56-4.92-4.51-1.13-1.95-1.75-4.23-1.87-6.84-.04-.77-.06-1.64-.06-2.62s.02-1.83.06-2.56c.11-2.64.77-4.93 1.95-6.87 1.19-1.94 2.86-3.43 5-4.48 2.15-1.05 4.75-1.58 7.82-1.58s5.62.53 7.76 1.58c2.15 1.05 3.81 2.55 5 4.48 1.19 1.94 1.86 4.23 2.01 6.87.04.73.06 1.58.06 2.56s-.02 1.85-.06 2.62c-.15 2.61-.8 4.89-1.93 6.84-1.13 1.96-2.77 3.46-4.92 4.51-2.15 1.05-4.79 1.58-7.93 1.58Zm0-6.38c1.88 0 3.29-.58 4.23-1.73.94-1.15 1.47-2.85 1.58-5.12.04-.58.06-1.34.06-2.3s-.02-1.73-.06-2.3c-.12-2.22-.64-3.92-1.58-5.09-.94-1.17-2.35-1.75-4.23-1.75s-3.3.58-4.25 1.75c-.96 1.17-1.5 2.87-1.61 5.09-.04.58-.06 1.34-.06 2.3s.02 1.72.06 2.3c.11 2.26.65 3.97 1.61 5.12s2.38 1.73 4.25 1.73ZM710.01 318.33c-2.22 0-4.19-.51-5.89-1.52-1.71-1.02-3.04-2.49-4-4.43-.96-1.94-1.44-4.28-1.44-7.04V289.3c0-.42.14-.77.43-1.04s.62-.4 1.01-.4h6.15c.38 0 .71.13.98.4s.4.61.4 1.04V305c0 4.29 1.88 6.44 5.63 6.44 1.8 0 3.23-.56 4.28-1.7 1.05-1.13 1.58-2.71 1.58-4.74v-15.7c0-.42.13-.77.4-1.04s.61-.4 1.04-.4h6.09c.38 0 .71.13.98.4s.4.61.4 1.04v27.02c0 .42-.13.77-.4 1.04s-.59.4-.98.4h-5.69c-.38 0-.71-.13-.98-.4s-.4-.61-.4-1.04v-2.24c-1 1.38-2.28 2.43-3.85 3.16-1.57.73-3.49 1.09-5.75 1.09Z"/><rect width="326.17" height="75.69" x="281.61" y="261.31" fill="#1c2126" stroke-width="0" opacity=".15" rx="9.29" ry="9.29"/><path fill="#1c2126" stroke-width="0" d="M307.5 290.78c0-3.37 2.69-6.09 5.97-6.09s5.97 2.72 5.97 6.09-2.69 6.12-5.97 6.12-5.97-2.75-5.97-6.12Zm0 22.31c0-3.37 2.69-6.09 5.97-6.09s5.97 2.72 5.97 6.09-2.69 6.12-5.97 6.12-5.97-2.78-5.97-6.12ZM344.58 290.78c0-3.37 2.69-6.09 5.97-6.09s5.97 2.72 5.97 6.09-2.69 6.12-5.97 6.12-5.97-2.75-5.97-6.12Zm0 22.31c0-3.37 2.69-6.09 5.97-6.09s5.97 2.72 5.97 6.09-2.69 6.12-5.97 6.12-5.97-2.78-5.97-6.12ZM381.35 313.53h-.58v5.27h-6.94v-44.45h7.06v17.63h.58c1.2-3.72 4.48-5.8 9.11-5.8 7.38 0 11.92 5.18 11.92 13.7v5.71c0 8.55-4.54 13.7-11.92 13.7-4.66 0-7.91-2.02-9.22-5.77Zm14.24-8.34v-5.01c0-5.04-2.87-8.2-7.44-8.2s-7.44 3.13-7.44 8.2v5.01c0 5.04 2.87 8.17 7.44 8.17s7.44-3.13 7.44-8.17ZM438.78 310.11c-.76 5.5-6.21 9.34-13.38 9.34-9.14 0-14.41-5.24-14.41-14.38v-5.01c0-8.4 5.65-13.97 14.17-13.97s13.67 5.53 13.67 14.44v3.89h-21.14v1.55c0 4.89 3.02 8.05 7.67 8.05 3.54 0 6.27-1.55 6.94-3.92h6.47Zm-21.08-10.25h14.52c0-5.21-2.69-8.37-7.17-8.37s-7.35 3.13-7.35 8.37ZM456.58 292.45H448v-5.5h8.58v-2.66c0-6.82 3.57-9.63 11.95-9.63 1.2 0 7.47.12 8.14.21v5.12c-.91-.09-6.82-.18-7.99-.18-3.57 0-5.42 1.41-5.42 4.13v3.02h13.41v5.5h-13.29v26.35h-6.79v-26.35ZM484.4 305.22v-4.89c0-8.73 5.59-14.23 14.44-14.23s14.44 5.5 14.44 14.23v4.89c0 8.73-5.59 14.23-14.44 14.23s-14.44-5.5-14.44-14.23Zm6.73-4.51v4.13c0 5.53 2.96 8.96 7.7 8.96s7.7-3.43 7.7-8.96v-4.13c0-5.53-2.96-8.96-7.7-8.96s-7.7 3.43-7.7 8.96ZM536.05 294.94c1.32-6.18 4.89-9.05 10.98-9.05 1.82 0 3.48.23 4.6.67v7.41c-1.44-.56-3.54-.91-5.3-.91-7.41 0-11.3 4.04-11.3 11.45v9.19h9.54v5.1h-22.34v-5.1h6.24v-21.87h-6.85v-5.1h13.44v8.2h1ZM587.06 310.11c-.76 5.5-6.21 9.34-13.38 9.34-9.14 0-14.41-5.24-14.41-14.38v-5.01c0-8.4 5.65-13.97 14.17-13.97s13.67 5.53 13.67 14.44v3.89h-21.14v1.55c0 4.89 3.02 8.05 7.67 8.05 3.54 0 6.27-1.55 6.94-3.92h6.47Zm-21.08-10.25h14.52c0-5.21-2.69-8.37-7.17-8.37s-7.35 3.13-7.35 8.37Z"/><path fill="#30c8c9" stroke="#bffde7" stroke-linejoin="round" stroke-width="17" d="M1102.7 75.85c.59 0 1.07-.48 1.07-1.07V56.66c0-.59-.48-1.07-1.07-1.07H849.69c-.59 0-1.07.48-1.07 1.07v18.12c0 .59.48 1.07 1.07 1.07h14.11v356.37h-14.11c-.59 0-1.07.48-1.07 1.07v18.12c0 .59.48 1.07 1.07 1.07h253.01c.59 0 1.07-.48 1.07-1.07v-18.12c0-.59-.48-1.07-1.07-1.07h-12.85V75.85h12.85Zm-203.64 65.11c0 25.54 27.45 58.87 47.49 83.21 11.01 13.37 20.52 24.91 20.52 29.43s-9.51 16.07-20.52 29.43c-20.04 24.34-47.49 57.66-47.49 83.21s11.02 50.32 28.26 65.99h-44.23V75.85h43.29c-16.7 15.67-27.33 39.04-27.33 65.11Zm126.02 291.27c17.24-15.67 28.26-39.43 28.26-65.99s-27.45-58.88-47.49-83.21c-11.01-13.36-20.51-24.91-20.51-29.43s9.51-16.06 20.51-29.43c20.04-24.34 47.5-57.67 47.5-83.21s-10.63-49.44-27.33-65.11h44.55v356.37h-45.49Z" opacity=".4"/><path fill="#ffb916" stroke="#1c2126" stroke-linejoin="round" stroke-width="2" d="M864.88 56.66h17.15v379.71h-17.15zM1071.64 56.66h17.15v379.71h-17.15z"/><path fill="#fff6d0" stroke="#1c2126" stroke-linejoin="round" stroke-width="2" d="M984.26 253.6c0-13.36 68.01-72.89 68.01-112.64 0-46.56-34.06-84.3-76.07-84.3s-76.07 37.74-76.07 84.3c0 39.75 68.01 99.27 68.01 112.64s-68.01 72.89-68.01 112.64c0 46.56 34.06 84.3 76.07 84.3s76.07-37.74 76.07-84.3c0-39.75-68.01-99.28-68.01-112.64Z"/><path fill="#ff6b60" stroke="#1c2126" stroke-linejoin="round" stroke-width="2" d="M979.79 345.7c1.04-27.3-.27-66.79-.27-85.54 0-27.76 10.45-31.54 40.25-68h-86.93c30.12 36.88 40.47 45.6 40.47 68.27 0 18.6-.57 57.45.54 85.27-19.13 6.67-46.12 33.51-59.02 50.6 24.31 67.16 105.44 54.24 122.08 3.72.85-3.27 1.51-6.63 1.93-10.07-16.76-17.99-41.34-41.2-59.04-44.25Z"/><path fill="#fff" stroke-width="0" d="M991.23 86.02c3.78 1.83 7.34 4.05 10.67 6.61-.61-.47-1.21-.94-1.82-1.41 4.29 3.34 8.13 7.21 11.46 11.51l-1.41-1.82c3.39 4.42 6.21 9.23 8.39 14.35l-.91-2.15c2.1 5.01 3.56 10.26 4.31 15.65l-.32-2.39c.1.73.18 1.47.25 2.21.24 2.44.84 4.57 2.64 6.36 1.56 1.56 4.12 2.74 6.36 2.64 2.33-.1 4.74-.87 6.36-2.64 1.52-1.66 2.87-4.03 2.64-6.36-.98-9.9-3.76-19.31-8.52-28.07-4.34-7.98-10.31-15.35-17.37-21.09-4.25-3.46-8.72-6.55-13.66-8.94-2.2-1.07-4.5-1.58-6.94-.91-2.09.57-4.35 2.19-5.38 4.14-2.13 4.04-1.29 10.12 3.23 12.31Z"/><path fill="#ffb916" stroke="#1c2126" stroke-linejoin="round" stroke-width="2" d="M849.69 56.66h253.01v18.12H849.69zM849.69 433.3h253.01v18.12H849.69z"/><path fill="none" stroke="#1c2126" stroke-linecap="round" stroke-miterlimit="10" stroke-width="2" d="M953.22 382.4s8.56-8.84 17.39 0M983.05 382.4s8.56-8.84 17.39 0"/><path fill="#7a122d" stroke="#1c2126" stroke-linecap="round" stroke-linejoin="round" stroke-width="2" d="M958.3 392.73c.31 9.34 8.59 16.83 18.78 16.83s18.47-7.49 18.78-16.83h-37.57Z"/><circle cx="873.45" cy="221.33" r="12.59" fill="#ffb916" stroke="#1c2126" stroke-linejoin="round" stroke-width="2"/><circle cx="873.45" cy="246.52" r="12.59" fill="#ffb916" stroke="#1c2126" stroke-linejoin="round" stroke-width="2"/><circle cx="873.45" cy="271.7" r="12.59" fill="#ffb916" stroke="#1c2126" stroke-linejoin="round" stroke-width="2"/><circle cx="1080.21" cy="221.33" r="12.59" fill="#ffb916" stroke="#1c2126" stroke-linejoin="round" stroke-width="2"/><circle cx="1080.21" cy="246.52" r="12.59" fill="#ffb916" stroke="#1c2126" stroke-linejoin="round" stroke-width="2"/><circle cx="1080.21" cy="271.7" r="12.59" fill="#ffb916" stroke="#1c2126" stroke-linejoin="round" stroke-width="2"/><path fill="#ff6b60" stroke="#1c2126" stroke-linejoin="round" stroke-width="2" d="M831.3 320.12c-1.01-.68-2.23-.95-3.43-1.13-2.11-.31-4.41-.34-6.2.82-1.88 1.22-2.79 3.49-3.18 5.69-.35 1.97-.35 3.99-.04 5.97-2.39-1.45-5.13-2.43-7.93-2.36-2.83.08-5.7 1.34-7.32 3.66-1.62 2.32-1.73 5.72.06 7.91 1.72 2.1 4.62 2.72 7.29 3.18 6.68 1.16 13.37 2.22 20.09 3.17.93-5.64 1.87-11.28 2.8-16.93.59-3.56.84-7.96-2.14-9.99ZM1145.95 411.29c.45-1.13.46-2.38.38-3.6-.14-2.13-.6-4.38-2.11-5.89-1.58-1.58-4-1.99-6.23-1.9-2 .08-3.97.5-5.84 1.22.91-2.64 1.29-5.53.63-8.25-.67-2.75-2.52-5.29-5.13-6.38-2.61-1.09-5.96-.48-7.72 1.73-1.69 2.12-1.68 5.09-1.57 7.8.27 6.77.66 13.54 1.15 20.3l17.14-.84c3.6-.18 7.96-.86 9.31-4.21Z"/><path fill="#fff" stroke-width="0" d="M0 595h1200v35H0zM0 499.19h1200V595H0z"/><path fill="none" stroke="#1c2126" stroke-miterlimit="10" d="M0 499.19h1200M0 595h1200"/><path fill="#1c2126" stroke-width="0" d="M24.24 559.45v-18.76h-6.39v-2.37H33.2v2.37h-6.39v18.76h-2.58ZM44.08 559.89c-4.8 0-7.75-3.46-7.75-9.3v-3.41c0-5.84 2.94-9.3 7.75-9.3s7.75 3.46 7.75 9.3v3.41c0 5.84-2.94 9.3-7.75 9.3Zm5.14-9.31v-3.38c0-4.41-1.93-6.87-5.14-6.87s-5.14 2.46-5.14 6.87v3.38c0 4.41 1.93 6.87 5.14 6.87s5.14-2.46 5.14-6.87ZM59.97 545.58c0-1.48 1.2-2.71 2.65-2.71s2.65 1.23 2.65 2.71-1.2 2.71-2.65 2.71-2.65-1.23-2.65-2.71Zm0 11.25c0-1.48 1.2-2.7 2.65-2.7s2.65 1.22 2.65 2.7-1.2 2.71-2.65 2.71-2.65-1.22-2.65-2.71Z"/><path fill="none" stroke="#1c2126" stroke-miterlimit="10" d="M582.03 498.72V595"/><path fill="#1c2126" stroke-width="0" d="M605.51 559.45v-21.14h12.47v2.37h-9.87v7.25h9.02v2.3h-9.02v9.21h-2.59ZM625.54 551.03v8.42h-2.55v-21.14h7.09c4.19 0 6.81 2.43 6.81 6.36 0 2.77-1.54 5.04-3.94 5.83l4.31 8.95h-2.92l-3.94-8.42h-4.86Zm0-2.18h4.19c2.92 0 4.56-1.48 4.56-4.12s-1.61-4.12-4.44-4.12h-4.31v8.23ZM648.15 559.89c-4.8 0-7.75-3.46-7.75-9.3v-3.41c0-5.84 2.94-9.3 7.75-9.3s7.75 3.46 7.75 9.3v3.41c0 5.84-2.94 9.3-7.75 9.3Zm5.14-9.31v-3.38c0-4.41-1.93-6.87-5.14-6.87s-5.14 2.46-5.14 6.87v3.38c0 4.41 1.93 6.87 5.14 6.87s5.14-2.46 5.14-6.87ZM661.18 559.45h-2.31v-21.14h2.86l4.88 13.08h.19l4.86-13.08h2.86v21.14h-2.31v-8.1l.15-8.57h-.19l-4.45 11.7h-2.02l-4.45-11.7h-.19l.15 8.57v8.1ZM682.59 545.58c0-1.48 1.2-2.71 2.65-2.71s2.65 1.23 2.65 2.71-1.2 2.71-2.65 2.71-2.65-1.23-2.65-2.71Zm0 11.25c0-1.48 1.2-2.7 2.65-2.7s2.65 1.22 2.65 2.7-1.2 2.71-2.65 2.71-2.65-1.22-2.65-2.71ZM12.77 618.4c-.12 0-.21-.04-.26-.11-.06-.07-.08-.17-.06-.27l2.22-10.42a.469.469 0 0 1 .46-.4h6.95c.12 0 .2.04.26.11.05.07.07.17.05.29l-.24 1.12c-.02.12-.08.21-.16.28-.08.07-.19.1-.3.1h-5.14l-.66 3.04h4.82c.12 0 .2.04.26.11.05.07.07.17.05.29l-.22 1.12c-.02.11-.08.2-.17.27-.09.07-.19.11-.31.11H15.5l-.85 3.97a.47.47 0 0 1-.16.27c-.08.08-.19.11-.3.11h-1.41ZM25.41 618.56c-.81 0-1.49-.15-2.02-.45s-.92-.72-1.15-1.26c-.23-.54-.29-1.18-.17-1.9.03-.19.08-.43.13-.7s.12-.51.17-.7c.19-.74.49-1.37.89-1.91.4-.54.91-.96 1.54-1.26.62-.3 1.36-.45 2.22-.45s1.49.15 2.02.45c.54.3.93.72 1.16 1.26.23.54.29 1.18.18 1.91-.04.19-.09.43-.14.7s-.11.51-.16.7c-.19.73-.48 1.36-.87 1.9-.39.54-.9.96-1.52 1.26s-1.38.45-2.26.45Zm.16-1.58c.58 0 1.06-.18 1.46-.54.4-.36.69-.88.87-1.58.04-.16.09-.37.14-.62s.1-.46.13-.62c.12-.69.07-1.22-.14-1.58-.21-.36-.61-.54-1.18-.54s-1.05.18-1.46.54c-.41.36-.69.88-.86 1.58-.04.16-.09.37-.15.62s-.1.46-.12.62c-.12.69-.07 1.22.14 1.58s.6.54 1.18.54ZM31.53 618.4a.31.31 0 0 1-.25-.11c-.06-.07-.08-.17-.06-.27l1.6-7.54a.482.482 0 0 1 .47-.4h1.3c.11 0 .19.04.25.11.06.08.08.17.06.29l-.14.66c.26-.34.58-.6.98-.78s.88-.27 1.44-.27h.78c.12 0 .2.04.26.11.05.08.07.17.05.27l-.24 1.15c-.02.11-.08.2-.17.27-.09.07-.19.11-.3.11h-1.25c-.51 0-.94.14-1.29.42-.35.28-.57.68-.68 1.19l-.94 4.4c-.02.11-.07.2-.16.27-.08.08-.19.11-.3.11h-1.39ZM44.76 618.4c-.73 0-1.29-.11-1.7-.34-.4-.22-.67-.56-.78-1s-.11-.99.03-1.66l.79-3.63h-1.26a.31.31 0 0 1-.25-.11c-.06-.07-.08-.17-.06-.29l.19-.91c.02-.11.08-.2.17-.27.09-.07.2-.11.31-.11h1.25l.58-2.66c.02-.11.07-.2.16-.27.08-.07.18-.11.29-.11h1.3c.12 0 .21.04.26.11.06.08.08.17.06.27l-.58 2.66h2c.11 0 .19.04.25.11.06.08.08.17.06.27l-.19.91c-.02.12-.08.21-.17.29a.43.43 0 0 1-.3.11h-2l-.74 3.47c-.06.29-.1.54-.1.74 0 .21.05.37.17.48.12.11.33.17.62.17h1.15c.12 0 .2.04.26.11.05.08.07.17.05.27l-.21.99a.47.47 0 0 1-.16.27.43.43 0 0 1-.3.11h-1.14ZM48.07 618.4a.31.31 0 0 1-.25-.11c-.06-.07-.08-.17-.06-.27l2.26-10.59c.02-.11.08-.2.16-.27s.18-.11.29-.11h1.44c.11 0 .19.04.25.11.06.08.08.17.06.27l-.78 3.65c.34-.34.72-.62 1.14-.83.42-.21.93-.32 1.53-.32.69 0 1.26.15 1.7.44.44.29.75.71.92 1.24.17.53.18 1.17.02 1.92l-.96 4.5a.47.47 0 0 1-.16.27.43.43 0 0 1-.3.11h-1.44a.31.31 0 0 1-.25-.11c-.06-.07-.08-.17-.06-.27l.93-4.4c.14-.62.11-1.1-.08-1.46-.19-.35-.58-.53-1.17-.53-.36 0-.71.08-1.03.23a2.3 2.3 0 0 0-.84.68c-.23.3-.4.66-.5 1.07l-.93 4.4a.47.47 0 0 1-.16.27c-.09.08-.18.11-.29.11h-1.44ZM61.51 618.56c-.78 0-1.43-.16-1.95-.46-.52-.31-.87-.76-1.07-1.34-.2-.59-.23-1.3-.09-2.13.02-.11.05-.24.08-.41.03-.17.06-.3.1-.39.21-.81.54-1.51.99-2.09.45-.58.99-1.03 1.64-1.34s1.36-.47 2.14-.47c.86 0 1.55.18 2.06.54.51.36.84.85 1.01 1.49s.16 1.37 0 2.2l-.08.34c-.02.11-.08.2-.17.27-.09.08-.19.11-.31.11h-5.31a.63.63 0 0 1-.03.13c-.05.37-.05.72.02 1.03.06.31.21.57.42.76.22.19.51.29.87.29.3 0 .56-.04.79-.14.22-.09.41-.19.55-.31.14-.12.25-.21.33-.29.13-.13.22-.21.29-.23.06-.03.15-.04.27-.04h1.39c.1 0 .17.03.22.1.05.06.07.14.05.24-.05.17-.19.38-.4.62s-.5.49-.86.72c-.36.24-.79.43-1.29.58s-1.04.23-1.64.23Zm-.69-5.04h3.54l.02-.05c.1-.42.1-.78.02-1.1-.08-.31-.23-.56-.46-.74-.22-.18-.52-.26-.9-.26s-.71.09-1.02.26c-.3.18-.56.42-.76.74-.2.32-.35.68-.43 1.1l-.02.05ZM71.06 618.4a.31.31 0 0 1-.25-.11c-.06-.07-.08-.17-.06-.27l2.26-10.59c.02-.11.08-.2.16-.27s.18-.11.29-.11h1.33c.12 0 .21.04.26.11.06.08.08.17.06.27l-2.26 10.59a.47.47 0 0 1-.16.27.43.43 0 0 1-.3.11h-1.33ZM78.64 618.56c-.81 0-1.49-.15-2.02-.45-.54-.3-.92-.72-1.15-1.26-.23-.54-.29-1.18-.17-1.9.03-.19.08-.43.14-.7s.11-.51.17-.7c.19-.74.49-1.37.89-1.91.4-.54.91-.96 1.54-1.26.62-.3 1.36-.45 2.22-.45s1.49.15 2.02.45c.54.3.92.72 1.16 1.26.23.54.29 1.18.18 1.91-.04.19-.09.43-.14.7-.05.28-.11.51-.16.7-.19.73-.48 1.36-.87 1.9s-.9.96-1.52 1.26c-.62.3-1.38.45-2.26.45Zm.16-1.58c.58 0 1.06-.18 1.46-.54s.69-.88.87-1.58c.04-.16.09-.37.14-.62.05-.26.1-.46.13-.62.12-.69.07-1.22-.14-1.58-.21-.36-.61-.54-1.18-.54s-1.05.18-1.46.54c-.41.36-.69.88-.86 1.58-.04.16-.09.37-.15.62s-.1.46-.12.62c-.12.69-.07 1.22.14 1.58.21.36.6.54 1.18.54ZM86.92 618.4c-.16 0-.27-.04-.34-.12a.658.658 0 0 1-.13-.28l-1.42-7.49c-.02-.14 0-.25.08-.32s.18-.11.3-.11h1.22c.12 0 .21.03.27.1.06.06.11.15.13.27l.91 5.55 3.33-5.62c.03-.06.09-.13.17-.2s.18-.1.31-.1h1.39c.13 0 .22.05.26.14.05.1.03.21-.06.35l-4.56 7.42c-.08.11-.16.2-.25.28-.09.08-.22.12-.38.12H86.9ZM96.66 618.56c-.78 0-1.43-.16-1.94-.46-.52-.31-.88-.76-1.07-1.34-.2-.59-.23-1.3-.09-2.13.02-.11.05-.24.08-.41.03-.17.06-.3.1-.39.21-.81.54-1.51.99-2.09.45-.58.99-1.03 1.64-1.34s1.36-.47 2.14-.47c.86 0 1.55.18 2.06.54.51.36.84.85 1.01 1.49.17.63.16 1.37 0 2.2l-.08.34c-.02.11-.08.2-.17.27-.09.08-.2.11-.31.11h-5.31a.63.63 0 0 1-.03.13c-.05.37-.05.72.02 1.03.06.31.21.57.42.76.22.19.51.29.87.29.3 0 .56-.04.78-.14.22-.09.41-.19.55-.31.14-.12.25-.21.33-.29.13-.13.22-.21.29-.23.06-.03.15-.04.27-.04h1.39c.1 0 .17.03.22.1.05.06.07.14.05.24-.05.17-.19.38-.4.62-.21.25-.5.49-.87.72-.36.24-.79.43-1.29.58s-1.04.23-1.64.23Zm-.69-5.04h3.54l.02-.05c.1-.42.1-.78.02-1.1-.08-.31-.23-.56-.46-.74-.22-.18-.52-.26-.9-.26s-.71.09-1.02.26-.56.42-.76.74c-.2.32-.35.68-.43 1.1l-.02.05ZM109.56 618.56c-.81 0-1.49-.15-2.02-.45s-.92-.72-1.15-1.26c-.23-.54-.29-1.18-.17-1.9.03-.19.08-.43.13-.7s.12-.51.17-.7c.19-.74.49-1.37.89-1.91.4-.54.91-.96 1.54-1.26.62-.3 1.36-.45 2.22-.45s1.49.15 2.02.45c.54.3.93.72 1.16 1.26.23.54.29 1.18.18 1.91-.04.19-.09.43-.14.7s-.11.51-.16.7c-.19.73-.48 1.36-.87 1.9-.39.54-.9.96-1.52 1.26s-1.38.45-2.26.45Zm.16-1.58c.58 0 1.06-.18 1.46-.54.4-.36.69-.88.87-1.58.04-.16.09-.37.14-.62s.1-.46.13-.62c.12-.69.07-1.22-.14-1.58-.21-.36-.61-.54-1.18-.54s-1.05.18-1.46.54c-.41.36-.69.88-.86 1.58-.04.16-.09.37-.15.62s-.1.46-.12.62c-.12.69-.07 1.22.14 1.58s.6.54 1.18.54ZM116.42 618.4c-.12 0-.21-.04-.26-.11-.06-.07-.08-.17-.06-.27l1.33-6.24h-1.29a.31.31 0 0 1-.25-.11c-.06-.07-.08-.17-.06-.29l.19-.91c.02-.11.08-.2.17-.27.09-.07.19-.11.31-.11h1.3l.13-.66c.15-.64.38-1.17.69-1.59.31-.42.7-.74 1.18-.95.48-.21 1.04-.32 1.68-.32h1.28c.12 0 .2.04.26.11.05.07.07.17.05.27l-.19.91c-.02.12-.08.21-.17.29s-.19.11-.3.11h-.96c-.43 0-.76.11-.99.32-.23.21-.39.52-.46.93l-.13.58h1.98c.12 0 .2.04.26.11.05.08.07.17.05.27l-.19.91c-.02.12-.08.21-.16.29a.43.43 0 0 1-.3.11h-1.98l-1.34 6.24c-.02.11-.07.2-.16.27-.08.08-.18.11-.29.11h-1.3ZM128.85 618.56c-.81 0-1.48-.15-2.02-.45s-.92-.72-1.15-1.26c-.23-.54-.29-1.18-.17-1.9.03-.19.08-.43.14-.7s.11-.51.17-.7c.19-.74.49-1.37.89-1.91.4-.54.91-.96 1.54-1.26.62-.3 1.36-.45 2.22-.45s1.49.15 2.02.45c.54.3.92.72 1.16 1.26.23.54.29 1.18.18 1.91-.04.19-.09.43-.14.7s-.11.51-.16.7c-.19.73-.48 1.36-.87 1.9-.39.54-.9.96-1.52 1.26s-1.38.45-2.26.45Zm.16-1.58c.58 0 1.06-.18 1.46-.54.4-.36.69-.88.87-1.58.04-.16.09-.37.14-.62.05-.26.1-.46.13-.62.12-.69.07-1.22-.14-1.58-.21-.36-.61-.54-1.18-.54s-1.05.18-1.46.54c-.41.36-.69.88-.86 1.58-.04.16-.09.37-.15.62s-.1.46-.12.62c-.12.69-.07 1.22.14 1.58s.6.54 1.18.54ZM134.32 621.44a.31.31 0 0 1-.25-.11c-.06-.07-.08-.17-.06-.27l2.26-10.59c.02-.11.08-.2.16-.27.09-.07.18-.11.29-.11H138c.11 0 .19.04.25.11.06.08.08.17.06.27l-.14.64c.33-.34.7-.62 1.1-.85.4-.22.93-.34 1.58-.34.55 0 1.03.09 1.42.28.39.19.7.45.92.79.22.34.37.74.44 1.21s.06.97-.04 1.53c-.02.18-.05.35-.09.51s-.08.34-.14.53c-.13.52-.31 1.02-.54 1.48-.24.46-.52.87-.86 1.22s-.73.62-1.18.81-.96.29-1.53.29c-.6 0-1.09-.1-1.47-.31-.38-.21-.66-.48-.83-.82l-.78 3.63a.47.47 0 0 1-.16.27.43.43 0 0 1-.3.11h-1.36Zm4.56-4.59c.43 0 .79-.1 1.09-.3.3-.2.55-.46.74-.78.2-.33.35-.67.47-1.05.05-.16.1-.32.13-.48.03-.16.06-.32.08-.48.05-.38.06-.74.02-1.06-.04-.32-.16-.58-.36-.78-.2-.2-.51-.3-.94-.3-.45 0-.83.1-1.16.3s-.59.46-.8.78c-.21.32-.36.64-.44.97-.05.19-.1.39-.14.61-.04.21-.08.42-.11.62-.05.32-.05.63 0 .92.06.29.2.54.43.73.23.19.56.29.98.29ZM148.13 618.56c-.78 0-1.43-.16-1.95-.46-.52-.31-.87-.76-1.07-1.34-.2-.59-.23-1.3-.09-2.13.02-.11.05-.24.08-.41.03-.17.06-.3.1-.39.21-.81.54-1.51.99-2.09.45-.58.99-1.03 1.64-1.34s1.36-.47 2.14-.47c.86 0 1.55.18 2.06.54.51.36.84.85 1.01 1.49s.16 1.37 0 2.2l-.08.34c-.02.11-.08.2-.17.27-.09.08-.19.11-.31.11h-5.31a.63.63 0 0 1-.03.13c-.05.37-.05.72.02 1.03.06.31.21.57.42.76.22.19.51.29.87.29.3 0 .56-.04.79-.14.22-.09.41-.19.55-.31.14-.12.25-.21.33-.29.13-.13.22-.21.29-.23.06-.03.15-.04.27-.04h1.39c.1 0 .17.03.22.1.05.06.07.14.05.24-.05.17-.19.38-.4.62s-.5.49-.86.72c-.36.24-.79.43-1.29.58s-1.04.23-1.64.23Zm-.69-5.04h3.54l.02-.05c.1-.42.1-.78.02-1.1-.08-.31-.23-.56-.46-.74-.22-.18-.52-.26-.9-.26s-.71.09-1.02.26c-.3.18-.56.42-.76.74-.2.32-.35.68-.43 1.1l-.02.05ZM153.96 618.4a.31.31 0 0 1-.25-.11c-.06-.07-.08-.17-.06-.27l1.6-7.55c.02-.11.08-.2.17-.27.09-.07.19-.11.3-.11h1.31c.11 0 .19.04.24.11.05.08.07.17.05.27l-.14.66c.34-.34.74-.63 1.21-.86s.99-.34 1.58-.34c.73 0 1.31.15 1.74.44.44.29.73.71.87 1.24s.14 1.17-.02 1.92l-.96 4.5c-.02.11-.07.2-.16.27a.43.43 0 0 1-.3.11h-1.41a.31.31 0 0 1-.25-.11c-.06-.07-.08-.17-.06-.27l.93-4.4c.14-.65.12-1.14-.04-1.48s-.56-.5-1.18-.5-1.12.18-1.54.53c-.42.35-.7.84-.84 1.46l-.93 4.4a.47.47 0 0 1-.16.27c-.09.08-.18.11-.29.11h-1.41ZM170.61 618.56c-.64 0-1.17-.08-1.59-.22-.42-.15-.75-.34-.99-.56s-.41-.45-.5-.67c-.09-.22-.12-.41-.1-.56.02-.12.08-.21.17-.28.09-.07.18-.1.28-.1h1.26s.08 0 .11.02c.03.01.06.04.1.1l.37.37c.13.13.29.24.49.33s.46.14.78.14c.42 0 .78-.08 1.1-.25.31-.17.5-.4.57-.71.04-.22.02-.41-.08-.54-.1-.14-.29-.26-.59-.38-.3-.11-.74-.23-1.33-.36-.58-.14-1.04-.31-1.38-.53-.35-.21-.58-.48-.71-.8-.12-.32-.13-.69-.04-1.12.08-.42.29-.81.62-1.19.33-.38.77-.69 1.32-.94s1.19-.37 1.93-.37c.58 0 1.06.07 1.46.22.4.14.72.32.96.54.24.21.41.43.5.65.1.22.13.41.1.57-.01.12-.06.21-.15.28-.09.07-.18.1-.28.1h-1.17a.32.32 0 0 1-.14-.03.272.272 0 0 1-.1-.08c-.11-.11-.22-.22-.33-.34-.11-.12-.26-.23-.43-.31-.18-.08-.42-.13-.74-.13-.41 0-.73.09-.98.26s-.41.4-.47.66c-.03.18-.01.34.06.47.07.13.25.26.54.38s.73.24 1.31.37c.69.13 1.22.32 1.59.57.37.25.61.54.72.86.11.33.13.69.04 1.08-.1.48-.33.91-.7 1.3-.37.38-.85.69-1.45.9-.6.22-1.3.33-2.11.33ZM179.52 618.56c-.81 0-1.49-.15-2.02-.45-.54-.3-.92-.72-1.15-1.26-.23-.54-.29-1.18-.17-1.9.03-.19.08-.43.14-.7s.11-.51.17-.7c.19-.74.49-1.37.89-1.91.4-.54.91-.96 1.54-1.26.62-.3 1.36-.45 2.22-.45s1.49.15 2.02.45c.54.3.92.72 1.16 1.26.23.54.29 1.18.18 1.91-.04.19-.09.43-.14.7-.05.28-.11.51-.16.7-.19.73-.48 1.36-.87 1.9s-.9.96-1.52 1.26c-.62.3-1.38.45-2.26.45Zm.16-1.58c.58 0 1.06-.18 1.46-.54s.69-.88.87-1.58c.04-.16.09-.37.14-.62.05-.26.1-.46.13-.62.12-.69.07-1.22-.14-1.58-.21-.36-.61-.54-1.18-.54s-1.05.18-1.46.54c-.41.36-.69.88-.86 1.58-.04.16-.09.37-.15.62s-.1.46-.12.62c-.12.69-.07 1.22.14 1.58.21.36.6.54 1.18.54ZM188.45 618.56c-.69 0-1.26-.15-1.7-.44-.44-.29-.73-.71-.87-1.25s-.14-1.18 0-1.91l.96-4.5c.02-.11.08-.2.17-.27.09-.07.19-.11.29-.11h1.41c.11 0 .19.04.24.11.05.08.07.17.05.27l-.93 4.4c-.1.44-.13.8-.09 1.1.04.29.16.52.36.66.2.15.52.22.94.22.58 0 1.08-.18 1.5-.53.43-.35.7-.84.83-1.46l.94-4.4c.02-.11.08-.2.17-.27.09-.07.19-.11.3-.11h1.39c.12 0 .2.04.26.11.05.08.07.17.05.27l-1.6 7.55c-.02.11-.07.2-.16.27-.08.08-.19.11-.3.11h-1.3a.31.31 0 0 1-.25-.11c-.06-.07-.08-.17-.06-.27l.13-.66c-.23.25-.47.46-.72.64s-.53.32-.85.42c-.32.1-.71.14-1.18.14ZM195.57 618.4a.31.31 0 0 1-.25-.11c-.06-.07-.08-.17-.06-.27l1.6-7.54a.482.482 0 0 1 .47-.4h1.3c.11 0 .19.04.25.11.06.08.08.17.06.29l-.14.66c.26-.34.58-.6.98-.78.39-.18.87-.27 1.44-.27h.78c.12 0 .2.04.26.11.05.08.07.17.05.27l-.24 1.15c-.02.11-.08.2-.17.27-.09.07-.19.11-.3.11h-1.25c-.51 0-.94.14-1.29.42-.35.28-.57.68-.68 1.19l-.94 4.4a.47.47 0 0 1-.16.27.43.43 0 0 1-.3.11h-1.39ZM205.46 618.56c-.71 0-1.34-.14-1.88-.43-.54-.29-.94-.71-1.19-1.26-.26-.55-.31-1.21-.18-1.99.03-.16.07-.37.13-.63.05-.26.1-.48.14-.65.29-1.16.82-2.07 1.6-2.71s1.77-.97 2.98-.97c.67 0 1.23.1 1.69.29.45.19.81.44 1.07.74s.44.61.54.93c.1.32.14.61.1.86 0 .12-.06.21-.14.28s-.17.1-.28.1h-1.46c-.11 0-.19-.03-.25-.08s-.09-.13-.1-.24c0-.43-.11-.74-.34-.93-.23-.19-.56-.29-.98-.29-.52 0-.99.17-1.4.5-.41.34-.71.87-.89 1.59-.04.19-.09.39-.13.59-.04.2-.08.38-.11.53-.12.74-.06 1.27.16 1.6.22.33.6.5 1.12.5.42 0 .79-.09 1.12-.26.33-.18.61-.48.83-.9.06-.12.13-.2.2-.25a.44.44 0 0 1 .26-.07h1.44c.11 0 .19.04.25.1s.07.16.04.28c-.07.24-.21.51-.41.82s-.47.62-.81.92c-.34.3-.77.54-1.29.74s-1.13.29-1.85.29ZM214.69 618.56c-.78 0-1.43-.16-1.95-.46-.52-.31-.87-.76-1.07-1.34-.2-.59-.23-1.3-.09-2.13.02-.11.05-.24.08-.41.03-.17.06-.3.1-.39.21-.81.54-1.51.99-2.09.45-.58.99-1.03 1.64-1.34s1.36-.47 2.14-.47c.86 0 1.55.18 2.06.54.51.36.84.85 1.01 1.49s.16 1.37 0 2.2l-.08.34c-.02.11-.08.2-.17.27-.09.08-.19.11-.31.11h-5.31a.63.63 0 0 1-.03.13c-.05.37-.05.72.02 1.03.06.31.21.57.42.76.22.19.51.29.87.29.3 0 .56-.04.79-.14.22-.09.41-.19.55-.31.14-.12.25-.21.33-.29.13-.13.22-.21.29-.23.06-.03.15-.04.27-.04h1.39c.1 0 .17.03.22.1.05.06.07.14.05.24-.05.17-.19.38-.4.62s-.5.49-.86.72c-.36.24-.79.43-1.29.58s-1.04.23-1.64.23Zm-.69-5.04h3.54l.02-.05c.1-.42.1-.78.02-1.1-.08-.31-.23-.56-.46-.74-.22-.18-.52-.26-.9-.26s-.71.09-1.02.26c-.3.18-.56.42-.76.74-.2.32-.35.68-.43 1.1l-.02.05ZM227.19 618.56c-.64 0-1.17-.08-1.59-.22-.42-.15-.75-.34-.99-.56-.24-.22-.41-.45-.5-.67s-.13-.41-.1-.56c.02-.12.08-.21.17-.28.09-.07.18-.1.28-.1h1.26s.08 0 .11.02c.03.01.06.04.1.1l.37.37c.13.13.29.24.49.33s.46.14.78.14c.42 0 .78-.08 1.1-.25s.5-.4.57-.71c.04-.22.02-.41-.08-.54s-.29-.26-.59-.38c-.3-.11-.74-.23-1.33-.36-.58-.14-1.04-.31-1.38-.53-.35-.21-.58-.48-.7-.8-.12-.32-.14-.69-.04-1.12.09-.42.29-.81.62-1.19.33-.38.77-.69 1.32-.94s1.19-.37 1.93-.37c.58 0 1.06.07 1.46.22.4.14.72.32.96.54.24.21.41.43.5.65s.13.41.1.57c-.01.12-.06.21-.15.28-.09.07-.18.1-.28.1h-1.17c-.05 0-.1-.01-.14-.03s-.07-.05-.1-.08c-.11-.11-.22-.22-.33-.34-.11-.12-.26-.23-.43-.31-.18-.08-.42-.13-.74-.13-.41 0-.73.09-.98.26s-.41.4-.47.66c-.03.18-.01.34.06.47.07.13.25.26.54.38s.73.24 1.31.37c.69.13 1.22.32 1.59.57.37.25.61.54.72.86.11.33.12.69.04 1.08-.1.48-.33.91-.7 1.3-.37.38-.85.69-1.45.9-.6.22-1.3.33-2.11.33ZM236.1 618.56c-.81 0-1.49-.15-2.02-.45-.54-.3-.92-.72-1.15-1.26s-.29-1.18-.17-1.9a18.749 18.749 0 0 1 .31-1.4c.19-.74.49-1.37.89-1.91.4-.54.91-.96 1.54-1.26.62-.3 1.36-.45 2.22-.45s1.48.15 2.02.45c.54.3.93.72 1.16 1.26.23.54.29 1.18.18 1.91-.04.19-.09.43-.14.7-.05.28-.11.51-.16.7-.19.73-.48 1.36-.87 1.9-.39.54-.9.96-1.52 1.26-.62.3-1.38.45-2.26.45Zm.16-1.58c.58 0 1.06-.18 1.46-.54s.69-.88.87-1.58c.04-.16.09-.37.14-.62.05-.26.1-.46.13-.62.12-.69.07-1.22-.14-1.58-.21-.36-.61-.54-1.18-.54s-1.05.18-1.46.54c-.4.36-.69.88-.86 1.58-.04.16-.09.37-.15.62s-.1.46-.12.62c-.12.69-.07 1.22.13 1.58.21.36.6.54 1.18.54ZM242.96 618.4c-.12 0-.21-.04-.26-.11-.06-.07-.08-.17-.06-.27l1.33-6.24h-1.3a.31.31 0 0 1-.25-.11c-.06-.07-.08-.17-.06-.29l.19-.91c.02-.11.08-.2.17-.27.09-.07.19-.11.31-.11h1.29l.13-.66c.15-.64.38-1.17.69-1.59.31-.42.7-.74 1.18-.95.48-.21 1.04-.32 1.68-.32h1.28c.12 0 .2.04.26.11.05.07.07.17.05.27l-.19.91c-.02.12-.08.21-.17.29s-.19.11-.3.11h-.96c-.43 0-.76.11-.99.32-.23.21-.39.52-.46.93l-.13.58h1.98c.12 0 .2.04.26.11.05.08.07.17.05.27l-.19.91c-.02.12-.07.21-.16.29-.08.08-.19.11-.3.11h-1.98l-1.34 6.24a.47.47 0 0 1-.16.27c-.09.08-.18.11-.29.11h-1.29ZM252.11 618.4c-.73 0-1.29-.11-1.7-.34-.4-.22-.67-.56-.78-1s-.11-.99.03-1.66l.79-3.63h-1.26a.31.31 0 0 1-.25-.11c-.06-.07-.08-.17-.06-.29l.19-.91c.02-.11.08-.2.17-.27.09-.07.2-.11.31-.11h1.25l.58-2.66c.02-.11.07-.2.16-.27.08-.07.18-.11.29-.11h1.3c.12 0 .21.04.26.11.06.08.08.17.06.27l-.58 2.66h2c.11 0 .19.04.25.11.06.08.08.17.06.27l-.19.91c-.02.12-.08.21-.17.29a.43.43 0 0 1-.3.11h-2l-.74 3.47c-.06.29-.1.54-.1.74 0 .21.05.37.17.48.12.11.33.17.62.17h1.15c.12 0 .2.04.26.11.05.08.07.17.05.27l-.21.99a.47.47 0 0 1-.16.27.43.43 0 0 1-.3.11h-1.14ZM257.27 618.4c-.15 0-.26-.04-.32-.11a.507.507 0 0 1-.11-.29l-.72-7.49c-.01-.12.02-.22.1-.3.08-.08.18-.13.32-.13h1.12c.13 0 .22.03.28.09.06.06.09.13.1.22l.46 5.3 2.75-5.25c.04-.08.11-.15.19-.23.09-.08.2-.12.34-.12h.83c.15 0 .25.04.3.12.05.08.09.16.1.23l.58 5.25 2.69-5.3c.03-.06.09-.13.16-.2s.18-.1.3-.1h1.3c.15 0 .24.05.26.14.03.1.01.2-.04.32l-3.86 7.46c-.06.12-.14.21-.23.29-.09.08-.21.11-.36.11h-1.06c-.15 0-.26-.04-.33-.11a.529.529 0 0 1-.14-.29l-.66-5.06-2.72 5.06a.85.85 0 0 1-.24.29c-.1.08-.22.11-.37.11h-1.04ZM271.09 618.56c-.55 0-1.02-.09-1.41-.28s-.69-.45-.9-.79c-.22-.34-.36-.74-.42-1.21-.06-.46-.05-.97.03-1.53.04-.19.08-.37.11-.52.03-.15.07-.33.11-.52.14-.53.32-1.03.55-1.49.23-.46.51-.86.85-1.21s.73-.62 1.18-.81c.45-.19.97-.29 1.56-.29.66 0 1.17.1 1.51.31s.62.46.81.76l.11-.53c.02-.11.08-.2.16-.27s.18-.11.29-.11h1.26c.11 0 .19.04.26.11.06.08.09.17.06.27l-1.62 7.55a.47.47 0 0 1-.16.27c-.09.08-.18.11-.29.11h-1.26c-.12 0-.21-.04-.26-.11-.06-.07-.08-.17-.06-.27l.13-.59c-.32.33-.67.6-1.06.82-.38.21-.9.32-1.55.32Zm.72-1.71c.45 0 .83-.1 1.15-.3.32-.2.58-.46.78-.78s.34-.64.42-.97c.05-.19.1-.4.14-.62s.08-.42.11-.62c.06-.32.07-.63.02-.92s-.19-.54-.41-.73c-.22-.19-.55-.29-.98-.29s-.77.1-1.06.3-.54.46-.73.78c-.19.32-.35.67-.46 1.06-.04.16-.08.32-.11.48s-.06.32-.08.48c-.05.38-.07.74-.04 1.06.03.32.14.58.34.78s.5.3.92.3ZM278.05 618.4a.31.31 0 0 1-.25-.11c-.06-.07-.08-.17-.06-.27l1.6-7.54a.482.482 0 0 1 .47-.4h1.29c.11 0 .19.04.25.11.06.08.08.17.06.29l-.14.66c.26-.34.58-.6.98-.78s.88-.27 1.44-.27h.78c.12 0 .2.04.26.11.05.08.07.17.05.27l-.24 1.15c-.02.11-.08.2-.17.27-.09.07-.19.11-.29.11h-1.25c-.51 0-.94.14-1.29.42-.35.28-.57.68-.68 1.19l-.94 4.4c-.02.11-.07.2-.16.27a.43.43 0 0 1-.3.11h-1.39ZM288.05 618.56c-.78 0-1.43-.16-1.95-.46-.52-.31-.87-.76-1.07-1.34-.2-.59-.23-1.3-.09-2.13.02-.11.05-.24.08-.41.03-.17.06-.3.1-.39.21-.81.54-1.51.99-2.09.45-.58.99-1.03 1.64-1.34s1.36-.47 2.14-.47c.86 0 1.55.18 2.06.54.51.36.84.85 1.01 1.49s.16 1.37 0 2.2l-.08.34c-.02.11-.08.2-.17.27-.09.08-.19.11-.31.11h-5.31a.63.63 0 0 1-.03.13c-.05.37-.05.72.02 1.03.06.31.21.57.42.76.22.19.51.29.87.29.3 0 .56-.04.79-.14.22-.09.41-.19.55-.31.14-.12.25-.21.33-.29.13-.13.22-.21.29-.23.06-.03.15-.04.27-.04h1.39c.1 0 .17.03.22.1.05.06.07.14.05.24-.05.17-.19.38-.4.62s-.5.49-.86.72c-.36.24-.79.43-1.29.58s-1.04.23-1.64.23Zm-.69-5.04h3.54l.02-.05c.1-.42.1-.78.02-1.1-.08-.31-.23-.56-.46-.74-.22-.18-.52-.26-.9-.26s-.71.09-1.02.26c-.3.18-.56.42-.76.74-.2.32-.35.68-.43 1.1l-.02.05ZM1125.56 618.56c-.89 0-1.63-.15-2.22-.44-.6-.29-1.05-.71-1.37-1.26-.32-.54-.49-1.18-.52-1.9-.01-.21-.02-.46-.02-.73s0-.51.02-.71c.03-.74.21-1.37.54-1.91.33-.54.79-.95 1.39-1.25.6-.29 1.32-.44 2.18-.44s1.56.15 2.16.44c.6.29 1.06.71 1.39 1.25.33.54.52 1.18.56 1.91.01.2.02.44.02.71s0 .51-.02.73c-.04.73-.22 1.36-.54 1.9-.32.54-.77.96-1.37 1.26-.6.29-1.33.44-2.21.44Zm0-1.77c.52 0 .91-.16 1.18-.48.26-.32.41-.79.44-1.42.01-.16.02-.37.02-.64s0-.48-.02-.64c-.03-.62-.18-1.09-.44-1.42s-.65-.49-1.18-.49-.92.16-1.18.49-.42.8-.45 1.42c0 .16-.02.37-.02.64s0 .48.02.64c.03.63.18 1.1.45 1.42.27.32.66.48 1.18.48ZM1134.64 618.56c-.66 0-1.23-.08-1.7-.23s-.86-.34-1.15-.57c-.29-.22-.51-.45-.66-.68-.14-.23-.22-.42-.23-.58-.01-.12.03-.21.11-.29.09-.07.17-.11.26-.11h1.55s.08 0 .1.02c.03.01.06.04.1.08.14.1.28.21.42.33.14.12.32.23.52.31.2.09.45.13.74.13.35 0 .65-.07.89-.22a.68.68 0 0 0 .36-.62c0-.19-.05-.35-.16-.48s-.31-.25-.62-.35c-.31-.11-.77-.22-1.38-.35-.58-.13-1.07-.3-1.47-.51-.41-.21-.71-.48-.91-.81-.2-.33-.3-.72-.3-1.18 0-.42.13-.82.39-1.2s.65-.7 1.16-.95c.51-.25 1.15-.38 1.92-.38.59 0 1.1.07 1.54.22.44.14.81.33 1.11.54s.53.44.68.67.24.43.25.6c.01.12-.02.21-.1.29-.07.08-.16.11-.26.11h-1.42c-.05 0-.1-.01-.14-.03s-.08-.05-.11-.08c-.13-.07-.26-.17-.39-.29a1.72 1.72 0 0 0-.47-.3c-.18-.08-.42-.13-.7-.13-.34 0-.61.08-.79.23a.724.724 0 0 0-.14 1c.1.13.29.25.58.35.29.11.75.22 1.37.34.73.13 1.3.32 1.73.58s.73.55.91.89.27.7.27 1.08c0 .5-.15.95-.44 1.34s-.73.69-1.3.91c-.58.22-1.28.33-2.11.33ZM1143.33 618.56c-.66 0-1.23-.08-1.7-.23s-.86-.34-1.15-.57c-.29-.22-.51-.45-.66-.68-.14-.23-.22-.42-.23-.58-.01-.12.03-.21.11-.29.09-.07.17-.11.26-.11h1.55s.08 0 .1.02c.03.01.06.04.1.08.14.1.28.21.42.33.14.12.32.23.52.31.2.09.45.13.74.13.35 0 .65-.07.89-.22a.68.68 0 0 0 .36-.62c0-.19-.05-.35-.16-.48s-.31-.25-.62-.35c-.31-.11-.77-.22-1.38-.35-.58-.13-1.07-.3-1.47-.51-.41-.21-.71-.48-.91-.81-.2-.33-.3-.72-.3-1.18 0-.42.13-.82.39-1.2s.65-.7 1.16-.95c.51-.25 1.15-.38 1.92-.38.59 0 1.1.07 1.54.22.44.14.81.33 1.11.54s.53.44.68.67.24.43.25.6c.01.12-.02.21-.1.29-.07.08-.16.11-.26.11h-1.42c-.05 0-.1-.01-.14-.03s-.08-.05-.11-.08c-.13-.07-.26-.17-.39-.29a1.72 1.72 0 0 0-.47-.3c-.18-.08-.42-.13-.7-.13-.34 0-.61.08-.79.23a.724.724 0 0 0-.14 1c.1.13.29.25.58.35.29.11.75.22 1.37.34.73.13 1.3.32 1.73.58s.73.55.91.89.27.7.27 1.08c0 .5-.15.95-.44 1.34s-.73.69-1.3.91c-.58.22-1.28.33-2.11.33ZM1149.04 618.4c-.12 0-.21-.04-.29-.11s-.11-.17-.11-.29v-1.81c0-.11.04-.2.11-.28.08-.08.17-.12.29-.12h1.81c.11 0 .2.04.28.12s.12.17.12.28V618c0 .12-.04.21-.12.29a.37.37 0 0 1-.28.11h-1.81ZM1153.56 618.4c-.12 0-.21-.04-.29-.11a.4.4 0 0 1-.11-.29v-10.56c0-.12.04-.21.11-.29a.4.4 0 0 1 .29-.11h1.6c.12 0 .21.04.29.11s.11.17.11.29V618c0 .12-.04.21-.11.29-.07.08-.17.11-.29.11h-1.6ZM1161.38 618.56c-.88 0-1.63-.15-2.22-.44-.6-.29-1.05-.71-1.37-1.26s-.49-1.18-.52-1.9c-.01-.21-.02-.46-.02-.73s0-.51.02-.71c.03-.74.21-1.37.54-1.91.33-.54.79-.95 1.39-1.25.6-.29 1.32-.44 2.18-.44s1.56.15 2.16.44c.6.29 1.06.71 1.39 1.25.33.54.52 1.18.56 1.91 0 .2.02.44.02.71s0 .51-.02.73c-.04.73-.22 1.36-.54 1.9s-.77.96-1.37 1.26c-.6.29-1.33.44-2.21.44Zm0-1.77c.52 0 .92-.16 1.18-.48.26-.32.41-.79.44-1.42 0-.16.02-.37.02-.64s0-.48-.02-.64c-.03-.62-.18-1.09-.44-1.42-.26-.33-.65-.49-1.18-.49s-.92.16-1.18.49-.42.8-.45 1.42c-.01.16-.02.37-.02.64s0 .48.02.64c.03.63.18 1.1.45 1.42.27.32.66.48 1.18.48ZM1169.81 618.4c-.16 0-.28-.04-.36-.12a.95.95 0 0 1-.2-.28l-3.01-7.42s-.03-.09-.03-.14c0-.1.03-.18.1-.25s.15-.1.25-.1h1.55c.14 0 .24.04.31.11.07.08.12.14.14.21l1.97 5.26 1.97-5.26c.03-.06.08-.13.14-.21.06-.07.16-.11.3-.11h1.55c.1 0 .18.04.25.1.07.07.1.15.1.25 0 .05 0 .1-.02.14l-3.01 7.42c-.04.11-.11.2-.19.28s-.21.12-.38.12h-1.44ZM1179.6 618.56c-1.23 0-2.2-.34-2.92-1.02-.72-.68-1.1-1.67-1.14-2.98v-.67c.04-.83.23-1.54.56-2.14.33-.59.79-1.04 1.39-1.36.6-.31 1.29-.47 2.1-.47.91 0 1.66.18 2.26.55s1.05.87 1.35 1.5c.3.63.46 1.36.46 2.18v.37c0 .11-.04.2-.11.28a.37.37 0 0 1-.29.12h-5.22v.11c.01.34.08.65.19.94.12.28.29.51.52.68.23.17.51.26.84.26.26 0 .47-.04.64-.12.17-.08.31-.17.42-.27.11-.1.19-.19.25-.26.1-.12.17-.19.23-.22s.15-.04.26-.04h1.7c.1 0 .18.03.25.1.07.06.1.14.09.24-.01.18-.1.4-.26.65-.17.25-.41.5-.73.74s-.72.44-1.19.6-1.02.24-1.64.24Zm-1.56-5.1h3.12v-.05c0-.37-.06-.7-.18-.98s-.3-.5-.54-.66c-.23-.16-.52-.24-.85-.24s-.61.08-.84.24c-.23.16-.41.38-.53.66-.12.28-.18.61-.18.98v.05Z"/><path fill="#b7303d" stroke="#1c2126" stroke-linejoin="round" stroke-width=".33" d="m1104.46 614.96-5.57-3.22-5.58 3.22 11.15 6.43 11.16-6.43-5.58-3.22-5.58 3.22z"/><path fill="#ea4f4b" stroke="#1c2126" stroke-linejoin="round" stroke-width=".33" d="M1098.89 605.3v6.44l-5.58 3.22v-6.44l5.58-3.22z"/><path fill="#ff6b60" stroke="#1c2126" stroke-linejoin="round" stroke-width=".33" d="M1098.89 605.3v6.44l5.57 3.22v-6.44l-5.57-3.22z"/><path fill="#ea4f4b" stroke="#1c2126" stroke-linejoin="round" stroke-width=".33" d="M1110.04 605.3v6.44l-5.58 3.22v-6.44l5.58-3.22z"/><path fill="#ff6b60" stroke="#1c2126" stroke-linejoin="round" stroke-width=".33" d="M1110.04 605.3v6.44l5.57 3.22.01-6.44-5.58-3.22z"/></g></svg>