<svg xmlns="http://www.w3.org/2000/svg" xmlns:xlink="http://www.w3.org/1999/xlink" width="1200" height="630" viewBox="0 0 1200 630"><defs><clipPath id="a"><rect width="100" height="100" fill="none"/></clipPath><pattern id="b" width="100" height="100" patternTransform="translate(-15023.27 4530.64) rotate(45)" patternUnits="userSpaceOnUse" viewBox="0 0 100 100"><rect width="100" height="100" fill="none"/><g clip-path="url(#a)"><path d="M2.27,41,5.4,44.1c5.62,5.61,9.2,5.64,14.71.12l4.6-4.59c3.23-3.24,6.38-3.11,10.75,1.88l4.93-4.93c-5-4.37-5.11-7.52-1.86-10.77l4.6-4.6c5.51-5.51,5.49-9.1-.13-14.71L39.87,3.37,36,7.23l2.09,2.09c3,3,2.9,4.31-.58,7.79L31.84,22.8C29,25.64,29.2,29.62,33,33.7l-.37.37c-4.08-3.75-8-4-10.89-1.12L16,38.63c-3.48,3.48-4.79,3.58-7.79.58L6.13,37.12Z" fill="#30c8c9"/><path d="M93.88,37.12l-2.09,2.09c-3,3-4.31,2.9-7.79-.58L78.32,33c-2.86-2.85-6.81-2.63-10.89,1.12l-.38-.37c3.75-4.08,4-8.06,1.12-10.9l-5.7-5.69c-3.48-3.48-3.58-4.79-.58-7.79L64,7.23,60.13,3.37,57,6.5c-5.62,5.61-5.64,9.2-.13,14.71l4.6,4.6c3.25,3.25,3.13,6.4-1.86,10.77l4.93,4.93c4.37-5,7.52-5.12,10.75-1.88l4.6,4.59c5.51,5.52,9.09,5.49,14.71-.12L97.73,41Z" fill="#30c8c9"/><path d="M6.13,65.14l2.09-2.09c3-3,4.31-2.9,7.79.58l5.68,5.68c2.85,2.85,6.81,2.63,10.89-1.12l.37.37c-3.75,4.08-4,8.06-1.11,10.9l5.69,5.69c3.48,3.48,3.59,4.79.58,7.79L36,95l3.85,3.86L43,95.76c5.62-5.61,5.64-9.2.13-14.71l-4.6-4.6c-3.25-3.25-3.13-6.4,1.86-10.77l-4.93-4.93c-4.37,5-7.52,5.12-10.75,1.88L20.11,58C14.6,52.53,11,52.55,5.4,58.16L2.27,61.29Z" fill="#30c8c9"/><path d="M97.73,61.29l-3.12-3.13C89,52.55,85.41,52.53,79.9,58l-4.6,4.59c-3.23,3.24-6.38,3.11-10.75-1.88l-4.93,4.93c5,4.37,5.11,7.52,1.86,10.77l-4.6,4.6c-5.51,5.51-5.49,9.1.13,14.71l3.12,3.13L64,95l-2.1-2.09c-3-3-2.9-4.31.58-7.79l5.7-5.69c2.84-2.84,2.63-6.82-1.12-10.9l.38-.37c4.08,3.75,8,4,10.89,1.12L84,63.63c3.48-3.48,4.79-3.58,7.79-.58l2.09,2.09Z" fill="#30c8c9"/><path d="M45.17,48.18,48.6,50l-3.43,1.82L46,53.3l3.33-2.09-.14,3.91h1.64l-.14-3.91L54,53.3l.82-1.47L51.39,50l3.44-1.83L54,46.72l-3.33,2.09.14-3.92H49.18l.14,3.92L46,46.71Z" fill="#30c8c9"/><path d="M95.17,98.17,98.6,100l-3.43,1.83.82,1.46,3.33-2.09-.14,3.92h1.64l-.14-3.92,3.33,2.1.82-1.47L101.39,100l3.44-1.83L104,96.71l-3.33,2.09.14-3.92H99.18l.14,3.92L96,96.7Z" fill="#30c8c9"/><path d="M95.17-1.83,98.6,0,95.17,1.83,96,3.29,99.32,1.2l-.14,3.92h1.64l-.14-3.92L104,3.3l.82-1.47L101.39,0l3.44-1.83L104-3.29,100.68-1.2l.14-3.92H99.18l.14,3.92L96-3.3Z" fill="#30c8c9"/><path d="M-4.83-1.83-1.4,0-4.83,1.83-4,3.29-.68,1.2-.82,5.12H.82L.68,1.2,4,3.3l.82-1.47L1.39,0,4.83-1.83,4-3.29.68-1.2.82-5.12H-.82L-.68-1.2-4-3.3Z" fill="#30c8c9"/><path d="M-4.83,98.17-1.4,100l-3.43,1.83.82,1.46,3.33-2.09-.14,3.92H.82L.68,101.2,4,103.3l.82-1.47L1.39,100l3.44-1.83L4,96.71.68,98.8l.14-3.92H-.82l.14,3.92L-4,96.7Z" fill="#30c8c9"/><path d="M80.42,21a15.59,15.59,0,0,0,10.12,4.87l2-2a17.49,17.49,0,0,1-10-5,17.53,17.53,0,0,1-5-10l-2,2A15.61,15.61,0,0,0,80.42,21Z" fill="#30c8c9"/><path d="M19.6,21a15.54,15.54,0,0,0,4.87-10.12l-2-2a17.49,17.49,0,0,1-5,10,17.53,17.53,0,0,1-10,5l2,2A15.61,15.61,0,0,0,19.6,21Z" fill="#30c8c9"/><path d="M19.58,79.68A15.6,15.6,0,0,0,9.46,74.8l-2,2a17.51,17.51,0,0,1,10,5,17.53,17.53,0,0,1,5,10l2-2A15.54,15.54,0,0,0,19.58,79.68Z" fill="#30c8c9"/><path d="M80.4,79.69a15.61,15.61,0,0,0-4.87,10.12l2,2a17.7,17.7,0,0,1,15-15l-2-2A15.66,15.66,0,0,0,80.4,79.69Z" fill="#30c8c9"/></g></pattern></defs><rect width="1200" height="498.72" fill="#5cebdf"/><rect width="1200" height="498.72" opacity="0.5" fill="url(#b)"/><path d="M780.12,291.75c-6.13-10.58-13.72-21.13-23.46-28.67-6.37-4.93-14.6-11.25-23.18-10.43l-29.6,2.87a93.84,93.84,0,0,0-5.69-9.26,462.59,462.59,0,0,0,45.58-8.36c6.92-1.67,10.33-6.08,10.32-13.48,0-10.28-4.39-20-9-28.91-13.78-26.69-38-44.8-65.69-54.68-15.68-5.59-32.18-9-48.6-11.53-15.09-2.32-31-4.94-46.31-4.12-9.62.51-19.28,2.31-28.85,3.47q-17.18,2.1-34.37,4-150,17.06-300.8,26.06c-53.75,3.3-107.54,5.87-161.37,7.22-7.24.18-10,7.51-10.32,13.48-.46,9.34,4.51,21.15,9,28.91C63.91,218.94,71.5,229.49,81.24,237a77.41,77.41,0,0,0,9.78,6.7Q80.93,246,70.87,248.37c-9.19,2.21-21.14,3.78-27.88,11.06-17,18.38-2,47.39,10.17,64.22,13,18,30.42,32.35,53,34.1,10.92.85,22.49-1,33.41-1.6l36.71-2.1L247.64,350c19.13-1.1,38.23-2.28,57.28-3.89,1,1.53,2,3.05,3,4.54,5.52,7.91,15.78,19.67,25,23.82,8,3.63,15.83,7.23,24.31,9.53a158.79,158.79,0,0,0,25.52,4.33c13.29,1.35,26.72.62,39.93-1.1,27.24-3.56,53.85-11,80.71-16.54,58.2-12,117.13-20,176.16-26.48,33.06-3.64,66.16-6.84,99.27-10,7.25-.7,10-7,10.32-13.48C789.59,311.32,784.62,299.51,780.12,291.75Z" fill="#5bebde"/><rect y="595" width="1200" height="35" fill="#fff"/><rect y="499.19" width="1200" height="95.81" fill="#fff"/><line y1="499.19" x2="1200" y2="499.19" fill="none" stroke="#1c2126" stroke-miterlimit="10"/><line y1="595" x2="1200" y2="595" fill="none" stroke="#1c2126" stroke-miterlimit="10"/><path d="M24.24,559.45V540.69H17.85v-2.37H33.21v2.37H26.82v18.76Z" fill="#1c2126"/><path d="M44.07,559.89c-4.8,0-7.74-3.45-7.74-9.3v-3.41c0-5.85,2.94-9.3,7.74-9.3s7.75,3.45,7.75,9.3v3.41C51.82,556.44,48.88,559.89,44.07,559.89Zm5.15-9.31v-3.39c0-4.41-1.94-6.87-5.15-6.87s-5.14,2.46-5.14,6.87v3.39c0,4.41,1.94,6.87,5.14,6.87S49.22,555,49.22,550.58Z" fill="#1c2126"/><path d="M60,545.58a2.65,2.65,0,1,1,2.65,2.71A2.7,2.7,0,0,1,60,545.58Zm0,11.25a2.65,2.65,0,1,1,2.65,2.71A2.68,2.68,0,0,1,60,556.83Z" fill="#1c2126"/><line x1="582.03" y1="498.72" x2="582.03" y2="595" fill="none" stroke="#1c2126" stroke-miterlimit="10"/><path d="M1129.73,614.6a4.72,4.72,0,1,1-4.71-4.69A4.43,4.43,0,0,1,1129.73,614.6Zm-6.82,0A2.12,2.12,0,0,0,1125,617c1.3,0,2.1-.94,2.1-2.41s-.8-2.42-2.1-2.42S1122.91,613.12,1122.91,614.6Z" fill="#1c2126"/><path d="M1138.54,612.93H1136c0-.57-.52-1-1.37-1s-1.25.3-1.25.72.19.62,1.2.8l1.2.19c2.3.39,2.91,1.43,2.91,2.79,0,1.74-1.39,2.85-3.92,2.85-2.72,0-4.08-1.3-4.08-3.09h2.48c0,.65.53,1.1,1.7,1.1.88,0,1.33-.3,1.33-.75s-.26-.72-1.3-.9l-1.25-.21c-2.11-.33-2.77-1.39-2.77-2.67,0-1.58,1.3-2.8,3.78-2.8S1138.54,611.24,1138.54,612.93Z" fill="#1c2126"/><path d="M1147.49,612.93H1145c0-.57-.53-1-1.38-1s-1.25.3-1.25.72.2.62,1.2.8l1.2.19c2.31.39,2.92,1.43,2.92,2.79,0,1.74-1.39,2.85-3.92,2.85-2.72,0-4.09-1.3-4.09-3.09h2.49c0,.65.52,1.1,1.69,1.1.88,0,1.33-.3,1.33-.75s-.26-.72-1.3-.9l-1.24-.21c-2.12-.33-2.77-1.39-2.77-2.67,0-1.58,1.29-2.8,3.77-2.8S1147.49,611.24,1147.49,612.93Z" fill="#1c2126"/><path d="M1152,617.64a1.6,1.6,0,1,1-1.6-1.62A1.55,1.55,0,0,1,1152,617.64Z" fill="#1c2126"/><path d="M1156.27,606.34v12.72h-2.5V606.34Z" fill="#1c2126"/><path d="M1167,614.6a4.71,4.71,0,1,1-4.7-4.69A4.42,4.42,0,0,1,1167,614.6Zm-6.82,0a2.13,2.13,0,0,0,2.12,2.41c1.29,0,2.1-.94,2.1-2.41s-.81-2.42-2.1-2.42A2.13,2.13,0,0,0,1160.15,614.6Z" fill="#1c2126"/><path d="M1176.59,610.12l-3.27,8.94h-3l-3.29-8.94h2.64l2.17,6.32,2.16-6.32Z" fill="#1c2126"/><path d="M1186.06,615.33h-6.61a1.92,1.92,0,0,0,2,1.81,1.83,1.83,0,0,0,1.75-.8h2.66a5,5,0,1,1,.17-1.77Zm-6.58-1.71h3.94a1.87,1.87,0,0,0-2-1.58A2,2,0,0,0,1179.48,613.62Z" fill="#1c2126"/><path d="M605.51,559.45V538.32H618v2.37H608.1v7.25h9v2.3h-9v9.21Z" fill="#1c2126"/><path d="M625.54,551v8.42H623V538.32h7.09c4.19,0,6.81,2.43,6.81,6.35A5.91,5.91,0,0,1,633,550.5l4.3,9h-2.91L630.41,551Zm0-2.18h4.19c2.92,0,4.56-1.48,4.56-4.12s-1.61-4.11-4.44-4.11h-4.31Z" fill="#1c2126"/><path d="M648.15,559.89c-4.81,0-7.75-3.45-7.75-9.3v-3.41c0-5.85,2.94-9.3,7.75-9.3s7.75,3.45,7.75,9.3v3.41C655.9,556.44,653,559.89,648.15,559.89Zm5.14-9.31v-3.39c0-4.41-1.93-6.87-5.14-6.87s-5.14,2.46-5.14,6.87v3.39c0,4.41,1.93,6.87,5.14,6.87S653.29,555,653.29,550.58Z" fill="#1c2126"/><path d="M661.38,559.45h-2.31V538.32H662l4.64,13.12h.19l4.62-13.12h2.9v21.13H672v-8.11l.13-8.56H672l-4.25,11.71h-2l-4.25-11.71h-.19l.14,8.56Z" fill="#1c2126"/><path d="M682.59,545.58a2.65,2.65,0,1,1,2.65,2.71A2.7,2.7,0,0,1,682.59,545.58Zm0,11.25a2.65,2.65,0,1,1,2.65,2.71A2.68,2.68,0,0,1,682.59,556.83Z" fill="#1c2126"/><path d="M27.75,606.92v12.14H25v-2.13l-4.7-5.41v7.54H17.63V606.92H20L25,612.77v-5.85Z" fill="#1c2126"/><path d="M38.37,615.33H31.76a1.92,1.92,0,0,0,2,1.81,1.82,1.82,0,0,0,1.75-.8H38.2a4.35,4.35,0,0,1-4.44,2.88,4.63,4.63,0,1,1,0-9.26,4.32,4.32,0,0,1,4.62,4.61Zm-6.58-1.71h3.94a1.87,1.87,0,0,0-2-1.58A2,2,0,0,0,31.79,613.62Z" fill="#1c2126"/><path d="M44.93,612.23H43v6.83H40.5v-6.83H38.82v-2.11H40.5V607.3H43v2.82h1.93Z" fill="#1c2126"/><path d="M48.9,606.34v12.72H46.4V606.34Z" fill="#1c2126"/><path d="M53.62,607.59a1.5,1.5,0,1,1-3,0,1.5,1.5,0,1,1,3,0Zm-.24,2.32v9.15h-2.5v-9.15a2.06,2.06,0,0,0,1.25.37A2,2,0,0,0,53.38,609.91Z" fill="#1c2126"/><path d="M58.55,609v1.09h1.87v2.11H58.55v6.83h-2.5v-6.83H54.61v-2.11h1.44V609a2.62,2.62,0,0,1,2.88-2.83h1.75v1.94H59.44A.78.78,0,0,0,58.55,609Z" fill="#1c2126"/><path d="M70.71,610.12l-5,11.89H63.33l1.38-3.28-3.49-8.61h2.51L66,615.69l2.32-5.57Z" fill="#1c2126"/><path d="M109.4,613c0,3.92-2.34,6.22-5.8,6.22s-5.79-2.3-5.79-6.22,2.33-6.25,5.79-6.25S109.4,609.08,109.4,613Zm-8.79,0c0,2.35,1.29,3.66,3,3.66s3-1.31,3-3.66-1.31-3.67-3-3.67S100.61,610.63,100.61,613Z" fill="#1c2126"/><path d="M120.32,610.53h-2.8c0-.89-.67-1.52-1.85-1.52s-1.7.55-1.7,1.23.38,1,1.49,1.3l1.37.32c2.64.59,3.73,1.73,3.73,3.73s-1.6,3.63-4.73,3.63-4.9-1.61-4.9-4h2.8a1.88,1.88,0,0,0,2.11,1.84c1.27,0,1.92-.63,1.92-1.44s-.38-1.09-1.57-1.35l-1.32-.27c-2.77-.56-3.72-1.87-3.72-3.73,0-2.06,1.6-3.54,4.58-3.54S120.32,608.29,120.32,610.53Z" fill="#1c2126"/><path d="M131.38,610.53h-2.8c0-.89-.67-1.52-1.86-1.52-1,0-1.69.55-1.69,1.23s.38,1,1.48,1.3l1.38.32c2.64.59,3.73,1.73,3.73,3.73s-1.6,3.63-4.74,3.63-4.9-1.61-4.9-4h2.81a1.88,1.88,0,0,0,2.11,1.84c1.26,0,1.92-.63,1.92-1.44s-.39-1.09-1.57-1.35l-1.33-.27c-2.77-.56-3.71-1.87-3.71-3.73,0-2.06,1.6-3.54,4.58-3.54S131.38,608.29,131.38,610.53Z" fill="#1c2126"/><path d="M91.16,610.11a3.62,3.62,0,0,0-1-1.22,3.91,3.91,0,0,0-2.49-1.14,3.62,3.62,0,0,0-2.51,1.37,8,8,0,0,0-1.41,2.21,6.53,6.53,0,0,0-2.39-2.73,4.09,4.09,0,0,0-3.58-.35,3,3,0,0,0-1.82,3,5,5,0,0,0,2,2.88q3.32,3,6.72,5.87l5-5.64C90.67,613.14,91.8,611.56,91.16,610.11Z" fill="#ff6b60" stroke="#ff6b60" stroke-linejoin="round"/><path d="M103.53,183.77v43.64H93.81V183.77Z" fill="#1c2126"/><path d="M177.93,195.27l-9.43,32.14h-9L153,207l-6.56,20.41h-8.79l-9.43-32.14h8.74l6,20.46,6.33-20.46H157l6.27,20.35,6-20.35Z" fill="#1c2126"/><path d="M212.43,211.36c0,9.61-6.15,16.85-16.9,16.85s-17-7.24-17-16.85,6.15-16.84,17-16.84S212.43,201.76,212.43,211.36Zm-24.49,0c0,5.29,2.93,8.69,7.59,8.69s7.53-3.4,7.53-8.69-2.88-8.68-7.53-8.68S187.94,206.08,187.94,211.36Z" fill="#1c2126"/><path d="M246.07,195.27v32.14h-9V224a10.5,10.5,0,0,1-8.8,4.25c-7.07,0-11.67-5.29-11.67-14.78V195.27h9v16.5c0,4.88,2.24,7.64,5.69,7.64s5.81-2.93,5.81-7.59V195.27Z" fill="#1c2126"/><path d="M262.28,181.7v45.71h-9V181.7Z" fill="#1c2126"/><path d="M300,181.7v45.71h-9v-3.8c-2.13,2.88-5.46,4.6-9.95,4.6-8.33,0-14.2-6-14.2-16.85s5.87-16.84,14.2-16.84c4.49,0,7.82,1.72,9.95,4.54V181.7Zm-9,29.43c0-5.69-3-8.91-7.36-8.91s-7.42,3.28-7.42,8.91,3.11,8.92,7.42,8.92S291,216.83,291,211.13Z" fill="#1c2126"/><path d="M337.37,209.24v18.17h-9V211c0-4.94-2.36-7.7-6-7.7s-6.2,3-6.2,7.64v16.51h-9V195.27h9v3.62a10.86,10.86,0,0,1,9.14-4.37C332.66,194.52,337.37,199.75,337.37,209.24Z" fill="#1c2126"/><path d="M349.28,188.25c0,4.66-2.36,8.11-7.76,9.83l-1.21.41-1.38-4.26,1.21-.34c2.53-.75,3.85-1.84,4.36-3.51a6,6,0,0,1-1.09.11,4.6,4.6,0,0,1-4.88-4.6,4.69,4.69,0,0,1,5.05-4.77C347.15,181.12,349.28,183.94,349.28,188.25Z" fill="#1c2126"/><path d="M374.63,202.86h-7v24.55h-9V202.86h-6v-7.59h6V185.15h9v10.12h7Z" fill="#1c2126"/><path d="M431.15,195.27v34.09c0,7-4.31,11.38-11.33,11.38H404.53v-7.58h13.86c2.58,0,3.79-1.27,3.79-3.8v-6.61c-2.13,2.76-5.46,4.48-10,4.48-8.34,0-14.26-5.8-14.26-16.44s5.92-16.27,14.26-16.27c4.54,0,7.87,1.67,10,4.48v-3.73Zm-9,15.29c0-5.23-3-8.34-7.42-8.34s-7.47,3.11-7.47,8.34,3.16,8.57,7.47,8.57S422.18,215.85,422.18,210.56Z" fill="#1c2126"/><path d="M469.27,211.36c0,9.61-6.15,16.85-16.9,16.85s-17-7.24-17-16.85,6.15-16.84,17-16.84S469.27,201.76,469.27,211.36Zm-24.49,0c0,5.29,2.93,8.69,7.59,8.69s7.53-3.4,7.53-8.69-2.87-8.68-7.53-8.68S444.78,206.08,444.78,211.36Z" fill="#1c2126"/><path d="M528.15,211.36c0,10.87-5.92,16.85-14.26,16.85-4.54,0-7.93-1.72-10.06-4.6v3.8h-9V181.7h9v17.36c2.13-2.82,5.52-4.54,10.06-4.54C522.23,194.52,528.15,200.44,528.15,211.36Zm-9.43.18c0-5.58-3.1-8.91-7.42-8.91s-7.47,3.27-7.47,8.91c0,5.34,3.05,9,7.47,9S518.72,216.83,518.72,211.54Z" fill="#1c2126"/><path d="M562.13,209.06v18.35h-9V223.9c-2.24,2.59-5.75,4.08-10.46,4.08-6.73,0-10.93-3.39-10.93-9,0-5.06,3.34-8.91,11.73-10.35l9.66-1.61c0-3.1-1.95-4.88-5.58-4.88s-5.17,1.49-5.4,4H533.1c.17-5.92,5-11.44,14.48-11.44C556.84,194.69,562.13,199.87,562.13,209.06Zm-9,4.83v-.46l-7.36,1.21c-3.85.63-4.83,2-4.83,3.62,0,1.44,1.38,2.48,4,2.48C549.89,220.74,553.16,218,553.16,213.89Z" fill="#1c2126"/><path d="M599.16,208h-9.43a6.19,6.19,0,0,0-6.44-5.69c-4.25,0-7.19,3.28-7.19,9.08s2.94,9,7.19,9a6.18,6.18,0,0,0,6.44-5.63h9.43c-.23,7.47-6.61,13.45-15.87,13.45-10.35,0-16.56-6.73-16.56-16.85s6.21-16.84,16.56-16.84C592.55,194.52,598.93,200.44,599.16,208Z" fill="#1c2126"/><path d="M623.83,227.41l-11.5-12.54v12.54h-9V181.7h9v25.76l11.09-12.08h10.41L619.46,211l14.83,16.39Z" fill="#1c2126"/><path d="M678.33,202.86h-7v24.55h-9V202.86h-6v-7.59h6V185.15h9v10.12h7Z" fill="#1c2126"/><path d="M713.87,211.36c0,9.61-6.15,16.85-16.91,16.85s-17-7.24-17-16.85,6.16-16.84,17-16.84S713.87,201.76,713.87,211.36Zm-24.49,0c0,5.29,2.93,8.69,7.58,8.69s7.54-3.4,7.54-8.69-2.88-8.68-7.54-8.68S689.38,206.08,689.38,211.36Z" fill="#1c2126"/><path d="M122,299.42v18.34h-9v-3.51c-2.24,2.59-5.74,4.08-10.46,4.08-6.73,0-10.92-3.39-10.92-9,0-5.06,3.33-8.92,11.73-10.35l9.65-1.61c0-3.11-1.95-4.89-5.57-4.89s-5.18,1.49-5.41,4H93c.17-5.93,5-11.45,14.49-11.45C116.75,285,122,290.22,122,299.42Zm-9,4.83v-.46L105.71,305c-3.85.63-4.82,1.95-4.82,3.62,0,1.44,1.38,2.47,4,2.47C109.8,311.09,113.07,308.33,113.07,304.25Z" fill="#1c2126"/><path d="M169.25,293.21h-7v24.55h-9V293.21h-6v-7.59h6V275.5h9v10.12h7Z" fill="#1c2126"/><path d="M184.26,276.54a5.38,5.38,0,1,1-10.75,0,5.38,5.38,0,1,1,10.75,0Zm-.87,8.33v32.89h-9V284.87a7.26,7.26,0,0,0,4.48,1.32A7.13,7.13,0,0,0,183.39,284.87Z" fill="#1c2126"/><path d="M239.45,299.59v18.17h-9V301.14c0-5.29-2.13-8.05-5.52-8.05s-5.52,3-5.52,8v16.67h-9V301.14c0-5.29-2.13-8.05-5.52-8.05s-5.52,3-5.52,8v16.67h-9V285.62h9v3.51a9.63,9.63,0,0,1,8.33-4.26,10.59,10.59,0,0,1,9.49,5.06,11.31,11.31,0,0,1,9.72-5.06C234.51,284.87,239.45,290.51,239.45,299.59Z" fill="#1c2126"/><path d="M277.12,304.36H253.37a6.91,6.91,0,0,0,7.3,6.5c3.16,0,5.29-1,6.27-2.87h9.54c-1.84,6-7.7,10.34-15.92,10.34-10.06,0-16.68-6.61-16.68-16.61S250.38,285,260.5,285s16.62,6.56,16.62,16.56Zm-23.63-6.15h14.14c-.63-3.62-3.45-5.69-7.13-5.69A7,7,0,0,0,253.49,298.21Z" fill="#1c2126"/><path d="M681.09,285.62l-17.82,42.72h-8.68l4.94-11.79L647,285.62h9l8.05,20,8.33-20Z" fill="#1c2126"/><path d="M715.76,301.72c0,9.6-6.15,16.84-16.9,16.84s-17-7.24-17-16.84,6.15-16.85,17-16.85S715.76,292.12,715.76,301.72Zm-24.49,0c0,5.29,2.93,8.68,7.59,8.68s7.53-3.39,7.53-8.68-2.87-8.68-7.53-8.68S691.27,296.43,691.27,301.72Z" fill="#1c2126"/><path d="M749.4,285.62v32.14h-9v-3.45a10.48,10.48,0,0,1-8.79,4.25c-7.08,0-11.68-5.29-11.68-14.77V285.62h9v16.5c0,4.89,2.25,7.65,5.7,7.65s5.8-2.93,5.8-7.59V285.62Z" fill="#1c2126"/><rect x="298.49" y="261.31" width="326.17" height="75.69" rx="9.29" fill="#1c2126" opacity="0.15"/><path d="M324.38,290.78a6,6,0,1,1,6,6.12A6,6,0,0,1,324.38,290.78Zm0,22.31a6,6,0,1,1,6,6.12A6.05,6.05,0,0,1,324.38,313.09Z" fill="#1c2126"/><path d="M361.45,290.78a6,6,0,1,1,6,6.12A6,6,0,0,1,361.45,290.78Zm0,22.31a6,6,0,1,1,6,6.12A6.05,6.05,0,0,1,361.45,313.09Z" fill="#1c2126"/><path d="M398.23,313.53h-.58v5.27h-6.94V274.35h7.05V292h.59c1.2-3.72,4.48-5.8,9.11-5.8,7.37,0,11.91,5.19,11.91,13.71v5.71c0,8.55-4.54,13.7-11.91,13.7C402.8,319.3,399.55,317.28,398.23,313.53Zm14.23-8.34v-5c0-5-2.87-8.2-7.44-8.2s-7.43,3.14-7.43,8.2v5c0,5,2.87,8.17,7.43,8.17S412.46,310.22,412.46,305.19Z" fill="#1c2126"/><path d="M455.65,310.11c-.76,5.5-6.2,9.34-13.38,9.34-9.13,0-14.4-5.24-14.4-14.38v-5c0-8.4,5.65-14,14.17-14s13.67,5.53,13.67,14.43v3.9H434.57V306c0,4.89,3,8,7.67,8,3.55,0,6.27-1.55,6.94-3.92Zm-21.08-10.25h14.52c0-5.21-2.69-8.38-7.17-8.38S434.57,294.62,434.57,299.86Z" fill="#1c2126"/><path d="M473.46,292.45h-8.58V287h8.58v-2.67c0-6.82,3.57-9.63,12-9.63,1.2,0,7.46.11,8.13.2V280c-.9-.09-6.82-.18-8-.18-3.57,0-5.42,1.41-5.42,4.13v3h13.41v5.5H480.25V318.8h-6.79Z" fill="#1c2126"/><path d="M501.28,305.22v-4.89c0-8.73,5.59-14.23,14.43-14.23s14.44,5.5,14.44,14.23v4.89c0,8.72-5.6,14.23-14.44,14.23S501.28,313.94,501.28,305.22Zm6.73-4.51v4.13c0,5.53,3,9,7.7,9s7.7-3.43,7.7-9v-4.13c0-5.54-2.95-9-7.7-9S508,295.17,508,300.71Z" fill="#1c2126"/><path d="M551.91,313.71h9.54v5.09H539.11v-5.09h6.24V291.84h-6.86v-5.1h13.44v8.2h1c1.32-6.18,4.89-9.05,11-9.05a13.64,13.64,0,0,1,4.6.67V294a16.31,16.31,0,0,0-5.3-.9c-7.41,0-11.3,4-11.3,11.44Z" fill="#1c2126"/><path d="M603.94,310.11c-.76,5.5-6.21,9.34-13.38,9.34-9.14,0-14.41-5.24-14.41-14.38v-5c0-8.4,5.65-14,14.17-14S604,291.63,604,300.53v3.9H582.86V306c0,4.89,3,8,7.67,8,3.54,0,6.26-1.55,6.94-3.92Zm-21.08-10.25h14.52c0-5.21-2.69-8.38-7.17-8.38S582.86,294.62,582.86,299.86Z" fill="#1c2126"/><path d="M1102.7,75.85a1.07,1.07,0,0,0,1.07-1.07V56.66a1.07,1.07,0,0,0-1.07-1.07h-253a1.07,1.07,0,0,0-1.07,1.07V74.78a1.07,1.07,0,0,0,1.07,1.07h14.12V432.23H849.69a1.07,1.07,0,0,0-1.07,1.07v18.12a1.07,1.07,0,0,0,1.07,1.07h253a1.07,1.07,0,0,0,1.07-1.07V433.3a1.07,1.07,0,0,0-1.07-1.07h-12.85V75.85ZM899.06,141c0,25.54,27.45,58.87,47.49,83.21,11,13.36,20.52,24.91,20.52,29.43s-9.51,16.06-20.52,29.43c-20,24.34-47.49,57.66-47.49,83.21,0,26.56,11,50.32,28.26,66H883.09V75.85h43.29C909.68,91.52,899.06,114.89,899.06,141Zm126,291.27c17.24-15.67,28.26-39.43,28.26-66,0-25.55-27.45-58.88-47.5-83.21-11-13.37-20.51-24.91-20.51-29.43s9.5-16.06,20.51-29.43c20.05-24.33,47.5-57.66,47.5-83.21,0-26.07-10.63-49.44-27.33-65.11h44.56V432.23Z" fill="#30c8c9" stroke="#bffde7" stroke-linejoin="round" stroke-width="17" opacity="0.4"/><rect x="864.88" y="56.66" width="17.15" height="379.71" fill="#ffb916" stroke="#1c2126" stroke-linejoin="round" stroke-width="2"/><rect x="1071.64" y="56.66" width="17.15" height="379.71" fill="#ffb916" stroke="#1c2126" stroke-linejoin="round" stroke-width="2"/><path d="M984.26,253.6c0-13.36,68-72.89,68-112.64,0-46.56-34.06-84.3-76.07-84.3S900.13,94.4,900.13,141c0,39.75,68,99.27,68,112.64s-68,72.89-68,112.64c0,46.55,34.06,84.3,76.07,84.3s76.07-37.75,76.07-84.3C1052.27,326.49,984.26,267,984.26,253.6Z" fill="#fff6d0" stroke="#1c2126" stroke-linejoin="round" stroke-width="2"/><path d="M979.79,345.7c1-27.3-.27-66.79-.27-85.54,0-27.76,10.45-31.54,40.25-68H932.84c30.13,36.88,40.47,45.6,40.47,68.27,0,18.6-.57,57.45.54,85.27-19.13,6.67-46.12,33.51-59,50.6,24.31,67.16,105.44,54.24,122.08,3.72h0a77.22,77.22,0,0,0,1.93-10.07C1022.07,372,997.49,348.75,979.79,345.7Z" fill="#ff6b60" stroke="#1c2126" stroke-linejoin="round" stroke-width="2"/><path d="M991.23,86a62.14,62.14,0,0,1,10.68,6.62l-1.83-1.41a65.36,65.36,0,0,1,11.47,11.5l-1.41-1.82a66.15,66.15,0,0,1,8.39,14.35l-.91-2.15a62.58,62.58,0,0,1,4.31,15.65l-.32-2.39c.09.73.18,1.47.25,2.2a9.69,9.69,0,0,0,2.64,6.37,9.14,9.14,0,0,0,6.36,2.63,9,9,0,0,0,6.36-2.63c1.53-1.66,2.87-4,2.64-6.37a73.4,73.4,0,0,0-8.52-28.06A71.28,71.28,0,0,0,1014,79.42a70.25,70.25,0,0,0-13.65-8.94,9.64,9.64,0,0,0-6.94-.91A9.19,9.19,0,0,0,988,73.71c-2.13,4-1.29,10.12,3.23,12.31Z" fill="#fff"/><rect x="849.69" y="56.66" width="253.01" height="18.12" fill="#ffb916" stroke="#1c2126" stroke-linejoin="round" stroke-width="2"/><rect x="849.69" y="433.3" width="253.01" height="18.12" fill="#ffb916" stroke="#1c2126" stroke-linejoin="round" stroke-width="2"/><path d="M953.22,382.4s8.55-8.83,17.39,0" fill="none" stroke="#1c2126" stroke-linecap="round" stroke-miterlimit="10" stroke-width="2"/><path d="M983.05,382.4s8.56-8.83,17.39,0" fill="none" stroke="#1c2126" stroke-linecap="round" stroke-miterlimit="10" stroke-width="2"/><path d="M958.3,392.73c.31,9.34,8.59,16.83,18.78,16.83s18.48-7.49,18.78-16.83Z" fill="#7a122d" stroke="#1c2126" stroke-linecap="round" stroke-linejoin="round" stroke-width="2"/><circle cx="873.45" cy="221.33" r="12.59" fill="#ffb916" stroke="#1c2126" stroke-linejoin="round" stroke-width="2"/><circle cx="873.45" cy="246.52" r="12.59" fill="#ffb916" stroke="#1c2126" stroke-linejoin="round" stroke-width="2"/><circle cx="873.45" cy="271.7" r="12.59" fill="#ffb916" stroke="#1c2126" stroke-linejoin="round" stroke-width="2"/><circle cx="1080.21" cy="221.33" r="12.59" fill="#ffb916" stroke="#1c2126" stroke-linejoin="round" stroke-width="2"/><circle cx="1080.21" cy="246.52" r="12.59" fill="#ffb916" stroke="#1c2126" stroke-linejoin="round" stroke-width="2"/><circle cx="1080.21" cy="271.7" r="12.59" fill="#ffb916" stroke="#1c2126" stroke-linejoin="round" stroke-width="2"/><path d="M831.3,320.12a8.28,8.28,0,0,0-3.44-1.13c-2.11-.31-4.41-.34-6.2.82s-2.79,3.48-3.18,5.68a18.13,18.13,0,0,0,0,6,14.79,14.79,0,0,0-7.93-2.36,9.2,9.2,0,0,0-7.31,3.67,6.74,6.74,0,0,0,.06,7.91c1.71,2.1,4.62,2.71,7.29,3.18q10,1.74,20.09,3.17,1.4-8.46,2.8-16.93C834,326.54,834.28,322.14,831.3,320.12Z" fill="#ff6b60" stroke="#1c2126" stroke-linejoin="round" stroke-width="2"/><path d="M1146,411.29a8.11,8.11,0,0,0,.38-3.6c-.14-2.13-.6-4.38-2.11-5.89s-4-2-6.23-1.9a18.29,18.29,0,0,0-5.84,1.22,14.82,14.82,0,0,0,.63-8.25,9.25,9.25,0,0,0-5.13-6.38,6.75,6.75,0,0,0-7.72,1.74c-1.69,2.12-1.68,5.09-1.57,7.8q.42,10.16,1.15,20.3l17.14-.84C1140.25,415.31,1144.61,414.63,1146,411.29Z" fill="#ff6b60" stroke="#1c2126" stroke-linejoin="round" stroke-width="2"/></svg>