<svg xmlns="http://www.w3.org/2000/svg" width="1200" height="630" viewBox="0 0 1200 630"><rect width="1200" height="498.72" fill="#db4648"/><rect x="686.73" y="476.25" width="84.47" height="84.47" rx="12.91" fill="#5cebdf" stroke="#1c2126" stroke-miterlimit="10" stroke-width="2"/><rect x="783.14" y="476.25" width="84.47" height="84.47" rx="12.91" fill="#5cebdf" stroke="#1c2126" stroke-miterlimit="10" stroke-width="2"/><rect x="975.95" y="476.25" width="84.47" height="84.47" rx="12.91" fill="#5cebdf" stroke="#1c2126" stroke-miterlimit="10" stroke-width="2"/><rect x="1072.35" y="476.25" width="84.47" height="84.47" rx="12.91" fill="#5cebdf" stroke="#1c2126" stroke-miterlimit="10" stroke-width="2"/><rect x="667.92" y="20.5" width="508.8" height="273.61" rx="17.43" fill="none" stroke="#ff6b60" stroke-linejoin="round" stroke-width="2"/><rect x="667.92" y="319.89" width="508.8" height="273.61" rx="17.43" fill="none" stroke="#ff6b60" stroke-linejoin="round" stroke-width="2"/><path d="M172.45,109.61v45.54H162.31V109.61Z" fill="#fff"/><path d="M202.63,129.53h-7.26v25.62H186V129.53h-6.3v-7.92H186V111.05h9.36v10.56h7.26Z" fill="#fff"/><path d="M216.79,114.29c0,4.86-2.46,8.46-8.1,10.26l-1.26.42L206,120.53l1.26-.36c2.64-.78,4-1.92,4.56-3.66a6.65,6.65,0,0,1-1.14.12,4.82,4.82,0,0,1-5.1-4.8c0-2.88,2.1-5,5.28-5C214.57,106.85,216.79,109.79,216.79,114.29Z" fill="#fff"/><path d="M245.23,132.17h-9.36c-.06-2.16-2-3.84-5.16-3.84S226,129.47,226,131s.72,2.34,4.5,3l4.5.72c8.64,1.44,10.92,5.34,10.92,10.44,0,6.54-5.22,10.68-14.7,10.68-10.2,0-15.3-4.86-15.3-11.58h9.3c.06,2.46,2,4.14,6.36,4.14,3.3,0,5-1.14,5-2.82s-1-2.7-4.86-3.36l-4.68-.78c-7.92-1.26-10.38-5.22-10.38-10,0-5.94,4.86-10.5,14.16-10.5S245.23,125.81,245.23,132.17Z" fill="#fff"/><path d="M305.11,141.17H280.33A7.21,7.21,0,0,0,288,148c3.3,0,5.52-1.08,6.54-3h10c-1.92,6.3-8,10.8-16.62,10.8-10.5,0-17.4-6.9-17.4-17.34s6.78-17.4,17.34-17.4,17.34,6.84,17.34,17.28Zm-24.66-6.42h14.76c-.66-3.78-3.6-5.94-7.44-5.94A7.36,7.36,0,0,0,280.45,134.75Z" fill="#fff"/><path d="M341.05,136v19.14h-9.36v-3.66c-2.34,2.7-6,4.26-10.92,4.26-7,0-11.4-3.54-11.4-9.36,0-5.28,3.48-9.3,12.24-10.8l10.08-1.68c0-3.24-2-5.1-5.82-5.1s-5.4,1.56-5.64,4.14h-9.48c.18-6.18,5.22-11.94,15.12-11.94C335.53,121,341.05,126.41,341.05,136Zm-9.36,5v-.48L324,141.83c-4,.66-5,2-5,3.78,0,1.5,1.44,2.58,4.14,2.58C328.27,148.19,331.69,145.31,331.69,141.05Z" fill="#fff"/><path d="M375.37,132.17H366c-.06-2.16-2-3.84-5.16-3.84s-4.68,1.14-4.68,2.7.72,2.34,4.5,3l4.5.72c8.64,1.44,10.92,5.34,10.92,10.44,0,6.54-5.22,10.68-14.7,10.68-10.2,0-15.3-4.86-15.3-11.58h9.3c.06,2.46,2,4.14,6.36,4.14,3.3,0,5-1.14,5-2.82s-1-2.7-4.86-3.36l-4.68-.78c-7.92-1.26-10.38-5.22-10.38-10,0-5.94,4.86-10.5,14.16-10.5S375.37,125.81,375.37,132.17Z" fill="#fff"/><path d="M413.83,121.61l-18.6,44.58h-9.06l5.16-12.3-13.08-32.28h9.42l8.4,20.88,8.7-20.88Z" fill="#fff"/><path d="M459.73,129.53h-7.26v25.62h-9.36V129.53h-6.3v-7.92h6.3V111.05h9.36v10.56h7.26Z" fill="#fff"/><path d="M496.81,138.41c0,10-6.42,17.58-17.64,17.58s-17.7-7.56-17.7-17.58,6.42-17.58,17.7-17.58S496.81,128.39,496.81,138.41Zm-25.56,0c0,5.52,3.06,9.06,7.92,9.06s7.86-3.54,7.86-9.06-3-9.06-7.86-9.06S471.25,132.89,471.25,138.41Z" fill="#fff"/><path d="M246.85,361.61,237,395.15h-9.42l-6.78-21.3L214,395.15h-9.18L195,361.61h9.12l6.3,21.36,6.6-21.36h8l6.54,21.24,6.3-21.24Z" fill="#fff"/><path d="M259.81,352.13a5.61,5.61,0,1,1-11.22,0,5.61,5.61,0,1,1,11.22,0Zm-.9,8.7v34.32h-9.36V360.83a7.62,7.62,0,0,0,4.68,1.38A7.49,7.49,0,0,0,258.91,360.83Z" fill="#fff"/><path d="M287.53,369.53h-7.26v25.62h-9.36V369.53h-6.3v-7.92h6.3V351.05h9.36v10.56h7.26Z" fill="#fff"/><path d="M325,376.19v19h-9.36V378c0-5.16-2.46-8-6.24-8s-6.42,3.12-6.42,8l-.06-.42v17.64h-9.36v-47.7h9.36v17.94a11.26,11.26,0,0,1,9.54-4.56C320.05,360.83,325,366.29,325,376.19Z" fill="#fff"/><path d="M385.63,361.61,367,406.19H358l5.16-12.3-13.08-32.28h9.42l8.4,20.88,8.7-20.88Z" fill="#fff"/><path d="M421.81,378.41c0,10-6.42,17.58-17.64,17.58s-17.7-7.56-17.7-17.58,6.42-17.58,17.7-17.58S421.81,368.39,421.81,378.41Zm-25.56,0c0,5.52,3.06,9.06,7.92,9.06s7.86-3.54,7.86-9.06-3-9.06-7.86-9.06S396.25,372.89,396.25,378.41Z" fill="#fff"/><path d="M456.91,361.61v33.54h-9.36v-3.6a11,11,0,0,1-9.18,4.44c-7.38,0-12.18-5.52-12.18-15.42v-19h9.36v17.22c0,5.1,2.34,8,5.94,8s6.06-3.06,6.06-7.92V361.61Z" fill="#fff"/><rect x="49.37" y="205.83" width="557.2" height="100.97" rx="11.52" fill="#1c2126" opacity="0.2"/><path d="M83.08,272.53c0-7.66,5.55-12.19,15.79-12.81l10.7-.63V255.5c0-4.42-2.85-6.92-7.85-6.92-4.18,0-7.23,1.8-8.17,4.93h-8.9c.78-7.39,7.69-12.27,17.3-12.27,10.59,0,16.6,5.2,16.6,14.34v29.14h-8.63v-6h-.82c-2.07,4.26-6.64,6.68-12.46,6.68C88.51,285.42,83.08,280.26,83.08,272.53Zm26.49-3.4v-3.9l-9.34.5c-5.35.32-8.12,2.46-8.12,6.25s2.89,6,7.46,6C105.35,278,109.57,274.29,109.57,269.13Z" fill="#fff"/><path d="M133.71,284.72v-7.27h14V232.69H134.18v-7.27H156.8v52h13.32v7.27Z" fill="#fff"/><path d="M183.16,284.72v-7.27h14.1V249.21H183.63v-7.27h22.5v35.51h13.44v7.27Zm11.64-58.48c0-3.67,2.74-6.21,6.61-6.21s6.64,2.54,6.64,6.21-2.74,6.21-6.64,6.21S194.8,229.91,194.8,226.24Z" fill="#fff"/><path d="M230.55,288.86h8.9c.78,3.08,4.57,5.08,9.65,5.08,6.68,0,10.31-3.21,10.31-9.18V277h-.78c-1.52,4.73-6.44,7.74-12.73,7.74-9.89,0-16-7-16-18.28v-7c0-11.36,6.21-18.28,16.37-18.28,6.21,0,11,3,12.54,7.74h.78v-7h8.94v42.74c0,10-7.38,16.13-19.53,16.13C238.36,300.81,231.33,296.24,230.55,288.86Zm18.71-12c6.13,0,10.07-4.26,10.07-10.94v-6c0-6.68-3.94-10.93-10.07-10.93s-10.12,4.25-10.12,10.93v6C239.14,272.57,243.08,276.83,249.26,276.83Z" fill="#fff"/><path d="M281.17,241.94H290v7.31h.62c2.19-5.24,6.92-8.17,13.21-8.17,9.29,0,14.33,5.55,14.33,15.9v27.74H309V259.21c0-6.88-2.81-10.16-8.67-10.16-6.09,0-10.08,4.26-10.08,10.75v24.92h-9.1Z" fill="#fff"/><path d="M328.44,263.78v-8.2h41.32v8.2Z" fill="#fff"/><path d="M398.59,241c9.81,0,16,4.53,16.6,12.22H406.6c-.62-3.2-3.71-5.19-8.12-5.19-4.57,0-7.58,2.11-7.58,5.31,0,2.73,2,4.3,6.6,5.31l6.37,1.37c8.55,1.84,12.34,5.47,12.34,11.88,0,8.32-6.84,13.67-17.58,13.67-10.47,0-17.11-4.65-17.73-12.39h9c.78,3.36,4,5.28,8.87,5.28s8.08-2.19,8.08-5.51c0-2.81-1.79-4.26-6.68-5.31l-6.4-1.41c-7.89-1.76-11.88-5.82-11.88-12.19C381.91,246.08,388.48,241,398.59,241Z" fill="#fff"/><path d="M466.8,273.12c-1,7.34-8.29,12.46-17.86,12.46-12.18,0-19.21-7-19.21-19.18v-6.68c0-11.21,7.53-18.64,18.9-18.64s18.24,7.39,18.24,19.26v5.2h-28.2v2.07c0,6.52,4,10.74,10.24,10.74,4.72,0,8.35-2.07,9.25-5.23Zm-28.13-13.68h19.38c0-6.95-3.6-11.17-9.57-11.17C442.34,248.27,438.67,252.45,438.67,259.44Z" fill="#fff"/><path d="M479.88,284.72v-7.27h14V232.69H480.35v-7.27H503v52h13.32v7.27Z" fill="#fff"/><path d="M540,249.56H528.55v-7.34H540v-3.56c0-9.1,4.76-12.85,15.94-12.85,1.6,0,10,.16,10.86.27v6.84c-1.22-.12-9.11-.23-10.67-.23-4.76,0-7.22,1.87-7.22,5.5v4H566.8v7.34H549.06v35.16H540Z" fill="#fff"/><rect x="686.73" y="41.81" width="84.47" height="84.47" rx="12.91" fill="#ffdd73" stroke="#1c2126" stroke-linejoin="round" stroke-width="2"/><rect x="783.14" y="41.81" width="84.47" height="84.47" rx="12.91" fill="#ffdd73" stroke="#1c2126" stroke-linejoin="round" stroke-width="2"/><rect x="879.54" y="194.85" width="84.47" height="84.47" rx="12.91" fill="#ffdd73" stroke="#1c2126" stroke-linejoin="round" stroke-width="2"/><rect x="879.54" y="334.94" width="84.47" height="84.47" rx="12.91" fill="#5cebdf" stroke="#1c2126" stroke-miterlimit="10" stroke-width="2"/><rect x="976.16" y="45.13" width="84.47" height="84.47" rx="12.91" fill="#ffdd73" stroke="#1c2126" stroke-linejoin="round" stroke-width="2"/><rect x="1072.35" y="41.81" width="84.47" height="84.47" rx="12.91" fill="#ffdd73" stroke="#1c2126" stroke-linejoin="round" stroke-width="2"/><path d="M902,227.37s7.16-7.39,14.55,0" fill="none" stroke="#1c2126" stroke-linecap="round" stroke-miterlimit="10" stroke-width="2"/><path d="M927,227.37s7.16-7.39,14.55,0" fill="none" stroke="#1c2126" stroke-linecap="round" stroke-miterlimit="10" stroke-width="2"/><path d="M906.28,236c.26,7.81,7.18,14.08,15.71,14.08s15.45-6.27,15.71-14.08Z" fill="#7a122d" stroke="#1c2126" stroke-linecap="round" stroke-linejoin="round" stroke-width="2"/><path d="M902,370.25s7.16-7.39,14.55,0" fill="none" stroke="#1c2126" stroke-linecap="round" stroke-miterlimit="10" stroke-width="2"/><path d="M927,370.25s7.16-7.39,14.55,0" fill="none" stroke="#1c2126" stroke-linecap="round" stroke-miterlimit="10" stroke-width="2"/><path d="M906.28,378.89c.26,7.82,7.18,14.08,15.71,14.08s15.45-6.26,15.71-14.08Z" fill="#7a122d" stroke="#1c2126" stroke-linecap="round" stroke-linejoin="round" stroke-width="2"/><path d="M1003.61,358.94a7.07,7.07,0,0,0-.18-3.13,7.78,7.78,0,0,0-2.63-4.74,7.2,7.2,0,0,0-5.6-.76,15.89,15.89,0,0,0-4.83,1.87,12.8,12.8,0,0,0-.62-7.15,8,8,0,0,0-5.28-4.74,5.87,5.87,0,0,0-6.36,2.57c-1.15,2.05-.72,4.59-.25,6.89q1.78,8.64,3.83,17.22l14.55-3.13C999.3,363.19,1002.93,362,1003.61,358.94Z" fill="#ff6b60" stroke="#1c2126" stroke-linejoin="round" stroke-width="2"/><path d="M864.62,171.83a8.28,8.28,0,0,0-3.44-1.13c-2.11-.31-4.41-.34-6.2.82s-2.79,3.49-3.17,5.69a18.34,18.34,0,0,0,0,6,14.69,14.69,0,0,0-7.92-2.35,9.22,9.22,0,0,0-7.32,3.66,6.75,6.75,0,0,0,.06,7.91c1.72,2.1,4.62,2.71,7.29,3.18q10,1.74,20.09,3.17,1.39-8.46,2.8-16.93C867.35,178.25,867.6,173.85,864.62,171.83Z" fill="#ff6b60" stroke="#1c2126" stroke-linejoin="round" stroke-width="2"/><rect y="595" width="1200" height="35" fill="#fff"/><rect y="499.19" width="1200" height="95.81" fill="#fff"/><line y1="499.19" x2="1200" y2="499.19" fill="none" stroke="#1c2126" stroke-miterlimit="10"/><line y1="595" x2="1200" y2="595" fill="none" stroke="#1c2126" stroke-miterlimit="10"/><path d="M24.24,559.45V540.69H17.85v-2.37H33.21v2.37H26.82v18.76Z" fill="#1c2126"/><path d="M44.08,559.89c-4.81,0-7.75-3.45-7.75-9.3v-3.41c0-5.85,2.94-9.3,7.75-9.3s7.74,3.45,7.74,9.3v3.41C51.82,556.44,48.88,559.89,44.08,559.89Zm5.14-9.31v-3.39c0-4.41-1.94-6.87-5.14-6.87s-5.15,2.46-5.15,6.87v3.39c0,4.41,1.94,6.87,5.15,6.87S49.22,555,49.22,550.58Z" fill="#1c2126"/><path d="M60,545.58a2.65,2.65,0,1,1,2.65,2.71A2.7,2.7,0,0,1,60,545.58Zm0,11.25a2.65,2.65,0,1,1,2.65,2.71A2.68,2.68,0,0,1,60,556.83Z" fill="#1c2126"/><line x1="582.03" y1="498.72" x2="582.03" y2="595" fill="none" stroke="#1c2126" stroke-miterlimit="10"/><path d="M1129.73,614.6a4.72,4.72,0,1,1-4.71-4.69A4.43,4.43,0,0,1,1129.73,614.6Zm-6.82,0A2.12,2.12,0,0,0,1125,617c1.3,0,2.1-.94,2.1-2.41s-.8-2.42-2.1-2.42S1122.91,613.12,1122.91,614.6Z" fill="#1c2126"/><path d="M1138.54,612.93H1136c0-.57-.52-1-1.37-1s-1.25.3-1.25.72.19.62,1.2.8l1.2.19c2.3.39,2.91,1.43,2.91,2.79,0,1.74-1.39,2.85-3.92,2.85-2.72,0-4.08-1.3-4.08-3.09h2.48c0,.65.53,1.1,1.7,1.1.88,0,1.33-.3,1.33-.75s-.26-.72-1.3-.9l-1.25-.21c-2.11-.33-2.77-1.39-2.77-2.67,0-1.58,1.3-2.8,3.78-2.8S1138.54,611.24,1138.54,612.93Z" fill="#1c2126"/><path d="M1147.49,612.93H1145c0-.57-.53-1-1.38-1s-1.25.3-1.25.72.2.62,1.2.8l1.21.19c2.3.39,2.91,1.43,2.91,2.79,0,1.74-1.39,2.85-3.92,2.85-2.72,0-4.09-1.3-4.09-3.09h2.49c0,.65.52,1.1,1.69,1.1.88,0,1.33-.3,1.33-.75s-.25-.72-1.3-.9l-1.24-.21c-2.12-.33-2.77-1.39-2.77-2.67,0-1.58,1.29-2.8,3.77-2.8S1147.49,611.24,1147.49,612.93Z" fill="#1c2126"/><path d="M1152,617.64a1.6,1.6,0,1,1-1.6-1.62A1.55,1.55,0,0,1,1152,617.64Z" fill="#1c2126"/><path d="M1156.27,606.34v12.72h-2.5V606.34Z" fill="#1c2126"/><path d="M1167,614.6a4.71,4.71,0,1,1-4.7-4.69A4.42,4.42,0,0,1,1167,614.6Zm-6.81,0a2.12,2.12,0,0,0,2.11,2.41c1.29,0,2.1-.94,2.1-2.41s-.81-2.42-2.1-2.42S1160.16,613.12,1160.16,614.6Z" fill="#1c2126"/><path d="M1176.59,610.12l-3.26,8.94h-3l-3.28-8.94h2.64l2.16,6.32,2.16-6.32Z" fill="#1c2126"/><path d="M1186.06,615.33h-6.61a1.92,1.92,0,0,0,2,1.81,1.82,1.82,0,0,0,1.75-.8h2.66a5,5,0,1,1,.17-1.77Zm-6.58-1.71h3.94a1.87,1.87,0,0,0-2-1.58A2,2,0,0,0,1179.48,613.62Z" fill="#1c2126"/><path d="M605.51,559.45V538.32H618v2.37H608.1v7.25h9v2.3h-9v9.21Z" fill="#1c2126"/><path d="M625.54,551v8.42H623V538.32h7.09c4.19,0,6.81,2.43,6.81,6.35A5.91,5.91,0,0,1,633,550.5l4.3,9h-2.91L630.41,551Zm0-2.18h4.19c2.92,0,4.56-1.48,4.56-4.12s-1.61-4.11-4.44-4.11h-4.31Z" fill="#1c2126"/><path d="M648.15,559.89c-4.81,0-7.75-3.45-7.75-9.3v-3.41c0-5.85,2.94-9.3,7.75-9.3s7.75,3.45,7.75,9.3v3.41C655.9,556.44,653,559.89,648.15,559.89Zm5.14-9.31v-3.39c0-4.41-1.93-6.87-5.14-6.87s-5.14,2.46-5.14,6.87v3.39c0,4.41,1.93,6.87,5.14,6.87S653.29,555,653.29,550.58Z" fill="#1c2126"/><path d="M661.38,559.45h-2.3V538.32H662l4.64,13.12h.19l4.62-13.12h2.9v21.13H672v-8.11l.13-8.56H672l-4.25,11.71h-2l-4.25-11.71h-.19l.14,8.56Z" fill="#1c2126"/><path d="M682.59,545.58a2.65,2.65,0,1,1,2.65,2.71A2.7,2.7,0,0,1,682.59,545.58Zm0,11.25a2.65,2.65,0,1,1,2.65,2.71A2.68,2.68,0,0,1,682.59,556.83Z" fill="#1c2126"/><path d="M27.75,606.92v12.14H25v-2.13l-4.7-5.41v7.54H17.63V606.92H20L25,612.77v-5.85Z" fill="#1c2126"/><path d="M38.37,615.33H31.76a1.92,1.92,0,0,0,2,1.81,1.81,1.81,0,0,0,1.74-.8H38.2a4.35,4.35,0,0,1-4.44,2.88,4.63,4.63,0,1,1,0-9.26,4.32,4.32,0,0,1,4.62,4.61Zm-6.58-1.71h3.94a1.87,1.87,0,0,0-2-1.58A2,2,0,0,0,31.79,613.62Z" fill="#1c2126"/><path d="M44.93,612.23H43v6.83H40.5v-6.83H38.82v-2.11H40.5V607.3H43v2.82h1.93Z" fill="#1c2126"/><path d="M48.9,606.34v12.72H46.4V606.34Z" fill="#1c2126"/><path d="M53.62,607.59a1.5,1.5,0,1,1-3,0,1.5,1.5,0,1,1,3,0Zm-.24,2.32v9.15h-2.5v-9.15a2.06,2.06,0,0,0,1.25.37A2,2,0,0,0,53.38,609.91Z" fill="#1c2126"/><path d="M58.55,609v1.09h1.87v2.11H58.55v6.83h-2.5v-6.83H54.61v-2.11h1.44V609a2.62,2.62,0,0,1,2.88-2.83h1.75v1.94H59.44A.78.78,0,0,0,58.55,609Z" fill="#1c2126"/><path d="M70.71,610.12l-5,11.89H63.33l1.38-3.28-3.49-8.61h2.51L66,615.69l2.32-5.57Z" fill="#1c2126"/><path d="M109.4,613c0,3.92-2.34,6.22-5.8,6.22s-5.79-2.3-5.79-6.22,2.33-6.25,5.79-6.25S109.4,609.08,109.4,613Zm-8.79,0c0,2.35,1.3,3.66,3,3.66s3-1.31,3-3.66-1.32-3.67-3-3.67S100.61,610.63,100.61,613Z" fill="#1c2126"/><path d="M120.32,610.53h-2.8c0-.89-.67-1.52-1.85-1.52s-1.7.55-1.7,1.23.38,1,1.49,1.3l1.37.32c2.64.59,3.73,1.73,3.73,3.73s-1.6,3.63-4.73,3.63-4.9-1.61-4.9-4h2.8a1.88,1.88,0,0,0,2.11,1.84c1.27,0,1.92-.63,1.92-1.44s-.38-1.09-1.57-1.35l-1.32-.27c-2.77-.56-3.72-1.87-3.72-3.73,0-2.06,1.6-3.54,4.58-3.54S120.32,608.29,120.32,610.53Z" fill="#1c2126"/><path d="M131.38,610.53h-2.8c0-.89-.67-1.52-1.86-1.52-1,0-1.69.55-1.69,1.23s.38,1,1.48,1.3l1.38.32c2.64.59,3.73,1.73,3.73,3.73s-1.6,3.63-4.74,3.63-4.9-1.61-4.9-4h2.81a1.88,1.88,0,0,0,2.11,1.84c1.26,0,1.92-.63,1.92-1.44s-.39-1.09-1.57-1.35l-1.33-.27c-2.77-.56-3.71-1.87-3.71-3.73,0-2.06,1.6-3.54,4.58-3.54S131.38,608.29,131.38,610.53Z" fill="#1c2126"/><path d="M91.16,610.11a3.62,3.62,0,0,0-1-1.22,3.91,3.91,0,0,0-2.49-1.14,3.62,3.62,0,0,0-2.51,1.37,8,8,0,0,0-1.41,2.21,6.53,6.53,0,0,0-2.39-2.73,4.09,4.09,0,0,0-3.58-.35,3,3,0,0,0-1.82,3,5,5,0,0,0,2,2.88q3.32,3,6.72,5.87l5-5.64C90.67,613.14,91.8,611.56,91.16,610.11Z" fill="#ff6b60" stroke="#ff6b60" stroke-linejoin="round"/></svg>