<svg xmlns="http://www.w3.org/2000/svg" width="1200" height="630" viewBox="0 0 1200 630"><rect width="1200" height="498.72" fill="#ff6b60"/><g opacity="0.4"><rect x="669.81" y="59.02" width="443.08" height="380.68" rx="16.75" fill="#5cebdf"/><path d="M1096.14,65a10.75,10.75,0,0,1,10.75,10.75V423a10.75,10.75,0,0,1-10.75,10.75H686.56A10.75,10.75,0,0,1,675.81,423V75.77A10.75,10.75,0,0,1,686.56,65h409.58m0-12H686.56a22.78,22.78,0,0,0-22.75,22.75V423a22.78,22.78,0,0,0,22.75,22.75h409.58A22.78,22.78,0,0,0,1118.89,423V75.77A22.78,22.78,0,0,0,1096.14,53Z" fill="#ffd3bf"/></g><rect x="675.81" y="65.02" width="431.08" height="368.68" rx="10.75" fill="#30c8c9" stroke="#1c2126" stroke-linejoin="round" stroke-width="2"/><rect x="693.25" y="111.1" width="396.13" height="304.65" rx="9.37" fill="#fff6d0" stroke="#1c2126" stroke-linejoin="round" stroke-width="2"/><rect y="595" width="1200" height="35" fill="#fff"/><rect y="499.19" width="1200" height="95.81" fill="#fff"/><line y1="499.19" x2="1200" y2="499.19" fill="none" stroke="#1c2126" stroke-miterlimit="10"/><line y1="595" x2="1200" y2="595" fill="none" stroke="#1c2126" stroke-miterlimit="10"/><path d="M24.24,559.45V540.69H17.85v-2.37H33.21v2.37H26.82v18.76Z" fill="#1c2126"/><path d="M44.08,559.89c-4.81,0-7.75-3.45-7.75-9.3v-3.41c0-5.85,2.94-9.3,7.75-9.3s7.74,3.45,7.74,9.3v3.41C51.82,556.44,48.88,559.89,44.08,559.89Zm5.14-9.31v-3.39c0-4.41-1.94-6.87-5.14-6.87s-5.15,2.46-5.15,6.87v3.39c0,4.41,1.94,6.87,5.15,6.87S49.22,555,49.22,550.58Z" fill="#1c2126"/><path d="M60,545.58a2.65,2.65,0,1,1,2.65,2.71A2.7,2.7,0,0,1,60,545.58Zm0,11.25a2.65,2.65,0,1,1,2.65,2.71A2.68,2.68,0,0,1,60,556.83Z" fill="#1c2126"/><line x1="582.03" y1="498.72" x2="582.03" y2="595" fill="none" stroke="#1c2126" stroke-miterlimit="10"/><path d="M1129.73,614.6a4.72,4.72,0,1,1-4.71-4.69A4.43,4.43,0,0,1,1129.73,614.6Zm-6.82,0A2.12,2.12,0,0,0,1125,617c1.3,0,2.1-.94,2.1-2.41s-.8-2.42-2.1-2.42S1122.91,613.12,1122.91,614.6Z" fill="#1c2126"/><path d="M1138.54,612.93H1136c0-.57-.52-1-1.37-1s-1.25.3-1.25.72.19.62,1.2.8l1.2.19c2.31.39,2.91,1.43,2.91,2.79,0,1.74-1.39,2.85-3.92,2.85-2.72,0-4.08-1.3-4.08-3.09h2.48c0,.65.53,1.1,1.7,1.1.88,0,1.33-.3,1.33-.75s-.26-.72-1.3-.9l-1.25-.21c-2.11-.33-2.77-1.39-2.77-2.67,0-1.58,1.3-2.8,3.78-2.8S1138.54,611.24,1138.54,612.93Z" fill="#1c2126"/><path d="M1147.49,612.93H1145c0-.57-.53-1-1.38-1s-1.25.3-1.25.72.2.62,1.2.8l1.21.19c2.3.39,2.91,1.43,2.91,2.79,0,1.74-1.39,2.85-3.92,2.85-2.72,0-4.08-1.3-4.08-3.09h2.48c0,.65.52,1.1,1.69,1.1.88,0,1.33-.3,1.33-.75s-.25-.72-1.3-.9l-1.24-.21c-2.12-.33-2.77-1.39-2.77-2.67,0-1.58,1.29-2.8,3.77-2.8S1147.49,611.24,1147.49,612.93Z" fill="#1c2126"/><path d="M1152,617.64a1.6,1.6,0,1,1-1.6-1.62A1.55,1.55,0,0,1,1152,617.64Z" fill="#1c2126"/><path d="M1156.27,606.34v12.72h-2.5V606.34Z" fill="#1c2126"/><path d="M1167,614.6a4.71,4.71,0,1,1-4.7-4.69A4.42,4.42,0,0,1,1167,614.6Zm-6.81,0a2.12,2.12,0,0,0,2.11,2.41c1.3,0,2.1-.94,2.1-2.41s-.8-2.42-2.1-2.42S1160.16,613.12,1160.16,614.6Z" fill="#1c2126"/><path d="M1176.59,610.12l-3.26,8.94h-3l-3.28-8.94h2.64l2.16,6.32,2.16-6.32Z" fill="#1c2126"/><path d="M1186.06,615.33h-6.61a1.92,1.92,0,0,0,2,1.81,1.82,1.82,0,0,0,1.75-.8h2.66a5,5,0,1,1,.17-1.77Zm-6.58-1.71h3.94a1.87,1.87,0,0,0-2-1.58A2,2,0,0,0,1179.48,613.62Z" fill="#1c2126"/><path d="M605.51,559.45V538.32H618v2.37H608.1v7.25h9v2.3h-9v9.21Z" fill="#1c2126"/><path d="M625.54,551v8.42H623V538.32h7.09c4.19,0,6.81,2.43,6.81,6.35A5.91,5.91,0,0,1,633,550.5l4.3,9h-2.91L630.41,551Zm0-2.18h4.19c2.92,0,4.56-1.48,4.56-4.12s-1.61-4.11-4.44-4.11h-4.31Z" fill="#1c2126"/><path d="M648.15,559.89c-4.81,0-7.75-3.45-7.75-9.3v-3.41c0-5.85,2.94-9.3,7.75-9.3s7.75,3.45,7.75,9.3v3.41C655.9,556.44,653,559.89,648.15,559.89Zm5.14-9.31v-3.39c0-4.41-1.93-6.87-5.14-6.87s-5.14,2.46-5.14,6.87v3.39c0,4.41,1.93,6.87,5.14,6.87S653.29,555,653.29,550.58Z" fill="#1c2126"/><path d="M661.38,559.45h-2.3V538.32H662l4.64,13.12h.19l4.62-13.12h2.9v21.13H672v-8.11l.13-8.56H672l-4.25,11.71h-2l-4.25-11.71h-.19l.14,8.56Z" fill="#1c2126"/><path d="M682.59,545.58a2.65,2.65,0,1,1,2.65,2.71A2.7,2.7,0,0,1,682.59,545.58Zm0,11.25a2.65,2.65,0,1,1,2.65,2.71A2.68,2.68,0,0,1,682.59,556.83Z" fill="#1c2126"/><path d="M27.75,606.92v12.14H25v-2.13l-4.7-5.41v7.54H17.63V606.92H20L25,612.77v-5.85Z" fill="#1c2126"/><path d="M38.37,615.33H31.76a1.92,1.92,0,0,0,2,1.81,1.81,1.81,0,0,0,1.74-.8H38.2a4.35,4.35,0,0,1-4.44,2.88,4.63,4.63,0,1,1,0-9.26,4.32,4.32,0,0,1,4.62,4.61Zm-6.58-1.71h3.94a1.87,1.87,0,0,0-2-1.58A2,2,0,0,0,31.79,613.62Z" fill="#1c2126"/><path d="M44.93,612.23H43v6.83H40.5v-6.83H38.82v-2.11H40.5V607.3H43v2.82h1.93Z" fill="#1c2126"/><path d="M48.9,606.34v12.72H46.4V606.34Z" fill="#1c2126"/><path d="M53.62,607.59a1.5,1.5,0,1,1-3,0,1.5,1.5,0,1,1,3,0Zm-.24,2.32v9.15h-2.5v-9.15a2.06,2.06,0,0,0,1.25.37A2,2,0,0,0,53.38,609.91Z" fill="#1c2126"/><path d="M58.55,609v1.09h1.87v2.11H58.55v6.83h-2.5v-6.83H54.61v-2.11h1.44V609a2.62,2.62,0,0,1,2.88-2.83h1.75v1.94H59.44A.78.78,0,0,0,58.55,609Z" fill="#1c2126"/><path d="M70.71,610.12l-5,11.89H63.33l1.38-3.28-3.49-8.61h2.51L66,615.69l2.32-5.57Z" fill="#1c2126"/><path d="M109.4,613c0,3.92-2.34,6.22-5.8,6.22s-5.79-2.3-5.79-6.22,2.33-6.25,5.79-6.25S109.4,609.08,109.4,613Zm-8.79,0c0,2.35,1.3,3.66,3,3.66s3-1.31,3-3.66-1.32-3.67-3-3.67S100.61,610.63,100.61,613Z" fill="#1c2126"/><path d="M120.32,610.53h-2.8c0-.89-.67-1.52-1.85-1.52s-1.7.55-1.7,1.23.38,1,1.49,1.3l1.37.32c2.64.59,3.73,1.73,3.73,3.73s-1.6,3.63-4.73,3.63-4.9-1.61-4.9-4h2.8a1.88,1.88,0,0,0,2.11,1.84c1.27,0,1.92-.63,1.92-1.44s-.38-1.09-1.57-1.35l-1.32-.27c-2.77-.56-3.72-1.87-3.72-3.73,0-2.06,1.6-3.54,4.58-3.54S120.32,608.29,120.32,610.53Z" fill="#1c2126"/><path d="M131.38,610.53h-2.8c0-.89-.67-1.52-1.86-1.52-1,0-1.69.55-1.69,1.23s.38,1,1.48,1.3l1.38.32c2.64.59,3.73,1.73,3.73,3.73s-1.6,3.63-4.74,3.63-4.9-1.61-4.9-4h2.81a1.88,1.88,0,0,0,2.11,1.84c1.26,0,1.92-.63,1.92-1.44s-.39-1.09-1.57-1.35l-1.33-.27c-2.77-.56-3.71-1.87-3.71-3.73,0-2.06,1.6-3.54,4.58-3.54S131.38,608.29,131.38,610.53Z" fill="#1c2126"/><path d="M91.16,610.11a3.62,3.62,0,0,0-1-1.22,3.91,3.91,0,0,0-2.49-1.14,3.62,3.62,0,0,0-2.51,1.37,8,8,0,0,0-1.41,2.21,6.53,6.53,0,0,0-2.39-2.73,4.09,4.09,0,0,0-3.58-.35,3,3,0,0,0-1.82,3,5,5,0,0,0,2,2.88q3.32,3,6.72,5.87l5-5.64C90.67,613.14,91.8,611.56,91.16,610.11Z" fill="#ff6b60" stroke="#ff6b60" stroke-linejoin="round"/><path d="M108.23,142.56v23.7H93V142.74L68.88,97.6H85.34l15.56,28.77L116.37,97.6h16Z" fill="#fff"/><path d="M176.88,141c0,15.11-9.68,26.5-26.59,26.5S123.6,156.13,123.6,141s9.68-26.5,26.69-26.5S176.88,125.92,176.88,141Zm-38.53,0c0,8.32,4.61,13.66,11.94,13.66s11.85-5.34,11.85-13.66-4.52-13.66-11.85-13.66S138.35,132.7,138.35,141Z" fill="#fff"/><path d="M229.79,115.69v50.57H215.68v-5.43c-2.8,4-7.68,6.69-13.84,6.69-11.12,0-18.36-8.32-18.36-23.24V115.69h14.11v26c0,7.69,3.53,12,9,12s9.13-4.61,9.13-11.93V115.69Z" fill="#fff"/><path d="M252,104.66c0,7.33-3.7,12.75-12.21,15.47l-1.9.63-2.17-6.69,1.9-.55c4-1.17,6.06-2.89,6.88-5.51a10.2,10.2,0,0,1-1.72.18c-4.71,0-7.69-3.35-7.69-7.24,0-4.34,3.16-7.51,8-7.51C248.7,93.44,252,97.88,252,104.66Z" fill="#fff"/><path d="M288.5,114.52v14.83h-5.7c-8.32,0-12.12,4-12.12,12.58v24.33H256.57V115.69h14.11v6.88C273.84,117.59,279.72,114.52,288.5,114.52Z" fill="#fff"/><path d="M343.58,145.18H306.22c.73,6.06,4.8,10.22,11.49,10.22,5,0,8.32-1.62,9.86-4.52h15c-2.9,9.5-12.13,16.28-25.06,16.28-15.83,0-26.23-10.4-26.23-26.14s10.22-26.23,26.14-26.23,26.14,10.31,26.14,26.05ZM306.4,135.5h22.26c-1-5.7-5.43-9-11.22-9A11.1,11.1,0,0,0,306.4,135.5Z" fill="#fff"/><path d="M106.24,236.17H95.29V274.8H81.18V236.17H71.69V224.23h9.49V208.31H95.29v15.92h10.95Z" fill="#fff"/><path d="M162.68,246.21V274.8H148.57V248.93c0-7.78-3.71-12.12-9.41-12.12s-9.68,4.7-9.68,12l-.09-.64v26.6H115.28V202.89h14.11v27c2.81-4.07,7.87-6.87,14.39-6.87C155.26,223.06,162.68,231.29,162.68,246.21Z" fill="#fff"/><path d="M222,253.72H184.66c.72,6.06,4.79,10.22,11.49,10.22,5,0,8.32-1.63,9.85-4.52h15c-2.89,9.5-12.12,16.28-25.06,16.28-15.83,0-26.23-10.4-26.23-26.14s10.22-26.23,26.14-26.23,26.15,10.31,26.15,26ZM184.84,244h22.25c-1-5.7-5.43-8.95-11.22-8.95A11.09,11.09,0,0,0,184.84,244Z" fill="#fff"/><path d="M308,245.94V274.8H293.92v-5.52c-3.53,4.07-9,6.42-16.46,6.42-10.59,0-17.19-5.34-17.19-14.11,0-8,5.25-14,18.45-16.28l15.2-2.53c0-4.89-3.08-7.69-8.77-7.69-5.52,0-8.15,2.35-8.51,6.24H262.35c.27-9.32,7.87-18,22.8-18C299.71,223.33,308,231.47,308,245.94Zm-14.11,7.6v-.72l-11.58,1.9c-6.06,1-7.6,3.07-7.6,5.7,0,2.26,2.18,3.88,6.25,3.88C288.76,264.3,293.92,260,293.92,253.54Z" fill="#fff"/><path d="M370.35,249.56c0,17.1-9.23,26.5-22.34,26.5-7.06,0-12.3-2.71-15.65-7.23V292H318.25V224.23h14.11v6c3.35-4.43,8.59-7.14,15.65-7.14C361.12,223.06,370.35,232.37,370.35,249.56Zm-14.74.27c0-8.77-4.89-14-11.67-14s-11.58,5.16-11.58,14c0,9,4.7,14.11,11.58,14.11S355.61,258.7,355.61,249.83Z" fill="#fff"/><path d="M429.6,249.56c0,17.1-9.23,26.5-22.35,26.5-7.05,0-12.3-2.71-15.65-7.23V292H377.49V224.23H391.6v6c3.35-4.43,8.6-7.14,15.65-7.14C420.37,223.06,429.6,232.37,429.6,249.56Zm-14.75.27c0-8.77-4.88-14-11.67-14s-11.58,5.16-11.58,14c0,9,4.71,14.11,11.58,14.11S414.85,258.7,414.85,249.83Z" fill="#fff"/><path d="M450.85,202.89V274.8H436.74V202.89Z" fill="#fff"/><path d="M510.37,253.72H473c.72,6.06,4.79,10.22,11.49,10.22,5,0,8.32-1.63,9.85-4.52h15c-2.89,9.5-12.12,16.28-25.06,16.28-15.83,0-26.23-10.4-26.23-26.14s10.22-26.23,26.14-26.23,26.15,10.31,26.15,26ZM473.19,244h22.25c-1-5.7-5.43-8.95-11.22-8.95A11.09,11.09,0,0,0,473.19,244Z" fill="#fff"/><path d="M547.45,236.17h-11V274.8H522.39V236.17h-9.5V224.23h9.5V208.31H536.5v15.92h11Z" fill="#fff"/><path d="M124.69,358.1c0,15.11-9.68,26.5-26.59,26.5s-26.69-11.39-26.69-26.5,9.68-26.5,26.69-26.5S124.69,343,124.69,358.1Zm-38.53,0c0,8.32,4.61,13.66,11.94,13.66S110,366.42,110,358.1s-4.53-13.66-11.85-13.66S86.16,349.78,86.16,358.1Z" fill="#fff"/><path d="M150.56,326.62v6.15h10.58v11.94H150.56v38.63H136.45V344.71h-8.14V332.77h8.14v-6.06c0-9.86,5.88-16,16.28-16h9.86v10.95h-7C152.19,321.65,150.56,323.37,150.56,326.62Z" fill="#fff"/><path d="M278.37,354.75v28.59H264.25V357.19c0-8.32-3.34-12.66-8.68-12.66-5.15,0-8.68,4.7-8.68,12.57v26.24H232.78V357.19c0-8.32-3.35-12.66-8.69-12.66-5.15,0-8.68,4.7-8.68,12.57v26.24H201.3V332.77h14.11v5.52a15.16,15.16,0,0,1,13.12-6.69c6.51,0,11.66,2.71,14.92,8a17.77,17.77,0,0,1,15.29-8C270.59,331.6,278.37,340.46,278.37,354.75Z" fill="#fff"/><path d="M335.07,332.77,307,400H293.37l7.78-18.54-19.72-48.67h14.21l12.66,31.48,13.12-31.48Z" fill="#fff"/><path d="M421.72,362.26H384.37c.72,6.06,4.79,10.22,11.48,10.22,5,0,8.33-1.63,9.86-4.52h15c-2.9,9.5-12.12,16.28-25.06,16.28-15.83,0-26.23-10.4-26.23-26.14s10.22-26.23,26.14-26.23,26.14,10.31,26.14,26.05Zm-37.17-9.68H406.8c-1-5.7-5.43-8.95-11.22-8.95A11.07,11.07,0,0,0,384.55,352.58Z" fill="#fff"/><path d="M476.45,332.77,448.4,400H434.75l7.77-18.54-19.71-48.67H437l12.66,31.48,13.12-31.48Z" fill="#fff"/><path d="M530,362.26H492.63c.73,6.06,4.8,10.22,11.49,10.22,5,0,8.32-1.63,9.86-4.52h15c-2.9,9.5-12.13,16.28-25.06,16.28-15.83,0-26.23-10.4-26.23-26.14s10.22-26.23,26.14-26.23S530,342.18,530,357.92Zm-37.18-9.68h22.26c-1-5.7-5.43-8.95-11.22-8.95A11.09,11.09,0,0,0,492.81,352.58Z" fill="#fff"/><rect x="1051.36" y="74.08" width="38.06" height="27.7" rx="4.61" fill="#db4648" stroke="#1c2126" stroke-linejoin="round" stroke-width="2"/><rect x="1003.45" y="74.08" width="38.06" height="27.7" rx="4.61" fill="#ff6b60" stroke="#1c2126" stroke-linejoin="round" stroke-width="2"/><rect x="706.77" y="370.73" width="290.76" height="27.7" fill="#bffde7" stroke="#1c2126" stroke-linejoin="round" stroke-width="2"/><rect x="1007.23" y="370.73" width="67.65" height="27.7" rx="5.07" fill="#30c8c9" stroke="#1c2126" stroke-linejoin="round" stroke-width="2"/><path d="M737.24,94.47H731.8l-.81,2.3h-2.9L733,83.84h3.14l4.9,12.93h-3Zm-.91-2.5-1.82-5.11L732.69,92Z"/><path d="M751.81,92c0,3.22-1.74,5-4.21,5a3.46,3.46,0,0,1-2.94-1.37V100H742V87.25h2.66v1.12A3.52,3.52,0,0,1,747.6,87C750.07,87,751.81,88.78,751.81,92Zm-2.77,0c0-1.65-.92-2.64-2.2-2.64s-2.18,1-2.18,2.64.88,2.66,2.18,2.66S749,93.74,749,92.07Z"/><path d="M763,92c0,3.22-1.73,5-4.2,5a3.47,3.47,0,0,1-3-1.37V100h-2.65V87.25h2.65v1.12a3.53,3.53,0,0,1,3-1.34C761.23,87,763,88.78,763,92Zm-2.77,0c0-1.65-.92-2.64-2.2-2.64s-2.18,1-2.18,2.64.89,2.66,2.18,2.66S760.19,93.74,760.19,92.07Z"/><path d="M767,83.23V96.77h-2.65V83.23Z"/><path d="M778.17,92.8h-7a2,2,0,0,0,2.16,1.93,1.93,1.93,0,0,0,1.86-.86H778a5.33,5.33,0,1,1,.19-1.89Zm-7-1.82h4.19a2,2,0,0,0-2.11-1.69A2.09,2.09,0,0,0,771.17,91Z"/><path d="M785.15,89.5h-2.06v7.27h-2.66V89.5h-1.78V87.25h1.78v-3h2.66v3h2.06Z"/><path d="M801.31,91.34v5.43h-2.66v-1a3.9,3.9,0,0,1-3.1,1.21c-2,0-3.23-1-3.23-2.66,0-1.5,1-2.64,3.47-3.06l2.86-.48c0-.92-.58-1.45-1.65-1.45s-1.53.45-1.6,1.18h-2.69c0-1.76,1.48-3.39,4.29-3.39S801.31,88.61,801.31,91.34Zm-2.66,1.43v-.14l-2.18.36c-1.14.19-1.43.58-1.43,1.07s.41.73,1.18.73C797.68,94.79,798.65,94,798.65,92.77Z"/><path d="M818.54,83.23V96.77h-2.66V95.64A3.45,3.45,0,0,1,812.94,97c-2.47,0-4.21-1.77-4.21-5s1.74-5,4.21-5a3.51,3.51,0,0,1,2.94,1.34V83.23ZM815.88,92c0-1.69-.88-2.64-2.18-2.64s-2.19,1-2.19,2.64.92,2.64,2.19,2.64S815.88,93.64,815.88,92Z"/><path d="M829.22,91.34v5.43h-2.66v-1a3.9,3.9,0,0,1-3.1,1.21c-2,0-3.23-1-3.23-2.66,0-1.5,1-2.64,3.47-3.06l2.86-.48c0-.92-.58-1.45-1.65-1.45s-1.53.45-1.6,1.18h-2.69c0-1.76,1.48-3.39,4.29-3.39S829.22,88.61,829.22,91.34Zm-2.66,1.43v-.14l-2.18.36c-1.14.19-1.43.58-1.43,1.07s.41.73,1.18.73C825.59,94.79,826.56,94,826.56,92.77Z"/><path d="M840,87.25,834.68,99.9h-2.57l1.47-3.49-3.72-9.16h2.68l2.38,5.93,2.47-5.93Z"/><path d="M1156.26,183.06a7.07,7.07,0,0,0-.18-3.13,7.78,7.78,0,0,0-2.63-4.74,7.16,7.16,0,0,0-5.6-.75,15.62,15.62,0,0,0-4.83,1.86,12.8,12.8,0,0,0-.62-7.15,8,8,0,0,0-5.28-4.73,5.85,5.85,0,0,0-6.36,2.56c-1.15,2.05-.72,4.59-.25,6.9q1.79,8.63,3.83,17.21l14.55-3.12C1152,187.31,1155.58,186.11,1156.26,183.06Z" fill="#ffdd73" stroke="#1c2126" stroke-linejoin="round" stroke-width="2"/><path d="M643,94.84a7,7,0,0,0-2.1-2.33,7.74,7.74,0,0,0-5-2.06,7.17,7.17,0,0,0-4.85,2.9,16,16,0,0,0-2.61,4.47,12.76,12.76,0,0,0-4.94-5.2,8,8,0,0,0-7.08-.41,5.85,5.85,0,0,0-3.38,6c.39,2.32,2.3,4,4.11,5.54q6.78,5.66,13.73,11.07l9.42-11.51C642.29,100.85,644.38,97.65,643,94.84Z" fill="#ffdd73" stroke="#1c2126" stroke-linejoin="round" stroke-width="2"/><path d="M638.45,133.46a7.94,7.94,0,0,0-3.38-1.27c-2.1-.4-4.39-.53-6.23.56s-2.93,3.36-3.41,5.54a18.1,18.1,0,0,0-.29,6,14.82,14.82,0,0,0-7.82-2.68,9.25,9.25,0,0,0-7.47,3.35,6.76,6.76,0,0,0-.27,7.91c1.63,2.17,4.51,2.9,7.16,3.48q9.93,2.16,19.93,4l3.51-16.8C640.92,140,641.35,135.6,638.45,133.46Z" fill="#ffdd73" stroke="#1c2126" stroke-linejoin="round" stroke-width="2"/><path d="M863.27,231.26s10.16-10.49,20.65,0" fill="none" stroke="#1c2126" stroke-linecap="round" stroke-miterlimit="10" stroke-width="2"/><path d="M898.7,231.26s10.16-10.49,20.65,0" fill="none" stroke="#1c2126" stroke-linecap="round" stroke-miterlimit="10" stroke-width="2"/><path d="M869.31,243.52c.36,11.1,10.19,20,22.3,20s21.94-8.89,22.31-20Z" fill="#7a122d" stroke="#1c2126" stroke-linecap="round" stroke-linejoin="round" stroke-width="2"/><circle cx="711.94" cy="90.44" r="9.76" fill="#db4648" stroke="#1c2126" stroke-linejoin="round" stroke-width="2"/><path d="M696.9,76.89s3,12.6,13.87,11.23C710.77,88.12,713.75,75.38,696.9,76.89Z" fill="#30c8c9" stroke="#1c2126" stroke-linejoin="round" stroke-width="2"/><line x1="714.17" y1="377.64" x2="714.17" y2="391.53" fill="#bffde7" stroke="#1c2126" stroke-linecap="round" stroke-linejoin="round" stroke-width="2"/></svg>