<?xml version="1.0" encoding="UTF-8"?><svg xmlns="http://www.w3.org/2000/svg" xmlns:xlink="http://www.w3.org/1999/xlink" viewBox="0 0 1200 630"><defs><clipPath id="e"><rect x="-1220" width="1200" height="498.72" fill="none"/></clipPath><clipPath id="f"><rect width="1200" height="498.72" fill="none"/></clipPath></defs><g id="b"><rect width="1200" height="498.72" fill="#db4648"/></g><g id="d"><g clip-path="url(#e)"><polygon points="-49.04 176.12 -15.52 156.76 18.01 176.12 -15.52 195.47 -49.04 176.12" fill="#ffdd73" stroke="#1c2126" stroke-linejoin="round" stroke-width="2"/><polygon points="18.01 176.12 18.01 214.83 -15.52 234.19 -15.52 195.47 18.01 176.12" fill="#b7790b" stroke="#1c2126" stroke-linejoin="round" stroke-width="2"/><polygon points="-49.04 60.09 -15.52 40.74 18.01 60.09 -15.52 79.45 -49.04 60.09" fill="#ffdd73" stroke="#1c2126" stroke-linejoin="round" stroke-width="2"/><polygon points="18.01 60.09 18.01 98.81 -15.52 118.16 -15.52 79.45 18.01 60.09" fill="#b7790b" stroke="#1c2126" stroke-linejoin="round" stroke-width="2"/><polygon points="18.01 -55.93 18.01 -17.21 -15.52 2.14 -15.52 -36.57 18.01 -55.93" fill="#b7790b" stroke="#1c2126" stroke-linejoin="round" stroke-width="2"/><polygon points="-49.04 291.91 -15.52 272.55 18.01 291.91 -15.52 311.26 -49.04 291.91" fill="#ffdd73" stroke="#1c2126" stroke-linejoin="round" stroke-width="2"/><polygon points="18.01 291.91 18.01 330.62 -15.52 349.98 -15.52 311.26 18.01 291.91" fill="#b7790b" stroke="#1c2126" stroke-linejoin="round" stroke-width="2"/><polygon points="-49.04 407.7 -15.52 388.34 18.01 407.7 -15.52 427.06 -49.04 407.7" fill="#ffdd73" stroke="#1c2126" stroke-linejoin="round" stroke-width="2"/><polygon points="18.01 407.7 18.01 446.41 -15.52 465.77 -15.52 427.06 18.01 407.7" fill="#b7790b" stroke="#1c2126" stroke-linejoin="round" stroke-width="2"/></g><g clip-path="url(#f)"><rect x="208.68" y="-168.46" width="200" height="200" transform="translate(138.82 198.22) rotate(-45)" fill="#ff6b60"/><polyline points="311.51 70.13 308.68 72.96 305.85 70.13" fill="none" stroke="#1c2126" stroke-linejoin="round" stroke-width="2"/><line x1="300.42" y1="64.7" x2="172.8" y2="-62.91" fill="none" stroke="#1c2126" stroke-dasharray="7.68 7.68" stroke-linejoin="round" stroke-width="2"/><line x1="441.84" y1="-60.2" x2="314.22" y2="67.42" fill="none" stroke="#1c2126" stroke-dasharray="7.68 7.68" stroke-linejoin="round" stroke-width="2"/><rect x="233.69" y="-143.45" width="149.98" height="149.98" transform="translate(42 -238.32) rotate(45)" fill="#ffd3bf" stroke="#1c2126" stroke-linejoin="round" stroke-width="2"/><rect x="367.34" y="-9.8" width="200" height="200" transform="translate(73.1 356.88) rotate(-45)" fill="#ff6b60"/><polyline points="470.17 228.79 467.34 231.62 464.51 228.79" fill="none" stroke="#1c2126" stroke-linejoin="round" stroke-width="2"/><line x1="459.08" y1="223.36" x2="331.46" y2="95.74" fill="none" stroke="#1c2126" stroke-dasharray="7.68 7.68" stroke-linejoin="round" stroke-width="2"/><polyline points="328.75 93.03 325.92 90.2 328.75 87.37" fill="none" stroke="#1c2126" stroke-linejoin="round" stroke-width="2"/><line x1="334.18" y1="81.94" x2="461.79" y2="-45.68" fill="none" stroke="#1c2126" stroke-dasharray="7.68 7.68" stroke-linejoin="round" stroke-width="2"/><line x1="475.6" y1="-42.96" x2="603.22" y2="84.66" fill="none" stroke="#1c2126" stroke-dasharray="7.68 7.68" stroke-linejoin="round" stroke-width="2"/><polyline points="605.93 87.37 608.76 90.2 605.93 93.03" fill="none" stroke="#1c2126" stroke-linejoin="round" stroke-width="2"/><line x1="600.5" y1="98.46" x2="472.88" y2="226.08" fill="none" stroke="#1c2126" stroke-dasharray="7.68 7.68" stroke-linejoin="round" stroke-width="2"/><rect x="392.35" y="15.21" width="149.98" height="149.98" transform="translate(200.66 -304.04) rotate(45)" fill="#ffd3bf" stroke="#1c2126" stroke-linejoin="round" stroke-width="2"/><rect x="421.8" y="44.66" width="91.07" height="91.07" transform="translate(200.66 -304.04) rotate(45)" fill="#bffde7" stroke="#1c2126" stroke-dasharray="8" stroke-linejoin="round" stroke-width="2"/><rect x="447.91" y="70.78" width="38.85" height="38.85" transform="translate(200.66 -304.04) rotate(45)" fill="#30c8c9" stroke="#1c2126" stroke-linejoin="round" stroke-width="2"/><rect x="524.06" y="-171.5" width="200" height="200" transform="translate(233.34 420.34) rotate(-45)" fill="#ff6b60"/><polyline points="626.89 67.1 624.06 69.92 621.23 67.1" fill="none" stroke="#1c2126" stroke-linejoin="round" stroke-width="2"/><line x1="615.8" y1="61.67" x2="488.18" y2="-65.95" fill="none" stroke="#1c2126" stroke-dasharray="7.68 7.68" stroke-linejoin="round" stroke-width="2"/><line x1="757.22" y1="-63.24" x2="629.6" y2="64.38" fill="none" stroke="#1c2126" stroke-dasharray="7.68 7.68" stroke-linejoin="round" stroke-width="2"/><rect x="549.07" y="-146.49" width="149.98" height="149.98" transform="translate(132.23 -462.22) rotate(45)" fill="#ffd3bf" stroke="#1c2126" stroke-linejoin="round" stroke-width="2"/><rect x="49.15" y="-8.93" width="200" height="200" transform="translate(-20.71 132.14) rotate(-45)" fill="#ff6b60"/><polyline points="151.98 229.66 149.15 232.49 146.32 229.66" fill="none" stroke="#1c2126" stroke-linejoin="round" stroke-width="2"/><line x1="140.89" y1="224.23" x2="13.27" y2="96.62" fill="none" stroke="#1c2126" stroke-dasharray="7.68 7.68" stroke-linejoin="round" stroke-width="2"/><polyline points="10.56 93.9 7.73 91.07 10.56 88.24" fill="none" stroke="#1c2126" stroke-linejoin="round" stroke-width="2"/><line x1="15.99" y1="82.81" x2="143.61" y2="-44.81" fill="none" stroke="#1c2126" stroke-dasharray="7.68 7.68" stroke-linejoin="round" stroke-width="2"/><line x1="157.41" y1="-42.09" x2="285.03" y2="85.53" fill="none" stroke="#1c2126" stroke-dasharray="7.68 7.68" stroke-linejoin="round" stroke-width="2"/><polyline points="287.74 88.24 290.57 91.07 287.74 93.9" fill="none" stroke="#1c2126" stroke-linejoin="round" stroke-width="2"/><line x1="282.31" y1="99.33" x2="154.69" y2="226.95" fill="none" stroke="#1c2126" stroke-dasharray="7.68 7.68" stroke-linejoin="round" stroke-width="2"/><rect x="74.16" y="16.08" width="149.98" height="149.98" transform="translate(108.08 -78.79) rotate(45)" fill="#ffd3bf" stroke="#1c2126" stroke-linejoin="round" stroke-width="2"/><rect x="103.61" y="45.54" width="91.07" height="91.07" transform="translate(108.08 -78.79) rotate(45)" fill="#bffde7" stroke="#1c2126" stroke-dasharray="8" stroke-linejoin="round" stroke-width="2"/><rect x="129.72" y="71.65" width="38.85" height="38.85" transform="translate(108.08 -78.79) rotate(45)" fill="#30c8c9" stroke="#1c2126" stroke-linejoin="round" stroke-width="2"/><polygon points="-11.25 73.33 -11.25 -209.52 130.17 -68.09 -11.25 73.33" fill="#ff6b60"/><line x1="121.91" y1="-59.84" x2="-5.71" y2="67.78" fill="none" stroke="#1c2126" stroke-dasharray="7.68 7.68" stroke-linejoin="round" stroke-width="2"/><polygon points="-11.25 37.96 -11.25 -174.15 94.8 -68.09 -11.25 37.96" fill="#ffd3bf" stroke="#1c2126" stroke-linejoin="round" stroke-width="2"/><rect x="207.81" y="149.73" width="200" height="200" transform="translate(-86.43 290.8) rotate(-45)" fill="#ff6b60"/><polyline points="310.64 388.32 307.81 391.15 304.98 388.32" fill="none" stroke="#1c2126" stroke-linejoin="round" stroke-width="2"/><line x1="299.55" y1="382.89" x2="171.93" y2="255.27" fill="none" stroke="#1c2126" stroke-dasharray="7.68 7.68" stroke-linejoin="round" stroke-width="2"/><polyline points="169.22 252.56 166.39 249.73 169.22 246.9" fill="none" stroke="#1c2126" stroke-linejoin="round" stroke-width="2"/><line x1="174.65" y1="241.47" x2="302.26" y2="113.85" fill="none" stroke="#1c2126" stroke-dasharray="7.68 7.68" stroke-linejoin="round" stroke-width="2"/><polyline points="304.98 111.14 307.81 108.31 310.64 111.14" fill="none" stroke="#1c2126" stroke-linejoin="round" stroke-width="2"/><line x1="316.07" y1="116.57" x2="443.69" y2="244.19" fill="none" stroke="#1c2126" stroke-dasharray="7.68 7.68" stroke-linejoin="round" stroke-width="2"/><polyline points="446.4 246.9 449.23 249.73 446.4 252.56" fill="none" stroke="#1c2126" stroke-linejoin="round" stroke-width="2"/><line x1="440.97" y1="257.99" x2="313.35" y2="385.61" fill="none" stroke="#1c2126" stroke-dasharray="7.68 7.68" stroke-linejoin="round" stroke-width="2"/><rect x="232.82" y="174.74" width="149.98" height="149.98" transform="translate(266.74 -144.51) rotate(45)" fill="#ffd3bf" stroke="#1c2126" stroke-linejoin="round" stroke-width="2"/><rect x="262.27" y="204.19" width="91.07" height="91.07" transform="translate(266.74 -144.51) rotate(45)" fill="#bffde7" stroke="#1c2126" stroke-dasharray="8" stroke-linejoin="round" stroke-width="2"/><rect x="288.38" y="230.31" width="38.85" height="38.85" transform="translate(266.74 -144.51) rotate(45)" fill="#30c8c9" stroke="#1c2126" stroke-linejoin="round" stroke-width="2"/><rect x="365.4" y="307.32" width="200" height="200" transform="translate(-151.71 448.39) rotate(-45)" fill="#ff6b60"/><polyline points="468.23 545.92 465.4 548.74 462.57 545.92" fill="none" stroke="#1c2126" stroke-linejoin="round" stroke-width="2"/><line x1="457.14" y1="540.48" x2="329.52" y2="412.87" fill="none" stroke="#1c2126" stroke-dasharray="7.68 7.68" stroke-linejoin="round" stroke-width="2"/><polyline points="326.81 410.15 323.98 407.32 326.81 404.49" fill="none" stroke="#1c2126" stroke-linejoin="round" stroke-width="2"/><line x1="332.24" y1="399.06" x2="459.86" y2="271.44" fill="none" stroke="#1c2126" stroke-dasharray="7.68 7.68" stroke-linejoin="round" stroke-width="2"/><polyline points="462.57 268.73 465.4 265.9 468.23 268.73" fill="none" stroke="#1c2126" stroke-linejoin="round" stroke-width="2"/><line x1="473.66" y1="274.16" x2="601.28" y2="401.78" fill="none" stroke="#1c2126" stroke-dasharray="7.68 7.68" stroke-linejoin="round" stroke-width="2"/><polyline points="603.99 404.49 606.82 407.32 603.99 410.15" fill="none" stroke="#1c2126" stroke-linejoin="round" stroke-width="2"/><line x1="598.56" y1="415.58" x2="470.94" y2="543.2" fill="none" stroke="#1c2126" stroke-dasharray="7.68 7.68" stroke-linejoin="round" stroke-width="2"/><rect x="390.41" y="332.33" width="149.98" height="149.98" transform="translate(424.33 -209.79) rotate(45)" fill="#ffd3bf" stroke="#1c2126" stroke-linejoin="round" stroke-width="2"/><rect x="419.86" y="361.79" width="91.07" height="91.07" transform="translate(424.33 -209.79) rotate(45)" fill="#bffde7" stroke="#1c2126" stroke-dasharray="8" stroke-linejoin="round" stroke-width="2"/><rect x="445.97" y="387.9" width="38.85" height="38.85" transform="translate(424.33 -209.79) rotate(45)" fill="#30c8c9" stroke="#1c2126" stroke-linejoin="round" stroke-width="2"/><rect x="524.06" y="465.98" width="200" height="200" transform="translate(-217.43 607.05) rotate(-45)" fill="#ff6b60"/><line x1="615.8" y1="699.14" x2="488.18" y2="571.53" fill="none" stroke="#1c2126" stroke-dasharray="7.68 7.68" stroke-linejoin="round" stroke-width="2"/><polyline points="485.47 568.81 482.64 565.98 485.47 563.15" fill="none" stroke="#1c2126" stroke-linejoin="round" stroke-width="2"/><line x1="490.9" y1="557.72" x2="618.52" y2="430.1" fill="none" stroke="#1c2126" stroke-dasharray="7.68 7.68" stroke-linejoin="round" stroke-width="2"/><polyline points="621.23 427.39 624.06 424.56 626.89 427.39" fill="none" stroke="#1c2126" stroke-linejoin="round" stroke-width="2"/><line x1="632.32" y1="432.82" x2="759.94" y2="560.44" fill="none" stroke="#1c2126" stroke-dasharray="7.68 7.68" stroke-linejoin="round" stroke-width="2"/><polyline points="762.65 563.15 765.48 565.98 762.65 568.81" fill="none" stroke="#1c2126" stroke-linejoin="round" stroke-width="2"/><line x1="757.22" y1="574.24" x2="629.6" y2="701.86" fill="none" stroke="#1c2126" stroke-dasharray="7.68 7.68" stroke-linejoin="round" stroke-width="2"/><rect x="549.07" y="490.99" width="149.98" height="149.98" transform="translate(582.99 -275.5) rotate(45)" fill="#ffd3bf" stroke="#1c2126" stroke-linejoin="round" stroke-width="2"/><rect x="578.52" y="520.45" width="91.07" height="91.07" transform="translate(582.99 -275.5) rotate(45)" fill="#bffde7" stroke="#1c2126" stroke-dasharray="8" stroke-linejoin="round" stroke-width="2"/><rect x="604.63" y="546.56" width="38.85" height="38.85" transform="translate(582.99 -275.5) rotate(45)" fill="#30c8c9" stroke="#1c2126" stroke-linejoin="round" stroke-width="2"/><polygon points="-10.38 392.02 -10.38 109.18 131.04 250.6 -10.38 392.02" fill="#ff6b60"/><line x1="-2.12" y1="117.44" x2="125.5" y2="245.06" fill="none" stroke="#1c2126" stroke-dasharray="7.68 7.68" stroke-linejoin="round" stroke-width="2"/><polyline points="128.21 247.77 131.04 250.6 128.21 253.43" fill="none" stroke="#1c2126" stroke-linejoin="round" stroke-width="2"/><line x1="122.78" y1="258.86" x2="-4.84" y2="386.48" fill="none" stroke="#1c2126" stroke-dasharray="7.68 7.68" stroke-linejoin="round" stroke-width="2"/><polygon points="-10.38 356.65 -10.38 144.55 95.67 250.6 -10.38 356.65" fill="#ffd3bf" stroke="#1c2126" stroke-linejoin="round" stroke-width="2"/><polygon points="-10.38 315 -10.38 186.2 54.02 250.6 -10.38 315" fill="#bffde7" stroke="#1c2126" stroke-dasharray="8" stroke-linejoin="round" stroke-width="2"/><polygon points="-10.38 278.07 -10.38 223.13 17.09 250.6 -10.38 278.07" fill="#30c8c9" stroke="#1c2126" stroke-linejoin="round" stroke-width="2"/><rect x="48.28" y="309.26" width="200" height="200" transform="translate(-245.96 224.72) rotate(-45)" fill="#ff6b60"/><polyline points="151.11 547.85 148.28 550.68 145.45 547.85" fill="none" stroke="#1c2126" stroke-linejoin="round" stroke-width="2"/><line x1="140.02" y1="542.42" x2="12.4" y2="414.8" fill="none" stroke="#1c2126" stroke-dasharray="7.68 7.68" stroke-linejoin="round" stroke-width="2"/><polyline points="9.69 412.09 6.86 409.26 9.69 406.43" fill="none" stroke="#1c2126" stroke-linejoin="round" stroke-width="2"/><line x1="15.12" y1="401" x2="142.73" y2="273.38" fill="none" stroke="#1c2126" stroke-dasharray="7.68 7.68" stroke-linejoin="round" stroke-width="2"/><polyline points="145.45 270.67 148.28 267.84 151.11 270.67" fill="none" stroke="#1c2126" stroke-linejoin="round" stroke-width="2"/><line x1="156.54" y1="276.1" x2="284.16" y2="403.72" fill="none" stroke="#1c2126" stroke-dasharray="7.68 7.68" stroke-linejoin="round" stroke-width="2"/><polyline points="286.87 406.43 289.7 409.26 286.87 412.09" fill="none" stroke="#1c2126" stroke-linejoin="round" stroke-width="2"/><line x1="281.44" y1="417.52" x2="153.82" y2="545.14" fill="none" stroke="#1c2126" stroke-dasharray="7.68 7.68" stroke-linejoin="round" stroke-width="2"/><rect x="73.29" y="334.27" width="149.98" height="149.98" transform="translate(332.82 15.02) rotate(45)" fill="#ffd3bf" stroke="#1c2126" stroke-linejoin="round" stroke-width="2"/><rect x="102.74" y="363.72" width="91.07" height="91.07" transform="translate(332.82 15.02) rotate(45)" fill="#bffde7" stroke="#1c2126" stroke-dasharray="8" stroke-linejoin="round" stroke-width="2"/><rect x="128.85" y="389.84" width="38.85" height="38.85" transform="translate(332.82 15.02) rotate(45)" fill="#30c8c9" stroke="#1c2126" stroke-linejoin="round" stroke-width="2"/><polygon points="-11.25 710.21 -11.25 427.37 130.17 568.79 -11.25 710.21" fill="#ff6b60"/><line x1="-2.99" y1="435.63" x2="124.63" y2="563.25" fill="none" stroke="#1c2126" stroke-dasharray="7.68 7.68" stroke-linejoin="round" stroke-width="2"/><polyline points="127.34 565.96 130.17 568.79 127.34 571.62" fill="none" stroke="#1c2126" stroke-linejoin="round" stroke-width="2"/><line x1="121.91" y1="577.05" x2="-5.71" y2="704.67" fill="none" stroke="#1c2126" stroke-dasharray="7.68 7.68" stroke-linejoin="round" stroke-width="2"/><polygon points="-11.25 674.84 -11.25 462.74 94.8 568.79 -11.25 674.84" fill="#ffd3bf" stroke="#1c2126" stroke-linejoin="round" stroke-width="2"/><polygon points="-11.25 633.19 -11.25 504.39 53.15 568.79 -11.25 633.19" fill="#bffde7" stroke="#1c2126" stroke-dasharray="8" stroke-linejoin="round" stroke-width="2"/><polygon points="-11.25 596.26 -11.25 541.32 16.22 568.79 -11.25 596.26" fill="#30c8c9" stroke="#1c2126" stroke-linejoin="round" stroke-width="2"/><rect x="205.87" y="466.85" width="200" height="200" transform="translate(-311.24 382.31) rotate(-45)" fill="#ff6b60"/><line x1="297.61" y1="700.01" x2="169.99" y2="572.4" fill="none" stroke="#1c2126" stroke-dasharray="7.68 7.68" stroke-linejoin="round" stroke-width="2"/><polyline points="167.28 569.68 164.45 566.85 167.28 564.02" fill="none" stroke="#1c2126" stroke-linejoin="round" stroke-width="2"/><line x1="172.71" y1="558.59" x2="300.33" y2="430.97" fill="none" stroke="#1c2126" stroke-dasharray="7.68 7.68" stroke-linejoin="round" stroke-width="2"/><polyline points="303.04 428.26 305.87 425.43 308.7 428.26" fill="none" stroke="#1c2126" stroke-linejoin="round" stroke-width="2"/><line x1="314.13" y1="433.69" x2="441.75" y2="561.31" fill="none" stroke="#1c2126" stroke-dasharray="7.68 7.68" stroke-linejoin="round" stroke-width="2"/><polyline points="444.46 564.02 447.29 566.85 444.46 569.68" fill="none" stroke="#1c2126" stroke-linejoin="round" stroke-width="2"/><line x1="439.03" y1="575.11" x2="311.41" y2="702.73" fill="none" stroke="#1c2126" stroke-dasharray="7.68 7.68" stroke-linejoin="round" stroke-width="2"/><rect x="230.88" y="491.86" width="149.98" height="149.98" transform="translate(490.41 -50.26) rotate(45)" fill="#ffd3bf" stroke="#1c2126" stroke-linejoin="round" stroke-width="2"/><rect x="260.33" y="521.32" width="91.07" height="91.07" transform="translate(490.41 -50.26) rotate(45)" fill="#bffde7" stroke="#1c2126" stroke-dasharray="8" stroke-linejoin="round" stroke-width="2"/><rect x="286.44" y="547.43" width="38.85" height="38.85" transform="translate(490.41 -50.26) rotate(45)" fill="#30c8c9" stroke="#1c2126" stroke-linejoin="round" stroke-width="2"/></g><path d="M680.16,163.35c-.4,0-.74-.14-1.02-.42-.28-.28-.42-.64-.42-1.08v-39c0-.44.14-.8.42-1.08s.62-.42,1.02-.42h6.9c.4,0,.74.14,1.02.42.28.28.42.64.42,1.08v39c0,.44-.14.8-.42,1.08s-.62.42-1.02.42h-6.9Z" fill="#fff"/><path d="M704.76,174.75c-.44,0-.8-.14-1.08-.42-.28-.28-.42-.64-.42-1.08v-4.14c0-.4.14-.74.42-1.02.28-.28.64-.42,1.08-.42h1.92c1.08,0,1.91-.21,2.49-.63s.97-.99,1.17-1.71.3-1.52.3-2.4v-29.28c0-.44.14-.8.42-1.08.28-.28.62-.42,1.02-.42h6.3c.44,0,.8.14,1.08.42.28.28.42.64.42,1.08v29.46c0,2.44-.47,4.53-1.41,6.27-.94,1.74-2.32,3.07-4.14,3.99-1.82.92-4.07,1.38-6.75,1.38h-2.82ZM711.9,127.35c-.4,0-.74-.14-1.02-.42-.28-.28-.42-.64-.42-1.08v-4.86c0-.4.14-.75.42-1.05.28-.3.62-.45,1.02-.45h6.66c.4,0,.75.15,1.05.45.3.3.45.65.45,1.05v4.86c0,.44-.15.8-.45,1.08-.3.28-.65.42-1.05.42h-6.66Z" fill="#fff"/><path d="M738.9,163.95c-2.32,0-4.37-.53-6.15-1.59-1.78-1.06-3.17-2.6-4.17-4.62-1-2.02-1.5-4.47-1.5-7.35v-16.74c0-.44.15-.8.45-1.08.3-.28.65-.42,1.05-.42h6.42c.4,0,.74.14,1.02.42.28.28.42.64.42,1.08v16.38c0,4.48,1.96,6.72,5.88,6.72,1.88,0,3.37-.59,4.47-1.77,1.1-1.18,1.65-2.83,1.65-4.95v-16.38c0-.44.14-.8.42-1.08.28-.28.64-.42,1.08-.42h6.36c.4,0,.74.14,1.02.42.28.28.42.64.42,1.08v28.2c0,.44-.14.8-.42,1.08s-.62.42-1.02.42h-5.94c-.4,0-.74-.14-1.02-.42-.28-.28-.42-.64-.42-1.08v-2.34c-1.04,1.44-2.38,2.54-4.02,3.3-1.64.76-3.64,1.14-6,1.14Z" fill="#fff"/><path d="M777.6,163.95c-2.48,0-4.61-.29-6.39-.87-1.78-.58-3.22-1.29-4.32-2.13-1.1-.84-1.92-1.69-2.46-2.55-.54-.86-.83-1.59-.87-2.19-.04-.44.1-.8.42-1.08.32-.28.64-.42.96-.42h5.82c.16,0,.29.02.39.06.1.04.23.14.39.3.52.36,1.05.77,1.59,1.23.54.46,1.19.85,1.95,1.17.76.32,1.68.48,2.76.48,1.32,0,2.43-.27,3.33-.81.9-.54,1.35-1.31,1.35-2.31,0-.72-.2-1.32-.6-1.8-.4-.48-1.18-.92-2.34-1.32-1.16-.4-2.88-.84-5.16-1.32-2.16-.48-4-1.12-5.52-1.92-1.52-.8-2.66-1.81-3.42-3.03-.76-1.22-1.14-2.69-1.14-4.41,0-1.56.49-3.06,1.47-4.5.98-1.44,2.43-2.63,4.35-3.57,1.92-.94,4.32-1.41,7.2-1.41,2.2,0,4.13.27,5.79.81,1.66.54,3.05,1.22,4.17,2.04,1.12.82,1.97,1.66,2.55,2.52.58.86.89,1.61.93,2.25.04.44-.08.8-.36,1.08s-.6.42-.96.42h-5.34c-.2,0-.38-.04-.54-.12-.16-.08-.3-.18-.42-.3-.48-.28-.97-.64-1.47-1.08-.5-.44-1.09-.82-1.77-1.14-.68-.32-1.56-.48-2.64-.48-1.28,0-2.27.29-2.97.87-.7.58-1.05,1.31-1.05,2.19,0,.56.18,1.08.54,1.56.36.48,1.09.92,2.19,1.32,1.1.4,2.81.82,5.13,1.26,2.72.48,4.88,1.2,6.48,2.16s2.74,2.07,3.42,3.33c.68,1.26,1.02,2.61,1.02,4.05,0,1.88-.55,3.55-1.65,5.01-1.1,1.46-2.73,2.6-4.89,3.42s-4.8,1.23-7.92,1.23Z" fill="#fff"/><path d="M812.76,163.35c-2.48,0-4.59-.41-6.33-1.23-1.74-.82-3.07-2.09-3.99-3.81-.92-1.72-1.38-3.88-1.38-6.48v-12.6h-4.68c-.44,0-.8-.14-1.08-.42-.28-.28-.42-.62-.42-1.02v-4.14c0-.44.14-.8.42-1.08.28-.28.64-.42,1.08-.42h4.68v-9.9c0-.44.15-.8.45-1.08.3-.28.65-.42,1.05-.42h5.94c.4,0,.74.14,1.02.42.28.28.42.64.42,1.08v9.9h7.5c.44,0,.8.14,1.08.42.28.28.42.64.42,1.08v4.14c0,.4-.14.74-.42,1.02s-.64.42-1.08.42h-7.5v11.88c0,1.52.28,2.71.84,3.57.56.86,1.5,1.29,2.82,1.29h4.38c.44,0,.8.14,1.08.42.28.28.42.62.42,1.02v4.44c0,.44-.14.8-.42,1.08s-.64.42-1.08.42h-5.22Z" fill="#fff"/><path d="M851.82,163.95c-2.96,0-5.55-.54-7.77-1.62-2.22-1.08-3.97-2.65-5.25-4.71-1.28-2.06-1.98-4.53-2.1-7.41-.04-.64-.06-1.45-.06-2.43s.02-1.79.06-2.43c.12-2.92.81-5.41,2.07-7.47,1.26-2.06,3.01-3.63,5.25-4.71,2.24-1.08,4.84-1.62,7.8-1.62,2.64,0,4.9.37,6.78,1.11,1.88.74,3.42,1.68,4.62,2.82,1.2,1.14,2.1,2.31,2.7,3.51.6,1.2.92,2.26.96,3.18.04.44-.1.8-.42,1.08-.32.28-.68.42-1.08.42h-6.42c-.44,0-.77-.1-.99-.3-.22-.2-.43-.52-.63-.96-.52-1.4-1.22-2.4-2.1-3-.88-.6-1.98-.9-3.3-.9-1.8,0-3.21.58-4.23,1.74-1.02,1.16-1.57,2.96-1.65,5.4-.08,1.56-.08,2.98,0,4.26.08,2.48.63,4.28,1.65,5.4,1.02,1.12,2.43,1.68,4.23,1.68,1.4,0,2.52-.3,3.36-.9.84-.6,1.52-1.6,2.04-3,.2-.44.41-.76.63-.96.22-.2.55-.3.99-.3h6.42c.4,0,.76.14,1.08.42.32.28.46.64.42,1.08-.04.68-.24,1.48-.6,2.4-.36.92-.91,1.86-1.65,2.82s-1.69,1.85-2.85,2.67c-1.16.82-2.57,1.48-4.23,1.98-1.66.5-3.57.75-5.73.75Z" fill="#fff"/><path d="M886.97,163.95c-3.32,0-6.1-.55-8.34-1.65-2.24-1.1-3.95-2.67-5.13-4.71-1.18-2.04-1.83-4.42-1.95-7.14-.04-.8-.06-1.71-.06-2.73s.02-1.91.06-2.67c.12-2.76.8-5.15,2.04-7.17,1.24-2.02,2.98-3.58,5.22-4.68,2.24-1.1,4.96-1.65,8.16-1.65s5.86.55,8.1,1.65c2.24,1.1,3.98,2.66,5.22,4.68,1.24,2.02,1.94,4.41,2.1,7.17.04.76.06,1.65.06,2.67s-.02,1.93-.06,2.73c-.16,2.72-.83,5.1-2.01,7.14-1.18,2.04-2.89,3.61-5.13,4.71-2.24,1.1-5,1.65-8.28,1.65ZM886.97,157.29c1.96,0,3.43-.6,4.41-1.8.98-1.2,1.53-2.98,1.65-5.34.04-.6.06-1.4.06-2.4s-.02-1.8-.06-2.4c-.12-2.32-.67-4.09-1.65-5.31-.98-1.22-2.45-1.83-4.41-1.83s-3.44.61-4.44,1.83c-1,1.22-1.56,2.99-1.68,5.31-.04.6-.06,1.4-.06,2.4s.02,1.8.06,2.4c.12,2.36.68,4.14,1.68,5.34,1,1.2,2.48,1.8,4.44,1.8Z" fill="#fff"/><path d="M920.21,163.95c-2.32,0-4.37-.53-6.15-1.59-1.78-1.06-3.17-2.6-4.17-4.62-1-2.02-1.5-4.47-1.5-7.35v-16.74c0-.44.15-.8.45-1.08.3-.28.65-.42,1.05-.42h6.42c.4,0,.74.14,1.02.42.28.28.42.64.42,1.08v16.38c0,4.48,1.96,6.72,5.88,6.72,1.88,0,3.37-.59,4.47-1.77,1.1-1.18,1.65-2.83,1.65-4.95v-16.38c0-.44.14-.8.42-1.08.28-.28.64-.42,1.08-.42h6.36c.4,0,.74.14,1.02.42.28.28.42.64.42,1.08v28.2c0,.44-.14.8-.42,1.08s-.62.42-1.02.42h-5.94c-.4,0-.74-.14-1.02-.42-.28-.28-.42-.64-.42-1.08v-2.34c-1.04,1.44-2.38,2.54-4.02,3.3-1.64.76-3.64,1.14-6,1.14Z" fill="#fff"/><path d="M948.12,163.35c-.44,0-.8-.14-1.08-.42-.28-.28-.42-.64-.42-1.08v-39.6c0-.44.14-.8.42-1.08s.64-.42,1.08-.42h6c.44,0,.8.14,1.08.42.28.28.42.64.42,1.08v39.6c0,.44-.14.8-.42,1.08s-.64.42-1.08.42h-6Z" fill="#fff"/><path d="M974.75,163.95c-2,0-3.78-.33-5.34-.99-1.56-.66-2.88-1.62-3.96-2.88-1.08-1.26-1.9-2.76-2.46-4.5-.56-1.74-.9-3.67-1.02-5.79-.04-.76-.06-1.45-.06-2.07s.02-1.29.06-2.01c.08-2.08.41-3.98.99-5.7.58-1.72,1.4-3.21,2.46-4.47,1.06-1.26,2.38-2.24,3.96-2.94,1.58-.7,3.37-1.05,5.37-1.05s3.86.35,5.34,1.05c1.48.7,2.7,1.59,3.66,2.67v-13.02c0-.44.14-.8.42-1.08s.64-.42,1.08-.42h6.18c.44,0,.8.14,1.08.42.28.28.42.64.42,1.08v39.6c0,.44-.14.8-.42,1.08s-.64.42-1.08.42h-5.76c-.4,0-.74-.14-1.02-.42-.28-.28-.42-.64-.42-1.08v-2.04c-1,1.2-2.26,2.19-3.78,2.97-1.52.78-3.42,1.17-5.7,1.17ZM977.51,156.75c1.48,0,2.67-.34,3.57-1.02.9-.68,1.56-1.54,1.98-2.58.42-1.04.65-2.16.69-3.36.08-.76.12-1.52.12-2.28s-.04-1.5-.12-2.22c-.04-1.12-.29-2.17-.75-3.15-.46-.98-1.13-1.79-2.01-2.43-.88-.64-2.04-.96-3.48-.96-1.52,0-2.72.33-3.6.99-.88.66-1.51,1.53-1.89,2.61-.38,1.08-.61,2.26-.69,3.54-.08,1.24-.08,2.48,0,3.72.08,1.28.31,2.46.69,3.54.38,1.08,1.01,1.95,1.89,2.61.88.66,2.08.99,3.6.99Z" fill="#fff"/><path d="M1001.93,163.35c-.4,0-.75-.14-1.05-.42-.3-.28-.45-.64-.45-1.08v-28.2c0-.44.15-.8.45-1.08.3-.28.65-.42,1.05-.42h5.88c.44,0,.8.14,1.08.42.28.28.42.64.42,1.08v2.34c1.04-1.28,2.39-2.34,4.05-3.18,1.66-.84,3.65-1.26,5.97-1.26s4.44.53,6.24,1.59c1.8,1.06,3.2,2.6,4.2,4.62,1,2.02,1.5,4.47,1.5,7.35v16.74c0,.44-.14.8-.42,1.08s-.64.42-1.08.42h-6.36c-.44,0-.8-.14-1.08-.42-.28-.28-.42-.64-.42-1.08v-16.38c0-2.12-.51-3.77-1.53-4.95-1.02-1.18-2.51-1.77-4.47-1.77s-3.37.59-4.47,1.77c-1.1,1.18-1.65,2.83-1.65,4.95v16.38c0,.44-.14.8-.42,1.08s-.64.42-1.08.42h-6.36Z" fill="#fff"/><path d="M1037.15,135.03c-.36,0-.65-.12-.87-.36-.22-.24-.31-.58-.27-1.02l1.74-10.92c.08-.52.28-.98.6-1.38.32-.4.8-.6,1.44-.6h6.24c.32,0,.59.12.81.36.22.24.33.5.33.78s-.06.52-.18.72l-4.14,10.8c-.16.4-.39.77-.69,1.11-.3.34-.77.51-1.41.51h-3.6Z" fill="#fff"/><path d="M1067.39,163.35c-2.48,0-4.59-.41-6.33-1.23-1.74-.82-3.07-2.09-3.99-3.81-.92-1.72-1.38-3.88-1.38-6.48v-12.6h-4.68c-.44,0-.8-.14-1.08-.42-.28-.28-.42-.62-.42-1.02v-4.14c0-.44.14-.8.42-1.08.28-.28.64-.42,1.08-.42h4.68v-9.9c0-.44.15-.8.45-1.08.3-.28.65-.42,1.05-.42h5.94c.4,0,.74.14,1.02.42.28.28.42.64.42,1.08v9.9h7.5c.44,0,.8.14,1.08.42.28.28.42.64.42,1.08v4.14c0,.4-.14.74-.42,1.02s-.64.42-1.08.42h-7.5v11.88c0,1.52.28,2.71.84,3.57.56.86,1.5,1.29,2.82,1.29h4.38c.44,0,.8.14,1.08.42.28.28.42.62.42,1.02v4.44c0,.44-.14.8-.42,1.08s-.64.42-1.08.42h-5.22Z" fill="#fff"/><rect x="573.89" y="207.52" width="593.68" height="100.97" rx="11.89" ry="11.89" fill="#1c2126" opacity=".2"/><path d="M618.35,260.98v.74l25.66,12.93v10.2l-35.27-19.53v-7.93l35.27-19.53v10.2l-25.66,12.93Z" fill="#fff"/><path d="M684.21,279.38c-1.8,5-6.13,7.7-12.34,7.7-9.8,0-15.9-6.88-15.9-18.28v-7.62c0-11.37,6.09-18.28,15.9-18.28,6.17,0,10.59,2.77,12.19,7.73h.78v-23.52h9.38v59.3h-9.22v-7.03h-.78ZM665.22,268.24c0,6.72,3.79,10.9,9.92,10.9s9.88-4.18,9.88-10.9v-6.68c0-6.76-3.79-10.94-9.88-10.94s-9.92,4.22-9.92,10.94v6.68Z" fill="#fff"/><path d="M707.68,286.41v-7.27h14.1v-28.24h-13.63v-7.27h22.5v35.51h13.44v7.27h-36.41ZM719.32,227.93c0-3.67,2.73-6.21,6.6-6.21s6.64,2.54,6.64,6.21-2.73,6.21-6.64,6.21-6.6-2.54-6.6-6.21Z" fill="#fff"/><path d="M764.17,243.63l10.35,33.75h.62l10.23-33.75h9.65l-15.16,42.77h-10.23l-15.23-42.77h9.77Z" fill="#fff"/><path d="M806.55,248.05v-10.2l35.27,19.53v7.93l-35.27,19.53v-10.2l25.66-12.93v-.74l-25.66-12.93Z" fill="#fff"/><path d="M865.61,260.98v.74l25.66,12.93v10.2l-35.27-19.53v-7.93l35.27-19.53v10.2l-25.66,12.93Z" fill="#fff"/><path d="M905.03,293.67l26.88-70.9h9.22l-27.07,70.9h-9.02Z" fill="#fff"/><path d="M980.92,279.38c-1.8,5-6.13,7.7-12.34,7.7-9.8,0-15.9-6.88-15.9-18.28v-7.62c0-11.37,6.09-18.28,15.9-18.28,6.17,0,10.59,2.77,12.19,7.73h.78v-23.52h9.38v59.3h-9.22v-7.03h-.78ZM961.94,268.24c0,6.72,3.79,10.9,9.92,10.9s9.88-4.18,9.88-10.9v-6.68c0-6.76-3.79-10.94-9.88-10.94s-9.92,4.22-9.92,10.94v6.68Z" fill="#fff"/><path d="M1004.4,286.41v-7.27h14.1v-28.24h-13.63v-7.27h22.5v35.51h13.44v7.27h-36.41ZM1016.04,227.93c0-3.67,2.73-6.21,6.6-6.21s6.64,2.54,6.64,6.21-2.73,6.21-6.64,6.21-6.6-2.54-6.6-6.21Z" fill="#fff"/><path d="M1060.88,243.63l10.35,33.75h.62l10.23-33.75h9.65l-15.16,42.77h-10.23l-15.23-42.77h9.77Z" fill="#fff"/><path d="M1103.27,248.05v-10.2l35.27,19.53v7.93l-35.27,19.53v-10.2l25.66-12.93v-.74l-25.66-12.93Z" fill="#fff"/><path d="M711.33,388.39c-.56,0-.99-.14-1.29-.42-.3-.28-.53-.64-.69-1.08l-8.58-27.78c-.08-.2-.12-.4-.12-.6,0-.36.13-.67.39-.93.26-.26.57-.39.93-.39h5.34c.48,0,.86.14,1.14.42.28.28.46.54.54.78l5.46,18.48,5.82-18.36c.08-.28.27-.57.57-.87s.73-.45,1.29-.45h3.42c.56,0,.99.15,1.29.45s.49.59.57.87l5.82,18.36,5.46-18.48c.04-.24.2-.5.48-.78s.68-.42,1.2-.42h5.34c.36,0,.67.13.93.39.26.26.39.57.39.93,0,.2-.04.4-.12.6l-8.58,27.78c-.16.44-.38.8-.66,1.08s-.72.42-1.32.42h-4.62c-.56,0-1-.14-1.32-.42-.32-.28-.56-.64-.72-1.08l-5.82-17.7-5.88,17.7c-.16.44-.39.8-.69,1.08-.3.28-.75.42-1.35.42h-4.62Z" fill="#fff"/><path d="M753.75,352.39c-.4,0-.74-.14-1.02-.42-.28-.28-.42-.64-.42-1.08v-4.86c0-.4.14-.75.42-1.05s.62-.45,1.02-.45h6.36c.4,0,.75.15,1.05.45s.45.65.45,1.05v4.86c0,.44-.15.8-.45,1.08-.3.28-.65.42-1.05.42h-6.36ZM753.92,388.39c-.4,0-.75-.14-1.05-.42-.3-.28-.45-.64-.45-1.08v-28.2c0-.44.15-.8.45-1.08.3-.28.65-.42,1.05-.42h6.06c.4,0,.74.14,1.02.42.28.28.42.64.42,1.08v28.2c0,.44-.14.8-.42,1.08s-.62.42-1.02.42h-6.06Z" fill="#fff"/><path d="M783.99,388.39c-2.48,0-4.59-.41-6.33-1.23-1.74-.82-3.07-2.09-3.99-3.81-.92-1.72-1.38-3.88-1.38-6.48v-12.6h-4.68c-.44,0-.8-.14-1.08-.42-.28-.28-.42-.62-.42-1.02v-4.14c0-.44.14-.8.42-1.08s.64-.42,1.08-.42h4.68v-9.9c0-.44.15-.8.45-1.08.3-.28.65-.42,1.05-.42h5.94c.4,0,.74.14,1.02.42.28.28.42.64.42,1.08v9.9h7.5c.44,0,.8.14,1.08.42.28.28.42.64.42,1.08v4.14c0,.4-.14.74-.42,1.02s-.64.42-1.08.42h-7.5v11.88c0,1.52.28,2.71.84,3.57.56.86,1.5,1.29,2.82,1.29h4.38c.44,0,.8.14,1.08.42.28.28.42.62.42,1.02v4.44c0,.44-.14.8-.42,1.08s-.64.42-1.08.42h-5.22Z" fill="#fff"/><path d="M797.37,388.39c-.44,0-.8-.14-1.08-.42-.28-.28-.42-.64-.42-1.08v-39.6c0-.44.14-.8.42-1.08s.64-.42,1.08-.42h6.48c.44,0,.8.14,1.08.42.28.28.42.64.42,1.08v13.5c1.04-1.28,2.35-2.3,3.93-3.06,1.58-.76,3.47-1.14,5.67-1.14,2.36,0,4.45.53,6.27,1.59,1.82,1.06,3.24,2.6,4.26,4.62,1.02,2.02,1.53,4.47,1.53,7.35v16.74c0,.44-.14.8-.42,1.08s-.64.42-1.08.42h-6.54c-.4,0-.74-.14-1.02-.42-.28-.28-.42-.64-.42-1.08v-16.38c0-2.12-.52-3.77-1.56-4.95-1.04-1.18-2.52-1.77-4.44-1.77s-3.38.59-4.5,1.77c-1.12,1.18-1.68,2.83-1.68,4.95v16.38c0,.44-.14.8-.42,1.08s-.64.42-1.08.42h-6.48Z" fill="#fff"/><path d="M848.48,388.99c-3.32,0-6.1-.55-8.34-1.65s-3.95-2.67-5.13-4.71-1.83-4.42-1.95-7.14c-.04-.8-.06-1.71-.06-2.73s.02-1.91.06-2.67c.12-2.76.8-5.15,2.04-7.17,1.24-2.02,2.98-3.58,5.22-4.68,2.24-1.1,4.96-1.65,8.16-1.65s5.86.55,8.1,1.65c2.24,1.1,3.98,2.66,5.22,4.68,1.24,2.02,1.94,4.41,2.1,7.17.04.76.06,1.65.06,2.67s-.02,1.93-.06,2.73c-.16,2.72-.83,5.1-2.01,7.14s-2.89,3.61-5.13,4.71-5,1.65-8.28,1.65ZM848.48,382.33c1.96,0,3.43-.6,4.41-1.8.98-1.2,1.53-2.98,1.65-5.34.04-.6.06-1.4.06-2.4s-.02-1.8-.06-2.4c-.12-2.32-.67-4.09-1.65-5.31-.98-1.22-2.45-1.83-4.41-1.83s-3.44.61-4.44,1.83c-1,1.22-1.56,2.99-1.68,5.31-.04.6-.06,1.4-.06,2.4s.02,1.8.06,2.4c.12,2.36.68,4.14,1.68,5.34,1,1.2,2.48,1.8,4.44,1.8Z" fill="#fff"/><path d="M881.72,388.99c-2.32,0-4.37-.53-6.15-1.59-1.78-1.06-3.17-2.6-4.17-4.62-1-2.02-1.5-4.47-1.5-7.35v-16.74c0-.44.15-.8.45-1.08.3-.28.65-.42,1.05-.42h6.42c.4,0,.74.14,1.02.42.28.28.42.64.42,1.08v16.38c0,4.48,1.96,6.72,5.88,6.72,1.88,0,3.37-.59,4.47-1.77,1.1-1.18,1.65-2.83,1.65-4.95v-16.38c0-.44.14-.8.42-1.08s.64-.42,1.08-.42h6.36c.4,0,.74.14,1.02.42.28.28.42.64.42,1.08v28.2c0,.44-.14.8-.42,1.08s-.62.42-1.02.42h-5.94c-.4,0-.74-.14-1.02-.42-.28-.28-.42-.64-.42-1.08v-2.34c-1.04,1.44-2.38,2.54-4.02,3.3-1.64.76-3.64,1.14-6,1.14Z" fill="#fff"/><path d="M923.12,388.39c-2.48,0-4.59-.41-6.33-1.23-1.74-.82-3.07-2.09-3.99-3.81-.92-1.72-1.38-3.88-1.38-6.48v-12.6h-4.68c-.44,0-.8-.14-1.08-.42-.28-.28-.42-.62-.42-1.02v-4.14c0-.44.14-.8.42-1.08s.64-.42,1.08-.42h4.68v-9.9c0-.44.15-.8.45-1.08.3-.28.65-.42,1.05-.42h5.94c.4,0,.74.14,1.02.42.28.28.42.64.42,1.08v9.9h7.5c.44,0,.8.14,1.08.42.28.28.42.64.42,1.08v4.14c0,.4-.14.74-.42,1.02s-.64.42-1.08.42h-7.5v11.88c0,1.52.28,2.71.84,3.57.56.86,1.5,1.29,2.82,1.29h4.38c.44,0,.8.14,1.08.42.28.28.42.62.42,1.02v4.44c0,.44-.14.8-.42,1.08s-.64.42-1.08.42h-5.22Z" fill="#fff"/><path d="M952.41,399.79c-.32,0-.61-.12-.87-.36-.26-.24-.39-.54-.39-.9,0-.08.02-.19.06-.33.04-.14.1-.31.18-.51l4.68-11.22-11.52-27.18c-.12-.32-.18-.58-.18-.78.04-.36.18-.67.42-.93.24-.26.54-.39.9-.39h5.88c.48,0,.84.13,1.08.39.24.26.42.53.54.81l7.44,18.54,7.62-18.54c.16-.32.36-.6.6-.84s.62-.36,1.14-.36h5.7c.36,0,.67.13.93.39.26.26.39.55.39.87,0,.2-.06.48-.18.84l-16.98,39.3c-.16.32-.37.6-.63.84-.26.24-.65.36-1.17.36h-5.64Z" fill="#fff"/><path d="M994.94,388.99c-3.32,0-6.1-.55-8.34-1.65s-3.95-2.67-5.13-4.71-1.83-4.42-1.95-7.14c-.04-.8-.06-1.71-.06-2.73s.02-1.91.06-2.67c.12-2.76.8-5.15,2.04-7.17,1.24-2.02,2.98-3.58,5.22-4.68,2.24-1.1,4.96-1.65,8.16-1.65s5.86.55,8.1,1.65c2.24,1.1,3.98,2.66,5.22,4.68,1.24,2.02,1.94,4.41,2.1,7.17.04.76.06,1.65.06,2.67s-.02,1.93-.06,2.73c-.16,2.72-.83,5.1-2.01,7.14s-2.89,3.61-5.13,4.71-5,1.65-8.28,1.65ZM994.94,382.33c1.96,0,3.43-.6,4.41-1.8.98-1.2,1.53-2.98,1.65-5.34.04-.6.06-1.4.06-2.4s-.02-1.8-.06-2.4c-.12-2.32-.67-4.09-1.65-5.31-.98-1.22-2.45-1.83-4.41-1.83s-3.44.61-4.44,1.83c-1,1.22-1.56,2.99-1.68,5.31-.04.6-.06,1.4-.06,2.4s.02,1.8.06,2.4c.12,2.36.68,4.14,1.68,5.34,1,1.2,2.48,1.8,4.44,1.8Z" fill="#fff"/><path d="M1028.19,388.99c-2.32,0-4.37-.53-6.15-1.59-1.78-1.06-3.17-2.6-4.17-4.62-1-2.02-1.5-4.47-1.5-7.35v-16.74c0-.44.15-.8.45-1.08.3-.28.65-.42,1.05-.42h6.42c.4,0,.74.14,1.02.42.28.28.42.64.42,1.08v16.38c0,4.48,1.96,6.72,5.88,6.72,1.88,0,3.37-.59,4.47-1.77,1.1-1.18,1.65-2.83,1.65-4.95v-16.38c0-.44.14-.8.42-1.08s.64-.42,1.08-.42h6.36c.4,0,.74.14,1.02.42.28.28.42.64.42,1.08v28.2c0,.44-.14.8-.42,1.08s-.62.42-1.02.42h-5.94c-.4,0-.74-.14-1.02-.42-.28-.28-.42-.64-.42-1.08v-2.34c-1.04,1.44-2.38,2.54-4.02,3.3-1.64.76-3.64,1.14-6,1.14Z" fill="#fff"/><rect x="0" y="595" width="1200" height="35" fill="#fff"/><rect x="0" y="499.19" width="1200" height="95.81" fill="#fff"/><line x1="0" y1="499.19" x2="1200" y2="499.19" fill="none" stroke="#1c2126" stroke-miterlimit="10"/><line x1="0" y1="595" x2="1200" y2="595" fill="none" stroke="#1c2126" stroke-miterlimit="10"/><path d="M24.24,559.45v-18.76h-6.39v-2.37h15.35v2.37h-6.39v18.76h-2.58Z" fill="#1c2126"/><path d="M44.08,559.89c-4.8,0-7.75-3.46-7.75-9.3v-3.41c0-5.84,2.94-9.3,7.75-9.3s7.75,3.46,7.75,9.3v3.41c0,5.84-2.94,9.3-7.75,9.3ZM49.22,550.58v-3.38c0-4.41-1.93-6.87-5.14-6.87s-5.14,2.46-5.14,6.87v3.38c0,4.41,1.93,6.87,5.14,6.87s5.14-2.46,5.14-6.87Z" fill="#1c2126"/><path d="M59.97,545.58c0-1.48,1.2-2.71,2.65-2.71s2.65,1.23,2.65,2.71-1.2,2.71-2.65,2.71-2.65-1.23-2.65-2.71ZM59.97,556.83c0-1.48,1.2-2.7,2.65-2.7s2.65,1.22,2.65,2.7-1.2,2.71-2.65,2.71-2.65-1.22-2.65-2.71Z" fill="#1c2126"/><line x1="582.03" y1="498.72" x2="582.03" y2="595" fill="none" stroke="#1c2126" stroke-miterlimit="10"/><path d="M605.51,559.45v-21.14h12.47v2.37h-9.87v7.25h9.02v2.3h-9.02v9.21h-2.59Z" fill="#1c2126"/><path d="M625.54,551.03v8.42h-2.55v-21.14h7.09c4.19,0,6.81,2.43,6.81,6.36,0,2.77-1.54,5.04-3.94,5.83l4.31,8.95h-2.92l-3.94-8.42h-4.86ZM625.54,548.85h4.19c2.92,0,4.56-1.48,4.56-4.12s-1.61-4.12-4.44-4.12h-4.31v8.23Z" fill="#1c2126"/><path d="M648.15,559.89c-4.8,0-7.75-3.46-7.75-9.3v-3.41c0-5.84,2.94-9.3,7.75-9.3s7.75,3.46,7.75,9.3v3.41c0,5.84-2.94,9.3-7.75,9.3ZM653.29,550.58v-3.38c0-4.41-1.93-6.87-5.14-6.87s-5.14,2.46-5.14,6.87v3.38c0,4.41,1.93,6.87,5.14,6.87s5.14-2.46,5.14-6.87Z" fill="#1c2126"/><path d="M661.18,559.45h-2.31v-21.14h2.86l4.88,13.08h.19l4.86-13.08h2.86v21.14h-2.31v-8.1l.15-8.57h-.19l-4.45,11.7h-2.02l-4.45-11.7h-.19l.15,8.57v8.1Z" fill="#1c2126"/><path d="M682.59,545.58c0-1.48,1.2-2.71,2.65-2.71s2.65,1.23,2.65,2.71-1.2,2.71-2.65,2.71-2.65-1.23-2.65-2.71ZM682.59,556.83c0-1.48,1.2-2.7,2.65-2.7s2.65,1.22,2.65,2.7-1.2,2.71-2.65,2.71-2.65-1.22-2.65-2.71Z" fill="#1c2126"/><path d="M12.77,618.41c-.12,0-.21-.04-.26-.11-.06-.07-.08-.17-.06-.27l2.22-10.42c.02-.12.07-.21.16-.29.08-.07.19-.11.3-.11h6.95c.12,0,.2.04.26.11.05.07.07.17.05.29l-.24,1.12c-.02.12-.08.21-.16.28-.08.07-.19.1-.3.1h-5.14l-.66,3.04h4.82c.12,0,.2.04.26.11.05.07.07.17.05.29l-.22,1.12c-.02.11-.08.2-.17.27-.09.07-.19.11-.31.11h-4.82l-.85,3.97c-.02.11-.08.2-.16.27-.08.08-.19.11-.3.11h-1.41Z" fill="#1c2126"/><path d="M25.41,618.57c-.81,0-1.49-.15-2.02-.45s-.92-.72-1.15-1.26c-.23-.54-.29-1.18-.17-1.9.03-.19.08-.43.13-.7s.12-.51.17-.7c.19-.74.49-1.37.89-1.91.4-.54.91-.96,1.54-1.26.62-.3,1.36-.45,2.22-.45s1.49.15,2.02.45c.54.3.93.72,1.16,1.26.23.54.29,1.18.18,1.91-.04.19-.09.43-.14.7s-.11.51-.16.7c-.19.73-.48,1.36-.87,1.9-.39.54-.9.96-1.52,1.26s-1.38.45-2.26.45ZM25.57,616.98c.58,0,1.06-.18,1.46-.54.4-.36.69-.88.87-1.58.04-.16.09-.37.14-.62s.1-.46.13-.62c.12-.69.07-1.22-.14-1.58-.21-.36-.61-.54-1.18-.54s-1.05.18-1.46.54c-.41.36-.69.88-.86,1.58-.04.16-.09.37-.15.62s-.1.46-.12.62c-.12.69-.07,1.22.14,1.58s.6.54,1.18.54Z" fill="#1c2126"/><path d="M31.53,618.41c-.11,0-.19-.04-.25-.11-.06-.07-.08-.17-.06-.27l1.6-7.54c.02-.12.08-.21.17-.29.09-.07.19-.11.3-.11h1.3c.11,0,.19.04.25.11.06.08.08.17.06.29l-.14.66c.26-.34.58-.6.98-.78s.88-.27,1.44-.27h.78c.12,0,.2.04.26.11.05.08.07.17.05.27l-.24,1.15c-.02.11-.08.2-.17.27-.09.07-.19.11-.3.11h-1.25c-.51,0-.94.14-1.29.42-.35.28-.57.68-.68,1.19l-.94,4.4c-.02.11-.07.2-.16.27-.08.08-.19.11-.3.11h-1.39Z" fill="#1c2126"/><path d="M44.76,618.41c-.73,0-1.29-.11-1.7-.34-.4-.22-.67-.56-.78-1s-.11-.99.03-1.66l.79-3.63h-1.26c-.11,0-.19-.04-.25-.11-.06-.07-.08-.17-.06-.29l.19-.91c.02-.11.08-.2.17-.27.09-.07.2-.11.31-.11h1.25l.58-2.66c.02-.11.07-.2.16-.27.08-.07.18-.11.29-.11h1.3c.12,0,.21.04.26.11.06.08.08.17.06.27l-.58,2.66h2c.11,0,.19.04.25.11.06.08.08.17.06.27l-.19.91c-.02.12-.08.21-.17.29-.09.08-.19.11-.3.11h-2l-.74,3.47c-.06.29-.1.54-.1.74,0,.21.05.37.17.48.12.11.33.17.62.17h1.15c.12,0,.2.04.26.11.05.08.07.17.05.27l-.21.99c-.02.11-.08.2-.16.27-.09.08-.19.11-.3.11h-1.14Z" fill="#1c2126"/><path d="M48.07,618.41c-.11,0-.19-.04-.25-.11-.06-.07-.08-.17-.06-.27l2.26-10.59c.02-.11.08-.2.16-.27.08-.07.18-.11.29-.11h1.44c.11,0,.19.04.25.11.06.08.08.17.06.27l-.78,3.65c.34-.34.72-.62,1.14-.83.42-.21.93-.32,1.53-.32.69,0,1.26.15,1.7.44.44.29.75.71.92,1.24.17.53.18,1.17.02,1.92l-.96,4.5c-.02.11-.08.2-.16.27-.09.08-.19.11-.3.11h-1.44c-.11,0-.19-.04-.25-.11-.06-.07-.08-.17-.06-.27l.93-4.4c.14-.62.11-1.1-.08-1.46-.19-.35-.58-.53-1.17-.53-.36,0-.71.08-1.03.23-.33.16-.61.38-.84.68-.23.3-.4.66-.5,1.07l-.93,4.4c-.02.11-.08.2-.16.27-.09.08-.18.11-.29.11h-1.44Z" fill="#1c2126"/><path d="M61.51,618.57c-.78,0-1.43-.16-1.95-.46-.52-.31-.87-.76-1.07-1.34-.2-.59-.23-1.3-.09-2.13.02-.11.05-.24.08-.41.03-.17.06-.3.1-.39.21-.81.54-1.51.99-2.09.45-.58.99-1.03,1.64-1.34s1.36-.47,2.14-.47c.86,0,1.55.18,2.06.54.51.36.84.85,1.01,1.49s.16,1.37,0,2.2l-.08.34c-.02.11-.08.2-.17.27-.09.08-.19.11-.31.11h-5.31c-.01.06-.02.11-.03.13-.05.37-.05.72.02,1.03.06.31.21.57.42.76.22.19.51.29.87.29.3,0,.56-.04.79-.14.22-.09.41-.19.55-.31.14-.12.25-.21.33-.29.13-.13.22-.21.29-.23.06-.03.15-.04.27-.04h1.39c.1,0,.17.03.22.1.05.06.07.14.05.24-.05.17-.19.38-.4.62s-.5.49-.86.72c-.36.24-.79.43-1.29.58s-1.04.23-1.64.23ZM60.82,613.53h3.54l.02-.05c.1-.42.1-.78.02-1.1-.08-.31-.23-.56-.46-.74-.22-.18-.52-.26-.9-.26s-.71.09-1.02.26c-.3.18-.56.42-.76.74-.2.32-.35.68-.43,1.1l-.02.05Z" fill="#1c2126"/><path d="M71.06,618.41c-.11,0-.19-.04-.25-.11-.06-.07-.08-.17-.06-.27l2.26-10.59c.02-.11.08-.2.16-.27.08-.07.18-.11.29-.11h1.33c.12,0,.21.04.26.11.06.08.08.17.06.27l-2.26,10.59c-.02.11-.08.2-.16.27-.09.08-.19.11-.3.11h-1.33Z" fill="#1c2126"/><path d="M78.64,618.57c-.81,0-1.49-.15-2.02-.45-.54-.3-.92-.72-1.15-1.26-.23-.54-.29-1.18-.17-1.9.03-.19.08-.43.14-.7s.11-.51.17-.7c.19-.74.49-1.37.89-1.91.4-.54.91-.96,1.54-1.26.62-.3,1.36-.45,2.22-.45s1.49.15,2.02.45c.54.3.92.72,1.16,1.26.23.54.29,1.18.18,1.91-.04.19-.09.43-.14.7-.05.28-.11.51-.16.7-.19.73-.48,1.36-.87,1.9s-.9.96-1.52,1.26c-.62.3-1.38.45-2.26.45ZM78.8,616.98c.58,0,1.06-.18,1.46-.54s.69-.88.87-1.58c.04-.16.09-.37.14-.62.05-.26.1-.46.13-.62.12-.69.07-1.22-.14-1.58-.21-.36-.61-.54-1.18-.54s-1.05.18-1.46.54c-.41.36-.69.88-.86,1.58-.04.16-.09.37-.15.62s-.1.46-.12.62c-.12.69-.07,1.22.14,1.58.21.36.6.54,1.18.54Z" fill="#1c2126"/><path d="M86.92,618.41c-.16,0-.27-.04-.34-.12-.06-.08-.11-.17-.13-.28l-1.42-7.49c-.02-.14,0-.25.08-.32.08-.07.18-.11.3-.11h1.22c.12,0,.21.03.27.1.06.06.11.15.13.27l.91,5.55,3.33-5.62c.03-.06.09-.13.17-.2s.18-.1.31-.1h1.39c.13,0,.22.05.26.14.05.1.03.21-.06.35l-4.56,7.42c-.08.11-.16.2-.25.28-.09.08-.22.12-.38.12h-1.25Z" fill="#1c2126"/><path d="M96.66,618.57c-.78,0-1.43-.16-1.94-.46-.52-.31-.88-.76-1.07-1.34-.2-.59-.23-1.3-.09-2.13.02-.11.05-.24.08-.41.03-.17.06-.3.1-.39.21-.81.54-1.51.99-2.09.45-.58.99-1.03,1.64-1.34s1.36-.47,2.14-.47c.86,0,1.55.18,2.06.54.51.36.84.85,1.01,1.49.17.63.16,1.37,0,2.2l-.08.34c-.02.11-.08.2-.17.27-.09.08-.2.11-.31.11h-5.31c-.01.06-.02.11-.03.13-.05.37-.05.72.02,1.03.06.31.21.57.42.76.22.19.51.29.87.29.3,0,.56-.04.78-.14.22-.09.41-.19.55-.31.14-.12.25-.21.33-.29.13-.13.22-.21.29-.23.06-.03.15-.04.27-.04h1.39c.1,0,.17.03.22.1.05.06.07.14.05.24-.05.17-.19.38-.4.62-.21.25-.5.49-.87.72-.36.24-.79.43-1.29.58s-1.04.23-1.64.23ZM95.97,613.53h3.54l.02-.05c.1-.42.1-.78.02-1.1-.08-.31-.23-.56-.46-.74-.22-.18-.52-.26-.9-.26s-.71.09-1.02.26-.56.42-.76.74c-.2.32-.35.68-.43,1.1l-.02.05Z" fill="#1c2126"/><path d="M109.56,618.57c-.81,0-1.49-.15-2.02-.45s-.92-.72-1.15-1.26c-.23-.54-.29-1.18-.17-1.9.03-.19.08-.43.13-.7s.12-.51.17-.7c.19-.74.49-1.37.89-1.91.4-.54.91-.96,1.54-1.26.62-.3,1.36-.45,2.22-.45s1.49.15,2.02.45c.54.3.93.72,1.16,1.26.23.54.29,1.18.18,1.91-.04.19-.09.43-.14.7s-.11.51-.16.7c-.19.73-.48,1.36-.87,1.9-.39.54-.9.96-1.52,1.26s-1.38.45-2.26.45ZM109.72,616.98c.58,0,1.06-.18,1.46-.54.4-.36.69-.88.87-1.58.04-.16.09-.37.14-.62s.1-.46.13-.62c.12-.69.07-1.22-.14-1.58-.21-.36-.61-.54-1.18-.54s-1.05.18-1.46.54c-.41.36-.69.88-.86,1.58-.04.16-.09.37-.15.62s-.1.46-.12.62c-.12.69-.07,1.22.14,1.58s.6.54,1.18.54Z" fill="#1c2126"/><path d="M116.42,618.41c-.12,0-.21-.04-.26-.11-.06-.07-.08-.17-.06-.27l1.33-6.24h-1.29c-.11,0-.19-.04-.25-.11-.06-.07-.08-.17-.06-.29l.19-.91c.02-.11.08-.2.17-.27.09-.07.19-.11.31-.11h1.3l.13-.66c.15-.64.38-1.17.69-1.59.31-.42.7-.74,1.18-.95.48-.21,1.04-.32,1.68-.32h1.28c.12,0,.2.04.26.11.05.07.07.17.05.27l-.19.91c-.02.12-.08.21-.17.29s-.19.11-.3.11h-.96c-.43,0-.76.11-.99.32-.23.21-.39.52-.46.93l-.13.58h1.98c.12,0,.2.04.26.11.05.08.07.17.05.27l-.19.91c-.02.12-.08.21-.16.29-.09.08-.19.11-.3.11h-1.98l-1.34,6.24c-.02.11-.07.2-.16.27-.08.08-.18.11-.29.11h-1.3Z" fill="#1c2126"/><path d="M128.85,618.57c-.81,0-1.48-.15-2.02-.45s-.92-.72-1.15-1.26c-.23-.54-.29-1.18-.17-1.9.03-.19.08-.43.14-.7s.11-.51.17-.7c.19-.74.49-1.37.89-1.91.4-.54.91-.96,1.54-1.26.62-.3,1.36-.45,2.22-.45s1.49.15,2.02.45c.54.3.92.72,1.16,1.26.23.54.29,1.18.18,1.91-.04.19-.09.43-.14.7s-.11.51-.16.7c-.19.73-.48,1.36-.87,1.9-.39.54-.9.96-1.52,1.26s-1.38.45-2.26.45ZM129.01,616.98c.58,0,1.06-.18,1.46-.54.4-.36.69-.88.87-1.58.04-.16.09-.37.14-.62.05-.26.1-.46.13-.62.12-.69.07-1.22-.14-1.58-.21-.36-.61-.54-1.18-.54s-1.05.18-1.46.54c-.41.36-.69.88-.86,1.58-.04.16-.09.37-.15.62s-.1.46-.12.62c-.12.69-.07,1.22.14,1.58s.6.54,1.18.54Z" fill="#1c2126"/><path d="M134.32,621.45c-.11,0-.19-.04-.25-.11-.06-.07-.08-.17-.06-.27l2.26-10.59c.02-.11.08-.2.16-.27.09-.07.18-.11.29-.11h1.28c.11,0,.19.04.25.11.06.08.08.17.06.27l-.14.64c.33-.34.7-.62,1.1-.85.4-.22.93-.34,1.58-.34.55,0,1.03.09,1.42.28.39.19.7.45.92.79.22.34.37.74.44,1.21s.06.97-.04,1.53c-.02.18-.05.35-.09.51s-.08.34-.14.53c-.13.52-.31,1.02-.54,1.48-.24.46-.52.87-.86,1.22s-.73.62-1.18.81-.96.29-1.53.29c-.6,0-1.09-.1-1.47-.31-.38-.21-.66-.48-.83-.82l-.78,3.63c-.02.11-.08.2-.16.27-.09.08-.19.11-.3.11h-1.36ZM138.88,616.85c.43,0,.79-.1,1.09-.3.3-.2.55-.46.74-.78.2-.33.35-.67.47-1.05.05-.16.1-.32.13-.48.03-.16.06-.32.08-.48.05-.38.06-.74.02-1.06-.04-.32-.16-.58-.36-.78-.2-.2-.51-.3-.94-.3-.45,0-.83.1-1.16.3s-.59.46-.8.78c-.21.32-.36.64-.44.97-.05.19-.1.39-.14.61-.04.21-.08.42-.11.62-.05.32-.05.63,0,.92.06.29.2.54.43.73.23.19.56.29.98.29Z" fill="#1c2126"/><path d="M148.13,618.57c-.78,0-1.43-.16-1.95-.46-.52-.31-.87-.76-1.07-1.34-.2-.59-.23-1.3-.09-2.13.02-.11.05-.24.08-.41.03-.17.06-.3.1-.39.21-.81.54-1.51.99-2.09.45-.58.99-1.03,1.64-1.34s1.36-.47,2.14-.47c.86,0,1.55.18,2.06.54.51.36.84.85,1.01,1.49s.16,1.37,0,2.2l-.08.34c-.02.11-.08.2-.17.27-.09.08-.19.11-.31.11h-5.31c-.01.06-.02.11-.03.13-.05.37-.05.72.02,1.03.06.31.21.57.42.76.22.19.51.29.87.29.3,0,.56-.04.79-.14.22-.09.41-.19.55-.31.14-.12.25-.21.33-.29.13-.13.22-.21.29-.23.06-.03.15-.04.27-.04h1.39c.1,0,.17.03.22.1.05.06.07.14.05.24-.05.17-.19.38-.4.62s-.5.49-.86.72c-.36.24-.79.43-1.29.58s-1.04.23-1.64.23ZM147.44,613.53h3.54l.02-.05c.1-.42.1-.78.02-1.1-.08-.31-.23-.56-.46-.74-.22-.18-.52-.26-.9-.26s-.71.09-1.02.26c-.3.18-.56.42-.76.74-.2.32-.35.68-.43,1.1l-.02.05Z" fill="#1c2126"/><path d="M153.96,618.41c-.11,0-.19-.04-.25-.11-.06-.07-.08-.17-.06-.27l1.6-7.55c.02-.11.08-.2.17-.27.09-.07.19-.11.3-.11h1.31c.11,0,.19.04.24.11.05.08.07.17.05.27l-.14.66c.34-.34.74-.63,1.21-.86s.99-.34,1.58-.34c.73,0,1.31.15,1.74.44.44.29.73.71.87,1.24.14.53.14,1.17-.02,1.92l-.96,4.5c-.02.11-.07.2-.16.27-.09.08-.19.11-.3.11h-1.41c-.11,0-.19-.04-.25-.11-.06-.07-.08-.17-.06-.27l.93-4.4c.14-.65.12-1.14-.04-1.48s-.56-.5-1.18-.5-1.12.18-1.54.53c-.42.35-.7.84-.84,1.46l-.93,4.4c-.02.11-.08.2-.16.27-.09.08-.18.11-.29.11h-1.41Z" fill="#1c2126"/><path d="M170.61,618.57c-.64,0-1.17-.08-1.59-.22-.42-.15-.75-.34-.99-.56s-.41-.45-.5-.67c-.09-.22-.12-.41-.1-.56.02-.12.08-.21.17-.28.09-.07.18-.1.28-.1h1.26s.08,0,.11.02c.03.01.06.04.1.1.12.12.24.24.37.37.13.13.29.24.49.33s.46.14.78.14c.42,0,.78-.08,1.1-.25.31-.17.5-.4.57-.71.04-.22.02-.41-.08-.54-.1-.14-.29-.26-.59-.38-.3-.11-.74-.23-1.33-.36-.58-.14-1.04-.31-1.38-.53-.35-.21-.58-.48-.71-.8-.12-.32-.13-.69-.04-1.12.08-.42.29-.81.62-1.19.33-.38.77-.69,1.32-.94.55-.25,1.19-.37,1.93-.37.58,0,1.06.07,1.46.22.4.14.72.32.96.54.24.21.41.43.5.65.1.22.13.41.1.57-.01.12-.06.21-.15.28-.09.07-.18.1-.28.1h-1.17c-.05,0-.1-.01-.14-.03-.04-.02-.08-.05-.1-.08-.11-.11-.22-.22-.33-.34-.11-.12-.26-.23-.43-.31-.18-.08-.42-.13-.74-.13-.41,0-.73.09-.98.26s-.41.4-.47.66c-.03.18-.01.34.06.47.07.13.25.26.54.38s.73.24,1.31.37c.69.13,1.22.32,1.59.57.37.25.61.54.72.86.11.33.13.69.04,1.08-.1.48-.33.91-.7,1.3-.37.38-.85.69-1.45.9-.6.22-1.3.33-2.11.33Z" fill="#1c2126"/><path d="M179.52,618.57c-.81,0-1.49-.15-2.02-.45-.54-.3-.92-.72-1.15-1.26-.23-.54-.29-1.18-.17-1.9.03-.19.08-.43.14-.7s.11-.51.17-.7c.19-.74.49-1.37.89-1.91.4-.54.91-.96,1.54-1.26.62-.3,1.36-.45,2.22-.45s1.49.15,2.02.45c.54.3.92.72,1.16,1.26.23.54.29,1.18.18,1.91-.04.19-.09.43-.14.7-.05.28-.11.51-.16.7-.19.73-.48,1.36-.87,1.9s-.9.96-1.52,1.26c-.62.3-1.38.45-2.26.45ZM179.68,616.98c.58,0,1.06-.18,1.46-.54s.69-.88.87-1.58c.04-.16.09-.37.14-.62.05-.26.1-.46.13-.62.12-.69.07-1.22-.14-1.58-.21-.36-.61-.54-1.18-.54s-1.05.18-1.46.54c-.41.36-.69.88-.86,1.58-.04.16-.09.37-.15.62s-.1.46-.12.62c-.12.69-.07,1.22.14,1.58.21.36.6.54,1.18.54Z" fill="#1c2126"/><path d="M188.45,618.57c-.69,0-1.26-.15-1.7-.44-.44-.29-.73-.71-.87-1.25-.14-.54-.14-1.18,0-1.91l.96-4.5c.02-.11.08-.2.17-.27.09-.07.19-.11.29-.11h1.41c.11,0,.19.04.24.11.05.08.07.17.05.27l-.93,4.4c-.1.44-.13.8-.09,1.1.04.29.16.52.36.66.2.15.52.22.94.22.58,0,1.08-.18,1.5-.53.43-.35.7-.84.83-1.46l.94-4.4c.02-.11.08-.2.17-.27.09-.07.19-.11.3-.11h1.39c.12,0,.2.04.26.11.05.08.07.17.05.27l-1.6,7.55c-.02.11-.07.2-.16.27-.08.08-.19.11-.3.11h-1.3c-.11,0-.19-.04-.25-.11-.06-.07-.08-.17-.06-.27l.13-.66c-.23.25-.47.46-.72.64-.25.18-.53.32-.85.42-.32.1-.71.14-1.18.14Z" fill="#1c2126"/><path d="M195.57,618.41c-.11,0-.19-.04-.25-.11-.06-.07-.08-.17-.06-.27l1.6-7.54c.02-.12.08-.21.17-.29.09-.07.19-.11.3-.11h1.3c.11,0,.19.04.25.11.06.08.08.17.06.29l-.14.66c.26-.34.58-.6.98-.78.39-.18.87-.27,1.44-.27h.78c.12,0,.2.04.26.11.05.08.07.17.05.27l-.24,1.15c-.02.11-.08.2-.17.27-.09.07-.19.11-.3.11h-1.25c-.51,0-.94.14-1.29.42-.35.28-.57.68-.68,1.19l-.94,4.4c-.02.11-.08.2-.16.27-.09.08-.19.11-.3.11h-1.39Z" fill="#1c2126"/><path d="M205.46,618.57c-.71,0-1.34-.14-1.88-.43-.54-.29-.94-.71-1.19-1.26-.26-.55-.31-1.21-.18-1.99.03-.16.07-.37.13-.63.05-.26.1-.48.14-.65.29-1.16.82-2.07,1.6-2.71s1.77-.97,2.98-.97c.67,0,1.23.1,1.69.29.45.19.81.44,1.07.74.26.3.44.61.54.93.1.32.14.61.1.86,0,.12-.06.21-.14.28s-.17.1-.28.1h-1.46c-.11,0-.19-.03-.25-.08-.06-.05-.09-.13-.1-.24,0-.43-.11-.74-.34-.93-.23-.19-.56-.29-.98-.29-.52,0-.99.17-1.4.5-.41.34-.71.87-.89,1.59-.04.19-.09.39-.13.59-.04.2-.08.38-.11.53-.12.74-.06,1.27.16,1.6.22.33.6.5,1.12.5.42,0,.79-.09,1.12-.26.33-.18.61-.48.83-.9.06-.12.13-.2.2-.25.07-.05.16-.07.26-.07h1.44c.11,0,.19.04.25.1s.07.16.04.28c-.07.24-.21.51-.41.82s-.47.62-.81.92c-.34.3-.77.54-1.29.74s-1.13.29-1.85.29Z" fill="#1c2126"/><path d="M214.69,618.57c-.78,0-1.43-.16-1.95-.46-.52-.31-.87-.76-1.07-1.34-.2-.59-.23-1.3-.09-2.13.02-.11.05-.24.08-.41.03-.17.06-.3.1-.39.21-.81.54-1.51.99-2.09.45-.58.99-1.03,1.64-1.34s1.36-.47,2.14-.47c.86,0,1.55.18,2.06.54.51.36.84.85,1.01,1.49s.16,1.37,0,2.2l-.08.34c-.02.11-.08.2-.17.27-.09.08-.19.11-.31.11h-5.31c-.01.06-.02.11-.03.13-.05.37-.05.72.02,1.03.06.31.21.57.42.76.22.19.51.29.87.29.3,0,.56-.04.79-.14.22-.09.41-.19.55-.31.14-.12.25-.21.33-.29.13-.13.22-.21.29-.23.06-.03.15-.04.27-.04h1.39c.1,0,.17.03.22.1.05.06.07.14.05.24-.05.17-.19.38-.4.62s-.5.49-.86.72c-.36.24-.79.43-1.29.58s-1.04.23-1.64.23ZM214,613.53h3.54l.02-.05c.1-.42.1-.78.02-1.1-.08-.31-.23-.56-.46-.74-.22-.18-.52-.26-.9-.26s-.71.09-1.02.26c-.3.18-.56.42-.76.74-.2.32-.35.68-.43,1.1l-.02.05Z" fill="#1c2126"/><path d="M227.19,618.57c-.64,0-1.17-.08-1.59-.22-.42-.15-.75-.34-.99-.56-.24-.22-.41-.45-.5-.67s-.13-.41-.1-.56c.02-.12.08-.21.17-.28.09-.07.18-.1.28-.1h1.26s.08,0,.11.02c.03.01.06.04.1.1.12.12.24.24.37.37.13.13.29.24.49.33s.46.14.78.14c.42,0,.78-.08,1.1-.25s.5-.4.57-.71c.04-.22.02-.41-.08-.54s-.29-.26-.59-.38c-.3-.11-.74-.23-1.33-.36-.58-.14-1.04-.31-1.38-.53-.35-.21-.58-.48-.7-.8-.12-.32-.14-.69-.04-1.12.09-.42.29-.81.62-1.19.33-.38.77-.69,1.32-.94.55-.25,1.19-.37,1.93-.37.58,0,1.06.07,1.46.22.4.14.72.32.96.54.24.21.41.43.5.65s.13.41.1.57c-.01.12-.06.21-.15.28-.09.07-.18.1-.28.1h-1.17c-.05,0-.1-.01-.14-.03s-.07-.05-.1-.08c-.11-.11-.22-.22-.33-.34-.11-.12-.26-.23-.43-.31-.18-.08-.42-.13-.74-.13-.41,0-.73.09-.98.26s-.41.4-.47.66c-.03.18-.01.34.06.47.07.13.25.26.54.38s.73.24,1.31.37c.69.13,1.22.32,1.59.57.37.25.61.54.72.86.11.33.12.69.04,1.08-.1.48-.33.91-.7,1.3-.37.38-.85.69-1.45.9-.6.22-1.3.33-2.11.33Z" fill="#1c2126"/><path d="M236.1,618.57c-.81,0-1.49-.15-2.02-.45-.54-.3-.92-.72-1.15-1.26s-.29-1.18-.17-1.9c.03-.19.08-.43.14-.7s.12-.51.17-.7c.19-.74.49-1.37.89-1.91.4-.54.91-.96,1.54-1.26.62-.3,1.36-.45,2.22-.45s1.48.15,2.02.45c.54.3.93.72,1.16,1.26.23.54.29,1.18.18,1.91-.04.19-.09.43-.14.7-.05.28-.11.51-.16.7-.19.73-.48,1.36-.87,1.9-.39.54-.9.96-1.52,1.26-.62.3-1.38.45-2.26.45ZM236.26,616.98c.58,0,1.06-.18,1.46-.54s.69-.88.87-1.58c.04-.16.09-.37.14-.62.05-.26.1-.46.13-.62.12-.69.07-1.22-.14-1.58-.21-.36-.61-.54-1.18-.54s-1.05.18-1.46.54c-.4.36-.69.88-.86,1.58-.04.16-.09.37-.15.62s-.1.46-.12.62c-.12.69-.07,1.22.13,1.58.21.36.6.54,1.18.54Z" fill="#1c2126"/><path d="M242.96,618.41c-.12,0-.21-.04-.26-.11-.06-.07-.08-.17-.06-.27l1.33-6.24h-1.3c-.11,0-.19-.04-.25-.11-.06-.07-.08-.17-.06-.29l.19-.91c.02-.11.08-.2.17-.27.09-.07.19-.11.31-.11h1.29l.13-.66c.15-.64.38-1.17.69-1.59.31-.42.7-.74,1.18-.95.48-.21,1.04-.32,1.68-.32h1.28c.12,0,.2.04.26.11.05.07.07.17.05.27l-.19.91c-.02.12-.08.21-.17.29s-.19.11-.3.11h-.96c-.43,0-.76.11-.99.32-.23.21-.39.52-.46.93l-.13.58h1.98c.12,0,.2.04.26.11.05.08.07.17.05.27l-.19.91c-.02.12-.07.21-.16.29-.08.08-.19.11-.3.11h-1.98l-1.34,6.24c-.02.11-.08.2-.16.27-.09.08-.18.11-.29.11h-1.29Z" fill="#1c2126"/><path d="M252.11,618.41c-.73,0-1.29-.11-1.7-.34-.4-.22-.67-.56-.78-1s-.11-.99.03-1.66l.79-3.63h-1.26c-.11,0-.19-.04-.25-.11-.06-.07-.08-.17-.06-.29l.19-.91c.02-.11.08-.2.17-.27.09-.07.2-.11.31-.11h1.25l.58-2.66c.02-.11.07-.2.16-.27.08-.07.18-.11.29-.11h1.3c.12,0,.21.04.26.11.06.08.08.17.06.27l-.58,2.66h2c.11,0,.19.04.25.11.06.08.08.17.06.27l-.19.91c-.02.12-.08.21-.17.29-.09.08-.19.11-.3.11h-2l-.74,3.47c-.06.29-.1.54-.1.74,0,.21.05.37.17.48.12.11.33.17.62.17h1.15c.12,0,.2.04.26.11.05.08.07.17.05.27l-.21.99c-.02.11-.08.2-.16.27-.09.08-.19.11-.3.11h-1.14Z" fill="#1c2126"/><path d="M257.27,618.41c-.15,0-.26-.04-.32-.11-.06-.07-.1-.17-.11-.29l-.72-7.49c-.01-.12.02-.22.1-.3.08-.08.18-.13.32-.13h1.12c.13,0,.22.03.28.09.06.06.09.13.1.22l.46,5.3,2.75-5.25c.04-.08.11-.15.19-.23.09-.08.2-.12.34-.12h.83c.15,0,.25.04.3.12.05.08.09.16.1.23l.58,5.25,2.69-5.3c.03-.06.09-.13.16-.2s.18-.1.3-.1h1.3c.15,0,.24.05.26.14.03.1.01.2-.04.32l-3.86,7.46c-.06.12-.14.21-.23.29-.09.08-.21.11-.36.11h-1.06c-.15,0-.26-.04-.33-.11-.07-.07-.12-.17-.14-.29l-.66-5.06-2.72,5.06c-.06.12-.14.21-.24.29-.1.08-.22.11-.37.11h-1.04Z" fill="#1c2126"/><path d="M271.09,618.57c-.55,0-1.02-.09-1.41-.28s-.69-.45-.9-.79c-.22-.34-.36-.74-.42-1.21-.06-.46-.05-.97.03-1.53.04-.19.08-.37.11-.52.03-.15.07-.33.11-.52.14-.53.32-1.03.55-1.49.23-.46.51-.86.85-1.21s.73-.62,1.18-.81c.45-.19.97-.29,1.56-.29.66,0,1.17.1,1.51.31s.62.46.81.76l.11-.53c.02-.11.08-.2.16-.27.08-.07.18-.11.29-.11h1.26c.11,0,.19.04.26.11.06.08.09.17.06.27l-1.62,7.55c-.02.11-.08.2-.16.27-.09.08-.18.11-.29.11h-1.26c-.12,0-.21-.04-.26-.11-.06-.07-.08-.17-.06-.27l.13-.59c-.32.33-.67.6-1.06.82-.38.21-.9.32-1.55.32ZM271.81,616.85c.45,0,.83-.1,1.15-.3.32-.2.58-.46.78-.78s.34-.64.42-.97c.05-.19.1-.4.14-.62s.08-.42.11-.62c.06-.32.07-.63.02-.92s-.19-.54-.41-.73c-.22-.19-.55-.29-.98-.29s-.77.1-1.06.3-.54.46-.73.78c-.19.32-.35.67-.46,1.06-.04.16-.08.32-.11.48s-.06.32-.08.48c-.05.38-.07.74-.04,1.06.03.32.14.58.34.78s.5.3.92.3Z" fill="#1c2126"/><path d="M278.05,618.41c-.11,0-.19-.04-.25-.11-.06-.07-.08-.17-.06-.27l1.6-7.54c.02-.12.08-.21.17-.29.09-.07.19-.11.3-.11h1.29c.11,0,.19.04.25.11.06.08.08.17.06.29l-.14.66c.26-.34.58-.6.98-.78s.88-.27,1.44-.27h.78c.12,0,.2.04.26.11.05.08.07.17.05.27l-.24,1.15c-.02.11-.08.2-.17.27-.09.07-.19.11-.29.11h-1.25c-.51,0-.94.14-1.29.42-.35.28-.57.68-.68,1.19l-.94,4.4c-.02.11-.07.2-.16.27-.09.08-.19.11-.3.11h-1.39Z" fill="#1c2126"/><path d="M288.05,618.57c-.78,0-1.43-.16-1.95-.46-.52-.31-.87-.76-1.07-1.34-.2-.59-.23-1.3-.09-2.13.02-.11.05-.24.08-.41.03-.17.06-.3.1-.39.21-.81.54-1.51.99-2.09.45-.58.99-1.03,1.64-1.34s1.36-.47,2.14-.47c.86,0,1.55.18,2.06.54.51.36.84.85,1.01,1.49s.16,1.37,0,2.2l-.08.34c-.02.11-.08.2-.17.27-.09.08-.19.11-.31.11h-5.31c-.01.06-.02.11-.03.13-.05.37-.05.72.02,1.03.06.31.21.57.42.76.22.19.51.29.87.29.3,0,.56-.04.79-.14.22-.09.41-.19.55-.31.14-.12.25-.21.33-.29.13-.13.22-.21.29-.23.06-.03.15-.04.27-.04h1.39c.1,0,.17.03.22.1.05.06.07.14.05.24-.05.17-.19.38-.4.62s-.5.49-.86.72c-.36.24-.79.43-1.29.58s-1.04.23-1.64.23ZM287.36,613.53h3.54l.02-.05c.1-.42.1-.78.02-1.1-.08-.31-.23-.56-.46-.74-.22-.18-.52-.26-.9-.26s-.71.09-1.02.26c-.3.18-.56.42-.76.74-.2.32-.35.68-.43,1.1l-.02.05Z" fill="#1c2126"/><path d="M1113.68,618.57c-.89,0-1.63-.15-2.22-.44-.6-.29-1.05-.71-1.37-1.26-.32-.54-.49-1.18-.52-1.9-.01-.21-.02-.46-.02-.73s0-.51.02-.71c.03-.74.21-1.37.54-1.91.33-.54.79-.95,1.39-1.25.6-.29,1.32-.44,2.18-.44s1.56.15,2.16.44c.6.29,1.06.71,1.39,1.25.33.54.52,1.18.56,1.91,0,.2.02.44.02.71s0,.51-.02.73c-.04.73-.22,1.36-.54,1.9-.32.54-.77.96-1.37,1.26-.6.29-1.33.44-2.21.44ZM1113.68,616.79c.52,0,.91-.16,1.18-.48.26-.32.41-.79.44-1.42,0-.16.02-.37.02-.64s0-.48-.02-.64c-.03-.62-.18-1.09-.44-1.42s-.65-.49-1.18-.49-.92.16-1.18.49-.42.8-.45,1.42c-.01.16-.02.37-.02.64s0,.48.02.64c.03.63.18,1.1.45,1.42.27.32.66.48,1.18.48Z" fill="#1c2126"/><path d="M1122.77,618.57c-.66,0-1.23-.08-1.7-.23s-.86-.34-1.15-.57c-.29-.22-.51-.45-.66-.68-.14-.23-.22-.42-.23-.58-.01-.12.03-.21.11-.29.09-.07.17-.11.26-.11h1.55s.08,0,.1.02c.03.01.06.04.1.08.14.1.28.21.42.33.14.12.32.23.52.31.2.09.45.13.74.13.35,0,.65-.07.89-.22.24-.14.36-.35.36-.62,0-.19-.05-.35-.16-.48s-.31-.25-.62-.35c-.31-.11-.77-.22-1.38-.35-.58-.13-1.07-.3-1.47-.51-.41-.21-.71-.48-.91-.81-.2-.33-.3-.72-.3-1.18,0-.42.13-.82.39-1.2.26-.38.65-.7,1.16-.95.51-.25,1.15-.38,1.92-.38.59,0,1.1.07,1.54.22.44.14.81.33,1.11.54s.53.44.68.67.24.43.25.6c.01.12-.02.21-.1.29s-.16.11-.26.11h-1.42c-.05,0-.1-.01-.14-.03s-.08-.05-.11-.08c-.13-.07-.26-.17-.39-.29-.13-.12-.29-.22-.47-.3-.18-.08-.42-.13-.7-.13-.34,0-.61.08-.79.23-.19.16-.28.35-.28.58,0,.15.05.29.14.42.1.13.29.25.58.35.29.11.75.22,1.37.34.73.13,1.3.32,1.73.58s.73.55.91.89c.18.34.27.7.27,1.08,0,.5-.15.95-.44,1.34-.29.39-.73.69-1.3.91-.58.22-1.28.33-2.11.33Z" fill="#1c2126"/><path d="M1131.46,618.57c-.66,0-1.23-.08-1.7-.23s-.86-.34-1.15-.57c-.29-.22-.51-.45-.66-.68-.14-.23-.22-.42-.23-.58-.01-.12.03-.21.11-.29.09-.07.17-.11.26-.11h1.55s.08,0,.1.02c.03.01.06.04.1.08.14.1.28.21.42.33.14.12.32.23.52.31.2.09.45.13.74.13.35,0,.65-.07.89-.22.24-.14.36-.35.36-.62,0-.19-.05-.35-.16-.48s-.31-.25-.62-.35c-.31-.11-.77-.22-1.38-.35-.58-.13-1.07-.3-1.47-.51-.41-.21-.71-.48-.91-.81-.2-.33-.3-.72-.3-1.18,0-.42.13-.82.39-1.2.26-.38.65-.7,1.16-.95.51-.25,1.15-.38,1.92-.38.59,0,1.1.07,1.54.22.44.14.81.33,1.11.54s.53.44.68.67.24.43.25.6c.01.12-.02.21-.1.29s-.16.11-.26.11h-1.42c-.05,0-.1-.01-.14-.03s-.08-.05-.11-.08c-.13-.07-.26-.17-.39-.29-.13-.12-.29-.22-.47-.3-.18-.08-.42-.13-.7-.13-.34,0-.61.08-.79.23-.19.16-.28.35-.28.58,0,.15.05.29.14.42.1.13.29.25.58.35.29.11.75.22,1.37.34.73.13,1.3.32,1.73.58s.73.55.91.89c.18.34.27.7.27,1.08,0,.5-.15.95-.44,1.34-.29.39-.73.69-1.3.91-.58.22-1.28.33-2.11.33Z" fill="#1c2126"/><path d="M1137.17,618.41c-.12,0-.21-.04-.29-.11s-.11-.17-.11-.29v-1.81c0-.11.04-.2.11-.28.08-.08.17-.12.29-.12h1.81c.11,0,.2.04.28.12s.12.17.12.28v1.81c0,.12-.04.21-.12.29-.08.08-.17.11-.28.11h-1.81Z" fill="#1c2126"/><path d="M1144.9,618.57c-.79,0-1.48-.14-2.07-.43-.59-.29-1.06-.71-1.4-1.26-.34-.55-.53-1.21-.56-1.98-.01-.17-.02-.39-.02-.65s0-.48.02-.65c.03-.78.22-1.44.55-1.99.34-.55.8-.97,1.4-1.26s1.29-.43,2.08-.43c.7,0,1.31.1,1.81.3.5.2.91.45,1.23.75.32.3.56.62.72.94s.25.6.26.85c.01.12-.03.21-.11.29-.09.08-.18.11-.29.11h-1.71c-.12,0-.21-.03-.26-.08-.06-.05-.11-.14-.17-.26-.14-.37-.33-.64-.56-.8s-.53-.24-.88-.24c-.48,0-.86.15-1.13.46-.27.31-.42.79-.44,1.44-.02.42-.02.79,0,1.14.02.66.17,1.14.44,1.44.27.3.65.45,1.13.45.37,0,.67-.08.9-.24.22-.16.41-.43.54-.8.05-.12.11-.2.17-.26.06-.05.15-.08.26-.08h1.71c.11,0,.2.04.29.11.08.08.12.17.11.29-.01.18-.06.39-.16.64-.1.25-.24.5-.44.75s-.45.49-.76.71c-.31.22-.69.4-1.13.53-.44.13-.95.2-1.53.2Z" fill="#1c2126"/><path d="M1152.92,618.57c-.57,0-1.07-.11-1.52-.33s-.81-.51-1.07-.89c-.27-.37-.4-.79-.4-1.25,0-.76.31-1.35.92-1.79s1.42-.74,2.42-.9l2.1-.3v-.29c0-.42-.1-.74-.29-.96-.19-.22-.53-.34-1.01-.34-.35,0-.63.07-.84.21s-.37.32-.49.54c-.08.14-.21.21-.38.21h-1.52c-.12,0-.21-.03-.27-.1-.06-.07-.09-.15-.08-.25,0-.18.07-.39.21-.64.14-.25.35-.49.64-.73.29-.24.66-.44,1.11-.6s1-.24,1.64-.24,1.25.08,1.73.24c.48.16.87.38,1.16.67.29.29.51.62.64,1,.13.38.2.79.2,1.22v4.94c0,.12-.04.21-.11.29s-.17.11-.27.11h-1.58c-.11,0-.2-.04-.27-.11s-.11-.17-.11-.29v-.59c-.14.2-.33.39-.56.57s-.51.32-.84.42-.71.16-1.14.16ZM1153.56,616.9c.35,0,.67-.07.94-.22s.5-.38.66-.69c.16-.31.24-.7.24-1.17v-.27l-1.49.24c-.57.1-.98.24-1.25.43-.27.19-.4.43-.4.7,0,.2.06.38.18.52.12.14.28.26.48.34s.41.12.63.12Z" fill="#1c2126"/><path d="M1160.13,618.41c-.11,0-.2-.04-.28-.11-.08-.07-.12-.17-.12-.29v-7.52c0-.11.04-.2.12-.28.08-.08.17-.12.28-.12h1.57c.12,0,.21.04.29.12.07.08.11.17.11.28v.64c.27-.33.6-.59.99-.77s.84-.27,1.34-.27h.69c.12,0,.21.04.29.11.07.08.11.17.11.29v1.39c0,.11-.04.2-.11.27-.08.07-.17.11-.29.11h-1.39c-.48,0-.85.13-1.11.4-.26.27-.39.63-.39,1.1v4.24c0,.12-.04.21-.12.29-.08.08-.17.11-.28.11h-1.7Z" fill="#1c2126"/><path d="M1169.72,618.57c-.53,0-1.01-.09-1.42-.26-.42-.18-.77-.43-1.06-.77-.29-.34-.51-.74-.66-1.2s-.24-.98-.27-1.54c-.01-.2-.02-.39-.02-.55s0-.34.02-.54c.02-.55.11-1.06.26-1.52.15-.46.37-.86.66-1.19.28-.34.63-.6,1.06-.78.42-.19.9-.28,1.43-.28s1.03.09,1.42.28.72.42.98.71v-3.47c0-.12.04-.21.11-.29.08-.07.17-.11.29-.11h1.65c.12,0,.21.04.29.11.07.08.11.17.11.29v10.56c0,.12-.04.21-.11.29s-.17.11-.29.11h-1.54c-.11,0-.2-.04-.27-.11s-.11-.17-.11-.29v-.54c-.27.32-.6.58-1.01.79-.41.21-.91.31-1.52.31ZM1170.45,616.65c.39,0,.71-.09.95-.27.24-.18.42-.41.53-.69.11-.28.17-.58.18-.9.02-.2.03-.41.03-.61s-.01-.4-.03-.59c-.01-.3-.08-.58-.2-.84-.12-.26-.3-.48-.54-.65s-.54-.26-.93-.26c-.41,0-.73.09-.96.26-.24.18-.4.41-.5.7-.1.29-.16.6-.18.94-.02.33-.02.66,0,.99.02.34.08.66.18.94.1.29.27.52.5.7.23.18.55.26.96.26Z" fill="#1c2126"/><path d="M1179.86,618.57c-.66,0-1.23-.08-1.7-.23s-.86-.34-1.15-.57c-.29-.22-.51-.45-.66-.68-.14-.23-.22-.42-.23-.58-.01-.12.03-.21.11-.29.08-.07.17-.11.26-.11h1.55s.08,0,.1.02c.03.01.06.04.1.08.14.1.28.21.42.33.14.12.32.23.52.31.2.09.45.13.74.13.35,0,.65-.07.89-.22.24-.14.36-.35.36-.62,0-.19-.05-.35-.16-.48-.11-.13-.31-.25-.62-.35-.31-.11-.77-.22-1.38-.35-.58-.13-1.07-.3-1.47-.51-.41-.21-.71-.48-.91-.81-.2-.33-.3-.72-.3-1.18,0-.42.13-.82.39-1.2.26-.38.65-.7,1.16-.95.51-.25,1.15-.38,1.92-.38.59,0,1.1.07,1.54.22.44.14.81.33,1.11.54s.53.44.68.67c.15.23.24.43.25.6,0,.12-.02.21-.1.29-.07.08-.16.11-.26.11h-1.42c-.05,0-.1-.01-.14-.03-.04-.02-.08-.05-.11-.08-.13-.07-.26-.17-.39-.29-.13-.12-.29-.22-.47-.3-.18-.08-.42-.13-.7-.13-.34,0-.61.08-.79.23-.19.16-.28.35-.28.58,0,.15.05.29.14.42.1.13.29.25.58.35.29.11.75.22,1.37.34.72.13,1.3.32,1.73.58s.73.55.91.89.27.7.27,1.08c0,.5-.15.95-.44,1.34s-.73.69-1.3.91-1.28.33-2.11.33Z" fill="#1c2126"/><polygon points="1093.31 614.96 1087.74 611.74 1082.16 614.96 1093.31 621.39 1104.46 614.96 1098.89 611.74 1093.31 614.96" fill="#b7303d" stroke="#1c2126" stroke-linejoin="round" stroke-width=".33"/><polygon points="1087.74 605.3 1087.74 611.74 1082.16 614.96 1082.16 608.52 1087.74 605.3" fill="#ea4f4b" stroke="#1c2126" stroke-linejoin="round" stroke-width=".33"/><polygon points="1087.74 605.3 1087.74 611.74 1093.31 614.96 1093.31 608.52 1087.74 605.3" fill="#ff6b60" stroke="#1c2126" stroke-linejoin="round" stroke-width=".33"/><polygon points="1098.89 605.3 1098.89 611.74 1093.31 614.96 1093.31 608.52 1098.89 605.3" fill="#ea4f4b" stroke="#1c2126" stroke-linejoin="round" stroke-width=".33"/><polygon points="1098.89 605.3 1098.89 611.74 1104.46 614.96 1104.46 608.52 1098.89 605.3" fill="#ff6b60" stroke="#1c2126" stroke-linejoin="round" stroke-width=".33"/></g></svg>