<?xml version="1.0" encoding="UTF-8"?><svg xmlns="http://www.w3.org/2000/svg" viewBox="0 0 1200 630"><defs><pattern id="d" width="12.01" height="12" x="0" y="0" patternTransform="translate(0 -732)" patternUnits="userSpaceOnUse" viewBox="0 0 12.01 12"><path fill="none" stroke-width="0" d="M0 0h12.01v12H0z"/><path fill="#ff6b60" stroke-width="0" d="M0 0h7v7H0z"/><path fill="#054861" stroke-width="0" d="M7.01 0h5v7h-5zM0 12V7h12.01v5H0z" opacity="0"/></pattern></defs><path id="b" fill="#b7303d" stroke-width="0" d="M0 0h1200v498.72H0z"/><path id="c" fill="url(#d)" stroke-width="0" d="M0 0h1200v498.72H0z" opacity=".15"/><g id="e"><rect width="1065.78" height="340.64" x="67.11" y="224.36" fill="#054861" stroke="#1c2126" stroke-miterlimit="10" stroke-width="2" rx="27.17" ry="27.17"/><path fill="#fff" stroke-width="0" d="m121.16 142.17 3.81-23.91 1.62 8.18-17.28-33.99h16.99l8.53 18.47h-2.89l14.53-18.47h17.49l-28.14 34.69 4.37-8.88-3.81 23.91h-15.23ZM169.4 143.01c-4.47 0-8.18-.84-11.14-2.5-2.96-1.67-5.07-4.02-6.31-7.05-1.25-3.03-1.54-6.59-.88-10.68.61-3.85 1.93-7.08 3.95-9.66 2.02-2.58 4.58-4.52 7.69-5.82s6.53-1.94 10.3-1.94c4.51 0 8.23.83 11.14 2.5s4.98 4.01 6.21 7.02c1.22 3.01 1.5 6.58.85 10.72-.61 3.86-1.92 7.08-3.91 9.66-2 2.59-4.53 4.52-7.58 5.82-3.06 1.29-6.49 1.94-10.3 1.94Zm.77-10.79c1.65 0 3.02-.58 4.13-1.73 1.1-1.15 1.87-3.02 2.29-5.61.52-3.29.33-5.57-.56-6.84-.89-1.27-2.19-1.9-3.88-1.9s-3.02.56-4.13 1.69c-1.1 1.13-1.87 3.01-2.29 5.64-.52 3.29-.34 5.57.53 6.84.87 1.27 2.17 1.9 3.91 1.9ZM207.83 143.01c-4.65 0-7.97-1.38-9.94-4.13-1.97-2.75-2.59-6.59-1.83-11.53l3.38-21.16h14.67l-3.38 21.3c-.24 1.46-.07 2.55.49 3.28s1.5 1.09 2.82 1.09c1.55 0 2.77-.53 3.67-1.59.89-1.06 1.48-2.46 1.76-4.2l3.17-19.89h14.67l-5.71 35.96h-14.31l.92-5.92h1.13c-1.41 2.16-3.04 3.83-4.9 5.01-1.86 1.17-4.05 1.76-6.59 1.76ZM259.37 142.17l4.09-25.74c.23-1.69.45-3.4.63-5.11.19-1.72.33-3.42.42-5.11h14.1l-.14 5.71h-.78c1.41-2.21 3.15-3.85 5.22-4.94 2.07-1.08 4.44-1.62 7.12-1.62 2.54 0 4.7.6 6.49 1.8 1.79 1.2 2.91 3.09 3.38 5.68h-1.62c1.55-2.35 3.56-4.18 6.03-5.5 2.47-1.32 4.95-1.97 7.44-1.97 4.37 0 7.43 1.33 9.17 3.98 1.74 2.66 2.16 6.8 1.27 12.45l-3.24 20.38h-14.74l3.24-20.66c.28-1.74.21-3.01-.21-3.81-.42-.8-1.2-1.2-2.33-1.2-1.5 0-2.69.54-3.56 1.62-.87 1.08-1.47 2.61-1.8 4.58l-3.1 19.46h-14.67l3.24-20.66c.28-1.74.21-3.01-.21-3.81-.42-.8-1.2-1.2-2.33-1.2-1.55 0-2.75.54-3.6 1.62-.85 1.08-1.43 2.61-1.76 4.58l-3.1 19.46h-14.67ZM341.03 143.01c-3.29 0-6.09-.87-8.39-2.61-2.3-1.74-3.95-4.14-4.94-7.19-.99-3.05-1.18-6.53-.56-10.44.66-3.9 1.86-7.15 3.6-9.73s3.89-4.51 6.45-5.78c2.56-1.27 5.37-1.9 8.43-1.9 2.63 0 4.95.58 6.95 1.73s3.18 2.64 3.56 4.48l-.63.42 1.76-5.78h14.1c-.47 1.69-.88 3.4-1.23 5.11s-.67 3.42-.95 5.11l-4.09 25.74h-14.53l.92-5.78h1.2c-.99 1.97-2.48 3.57-4.48 4.79-2 1.22-4.38 1.83-7.16 1.83Zm5.5-10.79c1.69 0 3.13-.58 4.3-1.73s1.97-3.02 2.4-5.61c.52-3.29.31-5.57-.63-6.84-.94-1.27-2.3-1.9-4.09-1.9s-3.19.56-4.34 1.69-1.94 3.01-2.36 5.64c-.52 3.29-.31 5.57.63 6.84.94 1.27 2.3 1.9 4.09 1.9ZM371.85 142.17l8.25-51.9h14.67l-4.79 30.04h.14l12.41-14.1h17.63l-17.98 19.39-.07-4.72 12.55 21.3h-17.14l-8.53-14.53h-.14l-2.33 14.53h-14.67Z"/><path fill="#fff" stroke-width="0" d="M436.37 143.01c-4.75 0-8.67-.88-11.78-2.64-3.1-1.76-5.31-4.18-6.63-7.26-1.32-3.08-1.67-6.59-1.06-10.54.56-3.48 1.74-6.5 3.53-9.06 1.79-2.56 4.08-4.56 6.88-5.99 2.8-1.43 6-2.15 9.63-2.15s6.86.82 9.31 2.47c2.44 1.65 4.18 3.88 5.22 6.7 1.03 2.82 1.25 6.04.63 9.66l-.42 2.61h-22.99l.99-6.63h12.06l-1.41 1.34c.38-2.3.21-3.98-.49-5.04s-1.79-1.59-3.24-1.59c-1.08 0-2 .27-2.75.81s-1.36 1.27-1.83 2.19c-.47.92-.8 1.94-.99 3.07l-.56 3.6c-.33 2.44.11 4.34 1.3 5.68s3.47 2.01 6.8 2.01c1.46 0 2.86-.18 4.2-.53s2.81-.93 4.41-1.73l3.46 9.52a22.737 22.737 0 0 1-6.63 2.68c-2.4.56-4.94.85-7.62.85ZM475.43 142.17l5.71-35.96h14.67l-5.71 35.96h-14.67Zm6.14-40.06 2.04-12.83h15.09l-2.04 12.83h-15.09ZM516.83 143.01c-5.6 0-9.56-1.38-11.88-4.13s-3.11-6.55-2.36-11.39l1.69-10.58h-6.63l1.69-10.72h6.63l1.27-8.11 15.23-3.38-1.83 11.49h8.32l-1.69 10.72h-8.32l-1.62 10.15c-.28 1.74.02 2.89.92 3.46.89.56 1.93.85 3.1.85.75 0 1.38-.05 1.87-.14.49-.09 1.12-.26 1.87-.49l-1.76 11.14c-1.18.47-2.32.78-3.42.92s-2.13.21-3.07.21ZM569.57 143.01c-4.75 0-8.67-.88-11.78-2.64-3.1-1.76-5.31-4.18-6.63-7.26-1.32-3.08-1.67-6.59-1.06-10.54.56-3.48 1.74-6.5 3.53-9.06 1.79-2.56 4.08-4.56 6.88-5.99 2.8-1.43 6-2.15 9.63-2.15s6.86.82 9.31 2.47c2.44 1.65 4.18 3.88 5.22 6.7 1.03 2.82 1.25 6.04.63 9.66l-.42 2.61h-22.99l.99-6.63h12.06l-1.41 1.34c.38-2.3.21-3.98-.49-5.04s-1.79-1.59-3.24-1.59c-1.08 0-2 .27-2.75.81s-1.36 1.27-1.83 2.19c-.47.92-.8 1.94-.99 3.07l-.56 3.6c-.33 2.44.11 4.34 1.3 5.68s3.47 2.01 6.8 2.01c1.46 0 2.86-.18 4.2-.53s2.81-.93 4.41-1.73l3.46 9.52a22.737 22.737 0 0 1-6.63 2.68c-2.4.56-4.94.85-7.62.85ZM603.14 143.01c-3.29 0-6.09-.87-8.39-2.61-2.3-1.74-3.95-4.14-4.94-7.19-.99-3.05-1.18-6.53-.56-10.44.66-3.9 1.86-7.15 3.6-9.73s3.89-4.51 6.45-5.78c2.56-1.27 5.37-1.9 8.43-1.9 2.63 0 4.95.58 6.95 1.73s3.18 2.64 3.56 4.48l-.63.42 1.76-5.78h14.1c-.47 1.69-.88 3.4-1.23 5.11-.35 1.72-.67 3.42-.95 5.11l-4.09 25.74h-14.53l.92-5.78h1.2c-.99 1.97-2.48 3.57-4.48 4.79-2 1.22-4.38 1.83-7.16 1.83Zm5.5-10.79c1.69 0 3.13-.58 4.3-1.73s1.97-3.02 2.4-5.61c.52-3.29.3-5.57-.63-6.84-.94-1.27-2.3-1.9-4.09-1.9s-3.19.56-4.34 1.69-1.94 3.01-2.36 5.64c-.52 3.29-.31 5.57.63 6.84.94 1.27 2.3 1.9 4.09 1.9ZM649.18 143.01c-3.38 0-6.42-.31-9.1-.92s-4.91-1.43-6.7-2.47l3.67-9.45c1.79.89 3.81 1.63 6.06 2.22 2.26.59 4.47.88 6.63.88 1.5 0 2.6-.19 3.28-.56.68-.38 1.07-.87 1.16-1.48.09-.56-.04-1.01-.39-1.34-.35-.33-.88-.54-1.59-.63l-6.98-1.06c-3.34-.52-5.72-1.74-7.16-3.67-1.43-1.93-1.92-4.4-1.45-7.4.42-2.54 1.45-4.69 3.07-6.45 1.62-1.76 3.71-3.09 6.28-3.98 2.56-.89 5.39-1.34 8.5-1.34 2.68 0 5.24.26 7.69.78 2.44.52 4.54 1.39 6.28 2.61l-3.95 9.17c-1.32-.8-2.93-1.47-4.83-2.01-1.9-.54-3.63-.81-5.18-.81-1.74 0-2.99.2-3.74.6s-1.17.91-1.27 1.52c-.05.42.07.82.35 1.2s.8.61 1.55.71l6.98 1.06c3.38.47 5.81 1.63 7.26 3.49 1.46 1.86 1.93 4.36 1.41 7.51-.42 2.73-1.47 4.97-3.14 6.73-1.67 1.76-3.77 3.06-6.31 3.88-2.54.82-5.34 1.23-8.39 1.23Z"/><path fill="#fff" stroke-width="0" d="m667.17 158.17-2.19-11.28c2.35-.38 4.33-.78 5.92-1.2 1.6-.42 2.95-1.02 4.05-1.8 1.1-.78 2.03-1.8 2.79-3.07l2.4-4.02-.71 5.36-9.94-35.96h14.88l4.65 21.51h-2.54l11.99-21.51h14.88l-21.72 36.1c-1.83 3.06-3.68 5.55-5.54 7.48-1.86 1.93-3.76 3.44-5.71 4.55-1.95 1.1-4.01 1.93-6.17 2.47-2.16.54-4.51 1-7.05 1.38ZM750.02 143.01c-5.6 0-9.55-1.38-11.88-4.13s-3.12-6.55-2.36-11.39l1.69-10.58h-6.63l1.69-10.72h6.63l1.27-8.11 15.23-3.38-1.83 11.49h8.32l-1.69 10.72h-8.32l-1.62 10.15c-.28 1.74.02 2.89.92 3.46.89.56 1.93.85 3.1.85.75 0 1.38-.05 1.87-.14.49-.09 1.12-.26 1.87-.49l-1.76 11.14c-1.18.47-2.32.78-3.42.92-1.11.14-2.13.21-3.07.21ZM780.27 143.01c-4.47 0-8.18-.84-11.14-2.5s-5.07-4.02-6.31-7.05c-1.25-3.03-1.54-6.59-.88-10.68.61-3.85 1.93-7.08 3.95-9.66 2.02-2.58 4.58-4.52 7.69-5.82s6.53-1.94 10.29-1.94c4.51 0 8.23.83 11.14 2.5s4.98 4.01 6.21 7.02c1.22 3.01 1.5 6.58.85 10.72-.61 3.86-1.92 7.08-3.91 9.66-2 2.59-4.53 4.52-7.58 5.82-3.06 1.29-6.49 1.94-10.29 1.94Zm.78-10.79c1.65 0 3.02-.58 4.12-1.73s1.87-3.02 2.29-5.61c.52-3.29.33-5.57-.56-6.84-.89-1.27-2.19-1.9-3.88-1.9s-3.02.56-4.12 1.69c-1.11 1.13-1.87 3.01-2.29 5.64-.52 3.29-.34 5.57.53 6.84.87 1.27 2.17 1.9 3.91 1.9ZM846.28 143.01c-4.56 0-8.34-.88-11.35-2.64-3.01-1.76-5.16-4.17-6.45-7.23-1.29-3.05-1.63-6.51-1.02-10.37s1.94-7.08 3.98-9.66 4.67-4.52 7.86-5.82c3.2-1.29 6.79-1.94 10.79-1.94 2.12 0 4.3.28 6.56.85 2.26.56 4.04 1.36 5.36 2.4l-4.16 9.87c-.89-.66-2.03-1.17-3.42-1.55-1.39-.38-2.71-.56-3.98-.56-1.97 0-3.7.54-5.18 1.62-1.48 1.08-2.43 2.92-2.86 5.5-.38 2.3-.02 4.3 1.06 5.99 1.08 1.69 2.91 2.54 5.5 2.54 1.03 0 2.21-.21 3.53-.63 1.32-.42 2.56-.99 3.74-1.69l3.53 9.73c-1.32 1.03-3.2 1.89-5.64 2.57-2.44.68-5.05 1.02-7.83 1.02ZM881.75 143.01c-4.47 0-8.18-.84-11.14-2.5s-5.07-4.02-6.31-7.05c-1.25-3.03-1.54-6.59-.88-10.68.61-3.85 1.93-7.08 3.95-9.66 2.02-2.58 4.58-4.52 7.69-5.82s6.53-1.94 10.29-1.94c4.51 0 8.23.83 11.14 2.5s4.98 4.01 6.21 7.02c1.22 3.01 1.5 6.58.85 10.72-.61 3.86-1.92 7.08-3.91 9.66-2 2.59-4.53 4.52-7.58 5.82-3.06 1.29-6.49 1.94-10.29 1.94Zm.77-10.79c1.65 0 3.02-.58 4.12-1.73s1.87-3.02 2.29-5.61c.52-3.29.33-5.57-.56-6.84-.89-1.27-2.19-1.9-3.88-1.9s-3.02.56-4.12 1.69c-1.11 1.13-1.87 3.01-2.29 5.64-.52 3.29-.34 5.57.53 6.84.87 1.27 2.17 1.9 3.91 1.9ZM906.28 142.17l4.09-25.74c.23-1.69.45-3.4.63-5.11.19-1.72.33-3.42.42-5.11h14.1l-.14 5.71h-.78c1.41-2.21 3.15-3.85 5.22-4.94 2.07-1.08 4.44-1.62 7.12-1.62 2.54 0 4.7.6 6.49 1.8 1.79 1.2 2.91 3.09 3.38 5.68h-1.62c1.55-2.35 3.56-4.18 6.03-5.5 2.47-1.32 4.95-1.97 7.44-1.97 4.37 0 7.43 1.33 9.17 3.98 1.74 2.66 2.16 6.8 1.27 12.45l-3.24 20.38h-14.74l3.24-20.66c.28-1.74.21-3.01-.21-3.81-.42-.8-1.2-1.2-2.33-1.2-1.51 0-2.69.54-3.56 1.62-.87 1.08-1.47 2.61-1.8 4.58l-3.1 19.46h-14.67l3.24-20.66c.28-1.74.21-3.01-.21-3.81-.42-.8-1.2-1.2-2.33-1.2-1.55 0-2.75.54-3.6 1.62-.85 1.08-1.43 2.61-1.76 4.58l-3.1 19.46h-14.67ZM972.43 142.17l4.09-25.74c.23-1.69.45-3.4.63-5.11.19-1.72.33-3.42.42-5.11h14.1l-.14 5.71h-.78c1.41-2.21 3.15-3.85 5.22-4.94 2.07-1.08 4.44-1.62 7.12-1.62 2.54 0 4.7.6 6.49 1.8 1.79 1.2 2.91 3.09 3.38 5.68h-1.62c1.55-2.35 3.56-4.18 6.03-5.5 2.47-1.32 4.95-1.97 7.44-1.97 4.37 0 7.43 1.33 9.17 3.98 1.74 2.66 2.16 6.8 1.27 12.45l-3.24 20.38h-14.74l3.24-20.66c.28-1.74.21-3.01-.21-3.81-.42-.8-1.2-1.2-2.33-1.2-1.51 0-2.69.54-3.56 1.62-.87 1.08-1.47 2.61-1.8 4.58l-3.1 19.46h-14.67l3.24-20.66c.28-1.74.21-3.01-.21-3.81-.42-.8-1.2-1.2-2.33-1.2-1.55 0-2.75.54-3.6 1.62-.85 1.08-1.43 2.61-1.76 4.58l-3.1 19.46h-14.67ZM1038.57 142.17l5.71-35.96h14.67l-5.71 35.96h-14.67Zm6.14-40.06 2.04-12.83h15.09l-2.04 12.83h-15.09ZM1079.96 143.01c-5.6 0-9.55-1.38-11.88-4.13s-3.12-6.55-2.36-11.39l1.69-10.58h-6.63l1.69-10.72h6.63l1.27-8.11 15.23-3.38-1.83 11.49h8.32l-1.69 10.72h-8.32l-1.62 10.15c-.28 1.74.02 2.89.92 3.46.89.56 1.93.85 3.1.85.75 0 1.38-.05 1.87-.14.49-.09 1.12-.26 1.87-.49l-1.76 11.14c-1.18.47-2.32.78-3.42.92-1.11.14-2.13.21-3.07.21Z"/><path fill="#5cebdf" stroke="#1c2126" stroke-linejoin="round" stroke-width="2" d="M598.36 310.45H321.63v-38.36h276.73l23.75 19.18-23.75 19.18z"/><path fill="#30c8c9" stroke="#1c2126" stroke-linejoin="round" stroke-width="2" d="M386.37 310.45H109.64v-38.36h276.73l23.75 19.18-23.75 19.18z"/><path fill="none" stroke="#30c8c9" stroke-linecap="round" stroke-linejoin="round" stroke-width="2" d="m109.64 344.67 14.9 12.03-14.9 12.03"/><path fill="#fff" stroke-width="0" d="M156.1 362.6h-9.86l-2.47 8.13h-3.52l9.13-28.34h3.69l9.13 28.34h-3.65l-2.45-8.13Zm-.91-2.96-3.97-13.08h-.1l-3.99 13.08h8.05ZM175.63 354.87c.79-3.95 3.44-5.99 7.54-5.99 1.22 0 2.38.18 3.08.47v3.75c-.98-.35-2.36-.59-3.52-.59-4.71 0-7.5 3.26-7.5 8.68v6.87h6.6v2.67h-14.16v-2.67h4.3v-15.97h-4.73v-2.67h7.95v5.44h.43ZM209.94 365.24c-.65 3.52-4.03 5.89-8.5 5.89-5.85 0-9.25-3.51-9.25-9.58v-3.2c0-5.62 3.59-9.31 9.01-9.31s8.8 3.67 8.8 9.84v2.08h-14.51v.86c0 3.91 2.32 6.42 5.95 6.42 2.69 0 4.67-1.14 5.26-3h3.24Zm-14.45-6.82h11.21c0-4.06-2.08-6.52-5.52-6.52s-5.69 2.44-5.69 6.52ZM243.26 378.26v-2.93c.26.06.86.08 1.18.08 2 0 3.1-.9 3.99-3.38l.37-1.16-7.84-21.45h3.63l5.97 17.83h.26l5.95-17.83h3.55l-8.03 22.09c-1.87 5.24-3.65 6.79-7.6 6.79-.49 0-1.14-.02-1.43-.06ZM266.3 361.7v-3.22c0-5.75 3.59-9.43 9.23-9.43s9.23 3.67 9.23 9.43v3.22c0 5.75-3.59 9.43-9.23 9.43s-9.23-3.67-9.23-9.43Zm3.3-2.93v2.61c0 4.2 2.28 6.78 5.93 6.78s5.93-2.57 5.93-6.78v-2.61c0-4.18-2.28-6.77-5.93-6.77s-5.93 2.59-5.93 6.77ZM309.11 370.73h-3.2v-3.75h-.27c-1.14 2.65-3.57 4.14-6.81 4.14-4.63 0-7.15-2.77-7.15-7.88v-13.83h3.34v12.98c0 3.85 1.57 5.66 4.89 5.66 3.52 0 5.87-2.46 5.87-6.09v-12.55h3.34v21.31ZM350.19 349.01c4.44 0 7.44 2.22 7.84 5.77h-3.22c-.39-1.87-2.18-3-4.67-3-2.71 0-4.46 1.26-4.46 3.2 0 1.63 1.1 2.55 3.77 3.14l3 .69c4.14.94 6.03 2.75 6.03 5.83 0 3.93-3.28 6.48-8.33 6.48s-8.03-2.26-8.41-5.91h3.4c.49 1.96 2.38 3.1 5.13 3.1 2.91 0 4.75-1.32 4.75-3.36 0-1.69-1.04-2.59-3.75-3.2l-3.16-.73c-3.85-.88-5.75-2.83-5.75-5.85 0-3.69 3.14-6.17 7.84-6.17ZM383.69 370.73h-3.2v-3.75h-.27c-1.14 2.65-3.57 4.14-6.81 4.14-4.63 0-7.15-2.77-7.15-7.88v-13.83h3.34v12.98c0 3.85 1.57 5.66 4.89 5.66 3.52 0 5.87-2.46 5.87-6.09v-12.55h3.34v21.31ZM399.38 354.87c.79-3.95 3.44-5.99 7.54-5.99 1.22 0 2.38.18 3.08.47v3.75c-.98-.35-2.36-.59-3.52-.59-4.71 0-7.5 3.26-7.5 8.68v6.87h6.6v2.67h-14.16v-2.67h4.3v-15.97h-4.73v-2.67h7.95v5.44h.43ZM433.69 365.24c-.65 3.52-4.03 5.89-8.5 5.89-5.85 0-9.25-3.51-9.25-9.58v-3.2c0-5.62 3.59-9.31 9.01-9.31s8.8 3.67 8.8 9.84v2.08h-14.51v.86c0 3.91 2.32 6.42 5.95 6.42 2.69 0 4.67-1.14 5.26-3h3.24Zm-14.46-6.82h11.21c0-4.06-2.08-6.52-5.52-6.52s-5.69 2.44-5.69 6.52ZM449.67 342.12c4.75 0 8.15 2.96 8.15 7.13 0 2.87-1.34 5.13-4.01 6.76-2.4 1.47-3.12 2.55-3.12 4.63v1.28h-3.42v-1.79c-.04-2.61 1.16-4.36 3.81-5.99 2.26-1.41 3.08-2.65 3.08-4.71 0-2.47-1.89-4.16-4.63-4.16s-4.67 1.71-4.91 4.52h-3.32c.24-4.73 3.46-7.66 8.37-7.66Zm-3.24 26.2c0-1.55 1.2-2.79 2.69-2.79s2.69 1.24 2.69 2.79-1.2 2.79-2.69 2.79-2.69-1.24-2.69-2.79ZM604.71 370.73v-12.88h-11.98v12.88h-3.44v-28.34h3.44v12.27h11.98v-12.27h3.44v28.34h-3.44ZM632.57 365.24c-.65 3.52-4.03 5.89-8.5 5.89-5.85 0-9.25-3.51-9.25-9.58v-3.2c0-5.62 3.59-9.31 9.01-9.31s8.8 3.67 8.8 9.84v2.08h-14.51v.86c0 3.91 2.32 6.42 5.95 6.42 2.69 0 4.67-1.14 5.26-3h3.24Zm-14.45-6.82h11.21c0-4.06-2.08-6.52-5.52-6.52s-5.7 2.44-5.7 6.52ZM654.02 356.06c-.41-2.49-2.49-4.06-5.24-4.06-3.71 0-5.77 2.53-5.77 7.11v1.92c0 4.58 2.06 7.09 5.77 7.09 2.75 0 4.83-1.55 5.24-3.99h3.3c-.53 4.34-3.77 6.99-8.48 6.99-5.79 0-9.17-3.55-9.17-9.66v-2.79c0-6.11 3.38-9.66 9.17-9.66 4.71 0 7.93 2.67 8.48 7.05h-3.3ZM679.71 370.73l-7.29-10.58-2.93 2.83v7.76h-3.34v-29.67h3.34V359h.25l9.29-9.56h4.05l-8.27 8.42 8.86 12.88h-3.97ZM715.62 378.26v-2.93c.25.06.86.08 1.18.08 2 0 3.1-.9 3.99-3.38l.37-1.16-7.84-21.45h3.63l5.97 17.83h.25l5.95-17.83h3.55l-8.03 22.09c-1.87 5.24-3.65 6.79-7.6 6.79-.49 0-1.14-.02-1.43-.06ZM756.88 365.24c-.65 3.52-4.03 5.89-8.5 5.89-5.85 0-9.25-3.51-9.25-9.58v-3.2c0-5.62 3.59-9.31 9.01-9.31s8.8 3.67 8.8 9.84v2.08h-14.51v.86c0 3.91 2.32 6.42 5.95 6.42 2.69 0 4.67-1.14 5.26-3h3.24Zm-14.45-6.82h11.21c0-4.06-2.08-6.52-5.52-6.52s-5.7 2.44-5.7 6.52ZM772.83 349.01c4.44 0 7.44 2.22 7.83 5.77h-3.22c-.39-1.87-2.18-3-4.67-3-2.71 0-4.46 1.26-4.46 3.2 0 1.63 1.1 2.55 3.77 3.14l3 .69c4.14.94 6.03 2.75 6.03 5.83 0 3.93-3.28 6.48-8.33 6.48s-8.03-2.26-8.4-5.91h3.4c.49 1.96 2.38 3.1 5.12 3.1 2.91 0 4.75-1.32 4.75-3.36 0-1.69-1.04-2.59-3.75-3.2l-3.16-.73c-3.85-.88-5.75-2.83-5.75-5.85 0-3.69 3.14-6.17 7.84-6.17Z"/><path fill="#30c8c9" stroke-width="0" d="M790.66 334.72h27.84V378h-27.84z"/><path fill="#fff" stroke-width="0" d="M0 595h1200v35H0zM0 499.19h1200V595H0z"/><path fill="none" stroke="#1c2126" stroke-miterlimit="10" d="M0 499.19h1200M0 595h1200"/><path fill="#1c2126" stroke-width="0" d="M24.24 559.45v-18.76h-6.39v-2.37H33.2v2.37h-6.39v18.76h-2.58ZM44.08 559.89c-4.8 0-7.75-3.46-7.75-9.3v-3.41c0-5.84 2.94-9.3 7.75-9.3s7.75 3.46 7.75 9.3v3.41c0 5.84-2.94 9.3-7.75 9.3Zm5.14-9.31v-3.38c0-4.41-1.93-6.87-5.14-6.87s-5.14 2.46-5.14 6.87v3.38c0 4.41 1.93 6.87 5.14 6.87s5.14-2.46 5.14-6.87ZM59.97 545.58c0-1.48 1.2-2.71 2.65-2.71s2.65 1.23 2.65 2.71-1.2 2.71-2.65 2.71-2.65-1.23-2.65-2.71Zm0 11.25c0-1.48 1.2-2.7 2.65-2.7s2.65 1.21 2.65 2.7-1.2 2.71-2.65 2.71-2.65-1.21-2.65-2.71Z"/><path fill="none" stroke="#1c2126" stroke-miterlimit="10" d="M582.03 498.72V595"/><path fill="#1c2126" stroke-width="0" d="M605.51 559.45v-21.14h12.47v2.37h-9.87v7.25h9.02v2.3h-9.02v9.21h-2.59ZM625.54 551.03v8.42h-2.55v-21.14h7.09c4.19 0 6.81 2.43 6.81 6.36 0 2.77-1.54 5.04-3.94 5.83l4.31 8.95h-2.92l-3.94-8.42h-4.86Zm0-2.18h4.19c2.92 0 4.56-1.48 4.56-4.12s-1.61-4.12-4.44-4.12h-4.31v8.23ZM648.15 559.89c-4.8 0-7.75-3.46-7.75-9.3v-3.41c0-5.84 2.94-9.3 7.75-9.3s7.75 3.46 7.75 9.3v3.41c0 5.84-2.94 9.3-7.75 9.3Zm5.14-9.31v-3.38c0-4.41-1.93-6.87-5.14-6.87s-5.14 2.46-5.14 6.87v3.38c0 4.41 1.93 6.87 5.14 6.87s5.14-2.46 5.14-6.87ZM661.18 559.45h-2.31v-21.14h2.86l4.88 13.08h.19l4.86-13.08h2.86v21.14h-2.31v-8.1l.15-8.57h-.19l-4.45 11.71h-2.02l-4.45-11.71h-.19l.15 8.57v8.1ZM682.59 545.58c0-1.48 1.2-2.71 2.65-2.71s2.65 1.23 2.65 2.71-1.2 2.71-2.65 2.71-2.65-1.23-2.65-2.71Zm0 11.25c0-1.48 1.2-2.7 2.65-2.7s2.65 1.21 2.65 2.7-1.2 2.71-2.65 2.71-2.65-1.21-2.65-2.71ZM12.77 618.4c-.12 0-.21-.04-.26-.11s-.08-.17-.06-.27l2.22-10.42a.469.469 0 0 1 .46-.4h6.94c.12 0 .2.04.26.11.05.07.07.17.05.29l-.24 1.12c-.02.12-.07.21-.16.28-.09.07-.19.11-.3.11h-5.14l-.66 3.04h4.82c.12 0 .2.04.26.11.05.07.07.17.05.29l-.22 1.12c-.02.11-.08.2-.17.27-.09.07-.19.11-.31.11h-4.82l-.85 3.97a.47.47 0 0 1-.46.38h-1.41ZM25.41 618.56c-.81 0-1.49-.15-2.02-.45s-.92-.72-1.15-1.26c-.23-.54-.29-1.18-.17-1.9.03-.19.08-.43.14-.71s.11-.51.17-.7c.19-.74.49-1.37.89-1.91s.91-.96 1.54-1.26 1.36-.45 2.22-.45 1.49.15 2.02.45.93.72 1.16 1.26c.23.54.29 1.18.18 1.91-.04.19-.09.43-.14.7s-.11.51-.16.71c-.19.72-.48 1.36-.87 1.9-.39.54-.9.96-1.52 1.26s-1.38.45-2.26.45Zm.16-1.58c.58 0 1.06-.18 1.46-.54s.69-.88.87-1.58c.04-.16.09-.37.14-.62.05-.26.1-.46.13-.62.12-.69.07-1.22-.14-1.58s-.61-.54-1.18-.54-1.05.18-1.46.54-.69.88-.86 1.58c-.04.16-.09.37-.15.62s-.1.46-.12.62c-.12.69-.07 1.22.14 1.58s.6.54 1.18.54ZM31.53 618.4a.31.31 0 0 1-.25-.11c-.06-.07-.08-.17-.06-.27l1.6-7.54a.482.482 0 0 1 .47-.4h1.3c.11 0 .19.04.25.11s.08.17.06.29l-.14.66c.26-.34.58-.6.98-.78.39-.18.87-.27 1.44-.27h.78c.12 0 .2.04.26.11.05.07.07.16.05.27l-.24 1.15c-.02.11-.08.2-.17.27-.09.07-.19.11-.3.11h-1.25c-.51 0-.94.14-1.29.43-.35.28-.57.68-.68 1.19l-.94 4.4c-.02.11-.07.2-.16.27s-.19.11-.3.11h-1.39ZM44.76 618.4c-.73 0-1.29-.11-1.7-.34-.41-.22-.67-.56-.78-1-.12-.44-.11-.99.03-1.66l.78-3.63h-1.26a.31.31 0 0 1-.25-.11c-.06-.07-.08-.17-.06-.29l.19-.91c.02-.11.08-.2.17-.27.09-.07.19-.11.31-.11h1.25l.58-2.65c.02-.11.07-.2.16-.27.08-.07.18-.11.29-.11h1.3c.12 0 .21.04.26.11.06.08.08.17.06.27l-.58 2.65h2c.11 0 .19.04.25.11s.08.16.06.27l-.19.91c-.02.12-.08.21-.17.29a.43.43 0 0 1-.3.11h-2l-.74 3.47c-.06.29-.1.54-.1.74 0 .21.05.37.17.48s.33.17.62.17h1.15c.12 0 .2.04.26.11.05.08.07.17.05.27l-.21.99c-.02.11-.07.2-.16.27s-.19.11-.3.11h-1.14ZM48.07 618.4a.31.31 0 0 1-.25-.11c-.06-.07-.08-.17-.06-.27l2.26-10.59c.02-.11.07-.2.16-.27.08-.07.18-.11.29-.11h1.44c.11 0 .19.04.25.11.06.08.08.17.06.27l-.78 3.65c.34-.34.72-.62 1.14-.83.42-.21.93-.32 1.53-.32.69 0 1.26.15 1.7.44.44.29.75.71.92 1.24.17.53.18 1.17.02 1.92l-.96 4.5c-.02.11-.07.2-.16.27s-.19.11-.3.11h-1.44c-.11 0-.19-.04-.25-.11s-.08-.17-.06-.27l.93-4.4c.14-.62.11-1.1-.08-1.46-.19-.35-.58-.53-1.17-.53-.36 0-.71.08-1.03.23-.33.15-.61.38-.84.68-.23.3-.4.66-.5 1.07l-.93 4.4c-.02.11-.07.2-.16.27s-.18.11-.29.11h-1.44ZM61.51 618.56c-.78 0-1.43-.15-1.94-.46-.52-.31-.87-.76-1.07-1.35-.2-.59-.23-1.29-.09-2.13.02-.11.05-.24.08-.41.03-.17.06-.3.1-.39.21-.81.54-1.51.99-2.09.45-.58.99-1.03 1.64-1.34s1.36-.47 2.14-.47c.86 0 1.55.18 2.06.54.51.36.84.85 1.01 1.49.17.63.16 1.37 0 2.2l-.08.34c-.02.11-.08.2-.17.27-.09.08-.19.11-.31.11h-5.31a.63.63 0 0 1-.03.13c-.05.38-.05.72.02 1.03s.21.57.42.76.51.29.87.29c.3 0 .56-.04.78-.13.22-.09.41-.2.55-.31s.25-.21.33-.29c.13-.13.22-.21.29-.23.06-.03.15-.04.27-.04h1.39c.1 0 .17.03.22.1.05.06.07.14.05.24-.05.17-.19.38-.4.62-.21.24-.5.48-.86.72s-.79.43-1.29.58-1.04.23-1.64.23Zm-.69-5.03h3.54l.02-.05c.1-.42.1-.78.02-1.1s-.23-.56-.46-.74c-.22-.18-.52-.26-.9-.26s-.71.09-1.02.26c-.3.18-.56.42-.76.74s-.35.68-.43 1.1l-.02.05ZM71.06 618.4a.31.31 0 0 1-.25-.11c-.06-.07-.08-.17-.06-.27l2.26-10.59c.02-.11.07-.2.16-.27.08-.07.18-.11.29-.11h1.33c.12 0 .21.04.26.11.06.08.08.17.06.27l-2.26 10.59a.47.47 0 0 1-.46.38h-1.33ZM78.64 618.56c-.81 0-1.49-.15-2.02-.45s-.92-.72-1.15-1.26c-.23-.54-.29-1.18-.17-1.9.03-.19.08-.43.14-.71s.11-.51.17-.7c.19-.74.49-1.37.89-1.91s.91-.96 1.54-1.26 1.36-.45 2.22-.45 1.49.15 2.02.45.93.72 1.16 1.26c.23.54.29 1.18.18 1.91-.04.19-.09.43-.14.7s-.11.51-.16.71c-.19.72-.48 1.36-.87 1.9-.39.54-.9.96-1.52 1.26s-1.38.45-2.26.45Zm.16-1.58c.58 0 1.06-.18 1.46-.54s.69-.88.87-1.58c.04-.16.09-.37.14-.62.05-.26.1-.46.13-.62.12-.69.07-1.22-.14-1.58s-.61-.54-1.18-.54-1.05.18-1.46.54-.69.88-.86 1.58c-.04.16-.09.37-.15.62s-.1.46-.12.62c-.12.69-.07 1.22.14 1.58s.6.54 1.18.54ZM86.92 618.4c-.16 0-.27-.04-.34-.12s-.11-.17-.13-.28l-1.42-7.49c-.02-.14 0-.25.08-.32s.18-.11.3-.11h1.22c.12 0 .21.03.27.1.06.06.11.15.13.27l.91 5.55 3.33-5.62c.03-.06.09-.13.17-.2a.45.45 0 0 1 .31-.11h1.39c.13 0 .22.05.26.14.05.1.03.21-.06.35l-4.56 7.42c-.07.11-.16.2-.25.28-.09.08-.22.12-.38.12H86.9ZM96.66 618.56c-.78 0-1.43-.15-1.94-.46-.52-.31-.87-.76-1.07-1.35-.2-.59-.23-1.29-.09-2.13.02-.11.05-.24.08-.41.03-.17.06-.3.1-.39.21-.81.54-1.51.99-2.09.45-.58.99-1.03 1.64-1.34s1.36-.47 2.14-.47c.86 0 1.55.18 2.06.54.51.36.84.85 1.01 1.49.17.63.16 1.37 0 2.2l-.08.34c-.02.11-.08.2-.17.27-.09.08-.19.11-.31.11h-5.31a.63.63 0 0 1-.03.13c-.05.38-.05.72.02 1.03s.21.57.42.76.51.29.87.29c.3 0 .56-.04.78-.13.22-.09.41-.2.55-.31s.25-.21.33-.29c.13-.13.22-.21.29-.23.06-.03.15-.04.27-.04h1.39c.1 0 .17.03.22.1.05.06.07.14.05.24-.05.17-.19.38-.4.62-.21.24-.5.48-.86.72s-.79.43-1.29.58-1.04.23-1.64.23Zm-.69-5.03h3.54l.02-.05c.1-.42.1-.78.02-1.1s-.23-.56-.46-.74c-.22-.18-.52-.26-.9-.26s-.71.09-1.02.26c-.3.18-.56.42-.76.74s-.35.68-.43 1.1l-.02.05ZM109.56 618.56c-.81 0-1.49-.15-2.02-.45s-.92-.72-1.15-1.26c-.23-.54-.29-1.18-.17-1.9.03-.19.08-.43.14-.71s.11-.51.17-.7c.19-.74.49-1.37.89-1.91s.91-.96 1.54-1.26 1.36-.45 2.22-.45 1.49.15 2.02.45.93.72 1.16 1.26c.23.54.29 1.18.18 1.91-.04.19-.09.43-.14.7s-.11.51-.16.71c-.19.72-.48 1.36-.87 1.9-.39.54-.9.96-1.52 1.26s-1.38.45-2.26.45Zm.16-1.58c.58 0 1.06-.18 1.46-.54s.69-.88.87-1.58c.04-.16.09-.37.14-.62.05-.26.1-.46.13-.62.12-.69.07-1.22-.14-1.58s-.61-.54-1.18-.54-1.05.18-1.46.54-.69.88-.86 1.58c-.04.16-.09.37-.15.62s-.1.46-.12.62c-.12.69-.07 1.22.14 1.58s.6.54 1.18.54ZM116.42 618.4c-.12 0-.21-.04-.26-.11s-.08-.17-.06-.27l1.33-6.24h-1.3a.31.31 0 0 1-.25-.11c-.06-.07-.08-.17-.06-.29l.19-.91c.02-.11.08-.2.17-.27.09-.07.19-.11.31-.11h1.3l.13-.65c.15-.64.38-1.17.69-1.59.31-.42.7-.74 1.18-.95s1.04-.32 1.68-.32h1.28c.12 0 .2.04.26.11.05.07.07.16.05.27l-.19.91c-.02.12-.08.21-.17.29s-.19.11-.3.11h-.96c-.43 0-.76.11-.99.32-.23.21-.39.52-.46.93l-.13.58h1.98c.12 0 .2.04.26.11s.07.16.05.27l-.19.91a.469.469 0 0 1-.46.4h-1.98l-1.34 6.24c-.02.11-.07.2-.16.27s-.18.11-.29.11h-1.3ZM128.85 618.56c-.81 0-1.49-.15-2.02-.45s-.92-.72-1.15-1.26c-.23-.54-.29-1.18-.17-1.9.03-.19.08-.43.14-.71s.11-.51.17-.7c.19-.74.49-1.37.89-1.91s.91-.96 1.54-1.26 1.36-.45 2.22-.45 1.49.15 2.02.45.93.72 1.16 1.26c.23.54.29 1.18.18 1.91-.04.19-.09.43-.14.7s-.11.51-.16.71c-.19.72-.48 1.36-.87 1.9-.39.54-.9.96-1.52 1.26s-1.38.45-2.26.45Zm.16-1.58c.58 0 1.06-.18 1.46-.54s.69-.88.87-1.58c.04-.16.09-.37.14-.62.05-.26.1-.46.13-.62.12-.69.07-1.22-.14-1.58s-.61-.54-1.18-.54-1.05.18-1.46.54-.69.88-.86 1.58c-.04.16-.09.37-.15.62s-.1.46-.12.62c-.12.69-.07 1.22.14 1.58s.6.54 1.18.54ZM134.32 621.45a.31.31 0 0 1-.25-.11c-.06-.07-.08-.16-.06-.27l2.26-10.59c.02-.11.07-.2.16-.27s.18-.11.29-.11H138c.11 0 .19.04.25.11s.08.16.06.27l-.14.64c.33-.34.7-.62 1.1-.85.4-.22.93-.34 1.58-.34.55 0 1.03.09 1.42.28.39.19.7.45.92.79.22.34.37.74.44 1.21.07.46.06.97-.04 1.53-.02.18-.05.35-.09.51-.04.16-.08.34-.14.53-.13.52-.31 1.02-.54 1.48-.23.46-.52.87-.86 1.22-.34.35-.73.62-1.18.81a3.9 3.9 0 0 1-1.53.29c-.6 0-1.09-.1-1.47-.31-.38-.21-.66-.48-.83-.82l-.78 3.63c-.02.11-.07.2-.16.27a.43.43 0 0 1-.3.11h-1.36Zm4.56-4.6c.43 0 .79-.1 1.09-.3.3-.2.55-.46.74-.78.2-.33.35-.68.47-1.05.05-.16.1-.32.13-.48.03-.16.06-.32.08-.48.05-.38.06-.74.02-1.06-.04-.32-.16-.58-.36-.78-.2-.2-.51-.3-.94-.3-.45 0-.83.1-1.16.3-.33.2-.59.46-.8.78s-.35.64-.44.97c-.05.19-.1.39-.14.61-.04.21-.08.42-.11.62-.05.32-.05.63 0 .92.06.29.2.54.43.73s.56.29.98.29ZM148.13 618.56c-.78 0-1.43-.15-1.94-.46-.52-.31-.87-.76-1.07-1.35-.2-.59-.23-1.29-.09-2.13.02-.11.05-.24.08-.41.03-.17.06-.3.1-.39.21-.81.54-1.51.99-2.09.45-.58.99-1.03 1.64-1.34s1.36-.47 2.14-.47c.86 0 1.55.18 2.06.54.51.36.84.85 1.01 1.49.17.63.16 1.37 0 2.2l-.08.34c-.02.11-.08.2-.17.27-.09.08-.19.11-.31.11h-5.31a.63.63 0 0 1-.03.13c-.05.38-.05.72.02 1.03s.21.57.42.76.51.29.87.29c.3 0 .56-.04.78-.13.22-.09.41-.2.55-.31s.25-.21.33-.29c.13-.13.22-.21.29-.23.06-.03.15-.04.27-.04h1.39c.1 0 .17.03.22.1.05.06.07.14.05.24-.05.17-.19.38-.4.62-.21.24-.5.48-.86.72s-.79.43-1.29.58-1.04.23-1.64.23Zm-.69-5.03h3.54l.02-.05c.1-.42.1-.78.02-1.1s-.23-.56-.46-.74c-.22-.18-.52-.26-.9-.26s-.71.09-1.02.26c-.3.18-.56.42-.76.74s-.35.68-.43 1.1l-.02.05ZM153.96 618.4a.31.31 0 0 1-.25-.11c-.06-.07-.08-.17-.06-.27l1.6-7.55c.02-.11.08-.2.17-.27.09-.07.19-.11.3-.11h1.31c.11 0 .19.04.24.11.05.07.07.16.05.27l-.14.66c.34-.34.74-.63 1.21-.86.46-.23.99-.35 1.58-.35.73 0 1.31.15 1.74.44s.73.71.87 1.24.14 1.17-.02 1.92l-.96 4.5c-.02.11-.07.2-.16.27s-.19.11-.3.11h-1.41c-.11 0-.19-.04-.25-.11s-.08-.17-.06-.27l.93-4.4c.14-.65.12-1.14-.04-1.48-.17-.34-.56-.5-1.18-.5s-1.12.18-1.54.53c-.42.35-.7.84-.84 1.46l-.93 4.4c-.02.11-.07.2-.16.27s-.18.11-.29.11h-1.41ZM170.61 618.56c-.64 0-1.17-.07-1.59-.22-.42-.15-.75-.34-.99-.56-.24-.22-.41-.45-.5-.67-.09-.22-.13-.41-.1-.56.02-.12.08-.21.17-.28a.45.45 0 0 1 .28-.11h1.26s.08 0 .11.02c.03 0 .06.04.1.1l.37.37c.13.13.29.24.49.33.2.09.46.14.78.14.42 0 .78-.08 1.1-.25.31-.17.5-.4.57-.71.04-.22.02-.4-.08-.54s-.29-.27-.59-.38c-.3-.11-.74-.23-1.33-.36-.58-.14-1.04-.31-1.38-.53-.35-.21-.58-.48-.7-.8s-.14-.69-.04-1.12c.09-.42.29-.81.62-1.19s.77-.69 1.32-.94 1.19-.37 1.93-.37c.58 0 1.06.07 1.46.22.4.14.72.32.96.54.24.21.41.43.5.65.1.22.13.41.1.57-.01.12-.06.21-.15.28a.45.45 0 0 1-.28.11h-1.17a.32.32 0 0 1-.14-.03.272.272 0 0 1-.1-.08c-.11-.11-.22-.22-.33-.34-.11-.12-.26-.23-.43-.31-.18-.08-.42-.13-.74-.13-.41 0-.73.09-.98.26s-.41.4-.47.66c-.03.18-.01.34.06.47.07.13.25.26.54.38s.73.24 1.31.37c.69.13 1.22.32 1.59.57.37.25.61.54.72.86.11.33.13.69.04 1.08-.1.48-.33.91-.7 1.29-.37.38-.85.69-1.45.9s-1.3.33-2.11.33ZM179.52 618.56c-.81 0-1.49-.15-2.02-.45s-.92-.72-1.15-1.26c-.23-.54-.29-1.18-.17-1.9.03-.19.08-.43.14-.71s.11-.51.17-.7c.19-.74.49-1.37.89-1.91s.91-.96 1.54-1.26 1.36-.45 2.22-.45 1.49.15 2.02.45.93.72 1.16 1.26c.23.54.29 1.18.18 1.91-.04.19-.09.43-.14.7s-.11.51-.16.71c-.19.72-.48 1.36-.87 1.9-.39.54-.9.96-1.52 1.26s-1.38.45-2.26.45Zm.16-1.58c.58 0 1.06-.18 1.46-.54s.69-.88.87-1.58c.04-.16.09-.37.14-.62.05-.26.1-.46.13-.62.12-.69.07-1.22-.14-1.58s-.61-.54-1.18-.54-1.05.18-1.46.54-.69.88-.86 1.58c-.04.16-.09.37-.15.62s-.1.46-.12.62c-.12.69-.07 1.22.14 1.58s.6.54 1.18.54ZM188.45 618.56c-.69 0-1.26-.15-1.7-.44s-.73-.71-.87-1.25-.14-1.18 0-1.91l.96-4.5c.02-.11.08-.2.17-.27.09-.07.19-.11.3-.11h1.41c.11 0 .19.04.24.11s.07.16.05.27l-.93 4.4c-.1.44-.13.8-.09 1.1.04.29.16.52.36.66s.52.22.94.22c.58 0 1.08-.18 1.5-.53.43-.35.7-.84.83-1.46l.94-4.4c.02-.11.08-.2.17-.27.09-.07.19-.11.3-.11h1.39c.12 0 .2.04.26.11s.07.16.05.27l-1.6 7.55c-.02.11-.07.2-.16.27s-.19.11-.3.11h-1.3c-.11 0-.19-.04-.25-.11s-.08-.17-.06-.27l.13-.66c-.23.24-.48.46-.72.64-.25.18-.53.32-.85.42-.32.1-.71.14-1.18.14ZM195.57 618.4a.31.31 0 0 1-.25-.11c-.06-.07-.08-.17-.06-.27l1.6-7.54a.482.482 0 0 1 .47-.4h1.3c.11 0 .19.04.25.11s.08.17.06.29l-.14.66c.26-.34.58-.6.98-.78.39-.18.87-.27 1.44-.27h.78c.12 0 .2.04.26.11.05.07.07.16.05.27l-.24 1.15c-.02.11-.08.2-.17.27-.09.07-.19.11-.3.11h-1.25c-.51 0-.94.14-1.29.43-.35.28-.57.68-.68 1.19l-.94 4.4c-.02.11-.07.2-.16.27s-.19.11-.3.11h-1.39ZM205.46 618.56c-.71 0-1.34-.14-1.88-.43s-.94-.71-1.19-1.26c-.26-.55-.31-1.21-.18-1.99.03-.16.07-.37.13-.63.05-.26.1-.48.14-.65.29-1.16.82-2.07 1.6-2.71.78-.64 1.77-.97 2.98-.97.67 0 1.23.1 1.69.29.45.19.81.44 1.07.74s.44.61.54.93c.1.32.14.61.1.86a.4.4 0 0 1-.14.28c-.08.07-.17.1-.28.1h-1.46c-.11 0-.19-.03-.25-.08s-.09-.13-.1-.24c0-.43-.11-.74-.34-.93s-.56-.29-.98-.29c-.52 0-.99.17-1.4.51-.41.34-.71.87-.89 1.59-.04.19-.09.39-.13.59s-.08.38-.11.53c-.12.74-.06 1.27.16 1.6.22.33.6.5 1.12.5.42 0 .79-.09 1.12-.26s.61-.48.83-.9c.06-.12.13-.2.2-.25a.44.44 0 0 1 .26-.07h1.44c.11 0 .19.04.25.11s.07.16.04.28c-.07.23-.21.51-.41.82s-.47.62-.81.92c-.34.3-.77.54-1.29.74-.52.19-1.13.29-1.85.29ZM214.69 618.56c-.78 0-1.43-.15-1.94-.46-.52-.31-.87-.76-1.07-1.35-.2-.59-.23-1.29-.09-2.13.02-.11.05-.24.08-.41.03-.17.06-.3.1-.39.21-.81.54-1.51.99-2.09.45-.58.99-1.03 1.64-1.34s1.36-.47 2.14-.47c.86 0 1.55.18 2.06.54.51.36.84.85 1.01 1.49.17.63.16 1.37 0 2.2l-.08.34c-.02.11-.08.2-.17.27-.09.08-.19.11-.31.11h-5.31a.63.63 0 0 1-.03.13c-.05.38-.05.72.02 1.03s.21.57.42.76.51.29.87.29c.3 0 .56-.04.78-.13.22-.09.41-.2.55-.31s.25-.21.33-.29c.13-.13.22-.21.29-.23.06-.03.15-.04.27-.04h1.39c.1 0 .17.03.22.1.05.06.07.14.05.24-.05.17-.19.38-.4.62-.21.24-.5.48-.86.72s-.79.43-1.29.58-1.04.23-1.64.23Zm-.69-5.03h3.54l.02-.05c.1-.42.1-.78.02-1.1s-.23-.56-.46-.74c-.22-.18-.52-.26-.9-.26s-.71.09-1.02.26c-.3.18-.56.42-.76.74s-.35.68-.43 1.1l-.02.05ZM227.19 618.56c-.64 0-1.17-.07-1.59-.22-.42-.15-.75-.34-.99-.56-.24-.22-.41-.45-.5-.67-.09-.22-.13-.41-.1-.56.02-.12.08-.21.17-.28a.45.45 0 0 1 .28-.11h1.26s.08 0 .11.02c.03 0 .06.04.1.1l.37.37c.13.13.29.24.49.33.2.09.46.14.78.14.42 0 .78-.08 1.1-.25.31-.17.5-.4.57-.71.04-.22.02-.4-.08-.54s-.29-.27-.59-.38c-.3-.11-.74-.23-1.33-.36-.58-.14-1.04-.31-1.38-.53-.35-.21-.58-.48-.7-.8s-.14-.69-.04-1.12c.09-.42.29-.81.62-1.19s.77-.69 1.32-.94 1.19-.37 1.93-.37c.58 0 1.06.07 1.46.22.4.14.72.32.96.54.24.21.41.43.5.65.1.22.13.41.1.57-.01.12-.06.21-.15.28a.45.45 0 0 1-.28.11h-1.17a.32.32 0 0 1-.14-.03.272.272 0 0 1-.1-.08c-.11-.11-.22-.22-.33-.34-.11-.12-.26-.23-.43-.31-.18-.08-.42-.13-.74-.13-.41 0-.73.09-.98.26s-.41.4-.47.66c-.03.18-.01.34.06.47.07.13.25.26.54.38s.73.24 1.31.37c.69.13 1.22.32 1.59.57.37.25.61.54.72.86.11.33.13.69.04 1.08-.1.48-.33.91-.7 1.29-.37.38-.85.69-1.45.9s-1.3.33-2.11.33ZM236.1 618.56c-.81 0-1.49-.15-2.02-.45s-.92-.72-1.15-1.26c-.23-.54-.29-1.18-.17-1.9.03-.19.08-.43.14-.71s.11-.51.17-.7c.19-.74.49-1.37.89-1.91s.91-.96 1.54-1.26 1.36-.45 2.22-.45 1.49.15 2.02.45.93.72 1.16 1.26c.23.54.29 1.18.18 1.91-.04.19-.09.43-.14.7s-.11.51-.16.71c-.19.72-.48 1.36-.87 1.9-.39.54-.9.96-1.52 1.26s-1.38.45-2.26.45Zm.16-1.58c.58 0 1.06-.18 1.46-.54s.69-.88.87-1.58c.04-.16.09-.37.14-.62.05-.26.1-.46.13-.62.12-.69.07-1.22-.14-1.58s-.61-.54-1.18-.54-1.05.18-1.46.54-.69.88-.86 1.58c-.04.16-.09.37-.15.62s-.1.46-.12.62c-.12.69-.07 1.22.14 1.58s.6.54 1.18.54ZM242.96 618.4c-.12 0-.21-.04-.26-.11s-.08-.17-.06-.27l1.33-6.24h-1.3a.31.31 0 0 1-.25-.11c-.06-.07-.08-.17-.06-.29l.19-.91c.02-.11.08-.2.17-.27.09-.07.19-.11.31-.11h1.3l.13-.65c.15-.64.38-1.17.69-1.59.31-.42.7-.74 1.18-.95s1.04-.32 1.68-.32h1.28c.12 0 .2.04.26.11.05.07.07.16.05.27l-.19.91c-.02.12-.08.21-.17.29s-.19.11-.3.11h-.96c-.43 0-.76.11-.99.32-.23.21-.39.52-.46.93l-.13.58h1.98c.12 0 .2.04.26.11s.07.16.05.27l-.19.91a.469.469 0 0 1-.46.4h-1.98l-1.34 6.24c-.02.11-.07.2-.16.27s-.18.11-.29.11h-1.3ZM252.11 618.4c-.73 0-1.29-.11-1.7-.34-.41-.22-.67-.56-.78-1-.12-.44-.11-.99.03-1.66l.78-3.63h-1.26a.31.31 0 0 1-.25-.11c-.06-.07-.08-.17-.06-.29l.19-.91c.02-.11.08-.2.17-.27.09-.07.19-.11.31-.11h1.25l.58-2.65c.02-.11.07-.2.16-.27.08-.07.18-.11.29-.11h1.3c.12 0 .21.04.26.11.06.08.08.17.06.27l-.58 2.65h2c.11 0 .19.04.25.11s.08.16.06.27l-.19.91c-.02.12-.08.21-.17.29a.43.43 0 0 1-.3.11h-2l-.74 3.47c-.06.29-.1.54-.1.74 0 .21.05.37.17.48s.33.17.62.17h1.15c.12 0 .2.04.26.11.05.08.07.17.05.27l-.21.99c-.02.11-.07.2-.16.27s-.19.11-.3.11h-1.14ZM257.27 618.4c-.15 0-.26-.04-.32-.11a.507.507 0 0 1-.11-.29l-.72-7.49c-.01-.12.02-.22.1-.3s.18-.13.32-.13h1.12c.13 0 .22.03.28.09.06.06.09.13.1.22l.46 5.3 2.75-5.25c.04-.08.11-.15.19-.23s.2-.12.34-.12h.83c.15 0 .25.04.3.12.05.08.09.16.1.23l.58 5.25 2.69-5.3c.03-.06.09-.13.16-.2s.18-.11.3-.11h1.3c.15 0 .24.05.26.14.03.1.01.2-.04.32L264.4 618c-.06.12-.14.21-.23.29s-.21.11-.36.11h-1.06c-.15 0-.26-.04-.33-.11a.529.529 0 0 1-.14-.29l-.66-5.05-2.72 5.05a.85.85 0 0 1-.24.29c-.1.07-.22.11-.37.11h-1.04ZM271.09 618.56c-.55 0-1.02-.09-1.41-.28-.38-.19-.69-.45-.9-.79-.22-.34-.36-.74-.42-1.21-.06-.46-.05-.97.03-1.53.04-.19.08-.37.11-.52.03-.15.07-.33.11-.52.14-.53.32-1.03.55-1.49s.51-.86.85-1.21c.34-.35.73-.62 1.18-.81.45-.19.97-.29 1.56-.29.66 0 1.17.11 1.51.31.35.21.62.46.81.76l.11-.53c.02-.11.07-.2.16-.27s.18-.11.29-.11h1.26c.11 0 .19.04.26.11s.08.16.06.27l-1.62 7.55c-.02.11-.07.2-.16.27s-.18.11-.29.11h-1.26c-.12 0-.21-.04-.26-.11-.06-.07-.08-.17-.06-.27l.13-.59c-.32.33-.67.6-1.06.81-.38.21-.9.32-1.55.32Zm.72-1.71c.45 0 .83-.1 1.15-.3.32-.2.58-.46.78-.78.2-.31.34-.64.42-.97.05-.19.1-.4.14-.62s.08-.42.11-.62c.06-.32.07-.63.02-.92s-.19-.54-.41-.73c-.22-.19-.55-.29-.98-.29s-.77.1-1.06.3-.54.46-.73.78c-.19.32-.35.67-.46 1.06-.04.16-.08.32-.11.48-.03.16-.06.32-.08.48-.05.38-.07.74-.04 1.06.03.32.14.58.34.78s.5.3.92.3ZM278.05 618.4a.31.31 0 0 1-.25-.11c-.06-.07-.08-.17-.06-.27l1.6-7.54a.482.482 0 0 1 .47-.4h1.3c.11 0 .19.04.25.11s.08.17.06.29l-.14.66c.26-.34.58-.6.98-.78.39-.18.87-.27 1.44-.27h.78c.12 0 .2.04.26.11.05.07.07.16.05.27l-.24 1.15c-.02.11-.08.2-.17.27-.09.07-.19.11-.3.11h-1.25c-.51 0-.94.14-1.29.43-.35.28-.57.68-.68 1.19l-.94 4.4c-.02.11-.07.2-.16.27s-.19.11-.3.11h-1.39ZM288.05 618.56c-.78 0-1.43-.15-1.94-.46-.52-.31-.87-.76-1.07-1.35-.2-.59-.23-1.29-.09-2.13.02-.11.05-.24.08-.41.03-.17.06-.3.1-.39.21-.81.54-1.51.99-2.09.45-.58.99-1.03 1.64-1.34s1.36-.47 2.14-.47c.86 0 1.55.18 2.06.54.51.36.84.85 1.01 1.49.17.63.16 1.37 0 2.2l-.08.34c-.02.11-.08.2-.17.27-.09.08-.19.11-.31.11h-5.31a.63.63 0 0 1-.03.13c-.05.38-.05.72.02 1.03s.21.57.42.76.51.29.87.29c.3 0 .56-.04.78-.13.22-.09.41-.2.55-.31s.25-.21.33-.29c.13-.13.22-.21.29-.23.06-.03.15-.04.27-.04h1.39c.1 0 .17.03.22.1.05.06.07.14.05.24-.05.17-.19.38-.4.62-.21.24-.5.48-.86.72s-.79.43-1.29.58-1.04.23-1.64.23Zm-.69-5.03h3.54l.02-.05c.1-.42.1-.78.02-1.1s-.23-.56-.46-.74c-.22-.18-.52-.26-.9-.26s-.71.09-1.02.26c-.3.18-.56.42-.76.74s-.35.68-.43 1.1l-.02.05ZM1125.56 618.56c-.88 0-1.63-.15-2.22-.44s-1.05-.71-1.37-1.26c-.31-.54-.49-1.18-.52-1.9-.01-.21-.02-.46-.02-.73s0-.51.02-.71c.03-.74.21-1.37.54-1.91.33-.54.79-.96 1.39-1.25s1.32-.44 2.18-.44 1.56.15 2.16.44 1.06.71 1.39 1.25c.33.54.52 1.18.56 1.91.01.2.02.44.02.71s0 .52-.02.73c-.04.72-.22 1.36-.54 1.9-.31.54-.77.96-1.37 1.26s-1.33.44-2.21.44Zm0-1.77c.52 0 .92-.16 1.18-.48.26-.32.41-.79.44-1.42.01-.16.02-.37.02-.64s0-.48-.02-.64c-.03-.62-.18-1.09-.44-1.42-.26-.33-.65-.49-1.18-.49s-.92.16-1.18.49c-.27.32-.42.8-.45 1.42-.01.16-.02.37-.02.64s0 .48.02.64c.03.63.18 1.1.45 1.42s.66.48 1.18.48ZM1134.64 618.56c-.66 0-1.23-.08-1.7-.23s-.86-.34-1.15-.57c-.29-.22-.51-.45-.66-.68-.14-.23-.22-.42-.23-.58-.01-.12.03-.21.11-.29.09-.07.17-.11.26-.11h1.55s.08 0 .1.02c.03 0 .06.04.1.08.14.1.28.21.42.33.14.12.32.23.52.31.2.09.45.13.74.13.35 0 .65-.07.89-.22a.68.68 0 0 0 .36-.62c0-.19-.05-.35-.16-.48s-.31-.24-.62-.35-.77-.22-1.38-.35c-.58-.13-1.07-.3-1.47-.51-.41-.21-.71-.48-.91-.81-.2-.33-.3-.72-.3-1.18 0-.42.13-.82.39-1.2s.65-.7 1.16-.95 1.15-.38 1.92-.38c.59 0 1.1.07 1.54.22s.81.33 1.11.54.53.44.68.67c.15.23.24.43.25.6.01.12-.02.21-.1.29-.08.08-.16.11-.26.11h-1.42c-.05 0-.1-.01-.14-.03s-.08-.05-.11-.08c-.13-.07-.26-.17-.39-.29a1.72 1.72 0 0 0-.47-.3c-.18-.08-.42-.13-.7-.13-.34 0-.61.08-.79.23a.724.724 0 0 0-.14 1c.1.13.29.25.58.35.29.11.75.22 1.37.34.73.13 1.3.32 1.73.58s.73.55.91.89c.18.34.27.7.27 1.08 0 .5-.15.95-.44 1.34-.29.39-.73.69-1.3.91-.58.22-1.28.33-2.11.33ZM1143.33 618.56c-.66 0-1.23-.08-1.7-.23s-.86-.34-1.15-.57c-.29-.22-.51-.45-.66-.68-.14-.23-.22-.42-.23-.58-.01-.12.03-.21.11-.29.09-.07.17-.11.26-.11h1.55s.08 0 .1.02c.03 0 .06.04.1.08.14.1.28.21.42.33.14.12.32.23.52.31.2.09.45.13.74.13.35 0 .65-.07.89-.22a.68.68 0 0 0 .36-.62c0-.19-.05-.35-.16-.48s-.31-.24-.62-.35-.77-.22-1.38-.35c-.58-.13-1.07-.3-1.47-.51-.41-.21-.71-.48-.91-.81-.2-.33-.3-.72-.3-1.18 0-.42.13-.82.39-1.2s.65-.7 1.16-.95 1.15-.38 1.92-.38c.59 0 1.1.07 1.54.22s.81.33 1.11.54.53.44.68.67c.15.23.24.43.25.6.01.12-.02.21-.1.29-.08.08-.16.11-.26.11h-1.42c-.05 0-.1-.01-.14-.03s-.08-.05-.11-.08c-.13-.07-.26-.17-.39-.29a1.72 1.72 0 0 0-.47-.3c-.18-.08-.42-.13-.7-.13-.34 0-.61.08-.79.23a.724.724 0 0 0-.14 1c.1.13.29.25.58.35.29.11.75.22 1.37.34.73.13 1.3.32 1.73.58s.73.55.91.89c.18.34.27.7.27 1.08 0 .5-.15.95-.44 1.34-.29.39-.73.69-1.3.91-.58.22-1.28.33-2.11.33ZM1149.04 618.4c-.12 0-.21-.04-.29-.11a.4.4 0 0 1-.11-.29v-1.81c0-.11.04-.2.11-.28.08-.08.17-.12.29-.12h1.81c.11 0 .2.04.28.12s.12.17.12.28V618c0 .12-.04.21-.12.29s-.17.11-.28.11h-1.81ZM1153.56 618.4c-.12 0-.21-.04-.29-.11s-.11-.17-.11-.29v-10.56c0-.12.04-.21.11-.29a.4.4 0 0 1 .29-.11h1.6c.12 0 .21.04.29.11.08.08.11.17.11.29V618c0 .12-.04.21-.11.29a.4.4 0 0 1-.29.11h-1.6ZM1161.38 618.56c-.88 0-1.63-.15-2.22-.44s-1.05-.71-1.37-1.26c-.31-.54-.49-1.18-.52-1.9-.01-.21-.02-.46-.02-.73s0-.51.02-.71c.03-.74.21-1.37.54-1.91.33-.54.79-.96 1.39-1.25s1.32-.44 2.18-.44 1.56.15 2.16.44 1.06.71 1.39 1.25c.33.54.52 1.18.56 1.91.01.2.02.44.02.71s0 .52-.02.73c-.04.72-.22 1.36-.54 1.9-.31.54-.77.96-1.37 1.26s-1.33.44-2.21.44Zm0-1.77c.52 0 .92-.16 1.18-.48.26-.32.41-.79.44-1.42.01-.16.02-.37.02-.64s0-.48-.02-.64c-.03-.62-.18-1.09-.44-1.42-.26-.33-.65-.49-1.18-.49s-.92.16-1.18.49c-.27.32-.42.8-.45 1.42-.01.16-.02.37-.02.64s0 .48.02.64c.03.63.18 1.1.45 1.42s.66.48 1.18.48ZM1169.81 618.4c-.16 0-.28-.04-.36-.12a.95.95 0 0 1-.2-.28l-3.01-7.42s-.03-.09-.03-.14c0-.1.03-.18.1-.25a.34.34 0 0 1 .25-.11h1.55c.14 0 .24.04.31.11s.11.14.14.21l1.97 5.26 1.97-5.26c.03-.06.08-.13.14-.21.06-.07.17-.11.3-.11h1.55c.1 0 .18.04.25.11s.1.15.1.25c0 .05 0 .1-.02.14l-3.01 7.42c-.04.11-.11.2-.19.28-.09.08-.21.12-.38.12h-1.44ZM1179.6 618.56c-1.23 0-2.2-.34-2.92-1.02-.72-.68-1.1-1.67-1.14-2.98v-.67c.04-.83.23-1.54.56-2.14.33-.59.79-1.04 1.39-1.36.6-.31 1.3-.47 2.1-.47.91 0 1.66.19 2.26.55.6.37 1.05.87 1.35 1.5.3.63.46 1.36.46 2.18v.37c0 .11-.04.2-.11.28a.37.37 0 0 1-.29.12h-5.22v.11c.01.34.08.65.19.94.12.28.29.51.52.68.23.17.51.26.84.26.26 0 .47-.04.64-.12s.31-.17.42-.27.19-.19.25-.26c.1-.12.17-.19.23-.22s.15-.04.26-.04h1.7c.1 0 .18.03.25.1.07.06.1.14.09.24-.01.18-.1.4-.26.65-.17.25-.41.5-.73.74s-.72.44-1.19.6-1.02.24-1.64.24Zm-1.56-5.1h3.12v-.05c0-.37-.06-.7-.18-.98s-.3-.51-.54-.66c-.23-.16-.52-.24-.85-.24s-.61.08-.84.24c-.23.16-.41.38-.53.66-.12.28-.18.61-.18.98v.05Z"/><path fill="#b7303d" stroke="#1c2126" stroke-linejoin="round" stroke-width=".33" d="m1104.46 614.96-5.57-3.22-5.58 3.22 11.15 6.43 11.16-6.43-5.58-3.22-5.58 3.22z"/><path fill="#ea4f4b" stroke="#1c2126" stroke-linejoin="round" stroke-width=".33" d="M1098.89 605.3v6.44l-5.58 3.22v-6.44l5.58-3.22z"/><path fill="#ff6b60" stroke="#1c2126" stroke-linejoin="round" stroke-width=".33" d="M1098.89 605.3v6.44l5.57 3.22v-6.44l-5.57-3.22z"/><path fill="#ea4f4b" stroke="#1c2126" stroke-linejoin="round" stroke-width=".33" d="M1110.04 605.3v6.44l-5.58 3.22v-6.44l5.58-3.22z"/><path fill="#ff6b60" stroke="#1c2126" stroke-linejoin="round" stroke-width=".33" d="M1110.04 605.3v6.44l5.57 3.22.01-6.44-5.58-3.22z"/></g></svg>