<svg xmlns="http://www.w3.org/2000/svg" xmlns:xlink="http://www.w3.org/1999/xlink" width="1200" height="630" viewBox="0 0 1200 630"><defs><pattern id="a" width="12.01" height="12" patternUnits="userSpaceOnUse" viewBox="0 0 12.01 12"><rect width="12.01" height="12" fill="none"/><rect width="7" height="7" fill="#ff6b60"/><rect x="7.01" width="5" height="7" fill="#054861" opacity="0"/><polygon points="0 12 0 7 12.01 7 12.01 12 0 12" fill="#054861" opacity="0"/></pattern></defs><rect width="1200" height="498.72" fill="#b7303d"/><rect width="1200" height="498.72" opacity="0.15" fill="url(#a)"/><rect x="67.11" y="224.36" width="1065.78" height="340.64" rx="27.17" fill="#054861" stroke="#1c2126" stroke-miterlimit="10" stroke-width="2"/><path d="M121.16,142.17,125,118.26l1.62,8.18-17.27-34h17l8.53,18.48H132l14.53-18.48H164l-28.14,34.7,4.37-8.89-3.8,23.91Z" fill="#fff"/><path d="M169.4,143a22.42,22.42,0,0,1-11.14-2.5,14.06,14.06,0,0,1-6.32-7,19.67,19.67,0,0,1-.88-10.69,20.67,20.67,0,0,1,3.95-9.66,18.74,18.74,0,0,1,7.69-5.81A26.35,26.35,0,0,1,173,105.36a22.16,22.16,0,0,1,11.14,2.5,14,14,0,0,1,6.21,7,20,20,0,0,1,.85,10.71,21,21,0,0,1-3.92,9.67,18.53,18.53,0,0,1-7.58,5.81A26,26,0,0,1,169.4,143Zm.77-10.79a5.49,5.49,0,0,0,4.13-1.72,10.5,10.5,0,0,0,2.29-5.61q.78-4.94-.56-6.84a4.46,4.46,0,0,0-3.88-1.9,5.54,5.54,0,0,0-4.13,1.69c-1.1,1.13-1.87,3-2.29,5.64q-.78,4.93.53,6.84A4.42,4.42,0,0,0,170.17,132.22Z" fill="#fff"/><path d="M207.83,143q-7,0-9.94-4.12t-1.84-11.53l3.39-21.16H214.1l-3.38,21.3a4.18,4.18,0,0,0,.49,3.28,3.36,3.36,0,0,0,2.82,1.09,4.54,4.54,0,0,0,3.67-1.59,8.42,8.42,0,0,0,1.76-4.19l3.18-19.89H237.3l-5.71,36H217.28l.91-5.93h1.13a16.2,16.2,0,0,1-4.9,5A12.1,12.1,0,0,1,207.83,143Z" fill="#fff"/><path d="M259.37,142.17l4.09-25.74c.24-1.69.45-3.4.64-5.11s.33-3.43.42-5.12h14.1l-.14,5.71h-.77a13.78,13.78,0,0,1,5.22-4.93,15.13,15.13,0,0,1,7.12-1.62,11.45,11.45,0,0,1,6.49,1.79,8.27,8.27,0,0,1,3.38,5.68H298.3a16.34,16.34,0,0,1,6-5.5,15.75,15.75,0,0,1,7.44-2q6.56,0,9.17,4c1.73,2.66,2.16,6.81,1.26,12.45L319,142.17H304.22l3.25-20.67a6.29,6.29,0,0,0-.22-3.8,2.38,2.38,0,0,0-2.32-1.2,4.32,4.32,0,0,0-3.56,1.62,9.82,9.82,0,0,0-1.8,4.58l-3.1,19.47H281.8L285,121.5a6.39,6.39,0,0,0-.21-3.8,2.39,2.39,0,0,0-2.33-1.2,4.28,4.28,0,0,0-3.59,1.62,10,10,0,0,0-1.77,4.58L274,142.17Z" fill="#fff"/><path d="M341,143a13.51,13.51,0,0,1-8.39-2.61,14.21,14.21,0,0,1-4.94-7.19,22.54,22.54,0,0,1-.56-10.44,24.63,24.63,0,0,1,3.6-9.73,16.63,16.63,0,0,1,6.45-5.78,18.69,18.69,0,0,1,8.42-1.9,13.67,13.67,0,0,1,6.95,1.72,6.74,6.74,0,0,1,3.56,4.48l-.63.43,1.76-5.79h14.1q-.71,2.53-1.23,5.12c-.35,1.71-.67,3.42-.95,5.11l-4.09,25.74H350.55l.92-5.79h1.2a11.67,11.67,0,0,1-4.48,4.8A13.49,13.49,0,0,1,341,143Zm5.5-10.79a5.91,5.91,0,0,0,4.3-1.72,9.93,9.93,0,0,0,2.4-5.61q.78-4.94-.63-6.84a4.78,4.78,0,0,0-4.09-1.9,5.94,5.94,0,0,0-4.34,1.69q-1.73,1.69-2.36,5.64-.78,4.93.63,6.84A4.77,4.77,0,0,0,346.53,132.22Z" fill="#fff"/><path d="M371.85,142.17l8.25-51.9h14.67l-4.8,30h.14l12.41-14.11h17.63l-18,19.39-.07-4.72,12.55,21.3H397.52L389,127.64h-.14l-2.33,14.53Z" fill="#fff"/><path d="M436.37,143a23.66,23.66,0,0,1-11.78-2.64A15.09,15.09,0,0,1,418,133.1a19.05,19.05,0,0,1-1-10.54,21.67,21.67,0,0,1,3.52-9.06,18.59,18.59,0,0,1,6.88-6,20.69,20.69,0,0,1,9.62-2.15,16.37,16.37,0,0,1,9.31,2.46,13.42,13.42,0,0,1,5.22,6.7,18.76,18.76,0,0,1,.64,9.66l-.43,2.61h-23l1-6.62h12.06l-1.41,1.33q.56-3.45-.49-5a3.65,3.65,0,0,0-3.25-1.58,4.59,4.59,0,0,0-2.75.81,6.05,6.05,0,0,0-1.83,2.18,10.54,10.54,0,0,0-1,3.07l-.56,3.6q-.49,3.66,1.3,5.67t6.81,2a16.1,16.1,0,0,0,4.19-.53,23,23,0,0,0,4.41-1.72l3.45,9.52a23.07,23.07,0,0,1-6.62,2.68A33.45,33.45,0,0,1,436.37,143Z" fill="#fff"/><path d="M475.43,142.17l5.72-36h14.66l-5.71,36Zm6.14-40.06,2-12.83h15.1l-2,12.83Z" fill="#fff"/><path d="M516.83,143q-8.4,0-11.89-4.12t-2.36-11.39l1.69-10.58h-6.62l1.69-10.72H506l1.27-8.11,15.23-3.38-1.84,11.49H529l-1.7,10.72h-8.32l-1.62,10.16c-.28,1.74,0,2.89.92,3.45a5.69,5.69,0,0,0,3.1.85,10.65,10.65,0,0,0,1.87-.14,18.83,18.83,0,0,0,1.87-.5l-1.77,11.14a13.84,13.84,0,0,1-3.42.92A24.35,24.35,0,0,1,516.83,143Z" fill="#fff"/><path d="M569.57,143a23.59,23.59,0,0,1-11.77-2.64,15,15,0,0,1-6.63-7.27,19,19,0,0,1-1.06-10.54,21.55,21.55,0,0,1,3.53-9.06,18.48,18.48,0,0,1,6.87-6,20.76,20.76,0,0,1,9.63-2.15,16.33,16.33,0,0,1,9.3,2.46,13.42,13.42,0,0,1,5.22,6.7,18.65,18.65,0,0,1,.64,9.66l-.43,2.61h-23l1-6.62h12.06l-1.41,1.33c.38-2.3.21-4-.49-5a3.65,3.65,0,0,0-3.25-1.58,4.59,4.59,0,0,0-2.75.81,6.05,6.05,0,0,0-1.83,2.18,10.54,10.54,0,0,0-1,3.07l-.56,3.6q-.49,3.66,1.3,5.67t6.81,2a16.1,16.1,0,0,0,4.19-.53,23,23,0,0,0,4.41-1.72l3.46,9.52a23.13,23.13,0,0,1-6.63,2.68A33.45,33.45,0,0,1,569.57,143Z" fill="#fff"/><path d="M603.14,143a13.51,13.51,0,0,1-8.39-2.61,14.15,14.15,0,0,1-4.94-7.19,22.28,22.28,0,0,1-.56-10.44,24.48,24.48,0,0,1,3.59-9.73,16.7,16.7,0,0,1,6.45-5.78,18.73,18.73,0,0,1,8.43-1.9,13.7,13.7,0,0,1,6.95,1.72,6.8,6.8,0,0,1,3.56,4.48l-.64.43,1.77-5.79h14.1q-.71,2.53-1.23,5.12c-.36,1.71-.67,3.42-1,5.11l-4.09,25.74H612.66l.91-5.79h1.2a11.67,11.67,0,0,1-4.48,4.8A13.43,13.43,0,0,1,603.14,143Zm5.5-10.79a5.92,5.92,0,0,0,4.3-1.72,10.07,10.07,0,0,0,2.4-5.61q.76-4.94-.64-6.84a4.77,4.77,0,0,0-4.09-1.9,5.92,5.92,0,0,0-4.33,1.69c-1.16,1.13-1.94,3-2.37,5.64-.52,3.29-.3,5.57.64,6.84A4.77,4.77,0,0,0,608.64,132.22Z" fill="#fff"/><path d="M649.18,143a41.13,41.13,0,0,1-9.09-.91,24.1,24.1,0,0,1-6.7-2.47l3.67-9.45a31.11,31.11,0,0,0,6.06,2.22,26.18,26.18,0,0,0,6.63.88,7.23,7.23,0,0,0,3.28-.56,2,2,0,0,0,1.16-1.48,1.37,1.37,0,0,0-.39-1.34,2.85,2.85,0,0,0-1.58-.64l-7-1.06c-3.34-.51-5.73-1.74-7.16-3.66a9.48,9.48,0,0,1-1.45-7.41,12.33,12.33,0,0,1,3.07-6.45,15,15,0,0,1,6.28-4,25.46,25.46,0,0,1,8.49-1.34,37.63,37.63,0,0,1,7.69.77,17,17,0,0,1,6.28,2.61l-4,9.17a19.72,19.72,0,0,0-4.83-2,19.26,19.26,0,0,0-5.19-.81,8.44,8.44,0,0,0-3.73.6,2.11,2.11,0,0,0-1.27,1.51,1.62,1.62,0,0,0,.35,1.2,2.2,2.2,0,0,0,1.55.71l7,1.06q5.08.7,7.27,3.49c1.45,1.85,1.92,4.36,1.41,7.51a12.29,12.29,0,0,1-3.14,6.73,14.84,14.84,0,0,1-6.31,3.88A27.23,27.23,0,0,1,649.18,143Z" fill="#fff"/><path d="M667.17,158.17,665,146.89c2.35-.38,4.32-.77,5.92-1.2a12.53,12.53,0,0,0,4.06-1.8,9.68,9.68,0,0,0,2.78-3.06l2.4-4-.71,5.36-9.94-36h14.88L689,127.71h-2.54l12-21.51h14.88l-21.72,36.11a41.62,41.62,0,0,1-5.53,7.47,25.56,25.56,0,0,1-5.71,4.55,24.74,24.74,0,0,1-6.17,2.47Q671,157.61,667.17,158.17Z" fill="#fff"/><path d="M750,143q-8.38,0-11.88-4.12t-2.36-11.39l1.69-10.58h-6.63l1.69-10.72h6.63l1.27-8.11,15.23-3.38-1.83,11.49h8.32l-1.69,10.72h-8.32l-1.63,10.16c-.28,1.74,0,2.89.92,3.45a5.72,5.72,0,0,0,3.1.85,10.57,10.57,0,0,0,1.87-.14,17.48,17.48,0,0,0,1.87-.5l-1.76,11.14a14.07,14.07,0,0,1-3.42.92A24.62,24.62,0,0,1,750,143Z" fill="#fff"/><path d="M780.27,143a22.45,22.45,0,0,1-11.14-2.5,14,14,0,0,1-6.31-7,19.58,19.58,0,0,1-.88-10.69,20.67,20.67,0,0,1,3.95-9.66,18.71,18.71,0,0,1,7.68-5.81,26.44,26.44,0,0,1,10.3-1.94,22.21,22.21,0,0,1,11.14,2.5,14,14,0,0,1,6.21,7,19.88,19.88,0,0,1,.84,10.71,20.84,20.84,0,0,1-3.91,9.67,18.6,18.6,0,0,1-7.58,5.81A26.09,26.09,0,0,1,780.27,143Zm.78-10.79a5.47,5.47,0,0,0,4.12-1.72,10.43,10.43,0,0,0,2.29-5.61q.78-4.94-.56-6.84a4.45,4.45,0,0,0-3.88-1.9,5.52,5.52,0,0,0-4.12,1.69q-1.67,1.69-2.29,5.64-.78,4.93.52,6.84A4.44,4.44,0,0,0,781.05,132.22Z" fill="#fff"/><path d="M846.28,143a22.21,22.21,0,0,1-11.36-2.64,15,15,0,0,1-6.45-7.23,18.71,18.71,0,0,1-1-10.37,20.49,20.49,0,0,1,4-9.66,18.89,18.89,0,0,1,7.86-5.81,28.45,28.45,0,0,1,10.79-1.94,27.2,27.2,0,0,1,6.56.84,14.35,14.35,0,0,1,5.36,2.4l-4.16,9.87a10.23,10.23,0,0,0-3.42-1.55,15,15,0,0,0-4-.56,8.57,8.57,0,0,0-5.19,1.62q-2.22,1.62-2.85,5.5a8.22,8.22,0,0,0,1.06,6c1.08,1.7,2.91,2.54,5.5,2.54a11.77,11.77,0,0,0,3.52-.63,18,18,0,0,0,3.74-1.7l3.52,9.74A16.15,16.15,0,0,1,854.1,142,29,29,0,0,1,846.28,143Z" fill="#fff"/><path d="M881.75,143a22.49,22.49,0,0,1-11.15-2.5,14.09,14.09,0,0,1-6.31-7,19.67,19.67,0,0,1-.88-10.69,20.67,20.67,0,0,1,4-9.66,18.68,18.68,0,0,1,7.69-5.81,26.35,26.35,0,0,1,10.29-1.94,22.19,22.19,0,0,1,11.14,2.5,14,14,0,0,1,6.21,7,19.88,19.88,0,0,1,.84,10.71,20.84,20.84,0,0,1-3.91,9.67,18.53,18.53,0,0,1-7.58,5.81A26.07,26.07,0,0,1,881.75,143Zm.77-10.79a5.49,5.49,0,0,0,4.13-1.72,10.58,10.58,0,0,0,2.29-5.61c.51-3.29.33-5.57-.57-6.84a4.43,4.43,0,0,0-3.87-1.9,5.53,5.53,0,0,0-4.13,1.69q-1.67,1.69-2.29,5.64-.78,4.93.53,6.84A4.42,4.42,0,0,0,882.52,132.22Z" fill="#fff"/><path d="M906.28,142.17l4.09-25.74c.24-1.69.45-3.4.64-5.11s.33-3.43.42-5.12h14.11l-.15,5.71h-.77a13.78,13.78,0,0,1,5.22-4.93,15.13,15.13,0,0,1,7.12-1.62,11.45,11.45,0,0,1,6.49,1.79,8.27,8.27,0,0,1,3.38,5.68h-1.62a16.34,16.34,0,0,1,6-5.5,15.75,15.75,0,0,1,7.44-2q6.55,0,9.16,4t1.27,12.45l-3.24,20.38H951.13l3.25-20.67a6.39,6.39,0,0,0-.21-3.8,2.4,2.4,0,0,0-2.33-1.2,4.32,4.32,0,0,0-3.56,1.62,9.82,9.82,0,0,0-1.8,4.58l-3.1,19.47H928.71L932,121.5a6.39,6.39,0,0,0-.21-3.8,2.39,2.39,0,0,0-2.33-1.2,4.28,4.28,0,0,0-3.59,1.62,10,10,0,0,0-1.77,4.58L921,142.17Z" fill="#fff"/><path d="M972.43,142.17l4.09-25.74c.23-1.69.44-3.4.63-5.11s.33-3.43.43-5.12h14.1l-.14,5.71h-.78A13.78,13.78,0,0,1,996,107a15.16,15.16,0,0,1,7.12-1.62,11.45,11.45,0,0,1,6.49,1.79,8.28,8.28,0,0,1,3.39,5.68h-1.63a16.49,16.49,0,0,1,6-5.5,15.75,15.75,0,0,1,7.44-2q6.56,0,9.17,4t1.27,12.45L1032,142.17h-14.73l3.24-20.67a6.39,6.39,0,0,0-.21-3.8,2.39,2.39,0,0,0-2.33-1.2,4.33,4.33,0,0,0-3.56,1.62,9.82,9.82,0,0,0-1.8,4.58l-3.1,19.47H994.85l3.25-20.67a6.29,6.29,0,0,0-.22-3.8,2.38,2.38,0,0,0-2.32-1.2,4.32,4.32,0,0,0-3.6,1.62,10.14,10.14,0,0,0-1.76,4.58l-3.1,19.47Z" fill="#fff"/><path d="M1038.57,142.17l5.71-36H1059l-5.71,36Zm6.14-40.06,2-12.83h15.09l-2,12.83Z" fill="#fff"/><path d="M1080,143q-8.39,0-11.88-4.12t-2.36-11.39l1.69-10.58h-6.63l1.7-10.72h6.62l1.27-8.11,15.24-3.38-1.84,11.49h8.32l-1.69,10.72h-8.32l-1.62,10.16c-.29,1.74,0,2.89.91,3.45a5.75,5.75,0,0,0,3.11.85,10.73,10.73,0,0,0,1.87-.14,18,18,0,0,0,1.86-.5l-1.76,11.14a14,14,0,0,1-3.42.92A24.5,24.5,0,0,1,1080,143Z" fill="#fff"/><polygon points="598.36 310.45 321.63 310.45 321.63 272.09 598.36 272.09 622.11 291.27 598.36 310.45" fill="#5cebdf" stroke="#1c2126" stroke-linejoin="round" stroke-width="2"/><polygon points="386.37 310.45 109.64 310.45 109.64 272.09 386.37 272.09 410.12 291.27 386.37 310.45" fill="#30c8c9" stroke="#1c2126" stroke-linejoin="round" stroke-width="2"/><polyline points="109.64 344.67 124.54 356.7 109.64 368.73" fill="none" stroke="#30c8c9" stroke-linecap="round" stroke-linejoin="round" stroke-width="2"/><path d="M156.1,362.6h-9.86l-2.48,8.13h-3.51l9.13-28.33h3.69l9.13,28.33h-3.65Zm-9-3h8.05l-4-13.08h-.09Z" fill="#fff"/><path d="M175.24,368.06h6.6v2.67H167.68v-2.67H172v-16h-4.73v-2.67h7.95v5.44h.43c.79-3.95,3.44-6,7.54-6a8.69,8.69,0,0,1,3.09.47v3.75a11.39,11.39,0,0,0-3.52-.59c-4.71,0-7.5,3.26-7.5,8.68Z" fill="#fff"/><path d="M209.94,365.24c-.65,3.51-4,5.89-8.5,5.89-5.85,0-9.25-3.52-9.25-9.59v-3.2c0-5.61,3.59-9.31,9-9.31s8.8,3.68,8.8,9.84V361H195.49v.86c0,3.91,2.31,6.42,5.95,6.42,2.69,0,4.67-1.14,5.26-3Zm-14.45-6.82H206.7c0-4.06-2.08-6.52-5.52-6.52S195.49,354.34,195.49,358.42Z" fill="#fff"/><path d="M243.26,378.26v-2.93a7.38,7.38,0,0,0,1.18.08c2,0,3.11-.91,4-3.38l.37-1.16L241,349.43h3.63l6,17.83h.26l5.95-17.83h3.55l-8,22.09c-1.87,5.24-3.65,6.79-7.6,6.79C244.21,378.31,243.56,378.29,243.26,378.26Z" fill="#fff"/><path d="M266.3,361.7v-3.22c0-5.75,3.59-9.43,9.23-9.43s9.23,3.68,9.23,9.43v3.22c0,5.76-3.59,9.43-9.23,9.43S266.3,367.46,266.3,361.7Zm3.3-2.93v2.62c0,4.2,2.28,6.77,5.93,6.77s5.93-2.57,5.93-6.77v-2.62c0-4.18-2.28-6.77-5.93-6.77S269.6,354.59,269.6,358.77Z" fill="#fff"/><path d="M309.11,370.73h-3.2V367h-.28a6.94,6.94,0,0,1-6.81,4.15c-4.64,0-7.15-2.77-7.15-7.88V349.43H295v13c0,3.85,1.57,5.65,4.89,5.65,3.51,0,5.87-2.45,5.87-6.08V349.43h3.34Z" fill="#fff"/><path d="M350.19,349c4.44,0,7.44,2.22,7.84,5.78h-3.22c-.4-1.87-2.19-3-4.68-3-2.71,0-4.46,1.26-4.46,3.2,0,1.63,1.1,2.56,3.77,3.15l3,.68c4.14.95,6,2.75,6,5.84,0,3.92-3.28,6.48-8.33,6.48-4.83,0-8-2.26-8.4-5.91h3.39c.49,2,2.38,3.1,5.13,3.1,2.91,0,4.75-1.32,4.75-3.36,0-1.69-1-2.59-3.75-3.2l-3.16-.73c-3.85-.88-5.76-2.82-5.76-5.85C342.35,351.49,345.5,349,350.19,349Z" fill="#fff"/><path d="M383.69,370.73h-3.2V367h-.27a7,7,0,0,1-6.82,4.15c-4.63,0-7.15-2.77-7.15-7.88V349.43h3.34v13c0,3.85,1.57,5.65,4.89,5.65,3.52,0,5.87-2.45,5.87-6.08V349.43h3.34Z" fill="#fff"/><path d="M399,368.06h6.6v2.67H391.43v-2.67h4.3v-16H391v-2.67H399v5.44h.43c.79-3.95,3.44-6,7.54-6a8.69,8.69,0,0,1,3.09.47v3.75a11.44,11.44,0,0,0-3.52-.59c-4.71,0-7.5,3.26-7.5,8.68Z" fill="#fff"/><path d="M433.69,365.24c-.65,3.51-4,5.89-8.5,5.89-5.86,0-9.25-3.52-9.25-9.59v-3.2c0-5.61,3.59-9.31,9-9.31s8.8,3.68,8.8,9.84V361H419.23v.86c0,3.91,2.32,6.42,6,6.42,2.69,0,4.67-1.14,5.26-3Zm-14.46-6.82h11.22c0-4.06-2.08-6.52-5.52-6.52S419.23,354.34,419.23,358.42Z" fill="#fff"/><path d="M449.67,342.12c4.76,0,8.15,3,8.15,7.13a7.57,7.57,0,0,1-4,6.76c-2.4,1.47-3.13,2.55-3.13,4.63v1.28h-3.41v-1.79c0-2.61,1.16-4.36,3.81-6,2.26-1.41,3.08-2.65,3.08-4.71,0-2.48-1.89-4.17-4.63-4.17a4.58,4.58,0,0,0-4.91,4.52h-3.32C441.54,345.05,444.76,342.12,449.67,342.12Zm-3.24,26.2a2.69,2.69,0,1,1,2.69,2.79A2.73,2.73,0,0,1,446.43,368.32Z" fill="#fff"/><path d="M604.71,370.73V357.85h-12v12.88h-3.44V342.4h3.44v12.27h12V342.4h3.44v28.33Z" fill="#fff"/><path d="M632.57,365.24c-.64,3.51-4,5.89-8.5,5.89-5.85,0-9.25-3.52-9.25-9.59v-3.2c0-5.61,3.6-9.31,9-9.31s8.79,3.68,8.79,9.84V361H618.12v.86c0,3.91,2.32,6.42,6,6.42,2.69,0,4.68-1.14,5.26-3Zm-14.45-6.82h11.21c0-4.06-2.08-6.52-5.51-6.52S618.12,354.34,618.12,358.42Z" fill="#fff"/><path d="M654,356.06c-.41-2.49-2.5-4.06-5.24-4.06-3.72,0-5.78,2.53-5.78,7.11V361c0,4.58,2.06,7.09,5.78,7.09,2.74,0,4.83-1.55,5.24-4h3.3c-.53,4.34-3.77,7-8.49,7-5.79,0-9.17-3.56-9.17-9.67v-2.78c0-6.11,3.38-9.67,9.17-9.67,4.72,0,7.94,2.68,8.49,7.05Z" fill="#fff"/><path d="M679,349.43h4l-8.26,8.44,8.85,12.86h-4l-7.27-10.58-3,2.83v7.75h-3.34V341.06h3.34V359h.26Z" fill="#fff"/><path d="M715.62,378.26v-2.93a7.3,7.3,0,0,0,1.18.08c2,0,3.1-.91,4-3.38l.37-1.16-7.84-21.44H717l6,17.83h.25l6-17.83h3.56l-8,22.09c-1.86,5.24-3.65,6.79-7.6,6.79C716.56,378.31,715.92,378.29,715.62,378.26Z" fill="#fff"/><path d="M756.88,365.24c-.65,3.51-4,5.89-8.5,5.89-5.86,0-9.25-3.52-9.25-9.59v-3.2c0-5.61,3.59-9.31,9-9.31s8.8,3.68,8.8,9.84V361H742.43v.86c0,3.91,2.31,6.42,6,6.42,2.69,0,4.67-1.14,5.26-3Zm-14.45-6.82h11.21c0-4.06-2.08-6.52-5.52-6.52S742.43,354.34,742.43,358.42Z" fill="#fff"/><path d="M772.83,349c4.43,0,7.44,2.22,7.83,5.78h-3.22c-.39-1.87-2.18-3-4.67-3-2.71,0-4.46,1.26-4.46,3.2,0,1.63,1.1,2.56,3.77,3.15l3,.68c4.15.95,6,2.75,6,5.84,0,3.92-3.28,6.48-8.32,6.48-4.83,0-8-2.26-8.41-5.91h3.4c.49,2,2.37,3.1,5.12,3.1,2.91,0,4.76-1.32,4.76-3.36,0-1.69-1-2.59-3.75-3.2l-3.17-.73c-3.85-.88-5.75-2.82-5.75-5.85C765,351.49,768.13,349,772.83,349Z" fill="#fff"/><rect x="790.66" y="334.72" width="27.84" height="43.28" fill="#30c8c9"/><rect y="595" width="1200" height="35" fill="#fff"/><rect y="499.19" width="1200" height="95.81" fill="#fff"/><line y1="499.19" x2="1200" y2="499.19" fill="none" stroke="#1c2126" stroke-miterlimit="10"/><line y1="595" x2="1200" y2="595" fill="none" stroke="#1c2126" stroke-miterlimit="10"/><path d="M24.24,559.45V540.69H17.85v-2.37H33.21v2.37H26.82v18.76Z" fill="#1c2126"/><path d="M44.08,559.89c-4.81,0-7.75-3.45-7.75-9.3v-3.41c0-5.85,2.94-9.3,7.75-9.3s7.74,3.45,7.74,9.3v3.41C51.82,556.44,48.88,559.89,44.08,559.89Zm5.14-9.31v-3.39c0-4.41-1.94-6.87-5.14-6.87s-5.15,2.46-5.15,6.87v3.39c0,4.41,1.94,6.87,5.15,6.87S49.22,555,49.22,550.58Z" fill="#1c2126"/><path d="M60,545.58a2.65,2.65,0,1,1,2.65,2.71A2.7,2.7,0,0,1,60,545.58Zm0,11.25a2.65,2.65,0,1,1,2.65,2.71A2.68,2.68,0,0,1,60,556.83Z" fill="#1c2126"/><line x1="582.03" y1="498.72" x2="582.03" y2="595" fill="none" stroke="#1c2126" stroke-miterlimit="10"/><path d="M1129.73,614.6a4.72,4.72,0,1,1-4.71-4.69A4.43,4.43,0,0,1,1129.73,614.6Zm-6.82,0A2.12,2.12,0,0,0,1125,617c1.3,0,2.1-.94,2.1-2.41s-.8-2.42-2.1-2.42S1122.91,613.12,1122.91,614.6Z" fill="#1c2126"/><path d="M1138.54,612.93H1136c0-.57-.52-1-1.37-1s-1.25.3-1.25.72.19.62,1.2.8l1.2.19c2.3.39,2.91,1.43,2.91,2.79,0,1.74-1.39,2.85-3.92,2.85-2.72,0-4.08-1.3-4.08-3.09h2.48c0,.65.53,1.1,1.7,1.1.88,0,1.33-.3,1.33-.75s-.26-.72-1.3-.9l-1.25-.21c-2.11-.33-2.77-1.39-2.77-2.67,0-1.58,1.3-2.8,3.78-2.8S1138.54,611.24,1138.54,612.93Z" fill="#1c2126"/><path d="M1147.49,612.93H1145c0-.57-.53-1-1.38-1s-1.25.3-1.25.72.2.62,1.2.8l1.2.19c2.31.39,2.92,1.43,2.92,2.79,0,1.74-1.39,2.85-3.92,2.85-2.72,0-4.09-1.3-4.09-3.09h2.49c0,.65.52,1.1,1.69,1.1.88,0,1.33-.3,1.33-.75s-.26-.72-1.3-.9l-1.24-.21c-2.12-.33-2.77-1.39-2.77-2.67,0-1.58,1.29-2.8,3.77-2.8S1147.49,611.24,1147.49,612.93Z" fill="#1c2126"/><path d="M1152,617.64a1.6,1.6,0,1,1-1.6-1.62A1.55,1.55,0,0,1,1152,617.64Z" fill="#1c2126"/><path d="M1156.27,606.34v12.72h-2.5V606.34Z" fill="#1c2126"/><path d="M1167,614.6a4.71,4.71,0,1,1-4.7-4.69A4.42,4.42,0,0,1,1167,614.6Zm-6.81,0a2.12,2.12,0,0,0,2.11,2.41c1.29,0,2.1-.94,2.1-2.41s-.81-2.42-2.1-2.42S1160.16,613.12,1160.16,614.6Z" fill="#1c2126"/><path d="M1176.59,610.12l-3.26,8.94h-3l-3.29-8.94h2.64l2.17,6.32,2.16-6.32Z" fill="#1c2126"/><path d="M1186.06,615.33h-6.61a1.92,1.92,0,0,0,2,1.81,1.83,1.83,0,0,0,1.75-.8h2.66a5,5,0,1,1,.17-1.77Zm-6.58-1.71h3.94a1.87,1.87,0,0,0-2-1.58A2,2,0,0,0,1179.48,613.62Z" fill="#1c2126"/><path d="M605.51,559.45V538.32H618v2.37H608.1v7.25h9v2.3h-9v9.21Z" fill="#1c2126"/><path d="M625.54,551v8.42H623V538.32h7.09c4.19,0,6.81,2.43,6.81,6.35A5.91,5.91,0,0,1,633,550.5l4.3,9h-2.91L630.41,551Zm0-2.18h4.19c2.92,0,4.56-1.48,4.56-4.12s-1.61-4.11-4.44-4.11h-4.31Z" fill="#1c2126"/><path d="M648.15,559.89c-4.81,0-7.75-3.45-7.75-9.3v-3.41c0-5.85,2.94-9.3,7.75-9.3s7.75,3.45,7.75,9.3v3.41C655.9,556.44,653,559.89,648.15,559.89Zm5.14-9.31v-3.39c0-4.41-1.93-6.87-5.14-6.87s-5.14,2.46-5.14,6.87v3.39c0,4.41,1.93,6.87,5.14,6.87S653.29,555,653.29,550.58Z" fill="#1c2126"/><path d="M661.38,559.45h-2.3V538.32H662l4.64,13.12h.19l4.62-13.12h2.9v21.13H672v-8.11l.13-8.56H672l-4.25,11.71h-2l-4.25-11.71h-.19l.14,8.56Z" fill="#1c2126"/><path d="M682.59,545.58a2.65,2.65,0,1,1,2.65,2.71A2.7,2.7,0,0,1,682.59,545.58Zm0,11.25a2.65,2.65,0,1,1,2.65,2.71A2.68,2.68,0,0,1,682.59,556.83Z" fill="#1c2126"/><path d="M27.75,606.92v12.14h-2.7v-2.13l-4.71-5.41v7.54H17.63V606.92H20l5.09,5.85v-5.85Z" fill="#1c2126"/><path d="M38.37,615.33H31.76a1.92,1.92,0,0,0,2,1.81,1.81,1.81,0,0,0,1.74-.8H38.2a4.35,4.35,0,0,1-4.44,2.88,4.63,4.63,0,1,1,0-9.26,4.32,4.32,0,0,1,4.62,4.61Zm-6.58-1.71h3.94a1.87,1.87,0,0,0-2-1.58A2,2,0,0,0,31.79,613.62Z" fill="#1c2126"/><path d="M44.93,612.23H43v6.83H40.5v-6.83H38.82v-2.11H40.5V607.3H43v2.82h1.93Z" fill="#1c2126"/><path d="M48.9,606.34v12.72H46.4V606.34Z" fill="#1c2126"/><path d="M53.62,607.59a1.46,1.46,0,0,1-1.51,1.5,1.51,1.51,0,1,1,1.51-1.5Zm-.24,2.32v9.15h-2.5v-9.15a2.06,2.06,0,0,0,1.25.37A2,2,0,0,0,53.38,609.91Z" fill="#1c2126"/><path d="M58.55,609v1.09h1.87v2.11H58.55v6.83h-2.5v-6.83H54.61v-2.11h1.44V609a2.62,2.62,0,0,1,2.88-2.83h1.75v1.94H59.44A.78.78,0,0,0,58.55,609Z" fill="#1c2126"/><path d="M70.71,610.12l-5,11.89H63.33l1.38-3.28-3.49-8.61h2.51L66,615.69l2.32-5.57Z" fill="#1c2126"/><path d="M109.4,613c0,3.92-2.34,6.22-5.8,6.22s-5.79-2.3-5.79-6.22,2.33-6.25,5.79-6.25S109.4,609.08,109.4,613Zm-8.79,0c0,2.35,1.3,3.66,3,3.66s3-1.31,3-3.66-1.32-3.67-3-3.67S100.61,610.63,100.61,613Z" fill="#1c2126"/><path d="M120.32,610.53h-2.8c0-.89-.67-1.52-1.85-1.52s-1.7.55-1.7,1.23.38,1,1.49,1.3l1.37.32c2.65.59,3.73,1.73,3.73,3.73s-1.6,3.63-4.73,3.63-4.9-1.61-4.9-4h2.8a1.88,1.88,0,0,0,2.11,1.84c1.27,0,1.92-.63,1.92-1.44s-.38-1.09-1.57-1.35l-1.32-.27c-2.77-.56-3.72-1.87-3.72-3.73,0-2.06,1.6-3.54,4.58-3.54S120.32,608.29,120.32,610.53Z" fill="#1c2126"/><path d="M131.38,610.53h-2.8c0-.89-.67-1.52-1.86-1.52-1,0-1.69.55-1.69,1.23s.38,1,1.48,1.3l1.38.32c2.64.59,3.73,1.73,3.73,3.73s-1.6,3.63-4.74,3.63-4.9-1.61-4.9-4h2.81a1.88,1.88,0,0,0,2.11,1.84c1.26,0,1.92-.63,1.92-1.44s-.39-1.09-1.57-1.35l-1.33-.27c-2.77-.56-3.71-1.87-3.71-3.73,0-2.06,1.6-3.54,4.58-3.54S131.38,608.29,131.38,610.53Z" fill="#1c2126"/><path d="M91.16,610.11a3.62,3.62,0,0,0-1-1.22,3.91,3.91,0,0,0-2.49-1.14,3.62,3.62,0,0,0-2.51,1.37,8,8,0,0,0-1.41,2.21,6.53,6.53,0,0,0-2.39-2.73,4.09,4.09,0,0,0-3.58-.35,3,3,0,0,0-1.82,3,5,5,0,0,0,2,2.88q3.32,3,6.72,5.87l5-5.64C90.67,613.14,91.8,611.56,91.16,610.11Z" fill="#ff6b60" stroke="#ff6b60" stroke-linejoin="round"/></svg>