<svg xmlns="http://www.w3.org/2000/svg" xmlns:xlink="http://www.w3.org/1999/xlink" width="1200" height="630" viewBox="0 0 1200 630"><defs><clipPath id="a"><rect width="1200" height="498.72" fill="none"/></clipPath></defs><rect width="1200" height="498.72" fill="#ffb916"/><path d="M108.23,129.81v23.7H93V130L68.88,84.86H85.34l15.56,28.76,15.47-28.76h16Z" fill="#1c2126"/><path d="M176.88,128.28c0,15.1-9.68,26.5-26.59,26.5s-26.69-11.4-26.69-26.5,9.68-26.51,26.69-26.51S176.88,113.17,176.88,128.28Zm-38.53,0c0,8.32,4.61,13.65,11.94,13.65s11.85-5.33,11.85-13.65-4.52-13.66-11.85-13.66S138.35,120,138.35,128.28Z" fill="#1c2126"/><path d="M229.79,103v50.56H215.68v-5.43c-2.8,4-7.68,6.7-13.84,6.7-11.12,0-18.36-8.32-18.36-23.25V103h14.11v26c0,7.69,3.53,12,9,12s9.13-4.61,9.13-11.94V103Z" fill="#1c2126"/><path d="M252,91.91c0,7.33-3.7,12.76-12.21,15.47l-1.9.63-2.17-6.69,1.9-.54c4-1.18,6.06-2.9,6.88-5.52a10.2,10.2,0,0,1-1.72.18c-4.71,0-7.69-3.35-7.69-7.24,0-4.34,3.16-7.5,8-7.5C248.7,80.7,252,85.13,252,91.91Z" fill="#1c2126"/><path d="M288.5,101.77v14.84h-5.7c-8.32,0-12.12,4-12.12,12.57v24.33H256.57V103h14.11v6.87C273.84,104.85,279.72,101.77,288.5,101.77Z" fill="#1c2126"/><path d="M343.58,132.44H306.22c.73,6.06,4.8,10.22,11.49,10.22,5,0,8.32-1.63,9.86-4.52h15c-2.9,9.49-12.13,16.28-25.06,16.28-15.83,0-26.23-10.41-26.23-26.14S301.52,102,317.44,102s26.14,10.32,26.14,26.05Zm-37.18-9.68h22.26c-1-5.7-5.43-9-11.22-9A11.1,11.1,0,0,0,306.4,122.76Z" fill="#1c2126"/><path d="M461.35,124.93v28.58H447.24V127.37c0-8.32-3.35-12.66-8.69-12.66-5.15,0-8.68,4.7-8.68,12.57v26.23H415.76V127.37c0-8.32-3.35-12.66-8.69-12.66-5.15,0-8.68,4.7-8.68,12.57v26.23H384.28V103h14.11v5.52a15.18,15.18,0,0,1,13.12-6.7c6.51,0,11.66,2.72,14.92,8a17.79,17.79,0,0,1,15.29-8C453.57,101.77,461.35,110.64,461.35,124.93Z" fill="#1c2126"/><path d="M518.05,103l-28,67.21H476.36l7.77-18.55L464.42,103h14.2l12.66,31.48L504.4,103Z" fill="#1c2126"/><path d="M93.39,205.34v6.15H104v11.94H93.39v38.62H79.28V223.43H71.14V211.49h8.14v-6.06c0-9.86,5.88-16,16.28-16h9.86v10.94h-7C95,200.36,93.39,202.08,93.39,205.34Z" fill="#1c2126"/><path d="M154.9,233.2v28.85H140.79v-5.52c-3.53,4.07-9,6.43-16.46,6.43-10.59,0-17.19-5.34-17.19-14.11,0-8,5.25-14,18.45-16.29l15.2-2.53c0-4.88-3.08-7.69-8.77-7.69-5.52,0-8.14,2.35-8.51,6.24H109.22c.27-9.31,7.87-18,22.8-18C146.58,210.58,154.9,218.72,154.9,233.2Zm-14.11,7.59v-.72L129.21,242c-6.06,1-7.6,3.08-7.6,5.7,0,2.26,2.18,3.89,6.25,3.89C135.63,251.56,140.79,247.22,140.79,240.79Z" fill="#1c2126"/><path d="M212.34,211.49l-18.46,50.56h-17l-18.54-50.56h14.92l12.21,35.73,12.21-35.73Z" fill="#1c2126"/><path d="M266.88,236.81c0,15.11-9.68,26.51-26.6,26.51s-26.68-11.4-26.68-26.51,9.68-26.5,26.68-26.5S266.88,221.71,266.88,236.81Zm-38.54,0c0,8.33,4.62,13.66,11.94,13.66s11.85-5.33,11.85-13.66-4.52-13.65-11.85-13.65S228.34,228.49,228.34,236.81Z" fill="#1c2126"/><path d="M306.58,210.31v14.84h-5.7c-8.32,0-12.12,4-12.12,12.57v24.33H274.65V211.49h14.11v6.87C291.93,213.39,297.81,210.31,306.58,210.31Z" fill="#1c2126"/><path d="M329.38,197.2a8.46,8.46,0,1,1-16.92,0c0-4.71,3.17-8.51,8.41-8.51A8.17,8.17,0,0,1,329.38,197.2ZM328,210.31v51.74H313.91V210.31a11.46,11.46,0,0,0,7,2.08A11.28,11.28,0,0,0,328,210.31Z" fill="#1c2126"/><path d="M371.16,223.43H360.22v38.62H346.11V223.43h-9.5V211.49h9.5V195.57h14.11v15.92h10.94Z" fill="#1c2126"/><path d="M426.07,241H388.71c.72,6.06,4.79,10.22,11.49,10.22,5,0,8.32-1.63,9.86-4.53h15C422.18,256.17,413,263,400,263c-15.83,0-26.23-10.41-26.23-26.15s10.22-26.23,26.14-26.23,26.14,10.31,26.14,26Zm-37.18-9.68h22.25c-1-5.7-5.43-9-11.21-9A11.1,11.1,0,0,0,388.89,231.3Z" fill="#1c2126"/><path d="M123.52,298.68v71.91H109.4v-6c-3.34,4.52-8.59,7.24-15.64,7.24-13.12,0-22.35-9.41-22.35-26.51s9.23-26.5,22.35-26.5c7,0,12.3,2.71,15.64,7.15V298.68ZM109.4,345c0-8.95-4.7-14-11.57-14s-11.67,5.16-11.67,14S91,359,97.83,359,109.4,354,109.4,345Z" fill="#1c2126"/><path d="M182.94,349.51H145.58c.73,6.06,4.8,10.23,11.49,10.23,5,0,8.32-1.63,9.86-4.53h15c-2.9,9.5-12.13,16.28-25.06,16.28-15.83,0-26.23-10.4-26.23-26.14s10.22-26.23,26.14-26.23,26.14,10.31,26.14,26.05Zm-37.18-9.68H168c-1-5.69-5.43-8.95-11.22-8.95A11.1,11.1,0,0,0,145.76,339.83Z" fill="#1c2126"/><path d="M244.45,345.35c0,17.1-9.23,26.51-22.35,26.51-7,0-12.3-2.72-15.64-7.24v23.16H192.34V320h14.12v6c3.34-4.44,8.59-7.15,15.64-7.15C235.22,318.85,244.45,328.17,244.45,345.35Zm-14.75.27c0-8.77-4.88-14-11.67-14s-11.57,5.16-11.57,14c0,9.05,4.7,14.12,11.57,14.12S229.7,354.49,229.7,345.62Z" fill="#1c2126"/><path d="M301.88,349.51H264.52c.73,6.06,4.8,10.23,11.49,10.23,5,0,8.32-1.63,9.86-4.53h15c-2.9,9.5-12.12,16.28-25.06,16.28-15.83,0-26.23-10.4-26.23-26.14s10.22-26.23,26.14-26.23,26.14,10.31,26.14,26.05Zm-37.17-9.68H287c-1-5.69-5.43-8.95-11.22-8.95A11.08,11.08,0,0,0,264.71,339.83Z" fill="#1c2126"/><path d="M356.87,342v28.58H342.76V344.72c0-7.78-3.71-12.12-9.4-12.12s-9.77,4.7-9.77,12v26H309.47V320h14.12v5.69c2.8-4.07,8-6.87,14.38-6.87C349.46,318.85,356.87,327.08,356.87,342Z" fill="#1c2126"/><path d="M415.58,298.68v71.91H401.46v-6c-3.34,4.52-8.59,7.24-15.64,7.24-13.12,0-22.35-9.41-22.35-26.51s9.23-26.5,22.35-26.5c7.05,0,12.3,2.71,15.64,7.15V298.68ZM401.46,345c0-8.95-4.7-14-11.57-14s-11.67,5.16-11.67,14,4.88,14,11.67,14S401.46,354,401.46,345Z" fill="#1c2126"/><path d="M475,349.51H437.64c.73,6.06,4.8,10.23,11.49,10.23,5,0,8.32-1.63,9.86-4.53h15c-2.89,9.5-12.12,16.28-25.05,16.28-15.83,0-26.23-10.4-26.23-26.14s10.22-26.23,26.14-26.23S475,329.43,475,345.17Zm-37.18-9.68h22.26c-1-5.69-5.43-8.95-11.22-8.95A11.1,11.1,0,0,0,437.82,339.83Z" fill="#1c2126"/><path d="M530,342v28.58H515.88V344.72c0-7.78-3.71-12.12-9.41-12.12s-9.76,4.7-9.76,12v26H482.59V320h14.12v5.69c2.8-4.07,8-6.87,14.38-6.87C522.58,318.85,530,327.08,530,342Z" fill="#1c2126"/><path d="M587.61,340H572.77a9.73,9.73,0,0,0-10.13-9c-6.69,0-11.3,5.16-11.3,14.29,0,9,4.61,14.2,11.3,14.2a9.72,9.72,0,0,0,10.13-8.86h14.84c-.36,11.76-10.4,21.17-25,21.17-16.28,0-26-10.59-26-26.51s9.77-26.5,26-26.5C577.21,318.85,587.25,328.17,587.61,340Z" fill="#1c2126"/><path d="M643.23,320l-28,67.2H601.54l7.77-18.54L589.6,320h14.2l12.66,31.47L629.58,320Z" fill="#1c2126"/><g clip-path="url(#a)"><polygon points="969.79 176.12 1003.32 156.76 1036.85 176.12 1003.32 195.47 969.79 176.12" fill="#ffdd73" stroke="#1c2126" stroke-linejoin="round" stroke-width="2"/><polygon points="969.79 176.12 969.79 214.83 1003.32 234.19 1003.32 195.47 969.79 176.12" fill="#ffb916" stroke="#1c2126" stroke-linejoin="round" stroke-width="2"/><polygon points="1036.85 176.12 1036.85 214.83 1003.32 234.19 1003.32 195.47 1036.85 176.12" fill="#b7790b" stroke="#1c2126" stroke-linejoin="round" stroke-width="2"/><polygon points="1103.9 176.12 1137.43 156.76 1170.96 176.12 1137.43 195.47 1103.9 176.12" fill="#ffdd73" stroke="#1c2126" stroke-linejoin="round" stroke-width="2"/><polygon points="1103.9 176.12 1103.9 214.83 1137.43 234.19 1137.43 195.47 1103.9 176.12" fill="#ffb916" stroke="#1c2126" stroke-linejoin="round" stroke-width="2"/><polygon points="1170.96 176.12 1170.95 214.83 1137.43 234.19 1137.43 195.47 1170.96 176.12" fill="#b7790b" stroke="#1c2126" stroke-linejoin="round" stroke-width="2"/><polygon points="1170.96 176.12 1204.48 156.76 1238.01 176.12 1204.48 195.47 1170.96 176.12" fill="#ffdd73" stroke="#1c2126" stroke-linejoin="round" stroke-width="2"/><polygon points="1170.96 176.12 1170.96 214.83 1204.48 234.19 1204.48 195.47 1170.96 176.12" fill="#ffb916" stroke="#1c2126" stroke-linejoin="round" stroke-width="2"/><polygon points="1137.43 234.07 1170.96 214.71 1204.48 234.07 1170.96 253.42 1137.43 234.07" fill="#ffdd73" stroke="#1c2126" stroke-linejoin="round" stroke-width="2"/><polygon points="1137.43 234.07 1137.43 272.78 1170.96 292.14 1170.96 253.42 1137.43 234.07" fill="#ffb916" stroke="#1c2126" stroke-linejoin="round" stroke-width="2"/><polygon points="1204.48 234.07 1204.48 272.78 1170.96 292.14 1170.96 253.42 1204.48 234.07" fill="#b7790b" stroke="#1c2126" stroke-linejoin="round" stroke-width="2"/><polygon points="1070.38 234.07 1103.9 214.71 1137.43 234.07 1103.9 253.42 1070.38 234.07" fill="#ffdd73" stroke="#1c2126" stroke-linejoin="round" stroke-width="2"/><polygon points="1070.38 234.07 1070.38 272.78 1103.9 292.14 1103.9 253.42 1070.38 234.07" fill="#ffb916" stroke="#1c2126" stroke-linejoin="round" stroke-width="2"/><polygon points="1137.43 234.07 1137.43 272.78 1103.9 292.14 1103.9 253.42 1137.43 234.07" fill="#b7790b" stroke="#1c2126" stroke-linejoin="round" stroke-width="2"/><polygon points="1103.9 60.09 1137.43 40.74 1170.96 60.09 1137.43 79.45 1103.9 60.09" fill="#ffdd73" stroke="#1c2126" stroke-linejoin="round" stroke-width="2"/><polygon points="1103.9 60.09 1103.9 98.81 1137.43 118.16 1137.43 79.45 1103.9 60.09" fill="#ffb916" stroke="#1c2126" stroke-linejoin="round" stroke-width="2"/><polygon points="1170.96 60.09 1170.95 98.81 1137.43 118.16 1137.43 79.45 1170.96 60.09" fill="#b7790b" stroke="#1c2126" stroke-linejoin="round" stroke-width="2"/><polygon points="1170.96 60.09 1204.48 40.74 1238.01 60.09 1204.48 79.45 1170.96 60.09" fill="#ffdd73" stroke="#1c2126" stroke-linejoin="round" stroke-width="2"/><polygon points="1170.96 60.09 1170.96 98.81 1204.48 118.16 1204.48 79.45 1170.96 60.09" fill="#ffb916" stroke="#1c2126" stroke-linejoin="round" stroke-width="2"/><polygon points="1137.43 118.05 1170.96 98.69 1204.48 118.05 1170.96 137.4 1137.43 118.05" fill="#ffdd73" stroke="#1c2126" stroke-linejoin="round" stroke-width="2"/><polygon points="1137.43 118.05 1137.43 156.76 1170.96 176.12 1170.96 137.4 1137.43 118.05" fill="#ffb916" stroke="#1c2126" stroke-linejoin="round" stroke-width="2"/><polygon points="1204.48 118.05 1204.48 156.76 1170.96 176.12 1170.96 137.4 1204.48 118.05" fill="#b7790b" stroke="#1c2126" stroke-linejoin="round" stroke-width="2"/><polygon points="1070.38 118.05 1103.9 98.69 1137.43 118.05 1103.9 137.4 1070.38 118.05" fill="#ffdd73" stroke="#1c2126" stroke-linejoin="round" stroke-width="2"/><polygon points="1070.38 118.05 1070.38 156.76 1103.9 176.12 1103.9 137.4 1070.38 118.05" fill="#ffb916" stroke="#1c2126" stroke-linejoin="round" stroke-width="2"/><polygon points="1137.43 118.05 1137.43 156.76 1103.9 176.12 1103.9 137.4 1137.43 118.05" fill="#b7790b" stroke="#1c2126" stroke-linejoin="round" stroke-width="2"/><polygon points="1103.9 -55.93 1103.9 -17.21 1137.43 2.14 1137.43 -36.57 1103.9 -55.93" fill="#ffb916" stroke="#1c2126" stroke-linejoin="round" stroke-width="2"/><polygon points="1170.96 -55.93 1170.95 -17.21 1137.43 2.14 1137.43 -36.57 1170.96 -55.93" fill="#b7790b" stroke="#1c2126" stroke-linejoin="round" stroke-width="2"/><polygon points="1170.96 -55.93 1170.96 -17.21 1204.48 2.14 1204.48 -36.57 1170.96 -55.93" fill="#ffb916" stroke="#1c2126" stroke-linejoin="round" stroke-width="2"/><polygon points="1137.43 2.02 1170.96 -17.33 1204.48 2.02 1170.96 21.38 1137.43 2.02" fill="#ffdd73" stroke="#1c2126" stroke-linejoin="round" stroke-width="2"/><polygon points="1137.43 2.02 1137.43 40.74 1170.96 60.09 1170.96 21.38 1137.43 2.02" fill="#ffb916" stroke="#1c2126" stroke-linejoin="round" stroke-width="2"/><polygon points="1204.48 2.02 1204.48 40.74 1170.96 60.09 1170.96 21.38 1204.48 2.02" fill="#b7790b" stroke="#1c2126" stroke-linejoin="round" stroke-width="2"/><polygon points="1070.38 2.02 1103.9 -17.33 1137.43 2.02 1103.9 21.38 1070.38 2.02" fill="#ffdd73" stroke="#1c2126" stroke-linejoin="round" stroke-width="2"/><polygon points="1070.38 2.02 1070.38 40.74 1103.9 60.09 1103.9 21.38 1070.38 2.02" fill="#ffb916" stroke="#1c2126" stroke-linejoin="round" stroke-width="2"/><polygon points="1137.43 2.02 1137.43 40.74 1103.9 60.09 1103.9 21.38 1137.43 2.02" fill="#b7790b" stroke="#1c2126" stroke-linejoin="round" stroke-width="2"/><polygon points="969.79 -55.93 969.79 -17.21 1003.32 2.14 1003.32 -36.57 969.79 -55.93" fill="#ffb916" stroke="#1c2126" stroke-linejoin="round" stroke-width="2"/><polygon points="1036.85 -55.93 1036.85 -17.21 1003.32 2.14 1003.32 -36.57 1036.85 -55.93" fill="#b7790b" stroke="#1c2126" stroke-linejoin="round" stroke-width="2"/><polygon points="1036.85 -55.93 1036.85 -17.21 1070.37 2.14 1070.38 -36.57 1036.85 -55.93" fill="#ffb916" stroke="#1c2126" stroke-linejoin="round" stroke-width="2"/><polygon points="1103.9 -55.93 1103.9 -17.21 1070.37 2.14 1070.38 -36.57 1103.9 -55.93" fill="#b7790b" stroke="#1c2126" stroke-linejoin="round" stroke-width="2"/><polygon points="1003.32 2.02 1036.85 -17.33 1070.38 2.02 1036.85 21.38 1003.32 2.02" fill="#ffdd73" stroke="#1c2126" stroke-linejoin="round" stroke-width="2"/><polygon points="1003.32 2.02 1003.32 40.74 1036.85 60.09 1036.85 21.38 1003.32 2.02" fill="#ffb916" stroke="#1c2126" stroke-linejoin="round" stroke-width="2"/><polygon points="1070.38 2.02 1070.37 40.74 1036.85 60.09 1036.85 21.38 1070.38 2.02" fill="#b7790b" stroke="#1c2126" stroke-linejoin="round" stroke-width="2"/><polygon points="936.27 2.02 969.79 -17.33 1003.32 2.02 969.79 21.38 936.27 2.02" fill="#ffdd73" stroke="#1c2126" stroke-linejoin="round" stroke-width="2"/><polygon points="936.27 2.02 936.27 40.74 969.79 60.09 969.79 21.38 936.27 2.02" fill="#ffb916" stroke="#1c2126" stroke-linejoin="round" stroke-width="2"/><polygon points="1003.32 2.02 1003.32 40.74 969.79 60.09 969.79 21.38 1003.32 2.02" fill="#b7790b" stroke="#1c2126" stroke-linejoin="round" stroke-width="2"/><polygon points="835.68 -55.93 835.68 -17.21 869.21 2.14 869.21 -36.57 835.68 -55.93" fill="#ffb916" stroke="#1c2126" stroke-linejoin="round" stroke-width="2"/><polygon points="902.74 -55.93 902.74 -17.21 869.21 2.14 869.21 -36.57 902.74 -55.93" fill="#b7790b" stroke="#1c2126" stroke-linejoin="round" stroke-width="2"/><polygon points="902.74 -55.93 902.74 -17.21 936.26 2.14 936.26 -36.57 902.74 -55.93" fill="#ffb916" stroke="#1c2126" stroke-linejoin="round" stroke-width="2"/><polygon points="969.79 -55.93 969.79 -17.21 936.26 2.14 936.26 -36.57 969.79 -55.93" fill="#b7790b" stroke="#1c2126" stroke-linejoin="round" stroke-width="2"/><polygon points="869.21 2.02 902.74 -17.33 936.26 2.02 902.74 21.38 869.21 2.02" fill="#ffdd73" stroke="#1c2126" stroke-linejoin="round" stroke-width="2"/><polygon points="869.21 2.02 869.21 40.74 902.74 60.09 902.74 21.38 869.21 2.02" fill="#ffb916" stroke="#1c2126" stroke-linejoin="round" stroke-width="2"/><polygon points="936.26 2.02 936.26 40.74 902.74 60.09 902.74 21.38 936.26 2.02" fill="#b7790b" stroke="#1c2126" stroke-linejoin="round" stroke-width="2"/><polygon points="802.16 2.02 835.68 -17.33 869.21 2.02 835.68 21.38 802.16 2.02" fill="#ffdd73" stroke="#1c2126" stroke-linejoin="round" stroke-width="2"/><polygon points="802.16 2.02 802.16 40.74 835.68 60.09 835.68 21.38 802.16 2.02" fill="#ffb916" stroke="#1c2126" stroke-linejoin="round" stroke-width="2"/><polygon points="869.21 2.02 869.21 40.74 835.68 60.09 835.68 21.38 869.21 2.02" fill="#b7790b" stroke="#1c2126" stroke-linejoin="round" stroke-width="2"/><polygon points="835.68 60.09 869.21 40.74 902.74 60.09 869.21 79.45 835.68 60.09" fill="#ffdd73" stroke="#1c2126" stroke-linejoin="round" stroke-width="2"/><polygon points="835.68 60.09 835.68 98.81 869.21 118.16 869.21 79.45 835.68 60.09" fill="#ffb916" stroke="#1c2126" stroke-linejoin="round" stroke-width="2"/><polygon points="902.74 60.09 902.74 98.81 869.21 118.16 869.21 79.45 902.74 60.09" fill="#b7790b" stroke="#1c2126" stroke-linejoin="round" stroke-width="2"/><polygon points="902.74 60.09 936.26 40.74 969.79 60.09 936.26 79.45 902.74 60.09" fill="#ffdd73" stroke="#1c2126" stroke-linejoin="round" stroke-width="2"/><polygon points="902.74 60.09 902.74 98.81 936.26 118.16 936.26 79.45 902.74 60.09" fill="#ffb916" stroke="#1c2126" stroke-linejoin="round" stroke-width="2"/><polygon points="969.79 60.09 969.79 98.81 936.26 118.16 936.26 79.45 969.79 60.09" fill="#b7790b" stroke="#1c2126" stroke-linejoin="round" stroke-width="2"/><polygon points="969.79 60.09 1003.32 40.74 1036.85 60.09 1003.32 79.45 969.79 60.09" fill="#ffdd73" stroke="#1c2126" stroke-linejoin="round" stroke-width="2"/><polygon points="969.79 60.09 969.79 98.81 1003.32 118.16 1003.32 79.45 969.79 60.09" fill="#ffb916" stroke="#1c2126" stroke-linejoin="round" stroke-width="2"/><polygon points="1036.85 60.09 1036.85 98.81 1003.32 118.16 1003.32 79.45 1036.85 60.09" fill="#b7790b" stroke="#1c2126" stroke-linejoin="round" stroke-width="2"/><polygon points="1036.85 60.09 1070.37 40.74 1103.9 60.09 1070.37 79.45 1036.85 60.09" fill="#ffdd73" stroke="#1c2126" stroke-linejoin="round" stroke-width="2"/><polygon points="1036.85 60.09 1036.85 98.81 1070.37 118.16 1070.37 79.45 1036.85 60.09" fill="#ffb916" stroke="#1c2126" stroke-linejoin="round" stroke-width="2"/><polygon points="1103.9 60.09 1103.9 98.81 1070.37 118.16 1070.37 79.45 1103.9 60.09" fill="#b7790b" stroke="#1c2126" stroke-linejoin="round" stroke-width="2"/><polygon points="701.57 60.09 735.1 40.74 768.63 60.09 735.1 79.45 701.57 60.09" fill="#ffdd73" stroke="#1c2126" stroke-linejoin="round" stroke-width="2"/><polygon points="701.57 60.09 701.57 98.81 735.1 118.16 735.1 79.45 701.57 60.09" fill="#ffb916" stroke="#1c2126" stroke-linejoin="round" stroke-width="2"/><polygon points="768.63 60.09 768.63 98.81 735.1 118.16 735.1 79.45 768.63 60.09" fill="#b7790b" stroke="#1c2126" stroke-linejoin="round" stroke-width="2"/><polygon points="768.63 60.09 802.15 40.74 835.68 60.09 802.16 79.45 768.63 60.09" fill="#ffdd73" stroke="#1c2126" stroke-linejoin="round" stroke-width="2"/><polygon points="768.63 60.09 768.63 98.81 802.15 118.16 802.16 79.45 768.63 60.09" fill="#ffb916" stroke="#1c2126" stroke-linejoin="round" stroke-width="2"/><polygon points="835.68 60.09 835.68 98.81 802.15 118.16 802.16 79.45 835.68 60.09" fill="#b7790b" stroke="#1c2126" stroke-linejoin="round" stroke-width="2"/><polygon points="701.57 -55.93 701.57 -17.21 735.1 2.14 735.1 -36.57 701.57 -55.93" fill="#ffb916" stroke="#1c2126" stroke-linejoin="round" stroke-width="2"/><polygon points="768.63 -55.93 768.63 -17.21 735.1 2.14 735.1 -36.57 768.63 -55.93" fill="#b7790b" stroke="#1c2126" stroke-linejoin="round" stroke-width="2"/><polygon points="768.63 -55.93 768.63 -17.21 802.15 2.14 802.16 -36.57 768.63 -55.93" fill="#ffb916" stroke="#1c2126" stroke-linejoin="round" stroke-width="2"/><polygon points="835.68 -55.93 835.68 -17.21 802.15 2.14 802.16 -36.57 835.68 -55.93" fill="#b7790b" stroke="#1c2126" stroke-linejoin="round" stroke-width="2"/><polygon points="735.1 2.02 768.63 -17.33 802.16 2.02 768.63 21.38 735.1 2.02" fill="#ffdd73" stroke="#1c2126" stroke-linejoin="round" stroke-width="2"/><polygon points="735.1 2.02 735.1 40.74 768.63 60.09 768.63 21.38 735.1 2.02" fill="#ffb916" stroke="#1c2126" stroke-linejoin="round" stroke-width="2"/><polygon points="802.16 2.02 802.15 40.74 768.63 60.09 768.63 21.38 802.16 2.02" fill="#b7790b" stroke="#1c2126" stroke-linejoin="round" stroke-width="2"/><polygon points="668.05 2.02 701.57 -17.33 735.1 2.02 701.57 21.38 668.05 2.02" fill="#ffdd73" stroke="#1c2126" stroke-linejoin="round" stroke-width="2"/><polygon points="668.05 2.02 668.05 40.74 701.57 60.09 701.57 21.38 668.05 2.02" fill="#ffb916" stroke="#1c2126" stroke-linejoin="round" stroke-width="2"/><polygon points="735.1 2.02 735.1 40.74 701.57 60.09 701.57 21.38 735.1 2.02" fill="#b7790b" stroke="#1c2126" stroke-linejoin="round" stroke-width="2"/><polygon points="567.47 -55.93 567.47 -17.21 600.99 2.14 600.99 -36.57 567.47 -55.93" fill="#ffb916" stroke="#1c2126" stroke-linejoin="round" stroke-width="2"/><polygon points="634.52 -55.93 634.52 -17.21 600.99 2.14 600.99 -36.57 634.52 -55.93" fill="#b7790b" stroke="#1c2126" stroke-linejoin="round" stroke-width="2"/><polygon points="634.52 -55.93 634.52 -17.21 668.05 2.14 668.05 -36.57 634.52 -55.93" fill="#ffb916" stroke="#1c2126" stroke-linejoin="round" stroke-width="2"/><polygon points="701.58 -55.93 701.57 -17.21 668.05 2.14 668.05 -36.57 701.58 -55.93" fill="#b7790b" stroke="#1c2126" stroke-linejoin="round" stroke-width="2"/><polygon points="600.99 2.02 634.52 -17.33 668.05 2.02 634.52 21.38 600.99 2.02" fill="#ffdd73" stroke="#1c2126" stroke-linejoin="round" stroke-width="2"/><polygon points="600.99 2.02 600.99 40.74 634.52 60.09 634.52 21.38 600.99 2.02" fill="#ffb916" stroke="#1c2126" stroke-linejoin="round" stroke-width="2"/><polygon points="668.05 2.02 668.04 40.74 634.52 60.09 634.52 21.38 668.05 2.02" fill="#b7790b" stroke="#1c2126" stroke-linejoin="round" stroke-width="2"/><polygon points="634.52 60.09 668.05 40.74 701.58 60.09 668.05 79.45 634.52 60.09" fill="#ffdd73" stroke="#1c2126" stroke-linejoin="round" stroke-width="2"/><polygon points="634.52 60.09 634.52 98.81 668.05 118.16 668.05 79.45 634.52 60.09" fill="#ffb916" stroke="#1c2126" stroke-linejoin="round" stroke-width="2"/><polygon points="701.58 60.09 701.57 98.81 668.05 118.16 668.05 79.45 701.58 60.09" fill="#b7790b" stroke="#1c2126" stroke-linejoin="round" stroke-width="2"/><polygon points="969.79 291.91 1003.32 272.55 1036.85 291.91 1003.32 311.26 969.79 291.91" fill="#ffdd73" stroke="#1c2126" stroke-linejoin="round" stroke-width="2"/><polygon points="969.79 291.91 969.79 330.62 1003.32 349.98 1003.32 311.26 969.79 291.91" fill="#ffb916" stroke="#1c2126" stroke-linejoin="round" stroke-width="2"/><polygon points="1036.85 291.91 1036.85 330.62 1003.32 349.98 1003.32 311.26 1036.85 291.91" fill="#b7790b" stroke="#1c2126" stroke-linejoin="round" stroke-width="2"/><polygon points="1036.85 291.91 1070.37 272.55 1103.9 291.91 1070.38 311.26 1036.85 291.91" fill="#ffdd73" stroke="#1c2126" stroke-linejoin="round" stroke-width="2"/><polygon points="1036.85 291.91 1036.85 330.62 1070.37 349.98 1070.38 311.26 1036.85 291.91" fill="#ffb916" stroke="#1c2126" stroke-linejoin="round" stroke-width="2"/><polygon points="1103.9 291.91 1103.9 330.62 1070.37 349.98 1070.38 311.26 1103.9 291.91" fill="#b7790b" stroke="#1c2126" stroke-linejoin="round" stroke-width="2"/><polygon points="1103.9 291.91 1137.43 272.55 1170.96 291.91 1137.43 311.26 1103.9 291.91" fill="#ffdd73" stroke="#1c2126" stroke-linejoin="round" stroke-width="2"/><polygon points="1103.9 291.91 1103.9 330.62 1137.43 349.98 1137.43 311.26 1103.9 291.91" fill="#ffb916" stroke="#1c2126" stroke-linejoin="round" stroke-width="2"/><polygon points="1170.96 291.91 1170.95 330.62 1137.43 349.98 1137.43 311.26 1170.96 291.91" fill="#b7790b" stroke="#1c2126" stroke-linejoin="round" stroke-width="2"/><polygon points="1170.96 291.91 1204.48 272.55 1238.01 291.91 1204.48 311.26 1170.96 291.91" fill="#ffdd73" stroke="#1c2126" stroke-linejoin="round" stroke-width="2"/><polygon points="1170.96 291.91 1170.96 330.62 1204.48 349.98 1204.48 311.26 1170.96 291.91" fill="#ffb916" stroke="#1c2126" stroke-linejoin="round" stroke-width="2"/><polygon points="1137.43 349.86 1170.96 330.5 1204.48 349.86 1170.96 369.22 1137.43 349.86" fill="#ffdd73" stroke="#1c2126" stroke-linejoin="round" stroke-width="2"/><polygon points="1137.43 349.86 1137.43 388.57 1170.96 407.93 1170.96 369.22 1137.43 349.86" fill="#ffb916" stroke="#1c2126" stroke-linejoin="round" stroke-width="2"/><polygon points="1204.48 349.86 1204.48 388.57 1170.96 407.93 1170.96 369.22 1204.48 349.86" fill="#b7790b" stroke="#1c2126" stroke-linejoin="round" stroke-width="2"/><polygon points="1070.38 349.86 1103.9 330.5 1137.43 349.86 1103.9 369.22 1070.38 349.86" fill="#ffdd73" stroke="#1c2126" stroke-linejoin="round" stroke-width="2"/><polygon points="1070.38 349.86 1070.38 388.57 1103.9 407.93 1103.9 369.22 1070.38 349.86" fill="#ffb916" stroke="#1c2126" stroke-linejoin="round" stroke-width="2"/><polygon points="1137.43 349.86 1137.43 388.57 1103.9 407.93 1103.9 369.22 1137.43 349.86" fill="#b7790b" stroke="#1c2126" stroke-linejoin="round" stroke-width="2"/><polygon points="1003.32 349.86 1036.85 330.5 1070.38 349.86 1036.85 369.22 1003.32 349.86" fill="#ffdd73" stroke="#1c2126" stroke-linejoin="round" stroke-width="2"/><polygon points="1003.32 349.86 1003.32 388.57 1036.85 407.93 1036.85 369.22 1003.32 349.86" fill="#ffb916" stroke="#1c2126" stroke-linejoin="round" stroke-width="2"/><polygon points="1070.38 349.86 1070.37 388.57 1036.85 407.93 1036.85 369.22 1070.38 349.86" fill="#b7790b" stroke="#1c2126" stroke-linejoin="round" stroke-width="2"/><polygon points="936.27 349.86 969.79 330.5 1003.32 349.86 969.79 369.22 936.27 349.86" fill="#ffdd73" stroke="#1c2126" stroke-linejoin="round" stroke-width="2"/><polygon points="936.27 349.86 936.27 388.57 969.79 407.93 969.79 369.22 936.27 349.86" fill="#ffb916" stroke="#1c2126" stroke-linejoin="round" stroke-width="2"/><polygon points="1003.32 349.86 1003.32 388.57 969.79 407.93 969.79 369.22 1003.32 349.86" fill="#b7790b" stroke="#1c2126" stroke-linejoin="round" stroke-width="2"/><polygon points="969.79 407.7 1003.32 388.34 1036.85 407.7 1003.32 427.06 969.79 407.7" fill="#ffdd73" stroke="#1c2126" stroke-linejoin="round" stroke-width="2"/><polygon points="969.79 407.7 969.79 446.41 1003.32 465.77 1003.32 427.06 969.79 407.7" fill="#ffb916" stroke="#1c2126" stroke-linejoin="round" stroke-width="2"/><polygon points="1036.85 407.7 1036.85 446.41 1003.32 465.77 1003.32 427.06 1036.85 407.7" fill="#b7790b" stroke="#1c2126" stroke-linejoin="round" stroke-width="2"/><polygon points="1036.85 407.7 1070.37 388.34 1103.9 407.7 1070.38 427.06 1036.85 407.7" fill="#ffdd73" stroke="#1c2126" stroke-linejoin="round" stroke-width="2"/><polygon points="1036.85 407.7 1036.85 446.41 1070.37 465.77 1070.38 427.06 1036.85 407.7" fill="#ffb916" stroke="#1c2126" stroke-linejoin="round" stroke-width="2"/><polygon points="1103.9 407.7 1103.9 446.41 1070.37 465.77 1070.38 427.06 1103.9 407.7" fill="#b7790b" stroke="#1c2126" stroke-linejoin="round" stroke-width="2"/><polygon points="1103.9 407.7 1137.43 388.34 1170.96 407.7 1137.43 427.06 1103.9 407.7" fill="#ffdd73" stroke="#1c2126" stroke-linejoin="round" stroke-width="2"/><polygon points="1103.9 407.7 1103.9 446.41 1137.43 465.77 1137.43 427.06 1103.9 407.7" fill="#ffb916" stroke="#1c2126" stroke-linejoin="round" stroke-width="2"/><polygon points="1170.96 407.7 1170.95 446.41 1137.43 465.77 1137.43 427.06 1170.96 407.7" fill="#b7790b" stroke="#1c2126" stroke-linejoin="round" stroke-width="2"/><polygon points="1170.96 407.7 1204.48 388.34 1238.01 407.7 1204.48 427.06 1170.96 407.7" fill="#ffdd73" stroke="#1c2126" stroke-linejoin="round" stroke-width="2"/><polygon points="1170.96 407.7 1170.96 446.41 1204.48 465.77 1204.48 427.06 1170.96 407.7" fill="#ffb916" stroke="#1c2126" stroke-linejoin="round" stroke-width="2"/><polygon points="1137.43 465.65 1170.96 446.3 1204.48 465.65 1170.96 485.01 1137.43 465.65" fill="#ffdd73" stroke="#1c2126" stroke-linejoin="round" stroke-width="2"/><polygon points="1137.43 465.65 1137.43 504.37 1170.96 523.72 1170.96 485.01 1137.43 465.65" fill="#ffb916" stroke="#1c2126" stroke-linejoin="round" stroke-width="2"/><polygon points="1204.48 465.65 1204.48 504.36 1170.96 523.72 1170.96 485.01 1204.48 465.65" fill="#b7790b" stroke="#1c2126" stroke-linejoin="round" stroke-width="2"/><polygon points="1070.38 465.65 1103.9 446.3 1137.43 465.65 1103.9 485.01 1070.38 465.65" fill="#ffdd73" stroke="#1c2126" stroke-linejoin="round" stroke-width="2"/><polygon points="1070.38 465.65 1070.38 504.37 1103.9 523.72 1103.9 485.01 1070.38 465.65" fill="#ffb916" stroke="#1c2126" stroke-linejoin="round" stroke-width="2"/><polygon points="1137.43 465.65 1137.43 504.36 1103.9 523.72 1103.9 485.01 1137.43 465.65" fill="#b7790b" stroke="#1c2126" stroke-linejoin="round" stroke-width="2"/><polygon points="1003.32 465.65 1036.85 446.3 1070.38 465.65 1036.85 485.01 1003.32 465.65" fill="#ffdd73" stroke="#1c2126" stroke-linejoin="round" stroke-width="2"/><polygon points="1003.32 465.65 1003.32 504.37 1036.85 523.72 1036.85 485.01 1003.32 465.65" fill="#ffb916" stroke="#1c2126" stroke-linejoin="round" stroke-width="2"/><polygon points="1070.38 465.65 1070.37 504.36 1036.85 523.72 1036.85 485.01 1070.38 465.65" fill="#b7790b" stroke="#1c2126" stroke-linejoin="round" stroke-width="2"/><polygon points="936.27 465.65 969.79 446.3 1003.32 465.65 969.79 485.01 936.27 465.65" fill="#ffdd73" stroke="#1c2126" stroke-linejoin="round" stroke-width="2"/><polygon points="936.27 465.65 936.27 504.37 969.79 523.72 969.79 485.01 936.27 465.65" fill="#ffb916" stroke="#1c2126" stroke-linejoin="round" stroke-width="2"/><polygon points="1003.32 465.65 1003.32 504.36 969.79 523.72 969.79 485.01 1003.32 465.65" fill="#b7790b" stroke="#1c2126" stroke-linejoin="round" stroke-width="2"/><polygon points="902.74 176.12 936.26 156.76 969.79 176.12 936.27 195.47 902.74 176.12" fill="#ffdd73" stroke="#1c2126" stroke-linejoin="round" stroke-width="2"/><polygon points="902.74 176.12 902.74 214.83 936.26 234.19 936.27 195.47 902.74 176.12" fill="#ffb916" stroke="#1c2126" stroke-linejoin="round" stroke-width="2"/><polygon points="969.79 176.12 969.79 214.83 936.26 234.19 936.27 195.47 969.79 176.12" fill="#b7790b" stroke="#1c2126" stroke-linejoin="round" stroke-width="2"/><polygon points="835.68 291.91 869.21 272.55 902.74 291.91 869.21 311.26 835.68 291.91" fill="#ffdd73" stroke="#1c2126" stroke-linejoin="round" stroke-width="2"/><polygon points="835.68 291.91 835.68 330.62 869.21 349.98 869.21 311.26 835.68 291.91" fill="#ffb916" stroke="#1c2126" stroke-linejoin="round" stroke-width="2"/><polygon points="902.74 291.91 902.74 330.62 869.21 349.98 869.21 311.26 902.74 291.91" fill="#b7790b" stroke="#1c2126" stroke-linejoin="round" stroke-width="2"/><polygon points="735.1 349.86 768.63 330.5 802.16 349.86 768.63 369.22 735.1 349.86" fill="#ffdd73" stroke="#1c2126" stroke-linejoin="round" stroke-width="2"/><polygon points="735.1 349.86 735.1 388.57 768.63 407.93 768.63 369.22 735.1 349.86" fill="#ffb916" stroke="#1c2126" stroke-linejoin="round" stroke-width="2"/><polygon points="802.16 349.86 802.15 388.57 768.63 407.93 768.63 369.22 802.16 349.86" fill="#b7790b" stroke="#1c2126" stroke-linejoin="round" stroke-width="2"/><polygon points="735.1 349.86 768.63 330.5 802.16 349.86 768.63 369.22 735.1 349.86" fill="#ffdd73" stroke="#1c2126" stroke-linejoin="round" stroke-width="2"/><polygon points="735.1 349.86 735.1 388.57 768.63 407.93 768.63 369.22 735.1 349.86" fill="#ffb916" stroke="#1c2126" stroke-linejoin="round" stroke-width="2"/><polygon points="802.16 349.86 802.15 388.57 768.63 407.93 768.63 369.22 802.16 349.86" fill="#b7790b" stroke="#1c2126" stroke-linejoin="round" stroke-width="2"/><polygon points="701.58 407.7 735.1 388.34 768.63 407.7 735.1 427.06 701.58 407.7" fill="#ffdd73" stroke="#1c2126" stroke-linejoin="round" stroke-width="2"/><polygon points="701.58 407.7 701.58 446.41 735.1 465.77 735.1 427.06 701.58 407.7" fill="#ffb916" stroke="#1c2126" stroke-linejoin="round" stroke-width="2"/><polygon points="768.63 407.7 768.63 446.41 735.1 465.77 735.1 427.06 768.63 407.7" fill="#b7790b" stroke="#1c2126" stroke-linejoin="round" stroke-width="2"/><polygon points="768.63 407.7 802.16 388.34 835.68 407.7 802.16 427.06 768.63 407.7" fill="#ffdd73" stroke="#1c2126" stroke-linejoin="round" stroke-width="2"/><polygon points="768.63 407.7 768.63 446.41 802.16 465.77 802.16 427.06 768.63 407.7" fill="#ffb916" stroke="#1c2126" stroke-linejoin="round" stroke-width="2"/><polygon points="835.68 407.7 835.68 446.41 802.16 465.77 802.16 427.06 835.68 407.7" fill="#b7790b" stroke="#1c2126" stroke-linejoin="round" stroke-width="2"/><polygon points="835.68 407.7 869.21 388.34 902.74 407.7 869.21 427.06 835.68 407.7" fill="#ffdd73" stroke="#1c2126" stroke-linejoin="round" stroke-width="2"/><polygon points="835.68 407.7 835.68 446.41 869.21 465.77 869.21 427.06 835.68 407.7" fill="#ffb916" stroke="#1c2126" stroke-linejoin="round" stroke-width="2"/><polygon points="902.74 407.7 902.74 446.41 869.21 465.77 869.21 427.06 902.74 407.7" fill="#b7790b" stroke="#1c2126" stroke-linejoin="round" stroke-width="2"/><polygon points="902.74 407.7 936.26 388.34 969.79 407.7 936.27 427.06 902.74 407.7" fill="#ffdd73" stroke="#1c2126" stroke-linejoin="round" stroke-width="2"/><polygon points="902.74 407.7 902.74 446.41 936.26 465.77 936.27 427.06 902.74 407.7" fill="#ffb916" stroke="#1c2126" stroke-linejoin="round" stroke-width="2"/><polygon points="969.79 407.7 969.79 446.41 936.26 465.77 936.27 427.06 969.79 407.7" fill="#b7790b" stroke="#1c2126" stroke-linejoin="round" stroke-width="2"/><polygon points="869.21 465.65 902.74 446.3 936.27 465.65 902.74 485.01 869.21 465.65" fill="#ffdd73" stroke="#1c2126" stroke-linejoin="round" stroke-width="2"/><polygon points="869.21 465.65 869.21 504.37 902.74 523.72 902.74 485.01 869.21 465.65" fill="#ffb916" stroke="#1c2126" stroke-linejoin="round" stroke-width="2"/><polygon points="936.27 465.65 936.26 504.36 902.74 523.72 902.74 485.01 936.27 465.65" fill="#b7790b" stroke="#1c2126" stroke-linejoin="round" stroke-width="2"/><polygon points="802.16 465.65 835.68 446.3 869.21 465.65 835.68 485.01 802.16 465.65" fill="#ffdd73" stroke="#1c2126" stroke-linejoin="round" stroke-width="2"/><polygon points="802.16 465.65 802.16 504.37 835.68 523.72 835.68 485.01 802.16 465.65" fill="#ffb916" stroke="#1c2126" stroke-linejoin="round" stroke-width="2"/><polygon points="869.21 465.65 869.21 504.36 835.68 523.72 835.68 485.01 869.21 465.65" fill="#b7790b" stroke="#1c2126" stroke-linejoin="round" stroke-width="2"/><polygon points="735.1 465.65 768.63 446.3 802.16 465.65 768.63 485.01 735.1 465.65" fill="#ffdd73" stroke="#1c2126" stroke-linejoin="round" stroke-width="2"/><polygon points="735.1 465.65 735.1 504.37 768.63 523.72 768.63 485.01 735.1 465.65" fill="#ffb916" stroke="#1c2126" stroke-linejoin="round" stroke-width="2"/><polygon points="802.16 465.65 802.15 504.36 768.63 523.72 768.63 485.01 802.16 465.65" fill="#b7790b" stroke="#1c2126" stroke-linejoin="round" stroke-width="2"/><polygon points="668.05 465.65 701.57 446.3 735.1 465.65 701.58 485.01 668.05 465.65" fill="#ffdd73" stroke="#1c2126" stroke-linejoin="round" stroke-width="2"/><polygon points="668.05 465.65 668.05 504.37 701.57 523.72 701.58 485.01 668.05 465.65" fill="#ffb916" stroke="#1c2126" stroke-linejoin="round" stroke-width="2"/><polygon points="735.1 465.65 735.1 504.36 701.57 523.72 701.58 485.01 735.1 465.65" fill="#b7790b" stroke="#1c2126" stroke-linejoin="round" stroke-width="2"/><polygon points="600.99 465.65 634.52 446.3 668.05 465.65 634.52 485.01 600.99 465.65" fill="#ffdd73" stroke="#1c2126" stroke-linejoin="round" stroke-width="2"/><polygon points="600.99 465.65 600.99 504.37 634.52 523.72 634.52 485.01 600.99 465.65" fill="#ffb916" stroke="#1c2126" stroke-linejoin="round" stroke-width="2"/><polygon points="668.05 465.65 668.04 504.36 634.52 523.72 634.52 485.01 668.05 465.65" fill="#b7790b" stroke="#1c2126" stroke-linejoin="round" stroke-width="2"/><polygon points="533.94 465.65 567.47 446.3 600.99 465.65 567.47 485.01 533.94 465.65" fill="#ffdd73" stroke="#1c2126" stroke-linejoin="round" stroke-width="2"/><polygon points="533.94 465.65 533.94 504.37 567.47 523.72 567.47 485.01 533.94 465.65" fill="#ffb916" stroke="#1c2126" stroke-linejoin="round" stroke-width="2"/><polygon points="600.99 465.65 600.99 504.36 567.47 523.72 567.47 485.01 600.99 465.65" fill="#b7790b" stroke="#1c2126" stroke-linejoin="round" stroke-width="2"/><polygon points="466.88 465.65 500.41 446.3 533.94 465.65 500.41 485.01 466.88 465.65" fill="#ffdd73" stroke="#1c2126" stroke-linejoin="round" stroke-width="2"/><polygon points="466.88 465.65 466.88 504.37 500.41 523.72 500.41 485.01 466.88 465.65" fill="#ffb916" stroke="#1c2126" stroke-linejoin="round" stroke-width="2"/><polygon points="533.94 465.65 533.94 504.36 500.41 523.72 500.41 485.01 533.94 465.65" fill="#b7790b" stroke="#1c2126" stroke-linejoin="round" stroke-width="2"/><polygon points="399.83 465.65 433.36 446.3 466.88 465.65 433.36 485.01 399.83 465.65" fill="#ffdd73" stroke="#1c2126" stroke-linejoin="round" stroke-width="2"/><polygon points="399.83 465.65 399.83 504.37 433.36 523.72 433.36 485.01 399.83 465.65" fill="#ffb916" stroke="#1c2126" stroke-linejoin="round" stroke-width="2"/><polygon points="466.88 465.65 466.88 504.36 433.36 523.72 433.36 485.01 466.88 465.65" fill="#b7790b" stroke="#1c2126" stroke-linejoin="round" stroke-width="2"/><polygon points="332.77 465.65 366.3 446.3 399.83 465.65 366.3 485.01 332.77 465.65" fill="#ffdd73" stroke="#1c2126" stroke-linejoin="round" stroke-width="2"/><polygon points="332.77 465.65 332.77 504.37 366.3 523.72 366.3 485.01 332.77 465.65" fill="#ffb916" stroke="#1c2126" stroke-linejoin="round" stroke-width="2"/><polygon points="399.83 465.65 399.83 504.36 366.3 523.72 366.3 485.01 399.83 465.65" fill="#b7790b" stroke="#1c2126" stroke-linejoin="round" stroke-width="2"/><polygon points="265.72 465.65 299.25 446.3 332.77 465.65 299.25 485.01 265.72 465.65" fill="#ffdd73" stroke="#1c2126" stroke-linejoin="round" stroke-width="2"/><polygon points="265.72 465.65 265.72 504.37 299.25 523.72 299.25 485.01 265.72 465.65" fill="#ffb916" stroke="#1c2126" stroke-linejoin="round" stroke-width="2"/><polygon points="332.77 465.65 332.77 504.36 299.25 523.72 299.25 485.01 332.77 465.65" fill="#b7790b" stroke="#1c2126" stroke-linejoin="round" stroke-width="2"/><polygon points="198.67 465.65 232.19 446.3 265.72 465.65 232.19 485.01 198.67 465.65" fill="#ffdd73" stroke="#1c2126" stroke-linejoin="round" stroke-width="2"/><polygon points="198.67 465.65 198.67 504.37 232.19 523.72 232.19 485.01 198.67 465.65" fill="#ffb916" stroke="#1c2126" stroke-linejoin="round" stroke-width="2"/><polygon points="265.72 465.65 265.72 504.36 232.19 523.72 232.19 485.01 265.72 465.65" fill="#b7790b" stroke="#1c2126" stroke-linejoin="round" stroke-width="2"/><polygon points="131.61 465.65 165.14 446.3 198.67 465.65 165.14 485.01 131.61 465.65" fill="#ffdd73" stroke="#1c2126" stroke-linejoin="round" stroke-width="2"/><polygon points="131.61 465.65 131.61 504.37 165.14 523.72 165.14 485.01 131.61 465.65" fill="#ffb916" stroke="#1c2126" stroke-linejoin="round" stroke-width="2"/><polygon points="198.67 465.65 198.66 504.36 165.14 523.72 165.14 485.01 198.67 465.65" fill="#b7790b" stroke="#1c2126" stroke-linejoin="round" stroke-width="2"/><polygon points="64.56 465.65 98.08 446.3 131.61 465.65 98.08 485.01 64.56 465.65" fill="#ffdd73" stroke="#1c2126" stroke-linejoin="round" stroke-width="2"/><polygon points="64.56 465.65 64.56 504.37 98.08 523.72 98.08 485.01 64.56 465.65" fill="#ffb916" stroke="#1c2126" stroke-linejoin="round" stroke-width="2"/><polygon points="131.61 465.65 131.61 504.36 98.08 523.72 98.08 485.01 131.61 465.65" fill="#b7790b" stroke="#1c2126" stroke-linejoin="round" stroke-width="2"/><polygon points="-2.5 465.65 31.03 446.3 64.56 465.65 31.03 485.01 -2.5 465.65" fill="#ffdd73" stroke="#1c2126" stroke-linejoin="round" stroke-width="2"/><polygon points="-2.5 465.65 -2.5 504.37 31.03 523.72 31.03 485.01 -2.5 465.65" fill="#ffb916" stroke="#1c2126" stroke-linejoin="round" stroke-width="2"/><polygon points="64.56 465.65 64.56 504.36 31.03 523.72 31.03 485.01 64.56 465.65" fill="#b7790b" stroke="#1c2126" stroke-linejoin="round" stroke-width="2"/><polygon points="768.63 214.83 735.1 195.47 701.57 214.83 768.63 253.54 835.68 214.83 802.15 195.47 768.63 214.83" fill="#b7303d" stroke="#1c2126" stroke-linejoin="round" stroke-width="2"/><polygon points="735.1 156.76 735.1 195.47 701.57 214.83 701.57 176.12 735.1 156.76" fill="#ea4f4b" stroke="#1c2126" stroke-linejoin="round" stroke-width="2"/><polygon points="735.1 156.76 735.1 195.47 768.63 214.83 768.63 176.12 735.1 156.76" fill="#ff6b60" stroke="#1c2126" stroke-linejoin="round" stroke-width="2"/><polygon points="802.16 156.76 802.15 195.47 768.63 214.83 768.63 176.12 802.16 156.76" fill="#ea4f4b" stroke="#1c2126" stroke-linejoin="round" stroke-width="2"/><polygon points="802.16 156.76 802.16 195.47 835.68 214.83 835.68 176.12 802.16 156.76" fill="#ff6b60" stroke="#1c2126" stroke-linejoin="round" stroke-width="2"/><polygon points="969.79 214.83 936.26 195.47 902.74 214.83 969.79 253.54 1036.85 214.83 1003.32 195.47 969.79 214.83" fill="#b7303d" stroke="#1c2126" stroke-linejoin="round" stroke-width="2"/><polygon points="936.27 156.76 936.26 195.47 902.74 214.83 902.74 176.12 936.27 156.76" fill="#ea4f4b" stroke="#1c2126" stroke-linejoin="round" stroke-width="2"/><polygon points="936.27 156.76 936.27 195.47 969.79 214.83 969.79 176.12 936.27 156.76" fill="#ff6b60" stroke="#1c2126" stroke-linejoin="round" stroke-width="2"/><polygon points="1003.32 156.76 1003.32 195.47 969.79 214.83 969.79 176.12 1003.32 156.76" fill="#ea4f4b" stroke="#1c2126" stroke-linejoin="round" stroke-width="2"/><polygon points="1003.32 156.76 1003.32 195.47 1036.85 214.83 1036.85 176.12 1003.32 156.76" fill="#ff6b60" stroke="#1c2126" stroke-linejoin="round" stroke-width="2"/><polygon points="869.21 311.49 835.68 292.14 802.16 311.49 869.21 350.21 936.27 311.49 902.74 292.14 869.21 311.49" fill="#b7303d" stroke="#1c2126" stroke-linejoin="round" stroke-width="2"/><polygon points="835.68 253.43 835.68 292.14 802.16 311.5 802.16 272.78 835.68 253.43" fill="#ea4f4b" stroke="#1c2126" stroke-linejoin="round" stroke-width="2"/><polygon points="835.68 253.42 835.68 292.14 869.21 311.49 869.21 272.78 835.68 253.42" fill="#ff6b60" stroke="#1c2126" stroke-linejoin="round" stroke-width="2"/><polygon points="902.74 253.43 902.74 292.14 869.21 311.5 869.21 272.78 902.74 253.43" fill="#ea4f4b" stroke="#1c2126" stroke-linejoin="round" stroke-width="2"/><polygon points="902.74 253.42 902.74 292.14 936.26 311.49 936.27 272.78 902.74 253.42" fill="#ff6b60" stroke="#1c2126" stroke-linejoin="round" stroke-width="2"/></g><rect y="595" width="1200" height="35" fill="#fff"/><rect y="499.19" width="1200" height="95.81" fill="#fff"/><line y1="499.19" x2="1200" y2="499.19" fill="none" stroke="#1c2126" stroke-miterlimit="10"/><line y1="595" x2="1200" y2="595" fill="none" stroke="#1c2126" stroke-miterlimit="10"/><path d="M24.24,559.45V540.69H17.85v-2.37H33.21v2.37H26.82v18.76Z" fill="#1c2126"/><path d="M44.08,559.89c-4.81,0-7.75-3.45-7.75-9.3v-3.41c0-5.85,2.94-9.3,7.75-9.3s7.74,3.45,7.74,9.3v3.41C51.82,556.44,48.88,559.89,44.08,559.89Zm5.14-9.31v-3.39c0-4.41-1.94-6.87-5.14-6.87s-5.15,2.46-5.15,6.87v3.39c0,4.41,1.94,6.87,5.15,6.87S49.22,555,49.22,550.58Z" fill="#1c2126"/><path d="M60,545.58a2.65,2.65,0,1,1,2.65,2.71A2.7,2.7,0,0,1,60,545.58Zm0,11.25a2.65,2.65,0,1,1,2.65,2.71A2.68,2.68,0,0,1,60,556.83Z" fill="#1c2126"/><line x1="582.03" y1="498.72" x2="582.03" y2="595" fill="none" stroke="#1c2126" stroke-miterlimit="10"/><path d="M1129.73,614.6a4.72,4.72,0,1,1-4.71-4.69A4.43,4.43,0,0,1,1129.73,614.6Zm-6.82,0A2.12,2.12,0,0,0,1125,617c1.3,0,2.1-.94,2.1-2.41s-.8-2.42-2.1-2.42S1122.91,613.12,1122.91,614.6Z" fill="#1c2126"/><path d="M1138.54,612.93H1136c0-.57-.52-1-1.37-1s-1.25.3-1.25.72.19.62,1.2.8l1.2.19c2.3.39,2.91,1.43,2.91,2.79,0,1.74-1.39,2.85-3.92,2.85-2.72,0-4.08-1.3-4.08-3.09h2.48c0,.65.53,1.1,1.7,1.1.88,0,1.33-.3,1.33-.75s-.26-.72-1.3-.9l-1.25-.21c-2.11-.33-2.77-1.39-2.77-2.67,0-1.58,1.3-2.8,3.78-2.8S1138.54,611.24,1138.54,612.93Z" fill="#1c2126"/><path d="M1147.49,612.93H1145c0-.57-.53-1-1.38-1s-1.25.3-1.25.72.2.62,1.2.8l1.21.19c2.3.39,2.91,1.43,2.91,2.79,0,1.74-1.39,2.85-3.92,2.85-2.72,0-4.09-1.3-4.09-3.09h2.49c0,.65.52,1.1,1.69,1.1.88,0,1.33-.3,1.33-.75s-.25-.72-1.3-.9l-1.24-.21c-2.12-.33-2.77-1.39-2.77-2.67,0-1.58,1.29-2.8,3.77-2.8S1147.49,611.24,1147.49,612.93Z" fill="#1c2126"/><path d="M1152,617.64a1.6,1.6,0,1,1-1.6-1.62A1.55,1.55,0,0,1,1152,617.64Z" fill="#1c2126"/><path d="M1156.27,606.34v12.72h-2.5V606.34Z" fill="#1c2126"/><path d="M1167,614.6a4.71,4.71,0,1,1-4.7-4.69A4.42,4.42,0,0,1,1167,614.6Zm-6.81,0a2.12,2.12,0,0,0,2.11,2.41c1.29,0,2.1-.94,2.1-2.41s-.81-2.42-2.1-2.42S1160.16,613.12,1160.16,614.6Z" fill="#1c2126"/><path d="M1176.59,610.12l-3.26,8.94h-3l-3.28-8.94h2.64l2.16,6.32,2.16-6.32Z" fill="#1c2126"/><path d="M1186.06,615.33h-6.61a1.92,1.92,0,0,0,2,1.81,1.82,1.82,0,0,0,1.75-.8h2.66a5,5,0,1,1,.17-1.77Zm-6.58-1.71h3.94a1.87,1.87,0,0,0-2-1.58A2,2,0,0,0,1179.48,613.62Z" fill="#1c2126"/><path d="M605.51,559.45V538.32H618v2.37H608.1v7.25h9v2.3h-9v9.21Z" fill="#1c2126"/><path d="M625.54,551v8.42H623V538.32h7.09c4.19,0,6.81,2.43,6.81,6.35A5.91,5.91,0,0,1,633,550.5l4.3,9h-2.91L630.41,551Zm0-2.18h4.19c2.92,0,4.56-1.48,4.56-4.12s-1.61-4.11-4.44-4.11h-4.31Z" fill="#1c2126"/><path d="M648.15,559.89c-4.81,0-7.75-3.45-7.75-9.3v-3.41c0-5.85,2.94-9.3,7.75-9.3s7.75,3.45,7.75,9.3v3.41C655.9,556.44,653,559.89,648.15,559.89Zm5.14-9.31v-3.39c0-4.41-1.93-6.87-5.14-6.87s-5.14,2.46-5.14,6.87v3.39c0,4.41,1.93,6.87,5.14,6.87S653.29,555,653.29,550.58Z" fill="#1c2126"/><path d="M661.38,559.45h-2.3V538.32H662l4.64,13.12h.19l4.62-13.12h2.9v21.13H672v-8.11l.13-8.56H672l-4.25,11.71h-2l-4.25-11.71h-.19l.14,8.56Z" fill="#1c2126"/><path d="M682.59,545.58a2.65,2.65,0,1,1,2.65,2.71A2.7,2.7,0,0,1,682.59,545.58Zm0,11.25a2.65,2.65,0,1,1,2.65,2.71A2.68,2.68,0,0,1,682.59,556.83Z" fill="#1c2126"/><path d="M27.75,606.92v12.14H25v-2.13l-4.7-5.41v7.54H17.63V606.92H20L25,612.77v-5.85Z" fill="#1c2126"/><path d="M38.37,615.33H31.76a1.92,1.92,0,0,0,2,1.81,1.81,1.81,0,0,0,1.74-.8H38.2a4.35,4.35,0,0,1-4.44,2.88,4.63,4.63,0,1,1,0-9.26,4.32,4.32,0,0,1,4.62,4.61Zm-6.58-1.71h3.94a1.87,1.87,0,0,0-2-1.58A2,2,0,0,0,31.79,613.62Z" fill="#1c2126"/><path d="M44.93,612.23H43v6.83H40.5v-6.83H38.82v-2.11H40.5V607.3H43v2.82h1.93Z" fill="#1c2126"/><path d="M48.9,606.34v12.72H46.4V606.34Z" fill="#1c2126"/><path d="M53.62,607.59a1.46,1.46,0,0,1-1.51,1.5,1.51,1.51,0,1,1,1.51-1.5Zm-.24,2.32v9.15h-2.5v-9.15a2.06,2.06,0,0,0,1.25.37A2,2,0,0,0,53.38,609.91Z" fill="#1c2126"/><path d="M58.55,609v1.09h1.87v2.11H58.55v6.83h-2.5v-6.83H54.61v-2.11h1.44V609a2.62,2.62,0,0,1,2.88-2.83h1.75v1.94H59.44A.78.78,0,0,0,58.55,609Z" fill="#1c2126"/><path d="M70.71,610.12l-5,11.89H63.33l1.38-3.28-3.49-8.61h2.51L66,615.69l2.32-5.57Z" fill="#1c2126"/><path d="M109.4,613c0,3.92-2.34,6.22-5.8,6.22s-5.79-2.3-5.79-6.22,2.33-6.25,5.79-6.25S109.4,609.08,109.4,613Zm-8.79,0c0,2.35,1.3,3.66,3,3.66s3-1.31,3-3.66-1.31-3.67-3-3.67S100.61,610.63,100.61,613Z" fill="#1c2126"/><path d="M120.32,610.53h-2.8c0-.89-.67-1.52-1.85-1.52s-1.7.55-1.7,1.23.38,1,1.49,1.3l1.37.32c2.64.59,3.73,1.73,3.73,3.73s-1.6,3.63-4.73,3.63-4.9-1.61-4.9-4h2.8a1.88,1.88,0,0,0,2.11,1.84c1.27,0,1.92-.63,1.92-1.44s-.38-1.09-1.57-1.35l-1.32-.27c-2.77-.56-3.72-1.87-3.72-3.73,0-2.06,1.6-3.54,4.58-3.54S120.32,608.29,120.32,610.53Z" fill="#1c2126"/><path d="M131.38,610.53h-2.8c0-.89-.67-1.52-1.86-1.52-1,0-1.69.55-1.69,1.23s.38,1,1.48,1.3l1.38.32c2.64.59,3.73,1.73,3.73,3.73s-1.6,3.63-4.74,3.63-4.9-1.61-4.9-4h2.81a1.88,1.88,0,0,0,2.11,1.84c1.26,0,1.92-.63,1.92-1.44s-.39-1.09-1.57-1.35l-1.33-.27c-2.77-.56-3.71-1.87-3.71-3.73,0-2.06,1.6-3.54,4.58-3.54S131.38,608.29,131.38,610.53Z" fill="#1c2126"/><path d="M91.16,610.11a3.62,3.62,0,0,0-1-1.22,3.91,3.91,0,0,0-2.49-1.14,3.62,3.62,0,0,0-2.51,1.37,8,8,0,0,0-1.41,2.21,6.53,6.53,0,0,0-2.39-2.73,4.09,4.09,0,0,0-3.58-.35,3,3,0,0,0-1.82,3,5,5,0,0,0,2,2.88q3.32,3,6.72,5.87l5-5.64C90.67,613.14,91.8,611.56,91.16,610.11Z" fill="#ff6b60" stroke="#ff6b60" stroke-linejoin="round"/></svg>