<svg xmlns="http://www.w3.org/2000/svg" width="1200" height="630" viewBox="0 0 1200 630"><rect width="1200" height="498.72" fill="#5cebdf"/><g opacity="0.5"><path d="M1080.72,402.93A12.28,12.28,0,0,1,1093,415.21V568.57a12.28,12.28,0,0,1-12.28,12.28H688.22a12.28,12.28,0,0,1-12.28-12.28V415.21a12.28,12.28,0,0,1,12.28-12.28h392.5m0-12H688.22a24.3,24.3,0,0,0-24.28,24.28V568.57a24.3,24.3,0,0,0,24.28,24.28h392.5A24.3,24.3,0,0,0,1105,568.57V415.21a24.3,24.3,0,0,0-24.28-24.28Z" fill="#bffde7"/></g><polygon points="850.48 273.48 822.65 233.49 794.21 273.48 809.86 273.48 809.86 551.52 834.82 551.52 834.82 273.48 850.48 273.48" fill="#db4648" stroke="#1c2126" stroke-linejoin="round" stroke-width="2"/><polygon points="875.41 281.42 847.59 241.43 819.14 281.42 834.8 281.42 834.8 559.46 859.76 559.46 859.76 281.42 875.41 281.42" fill="#ff6b60" stroke="#1c2126" stroke-linejoin="round" stroke-width="2"/><polygon points="900.4 289.35 872.57 249.36 844.13 289.35 859.79 289.35 859.79 567.39 884.75 567.39 884.75 289.35 900.4 289.35" fill="#ffd3bf" stroke="#1c2126" stroke-linejoin="round" stroke-width="2"/><polygon points="925.28 293.44 897.45 253.45 869.01 293.44 884.66 293.44 884.66 571.48 909.62 571.48 909.62 293.44 925.28 293.44" fill="#fff6d0" stroke="#1c2126" stroke-linejoin="round" stroke-width="2"/><polygon points="950.21 289.35 922.39 249.36 893.95 289.35 909.6 289.35 909.6 567.39 934.56 567.39 934.56 289.35 950.21 289.35" fill="#ffdd73" stroke="#1c2126" stroke-linejoin="round" stroke-width="2"/><polygon points="975.2 284.22 947.37 244.23 918.93 284.22 934.59 284.22 934.59 562.26 959.55 562.26 959.55 284.22 975.2 284.22" fill="#ffb916" stroke="#1c2126" stroke-linejoin="round" stroke-width="2"/><rect x="675.94" y="402.93" width="417.07" height="177.92" rx="12.28" fill="#054861" stroke="#1c2126" stroke-miterlimit="10" stroke-width="2"/><polygon points="953.84 447.9 809.29 447.9 809.29 427.86 953.84 427.86 966.24 437.88 953.84 447.9" fill="#5cebdf" stroke="#1c2126" stroke-linejoin="round" stroke-width="2"/><polygon points="843.11 447.9 698.57 447.9 698.57 427.86 843.11 427.86 855.51 437.88 843.11 447.9" fill="#30c8c9" stroke="#1c2126" stroke-linejoin="round" stroke-width="2"/><polyline points="698.57 465.77 706.35 472.05 698.57 478.34" fill="none" stroke="#30c8c9" stroke-linecap="round" stroke-linejoin="round" stroke-width="2"/><rect x="715.45" y="460.57" width="14.54" height="22.61" fill="#30c8c9"/><path d="M1067.77,126.61c-8.12-3.61-17.33-3.56-26.22-3.44l-29.6.39c-2.71,0-5.78-.07-7.58-2.1s-1.59-4.9-1.56-7.53c.33-25.46-23.26-47.49-48.65-49.4S904,78.05,890.56,99.65c-16.1-20.3-40.23-36.78-66-34.67-25.28,2.07-48.24,28.47-40.47,52.29-7.49-6.88-15.23-13.88-24.73-17.47-12.71-4.8-28.38-2.27-37.65,7.66s-10.18,27.17-.74,36.93a36.72,36.72,0,0,0-40,6c-10.48,9.78-13,26.58-4.68,39s41.83,6.37,64,.29c-3.85,20.1,17.65,37.9,38.12,37.84s38.73-12.28,54.83-24.91a108.88,108.88,0,0,0,63.61,33.68c11.56,1.71,24,1.37,34.1-4.5s16.94-18.45,13.25-29.54a236.62,236.62,0,0,0,43.87,2c7.14-.35,14.95-1.33,19.86-6.52s3.89-15.84-3.09-17.38A77.19,77.19,0,0,0,1072.22,162c4.32-4,8.34-8.82,9.17-14.63C1082.63,138.58,1075.9,130.21,1067.77,126.61Z" fill="#fff" stroke="#1c2126" stroke-linejoin="round" stroke-width="2"/><path d="M189,167.62V186H177.22v-18.2l-18.69-34.94h12.74l12,22.27,12-22.27h12.39Z" fill="#1c2126"/><path d="M242.12,166.43c0,11.69-7.49,20.51-20.59,20.51s-20.65-8.82-20.65-20.51,7.49-20.51,20.65-20.51S242.12,154.74,242.12,166.43Zm-29.83,0c0,6.44,3.57,10.57,9.24,10.57s9.18-4.13,9.18-10.57-3.5-10.57-9.18-10.57S212.29,160,212.29,166.43Z" fill="#1c2126"/><path d="M283.07,146.83V186H272.15v-4.2a12.79,12.79,0,0,1-10.71,5.18c-8.62,0-14.22-6.44-14.22-18V146.83h10.93v20.09c0,6,2.73,9.31,6.93,9.31s7.07-3.57,7.07-9.24V146.83Z" fill="#1c2126"/><path d="M353.7,162.3H342.22a7.53,7.53,0,0,0-7.84-6.93c-5.19,0-8.76,4-8.76,11.06s3.57,11,8.76,11a7.53,7.53,0,0,0,7.84-6.86H353.7c-.28,9.1-8.05,16.38-19.32,16.38-12.61,0-20.17-8.19-20.17-20.51s7.56-20.51,20.17-20.51C345.65,145.92,353.42,153.13,353.7,162.3Z" fill="#1c2126"/><path d="M395.35,163.63V186H384.42v-4.27c-2.72,3.15-7,5-12.74,5-8.19,0-13.3-4.13-13.3-10.92,0-6.16,4.06-10.85,14.28-12.6l11.76-2c0-3.78-2.38-6-6.79-6s-6.3,1.82-6.58,4.83H360c.21-7.21,6.09-13.94,17.64-13.94C388.91,146.12,395.35,152.43,395.35,163.63Zm-10.93,5.88V169l-9,1.47c-4.69.77-5.88,2.38-5.88,4.41,0,1.75,1.68,3,4.83,3C380.43,177.84,384.42,174.48,384.42,169.51Z" fill="#1c2126"/><path d="M439.45,163.84V186H428.53v-20c0-6-2.87-9.38-7.28-9.38s-7.57,3.64-7.57,9.31V186H402.76V146.83h10.92v4.41c2.17-3.16,6.16-5.32,11.14-5.32C433.71,145.92,439.45,152.29,439.45,163.84Z" fill="#1c2126"/><path d="M453.93,138.28c0,5.68-2.87,9.88-9.45,12l-1.47.5-1.68-5.19,1.47-.42c3.08-.91,4.69-2.24,5.32-4.27a7.75,7.75,0,0,1-1.33.14,5.62,5.62,0,0,1-6-5.6c0-3.36,2.45-5.81,6.16-5.81C451.34,129.6,453.93,133,453.93,138.28Z" fill="#1c2126"/><path d="M484.8,156.07h-8.47V186H465.41V156.07h-7.35v-9.24h7.35V134.5h10.92v12.33h8.47Z" fill="#1c2126"/><path d="M177.79,366.83,166.31,406h-11l-7.92-24.85-8,24.85H128.71l-11.48-39.13h10.64l7.35,24.92,7.7-24.92h9.38l7.64,24.78,7.35-24.78Z" fill="#1c2126"/><path d="M192.9,355.76a6.55,6.55,0,1,1-13.09,0,6.55,6.55,0,1,1,13.09,0Zm-1.05,10.16v40H180.93v-40a9,9,0,0,0,5.46,1.61A8.8,8.8,0,0,0,191.85,365.92Z" fill="#1c2126"/><path d="M225.24,376.07h-8.47V406H205.85V376.07H198.5v-9.24h7.35V354.5h10.92v12.33h8.47Z" fill="#1c2126"/><path d="M268.93,383.84V406H258v-20c0-6-2.87-9.38-7.29-9.38s-7.49,3.64-7.49,9.31l-.07-.49V406H232.24V350.3h10.92v20.94c2.17-3.16,6.09-5.32,11.13-5.32C263.19,365.92,268.93,372.29,268.93,383.84Z" fill="#1c2126"/><path d="M315.62,386.43c0,11.69-7.49,20.51-20.59,20.51s-20.65-8.82-20.65-20.51,7.49-20.51,20.65-20.51S315.62,374.74,315.62,386.43Zm-29.83,0c0,6.44,3.57,10.57,9.24,10.57s9.18-4.13,9.18-10.57-3.5-10.57-9.18-10.57S285.79,380,285.79,386.43Z" fill="#1c2126"/><path d="M356.57,366.83V406H345.65v-4.2a12.79,12.79,0,0,1-10.72,5.18c-8.61,0-14.21-6.44-14.21-18V366.83h10.92v20.09c0,5.95,2.73,9.31,6.94,9.31s7.07-3.57,7.07-9.24V366.83Z" fill="#1c2126"/><path d="M389.33,376.07h-8.47V406H369.93V376.07h-7.35v-9.24h7.35V354.5h10.93v12.33h8.47Z" fill="#1c2126"/><path d="M429.85,364.93c0,3.36-2.45,5.82-6.16,5.82-4.34,0-6.93-3.37-6.93-8.69,0-5.67,2.87-9.87,9.45-12l1.47-.49,1.68,5.18-1.47.42c-3.08.91-4.69,2.24-5.32,4.27a7.75,7.75,0,0,1,1.33-.14A5.62,5.62,0,0,1,429.85,364.93Z" fill="#1c2126"/><path d="M471.3,366.83V406H460.38v-4.2a12.8,12.8,0,0,1-10.72,5.18c-8.61,0-14.21-6.44-14.21-18V366.83h10.92v20.09c0,5.95,2.73,9.31,6.93,9.31s7.08-3.57,7.08-9.24V366.83Z" fill="#1c2126"/><path d="M511.27,379.15H500.35c-.07-2.52-2.31-4.48-6-4.48s-5.47,1.33-5.47,3.15.84,2.73,5.26,3.5l5.25.84c10.08,1.68,12.74,6.23,12.74,12.18,0,7.63-6.09,12.46-17.15,12.46-11.91,0-17.86-5.67-17.86-13.51H488c.07,2.87,2.31,4.83,7.43,4.83,3.85,0,5.81-1.33,5.81-3.29s-1.12-3.15-5.68-3.92l-5.46-.91c-9.24-1.47-12.11-6.09-12.11-11.69,0-6.93,5.67-12.26,16.52-12.26S511.27,371.73,511.27,379.15Z" fill="#1c2126"/><path d="M527.43,358.28c0,5.68-2.87,9.88-9.45,12l-1.47.5-1.68-5.19,1.47-.42c3.08-.91,4.69-2.24,5.32-4.27a7.75,7.75,0,0,1-1.33.14,5.62,5.62,0,0,1-5.95-5.6c0-3.36,2.45-5.81,6.16-5.81C524.84,349.6,527.43,353,527.43,358.28Z" fill="#1c2126"/><rect x="124.2" y="220.61" width="397.09" height="92.15" rx="9.29" fill="#1c2126" opacity="0.15"/><path d="M145.07,294.38h8.13c.71,2.82,4.17,4.64,8.8,4.64,6.09,0,9.41-2.92,9.41-8.38v-7.06h-.71c-1.39,4.32-5.88,7.06-11.62,7.06-9,0-14.62-6.38-14.62-16.68v-6.38c0-10.37,5.67-16.68,14.94-16.68,5.67,0,10,2.71,11.44,7.06h.71v-6.38h8.16v39c0,9.16-6.73,14.72-17.82,14.72C152.2,305.29,145.78,301.12,145.07,294.38Zm17.07-11c5.6,0,9.2-3.89,9.2-10v-5.49c0-6.1-3.6-10-9.2-10s-9.23,3.88-9.23,10v5.49C152.91,279.52,156.51,283.41,162.14,283.41Z" fill="#1c2126"/><path d="M192.09,290.61V284H205V258.21H192.52v-6.63h20.53V284h12.26v6.63Zm10.62-53.36c0-3.35,2.5-5.67,6-5.67s6,2.32,6,5.67-2.49,5.66-6,5.66S202.71,240.6,202.71,237.25Z" fill="#1c2126"/><path d="M253.87,240.67v11.16H269v6.7H254v20.06c0,3.46,2.46,5.39,6.88,5.39,1.43,0,7.06,0,7.73-.11v6.63c-.64.11-7.2.21-8.37.21-10.27,0-14.51-3.49-14.51-12.15v-20H235.48v-6.7h10.26V240.67Z" fill="#1c2126"/><path d="M361.67,267.62v6.95c0,10.4-5.56,16.71-14.54,16.71-5.64,0-9.63-2.56-11.09-7h-.71v19.46h-8.56V251.58h8.41V258h.72c1.64-4.56,5.59-7.06,11.23-7.06C356.11,250.93,361.67,257.24,361.67,267.62Zm-26.52.53v6.13c0,6.13,3.46,10,9,10s9.05-3.85,9.05-10v-6.13c0-6.13-3.46-9.94-9.05-9.94S335.15,262,335.15,268.15Z" fill="#1c2126"/><path d="M405.52,290.61h-8v-6.67h-.57c-2,4.78-6.31,7.45-12.05,7.45-8.48,0-13.08-5.06-13.08-14.54V251.58h8.3v23.27c0,6.27,2.57,9.23,7.92,9.23,5.56,0,9.19-3.85,9.19-9.76V251.58h8.31Z" fill="#1c2126"/><path d="M433.83,250.72c8.94,0,14.61,4.13,15.15,11.16h-7.85c-.57-2.93-3.38-4.74-7.41-4.74s-6.92,1.92-6.92,4.84c0,2.5,1.79,3.93,6,4.85l5.81,1.25c7.8,1.67,11.26,5,11.26,10.84,0,7.59-6.24,12.47-16,12.47-9.55,0-15.61-4.24-16.18-11.3h8.23c.72,3.07,3.67,4.81,8.09,4.81s7.38-2,7.38-5c0-2.57-1.64-3.89-6.09-4.85l-5.85-1.28c-7.2-1.61-10.83-5.31-10.83-11.12C418.61,255.35,424.59,250.72,433.83,250.72Z" fill="#1c2126"/><path d="M462,236.5h8.06v21.81h.53c2-4.74,6.38-7.45,12.16-7.45,8.51,0,13.15,5.14,13.15,14.51v25.24h-8.31V267.4c0-6.24-2.6-9.27-8-9.27-5.63,0-9.34,3.93-9.34,9.84v22.64H462Z" fill="#1c2126"/><path d="M856.36,146.25s10.17-10.49,20.66,0" fill="none" stroke="#1c2126" stroke-linecap="round" stroke-miterlimit="10" stroke-width="2"/><path d="M891.79,146.25s10.16-10.49,20.65,0" fill="none" stroke="#1c2126" stroke-linecap="round" stroke-miterlimit="10" stroke-width="2"/><path d="M862.4,158.52c.37,11.09,10.2,20,22.3,20s21.94-8.9,22.31-20Z" fill="#7a122d" stroke="#1c2126" stroke-linecap="round" stroke-linejoin="round" stroke-width="2"/><path d="M1056.41,76.1a7.17,7.17,0,0,0-1.16-2.92,7.76,7.76,0,0,0-4-3.67,7.16,7.16,0,0,0-5.55,1,15.62,15.62,0,0,0-4,3.28,12.82,12.82,0,0,0-2.83-6.59,8,8,0,0,0-6.5-2.84,5.86,5.86,0,0,0-5.24,4.43c-.45,2.31.75,4.58,1.92,6.62q4.4,7.65,9,15.15l12.84-7.52C1053.64,81.49,1056.72,79.21,1056.41,76.1Z" fill="#ff6b60" stroke="#1c2126" stroke-linejoin="round" stroke-width="2"/><path d="M766.34,49a8.58,8.58,0,0,0-3.56-1.45c-2.22-.49-4.66-.69-6.64.4s-3.22,3.5-3.79,5.8a19.26,19.26,0,0,0-.49,6.33A15.7,15.7,0,0,0,743.62,57a9.83,9.83,0,0,0-8,3.34,7.18,7.18,0,0,0-.52,8.4c1.67,2.36,4.7,3.22,7.5,3.92q10.5,2.59,21.08,4.86l4.23-17.76C768.76,56,769.36,51.34,766.34,49Z" fill="#ff6b60" stroke="#1c2126" stroke-linejoin="round" stroke-width="2"/><path d="M145.31,59.89c.09-3.74-3.25-6.83-6.85-7.86s-7.42-.53-11.15-.28a4.37,4.37,0,0,1-1.73-.12c-1.14-.41-1.73-1.64-2.3-2.72-2.85-5.31-5-9.45-14.33-9.85s-15.49,7.16-15.49,7.16c-3.46-2.81-7-5.68-11.19-7.21C76.74,37,70,37.69,65.76,41.84s-4.6,11.91-.1,15.73c-5.38,0-11,.15-15.7,2.8s-7.86,8.76-5.44,13.56c2.31,4.56,8.27,5.81,13.37,5.52a39.5,39.5,0,0,0,17.27-5.12c-.27,4.8,3,9.26,7.2,11.64s9.1,3,13.9,3.33c3.74.24,7.74.24,10.95-1.71s5.11-6.5,3-9.6c4.42-.07,8.59,1.83,12.89,2.84s9.42.91,12.41-2.34,1.19-10.06-3.22-9.85C138,68.1,145.15,65.64,145.31,59.89Z" fill="#fff" stroke="#1c2126" stroke-linejoin="round" stroke-width="2"/><path d="M1203,286a22,22,0,0,0-26.62,21.59c-4.5-3-11.11-2.8-14.85,1.07s-3.19,11.29,1.52,13.9a18.24,18.24,0,0,0-17.49,8.78c-1.53,2.63-2.32,6.05-.76,8.66a8.81,8.81,0,0,0,4.22,3.29,18.9,18.9,0,0,0,17.88-1.82c3,4.34,6.76,8.62,11.89,9.75s11.46-2.57,11.11-7.81a24.49,24.49,0,0,0,17.4,5.1" fill="#fff" stroke="#1c2126" stroke-linejoin="round" stroke-width="2"/><path d="M685.34,277.39a5.7,5.7,0,0,0-2.49-1.52,38.87,38.87,0,0,0-10.91-2.38c1.35-2.47,5.42-7.41,2.27-12.47s-18.26-2.63-23.7,3.25c0,0-4.8-8.09-15.49-5.89-5.27,1.08-10.38,4.78-11.12,10.11-3.23-2.94-7.71-4.76-12-3.92s-8,4.8-7.74,9.15c-7.59-3.32-26.94-5.69-26.93,7.6a6.26,6.26,0,0,0,4.52,5.7c2.5.78,5.2.39,7.8,0a5.39,5.39,0,0,1,2.56.06,6.07,6.07,0,0,1,1.84,1.31,21.6,21.6,0,0,0,31.52-3.16,101.25,101.25,0,0,0,17.86,6.52c4,1,8.16,1.83,12.2,1s7.91-3.58,8.94-7.57c3.46,2.29,7.58,3.84,11.71,3.48s8.22-2.94,9.58-6.86A4.64,4.64,0,0,0,685.34,277.39Z" fill="#fff" stroke="#1c2126" stroke-linecap="round" stroke-linejoin="round" stroke-width="2"/><rect y="595" width="1200" height="35" fill="#fff"/><rect y="499.19" width="1200" height="95.81" fill="#fff"/><line y1="499.19" x2="1200" y2="499.19" fill="none" stroke="#1c2126" stroke-miterlimit="10"/><line y1="595" x2="1200" y2="595" fill="none" stroke="#1c2126" stroke-miterlimit="10"/><path d="M24.24,559.45V540.69H17.85v-2.37H33.21v2.37H26.82v18.76Z" fill="#1c2126"/><path d="M44.08,559.89c-4.81,0-7.75-3.45-7.75-9.3v-3.41c0-5.85,2.94-9.3,7.75-9.3s7.74,3.45,7.74,9.3v3.41C51.82,556.44,48.88,559.89,44.08,559.89Zm5.14-9.31v-3.39c0-4.41-1.94-6.87-5.14-6.87s-5.15,2.46-5.15,6.87v3.39c0,4.41,1.94,6.87,5.15,6.87S49.22,555,49.22,550.58Z" fill="#1c2126"/><path d="M60,545.58a2.65,2.65,0,1,1,2.65,2.71A2.7,2.7,0,0,1,60,545.58Zm0,11.25a2.65,2.65,0,1,1,2.65,2.71A2.68,2.68,0,0,1,60,556.83Z" fill="#1c2126"/><line x1="582.03" y1="498.72" x2="582.03" y2="595" fill="none" stroke="#1c2126" stroke-miterlimit="10"/><path d="M1129.73,614.6a4.72,4.72,0,1,1-4.71-4.69A4.43,4.43,0,0,1,1129.73,614.6Zm-6.82,0A2.12,2.12,0,0,0,1125,617c1.3,0,2.1-.94,2.1-2.41s-.8-2.42-2.1-2.42S1122.91,613.12,1122.91,614.6Z" fill="#1c2126"/><path d="M1138.54,612.93H1136c0-.57-.52-1-1.37-1s-1.25.3-1.25.72.19.62,1.2.8l1.2.19c2.3.39,2.91,1.43,2.91,2.79,0,1.74-1.39,2.85-3.92,2.85-2.72,0-4.08-1.3-4.08-3.09h2.48c0,.65.53,1.1,1.7,1.1.88,0,1.33-.3,1.33-.75s-.26-.72-1.3-.9l-1.25-.21c-2.11-.33-2.77-1.39-2.77-2.67,0-1.58,1.3-2.8,3.78-2.8S1138.54,611.24,1138.54,612.93Z" fill="#1c2126"/><path d="M1147.49,612.93H1145c0-.57-.53-1-1.38-1s-1.25.3-1.25.72.2.62,1.2.8l1.21.19c2.3.39,2.91,1.43,2.91,2.79,0,1.74-1.39,2.85-3.92,2.85-2.72,0-4.09-1.3-4.09-3.09h2.49c0,.65.52,1.1,1.69,1.1.88,0,1.33-.3,1.33-.75s-.25-.72-1.3-.9l-1.24-.21c-2.12-.33-2.77-1.39-2.77-2.67,0-1.58,1.29-2.8,3.77-2.8S1147.49,611.24,1147.49,612.93Z" fill="#1c2126"/><path d="M1152,617.64a1.6,1.6,0,1,1-1.6-1.62A1.55,1.55,0,0,1,1152,617.64Z" fill="#1c2126"/><path d="M1156.27,606.34v12.72h-2.5V606.34Z" fill="#1c2126"/><path d="M1167,614.6a4.71,4.71,0,1,1-4.7-4.69A4.42,4.42,0,0,1,1167,614.6Zm-6.81,0a2.12,2.12,0,0,0,2.11,2.41c1.29,0,2.1-.94,2.1-2.41s-.81-2.42-2.1-2.42S1160.16,613.12,1160.16,614.6Z" fill="#1c2126"/><path d="M1176.59,610.12l-3.26,8.94h-3l-3.28-8.94h2.64l2.16,6.32,2.16-6.32Z" fill="#1c2126"/><path d="M1186.06,615.33h-6.61a1.92,1.92,0,0,0,2,1.81,1.82,1.82,0,0,0,1.75-.8h2.66a5,5,0,1,1,.17-1.77Zm-6.58-1.71h3.94a1.87,1.87,0,0,0-2-1.58A2,2,0,0,0,1179.48,613.62Z" fill="#1c2126"/><path d="M605.51,559.45V538.32H618v2.37H608.1v7.25h9v2.3h-9v9.21Z" fill="#1c2126"/><path d="M625.54,551v8.42H623V538.32h7.09c4.19,0,6.81,2.43,6.81,6.35A5.91,5.91,0,0,1,633,550.5l4.3,9h-2.91L630.41,551Zm0-2.18h4.19c2.92,0,4.56-1.48,4.56-4.12s-1.61-4.11-4.44-4.11h-4.31Z" fill="#1c2126"/><path d="M648.15,559.89c-4.81,0-7.75-3.45-7.75-9.3v-3.41c0-5.85,2.94-9.3,7.75-9.3s7.75,3.45,7.75,9.3v3.41C655.9,556.44,653,559.89,648.15,559.89Zm5.14-9.31v-3.39c0-4.41-1.93-6.87-5.14-6.87s-5.14,2.46-5.14,6.87v3.39c0,4.41,1.93,6.87,5.14,6.87S653.29,555,653.29,550.58Z" fill="#1c2126"/><path d="M661.38,559.45h-2.3V538.32H662l4.64,13.12h.19l4.62-13.12h2.9v21.13H672v-8.11l.13-8.56H672l-4.25,11.71h-2l-4.25-11.71h-.19l.14,8.56Z" fill="#1c2126"/><path d="M682.59,545.58a2.65,2.65,0,1,1,2.65,2.71A2.7,2.7,0,0,1,682.59,545.58Zm0,11.25a2.65,2.65,0,1,1,2.65,2.71A2.68,2.68,0,0,1,682.59,556.83Z" fill="#1c2126"/><path d="M27.75,606.92v12.14H25v-2.13l-4.7-5.41v7.54H17.63V606.92H20L25,612.77v-5.85Z" fill="#1c2126"/><path d="M38.37,615.33H31.76a1.92,1.92,0,0,0,2,1.81,1.81,1.81,0,0,0,1.74-.8H38.2a4.35,4.35,0,0,1-4.44,2.88,4.63,4.63,0,1,1,0-9.26,4.32,4.32,0,0,1,4.62,4.61Zm-6.58-1.71h3.94a1.87,1.87,0,0,0-2-1.58A2,2,0,0,0,31.79,613.62Z" fill="#1c2126"/><path d="M44.93,612.23H43v6.83H40.5v-6.83H38.82v-2.11H40.5V607.3H43v2.82h1.93Z" fill="#1c2126"/><path d="M48.9,606.34v12.72H46.4V606.34Z" fill="#1c2126"/><path d="M53.62,607.59a1.46,1.46,0,0,1-1.51,1.5,1.51,1.51,0,1,1,1.51-1.5Zm-.24,2.32v9.15h-2.5v-9.15a2.06,2.06,0,0,0,1.25.37A2,2,0,0,0,53.38,609.91Z" fill="#1c2126"/><path d="M58.55,609v1.09h1.87v2.11H58.55v6.83h-2.5v-6.83H54.61v-2.11h1.44V609a2.62,2.62,0,0,1,2.88-2.83h1.75v1.94H59.44A.78.78,0,0,0,58.55,609Z" fill="#1c2126"/><path d="M70.71,610.12l-5,11.89H63.33l1.38-3.28-3.49-8.61h2.51L66,615.69l2.32-5.57Z" fill="#1c2126"/><path d="M109.4,613c0,3.92-2.34,6.22-5.8,6.22s-5.79-2.3-5.79-6.22,2.33-6.25,5.79-6.25S109.4,609.08,109.4,613Zm-8.79,0c0,2.35,1.3,3.66,3,3.66s3-1.31,3-3.66-1.31-3.67-3-3.67S100.61,610.63,100.61,613Z" fill="#1c2126"/><path d="M120.32,610.53h-2.8c0-.89-.67-1.52-1.85-1.52s-1.7.55-1.7,1.23.38,1,1.49,1.3l1.37.32c2.64.59,3.73,1.73,3.73,3.73s-1.6,3.63-4.73,3.63-4.9-1.61-4.9-4h2.8a1.88,1.88,0,0,0,2.11,1.84c1.27,0,1.92-.63,1.92-1.44s-.38-1.09-1.57-1.35l-1.32-.27c-2.77-.56-3.72-1.87-3.72-3.73,0-2.06,1.6-3.54,4.58-3.54S120.32,608.29,120.32,610.53Z" fill="#1c2126"/><path d="M131.38,610.53h-2.8c0-.89-.67-1.52-1.86-1.52-1,0-1.69.55-1.69,1.23s.38,1,1.48,1.3l1.38.32c2.64.59,3.73,1.73,3.73,3.73s-1.6,3.63-4.74,3.63-4.9-1.61-4.9-4h2.81a1.88,1.88,0,0,0,2.11,1.84c1.26,0,1.92-.63,1.92-1.44s-.39-1.09-1.57-1.35l-1.33-.27c-2.77-.56-3.71-1.87-3.71-3.73,0-2.06,1.6-3.54,4.58-3.54S131.38,608.29,131.38,610.53Z" fill="#1c2126"/><path d="M91.16,610.11a3.62,3.62,0,0,0-1-1.22,3.91,3.91,0,0,0-2.49-1.14,3.62,3.62,0,0,0-2.51,1.37,8,8,0,0,0-1.41,2.21,6.53,6.53,0,0,0-2.39-2.73,4.09,4.09,0,0,0-3.58-.35,3,3,0,0,0-1.82,3,5,5,0,0,0,2,2.88q3.32,3,6.72,5.87l5-5.64C90.67,613.14,91.8,611.56,91.16,610.11Z" fill="#ff6b60" stroke="#ff6b60" stroke-linejoin="round"/></svg>