<?xml version="1.0" encoding="UTF-8"?><svg xmlns="http://www.w3.org/2000/svg" viewBox="0 0 1200 630"><g id="b"><rect width="1200" height="498.72" fill="#5cebdf"/></g><g id="d"><g opacity=".5"><path d="M1080.72,402.93c6.78,0,12.28,5.5,12.28,12.28v153.36c0,6.78-5.5,12.28-12.28,12.28h-392.5c-6.78,0-12.28-5.5-12.28-12.28v-153.36c0-6.78,5.5-12.28,12.28-12.28h392.5M1080.72,390.93h-392.5c-13.39,0-24.28,10.89-24.28,24.28v153.36c0,13.39,10.89,24.28,24.28,24.28h392.5c13.39,0,24.28-10.89,24.28-24.28v-153.36c0-13.39-10.89-24.28-24.28-24.28h0Z" fill="#bffde7"/></g><polygon points="850.48 273.48 822.65 233.49 794.21 273.48 809.86 273.48 809.86 551.52 834.82 551.52 834.82 273.48 850.48 273.48" fill="#db4648" stroke="#1c2126" stroke-linejoin="round" stroke-width="2"/><polygon points="875.41 281.42 847.59 241.43 819.14 281.42 834.8 281.42 834.8 559.45 859.76 559.45 859.76 281.42 875.41 281.42" fill="#ff6b60" stroke="#1c2126" stroke-linejoin="round" stroke-width="2"/><polygon points="900.4 289.35 872.57 249.36 844.13 289.35 859.79 289.35 859.79 567.39 884.74 567.39 884.74 289.35 900.4 289.35" fill="#ffd3bf" stroke="#1c2126" stroke-linejoin="round" stroke-width="2"/><polygon points="925.28 293.44 897.45 253.45 869.01 293.44 884.66 293.44 884.66 571.48 909.62 571.48 909.62 293.44 925.28 293.44" fill="#fff6d0" stroke="#1c2126" stroke-linejoin="round" stroke-width="2"/><polygon points="950.21 289.35 922.39 249.36 893.95 289.35 909.6 289.35 909.6 567.39 934.56 567.39 934.56 289.35 950.21 289.35" fill="#ffdd73" stroke="#1c2126" stroke-linejoin="round" stroke-width="2"/><polygon points="975.2 284.22 947.37 244.23 918.93 284.22 934.59 284.22 934.59 562.26 959.55 562.26 959.55 284.22 975.2 284.22" fill="#ffb916" stroke="#1c2126" stroke-linejoin="round" stroke-width="2"/><rect x="675.94" y="402.93" width="417.07" height="177.92" rx="12.28" ry="12.28" fill="#054861" stroke="#1c2126" stroke-miterlimit="10" stroke-width="2"/><polygon points="953.84 447.9 809.29 447.9 809.29 427.86 953.84 427.86 966.24 437.88 953.84 447.9" fill="#5cebdf" stroke="#1c2126" stroke-linejoin="round" stroke-width="2"/><polygon points="843.11 447.9 698.57 447.9 698.57 427.86 843.11 427.86 855.51 437.88 843.11 447.9" fill="#30c8c9" stroke="#1c2126" stroke-linejoin="round" stroke-width="2"/><polyline points="698.57 465.77 706.35 472.05 698.57 478.34" fill="none" stroke="#30c8c9" stroke-linecap="round" stroke-linejoin="round" stroke-width="2"/><rect x="715.45" y="460.57" width="14.54" height="22.61" fill="#30c8c9"/><path d="M1067.77,126.61c-8.12-3.61-17.34-3.55-26.22-3.43-9.87.13-19.73.26-29.6.39-2.71.04-5.78-.08-7.59-2.1-1.75-1.96-1.59-4.9-1.55-7.53.33-25.46-23.26-47.49-48.65-49.41-25.39-1.92-50.13,13.52-63.61,35.12-16.1-20.3-40.23-36.78-66.05-34.67-25.29,2.07-48.24,28.47-40.47,52.28-7.48-6.87-15.23-13.87-24.73-17.46-12.71-4.8-28.38-2.28-37.64,7.66s-10.18,27.17-.74,36.93c-12.9-6.25-29.54-3.74-40.02,6.04-10.49,9.78-13.02,26.58-4.68,39.01,8.35,12.43,41.83,6.38,63.98.3-3.85,20.1,17.65,37.9,38.11,37.84,20.47-.06,38.73-12.28,54.83-24.92,16.56,18.01,39.41,30.11,63.61,33.68,11.56,1.71,23.99,1.37,34.09-4.5,10.11-5.86,16.94-18.46,13.25-29.55,14.52,2.02,29.23,2.68,43.87,1.98,7.14-.34,14.94-1.32,19.86-6.51,4.92-5.19,3.89-15.84-3.09-17.38,23.68,5.12,49.66-1.96,67.47-18.37,4.32-3.98,8.34-8.82,9.16-14.63,1.24-8.8-5.49-17.16-13.61-20.77Z" fill="#fff" stroke="#1c2126" stroke-linejoin="round" stroke-width="2"/><path d="M184.54,185.96c-.51,0-.93-.16-1.26-.49-.33-.33-.49-.75-.49-1.26v-15.4l-16.38-29.61c-.05-.14-.09-.27-.14-.38-.05-.12-.07-.25-.07-.39,0-.37.15-.71.46-1.01.3-.3.64-.46,1.01-.46h7.49c.61,0,1.1.16,1.47.49.37.33.63.63.77.91l10.99,19.25,10.99-19.25c.14-.28.4-.58.77-.91.37-.33.89-.49,1.54-.49h7.42c.42,0,.77.15,1.05.46.28.3.42.64.42,1.01,0,.14-.01.27-.04.39s-.08.24-.17.38l-16.38,29.61v15.4c0,.51-.16.93-.49,1.26s-.75.49-1.26.49h-7.7Z" fill="#1c2126"/><path d="M226.89,186.66c-3.87,0-7.12-.64-9.73-1.92-2.61-1.28-4.61-3.12-5.98-5.5-1.38-2.38-2.14-5.16-2.28-8.33-.05-.93-.07-2-.07-3.19s.02-2.23.07-3.11c.14-3.22.93-6.01,2.38-8.37,1.45-2.36,3.48-4.18,6.09-5.46,2.61-1.28,5.79-1.92,9.52-1.92s6.84.64,9.45,1.92c2.61,1.28,4.64,3.1,6.09,5.46,1.45,2.36,2.26,5.14,2.45,8.37.05.89.07,1.92.07,3.11s-.02,2.25-.07,3.19c-.19,3.17-.97,5.95-2.34,8.33-1.38,2.38-3.37,4.21-5.98,5.5-2.61,1.28-5.83,1.92-9.66,1.92ZM226.89,178.89c2.29,0,4-.7,5.14-2.1s1.79-3.48,1.92-6.23c.05-.7.07-1.63.07-2.8s-.02-2.1-.07-2.8c-.14-2.71-.78-4.77-1.92-6.2-1.14-1.42-2.86-2.13-5.14-2.13s-4.01.71-5.18,2.13c-1.17,1.42-1.82,3.49-1.96,6.2-.05.7-.07,1.63-.07,2.8s.02,2.1.07,2.8c.14,2.75.79,4.83,1.96,6.23,1.17,1.4,2.89,2.1,5.18,2.1Z" fill="#1c2126"/><path d="M265.67,186.66c-2.71,0-5.1-.62-7.17-1.86-2.08-1.24-3.7-3.03-4.87-5.39-1.17-2.36-1.75-5.21-1.75-8.58v-19.53c0-.51.17-.93.52-1.26.35-.33.76-.49,1.23-.49h7.49c.47,0,.86.16,1.19.49.33.33.49.75.49,1.26v19.11c0,5.23,2.29,7.84,6.86,7.84,2.19,0,3.93-.69,5.22-2.06,1.28-1.38,1.92-3.3,1.92-5.78v-19.11c0-.51.16-.93.49-1.26.33-.33.75-.49,1.26-.49h7.42c.47,0,.86.16,1.19.49.33.33.49.75.49,1.26v32.9c0,.51-.16.93-.49,1.26-.33.33-.72.49-1.19.49h-6.93c-.47,0-.86-.16-1.19-.49-.33-.33-.49-.75-.49-1.26v-2.73c-1.21,1.68-2.78,2.96-4.69,3.85-1.91.89-4.25,1.33-7,1.33Z" fill="#1c2126"/><path d="M328.18,186.66c-3.45,0-6.48-.63-9.07-1.89-2.59-1.26-4.63-3.09-6.12-5.49-1.49-2.4-2.31-5.29-2.45-8.65-.05-.75-.07-1.69-.07-2.83s.02-2.09.07-2.83c.14-3.41.95-6.31,2.42-8.71,1.47-2.4,3.51-4.24,6.12-5.5,2.61-1.26,5.65-1.89,9.1-1.89,3.08,0,5.72.43,7.91,1.29s3.99,1.96,5.39,3.29c1.4,1.33,2.45,2.69,3.15,4.09.7,1.4,1.07,2.64,1.12,3.71.05.51-.12.93-.49,1.26-.38.33-.79.49-1.26.49h-7.49c-.51,0-.9-.12-1.16-.35-.26-.23-.5-.61-.74-1.12-.61-1.63-1.42-2.8-2.45-3.5-1.03-.7-2.31-1.05-3.85-1.05-2.1,0-3.75.68-4.93,2.03-1.19,1.35-1.83,3.45-1.93,6.3-.09,1.82-.09,3.48,0,4.97.09,2.89.74,4.99,1.93,6.3,1.19,1.31,2.83,1.96,4.93,1.96,1.63,0,2.94-.35,3.92-1.05.98-.7,1.77-1.87,2.38-3.5.23-.51.48-.89.74-1.12.26-.23.64-.35,1.16-.35h7.49c.47,0,.89.16,1.26.49.37.33.54.75.49,1.26-.05.79-.28,1.73-.7,2.8-.42,1.07-1.06,2.17-1.92,3.29-.86,1.12-1.97,2.16-3.33,3.11-1.35.96-3,1.73-4.93,2.31-1.94.58-4.17.88-6.68.88Z" fill="#1c2126"/><path d="M363.25,186.66c-2.47,0-4.69-.48-6.65-1.44s-3.52-2.25-4.69-3.88c-1.17-1.63-1.75-3.45-1.75-5.46,0-3.31,1.34-5.93,4.02-7.84,2.68-1.91,6.22-3.22,10.61-3.92l9.17-1.33v-1.26c0-1.82-.42-3.22-1.26-4.2-.84-.98-2.31-1.47-4.41-1.47-1.54,0-2.77.3-3.67.91-.91.61-1.62,1.4-2.14,2.38-.37.61-.93.91-1.68.91h-6.65c-.51,0-.91-.15-1.19-.46-.28-.3-.4-.66-.35-1.08,0-.79.3-1.73.91-2.8.61-1.07,1.54-2.13,2.8-3.18,1.26-1.05,2.88-1.92,4.86-2.62s4.38-1.05,7.18-1.05c2.94,0,5.46.35,7.56,1.05s3.79,1.68,5.08,2.94c1.28,1.26,2.22,2.72,2.8,4.38.58,1.66.88,3.44.88,5.36v21.63c0,.51-.16.93-.49,1.26s-.72.49-1.19.49h-6.93c-.47,0-.86-.16-1.19-.49-.33-.33-.49-.75-.49-1.26v-2.59c-.61.89-1.42,1.71-2.45,2.48-1.03.77-2.25,1.39-3.67,1.86-1.42.47-3.09.7-5,.7ZM366.05,179.38c1.54,0,2.92-.33,4.13-.98,1.21-.65,2.17-1.66,2.87-3.01.7-1.35,1.05-3.06,1.05-5.11v-1.19l-6.51,1.05c-2.47.42-4.29,1.05-5.46,1.89-1.17.84-1.75,1.87-1.75,3.08,0,.89.27,1.64.8,2.27.54.63,1.24,1.12,2.1,1.47.86.35,1.79.53,2.76.53Z" fill="#1c2126"/><path d="M394.81,185.96c-.47,0-.88-.16-1.22-.49-.35-.33-.53-.75-.53-1.26v-32.9c0-.51.17-.93.53-1.26.35-.33.76-.49,1.22-.49h6.86c.51,0,.93.16,1.26.49.33.33.49.75.49,1.26v2.73c1.21-1.49,2.79-2.73,4.72-3.71,1.94-.98,4.26-1.47,6.96-1.47s5.18.62,7.28,1.85c2.1,1.24,3.73,3.03,4.9,5.39,1.17,2.36,1.75,5.22,1.75,8.58v19.53c0,.51-.16.93-.49,1.26s-.75.49-1.26.49h-7.42c-.51,0-.93-.16-1.26-.49-.33-.33-.49-.75-.49-1.26v-19.11c0-2.47-.6-4.4-1.79-5.77-1.19-1.38-2.93-2.07-5.21-2.07s-3.93.69-5.22,2.07c-1.28,1.38-1.92,3.3-1.92,5.77v19.11c0,.51-.16.93-.49,1.26-.33.33-.75.49-1.26.49h-7.42Z" fill="#1c2126"/><path d="M435.91,152.92c-.42,0-.76-.14-1.02-.42-.26-.28-.36-.68-.31-1.19l2.03-12.74c.09-.61.33-1.14.7-1.61.37-.47.93-.7,1.68-.7h7.28c.37,0,.69.14.95.42.26.28.38.58.38.91s-.07.61-.21.84l-4.83,12.6c-.19.47-.46.9-.8,1.29-.35.4-.9.59-1.65.59h-4.2Z" fill="#1c2126"/><path d="M471.18,185.96c-2.89,0-5.36-.48-7.38-1.43-2.03-.96-3.58-2.44-4.66-4.45-1.07-2.01-1.61-4.53-1.61-7.56v-14.7h-5.46c-.51,0-.93-.16-1.26-.49-.33-.33-.49-.72-.49-1.19v-4.83c0-.51.16-.93.49-1.26s.75-.49,1.26-.49h5.46v-11.55c0-.51.17-.93.53-1.26.35-.33.76-.49,1.22-.49h6.93c.47,0,.86.16,1.19.49.33.33.49.75.49,1.26v11.55h8.75c.51,0,.93.16,1.26.49.33.33.49.75.49,1.26v4.83c0,.47-.16.86-.49,1.19s-.75.49-1.26.49h-8.75v13.86c0,1.77.33,3.16.98,4.17.65,1,1.75,1.5,3.29,1.5h5.11c.51,0,.93.16,1.26.49.33.33.49.72.49,1.19v5.18c0,.51-.16.93-.49,1.26s-.75.49-1.26.49h-6.09Z" fill="#1c2126"/><path d="M135.68,405.96c-.65,0-1.16-.16-1.5-.49-.35-.33-.62-.75-.8-1.26l-10.01-32.41c-.09-.23-.14-.47-.14-.7,0-.42.15-.78.46-1.08.3-.3.67-.46,1.08-.46h6.23c.56,0,1,.16,1.33.49.33.33.54.63.63.91l6.37,21.56,6.79-21.42c.09-.33.32-.67.67-1.01.35-.35.85-.53,1.5-.53h3.99c.65,0,1.16.18,1.5.53.35.35.57.69.67,1.01l6.79,21.42,6.37-21.56c.05-.28.23-.58.56-.91.33-.33.79-.49,1.4-.49h6.23c.42,0,.78.15,1.08.46.3.3.46.67.46,1.08,0,.23-.05.47-.14.7l-10.01,32.41c-.19.51-.44.93-.77,1.26-.33.33-.84.49-1.54.49h-5.39c-.65,0-1.17-.16-1.54-.49-.37-.33-.65-.75-.84-1.26l-6.79-20.65-6.86,20.65c-.19.51-.46.93-.81,1.26-.35.33-.88.49-1.58.49h-5.39Z" fill="#1c2126"/><path d="M185.17,363.96c-.47,0-.86-.16-1.19-.49-.33-.33-.49-.75-.49-1.26v-5.67c0-.47.16-.88.49-1.22.33-.35.72-.53,1.19-.53h7.42c.47,0,.88.17,1.23.53s.52.76.52,1.22v5.67c0,.51-.17.93-.52,1.26-.35.33-.76.49-1.23.49h-7.42ZM185.38,405.96c-.47,0-.88-.16-1.22-.49-.35-.33-.53-.75-.53-1.26v-32.9c0-.51.17-.93.53-1.26.35-.33.76-.49,1.22-.49h7.07c.47,0,.86.16,1.19.49.33.33.49.75.49,1.26v32.9c0,.51-.16.93-.49,1.26-.33.33-.72.49-1.19.49h-7.07Z" fill="#1c2126"/><path d="M220.45,405.96c-2.89,0-5.36-.48-7.38-1.43-2.03-.96-3.58-2.44-4.66-4.45-1.07-2.01-1.61-4.53-1.61-7.56v-14.7h-5.46c-.51,0-.93-.16-1.26-.49-.33-.33-.49-.72-.49-1.19v-4.83c0-.51.16-.93.49-1.26s.75-.49,1.26-.49h5.46v-11.55c0-.51.17-.93.53-1.26.35-.33.76-.49,1.22-.49h6.93c.47,0,.86.16,1.19.49.33.33.49.75.49,1.26v11.55h8.75c.51,0,.93.16,1.26.49.33.33.49.75.49,1.26v4.83c0,.47-.16.86-.49,1.19s-.75.49-1.26.49h-8.75v13.86c0,1.77.33,3.16.98,4.17.65,1,1.75,1.5,3.29,1.5h5.11c.51,0,.93.16,1.26.49.33.33.49.72.49,1.19v5.18c0,.51-.16.93-.49,1.26s-.75.49-1.26.49h-6.09Z" fill="#1c2126"/><path d="M236.06,405.96c-.51,0-.93-.16-1.26-.49-.33-.33-.49-.75-.49-1.26v-46.2c0-.51.16-.93.49-1.26.33-.33.75-.49,1.26-.49h7.56c.51,0,.93.16,1.26.49.33.33.49.75.49,1.26v15.75c1.21-1.49,2.74-2.68,4.58-3.57s4.05-1.33,6.62-1.33c2.75,0,5.19.62,7.32,1.85,2.12,1.24,3.78,3.03,4.97,5.39,1.19,2.36,1.79,5.22,1.79,8.58v19.53c0,.51-.16.93-.49,1.26s-.75.49-1.26.49h-7.63c-.47,0-.86-.16-1.19-.49-.33-.33-.49-.75-.49-1.26v-19.11c0-2.47-.61-4.4-1.82-5.77-1.21-1.38-2.94-2.07-5.18-2.07s-3.94.69-5.25,2.07c-1.31,1.38-1.96,3.3-1.96,5.77v19.11c0,.51-.16.93-.49,1.26-.33.33-.75.49-1.26.49h-7.56Z" fill="#1c2126"/><path d="M295.7,406.66c-3.87,0-7.12-.64-9.73-1.92-2.61-1.28-4.61-3.12-5.98-5.5-1.38-2.38-2.14-5.16-2.28-8.33-.05-.93-.07-2-.07-3.19s.02-2.23.07-3.11c.14-3.22.93-6.01,2.38-8.37,1.45-2.36,3.48-4.18,6.09-5.46,2.61-1.28,5.79-1.92,9.52-1.92s6.84.64,9.45,1.92c2.61,1.28,4.64,3.1,6.09,5.46,1.45,2.36,2.26,5.14,2.45,8.37.05.89.07,1.92.07,3.11s-.02,2.25-.07,3.19c-.19,3.17-.97,5.95-2.34,8.33-1.38,2.38-3.37,4.21-5.98,5.5-2.61,1.28-5.83,1.92-9.66,1.92ZM295.7,398.89c2.29,0,4-.7,5.14-2.1s1.79-3.48,1.92-6.23c.05-.7.07-1.63.07-2.8s-.02-2.1-.07-2.8c-.14-2.71-.78-4.77-1.92-6.2-1.14-1.42-2.86-2.13-5.14-2.13s-4.01.71-5.18,2.13c-1.17,1.42-1.82,3.49-1.96,6.2-.05.7-.07,1.63-.07,2.8s.02,2.1.07,2.8c.14,2.75.79,4.83,1.96,6.23,1.17,1.4,2.89,2.1,5.18,2.1Z" fill="#1c2126"/><path d="M334.48,406.66c-2.71,0-5.1-.62-7.17-1.86-2.08-1.24-3.7-3.03-4.87-5.39-1.17-2.36-1.75-5.21-1.75-8.58v-19.53c0-.51.17-.93.52-1.26.35-.33.76-.49,1.23-.49h7.49c.47,0,.86.16,1.19.49.33.33.49.75.49,1.26v19.11c0,5.23,2.29,7.84,6.86,7.84,2.19,0,3.93-.69,5.22-2.06,1.28-1.38,1.92-3.3,1.92-5.78v-19.11c0-.51.16-.93.49-1.26.33-.33.75-.49,1.26-.49h7.42c.47,0,.86.16,1.19.49.33.33.49.75.49,1.26v32.9c0,.51-.16.93-.49,1.26-.33.33-.72.49-1.19.49h-6.93c-.47,0-.86-.16-1.19-.49-.33-.33-.49-.75-.49-1.26v-2.73c-1.21,1.68-2.78,2.96-4.69,3.85-1.91.89-4.25,1.33-7,1.33Z" fill="#1c2126"/><path d="M382.78,405.96c-2.89,0-5.36-.48-7.38-1.43-2.03-.96-3.58-2.44-4.66-4.45-1.07-2.01-1.61-4.53-1.61-7.56v-14.7h-5.46c-.51,0-.93-.16-1.26-.49-.33-.33-.49-.72-.49-1.19v-4.83c0-.51.16-.93.49-1.26s.75-.49,1.26-.49h5.46v-11.55c0-.51.17-.93.53-1.26.35-.33.76-.49,1.22-.49h6.93c.47,0,.86.16,1.19.49.33.33.49.75.49,1.26v11.55h8.75c.51,0,.93.16,1.26.49.33.33.49.75.49,1.26v4.83c0,.47-.16.86-.49,1.19s-.75.49-1.26.49h-8.75v13.86c0,1.77.33,3.16.98,4.17.65,1,1.75,1.5,3.29,1.5h5.11c.51,0,.93.16,1.26.49.33.33.49.72.49,1.19v5.18c0,.51-.16.93-.49,1.26s-.75.49-1.26.49h-6.09Z" fill="#1c2126"/><path d="M411.54,372.92c-.37,0-.69-.14-.94-.42-.26-.28-.39-.58-.39-.91s.07-.63.21-.91l4.9-12.53c.19-.47.46-.9.8-1.3.35-.4.88-.59,1.58-.59h4.27c.37,0,.7.14.98.42s.37.68.28,1.19l-1.96,12.67c-.09.61-.34,1.16-.74,1.64-.4.49-.97.74-1.71.74h-7.28Z" fill="#1c2126"/><path d="M443.33,406.66c-2.71,0-5.1-.62-7.17-1.86-2.08-1.24-3.7-3.03-4.87-5.39-1.17-2.36-1.75-5.21-1.75-8.58v-19.53c0-.51.17-.93.52-1.26.35-.33.76-.49,1.23-.49h7.49c.47,0,.86.16,1.19.49.33.33.49.75.49,1.26v19.11c0,5.23,2.29,7.84,6.86,7.84,2.19,0,3.93-.69,5.22-2.06,1.28-1.38,1.92-3.3,1.92-5.78v-19.11c0-.51.16-.93.49-1.26.33-.33.75-.49,1.26-.49h7.42c.47,0,.86.16,1.19.49.33.33.49.75.49,1.26v32.9c0,.51-.16.93-.49,1.26-.33.33-.72.49-1.19.49h-6.93c-.47,0-.86-.16-1.19-.49-.33-.33-.49-.75-.49-1.26v-2.73c-1.21,1.68-2.78,2.96-4.69,3.85-1.91.89-4.25,1.33-7,1.33Z" fill="#1c2126"/><path d="M488.47,406.66c-2.89,0-5.38-.34-7.46-1.02-2.08-.68-3.76-1.5-5.04-2.48-1.28-.98-2.24-1.97-2.87-2.98-.63-1-.97-1.85-1.01-2.55-.05-.51.12-.93.49-1.26.37-.33.75-.49,1.12-.49h6.79c.19,0,.34.02.46.07.12.05.27.16.46.35.61.42,1.22.9,1.85,1.44.63.54,1.39.99,2.28,1.36.89.37,1.96.56,3.22.56,1.54,0,2.83-.32,3.88-.95s1.58-1.53,1.58-2.7c0-.84-.23-1.54-.7-2.1-.47-.56-1.38-1.07-2.73-1.54-1.35-.47-3.36-.98-6.02-1.54-2.52-.56-4.67-1.31-6.44-2.24-1.77-.93-3.1-2.11-3.99-3.53-.89-1.42-1.33-3.14-1.33-5.15,0-1.82.57-3.57,1.71-5.25s2.83-3.07,5.08-4.17c2.24-1.1,5.04-1.64,8.4-1.64,2.57,0,4.82.31,6.75.94,1.94.63,3.56,1.42,4.86,2.38,1.31.96,2.3,1.94,2.98,2.94.68,1,1.04,1.88,1.08,2.62.05.51-.09.93-.42,1.26s-.7.49-1.12.49h-6.23c-.23,0-.44-.05-.63-.14s-.35-.21-.49-.35c-.56-.33-1.13-.75-1.71-1.26-.58-.51-1.27-.96-2.06-1.33-.79-.37-1.82-.56-3.08-.56-1.49,0-2.65.34-3.46,1.01-.82.68-1.23,1.53-1.23,2.55,0,.65.21,1.26.63,1.82s1.27,1.07,2.56,1.54c1.28.47,3.28.96,5.98,1.47,3.17.56,5.69,1.4,7.56,2.52,1.87,1.12,3.2,2.42,3.99,3.88.79,1.47,1.19,3.04,1.19,4.72,0,2.19-.64,4.14-1.92,5.85-1.28,1.7-3.19,3.03-5.71,3.99s-5.6,1.44-9.24,1.44Z" fill="#1c2126"/><path d="M510.88,372.92c-.42,0-.76-.14-1.02-.42-.26-.28-.36-.68-.31-1.19l2.03-12.74c.09-.61.33-1.14.7-1.61.37-.47.93-.7,1.68-.7h7.28c.37,0,.69.14.95.42.26.28.38.58.38.91s-.07.61-.21.84l-4.83,12.6c-.19.47-.46.9-.8,1.29-.35.4-.9.59-1.65.59h-4.2Z" fill="#1c2126"/><rect x="124.2" y="220.61" width="397.09" height="92.15" rx="9.29" ry="9.29" fill="#1c2126" opacity=".15"/><path d="M145.07,294.38h8.13c.71,2.82,4.17,4.63,8.8,4.63,6.1,0,9.41-2.92,9.41-8.38v-7.06h-.71c-1.39,4.31-5.88,7.06-11.62,7.06-9.02,0-14.62-6.38-14.62-16.68v-6.38c0-10.37,5.67-16.68,14.94-16.68,5.67,0,10.02,2.71,11.44,7.06h.71v-6.38h8.16v39c0,9.16-6.74,14.72-17.82,14.72-9.7,0-16.11-4.17-16.82-10.91ZM162.14,283.41c5.6,0,9.2-3.89,9.2-9.98v-5.49c0-6.1-3.6-9.98-9.2-9.98s-9.23,3.88-9.23,9.98v5.49c0,6.09,3.6,9.98,9.23,9.98Z" fill="#1c2126"/><path d="M192.09,290.61v-6.63h12.87v-25.77h-12.44v-6.63h20.53v32.4h12.26v6.63h-33.22ZM202.71,237.25c0-3.35,2.49-5.67,6.02-5.67s6.06,2.32,6.06,5.67-2.5,5.67-6.06,5.67-6.02-2.32-6.02-5.67Z" fill="#1c2126"/><path d="M253.87,240.67v11.16h15.08v6.7h-14.94v20.07c0,3.46,2.46,5.38,6.88,5.38,1.43,0,7.06-.04,7.74-.11v6.63c-.64.11-7.2.21-8.38.21-10.27,0-14.51-3.49-14.51-12.16v-20.03h-10.27v-6.7h10.27v-11.16h8.13Z" fill="#1c2126"/><path d="M361.67,267.62v6.95c0,10.41-5.56,16.72-14.54,16.72-5.63,0-9.62-2.57-11.09-7.06h-.71v19.46h-8.55v-52.11h8.41v6.42h.71c1.64-4.56,5.6-7.06,11.23-7.06,8.98,0,14.54,6.31,14.54,16.68ZM335.15,268.15v6.13c0,6.13,3.46,9.94,9.02,9.94s9.05-3.85,9.05-9.94v-6.13c0-6.13-3.46-9.94-9.05-9.94s-9.02,3.81-9.02,9.94Z" fill="#1c2126"/><path d="M405.52,290.61h-8.02v-6.67h-.57c-2,4.78-6.31,7.45-12.05,7.45-8.48,0-13.08-5.06-13.08-14.54v-25.27h8.3v23.28c0,6.27,2.57,9.23,7.91,9.23s9.2-3.85,9.2-9.77v-22.74h8.31v39.03Z" fill="#1c2126"/><path d="M433.83,250.72c8.95,0,14.61,4.13,15.15,11.16h-7.84c-.57-2.92-3.39-4.74-7.41-4.74s-6.92,1.93-6.92,4.85c0,2.5,1.78,3.92,6.02,4.85l5.81,1.25c7.81,1.68,11.26,4.99,11.26,10.84,0,7.59-6.24,12.48-16.04,12.48s-15.61-4.24-16.18-11.3h8.23c.71,3.07,3.67,4.81,8.09,4.81s7.38-2,7.38-5.03c0-2.57-1.64-3.89-6.09-4.85l-5.85-1.28c-7.2-1.6-10.84-5.31-10.84-11.12,0-7.27,5.99-11.91,15.22-11.91Z" fill="#1c2126"/><path d="M461.99,236.5h8.06v21.81h.53c1.96-4.74,6.38-7.45,12.16-7.45,8.52,0,13.15,5.13,13.15,14.51v25.24h-8.31v-23.21c0-6.24-2.6-9.27-7.98-9.27s-9.34,3.92-9.34,9.84v22.63h-8.27v-54.11Z" fill="#1c2126"/><path d="M856.36,146.25s10.16-10.49,20.66,0" fill="none" stroke="#1c2126" stroke-linecap="round" stroke-miterlimit="10" stroke-width="2"/><path d="M891.79,146.25s10.16-10.49,20.66,0" fill="none" stroke="#1c2126" stroke-linecap="round" stroke-miterlimit="10" stroke-width="2"/><path d="M862.4,158.52c.37,11.09,10.2,19.99,22.3,19.99s21.94-8.89,22.3-19.99h-44.61Z" fill="#7a122d" stroke="#1c2126" stroke-linecap="round" stroke-linejoin="round" stroke-width="2"/><path d="M1056.41,76.1c-.1-1.05-.6-2.02-1.15-2.92-.96-1.58-2.22-3.13-3.99-3.68-1.85-.58-3.87.08-5.55,1.04-1.51.86-2.85,1.98-4,3.28-.36-2.4-1.23-4.77-2.83-6.59-1.62-1.84-4.06-3.06-6.5-2.85-2.45.21-4.77,2.02-5.24,4.43-.45,2.31.75,4.59,1.93,6.63,2.93,5.1,5.94,10.15,9.03,15.15,4.28-2.51,8.56-5.02,12.84-7.52,2.7-1.58,5.78-3.85,5.47-6.97Z" fill="#ff6b60" stroke="#1c2126" stroke-linejoin="round" stroke-width="2"/><path d="M766.34,48.97c-1.02-.8-2.3-1.18-3.56-1.45-2.22-.49-4.66-.69-6.64.41-2.08,1.15-3.22,3.49-3.79,5.8-.52,2.06-.67,4.21-.49,6.33-2.43-1.72-5.27-2.96-8.24-3.09-3.01-.13-6.15,1-8.04,3.34-1.89,2.34-2.26,5.94-.52,8.4,1.67,2.36,4.7,3.22,7.5,3.92,7,1.73,14.03,3.35,21.08,4.86,1.41-5.92,2.82-11.84,4.23-17.75.89-3.73,1.49-8.39-1.53-10.76Z" fill="#ff6b60" stroke="#1c2126" stroke-linejoin="round" stroke-width="2"/><path d="M145.31,59.89c.1-3.74-3.25-6.83-6.84-7.86-3.6-1.03-7.42-.53-11.16-.28-.58.04-1.18.07-1.72-.12-1.15-.41-1.73-1.64-2.3-2.71-2.84-5.31-5.03-9.45-14.33-9.85s-15.48,7.15-15.48,7.15c-3.46-2.81-7.01-5.67-11.19-7.21-5.53-2.03-12.32-1.32-16.51,2.83-4.18,4.15-4.6,11.91-.11,15.73-5.38.04-11.02.16-15.69,2.81-4.68,2.65-7.86,8.75-5.44,13.55,2.3,4.56,8.26,5.81,13.37,5.52,6.05-.34,12.01-2.11,17.28-5.11-.27,4.8,3.02,9.26,7.2,11.64,4.18,2.38,9.1,3.03,13.89,3.34,3.75.24,7.74.24,10.95-1.71,3.21-1.95,5.11-6.51,2.98-9.6,4.42-.07,8.59,1.83,12.89,2.84,4.3,1.01,9.41.91,12.41-2.34,2.99-3.25,1.19-10.06-3.22-9.85,5.72-.54,12.89-3,13.04-8.75Z" fill="#fff" stroke="#1c2126" stroke-linejoin="round" stroke-width="2"/><path d="M1202.96,285.96c-6.4-1.36-13.38.32-18.46,4.44-5.08,4.12-8.17,10.6-8.16,17.15-4.5-2.95-11.11-2.8-14.85,1.07s-3.19,11.29,1.53,13.9c-6.86-.8-14.04,2.8-17.5,8.78-1.52,2.63-2.31,6.05-.75,8.66.93,1.55,2.55,2.57,4.21,3.29,5.75,2.47,12.75,1.76,17.89-1.81,2.96,4.34,6.75,8.62,11.88,9.75,5.13,1.13,11.46-2.57,11.11-7.81,4.86,3.84,11.24,5.71,17.4,5.11" fill="#fff" stroke="#1c2126" stroke-linejoin="round" stroke-width="2"/><path d="M685.34,277.39c-.63-.76-1.57-1.17-2.49-1.51-3.5-1.32-7.19-2.12-10.91-2.39,1.35-2.47,5.42-7.41,2.28-12.47-3.15-5.06-18.26-2.63-23.7,3.24,0,0-4.8-8.08-15.49-5.89-5.27,1.08-10.38,4.78-11.12,10.11-3.23-2.94-7.72-4.76-12-3.92-4.28.84-8.01,4.8-7.74,9.16-7.58-3.32-26.94-5.69-26.92,7.6,0,2.62,2.01,4.93,4.51,5.7,2.51.77,5.21.39,7.8.02.86-.12,1.75-.23,2.56.06.71.26,1.27.8,1.84,1.3,4.44,3.92,10.55,5.89,16.45,5.3,5.9-.59,11.49-3.73,15.07-8.46,5.73,2.73,11.72,4.91,17.87,6.52,3.98,1.04,8.16,1.84,12.19,1.02s7.91-3.58,8.94-7.56c3.47,2.29,7.58,3.84,11.72,3.48,4.14-.36,8.22-2.94,9.58-6.86.51-1.47.58-3.25-.42-4.45Z" fill="#fff" stroke="#1c2126" stroke-linecap="round" stroke-linejoin="round" stroke-width="2"/><rect x="0" y="595" width="1200" height="35" fill="#fff"/><rect x="0" y="499.19" width="1200" height="95.81" fill="#fff"/><line x1="0" y1="499.19" x2="1200" y2="499.19" fill="none" stroke="#1c2126" stroke-miterlimit="10"/><line x1="0" y1="595" x2="1200" y2="595" fill="none" stroke="#1c2126" stroke-miterlimit="10"/><path d="M24.24,559.45v-18.76h-6.39v-2.37h15.35v2.37h-6.39v18.76h-2.58Z" fill="#1c2126"/><path d="M44.08,559.89c-4.8,0-7.75-3.46-7.75-9.3v-3.41c0-5.84,2.94-9.3,7.75-9.3s7.75,3.46,7.75,9.3v3.41c0,5.84-2.94,9.3-7.75,9.3ZM49.22,550.58v-3.38c0-4.41-1.93-6.87-5.14-6.87s-5.14,2.46-5.14,6.87v3.38c0,4.41,1.93,6.87,5.14,6.87s5.14-2.46,5.14-6.87Z" fill="#1c2126"/><path d="M59.97,545.58c0-1.48,1.2-2.71,2.65-2.71s2.65,1.23,2.65,2.71-1.2,2.71-2.65,2.71-2.65-1.23-2.65-2.71ZM59.97,556.83c0-1.48,1.2-2.7,2.65-2.7s2.65,1.21,2.65,2.7-1.2,2.71-2.65,2.71-2.65-1.21-2.65-2.71Z" fill="#1c2126"/><line x1="582.03" y1="498.72" x2="582.03" y2="595" fill="none" stroke="#1c2126" stroke-miterlimit="10"/><path d="M605.51,559.45v-21.14h12.47v2.37h-9.87v7.25h9.02v2.3h-9.02v9.21h-2.59Z" fill="#1c2126"/><path d="M625.54,551.03v8.42h-2.55v-21.14h7.09c4.19,0,6.81,2.43,6.81,6.36,0,2.77-1.54,5.04-3.94,5.83l4.31,8.95h-2.92l-3.94-8.42h-4.86ZM625.54,548.85h4.19c2.92,0,4.56-1.48,4.56-4.12s-1.61-4.12-4.44-4.12h-4.31v8.23Z" fill="#1c2126"/><path d="M648.15,559.89c-4.8,0-7.75-3.46-7.75-9.3v-3.41c0-5.84,2.94-9.3,7.75-9.3s7.75,3.46,7.75,9.3v3.41c0,5.84-2.94,9.3-7.75,9.3ZM653.29,550.58v-3.38c0-4.41-1.93-6.87-5.14-6.87s-5.14,2.46-5.14,6.87v3.38c0,4.41,1.93,6.87,5.14,6.87s5.14-2.46,5.14-6.87Z" fill="#1c2126"/><path d="M661.18,559.45h-2.31v-21.14h2.86l4.88,13.08h.19l4.86-13.08h2.86v21.14h-2.31v-8.1l.15-8.57h-.19l-4.45,11.71h-2.02l-4.45-11.71h-.19l.15,8.57v8.1Z" fill="#1c2126"/><path d="M682.59,545.58c0-1.48,1.2-2.71,2.65-2.71s2.65,1.23,2.65,2.71-1.2,2.71-2.65,2.71-2.65-1.23-2.65-2.71ZM682.59,556.83c0-1.48,1.2-2.7,2.65-2.7s2.65,1.21,2.65,2.7-1.2,2.71-2.65,2.71-2.65-1.21-2.65-2.71Z" fill="#1c2126"/><path d="M12.77,618.4c-.12,0-.21-.04-.26-.11s-.08-.17-.06-.27l2.22-10.42c.02-.12.07-.21.16-.29.08-.07.19-.11.3-.11h6.95c.12,0,.2.04.26.11.05.07.07.17.05.29l-.24,1.12c-.02.12-.08.21-.16.28-.08.07-.19.11-.3.11h-5.14l-.66,3.04h4.82c.12,0,.2.04.26.11.05.07.07.17.05.29l-.22,1.12c-.02.11-.08.2-.17.27-.09.07-.19.11-.31.11h-4.82l-.85,3.97c-.02.11-.08.2-.16.27s-.19.11-.3.11h-1.41Z" fill="#1c2126"/><path d="M25.41,618.56c-.81,0-1.49-.15-2.02-.45s-.92-.72-1.15-1.26c-.23-.54-.29-1.18-.17-1.9.03-.19.08-.43.13-.71s.12-.51.17-.7c.19-.74.49-1.37.89-1.91s.91-.96,1.54-1.26c.62-.3,1.36-.45,2.22-.45s1.49.15,2.02.45c.54.3.93.72,1.16,1.26s.29,1.18.18,1.91c-.04.19-.09.43-.14.7s-.11.51-.16.71c-.19.72-.48,1.36-.87,1.9-.39.54-.9.96-1.52,1.26s-1.38.45-2.26.45ZM25.57,616.98c.58,0,1.06-.18,1.46-.54.4-.36.69-.88.87-1.58.04-.16.09-.37.14-.62s.1-.46.13-.62c.12-.69.07-1.22-.14-1.58-.21-.36-.61-.54-1.18-.54s-1.05.18-1.46.54-.69.88-.86,1.58c-.04.16-.09.37-.15.62s-.1.46-.12.62c-.12.69-.07,1.22.14,1.58s.6.54,1.18.54Z" fill="#1c2126"/><path d="M31.53,618.4c-.11,0-.19-.04-.25-.11s-.08-.17-.06-.27l1.6-7.54c.02-.12.08-.21.17-.29s.19-.11.3-.11h1.3c.11,0,.19.04.25.11s.08.17.06.29l-.14.66c.26-.34.58-.6.98-.78s.88-.27,1.44-.27h.78c.12,0,.2.04.26.11.05.07.07.16.05.27l-.24,1.15c-.02.11-.08.2-.17.27s-.19.11-.3.11h-1.25c-.51,0-.94.14-1.29.43-.35.28-.57.68-.68,1.19l-.94,4.4c-.02.11-.07.2-.16.27-.08.07-.19.11-.3.11h-1.39Z" fill="#1c2126"/><path d="M44.76,618.4c-.73,0-1.29-.11-1.7-.34-.4-.22-.67-.56-.78-1-.12-.44-.11-.99.03-1.66l.79-3.63h-1.26c-.11,0-.19-.04-.25-.11-.06-.07-.08-.17-.06-.29l.19-.91c.02-.11.08-.2.17-.27.09-.07.2-.11.31-.11h1.25l.58-2.65c.02-.11.07-.2.16-.27.08-.07.18-.11.29-.11h1.3c.12,0,.21.04.26.11.06.08.08.17.06.27l-.58,2.65h2c.11,0,.19.04.25.11s.08.16.06.27l-.19.91c-.02.12-.08.21-.17.29-.09.08-.19.11-.3.11h-2l-.74,3.47c-.06.29-.1.54-.1.74,0,.21.05.37.17.48s.33.17.62.17h1.15c.12,0,.2.04.26.11.05.08.07.17.05.27l-.21.99c-.02.11-.08.2-.16.27-.09.07-.19.11-.3.11h-1.14Z" fill="#1c2126"/><path d="M48.07,618.4c-.11,0-.19-.04-.25-.11s-.08-.17-.06-.27l2.26-10.59c.02-.11.08-.2.16-.27.08-.07.18-.11.29-.11h1.44c.11,0,.19.04.25.11.06.08.08.17.06.27l-.78,3.65c.34-.34.72-.62,1.14-.83.42-.21.93-.32,1.53-.32.69,0,1.26.15,1.7.44.44.29.75.71.92,1.24.17.53.18,1.17.02,1.92l-.96,4.5c-.02.11-.08.2-.16.27-.09.07-.19.11-.3.11h-1.44c-.11,0-.19-.04-.25-.11s-.08-.17-.06-.27l.93-4.4c.14-.62.11-1.1-.08-1.46-.19-.35-.58-.53-1.17-.53-.36,0-.71.08-1.03.23-.33.15-.61.38-.84.68s-.4.66-.5,1.07l-.93,4.4c-.02.11-.08.2-.16.27-.09.07-.18.11-.29.11h-1.44Z" fill="#1c2126"/><path d="M61.51,618.56c-.78,0-1.43-.15-1.95-.46-.52-.31-.87-.76-1.07-1.35-.2-.59-.23-1.29-.09-2.13.02-.11.05-.24.08-.41.03-.17.06-.3.1-.39.21-.81.54-1.51.99-2.09.45-.58.99-1.03,1.64-1.34s1.36-.47,2.14-.47c.86,0,1.55.18,2.06.54s.84.85,1.01,1.49.16,1.37,0,2.2l-.08.34c-.02.11-.08.2-.17.27-.09.08-.19.11-.31.11h-5.31c-.01.06-.02.11-.03.13-.05.38-.05.72.02,1.03.06.31.21.57.42.76s.51.29.87.29c.3,0,.56-.04.79-.13.22-.09.41-.2.55-.31.14-.12.25-.21.33-.29.13-.13.22-.21.29-.23.06-.03.15-.04.27-.04h1.39c.1,0,.17.03.22.1.05.06.07.14.05.24-.05.17-.19.38-.4.62-.21.24-.5.48-.86.72-.36.24-.79.43-1.29.58s-1.04.23-1.64.23ZM60.82,613.53h3.54l.02-.05c.1-.42.1-.78.02-1.1s-.23-.56-.46-.74c-.22-.18-.52-.26-.9-.26s-.71.09-1.02.26c-.3.18-.56.42-.76.74-.2.31-.35.68-.43,1.1l-.02.05Z" fill="#1c2126"/><path d="M71.06,618.4c-.11,0-.19-.04-.25-.11s-.08-.17-.06-.27l2.26-10.59c.02-.11.08-.2.16-.27.08-.07.18-.11.29-.11h1.33c.12,0,.21.04.26.11.06.08.08.17.06.27l-2.26,10.59c-.02.11-.08.2-.16.27-.09.07-.19.11-.3.11h-1.33Z" fill="#1c2126"/><path d="M78.64,618.56c-.81,0-1.49-.15-2.02-.45-.54-.3-.92-.72-1.15-1.26-.23-.54-.29-1.18-.17-1.9.03-.19.08-.43.14-.71s.11-.51.17-.7c.19-.74.49-1.37.89-1.91.4-.54.91-.96,1.54-1.26s1.36-.45,2.22-.45,1.49.15,2.02.45.92.72,1.16,1.26c.23.54.29,1.18.18,1.91-.04.19-.09.43-.14.7-.05.28-.11.51-.16.71-.19.72-.48,1.36-.87,1.9-.39.54-.9.96-1.52,1.26-.62.3-1.38.45-2.26.45ZM78.8,616.98c.58,0,1.06-.18,1.46-.54s.69-.88.87-1.58c.04-.16.09-.37.14-.62.05-.26.1-.46.13-.62.12-.69.07-1.22-.14-1.58s-.61-.54-1.18-.54-1.05.18-1.46.54c-.41.36-.69.88-.86,1.58-.04.16-.09.37-.15.62s-.1.46-.12.62c-.12.69-.07,1.22.14,1.58.21.36.6.54,1.18.54Z" fill="#1c2126"/><path d="M86.92,618.4c-.16,0-.27-.04-.34-.12-.06-.08-.11-.17-.13-.28l-1.42-7.49c-.02-.14,0-.25.08-.32s.18-.11.3-.11h1.22c.12,0,.21.03.27.1.06.06.11.15.13.27l.91,5.55,3.33-5.62c.03-.06.09-.13.17-.2.08-.07.18-.11.31-.11h1.39c.13,0,.22.05.26.14.05.1.03.21-.06.35l-4.56,7.42c-.08.11-.16.2-.25.28-.09.08-.22.12-.38.12h-1.25Z" fill="#1c2126"/><path d="M96.66,618.56c-.78,0-1.43-.15-1.94-.46-.52-.31-.88-.76-1.07-1.35-.2-.59-.23-1.29-.09-2.13.02-.11.05-.24.08-.41.03-.17.06-.3.1-.39.21-.81.54-1.51.99-2.09.45-.58.99-1.03,1.64-1.34s1.36-.47,2.14-.47c.86,0,1.55.18,2.06.54.51.36.84.85,1.01,1.49.17.63.16,1.37,0,2.2l-.08.34c-.02.11-.08.2-.17.27-.09.08-.2.11-.31.11h-5.31c-.01.06-.02.11-.03.13-.05.38-.05.72.02,1.03.06.31.21.57.42.76s.51.29.87.29c.3,0,.56-.04.78-.13.22-.09.41-.2.55-.31.14-.12.25-.21.33-.29.13-.13.22-.21.29-.23.06-.03.15-.04.27-.04h1.39c.1,0,.17.03.22.1.05.06.07.14.05.24-.05.17-.19.38-.4.62-.21.24-.5.48-.87.72-.36.24-.79.43-1.29.58s-1.04.23-1.64.23ZM95.97,613.53h3.54l.02-.05c.1-.42.1-.78.02-1.1s-.23-.56-.46-.74c-.22-.18-.52-.26-.9-.26s-.71.09-1.02.26-.56.42-.76.74c-.2.31-.35.68-.43,1.1l-.02.05Z" fill="#1c2126"/><path d="M109.56,618.56c-.81,0-1.49-.15-2.02-.45s-.92-.72-1.15-1.26c-.23-.54-.29-1.18-.17-1.9.03-.19.08-.43.13-.71s.12-.51.17-.7c.19-.74.49-1.37.89-1.91s.91-.96,1.54-1.26c.62-.3,1.36-.45,2.22-.45s1.49.15,2.02.45c.54.3.93.72,1.16,1.26s.29,1.18.18,1.91c-.04.19-.09.43-.14.7s-.11.51-.16.71c-.19.72-.48,1.36-.87,1.9-.39.54-.9.96-1.52,1.26s-1.38.45-2.26.45ZM109.72,616.98c.58,0,1.06-.18,1.46-.54.4-.36.69-.88.87-1.58.04-.16.09-.37.14-.62s.1-.46.13-.62c.12-.69.07-1.22-.14-1.58-.21-.36-.61-.54-1.18-.54s-1.05.18-1.46.54-.69.88-.86,1.58c-.04.16-.09.37-.15.62s-.1.46-.12.62c-.12.69-.07,1.22.14,1.58s.6.54,1.18.54Z" fill="#1c2126"/><path d="M116.42,618.4c-.12,0-.21-.04-.26-.11s-.08-.17-.06-.27l1.33-6.24h-1.29c-.11,0-.19-.04-.25-.11-.06-.07-.08-.17-.06-.29l.19-.91c.02-.11.08-.2.17-.27s.19-.11.31-.11h1.3l.13-.65c.15-.64.38-1.17.69-1.59.31-.42.7-.74,1.18-.95.48-.21,1.04-.32,1.68-.32h1.28c.12,0,.2.04.26.11.05.07.07.16.05.27l-.19.91c-.02.12-.08.21-.17.29s-.19.11-.3.11h-.96c-.43,0-.76.11-.99.32-.23.21-.39.52-.46.93l-.13.58h1.98c.12,0,.2.04.26.11.05.07.07.16.05.27l-.19.91c-.02.12-.08.21-.16.29-.09.08-.19.11-.3.11h-1.98l-1.34,6.24c-.02.11-.07.2-.16.27-.08.07-.18.11-.29.11h-1.3Z" fill="#1c2126"/><path d="M128.85,618.56c-.81,0-1.48-.15-2.02-.45s-.92-.72-1.15-1.26c-.23-.54-.29-1.18-.17-1.9.03-.19.08-.43.14-.71s.11-.51.17-.7c.19-.74.49-1.37.89-1.91s.91-.96,1.54-1.26c.62-.3,1.36-.45,2.22-.45s1.49.15,2.02.45c.54.3.92.72,1.16,1.26.23.54.29,1.18.18,1.91-.04.19-.09.43-.14.7s-.11.51-.16.71c-.19.72-.48,1.36-.87,1.9-.39.54-.9.96-1.52,1.26s-1.38.45-2.26.45ZM129.01,616.98c.58,0,1.06-.18,1.46-.54.4-.36.69-.88.87-1.58.04-.16.09-.37.14-.62.05-.26.1-.46.13-.62.12-.69.07-1.22-.14-1.58-.21-.36-.61-.54-1.18-.54s-1.05.18-1.46.54-.69.88-.86,1.58c-.04.16-.09.37-.15.62s-.1.46-.12.62c-.12.69-.07,1.22.14,1.58s.6.54,1.18.54Z" fill="#1c2126"/><path d="M134.32,621.45c-.11,0-.19-.04-.25-.11-.06-.07-.08-.16-.06-.27l2.26-10.59c.02-.11.08-.2.16-.27.09-.07.18-.11.29-.11h1.28c.11,0,.19.04.25.11s.08.16.06.27l-.14.64c.33-.34.7-.62,1.1-.85.4-.22.93-.34,1.58-.34.55,0,1.03.09,1.42.28.39.19.7.45.92.79.22.34.37.74.44,1.21.07.46.06.97-.04,1.53-.02.18-.05.35-.09.51s-.08.34-.14.53c-.13.52-.31,1.02-.54,1.48-.24.46-.52.87-.86,1.22-.34.35-.73.62-1.18.81-.45.19-.96.29-1.53.29-.6,0-1.09-.1-1.47-.31-.38-.21-.66-.48-.83-.82l-.78,3.63c-.02.11-.08.2-.16.27-.09.08-.19.11-.3.11h-1.36ZM138.88,616.85c.43,0,.79-.1,1.09-.3.3-.2.55-.46.74-.78.2-.33.35-.68.47-1.05.05-.16.1-.32.13-.48.03-.16.06-.32.08-.48.05-.38.06-.74.02-1.06s-.16-.58-.36-.78c-.2-.2-.51-.3-.94-.3-.45,0-.83.1-1.16.3-.33.2-.59.46-.8.78s-.36.64-.44.97c-.05.19-.1.39-.14.61s-.08.42-.11.62c-.05.32-.05.63,0,.92.06.29.2.54.43.73.23.19.56.29.98.29Z" fill="#1c2126"/><path d="M148.13,618.56c-.78,0-1.43-.15-1.95-.46-.52-.31-.87-.76-1.07-1.35-.2-.59-.23-1.29-.09-2.13.02-.11.05-.24.08-.41.03-.17.06-.3.1-.39.21-.81.54-1.51.99-2.09.45-.58.99-1.03,1.64-1.34s1.36-.47,2.14-.47c.86,0,1.55.18,2.06.54s.84.85,1.01,1.49.16,1.37,0,2.2l-.08.34c-.02.11-.08.2-.17.27-.09.08-.19.11-.31.11h-5.31c-.01.06-.02.11-.03.13-.05.38-.05.72.02,1.03.06.31.21.57.42.76s.51.29.87.29c.3,0,.56-.04.79-.13.22-.09.41-.2.55-.31.14-.12.25-.21.33-.29.13-.13.22-.21.29-.23.06-.03.15-.04.27-.04h1.39c.1,0,.17.03.22.1.05.06.07.14.05.24-.05.17-.19.38-.4.62-.21.24-.5.48-.86.72-.36.24-.79.43-1.29.58s-1.04.23-1.64.23ZM147.44,613.53h3.54l.02-.05c.1-.42.1-.78.02-1.1s-.23-.56-.46-.74c-.22-.18-.52-.26-.9-.26s-.71.09-1.02.26c-.3.18-.56.42-.76.74-.2.31-.35.68-.43,1.1l-.02.05Z" fill="#1c2126"/><path d="M153.96,618.4c-.11,0-.19-.04-.25-.11-.06-.07-.08-.17-.06-.27l1.6-7.55c.02-.11.08-.2.17-.27.09-.07.19-.11.3-.11h1.31c.11,0,.19.04.24.11.05.07.07.16.05.27l-.14.66c.34-.34.74-.63,1.21-.86.46-.23.99-.35,1.58-.35.73,0,1.31.15,1.74.44s.73.71.87,1.24c.14.53.14,1.17-.02,1.92l-.96,4.5c-.02.11-.07.2-.16.27s-.19.11-.3.11h-1.41c-.11,0-.19-.04-.25-.11s-.08-.17-.06-.27l.93-4.4c.14-.65.12-1.14-.04-1.48s-.56-.5-1.18-.5-1.12.18-1.54.53c-.42.35-.7.84-.84,1.46l-.93,4.4c-.02.11-.08.2-.16.27-.09.07-.18.11-.29.11h-1.41Z" fill="#1c2126"/><path d="M170.61,618.56c-.64,0-1.17-.07-1.59-.22-.42-.15-.75-.34-.99-.56-.24-.22-.41-.45-.5-.67-.09-.22-.12-.41-.1-.56.02-.12.08-.21.17-.28.09-.07.18-.11.28-.11h1.26s.08,0,.11.02c.03,0,.06.04.1.1l.37.37c.13.13.29.24.49.33.2.09.46.14.78.14.42,0,.78-.08,1.1-.25.31-.17.5-.4.57-.71.04-.22.02-.4-.08-.54-.1-.14-.29-.27-.59-.38s-.74-.23-1.33-.36c-.58-.14-1.04-.31-1.38-.53-.35-.21-.58-.48-.71-.8-.12-.32-.13-.69-.04-1.12.08-.42.29-.81.62-1.19.33-.38.77-.69,1.32-.94s1.19-.37,1.93-.37c.58,0,1.06.07,1.46.22s.72.32.96.54c.24.21.41.43.5.65.1.22.13.41.1.57-.01.12-.06.21-.15.28-.09.07-.18.11-.28.11h-1.17c-.05,0-.1-.01-.14-.03-.04-.02-.08-.05-.1-.08-.11-.11-.22-.22-.33-.34-.11-.12-.26-.23-.43-.31-.18-.08-.42-.13-.74-.13-.41,0-.73.09-.98.26s-.41.4-.47.66c-.03.18-.01.34.06.47.07.13.25.26.54.38s.73.24,1.31.37c.69.13,1.22.32,1.59.57.37.25.61.54.72.86s.13.69.04,1.08c-.1.48-.33.91-.7,1.29-.37.38-.85.69-1.45.9-.6.22-1.3.33-2.11.33Z" fill="#1c2126"/><path d="M179.52,618.56c-.81,0-1.49-.15-2.02-.45-.54-.3-.92-.72-1.15-1.26-.23-.54-.29-1.18-.17-1.9.03-.19.08-.43.14-.71s.11-.51.17-.7c.19-.74.49-1.37.89-1.91.4-.54.91-.96,1.54-1.26s1.36-.45,2.22-.45,1.49.15,2.02.45.92.72,1.16,1.26c.23.54.29,1.18.18,1.91-.04.19-.09.43-.14.7-.05.28-.11.51-.16.71-.19.72-.48,1.36-.87,1.9-.39.54-.9.96-1.52,1.26-.62.3-1.38.45-2.26.45ZM179.68,616.98c.58,0,1.06-.18,1.46-.54s.69-.88.87-1.58c.04-.16.09-.37.14-.62.05-.26.1-.46.13-.62.12-.69.07-1.22-.14-1.58s-.61-.54-1.18-.54-1.05.18-1.46.54c-.41.36-.69.88-.86,1.58-.04.16-.09.37-.15.62s-.1.46-.12.62c-.12.69-.07,1.22.14,1.58.21.36.6.54,1.18.54Z" fill="#1c2126"/><path d="M188.45,618.56c-.69,0-1.26-.15-1.7-.44s-.73-.71-.87-1.25-.14-1.18,0-1.91l.96-4.5c.02-.11.08-.2.17-.27.09-.07.19-.11.29-.11h1.41c.11,0,.19.04.24.11s.07.16.05.27l-.93,4.4c-.1.44-.13.8-.09,1.1.04.29.16.52.36.66.2.15.52.22.94.22.58,0,1.08-.18,1.5-.53.43-.35.7-.84.83-1.46l.94-4.4c.02-.11.08-.2.17-.27s.19-.11.3-.11h1.39c.12,0,.2.04.26.11.05.07.07.16.05.27l-1.6,7.55c-.02.11-.07.2-.16.27-.08.07-.19.11-.3.11h-1.3c-.11,0-.19-.04-.25-.11s-.08-.17-.06-.27l.13-.66c-.23.24-.47.46-.72.64-.25.18-.53.32-.85.42-.32.1-.71.14-1.18.14Z" fill="#1c2126"/><path d="M195.57,618.4c-.11,0-.19-.04-.25-.11-.06-.07-.08-.17-.06-.27l1.6-7.54c.02-.12.08-.21.17-.29.09-.07.19-.11.3-.11h1.3c.11,0,.19.04.25.11s.08.17.06.29l-.14.66c.26-.34.58-.6.98-.78.39-.18.87-.27,1.44-.27h.78c.12,0,.2.04.26.11s.07.16.05.27l-.24,1.15c-.02.11-.08.2-.17.27-.09.07-.19.11-.3.11h-1.25c-.51,0-.94.14-1.29.43-.35.28-.57.68-.68,1.19l-.94,4.4c-.02.11-.08.2-.16.27-.09.07-.19.11-.3.11h-1.39Z" fill="#1c2126"/><path d="M205.46,618.56c-.71,0-1.34-.14-1.88-.43s-.94-.71-1.19-1.26-.31-1.21-.18-1.99c.03-.16.07-.37.13-.63.05-.26.1-.48.14-.65.29-1.16.82-2.07,1.6-2.71.78-.64,1.77-.97,2.98-.97.67,0,1.23.1,1.69.29.45.19.81.44,1.07.74.26.3.44.61.54.93s.14.61.1.86c0,.12-.06.21-.14.28-.08.07-.17.1-.28.1h-1.46c-.11,0-.19-.03-.25-.08-.06-.05-.09-.13-.1-.24,0-.43-.11-.74-.34-.93-.23-.19-.56-.29-.98-.29-.52,0-.99.17-1.4.51-.41.34-.71.87-.89,1.59-.04.19-.09.39-.13.59s-.08.38-.11.53c-.12.74-.06,1.27.16,1.6.22.33.6.5,1.12.5.42,0,.79-.09,1.12-.26s.61-.48.83-.9c.06-.12.13-.2.2-.25.07-.05.16-.07.26-.07h1.44c.11,0,.19.04.25.11.06.07.07.16.04.28-.07.23-.21.51-.41.82s-.47.62-.81.92c-.34.3-.77.54-1.29.74-.52.19-1.13.29-1.85.29Z" fill="#1c2126"/><path d="M214.69,618.56c-.78,0-1.43-.15-1.95-.46-.52-.31-.87-.76-1.07-1.35-.2-.59-.23-1.29-.09-2.13.02-.11.05-.24.08-.41.03-.17.06-.3.1-.39.21-.81.54-1.51.99-2.09.45-.58.99-1.03,1.64-1.34s1.36-.47,2.14-.47c.86,0,1.55.18,2.06.54s.84.85,1.01,1.49.16,1.37,0,2.2l-.08.34c-.02.11-.08.2-.17.27-.09.08-.19.11-.31.11h-5.31c-.01.06-.02.11-.03.13-.05.38-.05.72.02,1.03.06.31.21.57.42.76s.51.29.87.29c.3,0,.56-.04.79-.13.22-.09.41-.2.55-.31.14-.12.25-.21.33-.29.13-.13.22-.21.29-.23.06-.03.15-.04.27-.04h1.39c.1,0,.17.03.22.1.05.06.07.14.05.24-.05.17-.19.38-.4.62-.21.24-.5.48-.86.72-.36.24-.79.43-1.29.58s-1.04.23-1.64.23ZM214,613.53h3.54l.02-.05c.1-.42.1-.78.02-1.1s-.23-.56-.46-.74c-.22-.18-.52-.26-.9-.26s-.71.09-1.02.26c-.3.18-.56.42-.76.74-.2.31-.35.68-.43,1.1l-.02.05Z" fill="#1c2126"/><path d="M227.19,618.56c-.64,0-1.17-.07-1.59-.22-.42-.15-.75-.34-.99-.56-.24-.22-.41-.45-.5-.67-.09-.22-.13-.41-.1-.56.02-.12.08-.21.17-.28.09-.07.18-.11.28-.11h1.26s.08,0,.11.02c.03,0,.06.04.1.1.12.12.24.24.37.37.13.13.29.24.49.33.2.09.46.14.78.14.42,0,.78-.08,1.1-.25.31-.17.5-.4.57-.71.04-.22.02-.4-.08-.54s-.29-.27-.59-.38c-.3-.11-.74-.23-1.33-.36-.58-.14-1.04-.31-1.38-.53-.35-.21-.58-.48-.7-.8-.12-.32-.14-.69-.04-1.12.09-.42.29-.81.62-1.19.33-.38.77-.69,1.32-.94.55-.25,1.19-.37,1.93-.37.58,0,1.06.07,1.46.22.4.14.72.32.96.54.24.21.41.43.5.65s.13.41.1.57c-.01.12-.06.21-.15.28-.09.07-.18.11-.28.11h-1.17c-.05,0-.1-.01-.14-.03s-.07-.05-.1-.08c-.11-.11-.22-.22-.33-.34-.11-.12-.26-.23-.43-.31-.18-.08-.42-.13-.74-.13-.41,0-.73.09-.98.26s-.41.4-.47.66c-.03.18-.01.34.06.47s.25.26.54.38.73.24,1.31.37c.69.13,1.22.32,1.59.57.37.25.61.54.72.86.11.33.12.69.04,1.08-.1.48-.33.91-.7,1.29-.37.38-.85.69-1.45.9-.6.22-1.3.33-2.11.33Z" fill="#1c2126"/><path d="M236.1,618.56c-.81,0-1.49-.15-2.02-.45-.54-.3-.92-.72-1.15-1.26-.23-.54-.29-1.18-.17-1.9.03-.19.08-.43.14-.71s.12-.51.17-.7c.19-.74.49-1.37.89-1.91.4-.54.91-.96,1.54-1.26s1.36-.45,2.22-.45,1.48.15,2.02.45.93.72,1.16,1.26.29,1.18.18,1.91c-.04.19-.09.43-.14.7-.05.28-.11.51-.16.71-.19.72-.48,1.36-.87,1.9-.39.54-.9.96-1.52,1.26-.62.3-1.38.45-2.26.45ZM236.26,616.98c.58,0,1.06-.18,1.46-.54s.69-.88.87-1.58c.04-.16.09-.37.14-.62.05-.26.1-.46.13-.62.12-.69.07-1.22-.14-1.58s-.61-.54-1.18-.54-1.05.18-1.46.54c-.4.36-.69.88-.86,1.58-.04.16-.09.37-.15.62s-.1.46-.12.62c-.12.69-.07,1.22.13,1.58.21.36.6.54,1.18.54Z" fill="#1c2126"/><path d="M242.96,618.4c-.12,0-.21-.04-.26-.11s-.08-.17-.06-.27l1.33-6.24h-1.3c-.11,0-.19-.04-.25-.11-.06-.07-.08-.17-.06-.29l.19-.91c.02-.11.08-.2.17-.27.09-.07.19-.11.31-.11h1.29l.13-.65c.15-.64.38-1.17.69-1.59.31-.42.7-.74,1.18-.95.48-.21,1.04-.32,1.68-.32h1.28c.12,0,.2.04.26.11.05.07.07.16.05.27l-.19.91c-.02.12-.08.21-.17.29s-.19.11-.3.11h-.96c-.43,0-.76.11-.99.32-.23.21-.39.52-.46.93l-.13.58h1.98c.12,0,.2.04.26.11.05.07.07.16.05.27l-.19.91c-.02.12-.07.21-.16.29-.08.08-.19.11-.3.11h-1.98l-1.34,6.24c-.02.11-.08.2-.16.27-.09.07-.18.11-.29.11h-1.29Z" fill="#1c2126"/><path d="M252.11,618.4c-.73,0-1.29-.11-1.7-.34-.4-.22-.67-.56-.78-1-.12-.44-.11-.99.03-1.66l.79-3.63h-1.26c-.11,0-.19-.04-.25-.11-.06-.07-.08-.17-.06-.29l.19-.91c.02-.11.08-.2.17-.27.09-.07.2-.11.31-.11h1.25l.58-2.65c.02-.11.07-.2.16-.27.08-.07.18-.11.29-.11h1.3c.12,0,.21.04.26.11.06.08.08.17.06.27l-.58,2.65h2c.11,0,.19.04.25.11s.08.16.06.27l-.19.91c-.02.12-.08.21-.17.29-.09.08-.19.11-.3.11h-2l-.74,3.47c-.06.29-.1.54-.1.74,0,.21.05.37.17.48s.33.17.62.17h1.15c.12,0,.2.04.26.11.05.08.07.17.05.27l-.21.99c-.02.11-.08.2-.16.27-.09.07-.19.11-.3.11h-1.14Z" fill="#1c2126"/><path d="M257.27,618.4c-.15,0-.26-.04-.32-.11-.06-.07-.1-.17-.11-.29l-.72-7.49c-.01-.12.02-.22.1-.3s.18-.13.32-.13h1.12c.13,0,.22.03.28.09.06.06.09.13.1.22l.46,5.3,2.75-5.25c.04-.08.11-.15.19-.23.09-.08.2-.12.34-.12h.83c.15,0,.25.04.3.12.05.08.09.16.1.23l.58,5.25,2.69-5.3c.03-.06.09-.13.16-.2.07-.07.18-.11.3-.11h1.3c.15,0,.24.05.26.14s.01.2-.04.32l-3.86,7.46c-.06.12-.14.21-.23.29s-.21.11-.36.11h-1.06c-.15,0-.26-.04-.33-.11s-.12-.17-.14-.29l-.66-5.05-2.72,5.05c-.06.12-.14.21-.24.29s-.22.11-.37.11h-1.04Z" fill="#1c2126"/><path d="M271.09,618.56c-.55,0-1.02-.09-1.41-.28-.38-.19-.69-.45-.9-.79-.22-.34-.36-.74-.42-1.21-.06-.46-.05-.97.03-1.53.04-.19.08-.37.11-.52.03-.15.07-.33.11-.52.14-.53.32-1.03.55-1.49.23-.46.51-.86.85-1.21.34-.35.73-.62,1.18-.81.45-.19.97-.29,1.56-.29.66,0,1.17.11,1.51.31.35.21.62.46.81.76l.11-.53c.02-.11.08-.2.16-.27s.18-.11.29-.11h1.26c.11,0,.19.04.26.11.06.07.09.16.06.27l-1.62,7.55c-.02.11-.08.2-.16.27-.09.07-.18.11-.29.11h-1.26c-.12,0-.21-.04-.26-.11s-.08-.17-.06-.27l.13-.59c-.32.33-.67.6-1.06.81-.38.21-.9.32-1.55.32ZM271.81,616.85c.45,0,.83-.1,1.15-.3s.58-.46.78-.78.34-.64.42-.97c.05-.19.1-.4.14-.62s.08-.42.11-.62c.06-.32.07-.63.02-.92s-.19-.54-.41-.73c-.22-.19-.55-.29-.98-.29s-.77.1-1.06.3-.54.46-.73.78-.35.67-.46,1.06c-.04.16-.08.32-.11.48s-.06.32-.08.48c-.05.38-.07.74-.04,1.06.03.32.14.58.34.78s.5.3.92.3Z" fill="#1c2126"/><path d="M278.05,618.4c-.11,0-.19-.04-.25-.11-.06-.07-.08-.17-.06-.27l1.6-7.54c.02-.12.08-.21.17-.29.09-.07.19-.11.3-.11h1.29c.11,0,.19.04.25.11s.08.17.06.29l-.14.66c.26-.34.58-.6.98-.78s.88-.27,1.44-.27h.78c.12,0,.2.04.26.11.05.07.07.16.05.27l-.24,1.15c-.02.11-.08.2-.17.27-.09.07-.19.11-.29.11h-1.25c-.51,0-.94.14-1.29.43-.35.28-.57.68-.68,1.19l-.94,4.4c-.02.11-.07.2-.16.27s-.19.11-.3.11h-1.39Z" fill="#1c2126"/><path d="M288.05,618.56c-.78,0-1.43-.15-1.95-.46-.52-.31-.87-.76-1.07-1.35-.2-.59-.23-1.29-.09-2.13.02-.11.05-.24.08-.41.03-.17.06-.3.1-.39.21-.81.54-1.51.99-2.09.45-.58.99-1.03,1.64-1.34s1.36-.47,2.14-.47c.86,0,1.55.18,2.06.54s.84.85,1.01,1.49.16,1.37,0,2.2l-.08.34c-.02.11-.08.2-.17.27-.09.08-.19.11-.31.11h-5.31c-.01.06-.02.11-.03.13-.05.38-.05.72.02,1.03.06.31.21.57.42.76s.51.29.87.29c.3,0,.56-.04.79-.13.22-.09.41-.2.55-.31.14-.12.25-.21.33-.29.13-.13.22-.21.29-.23.06-.03.15-.04.27-.04h1.39c.1,0,.17.03.22.1.05.06.07.14.05.24-.05.17-.19.38-.4.62-.21.24-.5.48-.86.72-.36.24-.79.43-1.29.58s-1.04.23-1.64.23ZM287.36,613.53h3.54l.02-.05c.1-.42.1-.78.02-1.1s-.23-.56-.46-.74c-.22-.18-.52-.26-.9-.26s-.71.09-1.02.26c-.3.18-.56.42-.76.74-.2.31-.35.68-.43,1.1l-.02.05Z" fill="#1c2126"/><path d="M1113.68,618.56c-.89,0-1.63-.15-2.22-.44-.6-.29-1.05-.71-1.37-1.26-.32-.54-.49-1.18-.52-1.9-.01-.21-.02-.46-.02-.73s0-.51.02-.71c.03-.74.21-1.37.54-1.91.33-.54.79-.96,1.39-1.25.6-.29,1.32-.44,2.18-.44s1.56.15,2.16.44c.6.29,1.06.71,1.39,1.25s.52,1.18.56,1.91c0,.2.02.44.02.71s0,.52-.02.73c-.04.72-.22,1.36-.54,1.9-.32.54-.77.96-1.37,1.26-.6.29-1.33.44-2.21.44ZM1113.68,616.79c.52,0,.91-.16,1.18-.48s.41-.79.44-1.42c0-.16.02-.37.02-.64s0-.48-.02-.64c-.03-.62-.18-1.09-.44-1.42-.26-.33-.65-.49-1.18-.49s-.92.16-1.18.49c-.27.32-.42.8-.45,1.42-.01.16-.02.37-.02.64s0,.48.02.64c.03.63.18,1.1.45,1.42s.66.48,1.18.48Z" fill="#1c2126"/><path d="M1122.77,618.56c-.66,0-1.23-.08-1.7-.23s-.86-.34-1.15-.57c-.29-.22-.51-.45-.66-.68-.14-.23-.22-.42-.23-.58-.01-.12.03-.21.11-.29.09-.07.17-.11.26-.11h1.55s.08,0,.1.02c.03,0,.06.04.1.08.14.1.28.21.42.33.14.12.32.23.52.31.2.09.45.13.74.13.35,0,.65-.07.89-.22.24-.14.36-.35.36-.62,0-.19-.05-.35-.16-.48-.11-.13-.31-.24-.62-.35s-.77-.22-1.38-.35c-.58-.13-1.07-.3-1.47-.51-.41-.21-.71-.48-.91-.81-.2-.33-.3-.72-.3-1.18,0-.42.13-.82.39-1.2.26-.38.65-.7,1.16-.95s1.15-.38,1.92-.38c.59,0,1.1.07,1.54.22s.81.33,1.11.54.53.44.68.67c.15.23.24.43.25.6.01.12-.02.21-.1.29-.08.08-.16.11-.26.11h-1.42c-.05,0-.1-.01-.14-.03s-.08-.05-.11-.08c-.13-.07-.26-.17-.39-.29-.13-.12-.29-.22-.47-.3-.18-.08-.42-.13-.7-.13-.34,0-.61.08-.79.23-.19.16-.28.35-.28.58,0,.15.05.29.14.42.1.13.29.25.58.35.29.11.75.22,1.37.34.73.13,1.3.32,1.73.58s.73.55.91.89c.18.34.27.7.27,1.08,0,.5-.15.95-.44,1.34-.29.39-.73.69-1.3.91-.58.22-1.28.33-2.11.33Z" fill="#1c2126"/><path d="M1131.46,618.56c-.66,0-1.23-.08-1.7-.23s-.86-.34-1.15-.57c-.29-.22-.51-.45-.66-.68-.14-.23-.22-.42-.23-.58-.01-.12.03-.21.11-.29.09-.07.17-.11.26-.11h1.55s.08,0,.1.02c.03,0,.06.04.1.08.14.1.28.21.42.33.14.12.32.23.52.31.2.09.45.13.74.13.35,0,.65-.07.89-.22.24-.14.36-.35.36-.62,0-.19-.05-.35-.16-.48-.11-.13-.31-.24-.62-.35s-.77-.22-1.38-.35c-.58-.13-1.07-.3-1.47-.51-.41-.21-.71-.48-.91-.81-.2-.33-.3-.72-.3-1.18,0-.42.13-.82.39-1.2.26-.38.65-.7,1.16-.95s1.15-.38,1.92-.38c.59,0,1.1.07,1.54.22s.81.33,1.11.54.53.44.68.67c.15.23.24.43.25.6.01.12-.02.21-.1.29-.08.08-.16.11-.26.11h-1.42c-.05,0-.1-.01-.14-.03s-.08-.05-.11-.08c-.13-.07-.26-.17-.39-.29-.13-.12-.29-.22-.47-.3-.18-.08-.42-.13-.7-.13-.34,0-.61.08-.79.23-.19.16-.28.35-.28.58,0,.15.05.29.14.42.1.13.29.25.58.35.29.11.75.22,1.37.34.73.13,1.3.32,1.73.58s.73.55.91.89c.18.34.27.7.27,1.08,0,.5-.15.95-.44,1.34-.29.39-.73.69-1.3.91-.58.22-1.28.33-2.11.33Z" fill="#1c2126"/><path d="M1137.17,618.4c-.12,0-.21-.04-.29-.11-.07-.07-.11-.17-.11-.29v-1.81c0-.11.04-.2.11-.28.08-.08.17-.12.29-.12h1.81c.11,0,.2.04.28.12s.12.17.12.28v1.81c0,.12-.04.21-.12.29s-.17.11-.28.11h-1.81Z" fill="#1c2126"/><path d="M1144.9,618.56c-.79,0-1.48-.14-2.07-.43-.59-.29-1.06-.71-1.4-1.26-.34-.55-.53-1.21-.56-1.98-.01-.17-.02-.39-.02-.65s0-.48.02-.65c.03-.78.22-1.44.55-1.99.34-.55.8-.97,1.4-1.26.6-.29,1.29-.43,2.08-.43.7,0,1.31.1,1.81.3.5.2.91.45,1.23.75s.56.62.72.94.25.6.26.85c.01.12-.03.21-.11.29-.09.07-.18.11-.29.11h-1.71c-.12,0-.21-.03-.26-.08-.06-.05-.11-.14-.17-.26-.14-.37-.33-.64-.56-.8s-.53-.24-.88-.24c-.48,0-.86.15-1.13.46-.27.31-.42.79-.44,1.44-.02.42-.02.79,0,1.13.02.66.17,1.14.44,1.44.27.3.65.45,1.13.45.37,0,.67-.08.9-.24.22-.16.41-.43.54-.8.05-.12.11-.2.17-.26.06-.05.15-.08.26-.08h1.71c.11,0,.2.04.29.11.08.07.12.17.11.29-.01.18-.06.39-.16.64-.1.25-.24.5-.44.75s-.45.49-.76.71c-.31.22-.69.4-1.13.53-.44.13-.95.2-1.53.2Z" fill="#1c2126"/><path d="M1152.92,618.56c-.57,0-1.07-.11-1.52-.33s-.81-.51-1.07-.89c-.27-.38-.4-.79-.4-1.25,0-.76.31-1.36.92-1.79s1.42-.74,2.42-.9l2.1-.3v-.29c0-.42-.1-.74-.29-.96-.19-.22-.53-.34-1.01-.34-.35,0-.63.07-.84.21s-.37.32-.49.54c-.08.14-.21.21-.38.21h-1.52c-.12,0-.21-.03-.27-.1-.06-.07-.09-.15-.08-.25,0-.18.07-.39.21-.64.14-.24.35-.49.64-.73.29-.24.66-.44,1.11-.6s1-.24,1.64-.24,1.25.08,1.73.24c.48.16.87.38,1.16.67.29.29.51.62.64,1,.13.38.2.79.2,1.22v4.94c0,.12-.04.21-.11.29-.08.07-.17.11-.27.11h-1.58c-.11,0-.2-.04-.27-.11-.07-.07-.11-.17-.11-.29v-.59c-.14.2-.33.39-.56.57s-.51.32-.84.42c-.33.11-.71.16-1.14.16ZM1153.56,616.9c.35,0,.67-.07.94-.22.28-.15.5-.38.66-.69.16-.31.24-.7.24-1.17v-.27l-1.49.24c-.57.1-.98.24-1.25.43-.27.19-.4.43-.4.7,0,.2.06.38.18.52.12.14.28.26.48.34s.41.12.63.12Z" fill="#1c2126"/><path d="M1160.13,618.4c-.11,0-.2-.04-.28-.11-.08-.07-.12-.17-.12-.29v-7.52c0-.11.04-.2.12-.28.08-.08.17-.12.28-.12h1.57c.12,0,.21.04.29.12.07.08.11.17.11.28v.64c.27-.33.6-.59.99-.77s.84-.27,1.34-.27h.69c.12,0,.21.04.29.11.07.07.11.17.11.29v1.39c0,.11-.04.2-.11.27-.08.07-.17.11-.29.11h-1.39c-.48,0-.85.13-1.11.4-.26.27-.39.63-.39,1.11v4.24c0,.12-.04.21-.12.29s-.17.11-.28.11h-1.7Z" fill="#1c2126"/><path d="M1169.72,618.56c-.53,0-1.01-.09-1.42-.26s-.77-.43-1.06-.77c-.29-.34-.51-.74-.66-1.2-.15-.46-.24-.98-.27-1.54-.01-.2-.02-.39-.02-.55s0-.34.02-.54c.02-.55.11-1.06.26-1.52.15-.46.37-.86.66-1.19.28-.34.63-.6,1.06-.78.42-.19.9-.28,1.43-.28s1.03.09,1.42.28c.39.19.72.42.98.71v-3.47c0-.12.04-.21.11-.29.08-.07.17-.11.29-.11h1.65c.12,0,.21.04.29.11.07.08.11.17.11.29v10.56c0,.12-.04.21-.11.29-.08.07-.17.11-.29.11h-1.54c-.11,0-.2-.04-.27-.11-.07-.07-.11-.17-.11-.29v-.54c-.27.32-.6.58-1.01.79-.41.21-.91.31-1.52.31ZM1170.45,616.64c.39,0,.71-.09.95-.27.24-.18.42-.41.53-.69.11-.28.17-.58.18-.9.02-.2.03-.41.03-.61s-.01-.4-.03-.59c-.01-.3-.08-.58-.2-.84-.12-.26-.3-.48-.54-.65-.23-.17-.54-.26-.93-.26-.41,0-.73.09-.96.26-.24.18-.4.41-.5.7-.1.29-.16.6-.18.94-.02.33-.02.66,0,.99.02.34.08.66.18.95.1.29.27.52.5.7.23.18.55.26.96.26Z" fill="#1c2126"/><path d="M1179.86,618.56c-.66,0-1.23-.08-1.7-.23s-.86-.34-1.15-.57c-.29-.22-.51-.45-.66-.68-.14-.23-.22-.42-.23-.58-.01-.12.03-.21.11-.29.08-.07.17-.11.26-.11h1.55s.08,0,.1.02c.03,0,.06.04.1.08.14.1.28.21.42.33.14.12.32.23.52.31.2.09.45.13.74.13.35,0,.65-.07.89-.22.24-.14.36-.35.36-.62,0-.19-.05-.35-.16-.48-.11-.13-.31-.24-.62-.35s-.77-.22-1.38-.35c-.58-.13-1.07-.3-1.47-.51-.41-.21-.71-.48-.91-.81-.2-.33-.3-.72-.3-1.18,0-.42.13-.82.39-1.2.26-.38.65-.7,1.16-.95.51-.25,1.15-.38,1.92-.38.59,0,1.1.07,1.54.22.44.14.81.33,1.11.54s.53.44.68.67c.15.23.24.43.25.6,0,.12-.02.21-.1.29-.07.08-.16.11-.26.11h-1.42c-.05,0-.1-.01-.14-.03-.04-.02-.08-.05-.11-.08-.13-.07-.26-.17-.39-.29-.13-.12-.29-.22-.47-.3-.18-.08-.42-.13-.7-.13-.34,0-.61.08-.79.23-.19.16-.28.35-.28.58,0,.15.05.29.14.42.1.13.29.25.58.35.29.11.75.22,1.37.34.72.13,1.3.32,1.73.58s.73.55.91.89.27.7.27,1.08c0,.5-.15.95-.44,1.34-.29.39-.73.69-1.3.91s-1.28.33-2.11.33Z" fill="#1c2126"/><polygon points="1093.31 614.96 1087.74 611.74 1082.16 614.96 1093.31 621.39 1104.46 614.96 1098.89 611.74 1093.31 614.96" fill="#b7303d" stroke="#1c2126" stroke-linejoin="round" stroke-width=".33"/><polygon points="1087.74 605.3 1087.74 611.74 1082.16 614.96 1082.16 608.52 1087.74 605.3" fill="#ea4f4b" stroke="#1c2126" stroke-linejoin="round" stroke-width=".33"/><polygon points="1087.74 605.3 1087.74 611.74 1093.31 614.96 1093.31 608.52 1087.74 605.3" fill="#ff6b60" stroke="#1c2126" stroke-linejoin="round" stroke-width=".33"/><polygon points="1098.89 605.3 1098.89 611.74 1093.31 614.96 1093.31 608.52 1098.89 605.3" fill="#ea4f4b" stroke="#1c2126" stroke-linejoin="round" stroke-width=".33"/><polygon points="1098.89 605.3 1098.89 611.74 1104.46 614.96 1104.46 608.52 1098.89 605.3" fill="#ff6b60" stroke="#1c2126" stroke-linejoin="round" stroke-width=".33"/></g></svg>