<?xml version="1.0" encoding="UTF-8"?><svg xmlns="http://www.w3.org/2000/svg" viewBox="0 0 1200 630"><g id="b"><rect width="1200" height="498.72" fill="#ff6b60"/></g><g id="d"><g opacity=".1"><polygon points="716.36 302.57 716.36 237.6 729.7 224.26 863.4 237.6 863.4 302.57 822.37 302.57 822.37 395.79 863.4 395.79 876.74 447.42 863.4 460.76 822.37 460.76 757.39 460.76 716.36 460.76 716.36 395.79 729.7 382.45 757.39 395.79 757.39 302.57 716.36 302.57" fill="#1c2126" stroke="#1c2126" stroke-linejoin="round" stroke-width="2"/></g><polygon points="729.7 289.23 729.7 224.26 743.04 210.92 876.74 224.26 876.74 289.23 835.71 289.23 835.71 382.45 876.74 382.45 890.08 434.08 876.74 447.42 835.71 447.42 770.73 447.42 729.7 447.42 729.7 382.45 743.04 369.11 770.73 382.45 770.73 289.23 729.7 289.23" fill="#0f6a80" stroke="#1c2126" stroke-linejoin="round" stroke-width="2"/><polygon points="743.04 275.89 743.04 210.92 756.38 197.58 890.08 210.92 903.42 262.55 890.08 275.89 849.05 275.89 849.05 369.11 890.08 369.11 903.42 420.74 890.08 434.08 849.05 434.08 784.07 434.08 743.04 434.08 743.04 369.11 756.38 355.77 784.07 369.11 784.07 275.89 743.04 275.89" fill="#30c8c9" stroke="#1c2126" stroke-linejoin="round" stroke-width="2"/><polygon points="756.38 262.55 756.38 197.58 769.72 184.24 903.42 197.58 916.76 249.21 903.42 262.55 862.39 262.55 862.39 355.77 903.42 355.77 916.76 407.4 903.42 420.74 862.39 420.74 797.41 420.74 756.38 420.74 756.38 355.77 769.72 342.43 797.41 355.77 797.41 262.55 756.38 262.55" fill="#5cebdf" stroke="#1c2126" stroke-linejoin="round" stroke-width="2"/><polygon points="769.72 249.21 769.72 184.24 783.06 170.9 916.76 184.24 930.1 235.87 916.76 249.21 875.73 249.21 875.73 342.43 916.76 342.43 930.1 394.06 916.76 407.4 875.73 407.4 810.75 407.4 769.72 407.4 769.72 342.43 783.06 329.09 810.75 342.43 810.75 249.21 769.72 249.21" fill="#bffde7" stroke="#1c2126" stroke-linejoin="round" stroke-width="2"/><polygon points="783.06 235.87 783.06 170.9 930.1 170.9 930.1 235.87 889.07 235.87 889.07 329.09 930.1 329.09 930.1 394.06 889.07 394.06 824.09 394.06 783.06 394.06 783.06 329.09 824.09 329.09 824.09 235.87 783.06 235.87" fill="#fff" stroke="#1c2126" stroke-linejoin="round" stroke-width="2"/><g opacity=".1"><path d="M402.82,237.6v129.1c0,20.34,9.89,29.38,24.01,29.38s24.01-9.04,24.01-29.38v-129.1l51.63-13.34,13.34,13.34v134.75c0,58.76-31.92,88.42-90.4,88.42s-90.4-29.66-90.4-88.42v-134.75h67.8Z" fill="#1c2126" stroke="#1c2126" stroke-linejoin="round" stroke-width="2"/></g><path d="M389.48,224.26v129.1c0,20.34,9.89,29.38,24.01,29.38s24.01-9.04,24.01-29.38v-129.1l51.63-13.34,13.34,13.34v134.75c0,58.76-31.92,88.42-90.4,88.42s-90.4-29.66-90.4-88.42v-134.75l54.46-13.34,13.34,13.34Z" fill="#0f6a80" stroke="#1c2126" stroke-linejoin="round" stroke-width="2"/><path d="M376.14,210.92v129.1c0,20.34,9.89,29.38,24.01,29.38s24.01-9.04,24.01-29.38v-129.1l51.63-13.34,13.34,13.34v134.75c0,58.76-31.92,88.42-90.4,88.42s-90.4-29.66-90.4-88.42v-134.75l54.46-13.34,13.34,13.34Z" fill="#30c8c9" stroke="#1c2126" stroke-linejoin="round" stroke-width="2"/><path d="M362.8,197.58v129.1c0,20.34,9.89,29.38,24.01,29.38s24.01-9.04,24.01-29.38v-129.1l51.63-13.34,13.34,13.34v134.75c0,58.76-31.92,88.42-90.4,88.42s-90.4-29.66-90.4-88.42v-134.75l54.46-13.34,13.34,13.34Z" fill="#5cebdf" stroke="#1c2126" stroke-linejoin="round" stroke-width="2"/><path d="M349.46,184.24v129.1c0,20.34,9.89,29.38,24.01,29.38s24.01-9.04,24.01-29.38v-129.1l51.63-13.34,13.34,13.34v134.75c0,58.76-31.92,88.42-90.4,88.42s-90.4-29.66-90.4-88.42v-134.75l54.46-13.34,13.34,13.34Z" fill="#bffde7" stroke="#1c2126" stroke-linejoin="round" stroke-width="2"/><path d="M336.12,170.9v129.1c0,20.34,9.89,29.38,24.01,29.38s24.01-9.04,24.01-29.38v-129.1h64.97v134.75c0,58.76-31.92,88.42-90.4,88.42s-90.4-29.66-90.4-88.42v-134.75h67.8Z" fill="#fff" stroke="#1c2126" stroke-linejoin="round" stroke-width="2"/><line x1="289.34" y1="369.6" x2="346.97" y2="427.11" fill="#fff5eb" stroke="#1c2126" stroke-linejoin="round" stroke-width="2"/><path d="M170.16,116.12c-.5,0-.92-.16-1.24-.48-.32-.32-.48-.73-.48-1.24v-15.13l-16.09-29.08c-.05-.14-.09-.26-.14-.38-.05-.11-.07-.24-.07-.38,0-.37.15-.7.45-1,.3-.3.63-.45,1-.45h7.36c.6,0,1.08.16,1.44.48.37.32.62.62.76.89l10.79,18.91,10.79-18.91c.14-.28.39-.57.76-.89.37-.32.87-.48,1.51-.48h7.29c.41,0,.76.15,1.03.45.27.3.41.63.41,1,0,.14-.01.26-.03.38-.02.12-.08.24-.17.38l-16.09,29.08v15.13c0,.5-.16.92-.48,1.24s-.73.48-1.24.48h-7.56Z" fill="#fff"/><path d="M211.76,116.81c-3.8,0-6.99-.63-9.56-1.89-2.57-1.26-4.53-3.06-5.88-5.4-1.35-2.34-2.1-5.06-2.23-8.18-.05-.92-.07-1.96-.07-3.13s.02-2.19.07-3.06c.14-3.16.92-5.9,2.34-8.22s3.41-4.1,5.98-5.36c2.57-1.26,5.68-1.89,9.35-1.89s6.71.63,9.28,1.89c2.57,1.26,4.56,3.05,5.98,5.36,1.42,2.31,2.22,5.05,2.41,8.22.04.87.07,1.89.07,3.06s-.02,2.21-.07,3.13c-.18,3.12-.95,5.84-2.3,8.18-1.35,2.34-3.31,4.14-5.88,5.4-2.57,1.26-5.73,1.89-9.49,1.89ZM211.76,109.18c2.25,0,3.93-.69,5.05-2.06,1.12-1.38,1.75-3.41,1.89-6.12.04-.69.07-1.6.07-2.75s-.02-2.06-.07-2.75c-.14-2.66-.77-4.69-1.89-6.08-1.12-1.4-2.81-2.1-5.05-2.1s-3.94.7-5.09,2.1c-1.15,1.4-1.79,3.43-1.93,6.08-.05.69-.07,1.61-.07,2.75s.02,2.06.07,2.75c.14,2.71.78,4.74,1.93,6.12,1.14,1.38,2.84,2.06,5.09,2.06Z" fill="#fff"/><path d="M249.85,116.81c-2.66,0-5.01-.61-7.05-1.82-2.04-1.21-3.63-2.98-4.78-5.29-1.15-2.31-1.72-5.12-1.72-8.42v-19.18c0-.5.17-.92.52-1.24.34-.32.74-.48,1.2-.48h7.36c.46,0,.85.16,1.17.48.32.32.48.73.48,1.24v18.77c0,5.13,2.25,7.7,6.74,7.7,2.15,0,3.86-.68,5.12-2.03,1.26-1.35,1.89-3.24,1.89-5.67v-18.77c0-.5.16-.92.48-1.24s.73-.48,1.24-.48h7.29c.46,0,.85.16,1.17.48.32.32.48.73.48,1.24v32.31c0,.5-.16.92-.48,1.24s-.71.48-1.17.48h-6.81c-.46,0-.85-.16-1.17-.48-.32-.32-.48-.73-.48-1.24v-2.68c-1.19,1.65-2.73,2.91-4.61,3.78-1.88.87-4.17,1.31-6.88,1.31Z" fill="#fff"/><path d="M311.24,116.81c-3.39,0-6.36-.62-8.9-1.86s-4.55-3.04-6.02-5.4c-1.47-2.36-2.27-5.19-2.41-8.49-.05-.73-.07-1.66-.07-2.79s.02-2.05.07-2.78c.14-3.35.93-6.2,2.37-8.56,1.44-2.36,3.45-4.16,6.02-5.4,2.57-1.24,5.54-1.86,8.94-1.86,3.03,0,5.61.42,7.77,1.27,2.15.85,3.92,1.92,5.29,3.23,1.38,1.31,2.41,2.65,3.09,4.02s1.05,2.59,1.1,3.64c.04.5-.12.92-.48,1.24-.37.32-.78.48-1.24.48h-7.36c-.5,0-.88-.11-1.13-.34s-.49-.6-.72-1.1c-.6-1.6-1.4-2.75-2.41-3.44-1.01-.69-2.27-1.03-3.78-1.03-2.06,0-3.68.67-4.85,1.99-1.17,1.33-1.8,3.39-1.89,6.19-.09,1.79-.09,3.42,0,4.88.09,2.84.72,4.91,1.89,6.19,1.17,1.28,2.79,1.92,4.85,1.92,1.6,0,2.89-.34,3.85-1.03.96-.69,1.74-1.83,2.34-3.44.23-.5.47-.87.72-1.1s.63-.34,1.13-.34h7.36c.46,0,.87.16,1.24.48.37.32.53.73.48,1.24-.05.78-.27,1.7-.69,2.75-.41,1.05-1.04,2.13-1.89,3.23-.85,1.1-1.94,2.12-3.27,3.06-1.33.94-2.95,1.7-4.85,2.27s-4.09.86-6.57.86Z" fill="#fff"/><path d="M345.69,116.81c-2.43,0-4.61-.47-6.53-1.41-1.93-.94-3.46-2.21-4.61-3.82-1.15-1.6-1.72-3.39-1.72-5.36,0-3.25,1.32-5.82,3.95-7.7,2.63-1.88,6.11-3.16,10.42-3.85l9.01-1.31v-1.24c0-1.79-.41-3.16-1.24-4.12-.83-.96-2.27-1.44-4.33-1.44-1.51,0-2.72.3-3.61.89s-1.59,1.38-2.1,2.34c-.37.6-.92.89-1.65.89h-6.53c-.5,0-.89-.15-1.17-.45-.28-.3-.39-.65-.34-1.07,0-.78.3-1.7.89-2.75.59-1.05,1.51-2.1,2.75-3.13,1.24-1.03,2.83-1.89,4.78-2.58s4.3-1.03,7.05-1.03c2.89,0,5.36.34,7.42,1.03s3.72,1.65,4.98,2.89c1.26,1.24,2.18,2.67,2.75,4.3.57,1.63.86,3.38.86,5.26v21.25c0,.5-.16.92-.48,1.24-.32.32-.71.48-1.17.48h-6.81c-.46,0-.85-.16-1.17-.48-.32-.32-.48-.73-.48-1.24v-2.54c-.6.87-1.4,1.68-2.41,2.44-1.01.76-2.21,1.36-3.61,1.82-1.4.46-3.04.69-4.92.69ZM348.44,109.66c1.51,0,2.86-.32,4.06-.96,1.19-.64,2.13-1.63,2.82-2.96.69-1.33,1.03-3,1.03-5.02v-1.17l-6.39,1.03c-2.43.41-4.22,1.03-5.36,1.86-1.15.83-1.72,1.83-1.72,3.03,0,.87.26,1.62.79,2.23.53.62,1.21,1.1,2.06,1.44.85.34,1.75.52,2.72.52Z" fill="#fff"/><path d="M376.69,116.12c-.46,0-.86-.16-1.2-.48-.34-.32-.52-.73-.52-1.24v-32.31c0-.5.17-.92.52-1.24.34-.32.74-.48,1.2-.48h6.74c.5,0,.92.16,1.24.48.32.32.48.73.48,1.24v2.68c1.19-1.47,2.74-2.68,4.64-3.64,1.9-.96,4.18-1.44,6.84-1.44s5.09.61,7.15,1.82c2.06,1.21,3.67,2.98,4.81,5.29,1.15,2.32,1.72,5.12,1.72,8.42v19.18c0,.5-.16.92-.48,1.24s-.73.48-1.24.48h-7.29c-.5,0-.92-.16-1.24-.48-.32-.32-.48-.73-.48-1.24v-18.77c0-2.43-.58-4.32-1.75-5.67-1.17-1.35-2.88-2.03-5.12-2.03s-3.86.68-5.12,2.03c-1.26,1.35-1.89,3.24-1.89,5.67v18.77c0,.5-.16.92-.48,1.24s-.73.48-1.24.48h-7.29Z" fill="#fff"/><path d="M417.05,83.67c-.41,0-.75-.14-1-.41-.25-.27-.36-.66-.31-1.17l1.99-12.51c.09-.59.32-1.12.69-1.58.37-.46.92-.69,1.65-.69h7.15c.37,0,.68.14.93.41.25.28.38.57.38.89s-.07.6-.21.83l-4.74,12.38c-.18.46-.45.88-.79,1.27-.34.39-.88.58-1.62.58h-4.12Z" fill="#fff"/><path d="M451.7,116.12c-2.84,0-5.26-.47-7.25-1.41-1.99-.94-3.52-2.39-4.57-4.37-1.05-1.97-1.58-4.45-1.58-7.42v-14.44h-5.36c-.5,0-.92-.16-1.24-.48-.32-.32-.48-.71-.48-1.17v-4.74c0-.5.16-.92.48-1.24s.73-.48,1.24-.48h5.36v-11.34c0-.5.17-.92.52-1.24s.74-.48,1.2-.48h6.81c.46,0,.85.16,1.17.48s.48.73.48,1.24v11.34h8.59c.5,0,.92.16,1.24.48.32.32.48.73.48,1.24v4.74c0,.46-.16.85-.48,1.17s-.73.48-1.24.48h-8.59v13.61c0,1.74.32,3.11.96,4.09.64.99,1.72,1.48,3.23,1.48h5.02c.5,0,.92.16,1.24.48.32.32.48.71.48,1.17v5.09c0,.5-.16.92-.48,1.24-.32.32-.73.48-1.24.48h-5.98Z" fill="#fff"/><path d="M494.6,116.81c-2.84,0-5.28-.33-7.32-1-2.04-.66-3.69-1.48-4.95-2.44-1.26-.96-2.2-1.94-2.82-2.92-.62-.99-.95-1.82-1-2.51-.05-.5.11-.92.48-1.24.37-.32.73-.48,1.1-.48h6.67c.18,0,.33.02.45.07.11.05.26.16.45.34.6.41,1.2.88,1.82,1.41.62.53,1.36.97,2.23,1.34.87.37,1.92.55,3.16.55,1.51,0,2.78-.31,3.82-.93,1.03-.62,1.55-1.5,1.55-2.65,0-.83-.23-1.51-.69-2.06-.46-.55-1.35-1.05-2.68-1.51-1.33-.46-3.3-.96-5.91-1.51-2.48-.55-4.58-1.28-6.33-2.2-1.74-.92-3.05-2.07-3.92-3.47-.87-1.4-1.31-3.08-1.31-5.05,0-1.79.56-3.51,1.68-5.16,1.12-1.65,2.78-3.01,4.98-4.09,2.2-1.08,4.95-1.62,8.25-1.62,2.52,0,4.73.31,6.63.93,1.9.62,3.5,1.4,4.78,2.34,1.28.94,2.26,1.9,2.92,2.89.66.99,1.02,1.85,1.07,2.58.04.5-.09.92-.41,1.24s-.69.48-1.1.48h-6.12c-.23,0-.44-.05-.62-.14-.18-.09-.34-.21-.48-.34-.55-.32-1.11-.73-1.68-1.24-.57-.5-1.25-.94-2.03-1.31-.78-.37-1.79-.55-3.03-.55-1.47,0-2.6.33-3.4,1-.8.67-1.2,1.5-1.2,2.51,0,.64.21,1.24.62,1.79.41.55,1.25,1.05,2.51,1.51s3.22.94,5.88,1.44c3.12.55,5.59,1.38,7.42,2.48,1.83,1.1,3.14,2.37,3.92,3.82.78,1.44,1.17,2.99,1.17,4.64,0,2.16-.63,4.07-1.89,5.74-1.26,1.67-3.13,2.98-5.6,3.92-2.47.94-5.5,1.41-9.08,1.41Z" fill="#fff"/><path d="M519.56,129.19c-.5,0-.92-.16-1.24-.48s-.48-.73-.48-1.24v-45.38c0-.5.16-.92.48-1.24s.73-.48,1.24-.48h6.53c.5,0,.92.16,1.24.48.32.32.48.73.48,1.24v2.61c1.1-1.47,2.53-2.67,4.3-3.61,1.76-.94,3.95-1.41,6.57-1.41,2.34,0,4.39.38,6.15,1.13,1.76.76,3.25,1.83,4.47,3.23,1.21,1.4,2.17,3.08,2.85,5.05s1.08,4.19,1.17,6.67c.05.87.07,1.7.07,2.47s-.02,1.63-.07,2.54c-.09,2.34-.47,4.49-1.13,6.46-.67,1.97-1.62,3.67-2.85,5.09-1.24,1.42-2.74,2.52-4.5,3.3-1.77.78-3.82,1.17-6.15,1.17s-4.42-.42-6.12-1.27c-1.7-.85-3.09-2-4.19-3.47v15.4c0,.5-.16.92-.48,1.24-.32.32-.73.48-1.24.48h-7.08ZM535.51,108.56c1.74,0,3.12-.38,4.12-1.13,1.01-.76,1.73-1.75,2.17-2.99.43-1.24.7-2.59.79-4.06.09-1.42.09-2.84,0-4.26-.09-1.47-.36-2.82-.79-4.06-.44-1.24-1.16-2.23-2.17-2.99-1.01-.76-2.38-1.13-4.12-1.13s-3.06.39-4.09,1.17-1.79,1.76-2.27,2.96c-.48,1.19-.75,2.47-.79,3.85-.05.83-.07,1.67-.07,2.54s.02,1.74.07,2.61c.04,1.28.32,2.49.83,3.61.5,1.12,1.28,2.05,2.34,2.78,1.05.73,2.38,1.1,3.99,1.1Z" fill="#fff"/><path d="M576.56,116.81c-5.27,0-9.45-1.47-12.55-4.4-3.09-2.93-4.73-7.2-4.92-12.79v-2.89c.18-3.58.98-6.63,2.41-9.18,1.42-2.54,3.41-4.49,5.98-5.84,2.57-1.35,5.57-2.03,9.01-2.03,3.89,0,7.13.79,9.69,2.37,2.57,1.58,4.5,3.74,5.81,6.46,1.31,2.73,1.96,5.86,1.96,9.38v1.58c0,.46-.16.86-.48,1.2-.32.34-.73.52-1.24.52h-22.41v.48c.05,1.47.32,2.81.83,4.02.5,1.21,1.25,2.19,2.23,2.92.99.73,2.19,1.1,3.61,1.1,1.1,0,2.02-.17,2.75-.52.73-.34,1.34-.73,1.82-1.17.48-.44.84-.81,1.07-1.13.41-.5.74-.81,1-.93s.63-.17,1.13-.17h7.29c.41,0,.77.14,1.07.41.3.28.42.62.38,1.03-.05.78-.42,1.71-1.13,2.78-.71,1.08-1.75,2.13-3.13,3.16s-3.08,1.89-5.12,2.58c-2.04.69-4.39,1.03-7.05,1.03ZM569.82,94.88h13.41v-.21c0-1.6-.26-3.01-.79-4.23-.53-1.21-1.29-2.17-2.3-2.85-1.01-.69-2.22-1.03-3.64-1.03s-2.62.34-3.61,1.03-1.74,1.64-2.27,2.85c-.53,1.22-.79,2.62-.79,4.23v.21Z" fill="#fff"/><path d="M602.61,116.12c-.5,0-.92-.16-1.24-.48-.32-.32-.48-.73-.48-1.24v-45.38c0-.5.16-.92.48-1.24.32-.32.73-.48,1.24-.48h6.88c.5,0,.92.16,1.24.48.32.32.48.73.48,1.24v45.38c0,.5-.16.92-.48,1.24s-.73.48-1.24.48h-6.88Z" fill="#fff"/><path d="M621.59,116.12c-.5,0-.92-.16-1.24-.48-.32-.32-.48-.73-.48-1.24v-45.38c0-.5.16-.92.48-1.24.32-.32.73-.48,1.24-.48h6.88c.5,0,.92.16,1.24.48.32.32.48.73.48,1.24v45.38c0,.5-.16.92-.48,1.24s-.73.48-1.24.48h-6.88Z" fill="#fff"/><path d="M674.12,116.81c-4.31,0-7.99-.72-11.04-2.17-3.05-1.44-5.41-3.55-7.08-6.33-1.67-2.77-2.58-6.13-2.72-10.07-.05-1.97-.07-4.08-.07-6.33s.02-4.38.07-6.39c.14-3.85,1.04-7.13,2.72-9.83,1.67-2.7,4.06-4.78,7.15-6.22,3.09-1.44,6.75-2.17,10.97-2.17,3.39,0,6.37.44,8.94,1.31,2.57.87,4.73,2.01,6.5,3.4,1.76,1.4,3.09,2.92,3.99,4.57s1.36,3.25,1.41,4.81c0,.41-.14.76-.41,1.03s-.64.41-1.1.41h-8.53c-.46,0-.81-.09-1.07-.28-.25-.18-.47-.46-.65-.83-.32-.78-.84-1.6-1.55-2.47-.71-.87-1.66-1.59-2.85-2.17-1.19-.57-2.75-.86-4.68-.86-2.89,0-5.17.76-6.84,2.27-1.67,1.51-2.58,3.97-2.72,7.36-.14,3.94-.14,7.95,0,12.03.14,3.53,1.08,6.07,2.82,7.63,1.74,1.56,4.03,2.34,6.88,2.34,1.88,0,3.56-.33,5.05-1,1.49-.66,2.67-1.7,3.54-3.09.87-1.4,1.31-3.2,1.31-5.4v-1.72h-7.49c-.46,0-.85-.17-1.17-.52-.32-.34-.48-.74-.48-1.2v-4.4c0-.5.16-.92.48-1.24s.71-.48,1.17-.48h16.91c.5,0,.92.16,1.24.48.32.32.48.73.48,1.24v7.49c0,3.94-.87,7.31-2.61,10.11-1.74,2.8-4.21,4.94-7.39,6.43-3.19,1.49-6.91,2.23-11.17,2.23Z" fill="#fff"/><path d="M723.27,116.81c-4.03,0-7.56-.68-10.59-2.03s-5.36-3.44-7.01-6.26c-1.65-2.82-2.48-6.4-2.48-10.76v-28.05c0-.5.16-.92.48-1.24s.71-.48,1.17-.48h7.56c.5,0,.92.16,1.24.48.32.32.48.73.48,1.24v27.98c0,3.35.8,5.84,2.41,7.49,1.6,1.65,3.85,2.47,6.74,2.47s5.06-.82,6.67-2.47,2.41-4.15,2.41-7.49v-27.98c0-.5.17-.92.52-1.24.34-.32.75-.48,1.2-.48h7.56c.46,0,.85.16,1.17.48.32.32.48.73.48,1.24v28.05c0,4.36-.81,7.94-2.44,10.76-1.63,2.82-3.94,4.91-6.94,6.26s-6.54,2.03-10.62,2.03Z" fill="#fff"/><path d="M754.69,116.12c-.46,0-.85-.16-1.17-.48-.32-.32-.48-.73-.48-1.24v-44.69c0-.5.16-.92.48-1.24.32-.32.71-.48,1.17-.48h7.91c.46,0,.85.16,1.17.48.32.32.48.73.48,1.24v44.69c0,.5-.16.92-.48,1.24s-.71.48-1.17.48h-7.91Z" fill="#fff"/><path d="M797.18,116.12c-.64,0-1.13-.16-1.48-.48-.34-.32-.61-.73-.79-1.24l-9.83-31.83c-.09-.23-.14-.46-.14-.69,0-.41.15-.77.45-1.07s.65-.45,1.07-.45h6.12c.55,0,.99.16,1.31.48.32.32.53.62.62.89l6.26,21.18,6.67-21.04c.09-.32.31-.65.65-1s.84-.52,1.48-.52h3.92c.64,0,1.13.17,1.48.52s.56.68.65,1l6.67,21.04,6.26-21.18c.04-.27.23-.57.55-.89s.78-.48,1.38-.48h6.12c.41,0,.77.15,1.07.45.3.3.45.65.45,1.07,0,.23-.05.46-.14.69l-9.83,31.83c-.18.5-.44.92-.76,1.24s-.83.48-1.51.48h-5.29c-.64,0-1.15-.16-1.51-.48-.37-.32-.64-.73-.83-1.24l-6.67-20.28-6.74,20.28c-.18.5-.45.92-.79,1.24-.34.32-.86.48-1.55.48h-5.29Z" fill="#fff"/><path d="M845.79,74.87c-.46,0-.85-.16-1.17-.48-.32-.32-.48-.73-.48-1.24v-5.57c0-.46.16-.86.48-1.2.32-.34.71-.52,1.17-.52h7.29c.46,0,.86.17,1.2.52s.52.75.52,1.2v5.57c0,.5-.17.92-.52,1.24-.34.32-.75.48-1.2.48h-7.29ZM846,116.12c-.46,0-.86-.16-1.2-.48-.34-.32-.52-.73-.52-1.24v-32.31c0-.5.17-.92.52-1.24.34-.32.74-.48,1.2-.48h6.94c.46,0,.85.16,1.17.48.32.32.48.73.48,1.24v32.31c0,.5-.16.92-.48,1.24-.32.32-.71.48-1.17.48h-6.94Z" fill="#fff"/><path d="M880.44,116.12c-2.84,0-5.26-.47-7.25-1.41-1.99-.94-3.52-2.39-4.57-4.37-1.05-1.97-1.58-4.45-1.58-7.42v-14.44h-5.36c-.5,0-.92-.16-1.24-.48-.32-.32-.48-.71-.48-1.17v-4.74c0-.5.16-.92.48-1.24s.73-.48,1.24-.48h5.36v-11.34c0-.5.17-.92.52-1.24s.74-.48,1.2-.48h6.81c.46,0,.85.16,1.17.48s.48.73.48,1.24v11.34h8.59c.5,0,.92.16,1.24.48.32.32.48.73.48,1.24v4.74c0,.46-.16.85-.48,1.17s-.73.48-1.24.48h-8.59v13.61c0,1.74.32,3.11.96,4.09.64.99,1.72,1.48,3.23,1.48h5.02c.5,0,.92.16,1.24.48.32.32.48.71.48,1.17v5.09c0,.5-.16.92-.48,1.24-.32.32-.73.48-1.24.48h-5.98Z" fill="#fff"/><path d="M895.77,116.12c-.5,0-.92-.16-1.24-.48-.32-.32-.48-.73-.48-1.24v-45.38c0-.5.16-.92.48-1.24.32-.32.73-.48,1.24-.48h7.43c.5,0,.92.16,1.24.48.32.32.48.73.48,1.24v15.47c1.19-1.47,2.69-2.64,4.5-3.51,1.81-.87,3.98-1.31,6.5-1.31,2.7,0,5.1.61,7.18,1.82,2.08,1.21,3.71,2.98,4.88,5.29,1.17,2.32,1.75,5.12,1.75,8.42v19.18c0,.5-.16.92-.48,1.24s-.73.48-1.24.48h-7.49c-.46,0-.85-.16-1.17-.48-.32-.32-.48-.73-.48-1.24v-18.77c0-2.43-.6-4.32-1.79-5.67-1.19-1.35-2.89-2.03-5.09-2.03s-3.87.68-5.16,2.03c-1.28,1.35-1.92,3.24-1.92,5.67v18.77c0,.5-.16.92-.48,1.24s-.73.48-1.24.48h-7.43Z" fill="#fff"/><path d="M954.35,116.81c-3.8,0-6.99-.63-9.56-1.89-2.57-1.26-4.53-3.06-5.88-5.4-1.35-2.34-2.1-5.06-2.23-8.18-.05-.92-.07-1.96-.07-3.13s.02-2.19.07-3.06c.14-3.16.92-5.9,2.34-8.22s3.41-4.1,5.98-5.36c2.57-1.26,5.68-1.89,9.35-1.89s6.71.63,9.28,1.89c2.57,1.26,4.56,3.05,5.98,5.36,1.42,2.31,2.22,5.05,2.41,8.22.04.87.07,1.89.07,3.06s-.02,2.21-.07,3.13c-.18,3.12-.95,5.84-2.3,8.18-1.35,2.34-3.31,4.14-5.88,5.4-2.57,1.26-5.73,1.89-9.49,1.89ZM954.35,109.18c2.25,0,3.93-.69,5.05-2.06,1.12-1.38,1.75-3.41,1.89-6.12.04-.69.07-1.6.07-2.75s-.02-2.06-.07-2.75c-.14-2.66-.77-4.69-1.89-6.08-1.12-1.4-2.81-2.1-5.05-2.1s-3.94.7-5.09,2.1c-1.15,1.4-1.79,3.43-1.93,6.08-.05.69-.07,1.61-.07,2.75s.02,2.06.07,2.75c.14,2.71.78,4.74,1.93,6.12,1.14,1.38,2.84,2.06,5.09,2.06Z" fill="#fff"/><path d="M992.44,116.81c-2.66,0-5.01-.61-7.05-1.82-2.04-1.21-3.63-2.98-4.78-5.29-1.15-2.31-1.72-5.12-1.72-8.42v-19.18c0-.5.17-.92.52-1.24.34-.32.74-.48,1.2-.48h7.36c.46,0,.85.16,1.17.48.32.32.48.73.48,1.24v18.77c0,5.13,2.25,7.7,6.74,7.7,2.15,0,3.86-.68,5.12-2.03,1.26-1.35,1.89-3.24,1.89-5.67v-18.77c0-.5.16-.92.48-1.24s.73-.48,1.24-.48h7.29c.46,0,.85.16,1.17.48.32.32.48.73.48,1.24v32.31c0,.5-.16.92-.48,1.24s-.71.48-1.17.48h-6.81c-.46,0-.85-.16-1.17-.48-.32-.32-.48-.73-.48-1.24v-2.68c-1.19,1.65-2.73,2.91-4.61,3.78-1.88.87-4.17,1.31-6.88,1.31Z" fill="#fff"/><path d="M1039.88,116.12c-2.84,0-5.26-.47-7.25-1.41-1.99-.94-3.52-2.39-4.57-4.37-1.05-1.97-1.58-4.45-1.58-7.42v-14.44h-5.36c-.5,0-.92-.16-1.24-.48-.32-.32-.48-.71-.48-1.17v-4.74c0-.5.16-.92.48-1.24s.73-.48,1.24-.48h5.36v-11.34c0-.5.17-.92.52-1.24s.74-.48,1.2-.48h6.81c.46,0,.85.16,1.17.48s.48.73.48,1.24v11.34h8.59c.5,0,.92.16,1.24.48.32.32.48.73.48,1.24v4.74c0,.46-.16.85-.48,1.17s-.73.48-1.24.48h-8.59v13.61c0,1.74.32,3.11.96,4.09.64.99,1.72,1.48,3.23,1.48h5.02c.5,0,.92.16,1.24.48.32.32.48.71.48,1.17v5.09c0,.5-.16.92-.48,1.24-.32.32-.73.48-1.24.48h-5.98Z" fill="#fff"/><path d="M577.67,325.24c-.43,1.29.14,4.42-1.2,6.02,1.07.46.7,2.32-.13,3.28.55,1.03.93,1.78-.34,3.96-.04.29.64-.15.76-.31.14,2.45-.21,4.46-.69,6.69-2.22.25-4.48-1.67-5.57-1.1-.09-1.44-.37-1.99-1.38-1.88l-.04-1.01c.36-.04.62-.29.63-.8-.36.04-.67-.14-.73-.64-.05-1.67.58-3.84.76-6.04.5-.06.61.87.66,1.96.5-.06.95-3.09.91-4.75l-.9-.26c.06,1.15.24,2.73-.66,2.47.1-1.03.03-3.56.14-4.45l1.39,1.37c-.17-.85.16-1.11-.1-2.17-4.1.33-14.26,7.37-17.23,9.97l-.25.97.38.83c-.93,2.65-1.67,5.71-2.64,7.35l-4.74-1.42c-.47-2.2-3.66-2.78-3.08-4.73l-1.15.13c.33-11,10.98-23.99,16.68-33.8,2.86-4.83,5.88-8.23,8.42-10.77.45-.49,2.54,0,2.53-1.38.97.18,3.07.81,4.25,1.55l-1.24.58c.07,1.23,1.71-.34,2.1-.09,2.92,1.99,1.85,6.03,3.45,7.96.11.35.68,6.53-.33,7.3.16.13.23.12.46.24-.25,1.63-.58,3.77-.5,5.79.03.87,3.03,2.99,3.18,6.17-1.27.29-2.6.74-3.81,1.02ZM555.6,333.58c-.3.54-.41.85-.64,1.38l5.12-3.49c-1.02-.61-3.2,1.24-4.48,2.11ZM558.34,330.21c-.55.28-.97.4-1.45.68l-.72,1.32c.27-.18,1.85-.94,2.17-1.99ZM573.02,303.69c-1.35.23-4.19,4.62-6.8,9.06l-.4-.32c.15-.6.31-1.05,0-1.31-1,1.42-1.43,2.12-.63,3.41-.91,1.56-1.77,2.96-2.57,4.22-1.1,1.8-2.68,5.1-4.06,7.66,1.34-1.03,2.24-2.65,4.97-4.2,2.39-1.36,3.86-1.82,6.36-2.83,0-1.89.56-3.33.73-4.37l1.34.93c.61-2.32.94-8.24,1.36-11.56l-.3-.69ZM563.26,329.36v-.07c-1.58.25-2.21.47-2.36,1.65.6-.43,1.63-.99,2.36-1.58ZM570.39,335.88l-.18.96.43-.05.15-1.18-.4.26ZM570.64,318.35c-.19.89.31.83.81.71l-.02-.8-.79.09ZM571.15,317.12l-.29-.04-.2.82.64-.07-.15-.71ZM572.22,308.07l-.65.07.35-2,.61-.36-.32,2.29Z" fill="#fff"/><path d="M629.94,292.01c.73-.59,2.12-1.12,3.62-1.36,2.57-.37,4.62-.24,5.94.48l-1.32,1.17.18.27c.5-.06,1.82-.64,2.21-.98l2.25,1.92c-3.53,2.15-9.63,7.86-12.71,13.3-.36.62-.75-.2-1.15.13.15,2.6-1.2,4.13-2.61,7.05-.28.69-.03,1.6-.35,2.66.05.43-.98.98-1.12,1.65-1.16,5.73-2.94,11.74-4.56,17.88l-3.4-1.14-.31,1.05c-4.73-.69-5.36-2.44-6.56-7.16-.43-1.84-.22-5.13-.91-6.65-2.29-4.82-.89-7.16-1.74-10.77l-.68-2.75c-2.14.97-4.4,3.41-5.88,6.99l.35,1.12c-2.81,7.15-4.97,16.84-7.7,21.51l-2.01.23c-2.08.24-3.78-4.43-4.69-4.76l-.79-3.1c-.61-2.18-.06-3.04.29-4.46,3.67-12.91,10.99-21.31,15.99-27.76,2.24.54,8.54,3.53,9.85,6.06,1.11,2.05,2.48,6.47,3.54,9.33,3.9-9.02,9.87-20.38,11.38-21.13l1.48-.39c-3.94,4.88-6.5,10.41-7.94,13.11-.52,1.15-.76,1.61-.61,1.67l.46.24c1.71-3.46,5.73-10.83,9.49-15.4ZM602.12,300.28l-1.39,1.83c.94.62,1.57-.91,2.01-1.47l-.62-.36ZM626.1,320.63l-.7-.36c-.04-1.01-.13-2.38.77-2.12l-.08,2.48ZM628.63,295.79l1.04-1.72-.61-.22c-.33.33-.7.88-1.05,1.65.09.13.34.4.62.29ZM629.86,303.35c-.48.93-1.45,2.56-.69,2.84l1.24-2.47c.12-.23-.43-.6-.55-.37ZM631.43,300.62l-1.22,2.03c.42-.12.58,0,.69.29l1.08-2.01c.13-.16-.23-.77-.54-.3ZM636.2,294.05l.22.63c.66-.58,1.29-.73,1.03-1.79l-1.25,1.16Z" fill="#fff"/><path d="M681.12,305.75c-.45.56-1.26,1.02-1.84,1.01l.94-1.27c-.45-.09-1.16.06-1.54.54-.38.48-1.42,1.54-2.72,2.85l1.32.14c-7.04,7.63-15.96,14.69-23.86,19.3l-.19,4.02c-1.44-.56-2.44.28-3.94.45-4.37.5-6.36-4.14-8.17-6.04.2-.82.3-1.78.26-2.79l1.7-.99c.95-.62,1.61-1.13,1.98-2.41.84-2.78,1.08-5.14,1.58-8.39l-.41-1.04c.63-3.34,2.58-6.03,2.4-8.85-.16-2.02-2.96-3-3.09-4.8-.14-1.87,3.26-3.21,5.01-4.43l.77.42c2.95-4.04,2.32-11.45,6.12-11.89.65-.07,3.71,3.86,4.18,4.75.42,1.11-.07,2.55-.18,4.09,2.44-.28,5.01-1.3,8.72-1.22-.56,1.44,1.55.84,1.86-.21.78.49,2.77.05,4.4.37,6.83,1.25,7.82,6.73,8.53,9.77-1,2-2.41,4.93-3.82,6.61ZM653.5,326.42l-.06.73,1.88-1.3.26-.9-2.08,1.47ZM657.21,302.46l.18,2.23c-.24.39-.79.67-1.17,1.22v.07c1.05-1.06,1.28,2.18.63,2.25-.37-.03-.67-.14-.98-.32v.07c.34.4.54.88.68,1.45.12,1.66-1.08,3.83-1.13,6.59,2.4-1.87,7.94-4.83,11.17-8.33.32.25.61.22,1.12.31l-.54-.96.6-.5c.34.47.64.51.78.49.72-.08,1.95-1.38,4.12-4.61,1.94.43,5.12-4.8,4.38-7.4-12.12,1.39-16.12,5.77-19.85,7.43ZM656.48,325.21l3.45-2.21c-.3-.11-.59-.73-.28-1.2v-.07c-1.02.7-2.62,2.55-3.17,3.41v.07ZM672.61,312.6c-1.29.15-2.36,1-3.68,2.09-1.46,1.18-3.81,2.91-5.94,4.6-.02.44-.18.96-.65,1.31-.56-.44-1.32-.14-2.03.67.43-.05,1.17.08,1.71.31,3.8-2.98,7.54-6.46,10.6-8.92v-.07ZM674.38,310.22l-2.22,1.56c.46.24,1.05.32,1.51-.17l1.38-1.25-.67-.14ZM680.33,303.88l-.5.71.96.11.5-.71-.96-.11Z" fill="#fff"/><path d="M1017.39,299.2v83.31l17.37-16.36,12.33,24.41,13.59-6.54-11.65-22.4h25.74l-57.39-62.42h0Z" fill="#1c2126" opacity=".1" stroke="#1c2126" stroke-linejoin="round" stroke-width="2"/><path d="M1006.64,294.46v83.31l17.37-16.36,12.33,24.41,13.59-6.54-11.65-22.4h25.74l-57.39-62.42h0Z" fill="#fff" stroke="#1c2126" stroke-linejoin="round"/><polygon points="1031.56 352.79 1038.29 352.79 1054.73 352.79 1010.73 304.93 1010.73 368.31 1021.21 358.44 1025.19 354.69 1027.65 359.57 1038.18 380.41 1044.37 377.43 1034.67 358.76 1031.56 352.79" fill="#1c2126"/><path d="M238.23,260.64c-1.02-.8-2.3-1.18-3.56-1.45-2.22-.49-4.66-.69-6.64.41-2.08,1.15-3.22,3.49-3.79,5.8-.52,2.06-.67,4.21-.49,6.33-2.43-1.72-5.27-2.96-8.24-3.09-3.01-.13-6.15,1-8.04,3.34-1.89,2.34-2.26,5.94-.52,8.4,1.67,2.36,4.7,3.22,7.5,3.92,7,1.73,14.03,3.35,21.08,4.86,1.41-5.92,2.82-11.84,4.23-17.75.89-3.73,1.49-8.39-1.53-10.76Z" fill="#b7303d" stroke="#1c2126" stroke-linejoin="round" stroke-width="2"/><path d="M1001.45,190.45c.11-1.29-.28-2.57-.74-3.77-.81-2.12-1.98-4.27-3.98-5.33-2.1-1.11-4.68-.78-6.93,0-2.01.7-3.89,1.75-5.56,3.06.1-2.97-.41-6.03-1.93-8.58-1.54-2.59-4.21-4.6-7.2-4.89-3-.3-6.21,1.36-7.31,4.17-1.06,2.69-.12,5.7.84,8.42,2.39,6.8,4.88,13.57,7.49,20.29,5.72-2.06,11.45-4.13,17.17-6.19,3.61-1.3,7.83-3.35,8.16-7.18Z" fill="#b7303d" stroke="#1c2126" stroke-linejoin="round" stroke-width="2"/><rect x="0" y="595" width="1200" height="35" fill="#fff"/><rect x="0" y="499.19" width="1200" height="95.81" fill="#fff"/><line x1="0" y1="499.19" x2="1200" y2="499.19" fill="none" stroke="#1c2126" stroke-miterlimit="10"/><line x1="0" y1="595" x2="1200" y2="595" fill="none" stroke="#1c2126" stroke-miterlimit="10"/><path d="M24.24,559.45v-18.76h-6.39v-2.37h15.35v2.37h-6.39v18.76h-2.58Z" fill="#1c2126"/><path d="M44.08,559.89c-4.8,0-7.75-3.46-7.75-9.3v-3.41c0-5.84,2.94-9.3,7.75-9.3s7.75,3.46,7.75,9.3v3.41c0,5.84-2.94,9.3-7.75,9.3ZM49.22,550.58v-3.38c0-4.41-1.93-6.87-5.14-6.87s-5.14,2.46-5.14,6.87v3.38c0,4.41,1.93,6.87,5.14,6.87s5.14-2.46,5.14-6.87Z" fill="#1c2126"/><path d="M59.97,545.58c0-1.48,1.2-2.71,2.65-2.71s2.65,1.23,2.65,2.71-1.2,2.71-2.65,2.71-2.65-1.23-2.65-2.71ZM59.97,556.83c0-1.48,1.2-2.7,2.65-2.7s2.65,1.21,2.65,2.7-1.2,2.71-2.65,2.71-2.65-1.21-2.65-2.71Z" fill="#1c2126"/><line x1="582.03" y1="498.72" x2="582.03" y2="595" fill="none" stroke="#1c2126" stroke-miterlimit="10"/><path d="M605.51,559.45v-21.14h12.47v2.37h-9.87v7.25h9.02v2.3h-9.02v9.21h-2.59Z" fill="#1c2126"/><path d="M625.54,551.03v8.42h-2.55v-21.14h7.09c4.19,0,6.81,2.43,6.81,6.36,0,2.77-1.54,5.04-3.94,5.83l4.31,8.95h-2.92l-3.94-8.42h-4.86ZM625.54,548.85h4.19c2.92,0,4.56-1.48,4.56-4.12s-1.61-4.12-4.44-4.12h-4.31v8.23Z" fill="#1c2126"/><path d="M648.15,559.89c-4.8,0-7.75-3.46-7.75-9.3v-3.41c0-5.84,2.94-9.3,7.75-9.3s7.75,3.46,7.75,9.3v3.41c0,5.84-2.94,9.3-7.75,9.3ZM653.29,550.58v-3.38c0-4.41-1.93-6.87-5.14-6.87s-5.14,2.46-5.14,6.87v3.38c0,4.41,1.93,6.87,5.14,6.87s5.14-2.46,5.14-6.87Z" fill="#1c2126"/><path d="M661.18,559.45h-2.31v-21.14h2.86l4.88,13.08h.19l4.86-13.08h2.86v21.14h-2.31v-8.1l.15-8.57h-.19l-4.45,11.71h-2.02l-4.45-11.71h-.19l.15,8.57v8.1Z" fill="#1c2126"/><path d="M682.59,545.58c0-1.48,1.2-2.71,2.65-2.71s2.65,1.23,2.65,2.71-1.2,2.71-2.65,2.71-2.65-1.23-2.65-2.71ZM682.59,556.83c0-1.48,1.2-2.7,2.65-2.7s2.65,1.21,2.65,2.7-1.2,2.71-2.65,2.71-2.65-1.21-2.65-2.71Z" fill="#1c2126"/><path d="M12.77,618.4c-.12,0-.21-.04-.26-.11s-.08-.17-.06-.27l2.22-10.42c.02-.12.07-.21.16-.29.08-.07.19-.11.3-.11h6.95c.12,0,.2.04.26.11.05.07.07.17.05.29l-.24,1.12c-.02.12-.08.21-.16.28-.08.07-.19.11-.3.11h-5.14l-.66,3.04h4.82c.12,0,.2.04.26.11.05.07.07.17.05.29l-.22,1.12c-.02.11-.08.2-.17.27-.09.07-.19.11-.31.11h-4.82l-.85,3.97c-.02.11-.08.2-.16.27s-.19.11-.3.11h-1.41Z" fill="#1c2126"/><path d="M25.41,618.56c-.81,0-1.49-.15-2.02-.45s-.92-.72-1.15-1.26c-.23-.54-.29-1.18-.17-1.9.03-.19.08-.43.13-.71s.12-.51.17-.7c.19-.74.49-1.37.89-1.91s.91-.96,1.54-1.26c.62-.3,1.36-.45,2.22-.45s1.49.15,2.02.45c.54.3.93.72,1.16,1.26s.29,1.18.18,1.91c-.04.19-.09.43-.14.7s-.11.51-.16.71c-.19.72-.48,1.36-.87,1.9-.39.54-.9.96-1.52,1.26s-1.38.45-2.26.45ZM25.57,616.98c.58,0,1.06-.18,1.46-.54.4-.36.69-.88.87-1.58.04-.16.09-.37.14-.62s.1-.46.13-.62c.12-.69.07-1.22-.14-1.58-.21-.36-.61-.54-1.18-.54s-1.05.18-1.46.54-.69.88-.86,1.58c-.04.16-.09.37-.15.62s-.1.46-.12.62c-.12.69-.07,1.22.14,1.58s.6.54,1.18.54Z" fill="#1c2126"/><path d="M31.53,618.4c-.11,0-.19-.04-.25-.11s-.08-.17-.06-.27l1.6-7.54c.02-.12.08-.21.17-.29s.19-.11.3-.11h1.3c.11,0,.19.04.25.11s.08.17.06.29l-.14.66c.26-.34.58-.6.98-.78s.88-.27,1.44-.27h.78c.12,0,.2.04.26.11.05.07.07.16.05.27l-.24,1.15c-.02.11-.08.2-.17.27s-.19.11-.3.11h-1.25c-.51,0-.94.14-1.29.43-.35.28-.57.68-.68,1.19l-.94,4.4c-.02.11-.07.2-.16.27-.08.07-.19.11-.3.11h-1.39Z" fill="#1c2126"/><path d="M44.76,618.4c-.73,0-1.29-.11-1.7-.34-.4-.22-.67-.56-.78-1-.12-.44-.11-.99.03-1.66l.79-3.63h-1.26c-.11,0-.19-.04-.25-.11-.06-.07-.08-.17-.06-.29l.19-.91c.02-.11.08-.2.17-.27.09-.07.2-.11.31-.11h1.25l.58-2.65c.02-.11.07-.2.16-.27.08-.07.18-.11.29-.11h1.3c.12,0,.21.04.26.11.06.08.08.17.06.27l-.58,2.65h2c.11,0,.19.04.25.11s.08.16.06.27l-.19.91c-.02.12-.08.21-.17.29-.09.08-.19.11-.3.11h-2l-.74,3.47c-.06.29-.1.54-.1.74,0,.21.05.37.17.48s.33.17.62.17h1.15c.12,0,.2.04.26.11.05.08.07.17.05.27l-.21.99c-.02.11-.08.2-.16.27-.09.07-.19.11-.3.11h-1.14Z" fill="#1c2126"/><path d="M48.07,618.4c-.11,0-.19-.04-.25-.11s-.08-.17-.06-.27l2.26-10.59c.02-.11.08-.2.16-.27.08-.07.18-.11.29-.11h1.44c.11,0,.19.04.25.11.06.08.08.17.06.27l-.78,3.65c.34-.34.72-.62,1.14-.83.42-.21.93-.32,1.53-.32.69,0,1.26.15,1.7.44.44.29.75.71.92,1.24.17.53.18,1.17.02,1.92l-.96,4.5c-.02.11-.08.2-.16.27-.09.07-.19.11-.3.11h-1.44c-.11,0-.19-.04-.25-.11s-.08-.17-.06-.27l.93-4.4c.14-.62.11-1.1-.08-1.46-.19-.35-.58-.53-1.17-.53-.36,0-.71.08-1.03.23-.33.15-.61.38-.84.68s-.4.66-.5,1.07l-.93,4.4c-.02.11-.08.2-.16.27-.09.07-.18.11-.29.11h-1.44Z" fill="#1c2126"/><path d="M61.51,618.56c-.78,0-1.43-.15-1.95-.46-.52-.31-.87-.76-1.07-1.35-.2-.59-.23-1.29-.09-2.13.02-.11.05-.24.08-.41.03-.17.06-.3.1-.39.21-.81.54-1.51.99-2.09.45-.58.99-1.03,1.64-1.34s1.36-.47,2.14-.47c.86,0,1.55.18,2.06.54s.84.85,1.01,1.49.16,1.37,0,2.2l-.08.34c-.02.11-.08.2-.17.27-.09.08-.19.11-.31.11h-5.31c-.01.06-.02.11-.03.13-.05.38-.05.72.02,1.03.06.31.21.57.42.76s.51.29.87.29c.3,0,.56-.04.79-.13.22-.09.41-.2.55-.31.14-.12.25-.21.33-.29.13-.13.22-.21.29-.23.06-.03.15-.04.27-.04h1.39c.1,0,.17.03.22.1.05.06.07.14.05.24-.05.17-.19.38-.4.62-.21.24-.5.48-.86.72-.36.24-.79.43-1.29.58s-1.04.23-1.64.23ZM60.82,613.53h3.54l.02-.05c.1-.42.1-.78.02-1.1s-.23-.56-.46-.74c-.22-.18-.52-.26-.9-.26s-.71.09-1.02.26c-.3.18-.56.42-.76.74-.2.31-.35.68-.43,1.1l-.02.05Z" fill="#1c2126"/><path d="M71.06,618.4c-.11,0-.19-.04-.25-.11s-.08-.17-.06-.27l2.26-10.59c.02-.11.08-.2.16-.27.08-.07.18-.11.29-.11h1.33c.12,0,.21.04.26.11.06.08.08.17.06.27l-2.26,10.59c-.02.11-.08.2-.16.27-.09.07-.19.11-.3.11h-1.33Z" fill="#1c2126"/><path d="M78.64,618.56c-.81,0-1.49-.15-2.02-.45-.54-.3-.92-.72-1.15-1.26-.23-.54-.29-1.18-.17-1.9.03-.19.08-.43.14-.71s.11-.51.17-.7c.19-.74.49-1.37.89-1.91.4-.54.91-.96,1.54-1.26s1.36-.45,2.22-.45,1.49.15,2.02.45.92.72,1.16,1.26c.23.54.29,1.18.18,1.91-.04.19-.09.43-.14.7-.05.28-.11.51-.16.71-.19.72-.48,1.36-.87,1.9-.39.54-.9.96-1.52,1.26-.62.3-1.38.45-2.26.45ZM78.8,616.98c.58,0,1.06-.18,1.46-.54s.69-.88.87-1.58c.04-.16.09-.37.14-.62.05-.26.1-.46.13-.62.12-.69.07-1.22-.14-1.58s-.61-.54-1.18-.54-1.05.18-1.46.54c-.41.36-.69.88-.86,1.58-.04.16-.09.37-.15.62s-.1.46-.12.62c-.12.69-.07,1.22.14,1.58.21.36.6.54,1.18.54Z" fill="#1c2126"/><path d="M86.92,618.4c-.16,0-.27-.04-.34-.12-.06-.08-.11-.17-.13-.28l-1.42-7.49c-.02-.14,0-.25.08-.32s.18-.11.3-.11h1.22c.12,0,.21.03.27.1.06.06.11.15.13.27l.91,5.55,3.33-5.62c.03-.06.09-.13.17-.2.08-.07.18-.11.31-.11h1.39c.13,0,.22.05.26.14.05.1.03.21-.06.35l-4.56,7.42c-.08.11-.16.2-.25.28-.09.08-.22.12-.38.12h-1.25Z" fill="#1c2126"/><path d="M96.66,618.56c-.78,0-1.43-.15-1.94-.46-.52-.31-.88-.76-1.07-1.35-.2-.59-.23-1.29-.09-2.13.02-.11.05-.24.08-.41.03-.17.06-.3.1-.39.21-.81.54-1.51.99-2.09.45-.58.99-1.03,1.64-1.34s1.36-.47,2.14-.47c.86,0,1.55.18,2.06.54.51.36.84.85,1.01,1.49.17.63.16,1.37,0,2.2l-.08.34c-.02.11-.08.2-.17.27-.09.08-.2.11-.31.11h-5.31c-.01.06-.02.11-.03.13-.05.38-.05.72.02,1.03.06.31.21.57.42.76s.51.29.87.29c.3,0,.56-.04.78-.13.22-.09.41-.2.55-.31.14-.12.25-.21.33-.29.13-.13.22-.21.29-.23.06-.03.15-.04.27-.04h1.39c.1,0,.17.03.22.1.05.06.07.14.05.24-.05.17-.19.38-.4.62-.21.24-.5.48-.87.72-.36.24-.79.43-1.29.58s-1.04.23-1.64.23ZM95.97,613.53h3.54l.02-.05c.1-.42.1-.78.02-1.1s-.23-.56-.46-.74c-.22-.18-.52-.26-.9-.26s-.71.09-1.02.26-.56.42-.76.74c-.2.31-.35.68-.43,1.1l-.02.05Z" fill="#1c2126"/><path d="M109.56,618.56c-.81,0-1.49-.15-2.02-.45s-.92-.72-1.15-1.26c-.23-.54-.29-1.18-.17-1.9.03-.19.08-.43.13-.71s.12-.51.17-.7c.19-.74.49-1.37.89-1.91s.91-.96,1.54-1.26c.62-.3,1.36-.45,2.22-.45s1.49.15,2.02.45c.54.3.93.72,1.16,1.26s.29,1.18.18,1.91c-.04.19-.09.43-.14.7s-.11.51-.16.71c-.19.72-.48,1.36-.87,1.9-.39.54-.9.96-1.52,1.26s-1.38.45-2.26.45ZM109.72,616.98c.58,0,1.06-.18,1.46-.54.4-.36.69-.88.87-1.58.04-.16.09-.37.14-.62s.1-.46.13-.62c.12-.69.07-1.22-.14-1.58-.21-.36-.61-.54-1.18-.54s-1.05.18-1.46.54-.69.88-.86,1.58c-.04.16-.09.37-.15.62s-.1.46-.12.62c-.12.69-.07,1.22.14,1.58s.6.54,1.18.54Z" fill="#1c2126"/><path d="M116.42,618.4c-.12,0-.21-.04-.26-.11s-.08-.17-.06-.27l1.33-6.24h-1.29c-.11,0-.19-.04-.25-.11-.06-.07-.08-.17-.06-.29l.19-.91c.02-.11.08-.2.17-.27s.19-.11.31-.11h1.3l.13-.65c.15-.64.38-1.17.69-1.59.31-.42.7-.74,1.18-.95.48-.21,1.04-.32,1.68-.32h1.28c.12,0,.2.04.26.11.05.07.07.16.05.27l-.19.91c-.02.12-.08.21-.17.29s-.19.11-.3.11h-.96c-.43,0-.76.11-.99.32-.23.21-.39.52-.46.93l-.13.58h1.98c.12,0,.2.04.26.11.05.07.07.16.05.27l-.19.91c-.02.12-.08.21-.16.29-.09.08-.19.11-.3.11h-1.98l-1.34,6.24c-.02.11-.07.2-.16.27-.08.07-.18.11-.29.11h-1.3Z" fill="#1c2126"/><path d="M128.85,618.56c-.81,0-1.48-.15-2.02-.45s-.92-.72-1.15-1.26c-.23-.54-.29-1.18-.17-1.9.03-.19.08-.43.14-.71s.11-.51.17-.7c.19-.74.49-1.37.89-1.91s.91-.96,1.54-1.26c.62-.3,1.36-.45,2.22-.45s1.49.15,2.02.45c.54.3.92.72,1.16,1.26.23.54.29,1.18.18,1.91-.04.19-.09.43-.14.7s-.11.51-.16.71c-.19.72-.48,1.36-.87,1.9-.39.54-.9.96-1.52,1.26s-1.38.45-2.26.45ZM129.01,616.98c.58,0,1.06-.18,1.46-.54.4-.36.69-.88.87-1.58.04-.16.09-.37.14-.62.05-.26.1-.46.13-.62.12-.69.07-1.22-.14-1.58-.21-.36-.61-.54-1.18-.54s-1.05.18-1.46.54-.69.88-.86,1.58c-.04.16-.09.37-.15.62s-.1.46-.12.62c-.12.69-.07,1.22.14,1.58s.6.54,1.18.54Z" fill="#1c2126"/><path d="M134.32,621.45c-.11,0-.19-.04-.25-.11-.06-.07-.08-.16-.06-.27l2.26-10.59c.02-.11.08-.2.16-.27.09-.07.18-.11.29-.11h1.28c.11,0,.19.04.25.11s.08.16.06.27l-.14.64c.33-.34.7-.62,1.1-.85.4-.22.93-.34,1.58-.34.55,0,1.03.09,1.42.28.39.19.7.45.92.79.22.34.37.74.44,1.21.07.46.06.97-.04,1.53-.02.18-.05.35-.09.51s-.08.34-.14.53c-.13.52-.31,1.02-.54,1.48-.24.46-.52.87-.86,1.22-.34.35-.73.62-1.18.81-.45.19-.96.29-1.53.29-.6,0-1.09-.1-1.47-.31-.38-.21-.66-.48-.83-.82l-.78,3.63c-.02.11-.08.2-.16.27-.09.08-.19.11-.3.11h-1.36ZM138.88,616.85c.43,0,.79-.1,1.09-.3.3-.2.55-.46.74-.78.2-.33.35-.68.47-1.05.05-.16.1-.32.13-.48.03-.16.06-.32.08-.48.05-.38.06-.74.02-1.06s-.16-.58-.36-.78c-.2-.2-.51-.3-.94-.3-.45,0-.83.1-1.16.3-.33.2-.59.46-.8.78s-.36.64-.44.97c-.05.19-.1.39-.14.61s-.08.42-.11.62c-.05.32-.05.63,0,.92.06.29.2.54.43.73.23.19.56.29.98.29Z" fill="#1c2126"/><path d="M148.13,618.56c-.78,0-1.43-.15-1.95-.46-.52-.31-.87-.76-1.07-1.35-.2-.59-.23-1.29-.09-2.13.02-.11.05-.24.08-.41.03-.17.06-.3.1-.39.21-.81.54-1.51.99-2.09.45-.58.99-1.03,1.64-1.34s1.36-.47,2.14-.47c.86,0,1.55.18,2.06.54s.84.85,1.01,1.49.16,1.37,0,2.2l-.08.34c-.02.11-.08.2-.17.27-.09.08-.19.11-.31.11h-5.31c-.01.06-.02.11-.03.13-.05.38-.05.72.02,1.03.06.31.21.57.42.76s.51.29.87.29c.3,0,.56-.04.79-.13.22-.09.41-.2.55-.31.14-.12.25-.21.33-.29.13-.13.22-.21.29-.23.06-.03.15-.04.27-.04h1.39c.1,0,.17.03.22.1.05.06.07.14.05.24-.05.17-.19.38-.4.62-.21.24-.5.48-.86.72-.36.24-.79.43-1.29.58s-1.04.23-1.64.23ZM147.44,613.53h3.54l.02-.05c.1-.42.1-.78.02-1.1s-.23-.56-.46-.74c-.22-.18-.52-.26-.9-.26s-.71.09-1.02.26c-.3.18-.56.42-.76.74-.2.31-.35.68-.43,1.1l-.02.05Z" fill="#1c2126"/><path d="M153.96,618.4c-.11,0-.19-.04-.25-.11-.06-.07-.08-.17-.06-.27l1.6-7.55c.02-.11.08-.2.17-.27.09-.07.19-.11.3-.11h1.31c.11,0,.19.04.24.11.05.07.07.16.05.27l-.14.66c.34-.34.74-.63,1.21-.86.46-.23.99-.35,1.58-.35.73,0,1.31.15,1.74.44s.73.71.87,1.24c.14.53.14,1.17-.02,1.92l-.96,4.5c-.02.11-.07.2-.16.27s-.19.11-.3.11h-1.41c-.11,0-.19-.04-.25-.11s-.08-.17-.06-.27l.93-4.4c.14-.65.12-1.14-.04-1.48s-.56-.5-1.18-.5-1.12.18-1.54.53c-.42.35-.7.84-.84,1.46l-.93,4.4c-.02.11-.08.2-.16.27-.09.07-.18.11-.29.11h-1.41Z" fill="#1c2126"/><path d="M170.61,618.56c-.64,0-1.17-.07-1.59-.22-.42-.15-.75-.34-.99-.56-.24-.22-.41-.45-.5-.67-.09-.22-.12-.41-.1-.56.02-.12.08-.21.17-.28.09-.07.18-.11.28-.11h1.26s.08,0,.11.02c.03,0,.06.04.1.1l.37.37c.13.13.29.24.49.33.2.09.46.14.78.14.42,0,.78-.08,1.1-.25.31-.17.5-.4.57-.71.04-.22.02-.4-.08-.54-.1-.14-.29-.27-.59-.38s-.74-.23-1.33-.36c-.58-.14-1.04-.31-1.38-.53-.35-.21-.58-.48-.71-.8-.12-.32-.13-.69-.04-1.12.08-.42.29-.81.62-1.19.33-.38.77-.69,1.32-.94s1.19-.37,1.93-.37c.58,0,1.06.07,1.46.22s.72.32.96.54c.24.21.41.43.5.65.1.22.13.41.1.57-.01.12-.06.21-.15.28-.09.07-.18.11-.28.11h-1.17c-.05,0-.1-.01-.14-.03-.04-.02-.08-.05-.1-.08-.11-.11-.22-.22-.33-.34-.11-.12-.26-.23-.43-.31-.18-.08-.42-.13-.74-.13-.41,0-.73.09-.98.26s-.41.4-.47.66c-.03.18-.01.34.06.47.07.13.25.26.54.38s.73.24,1.31.37c.69.13,1.22.32,1.59.57.37.25.61.54.72.86s.13.69.04,1.08c-.1.48-.33.91-.7,1.29-.37.38-.85.69-1.45.9-.6.22-1.3.33-2.11.33Z" fill="#1c2126"/><path d="M179.52,618.56c-.81,0-1.49-.15-2.02-.45-.54-.3-.92-.72-1.15-1.26-.23-.54-.29-1.18-.17-1.9.03-.19.08-.43.14-.71s.11-.51.17-.7c.19-.74.49-1.37.89-1.91.4-.54.91-.96,1.54-1.26s1.36-.45,2.22-.45,1.49.15,2.02.45.92.72,1.16,1.26c.23.54.29,1.18.18,1.91-.04.19-.09.43-.14.7-.05.28-.11.51-.16.71-.19.72-.48,1.36-.87,1.9-.39.54-.9.96-1.52,1.26-.62.3-1.38.45-2.26.45ZM179.68,616.98c.58,0,1.06-.18,1.46-.54s.69-.88.87-1.58c.04-.16.09-.37.14-.62.05-.26.1-.46.13-.62.12-.69.07-1.22-.14-1.58s-.61-.54-1.18-.54-1.05.18-1.46.54c-.41.36-.69.88-.86,1.58-.04.16-.09.37-.15.62s-.1.46-.12.62c-.12.69-.07,1.22.14,1.58.21.36.6.54,1.18.54Z" fill="#1c2126"/><path d="M188.45,618.56c-.69,0-1.26-.15-1.7-.44s-.73-.71-.87-1.25-.14-1.18,0-1.91l.96-4.5c.02-.11.08-.2.17-.27.09-.07.19-.11.29-.11h1.41c.11,0,.19.04.24.11s.07.16.05.27l-.93,4.4c-.1.44-.13.8-.09,1.1.04.29.16.52.36.66.2.15.52.22.94.22.58,0,1.08-.18,1.5-.53.43-.35.7-.84.83-1.46l.94-4.4c.02-.11.08-.2.17-.27s.19-.11.3-.11h1.39c.12,0,.2.04.26.11.05.07.07.16.05.27l-1.6,7.55c-.02.11-.07.2-.16.27-.08.07-.19.11-.3.11h-1.3c-.11,0-.19-.04-.25-.11s-.08-.17-.06-.27l.13-.66c-.23.24-.47.46-.72.64-.25.18-.53.32-.85.42-.32.1-.71.14-1.18.14Z" fill="#1c2126"/><path d="M195.57,618.4c-.11,0-.19-.04-.25-.11-.06-.07-.08-.17-.06-.27l1.6-7.54c.02-.12.08-.21.17-.29.09-.07.19-.11.3-.11h1.3c.11,0,.19.04.25.11s.08.17.06.29l-.14.66c.26-.34.58-.6.98-.78.39-.18.87-.27,1.44-.27h.78c.12,0,.2.04.26.11s.07.16.05.27l-.24,1.15c-.02.11-.08.2-.17.27-.09.07-.19.11-.3.11h-1.25c-.51,0-.94.14-1.29.43-.35.28-.57.68-.68,1.19l-.94,4.4c-.02.11-.08.2-.16.27-.09.07-.19.11-.3.11h-1.39Z" fill="#1c2126"/><path d="M205.46,618.56c-.71,0-1.34-.14-1.88-.43s-.94-.71-1.19-1.26-.31-1.21-.18-1.99c.03-.16.07-.37.13-.63.05-.26.1-.48.14-.65.29-1.16.82-2.07,1.6-2.71.78-.64,1.77-.97,2.98-.97.67,0,1.23.1,1.69.29.45.19.81.44,1.07.74.26.3.44.61.54.93s.14.61.1.86c0,.12-.06.21-.14.28-.08.07-.17.1-.28.1h-1.46c-.11,0-.19-.03-.25-.08-.06-.05-.09-.13-.1-.24,0-.43-.11-.74-.34-.93-.23-.19-.56-.29-.98-.29-.52,0-.99.17-1.4.51-.41.34-.71.87-.89,1.59-.04.19-.09.39-.13.59s-.08.38-.11.53c-.12.74-.06,1.27.16,1.6.22.33.6.5,1.12.5.42,0,.79-.09,1.12-.26s.61-.48.83-.9c.06-.12.13-.2.2-.25.07-.05.16-.07.26-.07h1.44c.11,0,.19.04.25.11.06.07.07.16.04.28-.07.23-.21.51-.41.82s-.47.62-.81.92c-.34.3-.77.54-1.29.74-.52.19-1.13.29-1.85.29Z" fill="#1c2126"/><path d="M214.69,618.56c-.78,0-1.43-.15-1.95-.46-.52-.31-.87-.76-1.07-1.35-.2-.59-.23-1.29-.09-2.13.02-.11.05-.24.08-.41.03-.17.06-.3.1-.39.21-.81.54-1.51.99-2.09.45-.58.99-1.03,1.64-1.34s1.36-.47,2.14-.47c.86,0,1.55.18,2.06.54s.84.85,1.01,1.49.16,1.37,0,2.2l-.08.34c-.02.11-.08.2-.17.27-.09.08-.19.11-.31.11h-5.31c-.01.06-.02.11-.03.13-.05.38-.05.72.02,1.03.06.31.21.57.42.76s.51.29.87.29c.3,0,.56-.04.79-.13.22-.09.41-.2.55-.31.14-.12.25-.21.33-.29.13-.13.22-.21.29-.23.06-.03.15-.04.27-.04h1.39c.1,0,.17.03.22.1.05.06.07.14.05.24-.05.17-.19.38-.4.62-.21.24-.5.48-.86.72-.36.24-.79.43-1.29.58s-1.04.23-1.64.23ZM214,613.53h3.54l.02-.05c.1-.42.1-.78.02-1.1s-.23-.56-.46-.74c-.22-.18-.52-.26-.9-.26s-.71.09-1.02.26c-.3.18-.56.42-.76.74-.2.31-.35.68-.43,1.1l-.02.05Z" fill="#1c2126"/><path d="M227.19,618.56c-.64,0-1.17-.07-1.59-.22-.42-.15-.75-.34-.99-.56-.24-.22-.41-.45-.5-.67-.09-.22-.13-.41-.1-.56.02-.12.08-.21.17-.28.09-.07.18-.11.28-.11h1.26s.08,0,.11.02c.03,0,.06.04.1.1.12.12.24.24.37.37.13.13.29.24.49.33.2.09.46.14.78.14.42,0,.78-.08,1.1-.25.31-.17.5-.4.57-.71.04-.22.02-.4-.08-.54s-.29-.27-.59-.38c-.3-.11-.74-.23-1.33-.36-.58-.14-1.04-.31-1.38-.53-.35-.21-.58-.48-.7-.8-.12-.32-.14-.69-.04-1.12.09-.42.29-.81.62-1.19.33-.38.77-.69,1.32-.94.55-.25,1.19-.37,1.93-.37.58,0,1.06.07,1.46.22.4.14.72.32.96.54.24.21.41.43.5.65s.13.41.1.57c-.01.12-.06.21-.15.28-.09.07-.18.11-.28.11h-1.17c-.05,0-.1-.01-.14-.03s-.07-.05-.1-.08c-.11-.11-.22-.22-.33-.34-.11-.12-.26-.23-.43-.31-.18-.08-.42-.13-.74-.13-.41,0-.73.09-.98.26s-.41.4-.47.66c-.03.18-.01.34.06.47s.25.26.54.38.73.24,1.31.37c.69.13,1.22.32,1.59.57.37.25.61.54.72.86.11.33.12.69.04,1.08-.1.48-.33.91-.7,1.29-.37.38-.85.69-1.45.9-.6.22-1.3.33-2.11.33Z" fill="#1c2126"/><path d="M236.1,618.56c-.81,0-1.49-.15-2.02-.45-.54-.3-.92-.72-1.15-1.26-.23-.54-.29-1.18-.17-1.9.03-.19.08-.43.14-.71s.12-.51.17-.7c.19-.74.49-1.37.89-1.91.4-.54.91-.96,1.54-1.26s1.36-.45,2.22-.45,1.48.15,2.02.45.93.72,1.16,1.26.29,1.18.18,1.91c-.04.19-.09.43-.14.7-.05.28-.11.51-.16.71-.19.72-.48,1.36-.87,1.9-.39.54-.9.96-1.52,1.26-.62.3-1.38.45-2.26.45ZM236.26,616.98c.58,0,1.06-.18,1.46-.54s.69-.88.87-1.58c.04-.16.09-.37.14-.62.05-.26.1-.46.13-.62.12-.69.07-1.22-.14-1.58s-.61-.54-1.18-.54-1.05.18-1.46.54c-.4.36-.69.88-.86,1.58-.04.16-.09.37-.15.62s-.1.46-.12.62c-.12.69-.07,1.22.13,1.58.21.36.6.54,1.18.54Z" fill="#1c2126"/><path d="M242.96,618.4c-.12,0-.21-.04-.26-.11s-.08-.17-.06-.27l1.33-6.24h-1.3c-.11,0-.19-.04-.25-.11-.06-.07-.08-.17-.06-.29l.19-.91c.02-.11.08-.2.17-.27.09-.07.19-.11.31-.11h1.29l.13-.65c.15-.64.38-1.17.69-1.59.31-.42.7-.74,1.18-.95.48-.21,1.04-.32,1.68-.32h1.28c.12,0,.2.04.26.11.05.07.07.16.05.27l-.19.91c-.02.12-.08.21-.17.29s-.19.11-.3.11h-.96c-.43,0-.76.11-.99.32-.23.21-.39.52-.46.93l-.13.58h1.98c.12,0,.2.04.26.11.05.07.07.16.05.27l-.19.91c-.02.12-.07.21-.16.29-.08.08-.19.11-.3.11h-1.98l-1.34,6.24c-.02.11-.08.2-.16.27-.09.07-.18.11-.29.11h-1.29Z" fill="#1c2126"/><path d="M252.11,618.4c-.73,0-1.29-.11-1.7-.34-.4-.22-.67-.56-.78-1-.12-.44-.11-.99.03-1.66l.79-3.63h-1.26c-.11,0-.19-.04-.25-.11-.06-.07-.08-.17-.06-.29l.19-.91c.02-.11.08-.2.17-.27.09-.07.2-.11.31-.11h1.25l.58-2.65c.02-.11.07-.2.16-.27.08-.07.18-.11.29-.11h1.3c.12,0,.21.04.26.11.06.08.08.17.06.27l-.58,2.65h2c.11,0,.19.04.25.11s.08.16.06.27l-.19.91c-.02.12-.08.21-.17.29-.09.08-.19.11-.3.11h-2l-.74,3.47c-.06.29-.1.54-.1.74,0,.21.05.37.17.48s.33.17.62.17h1.15c.12,0,.2.04.26.11.05.08.07.17.05.27l-.21.99c-.02.11-.08.2-.16.27-.09.07-.19.11-.3.11h-1.14Z" fill="#1c2126"/><path d="M257.27,618.4c-.15,0-.26-.04-.32-.11-.06-.07-.1-.17-.11-.29l-.72-7.49c-.01-.12.02-.22.1-.3s.18-.13.32-.13h1.12c.13,0,.22.03.28.09.06.06.09.13.1.22l.46,5.3,2.75-5.25c.04-.08.11-.15.19-.23.09-.08.2-.12.34-.12h.83c.15,0,.25.04.3.12.05.08.09.16.1.23l.58,5.25,2.69-5.3c.03-.06.09-.13.16-.2.07-.07.18-.11.3-.11h1.3c.15,0,.24.05.26.14s.01.2-.04.32l-3.86,7.46c-.06.12-.14.21-.23.29s-.21.11-.36.11h-1.06c-.15,0-.26-.04-.33-.11s-.12-.17-.14-.29l-.66-5.05-2.72,5.05c-.06.12-.14.21-.24.29s-.22.11-.37.11h-1.04Z" fill="#1c2126"/><path d="M271.09,618.56c-.55,0-1.02-.09-1.41-.28-.38-.19-.69-.45-.9-.79-.22-.34-.36-.74-.42-1.21-.06-.46-.05-.97.03-1.53.04-.19.08-.37.11-.52.03-.15.07-.33.11-.52.14-.53.32-1.03.55-1.49.23-.46.51-.86.85-1.21.34-.35.73-.62,1.18-.81.45-.19.97-.29,1.56-.29.66,0,1.17.11,1.51.31.35.21.62.46.81.76l.11-.53c.02-.11.08-.2.16-.27s.18-.11.29-.11h1.26c.11,0,.19.04.26.11.06.07.09.16.06.27l-1.62,7.55c-.02.11-.08.2-.16.27-.09.07-.18.11-.29.11h-1.26c-.12,0-.21-.04-.26-.11s-.08-.17-.06-.27l.13-.59c-.32.33-.67.6-1.06.81-.38.21-.9.32-1.55.32ZM271.81,616.85c.45,0,.83-.1,1.15-.3s.58-.46.78-.78.34-.64.42-.97c.05-.19.1-.4.14-.62s.08-.42.11-.62c.06-.32.07-.63.02-.92s-.19-.54-.41-.73c-.22-.19-.55-.29-.98-.29s-.77.1-1.06.3-.54.46-.73.78-.35.67-.46,1.06c-.04.16-.08.32-.11.48s-.06.32-.08.48c-.05.38-.07.74-.04,1.06.03.32.14.58.34.78s.5.3.92.3Z" fill="#1c2126"/><path d="M278.05,618.4c-.11,0-.19-.04-.25-.11-.06-.07-.08-.17-.06-.27l1.6-7.54c.02-.12.08-.21.17-.29.09-.07.19-.11.3-.11h1.29c.11,0,.19.04.25.11s.08.17.06.29l-.14.66c.26-.34.58-.6.98-.78s.88-.27,1.44-.27h.78c.12,0,.2.04.26.11.05.07.07.16.05.27l-.24,1.15c-.02.11-.08.2-.17.27-.09.07-.19.11-.29.11h-1.25c-.51,0-.94.14-1.29.43-.35.28-.57.68-.68,1.19l-.94,4.4c-.02.11-.07.2-.16.27s-.19.11-.3.11h-1.39Z" fill="#1c2126"/><path d="M288.05,618.56c-.78,0-1.43-.15-1.95-.46-.52-.31-.87-.76-1.07-1.35-.2-.59-.23-1.29-.09-2.13.02-.11.05-.24.08-.41.03-.17.06-.3.1-.39.21-.81.54-1.51.99-2.09.45-.58.99-1.03,1.64-1.34s1.36-.47,2.14-.47c.86,0,1.55.18,2.06.54s.84.85,1.01,1.49.16,1.37,0,2.2l-.08.34c-.02.11-.08.2-.17.27-.09.08-.19.11-.31.11h-5.31c-.01.06-.02.11-.03.13-.05.38-.05.72.02,1.03.06.31.21.57.42.76s.51.29.87.29c.3,0,.56-.04.79-.13.22-.09.41-.2.55-.31.14-.12.25-.21.33-.29.13-.13.22-.21.29-.23.06-.03.15-.04.27-.04h1.39c.1,0,.17.03.22.1.05.06.07.14.05.24-.05.17-.19.38-.4.62-.21.24-.5.48-.86.72-.36.24-.79.43-1.29.58s-1.04.23-1.64.23ZM287.36,613.53h3.54l.02-.05c.1-.42.1-.78.02-1.1s-.23-.56-.46-.74c-.22-.18-.52-.26-.9-.26s-.71.09-1.02.26c-.3.18-.56.42-.76.74-.2.31-.35.68-.43,1.1l-.02.05Z" fill="#1c2126"/><path d="M1113.68,618.56c-.89,0-1.63-.15-2.22-.44-.6-.29-1.05-.71-1.37-1.26-.32-.54-.49-1.18-.52-1.9-.01-.21-.02-.46-.02-.73s0-.51.02-.71c.03-.74.21-1.37.54-1.91.33-.54.79-.96,1.39-1.25.6-.29,1.32-.44,2.18-.44s1.56.15,2.16.44c.6.29,1.06.71,1.39,1.25s.52,1.18.56,1.91c0,.2.02.44.02.71s0,.52-.02.73c-.04.72-.22,1.36-.54,1.9-.32.54-.77.96-1.37,1.26-.6.29-1.33.44-2.21.44ZM1113.68,616.79c.52,0,.91-.16,1.18-.48s.41-.79.44-1.42c0-.16.02-.37.02-.64s0-.48-.02-.64c-.03-.62-.18-1.09-.44-1.42-.26-.33-.65-.49-1.18-.49s-.92.16-1.18.49c-.27.32-.42.8-.45,1.42-.01.16-.02.37-.02.64s0,.48.02.64c.03.63.18,1.1.45,1.42s.66.48,1.18.48Z" fill="#1c2126"/><path d="M1122.77,618.56c-.66,0-1.23-.08-1.7-.23s-.86-.34-1.15-.57c-.29-.22-.51-.45-.66-.68-.14-.23-.22-.42-.23-.58-.01-.12.03-.21.11-.29.09-.07.17-.11.26-.11h1.55s.08,0,.1.02c.03,0,.06.04.1.08.14.1.28.21.42.33.14.12.32.23.52.31.2.09.45.13.74.13.35,0,.65-.07.89-.22.24-.14.36-.35.36-.62,0-.19-.05-.35-.16-.48-.11-.13-.31-.24-.62-.35s-.77-.22-1.38-.35c-.58-.13-1.07-.3-1.47-.51-.41-.21-.71-.48-.91-.81-.2-.33-.3-.72-.3-1.18,0-.42.13-.82.39-1.2.26-.38.65-.7,1.16-.95s1.15-.38,1.92-.38c.59,0,1.1.07,1.54.22s.81.33,1.11.54.53.44.68.67c.15.23.24.43.25.6.01.12-.02.21-.1.29-.08.08-.16.11-.26.11h-1.42c-.05,0-.1-.01-.14-.03s-.08-.05-.11-.08c-.13-.07-.26-.17-.39-.29-.13-.12-.29-.22-.47-.3-.18-.08-.42-.13-.7-.13-.34,0-.61.08-.79.23-.19.16-.28.35-.28.58,0,.15.05.29.14.42.1.13.29.25.58.35.29.11.75.22,1.37.34.73.13,1.3.32,1.73.58s.73.55.91.89c.18.34.27.7.27,1.08,0,.5-.15.95-.44,1.34-.29.39-.73.69-1.3.91-.58.22-1.28.33-2.11.33Z" fill="#1c2126"/><path d="M1131.46,618.56c-.66,0-1.23-.08-1.7-.23s-.86-.34-1.15-.57c-.29-.22-.51-.45-.66-.68-.14-.23-.22-.42-.23-.58-.01-.12.03-.21.11-.29.09-.07.17-.11.26-.11h1.55s.08,0,.1.02c.03,0,.06.04.1.08.14.1.28.21.42.33.14.12.32.23.52.31.2.09.45.13.74.13.35,0,.65-.07.89-.22.24-.14.36-.35.36-.62,0-.19-.05-.35-.16-.48-.11-.13-.31-.24-.62-.35s-.77-.22-1.38-.35c-.58-.13-1.07-.3-1.47-.51-.41-.21-.71-.48-.91-.81-.2-.33-.3-.72-.3-1.18,0-.42.13-.82.39-1.2.26-.38.65-.7,1.16-.95s1.15-.38,1.92-.38c.59,0,1.1.07,1.54.22s.81.33,1.11.54.53.44.68.67c.15.23.24.43.25.6.01.12-.02.21-.1.29-.08.08-.16.11-.26.11h-1.42c-.05,0-.1-.01-.14-.03s-.08-.05-.11-.08c-.13-.07-.26-.17-.39-.29-.13-.12-.29-.22-.47-.3-.18-.08-.42-.13-.7-.13-.34,0-.61.08-.79.23-.19.16-.28.35-.28.58,0,.15.05.29.14.42.1.13.29.25.58.35.29.11.75.22,1.37.34.73.13,1.3.32,1.73.58s.73.55.91.89c.18.34.27.7.27,1.08,0,.5-.15.95-.44,1.34-.29.39-.73.69-1.3.91-.58.22-1.28.33-2.11.33Z" fill="#1c2126"/><path d="M1137.17,618.4c-.12,0-.21-.04-.29-.11-.07-.07-.11-.17-.11-.29v-1.81c0-.11.04-.2.11-.28.08-.08.17-.12.29-.12h1.81c.11,0,.2.04.28.12s.12.17.12.28v1.81c0,.12-.04.21-.12.29s-.17.11-.28.11h-1.81Z" fill="#1c2126"/><path d="M1144.9,618.56c-.79,0-1.48-.14-2.07-.43-.59-.29-1.06-.71-1.4-1.26-.34-.55-.53-1.21-.56-1.98-.01-.17-.02-.39-.02-.65s0-.48.02-.65c.03-.78.22-1.44.55-1.99.34-.55.8-.97,1.4-1.26.6-.29,1.29-.43,2.08-.43.7,0,1.31.1,1.81.3.5.2.91.45,1.23.75s.56.62.72.94.25.6.26.85c.01.12-.03.21-.11.29-.09.07-.18.11-.29.11h-1.71c-.12,0-.21-.03-.26-.08-.06-.05-.11-.14-.17-.26-.14-.37-.33-.64-.56-.8s-.53-.24-.88-.24c-.48,0-.86.15-1.13.46-.27.31-.42.79-.44,1.44-.02.42-.02.79,0,1.13.02.66.17,1.14.44,1.44.27.3.65.45,1.13.45.37,0,.67-.08.9-.24.22-.16.41-.43.54-.8.05-.12.11-.2.17-.26.06-.05.15-.08.26-.08h1.71c.11,0,.2.04.29.11.08.07.12.17.11.29-.01.18-.06.39-.16.64-.1.25-.24.5-.44.75s-.45.49-.76.71c-.31.22-.69.4-1.13.53-.44.13-.95.2-1.53.2Z" fill="#1c2126"/><path d="M1152.92,618.56c-.57,0-1.07-.11-1.52-.33s-.81-.51-1.07-.89c-.27-.38-.4-.79-.4-1.25,0-.76.31-1.36.92-1.79s1.42-.74,2.42-.9l2.1-.3v-.29c0-.42-.1-.74-.29-.96-.19-.22-.53-.34-1.01-.34-.35,0-.63.07-.84.21s-.37.32-.49.54c-.08.14-.21.21-.38.21h-1.52c-.12,0-.21-.03-.27-.1-.06-.07-.09-.15-.08-.25,0-.18.07-.39.21-.64.14-.24.35-.49.64-.73.29-.24.66-.44,1.11-.6s1-.24,1.64-.24,1.25.08,1.73.24c.48.16.87.38,1.16.67.29.29.51.62.64,1,.13.38.2.79.2,1.22v4.94c0,.12-.04.21-.11.29-.08.07-.17.11-.27.11h-1.58c-.11,0-.2-.04-.27-.11-.07-.07-.11-.17-.11-.29v-.59c-.14.2-.33.39-.56.57s-.51.32-.84.42c-.33.11-.71.16-1.14.16ZM1153.56,616.9c.35,0,.67-.07.94-.22.28-.15.5-.38.66-.69.16-.31.24-.7.24-1.17v-.27l-1.49.24c-.57.1-.98.24-1.25.43-.27.19-.4.43-.4.7,0,.2.06.38.18.52.12.14.28.26.48.34s.41.12.63.12Z" fill="#1c2126"/><path d="M1160.13,618.4c-.11,0-.2-.04-.28-.11-.08-.07-.12-.17-.12-.29v-7.52c0-.11.04-.2.12-.28.08-.08.17-.12.28-.12h1.57c.12,0,.21.04.29.12.07.08.11.17.11.28v.64c.27-.33.6-.59.99-.77s.84-.27,1.34-.27h.69c.12,0,.21.04.29.11.07.07.11.17.11.29v1.39c0,.11-.04.2-.11.27-.08.07-.17.11-.29.11h-1.39c-.48,0-.85.13-1.11.4-.26.27-.39.63-.39,1.11v4.24c0,.12-.04.21-.12.29s-.17.11-.28.11h-1.7Z" fill="#1c2126"/><path d="M1169.72,618.56c-.53,0-1.01-.09-1.42-.26s-.77-.43-1.06-.77c-.29-.34-.51-.74-.66-1.2-.15-.46-.24-.98-.27-1.54-.01-.2-.02-.39-.02-.55s0-.34.02-.54c.02-.55.11-1.06.26-1.52.15-.46.37-.86.66-1.19.28-.34.63-.6,1.06-.78.42-.19.9-.28,1.43-.28s1.03.09,1.42.28c.39.19.72.42.98.71v-3.47c0-.12.04-.21.11-.29.08-.07.17-.11.29-.11h1.65c.12,0,.21.04.29.11.07.08.11.17.11.29v10.56c0,.12-.04.21-.11.29-.08.07-.17.11-.29.11h-1.54c-.11,0-.2-.04-.27-.11-.07-.07-.11-.17-.11-.29v-.54c-.27.32-.6.58-1.01.79-.41.21-.91.31-1.52.31ZM1170.45,616.64c.39,0,.71-.09.95-.27.24-.18.42-.41.53-.69.11-.28.17-.58.18-.9.02-.2.03-.41.03-.61s-.01-.4-.03-.59c-.01-.3-.08-.58-.2-.84-.12-.26-.3-.48-.54-.65-.23-.17-.54-.26-.93-.26-.41,0-.73.09-.96.26-.24.18-.4.41-.5.7-.1.29-.16.6-.18.94-.02.33-.02.66,0,.99.02.34.08.66.18.95.1.29.27.52.5.7.23.18.55.26.96.26Z" fill="#1c2126"/><path d="M1179.86,618.56c-.66,0-1.23-.08-1.7-.23s-.86-.34-1.15-.57c-.29-.22-.51-.45-.66-.68-.14-.23-.22-.42-.23-.58-.01-.12.03-.21.11-.29.08-.07.17-.11.26-.11h1.55s.08,0,.1.02c.03,0,.06.04.1.08.14.1.28.21.42.33.14.12.32.23.52.31.2.09.45.13.74.13.35,0,.65-.07.89-.22.24-.14.36-.35.36-.62,0-.19-.05-.35-.16-.48-.11-.13-.31-.24-.62-.35s-.77-.22-1.38-.35c-.58-.13-1.07-.3-1.47-.51-.41-.21-.71-.48-.91-.81-.2-.33-.3-.72-.3-1.18,0-.42.13-.82.39-1.2.26-.38.65-.7,1.16-.95.51-.25,1.15-.38,1.92-.38.59,0,1.1.07,1.54.22.44.14.81.33,1.11.54s.53.44.68.67c.15.23.24.43.25.6,0,.12-.02.21-.1.29-.07.08-.16.11-.26.11h-1.42c-.05,0-.1-.01-.14-.03-.04-.02-.08-.05-.11-.08-.13-.07-.26-.17-.39-.29-.13-.12-.29-.22-.47-.3-.18-.08-.42-.13-.7-.13-.34,0-.61.08-.79.23-.19.16-.28.35-.28.58,0,.15.05.29.14.42.1.13.29.25.58.35.29.11.75.22,1.37.34.72.13,1.3.32,1.73.58s.73.55.91.89.27.7.27,1.08c0,.5-.15.95-.44,1.34-.29.39-.73.69-1.3.91s-1.28.33-2.11.33Z" fill="#1c2126"/><polygon points="1093.31 614.96 1087.74 611.74 1082.16 614.96 1093.31 621.39 1104.46 614.96 1098.89 611.74 1093.31 614.96" fill="#b7303d" stroke="#1c2126" stroke-linejoin="round" stroke-width=".33"/><polygon points="1087.74 605.3 1087.74 611.74 1082.16 614.96 1082.16 608.52 1087.74 605.3" fill="#ea4f4b" stroke="#1c2126" stroke-linejoin="round" stroke-width=".33"/><polygon points="1087.74 605.3 1087.74 611.74 1093.31 614.96 1093.31 608.52 1087.74 605.3" fill="#ff6b60" stroke="#1c2126" stroke-linejoin="round" stroke-width=".33"/><polygon points="1098.89 605.3 1098.89 611.74 1093.31 614.96 1093.31 608.52 1098.89 605.3" fill="#ea4f4b" stroke="#1c2126" stroke-linejoin="round" stroke-width=".33"/><polygon points="1098.89 605.3 1098.89 611.74 1104.46 614.96 1104.46 608.52 1098.89 605.3" fill="#ff6b60" stroke="#1c2126" stroke-linejoin="round" stroke-width=".33"/></g></svg>