<svg xmlns="http://www.w3.org/2000/svg" width="1200" height="630" viewBox="0 0 1200 630"><rect width="1200" height="498.72" fill="#ff6b60"/><g opacity="0.1"><polygon points="716.36 302.57 716.36 237.6 729.7 224.26 863.4 237.6 863.4 302.57 822.37 302.57 822.37 395.79 863.4 395.79 876.74 447.42 863.4 460.76 822.37 460.76 757.39 460.76 716.36 460.76 716.36 395.79 729.7 382.45 757.39 395.79 757.39 302.57 716.36 302.57" fill="#1c2126" stroke="#1c2126" stroke-linejoin="round" stroke-width="2"/></g><polygon points="729.7 289.23 729.7 224.26 743.04 210.92 876.74 224.26 876.74 289.23 835.71 289.23 835.71 382.45 876.74 382.45 890.08 434.08 876.74 447.42 835.71 447.42 770.73 447.42 729.7 447.42 729.7 382.45 743.04 369.11 770.73 382.45 770.73 289.23 729.7 289.23" fill="#0f6a80" stroke="#1c2126" stroke-linejoin="round" stroke-width="2"/><polygon points="743.04 275.89 743.04 210.92 756.38 197.58 890.08 210.92 903.42 262.55 890.08 275.89 849.04 275.89 849.04 369.11 890.08 369.11 903.42 420.74 890.08 434.08 849.04 434.08 784.07 434.08 743.04 434.08 743.04 369.11 756.38 355.77 784.07 369.11 784.07 275.89 743.04 275.89" fill="#30c8c9" stroke="#1c2126" stroke-linejoin="round" stroke-width="2"/><polygon points="756.38 262.55 756.38 197.58 769.72 184.24 903.42 197.58 916.76 249.21 903.42 262.55 862.38 262.55 862.38 355.77 903.42 355.77 916.76 407.4 903.42 420.74 862.38 420.74 797.41 420.74 756.38 420.74 756.38 355.77 769.72 342.43 797.41 355.77 797.41 262.55 756.38 262.55" fill="#5cebdf" stroke="#1c2126" stroke-linejoin="round" stroke-width="2"/><polygon points="769.72 249.21 769.72 184.24 783.06 170.9 916.76 184.24 930.1 235.87 916.76 249.21 875.73 249.21 875.73 342.43 916.76 342.43 930.1 394.06 916.76 407.4 875.73 407.4 810.75 407.4 769.72 407.4 769.72 342.43 783.06 329.09 810.75 342.43 810.75 249.21 769.72 249.21" fill="#bffde7" stroke="#1c2126" stroke-linejoin="round" stroke-width="2"/><polygon points="783.06 235.87 783.06 170.9 930.1 170.9 930.1 235.87 889.07 235.87 889.07 329.09 930.1 329.09 930.1 394.06 889.07 394.06 824.09 394.06 783.06 394.06 783.06 329.09 824.09 329.09 824.09 235.87 783.06 235.87" fill="#fff" stroke="#1c2126" stroke-linejoin="round" stroke-width="2"/><g opacity="0.1"><path d="M402.82,237.6V366.69c0,20.34,9.88,29.38,24,29.38s24-9,24-29.38V237.6l51.63-13.34,13.34,13.34V372.34c0,58.76-31.92,88.42-90.4,88.42S335,431.1,335,372.34V237.6h67.8Z" fill="#1c2126" stroke="#1c2126" stroke-linejoin="round" stroke-width="2"/></g><path d="M389.48,224.26V353.35c0,20.34,9.88,29.38,24,29.38s24-9,24-29.38V224.26l51.63-13.34,13.34,13.34V359c0,58.76-31.92,88.42-90.39,88.42s-90.4-29.66-90.4-88.42V224.26l54.46-13.34Z" fill="#0f6a80" stroke="#1c2126" stroke-linejoin="round" stroke-width="2"/><path d="M376.14,210.92V340c0,20.34,9.88,29.38,24,29.38s24-9,24-29.38V210.92l51.63-13.34,13.34,13.34V345.66c0,58.76-31.92,88.42-90.39,88.42s-90.4-29.66-90.4-88.42V210.92l54.46-13.34Z" fill="#30c8c9" stroke="#1c2126" stroke-linejoin="round" stroke-width="2"/><path d="M362.8,197.58V326.67c0,20.34,9.88,29.38,24,29.38s24-9,24-29.38V197.58l51.63-13.34,13.34,13.34V332.32c0,58.76-31.92,88.42-90.39,88.42S295,391.08,295,332.32V197.58l54.46-13.34Z" fill="#5cebdf" stroke="#1c2126" stroke-linejoin="round" stroke-width="2"/><path d="M349.46,184.24V313.33c0,20.34,9.88,29.38,24,29.38s24-9,24-29.38V184.24l51.63-13.34,13.34,13.34V319c0,58.76-31.92,88.42-90.39,88.42s-90.4-29.66-90.4-88.42V184.24l54.46-13.34Z" fill="#bffde7" stroke="#1c2126" stroke-linejoin="round" stroke-width="2"/><path d="M336.12,170.9V300c0,20.34,9.88,29.38,24,29.38s24-9,24-29.38V170.9h65V305.64c0,58.76-31.92,88.42-90.39,88.42s-90.4-29.66-90.4-88.42V170.9Z" fill="#fff" stroke="#1c2126" stroke-linejoin="round" stroke-width="2"/><line x1="289.34" y1="369.6" x2="346.97" y2="427.11" fill="#fff5eb" stroke="#1c2126" stroke-linejoin="round" stroke-width="2"/><path d="M149.7,98.11v18H138.15V98.25L119.79,63.94h12.52L144.13,85.8l11.76-21.86h12.17Z" fill="#fff"/><path d="M201.89,96.94c0,11.48-7.36,20.14-20.22,20.14s-20.28-8.66-20.28-20.14,7.36-20.15,20.28-20.15S201.89,85.46,201.89,96.94Zm-29.29,0c0,6.32,3.5,10.38,9.07,10.38s9-4.06,9-10.38-3.44-10.38-9-10.38S172.6,90.61,172.6,96.94Z" fill="#fff"/><path d="M242.11,77.69v38.43H231.38V112a12.56,12.56,0,0,1-10.52,5.08c-8.45,0-14-6.32-14-17.67V77.69h10.72V97.42c0,5.84,2.68,9.15,6.81,9.15s6.94-3.51,6.94-9.08V77.69Z" fill="#fff"/><path d="M311.48,92.88H300.21a7.4,7.4,0,0,0-7.71-6.8c-5.08,0-8.59,3.92-8.59,10.86s3.51,10.79,8.59,10.79a7.4,7.4,0,0,0,7.71-6.73h11.27c-.27,8.93-7.91,16.08-19,16.08-12.37,0-19.8-8-19.8-20.14s7.43-20.15,19.8-20.15C303.57,76.79,311.21,83.88,311.48,92.88Z" fill="#fff"/><path d="M352.39,94.19v21.93H341.66v-4.19c-2.68,3.09-6.87,4.88-12.51,4.88-8,0-13.06-4.06-13.06-10.73,0-6,4-10.65,14-12.37l11.55-1.93c0-3.71-2.33-5.84-6.67-5.84s-6.18,1.79-6.46,4.74H317.67c.2-7.08,6-13.68,17.32-13.68C346.06,77,352.39,83.19,352.39,94.19ZM341.66,100v-.55l-8.8,1.45c-4.6.75-5.77,2.34-5.77,4.33,0,1.72,1.65,3,4.74,3C337.74,108.15,341.66,104.85,341.66,100Z" fill="#fff"/><path d="M395.7,94.4v21.72H385V96.46c0-5.92-2.82-9.22-7.15-9.22s-7.43,3.58-7.43,9.15v19.73H359.68V77.69H370.4V82c2.13-3.1,6.05-5.23,10.93-5.23C390.07,76.79,395.7,83.05,395.7,94.4Z" fill="#fff"/><path d="M409.93,69.3c0,5.57-2.82,9.69-9.28,11.76l-1.44.48-1.65-5.09L399,76c3-.9,4.61-2.2,5.23-4.2a7.62,7.62,0,0,1-1.31.14,5.51,5.51,0,0,1-5.84-5.5c0-3.3,2.4-5.71,6.05-5.71C407.39,60.77,409.93,64.14,409.93,69.3Z" fill="#fff"/><path d="M440.25,86.76h-8.32v29.36H421.21V86.76H414V77.69h7.22V65.59h10.72v12.1h8.32Z" fill="#fff"/><path d="M502.13,89.79H491.41c-.07-2.48-2.27-4.4-5.92-4.4s-5.36,1.3-5.36,3.09.82,2.68,5.16,3.44l5.15.83c9.9,1.65,12.52,6.11,12.52,12,0,7.49-6,12.24-16.85,12.24-11.69,0-17.53-5.57-17.53-13.27h10.66c.06,2.82,2.26,4.74,7.28,4.74,3.79,0,5.71-1.3,5.71-3.23s-1.1-3.09-5.57-3.85l-5.36-.89c-9.08-1.45-11.9-6-11.9-11.49,0-6.8,5.57-12,16.23-12S502.13,82.5,502.13,89.79Z" fill="#fff"/><path d="M548.13,96.94c0,13-7,20.14-17,20.14-5.36,0-9.35-2.06-11.89-5.5v17.61H508.52V77.69h10.73v4.54c2.54-3.37,6.53-5.44,11.89-5.44C541.11,76.79,548.13,83.88,548.13,96.94Zm-11.21.21c0-6.67-3.71-10.66-8.87-10.66s-8.8,3.92-8.8,10.66,3.57,10.72,8.8,10.72S536.92,103.88,536.92,97.15Z" fill="#fff"/><path d="M591.79,100.1h-28.4c.55,4.61,3.64,7.77,8.73,7.77,3.78,0,6.33-1.24,7.5-3.44H591c-2.2,7.22-9.21,12.38-19,12.38-12,0-19.94-7.91-19.94-19.87S559.81,77,571.92,77s19.87,7.84,19.87,19.8Zm-28.26-7.35h16.91c-.75-4.34-4.12-6.81-8.52-6.81A8.42,8.42,0,0,0,563.53,92.75Z" fill="#fff"/><path d="M608.56,61.46v54.66H597.83V61.46Z" fill="#fff"/><path d="M628,61.46v54.66H617.22V61.46Z" fill="#fff"/><path d="M709.42,87.11v5c0,15.12-10,24.68-24.68,24.68s-25-10.38-25-26.75,10.25-26.81,25-26.81c13.41,0,21.59,7.56,24,17.6H696c-1.65-4-5.57-6.88-11-6.88-7.84,0-13.21,5.71-13.21,16.09s5.51,16.09,13.48,16.09a12.47,12.47,0,0,0,12.31-9.76h-13V87.11Z" fill="#fff"/><path d="M729.29,63.94v30.8c0,7.63,3.85,11.07,9,11.07s9-3.44,9-11.07V63.94h11.21V95.29c0,13.89-7.08,21.52-20.42,21.52s-20.42-7.63-20.42-21.52V63.94Z" fill="#fff"/><path d="M781.34,63.94v52.18H769.72V63.94Z" fill="#fff"/><path d="M870.3,77.69,859,116.12h-10.8l-7.77-24.41-7.84,24.41H822.11L810.83,77.69h10.45l7.22,24.48,7.56-24.48h9.22L852.77,102,860,77.69Z" fill="#fff"/><path d="M885.15,66.82a6.43,6.43,0,1,1-12.85,0,6.43,6.43,0,1,1,12.85,0Zm-1,10v39.33H873.4V76.79a8.66,8.66,0,0,0,5.36,1.59A8.51,8.51,0,0,0,884.12,76.79Z" fill="#fff"/><path d="M916.92,86.76H908.6v29.36H897.87V86.76h-7.22V77.69h7.22V65.59H908.6v12.1h8.32Z" fill="#fff"/><path d="M959.82,94.4v21.72H949.09V96.46c0-5.92-2.81-9.22-7.15-9.22s-7.35,3.58-7.35,9.15l-.07-.48v20.21H923.79V61.46h10.73V82c2.13-3.1,6-5.23,10.93-5.23C954.18,76.79,959.82,83.05,959.82,94.4Z" fill="#fff"/><path d="M1005.68,96.94c0,11.48-7.36,20.14-20.22,20.14s-20.28-8.66-20.28-20.14,7.36-20.15,20.28-20.15S1005.68,85.46,1005.68,96.94Zm-29.29,0c0,6.32,3.5,10.38,9.07,10.38s9-4.06,9-10.38-3.44-10.38-9-10.38S976.39,90.61,976.39,96.94Z" fill="#fff"/><path d="M1045.9,77.69v38.43h-10.73V112a12.56,12.56,0,0,1-10.52,5.08c-8.45,0-14-6.32-14-17.67V77.69h10.72V97.42c0,5.84,2.68,9.15,6.81,9.15s6.94-3.51,6.94-9.08V77.69Z" fill="#fff"/><path d="M1078.08,86.76h-8.32v29.36H1059V86.76h-7.22V77.69H1059V65.59h10.73v12.1h8.32Z" fill="#fff"/><path d="M577.66,325.21c-.44,1.28.14,4.41-1.2,6,1.07.46.7,2.31-.13,3.28.55,1,.93,1.78-.35,4,0,.3.64-.14.77-.3a24.38,24.38,0,0,1-.69,6.68c-2.22.26-4.48-1.66-5.57-1.1-.09-1.44-.38-2-1.38-1.87l0-1a.72.72,0,0,0,.63-.8c-.36.05-.67-.14-.73-.64,0-1.66.58-3.84.76-6,.51-.06.61.87.66,2,.51-.06,1-3.09.91-4.76l-.9-.26c.06,1.16.24,2.74-.66,2.48.1-1,0-3.57.14-4.45l1.4,1.37c-.17-.86.16-1.11-.11-2.17-4.1.32-14.26,7.37-17.23,10l-.25,1,.38.82c-.93,2.65-1.67,5.72-2.64,7.35l-4.74-1.41c-.47-2.2-3.66-2.78-3.08-4.74l-1.15.14c.33-11,11-24,16.68-33.8a53.35,53.35,0,0,1,8.42-10.77c.46-.49,2.54,0,2.53-1.38a15.31,15.31,0,0,1,4.25,1.54l-1.25.58c.07,1.23,1.71-.34,2.1-.09,2.92,2,1.85,6,3.45,7.95.12.35.68,6.53-.32,7.3a2.17,2.17,0,0,0,.46.24,30.32,30.32,0,0,0-.49,5.8c0,.86,3,3,3.17,6.17C580.19,324.48,578.86,324.92,577.66,325.21Zm-22.07,8.34a12.16,12.16,0,0,0-.64,1.38l5.12-3.49C559.05,330.83,556.87,332.67,555.59,333.55Zm2.74-3.37c-.55.28-1,.41-1.45.68l-.72,1.32C556.43,332,558,331.24,558.33,330.18ZM573,303.66c-1.36.23-4.19,4.62-6.81,9.06l-.4-.32c.15-.59.32-1,0-1.3-1,1.42-1.43,2.12-.63,3.41q-1.36,2.34-2.56,4.21c-1.11,1.8-2.69,5.11-4.07,7.66,1.34-1,2.24-2.65,5-4.2a44.38,44.38,0,0,1,6.36-2.83,20.8,20.8,0,0,1,.73-4.37l1.34.93c.61-2.32.95-8.24,1.37-11.56Zm-9.77,25.67v-.07c-1.57.25-2.19.47-2.35,1.65C561.48,330.47,562.51,329.92,563.24,329.33Zm7.14,6.52-.18,1,.43-.05.16-1.18Zm.24-17.54c-.19.9.31.84.81.71l0-.8Zm.52-1.22-.3,0-.2.83.65-.08Zm1.06-9-.64.07.35-2,.61-.36Z" fill="#fff"/><path d="M629.92,292a8.39,8.39,0,0,1,3.62-1.35c2.58-.37,4.62-.24,5.94.48l-1.32,1.17.18.27a6.65,6.65,0,0,0,2.21-1l2.25,1.93a43.44,43.44,0,0,0-12.71,13.29c-.36.62-.75-.2-1.14.13.15,2.6-1.2,4.14-2.61,7.06-.28.68,0,1.6-.35,2.65,0,.43-1,1-1.12,1.66-1.16,5.72-2.93,11.74-4.55,17.88l-3.4-1.14-.32,1.06c-4.72-.7-5.36-2.44-6.56-7.17-.43-1.84-.22-5.13-.91-6.65-2.29-4.82-.89-7.16-1.74-10.77l-.68-2.75c-2.14,1-4.4,3.41-5.88,7l.35,1.12c-2.81,7.15-5,16.84-7.7,21.51l-2,.23c-2.08.24-3.78-4.43-4.69-4.76l-.79-3.11c-.61-2.18-.06-3,.29-4.46,3.67-12.91,11-21.31,16-27.76,2.24.54,8.54,3.52,9.85,6.06,1.1,2.05,2.48,6.47,3.53,9.33,3.91-9,9.87-20.38,11.38-21.14l1.48-.39c-3.94,4.89-6.5,10.41-7.94,13.12-.52,1.15-.76,1.61-.6,1.66l.46.24C622.14,303.91,626.16,296.55,629.92,292Zm-27.81,8.28-1.39,1.83c.94.62,1.57-.91,2-1.47Zm24,20.35-.7-.36c0-1-.13-2.38.78-2.12Zm2.52-24.84,1-1.72-.61-.22a6,6,0,0,0-1,1.64C628.08,295.6,628.33,295.86,628.61,295.76Zm1.23,7.55c-.47.93-1.45,2.57-.69,2.84l1.24-2.46C630.51,303.46,630,303.08,629.84,303.31Zm1.58-2.72-1.22,2c.42-.12.58,0,.68.29l1.08-2C632.09,300.73,631.73,300.12,631.42,300.59Zm4.76-6.57.22.63c.66-.59,1.3-.73,1-1.79Z" fill="#fff"/><path d="M681.11,305.72a2.77,2.77,0,0,1-1.85,1l1-1.27a1.66,1.66,0,0,0-1.54.54c-.38.47-1.42,1.54-2.72,2.85l1.32.14a109.41,109.41,0,0,1-23.86,19.3l-.19,4c-1.45-.56-2.44.28-4,.45-4.37.51-6.35-4.13-8.17-6a9.85,9.85,0,0,0,.26-2.79l1.7-1a3.82,3.82,0,0,0,2-2.4,57.7,57.7,0,0,0,1.58-8.39l-.41-1c.63-3.34,2.58-6,2.4-8.85-.16-2-3-3-3.09-4.8s3.26-3.21,5-4.42l.77.42c3-4.05,2.32-11.46,6.12-11.89.65-.08,3.71,3.86,4.18,4.75.42,1.11-.07,2.55-.19,4.09,2.44-.28,5-1.3,8.72-1.22-.56,1.44,1.55.84,1.87-.21.78.49,2.76,0,4.4.36,6.82,1.25,7.81,6.73,8.53,9.77A39.21,39.21,0,0,1,681.11,305.72Zm-27.63,20.67-.06.73,1.89-1.3.26-.91Zm3.72-24,.18,2.23c-.24.39-.79.67-1.17,1.22V306c1-1.07,1.27,2.17.63,2.25a2.2,2.2,0,0,1-1-.33V308a3.38,3.38,0,0,1,.68,1.44c.11,1.66-1.09,3.83-1.14,6.6,2.4-1.88,8-4.83,11.18-8.33.32.26.61.22,1.12.31l-.54-1,.59-.5c.35.47.64.51.79.49.71-.08,2-1.39,4.12-4.61,1.93.43,5.11-4.8,4.38-7.4C664.93,296.39,660.93,300.77,657.2,302.43Zm-.73,22.74,3.45-2.21a.88.88,0,0,1-.29-1.2v-.07a16.27,16.27,0,0,0-3.17,3.41Zm16.13-12.59c-1.29.14-2.36,1-3.68,2.09s-3.81,2.9-5.94,4.6a1.69,1.69,0,0,1-.65,1.31c-.56-.44-1.32-.14-2,.67a4,4,0,0,1,1.71.31c3.8-3,7.54-6.46,10.6-8.91Zm1.76-2.39-2.22,1.56a1.19,1.19,0,0,0,1.51-.17l1.38-1.25Zm5.95-6.34-.5.71,1,.11.5-.72Z" fill="#fff"/><path d="M1017.39,299.2v83.31l17.36-16.36,12.34,24.41,13.59-6.54L1049,361.62h25.74l-57.38-62.42Z" fill="#1c2126" stroke="#1c2126" stroke-linejoin="round" stroke-width="2" opacity="0.1"/><path d="M1006.64,294.46v83.31L1024,361.41l12.33,24.41,13.6-6.54-11.65-22.4H1064l-57.39-62.42Z" fill="#fff" stroke="#1c2126" stroke-linejoin="round"/><polygon points="1031.56 352.8 1038.29 352.8 1054.73 352.8 1010.73 304.93 1010.73 368.31 1021.21 358.44 1025.19 354.69 1027.65 359.57 1038.18 380.41 1044.37 377.43 1034.66 358.76 1031.56 352.8" fill="#1c2126"/><path d="M238.23,260.64a8.61,8.61,0,0,0-3.56-1.45c-2.21-.49-4.65-.69-6.64.41s-3.21,3.49-3.79,5.79a19.28,19.28,0,0,0-.49,6.33,15.75,15.75,0,0,0-8.23-3.09,9.83,9.83,0,0,0-8,3.34,7.2,7.2,0,0,0-.53,8.4c1.67,2.36,4.7,3.23,7.51,3.92q10.5,2.59,21.07,4.86,2.11-8.88,4.24-17.75C240.66,267.66,241.25,263,238.23,260.64Z" fill="#b7303d" stroke="#1c2126" stroke-linejoin="round" stroke-width="2"/><path d="M1001.45,190.45a8.7,8.7,0,0,0-.73-3.78c-.81-2.12-2-4.27-4-5.33s-4.69-.77-6.93,0a19.12,19.12,0,0,0-5.56,3.06,15.76,15.76,0,0,0-1.93-8.59,9.86,9.86,0,0,0-7.2-4.89,7.21,7.21,0,0,0-7.32,4.17c-1,2.68-.12,5.7.84,8.42q3.58,10.2,7.49,20.29l17.17-6.19C996.91,196.32,1001.13,194.27,1001.45,190.45Z" fill="#b7303d" stroke="#1c2126" stroke-linejoin="round" stroke-width="2"/><rect y="595" width="1200" height="35" fill="#fff"/><rect y="499.19" width="1200" height="95.81" fill="#fff"/><line y1="499.19" x2="1200" y2="499.19" fill="none" stroke="#1c2126" stroke-miterlimit="10"/><line y1="595" x2="1200" y2="595" fill="none" stroke="#1c2126" stroke-miterlimit="10"/><path d="M24.24,559.45V540.69H17.85v-2.37H33.21v2.37H26.82v18.76Z" fill="#1c2126"/><path d="M44.08,559.89c-4.81,0-7.75-3.45-7.75-9.3v-3.41c0-5.85,2.94-9.3,7.75-9.3s7.74,3.45,7.74,9.3v3.41C51.82,556.44,48.88,559.89,44.08,559.89Zm5.14-9.31v-3.39c0-4.41-1.94-6.87-5.14-6.87s-5.15,2.46-5.15,6.87v3.39c0,4.41,1.94,6.87,5.15,6.87S49.22,555,49.22,550.58Z" fill="#1c2126"/><path d="M60,545.58a2.65,2.65,0,1,1,2.65,2.71A2.7,2.7,0,0,1,60,545.58Zm0,11.25a2.65,2.65,0,1,1,2.65,2.71A2.68,2.68,0,0,1,60,556.83Z" fill="#1c2126"/><line x1="582.03" y1="498.72" x2="582.03" y2="595" fill="none" stroke="#1c2126" stroke-miterlimit="10"/><path d="M1129.73,614.6a4.72,4.72,0,1,1-4.71-4.69A4.43,4.43,0,0,1,1129.73,614.6Zm-6.82,0A2.12,2.12,0,0,0,1125,617c1.3,0,2.1-.94,2.1-2.41s-.8-2.42-2.1-2.42S1122.91,613.12,1122.91,614.6Z" fill="#1c2126"/><path d="M1138.54,612.93H1136c0-.57-.52-1-1.37-1s-1.25.3-1.25.72.19.62,1.2.8l1.2.19c2.3.39,2.91,1.43,2.91,2.79,0,1.74-1.39,2.85-3.92,2.85-2.72,0-4.08-1.3-4.08-3.09h2.48c0,.65.53,1.1,1.7,1.1.88,0,1.33-.3,1.33-.75s-.26-.72-1.3-.9l-1.25-.21c-2.11-.33-2.77-1.39-2.77-2.67,0-1.58,1.3-2.8,3.78-2.8S1138.54,611.24,1138.54,612.93Z" fill="#1c2126"/><path d="M1147.49,612.93H1145c0-.57-.53-1-1.38-1s-1.25.3-1.25.72.2.62,1.2.8l1.21.19c2.3.39,2.91,1.43,2.91,2.79,0,1.74-1.39,2.85-3.92,2.85-2.72,0-4.09-1.3-4.09-3.09h2.49c0,.65.52,1.1,1.69,1.1.88,0,1.33-.3,1.33-.75s-.25-.72-1.3-.9l-1.24-.21c-2.12-.33-2.77-1.39-2.77-2.67,0-1.58,1.29-2.8,3.77-2.8S1147.49,611.24,1147.49,612.93Z" fill="#1c2126"/><path d="M1152,617.64a1.6,1.6,0,1,1-1.6-1.62A1.55,1.55,0,0,1,1152,617.64Z" fill="#1c2126"/><path d="M1156.27,606.34v12.72h-2.5V606.34Z" fill="#1c2126"/><path d="M1167,614.6a4.71,4.71,0,1,1-4.7-4.69A4.42,4.42,0,0,1,1167,614.6Zm-6.81,0a2.12,2.12,0,0,0,2.11,2.41c1.29,0,2.1-.94,2.1-2.41s-.81-2.42-2.1-2.42S1160.16,613.12,1160.16,614.6Z" fill="#1c2126"/><path d="M1176.59,610.12l-3.26,8.94h-3l-3.28-8.94h2.64l2.16,6.32,2.16-6.32Z" fill="#1c2126"/><path d="M1186.06,615.33h-6.61a1.92,1.92,0,0,0,2,1.81,1.82,1.82,0,0,0,1.75-.8h2.66a5,5,0,1,1,.17-1.77Zm-6.58-1.71h3.94a1.87,1.87,0,0,0-2-1.58A2,2,0,0,0,1179.48,613.62Z" fill="#1c2126"/><path d="M605.51,559.45V538.32H618v2.37H608.1v7.25h9v2.3h-9v9.21Z" fill="#1c2126"/><path d="M625.54,551v8.42H623V538.32h7.09c4.19,0,6.81,2.43,6.81,6.35A5.91,5.91,0,0,1,633,550.5l4.3,9h-2.91L630.41,551Zm0-2.18h4.19c2.92,0,4.56-1.48,4.56-4.12s-1.61-4.11-4.44-4.11h-4.31Z" fill="#1c2126"/><path d="M648.15,559.89c-4.81,0-7.75-3.45-7.75-9.3v-3.41c0-5.85,2.94-9.3,7.75-9.3s7.75,3.45,7.75,9.3v3.41C655.9,556.44,653,559.89,648.15,559.89Zm5.14-9.31v-3.39c0-4.41-1.93-6.87-5.14-6.87s-5.14,2.46-5.14,6.87v3.39c0,4.41,1.93,6.87,5.14,6.87S653.29,555,653.29,550.58Z" fill="#1c2126"/><path d="M661.38,559.45h-2.3V538.32H662l4.64,13.12h.19l4.62-13.12h2.9v21.13H672v-8.11l.13-8.56H672l-4.25,11.71h-2l-4.25-11.71h-.19l.14,8.56Z" fill="#1c2126"/><path d="M682.59,545.58a2.65,2.65,0,1,1,2.65,2.71A2.7,2.7,0,0,1,682.59,545.58Zm0,11.25a2.65,2.65,0,1,1,2.65,2.71A2.68,2.68,0,0,1,682.59,556.83Z" fill="#1c2126"/><path d="M27.75,606.92v12.14H25v-2.13l-4.7-5.41v7.54H17.63V606.92H20L25,612.77v-5.85Z" fill="#1c2126"/><path d="M38.37,615.33H31.76a1.92,1.92,0,0,0,2,1.81,1.81,1.81,0,0,0,1.74-.8H38.2a4.35,4.35,0,0,1-4.44,2.88,4.63,4.63,0,1,1,0-9.26,4.32,4.32,0,0,1,4.62,4.61Zm-6.58-1.71h3.94a1.87,1.87,0,0,0-2-1.58A2,2,0,0,0,31.79,613.62Z" fill="#1c2126"/><path d="M44.93,612.23H43v6.83H40.5v-6.83H38.82v-2.11H40.5V607.3H43v2.82h1.93Z" fill="#1c2126"/><path d="M48.9,606.34v12.72H46.4V606.34Z" fill="#1c2126"/><path d="M53.62,607.59a1.46,1.46,0,0,1-1.51,1.5,1.51,1.51,0,1,1,1.51-1.5Zm-.24,2.32v9.15h-2.5v-9.15a2.06,2.06,0,0,0,1.25.37A2,2,0,0,0,53.38,609.91Z" fill="#1c2126"/><path d="M58.55,609v1.09h1.87v2.11H58.55v6.83h-2.5v-6.83H54.61v-2.11h1.44V609a2.62,2.62,0,0,1,2.88-2.83h1.75v1.94H59.44A.78.78,0,0,0,58.55,609Z" fill="#1c2126"/><path d="M70.71,610.12l-5,11.89H63.33l1.38-3.28-3.49-8.61h2.51L66,615.69l2.32-5.57Z" fill="#1c2126"/><path d="M109.4,613c0,3.92-2.34,6.22-5.8,6.22s-5.79-2.3-5.79-6.22,2.33-6.25,5.79-6.25S109.4,609.08,109.4,613Zm-8.79,0c0,2.35,1.3,3.66,3,3.66s3-1.31,3-3.66-1.31-3.67-3-3.67S100.61,610.63,100.61,613Z" fill="#1c2126"/><path d="M120.32,610.53h-2.8c0-.89-.67-1.52-1.85-1.52s-1.7.55-1.7,1.23.38,1,1.49,1.3l1.37.32c2.64.59,3.73,1.73,3.73,3.73s-1.6,3.63-4.73,3.63-4.9-1.61-4.9-4h2.8a1.88,1.88,0,0,0,2.11,1.84c1.27,0,1.92-.63,1.92-1.44s-.38-1.09-1.57-1.35l-1.32-.27c-2.77-.56-3.72-1.87-3.72-3.73,0-2.06,1.6-3.54,4.58-3.54S120.32,608.29,120.32,610.53Z" fill="#1c2126"/><path d="M131.38,610.53h-2.8c0-.89-.67-1.52-1.86-1.52-1,0-1.69.55-1.69,1.23s.38,1,1.48,1.3l1.38.32c2.64.59,3.73,1.73,3.73,3.73s-1.6,3.63-4.74,3.63-4.9-1.61-4.9-4h2.81a1.88,1.88,0,0,0,2.11,1.84c1.26,0,1.92-.63,1.92-1.44s-.39-1.09-1.57-1.35l-1.33-.27c-2.77-.56-3.71-1.87-3.71-3.73,0-2.06,1.6-3.54,4.58-3.54S131.38,608.29,131.38,610.53Z" fill="#1c2126"/><path d="M91.16,610.11a3.62,3.62,0,0,0-1-1.22,3.91,3.91,0,0,0-2.49-1.14,3.62,3.62,0,0,0-2.51,1.37,8,8,0,0,0-1.41,2.21,6.53,6.53,0,0,0-2.39-2.73,4.09,4.09,0,0,0-3.58-.35,3,3,0,0,0-1.82,3,5,5,0,0,0,2,2.88q3.32,3,6.72,5.87l5-5.64C90.67,613.14,91.8,611.56,91.16,610.11Z" fill="#ff6b60" stroke="#ff6b60" stroke-linejoin="round"/></svg>