<svg xmlns="http://www.w3.org/2000/svg" width="1200" height="630" viewBox="0 0 1200 630"><rect width="1200" height="498.72" fill="#054861"/><circle cx="959.99" cy="249.36" r="183.06" fill="#5cebdf" opacity="0.1"/><rect x="61.44" y="276.8" width="665.86" height="100.97" rx="12.6" fill="#1c2126" opacity="0.3"/><circle cx="959.99" cy="249.36" r="167.11" fill="#5cebdf" stroke="#1c2126" stroke-miterlimit="10" stroke-width="2"/><path d="M964.42,294c-2.67-11.37-10.1-21-16.52-30.51-6.76-10-12.47-20.61-15-32.55a59.85,59.85,0,0,1,3.57-37.09c3.09-6.87,8-12.74,13.34-18,11.58-11.53,25.4-20.68,36.35-32.87,4.49-5,8.54-10.77,10-17.42,1.66-7.44-.83-14.67-4.69-21C982,89,963.77,84.16,946.66,83.05l-1.91-.1A167.11,167.11,0,0,0,822,343.68a56.57,56.57,0,0,1,2.67-8.76c6.82-17.19,21.6-30,40.31-31.83,9.64-.95,18.93,1.47,27.81,5,11.06,4.44,21.11,11.53,32.65,14.76C944.67,328.26,969.81,316.91,964.42,294Z" fill="#30c8c9" stroke="#1c2126" stroke-miterlimit="10" stroke-width="2"/><path d="M1048.61,160.8c-4.94,7.87-11.37,14.66-17.25,21.81A200.49,200.49,0,0,0,1016.07,205c-5,8.14-9.68,16.66-12.59,25.8-2.38,7.5-4.82,17.69-.25,24.84,4.19,6.56,12.8,9.52,20.24,7.63,8.13-2.07,13.75-9.71,19.5-15.28,8.22-8,24.23-18.13,35.86-10.88,8.52,5.32,8.64,17.54,9.33,26.39.49,6.17.52,20.22,9.28,20.78,7.94.52,18.6-8.71,28.26-13.22a167.23,167.23,0,0,0-69.88-158.56C1058.84,128.86,1057.63,146.42,1048.61,160.8Z" fill="#30c8c9" stroke="#1c2126" stroke-miterlimit="10" stroke-width="2"/><path d="M1084.25,324.83c-19-.93-36.35,7.94-48.58,22.1-10.41,12.05-15.8,28.69-31.05,36-19.72,9.43-42.16,3.63-62.42,10.17-10.39,3.36-18.79,9.72-25.51,17.7A167.28,167.28,0,0,0,1105.84,331,50.54,50.54,0,0,0,1084.25,324.83Z" fill="#30c8c9" stroke="#1c2126" stroke-miterlimit="10" stroke-width="2"/><path d="M777.39,88H712.94a11.2,11.2,0,0,0-11.21,11.2v26.37a11.2,11.2,0,0,0,11.21,11.2H752.8l21.19,23v-23h3.4a11.2,11.2,0,0,0,11.21-11.2V99.24A11.2,11.2,0,0,0,777.39,88Z" fill="#fff" stroke="#1c2126" stroke-linecap="round" stroke-linejoin="round" stroke-width="2"/><path d="M748.47,99.79v22.77H743.4V112.21h-8.82v10.35h-5.07V99.79h5.07v7.59h8.82V99.79Z" fill="#1c2126"/><path d="M757.89,101.05a2.81,2.81,0,1,1-5.61,0,2.81,2.81,0,1,1,5.61,0Zm-.45,4.35v17.16h-4.68V105.4a3.81,3.81,0,0,0,2.34.69A3.75,3.75,0,0,0,757.44,105.4Z" fill="#1c2126"/><path d="M113.84,215.26V231H103.76v-15.6l-16-29.94H98.66L109,204.52l10.25-19.08h10.62Z" fill="#fff"/><path d="M159.38,214.24c0,10-6.42,17.58-17.64,17.58S124,224.26,124,214.24s6.42-17.58,17.7-17.58S159.38,204.22,159.38,214.24Zm-25.56,0c0,5.52,3.06,9.06,7.92,9.06s7.86-3.54,7.86-9.06-3-9.06-7.86-9.06S133.82,208.72,133.82,214.24Z" fill="#fff"/><path d="M194.48,197.44V231h-9.36v-3.6a11,11,0,0,1-9.18,4.44c-7.38,0-12.18-5.52-12.18-15.42v-19h9.36v17.22c0,5.1,2.34,8,5.94,8s6.06-3.06,6.06-7.92V197.44Z" fill="#fff"/><path d="M255.68,212v19h-9.36V213.82c0-5.16-2.46-8-6.24-8s-6.42,3.12-6.42,8l-.06-.42V231h-9.36v-47.7h9.36v17.94a11.26,11.26,0,0,1,9.54-4.56C250.76,196.66,255.68,202.12,255.68,212Z" fill="#fff"/><path d="M292.57,211.84V231h-9.35v-3.66c-2.34,2.7-6,4.26-10.92,4.26-7,0-11.4-3.54-11.4-9.36,0-5.28,3.48-9.3,12.24-10.8l10.08-1.68c0-3.24-2-5.1-5.82-5.1s-5.4,1.56-5.64,4.14h-9.48c.18-6.18,5.22-11.94,15.12-11.94C287.06,196.84,292.57,202.24,292.57,211.84Zm-9.35,5v-.48l-7.68,1.26c-4,.66-5,2-5,3.78,0,1.5,1.44,2.58,4.14,2.58C279.8,224,283.22,221.14,283.22,216.88Z" fill="#fff"/><path d="M331.94,183.28V231h-9.36v-4c-2.22,3-5.7,4.8-10.38,4.8-8.7,0-14.82-6.24-14.82-17.58s6.12-17.58,14.82-17.58c4.68,0,8.16,1.8,10.38,4.74V183.28ZM322.58,214c0-5.94-3.12-9.3-7.68-9.3s-7.74,3.42-7.74,9.3,3.24,9.3,7.74,9.3S322.58,219.94,322.58,214Z" fill="#fff"/><path d="M412.33,212v19H403V213.64c0-5.52-2.22-8.4-5.76-8.4s-5.76,3.12-5.76,8.34V231H382.1V213.64c0-5.52-2.22-8.4-5.76-8.4s-5.76,3.12-5.76,8.34V231h-9.36V197.44h9.36v3.66a10.06,10.06,0,0,1,8.7-4.44,11,11,0,0,1,9.9,5.28,11.79,11.79,0,0,1,10.13-5.28C407.17,196.66,412.33,202.54,412.33,212Z" fill="#fff"/><path d="M451.64,217H426.86a7.21,7.21,0,0,0,7.62,6.78c3.3,0,5.52-1.08,6.54-3h10c-1.92,6.3-8,10.8-16.62,10.8-10.5,0-17.4-6.9-17.4-17.34s6.78-17.4,17.34-17.4,17.34,6.84,17.34,17.28ZM427,210.58h14.76c-.66-3.78-3.6-5.94-7.44-5.94A7.36,7.36,0,0,0,427,210.58Z" fill="#fff"/><path d="M508.69,211.84V231h-9.36v-3.66c-2.34,2.7-6,4.26-10.91,4.26-7,0-11.4-3.54-11.4-9.36,0-5.28,3.48-9.3,12.24-10.8l10.07-1.68c0-3.24-2-5.1-5.81-5.1s-5.41,1.56-5.64,4.14H478.4c.18-6.18,5.22-11.94,15.12-11.94C503.17,196.84,508.69,202.24,508.69,211.84Zm-9.36,5v-.48l-7.68,1.26c-4,.66-5,2-5,3.78,0,1.5,1.45,2.58,4.15,2.58C495.91,224,499.33,221.14,499.33,216.88Z" fill="#fff"/><path d="M536.18,205.36h-7.26V231h-9.36V205.36h-6.3v-7.92h6.3V186.88h9.36v10.56h7.26Z" fill="#fff"/><path d="M118,359.49V330.92H94.07v28.57H83.27V294h10.8v27.38H118V294h10.81v65.53Z" fill="#fff"/><path d="M185.35,346c-1.18,8.54-9.63,14.49-20.75,14.49-14.17,0-22.35-8.13-22.35-22.3v-7.77c0-13,8.77-21.66,22-21.66s21.21,8.59,21.21,22.39v6H152.65v2.41c0,7.58,4.68,12.48,11.9,12.48,5.49,0,9.72-2.4,10.76-6.08Zm-32.7-15.89h22.53c0-8.09-4.18-13-11.13-13C156.92,317.12,152.65,322,152.65,330.11Z" fill="#fff"/><path d="M200.56,359.49V351h16.3V299H201.11v-8.45H227.4V351h15.48v8.45Z" fill="#fff"/><path d="M258.05,359.49V351h16.3V299H258.59v-8.45h26.3V351h15.48v8.45Z" fill="#fff"/><path d="M313.59,338.42v-7.59c0-13.53,8.67-22.07,22.38-22.07s22.39,8.54,22.39,22.07v7.59c0,13.53-8.67,22.07-22.39,22.07S313.59,352,313.59,338.42Zm10.44-7v6.41c0,8.58,4.59,13.89,11.94,13.89s11.95-5.31,11.95-13.89v-6.41c0-8.58-4.59-13.89-11.95-13.89S324,322.84,324,331.42Z" fill="#fff"/><path d="M450.63,320l-8,39.46h-9.81L422.21,294h10.08l3.18,24.11,3.09,26.48h.63L446.5,309h8.9l7.31,35.6h.64l3.09-26.48L469.62,294H479.7l-10.63,65.53h-9.81l-8-39.46Z" fill="#fff"/><path d="M486.05,338.42v-7.59c0-13.53,8.68-22.07,22.39-22.07s22.39,8.54,22.39,22.07v7.59c0,13.53-8.67,22.07-22.39,22.07S486.05,352,486.05,338.42Zm10.45-7v6.41c0,8.58,4.58,13.89,11.94,13.89s11.94-5.31,11.94-13.89v-6.41c0-8.58-4.58-13.89-11.94-13.89S496.5,322.84,496.5,331.42Z" fill="#fff"/><path d="M564.57,351.59h14.8v7.9H544.72v-7.9h9.68V317.67H543.77v-7.91h20.84v12.72h1.55c2-9.58,7.58-14,17-14a20.83,20.83,0,0,1,7.13,1V321a25.07,25.07,0,0,0-8.22-1.41c-11.49,0-17.53,6.27-17.53,17.76Z" fill="#fff"/><path d="M603,359.49V351h16.3V299H603.53v-8.45h26.29V351h15.49v8.45Z" fill="#fff"/><path d="M657.84,339v-8.86c0-13.21,7.08-21.25,18.48-21.25,7.18,0,12.31,3.22,14.17,9h.91V290.55h10.9v68.94H691.58v-8.18h-.91c-2.09,5.82-7.13,8.95-14.35,8.95C664.92,360.26,657.84,352.27,657.84,339Zm33.79-.64v-7.76c0-7.86-4.41-12.72-11.49-12.72s-11.54,4.91-11.54,12.72v7.76c0,7.81,4.41,12.67,11.54,12.67S691.63,346.18,691.63,338.37Z" fill="#fff"/><path d="M1070.39,123.93a164.44,164.44,0,0,1-261,197.9,167.12,167.12,0,1,0,261-197.9Z" fill="#054861" opacity="0.1"/><path d="M1013.56,27.64a1.5,1.5,0,0,0,0-3,1.5,1.5,0,0,0,0,3Z" fill="#fff"/><path d="M936.19,38.2a1.5,1.5,0,0,0,0-3,1.5,1.5,0,0,0,0,3Z" fill="#fff"/><path d="M679.68,48a1.5,1.5,0,0,0,0-3,1.5,1.5,0,0,0,0,3Z" fill="#fff"/><path d="M635.42,187.78a1.5,1.5,0,0,0,0-3,1.5,1.5,0,0,0,0,3Z" fill="#fff"/><path d="M731.77,238.13a1.5,1.5,0,0,0,0-3,1.5,1.5,0,0,0,0,3Z" fill="#fff"/><path d="M614.58,425.62a1.5,1.5,0,0,0,0-3,1.5,1.5,0,0,0,0,3Z" fill="#fff"/><path d="M788.6,404.59a1.5,1.5,0,0,0,0-3,1.5,1.5,0,0,0,0,3Z" fill="#fff"/><path d="M865.44,460.34a1.5,1.5,0,0,0,0-3,1.5,1.5,0,0,0,0,3Z" fill="#fff"/><path d="M1136.27,430.83a1.5,1.5,0,0,0,0-3,1.5,1.5,0,0,0,0,3Z" fill="#fff"/><path d="M1173.59,233.79a1.5,1.5,0,0,0,0-3,1.5,1.5,0,0,0,0,3Z" fill="#fff"/><path d="M1116.11,114.87a1.5,1.5,0,0,0,0-3,1.5,1.5,0,0,0,0,3Z" fill="#fff"/><path d="M1163.18,59.31a1.5,1.5,0,0,0,0-3,1.5,1.5,0,0,0,0,3Z" fill="#fff"/><path d="M327.16,101.41a1.5,1.5,0,0,0,0-3,1.5,1.5,0,0,0,0,3Z" fill="#fff"/><path d="M184.78,124.19a1.5,1.5,0,0,0,0-3,1.5,1.5,0,0,0,0,3Z" fill="#fff"/><path d="M101.62,62.68a1.5,1.5,0,0,0,0-3,1.5,1.5,0,0,0,0,3Z" fill="#fff"/><path d="M876.67,68.73a7,7,0,0,0-1.15-2.92,7.78,7.78,0,0,0-4-3.67,7.16,7.16,0,0,0-5.55,1,16,16,0,0,0-4,3.29,12.86,12.86,0,0,0-2.83-6.6,8,8,0,0,0-6.5-2.84,5.87,5.87,0,0,0-5.24,4.43c-.44,2.31.76,4.58,1.93,6.62q4.39,7.65,9,15.15l12.84-7.52C873.91,74.12,877,71.84,876.67,68.73Z" fill="#ff6b60" stroke="#1c2126" stroke-linejoin="round" stroke-width="2"/><path d="M832.74,40.32a8,8,0,0,0-3.15-1.77c-2-.72-4.26-1.19-6.24-.4s-3.41,2.88-4.22,5a18.54,18.54,0,0,0-1.2,5.84,14.78,14.78,0,0,0-7.32-3.85,9.23,9.23,0,0,0-7.89,2.18,6.76,6.76,0,0,0-1.47,7.77c1.28,2.39,4,3.56,6.54,4.54q9.48,3.64,19.09,7l6-16.06C834.18,47.15,835.28,42.89,832.74,40.32Z" fill="#ff6b60" stroke="#1c2126" stroke-linejoin="round" stroke-width="2"/><path d="M849.35,104.82a8.86,8.86,0,0,0-3.56-1.45c-2.22-.49-4.66-.69-6.64.41s-3.22,3.49-3.8,5.8a19.47,19.47,0,0,0-.48,6.32,15.78,15.78,0,0,0-8.24-3.09,9.81,9.81,0,0,0-8,3.35,7.17,7.17,0,0,0-.52,8.39c1.66,2.36,4.7,3.23,7.5,3.92q10.5,2.59,21.08,4.86l4.23-17.75C851.77,111.84,852.37,107.19,849.35,104.82Z" fill="#ff6b60" stroke="#1c2126" stroke-linejoin="round" stroke-width="2"/><path d="M399.35,445.3a1.5,1.5,0,0,0,0-3,1.5,1.5,0,0,0,0,3Z" fill="#fff"/><path d="M165.56,428.35a1.5,1.5,0,0,0,0-3,1.5,1.5,0,0,0,0,3Z" fill="#fff"/><path d="M85.93,452.07a1.5,1.5,0,0,0,0-3,1.5,1.5,0,0,0,0,3Z" fill="#fff"/><path d="M492.52,54a1.5,1.5,0,0,0,0-3,1.5,1.5,0,0,0,0,3Z" fill="#fff"/><path d="M31.72,242a1.5,1.5,0,0,0,0-3,1.5,1.5,0,0,0,0,3Z" fill="#fff"/><path d="M824,201.05s10.16-10.49,20.65,0" fill="none" stroke="#1c2126" stroke-linecap="round" stroke-miterlimit="10" stroke-width="2"/><path d="M859.37,201.05s10.17-10.49,20.66,0" fill="none" stroke="#1c2126" stroke-linecap="round" stroke-miterlimit="10" stroke-width="2"/><path d="M830,213.32c.37,11.09,10.2,20,22.31,20s21.94-8.89,22.3-20Z" fill="#7a122d" stroke="#1c2126" stroke-linecap="round" stroke-linejoin="round" stroke-width="2"/><rect y="595" width="1200" height="35" fill="#fff"/><rect y="499.19" width="1200" height="95.81" fill="#fff"/><line y1="499.19" x2="1200" y2="499.19" fill="none" stroke="#1c2126" stroke-miterlimit="10"/><line y1="595" x2="1200" y2="595" fill="none" stroke="#1c2126" stroke-miterlimit="10"/><path d="M24.24,559.45V540.69H17.85v-2.37H33.21v2.37H26.82v18.76Z" fill="#1c2126"/><path d="M44.08,559.89c-4.81,0-7.75-3.45-7.75-9.3v-3.41c0-5.85,2.94-9.3,7.75-9.3s7.74,3.45,7.74,9.3v3.41C51.82,556.44,48.88,559.89,44.08,559.89Zm5.14-9.31v-3.39c0-4.41-1.94-6.87-5.14-6.87s-5.15,2.46-5.15,6.87v3.39c0,4.41,1.94,6.87,5.15,6.87S49.22,555,49.22,550.58Z" fill="#1c2126"/><path d="M60,545.58a2.65,2.65,0,1,1,2.65,2.71A2.7,2.7,0,0,1,60,545.58Zm0,11.25a2.65,2.65,0,1,1,2.65,2.71A2.68,2.68,0,0,1,60,556.83Z" fill="#1c2126"/><line x1="582.03" y1="498.72" x2="582.03" y2="595" fill="none" stroke="#1c2126" stroke-miterlimit="10"/><path d="M1129.73,614.6a4.72,4.72,0,1,1-4.71-4.69A4.43,4.43,0,0,1,1129.73,614.6Zm-6.82,0A2.12,2.12,0,0,0,1125,617c1.3,0,2.1-.94,2.1-2.41s-.8-2.42-2.1-2.42S1122.91,613.12,1122.91,614.6Z" fill="#1c2126"/><path d="M1138.54,612.93H1136c0-.57-.52-1-1.37-1s-1.25.3-1.25.72.19.62,1.2.8l1.2.19c2.3.39,2.91,1.43,2.91,2.79,0,1.74-1.39,2.85-3.92,2.85-2.72,0-4.08-1.3-4.08-3.09h2.48c0,.65.53,1.1,1.7,1.1.88,0,1.33-.3,1.33-.75s-.26-.72-1.3-.9l-1.25-.21c-2.11-.33-2.77-1.39-2.77-2.67,0-1.58,1.3-2.8,3.78-2.8S1138.54,611.24,1138.54,612.93Z" fill="#1c2126"/><path d="M1147.49,612.93H1145c0-.57-.53-1-1.38-1s-1.25.3-1.25.72.2.62,1.2.8l1.2.19c2.31.39,2.92,1.43,2.92,2.79,0,1.74-1.39,2.85-3.92,2.85-2.72,0-4.09-1.3-4.09-3.09h2.49c0,.65.52,1.1,1.69,1.1.88,0,1.33-.3,1.33-.75s-.26-.72-1.3-.9l-1.24-.21c-2.12-.33-2.77-1.39-2.77-2.67,0-1.58,1.29-2.8,3.77-2.8S1147.49,611.24,1147.49,612.93Z" fill="#1c2126"/><path d="M1152,617.64a1.6,1.6,0,1,1-1.6-1.62A1.55,1.55,0,0,1,1152,617.64Z" fill="#1c2126"/><path d="M1156.27,606.34v12.72h-2.5V606.34Z" fill="#1c2126"/><path d="M1167,614.6a4.71,4.71,0,1,1-4.7-4.69A4.42,4.42,0,0,1,1167,614.6Zm-6.81,0a2.12,2.12,0,0,0,2.11,2.41c1.29,0,2.1-.94,2.1-2.41s-.81-2.42-2.1-2.42S1160.16,613.12,1160.16,614.6Z" fill="#1c2126"/><path d="M1176.59,610.12l-3.26,8.94h-3l-3.29-8.94h2.64l2.17,6.32,2.16-6.32Z" fill="#1c2126"/><path d="M1186.06,615.33h-6.61a1.92,1.92,0,0,0,2,1.81,1.83,1.83,0,0,0,1.75-.8h2.66a5,5,0,1,1,.17-1.77Zm-6.58-1.71h3.94a1.87,1.87,0,0,0-2-1.58A2,2,0,0,0,1179.48,613.62Z" fill="#1c2126"/><path d="M605.51,559.45V538.32H618v2.37H608.1v7.25h9v2.3h-9v9.21Z" fill="#1c2126"/><path d="M625.54,551v8.42H623V538.32h7.09c4.19,0,6.81,2.43,6.81,6.35A5.91,5.91,0,0,1,633,550.5l4.3,9h-2.91L630.41,551Zm0-2.18h4.19c2.92,0,4.56-1.48,4.56-4.12s-1.61-4.11-4.44-4.11h-4.31Z" fill="#1c2126"/><path d="M648.15,559.89c-4.81,0-7.75-3.45-7.75-9.3v-3.41c0-5.85,2.94-9.3,7.75-9.3s7.75,3.45,7.75,9.3v3.41C655.9,556.44,653,559.89,648.15,559.89Zm5.14-9.31v-3.39c0-4.41-1.93-6.87-5.14-6.87s-5.14,2.46-5.14,6.87v3.39c0,4.41,1.93,6.87,5.14,6.87S653.29,555,653.29,550.58Z" fill="#1c2126"/><path d="M661.38,559.45h-2.3V538.32H662l4.64,13.12h.19l4.62-13.12h2.9v21.13H672v-8.11l.13-8.56H672l-4.25,11.71h-2l-4.25-11.71h-.19l.14,8.56Z" fill="#1c2126"/><path d="M682.59,545.58a2.65,2.65,0,1,1,2.65,2.71A2.7,2.7,0,0,1,682.59,545.58Zm0,11.25a2.65,2.65,0,1,1,2.65,2.71A2.68,2.68,0,0,1,682.59,556.83Z" fill="#1c2126"/><path d="M27.75,606.92v12.14h-2.7v-2.13l-4.71-5.41v7.54H17.63V606.92H20l5.09,5.85v-5.85Z" fill="#1c2126"/><path d="M38.37,615.33H31.76a1.92,1.92,0,0,0,2,1.81,1.81,1.81,0,0,0,1.74-.8H38.2a4.35,4.35,0,0,1-4.44,2.88,4.63,4.63,0,1,1,0-9.26,4.32,4.32,0,0,1,4.62,4.61Zm-6.58-1.71h3.94a1.87,1.87,0,0,0-2-1.58A2,2,0,0,0,31.79,613.62Z" fill="#1c2126"/><path d="M44.93,612.23H43v6.83H40.5v-6.83H38.82v-2.11H40.5V607.3H43v2.82h1.93Z" fill="#1c2126"/><path d="M48.9,606.34v12.72H46.4V606.34Z" fill="#1c2126"/><path d="M53.62,607.59a1.46,1.46,0,0,1-1.51,1.5,1.51,1.51,0,1,1,1.51-1.5Zm-.24,2.32v9.15h-2.5v-9.15a2.06,2.06,0,0,0,1.25.37A2,2,0,0,0,53.38,609.91Z" fill="#1c2126"/><path d="M58.55,609v1.09h1.87v2.11H58.55v6.83h-2.5v-6.83H54.61v-2.11h1.44V609a2.62,2.62,0,0,1,2.88-2.83h1.75v1.94H59.44A.78.78,0,0,0,58.55,609Z" fill="#1c2126"/><path d="M70.71,610.12l-5,11.89H63.33l1.38-3.28-3.49-8.61h2.51L66,615.69l2.32-5.57Z" fill="#1c2126"/><path d="M109.4,613c0,3.92-2.34,6.22-5.8,6.22s-5.79-2.3-5.79-6.22,2.33-6.25,5.79-6.25S109.4,609.08,109.4,613Zm-8.79,0c0,2.35,1.3,3.66,3,3.66s3-1.31,3-3.66-1.32-3.67-3-3.67S100.61,610.63,100.61,613Z" fill="#1c2126"/><path d="M120.32,610.53h-2.8c0-.89-.67-1.52-1.85-1.52s-1.7.55-1.7,1.23.38,1,1.49,1.3l1.37.32c2.65.59,3.73,1.73,3.73,3.73s-1.6,3.63-4.73,3.63-4.9-1.61-4.9-4h2.8a1.88,1.88,0,0,0,2.11,1.84c1.27,0,1.92-.63,1.92-1.44s-.38-1.09-1.57-1.35l-1.32-.27c-2.77-.56-3.72-1.87-3.72-3.73,0-2.06,1.6-3.54,4.58-3.54S120.32,608.29,120.32,610.53Z" fill="#1c2126"/><path d="M131.38,610.53h-2.8c0-.89-.67-1.52-1.86-1.52-1,0-1.69.55-1.69,1.23s.38,1,1.48,1.3l1.38.32c2.64.59,3.73,1.73,3.73,3.73s-1.6,3.63-4.74,3.63-4.9-1.61-4.9-4h2.81a1.88,1.88,0,0,0,2.11,1.84c1.26,0,1.92-.63,1.92-1.44s-.39-1.09-1.57-1.35l-1.33-.27c-2.77-.56-3.71-1.87-3.71-3.73,0-2.06,1.6-3.54,4.58-3.54S131.38,608.29,131.38,610.53Z" fill="#1c2126"/><path d="M91.16,610.11a3.62,3.62,0,0,0-1-1.22,3.91,3.91,0,0,0-2.49-1.14,3.62,3.62,0,0,0-2.51,1.37,8,8,0,0,0-1.41,2.21,6.53,6.53,0,0,0-2.39-2.73,4.09,4.09,0,0,0-3.58-.35,3,3,0,0,0-1.82,3,5,5,0,0,0,2,2.88q3.32,3,6.72,5.87l5-5.64C90.67,613.14,91.8,611.56,91.16,610.11Z" fill="#ff6b60" stroke="#ff6b60" stroke-linejoin="round"/></svg>