<svg xmlns="http://www.w3.org/2000/svg" width="1200" height="630" viewBox="0 0 1200 630"><rect width="1200" height="498.72" fill="#30c8c9"/><path d="M1077.23,379.66a213.28,213.28,0,0,0-18.62-30.8h0c27.71-40.82,16.06-99.52,16.16-102.27L1023,331.79h0l7.08-11.63a95.85,95.85,0,0,0-9.26-5.8c-27-14.92-65.18-9.76-82.58,17.21a57.35,57.35,0,0,0-7.48,14.55c-8.24-9.8-13.45-21.76-17.21-34.55,2,6.76-1.17,21.1,1.87,27.21,14-19,39.72-44.11,52.83-59.38,2.72-3,5.32-6.12,7.79-9.33a6.48,6.48,0,0,0,2.65-.8,9.26,9.26,0,0,0,2.62-2.84c10.91-15.9,20.26-33.06,25.73-51.55s6.93-38.43,2.2-57.13l-.71-.86c-1.11.5-2.23,1-3.35,1.46a121.51,121.51,0,0,0-26.5-57.14c2.84-4.35,5.07-7.65,6.47-9.67a21.22,21.22,0,0,0,6.17-1.3c7.75-2.86,15.33-10.13,20-20.19,7.5-16.25,4.5-33.62-6.72-38.79a17.94,17.94,0,0,0-13.9-.13c-7.75,2.86-15.33,10.13-20,20.19-5.55,12-5.33,24.64-.32,32.5-1,1.47-2.25,3.32-3.69,5.48a78.75,78.75,0,0,0-13.29-9c-38.5-17.91-95.1-20.61-131,2.8-10.68,7-21.11,19.7-21.11,38.55s13.88,40.27,44.07,37.73,29.73-18.2,40.51-23.33c16.84-6.29,27.7-9,44.44-.75a20.85,20.85,0,0,1,6.18,4.7c-3.53,6.63-7.09,13.63-10.59,20.92-20.23,42.22-31.26,79.26-33,110.68,0-.1,0-.2,0-.3q-3.15,3.25-6.16,6.55c-14.19,15.86-26.57,33.53-33.78,53.69-40,113.46,93.16,194.72,129.95,54.94a92.37,92.37,0,0,0,26.63-3.42l.13.15c9.5,10.5,12.34,26.56,23.49,35.1C1058.22,439,1093.81,407.39,1077.23,379.66ZM985.68,58.25c3.14-6.82,7.72-10.52,10.68-11.61a5,5,0,0,1,1.25-.31c1.24,1.57,2.54,8.37-1.36,16.8-3.15,6.82-7.72,10.51-10.68,11.6a5.27,5.27,0,0,1-1.24.32C983.08,73.47,981.79,66.68,985.68,58.25Zm71,251.67c.12,9.31-4.26,19-10.51,27.56.47-.64.92-1.28,1.36-1.93A117.12,117.12,0,0,0,1033,322.32C1041.11,315.19,1052,307.1,1056.72,309.92Zm-12.23,29.84M1033,322.33l-.75.67Zm-1.15,1-.7.63Zm-1.1,1-.67.61Zm-1,.94c-.75.69-1.46,1.36-2.12,2C1028.23,326.64,1028.94,326,1029.69,325.28Zm-2.42,2.27-.51.49Zm-.85.81-.42.41Zm-.8.79-.33.31Zm-.79.77-.16.16Zm-.72.72-.07.07Zm-.48.48,0,0ZM945.05,159.61A98,98,0,0,1,946.6,174a6.31,6.31,0,0,0-2.19,2.83,13.42,13.42,0,0,0-.43,5.29c.38,10.61-2.67,21.14-7.39,30.65S925.53,230.9,919,239.26c-1.24,1.59-2.57,3.47-2.16,5.45a4.34,4.34,0,0,0,.66,1.47c-1.84,2-3.72,4-5.63,6C917.43,220.62,931,187.61,945.05,159.61ZM913.71,398.35c-11.85-18.1-10.41-35.28-2.61-51.38a84.77,84.77,0,0,0,14.65,17.63C923.11,376.38,920.59,388.22,913.71,398.35Zm72.84-28.09c.26-1.41.52-2.82.76-4.26a17.91,17.91,0,0,1,9.05,3.5,68.33,68.33,0,0,0,19.63-5.86A70.2,70.2,0,0,1,986.55,370.26Z" fill="#30c8c9" stroke="#bffde7" stroke-linejoin="round" stroke-width="12" opacity="0.3"/><path d="M947.19,379.37c31,13.72,61.23,8.25,83.35-4,62.18-34.45,44.09-124.47,44.22-127.89L1023,332.65s25.69-26.65,33.74-21.86c.25,19.76-19.75,41.08-35,50.56-16.53,10.31-42.18,14.27-67.89,2.9C929.62,353.53,919,332.5,912.6,309.19c-21-76.86,59.91-198.48,72.52-216.79a21.2,21.2,0,0,0,6.17-1.29c7.75-2.86,15.33-10.14,20-20.19,7.5-16.26,4.49-33.63-6.72-38.8a17.89,17.89,0,0,0-13.9-.12c-7.75,2.85-15.33,10.13-20,20.18-5.55,12-5.33,24.64-.32,32.5a609.89,609.89,0,0,0-44.44,77.16c-29.86,62.31-39.71,113.35-29.26,151.68C904.29,341.55,918.5,366.68,947.19,379.37ZM985.68,59.11c3.14-6.82,7.72-10.51,10.68-11.61a5,5,0,0,1,1.25-.31c1.24,1.58,2.54,8.37-1.36,16.8-3.15,6.82-7.72,10.52-10.68,11.61a5.11,5.11,0,0,1-1.24.31C983.08,74.33,981.79,67.54,985.68,59.11Z" fill="#ff6b60" stroke="#1c2126" stroke-linejoin="round" stroke-width="2"/><path d="M885.88,137c16.84-6.3,27.7-9,44.44-.76s17.14,37.43,16,56.11c-2.78,24.92-17.81,43.44-34.5,60.7-3.52,19.85-3.89,39.11.76,56.17A124.2,124.2,0,0,0,921,331.83c14-19,34.15-36.3,47.25-51.57,28.1-30.89,42.52-73.59,37.73-115.17-3.22-31.53-23.22-68.32-52.57-83.88-38.5-17.91-95.1-20.61-131,2.81-10.68,7-21.11,19.7-21.11,38.54s13.88,40.27,44.07,37.73S875.1,142.09,885.88,137Z" fill="#ffd3bf" stroke="#1c2126" stroke-linejoin="round" stroke-width="2"/><path d="M930.32,136.21c16.75,8.25,17.14,37.43,16,56.11-2.78,24.92-17.81,43.44-34.5,60.7a172.52,172.52,0,0,0-2.53,21.84c7.85-3.83,17.82-1.53,25.81.55,10.08,2.63,20,6.4,30.35,8,.94-1.05,1.86-2.09,2.74-3.12a146.62,146.62,0,0,0,17.58-23.77c-4.42-.25-9,.42-13.29.35a26.11,26.11,0,0,1-12-2.85,22.88,22.88,0,0,1-8.54-8.15c-3.43-5.65-2.88-12.19-.88-18.23a101,101,0,0,1,3.94-9.67,99.91,99.91,0,0,0,4.57-12.08,93.27,93.27,0,0,0,3.57-24.58c.29-12.65,0-26-4.45-38.05A41.2,41.2,0,0,0,950,129a45.12,45.12,0,0,0-15.76-10.34c-6.69-2.69-13.71-4.32-21-3.56a40,40,0,0,0-18.57,7.2A53.61,53.61,0,0,0,876.2,146c3.13-3.68,5.6-7.12,9.68-9.06C902.72,130.67,913.58,128,930.32,136.21Z" fill="#1c2126" opacity="0.1"/><path d="M1077.23,380.53a212.83,212.83,0,0,0-18.62-30.81,80.78,80.78,0,0,1-28.07,25.63,97.08,97.08,0,0,1-21,8.62l.13.15c9.5,10.5,12.34,26.56,23.49,35.11C1058.22,439.87,1093.81,408.26,1077.23,380.53Z" fill="#ffd3bf" stroke="#1c2126" stroke-linejoin="round" stroke-width="2"/><path d="M1055.88,420.56c-8.94-2.23-15.78-8.76-21-16.09a29.63,29.63,0,0,1-5.45-12.13,12.64,12.64,0,0,1,.06-5.74,5,5,0,0,1,3.56-3.28c1.68-.6,3.48-.84,5.15-1.48a41.75,41.75,0,0,0,6.47-3.27,56.23,56.23,0,0,0,11.23-9,73.89,73.89,0,0,0,8.83-11q-2.93-4.51-6.1-8.84a80.78,80.78,0,0,1-28.07,25.63,97.08,97.08,0,0,1-21,8.62l.13.15c9.5,10.5,12.34,26.56,23.49,35.11,10.6,8.73,23.09,8.11,32.71,2.39A37.48,37.48,0,0,1,1055.88,420.56Z" fill="#1c2126" opacity="0.1"/><path d="M1021.77,361.35a92.16,92.16,0,0,0,25.8-24.94A117.91,117.91,0,0,0,1033,323.18c-5.67,5-10,9.47-10,9.47L1030,321a98.45,98.45,0,0,0-9.25-5.8c-27-14.92-65.18-9.76-82.58,17.22-14.38,19.76-10.84,46.66-24.5,66.77-11.85-18.1-10.41-35.28-2.6-51.38-6.52-10.35-11.12-22.05-14.46-34.31q-5.08-18.66-3.76-41.31-3.15,3.26-6.16,6.55c-14.19,15.86-26.57,33.53-33.78,53.69C811.09,451.1,958.63,534.53,987.31,366.86a17.91,17.91,0,0,1,9.05,3.5A66.13,66.13,0,0,0,1021.77,361.35Z" fill="#ffd3bf" stroke="#1c2126" stroke-linejoin="round" stroke-width="2"/><path d="M892.33,321.4a60.86,60.86,0,0,1,5,16c1.71,10.79-.46,21.66-1,32.45-.5,10.62.91,22.52,9.62,29.79,1.39,1.16,3.25,2.37,5.15,2.18a4.63,4.63,0,0,0,3.3-2.37,13.18,13.18,0,0,0,1.57-4c-.72,1.29-1.49,2.54-2.33,3.78-11.85-18.1-10.41-35.28-2.6-51.38-6.52-10.35-11.12-22.05-14.46-34.31q-5.08-18.66-3.76-41.31-3.15,3.26-6.16,6.55-3.47,3.87-6.76,7.89c.78,6.31,1.92,12.58,4.45,18.43C886.83,310.63,889.8,315.91,892.33,321.4Z" fill="#1c2126" opacity="0.1"/><path d="M970,400.81a114.44,114.44,0,0,1-9,12.79,135.17,135.17,0,0,1-11.33,12.7c-7.71,7.58-16.52,14.36-26.51,18.63A51.35,51.35,0,0,1,906.66,449a71.49,71.49,0,0,1-17.58-1.16c-5.05-.89-10-2.16-14.93-3.51C909.49,476.8,967.22,467.71,986,374.1,979.39,382.09,975.24,391.91,970,400.81Z" fill="#1c2126" opacity="0.1"/><path d="M1010.82,363.82c-6.52-3.12-21.21-7.28-22.57,3.15a18.35,18.35,0,0,1,8.11,3.39,68.88,68.88,0,0,0,17.52-4.91C1012.88,364.86,1011.85,364.32,1010.82,363.82Z" fill="#1c2126" opacity="0.1"/><path d="M1009.21,158.61l-.71-.85a177.18,177.18,0,0,1-52.85,14.4c-4.39.48-9.66,1.43-11.24,5.55A13.35,13.35,0,0,0,944,183c.38,10.61-2.67,21.14-7.39,30.66S925.53,231.77,919,240.13c-1.24,1.59-2.57,3.46-2.16,5.44.32,1.48,1.55,2.58,2.7,3.56,10.1,8.55,20.7,17.36,33.57,20.44,6.78,1.62,13.85,1.55,20.82,1.47a9.36,9.36,0,0,0,4.76-.91,9.23,9.23,0,0,0,2.62-2.83c10.91-15.91,20.26-33.06,25.73-51.56S1013.94,177.31,1009.21,158.61Z" fill="#ffd3bf" stroke="#1c2126" stroke-linejoin="round" stroke-width="2"/><path d="M820,112.85s7.16-7.4,14.55,0" fill="none" stroke="#1c2126" stroke-linecap="round" stroke-miterlimit="10" stroke-width="2"/><path d="M845,112.85s7.16-7.4,14.55,0" fill="none" stroke="#1c2126" stroke-linecap="round" stroke-miterlimit="10" stroke-width="2"/><path d="M824.28,121.49c.26,7.81,7.18,14.08,15.71,14.08s15.45-6.27,15.71-14.08Z" fill="#7a122d" stroke="#1c2126" stroke-linecap="round" stroke-linejoin="round" stroke-width="2"/><path d="M825.91,45.53a7.09,7.09,0,0,0-1.55-2.73,7.81,7.81,0,0,0-4.46-3.08,7.17,7.17,0,0,0-5.35,1.81,15.67,15.67,0,0,0-3.5,3.81,12.89,12.89,0,0,0-3.73-6.13,8,8,0,0,0-6.84-1.9,5.85,5.85,0,0,0-4.56,5.12c-.12,2.35,1.39,4.44,2.84,6.29q5.43,7,11.07,13.73l11.65-9.26C823.93,51.25,826.66,48.57,825.91,45.53Z" fill="#ffdd73" stroke="#1c2126" stroke-linejoin="round" stroke-width="2"/><path d="M792.63,59.06a8.05,8.05,0,0,0-3.49-.92c-2.13-.18-4.43-.07-6.14,1.2s-2.57,3.66-2.82,5.88a18,18,0,0,0,.33,6,14.75,14.75,0,0,0-8.06-1.86,9.22,9.22,0,0,0-7.08,4.11,6.76,6.76,0,0,0,.55,7.89c1.85,2,4.78,2.43,7.48,2.72q10.1,1.13,20.24,1.93.89-8.53,1.75-17.07C795.76,65.3,795.74,60.89,792.63,59.06Z" fill="#ffdd73" stroke="#1c2126" stroke-linejoin="round" stroke-width="2"/><line x1="994.61" y1="-5.87" x2="994.61" y2="50.21" fill="#fff6d0" stroke="#1c2126" stroke-linecap="round" stroke-linejoin="round" stroke-width="2"/><polyline points="992.49 28.48 997.54 29.8 992.49 25.68 998.29 25.68" fill="#fff6d0" stroke="#1c2126" stroke-linecap="round" stroke-linejoin="round" stroke-width="2"/><circle cx="1140.69" cy="66.36" r="26.08" fill="#5cebdf" stroke="#bffde7" stroke-linejoin="round" stroke-width="2"/><ellipse cx="1132.03" cy="55.22" rx="13.05" ry="5.11" transform="translate(220.6 728.89) rotate(-39.26)" fill="#bffde7"/><circle cx="1091.07" cy="126.99" r="17.47" fill="#5cebdf" stroke="#bffde7" stroke-linejoin="round" stroke-width="2"/><ellipse cx="1085.27" cy="119.53" rx="8.74" ry="3.42" transform="translate(169.34 713.82) rotate(-39.26)" fill="#bffde7"/><circle cx="605.91" cy="94.95" r="20.07" fill="#5cebdf" stroke="#bffde7" stroke-linejoin="round" stroke-width="2"/><ellipse cx="599.25" cy="86.38" rx="10.04" ry="3.93" transform="translate(80.61 398.74) rotate(-39.26)" fill="#bffde7"/><circle cx="164.28" cy="72.38" r="20.07" fill="#5cebdf" stroke="#bffde7" stroke-linejoin="round" stroke-width="2"/><ellipse cx="157.61" cy="63.8" rx="10.04" ry="3.93" transform="translate(-4.8 114.15) rotate(-39.26)" fill="#bffde7"/><circle cx="373.54" cy="427.55" r="20.07" fill="#5cebdf" stroke="#bffde7" stroke-linejoin="round" stroke-width="2"/><ellipse cx="366.88" cy="418.98" rx="10.04" ry="3.93" transform="translate(-182.34 326.77) rotate(-39.26)" fill="#bffde7"/><circle cx="665.36" cy="150.96" r="14.81" fill="#5cebdf" stroke="#bffde7" stroke-linejoin="round" stroke-width="2"/><ellipse cx="660.44" cy="144.63" rx="7.41" ry="2.9" transform="translate(57.56 450.62) rotate(-39.26)" fill="#bffde7"/><circle cx="315" cy="454.98" r="14.81" fill="#5cebdf" stroke="#bffde7" stroke-linejoin="round" stroke-width="2"/><ellipse cx="310.09" cy="448.65" rx="7.41" ry="2.9" transform="translate(-213.94 297.52) rotate(-39.26)" fill="#bffde7"/><circle cx="107.91" cy="427.55" r="14.81" fill="#5cebdf" stroke="#bffde7" stroke-linejoin="round" stroke-width="2"/><ellipse cx="102.99" cy="421.23" rx="7.41" ry="2.9" transform="translate(-243.33 160.27) rotate(-39.26)" fill="#bffde7"/><circle cx="781.9" cy="399.21" r="14.81" fill="#5cebdf" stroke="#bffde7" stroke-linejoin="round" stroke-width="2"/><ellipse cx="776.98" cy="392.88" rx="7.41" ry="2.9" transform="translate(-73.25 580.41) rotate(-39.26)" fill="#bffde7"/><circle cx="1155.5" cy="440.17" r="14.81" fill="#5cebdf" stroke="#bffde7" stroke-linejoin="round" stroke-width="2"/><ellipse cx="1150.59" cy="433.84" rx="7.41" ry="2.9" transform="translate(-14.83 826.11) rotate(-39.26)" fill="#bffde7"/><circle cx="677.35" cy="56.85" r="14.41" fill="#5cebdf" stroke="#bffde7" stroke-linejoin="round" stroke-width="2"/><ellipse cx="672.57" cy="50.69" rx="7.21" ry="2.82" transform="translate(119.74 437.09) rotate(-39.26)" fill="#bffde7"/><path d="M904.07,400.66s5,6.9,9.64-1.45" fill="none" stroke="#1c2126" stroke-linecap="round" stroke-linejoin="round" stroke-width="2"/><path d="M987.31,366.86s1.38-8.12,4-10.24" fill="none" stroke="#1c2126" stroke-linecap="round" stroke-linejoin="round" stroke-width="2"/><path d="M108.23,212v23.7H93V212.2L68.88,167.07H85.34l15.56,28.76,15.47-28.76h16Z" fill="#1c2126"/><path d="M176.88,210.48c0,15.11-9.68,26.51-26.59,26.51s-26.69-11.4-26.69-26.51,9.68-26.5,26.69-26.5S176.88,195.38,176.88,210.48Zm-38.53,0c0,8.33,4.61,13.66,11.94,13.66s11.85-5.33,11.85-13.66-4.52-13.65-11.85-13.65S138.35,202.16,138.35,210.48Z" fill="#1c2126"/><path d="M229.79,185.16v50.56H215.68v-5.43c-2.8,4-7.68,6.7-13.84,6.7-11.12,0-18.36-8.32-18.36-23.25V185.16h14.11v26c0,7.69,3.53,12,9,12s9.13-4.62,9.13-11.94V185.16Z" fill="#1c2126"/><path d="M273.39,184v14.84h-5.7c-8.32,0-12.12,4-12.12,12.57v24.33H241.46V185.16h14.11V192C258.74,187.06,264.62,184,273.39,184Z" fill="#1c2126"/><path d="M361.13,205.15H346.29a9.73,9.73,0,0,0-10.13-9c-6.69,0-11.31,5.16-11.31,14.29,0,9,4.62,14.21,11.31,14.21a9.72,9.72,0,0,0,10.13-8.87h14.84c-.37,11.76-10.41,21.17-25,21.17-16.28,0-26.05-10.59-26.05-26.51s9.77-26.5,26.05-26.5C350.72,184,360.76,193.3,361.13,205.15Z" fill="#1c2126"/><path d="M419.65,210.48c0,15.11-9.68,26.51-26.6,26.51s-26.68-11.4-26.68-26.51,9.68-26.5,26.68-26.5S419.65,195.38,419.65,210.48Zm-38.54,0c0,8.33,4.62,13.66,11.94,13.66s11.85-5.33,11.85-13.66-4.52-13.65-11.85-13.65S381.11,202.16,381.11,210.48Z" fill="#1c2126"/><path d="M476.9,163.81v71.91H462.79v-6c-3.35,4.52-8.59,7.24-15.65,7.24-13.11,0-22.34-9.41-22.34-26.51S434,184,447.14,184c7.06,0,12.3,2.71,15.65,7.15V163.81Zm-14.11,46.31c0-9-4.7-14-11.58-14s-11.67,5.16-11.67,14,4.89,14,11.67,14S462.79,219.08,462.79,210.12Z" fill="#1c2126"/><path d="M536.33,214.65H499c.72,6.06,4.79,10.22,11.49,10.22,5,0,8.32-1.63,9.86-4.53h15c-2.89,9.5-12.12,16.28-25.05,16.28-15.83,0-26.24-10.4-26.24-26.14s10.23-26.23,26.15-26.23,26.14,10.31,26.14,26.05ZM499.15,205H521.4c-1-5.7-5.43-9-11.21-9A11.1,11.1,0,0,0,499.15,205Z" fill="#1c2126"/><path d="M555.41,174.12c0,7.33-3.71,12.76-12.21,15.47l-1.9.63-2.17-6.69L541,183c4-1.18,6.06-2.9,6.87-5.52a10,10,0,0,1-1.72.18c-4.7,0-7.69-3.35-7.69-7.24,0-4.34,3.17-7.5,8-7.5C552.06,162.91,555.41,167.34,555.41,174.12Z" fill="#1c2126"/><path d="M598.28,201.08H584.17c-.09-3.26-3-5.79-7.78-5.79-4.61,0-7,1.72-7,4.07s1.08,3.53,6.78,4.52l6.79,1.09c13,2.17,16.46,8.05,16.46,15.74,0,9.85-7.87,16.1-22.16,16.1-15.38,0-23.07-7.33-23.07-17.46h14c.09,3.71,3,6.24,9.59,6.24,5,0,7.51-1.72,7.51-4.25,0-2.72-1.45-4.07-7.33-5.07l-7-1.17c-11.94-1.9-15.65-7.87-15.65-15.11,0-9,7.32-15.83,21.34-15.83S598.28,191.49,598.28,201.08Z" fill="#1c2126"/><path d="M123.7,293.7v53.63c0,11-6.79,17.92-17.82,17.92H81.82V353.31h21.8c4.07,0,6-2,6-6v-10.4C106.24,341.28,101,344,93.85,344c-13.12,0-22.44-9.14-22.44-25.87s9.32-25.6,22.44-25.6c7.14,0,12.39,2.62,15.73,7.06V293.7Zm-14.12,24.06c0-8.23-4.7-13.12-11.66-13.12-6.79,0-11.76,4.89-11.76,13.12,0,8.41,5,13.47,11.76,13.47C104.88,331.23,109.58,326.08,109.58,317.76Z" fill="#1c2126"/><path d="M183.67,319c0,15.11-9.68,26.51-26.6,26.51s-26.68-11.4-26.68-26.51,9.68-26.5,26.68-26.5S183.67,303.92,183.67,319Zm-38.54,0c0,8.32,4.61,13.66,11.94,13.66s11.85-5.34,11.85-13.66-4.52-13.66-11.85-13.66S145.13,310.7,145.13,319Z" fill="#1c2126"/><path d="M221.11,305.64H210.17v38.62H196.05V305.64h-9.49V293.7h9.49V277.78h14.12V293.7h10.94Z" fill="#1c2126"/><path d="M338.7,315.68v28.58H324.59V318.12c0-8.32-3.35-12.66-8.69-12.66-5.15,0-8.68,4.7-8.68,12.57v26.23H293.11V318.12c0-8.32-3.35-12.66-8.69-12.66-5.15,0-8.68,4.7-8.68,12.57v26.23H261.63V293.7h14.11v5.51a15.17,15.17,0,0,1,13.12-6.69c6.51,0,11.67,2.71,14.92,8a17.79,17.79,0,0,1,15.29-8C330.92,292.52,338.7,301.38,338.7,315.68Z" fill="#1c2126"/><path d="M397.94,323.18H360.58c.73,6.06,4.8,10.23,11.49,10.23,5,0,8.32-1.63,9.86-4.53h15c-2.89,9.5-12.12,16.28-25.05,16.28-15.83,0-26.23-10.4-26.23-26.14s10.22-26.23,26.14-26.23,26.14,10.31,26.14,26Zm-37.18-9.67H383c-1-5.7-5.42-9-11.21-9A11.1,11.1,0,0,0,360.76,313.51Z" fill="#1c2126"/><path d="M486.76,315.68v28.58H472.65V318.39c0-7.78-3.71-12.12-9.41-12.12s-9.68,4.7-9.68,12l-.09-.63v26.59H439.36V272.35h14.11v27c2.81-4.07,7.87-6.87,14.38-6.87C479.34,292.52,486.76,300.75,486.76,315.68Z" fill="#1c2126"/><path d="M547.09,319c0,15.11-9.68,26.51-26.59,26.51s-26.69-11.4-26.69-26.51,9.68-26.5,26.69-26.5S547.09,303.92,547.09,319Zm-38.53,0c0,8.32,4.61,13.66,11.94,13.66s11.85-5.34,11.85-13.66-4.53-13.66-11.85-13.66S508.56,310.7,508.56,319Z" fill="#1c2126"/><path d="M605.52,319c0,15.11-9.68,26.51-26.59,26.51s-26.69-11.4-26.69-26.51,9.68-26.5,26.69-26.5S605.52,303.92,605.52,319ZM567,319c0,8.32,4.61,13.66,11.94,13.66s11.85-5.34,11.85-13.66-4.53-13.66-11.85-13.66S567,310.7,567,319Z" fill="#1c2126"/><path d="M644.87,344.26l-18.1-19.72v19.72H612.66V272.35h14.11v40.52l17.46-19H660.6L638,318.48l23.34,25.78Z" fill="#1c2126"/><path d="M711.17,323.18H673.81c.72,6.06,4.79,10.23,11.48,10.23,5,0,8.33-1.63,9.86-4.53h15c-2.89,9.5-12.12,16.28-25.06,16.28-15.82,0-26.23-10.4-26.23-26.14S669.1,292.79,685,292.79s26.15,10.31,26.15,26ZM674,313.51h22.25c-1-5.7-5.43-9-11.22-9A11.09,11.09,0,0,0,674,313.51Z" fill="#1c2126"/><path d="M768.51,272.35v71.91H754.4v-6c-3.35,4.52-8.59,7.24-15.65,7.24-13.12,0-22.34-9.41-22.34-26.51s9.22-26.5,22.34-26.5c7.06,0,12.3,2.71,15.65,7.15V272.35ZM754.4,318.66c0-9-4.7-14-11.58-14s-11.67,5.16-11.67,14,4.89,14,11.67,14S754.4,327.62,754.4,318.66Z" fill="#1c2126"/><rect y="595" width="1200" height="35" fill="#fff"/><rect y="499.19" width="1200" height="95.81" fill="#fff"/><line y1="499.19" x2="1200" y2="499.19" fill="none" stroke="#1c2126" stroke-miterlimit="10"/><line y1="595" x2="1200" y2="595" fill="none" stroke="#1c2126" stroke-miterlimit="10"/><path d="M24.24,559.45V540.69H17.85v-2.37H33.21v2.37H26.82v18.76Z" fill="#1c2126"/><path d="M44.08,559.89c-4.81,0-7.75-3.45-7.75-9.3v-3.41c0-5.85,2.94-9.3,7.75-9.3s7.74,3.45,7.74,9.3v3.41C51.82,556.44,48.88,559.89,44.08,559.89Zm5.14-9.31v-3.39c0-4.41-1.94-6.87-5.14-6.87s-5.15,2.46-5.15,6.87v3.39c0,4.41,1.94,6.87,5.15,6.87S49.22,555,49.22,550.58Z" fill="#1c2126"/><path d="M60,545.58a2.65,2.65,0,1,1,2.65,2.71A2.7,2.7,0,0,1,60,545.58Zm0,11.25a2.65,2.65,0,1,1,2.65,2.71A2.68,2.68,0,0,1,60,556.83Z" fill="#1c2126"/><line x1="582.03" y1="498.72" x2="582.03" y2="595" fill="none" stroke="#1c2126" stroke-miterlimit="10"/><path d="M1129.73,614.6a4.72,4.72,0,1,1-4.71-4.69A4.43,4.43,0,0,1,1129.73,614.6Zm-6.82,0A2.12,2.12,0,0,0,1125,617c1.3,0,2.1-.94,2.1-2.41s-.8-2.42-2.1-2.42S1122.91,613.12,1122.91,614.6Z" fill="#1c2126"/><path d="M1138.54,612.93H1136c0-.57-.52-1-1.37-1s-1.25.3-1.25.72.19.62,1.2.8l1.2.19c2.3.39,2.91,1.43,2.91,2.79,0,1.74-1.39,2.85-3.92,2.85-2.72,0-4.08-1.3-4.08-3.09h2.48c0,.65.53,1.1,1.7,1.1.88,0,1.33-.3,1.33-.75s-.26-.72-1.3-.9l-1.25-.21c-2.11-.33-2.77-1.39-2.77-2.67,0-1.58,1.3-2.8,3.78-2.8S1138.54,611.24,1138.54,612.93Z" fill="#1c2126"/><path d="M1147.49,612.93H1145c0-.57-.53-1-1.38-1s-1.25.3-1.25.72.2.62,1.2.8l1.2.19c2.31.39,2.92,1.43,2.92,2.79,0,1.74-1.39,2.85-3.92,2.85-2.72,0-4.09-1.3-4.09-3.09h2.49c0,.65.52,1.1,1.69,1.1.88,0,1.33-.3,1.33-.75s-.26-.72-1.3-.9l-1.24-.21c-2.12-.33-2.77-1.39-2.77-2.67,0-1.58,1.29-2.8,3.77-2.8S1147.49,611.24,1147.49,612.93Z" fill="#1c2126"/><path d="M1152,617.64a1.6,1.6,0,1,1-1.6-1.62A1.55,1.55,0,0,1,1152,617.64Z" fill="#1c2126"/><path d="M1156.27,606.34v12.72h-2.5V606.34Z" fill="#1c2126"/><path d="M1167,614.6a4.71,4.71,0,1,1-4.7-4.69A4.42,4.42,0,0,1,1167,614.6Zm-6.82,0a2.13,2.13,0,0,0,2.12,2.41c1.29,0,2.1-.94,2.1-2.41s-.81-2.42-2.1-2.42A2.13,2.13,0,0,0,1160.15,614.6Z" fill="#1c2126"/><path d="M1176.59,610.12l-3.27,8.94h-3l-3.29-8.94h2.64l2.17,6.32,2.16-6.32Z" fill="#1c2126"/><path d="M1186.06,615.33h-6.61a1.92,1.92,0,0,0,2,1.81,1.83,1.83,0,0,0,1.75-.8h2.66a5,5,0,1,1,.17-1.77Zm-6.58-1.71h3.94a1.87,1.87,0,0,0-2-1.58A2,2,0,0,0,1179.48,613.62Z" fill="#1c2126"/><path d="M605.51,559.45V538.32H618v2.37H608.1v7.25h9v2.3h-9v9.21Z" fill="#1c2126"/><path d="M625.54,551v8.42H623V538.32h7.09c4.19,0,6.81,2.43,6.81,6.35A5.91,5.91,0,0,1,633,550.5l4.3,9h-2.91L630.41,551Zm0-2.18h4.19c2.92,0,4.56-1.48,4.56-4.12s-1.61-4.11-4.44-4.11h-4.31Z" fill="#1c2126"/><path d="M648.15,559.89c-4.81,0-7.75-3.45-7.75-9.3v-3.41c0-5.85,2.94-9.3,7.75-9.3s7.75,3.45,7.75,9.3v3.41C655.9,556.44,653,559.89,648.15,559.89Zm5.14-9.31v-3.39c0-4.41-1.93-6.87-5.14-6.87s-5.14,2.46-5.14,6.87v3.39c0,4.41,1.93,6.87,5.14,6.87S653.29,555,653.29,550.58Z" fill="#1c2126"/><path d="M661.38,559.45h-2.3V538.32H662l4.64,13.12h.19l4.62-13.12h2.9v21.13H672v-8.11l.13-8.56H672l-4.25,11.71h-2l-4.25-11.71h-.19l.14,8.56Z" fill="#1c2126"/><path d="M682.59,545.58a2.65,2.65,0,1,1,2.65,2.71A2.7,2.7,0,0,1,682.59,545.58Zm0,11.25a2.65,2.65,0,1,1,2.65,2.71A2.68,2.68,0,0,1,682.59,556.83Z" fill="#1c2126"/><path d="M27.75,606.92v12.14H25v-2.13l-4.7-5.41v7.54H17.63V606.92H20L25,612.77v-5.85Z" fill="#1c2126"/><path d="M38.37,615.33H31.76a1.92,1.92,0,0,0,2,1.81,1.81,1.81,0,0,0,1.74-.8H38.2a4.35,4.35,0,0,1-4.44,2.88,4.63,4.63,0,1,1,0-9.26,4.32,4.32,0,0,1,4.62,4.61Zm-6.58-1.71h3.94a1.87,1.87,0,0,0-2-1.58A2,2,0,0,0,31.79,613.62Z" fill="#1c2126"/><path d="M44.93,612.23H43v6.83H40.5v-6.83H38.82v-2.11H40.5V607.3H43v2.82h1.93Z" fill="#1c2126"/><path d="M48.9,606.34v12.72H46.4V606.34Z" fill="#1c2126"/><path d="M53.62,607.59a1.5,1.5,0,1,1-3,0,1.5,1.5,0,1,1,3,0Zm-.24,2.32v9.15h-2.5v-9.15a2.06,2.06,0,0,0,1.25.37A2,2,0,0,0,53.38,609.91Z" fill="#1c2126"/><path d="M58.55,609v1.09h1.87v2.11H58.55v6.83h-2.5v-6.83H54.61v-2.11h1.44V609a2.62,2.62,0,0,1,2.88-2.83h1.75v1.94H59.44A.78.78,0,0,0,58.55,609Z" fill="#1c2126"/><path d="M70.71,610.12l-5,11.89H63.33l1.38-3.28-3.49-8.61h2.51L66,615.69l2.32-5.57Z" fill="#1c2126"/><path d="M109.4,613c0,3.92-2.34,6.22-5.8,6.22s-5.79-2.3-5.79-6.22,2.33-6.25,5.79-6.25S109.4,609.08,109.4,613Zm-8.79,0c0,2.35,1.3,3.66,3,3.66s3-1.31,3-3.66-1.32-3.67-3-3.67S100.61,610.63,100.61,613Z" fill="#1c2126"/><path d="M120.32,610.53h-2.8c0-.89-.67-1.52-1.85-1.52s-1.7.55-1.7,1.23.38,1,1.49,1.3l1.37.32c2.64.59,3.73,1.73,3.73,3.73s-1.6,3.63-4.73,3.63-4.9-1.61-4.9-4h2.8a1.88,1.88,0,0,0,2.11,1.84c1.27,0,1.92-.63,1.92-1.44s-.38-1.09-1.57-1.35l-1.32-.27c-2.77-.56-3.72-1.87-3.72-3.73,0-2.06,1.6-3.54,4.58-3.54S120.32,608.29,120.32,610.53Z" fill="#1c2126"/><path d="M131.38,610.53h-2.8c0-.89-.67-1.52-1.86-1.52-1,0-1.69.55-1.69,1.23s.38,1,1.48,1.3l1.38.32c2.64.59,3.73,1.73,3.73,3.73s-1.6,3.63-4.74,3.63-4.9-1.61-4.9-4h2.81a1.88,1.88,0,0,0,2.11,1.84c1.26,0,1.92-.63,1.92-1.44s-.39-1.09-1.57-1.35l-1.33-.27c-2.77-.56-3.71-1.87-3.71-3.73,0-2.06,1.6-3.54,4.58-3.54S131.38,608.29,131.38,610.53Z" fill="#1c2126"/><path d="M91.16,610.11a3.62,3.62,0,0,0-1-1.22,3.91,3.91,0,0,0-2.49-1.14,3.62,3.62,0,0,0-2.51,1.37,8,8,0,0,0-1.41,2.21,6.53,6.53,0,0,0-2.39-2.73,4.09,4.09,0,0,0-3.58-.35,3,3,0,0,0-1.82,3,5,5,0,0,0,2,2.88q3.32,3,6.72,5.87l5-5.64C90.67,613.14,91.8,611.56,91.16,610.11Z" fill="#ff6b60" stroke="#ff6b60" stroke-linejoin="round"/></svg>