<?xml version="1.0" encoding="UTF-8"?><svg xmlns="http://www.w3.org/2000/svg" viewBox="0 0 1200 630"><path id="b" fill="#30c8c9" stroke-width="0" d="M0 0h1200v498.72H0z"/><g id="d"><g stroke-width="0" opacity=".3"><path fill="#30c8c9" d="M1064.89 462.68c-2.73 0-5.68-.24-8.77-.72-4.52-.71-15.28-2.33-30.17-4.58-58.6-8.85-180.4-27.25-207.49-32.77-3.57-.73-7.42-1.35-11.15-1.95-19.12-3.08-40.75-6.56-51.38-27.75-.19-.21-.37-.43-.55-.65-8.11-10.14-9.86-24.94-5.69-47.99 1-5.5 2.03-12.04 3.13-18.97 3.83-24.24 8.61-54.4 17.27-79.7 9.02-26.34 20.61-42.5 35.25-49.05-8.86-12.64-21.57-36.33-13.54-59.89 8.68-25.43 38.64-42.68 89.05-51.26 15.46-2.63 31.72-3.97 48.33-3.97 27.65 0 55.83 3.76 81.51 10.87h.02c32.9 7.64 61.9 19.6 83.87 34.6 22.66 15.48 36.7 33.43 40.6 51.93 3.29 15.62.81 38.97-28.41 63.16 4.64 7.31 11.81 20.72 14.56 37.19 3.33 19.98-10.76 90.56-21.66 141.92-.66 3.11-1.19 5.59-1.54 7.31-3.11 15.02-9.7 32.27-33.26 32.27Z"/><path fill="#bffde7" d="M929.19 89.42c27.08 0 54.59 3.63 80.05 10.7.04 0 .08.02.12.03 65.59 15.21 112.68 47.37 119.96 81.92 4.44 21.08-6.15 42.05-30.63 60.68 2.69 3.65 13.36 19.15 16.74 39.42 3.53 21.17-15.39 110.38-21.61 139.69-.66 3.12-1.19 5.61-1.55 7.34-2.99 14.43-8.52 27.48-27.38 27.48-2.39 0-5-.21-7.84-.65-4.54-.71-15.33-2.34-30.26-4.59-58.49-8.84-180.21-27.23-207.12-32.71-3.69-.75-7.61-1.38-11.4-1.99-18.76-3.02-38.17-6.14-47.3-25.2-.3-.34-.61-.67-.89-1.03-6.93-8.67-8.31-21.98-4.47-43.17 1-5.54 2.05-12.13 3.15-19.1 7.57-47.87 18.96-119.82 56.56-126.52-5.43-6.5-26.9-34.51-17.82-61.12 7.91-23.19 36.3-39.1 84.38-47.28 15.28-2.6 31.22-3.88 47.32-3.88m-.01-12.02c-16.94 0-33.54 1.36-49.34 4.05-25.28 4.3-45.84 10.82-61.1 19.38-16.72 9.37-27.7 21.43-32.62 35.86-7.78 22.81 1.77 45.35 10.65 59.71-5.29 3.42-10.18 8.04-14.63 13.84-6.84 8.91-12.64 20.48-17.74 35.38-8.83 25.8-13.65 56.24-17.52 80.71-1.09 6.89-2.12 13.41-3.11 18.84-4.51 24.91-2.38 41.19 6.91 52.81.07.09.14.17.2.25 12.12 23.36 36.1 27.21 55.45 30.33 3.67.59 7.46 1.2 10.91 1.9 27.23 5.55 149.14 23.96 207.72 32.81l.15.02c14.84 2.24 25.56 3.86 30.06 4.56 3.39.53 6.65.8 9.69.8 31.47 0 37.24-27.89 39.13-37.05.35-1.71.88-4.18 1.53-7.28 17.71-83.51 24.4-127.97 21.71-144.16-2.42-14.51-8.07-26.78-12.74-34.97 9.32-8.37 16.38-17.26 21.04-26.5 6.44-12.75 8.28-25.92 5.5-39.14-4.22-20.04-19.12-39.28-43.09-55.64-22.56-15.41-52.23-27.67-85.81-35.47-26.16-7.23-54.84-11.05-82.97-11.05Z"/></g><g stroke-width="0" opacity=".3"><path fill="#30c8c9" d="M638.65 220.67c-4.58 0-8.99-1.42-12.73-4.12a21.712 21.712 0 0 1-8.81-14.23l-13.42-82.29c-.72-4.42-.05-8.88 1.8-12.81a14.118 14.118 0 0 1-5.35-8.97L598.5 88.2c-1.26-7.73 4-15.05 11.73-16.31l110.44-18c.76-.12 1.54-.19 2.31-.19 2.98 0 5.84.93 8.28 2.68 3.08 2.22 5.11 5.5 5.72 9.24l1.64 10.05c.6 3.69-.29 7.29-2.23 10.18 3.04 3.17 5.06 7.17 5.78 11.6l13.42 82.29a21.73 21.73 0 0 1-3.83 16.29c-3.41 4.74-8.46 7.87-14.22 8.81l-95.33 15.54c-1.17.19-2.37.29-3.55.29Z"/><path fill="#bffde7" d="M722.99 59.71c1.71 0 3.36.53 4.77 1.55a8.19 8.19 0 0 1 3.31 5.34l1.64 10.05c.73 4.45-2.29 8.66-6.73 9.41 1.37.5 2.68 1.17 3.89 2.05 3.44 2.47 5.71 6.14 6.39 10.32l13.42 82.29c.68 4.18-.31 8.38-2.78 11.82a15.735 15.735 0 0 1-10.32 6.39l-95.33 15.54c-.86.14-1.73.21-2.59.21-3.3 0-6.5-1.03-9.23-2.99a15.735 15.735 0 0 1-6.39-10.32l-13.42-82.29c-.96-5.88 1.47-11.54 5.84-15a8.089 8.089 0 0 1-6.08-1.44 8.19 8.19 0 0 1-3.31-5.34l-1.64-10.05c-.73-4.47 2.31-8.69 6.78-9.42l110.44-18c.45-.07.9-.11 1.34-.11m0-12.01c-1.09 0-2.19.09-3.27.27l-110.44 18c-11 1.79-18.48 12.2-16.69 23.19l1.64 10.05c.58 3.56 2.07 6.83 4.3 9.55a27.818 27.818 0 0 0-.75 12.23l13.42 82.29c1.2 7.35 5.18 13.78 11.22 18.13 4.77 3.43 10.39 5.25 16.24 5.25 1.51 0 3.03-.12 4.52-.37l95.33-15.54c7.35-1.2 13.79-5.18 18.13-11.23 4.35-6.04 6.08-13.41 4.88-20.75L748.1 96.49a27.78 27.78 0 0 0-4.6-11.41c1.22-3.21 1.63-6.76 1.05-10.37l-1.64-10.05c-.87-5.33-3.76-10-8.14-13.15a20.072 20.072 0 0 0-11.78-3.81Z"/></g><path fill="#b7790b" stroke="#1c2126" stroke-linejoin="round" stroke-width="2" d="M840.99 214.71s-77.33-83.94 64.78-108.14c35.01-5.96 70.84-13 103.37-5.46 97.71 22.67 162.08 86 88.15 141.43 0 0 13.29 16.62 17.15 39.78 3.86 23.16-19.35 128.3-23.15 146.66-3.8 18.36-11.42 29.58-34.09 26.04-22.67-3.54-203.71-30.45-237.34-37.29-21.43-4.36-47.29-4.15-58.05-26.74-3.65-7.66 15.71-15.77 18.51-31.21 7.71-42.57 16.61-139.82 60.67-145.08Z"/><path fill="#1c2126" stroke-width="0" d="M93.84 235.72c-.66 0-1.21-.21-1.63-.63-.42-.42-.63-.96-.63-1.63v-19.9L70.41 175.3a9.25 9.25 0 0 0-.18-.5c-.06-.15-.09-.32-.09-.5 0-.48.19-.92.59-1.31.39-.39.83-.59 1.31-.59h9.68c.78 0 1.42.21 1.9.63.48.42.81.81 1 1.18l14.2 24.87 14.2-24.87c.18-.36.51-.75 1-1.18.48-.42 1.14-.63 1.99-.63h9.59c.54 0 1 .2 1.36.59.36.39.54.83.54 1.31 0 .18-.02.35-.04.5-.03.15-.11.32-.23.5l-21.17 38.26v19.9c0 .66-.21 1.21-.63 1.63s-.97.63-1.63.63h-9.95ZM148.57 236.62c-5.01 0-9.2-.83-12.57-2.49s-5.96-4.02-7.73-7.1c-1.78-3.08-2.76-6.66-2.94-10.76-.06-1.21-.09-2.58-.09-4.12s.03-2.88.09-4.02c.18-4.16 1.21-7.76 3.08-10.81 1.87-3.04 4.49-5.4 7.87-7.06 3.38-1.66 7.48-2.49 12.3-2.49s8.83.83 12.21 2.49c3.38 1.66 6 4.01 7.87 7.06s2.92 6.65 3.17 10.81c.06 1.15.09 2.49.09 4.02s-.03 2.91-.09 4.12c-.24 4.1-1.25 7.69-3.03 10.76-1.78 3.08-4.36 5.44-7.73 7.1-3.38 1.66-7.54 2.49-12.48 2.49Zm0-10.03c2.95 0 5.17-.9 6.65-2.71 1.48-1.81 2.31-4.49 2.49-8.05.06-.9.09-2.11.09-3.62s-.03-2.71-.09-3.62c-.18-3.5-1.01-6.16-2.49-8-1.48-1.84-3.69-2.76-6.65-2.76s-5.19.92-6.69 2.76c-1.51 1.84-2.35 4.51-2.53 8-.06.9-.09 2.11-.09 3.62s.03 2.71.09 3.62c.18 3.56 1.03 6.24 2.53 8.05 1.51 1.81 3.74 2.71 6.69 2.71ZM198.68 236.62c-3.5 0-6.59-.8-9.27-2.4-2.68-1.6-4.78-3.92-6.29-6.96-1.51-3.04-2.26-6.74-2.26-11.08v-25.24c0-.66.23-1.21.68-1.63.45-.42.98-.63 1.58-.63h9.68c.6 0 1.12.21 1.54.63.42.42.63.97.63 1.63v24.69c0 6.75 2.95 10.13 8.86 10.13 2.83 0 5.08-.89 6.74-2.67 1.66-1.78 2.49-4.27 2.49-7.46v-24.69c0-.66.21-1.21.63-1.63.42-.42.96-.63 1.63-.63h9.59c.6 0 1.12.21 1.54.63.42.42.63.97.63 1.63v42.51c0 .66-.21 1.21-.63 1.63s-.94.63-1.54.63h-8.95c-.6 0-1.12-.21-1.54-.63-.42-.42-.63-.96-.63-1.63v-3.53c-1.57 2.17-3.59 3.83-6.06 4.97-2.47 1.14-5.49 1.72-9.04 1.72ZM238.11 193.03c-.54 0-.98-.18-1.31-.54-.33-.36-.47-.87-.41-1.54l2.62-16.46c.12-.78.42-1.48.9-2.08.48-.6 1.21-.9 2.17-.9h9.41c.48 0 .89.18 1.22.54.33.36.5.75.5 1.18s-.09.78-.27 1.09l-6.24 16.28c-.24.6-.59 1.16-1.04 1.67-.45.51-1.16.77-2.12.77h-5.43ZM261.81 235.72c-.6 0-1.13-.21-1.58-.63-.45-.42-.68-.96-.68-1.63v-42.51c0-.6.23-1.13.68-1.58.45-.45.98-.68 1.58-.68h8.86c.66 0 1.21.23 1.63.68.42.45.63.98.63 1.58v3.62c1.51-1.87 3.38-3.32 5.61-4.34 2.23-1.02 4.76-1.54 7.6-1.54h3.89c.66 0 1.21.21 1.63.63.42.42.63.97.63 1.63v7.87c0 .6-.21 1.12-.63 1.54s-.97.63-1.63.63h-7.87c-2.71 0-4.81.75-6.29 2.26-1.48 1.51-2.22 3.59-2.22 6.24v23.97c0 .66-.23 1.21-.68 1.63-.45.42-.98.63-1.58.63h-9.59ZM319.52 236.62c-6.93 0-12.44-1.93-16.51-5.79-4.07-3.86-6.23-9.47-6.47-16.82v-3.8c.24-4.7 1.3-8.73 3.17-12.07 1.87-3.35 4.49-5.91 7.87-7.69 3.38-1.78 7.33-2.67 11.85-2.67 5.12 0 9.38 1.04 12.75 3.12 3.38 2.08 5.92 4.92 7.64 8.5 1.72 3.59 2.58 7.7 2.58 12.35v2.08c0 .6-.21 1.13-.63 1.58-.42.45-.96.68-1.63.68h-29.49v.63c.06 1.93.42 3.69 1.09 5.29.66 1.6 1.64 2.88 2.94 3.84 1.3.97 2.88 1.45 4.75 1.45 1.45 0 2.65-.23 3.62-.68.96-.45 1.76-.96 2.4-1.54.63-.57 1.1-1.07 1.4-1.49.54-.66.98-1.07 1.31-1.22.33-.15.83-.23 1.49-.23h9.59c.54 0 1.01.18 1.4.54.39.36.56.81.5 1.36-.06 1.03-.56 2.25-1.49 3.66-.94 1.42-2.31 2.8-4.12 4.16-1.81 1.36-4.06 2.49-6.74 3.39-2.68.9-5.77 1.36-9.27 1.36Zm-8.87-28.85h17.64v-.27c0-2.11-.35-3.96-1.04-5.56-.69-1.6-1.7-2.85-3.03-3.75-1.33-.9-2.93-1.36-4.79-1.36s-3.45.45-4.75 1.36c-1.3.9-2.29 2.16-2.99 3.75-.69 1.6-1.04 3.45-1.04 5.56v.27ZM373.69 235.72c-.6 0-1.13-.21-1.58-.63-.45-.42-.68-.96-.68-1.63v-42.51c0-.66.23-1.21.68-1.63.45-.42.98-.63 1.58-.63h8.41c.66 0 1.21.21 1.63.63.42.42.63.97.63 1.63v3.08c1.27-1.69 2.97-3.13 5.11-4.34s4.69-1.84 7.64-1.9c6.93-.12 11.73 2.53 14.38 7.96 1.39-2.35 3.38-4.27 5.97-5.74 2.59-1.48 5.46-2.22 8.59-2.22s5.97.71 8.5 2.13c2.53 1.42 4.55 3.59 6.06 6.51 1.51 2.93 2.26 6.68 2.26 11.26v25.78c0 .66-.23 1.21-.68 1.63-.45.42-.98.63-1.58.63h-8.96c-.66 0-1.21-.21-1.63-.63-.42-.42-.63-.96-.63-1.63v-25.05c0-2.47-.35-4.4-1.04-5.79-.69-1.39-1.63-2.4-2.8-3.03-1.18-.63-2.49-.95-3.93-.95-1.27 0-2.49.32-3.66.95-1.18.63-2.14 1.64-2.89 3.03s-1.13 3.32-1.13 5.79v25.05c0 .66-.21 1.21-.63 1.63s-.94.63-1.54.63h-8.95c-.67 0-1.21-.21-1.63-.63-.42-.42-.63-.96-.63-1.63v-25.05c0-2.47-.36-4.4-1.08-5.79-.72-1.39-1.67-2.4-2.85-3.03a8.031 8.031 0 0 0-3.84-.95c-1.27 0-2.49.32-3.66.95-1.18.63-2.14 1.64-2.89 3.03s-1.13 3.29-1.13 5.7v25.15c0 .66-.21 1.21-.63 1.63s-.97.63-1.63.63h-9.14ZM460.71 252.91c-.48 0-.92-.18-1.31-.54-.39-.36-.59-.81-.59-1.36 0-.12.03-.29.09-.5.06-.21.15-.47.27-.77l7.06-16.91-17.37-40.97c-.18-.48-.27-.87-.27-1.18.06-.54.27-1.01.63-1.4.36-.39.81-.59 1.36-.59h8.86c.72 0 1.27.2 1.63.59.36.39.63.8.81 1.22l11.22 27.95 11.49-27.95c.24-.48.54-.9.9-1.27.36-.36.93-.54 1.72-.54h8.59c.54 0 1.01.2 1.4.59.39.39.59.83.59 1.31 0 .3-.09.72-.27 1.27l-25.6 59.24c-.24.48-.56.9-.95 1.27-.39.36-.98.54-1.76.54h-8.5ZM96.29 345.16c-3.38 0-6.57-.42-9.59-1.27-3.02-.84-5.7-2.13-8.05-3.84a19.295 19.295 0 0 1-5.61-6.38c-1.39-2.53-2.11-5.49-2.17-8.86 0-.54.18-1.01.54-1.4.36-.39.81-.59 1.36-.59h10.4c.84 0 1.48.2 1.9.59.42.39.75 1.01 1 1.85.36 1.87 1.02 3.42 1.99 4.66a8.01 8.01 0 0 0 3.66 2.67c1.48.54 3.12.81 4.93.81 3.44 0 6.06-1.1 7.87-3.3 1.81-2.2 2.71-5.35 2.71-9.45v-27.59H77.2c-.6 0-1.12-.21-1.54-.63-.42-.42-.63-.96-.63-1.63v-7.6c0-.66.21-1.21.63-1.63.42-.42.93-.63 1.54-.63h42.6c.66 0 1.21.21 1.63.63.42.42.63.96.63 1.63v37.81c0 5.19-1.09 9.57-3.26 13.16s-5.19 6.32-9.04 8.19c-3.86 1.87-8.35 2.8-13.48 2.8ZM147.57 345.16c-3.2 0-6.06-.62-8.59-1.85s-4.55-2.91-6.06-5.02c-1.51-2.11-2.26-4.46-2.26-7.05 0-4.28 1.73-7.66 5.2-10.13 3.47-2.47 8.03-4.16 13.7-5.07l11.85-1.72v-1.63c0-2.35-.54-4.16-1.63-5.43-1.09-1.27-2.99-1.9-5.7-1.9-1.99 0-3.57.39-4.75 1.18-1.18.78-2.1 1.81-2.76 3.08-.48.78-1.21 1.18-2.17 1.18h-8.59c-.66 0-1.18-.19-1.54-.59a1.7 1.7 0 0 1-.45-1.4c0-1.02.39-2.23 1.18-3.62.78-1.39 1.99-2.76 3.62-4.12 1.63-1.36 3.72-2.49 6.29-3.39 2.56-.9 5.65-1.36 9.27-1.36 3.8 0 7.06.45 9.77 1.36 2.71.9 4.9 2.17 6.56 3.8 1.66 1.63 2.86 3.51 3.62 5.65.75 2.14 1.13 4.45 1.13 6.92V342c0 .66-.21 1.21-.63 1.63-.42.42-.94.63-1.54.63h-8.96c-.6 0-1.12-.21-1.54-.63-.42-.42-.63-.96-.63-1.63v-3.35c-.79 1.15-1.84 2.22-3.17 3.21-1.33 1-2.91 1.79-4.75 2.4-1.84.6-4 .9-6.47.9Zm3.62-9.4c1.99 0 3.77-.42 5.34-1.27 1.57-.84 2.8-2.14 3.71-3.89s1.36-3.95 1.36-6.6v-1.54l-8.41 1.36c-3.2.54-5.55 1.36-7.05 2.44-1.51 1.08-2.26 2.41-2.26 3.98 0 1.15.35 2.13 1.04 2.94.69.81 1.6 1.45 2.71 1.9 1.12.45 2.31.68 3.57.68ZM188.36 344.26c-.6 0-1.13-.21-1.58-.63-.45-.42-.68-.96-.68-1.63v-42.51c0-.66.23-1.21.68-1.63.45-.42.98-.63 1.58-.63h8.41c.66 0 1.21.21 1.63.63.42.42.63.97.63 1.63v3.08c1.27-1.69 2.97-3.13 5.11-4.34s4.69-1.84 7.64-1.9c6.93-.12 11.73 2.53 14.38 7.96 1.39-2.35 3.38-4.27 5.97-5.74 2.59-1.48 5.46-2.22 8.59-2.22s5.97.71 8.5 2.13c2.53 1.42 4.55 3.59 6.06 6.51 1.51 2.93 2.26 6.68 2.26 11.26v25.78c0 .66-.23 1.21-.68 1.63-.45.42-.98.63-1.58.63h-8.96c-.66 0-1.21-.21-1.63-.63-.42-.42-.63-.96-.63-1.63v-25.05c0-2.47-.35-4.4-1.04-5.79-.69-1.39-1.63-2.4-2.8-3.03-1.18-.63-2.49-.95-3.93-.95-1.27 0-2.49.32-3.66.95-1.18.63-2.14 1.64-2.89 3.03s-1.13 3.32-1.13 5.79v25.05c0 .66-.21 1.21-.63 1.63s-.94.63-1.54.63h-8.95c-.67 0-1.21-.21-1.63-.63-.42-.42-.63-.96-.63-1.63v-25.05c0-2.47-.36-4.4-1.08-5.79-.72-1.39-1.67-2.4-2.85-3.03a8.031 8.031 0 0 0-3.84-.95c-1.27 0-2.49.32-3.66.95-1.18.63-2.14 1.64-2.89 3.03s-1.13 3.29-1.13 5.7v25.15c0 .66-.21 1.21-.63 1.63s-.97.63-1.63.63h-9.14ZM292.11 358.64c-4.1 0-7.72-.8-10.85-2.4-3.14-1.6-5.77-4.1-7.91-7.51-2.14-3.41-3.75-7.79-4.84-13.16-1.09-5.37-1.63-11.79-1.63-19.27s.54-13.98 1.63-19.31c1.08-5.34 2.7-9.69 4.84-13.07 2.14-3.38 4.78-5.86 7.91-7.46 3.13-1.6 6.75-2.4 10.85-2.4.6 0 1.11.23 1.54.68.42.45.63.98.63 1.58v6.51c0 .6-.21 1.12-.63 1.54-.42.42-.9.63-1.45.63-2.47.12-4.54.86-6.2 2.22-1.66 1.36-2.99 3.33-3.98 5.92-.99 2.59-1.7 5.82-2.12 9.68-.42 3.86-.63 8.35-.63 13.48s.21 9.63.63 13.52c.42 3.89 1.13 7.13 2.12 9.72 1 2.59 2.32 4.57 3.98 5.92 1.66 1.36 3.72 2.09 6.2 2.22.54 0 1.02.21 1.45.63s.63.93.63 1.54v6.51c0 .6-.21 1.13-.63 1.58-.42.45-.94.68-1.54.68ZM317.43 345.16c-3.74 0-6.95-.44-9.63-1.31-2.68-.87-4.85-1.94-6.51-3.21-1.66-1.27-2.89-2.55-3.71-3.84-.81-1.3-1.25-2.4-1.31-3.3-.06-.66.15-1.21.63-1.63.48-.42.96-.63 1.45-.63h8.77c.24 0 .44.03.59.09.15.06.35.21.59.45.78.54 1.58 1.16 2.4 1.85.81.69 1.79 1.28 2.94 1.76 1.14.48 2.53.72 4.16.72 1.99 0 3.66-.41 5.02-1.22s2.04-1.97 2.04-3.48c0-1.08-.3-1.99-.9-2.71-.6-.72-1.78-1.39-3.53-1.99-1.75-.6-4.34-1.27-7.78-1.99-3.26-.72-6.03-1.69-8.32-2.89-2.29-1.21-4.01-2.73-5.16-4.57-1.15-1.84-1.72-4.05-1.72-6.65 0-2.35.74-4.61 2.22-6.78 1.48-2.17 3.66-3.96 6.56-5.38 2.89-1.42 6.51-2.13 10.85-2.13 3.32 0 6.23.41 8.73 1.22s4.6 1.84 6.29 3.08c1.69 1.24 2.97 2.5 3.84 3.8.87 1.3 1.34 2.43 1.4 3.39.06.66-.12 1.21-.54 1.63-.42.42-.9.63-1.45.63h-8.05c-.3 0-.57-.06-.81-.18-.24-.12-.45-.27-.63-.45-.72-.42-1.46-.96-2.22-1.63-.75-.66-1.64-1.23-2.67-1.72-1.03-.48-2.35-.72-3.98-.72-1.93 0-3.42.44-4.48 1.31-1.06.87-1.58 1.98-1.58 3.3 0 .85.27 1.63.81 2.35s1.64 1.39 3.3 1.99c1.66.6 4.24 1.24 7.73 1.9 4.1.72 7.36 1.81 9.77 3.26 2.41 1.45 4.13 3.12 5.16 5.02 1.02 1.9 1.54 3.93 1.54 6.11 0 2.83-.83 5.35-2.49 7.55-1.66 2.2-4.12 3.92-7.37 5.16s-7.24 1.85-11.94 1.85ZM370.44 344.26c-3.74 0-6.92-.62-9.54-1.85-2.62-1.24-4.63-3.15-6.02-5.74-1.39-2.59-2.08-5.85-2.08-9.77v-18.99h-7.05c-.66 0-1.21-.21-1.63-.63a2.09 2.09 0 0 1-.63-1.54v-6.24c0-.66.21-1.21.63-1.63.42-.42.96-.63 1.63-.63h7.05v-14.92c0-.66.23-1.21.68-1.63.45-.42.98-.63 1.58-.63h8.95c.6 0 1.12.21 1.54.63.42.42.63.97.63 1.63v14.92h11.31c.66 0 1.21.21 1.63.63.42.42.63.97.63 1.63v6.24c0 .6-.21 1.12-.63 1.54-.42.42-.97.63-1.63.63h-11.31v17.91c0 2.29.42 4.09 1.27 5.38.84 1.3 2.26 1.94 4.25 1.94h6.6c.66 0 1.21.21 1.63.63.42.42.63.94.63 1.54V342c0 .66-.21 1.21-.63 1.63s-.96.63-1.63.63h-7.87ZM402.18 345.16c-3.2 0-6.06-.62-8.59-1.85s-4.55-2.91-6.06-5.02c-1.51-2.11-2.26-4.46-2.26-7.05 0-4.28 1.73-7.66 5.2-10.13 3.47-2.47 8.03-4.16 13.7-5.07l11.85-1.72v-1.63c0-2.35-.54-4.16-1.63-5.43-1.09-1.27-2.99-1.9-5.7-1.9-1.99 0-3.57.39-4.75 1.18-1.18.78-2.1 1.81-2.76 3.08-.48.78-1.21 1.18-2.17 1.18h-8.59c-.66 0-1.18-.19-1.54-.59a1.7 1.7 0 0 1-.45-1.4c0-1.02.39-2.23 1.18-3.62.78-1.39 1.99-2.76 3.62-4.12 1.63-1.36 3.72-2.49 6.29-3.39 2.56-.9 5.65-1.36 9.27-1.36 3.8 0 7.06.45 9.77 1.36 2.71.9 4.9 2.17 6.56 3.8 1.66 1.63 2.86 3.51 3.62 5.65.75 2.14 1.13 4.45 1.13 6.92V342c0 .66-.21 1.21-.63 1.63-.42.42-.94.63-1.54.63h-8.96c-.6 0-1.12-.21-1.54-.63-.42-.42-.63-.96-.63-1.63v-3.35c-.79 1.15-1.84 2.22-3.17 3.21-1.33 1-2.91 1.79-4.75 2.4-1.84.6-4 .9-6.47.9Zm3.62-9.4c1.99 0 3.77-.42 5.34-1.27 1.57-.84 2.8-2.14 3.71-3.89s1.36-3.95 1.36-6.6v-1.54l-8.41 1.36c-3.2.54-5.55 1.36-7.05 2.44-1.51 1.08-2.26 2.41-2.26 3.98 0 1.15.35 2.13 1.04 2.94.69.81 1.6 1.45 2.71 1.9 1.12.45 2.31.68 3.57.68ZM461.79 345.16c-4.46 0-8.37-.81-11.71-2.44s-5.99-3.99-7.92-7.1c-1.93-3.1-2.98-6.83-3.17-11.17-.06-.96-.09-2.18-.09-3.66s.03-2.7.09-3.66c.18-4.4 1.22-8.15 3.12-11.26 1.9-3.1 4.54-5.47 7.91-7.1 3.38-1.63 7.3-2.44 11.76-2.44 3.98 0 7.39.56 10.22 1.67 2.83 1.12 5.16 2.53 6.96 4.25 1.81 1.72 3.17 3.48 4.07 5.29.9 1.81 1.39 3.41 1.45 4.79.06.66-.15 1.21-.63 1.63-.48.42-1.03.63-1.63.63h-9.68c-.66 0-1.16-.15-1.49-.45-.33-.3-.65-.78-.95-1.45-.78-2.11-1.84-3.62-3.17-4.52-1.33-.9-2.98-1.36-4.97-1.36-2.71 0-4.84.87-6.38 2.62s-2.37 4.46-2.49 8.14c-.12 2.35-.12 4.49 0 6.42.12 3.74.95 6.45 2.49 8.14 1.54 1.69 3.66 2.53 6.38 2.53 2.11 0 3.8-.45 5.07-1.36s2.29-2.41 3.08-4.52c.3-.66.62-1.14.95-1.45.33-.3.83-.45 1.49-.45h9.68c.6 0 1.14.21 1.63.63.48.42.69.96.63 1.63-.06 1.03-.36 2.23-.91 3.62-.54 1.39-1.37 2.8-2.49 4.25-1.12 1.45-2.55 2.79-4.3 4.02-1.75 1.24-3.88 2.23-6.38 2.99-2.5.75-5.38 1.13-8.64 1.13ZM495.53 344.26c-.67 0-1.21-.21-1.63-.63-.42-.42-.63-.96-.63-1.63v-59.7c0-.66.21-1.21.63-1.63.42-.42.96-.63 1.63-.63h8.86c.6 0 1.13.21 1.58.63.45.42.68.97.68 1.63v30.57l13.84-14.11c.48-.42.92-.78 1.31-1.09.39-.3 1.01-.45 1.85-.45h10.31c.54 0 1.01.2 1.4.59.39.39.59.86.59 1.4 0 .24-.06.51-.18.81-.12.3-.33.54-.63.72l-17.46 17.55 19.72 22.52c.48.48.72.96.72 1.45 0 .54-.18 1.01-.54 1.4-.36.39-.85.59-1.45.59h-10.49c-.9 0-1.55-.15-1.94-.45-.39-.3-.83-.66-1.31-1.08l-15.74-17.73v17c0 .66-.23 1.21-.68 1.63-.45.42-.98.63-1.58.63h-8.86ZM541.83 358.64c-.6 0-1.13-.23-1.58-.68s-.68-.98-.68-1.58v-6.51c0-.6.23-1.12.68-1.54.45-.42.95-.63 1.49-.63 2.47-.12 4.54-.86 6.2-2.22 1.66-1.36 2.97-3.33 3.93-5.92s1.66-5.83 2.08-9.72c.42-3.89.63-8.4.63-13.52s-.21-9.62-.63-13.48c-.42-3.86-1.12-7.08-2.08-9.68-.97-2.59-2.28-4.57-3.93-5.92-1.66-1.36-3.72-2.09-6.2-2.22-.54 0-1.04-.21-1.49-.63-.45-.42-.68-.93-.68-1.54v-6.51c0-.6.23-1.13.68-1.58s.98-.68 1.58-.68c4.1 0 7.72.8 10.85 2.4 3.13 1.6 5.77 4.09 7.91 7.46 2.14 3.38 3.75 7.73 4.84 13.07 1.08 5.34 1.63 11.77 1.63 19.31s-.54 13.9-1.63 19.27c-1.09 5.37-2.7 9.75-4.84 13.16-2.14 3.41-4.78 5.91-7.91 7.51-3.14 1.6-6.75 2.4-10.85 2.4Z"/><path fill="#fff6d0" stroke="#1c2126" stroke-linejoin="round" stroke-width="2" d="M817.25 202.43s-77.33-83.94 64.78-108.14c136.44-23.23 290.97 61.41 191.52 135.98 0 0 13.29 16.62 17.15 39.78s-19.35 128.3-23.15 146.66c-3.8 18.36-11.42 29.58-34.09 26.04-22.67-3.54-203.71-30.45-237.34-37.29s-47.25-15.38-39.54-57.95c7.71-42.57 16.61-139.82 60.67-145.08Z"/><path fill="#ff6b60" stroke="#1c2126" stroke-miterlimit="10" stroke-width="2" d="M1042.15 346.45c-3.5-9.85-10.75-17.61-20.64-21.23 27.99-10.97 49.77-41.63 27.52-68.61 12.19-11.88 14.48-32.07 5.53-46.4 10.94-17.97-.45-43.82-21.17-47.87-28.06-7.19-56.26-14.39-85.11-17.56-29.77-2.87-62.96-6.55-89.32 10.51-19.42 12.88-33.41 40.2-22.73 62.55 1.48 4.24 5.6 9.46 9.04 12.5-46.07 24.01-55.3 76.72 1.45 92.88-31.72 25.21-17.57 69.85 21.58 75.62 28.76 4.69 55.96-9.39 83.97-13.63 10.73-2.05 21.66-3.42 32.58-3.07 8.37.35 15.05 6.68 23.43 6.37 22.22 3.63 41.24-21.25 33.88-42.06Z"/><path fill="#ff6b60" stroke="#1c2126" stroke-linejoin="round" stroke-width="2" d="M1121.66 104.46c.23-1.03.06-2.1-.18-3.13-.42-1.8-1.13-3.67-2.63-4.74-1.58-1.13-3.7-1.14-5.6-.75-1.7.34-3.33.99-4.83 1.86.41-2.39.33-4.91-.62-7.14-.96-2.26-2.89-4.17-5.28-4.74-2.39-.57-5.16.42-6.36 2.57-1.15 2.05-.72 4.59-.25 6.9 1.18 5.76 2.46 11.5 3.83 17.21l14.55-3.12c3.06-.66 6.69-1.85 7.37-4.91ZM1083.38 67c-.54-1.09-1.48-1.93-2.44-2.67-1.68-1.31-3.67-2.46-5.8-2.33-2.23.14-4.14 1.67-5.56 3.39-1.27 1.54-2.27 3.3-2.97 5.17-1.37-2.44-3.27-4.64-5.74-5.95-2.5-1.33-5.62-1.63-8.17-.41-2.55 1.23-4.32 4.13-3.84 6.92.46 2.67 2.69 4.64 4.79 6.36 5.24 4.3 10.55 8.51 15.93 12.64 3.59-4.45 7.17-8.91 10.76-13.36 2.26-2.81 4.65-6.52 3.04-9.75Z"/><path fill="none" stroke="#1c2126" stroke-linecap="round" stroke-miterlimit="10" stroke-width="2" d="M914.56 186.89s10.16-10.49 20.66 0M949.99 186.89s10.16-10.49 20.66 0"/><path fill="#7a122d" stroke="#1c2126" stroke-linecap="round" stroke-linejoin="round" stroke-width="2" d="M920.6 199.16c.37 11.09 10.2 19.99 22.3 19.99s21.94-8.89 22.3-19.99h-44.61Z"/><rect width="126.31" height="113.1" x="616.49" y="93.35" fill="#bffde7" stroke="#1c2126" stroke-linejoin="round" stroke-width="2" rx="14.86" ry="14.86" transform="rotate(-9.26 679.595 149.87)"/><path fill="#ff6b60" stroke="#1c2126" stroke-linejoin="round" stroke-width="2" d="m618.19 132.65 10.66 65.37c1.02 6.27 6.93 10.52 13.2 9.5l91.55-14.93c6.27-1.02 10.52-6.93 9.5-13.2l-10.66-65.37-114.25 18.63Z"/><rect width="126.31" height="24.6" x="605.41" y="69.65" fill="#ffb916" stroke="#1c2126" stroke-linejoin="round" stroke-width="2" rx="7.21" ry="7.21" transform="rotate(-9.26 668.506 81.918)"/><path fill="#fff6d0" stroke="#1c2126" stroke-linejoin="round" stroke-width="2" d="m634.09 122.507 80.043-13.05 10.53 64.577-80.044 13.05z"/><rect width="4.8" height="89.7" x="627.81" y="110.21" fill="#fff" stroke-width="0" rx="2.4" ry="2.4" transform="rotate(-9.26 630.143 155.062)"/><path fill="#db4648" stroke="#1c2126" stroke-linejoin="round" stroke-width="2" d="M695.23 138.82c-.65-1.02-1.67-1.76-2.7-2.4-1.81-1.12-3.91-2.06-6.02-1.71-2.2.37-3.94 2.09-5.17 3.96-1.1 1.67-1.9 3.53-2.41 5.46-1.62-2.28-3.75-4.27-6.34-5.31-2.63-1.05-5.76-1.03-8.17.46s-3.86 4.56-3.08 7.29c.74 2.61 3.16 4.33 5.43 5.81 5.67 3.72 11.4 7.35 17.18 10.88 3.1-4.81 6.19-9.62 9.29-14.43 1.95-3.03 3.93-6.97 1.99-10.02Z"/><path fill="#fff" stroke-width="0" d="M0 595h1200v35H0zM0 499.19h1200V595H0z"/><path fill="none" stroke="#1c2126" stroke-miterlimit="10" d="M0 499.19h1200M0 595h1200"/><path fill="#1c2126" stroke-width="0" d="M24.24 559.45v-18.76h-6.39v-2.37H33.2v2.37h-6.39v18.76h-2.58ZM44.08 559.89c-4.8 0-7.75-3.46-7.75-9.3v-3.41c0-5.84 2.94-9.3 7.75-9.3s7.75 3.46 7.75 9.3v3.41c0 5.84-2.94 9.3-7.75 9.3Zm5.14-9.31v-3.38c0-4.41-1.93-6.87-5.14-6.87s-5.14 2.46-5.14 6.87v3.38c0 4.41 1.93 6.87 5.14 6.87s5.14-2.46 5.14-6.87ZM59.97 545.58c0-1.48 1.2-2.71 2.65-2.71s2.65 1.23 2.65 2.71-1.2 2.71-2.65 2.71-2.65-1.23-2.65-2.71Zm0 11.25c0-1.48 1.2-2.7 2.65-2.7s2.65 1.22 2.65 2.7-1.2 2.71-2.65 2.71-2.65-1.22-2.65-2.71Z"/><path fill="none" stroke="#1c2126" stroke-miterlimit="10" d="M582.03 498.72V595"/><path fill="#1c2126" stroke-width="0" d="M605.51 559.45v-21.14h12.47v2.37h-9.87v7.25h9.02v2.3h-9.02v9.21h-2.59ZM625.54 551.03v8.42h-2.55v-21.14h7.09c4.19 0 6.81 2.43 6.81 6.36 0 2.77-1.54 5.04-3.94 5.83l4.31 8.95h-2.92l-3.94-8.42h-4.86Zm0-2.18h4.19c2.92 0 4.56-1.48 4.56-4.12s-1.61-4.12-4.44-4.12h-4.31v8.23ZM648.15 559.89c-4.8 0-7.75-3.46-7.75-9.3v-3.41c0-5.84 2.94-9.3 7.75-9.3s7.75 3.46 7.75 9.3v3.41c0 5.84-2.94 9.3-7.75 9.3Zm5.14-9.31v-3.38c0-4.41-1.93-6.87-5.14-6.87s-5.14 2.46-5.14 6.87v3.38c0 4.41 1.93 6.87 5.14 6.87s5.14-2.46 5.14-6.87ZM661.18 559.45h-2.31v-21.14h2.86l4.88 13.08h.19l4.86-13.08h2.86v21.14h-2.31v-8.1l.15-8.57h-.19l-4.45 11.7h-2.02l-4.45-11.7h-.19l.15 8.57v8.1ZM682.59 545.58c0-1.48 1.2-2.71 2.65-2.71s2.65 1.23 2.65 2.71-1.2 2.71-2.65 2.71-2.65-1.23-2.65-2.71Zm0 11.25c0-1.48 1.2-2.7 2.65-2.7s2.65 1.22 2.65 2.7-1.2 2.71-2.65 2.71-2.65-1.22-2.65-2.71ZM12.77 618.41c-.12 0-.21-.04-.26-.11-.06-.07-.08-.17-.06-.27l2.22-10.42a.469.469 0 0 1 .46-.4h6.95c.12 0 .2.04.26.11.05.07.07.17.05.29l-.24 1.12c-.02.12-.08.21-.16.28-.08.07-.19.1-.3.1h-5.14l-.66 3.04h4.82c.12 0 .2.04.26.11.05.07.07.17.05.29l-.22 1.12c-.02.11-.08.2-.17.27-.09.07-.19.11-.31.11H15.5l-.85 3.97a.47.47 0 0 1-.16.27c-.08.08-.19.11-.3.11h-1.41ZM25.41 618.57c-.81 0-1.49-.15-2.02-.45s-.92-.72-1.15-1.26c-.23-.54-.29-1.18-.17-1.9.03-.19.08-.43.13-.7s.12-.51.17-.7c.19-.74.49-1.37.89-1.91.4-.54.91-.96 1.54-1.26.62-.3 1.36-.45 2.22-.45s1.49.15 2.02.45c.54.3.93.72 1.16 1.26.23.54.29 1.18.18 1.91-.04.19-.09.43-.14.7s-.11.51-.16.7c-.19.73-.48 1.36-.87 1.9-.39.54-.9.96-1.52 1.26s-1.38.45-2.26.45Zm.16-1.59c.58 0 1.06-.18 1.46-.54.4-.36.69-.88.87-1.58.04-.16.09-.37.14-.62s.1-.46.13-.62c.12-.69.07-1.22-.14-1.58-.21-.36-.61-.54-1.18-.54s-1.05.18-1.46.54c-.41.36-.69.88-.86 1.58-.04.16-.09.37-.15.62s-.1.46-.12.62c-.12.69-.07 1.22.14 1.58s.6.54 1.18.54ZM31.53 618.41a.31.31 0 0 1-.25-.11c-.06-.07-.08-.17-.06-.27l1.6-7.54a.482.482 0 0 1 .47-.4h1.3c.11 0 .19.04.25.11.06.08.08.17.06.29l-.14.66c.26-.34.58-.6.98-.78s.88-.27 1.44-.27h.78c.12 0 .2.04.26.11.05.08.07.17.05.27l-.24 1.15c-.02.11-.08.2-.17.27-.09.07-.19.11-.3.11h-1.25c-.51 0-.94.14-1.29.42-.35.28-.57.68-.68 1.19l-.94 4.4c-.02.11-.07.2-.16.27-.08.08-.19.11-.3.11h-1.39ZM44.76 618.41c-.73 0-1.29-.11-1.7-.34-.4-.22-.67-.56-.78-1s-.11-.99.03-1.66l.79-3.63h-1.26a.31.31 0 0 1-.25-.11c-.06-.07-.08-.17-.06-.29l.19-.91c.02-.11.08-.2.17-.27.09-.07.2-.11.31-.11h1.25l.58-2.66c.02-.11.07-.2.16-.27.08-.07.18-.11.29-.11h1.3c.12 0 .21.04.26.11.06.08.08.17.06.27l-.58 2.66h2c.11 0 .19.04.25.11.06.08.08.17.06.27l-.19.91c-.02.12-.08.21-.17.29a.43.43 0 0 1-.3.11h-2l-.74 3.47c-.06.29-.1.54-.1.74 0 .21.05.37.17.48.12.11.33.17.62.17h1.15c.12 0 .2.04.26.11.05.08.07.17.05.27l-.21.99a.47.47 0 0 1-.16.27.43.43 0 0 1-.3.11h-1.14ZM48.07 618.41a.31.31 0 0 1-.25-.11c-.06-.07-.08-.17-.06-.27l2.26-10.59c.02-.11.08-.2.16-.27s.18-.11.29-.11h1.44c.11 0 .19.04.25.11.06.08.08.17.06.27l-.78 3.65c.34-.34.72-.62 1.14-.83.42-.21.93-.32 1.53-.32.69 0 1.26.15 1.7.44.44.29.75.71.92 1.24.17.53.18 1.17.02 1.92l-.96 4.5a.47.47 0 0 1-.16.27.43.43 0 0 1-.3.11h-1.44a.31.31 0 0 1-.25-.11c-.06-.07-.08-.17-.06-.27l.93-4.4c.14-.62.11-1.1-.08-1.46-.19-.35-.58-.53-1.17-.53-.36 0-.71.08-1.03.23a2.3 2.3 0 0 0-.84.68c-.23.3-.4.66-.5 1.07l-.93 4.4a.47.47 0 0 1-.16.27c-.09.08-.18.11-.29.11h-1.44ZM61.51 618.57c-.78 0-1.43-.16-1.95-.46-.52-.31-.87-.76-1.07-1.34-.2-.59-.23-1.3-.09-2.13.02-.11.05-.24.08-.41.03-.17.06-.3.1-.39.21-.81.54-1.51.99-2.09.45-.58.99-1.03 1.64-1.34s1.36-.47 2.14-.47c.86 0 1.55.18 2.06.54.51.36.84.85 1.01 1.49s.16 1.37 0 2.2l-.08.34c-.02.11-.08.2-.17.27-.09.08-.19.11-.31.11h-5.31a.63.63 0 0 1-.03.13c-.05.37-.05.72.02 1.03.06.31.21.57.42.76.22.19.51.29.87.29.3 0 .56-.04.79-.14.22-.09.41-.19.55-.31.14-.12.25-.21.33-.29.13-.13.22-.21.29-.23.06-.03.15-.04.27-.04h1.39c.1 0 .17.03.22.1.05.06.07.14.05.24-.05.17-.19.38-.4.62s-.5.49-.86.72c-.36.24-.79.43-1.29.58s-1.04.23-1.64.23Zm-.69-5.04h3.54l.02-.05c.1-.42.1-.78.02-1.1-.08-.31-.23-.56-.46-.74-.22-.18-.52-.26-.9-.26s-.71.09-1.02.26c-.3.18-.56.42-.76.74-.2.32-.35.68-.43 1.1l-.02.05ZM71.06 618.41a.31.31 0 0 1-.25-.11c-.06-.07-.08-.17-.06-.27l2.26-10.59c.02-.11.08-.2.16-.27s.18-.11.29-.11h1.33c.12 0 .21.04.26.11.06.08.08.17.06.27l-2.26 10.59a.47.47 0 0 1-.16.27.43.43 0 0 1-.3.11h-1.33ZM78.64 618.57c-.81 0-1.49-.15-2.02-.45-.54-.3-.92-.72-1.15-1.26-.23-.54-.29-1.18-.17-1.9.03-.19.08-.43.14-.7s.11-.51.17-.7c.19-.74.49-1.37.89-1.91.4-.54.91-.96 1.54-1.26.62-.3 1.36-.45 2.22-.45s1.49.15 2.02.45c.54.3.92.72 1.16 1.26.23.54.29 1.18.18 1.91-.04.19-.09.43-.14.7-.05.28-.11.51-.16.7-.19.73-.48 1.36-.87 1.9s-.9.96-1.52 1.26c-.62.3-1.38.45-2.26.45Zm.16-1.59c.58 0 1.06-.18 1.46-.54s.69-.88.87-1.58c.04-.16.09-.37.14-.62.05-.26.1-.46.13-.62.12-.69.07-1.22-.14-1.58-.21-.36-.61-.54-1.18-.54s-1.05.18-1.46.54c-.41.36-.69.88-.86 1.58-.04.16-.09.37-.15.62s-.1.46-.12.62c-.12.69-.07 1.22.14 1.58.21.36.6.54 1.18.54ZM86.92 618.41c-.16 0-.27-.04-.34-.12a.658.658 0 0 1-.13-.28l-1.42-7.49c-.02-.14 0-.25.08-.32s.18-.11.3-.11h1.22c.12 0 .21.03.27.1.06.06.11.15.13.27l.91 5.55 3.33-5.62c.03-.06.09-.13.17-.2s.18-.1.31-.1h1.39c.13 0 .22.05.26.14.05.1.03.21-.06.35L88.78 618c-.08.11-.16.2-.25.28-.09.08-.22.12-.38.12H86.9ZM96.66 618.57c-.78 0-1.43-.16-1.94-.46-.52-.31-.88-.76-1.07-1.34-.2-.59-.23-1.3-.09-2.13.02-.11.05-.24.08-.41.03-.17.06-.3.1-.39.21-.81.54-1.51.99-2.09.45-.58.99-1.03 1.64-1.34s1.36-.47 2.14-.47c.86 0 1.55.18 2.06.54.51.36.84.85 1.01 1.49.17.63.16 1.37 0 2.2l-.08.34c-.02.11-.08.2-.17.27-.09.08-.2.11-.31.11h-5.31a.63.63 0 0 1-.03.13c-.05.37-.05.72.02 1.03.06.31.21.57.42.76.22.19.51.29.87.29.3 0 .56-.04.78-.14.22-.09.41-.19.55-.31.14-.12.25-.21.33-.29.13-.13.22-.21.29-.23.06-.03.15-.04.27-.04h1.39c.1 0 .17.03.22.1.05.06.07.14.05.24-.05.17-.19.38-.4.62-.21.25-.5.49-.87.72-.36.24-.79.43-1.29.58s-1.04.23-1.64.23Zm-.69-5.04h3.54l.02-.05c.1-.42.1-.78.02-1.1-.08-.31-.23-.56-.46-.74-.22-.18-.52-.26-.9-.26s-.71.09-1.02.26-.56.42-.76.74c-.2.32-.35.68-.43 1.1l-.02.05ZM109.56 618.57c-.81 0-1.49-.15-2.02-.45s-.92-.72-1.15-1.26c-.23-.54-.29-1.18-.17-1.9.03-.19.08-.43.13-.7s.12-.51.17-.7c.19-.74.49-1.37.89-1.91.4-.54.91-.96 1.54-1.26.62-.3 1.36-.45 2.22-.45s1.49.15 2.02.45c.54.3.93.72 1.16 1.26.23.54.29 1.18.18 1.91-.04.19-.09.43-.14.7s-.11.51-.16.7c-.19.73-.48 1.36-.87 1.9-.39.54-.9.96-1.52 1.26s-1.38.45-2.26.45Zm.16-1.59c.58 0 1.06-.18 1.46-.54.4-.36.69-.88.87-1.58.04-.16.09-.37.14-.62s.1-.46.13-.62c.12-.69.07-1.22-.14-1.58-.21-.36-.61-.54-1.18-.54s-1.05.18-1.46.54c-.41.36-.69.88-.86 1.58-.04.16-.09.37-.15.62s-.1.46-.12.62c-.12.69-.07 1.22.14 1.58s.6.54 1.18.54ZM116.42 618.41c-.12 0-.21-.04-.26-.11-.06-.07-.08-.17-.06-.27l1.33-6.24h-1.29a.31.31 0 0 1-.25-.11c-.06-.07-.08-.17-.06-.29l.19-.91c.02-.11.08-.2.17-.27.09-.07.19-.11.31-.11h1.3l.13-.66c.15-.64.38-1.17.69-1.59.31-.42.7-.74 1.18-.95.48-.21 1.04-.32 1.68-.32h1.28c.12 0 .2.04.26.11.05.07.07.17.05.27l-.19.91c-.02.12-.08.21-.17.29s-.19.11-.3.11h-.96c-.43 0-.76.11-.99.32-.23.21-.39.52-.46.93l-.13.58h1.98c.12 0 .2.04.26.11.05.08.07.17.05.27l-.19.91c-.02.12-.08.21-.16.29a.43.43 0 0 1-.3.11h-1.98l-1.34 6.24c-.02.11-.07.2-.16.27-.08.08-.18.11-.29.11h-1.3ZM128.85 618.57c-.81 0-1.48-.15-2.02-.45s-.92-.72-1.15-1.26c-.23-.54-.29-1.18-.17-1.9.03-.19.08-.43.14-.7s.11-.51.17-.7c.19-.74.49-1.37.89-1.91.4-.54.91-.96 1.54-1.26.62-.3 1.36-.45 2.22-.45s1.49.15 2.02.45c.54.3.92.72 1.16 1.26.23.54.29 1.18.18 1.91-.04.19-.09.43-.14.7s-.11.51-.16.7c-.19.73-.48 1.36-.87 1.9-.39.54-.9.96-1.52 1.26s-1.38.45-2.26.45Zm.16-1.59c.58 0 1.06-.18 1.46-.54.4-.36.69-.88.87-1.58.04-.16.09-.37.14-.62.05-.26.1-.46.13-.62.12-.69.07-1.22-.14-1.58-.21-.36-.61-.54-1.18-.54s-1.05.18-1.46.54c-.41.36-.69.88-.86 1.58-.04.16-.09.37-.15.62s-.1.46-.12.62c-.12.69-.07 1.22.14 1.58s.6.54 1.18.54ZM134.32 621.45a.31.31 0 0 1-.25-.11c-.06-.07-.08-.17-.06-.27l2.26-10.59c.02-.11.08-.2.16-.27.09-.07.18-.11.29-.11H138c.11 0 .19.04.25.11.06.08.08.17.06.27l-.14.64c.33-.34.7-.62 1.1-.85.4-.22.93-.34 1.58-.34.55 0 1.03.09 1.42.28.39.19.7.45.92.79.22.34.37.74.44 1.21s.06.97-.04 1.53c-.02.18-.05.35-.09.51s-.08.34-.14.53c-.13.52-.31 1.02-.54 1.48-.24.46-.52.87-.86 1.22s-.73.62-1.18.81-.96.29-1.53.29c-.6 0-1.09-.1-1.47-.31-.38-.21-.66-.48-.83-.82l-.78 3.63a.47.47 0 0 1-.16.27.43.43 0 0 1-.3.11h-1.36Zm4.56-4.6c.43 0 .79-.1 1.09-.3.3-.2.55-.46.74-.78.2-.33.35-.67.47-1.05.05-.16.1-.32.13-.48.03-.16.06-.32.08-.48.05-.38.06-.74.02-1.06-.04-.32-.16-.58-.36-.78-.2-.2-.51-.3-.94-.3-.45 0-.83.1-1.16.3s-.59.46-.8.78c-.21.32-.36.64-.44.97-.05.19-.1.39-.14.61-.04.21-.08.42-.11.62-.05.32-.05.63 0 .92.06.29.2.54.43.73.23.19.56.29.98.29ZM148.13 618.57c-.78 0-1.43-.16-1.95-.46-.52-.31-.87-.76-1.07-1.34-.2-.59-.23-1.3-.09-2.13.02-.11.05-.24.08-.41.03-.17.06-.3.1-.39.21-.81.54-1.51.99-2.09.45-.58.99-1.03 1.64-1.34s1.36-.47 2.14-.47c.86 0 1.55.18 2.06.54.51.36.84.85 1.01 1.49s.16 1.37 0 2.2l-.08.34c-.02.11-.08.2-.17.27-.09.08-.19.11-.31.11h-5.31a.63.63 0 0 1-.03.13c-.05.37-.05.72.02 1.03.06.31.21.57.42.76.22.19.51.29.87.29.3 0 .56-.04.79-.14.22-.09.41-.19.55-.31.14-.12.25-.21.33-.29.13-.13.22-.21.29-.23.06-.03.15-.04.27-.04h1.39c.1 0 .17.03.22.1.05.06.07.14.05.24-.05.17-.19.38-.4.62s-.5.49-.86.72c-.36.24-.79.43-1.29.58s-1.04.23-1.64.23Zm-.69-5.04h3.54l.02-.05c.1-.42.1-.78.02-1.1-.08-.31-.23-.56-.46-.74-.22-.18-.52-.26-.9-.26s-.71.09-1.02.26c-.3.18-.56.42-.76.74-.2.32-.35.68-.43 1.1l-.02.05ZM153.96 618.41a.31.31 0 0 1-.25-.11c-.06-.07-.08-.17-.06-.27l1.6-7.55c.02-.11.08-.2.17-.27.09-.07.19-.11.3-.11h1.31c.11 0 .19.04.24.11.05.08.07.17.05.27l-.14.66c.34-.34.74-.63 1.21-.86s.99-.34 1.58-.34c.73 0 1.31.15 1.74.44.44.29.73.71.87 1.24s.14 1.17-.02 1.92l-.96 4.5c-.02.11-.07.2-.16.27a.43.43 0 0 1-.3.11h-1.41a.31.31 0 0 1-.25-.11c-.06-.07-.08-.17-.06-.27l.93-4.4c.14-.65.12-1.14-.04-1.48s-.56-.5-1.18-.5-1.12.18-1.54.53c-.42.35-.7.84-.84 1.46l-.93 4.4a.47.47 0 0 1-.16.27c-.09.08-.18.11-.29.11h-1.41ZM170.61 618.57c-.64 0-1.17-.08-1.59-.22-.42-.15-.75-.34-.99-.56s-.41-.45-.5-.67c-.09-.22-.12-.41-.1-.56.02-.12.08-.21.17-.28.09-.07.18-.1.28-.1h1.26s.08 0 .11.02c.03.01.06.04.1.1l.37.37c.13.13.29.24.49.33s.46.14.78.14c.42 0 .78-.08 1.1-.25.31-.17.5-.4.57-.71.04-.22.02-.41-.08-.54-.1-.14-.29-.26-.59-.38-.3-.11-.74-.23-1.33-.36-.58-.14-1.04-.31-1.38-.53-.35-.21-.58-.48-.71-.8-.12-.32-.13-.69-.04-1.12.08-.42.29-.81.62-1.19.33-.38.77-.69 1.32-.94s1.19-.37 1.93-.37c.58 0 1.06.07 1.46.22.4.14.72.32.96.54.24.21.41.43.5.65.1.22.13.41.1.57-.01.12-.06.21-.15.28-.09.07-.18.1-.28.1h-1.17a.32.32 0 0 1-.14-.03.272.272 0 0 1-.1-.08c-.11-.11-.22-.22-.33-.34-.11-.12-.26-.23-.43-.31-.18-.08-.42-.13-.74-.13-.41 0-.73.09-.98.26s-.41.4-.47.66c-.03.18-.01.34.06.47.07.13.25.26.54.38s.73.24 1.31.37c.69.13 1.22.32 1.59.57.37.25.61.54.72.86.11.33.13.69.04 1.08-.1.48-.33.91-.7 1.3-.37.38-.85.69-1.45.9-.6.22-1.3.33-2.11.33ZM179.52 618.57c-.81 0-1.49-.15-2.02-.45-.54-.3-.92-.72-1.15-1.26-.23-.54-.29-1.18-.17-1.9.03-.19.08-.43.14-.7s.11-.51.17-.7c.19-.74.49-1.37.89-1.91.4-.54.91-.96 1.54-1.26.62-.3 1.36-.45 2.22-.45s1.49.15 2.02.45c.54.3.92.72 1.16 1.26.23.54.29 1.18.18 1.91-.04.19-.09.43-.14.7-.05.28-.11.51-.16.7-.19.73-.48 1.36-.87 1.9s-.9.96-1.52 1.26c-.62.3-1.38.45-2.26.45Zm.16-1.59c.58 0 1.06-.18 1.46-.54s.69-.88.87-1.58c.04-.16.09-.37.14-.62.05-.26.1-.46.13-.62.12-.69.07-1.22-.14-1.58-.21-.36-.61-.54-1.18-.54s-1.05.18-1.46.54c-.41.36-.69.88-.86 1.58-.04.16-.09.37-.15.62s-.1.46-.12.62c-.12.69-.07 1.22.14 1.58.21.36.6.54 1.18.54ZM188.45 618.57c-.69 0-1.26-.15-1.7-.44-.44-.29-.73-.71-.87-1.25s-.14-1.18 0-1.91l.96-4.5c.02-.11.08-.2.17-.27.09-.07.19-.11.29-.11h1.41c.11 0 .19.04.24.11.05.08.07.17.05.27l-.93 4.4c-.1.44-.13.8-.09 1.1.04.29.16.52.36.66.2.15.52.22.94.22.58 0 1.08-.18 1.5-.53.43-.35.7-.84.83-1.46l.94-4.4c.02-.11.08-.2.17-.27.09-.07.19-.11.3-.11h1.39c.12 0 .2.04.26.11.05.08.07.17.05.27l-1.6 7.55c-.02.11-.07.2-.16.27-.08.08-.19.11-.3.11h-1.3a.31.31 0 0 1-.25-.11c-.06-.07-.08-.17-.06-.27l.13-.66c-.23.25-.47.46-.72.64s-.53.32-.85.42c-.32.1-.71.14-1.18.14ZM195.57 618.41a.31.31 0 0 1-.25-.11c-.06-.07-.08-.17-.06-.27l1.6-7.54a.482.482 0 0 1 .47-.4h1.3c.11 0 .19.04.25.11.06.08.08.17.06.29l-.14.66c.26-.34.58-.6.98-.78.39-.18.87-.27 1.44-.27h.78c.12 0 .2.04.26.11.05.08.07.17.05.27l-.24 1.15c-.02.11-.08.2-.17.27-.09.07-.19.11-.3.11h-1.25c-.51 0-.94.14-1.29.42-.35.28-.57.68-.68 1.19l-.94 4.4a.47.47 0 0 1-.16.27.43.43 0 0 1-.3.11h-1.39ZM205.46 618.57c-.71 0-1.34-.14-1.88-.43-.54-.29-.94-.71-1.19-1.26-.26-.55-.31-1.21-.18-1.99.03-.16.07-.37.13-.63.05-.26.1-.48.14-.65.29-1.16.82-2.07 1.6-2.71s1.77-.97 2.98-.97c.67 0 1.23.1 1.69.29.45.19.81.44 1.07.74s.44.61.54.93c.1.32.14.61.1.86 0 .12-.06.21-.14.28s-.17.1-.28.1h-1.46c-.11 0-.19-.03-.25-.08s-.09-.13-.1-.24c0-.43-.11-.74-.34-.93-.23-.19-.56-.29-.98-.29-.52 0-.99.17-1.4.5-.41.34-.71.87-.89 1.59-.04.19-.09.39-.13.59-.04.2-.08.38-.11.53-.12.74-.06 1.27.16 1.6.22.33.6.5 1.12.5.42 0 .79-.09 1.12-.26.33-.18.61-.48.83-.9.06-.12.13-.2.2-.25a.44.44 0 0 1 .26-.07h1.44c.11 0 .19.04.25.1s.07.16.04.28c-.07.24-.21.51-.41.82s-.47.62-.81.92c-.34.3-.77.54-1.29.74s-1.13.29-1.85.29ZM214.69 618.57c-.78 0-1.43-.16-1.95-.46-.52-.31-.87-.76-1.07-1.34-.2-.59-.23-1.3-.09-2.13.02-.11.05-.24.08-.41.03-.17.06-.3.1-.39.21-.81.54-1.51.99-2.09.45-.58.99-1.03 1.64-1.34s1.36-.47 2.14-.47c.86 0 1.55.18 2.06.54.51.36.84.85 1.01 1.49s.16 1.37 0 2.2l-.08.34c-.02.11-.08.2-.17.27-.09.08-.19.11-.31.11h-5.31a.63.63 0 0 1-.03.13c-.05.37-.05.72.02 1.03.06.31.21.57.42.76.22.19.51.29.87.29.3 0 .56-.04.79-.14.22-.09.41-.19.55-.31.14-.12.25-.21.33-.29.13-.13.22-.21.29-.23.06-.03.15-.04.27-.04h1.39c.1 0 .17.03.22.1.05.06.07.14.05.24-.05.17-.19.38-.4.62s-.5.49-.86.72c-.36.24-.79.43-1.29.58s-1.04.23-1.64.23Zm-.69-5.04h3.54l.02-.05c.1-.42.1-.78.02-1.1-.08-.31-.23-.56-.46-.74-.22-.18-.52-.26-.9-.26s-.71.09-1.02.26c-.3.18-.56.42-.76.74-.2.32-.35.68-.43 1.1l-.02.05ZM227.19 618.57c-.64 0-1.17-.08-1.59-.22-.42-.15-.75-.34-.99-.56-.24-.22-.41-.45-.5-.67s-.13-.41-.1-.56c.02-.12.08-.21.17-.28.09-.07.18-.1.28-.1h1.26s.08 0 .11.02c.03.01.06.04.1.1l.37.37c.13.13.29.24.49.33s.46.14.78.14c.42 0 .78-.08 1.1-.25s.5-.4.57-.71c.04-.22.02-.41-.08-.54s-.29-.26-.59-.38c-.3-.11-.74-.23-1.33-.36-.58-.14-1.04-.31-1.38-.53-.35-.21-.58-.48-.7-.8-.12-.32-.14-.69-.04-1.12.09-.42.29-.81.62-1.19.33-.38.77-.69 1.32-.94s1.19-.37 1.93-.37c.58 0 1.06.07 1.46.22.4.14.72.32.96.54.24.21.41.43.5.65s.13.41.1.57c-.01.12-.06.21-.15.28-.09.07-.18.1-.28.1h-1.17c-.05 0-.1-.01-.14-.03s-.07-.05-.1-.08c-.11-.11-.22-.22-.33-.34-.11-.12-.26-.23-.43-.31-.18-.08-.42-.13-.74-.13-.41 0-.73.09-.98.26s-.41.4-.47.66c-.03.18-.01.34.06.47.07.13.25.26.54.38s.73.24 1.31.37c.69.13 1.22.32 1.59.57.37.25.61.54.72.86.11.33.12.69.04 1.08-.1.48-.33.91-.7 1.3-.37.38-.85.69-1.45.9-.6.22-1.3.33-2.11.33ZM236.1 618.57c-.81 0-1.49-.15-2.02-.45-.54-.3-.92-.72-1.15-1.26s-.29-1.18-.17-1.9a18.749 18.749 0 0 1 .31-1.4c.19-.74.49-1.37.89-1.91.4-.54.91-.96 1.54-1.26.62-.3 1.36-.45 2.22-.45s1.48.15 2.02.45c.54.3.93.72 1.16 1.26.23.54.29 1.18.18 1.91-.04.19-.09.43-.14.7-.05.28-.11.51-.16.7-.19.73-.48 1.36-.87 1.9-.39.54-.9.96-1.52 1.26-.62.3-1.38.45-2.26.45Zm.16-1.59c.58 0 1.06-.18 1.46-.54s.69-.88.87-1.58c.04-.16.09-.37.14-.62.05-.26.1-.46.13-.62.12-.69.07-1.22-.14-1.58-.21-.36-.61-.54-1.18-.54s-1.05.18-1.46.54c-.4.36-.69.88-.86 1.58-.04.16-.09.37-.15.62s-.1.46-.12.62c-.12.69-.07 1.22.13 1.58.21.36.6.54 1.18.54ZM242.96 618.41c-.12 0-.21-.04-.26-.11-.06-.07-.08-.17-.06-.27l1.33-6.24h-1.3a.31.31 0 0 1-.25-.11c-.06-.07-.08-.17-.06-.29l.19-.91c.02-.11.08-.2.17-.27.09-.07.19-.11.31-.11h1.29l.13-.66c.15-.64.38-1.17.69-1.59.31-.42.7-.74 1.18-.95.48-.21 1.04-.32 1.68-.32h1.28c.12 0 .2.04.26.11.05.07.07.17.05.27l-.19.91c-.02.12-.08.21-.17.29s-.19.11-.3.11h-.96c-.43 0-.76.11-.99.32-.23.21-.39.52-.46.93l-.13.58h1.98c.12 0 .2.04.26.11.05.08.07.17.05.27l-.19.91c-.02.12-.07.21-.16.29-.08.08-.19.11-.3.11h-1.98l-1.34 6.24a.47.47 0 0 1-.16.27c-.09.08-.18.11-.29.11h-1.29ZM252.11 618.41c-.73 0-1.29-.11-1.7-.34-.4-.22-.67-.56-.78-1s-.11-.99.03-1.66l.79-3.63h-1.26a.31.31 0 0 1-.25-.11c-.06-.07-.08-.17-.06-.29l.19-.91c.02-.11.08-.2.17-.27.09-.07.2-.11.31-.11h1.25l.58-2.66c.02-.11.07-.2.16-.27.08-.07.18-.11.29-.11h1.3c.12 0 .21.04.26.11.06.08.08.17.06.27l-.58 2.66h2c.11 0 .19.04.25.11.06.08.08.17.06.27l-.19.91c-.02.12-.08.21-.17.29a.43.43 0 0 1-.3.11h-2l-.74 3.47c-.06.29-.1.54-.1.74 0 .21.05.37.17.48.12.11.33.17.62.17h1.15c.12 0 .2.04.26.11.05.08.07.17.05.27l-.21.99a.47.47 0 0 1-.16.27.43.43 0 0 1-.3.11h-1.14ZM257.27 618.41c-.15 0-.26-.04-.32-.11a.507.507 0 0 1-.11-.29l-.72-7.49c-.01-.12.02-.22.1-.3.08-.08.18-.13.32-.13h1.12c.13 0 .22.03.28.09.06.06.09.13.1.22l.46 5.3 2.75-5.25c.04-.08.11-.15.19-.23.09-.08.2-.12.34-.12h.83c.15 0 .25.04.3.12.05.08.09.16.1.23l.58 5.25 2.69-5.3c.03-.06.09-.13.16-.2s.18-.1.3-.1h1.3c.15 0 .24.05.26.14.03.1.01.2-.04.32l-3.86 7.46c-.06.12-.14.21-.23.29-.09.08-.21.11-.36.11h-1.06c-.15 0-.26-.04-.33-.11a.529.529 0 0 1-.14-.29l-.66-5.06-2.72 5.06a.85.85 0 0 1-.24.29c-.1.08-.22.11-.37.11h-1.04ZM271.09 618.57c-.55 0-1.02-.09-1.41-.28s-.69-.45-.9-.79c-.22-.34-.36-.74-.42-1.21-.06-.46-.05-.97.03-1.53.04-.19.08-.37.11-.52.03-.15.07-.33.11-.52.14-.53.32-1.03.55-1.49.23-.46.51-.86.85-1.21s.73-.62 1.18-.81c.45-.19.97-.29 1.56-.29.66 0 1.17.1 1.51.31s.62.46.81.76l.11-.53c.02-.11.08-.2.16-.27s.18-.11.29-.11h1.26c.11 0 .19.04.26.11.06.08.09.17.06.27l-1.62 7.55a.47.47 0 0 1-.16.27c-.09.08-.18.11-.29.11h-1.26c-.12 0-.21-.04-.26-.11-.06-.07-.08-.17-.06-.27l.13-.59c-.32.33-.67.6-1.06.82-.38.21-.9.32-1.55.32Zm.72-1.72c.45 0 .83-.1 1.15-.3.32-.2.58-.46.78-.78s.34-.64.42-.97c.05-.19.1-.4.14-.62s.08-.42.11-.62c.06-.32.07-.63.02-.92s-.19-.54-.41-.73c-.22-.19-.55-.29-.98-.29s-.77.1-1.06.3-.54.46-.73.78c-.19.32-.35.67-.46 1.06-.04.16-.08.32-.11.48s-.06.32-.08.48c-.05.38-.07.74-.04 1.06.03.32.14.58.34.78s.5.3.92.3ZM278.05 618.41a.31.31 0 0 1-.25-.11c-.06-.07-.08-.17-.06-.27l1.6-7.54a.482.482 0 0 1 .47-.4h1.29c.11 0 .19.04.25.11.06.08.08.17.06.29l-.14.66c.26-.34.58-.6.98-.78s.88-.27 1.44-.27h.78c.12 0 .2.04.26.11.05.08.07.17.05.27l-.24 1.15c-.02.11-.08.2-.17.27-.09.07-.19.11-.29.11h-1.25c-.51 0-.94.14-1.29.42-.35.28-.57.68-.68 1.19l-.94 4.4c-.02.11-.07.2-.16.27a.43.43 0 0 1-.3.11h-1.39ZM288.05 618.57c-.78 0-1.43-.16-1.95-.46-.52-.31-.87-.76-1.07-1.34-.2-.59-.23-1.3-.09-2.13.02-.11.05-.24.08-.41.03-.17.06-.3.1-.39.21-.81.54-1.51.99-2.09.45-.58.99-1.03 1.64-1.34s1.36-.47 2.14-.47c.86 0 1.55.18 2.06.54.51.36.84.85 1.01 1.49s.16 1.37 0 2.2l-.08.34c-.02.11-.08.2-.17.27-.09.08-.19.11-.31.11h-5.31a.63.63 0 0 1-.03.13c-.05.37-.05.72.02 1.03.06.31.21.57.42.76.22.19.51.29.87.29.3 0 .56-.04.79-.14.22-.09.41-.19.55-.31.14-.12.25-.21.33-.29.13-.13.22-.21.29-.23.06-.03.15-.04.27-.04h1.39c.1 0 .17.03.22.1.05.06.07.14.05.24-.05.17-.19.38-.4.62s-.5.49-.86.72c-.36.24-.79.43-1.29.58s-1.04.23-1.64.23Zm-.69-5.04h3.54l.02-.05c.1-.42.1-.78.02-1.1-.08-.31-.23-.56-.46-.74-.22-.18-.52-.26-.9-.26s-.71.09-1.02.26c-.3.18-.56.42-.76.74-.2.32-.35.68-.43 1.1l-.02.05ZM1125.56 618.57c-.89 0-1.63-.15-2.22-.44-.6-.29-1.05-.71-1.37-1.26-.32-.54-.49-1.18-.52-1.9-.01-.21-.02-.46-.02-.73s0-.51.02-.71c.03-.74.21-1.37.54-1.91.33-.54.79-.95 1.39-1.25.6-.29 1.32-.44 2.18-.44s1.56.15 2.16.44c.6.29 1.06.71 1.39 1.25.33.54.52 1.18.56 1.91.01.2.02.44.02.71s0 .51-.02.73c-.04.73-.22 1.36-.54 1.9-.32.54-.77.96-1.37 1.26-.6.29-1.33.44-2.21.44Zm0-1.78c.52 0 .91-.16 1.18-.48.26-.32.41-.79.44-1.42.01-.16.02-.37.02-.64s0-.48-.02-.64c-.03-.62-.18-1.09-.44-1.42s-.65-.49-1.18-.49-.92.16-1.18.49-.42.8-.45 1.42c0 .16-.02.37-.02.64s0 .48.02.64c.03.63.18 1.1.45 1.42.27.32.66.48 1.18.48ZM1134.64 618.57c-.66 0-1.23-.08-1.7-.23s-.86-.34-1.15-.57c-.29-.22-.51-.45-.66-.68-.14-.23-.22-.42-.23-.58-.01-.12.03-.21.11-.29.09-.07.17-.11.26-.11h1.55s.08 0 .1.02c.03.01.06.04.1.08.14.1.28.21.42.33.14.12.32.23.52.31.2.09.45.13.74.13.35 0 .65-.07.89-.22a.68.68 0 0 0 .36-.62c0-.19-.05-.35-.16-.48s-.31-.25-.62-.35c-.31-.11-.77-.22-1.38-.35-.58-.13-1.07-.3-1.47-.51-.41-.21-.71-.48-.91-.81-.2-.33-.3-.72-.3-1.18 0-.42.13-.82.39-1.2s.65-.7 1.16-.95c.51-.25 1.15-.38 1.92-.38.59 0 1.1.07 1.54.22.44.14.81.33 1.11.54s.53.44.68.67.24.43.25.6c.01.12-.02.21-.1.29-.07.08-.16.11-.26.11h-1.42c-.05 0-.1-.01-.14-.03s-.08-.05-.11-.08c-.13-.07-.26-.17-.39-.29a1.72 1.72 0 0 0-.47-.3c-.18-.08-.42-.13-.7-.13-.34 0-.61.08-.79.23a.724.724 0 0 0-.14 1c.1.13.29.25.58.35.29.11.75.22 1.37.34.73.13 1.3.32 1.73.58s.73.55.91.89.27.7.27 1.08c0 .5-.15.95-.44 1.34s-.73.69-1.3.91c-.58.22-1.28.33-2.11.33ZM1143.33 618.57c-.66 0-1.23-.08-1.7-.23s-.86-.34-1.15-.57c-.29-.22-.51-.45-.66-.68-.14-.23-.22-.42-.23-.58-.01-.12.03-.21.11-.29.09-.07.17-.11.26-.11h1.55s.08 0 .1.02c.03.01.06.04.1.08.14.1.28.21.42.33.14.12.32.23.52.31.2.09.45.13.74.13.35 0 .65-.07.89-.22a.68.68 0 0 0 .36-.62c0-.19-.05-.35-.16-.48s-.31-.25-.62-.35c-.31-.11-.77-.22-1.38-.35-.58-.13-1.07-.3-1.47-.51-.41-.21-.71-.48-.91-.81-.2-.33-.3-.72-.3-1.18 0-.42.13-.82.39-1.2s.65-.7 1.16-.95c.51-.25 1.15-.38 1.92-.38.59 0 1.1.07 1.54.22.44.14.81.33 1.11.54s.53.44.68.67.24.43.25.6c.01.12-.02.21-.1.29-.07.08-.16.11-.26.11h-1.42c-.05 0-.1-.01-.14-.03s-.08-.05-.11-.08c-.13-.07-.26-.17-.39-.29a1.72 1.72 0 0 0-.47-.3c-.18-.08-.42-.13-.7-.13-.34 0-.61.08-.79.23a.724.724 0 0 0-.14 1c.1.13.29.25.58.35.29.11.75.22 1.37.34.73.13 1.3.32 1.73.58s.73.55.91.89.27.7.27 1.08c0 .5-.15.95-.44 1.34s-.73.69-1.3.91c-.58.22-1.28.33-2.11.33ZM1149.04 618.41c-.12 0-.21-.04-.29-.11s-.11-.17-.11-.29v-1.81c0-.11.04-.2.11-.28.08-.08.17-.12.29-.12h1.81c.11 0 .2.04.28.12s.12.17.12.28v1.81c0 .12-.04.21-.12.29a.37.37 0 0 1-.28.11h-1.81ZM1153.56 618.41c-.12 0-.21-.04-.29-.11a.4.4 0 0 1-.11-.29v-10.56c0-.12.04-.21.11-.29a.4.4 0 0 1 .29-.11h1.6c.12 0 .21.04.29.11s.11.17.11.29v10.56c0 .12-.04.21-.11.29-.07.08-.17.11-.29.11h-1.6ZM1161.38 618.57c-.88 0-1.63-.15-2.22-.44-.6-.29-1.05-.71-1.37-1.26s-.49-1.18-.52-1.9c-.01-.21-.02-.46-.02-.73s0-.51.02-.71c.03-.74.21-1.37.54-1.91.33-.54.79-.95 1.39-1.25.6-.29 1.32-.44 2.18-.44s1.56.15 2.16.44c.6.29 1.06.71 1.39 1.25.33.54.52 1.18.56 1.91 0 .2.02.44.02.71s0 .51-.02.73c-.04.73-.22 1.36-.54 1.9s-.77.96-1.37 1.26c-.6.29-1.33.44-2.21.44Zm0-1.78c.52 0 .92-.16 1.18-.48.26-.32.41-.79.44-1.42 0-.16.02-.37.02-.64s0-.48-.02-.64c-.03-.62-.18-1.09-.44-1.42-.26-.33-.65-.49-1.18-.49s-.92.16-1.18.49-.42.8-.45 1.42c-.01.16-.02.37-.02.64s0 .48.02.64c.03.63.18 1.1.45 1.42.27.32.66.48 1.18.48ZM1169.81 618.41c-.16 0-.28-.04-.36-.12a.95.95 0 0 1-.2-.28l-3.01-7.42s-.03-.09-.03-.14c0-.1.03-.18.1-.25s.15-.1.25-.1h1.55c.14 0 .24.04.31.11.07.08.12.14.14.21l1.97 5.26 1.97-5.26c.03-.06.08-.13.14-.21.06-.07.16-.11.3-.11h1.55c.1 0 .18.04.25.1.07.07.1.15.1.25 0 .05 0 .1-.02.14l-3.01 7.42c-.04.11-.11.2-.19.28s-.21.12-.38.12h-1.44ZM1179.6 618.57c-1.23 0-2.2-.34-2.92-1.02-.72-.68-1.1-1.67-1.14-2.98v-.67c.04-.83.23-1.54.56-2.14.33-.59.79-1.04 1.39-1.36.6-.31 1.29-.47 2.1-.47.91 0 1.66.18 2.26.55s1.05.87 1.35 1.5c.3.63.46 1.36.46 2.18v.37c0 .11-.04.2-.11.28a.37.37 0 0 1-.29.12h-5.22v.11c.01.34.08.65.19.94.12.28.29.51.52.68.23.17.51.26.84.26.26 0 .47-.04.64-.12.17-.08.31-.17.42-.27.11-.1.19-.19.25-.26.1-.12.17-.19.23-.22s.15-.04.26-.04h1.7c.1 0 .18.03.25.1.07.06.1.14.09.24-.01.18-.1.4-.26.65-.17.25-.41.5-.73.74s-.72.44-1.19.6-1.02.24-1.64.24Zm-1.56-5.11h3.12v-.05c0-.37-.06-.7-.18-.98s-.3-.5-.54-.66c-.23-.16-.52-.24-.85-.24s-.61.08-.84.24c-.23.16-.41.38-.53.66-.12.28-.18.61-.18.98v.05Z"/><path fill="#b7303d" stroke="#1c2126" stroke-linejoin="round" stroke-width=".33" d="m1104.46 614.96-5.57-3.22-5.58 3.22 11.15 6.43 11.16-6.43-5.58-3.22-5.58 3.22z"/><path fill="#ea4f4b" stroke="#1c2126" stroke-linejoin="round" stroke-width=".33" d="M1098.89 605.3v6.44l-5.58 3.22v-6.44l5.58-3.22z"/><path fill="#ff6b60" stroke="#1c2126" stroke-linejoin="round" stroke-width=".33" d="M1098.89 605.3v6.44l5.57 3.22v-6.44l-5.57-3.22z"/><path fill="#ea4f4b" stroke="#1c2126" stroke-linejoin="round" stroke-width=".33" d="M1110.04 605.3v6.44l-5.58 3.22v-6.44l5.58-3.22z"/><path fill="#ff6b60" stroke="#1c2126" stroke-linejoin="round" stroke-width=".33" d="M1110.04 605.3v6.44l5.57 3.22.01-6.44-5.58-3.22z"/></g></svg>