<svg xmlns="http://www.w3.org/2000/svg" xmlns:xlink="http://www.w3.org/1999/xlink" width="1200" height="630" viewBox="0 0 1200 630"><defs><pattern id="a" width="12.01" height="12" patternTransform="translate(7.46)" patternUnits="userSpaceOnUse" viewBox="0 0 12.01 12"><rect width="12.01" height="12" fill="none"/><rect width="7" height="7" fill="#30c8c9"/><rect x="7.01" width="5" height="7" fill="#054861" opacity="0"/><polygon points="0 12 0 7 12.01 7 12.01 12 0 12" fill="#054861" opacity="0"/></pattern><linearGradient id="b" x1="566.13" y1="396.18" x2="566.13" y2="172.54" gradientUnits="userSpaceOnUse"><stop offset="0" stop-color="#30c8c9"/><stop offset="1" stop-color="#5cebdf"/></linearGradient></defs><rect width="1200" height="498.72" fill="#054861"/><rect width="1200" height="498.72" opacity="0.1" fill="url(#a)"/><polygon points="268.41 198.66 233.89 176.22 202.14 198.66 133.26 392.5 167.79 414.94 321.79 414.94 330.38 360.33 295.86 337.9 242.64 360.33 268.41 198.66" fill="#1c2126" stroke="#1c2126" stroke-linejoin="round" stroke-width="2"/><path d="M438.06,265.23q16.56-14.12,46.63-14.11a168.48,168.48,0,0,1,18.87.92,85.89,85.89,0,0,1,15.64,3.22,126,126,0,0,1,16.11,6.29l21.47-50.62c-7.57-4.7-34.52-22.43-34.52-22.43S502.38,195,486.84,195q-37.12,0-66.27,12.57t-47.86,36.36Q354,267.69,348.48,302c-3.48,22.7-24.54,40.7-18.1,58.29s37.15,34.11,57.83,43.41c18,8.1,39.73,14.88,68,14.88a198.2,198.2,0,0,0,27.45-2,222.34,222.34,0,0,0,28.23-5.83,139.46,139.46,0,0,0,25.61-9.66l17.49-110.75L520.42,268l-60.58,22.43-41.58,23,34.52,22.44H494.2l-4.08,25.34c-2,.39-3.88.74-5.74,1a124.32,124.32,0,0,1-19.94,1.53q-30.06,0-40.65-15.49t-6.29-43.1Q421.49,279.34,438.06,265.23Z" fill="#1c2126" stroke="#1c2126" stroke-linejoin="round" stroke-width="2"/><polygon points="774.9 198.66 740.38 176.22 583.47 198.66 540.36 229.6 574.88 252.04 637.46 252.04 577.17 392.5 611.69 414.94 677.96 414.94 703.73 252.04 766.31 252.04 774.9 198.66" fill="#1c2126" stroke="#1c2126" stroke-linejoin="round" stroke-width="2"/><polygon points="975.84 198.66 893.94 333.93 854.97 198.66 820.44 176.22 797.29 198.66 728.41 392.5 762.93 414.94 822.76 414.94 835.95 331.17 827.81 392.5 862.33 414.94 898.84 414.94 952.83 329.22 904.81 392.5 939.33 414.94 999.15 414.94 1033.51 198.66 998.99 176.22 975.84 198.66" fill="#1c2126" stroke="#1c2126" stroke-linejoin="round" stroke-width="2"/><path d="M208.12,337.9h87.73l-8.59,54.6h-154l34.36-216.28h66.27Zm195.42-95.11q16.56-14.1,46.63-14.11a170.71,170.71,0,0,1,18.86.92,86.69,86.69,0,0,1,15.65,3.23,126.62,126.62,0,0,1,16.1,6.28l21.48-50.61q-11.35-7.06-29-11.51t-41-4.45q-37.11,0-66.26,12.58t-47.86,36.35Q319.47,245.26,314,279.61q-5.22,34,4.44,60.43t35.28,41.27q25.62,14.88,68,14.87a198.26,198.26,0,0,0,27.45-2,222.7,222.7,0,0,0,28.23-5.83,140.19,140.19,0,0,0,25.61-9.66L520.42,268h-95.1l-7.06,45.4h41.42L455.6,338.7q-3,.58-5.74,1a125.48,125.48,0,0,1-19.94,1.53q-30.07,0-40.65-15.49T383,282.68Q387,256.91,403.54,242.79Zm336.84-66.57H549l-8.59,53.38h62.58L577.17,392.5h66.26L669.2,229.6h62.59Zm200.94,0L859.42,311.5l-39-135.28H762.77L728.41,392.5h59.82l13.19-83.76,26.39,83.76h36.5l54-85.71-13.5,85.71h59.82L999,176.22Z" stroke="#1c2126" stroke-linejoin="round" stroke-width="2" fill="url(#b)"/><path d="M191,120.57v14h-9V120.68L167.71,94h9.74l9.21,17,9.16-17h9.47Z" fill="#fff"/><path d="M231.64,119.66c0,8.94-5.73,15.69-15.74,15.69s-15.8-6.75-15.8-15.69S205.83,104,215.9,104,231.64,110.72,231.64,119.66Zm-22.81,0c0,4.93,2.73,8.09,7.07,8.09s7-3.16,7-8.09-2.67-8.08-7-8.08S208.83,114.74,208.83,119.66Z" fill="#fff"/><path d="M263,104.67V134.6h-8.35v-3.21a9.77,9.77,0,0,1-8.2,4c-6.58,0-10.86-4.93-10.86-13.76V104.67h8.35V120c0,4.55,2.09,7.12,5.3,7.12s5.41-2.73,5.41-7.07V104.67Z" fill="#fff"/><path d="M288.78,104v8.79h-3.37c-4.93,0-7.18,2.35-7.18,7.44v14.4h-8.35V104.67h8.35v4.07C280.11,105.79,283.59,104,288.78,104Z" fill="#fff"/><path d="M340.72,116.5h-8.78a5.76,5.76,0,0,0-6-5.3c-4,0-6.7,3-6.7,8.46s2.73,8.41,6.7,8.41a5.75,5.75,0,0,0,6-5.25h8.78c-.21,7-6.15,12.53-14.77,12.53-9.64,0-15.43-6.26-15.43-15.69S316.31,104,326,104C334.57,104,340.51,109.49,340.72,116.5Z" fill="#fff"/><path d="M375.37,119.66c0,8.94-5.73,15.69-15.74,15.69s-15.8-6.75-15.8-15.69S349.56,104,359.63,104,375.37,110.72,375.37,119.66Zm-22.81,0c0,4.93,2.73,8.09,7.07,8.09s7-3.16,7-8.09-2.68-8.08-7-8.08S352.56,114.74,352.56,119.66Z" fill="#fff"/><path d="M409.27,92V134.6h-8.36v-3.53c-2,2.68-5.08,4.28-9.26,4.28-7.76,0-13.22-5.57-13.22-15.69S383.89,104,391.65,104c4.18,0,7.28,1.61,9.26,4.24V92Zm-8.36,27.41c0-5.3-2.78-8.3-6.85-8.3s-6.91,3-6.91,8.3,2.89,8.3,6.91,8.3S400.91,124.75,400.91,119.45Z" fill="#fff"/><path d="M444.45,122.13H422.34a6.43,6.43,0,0,0,6.8,6.05c2.94,0,4.92-1,5.83-2.68h8.89c-1.71,5.62-7.17,9.64-14.83,9.64-9.37,0-15.53-6.16-15.53-15.48s6.05-15.52,15.48-15.52,15.47,6.1,15.47,15.42Zm-22-5.73h13.18c-.59-3.38-3.22-5.3-6.64-5.3A6.57,6.57,0,0,0,422.44,116.4Z" fill="#fff"/><path d="M495.38,117.52V134.6H487v-3.27c-2.09,2.42-5.35,3.81-9.74,3.81-6.27,0-10.17-3.16-10.17-8.36,0-4.71,3.1-8.29,10.92-9.63l9-1.5c0-2.89-1.82-4.55-5.19-4.55s-4.82,1.39-5,3.69h-8.46c.16-5.51,4.66-10.65,13.49-10.65C490.45,104.14,495.38,109,495.38,117.52ZM487,122v-.43l-6.85,1.12c-3.59.59-4.5,1.83-4.5,3.38,0,1.34,1.29,2.3,3.7,2.3C484,128.39,487,125.82,487,122Z" fill="#fff"/><path d="M510.16,92V134.6h-8.35V92Z" fill="#fff"/><path d="M559.42,104.67l-8.78,29.93h-8.41l-6.05-19-6.1,19h-8.2l-8.78-29.93h8.14l5.62,19.06,5.89-19.06h7.18l5.84,19,5.62-19Z" fill="#fff"/><path d="M588.29,117.52V134.6h-8.36v-3.27c-2.09,2.42-5.35,3.81-9.74,3.81-6.27,0-10.18-3.16-10.18-8.36,0-4.71,3.11-8.29,10.93-9.63l9-1.5c0-2.89-1.82-4.55-5.19-4.55s-4.82,1.39-5,3.69h-8.46c.16-5.51,4.65-10.65,13.49-10.65C583.36,104.14,588.29,109,588.29,117.52Zm-8.36,4.5v-.43l-6.85,1.12c-3.59.59-4.5,1.83-4.5,3.38,0,1.34,1.29,2.3,3.7,2.3C576.88,128.39,579.93,125.82,579.93,122Z" fill="#fff"/><path d="M622.08,104.67l-16.6,39.78h-8.09l4.61-11-11.68-28.81h8.41l7.5,18.63L614,104.67Z" fill="#fff"/><path d="M649.12,114.09h-8.35c-.06-1.92-1.77-3.42-4.61-3.42s-4.18,1-4.18,2.41.65,2.09,4,2.67l4,.65c7.71,1.28,9.74,4.76,9.74,9.31,0,5.84-4.66,9.53-13.12,9.53-9.1,0-13.65-4.33-13.65-10.33h8.3c.05,2.2,1.77,3.69,5.67,3.69,2.95,0,4.45-1,4.45-2.51s-.86-2.41-4.34-3l-4.18-.7c-7.06-1.12-9.26-4.65-9.26-8.94,0-5.3,4.34-9.37,12.64-9.37S649.12,108.42,649.12,114.09Z" fill="#fff"/><polyline points="190.03 185.42 177.58 185.42 151.81 347.1" fill="none" stroke="#fff" stroke-linecap="round" stroke-linejoin="round" stroke-width="2"/><polyline points="785.47 185.42 773.02 185.42 747.25 347.1" fill="none" stroke="#fff" stroke-linecap="round" stroke-linejoin="round" stroke-width="2"/><polyline points="604.89 287.04 589.95 380.79 604.89 380.79" fill="none" stroke="#fff" stroke-linecap="round" stroke-linejoin="round" stroke-width="2"/><polyline points="926.73 323.88 917.66 380.79 932.61 380.79" fill="none" stroke="#fff" stroke-linecap="round" stroke-linejoin="round" stroke-width="2"/><polyline points="569.89 185.42 557.44 185.42 552.07 219.11" fill="none" stroke="#fff" stroke-linecap="round" stroke-linejoin="round" stroke-width="2"/><polyline points="445.58 276.6 433.13 276.6 429.41 299.96" fill="none" stroke="#fff" stroke-linecap="round" stroke-linejoin="round" stroke-width="2"/><path d="M388.52,196c-17.27,7.45-31.45,19.22-42.53,33.3S327.73,260.64,324.45,281q-4.63,30.25,4,53.7t31.35,36.67" fill="none" stroke="#fff" stroke-linecap="round" stroke-linejoin="round" stroke-width="2"/><rect x="1058.16" y="127.09" width="7" height="7" fill="#ff6b60"/><rect x="1082.16" y="127.09" width="7" height="7" fill="#ff6b60"/><rect x="1082.16" y="139.09" width="7" height="7" fill="#ff6b60"/><rect x="1046.16" y="139.09" width="7" height="7" fill="#ff6b60"/><rect x="1058.16" y="139.09" width="7" height="7" fill="#ff6b60"/><rect x="1070.16" y="139.09" width="7" height="7" fill="#ff6b60"/><rect x="1094.16" y="139.09" width="7" height="7" fill="#ff6b60"/><rect x="1082.16" y="151.09" width="7" height="7" fill="#ff6b60"/><rect x="1046.16" y="151.09" width="7" height="7" fill="#ff6b60"/><rect x="1058.16" y="151.09" width="7" height="7" fill="#ff6b60"/><rect x="1070.16" y="151.09" width="7" height="7" fill="#ff6b60"/><rect x="1082.16" y="163.09" width="7" height="7" fill="#ff6b60"/><rect x="1058.16" y="163.09" width="7" height="7" fill="#ff6b60"/><rect x="1070.16" y="163.09" width="7" height="7" fill="#ff6b60"/><rect x="1070.16" y="175.09" width="7" height="7" fill="#ff6b60"/><rect x="1094.16" y="151.09" width="7" height="7" fill="#ff6b60"/><rect y="595" width="1200" height="35" fill="#fff"/><rect y="499.19" width="1200" height="95.81" fill="#fff"/><line y1="499.19" x2="1200" y2="499.19" fill="none" stroke="#1c2126" stroke-miterlimit="10"/><line y1="595" x2="1200" y2="595" fill="none" stroke="#1c2126" stroke-miterlimit="10"/><path d="M24.24,559.45V540.69H17.85v-2.37H33.21v2.37H26.82v18.76Z" fill="#1c2126"/><path d="M44.08,559.89c-4.81,0-7.75-3.45-7.75-9.3v-3.41c0-5.85,2.94-9.3,7.75-9.3s7.74,3.45,7.74,9.3v3.41C51.82,556.44,48.88,559.89,44.08,559.89Zm5.14-9.31v-3.39c0-4.41-1.94-6.87-5.14-6.87s-5.15,2.46-5.15,6.87v3.39c0,4.41,1.94,6.87,5.15,6.87S49.22,555,49.22,550.58Z" fill="#1c2126"/><path d="M60,545.58a2.65,2.65,0,1,1,2.65,2.71A2.7,2.7,0,0,1,60,545.58Zm0,11.25a2.65,2.65,0,1,1,2.65,2.71A2.68,2.68,0,0,1,60,556.83Z" fill="#1c2126"/><line x1="582.03" y1="498.72" x2="582.03" y2="595" fill="none" stroke="#1c2126" stroke-miterlimit="10"/><path d="M1129.73,614.6a4.72,4.72,0,1,1-4.71-4.69A4.43,4.43,0,0,1,1129.73,614.6Zm-6.82,0A2.12,2.12,0,0,0,1125,617c1.3,0,2.1-.94,2.1-2.41s-.8-2.42-2.1-2.42S1122.91,613.12,1122.91,614.6Z" fill="#1c2126"/><path d="M1138.54,612.93H1136c0-.57-.52-1-1.37-1s-1.25.3-1.25.72.19.62,1.2.8l1.2.19c2.3.39,2.91,1.43,2.91,2.79,0,1.74-1.39,2.85-3.92,2.85-2.72,0-4.08-1.3-4.08-3.09h2.48c0,.65.53,1.1,1.7,1.1.88,0,1.33-.3,1.33-.75s-.26-.72-1.3-.9l-1.25-.21c-2.11-.33-2.77-1.39-2.77-2.67,0-1.58,1.3-2.8,3.78-2.8S1138.54,611.24,1138.54,612.93Z" fill="#1c2126"/><path d="M1147.49,612.93H1145c0-.57-.53-1-1.38-1s-1.25.3-1.25.72.2.62,1.2.8l1.21.19c2.3.39,2.91,1.43,2.91,2.79,0,1.74-1.39,2.85-3.92,2.85-2.72,0-4.09-1.3-4.09-3.09h2.49c0,.65.52,1.1,1.69,1.1.88,0,1.33-.3,1.33-.75s-.25-.72-1.3-.9l-1.24-.21c-2.12-.33-2.77-1.39-2.77-2.67,0-1.58,1.29-2.8,3.77-2.8S1147.49,611.24,1147.49,612.93Z" fill="#1c2126"/><path d="M1152,617.64a1.6,1.6,0,1,1-1.6-1.62A1.55,1.55,0,0,1,1152,617.64Z" fill="#1c2126"/><path d="M1156.27,606.34v12.72h-2.5V606.34Z" fill="#1c2126"/><path d="M1167,614.6a4.71,4.71,0,1,1-4.7-4.69A4.42,4.42,0,0,1,1167,614.6Zm-6.81,0a2.12,2.12,0,0,0,2.11,2.41c1.29,0,2.1-.94,2.1-2.41s-.81-2.42-2.1-2.42S1160.16,613.12,1160.16,614.6Z" fill="#1c2126"/><path d="M1176.59,610.12l-3.26,8.94h-3l-3.28-8.94h2.64l2.16,6.32,2.16-6.32Z" fill="#1c2126"/><path d="M1186.06,615.33h-6.61a1.92,1.92,0,0,0,2,1.81,1.82,1.82,0,0,0,1.75-.8h2.66a5,5,0,1,1,.17-1.77Zm-6.58-1.71h3.94a1.87,1.87,0,0,0-2-1.58A2,2,0,0,0,1179.48,613.62Z" fill="#1c2126"/><path d="M605.51,559.45V538.32H618v2.37H608.1v7.25h9v2.3h-9v9.21Z" fill="#1c2126"/><path d="M625.54,551v8.42H623V538.32h7.09c4.19,0,6.81,2.43,6.81,6.35A5.91,5.91,0,0,1,633,550.5l4.3,9h-2.91L630.41,551Zm0-2.18h4.19c2.92,0,4.56-1.48,4.56-4.12s-1.61-4.11-4.44-4.11h-4.31Z" fill="#1c2126"/><path d="M648.15,559.89c-4.81,0-7.75-3.45-7.75-9.3v-3.41c0-5.85,2.94-9.3,7.75-9.3s7.75,3.45,7.75,9.3v3.41C655.9,556.44,653,559.89,648.15,559.89Zm5.14-9.31v-3.39c0-4.41-1.93-6.87-5.14-6.87s-5.14,2.46-5.14,6.87v3.39c0,4.41,1.93,6.87,5.14,6.87S653.29,555,653.29,550.58Z" fill="#1c2126"/><path d="M661.38,559.45h-2.3V538.32H662l4.64,13.12h.19l4.62-13.12h2.9v21.13H672v-8.11l.13-8.56H672l-4.25,11.71h-2l-4.25-11.71h-.19l.14,8.56Z" fill="#1c2126"/><path d="M682.59,545.58a2.65,2.65,0,1,1,2.65,2.71A2.7,2.7,0,0,1,682.59,545.58Zm0,11.25a2.65,2.65,0,1,1,2.65,2.71A2.68,2.68,0,0,1,682.59,556.83Z" fill="#1c2126"/><path d="M27.75,606.92v12.14H25v-2.13l-4.7-5.41v7.54H17.63V606.92H20L25,612.77v-5.85Z" fill="#1c2126"/><path d="M38.37,615.33H31.76a1.92,1.92,0,0,0,2,1.81,1.81,1.81,0,0,0,1.74-.8H38.2a4.35,4.35,0,0,1-4.44,2.88,4.63,4.63,0,1,1,0-9.26,4.32,4.32,0,0,1,4.62,4.61Zm-6.58-1.71h3.94a1.87,1.87,0,0,0-2-1.58A2,2,0,0,0,31.79,613.62Z" fill="#1c2126"/><path d="M44.93,612.23H43v6.83H40.5v-6.83H38.82v-2.11H40.5V607.3H43v2.82h1.93Z" fill="#1c2126"/><path d="M48.9,606.34v12.72H46.4V606.34Z" fill="#1c2126"/><path d="M53.62,607.59a1.5,1.5,0,1,1-3,0,1.5,1.5,0,1,1,3,0Zm-.24,2.32v9.15h-2.5v-9.15a2.06,2.06,0,0,0,1.25.37A2,2,0,0,0,53.38,609.91Z" fill="#1c2126"/><path d="M58.55,609v1.09h1.87v2.11H58.55v6.83h-2.5v-6.83H54.61v-2.11h1.44V609a2.62,2.62,0,0,1,2.88-2.83h1.75v1.94H59.44A.78.78,0,0,0,58.55,609Z" fill="#1c2126"/><path d="M70.71,610.12l-5,11.89H63.33l1.38-3.28-3.49-8.61h2.51L66,615.69l2.32-5.57Z" fill="#1c2126"/><path d="M109.4,613c0,3.92-2.34,6.22-5.8,6.22s-5.79-2.3-5.79-6.22,2.33-6.25,5.79-6.25S109.4,609.08,109.4,613Zm-8.79,0c0,2.35,1.3,3.66,3,3.66s3-1.31,3-3.66-1.32-3.67-3-3.67S100.61,610.63,100.61,613Z" fill="#1c2126"/><path d="M120.32,610.53h-2.8c0-.89-.67-1.52-1.85-1.52s-1.7.55-1.7,1.23.38,1,1.49,1.3l1.37.32c2.64.59,3.73,1.73,3.73,3.73s-1.6,3.63-4.73,3.63-4.9-1.61-4.9-4h2.8a1.88,1.88,0,0,0,2.11,1.84c1.27,0,1.92-.63,1.92-1.44s-.38-1.09-1.57-1.35l-1.32-.27c-2.77-.56-3.72-1.87-3.72-3.73,0-2.06,1.6-3.54,4.58-3.54S120.32,608.29,120.32,610.53Z" fill="#1c2126"/><path d="M131.38,610.53h-2.8c0-.89-.67-1.52-1.86-1.52-1,0-1.69.55-1.69,1.23s.38,1,1.48,1.3l1.38.32c2.64.59,3.73,1.73,3.73,3.73s-1.6,3.63-4.74,3.63-4.9-1.61-4.9-4h2.81a1.88,1.88,0,0,0,2.11,1.84c1.26,0,1.92-.63,1.92-1.44s-.39-1.09-1.57-1.35l-1.33-.27c-2.77-.56-3.71-1.87-3.71-3.73,0-2.06,1.6-3.54,4.58-3.54S131.38,608.29,131.38,610.53Z" fill="#1c2126"/><path d="M91.16,610.11a3.62,3.62,0,0,0-1-1.22,3.91,3.91,0,0,0-2.49-1.14,3.62,3.62,0,0,0-2.51,1.37,8,8,0,0,0-1.41,2.21,6.53,6.53,0,0,0-2.39-2.73,4.09,4.09,0,0,0-3.58-.35,3,3,0,0,0-1.82,3,5,5,0,0,0,2,2.88q3.32,3,6.72,5.87l5-5.64C90.67,613.14,91.8,611.56,91.16,610.11Z" fill="#ff6b60" stroke="#ff6b60" stroke-linejoin="round"/></svg>