<?xml version="1.0" encoding="UTF-8"?><svg xmlns="http://www.w3.org/2000/svg" viewBox="0 0 1200 630"><path id="b" fill="#ffb916" stroke-width="0" d="M0 0h1200v498.72H0z"/><g id="d"><path fill="#b7790b" stroke="#1c2126" stroke-linejoin="round" stroke-width="2" d="m1011.86 333.36-15.78-88.74-13.17-5.76v61.83L861.84 166.13l14.57-88.97h-6.89l-7.71 24.21-14.22-24.21-4.55-2 17.33 33.32-9.22 45.57-71.36-82.65-35.21-12.55 120.46 169.24-180.32-65.44v9.22l46.76 20.34-54.84 59.38 4.78 2.57 62.18-56.68 143.28 62.31L1063.69 522l48.82-7.15 60.3.2-160.95-181.69z"/><path fill="#1c2126" stroke-width="0" d="m778.74 88.95-34.16-30.1L874.01 240.7l-189.29-68.83 46.76 20.34-54.84 59.38 4.78 2.57 62.18-56.68 143.28 62.31L1063.69 522l48.82-7.15-333.77-425.9z" opacity=".1"/><path fill="#1c2126" stroke-width="0" d="M123.4 159.82c-.66 0-1.21-.21-1.63-.63-.42-.42-.63-.96-.63-1.63v-19.9L99.97 99.4a9.25 9.25 0 0 0-.18-.5c-.06-.15-.09-.32-.09-.5 0-.48.19-.92.59-1.31.39-.39.83-.59 1.31-.59h9.68c.78 0 1.42.21 1.9.63.48.42.81.81 1 1.18l14.2 24.87 14.2-24.87c.18-.36.51-.75 1-1.18.48-.42 1.14-.63 1.99-.63h9.59c.54 0 1 .2 1.36.59.36.39.54.83.54 1.31 0 .18-.02.35-.04.5-.03.15-.11.32-.23.5l-21.17 38.26v19.9c0 .66-.21 1.21-.63 1.63s-.97.63-1.63.63h-9.95ZM178.12 160.73c-5.01 0-9.2-.83-12.57-2.49-3.38-1.66-5.96-4.03-7.73-7.1-1.78-3.08-2.76-6.66-2.94-10.76-.06-1.21-.09-2.58-.09-4.12s.03-2.88.09-4.02c.18-4.16 1.21-7.76 3.08-10.81s4.49-5.4 7.87-7.06c3.38-1.66 7.48-2.49 12.3-2.49s8.83.83 12.21 2.49c3.38 1.66 6 4.01 7.87 7.06 1.87 3.04 2.92 6.65 3.17 10.81.06 1.15.09 2.49.09 4.02s-.03 2.91-.09 4.12c-.24 4.1-1.25 7.69-3.03 10.76-1.78 3.08-4.36 5.44-7.73 7.1-3.38 1.66-7.54 2.49-12.48 2.49Zm0-10.04c2.95 0 5.17-.9 6.65-2.71 1.48-1.81 2.31-4.49 2.49-8.05.06-.9.09-2.11.09-3.62s-.03-2.71-.09-3.62c-.18-3.5-1.01-6.17-2.49-8-1.48-1.84-3.69-2.76-6.65-2.76s-5.19.92-6.69 2.76c-1.51 1.84-2.35 4.51-2.53 8-.06.9-.09 2.11-.09 3.62s.03 2.71.09 3.62c.18 3.56 1.03 6.24 2.53 8.05 1.51 1.81 3.74 2.71 6.69 2.71ZM228.23 160.73c-3.5 0-6.59-.8-9.27-2.4-2.68-1.6-4.78-3.92-6.29-6.96-1.51-3.04-2.26-6.74-2.26-11.08v-25.24c0-.66.23-1.21.68-1.63s.98-.63 1.58-.63h9.68c.6 0 1.12.21 1.54.63.42.42.63.96.63 1.63v24.69c0 6.75 2.95 10.13 8.86 10.13 2.83 0 5.08-.89 6.74-2.67 1.66-1.78 2.49-4.26 2.49-7.46v-24.69c0-.66.21-1.21.63-1.63s.96-.63 1.63-.63h9.59c.6 0 1.12.21 1.54.63.42.42.63.96.63 1.63v42.51c0 .66-.21 1.21-.63 1.63s-.94.63-1.54.63h-8.95c-.6 0-1.12-.21-1.54-.63-.42-.42-.63-.96-.63-1.63v-3.53c-1.57 2.17-3.59 3.83-6.06 4.97-2.47 1.14-5.49 1.72-9.04 1.72ZM267.67 117.13c-.54 0-.98-.18-1.31-.54-.33-.36-.47-.87-.41-1.54l2.62-16.46c.12-.78.42-1.48.9-2.08.48-.6 1.21-.91 2.17-.91h9.41c.48 0 .89.18 1.22.54.33.36.5.75.5 1.18s-.09.78-.27 1.09l-6.24 16.28c-.24.6-.59 1.16-1.04 1.67-.45.51-1.16.77-2.12.77h-5.43ZM291.37 159.82c-.6 0-1.13-.21-1.58-.63-.45-.42-.68-.96-.68-1.63v-42.51c0-.6.23-1.13.68-1.58s.98-.68 1.58-.68h8.86c.66 0 1.21.23 1.63.68.42.45.63.98.63 1.58v3.62c1.51-1.87 3.38-3.32 5.61-4.34 2.23-1.02 4.76-1.54 7.6-1.54h3.89c.66 0 1.21.21 1.63.63.42.42.63.96.63 1.63v7.87c0 .6-.21 1.12-.63 1.54s-.97.63-1.63.63h-7.87c-2.71 0-4.81.75-6.29 2.26-1.48 1.51-2.22 3.59-2.22 6.24v23.97c0 .66-.23 1.21-.68 1.63-.45.42-.98.63-1.58.63h-9.59ZM349.07 160.73c-6.93 0-12.44-1.93-16.51-5.79-4.07-3.86-6.23-9.47-6.47-16.82v-3.8c.24-4.7 1.3-8.73 3.17-12.08 1.87-3.35 4.49-5.91 7.87-7.69 3.38-1.78 7.33-2.67 11.85-2.67 5.12 0 9.38 1.04 12.75 3.12 3.38 2.08 5.92 4.92 7.64 8.5 1.72 3.59 2.58 7.7 2.58 12.35v2.08c0 .6-.21 1.13-.63 1.58-.42.45-.96.68-1.63.68H340.2v.63c.06 1.93.42 3.69 1.09 5.29.66 1.6 1.64 2.88 2.94 3.84 1.3.97 2.88 1.45 4.75 1.45 1.45 0 2.65-.23 3.62-.68.96-.45 1.76-.96 2.4-1.54.63-.57 1.1-1.07 1.4-1.49.54-.66.98-1.07 1.31-1.22.33-.15.83-.23 1.49-.23h9.59c.54 0 1.01.18 1.4.54.39.36.56.81.5 1.36-.06 1.03-.56 2.25-1.49 3.66-.94 1.42-2.31 2.8-4.12 4.16-1.81 1.36-4.06 2.49-6.74 3.39-2.68.9-5.77 1.36-9.27 1.36Zm-8.86-28.86h17.64v-.27c0-2.11-.35-3.96-1.04-5.56-.69-1.6-1.7-2.85-3.03-3.75-1.33-.9-2.93-1.36-4.79-1.36s-3.45.45-4.75 1.36c-1.3.91-2.29 2.16-2.99 3.75-.69 1.6-1.04 3.45-1.04 5.56v.27ZM403.25 159.82c-.6 0-1.13-.21-1.58-.63-.45-.42-.68-.96-.68-1.63v-42.51c0-.66.23-1.21.68-1.63s.98-.63 1.58-.63h8.41c.66 0 1.21.21 1.63.63.42.42.63.96.63 1.63v3.08c1.27-1.69 2.97-3.13 5.11-4.34s4.69-1.84 7.64-1.9c6.93-.12 11.73 2.53 14.38 7.96 1.39-2.35 3.38-4.27 5.97-5.74 2.59-1.48 5.46-2.22 8.59-2.22s5.97.71 8.5 2.13c2.53 1.42 4.55 3.59 6.06 6.51 1.51 2.93 2.26 6.68 2.26 11.26v25.78c0 .66-.23 1.21-.68 1.63-.45.42-.98.63-1.58.63h-8.96c-.66 0-1.21-.21-1.63-.63-.42-.42-.63-.96-.63-1.63v-25.05c0-2.47-.35-4.4-1.04-5.79-.69-1.39-1.63-2.4-2.8-3.03s-2.49-.95-3.93-.95c-1.27 0-2.49.32-3.66.95-1.18.63-2.14 1.64-2.89 3.03s-1.13 3.32-1.13 5.79v25.05c0 .66-.21 1.21-.63 1.63s-.94.63-1.54.63h-8.95c-.67 0-1.21-.21-1.63-.63-.42-.42-.63-.96-.63-1.63v-25.05c0-2.47-.36-4.4-1.08-5.79-.72-1.39-1.67-2.4-2.85-3.03s-2.46-.95-3.84-.95c-1.27 0-2.49.32-3.66.95s-2.14 1.64-2.89 3.03-1.13 3.29-1.13 5.7v25.14c0 .66-.21 1.21-.63 1.63s-.97.63-1.63.63h-9.14ZM490.26 177.01c-.48 0-.92-.18-1.31-.54-.39-.36-.59-.81-.59-1.36 0-.12.03-.29.09-.5.06-.21.15-.47.27-.77l7.06-16.91-17.37-40.97c-.18-.48-.27-.87-.27-1.18.06-.54.27-1.01.63-1.4.36-.39.81-.59 1.36-.59h8.86c.72 0 1.27.2 1.63.59.36.39.63.8.81 1.22l11.22 27.95 11.49-27.95c.24-.48.54-.9.9-1.27s.93-.54 1.72-.54h8.59c.54 0 1.01.2 1.4.59.39.39.59.83.59 1.31 0 .3-.09.72-.27 1.27l-25.6 59.24c-.24.48-.56.9-.95 1.27-.39.36-.98.54-1.76.54h-8.5ZM151.67 396.73c-3.74 0-6.95-.44-9.63-1.31-2.68-.87-4.85-1.94-6.51-3.21-1.66-1.27-2.89-2.55-3.71-3.84-.81-1.3-1.25-2.4-1.31-3.3-.06-.66.15-1.21.63-1.63.48-.42.96-.63 1.45-.63h8.77c.24 0 .44.03.59.09.15.06.35.21.59.45.78.54 1.58 1.16 2.4 1.85.81.69 1.79 1.28 2.94 1.76 1.14.48 2.53.72 4.16.72 1.99 0 3.66-.41 5.02-1.22 1.36-.81 2.04-1.97 2.04-3.48 0-1.08-.3-1.99-.9-2.71-.6-.72-1.78-1.39-3.53-1.99-1.75-.6-4.34-1.27-7.78-1.99-3.26-.72-6.03-1.69-8.32-2.89-2.29-1.21-4.01-2.73-5.16-4.57-1.15-1.84-1.72-4.05-1.72-6.65 0-2.35.74-4.61 2.22-6.78s3.66-3.96 6.56-5.38c2.89-1.42 6.51-2.13 10.85-2.13 3.32 0 6.23.41 8.73 1.22s4.6 1.84 6.29 3.08c1.69 1.24 2.97 2.5 3.84 3.8.87 1.3 1.34 2.43 1.4 3.39.06.66-.12 1.21-.54 1.63s-.9.63-1.45.63h-8.05c-.3 0-.57-.06-.81-.18-.24-.12-.45-.27-.63-.45-.72-.42-1.46-.96-2.22-1.63-.75-.66-1.64-1.24-2.67-1.72s-2.35-.72-3.98-.72c-1.93 0-3.42.44-4.48 1.31-1.06.88-1.58 1.98-1.58 3.3 0 .84.27 1.63.81 2.35s1.64 1.39 3.3 1.99c1.66.6 4.24 1.24 7.73 1.9 4.1.72 7.36 1.81 9.77 3.26 2.41 1.45 4.13 3.12 5.16 5.02 1.02 1.9 1.54 3.93 1.54 6.1 0 2.83-.83 5.35-2.49 7.55-1.66 2.2-4.12 3.92-7.37 5.16-3.26 1.24-7.24 1.85-11.94 1.85ZM215.53 413.01c-.6 0-1.12-.21-1.54-.63-.42-.42-.63-.96-.63-1.63v-20.26c-1.45 1.93-3.3 3.45-5.56 4.57s-4.93 1.67-8 1.67-5.79-.51-8.14-1.54c-2.35-1.03-4.34-2.47-5.97-4.34-1.63-1.87-2.87-4.1-3.71-6.69-.84-2.59-1.33-5.43-1.45-8.5-.06-1.21-.09-2.32-.09-3.35s.03-2.11.09-3.26c.12-3.26.62-6.18 1.49-8.77s2.11-4.81 3.71-6.65c1.6-1.84 3.57-3.26 5.92-4.25 2.35-1 5.06-1.49 8.14-1.49 3.38 0 6.24.62 8.59 1.85 2.35 1.24 4.22 2.82 5.61 4.75v-3.44c0-.66.21-1.21.63-1.63s.96-.63 1.63-.63h8.68c.6 0 1.12.21 1.54.63.42.42.63.96.63 1.63v59.7c0 .66-.21 1.21-.63 1.63s-.94.63-1.54.63h-9.41Zm-11.67-27.14c2.17 0 3.93-.48 5.29-1.45a9.24 9.24 0 0 0 3.08-3.66c.69-1.48 1.07-3.06 1.13-4.75.06-1.14.09-2.29.09-3.44s-.03-2.26-.09-3.35c-.06-1.81-.42-3.5-1.08-5.07a9.488 9.488 0 0 0-2.99-3.89c-1.33-1.02-3.14-1.54-5.43-1.54s-4.01.5-5.34 1.49c-1.33 1-2.28 2.31-2.85 3.93-.57 1.63-.92 3.41-1.04 5.34-.18 1.87-.18 3.74 0 5.61.12 1.93.47 3.71 1.04 5.34.57 1.63 1.52 2.94 2.85 3.93 1.33.99 3.1 1.49 5.34 1.49ZM255.78 396.73c-3.5 0-6.59-.8-9.27-2.4-2.68-1.6-4.78-3.92-6.29-6.96-1.51-3.04-2.26-6.74-2.26-11.08v-25.24c0-.66.23-1.21.68-1.63.45-.42.98-.63 1.58-.63h9.68c.6 0 1.12.21 1.54.63.42.42.63.96.63 1.63v24.69c0 6.75 2.95 10.13 8.86 10.13 2.83 0 5.08-.89 6.74-2.67 1.66-1.78 2.49-4.26 2.49-7.46v-24.69c0-.66.21-1.21.63-1.63.42-.42.96-.63 1.63-.63h9.59c.6 0 1.12.21 1.54.63.42.42.63.96.63 1.63v42.51c0 .67-.21 1.21-.63 1.63-.42.42-.94.63-1.54.63h-8.95c-.6 0-1.12-.21-1.54-.63s-.63-.96-.63-1.63v-3.53c-1.57 2.17-3.59 3.83-6.06 4.97-2.47 1.15-5.49 1.72-9.04 1.72ZM316.56 396.73c-6.93 0-12.44-1.93-16.51-5.79-4.07-3.86-6.23-9.47-6.47-16.82v-3.8c.24-4.7 1.3-8.73 3.17-12.08 1.87-3.35 4.49-5.91 7.87-7.69 3.38-1.78 7.33-2.67 11.85-2.67 5.12 0 9.38 1.04 12.75 3.12 3.38 2.08 5.92 4.92 7.64 8.5 1.72 3.59 2.58 7.7 2.58 12.35v2.08c0 .6-.21 1.13-.63 1.58s-.96.68-1.63.68h-29.49v.63c.06 1.93.42 3.69 1.09 5.29.66 1.6 1.64 2.88 2.94 3.84 1.3.97 2.88 1.45 4.75 1.45 1.45 0 2.65-.23 3.62-.68.96-.45 1.76-.96 2.4-1.54.63-.57 1.1-1.07 1.4-1.49.54-.66.98-1.07 1.31-1.22.33-.15.83-.23 1.49-.23h9.59c.54 0 1.01.18 1.4.54.39.36.56.81.5 1.36-.06 1.03-.56 2.25-1.49 3.66-.94 1.42-2.31 2.8-4.12 4.16-1.81 1.36-4.06 2.49-6.74 3.39-2.68.9-5.77 1.36-9.27 1.36Zm-8.87-28.86h17.64v-.27c0-2.11-.35-3.96-1.04-5.56-.69-1.6-1.7-2.85-3.03-3.75-1.33-.91-2.93-1.36-4.79-1.36s-3.45.45-4.75 1.36c-1.3.9-2.29 2.16-2.99 3.75-.69 1.6-1.04 3.45-1.04 5.56v.27ZM369.56 396.73c-6.93 0-12.44-1.93-16.51-5.79-4.07-3.86-6.23-9.47-6.47-16.82v-3.8c.24-4.7 1.3-8.73 3.17-12.08 1.87-3.35 4.49-5.91 7.87-7.69 3.38-1.78 7.33-2.67 11.85-2.67 5.12 0 9.38 1.04 12.75 3.12 3.38 2.08 5.92 4.92 7.64 8.5 1.72 3.59 2.58 7.7 2.58 12.35v2.08c0 .6-.21 1.13-.63 1.58s-.96.68-1.63.68h-29.49v.63c.06 1.93.42 3.69 1.09 5.29.66 1.6 1.64 2.88 2.94 3.84 1.3.97 2.88 1.45 4.75 1.45 1.45 0 2.65-.23 3.62-.68.96-.45 1.76-.96 2.4-1.54.63-.57 1.1-1.07 1.4-1.49.54-.66.98-1.07 1.31-1.22.33-.15.83-.23 1.49-.23h9.59c.54 0 1.01.18 1.4.54.39.36.56.81.5 1.36-.06 1.03-.56 2.25-1.49 3.66-.94 1.42-2.31 2.8-4.12 4.16-1.81 1.36-4.06 2.49-6.74 3.39-2.68.9-5.77 1.36-9.27 1.36Zm-8.86-28.86h17.64v-.27c0-2.11-.35-3.96-1.04-5.56-.69-1.6-1.7-2.85-3.03-3.75-1.33-.91-2.93-1.36-4.79-1.36s-3.45.45-4.75 1.36c-1.3.9-2.29 2.16-2.99 3.75-.69 1.6-1.04 3.45-1.04 5.56v.27ZM401.4 395.82c-.6 0-1.12-.21-1.54-.63-.42-.42-.63-.96-.63-1.63v-6.06c0-.6.14-1.16.41-1.67.27-.51.59-.95.95-1.31l22.16-25.14h-20.53c-.67 0-1.21-.21-1.63-.63-.42-.42-.63-.96-.63-1.63v-6.06c0-.66.21-1.21.63-1.63.42-.42.96-.63 1.63-.63h35.37c.6 0 1.12.21 1.54.63.42.42.63.96.63 1.63v6.6c0 .48-.12.95-.36 1.4-.24.45-.54.89-.91 1.31l-21.62 24.87h22.52c.66 0 1.21.21 1.63.63.42.42.63.96.63 1.63v6.06c0 .67-.21 1.21-.63 1.63-.42.42-.97.63-1.63.63H401.4ZM470.95 396.73c-6.93 0-12.44-1.93-16.51-5.79-4.07-3.86-6.23-9.47-6.47-16.82v-3.8c.24-4.7 1.3-8.73 3.17-12.08 1.87-3.35 4.49-5.91 7.87-7.69 3.38-1.78 7.33-2.67 11.85-2.67 5.12 0 9.38 1.04 12.75 3.12 3.38 2.08 5.92 4.92 7.64 8.5 1.72 3.59 2.58 7.7 2.58 12.35v2.08c0 .6-.21 1.13-.63 1.58s-.96.68-1.63.68h-29.49v.63c.06 1.93.42 3.69 1.09 5.29.66 1.6 1.64 2.88 2.94 3.84 1.3.97 2.88 1.45 4.75 1.45 1.45 0 2.65-.23 3.62-.68.96-.45 1.76-.96 2.4-1.54.63-.57 1.1-1.07 1.4-1.49.54-.66.98-1.07 1.31-1.22.33-.15.83-.23 1.49-.23h9.59c.54 0 1.01.18 1.4.54.39.36.56.81.5 1.36-.06 1.03-.56 2.25-1.49 3.66-.94 1.42-2.31 2.8-4.12 4.16-1.81 1.36-4.06 2.49-6.74 3.39-2.68.9-5.77 1.36-9.27 1.36Zm-8.86-28.86h17.64v-.27c0-2.11-.35-3.96-1.04-5.56-.69-1.6-1.7-2.85-3.03-3.75-1.33-.91-2.93-1.36-4.79-1.36s-3.45.45-4.75 1.36c-1.3.9-2.29 2.16-2.99 3.75-.69 1.6-1.04 3.45-1.04 5.56v.27Z"/><rect width="404.44" height="107.59" x="110.13" y="197.3" fill="#ffdd73" stroke="#1c2126" stroke-linejoin="round" stroke-width="2" rx="16.57" ry="16.57"/><circle cx="155.26" cy="234.09" r="8.08" fill="none" stroke="#1c2126" stroke-miterlimit="10" stroke-width="2"/><circle cx="189.45" cy="234.09" r="8.08" fill="none" stroke="#1c2126" stroke-miterlimit="10" stroke-width="2"/><circle cx="155.26" cy="275.51" r="8.08" fill="none" stroke="#1c2126" stroke-miterlimit="10" stroke-width="2"/><path fill="none" stroke="#1c2126" stroke-miterlimit="10" stroke-width="2" d="M155.26 242.16v25.43M165.51 254.88h17.71a6.22 6.22 0 0 0 6.22-6.22v-6.5M171.42 254.88h-9.93a6.22 6.22 0 0 0-6.22 6.22v6.5"/><path stroke-width="0" d="M230.99 235.05h6.27l.64 6.5h.25c3.92-4.24 8.61-7.61 13.95-7.61 6.85 0 10.53 3.28 12.38 8.54 4.66-5.04 9.33-8.54 14.79-8.54 9.21 0 13.64 6.1 13.64 17.53v28.41h-7.59v-27.42c0-8.35-2.64-11.92-8.34-11.92-3.48 0-7.09 2.27-11.24 6.88v32.46h-7.59v-27.42c0-8.35-2.64-11.92-8.34-11.92-3.36 0-7.09 2.27-11.24 6.88v32.46h-7.59v-44.83ZM304.66 268.25c0-9.77 8.43-14.65 27.53-16.73-.02-5.77-1.93-11.32-9.25-11.32-5.19 0-9.86 2.46-13.37 4.81l-2.97-5.2c4.12-2.71 10.42-5.85 17.61-5.85 10.94 0 15.57 7.27 15.57 18.43v27.5h-6.27l-.64-5.36h-.25c-4.27 3.55-9.26 6.47-14.83 6.47-7.5 0-13.13-4.66-13.13-12.75Zm27.54.7V256.5c-15.02 1.81-20.1 5.49-20.1 11.22 0 5.09 3.46 7.17 7.86 7.17s7.9-2.11 12.25-5.93ZM352.53 220.94c0-2.98 2.29-4.9 5.24-4.9s5.24 1.92 5.24 4.9-2.29 4.9-5.24 4.9-5.24-2.04-5.24-4.9Zm1.39 14.11h7.59v44.83h-7.59v-44.83ZM376.6 235.05h6.27l.64 6.47h.25c4.27-4.2 8.88-7.57 15.04-7.57 9.45 0 13.69 6.1 13.69 17.53v28.41h-7.59v-27.42c0-8.35-2.52-11.92-8.46-11.92-4.58 0-7.76 2.34-12.25 6.88v32.46h-7.59v-44.83Z"/><path fill="#1c2126" stroke="#1c2126" stroke-linecap="round" stroke-linejoin="round" stroke-width="2" d="m454.62 252.48 13.02 11.09 13.03-11.09h-26.05z"/><path fill="#30c8c9" stroke="#1c2126" stroke-linejoin="round" stroke-width="2" d="M868.94 128.32s16.2-34.79 56.21-25.25c0 0-24.95 49.11-56.21 25.25ZM1000.04 264.37s-3.33-38.23 36.11-49.93c0 0 2.89 55.01-36.11 49.93ZM717.46 173.42s-31.54-21.86-15.35-59.68c0 0 44.16 32.92 15.35 59.68ZM727.22 178.28s-.61-23.42 23.85-29.08c0 0-.28 33.62-23.85 29.08ZM693.46 232.43s-17.26 15.84-37.6 1.11c0 0 25.54-21.87 37.6-1.11ZM843.06 75.16s-18.95-2.9-19.97-23.42c0 0 27.04 5.09 19.97 23.42ZM853.67 85.78s16.83-9.18 10.8-28.83c0 0-23.69 14-10.8 28.83Z"/><path fill="none" stroke="#1c2126" stroke-linejoin="round" stroke-width="2" d="M736.55 203.9s-12.02 12.9-8.18 36.79"/><path fill="#ffdd73" stroke="#1c2126" stroke-linejoin="round" stroke-width="2" d="M783.03 299.09c-1.77-31.75-19.76-40.85-40.25-45.91-7.51-18.58-21.23-15.71-23.13 3.9-12.02 15.85-24.76 25.47-22.04 50.18 2.72 24.7 17.09 33.65 29.96 40.99 8.49 1.89 9.55 14.64 17.09 14.64s11.28-6.34 11.61-11.88c17.29-19.29 28.53-20.16 26.76-51.91Z"/><path fill="none" stroke="#1c2126" stroke-linecap="round" stroke-miterlimit="10" stroke-width="2" d="M720.36 297.43s7.2-7.43 14.64 0M745.46 297.43s7.2-7.43 14.64 0"/><path fill="#7a122d" stroke="#1c2126" stroke-linecap="round" stroke-linejoin="round" stroke-width="2" d="M724.64 306.12c.26 7.86 7.23 14.16 15.8 14.16s15.55-6.3 15.8-14.16h-31.61Z"/><path fill="#30c8c9" stroke="#1c2126" stroke-linejoin="round" stroke-width="2" d="M729.92 240.75s11.02-20.67 35.09-13.54c0 0-16.83 29.11-35.09 13.54Z"/><path fill="none" stroke="#1c2126" stroke-linejoin="round" stroke-width="2" d="M821.34 231.29s31.79 15.54 24.31 54.37"/><path fill="#ffdd73" stroke="#1c2126" stroke-linejoin="round" stroke-width="2" d="M800.26 350.29c-2.96-31.66 13.48-43.33 33-51.37 4.68-19.49 18.67-18.69 23.45.42 14.24 13.9 28.26 21.52 29.24 46.35s-11.91 35.82-23.55 44.98c-8.11 3.13-7.27 15.9-14.73 17.01-7.46 1.12-12.1-4.59-13.25-10.03-19.96-16.52-31.2-15.7-34.17-47.37Z"/><path fill="none" stroke="#1c2126" stroke-linecap="round" stroke-miterlimit="10" stroke-width="2" d="M823.09 341.1s7.2-7.43 14.64 0M848.19 341.1s7.2-7.43 14.64 0"/><path fill="#7a122d" stroke="#1c2126" stroke-linecap="round" stroke-linejoin="round" stroke-width="2" d="M827.37 349.79c.26 7.86 7.23 14.16 15.8 14.16 8.58 0 15.55-6.3 15.8-14.16h-31.61Z"/><path fill="#30c8c9" stroke="#1c2126" stroke-linejoin="round" stroke-width="2" d="M844.9 284.2s-8.76-21.73-33.45-17.19c0 0 13.64 30.73 33.45 17.19Z"/><path fill="#1c2126" stroke-width="0" d="m996.08 244.62-5.09-2.23 5.15 70.21 15.72 20.76-15.78-88.74z" opacity=".1"/><path fill="#ff6b60" stroke="#1c2126" stroke-linecap="round" stroke-linejoin="round" stroke-width="2" d="M665.94 293.04c-.86-.86-2-1.37-3.15-1.77-2.01-.71-4.26-1.19-6.24-.4-2.08.83-3.41 2.88-4.22 4.96-.72 1.86-1.12 3.85-1.2 5.84-2.06-1.89-4.56-3.38-7.32-3.85-2.79-.48-5.85.21-7.89 2.17s-2.81 5.27-1.47 7.77c1.28 2.39 4.01 3.56 6.54 4.54 6.33 2.44 12.69 4.78 19.09 7.01 2.01-5.35 4.02-10.71 6.03-16.06 1.27-3.38 2.37-7.65-.17-10.21Z"/><path fill="#db4648" stroke="#1c2126" stroke-linecap="round" stroke-linejoin="round" stroke-width="2" d="M941.25 385.24c.16-1.2-.14-2.42-.52-3.58-.66-2.03-1.66-4.1-3.5-5.19-1.92-1.14-4.36-.94-6.51-.31-1.92.56-3.73 1.47-5.36 2.62.23-2.79-.11-5.68-1.42-8.15-1.33-2.5-3.74-4.51-6.54-4.92-2.8-.41-5.89 1-7.05 3.58-1.11 2.47-.37 5.35.4 7.95 1.93 6.5 3.97 12.96 6.11 19.4 5.47-1.68 10.93-3.36 16.4-5.03 3.45-1.06 7.5-2.79 7.98-6.37Z"/><path fill="#fff" stroke-width="0" d="M0 595h1200v35H0zM0 499.19h1200V595H0z"/><path fill="none" stroke="#1c2126" stroke-miterlimit="10" d="M0 499.19h1200M0 595h1200"/><path fill="#1c2126" stroke-width="0" d="M24.24 559.45v-18.76h-6.39v-2.37H33.2v2.37h-6.39v18.76h-2.58ZM44.08 559.89c-4.8 0-7.75-3.46-7.75-9.3v-3.41c0-5.84 2.94-9.3 7.75-9.3s7.75 3.46 7.75 9.3v3.41c0 5.84-2.94 9.3-7.75 9.3Zm5.14-9.31v-3.38c0-4.41-1.93-6.87-5.14-6.87s-5.14 2.46-5.14 6.87v3.38c0 4.41 1.93 6.87 5.14 6.87s5.14-2.46 5.14-6.87ZM59.97 545.58c0-1.48 1.2-2.71 2.65-2.71s2.65 1.23 2.65 2.71-1.2 2.71-2.65 2.71-2.65-1.23-2.65-2.71Zm0 11.25c0-1.48 1.2-2.7 2.65-2.7s2.65 1.21 2.65 2.7-1.2 2.71-2.65 2.71-2.65-1.21-2.65-2.71Z"/><path fill="none" stroke="#1c2126" stroke-miterlimit="10" d="M582.03 498.72V595"/><path fill="#1c2126" stroke-width="0" d="M605.51 559.45v-21.14h12.47v2.37h-9.87v7.25h9.02v2.3h-9.02v9.21h-2.59ZM625.54 551.03v8.42h-2.55v-21.14h7.09c4.19 0 6.81 2.43 6.81 6.36 0 2.77-1.54 5.04-3.94 5.83l4.31 8.95h-2.92l-3.94-8.42h-4.86Zm0-2.18h4.19c2.92 0 4.56-1.48 4.56-4.12s-1.61-4.12-4.44-4.12h-4.31v8.23ZM648.15 559.89c-4.8 0-7.75-3.46-7.75-9.3v-3.41c0-5.84 2.94-9.3 7.75-9.3s7.75 3.46 7.75 9.3v3.41c0 5.84-2.94 9.3-7.75 9.3Zm5.14-9.31v-3.38c0-4.41-1.93-6.87-5.14-6.87s-5.14 2.46-5.14 6.87v3.38c0 4.41 1.93 6.87 5.14 6.87s5.14-2.46 5.14-6.87ZM661.18 559.45h-2.31v-21.14h2.86l4.88 13.08h.19l4.86-13.08h2.86v21.14h-2.31v-8.1l.15-8.57h-.19l-4.45 11.71h-2.02l-4.45-11.71h-.19l.15 8.57v8.1ZM682.59 545.58c0-1.48 1.2-2.71 2.65-2.71s2.65 1.23 2.65 2.71-1.2 2.71-2.65 2.71-2.65-1.23-2.65-2.71Zm0 11.25c0-1.48 1.2-2.7 2.65-2.7s2.65 1.21 2.65 2.7-1.2 2.71-2.65 2.71-2.65-1.21-2.65-2.71ZM12.77 618.4c-.12 0-.21-.04-.26-.11s-.08-.17-.06-.27l2.22-10.42a.469.469 0 0 1 .46-.4h6.95c.12 0 .2.04.26.11.05.07.07.17.05.29l-.24 1.12a.465.465 0 0 1-.46.39h-5.14l-.66 3.04h4.82c.12 0 .2.04.26.11.05.07.07.17.05.29l-.22 1.12c-.02.11-.08.2-.17.27-.09.07-.19.11-.31.11H15.5l-.85 3.97a.47.47 0 0 1-.46.38h-1.41ZM25.41 618.56c-.81 0-1.49-.15-2.02-.45s-.92-.72-1.15-1.26c-.23-.54-.29-1.18-.17-1.9.03-.19.08-.43.13-.71s.12-.51.17-.7c.19-.74.49-1.37.89-1.91s.91-.96 1.54-1.26c.62-.3 1.36-.45 2.22-.45s1.49.15 2.02.45c.54.3.93.72 1.16 1.26s.29 1.18.18 1.91c-.04.19-.09.43-.14.7s-.11.51-.16.71c-.19.72-.48 1.36-.87 1.9-.39.54-.9.96-1.52 1.26s-1.38.45-2.26.45Zm.16-1.58c.58 0 1.06-.18 1.46-.54.4-.36.69-.88.87-1.58.04-.16.09-.37.14-.62s.1-.46.13-.62c.12-.69.07-1.22-.14-1.58-.21-.36-.61-.54-1.18-.54s-1.05.18-1.46.54-.69.88-.86 1.58c-.04.16-.09.37-.15.62s-.1.46-.12.62c-.12.69-.07 1.22.14 1.58s.6.54 1.18.54ZM31.53 618.4c-.11 0-.19-.04-.25-.11s-.08-.17-.06-.27l1.6-7.54c.02-.12.08-.21.17-.29s.19-.11.3-.11h1.3c.11 0 .19.04.25.11s.08.17.06.29l-.14.66c.26-.34.58-.6.98-.78s.88-.27 1.44-.27h.78c.12 0 .2.04.26.11.05.07.07.16.05.27l-.24 1.15c-.02.11-.08.2-.17.27s-.19.11-.3.11h-1.25c-.51 0-.94.14-1.29.43-.35.28-.57.68-.68 1.19l-.94 4.4c-.02.11-.07.2-.16.27-.08.07-.19.11-.3.11h-1.39ZM44.76 618.4c-.73 0-1.29-.11-1.7-.34-.4-.22-.67-.56-.78-1-.12-.44-.11-.99.03-1.66l.79-3.63h-1.26a.31.31 0 0 1-.25-.11c-.06-.07-.08-.17-.06-.29l.19-.91c.02-.11.08-.2.17-.27.09-.07.2-.11.31-.11h1.25l.58-2.65c.02-.11.07-.2.16-.27.08-.07.18-.11.29-.11h1.3c.12 0 .21.04.26.11.06.08.08.17.06.27l-.58 2.65h2c.11 0 .19.04.25.11s.08.16.06.27l-.19.91c-.02.12-.08.21-.17.29a.43.43 0 0 1-.3.11h-2l-.74 3.47c-.06.29-.1.54-.1.74 0 .21.05.37.17.48s.33.17.62.17h1.15c.12 0 .2.04.26.11.05.08.07.17.05.27l-.21.99a.47.47 0 0 1-.46.38h-1.14ZM48.07 618.4c-.11 0-.19-.04-.25-.11s-.08-.17-.06-.27l2.26-10.59c.02-.11.08-.2.16-.27s.18-.11.29-.11h1.44c.11 0 .19.04.25.11.06.08.08.17.06.27l-.78 3.65c.34-.34.72-.62 1.14-.83.42-.21.93-.32 1.53-.32.69 0 1.26.15 1.7.44.44.29.75.71.92 1.24.17.53.18 1.17.02 1.92l-.96 4.5a.47.47 0 0 1-.46.38h-1.44c-.11 0-.19-.04-.25-.11s-.08-.17-.06-.27l.93-4.4c.14-.62.11-1.1-.08-1.46-.19-.35-.58-.53-1.17-.53-.36 0-.71.08-1.03.23-.33.15-.61.38-.84.68s-.4.66-.5 1.07l-.93 4.4a.47.47 0 0 1-.16.27c-.09.07-.18.11-.29.11h-1.44ZM61.51 618.56c-.78 0-1.43-.15-1.95-.46-.52-.31-.87-.76-1.07-1.35-.2-.59-.23-1.29-.09-2.13.02-.11.05-.24.08-.41.03-.17.06-.3.1-.39.21-.81.54-1.51.99-2.09.45-.58.99-1.03 1.64-1.34s1.36-.47 2.14-.47c.86 0 1.55.18 2.06.54s.84.85 1.01 1.49.16 1.37 0 2.2l-.08.34c-.02.11-.08.2-.17.27-.09.08-.19.11-.31.11h-5.31a.63.63 0 0 1-.03.13c-.05.38-.05.72.02 1.03.06.31.21.57.42.76s.51.29.87.29c.3 0 .56-.04.79-.13.22-.09.41-.2.55-.31.14-.12.25-.21.33-.29.13-.13.22-.21.29-.23.06-.03.15-.04.27-.04h1.39c.1 0 .17.03.22.1.05.06.07.14.05.24-.05.17-.19.38-.4.62-.21.24-.5.48-.86.72s-.79.43-1.29.58-1.04.23-1.64.23Zm-.69-5.03h3.54l.02-.05c.1-.42.1-.78.02-1.1s-.23-.56-.46-.74c-.22-.18-.52-.26-.9-.26s-.71.09-1.02.26c-.3.18-.56.42-.76.74-.2.31-.35.68-.43 1.1l-.02.05ZM71.06 618.4c-.11 0-.19-.04-.25-.11s-.08-.17-.06-.27l2.26-10.59c.02-.11.08-.2.16-.27s.18-.11.29-.11h1.33c.12 0 .21.04.26.11.06.08.08.17.06.27l-2.26 10.59a.47.47 0 0 1-.46.38h-1.33ZM78.64 618.56c-.81 0-1.49-.15-2.02-.45-.54-.3-.92-.72-1.15-1.26-.23-.54-.29-1.18-.17-1.9.03-.19.08-.43.14-.71s.11-.51.17-.7c.19-.74.49-1.37.89-1.91.4-.54.91-.96 1.54-1.26s1.36-.45 2.22-.45 1.49.15 2.02.45.92.72 1.16 1.26c.23.54.29 1.18.18 1.91-.04.19-.09.43-.14.7-.05.28-.11.51-.16.71-.19.72-.48 1.36-.87 1.9-.39.54-.9.96-1.52 1.26-.62.3-1.38.45-2.26.45Zm.16-1.58c.58 0 1.06-.18 1.46-.54s.69-.88.87-1.58c.04-.16.09-.37.14-.62.05-.26.1-.46.13-.62.12-.69.07-1.22-.14-1.58s-.61-.54-1.18-.54-1.05.18-1.46.54c-.41.36-.69.88-.86 1.58-.04.16-.09.37-.15.62s-.1.46-.12.62c-.12.69-.07 1.22.14 1.58.21.36.6.54 1.18.54ZM86.92 618.4c-.16 0-.27-.04-.34-.12a.658.658 0 0 1-.13-.28l-1.42-7.49c-.02-.14 0-.25.08-.32s.18-.11.3-.11h1.22c.12 0 .21.03.27.1.06.06.11.15.13.27l.91 5.55 3.33-5.62c.03-.06.09-.13.17-.2a.45.45 0 0 1 .31-.11h1.39c.13 0 .22.05.26.14.05.1.03.21-.06.35l-4.56 7.42c-.08.11-.16.2-.25.28-.09.08-.22.12-.38.12H86.9ZM96.66 618.56c-.78 0-1.43-.15-1.94-.46-.52-.31-.88-.76-1.07-1.35-.2-.59-.23-1.29-.09-2.13.02-.11.05-.24.08-.41.03-.17.06-.3.1-.39.21-.81.54-1.51.99-2.09.45-.58.99-1.03 1.64-1.34s1.36-.47 2.14-.47c.86 0 1.55.18 2.06.54.51.36.84.85 1.01 1.49.17.63.16 1.37 0 2.2l-.08.34c-.02.11-.08.2-.17.27-.09.08-.2.11-.31.11h-5.31a.63.63 0 0 1-.03.13c-.05.38-.05.72.02 1.03.06.31.21.57.42.76s.51.29.87.29c.3 0 .56-.04.78-.13.22-.09.41-.2.55-.31.14-.12.25-.21.33-.29.13-.13.22-.21.29-.23.06-.03.15-.04.27-.04h1.39c.1 0 .17.03.22.1.05.06.07.14.05.24-.05.17-.19.38-.4.62-.21.24-.5.48-.87.72-.36.24-.79.43-1.29.58s-1.04.23-1.64.23Zm-.69-5.03h3.54l.02-.05c.1-.42.1-.78.02-1.1s-.23-.56-.46-.74c-.22-.18-.52-.26-.9-.26s-.71.09-1.02.26-.56.42-.76.74c-.2.31-.35.68-.43 1.1l-.02.05ZM109.56 618.56c-.81 0-1.49-.15-2.02-.45s-.92-.72-1.15-1.26c-.23-.54-.29-1.18-.17-1.9.03-.19.08-.43.13-.71s.12-.51.17-.7c.19-.74.49-1.37.89-1.91s.91-.96 1.54-1.26c.62-.3 1.36-.45 2.22-.45s1.49.15 2.02.45c.54.3.93.72 1.16 1.26s.29 1.18.18 1.91c-.04.19-.09.43-.14.7s-.11.51-.16.71c-.19.72-.48 1.36-.87 1.9-.39.54-.9.96-1.52 1.26s-1.38.45-2.26.45Zm.16-1.58c.58 0 1.06-.18 1.46-.54.4-.36.69-.88.87-1.58.04-.16.09-.37.14-.62s.1-.46.13-.62c.12-.69.07-1.22-.14-1.58-.21-.36-.61-.54-1.18-.54s-1.05.18-1.46.54-.69.88-.86 1.58c-.04.16-.09.37-.15.62s-.1.46-.12.62c-.12.69-.07 1.22.14 1.58s.6.54 1.18.54ZM116.42 618.4c-.12 0-.21-.04-.26-.11s-.08-.17-.06-.27l1.33-6.24h-1.29a.31.31 0 0 1-.25-.11c-.06-.07-.08-.17-.06-.29l.19-.91c.02-.11.08-.2.17-.27s.19-.11.31-.11h1.3l.13-.65c.15-.64.38-1.17.69-1.59.31-.42.7-.74 1.18-.95.48-.21 1.04-.32 1.68-.32h1.28c.12 0 .2.04.26.11.05.07.07.16.05.27l-.19.91c-.02.12-.08.21-.17.29s-.19.11-.3.11h-.96c-.43 0-.76.11-.99.32-.23.21-.39.52-.46.93l-.13.58h1.98c.12 0 .2.04.26.11.05.07.07.16.05.27l-.19.91c-.02.12-.08.21-.16.29a.43.43 0 0 1-.3.11h-1.98l-1.34 6.24c-.02.11-.07.2-.16.27-.08.07-.18.11-.29.11h-1.3ZM128.85 618.56c-.81 0-1.48-.15-2.02-.45s-.92-.72-1.15-1.26c-.23-.54-.29-1.18-.17-1.9.03-.19.08-.43.14-.71s.11-.51.17-.7c.19-.74.49-1.37.89-1.91s.91-.96 1.54-1.26c.62-.3 1.36-.45 2.22-.45s1.49.15 2.02.45c.54.3.92.72 1.16 1.26.23.54.29 1.18.18 1.91-.04.19-.09.43-.14.7s-.11.51-.16.71c-.19.72-.48 1.36-.87 1.9-.39.54-.9.96-1.52 1.26s-1.38.45-2.26.45Zm.16-1.58c.58 0 1.06-.18 1.46-.54.4-.36.69-.88.87-1.58.04-.16.09-.37.14-.62.05-.26.1-.46.13-.62.12-.69.07-1.22-.14-1.58-.21-.36-.61-.54-1.18-.54s-1.05.18-1.46.54-.69.88-.86 1.58c-.04.16-.09.37-.15.62s-.1.46-.12.62c-.12.69-.07 1.22.14 1.58s.6.54 1.18.54ZM134.32 621.45a.31.31 0 0 1-.25-.11c-.06-.07-.08-.16-.06-.27l2.26-10.59c.02-.11.08-.2.16-.27.09-.07.18-.11.29-.11H138c.11 0 .19.04.25.11s.08.16.06.27l-.14.64c.33-.34.7-.62 1.1-.85.4-.22.93-.34 1.58-.34.55 0 1.03.09 1.42.28.39.19.7.45.92.79.22.34.37.74.44 1.21.07.46.06.97-.04 1.53-.02.18-.05.35-.09.51s-.08.34-.14.53c-.13.52-.31 1.02-.54 1.48-.24.46-.52.87-.86 1.22-.34.35-.73.62-1.18.81a3.9 3.9 0 0 1-1.53.29c-.6 0-1.09-.1-1.47-.31-.38-.21-.66-.48-.83-.82l-.78 3.63a.47.47 0 0 1-.16.27.43.43 0 0 1-.3.11h-1.36Zm4.56-4.6c.43 0 .79-.1 1.09-.3.3-.2.55-.46.74-.78.2-.33.35-.68.47-1.05.05-.16.1-.32.13-.48.03-.16.06-.32.08-.48.05-.38.06-.74.02-1.06s-.16-.58-.36-.78c-.2-.2-.51-.3-.94-.3-.45 0-.83.1-1.16.3-.33.2-.59.46-.8.78s-.36.64-.44.97c-.05.19-.1.39-.14.61s-.08.42-.11.62c-.05.32-.05.63 0 .92.06.29.2.54.43.73.23.19.56.29.98.29ZM148.13 618.56c-.78 0-1.43-.15-1.95-.46-.52-.31-.87-.76-1.07-1.35-.2-.59-.23-1.29-.09-2.13.02-.11.05-.24.08-.41.03-.17.06-.3.1-.39.21-.81.54-1.51.99-2.09.45-.58.99-1.03 1.64-1.34s1.36-.47 2.14-.47c.86 0 1.55.18 2.06.54s.84.85 1.01 1.49.16 1.37 0 2.2l-.08.34c-.02.11-.08.2-.17.27-.09.08-.19.11-.31.11h-5.31a.63.63 0 0 1-.03.13c-.05.38-.05.72.02 1.03.06.31.21.57.42.76s.51.29.87.29c.3 0 .56-.04.79-.13.22-.09.41-.2.55-.31.14-.12.25-.21.33-.29.13-.13.22-.21.29-.23.06-.03.15-.04.27-.04h1.39c.1 0 .17.03.22.1.05.06.07.14.05.24-.05.17-.19.38-.4.62-.21.24-.5.48-.86.72s-.79.43-1.29.58-1.04.23-1.64.23Zm-.69-5.03h3.54l.02-.05c.1-.42.1-.78.02-1.1s-.23-.56-.46-.74c-.22-.18-.52-.26-.9-.26s-.71.09-1.02.26c-.3.18-.56.42-.76.74-.2.31-.35.68-.43 1.1l-.02.05ZM153.96 618.4a.31.31 0 0 1-.25-.11c-.06-.07-.08-.17-.06-.27l1.6-7.55c.02-.11.08-.2.17-.27.09-.07.19-.11.3-.11h1.31c.11 0 .19.04.24.11.05.07.07.16.05.27l-.14.66c.34-.34.74-.63 1.21-.86.46-.23.99-.35 1.58-.35.73 0 1.31.15 1.74.44s.73.71.87 1.24.14 1.17-.02 1.92l-.96 4.5c-.02.11-.07.2-.16.27s-.19.11-.3.11h-1.41c-.11 0-.19-.04-.25-.11s-.08-.17-.06-.27l.93-4.4c.14-.65.12-1.14-.04-1.48s-.56-.5-1.18-.5-1.12.18-1.54.53c-.42.35-.7.84-.84 1.46l-.93 4.4a.47.47 0 0 1-.16.27c-.09.07-.18.11-.29.11h-1.41ZM170.61 618.56c-.64 0-1.17-.07-1.59-.22-.42-.15-.75-.34-.99-.56-.24-.22-.41-.45-.5-.67-.09-.22-.12-.41-.1-.56.02-.12.08-.21.17-.28a.45.45 0 0 1 .28-.11h1.26s.08 0 .11.02c.03 0 .06.04.1.1l.37.37c.13.13.29.24.49.33.2.09.46.14.78.14.42 0 .78-.08 1.1-.25.31-.17.5-.4.57-.71.04-.22.02-.4-.08-.54s-.29-.27-.59-.38-.74-.23-1.33-.36c-.58-.14-1.04-.31-1.38-.53-.35-.21-.58-.48-.71-.8-.12-.32-.13-.69-.04-1.12.08-.42.29-.81.62-1.19.33-.38.77-.69 1.32-.94s1.19-.37 1.93-.37c.58 0 1.06.07 1.46.22s.72.32.96.54c.24.21.41.43.5.65.1.22.13.41.1.57-.01.12-.06.21-.15.28a.45.45 0 0 1-.28.11h-1.17a.32.32 0 0 1-.14-.03.272.272 0 0 1-.1-.08c-.11-.11-.22-.22-.33-.34-.11-.12-.26-.23-.43-.31-.18-.08-.42-.13-.74-.13-.41 0-.73.09-.98.26s-.41.4-.47.66c-.03.18-.01.34.06.47.07.13.25.26.54.38s.73.24 1.31.37c.69.13 1.22.32 1.59.57.37.25.61.54.72.86s.13.69.04 1.08c-.1.48-.33.91-.7 1.29-.37.38-.85.69-1.45.9-.6.22-1.3.33-2.11.33ZM179.52 618.56c-.81 0-1.49-.15-2.02-.45-.54-.3-.92-.72-1.15-1.26-.23-.54-.29-1.18-.17-1.9.03-.19.08-.43.14-.71s.11-.51.17-.7c.19-.74.49-1.37.89-1.91.4-.54.91-.96 1.54-1.26s1.36-.45 2.22-.45 1.49.15 2.02.45.92.72 1.16 1.26c.23.54.29 1.18.18 1.91-.04.19-.09.43-.14.7-.05.28-.11.51-.16.71-.19.72-.48 1.36-.87 1.9-.39.54-.9.96-1.52 1.26-.62.3-1.38.45-2.26.45Zm.16-1.58c.58 0 1.06-.18 1.46-.54s.69-.88.87-1.58c.04-.16.09-.37.14-.62.05-.26.1-.46.13-.62.12-.69.07-1.22-.14-1.58s-.61-.54-1.18-.54-1.05.18-1.46.54c-.41.36-.69.88-.86 1.58-.04.16-.09.37-.15.62s-.1.46-.12.62c-.12.69-.07 1.22.14 1.58.21.36.6.54 1.18.54ZM188.45 618.56c-.69 0-1.26-.15-1.7-.44s-.73-.71-.87-1.25-.14-1.18 0-1.91l.96-4.5c.02-.11.08-.2.17-.27.09-.07.19-.11.29-.11h1.41c.11 0 .19.04.24.11s.07.16.05.27l-.93 4.4c-.1.44-.13.8-.09 1.1.04.29.16.52.36.66.2.15.52.22.94.22.58 0 1.08-.18 1.5-.53.43-.35.7-.84.83-1.46l.94-4.4c.02-.11.08-.2.17-.27s.19-.11.3-.11h1.39c.12 0 .2.04.26.11.05.07.07.16.05.27l-1.6 7.55c-.02.11-.07.2-.16.27-.08.07-.19.11-.3.11h-1.3c-.11 0-.19-.04-.25-.11s-.08-.17-.06-.27l.13-.66c-.23.24-.47.46-.72.64s-.53.32-.85.42c-.32.1-.71.14-1.18.14ZM195.57 618.4a.31.31 0 0 1-.25-.11c-.06-.07-.08-.17-.06-.27l1.6-7.54a.482.482 0 0 1 .47-.4h1.3c.11 0 .19.04.25.11s.08.17.06.29l-.14.66c.26-.34.58-.6.98-.78.39-.18.87-.27 1.44-.27h.78c.12 0 .2.04.26.11s.07.16.05.27l-.24 1.15c-.02.11-.08.2-.17.27-.09.07-.19.11-.3.11h-1.25c-.51 0-.94.14-1.29.43-.35.28-.57.68-.68 1.19l-.94 4.4a.47.47 0 0 1-.46.38h-1.39ZM205.46 618.56c-.71 0-1.34-.14-1.88-.43s-.94-.71-1.19-1.26-.31-1.21-.18-1.99c.03-.16.07-.37.13-.63.05-.26.1-.48.14-.65.29-1.16.82-2.07 1.6-2.71.78-.64 1.77-.97 2.98-.97.67 0 1.23.1 1.69.29.45.19.81.44 1.07.74s.44.61.54.93.14.61.1.86c0 .12-.06.21-.14.28-.08.07-.17.1-.28.1h-1.46c-.11 0-.19-.03-.25-.08s-.09-.13-.1-.24c0-.43-.11-.74-.34-.93-.23-.19-.56-.29-.98-.29-.52 0-.99.17-1.4.51-.41.34-.71.87-.89 1.59-.04.19-.09.39-.13.59s-.08.38-.11.53c-.12.74-.06 1.27.16 1.6.22.33.6.5 1.12.5.42 0 .79-.09 1.12-.26s.61-.48.83-.9c.06-.12.13-.2.2-.25a.44.44 0 0 1 .26-.07h1.44c.11 0 .19.04.25.11s.07.16.04.28c-.07.23-.21.51-.41.82s-.47.62-.81.92c-.34.3-.77.54-1.29.74-.52.19-1.13.29-1.85.29ZM214.69 618.56c-.78 0-1.43-.15-1.95-.46-.52-.31-.87-.76-1.07-1.35-.2-.59-.23-1.29-.09-2.13.02-.11.05-.24.08-.41.03-.17.06-.3.1-.39.21-.81.54-1.51.99-2.09.45-.58.99-1.03 1.64-1.34s1.36-.47 2.14-.47c.86 0 1.55.18 2.06.54s.84.85 1.01 1.49.16 1.37 0 2.2l-.08.34c-.02.11-.08.2-.17.27-.09.08-.19.11-.31.11h-5.31a.63.63 0 0 1-.03.13c-.05.38-.05.72.02 1.03.06.31.21.57.42.76s.51.29.87.29c.3 0 .56-.04.79-.13.22-.09.41-.2.55-.31.14-.12.25-.21.33-.29.13-.13.22-.21.29-.23.06-.03.15-.04.27-.04h1.39c.1 0 .17.03.22.1.05.06.07.14.05.24-.05.17-.19.38-.4.62-.21.24-.5.48-.86.72s-.79.43-1.29.58-1.04.23-1.64.23Zm-.69-5.03h3.54l.02-.05c.1-.42.1-.78.02-1.1s-.23-.56-.46-.74c-.22-.18-.52-.26-.9-.26s-.71.09-1.02.26c-.3.18-.56.42-.76.74-.2.31-.35.68-.43 1.1l-.02.05ZM227.19 618.56c-.64 0-1.17-.07-1.59-.22-.42-.15-.75-.34-.99-.56-.24-.22-.41-.45-.5-.67-.09-.22-.13-.41-.1-.56.02-.12.08-.21.17-.28a.45.45 0 0 1 .28-.11h1.26s.08 0 .11.02c.03 0 .06.04.1.1l.37.37c.13.13.29.24.49.33.2.09.46.14.78.14.42 0 .78-.08 1.1-.25.31-.17.5-.4.57-.71.04-.22.02-.4-.08-.54s-.29-.27-.59-.38c-.3-.11-.74-.23-1.33-.36-.58-.14-1.04-.31-1.38-.53-.35-.21-.58-.48-.7-.8-.12-.32-.14-.69-.04-1.12.09-.42.29-.81.62-1.19.33-.38.77-.69 1.32-.94s1.19-.37 1.93-.37c.58 0 1.06.07 1.46.22.4.14.72.32.96.54.24.21.41.43.5.65s.13.41.1.57c-.01.12-.06.21-.15.28a.45.45 0 0 1-.28.11h-1.17c-.05 0-.1-.01-.14-.03s-.07-.05-.1-.08c-.11-.11-.22-.22-.33-.34-.11-.12-.26-.23-.43-.31-.18-.08-.42-.13-.74-.13-.41 0-.73.09-.98.26s-.41.4-.47.66c-.03.18-.01.34.06.47s.25.26.54.38.73.24 1.31.37c.69.13 1.22.32 1.59.57.37.25.61.54.72.86.11.33.12.69.04 1.08-.1.48-.33.91-.7 1.29-.37.38-.85.69-1.45.9-.6.22-1.3.33-2.11.33ZM236.1 618.56c-.81 0-1.49-.15-2.02-.45-.54-.3-.92-.72-1.15-1.26-.23-.54-.29-1.18-.17-1.9.03-.19.08-.43.14-.71s.12-.51.17-.7c.19-.74.49-1.37.89-1.91.4-.54.91-.96 1.54-1.26s1.36-.45 2.22-.45 1.48.15 2.02.45.93.72 1.16 1.26.29 1.18.18 1.91c-.04.19-.09.43-.14.7-.05.28-.11.51-.16.71-.19.72-.48 1.36-.87 1.9-.39.54-.9.96-1.52 1.26-.62.3-1.38.45-2.26.45Zm.16-1.58c.58 0 1.06-.18 1.46-.54s.69-.88.87-1.58c.04-.16.09-.37.14-.62.05-.26.1-.46.13-.62.12-.69.07-1.22-.14-1.58s-.61-.54-1.18-.54-1.05.18-1.46.54c-.4.36-.69.88-.86 1.58-.04.16-.09.37-.15.62s-.1.46-.12.62c-.12.69-.07 1.22.13 1.58.21.36.6.54 1.18.54ZM242.96 618.4c-.12 0-.21-.04-.26-.11s-.08-.17-.06-.27l1.33-6.24h-1.3a.31.31 0 0 1-.25-.11c-.06-.07-.08-.17-.06-.29l.19-.91c.02-.11.08-.2.17-.27.09-.07.19-.11.31-.11h1.29l.13-.65c.15-.64.38-1.17.69-1.59.31-.42.7-.74 1.18-.95.48-.21 1.04-.32 1.68-.32h1.28c.12 0 .2.04.26.11.05.07.07.16.05.27l-.19.91c-.02.12-.08.21-.17.29s-.19.11-.3.11h-.96c-.43 0-.76.11-.99.32-.23.21-.39.52-.46.93l-.13.58h1.98c.12 0 .2.04.26.11.05.07.07.16.05.27l-.19.91c-.02.12-.07.21-.16.29-.08.08-.19.11-.3.11h-1.98l-1.34 6.24a.47.47 0 0 1-.16.27c-.09.07-.18.11-.29.11h-1.29ZM252.11 618.4c-.73 0-1.29-.11-1.7-.34-.4-.22-.67-.56-.78-1-.12-.44-.11-.99.03-1.66l.79-3.63h-1.26a.31.31 0 0 1-.25-.11c-.06-.07-.08-.17-.06-.29l.19-.91c.02-.11.08-.2.17-.27.09-.07.2-.11.31-.11h1.25l.58-2.65c.02-.11.07-.2.16-.27.08-.07.18-.11.29-.11h1.3c.12 0 .21.04.26.11.06.08.08.17.06.27l-.58 2.65h2c.11 0 .19.04.25.11s.08.16.06.27l-.19.91c-.02.12-.08.21-.17.29a.43.43 0 0 1-.3.11h-2l-.74 3.47c-.06.29-.1.54-.1.74 0 .21.05.37.17.48s.33.17.62.17h1.15c.12 0 .2.04.26.11.05.08.07.17.05.27l-.21.99a.47.47 0 0 1-.46.38h-1.14ZM257.27 618.4c-.15 0-.26-.04-.32-.11a.507.507 0 0 1-.11-.29l-.72-7.49c-.01-.12.02-.22.1-.3s.18-.13.32-.13h1.12c.13 0 .22.03.28.09.06.06.09.13.1.22l.46 5.3 2.75-5.25c.04-.08.11-.15.19-.23.09-.08.2-.12.34-.12h.83c.15 0 .25.04.3.12.05.08.09.16.1.23l.58 5.25 2.69-5.3c.03-.06.09-.13.16-.2s.18-.11.3-.11h1.3c.15 0 .24.05.26.14s.01.2-.04.32L264.4 618c-.06.12-.14.21-.23.29s-.21.11-.36.11h-1.06c-.15 0-.26-.04-.33-.11s-.12-.17-.14-.29l-.66-5.05-2.72 5.05c-.06.12-.14.21-.24.29s-.22.11-.37.11h-1.04ZM271.09 618.56c-.55 0-1.02-.09-1.41-.28-.38-.19-.69-.45-.9-.79-.22-.34-.36-.74-.42-1.21-.06-.46-.05-.97.03-1.53.04-.19.08-.37.11-.52.03-.15.07-.33.11-.52.14-.53.32-1.03.55-1.49.23-.46.51-.86.85-1.21.34-.35.73-.62 1.18-.81.45-.19.97-.29 1.56-.29.66 0 1.17.11 1.51.31.35.21.62.46.81.76l.11-.53c.02-.11.08-.2.16-.27s.18-.11.29-.11h1.26c.11 0 .19.04.26.11.06.07.09.16.06.27l-1.62 7.55a.47.47 0 0 1-.16.27c-.09.07-.18.11-.29.11h-1.26c-.12 0-.21-.04-.26-.11s-.08-.17-.06-.27l.13-.59c-.32.33-.67.6-1.06.81-.38.21-.9.32-1.55.32Zm.72-1.71c.45 0 .83-.1 1.15-.3s.58-.46.78-.78.34-.64.42-.97c.05-.19.1-.4.14-.62s.08-.42.11-.62c.06-.32.07-.63.02-.92s-.19-.54-.41-.73c-.22-.19-.55-.29-.98-.29s-.77.1-1.06.3-.54.46-.73.78-.35.67-.46 1.06c-.04.16-.08.32-.11.48s-.06.32-.08.48c-.05.38-.07.74-.04 1.06.03.32.14.58.34.78s.5.3.92.3ZM278.05 618.4a.31.31 0 0 1-.25-.11c-.06-.07-.08-.17-.06-.27l1.6-7.54a.482.482 0 0 1 .47-.4h1.29c.11 0 .19.04.25.11s.08.17.06.29l-.14.66c.26-.34.58-.6.98-.78s.88-.27 1.44-.27h.78c.12 0 .2.04.26.11.05.07.07.16.05.27l-.24 1.15c-.02.11-.08.2-.17.27-.09.07-.19.11-.29.11h-1.25c-.51 0-.94.14-1.29.43-.35.28-.57.68-.68 1.19l-.94 4.4c-.02.11-.07.2-.16.27s-.19.11-.3.11h-1.39ZM288.05 618.56c-.78 0-1.43-.15-1.95-.46-.52-.31-.87-.76-1.07-1.35-.2-.59-.23-1.29-.09-2.13.02-.11.05-.24.08-.41.03-.17.06-.3.1-.39.21-.81.54-1.51.99-2.09.45-.58.99-1.03 1.64-1.34s1.36-.47 2.14-.47c.86 0 1.55.18 2.06.54s.84.85 1.01 1.49.16 1.37 0 2.2l-.08.34c-.02.11-.08.2-.17.27-.09.08-.19.11-.31.11h-5.31a.63.63 0 0 1-.03.13c-.05.38-.05.72.02 1.03.06.31.21.57.42.76s.51.29.87.29c.3 0 .56-.04.79-.13.22-.09.41-.2.55-.31.14-.12.25-.21.33-.29.13-.13.22-.21.29-.23.06-.03.15-.04.27-.04h1.39c.1 0 .17.03.22.1.05.06.07.14.05.24-.05.17-.19.38-.4.62-.21.24-.5.48-.86.72s-.79.43-1.29.58-1.04.23-1.64.23Zm-.69-5.03h3.54l.02-.05c.1-.42.1-.78.02-1.1s-.23-.56-.46-.74c-.22-.18-.52-.26-.9-.26s-.71.09-1.02.26c-.3.18-.56.42-.76.74-.2.31-.35.68-.43 1.1l-.02.05ZM1125.56 618.56c-.89 0-1.63-.15-2.22-.44s-1.05-.71-1.37-1.26c-.32-.54-.49-1.18-.52-1.9-.01-.21-.02-.46-.02-.73s0-.51.02-.71c.03-.74.21-1.37.54-1.91s.79-.96 1.39-1.25c.6-.29 1.32-.44 2.18-.44s1.56.15 2.16.44c.6.29 1.06.71 1.39 1.25s.52 1.18.56 1.91c.01.2.02.44.02.71s0 .52-.02.73c-.04.72-.22 1.36-.54 1.9-.32.54-.77.96-1.37 1.26s-1.33.44-2.21.44Zm0-1.77c.52 0 .91-.16 1.18-.48s.41-.79.44-1.42c.01-.16.02-.37.02-.64s0-.48-.02-.64c-.03-.62-.18-1.09-.44-1.42-.26-.33-.65-.49-1.18-.49s-.92.16-1.18.49c-.27.32-.42.8-.45 1.42 0 .16-.02.37-.02.64s0 .48.02.64c.03.63.18 1.1.45 1.42s.66.48 1.18.48ZM1134.64 618.56c-.66 0-1.23-.08-1.7-.23s-.86-.34-1.15-.57c-.29-.22-.51-.45-.66-.68-.14-.23-.22-.42-.23-.58-.01-.12.03-.21.11-.29.09-.07.17-.11.26-.11h1.55s.08 0 .1.02c.03 0 .06.04.1.08.14.1.28.21.42.33.14.12.32.23.52.31.2.09.45.13.74.13.35 0 .65-.07.89-.22a.68.68 0 0 0 .36-.62c0-.19-.05-.35-.16-.48s-.31-.24-.62-.35c-.31-.11-.77-.22-1.38-.35-.58-.13-1.07-.3-1.47-.51-.41-.21-.71-.48-.91-.81s-.3-.72-.3-1.18c0-.42.13-.82.39-1.2s.65-.7 1.16-.95 1.15-.38 1.92-.38c.59 0 1.1.07 1.54.22.44.14.81.33 1.11.54s.53.44.68.67c.15.23.24.43.25.6.01.12-.02.21-.1.29-.07.08-.16.11-.26.11h-1.42c-.05 0-.1-.01-.14-.03s-.08-.05-.11-.08c-.13-.07-.26-.17-.39-.29s-.29-.22-.47-.3c-.18-.08-.42-.13-.7-.13-.34 0-.61.08-.79.23a.724.724 0 0 0-.14 1c.1.13.29.25.58.35.29.11.75.22 1.37.34.73.13 1.3.32 1.73.58s.73.55.91.89.27.7.27 1.08c0 .5-.15.95-.44 1.34-.29.39-.73.69-1.3.91-.58.22-1.28.33-2.11.33ZM1143.33 618.56c-.66 0-1.23-.08-1.7-.23s-.86-.34-1.15-.57c-.29-.22-.51-.45-.66-.68-.14-.23-.22-.42-.23-.58-.01-.12.03-.21.11-.29.09-.07.17-.11.26-.11h1.55s.08 0 .1.02c.03 0 .06.04.1.08.14.1.28.21.42.33.14.12.32.23.52.31.2.09.45.13.74.13.35 0 .65-.07.89-.22a.68.68 0 0 0 .36-.62c0-.19-.05-.35-.16-.48s-.31-.24-.62-.35c-.31-.11-.77-.22-1.38-.35-.58-.13-1.07-.3-1.47-.51-.41-.21-.71-.48-.91-.81s-.3-.72-.3-1.18c0-.42.13-.82.39-1.2s.65-.7 1.16-.95 1.15-.38 1.92-.38c.59 0 1.1.07 1.54.22.44.14.81.33 1.11.54s.53.44.68.67c.15.23.24.43.25.6.01.12-.02.21-.1.29-.07.08-.16.11-.26.11h-1.42c-.05 0-.1-.01-.14-.03s-.08-.05-.11-.08c-.13-.07-.26-.17-.39-.29s-.29-.22-.47-.3c-.18-.08-.42-.13-.7-.13-.34 0-.61.08-.79.23a.724.724 0 0 0-.14 1c.1.13.29.25.58.35.29.11.75.22 1.37.34.73.13 1.3.32 1.73.58s.73.55.91.89.27.7.27 1.08c0 .5-.15.95-.44 1.34-.29.39-.73.69-1.3.91-.58.22-1.28.33-2.11.33ZM1149.04 618.4c-.12 0-.21-.04-.29-.11a.4.4 0 0 1-.11-.29v-1.81c0-.11.04-.2.11-.28.08-.08.17-.12.29-.12h1.81c.11 0 .2.04.28.12s.12.17.12.28V618c0 .12-.04.21-.12.29s-.17.11-.28.11h-1.81ZM1153.56 618.4c-.12 0-.21-.04-.29-.11s-.11-.17-.11-.29v-10.56c0-.12.04-.21.11-.29a.4.4 0 0 1 .29-.11h1.6c.12 0 .21.04.29.11.08.08.11.17.11.29V618c0 .12-.04.21-.11.29a.4.4 0 0 1-.29.11h-1.6ZM1161.38 618.56c-.88 0-1.63-.15-2.22-.44-.6-.29-1.05-.71-1.37-1.26-.31-.54-.49-1.18-.52-1.9-.01-.21-.02-.46-.02-.73s0-.51.02-.71c.03-.74.21-1.37.54-1.91s.79-.96 1.39-1.25 1.32-.44 2.18-.44 1.56.15 2.16.44 1.06.71 1.39 1.25c.33.54.52 1.18.56 1.91 0 .2.02.44.02.71s0 .52-.02.73c-.04.72-.22 1.36-.54 1.9-.31.54-.77.96-1.37 1.26-.6.29-1.33.44-2.21.44Zm0-1.77c.52 0 .92-.16 1.18-.48.26-.32.41-.79.44-1.42 0-.16.02-.37.02-.64s0-.48-.02-.64c-.03-.62-.18-1.09-.44-1.42-.26-.33-.65-.49-1.18-.49s-.92.16-1.18.49c-.27.32-.42.8-.45 1.42-.01.16-.02.37-.02.64s0 .48.02.64c.03.63.18 1.1.45 1.42s.66.48 1.18.48ZM1169.81 618.4c-.16 0-.28-.04-.36-.12a.95.95 0 0 1-.2-.28l-3.01-7.42s-.03-.09-.03-.14c0-.1.03-.18.1-.25a.34.34 0 0 1 .25-.11h1.55c.14 0 .24.04.31.11s.12.14.14.21l1.97 5.26 1.97-5.26c.03-.06.08-.13.14-.21.06-.07.16-.11.3-.11h1.55c.1 0 .18.04.25.11s.1.15.1.25c0 .05 0 .1-.02.14l-3.01 7.42c-.04.11-.11.2-.19.28s-.21.12-.38.12h-1.44ZM1179.6 618.56c-1.23 0-2.2-.34-2.92-1.02-.72-.68-1.1-1.67-1.14-2.98v-.67c.04-.83.23-1.54.56-2.14.33-.59.79-1.04 1.39-1.36.6-.31 1.29-.47 2.1-.47.91 0 1.66.19 2.26.55.6.37 1.05.87 1.35 1.5.3.63.46 1.36.46 2.18v.37c0 .11-.04.2-.11.28a.37.37 0 0 1-.29.12h-5.22v.11c.01.34.08.65.19.94.12.28.29.51.52.68.23.17.51.26.84.26.26 0 .47-.04.64-.12.17-.08.31-.17.42-.27.11-.1.19-.19.25-.26.1-.12.17-.19.23-.22s.15-.04.26-.04h1.7c.1 0 .18.03.25.1.07.06.1.14.09.24-.01.18-.1.4-.26.65-.17.25-.41.5-.73.74s-.72.44-1.19.6-1.02.24-1.64.24Zm-1.56-5.1h3.12v-.05c0-.37-.06-.7-.18-.98s-.3-.51-.54-.66c-.23-.16-.52-.24-.85-.24s-.61.08-.84.24c-.23.16-.41.38-.53.66-.12.28-.18.61-.18.98v.05Z"/><path fill="#b7303d" stroke="#1c2126" stroke-linejoin="round" stroke-width=".33" d="m1104.46 614.96-5.57-3.22-5.58 3.22 11.15 6.43 11.16-6.43-5.58-3.22-5.58 3.22z"/><path fill="#ea4f4b" stroke="#1c2126" stroke-linejoin="round" stroke-width=".33" d="M1098.89 605.3v6.44l-5.58 3.22v-6.44l5.58-3.22z"/><path fill="#ff6b60" stroke="#1c2126" stroke-linejoin="round" stroke-width=".33" d="M1098.89 605.3v6.44l5.57 3.22v-6.44l-5.57-3.22z"/><path fill="#ea4f4b" stroke="#1c2126" stroke-linejoin="round" stroke-width=".33" d="M1110.04 605.3v6.44l-5.58 3.22v-6.44l5.58-3.22z"/><path fill="#ff6b60" stroke="#1c2126" stroke-linejoin="round" stroke-width=".33" d="M1110.04 605.3v6.44l5.57 3.22.01-6.44-5.58-3.22z"/></g></svg>