<svg xmlns="http://www.w3.org/2000/svg" xmlns:xlink="http://www.w3.org/1999/xlink" width="1200" height="630" viewBox="0 0 1200 630"><defs><clipPath id="a"><rect x="-0.79" width="1200" height="498.72" fill="none"/></clipPath></defs><rect x="-0.79" width="1200" height="498.72" fill="#b7303d"/><g clip-path="url(#a)"><path d="M36.78,537.79V351.48C36.78,213.14,148.92,101,287.25,101h0c138.33,0,250.47,112.14,250.47,250.48V537.79Z" fill="#ff6b60"/></g><path d="M736.17,122.7v43.08h-9.6V122.7Z" fill="#fff"/><path d="M794,146.59h-9.31a6.11,6.11,0,0,0-6.36-5.62c-4.2,0-7.09,3.24-7.09,9s2.89,8.91,7.09,8.91a6.1,6.1,0,0,0,6.36-5.56H794c-.23,7.38-6.53,13.28-15.67,13.28-10.22,0-16.35-6.64-16.35-16.63s6.13-16.63,16.35-16.63C787.42,133.31,793.72,139.16,794,146.59Z" fill="#fff"/><path d="M827.72,147.67v18.11h-8.85v-3.46c-2.22,2.55-5.68,4-10.34,4-6.64,0-10.78-3.35-10.78-8.86,0-5,3.29-8.8,11.58-10.22l9.54-1.58c0-3.07-1.93-4.83-5.51-4.83s-5.11,1.48-5.34,3.92h-9c.18-5.85,4.94-11.3,14.31-11.3C822.5,133.48,827.72,138.59,827.72,147.67Zm-8.85,4.77V152l-7.27,1.19c-3.8.62-4.77,1.93-4.77,3.57,0,1.42,1.36,2.45,3.92,2.45C815.63,159.2,818.87,156.47,818.87,152.44Z" fill="#fff"/><path d="M863.48,147.84v17.94h-8.86V149.54c0-4.88-2.32-7.6-5.9-7.6s-6.13,2.95-6.13,7.55v16.29h-8.85V134.05h8.85v3.57a10.75,10.75,0,0,1,9-4.31C858.83,133.31,863.48,138.48,863.48,147.84Z" fill="#fff"/><path d="M875.23,127.12c0,4.6-2.33,8-7.67,9.71l-1.19.4L865,133l1.19-.34c2.5-.74,3.8-1.82,4.32-3.47a6,6,0,0,1-1.08.12,4.56,4.56,0,0,1-4.83-4.54,4.65,4.65,0,0,1,5-4.72C873.13,120.08,875.23,122.87,875.23,127.12Z" fill="#fff"/><path d="M900.26,141.54h-6.87v24.24h-8.85V141.54h-6v-7.49h6v-10h8.85v10h6.87Z" fill="#fff"/><path d="M956.05,134.05v33.66c0,6.92-4.25,11.24-11.18,11.24h-15.1v-7.49h13.68c2.56,0,3.75-1.25,3.75-3.75v-6.53c-2.1,2.73-5.39,4.43-9.88,4.43-8.23,0-14.08-5.73-14.08-16.23s5.85-16.07,14.08-16.07c4.49,0,7.78,1.65,9.88,4.43v-3.69Zm-8.85,15.1c0-5.17-3-8.23-7.32-8.23s-7.38,3.06-7.38,8.23,3.12,8.46,7.38,8.46S947.2,154.37,947.2,149.15Z" fill="#fff"/><path d="M993.06,152.55H969.62a6.82,6.82,0,0,0,7.21,6.42c3.12,0,5.22-1,6.18-2.84h9.43c-1.82,6-7.61,10.22-15.73,10.22-9.93,0-16.46-6.53-16.46-16.41s6.42-16.46,16.41-16.46,16.4,6.47,16.4,16.35Zm-23.33-6.07h14c-.63-3.58-3.41-5.62-7-5.62A7,7,0,0,0,969.73,146.48Z" fill="#fff"/><path d="M1016.33,141.54h-6.87v24.24h-8.85V141.54h-6v-7.49h6v-10h8.85v10h6.87Z" fill="#fff"/><path d="M699.7,210.05l-17.6,42.17h-8.57l4.88-11.63L666,210.05H675l7.95,19.75,8.23-19.75Z" fill="#fff"/><path d="M733.92,225.94c0,9.48-6.07,16.63-16.68,16.63s-16.75-7.15-16.75-16.63,6.07-16.63,16.75-16.63S733.92,216.46,733.92,225.94Zm-24.18,0c0,5.23,2.9,8.57,7.5,8.57s7.43-3.34,7.43-8.57-2.84-8.57-7.43-8.57S709.74,220.72,709.74,225.94Z" fill="#fff"/><path d="M767.13,210.05v31.73h-8.86v-3.41a10.35,10.35,0,0,1-8.68,4.2c-7,0-11.52-5.22-11.52-14.58V210.05h8.85v16.29c0,4.83,2.22,7.55,5.62,7.55s5.73-2.9,5.73-7.49V210.05Z" fill="#fff"/><path d="M825.82,225.94c0,9.48-6.07,16.63-16.69,16.63s-16.75-7.15-16.75-16.63,6.08-16.63,16.75-16.63S825.82,216.46,825.82,225.94Zm-24.18,0c0,5.23,2.89,8.57,7.49,8.57s7.44-3.34,7.44-8.57-2.84-8.57-7.44-8.57S801.64,220.72,801.64,225.94Z" fill="#fff"/><path d="M859,210.05v31.73h-8.85v-3.41a10.37,10.37,0,0,1-8.69,4.2c-7,0-11.52-5.22-11.52-14.58V210.05h8.86v16.29c0,4.83,2.21,7.55,5.62,7.55s5.73-2.9,5.73-7.49V210.05Z" fill="#fff"/><path d="M885.59,217.54h-6.87v24.24h-8.86V217.54h-6v-7.49h6v-10h8.86v10h6.87Z" fill="#fff"/><path d="M942,225.94c0,9.48-6.08,16.63-16.69,16.63s-16.75-7.15-16.75-16.63,6.08-16.63,16.75-16.63S942,216.46,942,225.94Zm-24.18,0c0,5.23,2.89,8.57,7.49,8.57s7.43-3.34,7.43-8.57-2.83-8.57-7.43-8.57S917.83,220.72,917.83,225.94Z" fill="#fff"/><path d="M958.24,206.19v3.86h6.64v7.49h-6.64v24.24h-8.86V217.54h-5.1v-7.49h5.1v-3.8c0-6.19,3.69-10.05,10.22-10.05h6.19v6.87h-4.37C959.26,203.07,958.24,204.15,958.24,206.19Z" fill="#fff"/><path d="M1038.44,223.84v17.94h-8.85v-16.4c0-5.23-2.1-7.95-5.45-7.95s-5.45,2.95-5.45,7.89v16.46h-8.86v-16.4c0-5.23-2.1-7.95-5.45-7.95s-5.44,2.95-5.44,7.89v16.46h-8.86V210.05h8.86v3.46a9.5,9.5,0,0,1,8.23-4.2,10.42,10.42,0,0,1,9.36,5,11.14,11.14,0,0,1,9.59-5C1033.56,209.31,1038.44,214.87,1038.44,223.84Z" fill="#fff"/><path d="M1074,210.05l-17.6,42.17h-8.57l4.88-11.63-12.37-30.54h8.91l8,19.75,8.23-19.75Z" fill="#fff"/><rect x="589.98" y="283.93" width="560.11" height="83.36" rx="10.5" fill="#1c2126" opacity="0.2"/><path d="M618.46,328.07v.61l21.18,10.67v8.41l-29.11-16.12V325.1L639.64,309v8.41Z" fill="#fff"/><path d="M650.58,300.11h7.29v19.73h.48c1.77-4.28,5.77-6.73,11-6.73,7.7,0,11.89,4.64,11.89,13.12v22.82h-7.51v-21c0-5.65-2.35-8.39-7.22-8.39-5.1,0-8.45,3.55-8.45,8.9v20.47h-7.48Z" fill="#fff"/><path d="M722.23,339.48c-.84,6.06-6.83,10.28-14.73,10.28-10.06,0-15.87-5.77-15.87-15.83v-5.51c0-9.25,6.23-15.38,15.61-15.38s15,6.09,15,15.9v4.28H699v1.71c0,5.39,3.32,8.87,8.44,8.87,3.91,0,6.9-1.71,7.65-4.32ZM699,328.19h16c0-5.73-3-9.22-7.9-9.22S699,322.42,699,328.19Z" fill="#fff"/><path d="M732.07,339c0-6.32,4.58-10.06,13-10.58l8.83-.52v-3c0-3.65-2.35-5.71-6.48-5.71-3.45,0-6,1.48-6.74,4.06h-7.35c.65-6.09,6.35-10.12,14.29-10.12,8.73,0,13.7,4.29,13.7,11.83v24.05h-7.13v-4.93h-.67c-1.71,3.52-5.49,5.51-10.29,5.51C736.55,349.63,732.07,345.38,732.07,339Zm21.86-2.81V333l-7.7.41c-4.42.26-6.71,2-6.71,5.16s2.39,5,6.16,5C750.45,343.51,753.93,340.45,753.93,336.19Z" fill="#fff"/><path d="M772,334.51v-6.28c0-9.39,5-15.09,13.12-15.09,5.09,0,8.74,2.29,10.06,6.38h.64V300.11h7.74v48.94H796v-5.8h-.64c-1.49,4.13-5.06,6.35-10.19,6.35C777,349.6,772,343.93,772,334.51Zm24-.45v-5.51c0-5.58-3.12-9-8.15-9s-8.19,3.48-8.19,9v5.51c0,5.55,3.13,9,8.19,9S796,339.61,796,334.06Z" fill="#fff"/><path d="M814.66,309l29.12,16.12v6.54l-29.12,16.12v-8.41l21.18-10.67v-.61l-21.18-10.68Z" fill="#fff"/><path d="M863.42,328.07v.61l21.18,10.67v8.41l-29.11-16.12V325.1L884.6,309v8.41Z" fill="#fff"/><path d="M896,355.05l22.18-58.52h7.61l-22.34,58.52Z" fill="#fff"/><path d="M936.37,300.11h7.28v19.73h.49c1.77-4.28,5.77-6.73,11-6.73,7.71,0,11.9,4.64,11.9,13.12v22.82h-7.51v-21c0-5.65-2.36-8.39-7.23-8.39-5.09,0-8.44,3.55-8.44,8.9v20.47h-7.48Z" fill="#fff"/><path d="M1008,339.48c-.84,6.06-6.84,10.28-14.74,10.28-10.06,0-15.86-5.77-15.86-15.83v-5.51c0-9.25,6.22-15.38,15.6-15.38s15.06,6.09,15.06,15.9v4.28H984.8v1.71c0,5.39,3.32,8.87,8.45,8.87,3.9,0,6.9-1.71,7.64-4.32ZM984.8,328.19h16c0-5.73-3-9.22-7.9-9.22S984.8,322.42,984.8,328.19Z" fill="#fff"/><path d="M1017.86,339c0-6.32,4.58-10.06,13-10.58l8.84-.52v-3c0-3.65-2.35-5.71-6.48-5.71-3.45,0-6,1.48-6.74,4.06h-7.35c.64-6.09,6.35-10.12,14.28-10.12,8.74,0,13.7,4.29,13.7,11.83v24.05H1040v-4.93h-.68c-1.71,3.52-5.48,5.51-10.28,5.51C1022.34,349.63,1017.86,345.38,1017.86,339Zm21.86-2.81V333l-7.71.41c-4.41.26-6.7,2-6.7,5.16s2.38,5,6.15,5C1036.24,343.51,1039.72,340.45,1039.72,336.19Z" fill="#fff"/><path d="M1057.78,334.51v-6.28c0-9.39,5-15.09,13.12-15.09,5.1,0,8.74,2.29,10.06,6.38h.65V300.11h7.74v48.94h-7.61v-5.8h-.65c-1.48,4.13-5.06,6.35-10.19,6.35C1062.81,349.6,1057.78,343.93,1057.78,334.51Zm24-.45v-5.51c0-5.58-3.13-9-8.16-9s-8.19,3.48-8.19,9v5.51c0,5.55,3.13,9,8.19,9S1081.77,339.61,1081.77,334.06Z" fill="#fff"/><path d="M1100.45,309l29.11,16.12v6.54l-29.11,16.12v-8.41l21.18-10.67v-.61l-21.18-10.68Z" fill="#fff"/><path d="M196.23,403c-14.94,0-28.46-5.72-37.1-15.68a37.75,37.75,0,0,1-7.28-13,50.28,50.28,0,0,1-20.22,4.3,46.4,46.4,0,0,1-13.69-2c-5.56-1.72-9.78-4.2-12.88-7.57-6.82-7.4-7-17.56-5.86-25.5a24.44,24.44,0,0,1-17.8-15.75c-3.11-9-1.17-20,5.19-29.39,4-5.9,9.24-10.67,14.39-14.87-4.65-8-9.41-21.5-5.37-31.92,2.07-5.35,7-11.56,18.47-13.5a26.21,26.21,0,0,1,.76-9.9,33.14,33.14,0,0,1,15.85-20c6.52-3.5,14.11-5.2,23.23-5.2,2.14,0,4.37.09,6.78.29a28.15,28.15,0,0,1,2.92-12.18,34.7,34.7,0,0,1,15.5-15.77c6.92-3.45,14.85-5.06,25-5.06,3.13,0,6.24.15,9.25.37a41.82,41.82,0,0,1,28.32-21.09,40.14,40.14,0,0,1,7.92-.78A42.32,42.32,0,0,1,271.69,155a15.33,15.33,0,0,1,10.89-4.8H283a22.26,22.26,0,0,1,12.15,4.58,46.73,46.73,0,0,1,28.19-9.38,44.31,44.31,0,0,1,14.59,2.42,46.64,46.64,0,0,1,28.83,30.63,56.51,56.51,0,0,1,11.37-1.24,35.81,35.81,0,0,1,14.85,3,27.18,27.18,0,0,1,14.45,16.65,56.49,56.49,0,0,1,7.12-.46,49.87,49.87,0,0,1,23.57,5.76c21,11.27,31.57,38.28,25.19,61,6.41,2.94,11.88,8.76,15.77,13.88,13.52,17.78,23.86,47.84,17.46,70.87-2.92,10.51-12.91,17.57-24.86,17.57h0a26.51,26.51,0,0,1-12-2.79c-5.25,11.12-13.14,19.75-22.77,24.75A40.51,40.51,0,0,1,418.2,392a36,36,0,0,1-19.77-5.61,59,59,0,0,1-38,13.33c-15.38,0-30.6-5.58-38.8-14.22-.41-.44-.81-.89-1.19-1.34-11,10.59-25.52,16.31-42,16.31-15.37,0-30.7-5.21-38.17-13-.15-.15-.29-.31-.43-.46-11.85,8.47-23.69,13.64-35.29,15.36A56.85,56.85,0,0,1,196.23,403Z" fill="#b7303d"/><path d="M323.33,151.94A37.94,37.94,0,0,1,335.78,154a40,40,0,0,1,26,32.4,61.48,61.48,0,0,1,16.38-2.65,29.22,29.22,0,0,1,12.17,2.42c7,3.19,12.23,11.14,11.54,18.45a49.73,49.73,0,0,1,12.71-1.68,43.21,43.21,0,0,1,20.49,5c20.41,11,29.59,38.93,19.64,59.85H455c18.1,0,43.79,47.69,35.25,78.43C488,354.53,479.77,359,471.67,359a18.42,18.42,0,0,1-14.86-6.85c-3.89,12.19-11.59,23.64-22.95,29.55a34.29,34.29,0,0,1-15.66,3.78c-7.43,0-14.75-2.45-20.05-7.63a52.52,52.52,0,0,1-37.7,15.35c-20.73,0-38.66-11.1-38.13-21.15C310.68,388.37,293.77,394,278.48,394c-19.64,0-36.6-9.24-36.31-16.89C231,386.24,218,393.83,203.63,396a49.32,49.32,0,0,1-7.4.55c-12.11,0-24.32-4.36-32.19-13.44a32.38,32.38,0,0,1-7.59-18.72,43.6,43.6,0,0,1-24.82,7.82,40.18,40.18,0,0,1-11.77-1.74,22.36,22.36,0,0,1-10-5.76c-6.57-7.14-4.87-18.32-2.76-27.79a12.47,12.47,0,0,1-3.85.6c-6.77,0-13.42-5.18-15.69-11.78-2.7-7.85-.24-16.75,4.42-23.62s11.32-12.11,17.86-17.24C105.19,280.62,86,244,122,244h.9c-6.32-10.16.36-24.44,10.91-30.09,6.17-3.32,13.09-4.43,20.15-4.43a102.52,102.52,0,0,1,15,1.29c-5.21-10.8,2.4-24.29,13.13-29.63,6.81-3.4,14.38-4.38,22.06-4.38,4.42,0,8.88.33,13.24.7a35.56,35.56,0,0,1,25.62-21.55,33.49,33.49,0,0,1,6.63-.65,35.62,35.62,0,0,1,25.34,10.59c-1.93-4.33,2.93-9.15,7.67-9.15h.21c4.8.14,8.86,3.41,12.53,6.52a40,40,0,0,1,28-11.32m0-13h0A53.6,53.6,0,0,0,295,147.05a26.28,26.28,0,0,0-11.77-3.31h-.61a21.38,21.38,0,0,0-11.62,3.5,48.86,48.86,0,0,0-21.39-4.94,46.22,46.22,0,0,0-9.2.91,48.42,48.42,0,0,0-30.59,20.73c-1.87-.08-3.78-.14-5.7-.14-11.15,0-20,1.83-27.86,5.74-10.36,5.16-18.8,15.5-21.28,27h-1c-10.22,0-18.82,2-26.3,6a39.31,39.31,0,0,0-19.06,24.08,33.67,33.67,0,0,0-1.08,6.5,32.12,32.12,0,0,0-5.61,2.36,26.62,26.62,0,0,0-12.33,13.87c-3,7.78-2.58,17.37,1.23,27.75.56,1.51,1.25,3.18,2,4.91a68.45,68.45,0,0,0-11.61,12.83c-7.5,11-9.73,24.19-6,35.15a31.29,31.29,0,0,0,17,18.19c-.41,8.23,1,17.7,8,25.35,3.91,4.25,9.07,7.31,15.76,9.38a52.85,52.85,0,0,0,15.6,2.32,56.43,56.43,0,0,0,16.62-2.53,42.9,42.9,0,0,0,6,8.94c9.87,11.4,25.18,17.93,42,17.93a63,63,0,0,0,9.32-.69c11.19-1.66,22.5-6.21,33.76-13.54,9.32,7.2,24.06,11.69,39.17,11.69,15.92,0,30.25-4.86,41.73-14,9.75,8.11,25,13.19,40.24,13.19a66.24,66.24,0,0,0,38.49-12.08,43.37,43.37,0,0,0,19.26,4.36,47.09,47.09,0,0,0,21.66-5.25,57.32,57.32,0,0,0,22.84-22.4,34.36,34.36,0,0,0,9,1.17c14.91,0,27.42-9,31.13-22.33,7-25.07-4.07-57.49-18.55-76.55a57.13,57.13,0,0,0-13.54-13.2,61,61,0,0,0-2.12-29.87c-4.78-14.55-14.77-26.8-27.4-33.59a56.49,56.49,0,0,0-26.65-6.53c-1,0-1.9,0-2.85.07a33.47,33.47,0,0,0-16-15.68,42.17,42.17,0,0,0-17.53-3.58,58.07,58.07,0,0,0-7.09.45,53.15,53.15,0,0,0-31-29.47,50.81,50.81,0,0,0-16.73-2.79Z" fill="#b7303d"/><path d="M400.07,210.05c5-8.33-.92-19.87-9.78-23.88s-19.19-2.41-28.55.23a39.07,39.07,0,0,0-66.42-23.14c-3.67-3.11-7.73-6.38-12.53-6.52s-9.84,4.75-7.88,9.14a34.89,34.89,0,0,0-57.59,11.61c-11.94-1-24.57-1.67-35.3,3.68S163.68,200,168.89,210.8c-11.84-1.76-24.58-2.52-35.12,3.14S116.54,233.87,122.86,244c-37.19-.61-17.71,36.56-13,40.81C103.28,290,96.63,295.21,92,302.08s-7.12,15.77-4.42,23.62,11.62,13.7,19.54,11.18c-2.11,9.47-3.81,20.65,2.76,27.79a22.36,22.36,0,0,0,10,5.76,42.69,42.69,0,0,0,43.88-12.66" fill="#ffd3bf" stroke="#1c2126" stroke-linecap="round" stroke-linejoin="round" stroke-width="2"/><path d="M171.44,284.76c15.53-30.46,42.32-32,68.26-26.17,1.14-14.38,8.66-28.73,21.36-35.57s30.47-4.32,38.95,7.34c11.35-8.9,23.24-18.06,37.35-21.07s31.08,2.12,36.93,15.31c12-19.85,40.34-27.64,60.74-16.68s29.59,38.93,19.64,59.85c18.12-.62,44.19,47.49,35.6,78.43-3.93,14.16-24.88,17.23-33.46,6-3.89,12.19-11.59,23.64-22.95,29.55s-26.56,5.1-35.71-3.85c-29.48,29.37-76.68,10.41-75.83-5.8-26.58,37.24-80.67,18.64-80.15,5C231,386.24,218,393.83,203.63,396S173.52,394,164,383.07s-10.69-29.1-.74-39.62c-13.78-2.61-26.79-11.52-32-24.53s-1.12-29.81,10.82-37.17,36.83-.66,41,27.21" fill="#ffd3bf" stroke="#1c2126" stroke-linecap="round" stroke-linejoin="round" stroke-width="2"/><line x1="300.06" y1="167.07" x2="294.57" y2="162.63" fill="none" stroke="#1c2126" stroke-linecap="round" stroke-linejoin="round" stroke-width="2"/><line x1="277.04" y1="169.26" x2="274.91" y2="165.88" fill="none" stroke="#1c2126" stroke-linecap="round" stroke-linejoin="round" stroke-width="2"/><path d="M122.86,244s11.8,15.48,31.88,4.38" fill="none" stroke="#1c2126" stroke-linecap="round" stroke-linejoin="round" stroke-width="2"/><line x1="300.01" y1="230.36" x2="291.47" y2="236.84" fill="none" stroke="#1c2126" stroke-linecap="round" stroke-linejoin="round" stroke-width="2"/><path d="M407.22,366.26s-5.9,8.56-9.07,11.6" fill="none" stroke="#1c2126" stroke-linecap="round" stroke-linejoin="round" stroke-width="2"/><path d="M374.6,292.89s-10.16-10.49-20.65,0" fill="none" stroke="#1c2126" stroke-linecap="round" stroke-miterlimit="10" stroke-width="2"/><path d="M339.17,292.89s-10.16-10.49-20.65,0" fill="none" stroke="#1c2126" stroke-linecap="round" stroke-miterlimit="10" stroke-width="2"/><path d="M368.86,305.15c-.36,11.1-10.19,20-22.3,20s-21.94-8.89-22.3-20Z" fill="#7a122d" stroke="#1c2126" stroke-linecap="round" stroke-linejoin="round" stroke-width="2"/><line x1="258.81" y1="362.9" x2="240.56" y2="378.38" fill="none" stroke="#1c2126" stroke-linecap="round" stroke-linejoin="round" stroke-width="2"/><path d="M361.74,186.4a48.35,48.35,0,0,1-.82,10.06" fill="none" stroke="#1c2126" stroke-linecap="round" stroke-linejoin="round" stroke-width="2"/><path d="M213,177.15c9.25.94,17.25,3.13,23.52,6.25a28.73,28.73,0,0,1,6.83,4.24,9.6,9.6,0,0,1,3.39,7.05c-.09,3.61-2.88,6.6-5.94,8.51-9.45,5.86-31.09,1.07-41.32-3.3,0,0,39.76,13.25,12.72,30.46" fill="none" stroke="#1c2126" stroke-linecap="round" stroke-linejoin="round" stroke-width="2"/><path d="M154.74,236.66s-6,11.1,9.18,22.42" fill="none" stroke="#1c2126" stroke-linecap="round" stroke-linejoin="round" stroke-width="2"/><path d="M198.64,259.08s-17.25-4.93-17.25-16.69" fill="none" stroke="#1c2126" stroke-linecap="round" stroke-linejoin="round" stroke-width="2"/><path d="M118.72,292.41a26.94,26.94,0,0,1-8.9-7.57" fill="none" stroke="#1c2126" stroke-linecap="round" stroke-linejoin="round" stroke-width="2"/><path d="M325.46,177.15S294.12,200,265.88,183.4" fill="none" stroke="#1c2126" stroke-linecap="round" stroke-linejoin="round" stroke-width="2"/><path d="M295.67,189.43s9.7,21.21-8.91,31.5" fill="none" stroke="#1c2126" stroke-linecap="round" stroke-linejoin="round" stroke-width="2"/><path d="M331.5,193.35a23.94,23.94,0,0,1,5.86,15.94" fill="none" stroke="#1c2126" stroke-linecap="round" stroke-linejoin="round" stroke-width="2"/><path d="M121.88,341.14s-13.45-7.44-14.16-21.6" fill="none" stroke="#1c2126" stroke-linecap="round" stroke-linejoin="round" stroke-width="2"/><path d="M456.81,352.16s-7.37-6.27-11.47-26.18" fill="none" stroke="#1c2126" stroke-linecap="round" stroke-linejoin="round" stroke-width="2"/><path d="M456.81,324.52s-16.74-2.64-28.16,9.07" fill="none" stroke="#1c2126" stroke-linecap="round" stroke-linejoin="round" stroke-width="2"/><path d="M374.29,224.6s9.41,20.91-9.06,22.36" fill="none" stroke="#1c2126" stroke-linecap="round" stroke-linejoin="round" stroke-width="2"/><path d="M163.3,343.45s7.82-8.89,19.82,0" fill="none" stroke="#1c2126" stroke-linecap="round" stroke-linejoin="round" stroke-width="2"/><path d="M239.7,258.59s21.05,3.19,15.38,20.17" fill="none" stroke="#1c2126" stroke-linecap="round" stroke-linejoin="round" stroke-width="2"/><path d="M235.18,278.64a48.89,48.89,0,0,1,37.25,8" fill="none" stroke="#1c2126" stroke-linecap="round" stroke-linejoin="round" stroke-width="2"/><path d="M187.73,337.13s-6.6,5.75-4.61,14.38" fill="none" stroke="#1c2126" stroke-linecap="round" stroke-linejoin="round" stroke-width="2"/><path d="M239.7,284.84s.33-4.72-12.49-12.56" fill="none" stroke="#1c2126" stroke-linecap="round" stroke-linejoin="round" stroke-width="2"/><path d="M210.35,288.22s15.26,9.12,13,24.56" fill="none" stroke="#1c2126" stroke-linecap="round" stroke-linejoin="round" stroke-width="2"/><path d="M202.1,319.54a44.29,44.29,0,0,1,37.6-4.36" fill="none" stroke="#1c2126" stroke-linecap="round" stroke-linejoin="round" stroke-width="2"/><path d="M423.7,233.6s-20,8.33-27.65,28.45" fill="none" stroke="#1c2126" stroke-linecap="round" stroke-linejoin="round" stroke-width="2"/><path d="M373.4,259.76s19.2-2.38,28.5,6.2" fill="none" stroke="#1c2126" stroke-linecap="round" stroke-linejoin="round" stroke-width="2"/><path d="M290.12,254.63a33,33,0,0,0,29.29-3.76c14.67-9.83,22.75-16.31,32.73-17.27" fill="none" stroke="#1c2126" stroke-linecap="round" stroke-linejoin="round" stroke-width="2"/><path d="M346.56,230.36s8.87.22,5.58,6.48" fill="none" stroke="#1c2126" stroke-linecap="round" stroke-linejoin="round" stroke-width="2"/><path d="M322.32,372.06s8.3-10.57,12.11-18" fill="none" stroke="#1c2126" stroke-linecap="round" stroke-linejoin="round" stroke-width="2"/><path d="M306.39,346.2s25.12,12.89,52.05,4.54" fill="none" stroke="#1c2126" stroke-linecap="round" stroke-linejoin="round" stroke-width="2"/><path d="M227.21,346.2s29.54,8.36,42.42-7.13" fill="none" stroke="#1c2126" stroke-linecap="round" stroke-linejoin="round" stroke-width="2"/><path d="M261.55,335s3.51,5.27,14.92,4" fill="none" stroke="#1c2126" stroke-linecap="round" stroke-linejoin="round" stroke-width="2"/><path d="M404.37,297.82s14.56,23.8-6.22,43.65" fill="none" stroke="#1c2126" stroke-linecap="round" stroke-linejoin="round" stroke-width="2"/><path d="M454.67,267.77a129.52,129.52,0,0,1-13.39,22.79" fill="none" stroke="#1c2126" stroke-linecap="round" stroke-linejoin="round" stroke-width="2"/><line x1="107.08" y1="336.88" x2="112.52" y2="332.61" fill="none" stroke="#1c2126" stroke-linecap="round" stroke-linejoin="round" stroke-width="2"/><path d="M367,71.6a7.13,7.13,0,0,1,1.16-2.91,7.78,7.78,0,0,1,4-3.68,7.17,7.17,0,0,1,5.55,1,15.62,15.62,0,0,1,4,3.28,12.79,12.79,0,0,1,2.83-6.59,8,8,0,0,1,6.5-2.85,5.86,5.86,0,0,1,5.24,4.43c.45,2.31-.75,4.59-1.92,6.63q-4.4,7.64-9,15.14l-12.84-7.52C369.73,77,366.65,74.72,367,71.6Z" fill="#ffdd73" stroke="#1c2126" stroke-linejoin="round" stroke-width="2"/><path d="M410.89,43.19A8.32,8.32,0,0,1,414,41.42c2-.71,4.26-1.19,6.24-.4s3.41,2.88,4.22,5a18.06,18.06,0,0,1,1.2,5.85A14.79,14.79,0,0,1,433,48a9.23,9.23,0,0,1,7.89,2.17,6.75,6.75,0,0,1,1.48,7.77c-1.28,2.39-4,3.56-6.54,4.54q-9.5,3.66-19.09,7l-6-16.06C409.46,50,408.35,45.76,410.89,43.19Z" fill="#ffdd73" stroke="#1c2126" stroke-linejoin="round" stroke-width="2"/><path d="M394.29,107.7a8.62,8.62,0,0,1,3.56-1.46c2.21-.48,4.65-.69,6.64.41s3.21,3.49,3.79,5.8a19.26,19.26,0,0,1,.49,6.33,15.61,15.61,0,0,1,8.24-3.09,9.76,9.76,0,0,1,8,3.34,7.18,7.18,0,0,1,.53,8.4c-1.67,2.35-4.7,3.22-7.5,3.91Q407.57,134,397,136.2q-2.12-8.86-4.24-17.75C391.86,114.72,391.27,110.06,394.29,107.7Z" fill="#ffdd73" stroke="#1c2126" stroke-linejoin="round" stroke-width="2"/><rect y="595" width="1200" height="35" fill="#fff"/><rect y="499.19" width="1200" height="95.81" fill="#fff"/><line y1="499.19" x2="1200" y2="499.19" fill="none" stroke="#1c2126" stroke-miterlimit="10"/><line y1="595" x2="1200" y2="595" fill="none" stroke="#1c2126" stroke-miterlimit="10"/><path d="M24.24,559.45V540.69H17.85v-2.37H33.21v2.37H26.82v18.76Z" fill="#1c2126"/><path d="M44.08,559.89c-4.81,0-7.75-3.45-7.75-9.3v-3.41c0-5.85,2.94-9.3,7.75-9.3s7.74,3.45,7.74,9.3v3.41C51.82,556.44,48.88,559.89,44.08,559.89Zm5.14-9.31v-3.39c0-4.41-1.94-6.87-5.14-6.87s-5.15,2.46-5.15,6.87v3.39c0,4.41,1.94,6.87,5.15,6.87S49.22,555,49.22,550.58Z" fill="#1c2126"/><path d="M60,545.58a2.65,2.65,0,1,1,2.65,2.71A2.7,2.7,0,0,1,60,545.58Zm0,11.25a2.65,2.65,0,1,1,2.65,2.71A2.68,2.68,0,0,1,60,556.83Z" fill="#1c2126"/><line x1="582.03" y1="498.72" x2="582.03" y2="595" fill="none" stroke="#1c2126" stroke-miterlimit="10"/><path d="M1129.73,614.6a4.72,4.72,0,1,1-4.71-4.69A4.43,4.43,0,0,1,1129.73,614.6Zm-6.82,0A2.12,2.12,0,0,0,1125,617c1.3,0,2.1-.94,2.1-2.41s-.8-2.42-2.1-2.42S1122.91,613.12,1122.91,614.6Z" fill="#1c2126"/><path d="M1138.54,612.93H1136c0-.57-.52-1-1.37-1s-1.25.3-1.25.72.19.62,1.2.8l1.2.19c2.3.39,2.91,1.43,2.91,2.79,0,1.74-1.39,2.85-3.92,2.85-2.72,0-4.08-1.3-4.08-3.09h2.48c0,.65.53,1.1,1.7,1.1.88,0,1.33-.3,1.33-.75s-.26-.72-1.3-.9l-1.25-.21c-2.11-.33-2.77-1.39-2.77-2.67,0-1.58,1.3-2.8,3.78-2.8S1138.54,611.24,1138.54,612.93Z" fill="#1c2126"/><path d="M1147.49,612.93H1145c0-.57-.53-1-1.38-1s-1.25.3-1.25.72.2.62,1.2.8l1.2.19c2.31.39,2.92,1.43,2.92,2.79,0,1.74-1.39,2.85-3.92,2.85-2.72,0-4.09-1.3-4.09-3.09h2.49c0,.65.52,1.1,1.69,1.1.88,0,1.33-.3,1.33-.75s-.26-.72-1.3-.9l-1.24-.21c-2.12-.33-2.77-1.39-2.77-2.67,0-1.58,1.29-2.8,3.77-2.8S1147.49,611.24,1147.49,612.93Z" fill="#1c2126"/><path d="M1152,617.64a1.6,1.6,0,1,1-1.6-1.62A1.55,1.55,0,0,1,1152,617.64Z" fill="#1c2126"/><path d="M1156.27,606.34v12.72h-2.5V606.34Z" fill="#1c2126"/><path d="M1167,614.6a4.71,4.71,0,1,1-4.7-4.69A4.42,4.42,0,0,1,1167,614.6Zm-6.81,0a2.12,2.12,0,0,0,2.11,2.41c1.29,0,2.1-.94,2.1-2.41s-.81-2.42-2.1-2.42S1160.16,613.12,1160.16,614.6Z" fill="#1c2126"/><path d="M1176.59,610.12l-3.26,8.94h-3l-3.29-8.94h2.64l2.17,6.32,2.16-6.32Z" fill="#1c2126"/><path d="M1186.06,615.33h-6.61a1.92,1.92,0,0,0,2,1.81,1.83,1.83,0,0,0,1.75-.8h2.66a5,5,0,1,1,.17-1.77Zm-6.58-1.71h3.94a1.87,1.87,0,0,0-2-1.58A2,2,0,0,0,1179.48,613.62Z" fill="#1c2126"/><path d="M605.51,559.45V538.32H618v2.37H608.1v7.25h9v2.3h-9v9.21Z" fill="#1c2126"/><path d="M625.54,551v8.42H623V538.32h7.09c4.19,0,6.81,2.43,6.81,6.35A5.91,5.91,0,0,1,633,550.5l4.3,9h-2.91L630.41,551Zm0-2.18h4.19c2.92,0,4.56-1.48,4.56-4.12s-1.61-4.11-4.44-4.11h-4.31Z" fill="#1c2126"/><path d="M648.15,559.89c-4.81,0-7.75-3.45-7.75-9.3v-3.41c0-5.85,2.94-9.3,7.75-9.3s7.75,3.45,7.75,9.3v3.41C655.9,556.44,653,559.89,648.15,559.89Zm5.14-9.31v-3.39c0-4.41-1.93-6.87-5.14-6.87s-5.14,2.46-5.14,6.87v3.39c0,4.41,1.93,6.87,5.14,6.87S653.29,555,653.29,550.58Z" fill="#1c2126"/><path d="M661.38,559.45h-2.3V538.32H662l4.64,13.12h.19l4.62-13.12h2.9v21.13H672v-8.11l.13-8.56H672l-4.25,11.71h-2l-4.25-11.71h-.19l.14,8.56Z" fill="#1c2126"/><path d="M682.59,545.58a2.65,2.65,0,1,1,2.65,2.71A2.7,2.7,0,0,1,682.59,545.58Zm0,11.25a2.65,2.65,0,1,1,2.65,2.71A2.68,2.68,0,0,1,682.59,556.83Z" fill="#1c2126"/><path d="M27.75,606.92v12.14h-2.7v-2.13l-4.71-5.41v7.54H17.63V606.92H20l5.09,5.85v-5.85Z" fill="#1c2126"/><path d="M38.37,615.33H31.76a1.92,1.92,0,0,0,2,1.81,1.81,1.81,0,0,0,1.74-.8H38.2a4.35,4.35,0,0,1-4.44,2.88,4.63,4.63,0,1,1,0-9.26,4.32,4.32,0,0,1,4.62,4.61Zm-6.58-1.71h3.94a1.87,1.87,0,0,0-2-1.58A2,2,0,0,0,31.79,613.62Z" fill="#1c2126"/><path d="M44.93,612.23H43v6.83H40.5v-6.83H38.82v-2.11H40.5V607.3H43v2.82h1.93Z" fill="#1c2126"/><path d="M48.9,606.34v12.72H46.4V606.34Z" fill="#1c2126"/><path d="M53.62,607.59a1.46,1.46,0,0,1-1.51,1.5,1.51,1.51,0,1,1,1.51-1.5Zm-.24,2.32v9.15h-2.5v-9.15a2.06,2.06,0,0,0,1.25.37A2,2,0,0,0,53.38,609.91Z" fill="#1c2126"/><path d="M58.55,609v1.09h1.87v2.11H58.55v6.83h-2.5v-6.83H54.61v-2.11h1.44V609a2.62,2.62,0,0,1,2.88-2.83h1.75v1.94H59.44A.78.78,0,0,0,58.55,609Z" fill="#1c2126"/><path d="M70.71,610.12l-5,11.89H63.33l1.38-3.28-3.49-8.61h2.51L66,615.69l2.32-5.57Z" fill="#1c2126"/><path d="M109.4,613c0,3.92-2.34,6.22-5.8,6.22s-5.79-2.3-5.79-6.22,2.33-6.25,5.79-6.25S109.4,609.08,109.4,613Zm-8.79,0c0,2.35,1.3,3.66,3,3.66s3-1.31,3-3.66-1.32-3.67-3-3.67S100.61,610.63,100.61,613Z" fill="#1c2126"/><path d="M120.32,610.53h-2.8c0-.89-.67-1.52-1.85-1.52s-1.7.55-1.7,1.23.38,1,1.49,1.3l1.37.32c2.65.59,3.73,1.73,3.73,3.73s-1.6,3.63-4.73,3.63-4.9-1.61-4.9-4h2.8a1.88,1.88,0,0,0,2.11,1.84c1.27,0,1.92-.63,1.92-1.44s-.38-1.09-1.57-1.35l-1.32-.27c-2.77-.56-3.72-1.87-3.72-3.73,0-2.06,1.6-3.54,4.58-3.54S120.32,608.29,120.32,610.53Z" fill="#1c2126"/><path d="M131.38,610.53h-2.8c0-.89-.67-1.52-1.86-1.52-1,0-1.69.55-1.69,1.23s.38,1,1.48,1.3l1.38.32c2.64.59,3.73,1.73,3.73,3.73s-1.6,3.63-4.74,3.63-4.9-1.61-4.9-4h2.81a1.88,1.88,0,0,0,2.11,1.84c1.26,0,1.92-.63,1.92-1.44s-.39-1.09-1.57-1.35l-1.33-.27c-2.77-.56-3.71-1.87-3.71-3.73,0-2.06,1.6-3.54,4.58-3.54S131.38,608.29,131.38,610.53Z" fill="#1c2126"/><path d="M91.16,610.11a3.62,3.62,0,0,0-1-1.22,3.91,3.91,0,0,0-2.49-1.14,3.62,3.62,0,0,0-2.51,1.37,8,8,0,0,0-1.41,2.21,6.53,6.53,0,0,0-2.39-2.73,4.09,4.09,0,0,0-3.58-.35,3,3,0,0,0-1.82,3,5,5,0,0,0,2,2.88q3.32,3,6.72,5.87l5-5.64C90.67,613.14,91.8,611.56,91.16,610.11Z" fill="#ff6b60" stroke="#ff6b60" stroke-linejoin="round"/></svg>