<?xml version="1.0" encoding="UTF-8"?><svg xmlns="http://www.w3.org/2000/svg" viewBox="0 0 1200 630"><path id="b" fill="#ffdd73" stroke-width="0" d="M0 0h1200v498.72H0z"/><g id="d"><path fill="#ffb916" stroke="#1c2126" stroke-linejoin="round" stroke-width="2" d="M1110.47 502.95c0 26.78-50.21 48.48-112.15 48.48s-112.15-21.71-112.15-48.48c0-45.56 50.21-52.48 112.15-52.48s112.15 7.46 112.15 52.48Z"/><ellipse cx="998.33" cy="491.46" fill="#b7790b" stroke="#1c2126" stroke-linejoin="round" stroke-width="2" rx="112.15" ry="48.48"/><path fill="#ffb916" stroke="#1c2126" stroke-linejoin="round" stroke-width="2" d="M1113.47 472.39c0 26.78-50.21 48.48-112.15 48.48s-112.15-21.71-112.15-48.48c0-45.56 50.21-52.48 112.15-52.48s112.15 7.46 112.15 52.48Z"/><ellipse cx="1001.33" cy="460.9" fill="#b7790b" stroke="#1c2126" stroke-linejoin="round" stroke-width="2" rx="112.15" ry="48.48"/><path fill="#ffb916" stroke="#1c2126" stroke-linejoin="round" stroke-width="2" d="M1107.59 443.47c0 26.78-50.21 48.48-112.15 48.48s-112.15-21.71-112.15-48.48c0-45.56 50.21-52.48 112.15-52.48s112.15 7.46 112.15 52.48Z"/><ellipse cx="995.44" cy="431.98" fill="#b7790b" stroke="#1c2126" stroke-linejoin="round" stroke-width="2" rx="112.15" ry="48.48"/><path fill="#ffb916" stroke="#1c2126" stroke-linejoin="round" stroke-width="2" d="M1113.47 415.99c0 26.78-50.21 48.48-112.15 48.48s-112.15-21.71-112.15-48.48c0-45.56 50.21-52.48 112.15-52.48s112.15 7.46 112.15 52.48Z"/><ellipse cx="1001.33" cy="404.49" fill="#b7790b" stroke="#1c2126" stroke-linejoin="round" stroke-width="2" rx="112.15" ry="48.48"/><path fill="#ffb916" stroke="#1c2126" stroke-linejoin="round" stroke-width="2" d="M1107.59 392.41c0 26.78-50.21 48.48-112.15 48.48s-112.15-21.71-112.15-48.48c0-45.56 50.21-52.48 112.15-52.48s112.15 7.46 112.15 52.48Z"/><ellipse cx="995.44" cy="380.91" fill="#b7790b" stroke="#1c2126" stroke-linejoin="round" stroke-width="2" rx="112.15" ry="48.48"/><path fill="#ffb916" stroke="#1c2126" stroke-linejoin="round" stroke-width="2" d="M1117.47 361.17c0 26.78-50.21 48.48-112.15 48.48s-112.15-21.71-112.15-48.48c0-45.56 50.21-52.48 112.15-52.48s112.15 7.46 112.15 52.48Z"/><ellipse cx="1005.33" cy="349.67" fill="#b7790b" stroke="#1c2126" stroke-linejoin="round" stroke-width="2" rx="112.15" ry="48.48"/><path fill="#ffb916" stroke="#1c2126" stroke-linejoin="round" stroke-width="2" d="M1113.47 328.24c0 26.78-50.21 48.48-112.15 48.48s-112.15-21.71-112.15-48.48c0-45.56 50.21-52.48 112.15-52.48s112.15 7.46 112.15 52.48Z"/><ellipse cx="1001.33" cy="316.75" fill="#b7790b" stroke="#1c2126" stroke-linejoin="round" stroke-width="2" rx="112.15" ry="48.48"/><path fill="#ffb916" stroke="#1c2126" stroke-linejoin="round" stroke-width="2" d="M1107.59 300.76c0 26.78-50.21 48.48-112.15 48.48s-112.15-21.71-112.15-48.48c0-45.56 50.21-52.48 112.15-52.48s112.15 7.46 112.15 52.48Z"/><ellipse cx="995.44" cy="289.26" fill="#b7790b" stroke="#1c2126" stroke-linejoin="round" stroke-width="2" rx="112.15" ry="48.48"/><path fill="#ffb916" stroke="#1c2126" stroke-linejoin="round" stroke-width="2" d="M1115.73 277.18c0 26.78-50.21 48.48-112.15 48.48s-112.15-21.71-112.15-48.48c0-45.56 50.21-52.48 112.15-52.48s112.15 7.46 112.15 52.48Z"/><ellipse cx="1003.59" cy="265.69" fill="#b7790b" stroke="#1c2126" stroke-linejoin="round" stroke-width="2" rx="112.15" ry="48.48"/><path fill="#ffb916" stroke="#1c2126" stroke-linejoin="round" stroke-width="2" d="M1113.47 245.94c0 26.78-50.21 48.48-112.15 48.48s-112.15-21.71-112.15-48.48c0-45.56 50.21-52.48 112.15-52.48s112.15 7.46 112.15 52.48Z"/><ellipse cx="1001.33" cy="234.44" fill="#b7790b" stroke="#1c2126" stroke-linejoin="round" stroke-width="2" rx="112.15" ry="48.48"/><path fill="#ffb916" stroke="#1c2126" stroke-linejoin="round" stroke-width="2" d="M1112.47 216.01c0 26.78-50.21 48.48-112.15 48.48s-112.15-21.71-112.15-48.48c0-45.56 50.21-52.48 112.15-52.48s112.15 7.46 112.15 52.48Z"/><ellipse cx="1000.33" cy="204.52" fill="#b7790b" stroke="#1c2126" stroke-linejoin="round" stroke-width="2" rx="112.15" ry="48.48"/><path fill="#ffb916" stroke="#1c2126" stroke-linejoin="round" stroke-width="2" d="M1115.73 183.09c0 26.78-50.21 48.48-112.15 48.48s-112.15-21.71-112.15-48.48c0-45.56 50.21-52.48 112.15-52.48s112.15 7.46 112.15 52.48Z"/><ellipse cx="1003.59" cy="171.59" fill="#b7790b" stroke="#1c2126" stroke-linejoin="round" stroke-width="2" rx="112.15" ry="48.48"/><path fill="#ffb916" stroke="#1c2126" stroke-linejoin="round" stroke-width="2" d="M1108.47 155.6c0 26.78-50.21 48.48-112.15 48.48s-112.15-21.71-112.15-48.48c0-45.56 50.21-52.48 112.15-52.48s112.15 7.46 112.15 52.48Z"/><ellipse cx="996.33" cy="144.11" fill="#b7790b" stroke="#1c2126" stroke-linejoin="round" stroke-width="2" rx="112.15" ry="48.48"/><path fill="#ffb916" stroke="#1c2126" stroke-linejoin="round" stroke-width="2" d="M1115.73 132.03c0 26.78-50.21 48.48-112.15 48.48s-112.15-21.71-112.15-48.48c0-45.56 50.21-52.48 112.15-52.48s112.15 7.46 112.15 52.48Z"/><ellipse cx="1003.59" cy="120.53" fill="#b7790b" stroke="#1c2126" stroke-linejoin="round" stroke-width="2" rx="112.15" ry="48.48"/><path fill="#ffb916" stroke="#1c2126" stroke-linejoin="round" stroke-width="2" d="M1107.59 104.53c0 26.78-50.21 48.48-112.15 48.48s-112.15-21.71-112.15-48.48c0-45.56 50.21-52.48 112.15-52.48s112.15 7.46 112.15 52.48Z"/><ellipse cx="995.44" cy="93.04" fill="#b7790b" stroke="#1c2126" stroke-linejoin="round" stroke-width="2" rx="112.15" ry="48.48"/><path fill="#fff6d0" stroke="#1c2126" stroke-linejoin="round" stroke-width="2" d="M966.29 84.16c0 2.43 0 3.85.01 6.28 0 .63 0 1.28.25 1.87.29.68.89 1.19 1.49 1.63 5.21 3.91 28.82 11.68 31.08 11.78 1.64.08 3.34.03 4.83-.66 1.05-.48 12.08-11.76 17.19-17.16.38-.4.76-.81.93-1.33.2-.59-.25-7.65-.98-10.19"/><path fill="#fff6d0" stroke="#1c2126" stroke-linejoin="round" stroke-width="2" d="M1018.62 73.49c-8.36-5.3-24.62-10.38-29.21-9.35-4.6 1.03-15.11 10.9-21.91 17.25-.81.75-1.68 1.74-1.42 2.82.23.95 1.23 1.46 2.13 1.84 9.25 3.99 18.52 7.98 28.09 11.12.99.32 2.02.64 3.05.51 1.2-.16 2.23-.91 3.18-1.64 6.29-4.85 12.08-10.36 17.23-16.41.66-.77 1.33-1.63 1.38-2.64.07-1.5-1.25-2.68-2.52-3.49Z"/><path fill="#ffb916" stroke="#1c2126" stroke-linejoin="round" stroke-width="2" d="M849.73 516.64c0 26.78-50.21 48.48-112.15 48.48s-112.15-21.71-112.15-48.48c0-45.56 50.21-52.48 112.15-52.48s112.15 7.46 112.15 52.48Z"/><ellipse cx="737.59" cy="505.15" fill="#b7790b" stroke="#1c2126" stroke-linejoin="round" stroke-width="2" rx="112.15" ry="48.48"/><path fill="#ffb916" stroke="#1c2126" stroke-linejoin="round" stroke-width="2" d="M842.66 493.06c0 26.78-50.21 48.48-112.15 48.48s-112.15-21.71-112.15-48.48c0-45.56 50.21-52.48 112.15-52.48s112.15 7.46 112.15 52.48Z"/><ellipse cx="730.51" cy="481.57" fill="#b7790b" stroke="#1c2126" stroke-linejoin="round" stroke-width="2" rx="112.15" ry="48.48"/><path fill="#ffb916" stroke="#1c2126" stroke-linejoin="round" stroke-width="2" d="M834.66 461.82c0 26.78-50.21 48.48-112.15 48.48s-112.15-21.71-112.15-48.48c0-45.56 50.21-52.48 112.15-52.48s112.15 7.46 112.15 52.48Z"/><ellipse cx="722.51" cy="450.33" fill="#b7790b" stroke="#1c2126" stroke-linejoin="round" stroke-width="2" rx="112.15" ry="48.48"/><path fill="#ffb916" stroke="#1c2126" stroke-linejoin="round" stroke-width="2" d="M844.66 431.9c0 26.78-50.21 48.48-112.15 48.48s-112.15-21.71-112.15-48.48c0-45.56 50.21-52.48 112.15-52.48s112.15 7.46 112.15 52.48Z"/><ellipse cx="732.51" cy="420.4" fill="#b7790b" stroke="#1c2126" stroke-linejoin="round" stroke-width="2" rx="112.15" ry="48.48"/><path fill="#ffb916" stroke="#1c2126" stroke-linejoin="round" stroke-width="2" d="M844.66 398.97c0 26.78-50.21 48.48-112.15 48.48s-112.15-21.71-112.15-48.48c0-45.56 50.21-52.48 112.15-52.48s112.15 7.46 112.15 52.48Z"/><ellipse cx="732.51" cy="387.48" fill="#b7790b" stroke="#1c2126" stroke-linejoin="round" stroke-width="2" rx="112.15" ry="48.48"/><path fill="#ffb916" stroke="#1c2126" stroke-linejoin="round" stroke-width="2" d="M844.66 371.49c0 26.78-50.21 48.48-112.15 48.48s-112.15-21.71-112.15-48.48c0-45.56 50.21-52.48 112.15-52.48s112.15 7.46 112.15 52.48Z"/><ellipse cx="732.51" cy="359.99" fill="#b7790b" stroke="#1c2126" stroke-linejoin="round" stroke-width="2" rx="112.15" ry="48.48"/><path fill="#ffb916" stroke="#1c2126" stroke-linejoin="round" stroke-width="2" d="M834.66 347.91c0 26.78-50.21 48.48-112.15 48.48s-112.15-21.71-112.15-48.48c0-45.56 50.21-52.48 112.15-52.48s112.15 7.46 112.15 52.48Z"/><ellipse cx="722.51" cy="336.42" fill="#b7790b" stroke="#1c2126" stroke-linejoin="round" stroke-width="2" rx="112.15" ry="48.48"/><path fill="#ffb916" stroke="#1c2126" stroke-linejoin="round" stroke-width="2" d="M840.69 320.41c0 26.78-50.21 48.48-112.15 48.48s-112.15-21.71-112.15-48.48c0-45.56 50.21-52.48 112.15-52.48s112.15 7.46 112.15 52.48Z"/><ellipse cx="728.54" cy="308.92" fill="#b7790b" stroke="#1c2126" stroke-linejoin="round" stroke-width="2" rx="112.15" ry="48.48"/><path fill="#fff6d0" stroke="#1c2126" stroke-linejoin="round" stroke-width="2" d="M695.22 300.05c0 2.43 0 3.85.01 6.28 0 .63 0 1.28.25 1.87.29.68.89 1.19 1.49 1.63 5.21 3.91 28.82 11.68 31.08 11.78 1.64.08 3.34.03 4.83-.66 1.05-.48 12.08-11.76 17.19-17.16.38-.4.76-.81.93-1.33.2-.59-.25-7.65-.98-10.19"/><path fill="#fff6d0" stroke="#1c2126" stroke-linejoin="round" stroke-width="2" d="M747.55 289.38c-8.36-5.3-24.62-10.38-29.21-9.35-4.6 1.03-15.11 10.9-21.91 17.25-.81.75-1.68 1.74-1.42 2.82.23.95 1.23 1.46 2.13 1.84 9.25 3.99 18.52 7.98 28.09 11.12.99.32 2.02.64 3.05.51 1.2-.16 2.23-.91 3.18-1.64 6.29-4.85 12.08-10.36 17.23-16.41.66-.77 1.33-1.63 1.38-2.64.07-1.5-1.25-2.68-2.52-3.49Z"/><path fill="#ffb916" stroke="#1c2126" stroke-linejoin="round" stroke-width="2" d="M308.21 516.64c0 26.78-50.21 48.48-112.15 48.48S83.91 543.41 83.91 516.64c0-45.56 50.21-52.48 112.15-52.48s112.15 7.46 112.15 52.48Z"/><ellipse cx="196.06" cy="505.15" fill="#b7790b" stroke="#1c2126" stroke-linejoin="round" stroke-width="2" rx="112.15" ry="48.48"/><path fill="#ffb916" stroke="#1c2126" stroke-linejoin="round" stroke-width="2" d="M301.77 493.06c0 26.78-50.21 48.48-112.15 48.48S77.47 519.83 77.47 493.06c0-45.56 50.21-52.48 112.15-52.48s112.15 7.46 112.15 52.48Z"/><ellipse cx="189.62" cy="481.57" fill="#b7790b" stroke="#1c2126" stroke-linejoin="round" stroke-width="2" rx="112.15" ry="48.48"/><path fill="#ffb916" stroke="#1c2126" stroke-linejoin="round" stroke-width="2" d="M306.21 461.82c0 26.78-50.21 48.48-112.15 48.48S81.91 488.59 81.91 461.82c0-45.56 50.21-52.48 112.15-52.48s112.15 7.46 112.15 52.48Z"/><ellipse cx="194.06" cy="450.33" fill="#b7790b" stroke="#1c2126" stroke-linejoin="round" stroke-width="2" rx="112.15" ry="48.48"/><path fill="#ffb916" stroke="#1c2126" stroke-linejoin="round" stroke-width="2" d="M308.21 431.9c0 26.78-50.21 48.48-112.15 48.48S83.91 458.67 83.91 431.9c0-45.56 50.21-52.48 112.15-52.48s112.15 7.46 112.15 52.48Z"/><ellipse cx="196.06" cy="420.4" fill="#b7790b" stroke="#1c2126" stroke-linejoin="round" stroke-width="2" rx="112.15" ry="48.48"/><path fill="#ffb916" stroke="#1c2126" stroke-linejoin="round" stroke-width="2" d="M313.28 398.97c0 26.78-50.21 48.48-112.15 48.48S88.98 425.74 88.98 398.97c0-45.56 50.21-52.48 112.15-52.48s112.15 7.46 112.15 52.48Z"/><ellipse cx="201.13" cy="387.48" fill="#b7790b" stroke="#1c2126" stroke-linejoin="round" stroke-width="2" rx="112.15" ry="48.48"/><path fill="#ffb916" stroke="#1c2126" stroke-linejoin="round" stroke-width="2" d="M301.77 371.49c0 26.78-50.21 48.48-112.15 48.48S77.47 398.26 77.47 371.49c0-45.56 50.21-52.48 112.15-52.48s112.15 7.46 112.15 52.48Z"/><ellipse cx="189.62" cy="359.99" fill="#b7790b" stroke="#1c2126" stroke-linejoin="round" stroke-width="2" rx="112.15" ry="48.48"/><path fill="#ffb916" stroke="#1c2126" stroke-linejoin="round" stroke-width="2" d="M304.23 347.91c0 26.78-50.21 48.48-112.15 48.48S79.93 374.68 79.93 347.91c0-45.56 50.21-52.48 112.15-52.48s112.15 7.46 112.15 52.48Z"/><ellipse cx="192.09" cy="336.42" fill="#b7790b" stroke="#1c2126" stroke-linejoin="round" stroke-width="2" rx="112.15" ry="48.48"/><path fill="#fff6d0" stroke="#1c2126" stroke-linejoin="round" stroke-width="2" d="M158.77 328.06c0 2.43 0 3.85.01 6.28 0 .63 0 1.28.25 1.87.29.68.89 1.19 1.49 1.63 5.21 3.91 28.82 11.68 31.08 11.78 1.64.08 3.34.03 4.83-.66 1.05-.48 12.08-11.76 17.19-17.16.38-.4.76-.81.93-1.33.2-.59-.25-7.65-.98-10.19"/><path fill="#fff6d0" stroke="#1c2126" stroke-linejoin="round" stroke-width="2" d="M211.09 317.39c-8.36-5.3-24.62-10.38-29.21-9.35-4.6 1.03-15.11 10.9-21.91 17.25-.81.75-1.68 1.74-1.42 2.82.23.95 1.23 1.46 2.13 1.84 9.25 3.99 18.52 7.98 28.09 11.12.99.32 2.02.64 3.05.51 1.2-.16 2.23-.91 3.18-1.64 6.29-4.85 12.08-10.36 17.23-16.41.66-.77 1.33-1.63 1.38-2.64.07-1.5-1.25-2.68-2.52-3.49Z"/><path fill="#ffb916" stroke="#1c2126" stroke-linejoin="round" stroke-width="2" d="M579.25 516.64c0 26.78-50.21 48.48-112.15 48.48s-112.15-21.71-112.15-48.48c0-45.56 50.21-52.48 112.15-52.48s112.15 7.46 112.15 52.48Z"/><ellipse cx="467.11" cy="505.15" fill="#b7790b" stroke="#1c2126" stroke-linejoin="round" stroke-width="2" rx="112.15" ry="48.48"/><path fill="#ffb916" stroke="#1c2126" stroke-linejoin="round" stroke-width="2" d="M584.33 493.06c0 26.78-50.21 48.48-112.15 48.48s-112.15-21.71-112.15-48.48c0-45.56 50.21-52.48 112.15-52.48s112.15 7.46 112.15 52.48Z"/><ellipse cx="472.18" cy="481.57" fill="#b7790b" stroke="#1c2126" stroke-linejoin="round" stroke-width="2" rx="112.15" ry="48.48"/><path fill="#ffb916" stroke="#1c2126" stroke-linejoin="round" stroke-width="2" d="M574.91 461.82c0 26.78-50.21 48.48-112.15 48.48s-112.15-21.71-112.15-48.48c0-45.56 50.21-52.48 112.15-52.48s112.15 7.46 112.15 52.48Z"/><ellipse cx="462.76" cy="450.33" fill="#b7790b" stroke="#1c2126" stroke-linejoin="round" stroke-width="2" rx="112.15" ry="48.48"/><path fill="#ffb916" stroke="#1c2126" stroke-linejoin="round" stroke-width="2" d="M579.65 432.3c0 26.78-50.21 48.48-112.15 48.48s-112.15-21.71-112.15-48.48c0-45.56 50.21-52.48 112.15-52.48s112.15 7.46 112.15 52.48Z"/><ellipse cx="467.51" cy="420.8" fill="#b7790b" stroke="#1c2126" stroke-linejoin="round" stroke-width="2" rx="112.15" ry="48.48"/><path fill="#ffb916" stroke="#1c2126" stroke-linejoin="round" stroke-width="2" d="M579.25 398.97c0 26.78-50.21 48.48-112.15 48.48s-112.15-21.71-112.15-48.48c0-45.56 50.21-52.48 112.15-52.48s112.15 7.46 112.15 52.48Z"/><ellipse cx="467.11" cy="387.48" fill="#b7790b" stroke="#1c2126" stroke-linejoin="round" stroke-width="2" rx="112.15" ry="48.48"/><path fill="#ffb916" stroke="#1c2126" stroke-linejoin="round" stroke-width="2" d="M569.26 371.49c0 26.78-50.21 48.48-112.15 48.48s-112.15-21.71-112.15-48.48c0-45.56 50.21-52.48 112.15-52.48s112.15 7.46 112.15 52.48Z"/><ellipse cx="457.11" cy="359.99" fill="#b7790b" stroke="#1c2126" stroke-linejoin="round" stroke-width="2" rx="112.15" ry="48.48"/><path fill="#ffb916" stroke="#1c2126" stroke-linejoin="round" stroke-width="2" d="M574.91 347.91c0 26.78-50.21 48.48-112.15 48.48s-112.15-21.71-112.15-48.48c0-45.56 50.21-52.48 112.15-52.48s112.15 7.46 112.15 52.48Z"/><ellipse cx="462.76" cy="336.42" fill="#b7790b" stroke="#1c2126" stroke-linejoin="round" stroke-width="2" rx="112.15" ry="48.48"/><path fill="#fff6d0" stroke="#1c2126" stroke-linejoin="round" stroke-width="2" d="M428.83 328.08c0 2.43 0 3.85.01 6.28 0 .63 0 1.28.25 1.87.29.68.89 1.19 1.49 1.63 5.21 3.91 28.82 11.68 31.08 11.78 1.64.08 3.34.03 4.83-.66 1.05-.48 12.08-11.76 17.19-17.16.38-.4.76-.81.93-1.33.2-.59-.25-7.65-.98-10.19"/><path fill="#fff6d0" stroke="#1c2126" stroke-linejoin="round" stroke-width="2" d="M481.16 317.41c-8.36-5.3-24.62-10.38-29.21-9.35-4.6 1.03-15.11 10.9-21.91 17.25-.81.75-1.68 1.74-1.42 2.82.23.95 1.23 1.46 2.13 1.84 9.25 3.99 18.52 7.98 28.09 11.12.99.32 2.02.64 3.05.51 1.2-.16 2.23-.91 3.18-1.64 6.29-4.85 12.08-10.36 17.23-16.41.66-.77 1.33-1.63 1.38-2.64.07-1.5-1.25-2.68-2.52-3.49Z"/><path fill="#1c2126" stroke-width="0" d="m78.9 123.11 8.84-55.66h17.05l-8.84 55.66H78.9ZM115.77 96.98l-5.21-5.61c2.37-2 4.13-3.81 5.29-5.45 1.16-1.63 2-3.68 2.53-6.16l2.84 4.03h-11.53l2.61-16.34h16.66l-1.82 11.37c-.37 2.42-.96 4.65-1.78 6.67-.82 2.03-1.97 3.96-3.47 5.8-1.5 1.84-3.54 3.74-6.12 5.68ZM126.82 123.11l4.58-28.82c.26-1.9.5-3.8.71-5.72.21-1.92.37-3.83.47-5.72h15.79l-.16 6.39h-.87c1.58-2.47 3.53-4.32 5.84-5.53 2.32-1.21 4.97-1.82 7.97-1.82 2.84 0 5.26.67 7.26 2.01 2 1.34 3.26 3.46 3.79 6.36h-1.82c1.74-2.63 3.99-4.68 6.75-6.16 2.76-1.47 5.54-2.21 8.33-2.21 4.9 0 8.32 1.49 10.26 4.46 1.95 2.97 2.42 7.62 1.42 13.93l-3.63 22.82h-16.5l3.63-23.13c.32-1.95.24-3.37-.24-4.26-.47-.89-1.34-1.34-2.6-1.34-1.69 0-3.01.61-3.99 1.82-.97 1.21-1.65 2.92-2.01 5.13l-3.47 21.79h-16.42l3.63-23.13c.32-1.95.24-3.37-.24-4.26-.47-.89-1.34-1.34-2.61-1.34-1.74 0-3.08.61-4.03 1.82-.95 1.21-1.61 2.92-1.97 5.13l-3.47 21.79H126.8ZM243.03 140.79c-4.16 0-7.75-.34-10.78-1.03-3.03-.68-5.72-1.69-8.09-3l3.95-11.68c1.16.74 2.55 1.38 4.18 1.93s3.33.99 5.09 1.3c1.76.32 3.41.47 4.93.47 3.53 0 6.09-.7 7.7-2.09 1.6-1.39 2.62-3.38 3.04-5.96l.87-5.61h.71c-.9 1.95-2.45 3.58-4.66 4.89-2.21 1.32-4.87 1.97-7.97 1.97-3.53 0-6.62-.83-9.28-2.49-2.66-1.66-4.59-4.09-5.8-7.3s-1.42-7.13-.63-11.76c.68-4.05 1.97-7.46 3.87-10.22 1.89-2.76 4.28-4.84 7.14-6.24 2.87-1.39 6.07-2.09 9.59-2.09 2.95 0 5.54.63 7.78 1.9 2.24 1.26 3.56 2.89 3.99 4.89h-.55l1.82-5.84h15.79c-.53 1.89-1 3.8-1.42 5.72-.42 1.92-.76 3.83-1.03 5.72l-3.95 24.63c-1.11 7-3.86 12.4-8.25 16.18-4.4 3.79-10.41 5.68-18.04 5.68Zm5.21-30.79c2 0 3.66-.66 4.97-1.97 1.32-1.31 2.16-3.24 2.53-5.76.42-2.79.12-4.87-.91-6.24s-2.54-2.05-4.54-2.05-3.72.66-5.01 1.97c-1.29 1.32-2.14 3.26-2.57 5.84-.42 2.74-.12 4.79.91 6.16s2.57 2.05 4.62 2.05ZM276.26 123.11 285.5 65h16.42l-9.24 58.11h-16.42ZM317.55 124.06c-3.68 0-6.82-.97-9.39-2.92-2.58-1.95-4.42-4.63-5.53-8.05-1.11-3.42-1.32-7.31-.63-11.68.74-4.37 2.08-8 4.03-10.89 1.95-2.89 4.35-5.05 7.22-6.47s6.01-2.13 9.43-2.13c2.95 0 5.54.65 7.78 1.93 2.24 1.29 3.56 2.96 3.99 5.01l-.71.47 1.97-6.47h15.79c-.53 1.89-.99 3.8-1.38 5.72-.39 1.92-.75 3.83-1.07 5.72l-4.58 28.82h-16.26l1.03-6.47h1.34c-1.11 2.21-2.78 4-5.01 5.37s-4.91 2.05-8.01 2.05Zm6.16-12.08c1.89 0 3.5-.64 4.82-1.93 1.32-1.29 2.21-3.38 2.68-6.28.58-3.68.34-6.24-.71-7.66s-2.58-2.13-4.58-2.13-3.57.63-4.86 1.89c-1.29 1.26-2.17 3.37-2.64 6.32-.58 3.68-.34 6.24.71 7.66s2.58 2.13 4.58 2.13ZM369.42 124.06c-3.68 0-6.82-.97-9.39-2.92-2.58-1.95-4.42-4.63-5.53-8.05-1.11-3.42-1.32-7.31-.63-11.68.68-4.37 2-8 3.95-10.89 1.95-2.89 4.37-5.05 7.26-6.47 2.89-1.42 6.05-2.13 9.47-2.13 2.95 0 5.54.65 7.78 1.93 2.24 1.29 3.56 2.96 3.99 5.01h-.95l3.79-23.84h16.42l-9.24 58.11h-16.18l1.03-6.47h1.26c-1.11 2.21-2.78 4-5.01 5.37s-4.91 2.05-8.01 2.05Zm6.16-12.08c1.89 0 3.5-.64 4.82-1.93 1.32-1.29 2.21-3.38 2.68-6.28.58-3.68.34-6.24-.71-7.66s-2.58-2.13-4.58-2.13-3.57.63-4.86 1.89c-1.29 1.26-2.17 3.37-2.64 6.32-.58 3.68-.34 6.24.71 7.66s2.58 2.13 4.58 2.13ZM425.24 141.03l-2.45-12.63c2.63-.42 4.84-.87 6.63-1.34 1.79-.47 3.3-1.14 4.54-2.01 1.24-.87 2.28-2.01 3.12-3.43l2.68-4.5-.79 6-11.13-40.26h16.66l5.21 24.08h-2.84l13.42-24.08h16.66l-24.32 40.42c-2.05 3.42-4.12 6.21-6.2 8.37-2.08 2.16-4.21 3.85-6.39 5.09a27.134 27.134 0 0 1-6.91 2.76c-2.42.6-5.05 1.12-7.89 1.54ZM493.29 124.06c-5 0-9.16-.93-12.47-2.8-3.32-1.87-5.67-4.5-7.07-7.89-1.4-3.39-1.72-7.38-.99-11.96.68-4.31 2.16-7.92 4.42-10.82 2.26-2.89 5.13-5.06 8.61-6.51 3.47-1.45 7.32-2.17 11.53-2.17 5.05 0 9.21.94 12.47 2.8 3.26 1.87 5.58 4.49 6.95 7.86s1.68 7.37.95 12c-.68 4.32-2.14 7.92-4.38 10.82-2.24 2.9-5.07 5.07-8.49 6.51-3.42 1.45-7.26 2.17-11.53 2.17Zm.87-12.08c1.84 0 3.38-.64 4.62-1.93 1.24-1.29 2.09-3.38 2.57-6.28.58-3.68.37-6.24-.63-7.66s-2.45-2.13-4.34-2.13-3.38.63-4.62 1.89c-1.24 1.26-2.09 3.37-2.57 6.32-.58 3.68-.38 6.24.59 7.66s2.43 2.13 4.38 2.13ZM536.32 124.06c-5.21 0-8.92-1.54-11.13-4.62-2.21-3.08-2.9-7.38-2.05-12.91l3.79-23.68h16.42l-3.79 23.84c-.26 1.63-.08 2.86.55 3.67.63.82 1.68 1.22 3.16 1.22 1.74 0 3.1-.59 4.11-1.78 1-1.18 1.66-2.75 1.97-4.7l3.55-22.26h16.42l-6.4 40.26h-16.03l1.03-6.63h1.26c-1.58 2.42-3.41 4.29-5.49 5.61-2.08 1.32-4.54 1.97-7.38 1.97ZM581.95 96.98l-5.21-5.61c2.37-2 4.13-3.81 5.29-5.45 1.16-1.63 2-3.68 2.53-6.16l2.84 4.03h-11.53l2.61-16.34h16.66l-1.82 11.37c-.37 2.42-.96 4.65-1.78 6.67-.82 2.03-1.97 3.96-3.47 5.8-1.5 1.84-3.54 3.74-6.12 5.68ZM593 123.11l4.58-28.82c.26-1.9.5-3.8.71-5.72.21-1.92.37-3.83.47-5.72h15.79l-.32 13.18h-2.76c1.05-3.21 2.32-5.85 3.79-7.93 1.47-2.08 3.18-3.63 5.13-4.66 1.95-1.03 4.16-1.54 6.63-1.54.84 0 1.62.05 2.33.16s1.35.21 1.93.32l-2.29 14.37c-1.21-.53-2.25-.87-3.12-1.03-.87-.16-1.99-.24-3.35-.24-1.63 0-3.15.33-4.54.99-1.39.66-2.59 1.75-3.59 3.28-1 1.53-1.71 3.61-2.13 6.24l-2.68 17.13H593ZM651.26 124.06c-5.32 0-9.71-.99-13.18-2.96-3.47-1.97-5.95-4.68-7.42-8.13-1.47-3.45-1.87-7.38-1.18-11.8.63-3.89 1.95-7.28 3.95-10.14 2-2.87 4.57-5.1 7.7-6.71 3.13-1.6 6.72-2.41 10.78-2.41s7.68.92 10.42 2.76c2.74 1.84 4.68 4.34 5.84 7.5 1.16 3.16 1.39 6.76.71 10.82l-.47 2.92h-25.74l1.11-7.42h13.5l-1.58 1.5c.42-2.58.24-4.46-.55-5.64-.79-1.18-2-1.78-3.63-1.78-1.21 0-2.24.3-3.08.91-.84.61-1.53 1.42-2.05 2.45-.53 1.03-.9 2.17-1.1 3.43l-.63 4.03c-.37 2.74.12 4.86 1.46 6.36 1.34 1.5 3.88 2.25 7.62 2.25 1.63 0 3.2-.2 4.7-.59s3.14-1.04 4.93-1.93l3.87 10.66c-2.26 1.37-4.74 2.37-7.42 3-2.68.63-5.53.95-8.53.95ZM75.43 225.01l7.26-45.87c.32-1.9.56-3.8.75-5.72.18-1.92.33-3.83.43-5.72h15.79l-.08 6.47H98.4c1.11-2.21 2.79-4 5.05-5.37s4.92-2.05 7.97-2.05c3.68 0 6.82.97 9.39 2.92 2.58 1.95 4.43 4.62 5.57 8.01 1.13 3.39 1.33 7.3.59 11.72-.68 4.37-2.01 8-3.99 10.89-1.97 2.9-4.38 5.05-7.22 6.47s-6 2.13-9.47 2.13c-2.95 0-5.54-.65-7.78-1.93s-3.57-2.96-3.99-5.01h.95L91.84 225H75.42Zm27.63-28.18c1.95 0 3.56-.64 4.86-1.93 1.29-1.29 2.17-3.38 2.64-6.28.58-3.68.34-6.24-.71-7.66s-2.58-2.13-4.58-2.13c-1.89 0-3.5.63-4.82 1.89-1.32 1.26-2.21 3.37-2.68 6.32-.58 3.68-.33 6.24.75 7.66s2.59 2.13 4.54 2.13ZM147.35 208.91c-3.68 0-6.82-.97-9.39-2.92-2.58-1.95-4.42-4.63-5.53-8.05-1.11-3.42-1.32-7.31-.63-11.68.74-4.37 2.08-8 4.03-10.89 1.95-2.89 4.35-5.05 7.22-6.47s6.01-2.13 9.43-2.13c2.95 0 5.54.65 7.78 1.93 2.24 1.29 3.56 2.96 3.99 5.01l-.71.47 1.97-6.47h15.79c-.53 1.89-.99 3.8-1.38 5.72-.39 1.92-.75 3.83-1.07 5.72l-4.58 28.82h-16.26l1.03-6.47h1.34c-1.11 2.21-2.78 4-5.01 5.37s-4.91 2.05-8.01 2.05Zm6.16-12.08c1.89 0 3.5-.64 4.82-1.93 1.32-1.29 2.21-3.38 2.68-6.28.58-3.68.34-6.24-.71-7.66s-2.58-2.13-4.58-2.13-3.57.63-4.86 1.89c-1.29 1.26-2.17 3.37-2.64 6.32-.58 3.68-.34 6.24.71 7.66s2.58 2.13 4.58 2.13ZM181.85 207.96l4.58-28.82c.26-1.9.5-3.8.71-5.72.21-1.92.37-3.83.47-5.72h15.79l-.32 13.18h-2.76c1.05-3.21 2.32-5.85 3.79-7.93 1.47-2.08 3.18-3.63 5.13-4.66 1.95-1.03 4.16-1.54 6.63-1.54.84 0 1.62.05 2.33.16s1.35.21 1.93.32l-2.29 14.37c-1.21-.53-2.25-.87-3.12-1.03-.87-.16-1.99-.24-3.35-.24-1.63 0-3.15.33-4.54.99-1.39.66-2.59 1.75-3.59 3.28-1 1.53-1.71 3.61-2.13 6.24l-2.68 17.13h-16.58ZM242 208.91c-6.26 0-10.7-1.54-13.3-4.62s-3.49-7.33-2.64-12.75l1.89-11.84h-7.42l1.89-12h7.42l1.42-9.08 17.05-3.79-2.05 12.87h9.32l-1.89 12h-9.32l-1.82 11.37c-.32 1.95.03 3.24 1.03 3.87 1 .63 2.16.95 3.47.95.84 0 1.54-.05 2.09-.16.55-.1 1.25-.29 2.09-.55l-1.97 12.47c-1.32.53-2.59.87-3.83 1.03-1.24.16-2.38.24-3.43.24ZM299.79 208.91c-5 0-9.16-.93-12.47-2.8-3.32-1.87-5.67-4.5-7.07-7.89-1.4-3.39-1.72-7.38-.99-11.96.68-4.31 2.16-7.92 4.42-10.82 2.26-2.89 5.13-5.06 8.61-6.51 3.47-1.45 7.32-2.17 11.53-2.17 5.05 0 9.21.94 12.47 2.8 3.26 1.87 5.58 4.49 6.95 7.86s1.68 7.37.95 12c-.68 4.32-2.14 7.92-4.38 10.82-2.24 2.9-5.07 5.07-8.49 6.51-3.42 1.45-7.26 2.17-11.53 2.17Zm.87-12.08c1.84 0 3.38-.64 4.62-1.93 1.24-1.29 2.09-3.38 2.57-6.28.58-3.68.37-6.24-.63-7.66s-2.45-2.13-4.34-2.13-3.38.63-4.62 1.89c-1.24 1.26-2.09 3.37-2.57 6.32-.58 3.68-.38 6.24.59 7.66s2.43 2.13 4.38 2.13ZM330.66 207.96l4.5-28.26h-7.42l1.89-12h12.08l-5.37 4.26.87-5.13c.89-5.79 3.14-10.12 6.75-12.99 3.6-2.87 8.75-4.3 15.43-4.3 1.42 0 2.8.11 4.14.32 1.34.21 2.59.53 3.75.95l-1.97 12.4c-.74-.26-1.45-.45-2.13-.55-.68-.11-1.47-.16-2.37-.16-.84 0-1.8.12-2.88.36-1.08.24-2.05.7-2.92 1.38-.87.69-1.41 1.69-1.62 3l-.47 2.84-1.82-2.37h11.53l-1.89 12h-9.16l-4.5 28.26h-16.42ZM383.87 207.96l4.58-28.82c.26-1.9.5-3.8.71-5.72.21-1.92.37-3.83.47-5.72h15.79l-.16 6.39h-.87c1.58-2.47 3.53-4.32 5.84-5.53 2.32-1.21 4.97-1.82 7.97-1.82 2.84 0 5.26.67 7.26 2.01 2 1.34 3.26 3.46 3.79 6.36h-1.82c1.74-2.63 3.99-4.68 6.75-6.16 2.76-1.47 5.54-2.21 8.33-2.21 4.9 0 8.32 1.49 10.26 4.46 1.95 2.97 2.42 7.62 1.42 13.93l-3.63 22.82h-16.5l3.63-23.13c.32-1.95.24-3.37-.24-4.26-.47-.89-1.34-1.34-2.6-1.34-1.69 0-3.01.61-3.99 1.82-.97 1.21-1.65 2.92-2.01 5.13l-3.47 21.79h-16.42l3.63-23.13c.32-1.95.24-3.37-.24-4.26-.47-.89-1.34-1.34-2.61-1.34-1.74 0-3.08.61-4.03 1.82-.95 1.21-1.61 2.92-1.97 5.13l-3.47 21.79h-16.42ZM455.32 225.88l-2.45-12.63c2.63-.42 4.84-.87 6.63-1.34 1.79-.47 3.3-1.14 4.54-2.01 1.24-.87 2.28-2.01 3.12-3.43l2.68-4.5-.79 6-11.13-40.26h16.66l5.21 24.08h-2.84l13.42-24.08h16.66l-24.32 40.42c-2.05 3.42-4.12 6.21-6.2 8.37-2.08 2.16-4.21 3.85-6.39 5.09a27.134 27.134 0 0 1-6.91 2.76c-2.42.6-5.05 1.12-7.89 1.54ZM542.79 208.91c-3.79 0-7.18-.34-10.18-1.03s-5.5-1.6-7.5-2.76l4.11-10.58c2 1 4.26 1.83 6.79 2.49 2.53.66 5 .99 7.42.99 1.68 0 2.91-.21 3.67-.63.76-.42 1.2-.97 1.3-1.66.11-.63-.04-1.13-.43-1.5-.39-.37-.99-.6-1.78-.71l-7.82-1.18c-3.74-.58-6.41-1.95-8.01-4.11-1.61-2.16-2.15-4.92-1.62-8.29.47-2.84 1.62-5.25 3.43-7.22 1.82-1.97 4.16-3.46 7.03-4.46s6.04-1.5 9.51-1.5c3 0 5.87.29 8.61.87 2.74.58 5.08 1.55 7.03 2.92l-4.42 10.26c-1.47-.89-3.28-1.64-5.41-2.25-2.13-.6-4.07-.91-5.8-.91-1.95 0-3.34.22-4.18.67-.84.45-1.32 1.01-1.42 1.7-.05.47.08.92.39 1.34.32.42.89.68 1.74.79l7.82 1.18c3.79.53 6.5 1.83 8.13 3.91 1.63 2.08 2.16 4.88 1.58 8.41-.47 3.05-1.65 5.57-3.51 7.54s-4.22 3.42-7.07 4.34c-2.84.92-5.97 1.38-9.39 1.38ZM587.87 208.91c-6.26 0-10.7-1.54-13.3-4.62s-3.49-7.33-2.64-12.75l1.89-11.84h-7.42l1.89-12h7.42l1.42-9.08 17.05-3.79-2.05 12.87h9.32l-1.89 12h-9.32l-1.82 11.37c-.32 1.95.03 3.24 1.03 3.87 1 .63 2.16.95 3.47.95.84 0 1.54-.05 2.09-.16.55-.1 1.25-.29 2.09-.55l-1.97 12.47c-1.32.53-2.59.87-3.83 1.03-1.24.16-2.38.24-3.43.24ZM617.16 208.91c-3.68 0-6.82-.97-9.39-2.92-2.58-1.95-4.42-4.63-5.53-8.05-1.11-3.42-1.32-7.31-.63-11.68.74-4.37 2.08-8 4.03-10.89 1.95-2.89 4.35-5.05 7.22-6.47s6.01-2.13 9.43-2.13c2.95 0 5.54.65 7.78 1.93 2.24 1.29 3.56 2.96 3.99 5.01l-.71.47 1.97-6.47h15.79c-.53 1.89-.99 3.8-1.38 5.72-.39 1.92-.75 3.83-1.07 5.72l-4.58 28.82h-16.26l1.03-6.47h1.34c-1.11 2.21-2.78 4-5.01 5.37s-4.91 2.05-8.01 2.05Zm6.16-12.08c1.89 0 3.5-.64 4.82-1.93 1.32-1.29 2.21-3.38 2.68-6.28.58-3.68.34-6.24-.71-7.66s-2.58-2.13-4.58-2.13-3.57.63-4.86 1.89c-1.29 1.26-2.17 3.37-2.64 6.32-.58 3.68-.34 6.24.71 7.66s2.58 2.13 4.58 2.13ZM674.55 208.91c-5.11 0-9.34-.99-12.71-2.96-3.37-1.97-5.78-4.67-7.22-8.09-1.45-3.42-1.83-7.29-1.14-11.61.68-4.31 2.17-7.92 4.46-10.82 2.29-2.89 5.22-5.06 8.8-6.51 3.58-1.45 7.6-2.17 12.08-2.17 2.37 0 4.82.32 7.34.95 2.53.63 4.53 1.53 6 2.68l-4.66 11.05c-1-.74-2.28-1.31-3.83-1.74-1.55-.42-3.04-.63-4.46-.63-2.21 0-4.15.61-5.8 1.82-1.66 1.21-2.72 3.26-3.2 6.16-.42 2.58-.03 4.82 1.18 6.71 1.21 1.9 3.26 2.84 6.16 2.84 1.16 0 2.47-.24 3.95-.71a20.2 20.2 0 0 0 4.18-1.89l3.95 10.89c-1.47 1.16-3.58 2.12-6.32 2.88-2.74.76-5.66 1.14-8.76 1.14ZM692.71 207.96l9.24-58.11h16.42L713 183.48h.16l13.89-15.79h19.74l-20.13 21.71-.08-5.29 14.05 23.84h-19.18l-9.55-16.26h-.16l-2.61 16.26h-16.42Z"/><path fill="#fff" stroke-width="0" d="M0 595h1200v35H0zM0 499.19h1200V595H0z"/><path fill="none" stroke="#1c2126" stroke-miterlimit="10" d="M0 499.19h1200M0 595h1200"/><path fill="#1c2126" stroke-width="0" d="M24.24 559.45v-18.76h-6.39v-2.37H33.2v2.37h-6.39v18.76h-2.58ZM44.08 559.89c-4.8 0-7.75-3.46-7.75-9.3v-3.41c0-5.84 2.94-9.3 7.75-9.3s7.75 3.46 7.75 9.3v3.41c0 5.84-2.94 9.3-7.75 9.3Zm5.14-9.31v-3.38c0-4.41-1.93-6.87-5.14-6.87s-5.14 2.46-5.14 6.87v3.38c0 4.41 1.93 6.87 5.14 6.87s5.14-2.46 5.14-6.87ZM59.97 545.58c0-1.48 1.2-2.71 2.65-2.71s2.65 1.23 2.65 2.71-1.2 2.71-2.65 2.71-2.65-1.23-2.65-2.71Zm0 11.25c0-1.48 1.2-2.7 2.65-2.7s2.65 1.21 2.65 2.7-1.2 2.71-2.65 2.71-2.65-1.21-2.65-2.71Z"/><path fill="none" stroke="#1c2126" stroke-miterlimit="10" d="M582.03 498.72V595"/><path fill="#1c2126" stroke-width="0" d="M605.51 559.45v-21.14h12.47v2.37h-9.87v7.25h9.02v2.3h-9.02v9.21h-2.59ZM625.54 551.03v8.42h-2.55v-21.14h7.09c4.19 0 6.81 2.43 6.81 6.36 0 2.77-1.54 5.04-3.94 5.83l4.31 8.95h-2.92l-3.94-8.42h-4.86Zm0-2.18h4.19c2.92 0 4.56-1.48 4.56-4.12s-1.61-4.12-4.44-4.12h-4.31v8.23ZM648.15 559.89c-4.8 0-7.75-3.46-7.75-9.3v-3.41c0-5.84 2.94-9.3 7.75-9.3s7.75 3.46 7.75 9.3v3.41c0 5.84-2.94 9.3-7.75 9.3Zm5.14-9.31v-3.38c0-4.41-1.93-6.87-5.14-6.87s-5.14 2.46-5.14 6.87v3.38c0 4.41 1.93 6.87 5.14 6.87s5.14-2.46 5.14-6.87ZM661.18 559.45h-2.31v-21.14h2.86l4.88 13.08h.19l4.86-13.08h2.86v21.14h-2.31v-8.1l.15-8.57h-.19l-4.45 11.71h-2.02l-4.45-11.71h-.19l.15 8.57v8.1ZM682.59 545.58c0-1.48 1.2-2.71 2.65-2.71s2.65 1.23 2.65 2.71-1.2 2.71-2.65 2.71-2.65-1.23-2.65-2.71Zm0 11.25c0-1.48 1.2-2.7 2.65-2.7s2.65 1.21 2.65 2.7-1.2 2.71-2.65 2.71-2.65-1.21-2.65-2.71ZM12.77 618.4c-.12 0-.21-.04-.26-.11s-.08-.17-.06-.27l2.22-10.42a.469.469 0 0 1 .46-.4h6.95c.12 0 .2.04.26.11.05.07.07.17.05.29l-.24 1.12a.465.465 0 0 1-.46.39h-5.14l-.66 3.04h4.82c.12 0 .2.04.26.11.05.07.07.17.05.29l-.22 1.12c-.02.11-.08.2-.17.27-.09.07-.19.11-.31.11H15.5l-.85 3.97a.47.47 0 0 1-.46.38h-1.41ZM25.41 618.56c-.81 0-1.49-.15-2.02-.45s-.92-.72-1.15-1.26c-.23-.54-.29-1.18-.17-1.9.03-.19.08-.43.13-.71s.12-.51.17-.7c.19-.74.49-1.37.89-1.91s.91-.96 1.54-1.26c.62-.3 1.36-.45 2.22-.45s1.49.15 2.02.45c.54.3.93.72 1.16 1.26s.29 1.18.18 1.91c-.04.19-.09.43-.14.7s-.11.51-.16.71c-.19.72-.48 1.36-.87 1.9-.39.54-.9.96-1.52 1.26s-1.38.45-2.26.45Zm.16-1.58c.58 0 1.06-.18 1.46-.54.4-.36.69-.88.87-1.58.04-.16.09-.37.14-.62s.1-.46.13-.62c.12-.69.07-1.22-.14-1.58-.21-.36-.61-.54-1.18-.54s-1.05.18-1.46.54-.69.88-.86 1.58c-.04.16-.09.37-.15.62s-.1.46-.12.62c-.12.69-.07 1.22.14 1.58s.6.54 1.18.54ZM31.53 618.4c-.11 0-.19-.04-.25-.11s-.08-.17-.06-.27l1.6-7.54c.02-.12.08-.21.17-.29s.19-.11.3-.11h1.3c.11 0 .19.04.25.11s.08.17.06.29l-.14.66c.26-.34.58-.6.98-.78s.88-.27 1.44-.27h.78c.12 0 .2.04.26.11.05.07.07.16.05.27l-.24 1.15c-.02.11-.08.2-.17.27s-.19.11-.3.11h-1.25c-.51 0-.94.14-1.29.43-.35.28-.57.68-.68 1.19l-.94 4.4c-.02.11-.07.2-.16.27-.08.07-.19.11-.3.11h-1.39ZM44.76 618.4c-.73 0-1.29-.11-1.7-.34-.4-.22-.67-.56-.78-1-.12-.44-.11-.99.03-1.66l.79-3.63h-1.26a.31.31 0 0 1-.25-.11c-.06-.07-.08-.17-.06-.29l.19-.91c.02-.11.08-.2.17-.27.09-.07.2-.11.31-.11h1.25l.58-2.65c.02-.11.07-.2.16-.27.08-.07.18-.11.29-.11h1.3c.12 0 .21.04.26.11.06.08.08.17.06.27l-.58 2.65h2c.11 0 .19.04.25.11s.08.16.06.27l-.19.91c-.02.12-.08.21-.17.29a.43.43 0 0 1-.3.11h-2l-.74 3.47c-.06.29-.1.54-.1.74 0 .21.05.37.17.48s.33.17.62.17h1.15c.12 0 .2.04.26.11.05.08.07.17.05.27l-.21.99a.47.47 0 0 1-.46.38h-1.14ZM48.07 618.4c-.11 0-.19-.04-.25-.11s-.08-.17-.06-.27l2.26-10.59c.02-.11.08-.2.16-.27s.18-.11.29-.11h1.44c.11 0 .19.04.25.11.06.08.08.17.06.27l-.78 3.65c.34-.34.72-.62 1.14-.83.42-.21.93-.32 1.53-.32.69 0 1.26.15 1.7.44.44.29.75.71.92 1.24.17.53.18 1.17.02 1.92l-.96 4.5a.47.47 0 0 1-.46.38h-1.44c-.11 0-.19-.04-.25-.11s-.08-.17-.06-.27l.93-4.4c.14-.62.11-1.1-.08-1.46-.19-.35-.58-.53-1.17-.53-.36 0-.71.08-1.03.23-.33.15-.61.38-.84.68s-.4.66-.5 1.07l-.93 4.4a.47.47 0 0 1-.16.27c-.09.07-.18.11-.29.11h-1.44ZM61.51 618.56c-.78 0-1.43-.15-1.95-.46-.52-.31-.87-.76-1.07-1.35-.2-.59-.23-1.29-.09-2.13.02-.11.05-.24.08-.41.03-.17.06-.3.1-.39.21-.81.54-1.51.99-2.09.45-.58.99-1.03 1.64-1.34s1.36-.47 2.14-.47c.86 0 1.55.18 2.06.54s.84.85 1.01 1.49.16 1.37 0 2.2l-.08.34c-.02.11-.08.2-.17.27-.09.08-.19.11-.31.11h-5.31a.63.63 0 0 1-.03.13c-.05.38-.05.72.02 1.03.06.31.21.57.42.76s.51.29.87.29c.3 0 .56-.04.79-.13.22-.09.41-.2.55-.31.14-.12.25-.21.33-.29.13-.13.22-.21.29-.23.06-.03.15-.04.27-.04h1.39c.1 0 .17.03.22.1.05.06.07.14.05.24-.05.17-.19.38-.4.62-.21.24-.5.48-.86.72s-.79.43-1.29.58-1.04.23-1.64.23Zm-.69-5.03h3.54l.02-.05c.1-.42.1-.78.02-1.1s-.23-.56-.46-.74c-.22-.18-.52-.26-.9-.26s-.71.09-1.02.26c-.3.18-.56.42-.76.74-.2.31-.35.68-.43 1.1l-.02.05ZM71.06 618.4c-.11 0-.19-.04-.25-.11s-.08-.17-.06-.27l2.26-10.59c.02-.11.08-.2.16-.27s.18-.11.29-.11h1.33c.12 0 .21.04.26.11.06.08.08.17.06.27l-2.26 10.59a.47.47 0 0 1-.46.38h-1.33ZM78.64 618.56c-.81 0-1.49-.15-2.02-.45-.54-.3-.92-.72-1.15-1.26-.23-.54-.29-1.18-.17-1.9.03-.19.08-.43.14-.71s.11-.51.17-.7c.19-.74.49-1.37.89-1.91.4-.54.91-.96 1.54-1.26s1.36-.45 2.22-.45 1.49.15 2.02.45.92.72 1.16 1.26c.23.54.29 1.18.18 1.91-.04.19-.09.43-.14.7-.05.28-.11.51-.16.71-.19.72-.48 1.36-.87 1.9-.39.54-.9.96-1.52 1.26-.62.3-1.38.45-2.26.45Zm.16-1.58c.58 0 1.06-.18 1.46-.54s.69-.88.87-1.58c.04-.16.09-.37.14-.62.05-.26.1-.46.13-.62.12-.69.07-1.22-.14-1.58s-.61-.54-1.18-.54-1.05.18-1.46.54c-.41.36-.69.88-.86 1.58-.04.16-.09.37-.15.62s-.1.46-.12.62c-.12.69-.07 1.22.14 1.58.21.36.6.54 1.18.54ZM86.92 618.4c-.16 0-.27-.04-.34-.12a.658.658 0 0 1-.13-.28l-1.42-7.49c-.02-.14 0-.25.08-.32s.18-.11.3-.11h1.22c.12 0 .21.03.27.1.06.06.11.15.13.27l.91 5.55 3.33-5.62c.03-.06.09-.13.17-.2a.45.45 0 0 1 .31-.11h1.39c.13 0 .22.05.26.14.05.1.03.21-.06.35l-4.56 7.42c-.08.11-.16.2-.25.28-.09.08-.22.12-.38.12H86.9ZM96.66 618.56c-.78 0-1.43-.15-1.94-.46-.52-.31-.88-.76-1.07-1.35-.2-.59-.23-1.29-.09-2.13.02-.11.05-.24.08-.41.03-.17.06-.3.1-.39.21-.81.54-1.51.99-2.09.45-.58.99-1.03 1.64-1.34s1.36-.47 2.14-.47c.86 0 1.55.18 2.06.54.51.36.84.85 1.01 1.49.17.63.16 1.37 0 2.2l-.08.34c-.02.11-.08.2-.17.27-.09.08-.2.11-.31.11h-5.31a.63.63 0 0 1-.03.13c-.05.38-.05.72.02 1.03.06.31.21.57.42.76s.51.29.87.29c.3 0 .56-.04.78-.13.22-.09.41-.2.55-.31.14-.12.25-.21.33-.29.13-.13.22-.21.29-.23.06-.03.15-.04.27-.04h1.39c.1 0 .17.03.22.1.05.06.07.14.05.24-.05.17-.19.38-.4.62-.21.24-.5.48-.87.72-.36.24-.79.43-1.29.58s-1.04.23-1.64.23Zm-.69-5.03h3.54l.02-.05c.1-.42.1-.78.02-1.1s-.23-.56-.46-.74c-.22-.18-.52-.26-.9-.26s-.71.09-1.02.26-.56.42-.76.74c-.2.31-.35.68-.43 1.1l-.02.05ZM109.56 618.56c-.81 0-1.49-.15-2.02-.45s-.92-.72-1.15-1.26c-.23-.54-.29-1.18-.17-1.9.03-.19.08-.43.13-.71s.12-.51.17-.7c.19-.74.49-1.37.89-1.91s.91-.96 1.54-1.26c.62-.3 1.36-.45 2.22-.45s1.49.15 2.02.45c.54.3.93.72 1.16 1.26s.29 1.18.18 1.91c-.04.19-.09.43-.14.7s-.11.51-.16.71c-.19.72-.48 1.36-.87 1.9-.39.54-.9.96-1.52 1.26s-1.38.45-2.26.45Zm.16-1.58c.58 0 1.06-.18 1.46-.54.4-.36.69-.88.87-1.58.04-.16.09-.37.14-.62s.1-.46.13-.62c.12-.69.07-1.22-.14-1.58-.21-.36-.61-.54-1.18-.54s-1.05.18-1.46.54-.69.88-.86 1.58c-.04.16-.09.37-.15.62s-.1.46-.12.62c-.12.69-.07 1.22.14 1.58s.6.54 1.18.54ZM116.42 618.4c-.12 0-.21-.04-.26-.11s-.08-.17-.06-.27l1.33-6.24h-1.29a.31.31 0 0 1-.25-.11c-.06-.07-.08-.17-.06-.29l.19-.91c.02-.11.08-.2.17-.27s.19-.11.31-.11h1.3l.13-.65c.15-.64.38-1.17.69-1.59.31-.42.7-.74 1.18-.95.48-.21 1.04-.32 1.68-.32h1.28c.12 0 .2.04.26.11.05.07.07.16.05.27l-.19.91c-.02.12-.08.21-.17.29s-.19.11-.3.11h-.96c-.43 0-.76.11-.99.32-.23.21-.39.52-.46.93l-.13.58h1.98c.12 0 .2.04.26.11.05.07.07.16.05.27l-.19.91c-.02.12-.08.21-.16.29a.43.43 0 0 1-.3.11h-1.98l-1.34 6.24c-.02.11-.07.2-.16.27-.08.07-.18.11-.29.11h-1.3ZM128.85 618.56c-.81 0-1.48-.15-2.02-.45s-.92-.72-1.15-1.26c-.23-.54-.29-1.18-.17-1.9.03-.19.08-.43.14-.71s.11-.51.17-.7c.19-.74.49-1.37.89-1.91s.91-.96 1.54-1.26c.62-.3 1.36-.45 2.22-.45s1.49.15 2.02.45c.54.3.92.72 1.16 1.26.23.54.29 1.18.18 1.91-.04.19-.09.43-.14.7s-.11.51-.16.71c-.19.72-.48 1.36-.87 1.9-.39.54-.9.96-1.52 1.26s-1.38.45-2.26.45Zm.16-1.58c.58 0 1.06-.18 1.46-.54.4-.36.69-.88.87-1.58.04-.16.09-.37.14-.62.05-.26.1-.46.13-.62.12-.69.07-1.22-.14-1.58-.21-.36-.61-.54-1.18-.54s-1.05.18-1.46.54-.69.88-.86 1.58c-.04.16-.09.37-.15.62s-.1.46-.12.62c-.12.69-.07 1.22.14 1.58s.6.54 1.18.54ZM134.32 621.45a.31.31 0 0 1-.25-.11c-.06-.07-.08-.16-.06-.27l2.26-10.59c.02-.11.08-.2.16-.27.09-.07.18-.11.29-.11H138c.11 0 .19.04.25.11s.08.16.06.27l-.14.64c.33-.34.7-.62 1.1-.85.4-.22.93-.34 1.58-.34.55 0 1.03.09 1.42.28.39.19.7.45.92.79.22.34.37.74.44 1.21.07.46.06.97-.04 1.53-.02.18-.05.35-.09.51s-.08.34-.14.53c-.13.52-.31 1.02-.54 1.48-.24.46-.52.87-.86 1.22-.34.35-.73.62-1.18.81a3.9 3.9 0 0 1-1.53.29c-.6 0-1.09-.1-1.47-.31-.38-.21-.66-.48-.83-.82l-.78 3.63a.47.47 0 0 1-.16.27.43.43 0 0 1-.3.11h-1.36Zm4.56-4.6c.43 0 .79-.1 1.09-.3.3-.2.55-.46.74-.78.2-.33.35-.68.47-1.05.05-.16.1-.32.13-.48.03-.16.06-.32.08-.48.05-.38.06-.74.02-1.06s-.16-.58-.36-.78c-.2-.2-.51-.3-.94-.3-.45 0-.83.1-1.16.3-.33.2-.59.46-.8.78s-.36.64-.44.97c-.05.19-.1.39-.14.61s-.08.42-.11.62c-.05.32-.05.63 0 .92.06.29.2.54.43.73.23.19.56.29.98.29ZM148.13 618.56c-.78 0-1.43-.15-1.95-.46-.52-.31-.87-.76-1.07-1.35-.2-.59-.23-1.29-.09-2.13.02-.11.05-.24.08-.41.03-.17.06-.3.1-.39.21-.81.54-1.51.99-2.09.45-.58.99-1.03 1.64-1.34s1.36-.47 2.14-.47c.86 0 1.55.18 2.06.54s.84.85 1.01 1.49.16 1.37 0 2.2l-.08.34c-.02.11-.08.2-.17.27-.09.08-.19.11-.31.11h-5.31a.63.63 0 0 1-.03.13c-.05.38-.05.72.02 1.03.06.31.21.57.42.76s.51.29.87.29c.3 0 .56-.04.79-.13.22-.09.41-.2.55-.31.14-.12.25-.21.33-.29.13-.13.22-.21.29-.23.06-.03.15-.04.27-.04h1.39c.1 0 .17.03.22.1.05.06.07.14.05.24-.05.17-.19.38-.4.62-.21.24-.5.48-.86.72s-.79.43-1.29.58-1.04.23-1.64.23Zm-.69-5.03h3.54l.02-.05c.1-.42.1-.78.02-1.1s-.23-.56-.46-.74c-.22-.18-.52-.26-.9-.26s-.71.09-1.02.26c-.3.18-.56.42-.76.74-.2.31-.35.68-.43 1.1l-.02.05ZM153.96 618.4a.31.31 0 0 1-.25-.11c-.06-.07-.08-.17-.06-.27l1.6-7.55c.02-.11.08-.2.17-.27.09-.07.19-.11.3-.11h1.31c.11 0 .19.04.24.11.05.07.07.16.05.27l-.14.66c.34-.34.74-.63 1.21-.86.46-.23.99-.35 1.58-.35.73 0 1.31.15 1.74.44s.73.71.87 1.24.14 1.17-.02 1.92l-.96 4.5c-.02.11-.07.2-.16.27s-.19.11-.3.11h-1.41c-.11 0-.19-.04-.25-.11s-.08-.17-.06-.27l.93-4.4c.14-.65.12-1.14-.04-1.48s-.56-.5-1.18-.5-1.12.18-1.54.53c-.42.35-.7.84-.84 1.46l-.93 4.4a.47.47 0 0 1-.16.27c-.09.07-.18.11-.29.11h-1.41ZM170.61 618.56c-.64 0-1.17-.07-1.59-.22-.42-.15-.75-.34-.99-.56-.24-.22-.41-.45-.5-.67-.09-.22-.12-.41-.1-.56.02-.12.08-.21.17-.28a.45.45 0 0 1 .28-.11h1.26s.08 0 .11.02c.03 0 .06.04.1.1l.37.37c.13.13.29.24.49.33.2.09.46.14.78.14.42 0 .78-.08 1.1-.25.31-.17.5-.4.57-.71.04-.22.02-.4-.08-.54s-.29-.27-.59-.38-.74-.23-1.33-.36c-.58-.14-1.04-.31-1.38-.53-.35-.21-.58-.48-.71-.8-.12-.32-.13-.69-.04-1.12.08-.42.29-.81.62-1.19.33-.38.77-.69 1.32-.94s1.19-.37 1.93-.37c.58 0 1.06.07 1.46.22s.72.32.96.54c.24.21.41.43.5.65.1.22.13.41.1.57-.01.12-.06.21-.15.28a.45.45 0 0 1-.28.11h-1.17a.32.32 0 0 1-.14-.03.272.272 0 0 1-.1-.08c-.11-.11-.22-.22-.33-.34-.11-.12-.26-.23-.43-.31-.18-.08-.42-.13-.74-.13-.41 0-.73.09-.98.26s-.41.4-.47.66c-.03.18-.01.34.06.47.07.13.25.26.54.38s.73.24 1.31.37c.69.13 1.22.32 1.59.57.37.25.61.54.72.86s.13.69.04 1.08c-.1.48-.33.91-.7 1.29-.37.38-.85.69-1.45.9-.6.22-1.3.33-2.11.33ZM179.52 618.56c-.81 0-1.49-.15-2.02-.45-.54-.3-.92-.72-1.15-1.26-.23-.54-.29-1.18-.17-1.9.03-.19.08-.43.14-.71s.11-.51.17-.7c.19-.74.49-1.37.89-1.91.4-.54.91-.96 1.54-1.26s1.36-.45 2.22-.45 1.49.15 2.02.45.92.72 1.16 1.26c.23.54.29 1.18.18 1.91-.04.19-.09.43-.14.7-.05.28-.11.51-.16.71-.19.72-.48 1.36-.87 1.9-.39.54-.9.96-1.52 1.26-.62.3-1.38.45-2.26.45Zm.16-1.58c.58 0 1.06-.18 1.46-.54s.69-.88.87-1.58c.04-.16.09-.37.14-.62.05-.26.1-.46.13-.62.12-.69.07-1.22-.14-1.58s-.61-.54-1.18-.54-1.05.18-1.46.54c-.41.36-.69.88-.86 1.58-.04.16-.09.37-.15.62s-.1.46-.12.62c-.12.69-.07 1.22.14 1.58.21.36.6.54 1.18.54ZM188.45 618.56c-.69 0-1.26-.15-1.7-.44s-.73-.71-.87-1.25-.14-1.18 0-1.91l.96-4.5c.02-.11.08-.2.17-.27.09-.07.19-.11.29-.11h1.41c.11 0 .19.04.24.11s.07.16.05.27l-.93 4.4c-.1.44-.13.8-.09 1.1.04.29.16.52.36.66.2.15.52.22.94.22.58 0 1.08-.18 1.5-.53.43-.35.7-.84.83-1.46l.94-4.4c.02-.11.08-.2.17-.27s.19-.11.3-.11h1.39c.12 0 .2.04.26.11.05.07.07.16.05.27l-1.6 7.55c-.02.11-.07.2-.16.27-.08.07-.19.11-.3.11h-1.3c-.11 0-.19-.04-.25-.11s-.08-.17-.06-.27l.13-.66c-.23.24-.47.46-.72.64s-.53.32-.85.42c-.32.1-.71.14-1.18.14ZM195.57 618.4a.31.31 0 0 1-.25-.11c-.06-.07-.08-.17-.06-.27l1.6-7.54a.482.482 0 0 1 .47-.4h1.3c.11 0 .19.04.25.11s.08.17.06.29l-.14.66c.26-.34.58-.6.98-.78.39-.18.87-.27 1.44-.27h.78c.12 0 .2.04.26.11s.07.16.05.27l-.24 1.15c-.02.11-.08.2-.17.27-.09.07-.19.11-.3.11h-1.25c-.51 0-.94.14-1.29.43-.35.28-.57.68-.68 1.19l-.94 4.4a.47.47 0 0 1-.46.38h-1.39ZM205.46 618.56c-.71 0-1.34-.14-1.88-.43s-.94-.71-1.19-1.26-.31-1.21-.18-1.99c.03-.16.07-.37.13-.63.05-.26.1-.48.14-.65.29-1.16.82-2.07 1.6-2.71.78-.64 1.77-.97 2.98-.97.67 0 1.23.1 1.69.29.45.19.81.44 1.07.74s.44.61.54.93.14.61.1.86c0 .12-.06.21-.14.28-.08.07-.17.1-.28.1h-1.46c-.11 0-.19-.03-.25-.08s-.09-.13-.1-.24c0-.43-.11-.74-.34-.93-.23-.19-.56-.29-.98-.29-.52 0-.99.17-1.4.51-.41.34-.71.87-.89 1.59-.04.19-.09.39-.13.59s-.08.38-.11.53c-.12.74-.06 1.27.16 1.6.22.33.6.5 1.12.5.42 0 .79-.09 1.12-.26s.61-.48.83-.9c.06-.12.13-.2.2-.25a.44.44 0 0 1 .26-.07h1.44c.11 0 .19.04.25.11s.07.16.04.28c-.07.23-.21.51-.41.82s-.47.62-.81.92c-.34.3-.77.54-1.29.74-.52.19-1.13.29-1.85.29ZM214.69 618.56c-.78 0-1.43-.15-1.95-.46-.52-.31-.87-.76-1.07-1.35-.2-.59-.23-1.29-.09-2.13.02-.11.05-.24.08-.41.03-.17.06-.3.1-.39.21-.81.54-1.51.99-2.09.45-.58.99-1.03 1.64-1.34s1.36-.47 2.14-.47c.86 0 1.55.18 2.06.54s.84.85 1.01 1.49.16 1.37 0 2.2l-.08.34c-.02.11-.08.2-.17.27-.09.08-.19.11-.31.11h-5.31a.63.63 0 0 1-.03.13c-.05.38-.05.72.02 1.03.06.31.21.57.42.76s.51.29.87.29c.3 0 .56-.04.79-.13.22-.09.41-.2.55-.31.14-.12.25-.21.33-.29.13-.13.22-.21.29-.23.06-.03.15-.04.27-.04h1.39c.1 0 .17.03.22.1.05.06.07.14.05.24-.05.17-.19.38-.4.62-.21.24-.5.48-.86.72s-.79.43-1.29.58-1.04.23-1.64.23Zm-.69-5.03h3.54l.02-.05c.1-.42.1-.78.02-1.1s-.23-.56-.46-.74c-.22-.18-.52-.26-.9-.26s-.71.09-1.02.26c-.3.18-.56.42-.76.74-.2.31-.35.68-.43 1.1l-.02.05ZM227.19 618.56c-.64 0-1.17-.07-1.59-.22-.42-.15-.75-.34-.99-.56-.24-.22-.41-.45-.5-.67-.09-.22-.13-.41-.1-.56.02-.12.08-.21.17-.28a.45.45 0 0 1 .28-.11h1.26s.08 0 .11.02c.03 0 .06.04.1.1l.37.37c.13.13.29.24.49.33.2.09.46.14.78.14.42 0 .78-.08 1.1-.25.31-.17.5-.4.57-.71.04-.22.02-.4-.08-.54s-.29-.27-.59-.38c-.3-.11-.74-.23-1.33-.36-.58-.14-1.04-.31-1.38-.53-.35-.21-.58-.48-.7-.8-.12-.32-.14-.69-.04-1.12.09-.42.29-.81.62-1.19.33-.38.77-.69 1.32-.94s1.19-.37 1.93-.37c.58 0 1.06.07 1.46.22.4.14.72.32.96.54.24.21.41.43.5.65s.13.41.1.57c-.01.12-.06.21-.15.28a.45.45 0 0 1-.28.11h-1.17c-.05 0-.1-.01-.14-.03s-.07-.05-.1-.08c-.11-.11-.22-.22-.33-.34-.11-.12-.26-.23-.43-.31-.18-.08-.42-.13-.74-.13-.41 0-.73.09-.98.26s-.41.4-.47.66c-.03.18-.01.34.06.47s.25.26.54.38.73.24 1.31.37c.69.13 1.22.32 1.59.57.37.25.61.54.72.86.11.33.12.69.04 1.08-.1.48-.33.91-.7 1.29-.37.38-.85.69-1.45.9-.6.22-1.3.33-2.11.33ZM236.1 618.56c-.81 0-1.49-.15-2.02-.45-.54-.3-.92-.72-1.15-1.26-.23-.54-.29-1.18-.17-1.9.03-.19.08-.43.14-.71s.12-.51.17-.7c.19-.74.49-1.37.89-1.91.4-.54.91-.96 1.54-1.26s1.36-.45 2.22-.45 1.48.15 2.02.45.93.72 1.16 1.26.29 1.18.18 1.91c-.04.19-.09.43-.14.7-.05.28-.11.51-.16.71-.19.72-.48 1.36-.87 1.9-.39.54-.9.96-1.52 1.26-.62.3-1.38.45-2.26.45Zm.16-1.58c.58 0 1.06-.18 1.46-.54s.69-.88.87-1.58c.04-.16.09-.37.14-.62.05-.26.1-.46.13-.62.12-.69.07-1.22-.14-1.58s-.61-.54-1.18-.54-1.05.18-1.46.54c-.4.36-.69.88-.86 1.58-.04.16-.09.37-.15.62s-.1.46-.12.62c-.12.69-.07 1.22.13 1.58.21.36.6.54 1.18.54ZM242.96 618.4c-.12 0-.21-.04-.26-.11s-.08-.17-.06-.27l1.33-6.24h-1.3a.31.31 0 0 1-.25-.11c-.06-.07-.08-.17-.06-.29l.19-.91c.02-.11.08-.2.17-.27.09-.07.19-.11.31-.11h1.29l.13-.65c.15-.64.38-1.17.69-1.59.31-.42.7-.74 1.18-.95.48-.21 1.04-.32 1.68-.32h1.28c.12 0 .2.04.26.11.05.07.07.16.05.27l-.19.91c-.02.12-.08.21-.17.29s-.19.11-.3.11h-.96c-.43 0-.76.11-.99.32-.23.21-.39.52-.46.93l-.13.58h1.98c.12 0 .2.04.26.11.05.07.07.16.05.27l-.19.91c-.02.12-.07.21-.16.29-.08.08-.19.11-.3.11h-1.98l-1.34 6.24a.47.47 0 0 1-.16.27c-.09.07-.18.11-.29.11h-1.29ZM252.11 618.4c-.73 0-1.29-.11-1.7-.34-.4-.22-.67-.56-.78-1-.12-.44-.11-.99.03-1.66l.79-3.63h-1.26a.31.31 0 0 1-.25-.11c-.06-.07-.08-.17-.06-.29l.19-.91c.02-.11.08-.2.17-.27.09-.07.2-.11.31-.11h1.25l.58-2.65c.02-.11.07-.2.16-.27.08-.07.18-.11.29-.11h1.3c.12 0 .21.04.26.11.06.08.08.17.06.27l-.58 2.65h2c.11 0 .19.04.25.11s.08.16.06.27l-.19.91c-.02.12-.08.21-.17.29a.43.43 0 0 1-.3.11h-2l-.74 3.47c-.06.29-.1.54-.1.74 0 .21.05.37.17.48s.33.17.62.17h1.15c.12 0 .2.04.26.11.05.08.07.17.05.27l-.21.99a.47.47 0 0 1-.46.38h-1.14ZM257.27 618.4c-.15 0-.26-.04-.32-.11a.507.507 0 0 1-.11-.29l-.72-7.49c-.01-.12.02-.22.1-.3s.18-.13.32-.13h1.12c.13 0 .22.03.28.09.06.06.09.13.1.22l.46 5.3 2.75-5.25c.04-.08.11-.15.19-.23.09-.08.2-.12.34-.12h.83c.15 0 .25.04.3.12.05.08.09.16.1.23l.58 5.25 2.69-5.3c.03-.06.09-.13.16-.2s.18-.11.3-.11h1.3c.15 0 .24.05.26.14s.01.2-.04.32L264.4 618c-.06.12-.14.21-.23.29s-.21.11-.36.11h-1.06c-.15 0-.26-.04-.33-.11s-.12-.17-.14-.29l-.66-5.05-2.72 5.05c-.06.12-.14.21-.24.29s-.22.11-.37.11h-1.04ZM271.09 618.56c-.55 0-1.02-.09-1.41-.28-.38-.19-.69-.45-.9-.79-.22-.34-.36-.74-.42-1.21-.06-.46-.05-.97.03-1.53.04-.19.08-.37.11-.52.03-.15.07-.33.11-.52.14-.53.32-1.03.55-1.49.23-.46.51-.86.85-1.21.34-.35.73-.62 1.18-.81.45-.19.97-.29 1.56-.29.66 0 1.17.11 1.51.31.35.21.62.46.81.76l.11-.53c.02-.11.08-.2.16-.27s.18-.11.29-.11h1.26c.11 0 .19.04.26.11.06.07.09.16.06.27l-1.62 7.55a.47.47 0 0 1-.16.27c-.09.07-.18.11-.29.11h-1.26c-.12 0-.21-.04-.26-.11s-.08-.17-.06-.27l.13-.59c-.32.33-.67.6-1.06.81-.38.21-.9.32-1.55.32Zm.72-1.71c.45 0 .83-.1 1.15-.3s.58-.46.78-.78.34-.64.42-.97c.05-.19.1-.4.14-.62s.08-.42.11-.62c.06-.32.07-.63.02-.92s-.19-.54-.41-.73c-.22-.19-.55-.29-.98-.29s-.77.1-1.06.3-.54.46-.73.78-.35.67-.46 1.06c-.04.16-.08.32-.11.48s-.06.32-.08.48c-.05.38-.07.74-.04 1.06.03.32.14.58.34.78s.5.3.92.3ZM278.05 618.4a.31.31 0 0 1-.25-.11c-.06-.07-.08-.17-.06-.27l1.6-7.54a.482.482 0 0 1 .47-.4h1.29c.11 0 .19.04.25.11s.08.17.06.29l-.14.66c.26-.34.58-.6.98-.78s.88-.27 1.44-.27h.78c.12 0 .2.04.26.11.05.07.07.16.05.27l-.24 1.15c-.02.11-.08.2-.17.27-.09.07-.19.11-.29.11h-1.25c-.51 0-.94.14-1.29.43-.35.28-.57.68-.68 1.19l-.94 4.4c-.02.11-.07.2-.16.27s-.19.11-.3.11h-1.39ZM288.05 618.56c-.78 0-1.43-.15-1.95-.46-.52-.31-.87-.76-1.07-1.35-.2-.59-.23-1.29-.09-2.13.02-.11.05-.24.08-.41.03-.17.06-.3.1-.39.21-.81.54-1.51.99-2.09.45-.58.99-1.03 1.64-1.34s1.36-.47 2.14-.47c.86 0 1.55.18 2.06.54s.84.85 1.01 1.49.16 1.37 0 2.2l-.08.34c-.02.11-.08.2-.17.27-.09.08-.19.11-.31.11h-5.31a.63.63 0 0 1-.03.13c-.05.38-.05.72.02 1.03.06.31.21.57.42.76s.51.29.87.29c.3 0 .56-.04.79-.13.22-.09.41-.2.55-.31.14-.12.25-.21.33-.29.13-.13.22-.21.29-.23.06-.03.15-.04.27-.04h1.39c.1 0 .17.03.22.1.05.06.07.14.05.24-.05.17-.19.38-.4.62-.21.24-.5.48-.86.72s-.79.43-1.29.58-1.04.23-1.64.23Zm-.69-5.03h3.54l.02-.05c.1-.42.1-.78.02-1.1s-.23-.56-.46-.74c-.22-.18-.52-.26-.9-.26s-.71.09-1.02.26c-.3.18-.56.42-.76.74-.2.31-.35.68-.43 1.1l-.02.05ZM1125.56 618.56c-.88 0-1.63-.15-2.22-.44s-1.05-.71-1.37-1.26c-.31-.54-.49-1.18-.52-1.9-.01-.21-.02-.46-.02-.73s0-.51.02-.71c.03-.74.21-1.37.54-1.91.33-.54.79-.96 1.39-1.25s1.32-.44 2.18-.44 1.56.15 2.16.44 1.06.71 1.39 1.25c.33.54.52 1.18.56 1.91.01.2.02.44.02.71s0 .52-.02.73c-.04.72-.22 1.36-.54 1.9-.31.54-.77.96-1.37 1.26s-1.33.44-2.21.44Zm0-1.77c.52 0 .92-.16 1.18-.48.26-.32.41-.79.44-1.42.01-.16.02-.37.02-.64s0-.48-.02-.64c-.03-.62-.18-1.09-.44-1.42-.26-.33-.65-.49-1.18-.49s-.92.16-1.18.49c-.27.32-.42.8-.45 1.42-.01.16-.02.37-.02.64s0 .48.02.64c.03.63.18 1.1.45 1.42s.66.48 1.18.48ZM1134.64 618.56c-.66 0-1.23-.08-1.7-.23s-.86-.34-1.15-.57c-.29-.22-.51-.45-.66-.68-.14-.23-.22-.42-.23-.58-.01-.12.03-.21.11-.29.09-.07.17-.11.26-.11h1.55s.08 0 .1.02c.03 0 .06.04.1.08.14.1.28.21.42.33.14.12.32.23.52.31.2.09.45.13.74.13.35 0 .65-.07.89-.22a.68.68 0 0 0 .36-.62c0-.19-.05-.35-.16-.48s-.31-.24-.62-.35-.77-.22-1.38-.35c-.58-.13-1.07-.3-1.47-.51-.41-.21-.71-.48-.91-.81-.2-.33-.3-.72-.3-1.18 0-.42.13-.82.39-1.2s.65-.7 1.16-.95 1.15-.38 1.92-.38c.59 0 1.1.07 1.54.22s.81.33 1.11.54.53.44.68.67c.15.23.24.43.25.6.01.12-.02.21-.1.29-.08.08-.16.11-.26.11h-1.42c-.05 0-.1-.01-.14-.03s-.08-.05-.11-.08c-.13-.07-.26-.17-.39-.29a1.72 1.72 0 0 0-.47-.3c-.18-.08-.42-.13-.7-.13-.34 0-.61.08-.79.23a.724.724 0 0 0-.14 1c.1.13.29.25.58.35.29.11.75.22 1.37.34.73.13 1.3.32 1.73.58s.73.55.91.89c.18.34.27.7.27 1.08 0 .5-.15.95-.44 1.34-.29.39-.73.69-1.3.91-.58.22-1.28.33-2.11.33ZM1143.33 618.56c-.66 0-1.23-.08-1.7-.23s-.86-.34-1.15-.57c-.29-.22-.51-.45-.66-.68-.14-.23-.22-.42-.23-.58-.01-.12.03-.21.11-.29.09-.07.17-.11.26-.11h1.55s.08 0 .1.02c.03 0 .06.04.1.08.14.1.28.21.42.33.14.12.32.23.52.31.2.09.45.13.74.13.35 0 .65-.07.89-.22a.68.68 0 0 0 .36-.62c0-.19-.05-.35-.16-.48s-.31-.24-.62-.35-.77-.22-1.38-.35c-.58-.13-1.07-.3-1.47-.51-.41-.21-.71-.48-.91-.81-.2-.33-.3-.72-.3-1.18 0-.42.13-.82.39-1.2s.65-.7 1.16-.95 1.15-.38 1.92-.38c.59 0 1.1.07 1.54.22s.81.33 1.11.54.53.44.68.67c.15.23.24.43.25.6.01.12-.02.21-.1.29-.08.08-.16.11-.26.11h-1.42c-.05 0-.1-.01-.14-.03s-.08-.05-.11-.08c-.13-.07-.26-.17-.39-.29a1.72 1.72 0 0 0-.47-.3c-.18-.08-.42-.13-.7-.13-.34 0-.61.08-.79.23a.724.724 0 0 0-.14 1c.1.13.29.25.58.35.29.11.75.22 1.37.34.73.13 1.3.32 1.73.58s.73.55.91.89c.18.34.27.7.27 1.08 0 .5-.15.95-.44 1.34-.29.39-.73.69-1.3.91-.58.22-1.28.33-2.11.33ZM1149.04 618.4c-.12 0-.21-.04-.29-.11a.4.4 0 0 1-.11-.29v-1.81c0-.11.04-.2.11-.28.08-.08.17-.12.29-.12h1.81c.11 0 .2.04.28.12s.12.17.12.28V618c0 .12-.04.21-.12.29s-.17.11-.28.11h-1.81ZM1153.56 618.4c-.12 0-.21-.04-.29-.11s-.11-.17-.11-.29v-10.56c0-.12.04-.21.11-.29a.4.4 0 0 1 .29-.11h1.6c.12 0 .21.04.29.11.08.08.11.17.11.29V618c0 .12-.04.21-.11.29a.4.4 0 0 1-.29.11h-1.6ZM1161.38 618.56c-.88 0-1.63-.15-2.22-.44s-1.05-.71-1.37-1.26c-.31-.54-.49-1.18-.52-1.9-.01-.21-.02-.46-.02-.73s0-.51.02-.71c.03-.74.21-1.37.54-1.91.33-.54.79-.96 1.39-1.25s1.32-.44 2.18-.44 1.56.15 2.16.44 1.06.71 1.39 1.25c.33.54.52 1.18.56 1.91.01.2.02.44.02.71s0 .52-.02.73c-.04.72-.22 1.36-.54 1.9-.31.54-.77.96-1.37 1.26s-1.33.44-2.21.44Zm0-1.77c.52 0 .92-.16 1.18-.48.26-.32.41-.79.44-1.42.01-.16.02-.37.02-.64s0-.48-.02-.64c-.03-.62-.18-1.09-.44-1.42-.26-.33-.65-.49-1.18-.49s-.92.16-1.18.49c-.27.32-.42.8-.45 1.42-.01.16-.02.37-.02.64s0 .48.02.64c.03.63.18 1.1.45 1.42s.66.48 1.18.48ZM1169.81 618.4c-.16 0-.28-.04-.36-.12a.95.95 0 0 1-.2-.28l-3.01-7.42s-.03-.09-.03-.14c0-.1.03-.18.1-.25a.34.34 0 0 1 .25-.11h1.55c.14 0 .24.04.31.11s.11.14.14.21l1.97 5.26 1.97-5.26c.03-.06.08-.13.14-.21.06-.07.17-.11.3-.11h1.55c.1 0 .18.04.25.11s.1.15.1.25c0 .05 0 .1-.02.14l-3.01 7.42c-.04.11-.11.2-.19.28-.09.08-.21.12-.38.12h-1.44ZM1179.6 618.56c-1.23 0-2.2-.34-2.92-1.02-.72-.68-1.1-1.67-1.14-2.98v-.67c.04-.83.23-1.54.56-2.14.33-.59.79-1.04 1.39-1.36.6-.31 1.3-.47 2.1-.47.91 0 1.66.19 2.26.55.6.37 1.05.87 1.35 1.5.3.63.46 1.36.46 2.18v.37c0 .11-.04.2-.11.28a.37.37 0 0 1-.29.12h-5.22v.11c.01.34.08.65.19.94.12.28.29.51.52.68.23.17.51.26.84.26.26 0 .47-.04.64-.12s.31-.17.42-.27.19-.19.25-.26c.1-.12.17-.19.23-.22s.15-.04.26-.04h1.7c.1 0 .18.03.25.1.07.06.1.14.09.24-.01.18-.1.4-.26.65-.17.25-.41.5-.73.74s-.72.44-1.19.6-1.02.24-1.64.24Zm-1.56-5.1h3.12v-.05c0-.37-.06-.7-.18-.98s-.3-.51-.54-.66c-.23-.16-.52-.24-.85-.24s-.61.08-.84.24c-.23.16-.41.38-.53.66-.12.28-.18.61-.18.98v.05Z"/><path fill="#b7303d" stroke="#1c2126" stroke-linejoin="round" stroke-width=".33" d="m1104.46 614.96-5.57-3.22-5.58 3.22 11.15 6.43 11.16-6.43-5.58-3.22-5.58 3.22z"/><path fill="#ea4f4b" stroke="#1c2126" stroke-linejoin="round" stroke-width=".33" d="M1098.89 605.3v6.44l-5.58 3.22v-6.44l5.58-3.22z"/><path fill="#ff6b60" stroke="#1c2126" stroke-linejoin="round" stroke-width=".33" d="M1098.89 605.3v6.44l5.57 3.22v-6.44l-5.57-3.22z"/><path fill="#ea4f4b" stroke="#1c2126" stroke-linejoin="round" stroke-width=".33" d="M1110.04 605.3v6.44l-5.58 3.22v-6.44l5.58-3.22z"/><path fill="#ff6b60" stroke="#1c2126" stroke-linejoin="round" stroke-width=".33" d="M1110.04 605.3v6.44l5.57 3.22.01-6.44-5.58-3.22z"/></g></svg>