<svg xmlns="http://www.w3.org/2000/svg" width="1200" height="630" viewBox="0 0 1200 630"><rect width="1200" height="498.72" fill="#ffdd73"/><path d="M1110.47,503c0,26.78-50.21,48.49-112.14,48.49S886.18,529.73,886.18,503c0-45.56,50.21-52.48,112.15-52.48S1110.47,457.93,1110.47,503Z" fill="#ffb916" stroke="#1c2126" stroke-linejoin="round" stroke-width="2"/><ellipse cx="998.33" cy="491.46" rx="112.15" ry="48.48" fill="#b7790b" stroke="#1c2126" stroke-linejoin="round" stroke-width="2"/><path d="M1113.47,472.39c0,26.78-50.21,48.49-112.14,48.49s-112.15-21.71-112.15-48.49c0-45.55,50.21-52.48,112.15-52.48S1113.47,427.37,1113.47,472.39Z" fill="#ffb916" stroke="#1c2126" stroke-linejoin="round" stroke-width="2"/><ellipse cx="1001.33" cy="460.9" rx="112.15" ry="48.48" fill="#b7790b" stroke="#1c2126" stroke-linejoin="round" stroke-width="2"/><path d="M1107.59,443.47c0,26.78-50.21,48.48-112.15,48.48S883.3,470.25,883.3,443.47c0-45.56,50.21-52.48,112.14-52.48S1107.59,398.44,1107.59,443.47Z" fill="#ffb916" stroke="#1c2126" stroke-linejoin="round" stroke-width="2"/><ellipse cx="995.44" cy="431.98" rx="112.15" ry="48.48" fill="#b7790b" stroke="#1c2126" stroke-linejoin="round" stroke-width="2"/><path d="M1113.47,416c0,26.77-50.21,48.48-112.14,48.48S889.18,442.76,889.18,416c0-45.56,50.21-52.49,112.15-52.49S1113.47,371,1113.47,416Z" fill="#ffb916" stroke="#1c2126" stroke-linejoin="round" stroke-width="2"/><ellipse cx="1001.33" cy="404.49" rx="112.15" ry="48.48" fill="#b7790b" stroke="#1c2126" stroke-linejoin="round" stroke-width="2"/><path d="M1107.59,392.41c0,26.77-50.21,48.48-112.15,48.48S883.3,419.18,883.3,392.41c0-45.56,50.21-52.49,112.14-52.49S1107.59,347.38,1107.59,392.41Z" fill="#ffb916" stroke="#1c2126" stroke-linejoin="round" stroke-width="2"/><ellipse cx="995.44" cy="380.91" rx="112.15" ry="48.48" fill="#b7790b" stroke="#1c2126" stroke-linejoin="round" stroke-width="2"/><path d="M1117.47,361.17c0,26.77-50.21,48.48-112.14,48.48s-112.15-21.71-112.15-48.48c0-45.56,50.21-52.49,112.15-52.49S1117.47,316.14,1117.47,361.17Z" fill="#ffb916" stroke="#1c2126" stroke-linejoin="round" stroke-width="2"/><ellipse cx="1005.33" cy="349.67" rx="112.15" ry="48.48" fill="#b7790b" stroke="#1c2126" stroke-linejoin="round" stroke-width="2"/><path d="M1113.47,328.24c0,26.78-50.21,48.48-112.14,48.48S889.18,355,889.18,328.24c0-45.56,50.21-52.48,112.15-52.48S1113.47,283.21,1113.47,328.24Z" fill="#ffb916" stroke="#1c2126" stroke-linejoin="round" stroke-width="2"/><ellipse cx="1001.33" cy="316.75" rx="112.15" ry="48.48" fill="#b7790b" stroke="#1c2126" stroke-linejoin="round" stroke-width="2"/><path d="M1107.59,300.76c0,26.77-50.21,48.48-112.15,48.48S883.3,327.53,883.3,300.76c0-45.56,50.21-52.49,112.14-52.49S1107.59,255.73,1107.59,300.76Z" fill="#ffb916" stroke="#1c2126" stroke-linejoin="round" stroke-width="2"/><ellipse cx="995.44" cy="289.26" rx="112.15" ry="48.48" fill="#b7790b" stroke="#1c2126" stroke-linejoin="round" stroke-width="2"/><path d="M1115.73,277.18c0,26.78-50.21,48.48-112.14,48.48S891.44,304,891.44,277.18c0-45.56,50.21-52.48,112.15-52.48S1115.73,232.15,1115.73,277.18Z" fill="#ffb916" stroke="#1c2126" stroke-linejoin="round" stroke-width="2"/><ellipse cx="1003.59" cy="265.69" rx="112.15" ry="48.48" fill="#b7790b" stroke="#1c2126" stroke-linejoin="round" stroke-width="2"/><path d="M1113.47,245.94c0,26.77-50.21,48.48-112.14,48.48s-112.15-21.71-112.15-48.48c0-45.56,50.21-52.49,112.15-52.49S1113.47,200.91,1113.47,245.94Z" fill="#ffb916" stroke="#1c2126" stroke-linejoin="round" stroke-width="2"/><ellipse cx="1001.33" cy="234.44" rx="112.15" ry="48.48" fill="#b7790b" stroke="#1c2126" stroke-linejoin="round" stroke-width="2"/><path d="M1112.47,216c0,26.78-50.21,48.49-112.14,48.49S888.18,242.79,888.18,216c0-45.56,50.21-52.48,112.15-52.48S1112.47,171,1112.47,216Z" fill="#ffb916" stroke="#1c2126" stroke-linejoin="round" stroke-width="2"/><ellipse cx="1000.33" cy="204.52" rx="112.15" ry="48.48" fill="#b7790b" stroke="#1c2126" stroke-linejoin="round" stroke-width="2"/><path d="M1115.73,183.09c0,26.77-50.21,48.48-112.14,48.48s-112.15-21.71-112.15-48.48c0-45.56,50.21-52.49,112.15-52.49S1115.73,138.06,1115.73,183.09Z" fill="#ffb916" stroke="#1c2126" stroke-linejoin="round" stroke-width="2"/><ellipse cx="1003.59" cy="171.59" rx="112.15" ry="48.48" fill="#b7790b" stroke="#1c2126" stroke-linejoin="round" stroke-width="2"/><path d="M1108.47,155.6c0,26.78-50.21,48.49-112.14,48.49S884.18,182.38,884.18,155.6c0-45.56,50.21-52.48,112.15-52.48S1108.47,110.58,1108.47,155.6Z" fill="#ffb916" stroke="#1c2126" stroke-linejoin="round" stroke-width="2"/><ellipse cx="996.33" cy="144.11" rx="112.15" ry="48.48" fill="#b7790b" stroke="#1c2126" stroke-linejoin="round" stroke-width="2"/><path d="M1115.73,132c0,26.77-50.21,48.48-112.14,48.48S891.44,158.8,891.44,132c0-45.56,50.21-52.49,112.15-52.49S1115.73,87,1115.73,132Z" fill="#ffb916" stroke="#1c2126" stroke-linejoin="round" stroke-width="2"/><ellipse cx="1003.59" cy="120.53" rx="112.15" ry="48.48" fill="#b7790b" stroke="#1c2126" stroke-linejoin="round" stroke-width="2"/><path d="M1107.59,104.53c0,26.78-50.21,48.48-112.15,48.48S883.3,131.31,883.3,104.53c0-45.56,50.21-52.48,112.14-52.48S1107.59,59.5,1107.59,104.53Z" fill="#ffb916" stroke="#1c2126" stroke-linejoin="round" stroke-width="2"/><ellipse cx="995.44" cy="93.04" rx="112.15" ry="48.48" fill="#b7790b" stroke="#1c2126" stroke-linejoin="round" stroke-width="2"/><path d="M966.29,84.16c0,2.43,0,3.85,0,6.28a4.93,4.93,0,0,0,.26,1.87A4.36,4.36,0,0,0,968,93.94c5.21,3.91,28.83,11.68,31.08,11.78a10.26,10.26,0,0,0,4.83-.66c1.06-.48,12.08-11.76,17.2-17.16a3.82,3.82,0,0,0,.93-1.33,46.37,46.37,0,0,0-1-10.19" fill="#fff6d0" stroke="#1c2126" stroke-linejoin="round" stroke-width="2"/><path d="M1018.62,73.49c-8.36-5.29-24.61-10.37-29.21-9.34S974.3,75,967.5,81.39c-.81.76-1.68,1.75-1.42,2.82s1.24,1.46,2.13,1.84c9.25,4,18.52,8,28.09,11.12a7.16,7.16,0,0,0,3.05.51,7,7,0,0,0,3.18-1.65,114.33,114.33,0,0,0,17.23-16.41,4.6,4.6,0,0,0,1.38-2.64C1021.22,75.48,1019.9,74.3,1018.62,73.49Z" fill="#fff6d0" stroke="#1c2126" stroke-linejoin="round" stroke-width="2"/><path d="M849.73,516.64c0,26.78-50.21,48.48-112.14,48.48s-112.15-21.7-112.15-48.48c0-45.56,50.21-52.48,112.15-52.48S849.73,471.61,849.73,516.64Z" fill="#ffb916" stroke="#1c2126" stroke-linejoin="round" stroke-width="2"/><ellipse cx="737.59" cy="505.15" rx="112.15" ry="48.48" fill="#b7790b" stroke="#1c2126" stroke-linejoin="round" stroke-width="2"/><path d="M842.66,493.06c0,26.78-50.21,48.49-112.15,48.49s-112.14-21.71-112.14-48.49c0-45.56,50.21-52.48,112.14-52.48S842.66,448,842.66,493.06Z" fill="#ffb916" stroke="#1c2126" stroke-linejoin="round" stroke-width="2"/><ellipse cx="730.51" cy="481.57" rx="112.15" ry="48.48" fill="#b7790b" stroke="#1c2126" stroke-linejoin="round" stroke-width="2"/><path d="M834.66,461.82c0,26.78-50.21,48.48-112.15,48.48s-112.14-21.7-112.14-48.48c0-45.56,50.21-52.48,112.14-52.48S834.66,416.79,834.66,461.82Z" fill="#ffb916" stroke="#1c2126" stroke-linejoin="round" stroke-width="2"/><ellipse cx="722.51" cy="450.33" rx="112.15" ry="48.48" fill="#b7790b" stroke="#1c2126" stroke-linejoin="round" stroke-width="2"/><path d="M844.66,431.9c0,26.77-50.21,48.48-112.15,48.48S620.37,458.67,620.37,431.9c0-45.56,50.21-52.49,112.14-52.49S844.66,386.87,844.66,431.9Z" fill="#ffb916" stroke="#1c2126" stroke-linejoin="round" stroke-width="2"/><ellipse cx="732.51" cy="420.4" rx="112.15" ry="48.48" fill="#b7790b" stroke="#1c2126" stroke-linejoin="round" stroke-width="2"/><path d="M844.66,399c0,26.78-50.21,48.49-112.15,48.49S620.37,425.75,620.37,399c0-45.56,50.21-52.48,112.14-52.48S844.66,353.94,844.66,399Z" fill="#ffb916" stroke="#1c2126" stroke-linejoin="round" stroke-width="2"/><ellipse cx="732.51" cy="387.48" rx="112.15" ry="48.48" fill="#b7790b" stroke="#1c2126" stroke-linejoin="round" stroke-width="2"/><path d="M844.66,371.49c0,26.77-50.21,48.48-112.15,48.48s-112.14-21.71-112.14-48.48c0-45.56,50.21-52.49,112.14-52.49S844.66,326.46,844.66,371.49Z" fill="#ffb916" stroke="#1c2126" stroke-linejoin="round" stroke-width="2"/><ellipse cx="732.51" cy="359.99" rx="112.15" ry="48.48" fill="#b7790b" stroke="#1c2126" stroke-linejoin="round" stroke-width="2"/><path d="M834.66,347.91c0,26.78-50.21,48.48-112.15,48.48s-112.14-21.7-112.14-48.48c0-45.56,50.21-52.48,112.14-52.48S834.66,302.88,834.66,347.91Z" fill="#ffb916" stroke="#1c2126" stroke-linejoin="round" stroke-width="2"/><ellipse cx="722.51" cy="336.42" rx="112.15" ry="48.48" fill="#b7790b" stroke="#1c2126" stroke-linejoin="round" stroke-width="2"/><path d="M840.69,320.41c0,26.78-50.21,48.49-112.15,48.49s-112.15-21.71-112.15-48.49c0-45.55,50.21-52.48,112.15-52.48S840.69,275.39,840.69,320.41Z" fill="#ffb916" stroke="#1c2126" stroke-linejoin="round" stroke-width="2"/><ellipse cx="728.54" cy="308.92" rx="112.15" ry="48.48" fill="#b7790b" stroke="#1c2126" stroke-linejoin="round" stroke-width="2"/><path d="M695.22,300.05c0,2.42,0,3.85,0,6.27a4.69,4.69,0,0,0,.25,1.87,4.31,4.31,0,0,0,1.49,1.63c5.21,3.91,28.82,11.68,31.08,11.79a10.52,10.52,0,0,0,4.83-.66c1-.49,12.08-11.76,17.19-17.17a3.61,3.61,0,0,0,.93-1.33,46.41,46.41,0,0,0-1-10.19" fill="#fff6d0" stroke="#1c2126" stroke-linejoin="round" stroke-width="2"/><path d="M747.55,289.38c-8.36-5.3-24.62-10.38-29.22-9.35s-15.1,10.9-21.9,17.25c-.81.75-1.69,1.74-1.42,2.81s1.23,1.46,2.12,1.85c9.26,4,18.52,8,28.09,11.11a5.29,5.29,0,0,0,6.23-1.13,114.46,114.46,0,0,0,17.24-16.42,4.69,4.69,0,0,0,1.38-2.63C750.14,291.36,748.82,290.18,747.55,289.38Z" fill="#fff6d0" stroke="#1c2126" stroke-linejoin="round" stroke-width="2"/><path d="M308.21,516.64c0,26.78-50.21,48.48-112.15,48.48S83.91,543.42,83.91,516.64c0-45.56,50.21-52.48,112.15-52.48S308.21,471.61,308.21,516.64Z" fill="#ffb916" stroke="#1c2126" stroke-linejoin="round" stroke-width="2"/><ellipse cx="196.06" cy="505.15" rx="112.15" ry="48.48" fill="#b7790b" stroke="#1c2126" stroke-linejoin="round" stroke-width="2"/><path d="M301.77,493.06c0,26.78-50.21,48.49-112.15,48.49S77.48,519.84,77.48,493.06c0-45.56,50.21-52.48,112.14-52.48S301.77,448,301.77,493.06Z" fill="#ffb916" stroke="#1c2126" stroke-linejoin="round" stroke-width="2"/><ellipse cx="189.62" cy="481.57" rx="112.15" ry="48.48" fill="#b7790b" stroke="#1c2126" stroke-linejoin="round" stroke-width="2"/><path d="M306.21,461.82c0,26.78-50.21,48.48-112.15,48.48S81.91,488.6,81.91,461.82c0-45.56,50.21-52.48,112.15-52.48S306.21,416.79,306.21,461.82Z" fill="#ffb916" stroke="#1c2126" stroke-linejoin="round" stroke-width="2"/><ellipse cx="194.06" cy="450.33" rx="112.15" ry="48.48" fill="#b7790b" stroke="#1c2126" stroke-linejoin="round" stroke-width="2"/><path d="M308.21,431.9c0,26.77-50.21,48.48-112.15,48.48S83.91,458.67,83.91,431.9c0-45.56,50.21-52.49,112.15-52.49S308.21,386.87,308.21,431.9Z" fill="#ffb916" stroke="#1c2126" stroke-linejoin="round" stroke-width="2"/><ellipse cx="196.06" cy="420.4" rx="112.15" ry="48.48" fill="#b7790b" stroke="#1c2126" stroke-linejoin="round" stroke-width="2"/><path d="M313.28,399c0,26.78-50.21,48.49-112.15,48.49S89,425.75,89,399c0-45.56,50.21-52.48,112.14-52.48S313.28,353.94,313.28,399Z" fill="#ffb916" stroke="#1c2126" stroke-linejoin="round" stroke-width="2"/><ellipse cx="201.13" cy="387.48" rx="112.15" ry="48.48" fill="#b7790b" stroke="#1c2126" stroke-linejoin="round" stroke-width="2"/><path d="M301.77,371.49c0,26.77-50.21,48.48-112.15,48.48S77.48,398.26,77.48,371.49c0-45.56,50.21-52.49,112.14-52.49S301.77,326.46,301.77,371.49Z" fill="#ffb916" stroke="#1c2126" stroke-linejoin="round" stroke-width="2"/><ellipse cx="189.62" cy="359.99" rx="112.15" ry="48.48" fill="#b7790b" stroke="#1c2126" stroke-linejoin="round" stroke-width="2"/><path d="M304.23,347.91c0,26.78-50.21,48.48-112.14,48.48S79.94,374.69,79.94,347.91c0-45.56,50.21-52.48,112.15-52.48S304.23,302.88,304.23,347.91Z" fill="#ffb916" stroke="#1c2126" stroke-linejoin="round" stroke-width="2"/><ellipse cx="192.09" cy="336.42" rx="112.15" ry="48.48" fill="#b7790b" stroke="#1c2126" stroke-linejoin="round" stroke-width="2"/><path d="M158.77,328.06c0,2.43,0,3.85,0,6.28a4.74,4.74,0,0,0,.25,1.87,4.3,4.3,0,0,0,1.49,1.63c5.2,3.91,28.82,11.68,31.07,11.78a10.3,10.3,0,0,0,4.84-.66c1-.48,12.07-11.76,17.19-17.16a3.82,3.82,0,0,0,.93-1.33,46.32,46.32,0,0,0-1-10.19" fill="#fff6d0" stroke="#1c2126" stroke-linejoin="round" stroke-width="2"/><path d="M211.09,317.39c-8.35-5.29-24.61-10.37-29.21-9.34s-15.1,10.89-21.91,17.24c-.8.76-1.68,1.75-1.42,2.82s1.24,1.46,2.13,1.84c9.25,4,18.52,8,28.09,11.12a7.16,7.16,0,0,0,3,.51,7,7,0,0,0,3.18-1.65,113.86,113.86,0,0,0,17.23-16.41,4.67,4.67,0,0,0,1.39-2.64C213.69,319.38,212.37,318.2,211.09,317.39Z" fill="#fff6d0" stroke="#1c2126" stroke-linejoin="round" stroke-width="2"/><path d="M579.25,516.64c0,26.78-50.21,48.48-112.14,48.48S355,543.42,355,516.64c0-45.56,50.21-52.48,112.15-52.48S579.25,471.61,579.25,516.64Z" fill="#ffb916" stroke="#1c2126" stroke-linejoin="round" stroke-width="2"/><ellipse cx="467.11" cy="505.15" rx="112.15" ry="48.48" fill="#b7790b" stroke="#1c2126" stroke-linejoin="round" stroke-width="2"/><path d="M584.33,493.06c0,26.78-50.21,48.49-112.15,48.49S360,519.84,360,493.06c0-45.56,50.21-52.48,112.14-52.48S584.33,448,584.33,493.06Z" fill="#ffb916" stroke="#1c2126" stroke-linejoin="round" stroke-width="2"/><ellipse cx="472.18" cy="481.57" rx="112.15" ry="48.48" fill="#b7790b" stroke="#1c2126" stroke-linejoin="round" stroke-width="2"/><path d="M574.91,461.82c0,26.78-50.21,48.48-112.15,48.48s-112.14-21.7-112.14-48.48c0-45.56,50.21-52.48,112.14-52.48S574.91,416.79,574.91,461.82Z" fill="#ffb916" stroke="#1c2126" stroke-linejoin="round" stroke-width="2"/><ellipse cx="462.76" cy="450.33" rx="112.15" ry="48.48" fill="#b7790b" stroke="#1c2126" stroke-linejoin="round" stroke-width="2"/><path d="M579.65,432.3c0,26.77-50.2,48.48-112.14,48.48S355.36,459.07,355.36,432.3c0-45.56,50.21-52.49,112.15-52.49S579.65,387.27,579.65,432.3Z" fill="#ffb916" stroke="#1c2126" stroke-linejoin="round" stroke-width="2"/><ellipse cx="467.51" cy="420.8" rx="112.15" ry="48.48" fill="#b7790b" stroke="#1c2126" stroke-linejoin="round" stroke-width="2"/><path d="M579.25,399c0,26.78-50.21,48.49-112.14,48.49S355,425.75,355,399c0-45.56,50.21-52.48,112.15-52.48S579.25,353.94,579.25,399Z" fill="#ffb916" stroke="#1c2126" stroke-linejoin="round" stroke-width="2"/><ellipse cx="467.11" cy="387.48" rx="112.15" ry="48.48" fill="#b7790b" stroke="#1c2126" stroke-linejoin="round" stroke-width="2"/><path d="M569.26,371.49c0,26.77-50.21,48.48-112.15,48.48S345,398.26,345,371.49C345,325.93,395.17,319,457.11,319S569.26,326.46,569.26,371.49Z" fill="#ffb916" stroke="#1c2126" stroke-linejoin="round" stroke-width="2"/><ellipse cx="457.11" cy="359.99" rx="112.15" ry="48.48" fill="#b7790b" stroke="#1c2126" stroke-linejoin="round" stroke-width="2"/><path d="M574.91,347.91c0,26.78-50.21,48.48-112.15,48.48s-112.14-21.7-112.14-48.48c0-45.56,50.21-52.48,112.14-52.48S574.91,302.88,574.91,347.91Z" fill="#ffb916" stroke="#1c2126" stroke-linejoin="round" stroke-width="2"/><ellipse cx="462.76" cy="336.42" rx="112.15" ry="48.48" fill="#b7790b" stroke="#1c2126" stroke-linejoin="round" stroke-width="2"/><path d="M428.83,328.08c0,2.43,0,3.85,0,6.28a4.74,4.74,0,0,0,.26,1.87,4.36,4.36,0,0,0,1.48,1.63c5.21,3.91,28.83,11.68,31.08,11.78a10.26,10.26,0,0,0,4.83-.66c1.05-.48,12.08-11.76,17.2-17.16a3.82,3.82,0,0,0,.93-1.33,46.37,46.37,0,0,0-1-10.19" fill="#fff6d0" stroke="#1c2126" stroke-linejoin="round" stroke-width="2"/><path d="M481.16,317.41c-8.36-5.29-24.61-10.37-29.21-9.34S436.84,319,430,325.31c-.81.76-1.68,1.75-1.42,2.82s1.24,1.46,2.13,1.84c9.25,4,18.52,8,28.09,11.12a5.27,5.27,0,0,0,6.23-1.14,114.33,114.33,0,0,0,17.23-16.41,4.6,4.6,0,0,0,1.38-2.64C483.76,319.4,482.43,318.22,481.16,317.41Z" fill="#fff6d0" stroke="#1c2126" stroke-linejoin="round" stroke-width="2"/><path d="M78.9,123.11l8.84-55.66h17.05L96,123.11Z" fill="#1c2126"/><path d="M115.77,97l-5.21-5.61a31.23,31.23,0,0,0,5.29-5.44,16.57,16.57,0,0,0,2.52-6.16l2.84,4H109.69l2.6-16.34H129l-1.81,11.37a30.14,30.14,0,0,1-1.78,6.67,22.48,22.48,0,0,1-3.47,5.8A35.07,35.07,0,0,1,115.77,97Z" fill="#1c2126"/><path d="M126.82,123.11l4.58-28.82q.39-2.83.71-5.72t.47-5.72h15.79l-.16,6.39h-.86a15.3,15.3,0,0,1,5.84-5.52,16.94,16.94,0,0,1,8-1.82,12.74,12.74,0,0,1,7.26,2,9.19,9.19,0,0,1,3.79,6.36H170.4a18.16,18.16,0,0,1,6.75-6.16,17.58,17.58,0,0,1,8.33-2.21q7.34,0,10.26,4.46t1.42,13.93l-3.63,22.82H177L180.66,100a7,7,0,0,0-.24-4.26,2.67,2.67,0,0,0-2.6-1.35,4.85,4.85,0,0,0-4,1.82,11,11,0,0,0-2,5.13l-3.47,21.79H151.92L155.56,100a7.18,7.18,0,0,0-.24-4.26,2.67,2.67,0,0,0-2.61-1.35,4.81,4.81,0,0,0-4,1.82,11.25,11.25,0,0,0-2,5.13l-3.47,21.79Z" fill="#1c2126"/><path d="M243,140.79a49.77,49.77,0,0,1-10.78-1,30.72,30.72,0,0,1-8.09-3l4-11.69a18.91,18.91,0,0,0,4.18,1.94,36.12,36.12,0,0,0,5.09,1.3,27.76,27.76,0,0,0,4.94.47c3.52,0,6.09-.69,7.69-2.09a9.59,9.59,0,0,0,3-6l.87-5.6h.71A11.15,11.15,0,0,1,250,120a15.31,15.31,0,0,1-8,2,17.09,17.09,0,0,1-9.27-2.48,14.2,14.2,0,0,1-5.81-7.3q-1.81-4.81-.63-11.77a25.15,25.15,0,0,1,3.87-10.22A18.27,18.27,0,0,1,237.3,84a21.74,21.74,0,0,1,9.6-2.09,15.58,15.58,0,0,1,7.77,1.89,7.43,7.43,0,0,1,4,4.9h-.55l1.81-5.84h15.79c-.52,1.89-1,3.8-1.42,5.72s-.76,3.83-1,5.72l-3.94,24.64q-1.67,10.5-8.25,16.18T243,140.79ZM248.24,110a6.71,6.71,0,0,0,5-2,9.91,9.91,0,0,0,2.53-5.76q.63-4.18-.91-6.24a5.32,5.32,0,0,0-4.54-2,6.73,6.73,0,0,0-5,2,10.6,10.6,0,0,0-2.57,5.84q-.63,4.11.91,6.16A5.41,5.41,0,0,0,248.24,110Z" fill="#1c2126"/><path d="M276.26,123.11,285.5,65h16.42l-9.23,58.11Z" fill="#1c2126"/><path d="M317.55,124.06a15.18,15.18,0,0,1-9.39-2.92,15.91,15.91,0,0,1-5.53-8.06A25.21,25.21,0,0,1,302,101.4a27.58,27.58,0,0,1,4-10.9A18.58,18.58,0,0,1,313.25,84a21,21,0,0,1,9.44-2.13,15.29,15.29,0,0,1,7.77,1.93,7.53,7.53,0,0,1,4,5l-.71.47,2-6.47H351.5q-.79,2.84-1.38,5.72c-.4,1.92-.75,3.83-1.07,5.72l-4.58,28.82H328.21l1-6.47h1.34a13.09,13.09,0,0,1-5,5.36A15.07,15.07,0,0,1,317.55,124.06ZM323.71,112a6.63,6.63,0,0,0,4.82-1.94c1.31-1.28,2.21-3.38,2.68-6.27q.87-5.53-.71-7.66A5.35,5.35,0,0,0,325.92,94a6.65,6.65,0,0,0-4.85,1.89c-1.29,1.27-2.17,3.37-2.65,6.32-.58,3.68-.34,6.24.71,7.66A5.35,5.35,0,0,0,323.71,112Z" fill="#1c2126"/><path d="M369.42,124.06a15.18,15.18,0,0,1-9.39-2.92,15.91,15.91,0,0,1-5.53-8.06,25.08,25.08,0,0,1-.63-11.68,26.66,26.66,0,0,1,3.95-10.9A18.48,18.48,0,0,1,365.08,84a21.19,21.19,0,0,1,9.47-2.13,15.3,15.3,0,0,1,7.78,1.93,7.56,7.56,0,0,1,4,5h-.95L389.16,65h16.42l-9.24,58.11H380.16l1-6.47h1.27a13,13,0,0,1-5,5.36A15,15,0,0,1,369.42,124.06ZM375.58,112A6.65,6.65,0,0,0,380.4,110c1.31-1.28,2.21-3.38,2.68-6.27q.87-5.53-.71-7.66A5.35,5.35,0,0,0,377.79,94a6.67,6.67,0,0,0-4.86,1.89c-1.29,1.27-2.17,3.37-2.64,6.32-.58,3.68-.34,6.24.71,7.66A5.35,5.35,0,0,0,375.58,112Z" fill="#1c2126"/><path d="M425.24,141l-2.45-12.63q3.94-.63,6.63-1.34a14.26,14.26,0,0,0,4.54-2,10.77,10.77,0,0,0,3.12-3.43l2.68-4.5-.79,6L427.84,82.85H444.5l5.21,24.08h-2.84l13.42-24.08H477l-24.32,40.42a46.63,46.63,0,0,1-6.2,8.37,28.83,28.83,0,0,1-6.39,5.09,27.66,27.66,0,0,1-6.91,2.76Q429.5,140.4,425.24,141Z" fill="#1c2126"/><path d="M493.29,124.06a25.09,25.09,0,0,1-12.47-2.81,15.68,15.68,0,0,1-7.07-7.89,22,22,0,0,1-1-12,23.2,23.2,0,0,1,4.42-10.82,21.09,21.09,0,0,1,8.61-6.51,29.61,29.61,0,0,1,11.53-2.17q7.57,0,12.47,2.8a15.68,15.68,0,0,1,6.95,7.86,22.35,22.35,0,0,1,.94,12,23.24,23.24,0,0,1-4.38,10.81,20.76,20.76,0,0,1-8.48,6.52A29.51,29.51,0,0,1,493.29,124.06Zm.87-12.08a6.15,6.15,0,0,0,4.62-1.94c1.23-1.28,2.09-3.38,2.56-6.27q.87-5.53-.63-7.66A5,5,0,0,0,496.37,94a6.22,6.22,0,0,0-4.62,1.89c-1.24,1.27-2.09,3.37-2.57,6.32-.58,3.68-.38,6.24.6,7.66A5,5,0,0,0,494.16,112Z" fill="#1c2126"/><path d="M536.32,124.06q-7.83,0-11.14-4.62t-2-12.91l3.79-23.68h16.42l-3.79,23.84a4.7,4.7,0,0,0,.55,3.67,3.76,3.76,0,0,0,3.16,1.22,5.1,5.1,0,0,0,4.11-1.77,9.44,9.44,0,0,0,2-4.7l3.55-22.26h16.43l-6.4,40.26h-16l1-6.63h1.26a18.23,18.23,0,0,1-5.48,5.6A13.48,13.48,0,0,1,536.32,124.06Z" fill="#1c2126"/><path d="M582,97l-5.21-5.61A31.6,31.6,0,0,0,582,85.93a16.73,16.73,0,0,0,2.52-6.16l2.84,4H575.87l2.6-16.34h16.66l-1.82,11.37a29.61,29.61,0,0,1-1.77,6.67,22.52,22.52,0,0,1-3.48,5.8A35.34,35.34,0,0,1,582,97Z" fill="#1c2126"/><path d="M593,123.11l4.58-28.82q.39-2.83.71-5.72t.47-5.72h15.79L614.23,96h-2.76a29.74,29.74,0,0,1,3.79-7.93,14.74,14.74,0,0,1,5.13-4.66A14,14,0,0,1,627,81.9a15.23,15.23,0,0,1,2.33.16c.71.1,1.36.21,1.94.31L629,96.74a14.5,14.5,0,0,0-3.12-1,19.18,19.18,0,0,0-3.36-.24,10.5,10.5,0,0,0-4.54,1,8.83,8.83,0,0,0-3.59,3.27,16,16,0,0,0-2.13,6.24l-2.68,17.13Z" fill="#1c2126"/><path d="M651.26,124.06q-8,0-13.18-3a16.82,16.82,0,0,1-7.42-8.13,21.28,21.28,0,0,1-1.19-11.81A24.26,24.26,0,0,1,633.42,91a20.7,20.7,0,0,1,7.7-6.71,23.21,23.21,0,0,1,10.77-2.41,18.28,18.28,0,0,1,10.42,2.76,15.08,15.08,0,0,1,5.85,7.5,21.1,21.1,0,0,1,.71,10.82l-.48,2.92H642.66l1.1-7.42h13.5l-1.58,1.5q.63-3.87-.55-5.65a4.07,4.07,0,0,0-3.63-1.77,5.1,5.1,0,0,0-3.08.91,6.66,6.66,0,0,0-2,2.44,11.58,11.58,0,0,0-1.11,3.44l-.63,4q-.55,4.11,1.46,6.36t7.62,2.25a18.62,18.62,0,0,0,4.7-.59,26,26,0,0,0,4.93-1.94l3.87,10.66a25.58,25.58,0,0,1-7.42,3A37.29,37.29,0,0,1,651.26,124.06Z" fill="#1c2126"/><path d="M75.43,225l7.26-45.86c.32-1.9.56-3.81.75-5.73s.33-3.83.43-5.72H99.66l-.08,6.47H98.4a13.08,13.08,0,0,1,5-5.37,16.56,16.56,0,0,1,17.37.87,16.19,16.19,0,0,1,5.57,8,24.24,24.24,0,0,1,.59,11.73,26.29,26.29,0,0,1-4,10.89,19,19,0,0,1-7.22,6.48,20.9,20.9,0,0,1-9.48,2.13A15.29,15.29,0,0,1,98.52,207a7.54,7.54,0,0,1-4-5h1l-3.63,23Zm27.63-28.18a6.58,6.58,0,0,0,4.85-1.93c1.29-1.29,2.17-3.39,2.65-6.28.58-3.68.34-6.24-.71-7.66a5.36,5.36,0,0,0-4.58-2.13,6.71,6.71,0,0,0-4.82,1.89c-1.31,1.27-2.21,3.37-2.68,6.32-.58,3.68-.33,6.24.75,7.66A5.37,5.37,0,0,0,103.06,196.83Z" fill="#1c2126"/><path d="M147.35,208.91A15.19,15.19,0,0,1,138,206a15.84,15.84,0,0,1-5.52-8.06,25.07,25.07,0,0,1-.64-11.68,27.47,27.47,0,0,1,4-10.89,18.66,18.66,0,0,1,7.22-6.48,21,21,0,0,1,9.44-2.13,15.4,15.4,0,0,1,7.78,1.93,7.57,7.57,0,0,1,4,5l-.71.47,2-6.47h15.78q-.78,2.84-1.38,5.72c-.39,1.92-.75,3.83-1.06,5.73L174.27,208H158l1-6.47h1.34a13,13,0,0,1-5,5.37A15.14,15.14,0,0,1,147.35,208.91Zm6.16-12.08a6.62,6.62,0,0,0,4.81-1.93c1.32-1.29,2.21-3.39,2.69-6.28.57-3.68.34-6.24-.72-7.66a5.33,5.33,0,0,0-4.57-2.13,6.67,6.67,0,0,0-4.86,1.89c-1.29,1.27-2.17,3.37-2.64,6.32-.58,3.68-.35,6.24.71,7.66A5.34,5.34,0,0,0,153.51,196.83Z" fill="#1c2126"/><path d="M181.85,208l4.58-28.81q.39-2.85.71-5.73c.21-1.92.36-3.83.47-5.72H203.4l-.32,13.18h-2.76a29.74,29.74,0,0,1,3.79-7.93,14.74,14.74,0,0,1,5.13-4.66,14,14,0,0,1,6.63-1.54,15.32,15.32,0,0,1,2.33.16c.71.1,1.36.21,1.94.31l-2.29,14.37a14.5,14.5,0,0,0-3.12-1,19.18,19.18,0,0,0-3.36-.24,10.5,10.5,0,0,0-4.54,1,8.83,8.83,0,0,0-3.59,3.27,16,16,0,0,0-2.13,6.24L198.43,208Z" fill="#1c2126"/><path d="M242,208.91q-9.39,0-13.3-4.62c-2.6-3.08-3.49-7.33-2.64-12.75L228,179.7h-7.42l1.9-12h7.42l1.42-9.08,17-3.79-2,12.87h9.31l-1.89,12h-9.32l-1.81,11.37c-.32,1.94,0,3.23,1,3.86a6.31,6.31,0,0,0,3.48.95,11,11,0,0,0,2.09-.16,17,17,0,0,0,2.09-.55l-2,12.48a16.17,16.17,0,0,1-3.83,1A26.93,26.93,0,0,1,242,208.91Z" fill="#1c2126"/><path d="M299.79,208.91a25.2,25.2,0,0,1-12.47-2.8,15.74,15.74,0,0,1-7.07-7.9,22,22,0,0,1-1-12,23,23,0,0,1,4.42-10.82,21,21,0,0,1,8.6-6.51,29.68,29.68,0,0,1,11.53-2.17q7.57,0,12.47,2.8a15.68,15.68,0,0,1,6.95,7.86,22.34,22.34,0,0,1,.95,12,23.45,23.45,0,0,1-4.38,10.81,20.79,20.79,0,0,1-8.49,6.52A29.44,29.44,0,0,1,299.79,208.91Zm.87-12.08a6.14,6.14,0,0,0,4.62-1.93c1.23-1.29,2.09-3.39,2.56-6.28.58-3.68.37-6.24-.63-7.66a5,5,0,0,0-4.34-2.13,6.22,6.22,0,0,0-4.62,1.89c-1.23,1.27-2.09,3.37-2.56,6.32-.58,3.68-.39,6.24.59,7.66A5,5,0,0,0,300.66,196.83Z" fill="#1c2126"/><path d="M330.66,208l4.5-28.26h-7.42l1.89-12h12.08L336.35,172l.86-5.13q1.35-8.69,6.75-13t15.44-4.3a26.7,26.7,0,0,1,4.14.32,20.17,20.17,0,0,1,3.75.94l-2,12.4a10.8,10.8,0,0,0-2.13-.55,15.23,15.23,0,0,0-2.37-.16,14,14,0,0,0-2.88.35,7.16,7.16,0,0,0-2.92,1.38,4.58,4.58,0,0,0-1.62,3l-.48,2.85-1.81-2.37h11.52l-1.89,12h-9.16L347.08,208Z" fill="#1c2126"/><path d="M383.87,208l4.58-28.81q.39-2.85.71-5.73t.47-5.72h15.79l-.15,6.39h-.87a15.37,15.37,0,0,1,5.84-5.52,16.94,16.94,0,0,1,8-1.82,12.77,12.77,0,0,1,7.27,2,9.24,9.24,0,0,1,3.79,6.36h-1.82A18.31,18.31,0,0,1,434.2,169a17.58,17.58,0,0,1,8.33-2.21q7.34,0,10.26,4.46t1.42,13.94L450.58,208h-16.5l3.63-23.13a7.11,7.11,0,0,0-.23-4.26,2.69,2.69,0,0,0-2.61-1.35,4.87,4.87,0,0,0-4,1.82,11,11,0,0,0-2,5.13L425.4,208H409l3.63-23.13a7.18,7.18,0,0,0-.24-4.26,2.67,2.67,0,0,0-2.6-1.35,4.83,4.83,0,0,0-4,1.82,11.14,11.14,0,0,0-2,5.13L400.29,208Z" fill="#1c2126"/><path d="M455.32,225.88l-2.45-12.63q3.94-.63,6.63-1.34a14.48,14.48,0,0,0,4.54-2,10.92,10.92,0,0,0,3.12-3.44l2.68-4.5-.79,6L457.92,167.7h16.66l5.21,24.08H477l13.42-24.08H507l-24.32,40.42a46.63,46.63,0,0,1-6.2,8.37,28.6,28.6,0,0,1-6.39,5.09,27.13,27.13,0,0,1-6.91,2.76Q459.58,225.26,455.32,225.88Z" fill="#1c2126"/><path d="M542.79,208.91a45.58,45.58,0,0,1-10.18-1,26.76,26.76,0,0,1-7.5-2.76l4.1-10.58A34.79,34.79,0,0,0,536,197a29.29,29.29,0,0,0,7.42,1,8,8,0,0,0,3.67-.63,2.28,2.28,0,0,0,1.3-1.66,1.55,1.55,0,0,0-.43-1.5,3.25,3.25,0,0,0-1.78-.71l-7.81-1.18q-5.61-.87-8-4.11c-1.61-2.15-2.15-4.92-1.62-8.29a13.74,13.74,0,0,1,3.43-7.22,17,17,0,0,1,7-4.46,28.74,28.74,0,0,1,9.51-1.5,41.48,41.48,0,0,1,8.61.87,18.89,18.89,0,0,1,7,2.92l-4.42,10.26a22.36,22.36,0,0,0-5.41-2.25,21.56,21.56,0,0,0-5.8-.9,9.44,9.44,0,0,0-4.18.67,2.35,2.35,0,0,0-1.42,1.69,1.81,1.81,0,0,0,.39,1.35,2.48,2.48,0,0,0,1.74.79l7.81,1.18q5.69.79,8.13,3.91c1.64,2.08,2.16,4.88,1.58,8.41a13.64,13.64,0,0,1-3.51,7.53,16.47,16.47,0,0,1-7.07,4.35A30.34,30.34,0,0,1,542.79,208.91Z" fill="#1c2126"/><path d="M587.87,208.91q-9.39,0-13.3-4.62t-2.65-12.75l1.9-11.84H566.4l1.89-12h7.42l1.42-9.08,17-3.79-2,12.87h9.32l-1.9,12h-9.31l-1.82,11.37c-.31,1.94,0,3.23,1,3.86a6.3,6.3,0,0,0,3.47.95,11,11,0,0,0,2.09-.16,17.07,17.07,0,0,0,2.1-.55l-2,12.48a15.92,15.92,0,0,1-3.83,1A26.78,26.78,0,0,1,587.87,208.91Z" fill="#1c2126"/><path d="M617.16,208.91a15.19,15.19,0,0,1-9.4-2.92,15.84,15.84,0,0,1-5.52-8.06,25.07,25.07,0,0,1-.64-11.68,27.47,27.47,0,0,1,4-10.89,18.66,18.66,0,0,1,7.22-6.48,21,21,0,0,1,9.44-2.13,15.4,15.4,0,0,1,7.78,1.93,7.57,7.57,0,0,1,4,5l-.71.47,2-6.47H651.1q-.78,2.84-1.38,5.72c-.39,1.92-.75,3.83-1.06,5.73L644.08,208H627.82l1-6.47h1.34a13,13,0,0,1-5,5.37A15.14,15.14,0,0,1,617.16,208.91Zm6.16-12.08a6.62,6.62,0,0,0,4.81-1.93c1.32-1.29,2.21-3.39,2.69-6.28.57-3.68.34-6.24-.72-7.66a5.33,5.33,0,0,0-4.57-2.13,6.67,6.67,0,0,0-4.86,1.89c-1.29,1.27-2.17,3.37-2.64,6.32-.58,3.68-.35,6.24.71,7.66A5.34,5.34,0,0,0,623.32,196.83Z" fill="#1c2126"/><path d="M674.55,208.91q-7.65,0-12.71-3a16.78,16.78,0,0,1-7.22-8.09,20.93,20.93,0,0,1-1.15-11.61,23,23,0,0,1,4.46-10.82,21.14,21.14,0,0,1,8.81-6.51,31.85,31.85,0,0,1,12.07-2.17,30.39,30.39,0,0,1,7.35.95,15.91,15.91,0,0,1,6,2.68l-4.66,11.05a11.61,11.61,0,0,0-3.83-1.73,17.06,17.06,0,0,0-4.46-.63,9.55,9.55,0,0,0-5.8,1.81c-1.66,1.21-2.73,3.27-3.2,6.16a9.28,9.28,0,0,0,1.18,6.71c1.21,1.9,3.27,2.84,6.16,2.84a12.87,12.87,0,0,0,4-.71,19.69,19.69,0,0,0,4.18-1.89l4,10.89a18,18,0,0,1-6.32,2.88A32.14,32.14,0,0,1,674.55,208.91Z" fill="#1c2126"/><path d="M692.71,208l9.24-58.1h16.42L713,183.49h.16l13.89-15.79h19.74l-20.13,21.71-.08-5.29,14,23.84H721.45l-9.56-16.26h-.15L709.13,208Z" fill="#1c2126"/><rect y="595" width="1200" height="35" fill="#fff"/><rect y="499.19" width="1200" height="95.81" fill="#fff"/><line y1="499.19" x2="1200" y2="499.19" fill="none" stroke="#1c2126" stroke-miterlimit="10"/><line y1="595" x2="1200" y2="595" fill="none" stroke="#1c2126" stroke-miterlimit="10"/><path d="M24.24,559.45V540.69H17.85v-2.37H33.21v2.37H26.82v18.76Z" fill="#1c2126"/><path d="M44.08,559.89c-4.81,0-7.75-3.45-7.75-9.3v-3.41c0-5.85,2.94-9.3,7.75-9.3s7.74,3.45,7.74,9.3v3.41C51.82,556.44,48.88,559.89,44.08,559.89Zm5.14-9.31v-3.39c0-4.41-1.94-6.87-5.14-6.87s-5.15,2.46-5.15,6.87v3.39c0,4.41,1.94,6.87,5.15,6.87S49.22,555,49.22,550.58Z" fill="#1c2126"/><path d="M60,545.58a2.65,2.65,0,1,1,2.65,2.71A2.7,2.7,0,0,1,60,545.58Zm0,11.25a2.65,2.65,0,1,1,2.65,2.71A2.68,2.68,0,0,1,60,556.83Z" fill="#1c2126"/><line x1="582.03" y1="498.72" x2="582.03" y2="595" fill="none" stroke="#1c2126" stroke-miterlimit="10"/><path d="M1129.73,614.6a4.72,4.72,0,1,1-4.71-4.69A4.43,4.43,0,0,1,1129.73,614.6Zm-6.82,0A2.12,2.12,0,0,0,1125,617c1.3,0,2.1-.94,2.1-2.41s-.8-2.42-2.1-2.42S1122.91,613.12,1122.91,614.6Z" fill="#1c2126"/><path d="M1138.54,612.93H1136c0-.57-.52-1-1.37-1s-1.25.3-1.25.72.19.62,1.2.8l1.2.19c2.3.39,2.91,1.43,2.91,2.79,0,1.74-1.39,2.85-3.92,2.85-2.72,0-4.08-1.3-4.08-3.09h2.48c0,.65.53,1.1,1.7,1.1.88,0,1.33-.3,1.33-.75s-.26-.72-1.3-.9l-1.25-.21c-2.11-.33-2.77-1.39-2.77-2.67,0-1.58,1.3-2.8,3.78-2.8S1138.54,611.24,1138.54,612.93Z" fill="#1c2126"/><path d="M1147.49,612.93H1145c0-.57-.53-1-1.38-1s-1.25.3-1.25.72.2.62,1.2.8l1.21.19c2.3.39,2.91,1.43,2.91,2.79,0,1.74-1.39,2.85-3.92,2.85-2.72,0-4.09-1.3-4.09-3.09h2.49c0,.65.52,1.1,1.69,1.1.88,0,1.33-.3,1.33-.75s-.25-.72-1.3-.9l-1.24-.21c-2.12-.33-2.77-1.39-2.77-2.67,0-1.58,1.29-2.8,3.77-2.8S1147.49,611.24,1147.49,612.93Z" fill="#1c2126"/><path d="M1152,617.64a1.6,1.6,0,1,1-1.6-1.62A1.55,1.55,0,0,1,1152,617.64Z" fill="#1c2126"/><path d="M1156.27,606.34v12.72h-2.5V606.34Z" fill="#1c2126"/><path d="M1167,614.6a4.71,4.71,0,1,1-4.7-4.69A4.42,4.42,0,0,1,1167,614.6Zm-6.81,0a2.12,2.12,0,0,0,2.11,2.41c1.29,0,2.1-.94,2.1-2.41s-.81-2.42-2.1-2.42S1160.16,613.12,1160.16,614.6Z" fill="#1c2126"/><path d="M1176.59,610.12l-3.26,8.94h-3l-3.28-8.94h2.64l2.16,6.32,2.16-6.32Z" fill="#1c2126"/><path d="M1186.06,615.33h-6.61a1.92,1.92,0,0,0,2,1.81,1.82,1.82,0,0,0,1.75-.8h2.66a5,5,0,1,1,.17-1.77Zm-6.58-1.71h3.94a1.87,1.87,0,0,0-2-1.58A2,2,0,0,0,1179.48,613.62Z" fill="#1c2126"/><path d="M605.51,559.45V538.32H618v2.37H608.1v7.25h9v2.3h-9v9.21Z" fill="#1c2126"/><path d="M625.54,551v8.42H623V538.32h7.09c4.19,0,6.81,2.43,6.81,6.35A5.91,5.91,0,0,1,633,550.5l4.3,9h-2.91L630.41,551Zm0-2.18h4.19c2.92,0,4.56-1.48,4.56-4.12s-1.61-4.11-4.44-4.11h-4.31Z" fill="#1c2126"/><path d="M648.15,559.89c-4.81,0-7.75-3.45-7.75-9.3v-3.41c0-5.85,2.94-9.3,7.75-9.3s7.75,3.45,7.75,9.3v3.41C655.9,556.44,653,559.89,648.15,559.89Zm5.14-9.31v-3.39c0-4.41-1.93-6.87-5.14-6.87s-5.14,2.46-5.14,6.87v3.39c0,4.41,1.93,6.87,5.14,6.87S653.29,555,653.29,550.58Z" fill="#1c2126"/><path d="M661.38,559.45h-2.3V538.32H662l4.64,13.12h.19l4.62-13.12h2.9v21.13H672v-8.11l.13-8.56H672l-4.25,11.71h-2l-4.25-11.71h-.19l.14,8.56Z" fill="#1c2126"/><path d="M682.59,545.58a2.65,2.65,0,1,1,2.65,2.71A2.7,2.7,0,0,1,682.59,545.58Zm0,11.25a2.65,2.65,0,1,1,2.65,2.71A2.68,2.68,0,0,1,682.59,556.83Z" fill="#1c2126"/><path d="M27.75,606.92v12.14H25v-2.13l-4.7-5.41v7.54H17.63V606.92H20L25,612.77v-5.85Z" fill="#1c2126"/><path d="M38.37,615.33H31.76a1.92,1.92,0,0,0,2,1.81,1.81,1.81,0,0,0,1.74-.8H38.2a4.35,4.35,0,0,1-4.44,2.88,4.63,4.63,0,1,1,0-9.26,4.32,4.32,0,0,1,4.62,4.61Zm-6.58-1.71h3.94a1.87,1.87,0,0,0-2-1.58A2,2,0,0,0,31.79,613.62Z" fill="#1c2126"/><path d="M44.93,612.23H43v6.83H40.5v-6.83H38.82v-2.11H40.5V607.3H43v2.82h1.93Z" fill="#1c2126"/><path d="M48.9,606.34v12.72H46.4V606.34Z" fill="#1c2126"/><path d="M53.62,607.59a1.5,1.5,0,1,1-3,0,1.5,1.5,0,1,1,3,0Zm-.24,2.32v9.15h-2.5v-9.15a2.06,2.06,0,0,0,1.25.37A2,2,0,0,0,53.38,609.91Z" fill="#1c2126"/><path d="M58.55,609v1.09h1.87v2.11H58.55v6.83h-2.5v-6.83H54.61v-2.11h1.44V609a2.62,2.62,0,0,1,2.88-2.83h1.75v1.94H59.44A.78.78,0,0,0,58.55,609Z" fill="#1c2126"/><path d="M70.71,610.12l-5,11.89H63.33l1.38-3.28-3.49-8.61h2.51L66,615.69l2.32-5.57Z" fill="#1c2126"/><path d="M109.4,613c0,3.92-2.34,6.22-5.8,6.22s-5.79-2.3-5.79-6.22,2.33-6.25,5.79-6.25S109.4,609.08,109.4,613Zm-8.79,0c0,2.35,1.3,3.66,3,3.66s3-1.31,3-3.66-1.32-3.67-3-3.67S100.61,610.63,100.61,613Z" fill="#1c2126"/><path d="M120.32,610.53h-2.8c0-.89-.67-1.52-1.85-1.52s-1.7.55-1.7,1.23.38,1,1.49,1.3l1.37.32c2.64.59,3.73,1.73,3.73,3.73s-1.6,3.63-4.73,3.63-4.9-1.61-4.9-4h2.8a1.88,1.88,0,0,0,2.11,1.84c1.27,0,1.92-.63,1.92-1.44s-.38-1.09-1.57-1.35l-1.32-.27c-2.77-.56-3.72-1.87-3.72-3.73,0-2.06,1.6-3.54,4.58-3.54S120.32,608.29,120.32,610.53Z" fill="#1c2126"/><path d="M131.38,610.53h-2.8c0-.89-.67-1.52-1.86-1.52-1,0-1.69.55-1.69,1.23s.38,1,1.48,1.3l1.38.32c2.64.59,3.73,1.73,3.73,3.73s-1.6,3.63-4.74,3.63-4.9-1.61-4.9-4h2.81a1.88,1.88,0,0,0,2.11,1.84c1.26,0,1.92-.63,1.92-1.44s-.39-1.09-1.57-1.35l-1.33-.27c-2.77-.56-3.71-1.87-3.71-3.73,0-2.06,1.6-3.54,4.58-3.54S131.38,608.29,131.38,610.53Z" fill="#1c2126"/><path d="M91.16,610.11a3.62,3.62,0,0,0-1-1.22,3.91,3.91,0,0,0-2.49-1.14,3.62,3.62,0,0,0-2.51,1.37,8,8,0,0,0-1.41,2.21,6.53,6.53,0,0,0-2.39-2.73,4.09,4.09,0,0,0-3.58-.35,3,3,0,0,0-1.82,3,5,5,0,0,0,2,2.88q3.32,3,6.72,5.87l5-5.64C90.67,613.14,91.8,611.56,91.16,610.11Z" fill="#ff6b60" stroke="#ff6b60" stroke-linejoin="round"/></svg>