<?xml version="1.0" encoding="UTF-8"?><svg xmlns="http://www.w3.org/2000/svg" viewBox="0 0 1200 630"><g id="b"><rect x="-.79" width="1200" height="498.72" fill="#ff6b60" stroke-width="0"/></g><g id="d"><rect x="0" y="595" width="1200" height="35" fill="#fff" stroke-width="0"/><rect x="0" y="499.19" width="1200" height="95.81" fill="#fff" stroke-width="0"/><line x1="0" y1="499.19" x2="1200" y2="499.19" fill="none" stroke="#1c2126" stroke-miterlimit="10"/><line x1="0" y1="595" x2="1200" y2="595" fill="none" stroke="#1c2126" stroke-miterlimit="10"/><path d="M24.24,559.45v-18.76h-6.39v-2.37h15.35v2.37h-6.39v18.76h-2.58Z" fill="#1c2126" stroke-width="0"/><path d="M44.08,559.89c-4.8,0-7.75-3.46-7.75-9.3v-3.41c0-5.84,2.94-9.3,7.75-9.3s7.75,3.46,7.75,9.3v3.41c0,5.84-2.94,9.3-7.75,9.3ZM49.22,550.58v-3.38c0-4.41-1.93-6.87-5.14-6.87s-5.14,2.46-5.14,6.87v3.38c0,4.41,1.93,6.87,5.14,6.87s5.14-2.46,5.14-6.87Z" fill="#1c2126" stroke-width="0"/><path d="M59.97,545.58c0-1.48,1.2-2.71,2.65-2.71s2.65,1.23,2.65,2.71-1.2,2.71-2.65,2.71-2.65-1.23-2.65-2.71ZM59.97,556.83c0-1.48,1.2-2.7,2.65-2.7s2.65,1.21,2.65,2.7-1.2,2.71-2.65,2.71-2.65-1.21-2.65-2.71Z" fill="#1c2126" stroke-width="0"/><line x1="582.03" y1="498.72" x2="582.03" y2="595" fill="none" stroke="#1c2126" stroke-miterlimit="10"/><path d="M605.51,559.45v-21.14h12.47v2.37h-9.87v7.25h9.02v2.3h-9.02v9.21h-2.59Z" fill="#1c2126" stroke-width="0"/><path d="M625.54,551.03v8.42h-2.55v-21.14h7.09c4.19,0,6.81,2.43,6.81,6.36,0,2.77-1.54,5.04-3.94,5.83l4.31,8.95h-2.92l-3.94-8.42h-4.86ZM625.54,548.85h4.19c2.92,0,4.56-1.48,4.56-4.12s-1.61-4.12-4.44-4.12h-4.31v8.23Z" fill="#1c2126" stroke-width="0"/><path d="M648.15,559.89c-4.8,0-7.75-3.46-7.75-9.3v-3.41c0-5.84,2.94-9.3,7.75-9.3s7.75,3.46,7.75,9.3v3.41c0,5.84-2.94,9.3-7.75,9.3ZM653.29,550.58v-3.38c0-4.41-1.93-6.87-5.14-6.87s-5.14,2.46-5.14,6.87v3.38c0,4.41,1.93,6.87,5.14,6.87s5.14-2.46,5.14-6.87Z" fill="#1c2126" stroke-width="0"/><path d="M661.18,559.45h-2.31v-21.14h2.86l4.88,13.08h.19l4.86-13.08h2.86v21.14h-2.31v-8.1l.15-8.57h-.19l-4.45,11.71h-2.02l-4.45-11.71h-.19l.15,8.57v8.1Z" fill="#1c2126" stroke-width="0"/><path d="M682.59,545.58c0-1.48,1.2-2.71,2.65-2.71s2.65,1.23,2.65,2.71-1.2,2.71-2.65,2.71-2.65-1.23-2.65-2.71ZM682.59,556.83c0-1.48,1.2-2.7,2.65-2.7s2.65,1.21,2.65,2.7-1.2,2.71-2.65,2.71-2.65-1.21-2.65-2.71Z" fill="#1c2126" stroke-width="0"/><path d="M12.77,618.4c-.12,0-.21-.04-.26-.11s-.08-.17-.06-.27l2.22-10.42c.02-.12.07-.21.16-.29.08-.07.19-.11.3-.11h6.94c.12,0,.2.04.26.11.05.07.07.17.05.29l-.24,1.12c-.02.12-.07.21-.16.28-.09.07-.19.11-.3.11h-5.14l-.66,3.04h4.82c.12,0,.2.04.26.11.05.07.07.17.05.29l-.22,1.12c-.02.11-.08.2-.17.27-.09.07-.19.11-.31.11h-4.82l-.85,3.97c-.02.11-.08.2-.16.27-.09.07-.19.11-.3.11h-1.41Z" fill="#1c2126" stroke-width="0"/><path d="M25.41,618.56c-.81,0-1.49-.15-2.02-.45s-.92-.72-1.15-1.26c-.23-.54-.29-1.18-.17-1.9.03-.19.08-.43.14-.71s.11-.51.17-.7c.19-.74.49-1.37.89-1.91s.91-.96,1.54-1.26,1.36-.45,2.22-.45,1.49.15,2.02.45.93.72,1.16,1.26c.23.54.29,1.18.18,1.91-.04.19-.09.43-.14.7s-.11.51-.16.71c-.19.72-.48,1.36-.87,1.9-.39.54-.9.96-1.52,1.26s-1.38.45-2.26.45ZM25.57,616.98c.58,0,1.06-.18,1.46-.54s.69-.88.87-1.58c.04-.16.09-.37.14-.62.05-.26.1-.46.13-.62.12-.69.07-1.22-.14-1.58s-.61-.54-1.18-.54-1.05.18-1.46.54-.69.88-.86,1.58c-.04.16-.09.37-.15.62s-.1.46-.12.62c-.12.69-.07,1.22.14,1.58s.6.54,1.18.54Z" fill="#1c2126" stroke-width="0"/><path d="M31.53,618.4c-.11,0-.19-.04-.25-.11-.06-.07-.08-.17-.06-.27l1.6-7.54c.02-.12.08-.21.17-.29.09-.07.19-.11.3-.11h1.3c.11,0,.19.04.25.11s.08.17.06.29l-.14.66c.26-.34.58-.6.98-.78.39-.18.87-.27,1.44-.27h.78c.12,0,.2.04.26.11.05.07.07.16.05.27l-.24,1.15c-.02.11-.08.2-.17.27-.09.07-.19.11-.3.11h-1.25c-.51,0-.94.14-1.29.43-.35.28-.57.68-.68,1.19l-.94,4.4c-.02.11-.07.2-.16.27s-.19.11-.3.11h-1.39Z" fill="#1c2126" stroke-width="0"/><path d="M44.76,618.4c-.73,0-1.29-.11-1.7-.34-.41-.22-.67-.56-.78-1-.12-.44-.11-.99.03-1.66l.78-3.63h-1.26c-.11,0-.19-.04-.25-.11-.06-.07-.08-.17-.06-.29l.19-.91c.02-.11.08-.2.17-.27.09-.07.19-.11.31-.11h1.25l.58-2.65c.02-.11.07-.2.16-.27.08-.07.18-.11.29-.11h1.3c.12,0,.21.04.26.11.06.08.08.17.06.27l-.58,2.65h2c.11,0,.19.04.25.11s.08.16.06.27l-.19.91c-.02.12-.08.21-.17.29-.09.08-.19.11-.3.11h-2l-.74,3.47c-.06.29-.1.54-.1.74,0,.21.05.37.17.48s.33.17.62.17h1.15c.12,0,.2.04.26.11.05.08.07.17.05.27l-.21.99c-.02.11-.07.2-.16.27-.09.07-.19.11-.3.11h-1.14Z" fill="#1c2126" stroke-width="0"/><path d="M48.07,618.4c-.11,0-.19-.04-.25-.11-.06-.07-.08-.17-.06-.27l2.26-10.59c.02-.11.07-.2.16-.27.08-.07.18-.11.29-.11h1.44c.11,0,.19.04.25.11.06.08.08.17.06.27l-.78,3.65c.34-.34.72-.62,1.14-.83.42-.21.93-.32,1.53-.32.69,0,1.26.15,1.7.44.44.29.75.71.92,1.24.17.53.18,1.17.02,1.92l-.96,4.5c-.02.11-.07.2-.16.27s-.19.11-.3.11h-1.44c-.11,0-.19-.04-.25-.11s-.08-.17-.06-.27l.93-4.4c.14-.62.11-1.1-.08-1.46-.19-.35-.58-.53-1.17-.53-.36,0-.71.08-1.03.23-.33.15-.61.38-.84.68-.23.3-.4.66-.5,1.07l-.93,4.4c-.02.11-.07.2-.16.27s-.18.11-.29.11h-1.44Z" fill="#1c2126" stroke-width="0"/><path d="M61.51,618.56c-.78,0-1.43-.15-1.94-.46-.52-.31-.87-.76-1.07-1.35-.2-.59-.23-1.29-.09-2.13.02-.11.05-.24.08-.41.03-.17.06-.3.1-.39.21-.81.54-1.51.99-2.09.45-.58.99-1.03,1.64-1.34s1.36-.47,2.14-.47c.86,0,1.55.18,2.06.54.51.36.84.85,1.01,1.49.17.63.16,1.37,0,2.2l-.08.34c-.02.11-.08.2-.17.27-.09.08-.19.11-.31.11h-5.31c-.01.06-.02.11-.03.13-.05.38-.05.72.02,1.03s.21.57.42.76.51.29.87.29c.3,0,.56-.04.78-.13.22-.09.41-.2.55-.31s.25-.21.33-.29c.13-.13.22-.21.29-.23.06-.03.15-.04.27-.04h1.39c.1,0,.17.03.22.1.05.06.07.14.05.24-.05.17-.19.38-.4.62-.21.24-.5.48-.86.72-.36.24-.79.43-1.29.58s-1.04.23-1.64.23ZM60.82,613.53h3.54l.02-.05c.1-.42.1-.78.02-1.1s-.23-.56-.46-.74c-.22-.18-.52-.26-.9-.26s-.71.09-1.02.26c-.3.18-.56.42-.76.74s-.35.68-.43,1.1l-.02.05Z" fill="#1c2126" stroke-width="0"/><path d="M71.06,618.4c-.11,0-.19-.04-.25-.11-.06-.07-.08-.17-.06-.27l2.26-10.59c.02-.11.07-.2.16-.27.08-.07.18-.11.29-.11h1.33c.12,0,.21.04.26.11.06.08.08.17.06.27l-2.26,10.59c-.02.11-.08.2-.16.27-.09.07-.19.11-.3.11h-1.33Z" fill="#1c2126" stroke-width="0"/><path d="M78.64,618.56c-.81,0-1.49-.15-2.02-.45s-.92-.72-1.15-1.26c-.23-.54-.29-1.18-.17-1.9.03-.19.08-.43.14-.71s.11-.51.17-.7c.19-.74.49-1.37.89-1.91s.91-.96,1.54-1.26,1.36-.45,2.22-.45,1.49.15,2.02.45.93.72,1.16,1.26c.23.54.29,1.18.18,1.91-.04.19-.09.43-.14.7s-.11.51-.16.71c-.19.72-.48,1.36-.87,1.9-.39.54-.9.96-1.52,1.26s-1.38.45-2.26.45ZM78.8,616.98c.58,0,1.06-.18,1.46-.54s.69-.88.87-1.58c.04-.16.09-.37.14-.62.05-.26.1-.46.13-.62.12-.69.07-1.22-.14-1.58s-.61-.54-1.18-.54-1.05.18-1.46.54-.69.88-.86,1.58c-.04.16-.09.37-.15.62s-.1.46-.12.62c-.12.69-.07,1.22.14,1.58s.6.54,1.18.54Z" fill="#1c2126" stroke-width="0"/><path d="M86.92,618.4c-.16,0-.27-.04-.34-.12s-.11-.17-.13-.28l-1.42-7.49c-.02-.14,0-.25.08-.32s.18-.11.3-.11h1.22c.12,0,.21.03.27.1.06.06.11.15.13.27l.91,5.55,3.33-5.62c.03-.06.09-.13.17-.2.08-.07.18-.11.31-.11h1.39c.13,0,.22.05.26.14.05.1.03.21-.06.35l-4.56,7.42c-.07.11-.16.2-.25.28-.09.08-.22.12-.38.12h-1.25Z" fill="#1c2126" stroke-width="0"/><path d="M96.66,618.56c-.78,0-1.43-.15-1.94-.46-.52-.31-.87-.76-1.07-1.35-.2-.59-.23-1.29-.09-2.13.02-.11.05-.24.08-.41.03-.17.06-.3.1-.39.21-.81.54-1.51.99-2.09.45-.58.99-1.03,1.64-1.34s1.36-.47,2.14-.47c.86,0,1.55.18,2.06.54.51.36.84.85,1.01,1.49.17.63.16,1.37,0,2.2l-.08.34c-.02.11-.08.2-.17.27-.09.08-.19.11-.31.11h-5.31c-.01.06-.02.11-.03.13-.05.38-.05.72.02,1.03s.21.57.42.76.51.29.87.29c.3,0,.56-.04.78-.13.22-.09.41-.2.55-.31s.25-.21.33-.29c.13-.13.22-.21.29-.23.06-.03.15-.04.27-.04h1.39c.1,0,.17.03.22.1.05.06.07.14.05.24-.05.17-.19.38-.4.62-.21.24-.5.48-.86.72-.36.24-.79.43-1.29.58s-1.04.23-1.64.23ZM95.97,613.53h3.54l.02-.05c.1-.42.1-.78.02-1.1s-.23-.56-.46-.74c-.22-.18-.52-.26-.9-.26s-.71.09-1.02.26c-.3.18-.56.42-.76.74s-.35.68-.43,1.1l-.02.05Z" fill="#1c2126" stroke-width="0"/><path d="M109.56,618.56c-.81,0-1.49-.15-2.02-.45s-.92-.72-1.15-1.26c-.23-.54-.29-1.18-.17-1.9.03-.19.08-.43.14-.71s.11-.51.17-.7c.19-.74.49-1.37.89-1.91s.91-.96,1.54-1.26,1.36-.45,2.22-.45,1.49.15,2.02.45.93.72,1.16,1.26c.23.54.29,1.18.18,1.91-.04.19-.09.43-.14.7s-.11.51-.16.71c-.19.72-.48,1.36-.87,1.9-.39.54-.9.96-1.52,1.26s-1.38.45-2.26.45ZM109.72,616.98c.58,0,1.06-.18,1.46-.54s.69-.88.87-1.58c.04-.16.09-.37.14-.62.05-.26.1-.46.13-.62.12-.69.07-1.22-.14-1.58s-.61-.54-1.18-.54-1.05.18-1.46.54-.69.88-.86,1.58c-.04.16-.09.37-.15.62s-.1.46-.12.62c-.12.69-.07,1.22.14,1.58s.6.54,1.18.54Z" fill="#1c2126" stroke-width="0"/><path d="M116.42,618.4c-.12,0-.21-.04-.26-.11s-.08-.17-.06-.27l1.33-6.24h-1.3c-.11,0-.19-.04-.25-.11-.06-.07-.08-.17-.06-.29l.19-.91c.02-.11.08-.2.17-.27.09-.07.19-.11.31-.11h1.3l.13-.65c.15-.64.38-1.17.69-1.59.31-.42.7-.74,1.18-.95s1.04-.32,1.68-.32h1.28c.12,0,.2.04.26.11.05.07.07.16.05.27l-.19.91c-.02.12-.08.21-.17.29s-.19.11-.3.11h-.96c-.43,0-.76.11-.99.32-.23.21-.39.52-.46.93l-.13.58h1.98c.12,0,.2.04.26.11s.07.16.05.27l-.19.91c-.02.12-.07.21-.16.29-.09.08-.19.11-.3.11h-1.98l-1.34,6.24c-.02.11-.07.2-.16.27-.09.07-.18.11-.29.11h-1.3Z" fill="#1c2126" stroke-width="0"/><path d="M128.85,618.56c-.81,0-1.49-.15-2.02-.45s-.92-.72-1.15-1.26c-.23-.54-.29-1.18-.17-1.9.03-.19.08-.43.14-.71s.11-.51.17-.7c.19-.74.49-1.37.89-1.91s.91-.96,1.54-1.26,1.36-.45,2.22-.45,1.49.15,2.02.45.93.72,1.16,1.26c.23.54.29,1.18.18,1.91-.04.19-.09.43-.14.7s-.11.51-.16.71c-.19.72-.48,1.36-.87,1.9-.39.54-.9.96-1.52,1.26s-1.38.45-2.26.45ZM129.01,616.98c.58,0,1.06-.18,1.46-.54s.69-.88.87-1.58c.04-.16.09-.37.14-.62.05-.26.1-.46.13-.62.12-.69.07-1.22-.14-1.58s-.61-.54-1.18-.54-1.05.18-1.46.54-.69.88-.86,1.58c-.04.16-.09.37-.15.62s-.1.46-.12.62c-.12.69-.07,1.22.14,1.58s.6.54,1.18.54Z" fill="#1c2126" stroke-width="0"/><path d="M134.32,621.45c-.11,0-.19-.04-.25-.11-.06-.07-.08-.16-.06-.27l2.26-10.59c.02-.11.07-.2.16-.27s.18-.11.29-.11h1.28c.11,0,.19.04.25.11s.08.16.06.27l-.14.64c.33-.34.7-.62,1.1-.85.4-.22.93-.34,1.58-.34.55,0,1.03.09,1.42.28.39.19.7.45.92.79.22.34.37.74.44,1.21.07.46.06.97-.04,1.53-.02.18-.05.35-.09.51-.04.16-.08.34-.14.53-.13.52-.31,1.02-.54,1.48-.23.46-.52.87-.86,1.22-.34.35-.73.62-1.18.81-.45.19-.96.29-1.53.29-.6,0-1.09-.1-1.47-.31-.38-.21-.66-.48-.83-.82l-.78,3.63c-.02.11-.07.2-.16.27-.09.08-.19.11-.3.11h-1.36ZM138.88,616.85c.43,0,.79-.1,1.09-.3.3-.2.55-.46.74-.78.2-.33.35-.68.47-1.05.05-.16.1-.32.13-.48.03-.16.06-.32.08-.48.05-.38.06-.74.02-1.06-.04-.32-.16-.58-.36-.78-.2-.2-.51-.3-.94-.3-.45,0-.83.1-1.16.3-.33.2-.59.46-.8.78s-.35.64-.44.97c-.05.19-.1.39-.14.61-.04.21-.08.42-.11.62-.05.32-.05.63,0,.92.06.29.2.54.43.73s.56.29.98.29Z" fill="#1c2126" stroke-width="0"/><path d="M148.13,618.56c-.78,0-1.43-.15-1.94-.46-.52-.31-.87-.76-1.07-1.35-.2-.59-.23-1.29-.09-2.13.02-.11.05-.24.08-.41.03-.17.06-.3.1-.39.21-.81.54-1.51.99-2.09.45-.58.99-1.03,1.64-1.34s1.36-.47,2.14-.47c.86,0,1.55.18,2.06.54.51.36.84.85,1.01,1.49.17.63.16,1.37,0,2.2l-.08.34c-.02.11-.08.2-.17.27-.09.08-.19.11-.31.11h-5.31c-.01.06-.02.11-.03.13-.05.38-.05.72.02,1.03s.21.57.42.76.51.29.87.29c.3,0,.56-.04.78-.13.22-.09.41-.2.55-.31s.25-.21.33-.29c.13-.13.22-.21.29-.23.06-.03.15-.04.27-.04h1.39c.1,0,.17.03.22.1.05.06.07.14.05.24-.05.17-.19.38-.4.62-.21.24-.5.48-.86.72-.36.24-.79.43-1.29.58s-1.04.23-1.64.23ZM147.44,613.53h3.54l.02-.05c.1-.42.1-.78.02-1.1s-.23-.56-.46-.74c-.22-.18-.52-.26-.9-.26s-.71.09-1.02.26c-.3.18-.56.42-.76.74s-.35.68-.43,1.1l-.02.05Z" fill="#1c2126" stroke-width="0"/><path d="M153.96,618.4c-.11,0-.19-.04-.25-.11-.06-.07-.08-.17-.06-.27l1.6-7.55c.02-.11.08-.2.17-.27.09-.07.19-.11.3-.11h1.31c.11,0,.19.04.24.11.05.07.07.16.05.27l-.14.66c.34-.34.74-.63,1.21-.86.46-.23.99-.35,1.58-.35.73,0,1.31.15,1.74.44s.73.71.87,1.24.14,1.17-.02,1.92l-.96,4.5c-.02.11-.07.2-.16.27s-.19.11-.3.11h-1.41c-.11,0-.19-.04-.25-.11s-.08-.17-.06-.27l.93-4.4c.14-.65.12-1.14-.04-1.48-.17-.34-.56-.5-1.18-.5s-1.12.18-1.54.53c-.42.35-.7.84-.84,1.46l-.93,4.4c-.02.11-.07.2-.16.27s-.18.11-.29.11h-1.41Z" fill="#1c2126" stroke-width="0"/><path d="M170.61,618.56c-.64,0-1.17-.07-1.59-.22-.42-.15-.75-.34-.99-.56-.24-.22-.41-.45-.5-.67-.09-.22-.13-.41-.1-.56.02-.12.08-.21.17-.28.09-.07.18-.11.28-.11h1.26s.08,0,.11.02c.03,0,.06.04.1.1.12.12.24.24.37.37.13.13.29.24.49.33.2.09.46.14.78.14.42,0,.78-.08,1.1-.25.31-.17.5-.4.57-.71.04-.22.02-.4-.08-.54-.1-.14-.29-.27-.59-.38-.3-.11-.74-.23-1.33-.36-.58-.14-1.04-.31-1.38-.53-.35-.21-.58-.48-.7-.8s-.14-.69-.04-1.12c.09-.42.29-.81.62-1.19s.77-.69,1.32-.94c.55-.25,1.19-.37,1.93-.37.58,0,1.06.07,1.46.22.4.14.72.32.96.54.24.21.41.43.5.65.1.22.13.41.1.57-.01.12-.06.21-.15.28-.09.07-.18.11-.28.11h-1.17c-.05,0-.1-.01-.14-.03-.04-.02-.08-.05-.1-.08-.11-.11-.22-.22-.33-.34-.11-.12-.26-.23-.43-.31-.18-.08-.42-.13-.74-.13-.41,0-.73.09-.98.26s-.41.4-.47.66c-.03.18-.01.34.06.47.07.13.25.26.54.38s.73.24,1.31.37c.69.13,1.22.32,1.59.57.37.25.61.54.72.86.11.33.13.69.04,1.08-.1.48-.33.91-.7,1.29-.37.38-.85.69-1.45.9s-1.3.33-2.11.33Z" fill="#1c2126" stroke-width="0"/><path d="M179.52,618.56c-.81,0-1.49-.15-2.02-.45s-.92-.72-1.15-1.26c-.23-.54-.29-1.18-.17-1.9.03-.19.08-.43.14-.71s.11-.51.17-.7c.19-.74.49-1.37.89-1.91s.91-.96,1.54-1.26,1.36-.45,2.22-.45,1.49.15,2.02.45.93.72,1.16,1.26c.23.54.29,1.18.18,1.91-.04.19-.09.43-.14.7s-.11.51-.16.71c-.19.72-.48,1.36-.87,1.9-.39.54-.9.96-1.52,1.26s-1.38.45-2.26.45ZM179.68,616.98c.58,0,1.06-.18,1.46-.54s.69-.88.87-1.58c.04-.16.09-.37.14-.62.05-.26.1-.46.13-.62.12-.69.07-1.22-.14-1.58s-.61-.54-1.18-.54-1.05.18-1.46.54-.69.88-.86,1.58c-.04.16-.09.37-.15.62s-.1.46-.12.62c-.12.69-.07,1.22.14,1.58s.6.54,1.18.54Z" fill="#1c2126" stroke-width="0"/><path d="M188.45,618.56c-.69,0-1.26-.15-1.7-.44s-.73-.71-.87-1.25-.14-1.18,0-1.91l.96-4.5c.02-.11.08-.2.17-.27.09-.07.19-.11.3-.11h1.41c.11,0,.19.04.24.11s.07.16.05.27l-.93,4.4c-.1.44-.13.8-.09,1.1.04.29.16.52.36.66s.52.22.94.22c.58,0,1.08-.18,1.5-.53.43-.35.7-.84.83-1.46l.94-4.4c.02-.11.08-.2.17-.27.09-.07.19-.11.3-.11h1.39c.12,0,.2.04.26.11s.07.16.05.27l-1.6,7.55c-.02.11-.07.2-.16.27s-.19.11-.3.11h-1.3c-.11,0-.19-.04-.25-.11s-.08-.17-.06-.27l.13-.66c-.23.24-.48.46-.72.64-.25.18-.53.32-.85.42-.32.1-.71.14-1.18.14Z" fill="#1c2126" stroke-width="0"/><path d="M195.57,618.4c-.11,0-.19-.04-.25-.11-.06-.07-.08-.17-.06-.27l1.6-7.54c.02-.12.08-.21.17-.29.09-.07.19-.11.3-.11h1.3c.11,0,.19.04.25.11s.08.17.06.29l-.14.66c.26-.34.58-.6.98-.78.39-.18.87-.27,1.44-.27h.78c.12,0,.2.04.26.11.05.07.07.16.05.27l-.24,1.15c-.02.11-.08.2-.17.27-.09.07-.19.11-.3.11h-1.25c-.51,0-.94.14-1.29.43-.35.28-.57.68-.68,1.19l-.94,4.4c-.02.11-.07.2-.16.27s-.19.11-.3.11h-1.39Z" fill="#1c2126" stroke-width="0"/><path d="M205.46,618.56c-.71,0-1.34-.14-1.88-.43s-.94-.71-1.19-1.26c-.26-.55-.31-1.21-.18-1.99.03-.16.07-.37.13-.63.05-.26.1-.48.14-.65.29-1.16.82-2.07,1.6-2.71.78-.64,1.77-.97,2.98-.97.67,0,1.23.1,1.69.29.45.19.81.44,1.07.74s.44.61.54.93c.1.32.14.61.1.86-.01.12-.06.21-.14.28-.08.07-.17.1-.28.1h-1.46c-.11,0-.19-.03-.25-.08-.06-.05-.09-.13-.1-.24,0-.43-.11-.74-.34-.93s-.56-.29-.98-.29c-.52,0-.99.17-1.4.51-.41.34-.71.87-.89,1.59-.04.19-.09.39-.13.59s-.08.38-.11.53c-.12.74-.06,1.27.16,1.6.22.33.6.5,1.12.5.42,0,.79-.09,1.12-.26s.61-.48.83-.9c.06-.12.13-.2.2-.25.07-.05.16-.07.26-.07h1.44c.11,0,.19.04.25.11.06.07.07.16.04.28-.07.23-.21.51-.41.82s-.47.62-.81.92c-.34.3-.77.54-1.29.74-.52.19-1.13.29-1.85.29Z" fill="#1c2126" stroke-width="0"/><path d="M214.69,618.56c-.78,0-1.43-.15-1.94-.46-.52-.31-.87-.76-1.07-1.35-.2-.59-.23-1.29-.09-2.13.02-.11.05-.24.08-.41.03-.17.06-.3.1-.39.21-.81.54-1.51.99-2.09.45-.58.99-1.03,1.64-1.34s1.36-.47,2.14-.47c.86,0,1.55.18,2.06.54.51.36.84.85,1.01,1.49.17.63.16,1.37,0,2.2l-.08.34c-.02.11-.08.2-.17.27-.09.08-.19.11-.31.11h-5.31c-.01.06-.02.11-.03.13-.05.38-.05.72.02,1.03s.21.57.42.76.51.29.87.29c.3,0,.56-.04.78-.13.22-.09.41-.2.55-.31s.25-.21.33-.29c.13-.13.22-.21.29-.23.06-.03.15-.04.27-.04h1.39c.1,0,.17.03.22.1.05.06.07.14.05.24-.05.17-.19.38-.4.62-.21.24-.5.48-.86.72-.36.24-.79.43-1.29.58s-1.04.23-1.64.23ZM214,613.53h3.54l.02-.05c.1-.42.1-.78.02-1.1s-.23-.56-.46-.74c-.22-.18-.52-.26-.9-.26s-.71.09-1.02.26c-.3.18-.56.42-.76.74s-.35.68-.43,1.1l-.02.05Z" fill="#1c2126" stroke-width="0"/><path d="M227.19,618.56c-.64,0-1.17-.07-1.59-.22-.42-.15-.75-.34-.99-.56-.24-.22-.41-.45-.5-.67-.09-.22-.13-.41-.1-.56.02-.12.08-.21.17-.28.09-.07.18-.11.28-.11h1.26s.08,0,.11.02c.03,0,.06.04.1.1.12.12.24.24.37.37.13.13.29.24.49.33.2.09.46.14.78.14.42,0,.78-.08,1.1-.25.31-.17.5-.4.57-.71.04-.22.02-.4-.08-.54-.1-.14-.29-.27-.59-.38-.3-.11-.74-.23-1.33-.36-.58-.14-1.04-.31-1.38-.53-.35-.21-.58-.48-.7-.8s-.14-.69-.04-1.12c.09-.42.29-.81.62-1.19s.77-.69,1.32-.94c.55-.25,1.19-.37,1.93-.37.58,0,1.06.07,1.46.22.4.14.72.32.96.54.24.21.41.43.5.65.1.22.13.41.1.57-.01.12-.06.21-.15.28-.09.07-.18.11-.28.11h-1.17c-.05,0-.1-.01-.14-.03-.04-.02-.08-.05-.1-.08-.11-.11-.22-.22-.33-.34-.11-.12-.26-.23-.43-.31-.18-.08-.42-.13-.74-.13-.41,0-.73.09-.98.26s-.41.4-.47.66c-.03.18-.01.34.06.47.07.13.25.26.54.38s.73.24,1.31.37c.69.13,1.22.32,1.59.57.37.25.61.54.72.86.11.33.13.69.04,1.08-.1.48-.33.91-.7,1.29-.37.38-.85.69-1.45.9s-1.3.33-2.11.33Z" fill="#1c2126" stroke-width="0"/><path d="M236.1,618.56c-.81,0-1.49-.15-2.02-.45s-.92-.72-1.15-1.26c-.23-.54-.29-1.18-.17-1.9.03-.19.08-.43.14-.71s.11-.51.17-.7c.19-.74.49-1.37.89-1.91s.91-.96,1.54-1.26,1.36-.45,2.22-.45,1.49.15,2.02.45.93.72,1.16,1.26c.23.54.29,1.18.18,1.91-.04.19-.09.43-.14.7s-.11.51-.16.71c-.19.72-.48,1.36-.87,1.9-.39.54-.9.96-1.52,1.26s-1.38.45-2.26.45ZM236.26,616.98c.58,0,1.06-.18,1.46-.54s.69-.88.87-1.58c.04-.16.09-.37.14-.62.05-.26.1-.46.13-.62.12-.69.07-1.22-.14-1.58s-.61-.54-1.18-.54-1.05.18-1.46.54-.69.88-.86,1.58c-.04.16-.09.37-.15.62s-.1.46-.12.62c-.12.69-.07,1.22.14,1.58s.6.54,1.18.54Z" fill="#1c2126" stroke-width="0"/><path d="M242.96,618.4c-.12,0-.21-.04-.26-.11s-.08-.17-.06-.27l1.33-6.24h-1.3c-.11,0-.19-.04-.25-.11-.06-.07-.08-.17-.06-.29l.19-.91c.02-.11.08-.2.17-.27.09-.07.19-.11.31-.11h1.3l.13-.65c.15-.64.38-1.17.69-1.59.31-.42.7-.74,1.18-.95s1.04-.32,1.68-.32h1.28c.12,0,.2.04.26.11.05.07.07.16.05.27l-.19.91c-.02.12-.08.21-.17.29s-.19.11-.3.11h-.96c-.43,0-.76.11-.99.32-.23.21-.39.52-.46.93l-.13.58h1.98c.12,0,.2.04.26.11s.07.16.05.27l-.19.91c-.02.12-.07.21-.16.29-.09.08-.19.11-.3.11h-1.98l-1.34,6.24c-.02.11-.07.2-.16.27-.09.07-.18.11-.29.11h-1.3Z" fill="#1c2126" stroke-width="0"/><path d="M252.11,618.4c-.73,0-1.29-.11-1.7-.34-.41-.22-.67-.56-.78-1-.12-.44-.11-.99.03-1.66l.78-3.63h-1.26c-.11,0-.19-.04-.25-.11-.06-.07-.08-.17-.06-.29l.19-.91c.02-.11.08-.2.17-.27.09-.07.19-.11.31-.11h1.25l.58-2.65c.02-.11.07-.2.16-.27.08-.07.18-.11.29-.11h1.3c.12,0,.21.04.26.11.06.08.08.17.06.27l-.58,2.65h2c.11,0,.19.04.25.11s.08.16.06.27l-.19.91c-.02.12-.08.21-.17.29-.09.08-.19.11-.3.11h-2l-.74,3.47c-.06.29-.1.54-.1.74,0,.21.05.37.17.48s.33.17.62.17h1.15c.12,0,.2.04.26.11.05.08.07.17.05.27l-.21.99c-.02.11-.07.2-.16.27-.09.07-.19.11-.3.11h-1.14Z" fill="#1c2126" stroke-width="0"/><path d="M257.27,618.4c-.15,0-.26-.04-.32-.11-.06-.07-.1-.17-.11-.29l-.72-7.49c-.01-.12.02-.22.1-.3s.18-.13.32-.13h1.12c.13,0,.22.03.28.09.06.06.09.13.1.22l.46,5.3,2.75-5.25c.04-.08.11-.15.19-.23s.2-.12.34-.12h.83c.15,0,.25.04.3.12.05.08.09.16.1.23l.58,5.25,2.69-5.3c.03-.06.09-.13.16-.2.07-.07.18-.11.3-.11h1.3c.15,0,.24.05.26.14.03.1.01.2-.04.32l-3.86,7.46c-.06.12-.14.21-.23.29s-.21.11-.36.11h-1.06c-.15,0-.26-.04-.33-.11-.07-.07-.12-.17-.14-.29l-.66-5.05-2.72,5.05c-.06.12-.14.21-.24.29-.1.07-.22.11-.37.11h-1.04Z" fill="#1c2126" stroke-width="0"/><path d="M271.09,618.56c-.55,0-1.02-.09-1.41-.28-.38-.19-.69-.45-.9-.79-.22-.34-.36-.74-.42-1.21-.06-.46-.05-.97.03-1.53.04-.19.08-.37.11-.52.03-.15.07-.33.11-.52.14-.53.32-1.03.55-1.49s.51-.86.85-1.21c.34-.35.73-.62,1.18-.81.45-.19.97-.29,1.56-.29.66,0,1.17.11,1.51.31.35.21.62.46.81.76l.11-.53c.02-.11.07-.2.16-.27s.18-.11.29-.11h1.26c.11,0,.19.04.26.11s.08.16.06.27l-1.62,7.55c-.02.11-.07.2-.16.27-.09.07-.18.11-.29.11h-1.26c-.12,0-.21-.04-.26-.11-.06-.07-.08-.17-.06-.27l.13-.59c-.32.33-.67.6-1.06.81-.38.21-.9.32-1.55.32ZM271.81,616.85c.45,0,.83-.1,1.15-.3.32-.2.58-.46.78-.78.2-.31.34-.64.42-.97.05-.19.1-.4.14-.62s.08-.42.11-.62c.06-.32.07-.63.02-.92s-.19-.54-.41-.73c-.22-.19-.55-.29-.98-.29s-.77.1-1.06.3-.54.46-.73.78c-.19.32-.35.67-.46,1.06-.04.16-.08.32-.11.48-.03.16-.06.32-.08.48-.05.38-.07.74-.04,1.06.03.32.14.58.34.78s.5.3.92.3Z" fill="#1c2126" stroke-width="0"/><path d="M278.05,618.4c-.11,0-.19-.04-.25-.11-.06-.07-.08-.17-.06-.27l1.6-7.54c.02-.12.08-.21.17-.29.09-.07.19-.11.3-.11h1.3c.11,0,.19.04.25.11s.08.17.06.29l-.14.66c.26-.34.58-.6.98-.78.39-.18.87-.27,1.44-.27h.78c.12,0,.2.04.26.11.05.07.07.16.05.27l-.24,1.15c-.02.11-.08.2-.17.27-.09.07-.19.11-.3.11h-1.25c-.51,0-.94.14-1.29.43-.35.28-.57.68-.68,1.19l-.94,4.4c-.02.11-.07.2-.16.27s-.19.11-.3.11h-1.39Z" fill="#1c2126" stroke-width="0"/><path d="M288.05,618.56c-.78,0-1.43-.15-1.94-.46-.52-.31-.87-.76-1.07-1.35-.2-.59-.23-1.29-.09-2.13.02-.11.05-.24.08-.41.03-.17.06-.3.1-.39.21-.81.54-1.51.99-2.09.45-.58.99-1.03,1.64-1.34s1.36-.47,2.14-.47c.86,0,1.55.18,2.06.54.51.36.84.85,1.01,1.49.17.63.16,1.37,0,2.2l-.08.34c-.02.11-.08.2-.17.27-.09.08-.19.11-.31.11h-5.31c-.01.06-.02.11-.03.13-.05.38-.05.72.02,1.03s.21.57.42.76.51.29.87.29c.3,0,.56-.04.78-.13.22-.09.41-.2.55-.31s.25-.21.33-.29c.13-.13.22-.21.29-.23.06-.03.15-.04.27-.04h1.39c.1,0,.17.03.22.1.05.06.07.14.05.24-.05.17-.19.38-.4.62-.21.24-.5.48-.86.72-.36.24-.79.43-1.29.58s-1.04.23-1.64.23ZM287.36,613.53h3.54l.02-.05c.1-.42.1-.78.02-1.1s-.23-.56-.46-.74c-.22-.18-.52-.26-.9-.26s-.71.09-1.02.26c-.3.18-.56.42-.76.74s-.35.68-.43,1.1l-.02.05Z" fill="#1c2126" stroke-width="0"/><path d="M1125.56,618.56c-.88,0-1.63-.15-2.22-.44s-1.05-.71-1.37-1.26c-.31-.54-.49-1.18-.52-1.9-.01-.21-.02-.46-.02-.73s0-.51.02-.71c.03-.74.21-1.37.54-1.91.33-.54.79-.96,1.39-1.25s1.32-.44,2.18-.44,1.56.15,2.16.44,1.06.71,1.39,1.25c.33.54.52,1.18.56,1.91.01.2.02.44.02.71s0,.52-.02.73c-.04.72-.22,1.36-.54,1.9-.31.54-.77.96-1.37,1.26s-1.33.44-2.21.44ZM1125.56,616.79c.52,0,.92-.16,1.18-.48.26-.32.41-.79.44-1.42.01-.16.02-.37.02-.64s0-.48-.02-.64c-.03-.62-.18-1.09-.44-1.42-.26-.33-.65-.49-1.18-.49s-.92.16-1.18.49c-.27.32-.42.8-.45,1.42-.01.16-.02.37-.02.64s0,.48.02.64c.03.63.18,1.1.45,1.42s.66.48,1.18.48Z" fill="#1c2126" stroke-width="0"/><path d="M1134.64,618.56c-.66,0-1.23-.08-1.7-.23s-.86-.34-1.15-.57c-.29-.22-.51-.45-.66-.68-.14-.23-.22-.42-.23-.58-.01-.12.03-.21.11-.29.09-.07.17-.11.26-.11h1.55s.08,0,.1.02c.03,0,.06.04.1.08.14.1.28.21.42.33.14.12.32.23.52.31.2.09.45.13.74.13.35,0,.65-.07.89-.22.24-.14.36-.35.36-.62,0-.19-.05-.35-.16-.48-.11-.13-.31-.24-.62-.35s-.77-.22-1.38-.35c-.58-.13-1.07-.3-1.47-.51-.41-.21-.71-.48-.91-.81-.2-.33-.3-.72-.3-1.18,0-.42.13-.82.39-1.2.26-.38.65-.7,1.16-.95s1.15-.38,1.92-.38c.59,0,1.1.07,1.54.22s.81.33,1.11.54.53.44.68.67c.15.23.24.43.25.6.01.12-.02.21-.1.29-.08.08-.16.11-.26.11h-1.42c-.05,0-.1-.01-.14-.03s-.08-.05-.11-.08c-.13-.07-.26-.17-.39-.29-.13-.12-.29-.22-.47-.3-.18-.08-.42-.13-.7-.13-.34,0-.61.08-.79.23-.19.16-.28.35-.28.58,0,.15.05.29.14.42.1.13.29.25.58.35.29.11.75.22,1.37.34.73.13,1.3.32,1.73.58s.73.55.91.89c.18.34.27.7.27,1.08,0,.5-.15.95-.44,1.34-.29.39-.73.69-1.3.91-.58.22-1.28.33-2.11.33Z" fill="#1c2126" stroke-width="0"/><path d="M1143.33,618.56c-.66,0-1.23-.08-1.7-.23s-.86-.34-1.15-.57c-.29-.22-.51-.45-.66-.68-.14-.23-.22-.42-.23-.58-.01-.12.03-.21.11-.29.09-.07.17-.11.26-.11h1.55s.08,0,.1.02c.03,0,.06.04.1.08.14.1.28.21.42.33.14.12.32.23.52.31.2.09.45.13.74.13.35,0,.65-.07.89-.22.24-.14.36-.35.36-.62,0-.19-.05-.35-.16-.48-.11-.13-.31-.24-.62-.35s-.77-.22-1.38-.35c-.58-.13-1.07-.3-1.47-.51-.41-.21-.71-.48-.91-.81-.2-.33-.3-.72-.3-1.18,0-.42.13-.82.39-1.2.26-.38.65-.7,1.16-.95s1.15-.38,1.92-.38c.59,0,1.1.07,1.54.22s.81.33,1.11.54.53.44.68.67c.15.23.24.43.25.6.01.12-.02.21-.1.29-.08.08-.16.11-.26.11h-1.42c-.05,0-.1-.01-.14-.03s-.08-.05-.11-.08c-.13-.07-.26-.17-.39-.29-.13-.12-.29-.22-.47-.3-.18-.08-.42-.13-.7-.13-.34,0-.61.08-.79.23-.19.16-.28.35-.28.58,0,.15.05.29.14.42.1.13.29.25.58.35.29.11.75.22,1.37.34.73.13,1.3.32,1.73.58s.73.55.91.89c.18.34.27.7.27,1.08,0,.5-.15.95-.44,1.34-.29.39-.73.69-1.3.91-.58.22-1.28.33-2.11.33Z" fill="#1c2126" stroke-width="0"/><path d="M1149.04,618.4c-.12,0-.21-.04-.29-.11-.07-.07-.11-.17-.11-.29v-1.81c0-.11.04-.2.11-.28.08-.08.17-.12.29-.12h1.81c.11,0,.2.04.28.12s.12.17.12.28v1.81c0,.12-.04.21-.12.29s-.17.11-.28.11h-1.81Z" fill="#1c2126" stroke-width="0"/><path d="M1153.56,618.4c-.12,0-.21-.04-.29-.11s-.11-.17-.11-.29v-10.56c0-.12.04-.21.11-.29.07-.07.17-.11.29-.11h1.6c.12,0,.21.04.29.11.08.08.11.17.11.29v10.56c0,.12-.04.21-.11.29-.07.07-.17.11-.29.11h-1.6Z" fill="#1c2126" stroke-width="0"/><path d="M1161.38,618.56c-.88,0-1.63-.15-2.22-.44s-1.05-.71-1.37-1.26c-.31-.54-.49-1.18-.52-1.9-.01-.21-.02-.46-.02-.73s0-.51.02-.71c.03-.74.21-1.37.54-1.91.33-.54.79-.96,1.39-1.25s1.32-.44,2.18-.44,1.56.15,2.16.44,1.06.71,1.39,1.25c.33.54.52,1.18.56,1.91.01.2.02.44.02.71s0,.52-.02.73c-.04.72-.22,1.36-.54,1.9-.31.54-.77.96-1.37,1.26s-1.33.44-2.21.44ZM1161.38,616.79c.52,0,.92-.16,1.18-.48.26-.32.41-.79.44-1.42.01-.16.02-.37.02-.64s0-.48-.02-.64c-.03-.62-.18-1.09-.44-1.42-.26-.33-.65-.49-1.18-.49s-.92.16-1.18.49c-.27.32-.42.8-.45,1.42-.01.16-.02.37-.02.64s0,.48.02.64c.03.63.18,1.1.45,1.42s.66.48,1.18.48Z" fill="#1c2126" stroke-width="0"/><path d="M1169.81,618.4c-.16,0-.28-.04-.36-.12-.08-.08-.15-.17-.2-.28l-3.01-7.42s-.03-.09-.03-.14c0-.1.03-.18.1-.25.07-.07.15-.11.25-.11h1.55c.14,0,.24.04.31.11s.11.14.14.21l1.97,5.26,1.97-5.26c.03-.06.08-.13.14-.21.06-.07.17-.11.3-.11h1.55c.1,0,.18.04.25.11s.1.15.1.25c0,.05,0,.1-.02.14l-3.01,7.42c-.04.11-.11.2-.19.28-.09.08-.21.12-.38.12h-1.44Z" fill="#1c2126" stroke-width="0"/><path d="M1179.6,618.56c-1.23,0-2.2-.34-2.92-1.02-.72-.68-1.1-1.67-1.14-2.98v-.67c.04-.83.23-1.54.56-2.14.33-.59.79-1.04,1.39-1.36.6-.31,1.3-.47,2.1-.47.91,0,1.66.19,2.26.55.6.37,1.05.87,1.35,1.5.3.63.46,1.36.46,2.18v.37c0,.11-.04.2-.11.28-.07.08-.17.12-.29.12h-5.22v.11c.01.34.08.65.19.94.12.28.29.51.52.68.23.17.51.26.84.26.26,0,.47-.04.64-.12s.31-.17.42-.27.19-.19.25-.26c.1-.12.17-.19.23-.22s.15-.04.26-.04h1.7c.1,0,.18.03.25.1.07.06.1.14.09.24-.01.18-.1.4-.26.65-.17.25-.41.5-.73.74s-.72.44-1.19.6-1.02.24-1.64.24ZM1178.04,613.46h3.12v-.05c0-.37-.06-.7-.18-.98-.12-.28-.3-.51-.54-.66-.23-.16-.52-.24-.85-.24s-.61.08-.84.24c-.23.16-.41.38-.53.66-.12.28-.18.61-.18.98v.05Z" fill="#1c2126" stroke-width="0"/><polygon points="1104.46 614.96 1098.89 611.74 1093.31 614.96 1104.46 621.39 1115.62 614.96 1110.04 611.74 1104.46 614.96" fill="#b7303d" stroke="#1c2126" stroke-linejoin="round" stroke-width=".33"/><polygon points="1098.89 605.3 1098.89 611.74 1093.31 614.96 1093.31 608.52 1098.89 605.3" fill="#ea4f4b" stroke="#1c2126" stroke-linejoin="round" stroke-width=".33"/><polygon points="1098.89 605.3 1098.89 611.74 1104.46 614.96 1104.46 608.52 1098.89 605.3" fill="#ff6b60" stroke="#1c2126" stroke-linejoin="round" stroke-width=".33"/><polygon points="1110.04 605.3 1110.04 611.74 1104.46 614.96 1104.46 608.52 1110.04 605.3" fill="#ea4f4b" stroke="#1c2126" stroke-linejoin="round" stroke-width=".33"/><polygon points="1110.04 605.3 1110.04 611.74 1115.61 614.96 1115.62 608.52 1110.04 605.3" fill="#ff6b60" stroke="#1c2126" stroke-linejoin="round" stroke-width=".33"/><path d="M73.47,436.65l8.39-52.84h25.78c6.6,0,11.35,1.69,14.28,5.06,2.92,3.37,3.96,7.81,3.11,13.3-.45,2.95-1.52,5.61-3.22,7.98-1.7,2.37-4.04,4.25-7.01,5.62-2.97,1.37-6.66,2.06-11.05,2.06h-11.09l-3,18.81h-16.19ZM94.61,405.54h8.92c2,0,3.49-.39,4.46-1.16.97-.77,1.56-1.86,1.76-3.26.25-1.6-.01-2.83-.79-3.71-.77-.87-2.21-1.31-4.31-1.31h-8.54l-1.5,9.44Z" fill="#fff" stroke-width="0"/><path d="M139.72,437.55c-3.5,0-6.47-.92-8.92-2.77-2.45-1.85-4.2-4.4-5.25-7.64-1.05-3.25-1.25-6.94-.6-11.09.7-4.15,1.97-7.59,3.82-10.34,1.85-2.75,4.13-4.8,6.86-6.15,2.72-1.35,5.71-2.02,8.96-2.02,2.8,0,5.26.61,7.38,1.84,2.12,1.23,3.38,2.81,3.79,4.76l-.67.45,1.87-6.15h14.99c-.5,1.8-.94,3.61-1.31,5.43-.37,1.82-.71,3.63-1.01,5.43l-4.35,27.36h-15.44l.97-6.15h1.27c-1.05,2.1-2.64,3.8-4.76,5.1-2.12,1.3-4.66,1.95-7.61,1.95ZM145.57,426.08c1.8,0,3.32-.61,4.57-1.84,1.25-1.22,2.1-3.21,2.55-5.96.55-3.5.32-5.92-.67-7.27-1-1.35-2.45-2.02-4.35-2.02s-3.39.6-4.61,1.8c-1.22,1.2-2.06,3.2-2.51,6-.55,3.5-.33,5.92.67,7.27,1,1.35,2.45,2.02,4.35,2.02Z" fill="#fff" stroke-width="0"/><path d="M188.66,437.55c-3.6,0-6.82-.33-9.67-.97-2.85-.65-5.22-1.52-7.12-2.62l3.9-10.04c1.9.95,4.05,1.74,6.45,2.36,2.4.62,4.75.94,7.04.94,1.6,0,2.76-.2,3.49-.6.72-.4,1.14-.92,1.24-1.57.1-.6-.04-1.07-.41-1.42-.38-.35-.94-.57-1.69-.67l-7.42-1.12c-3.55-.55-6.08-1.85-7.61-3.9-1.52-2.05-2.04-4.67-1.54-7.87.45-2.7,1.54-4.98,3.26-6.86,1.72-1.87,3.95-3.28,6.67-4.23,2.72-.95,5.73-1.42,9.03-1.42,2.85,0,5.57.28,8.17.82,2.6.55,4.82,1.47,6.67,2.77l-4.2,9.74c-1.4-.85-3.11-1.56-5.13-2.14-2.02-.57-3.86-.86-5.51-.86-1.85,0-3.17.21-3.97.64-.8.43-1.25.96-1.35,1.61-.05.45.08.88.38,1.27.3.4.85.65,1.65.75l7.42,1.12c3.6.5,6.17,1.74,7.72,3.71,1.55,1.97,2.05,4.64,1.5,7.98-.45,2.9-1.56,5.28-3.34,7.16s-4.01,3.25-6.71,4.12c-2.7.87-5.67,1.31-8.92,1.31Z" fill="#fff" stroke-width="0"/><path d="M226.81,437.55c-3.6,0-6.82-.33-9.67-.97-2.85-.65-5.22-1.52-7.12-2.62l3.9-10.04c1.9.95,4.05,1.74,6.45,2.36,2.4.62,4.75.94,7.04.94,1.6,0,2.76-.2,3.48-.6.72-.4,1.14-.92,1.24-1.57.1-.6-.04-1.07-.41-1.42-.37-.35-.94-.57-1.69-.67l-7.42-1.12c-3.55-.55-6.08-1.85-7.61-3.9-1.52-2.05-2.04-4.67-1.54-7.87.45-2.7,1.54-4.98,3.26-6.86,1.72-1.87,3.95-3.28,6.67-4.23,2.72-.95,5.73-1.42,9.03-1.42,2.85,0,5.57.28,8.17.82,2.6.55,4.82,1.47,6.67,2.77l-4.2,9.74c-1.4-.85-3.11-1.56-5.13-2.14-2.02-.57-3.86-.86-5.51-.86-1.85,0-3.17.21-3.97.64-.8.43-1.25.96-1.35,1.61-.05.45.07.88.37,1.27.3.4.85.65,1.65.75l7.42,1.12c3.6.5,6.17,1.74,7.72,3.71,1.55,1.97,2.05,4.64,1.5,7.98-.45,2.9-1.56,5.28-3.33,7.16-1.77,1.87-4.01,3.25-6.71,4.12-2.7.87-5.67,1.31-8.92,1.31Z" fill="#fff" stroke-width="0"/><path d="M248.77,436.65l6.07-38.22h15.59l-6.07,38.22h-15.59ZM255.29,394.08l2.17-13.64h16.04l-2.17,13.64h-16.04Z" fill="#fff" stroke-width="0"/><path d="M271.55,436.65l4.35-27.36c.25-1.8.47-3.61.67-5.43.2-1.82.35-3.63.45-5.43h14.99l-.15,6.07-.82.08c1.5-2.35,3.41-4.11,5.73-5.28s4.86-1.76,7.61-1.76c4.45,0,7.67,1.4,9.67,4.2,2,2.8,2.52,7.17,1.57,13.12l-3.45,21.81h-15.59l3.45-21.96c.3-1.9.12-3.26-.52-4.08-.65-.82-1.55-1.24-2.7-1.24-1.7,0-3.1.55-4.2,1.65-1.1,1.1-1.8,2.55-2.1,4.35l-3.37,21.29h-15.59Z" fill="#fff" stroke-width="0"/><path d="M336.83,453.44c-3.95,0-7.36-.33-10.23-.97-2.87-.65-5.43-1.6-7.68-2.85l3.75-11.09c1.1.7,2.42,1.31,3.97,1.84,1.55.52,3.16.94,4.83,1.24,1.67.3,3.23.45,4.68.45,3.35,0,5.78-.66,7.31-1.99,1.52-1.32,2.49-3.21,2.89-5.66l.82-5.32h.67c-.85,1.85-2.32,3.4-4.42,4.65-2.1,1.25-4.62,1.87-7.57,1.87-3.35,0-6.28-.79-8.81-2.36-2.52-1.57-4.36-3.88-5.51-6.93-1.15-3.05-1.35-6.77-.6-11.17.65-3.85,1.87-7.08,3.67-9.71s4.06-4.6,6.78-5.92c2.72-1.32,5.76-1.99,9.11-1.99,2.8,0,5.26.6,7.38,1.8,2.12,1.2,3.38,2.75,3.79,4.65h-.52l1.72-5.55h14.99c-.5,1.8-.95,3.61-1.35,5.43-.4,1.82-.73,3.63-.97,5.43l-3.75,23.38c-1.05,6.64-3.66,11.77-7.83,15.36-4.17,3.6-9.88,5.4-17.12,5.4ZM341.78,424.21c1.9,0,3.47-.62,4.72-1.87,1.25-1.25,2.05-3.07,2.4-5.47.4-2.65.11-4.62-.86-5.92-.97-1.3-2.41-1.95-4.31-1.95s-3.54.62-4.76,1.87c-1.23,1.25-2.04,3.1-2.44,5.55-.4,2.6-.11,4.55.86,5.85.97,1.3,2.44,1.95,4.38,1.95Z" fill="#fff" stroke-width="0"/><path d="M407.2,437.55c-3.5,0-6.47-.92-8.92-2.77-2.45-1.85-4.2-4.4-5.25-7.64-1.05-3.25-1.25-6.94-.6-11.09.7-4.15,1.97-7.59,3.82-10.34,1.85-2.75,4.13-4.8,6.86-6.15,2.72-1.35,5.71-2.02,8.96-2.02,2.8,0,5.26.61,7.38,1.84,2.12,1.23,3.38,2.81,3.79,4.76l-.67.45,1.87-6.15h14.99c-.5,1.8-.94,3.61-1.31,5.43-.37,1.82-.71,3.63-1.01,5.43l-4.35,27.36h-15.44l.97-6.15h1.27c-1.05,2.1-2.64,3.8-4.76,5.1-2.12,1.3-4.66,1.95-7.61,1.95ZM413.05,426.08c1.8,0,3.32-.61,4.57-1.84,1.25-1.22,2.1-3.21,2.55-5.96.55-3.5.32-5.92-.67-7.27-1-1.35-2.45-2.02-4.35-2.02s-3.39.6-4.61,1.8c-1.22,1.2-2.06,3.2-2.51,6-.55,3.5-.33,5.92.67,7.27,1,1.35,2.45,2.02,4.35,2.02Z" fill="#fff" stroke-width="0"/><path d="M439.95,436.65l8.77-55.16h15.59l-8.77,55.16h-15.59Z" fill="#fff" stroke-width="0"/><path d="M462.66,436.65l8.77-55.16h15.59l-8.77,55.16h-15.59Z" fill="#fff" stroke-width="0"/><path d="M528.91,437.55c-5.95,0-10.16-1.46-12.63-4.38s-3.31-6.96-2.51-12.1l1.8-11.24h-7.04l1.8-11.39h7.04l1.35-8.62,16.19-3.6-1.95,12.22h8.84l-1.8,11.39h-8.84l-1.72,10.79c-.3,1.85.02,3.07.97,3.67s2.05.9,3.3.9c.8,0,1.46-.05,1.99-.15.52-.1,1.19-.27,1.99-.53l-1.87,11.84c-1.25.5-2.46.82-3.63.97-1.17.15-2.26.22-3.26.22Z" fill="#fff" stroke-width="0"/><path d="M540.23,436.65l8.77-55.16h15.59l-3.67,23.08h-1.2c1.5-2.35,3.41-4.11,5.73-5.28s4.86-1.76,7.61-1.76c4.45,0,7.67,1.4,9.67,4.2,2,2.8,2.52,7.17,1.57,13.12l-3.45,21.81h-15.59l3.45-21.96c.3-1.9.14-3.26-.49-4.08-.62-.82-1.54-1.24-2.74-1.24-1.75,0-3.16.55-4.23,1.65-1.08,1.1-1.76,2.55-2.06,4.35l-3.37,21.29h-15.59Z" fill="#fff" stroke-width="0"/><path d="M610.23,437.55c-5.05,0-9.22-.94-12.52-2.81-3.3-1.87-5.65-4.45-7.04-7.72-1.4-3.27-1.77-7.01-1.12-11.2.6-3.7,1.85-6.91,3.75-9.63,1.9-2.72,4.33-4.85,7.31-6.37,2.97-1.52,6.38-2.29,10.23-2.29s7.29.88,9.89,2.62c2.6,1.75,4.45,4.12,5.55,7.12,1.1,3,1.32,6.42.67,10.27l-.45,2.77h-24.43l1.05-7.04h12.81l-1.5,1.42c.4-2.45.22-4.23-.53-5.36-.75-1.12-1.9-1.69-3.45-1.69-1.15,0-2.12.29-2.92.86-.8.58-1.45,1.35-1.95,2.32-.5.97-.85,2.06-1.05,3.26l-.6,3.82c-.35,2.6.11,4.61,1.39,6.03,1.27,1.42,3.68,2.14,7.23,2.14,1.55,0,3.04-.19,4.46-.56,1.42-.37,2.98-.99,4.68-1.84l3.67,10.12c-2.15,1.3-4.5,2.25-7.04,2.85-2.55.6-5.25.9-8.09.9Z" fill="#fff" stroke-width="0"/><path d="M649.2,452.84l6.89-43.54c.3-1.8.54-3.61.71-5.43.17-1.82.31-3.63.41-5.43h14.99l-.07,6.15h-1.12c1.05-2.1,2.65-3.8,4.8-5.1,2.15-1.3,4.67-1.95,7.57-1.95,3.5,0,6.47.92,8.92,2.77,2.45,1.85,4.21,4.38,5.28,7.61,1.07,3.22,1.26,6.93.56,11.13-.65,4.15-1.91,7.6-3.79,10.34-1.87,2.75-4.16,4.8-6.86,6.15-2.7,1.35-5.7,2.02-8.99,2.02-2.8,0-5.26-.61-7.38-1.84-2.12-1.22-3.39-2.81-3.79-4.76h.9l-3.45,21.88h-15.59ZM675.43,426.08c1.85,0,3.38-.61,4.61-1.84s2.06-3.21,2.51-5.96c.55-3.5.32-5.92-.67-7.27-1-1.35-2.45-2.02-4.35-2.02-1.8,0-3.32.6-4.57,1.8-1.25,1.2-2.1,3.2-2.55,6-.55,3.5-.31,5.92.71,7.27,1.02,1.35,2.46,2.02,4.31,2.02Z" fill="#fff" stroke-width="0"/><path d="M700.99,436.65l4.35-27.36c.25-1.8.47-3.61.67-5.43.2-1.82.35-3.63.45-5.43h14.99l-.3,12.52h-2.62c1-3.05,2.2-5.56,3.6-7.53,1.4-1.97,3.02-3.45,4.87-4.42,1.85-.97,3.95-1.46,6.3-1.46.8,0,1.54.05,2.21.15.67.1,1.29.2,1.84.3l-2.17,13.64c-1.15-.5-2.14-.82-2.96-.97-.82-.15-1.89-.22-3.18-.22-1.55,0-2.99.31-4.31.94-1.32.62-2.46,1.66-3.41,3.11-.95,1.45-1.62,3.42-2.02,5.92l-2.55,16.26h-15.74Z" fill="#fff" stroke-width="0"/><path d="M755.1,437.55c-4.75,0-8.69-.89-11.84-2.66-3.15-1.77-5.38-4.27-6.71-7.49-1.32-3.22-1.64-7.01-.94-11.35.65-4.1,2.05-7.52,4.2-10.27,2.15-2.75,4.87-4.81,8.17-6.18s6.94-2.06,10.94-2.06c4.8,0,8.74.89,11.84,2.66s5.3,4.26,6.6,7.46c1.3,3.2,1.6,7,.9,11.39-.65,4.1-2.04,7.52-4.16,10.27-2.12,2.75-4.81,4.81-8.06,6.18-3.25,1.37-6.9,2.06-10.94,2.06ZM755.92,426.08c1.75,0,3.21-.61,4.38-1.84,1.17-1.22,1.99-3.21,2.44-5.96.55-3.5.35-5.92-.6-7.27-.95-1.35-2.32-2.02-4.12-2.02s-3.21.6-4.38,1.8-1.99,3.2-2.44,6c-.55,3.5-.36,5.92.56,7.27.92,1.35,2.31,2.02,4.16,2.02Z" fill="#fff" stroke-width="0"/><path d="M778.63,452.84l6.89-43.54c.3-1.8.54-3.61.71-5.43.17-1.82.31-3.63.41-5.43h14.99l-.07,6.15h-1.12c1.05-2.1,2.65-3.8,4.8-5.1,2.15-1.3,4.67-1.95,7.57-1.95,3.5,0,6.47.92,8.92,2.77,2.45,1.85,4.21,4.38,5.28,7.61,1.07,3.22,1.26,6.93.56,11.13-.65,4.15-1.91,7.6-3.79,10.34-1.87,2.75-4.16,4.8-6.86,6.15-2.7,1.35-5.7,2.02-8.99,2.02-2.8,0-5.26-.61-7.38-1.84-2.12-1.22-3.39-2.81-3.79-4.76h.9l-3.45,21.88h-15.59ZM804.86,426.08c1.85,0,3.38-.61,4.61-1.84s2.06-3.21,2.51-5.96c.55-3.5.32-5.92-.67-7.27-1-1.35-2.45-2.02-4.35-2.02-1.8,0-3.32.6-4.57,1.8-1.25,1.2-2.1,3.2-2.55,6-.55,3.5-.31,5.92.71,7.27,1.02,1.35,2.46,2.02,4.31,2.02Z" fill="#fff" stroke-width="0"/><path d="M846.61,437.55c-3.6,0-6.82-.33-9.67-.97-2.85-.65-5.22-1.52-7.12-2.62l3.9-10.04c1.9.95,4.05,1.74,6.45,2.36,2.4.62,4.75.94,7.04.94,1.6,0,2.76-.2,3.48-.6.72-.4,1.14-.92,1.24-1.57.1-.6-.04-1.07-.41-1.42-.38-.35-.94-.57-1.69-.67l-7.42-1.12c-3.55-.55-6.08-1.85-7.61-3.9-1.53-2.05-2.04-4.67-1.54-7.87.45-2.7,1.54-4.98,3.26-6.86,1.72-1.87,3.95-3.28,6.67-4.23,2.72-.95,5.73-1.42,9.03-1.42,2.85,0,5.57.28,8.17.82,2.6.55,4.82,1.47,6.67,2.77l-4.2,9.74c-1.4-.85-3.11-1.56-5.13-2.14-2.02-.57-3.86-.86-5.51-.86-1.85,0-3.17.21-3.97.64-.8.43-1.25.96-1.35,1.61-.05.45.08.88.38,1.27.3.4.85.65,1.65.75l7.42,1.12c3.6.5,6.17,1.74,7.72,3.71,1.55,1.97,2.05,4.64,1.5,7.98-.45,2.9-1.56,5.28-3.33,7.16s-4.01,3.25-6.71,4.12c-2.7.87-5.67,1.31-8.92,1.31Z" fill="#fff" stroke-width="0"/><path d="M912.11,437.55c-5.95,0-10.16-1.46-12.63-4.38-2.47-2.92-3.31-6.96-2.51-12.1l1.8-11.24h-7.04l1.8-11.39h7.04l1.35-8.62,16.19-3.6-1.95,12.22h8.84l-1.8,11.39h-8.84l-1.72,10.79c-.3,1.85.02,3.07.97,3.67.95.6,2.05.9,3.3.9.8,0,1.46-.05,1.99-.15.52-.1,1.19-.27,1.99-.53l-1.87,11.84c-1.25.5-2.46.82-3.63.97-1.17.15-2.26.22-3.26.22Z" fill="#fff" stroke-width="0"/><path d="M944.26,437.55c-4.75,0-8.69-.89-11.84-2.66-3.15-1.77-5.38-4.27-6.71-7.49-1.32-3.22-1.64-7.01-.94-11.35.65-4.1,2.05-7.52,4.2-10.27,2.15-2.75,4.87-4.81,8.17-6.18s6.94-2.06,10.94-2.06c4.8,0,8.74.89,11.84,2.66s5.3,4.26,6.6,7.46c1.3,3.2,1.6,7,.9,11.39-.65,4.1-2.04,7.52-4.16,10.27-2.12,2.75-4.81,4.81-8.06,6.18-3.25,1.37-6.9,2.06-10.94,2.06ZM945.08,426.08c1.75,0,3.21-.61,4.38-1.84,1.17-1.22,1.99-3.21,2.44-5.96.55-3.5.35-5.92-.6-7.27-.95-1.35-2.32-2.02-4.12-2.02s-3.21.6-4.38,1.8-1.99,3.2-2.44,6c-.55,3.5-.36,5.92.56,7.27.92,1.35,2.31,2.02,4.16,2.02Z" fill="#fff" stroke-width="0"/><path d="M990.58,453.66l-2.32-11.99c2.5-.4,4.6-.82,6.3-1.27,1.7-.45,3.13-1.09,4.31-1.91s2.16-1.91,2.96-3.26l2.55-4.27-.75,5.7-10.57-38.22h15.81l4.95,22.86h-2.7l12.74-22.86h15.81l-23.08,38.37c-1.95,3.25-3.91,5.9-5.88,7.94-1.97,2.05-4,3.66-6.07,4.83-2.07,1.17-4.26,2.05-6.56,2.62-2.3.57-4.8,1.06-7.5,1.46Z" fill="#fff" stroke-width="0"/><path d="M1055.18,437.55c-4.75,0-8.69-.89-11.84-2.66-3.15-1.77-5.38-4.27-6.71-7.49-1.32-3.22-1.64-7.01-.94-11.35.65-4.1,2.05-7.52,4.2-10.27,2.15-2.75,4.87-4.81,8.17-6.18s6.94-2.06,10.94-2.06c4.8,0,8.74.89,11.84,2.66s5.3,4.26,6.6,7.46c1.3,3.2,1.6,7,.9,11.39-.65,4.1-2.04,7.52-4.16,10.27-2.12,2.75-4.81,4.81-8.06,6.18-3.25,1.37-6.9,2.06-10.94,2.06ZM1056,426.08c1.75,0,3.21-.61,4.38-1.84,1.17-1.22,1.99-3.21,2.44-5.96.55-3.5.35-5.92-.6-7.27-.95-1.35-2.32-2.02-4.12-2.02s-3.21.6-4.38,1.8-1.99,3.2-2.44,6c-.55,3.5-.36,5.92.56,7.27.92,1.35,2.31,2.02,4.16,2.02Z" fill="#fff" stroke-width="0"/><path d="M1096.03,437.55c-4.95,0-8.47-1.46-10.57-4.38s-2.75-7.01-1.95-12.25l3.6-22.48h15.59l-3.6,22.63c-.25,1.55-.07,2.71.52,3.49.6.78,1.6,1.16,3,1.16,1.65,0,2.95-.56,3.9-1.69.95-1.12,1.57-2.61,1.87-4.46l3.37-21.13h15.59l-6.07,38.22h-15.21l.97-6.3h1.2c-1.5,2.3-3.24,4.07-5.21,5.32-1.97,1.25-4.31,1.87-7.01,1.87Z" fill="#fff" stroke-width="0"/><g opacity=".2"><path d="M427.62,258.02l-22.56-12.89c1.57-1.75,3.85-7.41-.57-25.45-4.3-17.58-13.23-27.8-19.74-35.27-2.29-2.63-4.27-4.9-5.73-7.08-.74-1.1-1.5-2.29-2.29-3.52-5.45-8.47-12.24-19-19.15-16.6-2.7.94-4.98,2.77-6.61,5.25-3.52-3.99-7.27-6.57-11.06-5.25-3.09,1.08-5.64,3.32-7.29,6.38-10.26-10.16-19.72-19.49-22.88-22.52-4.8-4.6-14.97-5.37-20.28-1.86-5.74-3.13-14.67-2.97-18.82.89-.84.78-1.75,1.98-2.1,3.66-1.81.68-3.43,1.79-4.69,3.18-.05.06-.1.12-.16.18-.36-.34-.71-.66-1.02-.95-5.6-5.11-12.68-3.42-16.49.77-4.78,5.24-5.18,14.56,4.7,23.57,1.12,1.02,2.29,2.1,3.49,3.21-.49.4-.93.82-1.28,1.28-5.82-3.22-10.23-4.26-13.18-3.09-3.22,1.27-5.13,3.15-5.66,5.58-1.32,6.03,6.07,13.77,10.96,18.89.82.86,1.53,1.61,2.11,2.25,1.07,1.19,3.41,3.63,6.43,6.75-.17.34-.32.7-.45,1.06-1.67-1.38-3.17-2.56-4.42-3.47-5.17-3.76-9.42-2.12-11.68.67-3.39,4.18-3.39,11.99,2.51,17.33,9.81,8.86,34.88,36.44,43.04,46.24,7.79,9.35,46.97,20.75,50.87,21.87l17.42,27.56c.12.19.33.31.55.32.06,0,.33.01.76.01,2.01,0,7.72-.24,14.94-2.57l1.42,2.24c.12.19.33.31.55.32.06,0,.33.01.76.01,2.81,0,12.83-.46,24.1-6.46,21.73-11.58,30.39-34.53,33.83-51.75.06-.29-.08-.59-.33-.73Z" fill="#fff6d0" stroke-width="0"/><path d="M258,129.47c.12.08.25.12.38.12.15,0,.29-.05.42-.14.23-.18.33-.49.24-.76l-11.1-33.7c-.07-.22-.25-.39-.48-.45-.22-.06-.46,0-.64.15l-16.95,15c-.16.14-.25.35-.23.56.01.21.13.41.31.53l28.05,18.7Z" fill="#fff6d0" stroke-width="0"/><path d="M271.18,125.84c.08.03.16.04.24.04.21,0,.4-.09.54-.26l14.8-18.51c.14-.17.19-.4.12-.62-.06-.21-.22-.39-.43-.46l-13.64-4.87c-.21-.07-.43-.05-.61.08-.18.12-.29.32-.31.54l-1.17,23.37c-.01.3.16.57.44.68Z" fill="#fff6d0" stroke-width="0"/><path d="M240.65,139.32c.28,0,.54-.17.64-.44.11-.27.03-.59-.2-.78l-18.89-15.97c-.17-.15-.41-.2-.62-.14-.22.06-.39.22-.47.43l-5.45,15.06c-.07.21-.05.44.08.62.12.18.33.3.55.3l24.35.91s.02,0,.03,0Z" fill="#fff6d0" stroke-width="0"/><path d="M376.44,139.41c.13.19.34.3.57.3.06,0,.12,0,.17-.02.28-.07.49-.32.51-.6l2.34-25.52c.02-.23-.07-.45-.25-.6-.18-.15-.41-.19-.63-.13l-16.56,4.87c-.21.06-.38.22-.46.43-.07.21-.04.44.08.62l14.22,20.65Z" fill="#fff6d0" stroke-width="0"/><path d="M393.95,142.83c.12,0,.24-.03.35-.09l28.83-16.95c.2-.12.33-.33.34-.56.01-.23-.1-.46-.29-.59l-17.73-12.66c-.17-.13-.4-.16-.6-.1-.2.06-.37.22-.44.42l-11.1,29.61c-.1.27-.02.58.2.77.13.11.28.16.44.16Z" fill="#fff6d0" stroke-width="0"/><path d="M423.17,150.73c-.18-.13-.42-.16-.63-.08l-21.23,7.79c-.28.1-.46.37-.45.66s.2.55.48.64l21.23,6.82c.07.02.14.03.21.03.14,0,.29-.05.41-.13.18-.13.28-.34.28-.56v-14.61c0-.23-.11-.44-.29-.57Z" fill="#fff6d0" stroke-width="0"/><path d="M427.62,258.02l-22.56-12.89c1.57-1.75,3.85-7.41-.57-25.45-4.3-17.58-13.23-27.8-19.74-35.27-2.29-2.63-4.27-4.9-5.73-7.08-.74-1.1-1.5-2.29-2.29-3.52-5.45-8.47-12.24-19-19.15-16.6-2.7.94-4.98,2.77-6.61,5.25-3.52-3.99-7.27-6.57-11.06-5.25-3.09,1.08-5.64,3.32-7.29,6.38-10.26-10.16-19.72-19.49-22.88-22.52-4.8-4.6-14.97-5.37-20.28-1.86-5.74-3.13-14.67-2.97-18.82.89-.84.78-1.75,1.98-2.1,3.66-1.81.68-3.43,1.79-4.69,3.18-.05.06-.1.12-.16.18-.36-.34-.71-.66-1.02-.95-5.6-5.11-12.68-3.42-16.49.77-4.78,5.24-5.18,14.56,4.7,23.57,1.12,1.02,2.29,2.1,3.49,3.21-.49.4-.93.82-1.28,1.28-5.82-3.22-10.23-4.26-13.18-3.09-3.22,1.27-5.13,3.15-5.66,5.58-1.32,6.03,6.07,13.77,10.96,18.89.82.86,1.53,1.61,2.11,2.25,1.07,1.19,3.41,3.63,6.43,6.75-.17.34-.32.7-.45,1.06-1.67-1.38-3.17-2.56-4.42-3.47-5.17-3.76-9.42-2.12-11.68.67-3.39,4.18-3.39,11.99,2.51,17.33,9.81,8.86,34.88,36.44,43.04,46.24,7.79,9.35,46.97,20.75,50.87,21.87l17.42,27.56c.12.19.33.31.55.32.06,0,.33.01.76.01,2.01,0,7.72-.24,14.94-2.57l1.42,2.24c.12.19.33.31.55.32.06,0,.33.01.76.01,2.81,0,12.83-.46,24.1-6.46,21.73-11.58,30.39-34.53,33.83-51.75.06-.29-.08-.59-.33-.73Z" fill="#1c2126" stroke-width="0"/><path d="M258,129.47c.12.08.25.12.38.12.15,0,.29-.05.42-.14.23-.18.33-.49.24-.76l-11.1-33.7c-.07-.22-.25-.39-.48-.45-.22-.06-.46,0-.64.15l-16.95,15c-.16.14-.25.35-.23.56.01.21.13.41.31.53l28.05,18.7Z" fill="#1c2126" stroke-width="0"/><path d="M271.18,125.84c.08.03.16.04.24.04.21,0,.4-.09.54-.26l14.8-18.51c.14-.17.19-.4.12-.62-.06-.21-.22-.39-.43-.46l-13.64-4.87c-.21-.07-.43-.05-.61.08-.18.12-.29.32-.31.54l-1.17,23.37c-.01.3.16.57.44.68Z" fill="#1c2126" stroke-width="0"/><path d="M240.65,139.32c.28,0,.54-.17.64-.44.11-.27.03-.59-.2-.78l-18.89-15.97c-.17-.15-.41-.2-.62-.14-.22.06-.39.22-.47.43l-5.45,15.06c-.07.21-.05.44.08.62.12.18.33.3.55.3l24.35.91s.02,0,.03,0Z" fill="#1c2126" stroke-width="0"/><path d="M376.44,139.41c.13.19.34.3.57.3.06,0,.12,0,.17-.02.28-.07.49-.32.51-.6l2.34-25.52c.02-.23-.07-.45-.25-.6-.18-.15-.41-.19-.63-.13l-16.56,4.87c-.21.06-.38.22-.46.43-.07.21-.04.44.08.62l14.22,20.65Z" fill="#1c2126" stroke-width="0"/><path d="M393.95,142.83c.12,0,.24-.03.35-.09l28.83-16.95c.2-.12.33-.33.34-.56.01-.23-.1-.46-.29-.59l-17.73-12.66c-.17-.13-.4-.16-.6-.1-.2.06-.37.22-.44.42l-11.1,29.61c-.1.27-.02.58.2.77.13.11.28.16.44.16Z" fill="#1c2126" stroke-width="0"/><path d="M423.17,150.73c-.18-.13-.42-.16-.63-.08l-21.23,7.79c-.28.1-.46.37-.45.66s.2.55.48.64l21.23,6.82c.07.02.14.03.21.03.14,0,.29-.05.41-.13.18-.13.28-.34.28-.56v-14.61c0-.23-.11-.44-.29-.57Z" fill="#1c2126" stroke-width="0"/><path d="M297.96,137.02c4.4,0,9,1.38,11.79,4.05,3.15,3.02,12.61,12.36,22.88,22.52,1.65-3.06,4.2-5.31,7.29-6.38.68-.24,1.36-.35,2.04-.35,3.09,0,6.14,2.32,9.02,5.6,1.64-2.48,3.91-4.31,6.61-5.25.68-.24,1.36-.35,2.04-.35,6.2,0,12.2,9.31,17.11,16.94.79,1.23,1.56,2.42,2.29,3.52,1.46,2.18,3.44,4.45,5.73,7.08,6.51,7.47,15.43,17.69,19.74,35.27,4.42,18.04,2.14,23.71.57,25.45l22.56,12.89c.26.15.39.44.33.73-3.44,17.22-12.1,40.17-33.83,51.75-11.26,6-21.29,6.46-24.1,6.46-.44,0-.7-.01-.76-.01-.22-.01-.43-.13-.55-.32l-1.42-2.24c-7.22,2.34-12.93,2.57-14.94,2.57-.44,0-.7-.01-.76-.01-.22-.01-.43-.13-.55-.32l-17.42-27.56c-3.89-1.12-43.07-12.51-50.87-21.87-8.16-9.79-33.24-37.38-43.04-46.24-5.91-5.34-5.9-13.15-2.51-17.33,1.32-1.63,3.32-2.86,5.78-2.86,1.76,0,3.75.63,5.9,2.19,1.25.91,2.75,2.09,4.42,3.47.13-.37.28-.72.45-1.06-3.02-3.12-5.36-5.57-6.43-6.75-.58-.64-1.29-1.38-2.11-2.25-4.89-5.12-12.28-12.86-10.96-18.89.53-2.43,2.44-4.31,5.66-5.58.78-.31,1.67-.46,2.65-.46,2.73,0,6.25,1.19,10.53,3.56.35-.46.79-.88,1.28-1.28-1.2-1.11-2.37-2.19-3.49-3.21-9.88-9.01-9.48-18.33-4.7-23.57,2.15-2.36,5.34-3.93,8.72-3.93,2.61,0,5.33.93,7.77,3.16.31.28.66.61,1.02.95.05-.06.1-.12.16-.18,1.26-1.38,2.88-2.49,4.69-3.17.35-1.68,1.25-2.88,2.1-3.66,2.23-2.07,5.84-3.08,9.6-3.08,3.23,0,6.57.74,9.22,2.19,2.23-1.47,5.31-2.19,8.49-2.19M297.96,125.02c-2.42,0-5.52.26-8.75,1.24-2.86-.81-5.91-1.23-8.96-1.23-7.1,0-13.41,2.23-17.77,6.29-.26.24-.5.48-.75.73-2.19-.68-4.47-1.03-6.82-1.03-6.63,0-13.04,2.86-17.59,7.84-4.89,5.36-7.14,12.65-6.18,20.01.14,1.1.38,2.33.74,3.64-6.52,3.82-8.65,9.25-9.34,12.42-1.68,7.65,1.6,14.62,5.92,20.48-.2.22-.39.45-.58.68-3.7,4.56-5.47,10.75-4.85,16.98.64,6.38,3.71,12.35,8.64,16.81,9.29,8.39,34.1,35.68,41.87,45.01,3.25,3.9,9.81,9.42,31.96,17.6,7.95,2.94,15.65,5.37,20.4,6.81l15.01,23.75c2.22,3.5,6,5.7,10.12,5.89.03,0,.05,0,.08,0,.13,0,.56.02,1.26.02,1.9,0,6.05-.16,11.45-1.26,1.51.72,3.16,1.15,4.88,1.24.03,0,.05,0,.08,0,.13,0,.56.02,1.26.02,4.5,0,16.41-.77,29.74-7.87,14.28-7.61,32.8-24.19,39.95-59.99,1.07-5.37-1.4-10.79-6.14-13.5l-14.56-8.32c.34-5.92-.63-13.3-2.87-22.46-5-20.41-15.44-32.38-22.35-40.3-2.03-2.32-3.77-4.32-4.79-5.85-.7-1.05-1.46-2.23-2.19-3.36-6.44-10-14.46-22.45-27.2-22.45-2.03,0-4.04.34-5.98,1.01-.97.34-1.91.73-2.81,1.18-4.23-2.19-7.45-2.19-8.88-2.19-2.03,0-4.04.34-5.98,1.01-1.01.35-1.99.77-2.94,1.25-7.84-7.74-12.86-12.68-14.97-14.7-4.9-4.7-12.22-7.4-20.1-7.4h0Z" fill="#fff6d0" stroke-width="0"/><path d="M247.28,94.51c.06,0,.12,0,.18.02.22.06.4.23.48.45l11.1,33.7c.09.28,0,.59-.24.76-.12.09-.27.14-.42.14-.13,0-.27-.04-.38-.12l-28.05-18.7c-.18-.12-.29-.31-.31-.53-.01-.21.07-.42.23-.56l16.95-15c.13-.11.29-.17.46-.17M247.28,82.51c-3.1,0-6.09,1.13-8.41,3.18l-16.95,15c-2.97,2.63-4.51,6.4-4.25,10.34.27,3.93,2.37,7.55,5.63,9.72l28.05,18.7c2.07,1.39,4.51,2.13,7.04,2.13,2.76,0,5.49-.92,7.68-2.59,4.3-3.27,6.06-8.92,4.37-14.06l-11.11-33.71c-1.34-4.06-4.6-7.16-8.73-8.28-.02,0-.05-.01-.07-.02-1.06-.28-2.15-.42-3.25-.42h0Z" fill="#fff6d0" stroke-width="0"/><path d="M272.6,101.13c.08,0,.16.01.23.04l13.64,4.87c.21.07.37.25.43.46.06.21.01.45-.12.62l-14.8,18.51c-.13.17-.33.26-.54.26-.08,0-.16-.01-.24-.04-.28-.11-.46-.38-.44-.68l1.17-23.37c.01-.22.12-.42.31-.54.12-.08.25-.12.38-.12M272.6,89.13c-2.5,0-4.93.73-7.02,2.12-3.35,2.23-5.46,5.95-5.66,9.95l-1.17,23.37c-.27,5.52,3.01,10.54,8.17,12.5.02,0,.03.01.05.02,1.43.54,2.93.81,4.46.81,3.87,0,7.48-1.73,9.9-4.75l14.81-18.52c2.56-3.21,3.41-7.46,2.3-11.37-1.12-3.96-4.09-7.13-7.96-8.51l-13.62-4.86c-1.38-.49-2.81-.74-4.27-.74h0Z" fill="#fff6d0" stroke-width="0"/><path d="M221.76,121.97c.16,0,.32.06.44.16l18.89,15.97c.22.19.3.5.2.78-.1.27-.36.44-.64.44,0,0-.02,0-.03,0l-24.35-.92c-.22,0-.42-.12-.55-.3-.12-.18-.15-.41-.08-.62l5.45-15.06c.08-.21.25-.37.47-.43.06-.02.12-.02.18-.02M221.76,109.97c-1.13,0-2.26.15-3.35.45-3.97,1.09-7.18,4.04-8.58,7.92l-5.45,15.05c-1.37,3.81-.84,8.07,1.41,11.42,2.25,3.34,6.01,5.44,10.05,5.58l24.34.91c.16,0,.32,0,.48,0,5.2,0,9.96-3.26,11.83-8.11,1.96-5.04.49-10.78-3.65-14.27l-18.89-15.97c-2.29-1.94-5.2-3-8.19-3h0Z" fill="#fff6d0" stroke-width="0"/><path d="M379.34,112.82c.16,0,.31.05.44.16.18.14.27.37.25.6l-2.34,25.52c-.03.29-.23.53-.51.6-.06.01-.12.02-.17.02-.22,0-.44-.11-.57-.3l-14.22-20.65c-.13-.18-.16-.41-.08-.62.07-.21.24-.37.46-.43l16.56-4.87c.06-.02.13-.03.19-.03M379.34,100.82c-1.21,0-2.4.17-3.56.51l-16.58,4.88c-3.88,1.14-7.02,4.1-8.38,7.93-1.36,3.82-.79,8.1,1.52,11.45l14.21,20.64c2.36,3.44,6.27,5.49,10.45,5.49,1.05,0,2.1-.13,3.12-.39.03,0,.06-.02.09-.02,5.14-1.35,8.93-5.81,9.42-11.1l2.34-25.54c.39-4.19-1.33-8.29-4.59-10.97-2.24-1.85-5.11-2.88-8.05-2.88h0Z" fill="#fff6d0" stroke-width="0"/><path d="M405.05,111.84c.14,0,.28.04.4.13l17.73,12.66c.19.14.3.36.29.59-.01.23-.14.45-.34.56l-28.83,16.95c-.11.06-.23.09-.35.09-.16,0-.32-.05-.44-.16-.22-.19-.3-.5-.2-.77l11.1-29.61c.08-.2.24-.35.44-.42.07-.02.13-.03.2-.03M405.05,99.84c-1.22,0-2.43.18-3.6.52-.03.01-.07.02-.1.03-3.74,1.14-6.8,4.01-8.17,7.67l-11.11,29.61c-1.88,5.03-.38,10.72,3.72,14.17,2.27,1.91,5.18,2.97,8.16,2.97,2.25,0,4.47-.6,6.41-1.74l28.85-16.96c3.73-2.19,6.06-6.08,6.25-10.39.19-4.31-1.8-8.38-5.31-10.88l-17.71-12.65c-2.14-1.54-4.7-2.36-7.38-2.36h0Z" fill="#fff6d0" stroke-width="0"/><path d="M422.78,150.61c.14,0,.28.04.39.12.19.13.29.34.29.57v14.61c0,.22-.11.43-.28.56-.12.09-.26.13-.41.13-.07,0-.14-.01-.21-.03l-21.23-6.82c-.28-.09-.47-.35-.48-.64,0-.29.18-.56.45-.66l21.23-7.79c.08-.03.16-.04.24-.04M422.78,138.61c-1.5,0-2.98.26-4.39.78l-21.22,7.79c-5.08,1.86-8.43,6.75-8.31,12.17.11,5.41,3.65,10.16,8.8,11.82l21.24,6.82c1.24.4,2.55.61,3.88.61,2.72,0,5.32-.85,7.51-2.46,3.25-2.38,5.18-6.2,5.18-10.23v-14.61c0-4.14-2.03-8.03-5.42-10.4-2.15-1.5-4.66-2.29-7.27-2.29h0Z" fill="#fff6d0" stroke-width="0"/></g><path d="M409.61,258.62l-23.46-13.4s5.74-1.91,0-25.37c-5.74-23.46-19.63-33.51-25.37-42.13-5.74-8.62-13.3-22.4-20.64-19.85-7.35,2.55-10.54,11.82-7.66,18.2,2.87,6.39,15.01,20.76,15.01,20.76,0,0-47.9-47.58-55.89-55.25-7.98-7.66-32.25-4.15-18.2,12.77,14.05,16.93,42.79,45.99,42.79,45.99,0,0-43.11-43.75-53.97-53.65-10.86-9.9-29.06,6.71-10.86,23.31,18.2,16.61,47.58,45.67,47.58,45.67,0,0-45.03-48.54-58.76-43.11-13.73,5.43,2.55,19.94,7.66,25.62,5.11,5.68,38.96,39.85,38.96,39.85,0,0-27.78-26.83-38.32-34.49-10.54-7.66-18.2,7.98-8.3,16.93,9.9,8.94,35.13,36.73,43.11,46.31,7.98,9.58,50.78,21.72,50.78,21.72l17.56,27.78s46.02,2.24,57.98-57.64Z" fill="#ffdd73" stroke="#1c2126" stroke-linejoin="round" stroke-width="2"/><path d="M427.28,258.62l-23.46-13.4s5.74-1.91,0-25.37c-5.74-23.46-19.63-33.51-25.37-42.13s-13.3-22.4-20.64-19.85c-7.35,2.55-10.54,11.82-7.66,18.2,2.87,6.39,15.01,20.76,15.01,20.76,0,0-47.9-47.58-55.89-55.25-7.98-7.66-32.25-4.15-18.2,12.77,14.05,16.93,42.79,45.99,42.79,45.99,0,0-43.11-43.75-53.97-53.65-10.86-9.9-29.06,6.71-10.86,23.31,18.2,16.61,47.58,45.67,47.58,45.67,0,0-45.03-48.54-58.76-43.11-13.73,5.43,2.55,19.94,7.66,25.62s38.96,39.85,38.96,39.85c0,0-27.78-26.83-38.32-34.49-10.54-7.66-18.2,7.98-8.3,16.93s35.13,36.73,43.11,46.31c7.98,9.58,50.78,21.72,50.78,21.72l17.56,27.78s46.02,2.24,57.98-57.64Z" fill="#ffb916" stroke="#1c2126" stroke-linejoin="round" stroke-width="2"/><path d="M376.5,205.59c5.54,4.28,9.05,10.25,11.85,16.56,2.81,6.33,5.22,12.89,9.43,18.48,2.12,2.82,4.66,5.1,8.21,5.83l-2.16-1.24s5.74-1.91,0-25.37c-1.55-6.34-3.7-11.69-6.12-16.31-1.99,1.16-4.28,1.84-6.41,1.92-4.95.18-9.02-3.04-12.23-6.46-3.73-3.96-6.77-8.51-10.57-12.39-1.89-1.92-3.93-3.5-6.35-4.7-3.24-1.6-6.71-2.68-9.94-4.32-.65-.33-1.26-.69-1.85-1.08,2.46,5.07,9.93,14.41,13.22,18.41,4.12,3.78,8.5,7.26,12.94,10.67Z" fill="#1c2126" opacity=".1" stroke-width="0"/><path d="M381.92,289.28c-5.95-1.96-11.43-4.83-16.13-9-3.82-3.39-7.01-7.59-11.3-10.42-5.45-3.6-12.02-3.69-18.22-5.03-6.8-1.48-13.48-3.72-19.53-7.2-3.07-1.76-5.9-3.88-8.7-6.03-2.83-2.16-5.6-4.39-8.33-6.67-5.74-4.8-11.27-9.84-16.6-15.08-8.87-8.73-17.24-18.02-24.76-27.95-5.63,2.16-7.64,12.1-.49,18.55,9.9,8.94,35.13,36.73,43.11,46.31,7.98,9.58,50.78,21.72,50.78,21.72l17.56,27.78s25.31,1.22,43.27-22.57c-10.36-.26-20.81-1.17-30.65-4.41Z" fill="#1c2126" opacity=".1" stroke-width="0"/><polygon points="230.33 110.19 258.38 128.89 247.27 95.2 230.33 110.19" fill="#bffde7" stroke-width="0"/><polygon points="272.6 101.82 271.43 125.19 286.23 106.69 272.6 101.82" fill="#fff6d0" stroke-width="0"/><polygon points="221.76 122.66 240.65 138.63 216.3 137.72 221.76 122.66" fill="#ffd3bf" stroke-width="0"/><polygon points="362.78 118.38 377 139.02 379.34 113.51 362.78 118.38" fill="#fff6d0" stroke-width="0"/><polygon points="405.05 112.53 393.95 142.14 422.78 125.19 405.05 112.53" fill="#bffde7" stroke-width="0"/><polygon points="422.78 151.3 401.55 159.09 422.78 165.9 422.78 151.3" fill="#ffd3bf" stroke-width="0"/><g opacity=".2"><path d="M705.83,258.02l-22.56-12.89c1.57-1.75,3.85-7.41-.57-25.45-4.3-17.58-13.23-27.8-19.74-35.27-2.29-2.63-4.27-4.9-5.73-7.08-.74-1.1-1.5-2.29-2.29-3.52-5.45-8.47-12.24-19-19.15-16.6-2.7.94-4.98,2.77-6.61,5.25-3.52-3.99-7.27-6.57-11.06-5.25-3.09,1.08-5.64,3.32-7.29,6.38-10.26-10.16-19.72-19.49-22.88-22.52-4.8-4.6-14.97-5.37-20.28-1.86-5.74-3.13-14.67-2.97-18.82.89-.84.78-1.75,1.98-2.1,3.66-1.81.68-3.43,1.79-4.69,3.18-.05.06-.1.12-.16.18-.36-.34-.71-.66-1.02-.95-5.6-5.11-12.68-3.42-16.49.77-4.78,5.24-5.18,14.56,4.7,23.57,1.12,1.02,2.29,2.1,3.49,3.21-.49.4-.93.82-1.28,1.28-5.82-3.22-10.23-4.26-13.18-3.09-3.22,1.27-5.13,3.15-5.66,5.58-1.32,6.03,6.07,13.77,10.96,18.89.82.86,1.53,1.61,2.11,2.25,1.07,1.19,3.41,3.63,6.43,6.75-.17.34-.32.7-.45,1.06-1.67-1.38-3.17-2.56-4.42-3.47-5.17-3.76-9.42-2.12-11.68.67-3.39,4.18-3.39,11.99,2.51,17.33,9.81,8.86,34.88,36.44,43.04,46.24,7.79,9.35,46.97,20.75,50.87,21.87l17.42,27.56c.12.19.33.31.55.32.06,0,.33.01.76.01,2.01,0,7.72-.24,14.94-2.57l1.42,2.24c.12.19.33.31.55.32.06,0,.33.01.76.01,2.81,0,12.83-.46,24.1-6.46,21.73-11.58,30.39-34.53,33.83-51.75.06-.29-.08-.59-.33-.73Z" fill="#fff6d0" stroke-width="0"/><path d="M536.2,129.47c.12.08.25.12.38.12.15,0,.29-.05.42-.14.23-.18.33-.49.24-.76l-11.1-33.7c-.07-.22-.25-.39-.48-.45-.22-.06-.46,0-.64.15l-16.95,15c-.16.14-.25.35-.23.56.01.21.13.41.31.53l28.05,18.7Z" fill="#fff6d0" stroke-width="0"/><path d="M549.39,125.84c.08.03.16.04.24.04.21,0,.4-.09.54-.26l14.8-18.51c.14-.17.19-.4.12-.62-.06-.21-.22-.39-.43-.46l-13.64-4.87c-.21-.07-.43-.05-.61.08-.18.12-.29.32-.31.54l-1.17,23.37c-.01.3.16.57.44.68Z" fill="#fff6d0" stroke-width="0"/><path d="M518.86,139.32c.28,0,.54-.17.64-.44.11-.27.03-.59-.2-.78l-18.89-15.97c-.17-.15-.41-.2-.62-.14-.22.06-.39.22-.47.43l-5.45,15.06c-.07.21-.05.44.08.62.12.18.33.3.55.3l24.35.91s.02,0,.03,0Z" fill="#fff6d0" stroke-width="0"/><path d="M654.64,139.41c.13.19.34.3.57.3.06,0,.12,0,.17-.02.28-.07.49-.32.51-.6l2.34-25.52c.02-.23-.07-.45-.25-.6-.18-.15-.41-.19-.63-.13l-16.56,4.87c-.21.06-.38.22-.46.43-.07.21-.04.44.08.62l14.22,20.65Z" fill="#fff6d0" stroke-width="0"/><path d="M672.16,142.83c.12,0,.24-.03.35-.09l28.83-16.95c.2-.12.33-.33.34-.56.01-.23-.1-.46-.29-.59l-17.73-12.66c-.17-.13-.4-.16-.6-.1-.2.06-.37.22-.44.42l-11.1,29.61c-.1.27-.02.58.2.77.13.11.28.16.44.16Z" fill="#fff6d0" stroke-width="0"/><path d="M701.38,150.73c-.18-.13-.42-.16-.63-.08l-21.23,7.79c-.28.1-.46.37-.45.66s.2.55.48.64l21.23,6.82c.07.02.14.03.21.03.14,0,.29-.05.41-.13.18-.13.28-.34.28-.56v-14.61c0-.23-.11-.44-.29-.57Z" fill="#fff6d0" stroke-width="0"/><path d="M705.83,258.02l-22.56-12.89c1.57-1.75,3.85-7.41-.57-25.45-4.3-17.58-13.23-27.8-19.74-35.27-2.29-2.63-4.27-4.9-5.73-7.08-.74-1.1-1.5-2.29-2.29-3.52-5.45-8.47-12.24-19-19.15-16.6-2.7.94-4.98,2.77-6.61,5.25-3.52-3.99-7.27-6.57-11.06-5.25-3.09,1.08-5.64,3.32-7.29,6.38-10.26-10.16-19.72-19.49-22.88-22.52-4.8-4.6-14.97-5.37-20.28-1.86-5.74-3.13-14.67-2.97-18.82.89-.84.78-1.75,1.98-2.1,3.66-1.81.68-3.43,1.79-4.69,3.18-.05.06-.1.12-.16.18-.36-.34-.71-.66-1.02-.95-5.6-5.11-12.68-3.42-16.49.77-4.78,5.24-5.18,14.56,4.7,23.57,1.12,1.02,2.29,2.1,3.49,3.21-.49.4-.93.82-1.28,1.28-5.82-3.22-10.23-4.26-13.18-3.09-3.22,1.27-5.13,3.15-5.66,5.58-1.32,6.03,6.07,13.77,10.96,18.89.82.86,1.53,1.61,2.11,2.25,1.07,1.19,3.41,3.63,6.43,6.75-.17.34-.32.7-.45,1.06-1.67-1.38-3.17-2.56-4.42-3.47-5.17-3.76-9.42-2.12-11.68.67-3.39,4.18-3.39,11.99,2.51,17.33,9.81,8.86,34.88,36.44,43.04,46.24,7.79,9.35,46.97,20.75,50.87,21.87l17.42,27.56c.12.19.33.31.55.32.06,0,.33.01.76.01,2.01,0,7.72-.24,14.94-2.57l1.42,2.24c.12.19.33.31.55.32.06,0,.33.01.76.01,2.81,0,12.83-.46,24.1-6.46,21.73-11.58,30.39-34.53,33.83-51.75.06-.29-.08-.59-.33-.73Z" fill="#1c2126" stroke-width="0"/><path d="M536.2,129.47c.12.08.25.12.38.12.15,0,.29-.05.42-.14.23-.18.33-.49.24-.76l-11.1-33.7c-.07-.22-.25-.39-.48-.45-.22-.06-.46,0-.64.15l-16.95,15c-.16.14-.25.35-.23.56.01.21.13.41.31.53l28.05,18.7Z" fill="#1c2126" stroke-width="0"/><path d="M549.39,125.84c.08.03.16.04.24.04.21,0,.4-.09.54-.26l14.8-18.51c.14-.17.19-.4.12-.62-.06-.21-.22-.39-.43-.46l-13.64-4.87c-.21-.07-.43-.05-.61.08-.18.12-.29.32-.31.54l-1.17,23.37c-.01.3.16.57.44.68Z" fill="#1c2126" stroke-width="0"/><path d="M518.86,139.32c.28,0,.54-.17.64-.44.11-.27.03-.59-.2-.78l-18.89-15.97c-.17-.15-.41-.2-.62-.14-.22.06-.39.22-.47.43l-5.45,15.06c-.07.21-.05.44.08.62.12.18.33.3.55.3l24.35.91s.02,0,.03,0Z" fill="#1c2126" stroke-width="0"/><path d="M654.64,139.41c.13.19.34.3.57.3.06,0,.12,0,.17-.02.28-.07.49-.32.51-.6l2.34-25.52c.02-.23-.07-.45-.25-.6-.18-.15-.41-.19-.63-.13l-16.56,4.87c-.21.06-.38.22-.46.43-.07.21-.04.44.08.62l14.22,20.65Z" fill="#1c2126" stroke-width="0"/><path d="M672.16,142.83c.12,0,.24-.03.35-.09l28.83-16.95c.2-.12.33-.33.34-.56.01-.23-.1-.46-.29-.59l-17.73-12.66c-.17-.13-.4-.16-.6-.1-.2.06-.37.22-.44.42l-11.1,29.61c-.1.27-.02.58.2.77.13.11.28.16.44.16Z" fill="#1c2126" stroke-width="0"/><path d="M701.38,150.73c-.18-.13-.42-.16-.63-.08l-21.23,7.79c-.28.1-.46.37-.45.66s.2.55.48.64l21.23,6.82c.07.02.14.03.21.03.14,0,.29-.05.41-.13.18-.13.28-.34.28-.56v-14.61c0-.23-.11-.44-.29-.57Z" fill="#1c2126" stroke-width="0"/><path d="M576.16,137.02c4.4,0,9,1.38,11.79,4.05,3.15,3.02,12.61,12.36,22.88,22.52,1.65-3.06,4.2-5.31,7.29-6.38.68-.24,1.36-.35,2.04-.35,3.09,0,6.14,2.32,9.02,5.6,1.64-2.48,3.91-4.31,6.61-5.25.68-.24,1.36-.35,2.04-.35,6.2,0,12.2,9.31,17.11,16.94.79,1.23,1.56,2.42,2.29,3.52,1.46,2.18,3.44,4.45,5.73,7.08,6.51,7.47,15.44,17.69,19.74,35.27,4.42,18.04,2.14,23.71.57,25.45l22.56,12.89c.26.15.39.44.33.73-3.44,17.22-12.1,40.17-33.83,51.75-11.26,6-21.29,6.46-24.1,6.46-.44,0-.7-.01-.76-.01-.22-.01-.43-.13-.55-.32l-1.42-2.24c-7.22,2.34-12.93,2.57-14.94,2.57-.44,0-.7-.01-.76-.01-.22-.01-.43-.13-.55-.32l-17.42-27.56c-3.89-1.12-43.07-12.51-50.87-21.87-8.16-9.79-33.24-37.38-43.04-46.24-5.91-5.34-5.9-13.15-2.51-17.33,1.32-1.63,3.32-2.86,5.78-2.86,1.76,0,3.75.63,5.9,2.19,1.25.91,2.75,2.09,4.42,3.47.14-.37.28-.72.45-1.06-3.02-3.12-5.36-5.57-6.43-6.75-.58-.64-1.29-1.38-2.11-2.25-4.89-5.12-12.28-12.86-10.96-18.89.53-2.43,2.44-4.31,5.66-5.58.78-.31,1.67-.46,2.65-.46,2.73,0,6.25,1.19,10.53,3.56.35-.46.79-.88,1.28-1.28-1.2-1.11-2.37-2.19-3.49-3.21-9.88-9.01-9.48-18.33-4.7-23.57,2.15-2.36,5.34-3.93,8.72-3.93,2.61,0,5.33.93,7.77,3.16.31.28.66.61,1.02.95.05-.06.1-.12.16-.18,1.26-1.38,2.89-2.49,4.69-3.17.35-1.68,1.25-2.88,2.1-3.66,2.23-2.07,5.84-3.08,9.6-3.08,3.23,0,6.57.74,9.22,2.19,2.23-1.47,5.31-2.19,8.49-2.19M576.16,125.02c-2.42,0-5.52.26-8.75,1.24-2.86-.81-5.91-1.23-8.96-1.23-7.1,0-13.41,2.23-17.77,6.29-.26.24-.5.48-.75.73-2.19-.68-4.47-1.03-6.82-1.03-6.63,0-13.04,2.86-17.59,7.84-4.89,5.36-7.14,12.65-6.18,20.01.14,1.1.38,2.33.74,3.64-6.52,3.82-8.65,9.25-9.34,12.42-1.68,7.65,1.6,14.62,5.92,20.48-.2.22-.39.45-.58.68-3.7,4.56-5.47,10.75-4.85,16.98.64,6.38,3.71,12.35,8.64,16.81,9.29,8.39,34.1,35.69,41.87,45.01,3.25,3.9,9.81,9.42,31.96,17.6,7.95,2.94,15.65,5.37,20.4,6.81l15.01,23.75c2.22,3.5,6,5.7,10.12,5.89.03,0,.05,0,.08,0,.13,0,.56.02,1.26.02,1.9,0,6.05-.16,11.45-1.26,1.51.72,3.16,1.15,4.88,1.24.03,0,.05,0,.08,0,.13,0,.56.02,1.26.02,4.5,0,16.41-.77,29.74-7.87,14.28-7.61,32.8-24.19,39.95-59.99,1.07-5.37-1.4-10.79-6.14-13.5l-14.56-8.32c.34-5.92-.63-13.3-2.87-22.46-5-20.41-15.44-32.38-22.35-40.3-2.03-2.32-3.77-4.32-4.79-5.85-.7-1.05-1.46-2.23-2.19-3.36-6.44-10-14.46-22.45-27.2-22.45-2.03,0-4.04.34-5.98,1.01-.97.34-1.91.73-2.81,1.18-4.23-2.19-7.45-2.19-8.88-2.19-2.03,0-4.04.34-5.98,1.01-1.01.35-1.99.77-2.94,1.25-7.84-7.74-12.86-12.68-14.97-14.7-4.9-4.7-12.22-7.4-20.1-7.4h0Z" fill="#fff6d0" stroke-width="0"/><path d="M525.48,94.51c.06,0,.12,0,.18.02.22.06.4.23.48.45l11.1,33.7c.09.28,0,.59-.24.76-.12.09-.27.14-.42.14-.13,0-.27-.04-.38-.12l-28.05-18.7c-.18-.12-.29-.31-.31-.53-.01-.21.07-.42.23-.56l16.95-15c.13-.11.29-.17.46-.17M525.48,82.51c-3.1,0-6.09,1.13-8.41,3.18l-16.95,15c-2.92,2.59-4.51,6.46-4.25,10.34.27,3.93,2.38,7.55,5.63,9.72l28.05,18.7c2.07,1.39,4.51,2.13,7.04,2.13,2.76,0,5.49-.92,7.68-2.59,4.3-3.27,6.06-8.92,4.37-14.06l-11.11-33.71c-1.34-4.06-4.6-7.16-8.73-8.28-.02,0-.05-.01-.07-.02-1.06-.28-2.15-.42-3.25-.42h0Z" fill="#fff6d0" stroke-width="0"/><path d="M550.8,101.13c.08,0,.16.01.23.04l13.64,4.87c.21.07.37.25.43.46.06.21.01.45-.12.62l-14.8,18.51c-.13.17-.33.26-.54.26-.08,0-.16-.01-.24-.04-.28-.11-.46-.38-.44-.68l1.17-23.37c.01-.22.12-.42.31-.54.12-.08.25-.12.38-.12M550.8,89.13c-2.5,0-4.93.73-7.02,2.12-3.35,2.23-5.46,5.95-5.66,9.95l-1.17,23.37c-.27,5.52,3.01,10.54,8.17,12.5.02,0,.03.01.05.02,1.43.54,2.93.81,4.46.81,3.87,0,7.48-1.73,9.9-4.75l14.81-18.52c2.56-3.21,3.41-7.45,2.3-11.37-1.12-3.96-4.09-7.13-7.96-8.51l-13.62-4.86c-1.38-.49-2.81-.74-4.27-.74h0Z" fill="#fff6d0" stroke-width="0"/><path d="M499.96,121.97c.16,0,.32.06.44.16l18.89,15.97c.22.19.3.5.2.78-.1.27-.36.44-.64.44,0,0-.02,0-.03,0l-24.35-.92c-.22,0-.42-.12-.55-.3-.12-.18-.15-.41-.08-.62l5.45-15.06c.08-.21.25-.37.47-.43.06-.02.12-.02.18-.02M499.96,109.97c-1.13,0-2.26.15-3.35.45-3.97,1.09-7.18,4.04-8.58,7.92l-5.45,15.05c-1.37,3.81-.84,8.07,1.41,11.42,2.25,3.34,6.01,5.44,10.05,5.58l24.34.91c.16,0,.32,0,.48,0,5.2,0,9.96-3.26,11.83-8.11,1.96-5.04.49-10.78-3.64-14.28l-18.89-15.97c-2.29-1.94-5.2-3-8.19-3h0Z" fill="#fff6d0" stroke-width="0"/><path d="M657.55,112.82c.16,0,.31.05.44.16.18.14.27.37.25.6l-2.34,25.52c-.03.29-.23.53-.51.6-.06.01-.12.02-.17.02-.22,0-.44-.11-.57-.3l-14.22-20.65c-.13-.18-.16-.41-.08-.62.07-.21.24-.37.46-.43l16.56-4.87c.06-.02.13-.03.19-.03M657.55,100.82c-1.21,0-2.4.17-3.56.51l-16.58,4.88c-3.88,1.14-7.02,4.1-8.38,7.93-1.36,3.82-.79,8.1,1.52,11.45l14.21,20.64c2.36,3.44,6.27,5.49,10.45,5.49,1.05,0,2.1-.13,3.12-.39.03,0,.06-.02.09-.02,5.14-1.35,8.93-5.81,9.42-11.1l2.34-25.53c.39-4.19-1.33-8.29-4.59-10.97-2.24-1.85-5.11-2.88-8.05-2.88h0Z" fill="#fff6d0" stroke-width="0"/><path d="M683.26,111.84c.14,0,.28.04.4.13l17.73,12.66c.19.14.3.36.29.59-.01.23-.14.45-.34.56l-28.83,16.95c-.11.06-.23.09-.35.09-.16,0-.32-.05-.44-.16-.22-.19-.3-.5-.2-.77l11.1-29.61c.08-.2.24-.35.44-.42.07-.02.13-.03.2-.03M683.26,99.84c-1.22,0-2.43.18-3.61.52-.03.01-.07.02-.1.03-3.74,1.14-6.8,4.01-8.17,7.67l-11.11,29.62c-1.88,5.03-.38,10.72,3.72,14.17,2.27,1.91,5.18,2.97,8.16,2.97,2.25,0,4.47-.6,6.41-1.74l28.85-16.96c3.73-2.19,6.06-6.08,6.25-10.39.19-4.31-1.8-8.38-5.31-10.88l-17.71-12.65c-2.14-1.54-4.7-2.36-7.38-2.36h0Z" fill="#fff6d0" stroke-width="0"/><path d="M700.98,150.61c.14,0,.28.04.39.12.19.13.29.34.29.57v14.61c0,.22-.11.43-.28.56-.12.09-.26.13-.41.13-.07,0-.14-.01-.21-.03l-21.23-6.82c-.28-.09-.47-.35-.48-.64,0-.29.18-.56.45-.66l21.23-7.79c.08-.03.16-.04.24-.04M700.98,138.61c-1.5,0-2.98.26-4.39.78l-21.22,7.79c-5.08,1.86-8.43,6.75-8.32,12.17.11,5.41,3.65,10.16,8.8,11.82l21.24,6.82c1.24.4,2.55.61,3.88.61,2.71,0,5.29-.84,7.47-2.43,0,0,0,0,0,0,0,0,0,0,0,0,3.27-2.38,5.21-6.21,5.21-10.25v-14.61c0-4.14-2.03-8.03-5.42-10.4-2.15-1.5-4.66-2.29-7.27-2.29h0Z" fill="#fff6d0" stroke-width="0"/></g><path d="M687.82,258.62l-23.46-13.4s5.74-1.91,0-25.37c-5.74-23.46-19.63-33.51-25.37-42.13s-13.3-22.4-20.64-19.85c-7.35,2.55-10.54,11.82-7.66,18.2,2.87,6.39,15.01,20.76,15.01,20.76,0,0-47.9-47.58-55.89-55.25-7.98-7.66-32.25-4.15-18.2,12.77,14.05,16.93,42.79,45.99,42.79,45.99,0,0-43.11-43.75-53.97-53.65-10.86-9.9-29.06,6.71-10.86,23.31,18.2,16.61,47.58,45.67,47.58,45.67,0,0-45.03-48.54-58.76-43.11-13.73,5.43,2.55,19.94,7.66,25.62,5.11,5.68,38.96,39.85,38.96,39.85,0,0-27.78-26.83-38.32-34.49-10.54-7.66-18.2,7.98-8.3,16.93,9.9,8.94,35.13,36.73,43.11,46.31,7.98,9.58,50.78,21.72,50.78,21.72l17.56,27.78s46.02,2.24,57.98-57.64Z" fill="#ffdd73" stroke="#1c2126" stroke-linejoin="round" stroke-width="2"/><path d="M705.49,258.62l-23.46-13.4s5.74-1.91,0-25.37c-5.74-23.46-19.63-33.51-25.37-42.13s-13.3-22.4-20.64-19.85c-7.35,2.55-10.54,11.82-7.66,18.2,2.87,6.39,15.01,20.76,15.01,20.76,0,0-47.9-47.58-55.89-55.25-7.98-7.66-32.25-4.15-18.2,12.77,14.05,16.93,42.79,45.99,42.79,45.99,0,0-43.11-43.75-53.97-53.65-10.86-9.9-29.06,6.71-10.86,23.31,18.2,16.61,47.58,45.67,47.58,45.67,0,0-45.03-48.54-58.76-43.11-13.73,5.43,2.55,19.94,7.66,25.62s38.96,39.85,38.96,39.85c0,0-27.78-26.83-38.32-34.49-10.54-7.66-18.2,7.98-8.3,16.93s35.13,36.73,43.11,46.31c7.98,9.58,50.78,21.72,50.78,21.72l17.56,27.78s46.02,2.24,57.98-57.64Z" fill="#ffb916" stroke="#1c2126" stroke-linejoin="round" stroke-width="2"/><path d="M654.71,205.59c5.54,4.28,9.05,10.25,11.85,16.56,2.81,6.33,5.22,12.89,9.43,18.48,2.12,2.82,4.66,5.1,8.21,5.83l-2.16-1.24s5.74-1.91,0-25.37c-1.55-6.34-3.7-11.69-6.12-16.31-1.99,1.16-4.28,1.84-6.41,1.92-4.95.18-9.02-3.04-12.23-6.46-3.73-3.96-6.77-8.51-10.57-12.39-1.89-1.92-3.93-3.5-6.35-4.7-3.24-1.6-6.71-2.68-9.94-4.32-.65-.33-1.26-.69-1.85-1.08,2.46,5.07,9.93,14.41,13.22,18.41,4.12,3.78,8.5,7.26,12.94,10.67Z" fill="#1c2126" opacity=".1" stroke-width="0"/><path d="M660.13,289.28c-5.95-1.96-11.43-4.83-16.13-9-3.82-3.39-7.01-7.59-11.3-10.42-5.45-3.6-12.02-3.69-18.22-5.03-6.8-1.48-13.48-3.72-19.53-7.2-3.07-1.76-5.9-3.88-8.7-6.03-2.83-2.16-5.6-4.39-8.33-6.67-5.74-4.8-11.27-9.84-16.6-15.08-8.87-8.73-17.24-18.02-24.76-27.95-5.63,2.16-7.64,12.1-.49,18.55,9.9,8.94,35.13,36.73,43.11,46.31,7.98,9.58,50.78,21.72,50.78,21.72l17.56,27.78s25.31,1.22,43.27-22.57c-10.36-.26-20.81-1.17-30.65-4.41Z" fill="#1c2126" opacity=".1" stroke-width="0"/><polygon points="508.53 110.19 536.58 128.89 525.48 95.2 508.53 110.19" fill="#bffde7" stroke-width="0"/><polygon points="550.8 101.82 549.63 125.19 564.44 106.69 550.8 101.82" fill="#fff6d0" stroke-width="0"/><polygon points="499.96 122.66 518.86 138.63 494.51 137.72 499.96 122.66" fill="#ffd3bf" stroke-width="0"/><polygon points="640.99 118.38 655.21 139.02 657.55 113.51 640.99 118.38" fill="#fff6d0" stroke-width="0"/><polygon points="683.26 112.53 672.16 142.14 700.98 125.19 683.26 112.53" fill="#bffde7" stroke-width="0"/><polygon points="700.98 151.3 679.75 159.09 700.98 165.9 700.98 151.3" fill="#ffd3bf" stroke-width="0"/><g opacity=".2"><path d="M984.04,258.02l-22.56-12.89c1.57-1.75,3.85-7.41-.57-25.45-4.3-17.58-13.23-27.8-19.74-35.27-2.29-2.63-4.27-4.9-5.73-7.08-.74-1.1-1.5-2.29-2.29-3.52-5.45-8.47-12.24-19-19.15-16.6-2.7.94-4.98,2.77-6.61,5.25-3.52-3.99-7.27-6.57-11.06-5.25-3.09,1.08-5.64,3.32-7.29,6.38-10.26-10.16-19.72-19.49-22.88-22.52-4.8-4.6-14.97-5.37-20.28-1.86-5.74-3.13-14.67-2.97-18.82.89-.84.78-1.75,1.98-2.1,3.66-1.81.68-3.43,1.79-4.69,3.18-.05.06-.1.12-.16.18-.36-.34-.71-.66-1.02-.95-5.6-5.11-12.68-3.42-16.49.77-4.78,5.24-5.18,14.56,4.7,23.57,1.12,1.02,2.29,2.1,3.49,3.21-.49.4-.93.82-1.28,1.28-5.82-3.22-10.23-4.26-13.18-3.09-3.22,1.27-5.13,3.15-5.66,5.58-1.32,6.03,6.07,13.77,10.96,18.89.82.86,1.53,1.61,2.11,2.25,1.07,1.19,3.41,3.63,6.43,6.75-.17.34-.32.7-.45,1.06-1.67-1.38-3.17-2.56-4.42-3.47-5.17-3.76-9.42-2.12-11.68.67-3.39,4.18-3.39,11.99,2.51,17.33,9.81,8.86,34.88,36.44,43.04,46.24,7.79,9.35,46.97,20.75,50.87,21.87l17.42,27.56c.12.19.33.31.55.32.06,0,.33.01.76.01,2.01,0,7.72-.24,14.94-2.57l1.42,2.24c.12.19.33.31.55.32.06,0,.33.01.76.01,2.81,0,12.83-.46,24.1-6.46,21.73-11.58,30.39-34.53,33.83-51.75.06-.29-.08-.59-.33-.73Z" fill="#fff6d0" stroke-width="0"/><path d="M814.41,129.47c.12.08.25.12.38.12.15,0,.29-.05.42-.14.23-.18.33-.49.24-.76l-11.1-33.7c-.07-.22-.25-.39-.48-.45-.22-.06-.46,0-.64.15l-16.95,15c-.16.14-.25.35-.23.56.01.21.13.41.31.53l28.05,18.7Z" fill="#fff6d0" stroke-width="0"/><path d="M827.6,125.84c.08.03.16.04.24.04.21,0,.4-.09.54-.26l14.8-18.51c.14-.17.19-.4.12-.62-.06-.21-.22-.39-.43-.46l-13.64-4.87c-.21-.07-.43-.05-.61.08-.18.12-.29.32-.31.54l-1.17,23.37c-.01.3.16.57.44.68Z" fill="#fff6d0" stroke-width="0"/><path d="M797.07,139.32c.28,0,.54-.17.64-.44.11-.27.03-.59-.2-.78l-18.89-15.97c-.17-.15-.41-.2-.62-.14-.22.06-.39.22-.47.43l-5.45,15.06c-.07.21-.05.44.08.62.12.18.33.3.55.3l24.35.91s.02,0,.03,0Z" fill="#fff6d0" stroke-width="0"/><path d="M932.85,139.41c.13.19.34.3.57.3.06,0,.12,0,.17-.02.28-.07.49-.32.51-.6l2.34-25.52c.02-.23-.07-.45-.25-.6-.18-.15-.41-.19-.63-.13l-16.56,4.87c-.21.06-.38.22-.46.43-.07.21-.04.44.08.62l14.22,20.65Z" fill="#fff6d0" stroke-width="0"/><path d="M950.36,142.83c.12,0,.24-.03.35-.09l28.83-16.95c.2-.12.33-.33.34-.56.01-.23-.1-.46-.29-.59l-17.73-12.66c-.17-.13-.4-.16-.6-.1-.2.06-.37.22-.44.42l-11.1,29.61c-.1.27-.02.58.2.77.13.11.28.16.44.16Z" fill="#fff6d0" stroke-width="0"/><path d="M979.59,150.73c-.18-.13-.42-.16-.63-.08l-21.23,7.79c-.28.1-.46.37-.45.66s.2.55.48.64l21.23,6.82c.07.02.14.03.21.03.14,0,.29-.05.41-.13.18-.13.28-.34.28-.56v-14.61c0-.23-.11-.44-.29-.57Z" fill="#fff6d0" stroke-width="0"/><path d="M984.04,258.02l-22.56-12.89c1.57-1.75,3.85-7.41-.57-25.45-4.3-17.58-13.23-27.8-19.74-35.27-2.29-2.63-4.27-4.9-5.73-7.08-.74-1.1-1.5-2.29-2.29-3.52-5.45-8.47-12.24-19-19.15-16.6-2.7.94-4.98,2.77-6.61,5.25-3.52-3.99-7.27-6.57-11.06-5.25-3.09,1.08-5.64,3.32-7.29,6.38-10.26-10.16-19.72-19.49-22.88-22.52-4.8-4.6-14.97-5.37-20.28-1.86-5.74-3.13-14.67-2.97-18.82.89-.84.78-1.75,1.98-2.1,3.66-1.81.68-3.43,1.79-4.69,3.18-.05.06-.1.12-.16.18-.36-.34-.71-.66-1.02-.95-5.6-5.11-12.68-3.42-16.49.77-4.78,5.24-5.18,14.56,4.7,23.57,1.12,1.02,2.29,2.1,3.49,3.21-.49.4-.93.82-1.28,1.28-5.82-3.22-10.23-4.26-13.18-3.09-3.22,1.27-5.13,3.15-5.66,5.58-1.32,6.03,6.07,13.77,10.96,18.89.82.86,1.53,1.61,2.11,2.25,1.07,1.19,3.41,3.63,6.43,6.75-.17.34-.32.7-.45,1.06-1.67-1.38-3.17-2.56-4.42-3.47-5.17-3.76-9.42-2.12-11.68.67-3.39,4.18-3.39,11.99,2.51,17.33,9.81,8.86,34.88,36.44,43.04,46.24,7.79,9.35,46.97,20.75,50.87,21.87l17.42,27.56c.12.19.33.31.55.32.06,0,.33.01.76.01,2.01,0,7.72-.24,14.94-2.57l1.42,2.24c.12.19.33.31.55.32.06,0,.33.01.76.01,2.81,0,12.83-.46,24.1-6.46,21.73-11.58,30.39-34.53,33.83-51.75.06-.29-.08-.59-.33-.73Z" fill="#1c2126" stroke-width="0"/><path d="M814.41,129.47c.12.08.25.12.38.12.15,0,.29-.05.42-.14.23-.18.33-.49.24-.76l-11.1-33.7c-.07-.22-.25-.39-.48-.45-.22-.06-.46,0-.64.15l-16.95,15c-.16.14-.25.35-.23.56.01.21.13.41.31.53l28.05,18.7Z" fill="#1c2126" stroke-width="0"/><path d="M827.6,125.84c.08.03.16.04.24.04.21,0,.4-.09.54-.26l14.8-18.51c.14-.17.19-.4.12-.62-.06-.21-.22-.39-.43-.46l-13.64-4.87c-.21-.07-.43-.05-.61.08-.18.12-.29.32-.31.54l-1.17,23.37c-.01.3.16.57.44.68Z" fill="#1c2126" stroke-width="0"/><path d="M797.07,139.32c.28,0,.54-.17.64-.44.11-.27.03-.59-.2-.78l-18.89-15.97c-.17-.15-.41-.2-.62-.14-.22.06-.39.22-.47.43l-5.45,15.06c-.07.21-.05.44.08.62.12.18.33.3.55.3l24.35.91s.02,0,.03,0Z" fill="#1c2126" stroke-width="0"/><path d="M932.85,139.41c.13.19.34.3.57.3.06,0,.12,0,.17-.02.28-.07.49-.32.51-.6l2.34-25.52c.02-.23-.07-.45-.25-.6-.18-.15-.41-.19-.63-.13l-16.56,4.87c-.21.06-.38.22-.46.43-.07.21-.04.44.08.62l14.22,20.65Z" fill="#1c2126" stroke-width="0"/><path d="M950.36,142.83c.12,0,.24-.03.35-.09l28.83-16.95c.2-.12.33-.33.34-.56.01-.23-.1-.46-.29-.59l-17.73-12.66c-.17-.13-.4-.16-.6-.1-.2.06-.37.22-.44.42l-11.1,29.61c-.1.27-.02.58.2.77.13.11.28.16.44.16Z" fill="#1c2126" stroke-width="0"/><path d="M979.59,150.73c-.18-.13-.42-.16-.63-.08l-21.23,7.79c-.28.1-.46.37-.45.66s.2.55.48.64l21.23,6.82c.07.02.14.03.21.03.14,0,.29-.05.41-.13.18-.13.28-.34.28-.56v-14.61c0-.23-.11-.44-.29-.57Z" fill="#1c2126" stroke-width="0"/><path d="M854.37,137.02c4.4,0,9,1.38,11.79,4.05,3.15,3.02,12.61,12.36,22.88,22.52,1.65-3.06,4.2-5.31,7.29-6.38.68-.24,1.36-.35,2.04-.35,3.09,0,6.14,2.32,9.02,5.6,1.64-2.48,3.91-4.31,6.61-5.25.68-.24,1.36-.35,2.04-.35,6.2,0,12.2,9.31,17.11,16.94.79,1.23,1.56,2.42,2.29,3.52,1.46,2.18,3.44,4.45,5.73,7.08,6.51,7.47,15.43,17.69,19.74,35.27,4.42,18.04,2.14,23.71.57,25.45l22.56,12.89c.26.15.39.44.33.73-3.44,17.22-12.1,40.17-33.83,51.75-11.26,6-21.29,6.46-24.1,6.46-.44,0-.7-.01-.76-.01-.22-.01-.43-.13-.55-.32l-1.42-2.24c-7.22,2.34-12.93,2.57-14.94,2.57-.44,0-.7-.01-.76-.01-.22-.01-.43-.13-.55-.32l-17.42-27.56c-3.89-1.12-43.07-12.51-50.87-21.87-8.16-9.79-33.24-37.38-43.04-46.24-5.91-5.34-5.9-13.15-2.51-17.33,1.32-1.63,3.32-2.86,5.78-2.86,1.76,0,3.75.63,5.9,2.19,1.25.91,2.75,2.09,4.42,3.47.14-.37.28-.72.45-1.06-3.02-3.12-5.36-5.57-6.43-6.75-.58-.64-1.29-1.38-2.11-2.25-4.89-5.12-12.28-12.86-10.96-18.89.53-2.43,2.44-4.31,5.66-5.58.78-.31,1.67-.46,2.65-.46,2.73,0,6.25,1.19,10.53,3.56.35-.46.79-.88,1.28-1.28-1.2-1.11-2.37-2.19-3.49-3.21-9.88-9.01-9.48-18.33-4.7-23.57,2.15-2.36,5.34-3.93,8.72-3.93,2.61,0,5.33.93,7.77,3.16.31.28.66.61,1.02.95.05-.06.1-.12.16-.18,1.26-1.38,2.88-2.49,4.69-3.17.35-1.68,1.25-2.88,2.1-3.66,2.23-2.07,5.84-3.08,9.6-3.08,3.23,0,6.57.74,9.22,2.19,2.23-1.47,5.31-2.19,8.49-2.19M854.37,125.02c-2.42,0-5.52.26-8.75,1.24-2.86-.81-5.91-1.23-8.96-1.23-7.1,0-13.41,2.23-17.77,6.29-.26.24-.5.48-.75.73-2.19-.68-4.47-1.03-6.82-1.03-6.63,0-13.04,2.86-17.59,7.84-4.89,5.36-7.14,12.65-6.18,20.01.14,1.1.38,2.33.74,3.64-6.52,3.82-8.65,9.24-9.34,12.42-1.68,7.65,1.6,14.62,5.92,20.48-.2.22-.39.45-.58.68-3.7,4.56-5.47,10.75-4.85,16.98.64,6.38,3.71,12.35,8.64,16.81,9.29,8.4,34.1,35.69,41.87,45.01,3.25,3.9,9.81,9.42,31.96,17.6,7.95,2.94,15.65,5.37,20.4,6.81l15.01,23.75c2.22,3.5,6,5.7,10.12,5.89.03,0,.05,0,.08,0,.13,0,.56.02,1.26.02,1.9,0,6.05-.16,11.45-1.26,1.51.72,3.16,1.15,4.88,1.24.03,0,.05,0,.08,0,.13,0,.56.02,1.26.02,4.5,0,16.41-.77,29.74-7.87,14.28-7.61,32.8-24.19,39.95-59.99,1.07-5.37-1.4-10.79-6.14-13.5l-14.56-8.32c.34-5.92-.63-13.3-2.87-22.46-5-20.41-15.44-32.38-22.35-40.3-2.02-2.32-3.77-4.32-4.79-5.85-.7-1.05-1.46-2.23-2.19-3.36-6.44-10-14.46-22.45-27.2-22.45-2.03,0-4.04.34-5.98,1.01-.97.34-1.91.73-2.81,1.18-4.23-2.19-7.45-2.19-8.88-2.19-2.03,0-4.04.34-5.98,1.01-1.01.35-1.99.77-2.94,1.25-7.84-7.75-12.87-12.68-14.97-14.7-4.9-4.7-12.22-7.4-20.1-7.4h0Z" fill="#fff6d0" stroke-width="0"/><path d="M803.69,94.51c.06,0,.12,0,.18.02.22.06.4.23.48.45l11.1,33.7c.09.28,0,.59-.24.76-.12.09-.27.14-.42.14-.13,0-.27-.04-.38-.12l-28.05-18.7c-.18-.12-.29-.31-.31-.53-.01-.21.07-.42.23-.56l16.95-15c.13-.11.29-.17.46-.17M803.69,82.51c-3.1,0-6.08,1.13-8.41,3.18l-16.95,15c-2.92,2.59-4.51,6.46-4.25,10.34.27,3.93,2.38,7.55,5.63,9.72l28.05,18.7c2.07,1.39,4.52,2.13,7.04,2.13,2.76,0,5.49-.92,7.68-2.59,4.3-3.27,6.06-8.92,4.37-14.06l-11.11-33.71c-1.34-4.06-4.6-7.16-8.73-8.28-.02,0-.05-.01-.07-.02-1.06-.28-2.15-.42-3.25-.42h0Z" fill="#fff6d0" stroke-width="0"/><path d="M829.01,101.13c.08,0,.16.01.23.04l13.64,4.87c.21.07.37.25.43.46.06.21.01.45-.12.62l-14.8,18.51c-.13.17-.33.26-.54.26-.08,0-.16-.01-.24-.04-.28-.11-.46-.38-.44-.68l1.17-23.37c.01-.22.12-.42.31-.54.12-.08.25-.12.38-.12M829.01,89.13c-2.5,0-4.93.73-7.02,2.12-3.35,2.23-5.46,5.95-5.66,9.94l-1.17,23.37c-.27,5.52,3.01,10.54,8.17,12.5,1.48.55,2.98.83,4.51.83,3.87,0,7.48-1.73,9.9-4.75l14.81-18.52c2.56-3.21,3.41-7.46,2.3-11.37-1.12-3.96-4.09-7.13-7.96-8.51l-13.62-4.86c-1.38-.49-2.81-.74-4.27-.74h0Z" fill="#fff6d0" stroke-width="0"/><path d="M778.17,121.97c.16,0,.32.06.44.16l18.89,15.97c.22.19.3.5.2.78-.1.27-.36.44-.64.44,0,0-.02,0-.03,0l-24.35-.92c-.22,0-.42-.12-.55-.3-.12-.18-.15-.41-.08-.62l5.45-15.06c.08-.21.25-.37.47-.43.06-.02.12-.02.18-.02M778.17,109.97c-1.13,0-2.26.15-3.35.45-3.97,1.09-7.18,4.04-8.58,7.92l-5.45,15.06c-1.37,3.81-.85,8.07,1.41,11.42,2.25,3.34,6.01,5.44,10.06,5.59l24.34.91c.16,0,.32,0,.48,0,5.2,0,9.96-3.26,11.83-8.11,1.96-5.04.49-10.78-3.64-14.28l-18.89-15.97c-2.29-1.94-5.2-3-8.19-3h0Z" fill="#fff6d0" stroke-width="0"/><path d="M935.75,112.82c.16,0,.31.05.44.16.18.14.27.37.25.6l-2.34,25.52c-.03.29-.23.53-.51.6-.06.01-.12.02-.17.02-.22,0-.44-.11-.57-.3l-14.22-20.65c-.13-.18-.16-.41-.08-.62.07-.21.24-.37.46-.43l16.56-4.87c.06-.02.13-.03.19-.03M935.75,100.82c-1.21,0-2.4.17-3.56.51l-16.58,4.88c-3.88,1.14-7.02,4.1-8.38,7.93-1.36,3.82-.79,8.1,1.52,11.45l14.21,20.64c2.36,3.44,6.27,5.49,10.45,5.49,1.05,0,2.1-.13,3.12-.39.03,0,.06-.02.09-.02,5.14-1.35,8.93-5.81,9.42-11.1l2.34-25.53c.39-4.19-1.33-8.29-4.59-10.97-2.25-1.85-5.11-2.88-8.05-2.88h0Z" fill="#fff6d0" stroke-width="0"/><path d="M961.47,111.84c.14,0,.28.04.4.13l17.73,12.66c.19.14.3.36.29.59-.01.23-.14.45-.34.56l-28.83,16.95c-.11.06-.23.09-.35.09-.16,0-.32-.05-.44-.16-.22-.19-.3-.5-.2-.77l11.1-29.61c.08-.2.24-.35.44-.42.07-.02.13-.03.2-.03M961.47,99.84c-1.22,0-2.43.18-3.6.52-.03.01-.07.02-.1.03-3.74,1.14-6.8,4.01-8.17,7.68l-11.11,29.61c-1.88,5.03-.38,10.72,3.72,14.17,2.27,1.91,5.18,2.97,8.16,2.97,2.25,0,4.47-.6,6.41-1.74l28.85-16.96c3.73-2.19,6.06-6.08,6.25-10.39.19-4.31-1.8-8.38-5.32-10.88l-17.71-12.65c-2.14-1.54-4.7-2.36-7.38-2.36h0Z" fill="#fff6d0" stroke-width="0"/><path d="M979.19,150.61c.14,0,.28.04.39.12.19.13.29.34.29.57v14.61c0,.22-.1.43-.28.56-.12.09-.26.13-.41.13-.07,0-.14-.01-.21-.03l-21.23-6.82c-.28-.09-.47-.35-.48-.64s.18-.56.45-.66l21.23-7.79c.08-.03.16-.04.24-.04M979.19,138.61c-1.5,0-2.98.26-4.39.78l-21.22,7.79c-5.08,1.86-8.43,6.75-8.32,12.17.11,5.41,3.65,10.16,8.8,11.82l21.24,6.82c1.24.4,2.55.61,3.88.61,2.69,0,5.27-.83,7.45-2.41,3.28-2.38,5.24-6.22,5.24-10.28v-14.61c0-4.14-2.03-8.03-5.42-10.4-2.15-1.5-4.66-2.29-7.27-2.29h0Z" fill="#fff6d0" stroke-width="0"/></g><path d="M966.03,258.62l-23.46-13.4s5.74-1.91,0-25.37c-5.74-23.46-19.63-33.51-25.37-42.13s-13.3-22.4-20.64-19.85c-7.35,2.55-10.54,11.82-7.66,18.2,2.87,6.39,15.01,20.76,15.01,20.76,0,0-47.9-47.58-55.89-55.25-7.98-7.66-32.25-4.15-18.2,12.77,14.05,16.93,42.79,45.99,42.79,45.99,0,0-43.11-43.75-53.97-53.65-10.86-9.9-29.06,6.71-10.86,23.31,18.2,16.61,47.58,45.67,47.58,45.67,0,0-45.03-48.54-58.76-43.11-13.73,5.43,2.55,19.94,7.66,25.62,5.11,5.68,38.96,39.85,38.96,39.85,0,0-27.78-26.83-38.32-34.49-10.54-7.66-18.2,7.98-8.3,16.93,9.9,8.94,35.13,36.73,43.11,46.31,7.98,9.58,50.78,21.72,50.78,21.72l17.56,27.78s46.02,2.24,57.98-57.64Z" fill="#ffdd73" stroke="#1c2126" stroke-linejoin="round" stroke-width="2"/><path d="M983.7,258.62l-23.46-13.4s5.74-1.91,0-25.37c-5.74-23.46-19.63-33.51-25.37-42.13s-13.3-22.4-20.64-19.85c-7.35,2.55-10.54,11.82-7.66,18.2,2.87,6.39,15.01,20.76,15.01,20.76,0,0-47.9-47.58-55.89-55.25-7.98-7.66-32.25-4.15-18.2,12.77,14.05,16.93,42.79,45.99,42.79,45.99,0,0-43.11-43.75-53.97-53.65-10.86-9.9-29.06,6.71-10.86,23.31,18.2,16.61,47.58,45.67,47.58,45.67,0,0-45.03-48.54-58.76-43.11-13.73,5.43,2.55,19.94,7.66,25.62s38.96,39.85,38.96,39.85c0,0-27.78-26.83-38.32-34.49-10.54-7.66-18.2,7.98-8.3,16.93,9.9,8.94,35.13,36.73,43.11,46.31,7.98,9.58,50.78,21.72,50.78,21.72l17.56,27.78s46.02,2.24,57.98-57.64Z" fill="#ffb916" stroke="#1c2126" stroke-linejoin="round" stroke-width="2"/><path d="M932.92,205.59c5.54,4.28,9.05,10.25,11.85,16.56,2.81,6.33,5.22,12.89,9.43,18.48,2.12,2.82,4.66,5.1,8.21,5.83l-2.16-1.24s5.74-1.91,0-25.37c-1.55-6.34-3.7-11.69-6.12-16.31-1.99,1.16-4.28,1.84-6.41,1.92-4.95.18-9.02-3.04-12.23-6.46-3.73-3.96-6.77-8.51-10.57-12.39-1.89-1.92-3.93-3.5-6.35-4.7-3.24-1.6-6.71-2.68-9.94-4.32-.65-.33-1.26-.69-1.85-1.08,2.46,5.07,9.93,14.41,13.22,18.41,4.12,3.78,8.5,7.26,12.94,10.67Z" fill="#1c2126" opacity=".1" stroke-width="0"/><path d="M938.33,289.28c-5.95-1.96-11.43-4.83-16.13-9-3.82-3.39-7.01-7.59-11.3-10.42-5.45-3.6-12.02-3.69-18.22-5.03-6.8-1.48-13.48-3.72-19.53-7.2-3.07-1.76-5.9-3.88-8.7-6.03-2.83-2.16-5.6-4.39-8.33-6.67-5.74-4.8-11.27-9.84-16.6-15.08-8.87-8.73-17.24-18.02-24.76-27.95-5.63,2.16-7.64,12.1-.49,18.55,9.9,8.94,35.13,36.73,43.11,46.31,7.98,9.58,50.78,21.72,50.78,21.72l17.56,27.78s25.31,1.22,43.27-22.57c-10.36-.26-20.81-1.17-30.65-4.41Z" fill="#1c2126" opacity=".1" stroke-width="0"/><polygon points="786.74 110.19 814.79 128.89 803.69 95.2 786.74 110.19" fill="#bffde7" stroke-width="0"/><polygon points="829.01 101.82 827.84 125.19 842.65 106.69 829.01 101.82" fill="#fff6d0" stroke-width="0"/><polygon points="778.17 122.66 797.07 138.63 772.72 137.72 778.17 122.66" fill="#ffd3bf" stroke-width="0"/><polygon points="919.2 118.38 933.42 139.02 935.75 113.51 919.2 118.38" fill="#fff6d0" stroke-width="0"/><polygon points="961.47 112.53 950.36 142.14 979.19 125.19 961.47 112.53" fill="#bffde7" stroke-width="0"/><polygon points="979.19 151.3 957.96 159.09 979.19 165.9 979.19 151.3" fill="#ffd3bf" stroke-width="0"/></g></svg>