<?xml version="1.0" encoding="UTF-8"?><svg xmlns="http://www.w3.org/2000/svg" viewBox="0 0 1200 630"><g id="b"><rect width="1200" height="498.72" fill="#ffdd73" stroke-width="0"/></g><g id="d"><path d="M67.52,440.17l10.7-67.36h31.24c8.92,0,15.3,1.96,19.16,5.88s5.21,9.47,4.06,16.67c-.64,4.14-2.17,7.75-4.59,10.84-2.42,3.09-5.57,5.49-9.46,7.21-3.89,1.72-8.34,2.58-13.38,2.58l.19-2.77h5.06c2.8,0,5.17.81,7.12,2.44,1.94,1.62,3.45,3.74,4.54,6.35l7.55,18.15h-21.5l-8.22-21.21c-.38-.96-1.19-1.64-2.44-2.05-1.24-.41-2.47-.62-3.68-.62h-1.91l-3.82,23.88h-20.64ZM94.27,401.86h9.27c2.93,0,5.16-.54,6.69-1.62,1.53-1.08,2.45-2.67,2.77-4.78.38-2.42-.1-4.19-1.43-5.3-1.34-1.11-3.44-1.67-6.3-1.67h-8.89l-2.1,13.38Z" fill="#1c2126" stroke-width="0"/><path d="M168.22,441.31c-6.37,0-11.82-1.1-16.34-3.3-4.52-2.2-7.79-5.6-9.79-10.22-2.01-4.62-2.44-10.52-1.29-17.72l5.92-37.26h20.64l-6.11,38.69c-.64,4.08-.27,7.21,1.1,9.41,1.37,2.2,4.06,3.3,8.07,3.3,3.63,0,6.38-1.11,8.26-3.34,1.88-2.23,3.14-5.48,3.77-9.75l6.11-38.31h20.25l-6.21,38.98c-1.02,6.43-2.85,11.85-5.49,16.24-2.64,4.4-6.32,7.71-11.04,9.94-4.71,2.23-10.67,3.34-17.87,3.34Z" fill="#1c2126" stroke-width="0"/><path d="M208.72,440.17l10.7-67.36h15.1l25.22,39.08-2.96-1.34,6.02-37.74h19.2l-10.7,67.36h-15.1l-25.13-39.08,2.96,1.34-6.02,37.74h-19.3Z" fill="#1c2126" stroke-width="0"/><path d="M302.06,440.17l42.71-67.36h16.72l21.5,67.36h-19.97l-5.16-18.25,6.88,5.73h-39.08l8.5-5.73-10.89,18.25h-21.21ZM350.41,393.83l-13.57,23.6-2.01-5.35h25.7l-3.44,5.35-6.21-23.6h-.48Z" fill="#1c2126" stroke-width="0"/><path d="M385.28,440.17l10.7-67.36h31.24c8.92,0,15.3,1.96,19.16,5.88s5.21,9.47,4.06,16.67c-.64,4.14-2.17,7.75-4.59,10.84-2.42,3.09-5.57,5.49-9.46,7.21-3.89,1.72-8.34,2.58-13.38,2.58l.19-2.77h5.06c2.8,0,5.17.81,7.12,2.44,1.94,1.62,3.45,3.74,4.54,6.35l7.55,18.15h-21.5l-8.22-21.21c-.38-.96-1.19-1.64-2.44-2.05-1.24-.41-2.47-.62-3.68-.62h-1.91l-3.82,23.88h-20.64ZM412.03,401.86h9.27c2.93,0,5.16-.54,6.69-1.62,1.53-1.08,2.45-2.67,2.77-4.78.38-2.42-.1-4.19-1.43-5.3-1.34-1.11-3.44-1.67-6.3-1.67h-8.89l-2.1,13.38Z" fill="#1c2126" stroke-width="0"/><path d="M454.07,440.17l10.7-67.36h31.24c8.92,0,15.3,1.96,19.16,5.88s5.21,9.47,4.06,16.67c-.64,4.14-2.17,7.75-4.59,10.84-2.42,3.09-5.57,5.49-9.46,7.21-3.89,1.72-8.34,2.58-13.38,2.58l.19-2.77h5.06c2.8,0,5.17.81,7.12,2.44,1.94,1.62,3.45,3.74,4.54,6.35l7.55,18.15h-21.5l-8.22-21.21c-.38-.96-1.19-1.64-2.44-2.05-1.24-.41-2.47-.62-3.68-.62h-1.91l-3.82,23.88h-20.64ZM480.82,401.86h9.27c2.93,0,5.16-.54,6.69-1.62,1.53-1.08,2.45-2.67,2.77-4.78.38-2.42-.1-4.19-1.43-5.3-1.34-1.11-3.44-1.67-6.3-1.67h-8.89l-2.1,13.38Z" fill="#1c2126" stroke-width="0"/><path d="M512.63,440.17l42.71-67.36h16.72l21.5,67.36h-19.97l-5.16-18.25,6.88,5.73h-39.08l8.5-5.73-10.89,18.25h-21.21ZM560.97,393.83l-13.57,23.6-2.01-5.35h25.7l-3.44,5.35-6.21-23.6h-.48Z" fill="#1c2126" stroke-width="0"/><path d="M605.88,440.17l5.16-32.39,2.2,11.08-23.41-46.05h23.02l11.56,25.03h-3.92l19.68-25.03h23.69l-38.12,47.01,5.92-12.04-5.16,32.39h-20.64Z" fill="#1c2126" stroke-width="0"/><path d="M701.7,440.17l-13.57-67.36h20.54l7.07,45h-4.68l23.41-45h14.62l7.26,45h-4.49l22.83-45h20.54l-35.06,67.36h-16.34l-7.55-39.36h2.2l-20.35,39.36h-16.43Z" fill="#1c2126" stroke-width="0"/><path d="M790.84,440.17l10.7-67.36h20.64l-10.7,67.36h-20.64Z" fill="#1c2126" stroke-width="0"/><path d="M837.65,440.17l8.03-50.73h-19.49l2.67-16.62h59.62l-2.67,16.62h-19.49l-8.03,50.73h-20.64Z" fill="#1c2126" stroke-width="0"/><path d="M884.46,440.17l10.7-67.36h20.64l-4.01,24.84h23.02l4.01-24.84h20.64l-10.7,67.36h-20.64l4.11-25.7h-23.03l-4.11,25.7h-20.64Z" fill="#1c2126" stroke-width="0"/><path d="M988.6,440.17l10.7-67.36h17.96l13.18,45.76h-3.25l27.71-45.76h17.96l-10.7,67.36h-18.63l5.73-36.4h4.59l-22.93,36.4h-11.37l-11.46-36.4h4.87l-5.73,36.4h-18.63Z" fill="#1c2126" stroke-width="0"/><path d="M1073.53,440.17l10.7-67.36h49.97l-2.48,15.67h-30.29l-1.53,9.65h27.99l-2.48,15.67h-27.99l-1.72,10.7h30.29l-2.48,15.67h-49.97Z" fill="#1c2126" stroke-width="0"/><path d="M261.34,205.68h-52.02c-11.95,0-21.66-9.72-21.66-21.66v-73.77c0-11.94,9.72-21.66,21.66-21.66h52.02c11.94,0,21.66,9.72,21.66,21.66v73.77c0,11.94-9.72,21.66-21.66,21.66ZM209.33,103.42c-3.77,0-6.83,3.07-6.83,6.83v73.77c0,3.77,3.07,6.83,6.83,6.83h52.02c3.77,0,6.83-3.07,6.83-6.83v-73.77c0-3.77-3.06-6.83-6.83-6.83h-52.02Z" fill="#b7790b" stroke="#1c2126" stroke-linejoin="round" stroke-width="2"/><rect x="93.93" y="128.82" width="282.8" height="176.2" rx="24.55" ry="24.55" fill="#b7790b" stroke="#1c2126" stroke-linejoin="round" stroke-width="2"/><path d="M352.19,128.82h-16.37c0,22.6,18.32,40.92,40.92,40.92v-16.37c0-13.56-10.99-24.55-24.55-24.55Z" fill="#7a4804" stroke="#1c2126" stroke-linejoin="round" stroke-width="2"/><path d="M376.73,280.48v-16.37c-22.6,0-40.92,18.32-40.92,40.92h16.37c13.56,0,24.55-10.99,24.55-24.55Z" fill="#7a4804" stroke="#1c2126" stroke-linejoin="round" stroke-width="2"/><path d="M93.93,264.1v16.37c0,13.56,10.99,24.55,24.55,24.55h16.37c0-22.6-18.32-40.92-40.92-40.92Z" fill="#7a4804" stroke="#1c2126" stroke-linejoin="round" stroke-width="2"/><path d="M93.93,153.37v16.37c22.6,0,40.92-18.32,40.92-40.92h-16.37c-13.56,0-24.55,10.99-24.55,24.55Z" fill="#7a4804" stroke="#1c2126" stroke-linejoin="round" stroke-width="2"/><rect x="102" y="135.42" width="266.66" height="163" rx="22.93" ry="22.93" fill="none" stroke="#1c2126" stroke-dasharray="0 8" stroke-linecap="round" stroke-linejoin="round" stroke-width="2"/><rect x="144.86" y="126.28" width="17.54" height="181.28" fill="#db4648" stroke="#1c2126" stroke-linecap="round" stroke-linejoin="round" stroke-width="2"/><polygon points="162.4 228.88 153.63 234.72 144.86 228.88 144.86 126.28 162.4 126.28 162.4 228.88" fill="#ff6b60" stroke="#1c2126" stroke-miterlimit="10" stroke-width="2"/><rect x="309.1" y="126.28" width="17.54" height="181.28" fill="#db4648" stroke="#1c2126" stroke-linecap="round" stroke-linejoin="round" stroke-width="2"/><polygon points="326.65 228.88 317.87 234.72 309.1 228.88 309.1 126.28 326.65 126.28 326.65 228.88" fill="#ff6b60" stroke="#1c2126" stroke-miterlimit="10" stroke-width="2"/><circle cx="153.63" cy="216.74" r="1" fill="#1c2126" stroke-width="0"/><circle cx="153.63" cy="205.49" r="1" fill="#1c2126" stroke-width="0"/><circle cx="153.63" cy="194.25" r="1" fill="#1c2126" stroke-width="0"/><line x1="141.71" y1="183.98" x2="166.37" y2="183.98" fill="#ff6b60" stroke="#1c2126" stroke-linecap="round" stroke-linejoin="round" stroke-width="2"/><line x1="153.63" y1="179.45" x2="153.63" y2="183.98" fill="#ff6b60" stroke="#1c2126" stroke-linecap="round" stroke-linejoin="round" stroke-width="2"/><circle cx="318" cy="216.74" r="1" fill="#1c2126" stroke-width="0"/><circle cx="318" cy="205.49" r="1" fill="#1c2126" stroke-width="0"/><circle cx="318" cy="194.25" r="1" fill="#1c2126" stroke-width="0"/><line x1="306.07" y1="183.98" x2="330.74" y2="183.98" fill="#ff6b60" stroke="#1c2126" stroke-linecap="round" stroke-linejoin="round" stroke-width="2"/><line x1="318" y1="179.45" x2="318" y2="183.98" fill="#ff6b60" stroke="#1c2126" stroke-linecap="round" stroke-linejoin="round" stroke-width="2"/><path d="M161.19,67.02c-.86-.86-2-1.37-3.15-1.77-2.01-.71-4.26-1.19-6.24-.4-2.08.83-3.41,2.88-4.22,4.96-.72,1.86-1.12,3.85-1.2,5.84-2.06-1.89-4.56-3.38-7.32-3.85-2.79-.48-5.85.21-7.89,2.17-2.04,1.96-2.81,5.27-1.47,7.77,1.28,2.39,4.01,3.56,6.54,4.54,6.33,2.44,12.69,4.78,19.09,7.01,2.01-5.35,4.02-10.71,6.03-16.06,1.27-3.38,2.37-7.65-.17-10.21Z" fill="#ff6b60" stroke="#1c2126" stroke-linejoin="round" stroke-width="2"/><path d="M197.04,51.89c-.08-1.21-.63-2.34-1.23-3.4-1.06-1.85-2.45-3.68-4.47-4.38-2.11-.73-4.46-.05-6.44,1-1.76.94-3.36,2.19-4.72,3.64-.33-2.78-1.25-5.54-3.03-7.69-1.8-2.18-4.57-3.66-7.4-3.51-2.83.16-5.57,2.16-6.19,4.92-.59,2.65.71,5.31,1.99,7.7,3.2,5.98,6.49,11.9,9.88,17.77,5.02-2.74,10.04-5.48,15.06-8.23,3.17-1.73,6.79-4.24,6.54-7.84Z" fill="#db4648" stroke="#1c2126" stroke-linecap="round" stroke-linejoin="round" stroke-width="2"/><polygon points="278.84 166.57 254.62 166.48 238.54 186.99 238.3 253.26 294.51 253.47 294.76 187.2 278.84 166.57" fill="#1c2126" opacity=".2" stroke="#1c2126" stroke-linejoin="round" stroke-width="2"/><polygon points="273.32 161.28 249.11 161.19 233.03 181.69 232.78 247.96 289 248.17 289.25 181.9 273.32 161.28" fill="#ffb916" stroke="#1c2126" stroke-linejoin="round" stroke-width="2"/><path d="M260.07,221.73c-3.31,0-5.85-1.26-7.64-3.78-1.79-2.52-2.68-6.11-2.69-10.78,0-4.72.89-8.31,2.68-10.76,1.79-2.45,4.33-3.68,7.64-3.68,3.33,0,5.89,1.22,7.66,3.68,1.77,2.45,2.66,6.03,2.67,10.72,0,4.69-.88,8.3-2.66,10.82-1.77,2.52-4.33,3.78-7.66,3.78ZM260.07,217.49c1.81,0,3.16-.83,4.04-2.5s1.32-4.29,1.32-7.86c0-2.4-.2-4.35-.58-5.84-.39-1.49-.98-2.59-1.78-3.3-.8-.71-1.8-1.06-3-1.06-1.79,0-3.13.81-4.02,2.42-.89,1.61-1.34,4.21-1.34,7.78,0,2.37.2,4.33.6,5.86.4,1.53.99,2.67,1.78,3.4.79.73,1.78,1.1,2.98,1.1Z" fill="#1c2126" stroke-width="0"/><line x1="261.02" y1="161.23" x2="261.02" y2="128.82" fill="#ffb916" stroke="#1c2126" stroke-linecap="round" stroke-linejoin="round" stroke-width="2"/><path d="M624.88,205.68h-52.02c-11.95,0-21.66-9.72-21.66-21.66v-73.77c0-11.94,9.72-21.66,21.66-21.66h52.02c11.94,0,21.66,9.72,21.66,21.66v73.77c0,11.94-9.72,21.66-21.66,21.66ZM572.86,103.42c-3.77,0-6.83,3.07-6.83,6.83v73.77c0,3.77,3.07,6.83,6.83,6.83h52.02c3.77,0,6.83-3.07,6.83-6.83v-73.77c0-3.77-3.06-6.83-6.83-6.83h-52.02Z" fill="#b7790b" stroke="#1c2126" stroke-linejoin="round" stroke-width="2"/><rect x="457.47" y="128.82" width="282.8" height="176.2" rx="24.55" ry="24.55" fill="#b7790b" stroke="#1c2126" stroke-linejoin="round" stroke-width="2"/><path d="M715.73,128.82h-16.37c0,22.6,18.32,40.92,40.92,40.92v-16.37c0-13.56-10.99-24.55-24.55-24.55Z" fill="#7a4804" stroke="#1c2126" stroke-linejoin="round" stroke-width="2"/><path d="M740.27,280.48v-16.37c-22.6,0-40.92,18.32-40.92,40.92h16.37c13.56,0,24.55-10.99,24.55-24.55Z" fill="#7a4804" stroke="#1c2126" stroke-linejoin="round" stroke-width="2"/><path d="M457.47,264.1v16.37c0,13.56,10.99,24.55,24.55,24.55h16.37c0-22.6-18.32-40.92-40.92-40.92Z" fill="#7a4804" stroke="#1c2126" stroke-linejoin="round" stroke-width="2"/><path d="M457.47,153.37v16.37c22.6,0,40.92-18.32,40.92-40.92h-16.37c-13.56,0-24.55,10.99-24.55,24.55Z" fill="#7a4804" stroke="#1c2126" stroke-linejoin="round" stroke-width="2"/><rect x="465.54" y="135.42" width="266.66" height="163" rx="22.93" ry="22.93" fill="none" stroke="#1c2126" stroke-dasharray="0 8" stroke-linecap="round" stroke-linejoin="round" stroke-width="2"/><rect x="510.47" y="126.47" width="17.54" height="181.28" fill="#db4648" stroke="#1c2126" stroke-linecap="round" stroke-linejoin="round" stroke-width="2"/><polygon points="528.01 229.07 519.24 234.91 510.47 229.07 510.47 126.47 528.01 126.47 528.01 229.07" fill="#ff6b60" stroke="#1c2126" stroke-miterlimit="10" stroke-width="2"/><rect x="674.71" y="126.47" width="17.54" height="181.28" fill="#db4648" stroke="#1c2126" stroke-linecap="round" stroke-linejoin="round" stroke-width="2"/><polygon points="692.26 229.07 683.49 234.91 674.71 229.07 674.71 126.47 692.26 126.47 692.26 229.07" fill="#ff6b60" stroke="#1c2126" stroke-miterlimit="10" stroke-width="2"/><circle cx="519.24" cy="216.92" r="1" fill="#1c2126" stroke-width="0"/><circle cx="519.24" cy="205.68" r="1" fill="#1c2126" stroke-width="0"/><circle cx="519.24" cy="194.44" r="1" fill="#1c2126" stroke-width="0"/><line x1="507.32" y1="184.17" x2="531.98" y2="184.17" fill="#ff6b60" stroke="#1c2126" stroke-linecap="round" stroke-linejoin="round" stroke-width="2"/><line x1="519.24" y1="179.64" x2="519.24" y2="184.17" fill="#ff6b60" stroke="#1c2126" stroke-linecap="round" stroke-linejoin="round" stroke-width="2"/><circle cx="683.61" cy="216.92" r="1" fill="#1c2126" stroke-width="0"/><circle cx="683.61" cy="205.68" r="1" fill="#1c2126" stroke-width="0"/><circle cx="683.61" cy="194.44" r="1" fill="#1c2126" stroke-width="0"/><line x1="671.68" y1="184.17" x2="696.35" y2="184.17" fill="#ff6b60" stroke="#1c2126" stroke-linecap="round" stroke-linejoin="round" stroke-width="2"/><line x1="683.61" y1="179.64" x2="683.61" y2="184.17" fill="#ff6b60" stroke="#1c2126" stroke-linecap="round" stroke-linejoin="round" stroke-width="2"/><path d="M704.32,85.5c0-1.22-.48-2.38-1.01-3.47-.94-1.92-2.22-3.83-4.18-4.65-2.06-.86-4.45-.32-6.49.6-1.82.83-3.49,1.97-4.94,3.34-.16-2.79-.9-5.61-2.54-7.87-1.66-2.29-4.33-3.94-7.16-3.96-2.83-.02-5.69,1.81-6.49,4.53-.76,2.6.38,5.35,1.5,7.81,2.82,6.16,5.74,12.28,8.75,18.36,5.18-2.42,10.36-4.85,15.54-7.27,3.27-1.53,7.04-3.81,7.02-7.42Z" fill="#ff6b60" stroke="#1c2126" stroke-linejoin="round" stroke-width="2"/><polygon points="642.37 166.57 618.16 166.48 602.08 186.99 601.83 253.26 658.05 253.47 658.3 187.2 642.37 166.57" fill="#1c2126" opacity=".2" stroke="#1c2126" stroke-linejoin="round" stroke-width="2"/><polygon points="636.86 161.28 612.65 161.19 596.57 181.69 596.32 247.96 652.54 248.17 652.79 181.9 636.86 161.28" fill="#ffb916" stroke="#1c2126" stroke-linejoin="round" stroke-width="2"/><path d="M616.05,221.33v-4.28s6.48,0,6.48,0v-19.6s2.47,0,2.47,0l-8.32,4.96v-4.88s7.32-4.4,7.32-4.4h3.68s.01,23.92.01,23.92h6.08s0,4.28,0,4.28h-17.72Z" fill="#1c2126" stroke-width="0"/><line x1="624.55" y1="161.23" x2="624.55" y2="128.82" fill="#ffb916" stroke="#1c2126" stroke-linecap="round" stroke-linejoin="round" stroke-width="2"/><path d="M989.09,205.68h-52.02c-11.95,0-21.66-9.72-21.66-21.66v-73.77c0-11.94,9.72-21.66,21.66-21.66h52.02c11.94,0,21.66,9.72,21.66,21.66v73.77c0,11.94-9.72,21.66-21.66,21.66ZM937.08,103.42c-3.77,0-6.83,3.07-6.83,6.83v73.77c0,3.77,3.07,6.83,6.83,6.83h52.02c3.77,0,6.83-3.07,6.83-6.83v-73.77c0-3.77-3.06-6.83-6.83-6.83h-52.02Z" fill="#b7790b" stroke="#1c2126" stroke-linejoin="round" stroke-width="2"/><rect x="821.68" y="128.82" width="282.8" height="176.2" rx="24.55" ry="24.55" fill="#b7790b" stroke="#1c2126" stroke-linejoin="round" stroke-width="2"/><path d="M1079.94,128.82h-16.37c0,22.6,18.32,40.92,40.92,40.92v-16.37c0-13.56-10.99-24.55-24.55-24.55Z" fill="#7a4804" stroke="#1c2126" stroke-linejoin="round" stroke-width="2"/><path d="M1104.48,280.48v-16.37c-22.6,0-40.92,18.32-40.92,40.92h16.37c13.56,0,24.55-10.99,24.55-24.55Z" fill="#7a4804" stroke="#1c2126" stroke-linejoin="round" stroke-width="2"/><path d="M821.68,264.1v16.37c0,13.56,10.99,24.55,24.55,24.55h16.37c0-22.6-18.32-40.92-40.92-40.92Z" fill="#7a4804" stroke="#1c2126" stroke-linejoin="round" stroke-width="2"/><path d="M821.68,153.37v16.37c22.6,0,40.92-18.32,40.92-40.92h-16.37c-13.56,0-24.55,10.99-24.55,24.55Z" fill="#7a4804" stroke="#1c2126" stroke-linejoin="round" stroke-width="2"/><rect x="829.75" y="135.42" width="266.66" height="163" rx="22.93" ry="22.93" fill="none" stroke="#1c2126" stroke-dasharray="0 8" stroke-linecap="round" stroke-linejoin="round" stroke-width="2"/><rect x="871.72" y="127.28" width="17.54" height="181.28" fill="#db4648" stroke="#1c2126" stroke-linecap="round" stroke-linejoin="round" stroke-width="2"/><polygon points="889.27 229.88 880.49 235.72 871.72 229.88 871.72 127.28 889.27 127.28 889.27 229.88" fill="#ff6b60" stroke="#1c2126" stroke-miterlimit="10" stroke-width="2"/><rect x="1035.96" y="127.28" width="17.54" height="181.28" fill="#db4648" stroke="#1c2126" stroke-linecap="round" stroke-linejoin="round" stroke-width="2"/><polygon points="1053.51 229.88 1044.74 235.72 1035.96 229.88 1035.96 127.28 1053.51 127.28 1053.51 229.88" fill="#ff6b60" stroke="#1c2126" stroke-miterlimit="10" stroke-width="2"/><circle cx="880.49" cy="217.74" r="1" fill="#1c2126" stroke-width="0"/><circle cx="880.49" cy="206.49" r="1" fill="#1c2126" stroke-width="0"/><circle cx="880.49" cy="195.25" r="1" fill="#1c2126" stroke-width="0"/><line x1="868.57" y1="184.98" x2="893.23" y2="184.98" fill="#ff6b60" stroke="#1c2126" stroke-linecap="round" stroke-linejoin="round" stroke-width="2"/><line x1="880.49" y1="180.45" x2="880.49" y2="184.98" fill="#ff6b60" stroke="#1c2126" stroke-linecap="round" stroke-linejoin="round" stroke-width="2"/><circle cx="1044.86" cy="217.74" r="1" fill="#1c2126" stroke-width="0"/><circle cx="1044.86" cy="206.49" r="1" fill="#1c2126" stroke-width="0"/><circle cx="1044.86" cy="195.25" r="1" fill="#1c2126" stroke-width="0"/><line x1="1032.93" y1="184.98" x2="1057.6" y2="184.98" fill="#ff6b60" stroke="#1c2126" stroke-linecap="round" stroke-linejoin="round" stroke-width="2"/><line x1="1044.86" y1="180.45" x2="1044.86" y2="184.98" fill="#ff6b60" stroke="#1c2126" stroke-linecap="round" stroke-linejoin="round" stroke-width="2"/><path d="M1082.49,42.22c-.86-.86-2-1.37-3.15-1.77-2.01-.71-4.26-1.19-6.24-.4-2.08.83-3.41,2.88-4.22,4.96-.72,1.86-1.12,3.85-1.2,5.84-2.06-1.89-4.56-3.38-7.32-3.85-2.79-.48-5.85.21-7.89,2.17-2.04,1.96-2.81,5.27-1.47,7.77,1.28,2.39,4.01,3.56,6.54,4.54,6.33,2.44,12.69,4.78,19.09,7.01,2.01-5.35,4.02-10.71,6.03-16.06,1.27-3.38,2.37-7.65-.17-10.21Z" fill="#ff6b60" stroke="#1c2126" stroke-linecap="round" stroke-linejoin="round" stroke-width="2"/><path d="M1062.69,89.02c-.12-1.21-.7-2.32-1.34-3.36-1.12-1.82-2.57-3.6-4.61-4.23-2.14-.66-4.46.1-6.4,1.22-1.73,1-3.28,2.3-4.6,3.8-.42-2.76-1.43-5.5-3.29-7.59-1.88-2.12-4.69-3.51-7.51-3.26-2.82.25-5.49,2.35-6.02,5.13-.51,2.67.89,5.29,2.25,7.63,3.4,5.87,6.89,11.68,10.47,17.43,4.92-2.91,9.85-5.82,14.77-8.73,3.11-1.84,6.64-4.47,6.28-8.06Z" fill="#db4648" stroke="#1c2126" stroke-linecap="round" stroke-linejoin="round" stroke-width="2"/><polygon points="1006.59 166.57 982.37 166.48 966.29 186.99 966.05 253.26 1022.26 253.47 1022.51 187.2 1006.59 166.57" fill="#1c2126" opacity=".2" stroke="#1c2126" stroke-linejoin="round" stroke-width="2"/><polygon points="1001.07 161.28 976.86 161.19 960.78 181.69 960.53 247.96 1016.75 248.17 1017 181.9 1001.07 161.28" fill="#ffb916" stroke="#1c2126" stroke-linejoin="round" stroke-width="2"/><path d="M978.94,221.33v-3.8s9.35-9.76,9.35-9.76c1.17-1.23,2.04-2.36,2.6-3.4.56-1.04.84-2.11.84-3.2,0-1.36-.43-2.39-1.28-3.08-.85-.69-2.09-1.04-3.72-1.04-1.31,0-2.56.23-3.76.7-1.2.47-2.37,1.19-3.52,2.18l-1.68-3.84c1.15-1.01,2.57-1.83,4.26-2.44,1.69-.61,3.47-.92,5.34-.92,2.03,0,3.74.31,5.14.92,1.4.61,2.47,1.51,3.2,2.68.73,1.17,1.1,2.6,1.1,4.28,0,1.76-.41,3.43-1.24,5.02-.83,1.59-2.1,3.25-3.84,4.98l-7.8,7.8v-1.36h14s0,4.27,0,4.27h-19Z" fill="#1c2126" stroke-width="0"/><line x1="988.77" y1="161.23" x2="988.77" y2="128.82" fill="#ffb916" stroke="#1c2126" stroke-linecap="round" stroke-linejoin="round" stroke-width="2"/><rect x="0" y="595" width="1200" height="35" fill="#fff" stroke-width="0"/><rect x="0" y="499.19" width="1200" height="95.81" fill="#fff" stroke-width="0"/><line x1="0" y1="499.19" x2="1200" y2="499.19" fill="none" stroke="#1c2126" stroke-miterlimit="10"/><line x1="0" y1="595" x2="1200" y2="595" fill="none" stroke="#1c2126" stroke-miterlimit="10"/><path d="M24.24,559.45v-18.76h-6.39v-2.37h15.35v2.37h-6.39v18.76h-2.58Z" fill="#1c2126" stroke-width="0"/><path d="M44.08,559.89c-4.8,0-7.75-3.46-7.75-9.3v-3.41c0-5.84,2.94-9.3,7.75-9.3s7.75,3.46,7.75,9.3v3.41c0,5.84-2.94,9.3-7.75,9.3ZM49.22,550.58v-3.38c0-4.41-1.93-6.87-5.14-6.87s-5.14,2.46-5.14,6.87v3.38c0,4.41,1.93,6.87,5.14,6.87s5.14-2.46,5.14-6.87Z" fill="#1c2126" stroke-width="0"/><path d="M59.97,545.58c0-1.48,1.2-2.71,2.65-2.71s2.65,1.23,2.65,2.71-1.2,2.71-2.65,2.71-2.65-1.23-2.65-2.71ZM59.97,556.83c0-1.48,1.2-2.7,2.65-2.7s2.65,1.22,2.65,2.7-1.2,2.71-2.65,2.71-2.65-1.22-2.65-2.71Z" fill="#1c2126" stroke-width="0"/><line x1="582.03" y1="498.72" x2="582.03" y2="595" fill="none" stroke="#1c2126" stroke-miterlimit="10"/><path d="M605.51,559.45v-21.14h12.47v2.37h-9.87v7.25h9.02v2.3h-9.02v9.21h-2.59Z" fill="#1c2126" stroke-width="0"/><path d="M625.54,551.03v8.42h-2.55v-21.14h7.09c4.19,0,6.81,2.43,6.81,6.36,0,2.77-1.54,5.04-3.94,5.83l4.31,8.95h-2.92l-3.94-8.42h-4.86ZM625.54,548.85h4.19c2.92,0,4.56-1.48,4.56-4.12s-1.61-4.12-4.44-4.12h-4.31v8.23Z" fill="#1c2126" stroke-width="0"/><path d="M648.15,559.89c-4.8,0-7.75-3.46-7.75-9.3v-3.41c0-5.84,2.94-9.3,7.75-9.3s7.75,3.46,7.75,9.3v3.41c0,5.84-2.94,9.3-7.75,9.3ZM653.29,550.58v-3.38c0-4.41-1.93-6.87-5.14-6.87s-5.14,2.46-5.14,6.87v3.38c0,4.41,1.93,6.87,5.14,6.87s5.14-2.46,5.14-6.87Z" fill="#1c2126" stroke-width="0"/><path d="M661.18,559.45h-2.31v-21.14h2.86l4.88,13.08h.19l4.86-13.08h2.86v21.14h-2.31v-8.1l.15-8.57h-.19l-4.45,11.7h-2.02l-4.45-11.7h-.19l.15,8.57v8.1Z" fill="#1c2126" stroke-width="0"/><path d="M682.59,545.58c0-1.48,1.2-2.71,2.65-2.71s2.65,1.23,2.65,2.71-1.2,2.71-2.65,2.71-2.65-1.23-2.65-2.71ZM682.59,556.83c0-1.48,1.2-2.7,2.65-2.7s2.65,1.22,2.65,2.7-1.2,2.71-2.65,2.71-2.65-1.22-2.65-2.71Z" fill="#1c2126" stroke-width="0"/><path d="M12.77,618.41c-.12,0-.21-.04-.26-.11-.06-.07-.08-.17-.06-.27l2.22-10.42c.02-.12.07-.21.16-.29.08-.07.19-.11.3-.11h6.95c.12,0,.2.04.26.11.05.07.07.17.05.29l-.24,1.12c-.02.12-.08.21-.16.28-.08.07-.19.1-.3.1h-5.14l-.66,3.04h4.82c.12,0,.2.04.26.11.05.07.07.17.05.29l-.22,1.12c-.02.11-.08.2-.17.27-.09.07-.19.11-.31.11h-4.82l-.85,3.97c-.02.11-.08.2-.16.27-.08.08-.19.11-.3.11h-1.41Z" fill="#1c2126" stroke-width="0"/><path d="M25.41,618.57c-.81,0-1.49-.15-2.02-.45s-.92-.72-1.15-1.26c-.23-.54-.29-1.18-.17-1.9.03-.19.08-.43.13-.7s.12-.51.17-.7c.19-.74.49-1.37.89-1.91.4-.54.91-.96,1.54-1.26.62-.3,1.36-.45,2.22-.45s1.49.15,2.02.45c.54.3.93.72,1.16,1.26.23.54.29,1.18.18,1.91-.04.19-.09.43-.14.7s-.11.51-.16.7c-.19.73-.48,1.36-.87,1.9-.39.54-.9.96-1.52,1.26s-1.38.45-2.26.45ZM25.57,616.98c.58,0,1.06-.18,1.46-.54.4-.36.69-.88.87-1.58.04-.16.09-.37.14-.62s.1-.46.13-.62c.12-.69.07-1.22-.14-1.58-.21-.36-.61-.54-1.18-.54s-1.05.18-1.46.54c-.41.36-.69.88-.86,1.58-.04.16-.09.37-.15.62s-.1.46-.12.62c-.12.69-.07,1.22.14,1.58s.6.54,1.18.54Z" fill="#1c2126" stroke-width="0"/><path d="M31.53,618.41c-.11,0-.19-.04-.25-.11-.06-.07-.08-.17-.06-.27l1.6-7.54c.02-.12.08-.21.17-.29.09-.07.19-.11.3-.11h1.3c.11,0,.19.04.25.11.06.08.08.17.06.29l-.14.66c.26-.34.58-.6.98-.78s.88-.27,1.44-.27h.78c.12,0,.2.04.26.11.05.08.07.17.05.27l-.24,1.15c-.02.11-.08.2-.17.27-.09.07-.19.11-.3.11h-1.25c-.51,0-.94.14-1.29.42-.35.28-.57.68-.68,1.19l-.94,4.4c-.02.11-.07.2-.16.27-.08.08-.19.11-.3.11h-1.39Z" fill="#1c2126" stroke-width="0"/><path d="M44.76,618.41c-.73,0-1.29-.11-1.7-.34-.4-.22-.67-.56-.78-1s-.11-.99.03-1.66l.79-3.63h-1.26c-.11,0-.19-.04-.25-.11-.06-.07-.08-.17-.06-.29l.19-.91c.02-.11.08-.2.17-.27.09-.07.2-.11.31-.11h1.25l.58-2.66c.02-.11.07-.2.16-.27.08-.07.18-.11.29-.11h1.3c.12,0,.21.04.26.11.06.08.08.17.06.27l-.58,2.66h2c.11,0,.19.04.25.11.06.08.08.17.06.27l-.19.91c-.02.12-.08.21-.17.29-.09.08-.19.11-.3.11h-2l-.74,3.47c-.06.29-.1.54-.1.74,0,.21.05.37.17.48.12.11.33.17.62.17h1.15c.12,0,.2.04.26.11.05.08.07.17.05.27l-.21.99c-.02.11-.08.2-.16.27-.09.08-.19.11-.3.11h-1.14Z" fill="#1c2126" stroke-width="0"/><path d="M48.07,618.41c-.11,0-.19-.04-.25-.11-.06-.07-.08-.17-.06-.27l2.26-10.59c.02-.11.08-.2.16-.27.08-.07.18-.11.29-.11h1.44c.11,0,.19.04.25.11.06.08.08.17.06.27l-.78,3.65c.34-.34.72-.62,1.14-.83.42-.21.93-.32,1.53-.32.69,0,1.26.15,1.7.44.44.29.75.71.92,1.24.17.53.18,1.17.02,1.92l-.96,4.5c-.02.11-.08.2-.16.27-.09.08-.19.11-.3.11h-1.44c-.11,0-.19-.04-.25-.11-.06-.07-.08-.17-.06-.27l.93-4.4c.14-.62.11-1.1-.08-1.46-.19-.35-.58-.53-1.17-.53-.36,0-.71.08-1.03.23-.33.16-.61.38-.84.68-.23.3-.4.66-.5,1.07l-.93,4.4c-.02.11-.08.2-.16.27-.09.08-.18.11-.29.11h-1.44Z" fill="#1c2126" stroke-width="0"/><path d="M61.51,618.57c-.78,0-1.43-.16-1.95-.46-.52-.31-.87-.76-1.07-1.34-.2-.59-.23-1.3-.09-2.13.02-.11.05-.24.08-.41.03-.17.06-.3.1-.39.21-.81.54-1.51.99-2.09.45-.58.99-1.03,1.64-1.34s1.36-.47,2.14-.47c.86,0,1.55.18,2.06.54.51.36.84.85,1.01,1.49s.16,1.37,0,2.2l-.08.34c-.02.11-.08.2-.17.27-.09.08-.19.11-.31.11h-5.31c-.01.06-.02.11-.03.13-.05.37-.05.72.02,1.03.06.31.21.57.42.76.22.19.51.29.87.29.3,0,.56-.04.79-.14.22-.09.41-.19.55-.31.14-.12.25-.21.33-.29.13-.13.22-.21.29-.23.06-.03.15-.04.27-.04h1.39c.1,0,.17.03.22.1.05.06.07.14.05.24-.05.17-.19.38-.4.62s-.5.49-.86.72c-.36.24-.79.43-1.29.58s-1.04.23-1.64.23ZM60.82,613.53h3.54l.02-.05c.1-.42.1-.78.02-1.1-.08-.31-.23-.56-.46-.74-.22-.18-.52-.26-.9-.26s-.71.09-1.02.26c-.3.18-.56.42-.76.74-.2.32-.35.68-.43,1.1l-.02.05Z" fill="#1c2126" stroke-width="0"/><path d="M71.06,618.41c-.11,0-.19-.04-.25-.11-.06-.07-.08-.17-.06-.27l2.26-10.59c.02-.11.08-.2.16-.27.08-.07.18-.11.29-.11h1.33c.12,0,.21.04.26.11.06.08.08.17.06.27l-2.26,10.59c-.02.11-.08.2-.16.27-.09.08-.19.11-.3.11h-1.33Z" fill="#1c2126" stroke-width="0"/><path d="M78.64,618.57c-.81,0-1.49-.15-2.02-.45-.54-.3-.92-.72-1.15-1.26-.23-.54-.29-1.18-.17-1.9.03-.19.08-.43.14-.7s.11-.51.17-.7c.19-.74.49-1.37.89-1.91.4-.54.91-.96,1.54-1.26.62-.3,1.36-.45,2.22-.45s1.49.15,2.02.45c.54.3.92.72,1.16,1.26.23.54.29,1.18.18,1.91-.04.19-.09.43-.14.7-.05.28-.11.51-.16.7-.19.73-.48,1.36-.87,1.9s-.9.96-1.52,1.26c-.62.3-1.38.45-2.26.45ZM78.8,616.98c.58,0,1.06-.18,1.46-.54s.69-.88.87-1.58c.04-.16.09-.37.14-.62.05-.26.1-.46.13-.62.12-.69.07-1.22-.14-1.58-.21-.36-.61-.54-1.18-.54s-1.05.18-1.46.54c-.41.36-.69.88-.86,1.58-.04.16-.09.37-.15.62s-.1.46-.12.62c-.12.69-.07,1.22.14,1.58.21.36.6.54,1.18.54Z" fill="#1c2126" stroke-width="0"/><path d="M86.92,618.41c-.16,0-.27-.04-.34-.12-.06-.08-.11-.17-.13-.28l-1.42-7.49c-.02-.14,0-.25.08-.32.08-.07.18-.11.3-.11h1.22c.12,0,.21.03.27.1.06.06.11.15.13.27l.91,5.55,3.33-5.62c.03-.06.09-.13.17-.2s.18-.1.31-.1h1.39c.13,0,.22.05.26.14.05.1.03.21-.06.35l-4.56,7.42c-.08.11-.16.2-.25.28-.09.08-.22.12-.38.12h-1.25Z" fill="#1c2126" stroke-width="0"/><path d="M96.66,618.57c-.78,0-1.43-.16-1.94-.46-.52-.31-.88-.76-1.07-1.34-.2-.59-.23-1.3-.09-2.13.02-.11.05-.24.08-.41.03-.17.06-.3.1-.39.21-.81.54-1.51.99-2.09.45-.58.99-1.03,1.64-1.34s1.36-.47,2.14-.47c.86,0,1.55.18,2.06.54.51.36.84.85,1.01,1.49.17.63.16,1.37,0,2.2l-.08.34c-.02.11-.08.2-.17.27-.09.08-.2.11-.31.11h-5.31c-.01.06-.02.11-.03.13-.05.37-.05.72.02,1.03.06.31.21.57.42.76.22.19.51.29.87.29.3,0,.56-.04.78-.14.22-.09.41-.19.55-.31.14-.12.25-.21.33-.29.13-.13.22-.21.29-.23.06-.03.15-.04.27-.04h1.39c.1,0,.17.03.22.1.05.06.07.14.05.24-.05.17-.19.38-.4.62-.21.25-.5.49-.87.72-.36.24-.79.43-1.29.58s-1.04.23-1.64.23ZM95.97,613.53h3.54l.02-.05c.1-.42.1-.78.02-1.1-.08-.31-.23-.56-.46-.74-.22-.18-.52-.26-.9-.26s-.71.09-1.02.26-.56.42-.76.74c-.2.32-.35.68-.43,1.1l-.02.05Z" fill="#1c2126" stroke-width="0"/><path d="M109.56,618.57c-.81,0-1.49-.15-2.02-.45s-.92-.72-1.15-1.26c-.23-.54-.29-1.18-.17-1.9.03-.19.08-.43.13-.7s.12-.51.17-.7c.19-.74.49-1.37.89-1.91.4-.54.91-.96,1.54-1.26.62-.3,1.36-.45,2.22-.45s1.49.15,2.02.45c.54.3.93.72,1.16,1.26.23.54.29,1.18.18,1.91-.04.19-.09.43-.14.7s-.11.51-.16.7c-.19.73-.48,1.36-.87,1.9-.39.54-.9.96-1.52,1.26s-1.38.45-2.26.45ZM109.72,616.98c.58,0,1.06-.18,1.46-.54.4-.36.69-.88.87-1.58.04-.16.09-.37.14-.62s.1-.46.13-.62c.12-.69.07-1.22-.14-1.58-.21-.36-.61-.54-1.18-.54s-1.05.18-1.46.54c-.41.36-.69.88-.86,1.58-.04.16-.09.37-.15.62s-.1.46-.12.62c-.12.69-.07,1.22.14,1.58s.6.54,1.18.54Z" fill="#1c2126" stroke-width="0"/><path d="M116.42,618.41c-.12,0-.21-.04-.26-.11-.06-.07-.08-.17-.06-.27l1.33-6.24h-1.29c-.11,0-.19-.04-.25-.11-.06-.07-.08-.17-.06-.29l.19-.91c.02-.11.08-.2.17-.27.09-.07.19-.11.31-.11h1.3l.13-.66c.15-.64.38-1.17.69-1.59.31-.42.7-.74,1.18-.95.48-.21,1.04-.32,1.68-.32h1.28c.12,0,.2.04.26.11.05.07.07.17.05.27l-.19.91c-.02.12-.08.21-.17.29s-.19.11-.3.11h-.96c-.43,0-.76.11-.99.32-.23.21-.39.52-.46.93l-.13.58h1.98c.12,0,.2.04.26.11.05.08.07.17.05.27l-.19.91c-.02.12-.08.21-.16.29-.09.08-.19.11-.3.11h-1.98l-1.34,6.24c-.02.11-.07.2-.16.27-.08.08-.18.11-.29.11h-1.3Z" fill="#1c2126" stroke-width="0"/><path d="M128.85,618.57c-.81,0-1.48-.15-2.02-.45s-.92-.72-1.15-1.26c-.23-.54-.29-1.18-.17-1.9.03-.19.08-.43.14-.7s.11-.51.17-.7c.19-.74.49-1.37.89-1.91.4-.54.91-.96,1.54-1.26.62-.3,1.36-.45,2.22-.45s1.49.15,2.02.45c.54.3.92.72,1.16,1.26.23.54.29,1.18.18,1.91-.04.19-.09.43-.14.7s-.11.51-.16.7c-.19.73-.48,1.36-.87,1.9-.39.54-.9.96-1.52,1.26s-1.38.45-2.26.45ZM129.01,616.98c.58,0,1.06-.18,1.46-.54.4-.36.69-.88.87-1.58.04-.16.09-.37.14-.62.05-.26.1-.46.13-.62.12-.69.07-1.22-.14-1.58-.21-.36-.61-.54-1.18-.54s-1.05.18-1.46.54c-.41.36-.69.88-.86,1.58-.04.16-.09.37-.15.62s-.1.46-.12.62c-.12.69-.07,1.22.14,1.58s.6.54,1.18.54Z" fill="#1c2126" stroke-width="0"/><path d="M134.32,621.45c-.11,0-.19-.04-.25-.11-.06-.07-.08-.17-.06-.27l2.26-10.59c.02-.11.08-.2.16-.27.09-.07.18-.11.29-.11h1.28c.11,0,.19.04.25.11.06.08.08.17.06.27l-.14.64c.33-.34.7-.62,1.1-.85.4-.22.93-.34,1.58-.34.55,0,1.03.09,1.42.28.39.19.7.45.92.79.22.34.37.74.44,1.21s.06.97-.04,1.53c-.02.18-.05.35-.09.51s-.08.34-.14.53c-.13.52-.31,1.02-.54,1.48-.24.46-.52.87-.86,1.22s-.73.62-1.18.81-.96.29-1.53.29c-.6,0-1.09-.1-1.47-.31-.38-.21-.66-.48-.83-.82l-.78,3.63c-.02.11-.08.2-.16.27-.09.08-.19.11-.3.11h-1.36ZM138.88,616.85c.43,0,.79-.1,1.09-.3.3-.2.55-.46.74-.78.2-.33.35-.67.47-1.05.05-.16.1-.32.13-.48.03-.16.06-.32.08-.48.05-.38.06-.74.02-1.06-.04-.32-.16-.58-.36-.78-.2-.2-.51-.3-.94-.3-.45,0-.83.1-1.16.3s-.59.46-.8.78c-.21.32-.36.64-.44.97-.05.19-.1.39-.14.61-.04.21-.08.42-.11.62-.05.32-.05.63,0,.92.06.29.2.54.43.73.23.19.56.29.98.29Z" fill="#1c2126" stroke-width="0"/><path d="M148.13,618.57c-.78,0-1.43-.16-1.95-.46-.52-.31-.87-.76-1.07-1.34-.2-.59-.23-1.3-.09-2.13.02-.11.05-.24.08-.41.03-.17.06-.3.1-.39.21-.81.54-1.51.99-2.09.45-.58.99-1.03,1.64-1.34s1.36-.47,2.14-.47c.86,0,1.55.18,2.06.54.51.36.84.85,1.01,1.49s.16,1.37,0,2.2l-.08.34c-.02.11-.08.2-.17.27-.09.08-.19.11-.31.11h-5.31c-.01.06-.02.11-.03.13-.05.37-.05.72.02,1.03.06.31.21.57.42.76.22.19.51.29.87.29.3,0,.56-.04.79-.14.22-.09.41-.19.55-.31.14-.12.25-.21.33-.29.13-.13.22-.21.29-.23.06-.03.15-.04.27-.04h1.39c.1,0,.17.03.22.1.05.06.07.14.05.24-.05.17-.19.38-.4.62s-.5.49-.86.72c-.36.24-.79.43-1.29.58s-1.04.23-1.64.23ZM147.44,613.53h3.54l.02-.05c.1-.42.1-.78.02-1.1-.08-.31-.23-.56-.46-.74-.22-.18-.52-.26-.9-.26s-.71.09-1.02.26c-.3.18-.56.42-.76.74-.2.32-.35.68-.43,1.1l-.02.05Z" fill="#1c2126" stroke-width="0"/><path d="M153.96,618.41c-.11,0-.19-.04-.25-.11-.06-.07-.08-.17-.06-.27l1.6-7.55c.02-.11.08-.2.17-.27.09-.07.19-.11.3-.11h1.31c.11,0,.19.04.24.11.05.08.07.17.05.27l-.14.66c.34-.34.74-.63,1.21-.86s.99-.34,1.58-.34c.73,0,1.31.15,1.74.44.44.29.73.71.87,1.24.14.53.14,1.17-.02,1.92l-.96,4.5c-.02.11-.07.2-.16.27-.09.08-.19.11-.3.11h-1.41c-.11,0-.19-.04-.25-.11-.06-.07-.08-.17-.06-.27l.93-4.4c.14-.65.12-1.14-.04-1.48s-.56-.5-1.18-.5-1.12.18-1.54.53c-.42.35-.7.84-.84,1.46l-.93,4.4c-.02.11-.08.2-.16.27-.09.08-.18.11-.29.11h-1.41Z" fill="#1c2126" stroke-width="0"/><path d="M170.61,618.57c-.64,0-1.17-.08-1.59-.22-.42-.15-.75-.34-.99-.56s-.41-.45-.5-.67c-.09-.22-.12-.41-.1-.56.02-.12.08-.21.17-.28.09-.07.18-.1.28-.1h1.26s.08,0,.11.02c.03.01.06.04.1.1.12.12.24.24.37.37.13.13.29.24.49.33s.46.14.78.14c.42,0,.78-.08,1.1-.25.31-.17.5-.4.57-.71.04-.22.02-.41-.08-.54-.1-.14-.29-.26-.59-.38-.3-.11-.74-.23-1.33-.36-.58-.14-1.04-.31-1.38-.53-.35-.21-.58-.48-.71-.8-.12-.32-.13-.69-.04-1.12.08-.42.29-.81.62-1.19.33-.38.77-.69,1.32-.94.55-.25,1.19-.37,1.93-.37.58,0,1.06.07,1.46.22.4.14.72.32.96.54.24.21.41.43.5.65.1.22.13.41.1.57-.01.12-.06.21-.15.28-.09.07-.18.1-.28.1h-1.17c-.05,0-.1-.01-.14-.03-.04-.02-.08-.05-.1-.08-.11-.11-.22-.22-.33-.34-.11-.12-.26-.23-.43-.31-.18-.08-.42-.13-.74-.13-.41,0-.73.09-.98.26s-.41.4-.47.66c-.03.18-.01.34.06.47.07.13.25.26.54.38s.73.24,1.31.37c.69.13,1.22.32,1.59.57.37.25.61.54.72.86.11.33.13.69.04,1.08-.1.48-.33.91-.7,1.3-.37.38-.85.69-1.45.9-.6.22-1.3.33-2.11.33Z" fill="#1c2126" stroke-width="0"/><path d="M179.52,618.57c-.81,0-1.49-.15-2.02-.45-.54-.3-.92-.72-1.15-1.26-.23-.54-.29-1.18-.17-1.9.03-.19.08-.43.14-.7s.11-.51.17-.7c.19-.74.49-1.37.89-1.91.4-.54.91-.96,1.54-1.26.62-.3,1.36-.45,2.22-.45s1.49.15,2.02.45c.54.3.92.72,1.16,1.26.23.54.29,1.18.18,1.91-.04.19-.09.43-.14.7-.05.28-.11.51-.16.7-.19.73-.48,1.36-.87,1.9s-.9.96-1.52,1.26c-.62.3-1.38.45-2.26.45ZM179.68,616.98c.58,0,1.06-.18,1.46-.54s.69-.88.87-1.58c.04-.16.09-.37.14-.62.05-.26.1-.46.13-.62.12-.69.07-1.22-.14-1.58-.21-.36-.61-.54-1.18-.54s-1.05.18-1.46.54c-.41.36-.69.88-.86,1.58-.04.16-.09.37-.15.62s-.1.46-.12.62c-.12.69-.07,1.22.14,1.58.21.36.6.54,1.18.54Z" fill="#1c2126" stroke-width="0"/><path d="M188.45,618.57c-.69,0-1.26-.15-1.7-.44-.44-.29-.73-.71-.87-1.25-.14-.54-.14-1.18,0-1.91l.96-4.5c.02-.11.08-.2.17-.27.09-.07.19-.11.29-.11h1.41c.11,0,.19.04.24.11.05.08.07.17.05.27l-.93,4.4c-.1.44-.13.8-.09,1.1.04.29.16.52.36.66.2.15.52.22.94.22.58,0,1.08-.18,1.5-.53.43-.35.7-.84.83-1.46l.94-4.4c.02-.11.08-.2.17-.27.09-.07.19-.11.3-.11h1.39c.12,0,.2.04.26.11.05.08.07.17.05.27l-1.6,7.55c-.02.11-.07.2-.16.27-.08.08-.19.11-.3.11h-1.3c-.11,0-.19-.04-.25-.11-.06-.07-.08-.17-.06-.27l.13-.66c-.23.25-.47.46-.72.64-.25.18-.53.32-.85.42-.32.1-.71.14-1.18.14Z" fill="#1c2126" stroke-width="0"/><path d="M195.57,618.41c-.11,0-.19-.04-.25-.11-.06-.07-.08-.17-.06-.27l1.6-7.54c.02-.12.08-.21.17-.29.09-.07.19-.11.3-.11h1.3c.11,0,.19.04.25.11.06.08.08.17.06.29l-.14.66c.26-.34.58-.6.98-.78.39-.18.87-.27,1.44-.27h.78c.12,0,.2.04.26.11.05.08.07.17.05.27l-.24,1.15c-.02.11-.08.2-.17.27-.09.07-.19.11-.3.11h-1.25c-.51,0-.94.14-1.29.42-.35.28-.57.68-.68,1.19l-.94,4.4c-.02.11-.08.2-.16.27-.09.08-.19.11-.3.11h-1.39Z" fill="#1c2126" stroke-width="0"/><path d="M205.46,618.57c-.71,0-1.34-.14-1.88-.43-.54-.29-.94-.71-1.19-1.26-.26-.55-.31-1.21-.18-1.99.03-.16.07-.37.13-.63.05-.26.1-.48.14-.65.29-1.16.82-2.07,1.6-2.71s1.77-.97,2.98-.97c.67,0,1.23.1,1.69.29.45.19.81.44,1.07.74.26.3.44.61.54.93.1.32.14.61.1.86,0,.12-.06.21-.14.28s-.17.1-.28.1h-1.46c-.11,0-.19-.03-.25-.08-.06-.05-.09-.13-.1-.24,0-.43-.11-.74-.34-.93-.23-.19-.56-.29-.98-.29-.52,0-.99.17-1.4.5-.41.34-.71.87-.89,1.59-.04.19-.09.39-.13.59-.04.2-.08.38-.11.53-.12.74-.06,1.27.16,1.6.22.33.6.5,1.12.5.42,0,.79-.09,1.12-.26.33-.18.61-.48.83-.9.06-.12.13-.2.2-.25.07-.05.16-.07.26-.07h1.44c.11,0,.19.04.25.1s.07.16.04.28c-.07.24-.21.51-.41.82s-.47.62-.81.92c-.34.3-.77.54-1.29.74s-1.13.29-1.85.29Z" fill="#1c2126" stroke-width="0"/><path d="M214.69,618.57c-.78,0-1.43-.16-1.95-.46-.52-.31-.87-.76-1.07-1.34-.2-.59-.23-1.3-.09-2.13.02-.11.05-.24.08-.41.03-.17.06-.3.1-.39.21-.81.54-1.51.99-2.09.45-.58.99-1.03,1.64-1.34s1.36-.47,2.14-.47c.86,0,1.55.18,2.06.54.51.36.84.85,1.01,1.49s.16,1.37,0,2.2l-.08.34c-.02.11-.08.2-.17.27-.09.08-.19.11-.31.11h-5.31c-.01.06-.02.11-.03.13-.05.37-.05.72.02,1.03.06.31.21.57.42.76.22.19.51.29.87.29.3,0,.56-.04.79-.14.22-.09.41-.19.55-.31.14-.12.25-.21.33-.29.13-.13.22-.21.29-.23.06-.03.15-.04.27-.04h1.39c.1,0,.17.03.22.1.05.06.07.14.05.24-.05.17-.19.38-.4.62s-.5.49-.86.72c-.36.24-.79.43-1.29.58s-1.04.23-1.64.23ZM214,613.53h3.54l.02-.05c.1-.42.1-.78.02-1.1-.08-.31-.23-.56-.46-.74-.22-.18-.52-.26-.9-.26s-.71.09-1.02.26c-.3.18-.56.42-.76.74-.2.32-.35.68-.43,1.1l-.02.05Z" fill="#1c2126" stroke-width="0"/><path d="M227.19,618.57c-.64,0-1.17-.08-1.59-.22-.42-.15-.75-.34-.99-.56-.24-.22-.41-.45-.5-.67s-.13-.41-.1-.56c.02-.12.08-.21.17-.28.09-.07.18-.1.28-.1h1.26s.08,0,.11.02c.03.01.06.04.1.1.12.12.24.24.37.37.13.13.29.24.49.33s.46.14.78.14c.42,0,.78-.08,1.1-.25s.5-.4.57-.71c.04-.22.02-.41-.08-.54s-.29-.26-.59-.38c-.3-.11-.74-.23-1.33-.36-.58-.14-1.04-.31-1.38-.53-.35-.21-.58-.48-.7-.8-.12-.32-.14-.69-.04-1.12.09-.42.29-.81.62-1.19.33-.38.77-.69,1.32-.94.55-.25,1.19-.37,1.93-.37.58,0,1.06.07,1.46.22.4.14.72.32.96.54.24.21.41.43.5.65s.13.41.1.57c-.01.12-.06.21-.15.28-.09.07-.18.1-.28.1h-1.17c-.05,0-.1-.01-.14-.03s-.07-.05-.1-.08c-.11-.11-.22-.22-.33-.34-.11-.12-.26-.23-.43-.31-.18-.08-.42-.13-.74-.13-.41,0-.73.09-.98.26s-.41.4-.47.66c-.03.18-.01.34.06.47.07.13.25.26.54.38s.73.24,1.31.37c.69.13,1.22.32,1.59.57.37.25.61.54.72.86.11.33.12.69.04,1.08-.1.48-.33.91-.7,1.3-.37.38-.85.69-1.45.9-.6.22-1.3.33-2.11.33Z" fill="#1c2126" stroke-width="0"/><path d="M236.1,618.57c-.81,0-1.49-.15-2.02-.45-.54-.3-.92-.72-1.15-1.26s-.29-1.18-.17-1.9c.03-.19.08-.43.14-.7s.12-.51.17-.7c.19-.74.49-1.37.89-1.91.4-.54.91-.96,1.54-1.26.62-.3,1.36-.45,2.22-.45s1.48.15,2.02.45c.54.3.93.72,1.16,1.26.23.54.29,1.18.18,1.91-.04.19-.09.43-.14.7-.05.28-.11.51-.16.7-.19.73-.48,1.36-.87,1.9-.39.54-.9.96-1.52,1.26-.62.3-1.38.45-2.26.45ZM236.26,616.98c.58,0,1.06-.18,1.46-.54s.69-.88.87-1.58c.04-.16.09-.37.14-.62.05-.26.1-.46.13-.62.12-.69.07-1.22-.14-1.58-.21-.36-.61-.54-1.18-.54s-1.05.18-1.46.54c-.4.36-.69.88-.86,1.58-.04.16-.09.37-.15.62s-.1.46-.12.62c-.12.69-.07,1.22.13,1.58.21.36.6.54,1.18.54Z" fill="#1c2126" stroke-width="0"/><path d="M242.96,618.41c-.12,0-.21-.04-.26-.11-.06-.07-.08-.17-.06-.27l1.33-6.24h-1.3c-.11,0-.19-.04-.25-.11-.06-.07-.08-.17-.06-.29l.19-.91c.02-.11.08-.2.17-.27.09-.07.19-.11.31-.11h1.29l.13-.66c.15-.64.38-1.17.69-1.59.31-.42.7-.74,1.18-.95.48-.21,1.04-.32,1.68-.32h1.28c.12,0,.2.04.26.11.05.07.07.17.05.27l-.19.91c-.02.12-.08.21-.17.29s-.19.11-.3.11h-.96c-.43,0-.76.11-.99.32-.23.21-.39.52-.46.93l-.13.58h1.98c.12,0,.2.04.26.11.05.08.07.17.05.27l-.19.91c-.02.12-.07.21-.16.29-.08.08-.19.11-.3.11h-1.98l-1.34,6.24c-.02.11-.08.2-.16.27-.09.08-.18.11-.29.11h-1.29Z" fill="#1c2126" stroke-width="0"/><path d="M252.11,618.41c-.73,0-1.29-.11-1.7-.34-.4-.22-.67-.56-.78-1s-.11-.99.03-1.66l.79-3.63h-1.26c-.11,0-.19-.04-.25-.11-.06-.07-.08-.17-.06-.29l.19-.91c.02-.11.08-.2.17-.27.09-.07.2-.11.31-.11h1.25l.58-2.66c.02-.11.07-.2.16-.27.08-.07.18-.11.29-.11h1.3c.12,0,.21.04.26.11.06.08.08.17.06.27l-.58,2.66h2c.11,0,.19.04.25.11.06.08.08.17.06.27l-.19.91c-.02.12-.08.21-.17.29-.09.08-.19.11-.3.11h-2l-.74,3.47c-.06.29-.1.54-.1.74,0,.21.05.37.17.48.12.11.33.17.62.17h1.15c.12,0,.2.04.26.11.05.08.07.17.05.27l-.21.99c-.02.11-.08.2-.16.27-.09.08-.19.11-.3.11h-1.14Z" fill="#1c2126" stroke-width="0"/><path d="M257.27,618.41c-.15,0-.26-.04-.32-.11-.06-.07-.1-.17-.11-.29l-.72-7.49c-.01-.12.02-.22.1-.3.08-.08.18-.13.32-.13h1.12c.13,0,.22.03.28.09.06.06.09.13.1.22l.46,5.3,2.75-5.25c.04-.08.11-.15.19-.23.09-.08.2-.12.34-.12h.83c.15,0,.25.04.3.12.05.08.09.16.1.23l.58,5.25,2.69-5.3c.03-.06.09-.13.16-.2s.18-.1.3-.1h1.3c.15,0,.24.05.26.14.03.1.01.2-.04.32l-3.86,7.46c-.06.12-.14.21-.23.29-.09.08-.21.11-.36.11h-1.06c-.15,0-.26-.04-.33-.11-.07-.07-.12-.17-.14-.29l-.66-5.06-2.72,5.06c-.06.12-.14.21-.24.29-.1.08-.22.11-.37.11h-1.04Z" fill="#1c2126" stroke-width="0"/><path d="M271.09,618.57c-.55,0-1.02-.09-1.41-.28s-.69-.45-.9-.79c-.22-.34-.36-.74-.42-1.21-.06-.46-.05-.97.03-1.53.04-.19.08-.37.11-.52.03-.15.07-.33.11-.52.14-.53.32-1.03.55-1.49.23-.46.51-.86.85-1.21s.73-.62,1.18-.81c.45-.19.97-.29,1.56-.29.66,0,1.17.1,1.51.31s.62.46.81.76l.11-.53c.02-.11.08-.2.16-.27.08-.07.18-.11.29-.11h1.26c.11,0,.19.04.26.11.06.08.09.17.06.27l-1.62,7.55c-.02.11-.08.2-.16.27-.09.08-.18.11-.29.11h-1.26c-.12,0-.21-.04-.26-.11-.06-.07-.08-.17-.06-.27l.13-.59c-.32.33-.67.6-1.06.82-.38.21-.9.32-1.55.32ZM271.81,616.85c.45,0,.83-.1,1.15-.3.32-.2.58-.46.78-.78s.34-.64.42-.97c.05-.19.1-.4.14-.62s.08-.42.11-.62c.06-.32.07-.63.02-.92s-.19-.54-.41-.73c-.22-.19-.55-.29-.98-.29s-.77.1-1.06.3-.54.46-.73.78c-.19.32-.35.67-.46,1.06-.04.16-.08.32-.11.48s-.06.32-.08.48c-.05.38-.07.74-.04,1.06.03.32.14.58.34.78s.5.3.92.3Z" fill="#1c2126" stroke-width="0"/><path d="M278.05,618.41c-.11,0-.19-.04-.25-.11-.06-.07-.08-.17-.06-.27l1.6-7.54c.02-.12.08-.21.17-.29.09-.07.19-.11.3-.11h1.29c.11,0,.19.04.25.11.06.08.08.17.06.29l-.14.66c.26-.34.58-.6.98-.78s.88-.27,1.44-.27h.78c.12,0,.2.04.26.11.05.08.07.17.05.27l-.24,1.15c-.02.11-.08.2-.17.27-.09.07-.19.11-.29.11h-1.25c-.51,0-.94.14-1.29.42-.35.28-.57.68-.68,1.19l-.94,4.4c-.02.11-.07.2-.16.27-.09.08-.19.11-.3.11h-1.39Z" fill="#1c2126" stroke-width="0"/><path d="M288.05,618.57c-.78,0-1.43-.16-1.95-.46-.52-.31-.87-.76-1.07-1.34-.2-.59-.23-1.3-.09-2.13.02-.11.05-.24.08-.41.03-.17.06-.3.1-.39.21-.81.54-1.51.99-2.09.45-.58.99-1.03,1.64-1.34s1.36-.47,2.14-.47c.86,0,1.55.18,2.06.54.51.36.84.85,1.01,1.49s.16,1.37,0,2.2l-.08.34c-.02.11-.08.2-.17.27-.09.08-.19.11-.31.11h-5.31c-.01.06-.02.11-.03.13-.05.37-.05.72.02,1.03.06.31.21.57.42.76.22.19.51.29.87.29.3,0,.56-.04.79-.14.22-.09.41-.19.55-.31.14-.12.25-.21.33-.29.13-.13.22-.21.29-.23.06-.03.15-.04.27-.04h1.39c.1,0,.17.03.22.1.05.06.07.14.05.24-.05.17-.19.38-.4.62s-.5.49-.86.72c-.36.24-.79.43-1.29.58s-1.04.23-1.64.23ZM287.36,613.53h3.54l.02-.05c.1-.42.1-.78.02-1.1-.08-.31-.23-.56-.46-.74-.22-.18-.52-.26-.9-.26s-.71.09-1.02.26c-.3.18-.56.42-.76.74-.2.32-.35.68-.43,1.1l-.02.05Z" fill="#1c2126" stroke-width="0"/><path d="M1125.56,618.57c-.89,0-1.63-.15-2.22-.44-.6-.29-1.05-.71-1.37-1.26-.32-.54-.49-1.18-.52-1.9-.01-.21-.02-.46-.02-.73s0-.51.02-.71c.03-.74.21-1.37.54-1.91.33-.54.79-.95,1.39-1.25.6-.29,1.32-.44,2.18-.44s1.56.15,2.16.44c.6.29,1.06.71,1.39,1.25.33.54.52,1.18.56,1.91.01.2.02.44.02.71s0,.51-.02.73c-.04.73-.22,1.36-.54,1.9-.32.54-.77.96-1.37,1.26-.6.29-1.33.44-2.21.44ZM1125.56,616.79c.52,0,.91-.16,1.18-.48.26-.32.41-.79.44-1.42.01-.16.02-.37.02-.64s0-.48-.02-.64c-.03-.62-.18-1.09-.44-1.42s-.65-.49-1.18-.49-.92.16-1.18.49-.42.8-.45,1.42c0,.16-.02.37-.02.64s0,.48.02.64c.03.63.18,1.1.45,1.42.27.32.66.48,1.18.48Z" fill="#1c2126" stroke-width="0"/><path d="M1134.64,618.57c-.66,0-1.23-.08-1.7-.23s-.86-.34-1.15-.57c-.29-.22-.51-.45-.66-.68-.14-.23-.22-.42-.23-.58-.01-.12.03-.21.11-.29.09-.07.17-.11.26-.11h1.55s.08,0,.1.02c.03.01.06.04.1.08.14.1.28.21.42.33.14.12.32.23.52.31.2.09.45.13.74.13.35,0,.65-.07.89-.22.24-.14.36-.35.36-.62,0-.19-.05-.35-.16-.48-.11-.13-.31-.25-.62-.35-.31-.11-.77-.22-1.38-.35-.58-.13-1.07-.3-1.47-.51-.41-.21-.71-.48-.91-.81-.2-.33-.3-.72-.3-1.18,0-.42.13-.82.39-1.2.26-.38.65-.7,1.16-.95.51-.25,1.15-.38,1.92-.38.59,0,1.1.07,1.54.22.44.14.81.33,1.11.54s.53.44.68.67.24.43.25.6c.01.12-.02.21-.1.29-.07.08-.16.11-.26.11h-1.42c-.05,0-.1-.01-.14-.03s-.08-.05-.11-.08c-.13-.07-.26-.17-.39-.29-.13-.12-.29-.22-.47-.3-.18-.08-.42-.13-.7-.13-.34,0-.61.08-.79.23-.19.16-.28.35-.28.58,0,.15.05.29.14.42.1.13.29.25.58.35.29.11.75.22,1.37.34.73.13,1.3.32,1.73.58s.73.55.91.89.27.7.27,1.08c0,.5-.15.95-.44,1.34s-.73.69-1.3.91c-.58.22-1.28.33-2.11.33Z" fill="#1c2126" stroke-width="0"/><path d="M1143.33,618.57c-.66,0-1.23-.08-1.7-.23s-.86-.34-1.15-.57c-.29-.22-.51-.45-.66-.68-.14-.23-.22-.42-.23-.58-.01-.12.03-.21.11-.29.09-.07.17-.11.26-.11h1.55s.08,0,.1.02c.03.01.06.04.1.08.14.1.28.21.42.33.14.12.32.23.52.31.2.09.45.13.74.13.35,0,.65-.07.89-.22.24-.14.36-.35.36-.62,0-.19-.05-.35-.16-.48-.11-.13-.31-.25-.62-.35-.31-.11-.77-.22-1.38-.35-.58-.13-1.07-.3-1.47-.51-.41-.21-.71-.48-.91-.81-.2-.33-.3-.72-.3-1.18,0-.42.13-.82.39-1.2.26-.38.65-.7,1.16-.95.51-.25,1.15-.38,1.92-.38.59,0,1.1.07,1.54.22.44.14.81.33,1.11.54s.53.44.68.67.24.43.25.6c.01.12-.02.21-.1.29-.07.08-.16.11-.26.11h-1.42c-.05,0-.1-.01-.14-.03s-.08-.05-.11-.08c-.13-.07-.26-.17-.39-.29-.13-.12-.29-.22-.47-.3-.18-.08-.42-.13-.7-.13-.34,0-.61.08-.79.23-.19.16-.28.35-.28.58,0,.15.05.29.14.42.1.13.29.25.58.35.29.11.75.22,1.37.34.73.13,1.3.32,1.73.58s.73.55.91.89.27.7.27,1.08c0,.5-.15.95-.44,1.34s-.73.69-1.3.91c-.58.22-1.28.33-2.11.33Z" fill="#1c2126" stroke-width="0"/><path d="M1149.04,618.41c-.12,0-.21-.04-.29-.11s-.11-.17-.11-.29v-1.81c0-.11.04-.2.11-.28.08-.08.17-.12.29-.12h1.81c.11,0,.2.04.28.12s.12.17.12.28v1.81c0,.12-.04.21-.12.29-.08.08-.17.11-.28.11h-1.81Z" fill="#1c2126" stroke-width="0"/><path d="M1153.56,618.41c-.12,0-.21-.04-.29-.11-.07-.07-.11-.17-.11-.29v-10.56c0-.12.04-.21.11-.29.07-.07.17-.11.29-.11h1.6c.12,0,.21.04.29.11s.11.17.11.29v10.56c0,.12-.04.21-.11.29-.07.08-.17.11-.29.11h-1.6Z" fill="#1c2126" stroke-width="0"/><path d="M1161.38,618.57c-.88,0-1.63-.15-2.22-.44-.6-.29-1.05-.71-1.37-1.26s-.49-1.18-.52-1.9c-.01-.21-.02-.46-.02-.73s0-.51.02-.71c.03-.74.21-1.37.54-1.91.33-.54.79-.95,1.39-1.25.6-.29,1.32-.44,2.18-.44s1.56.15,2.16.44c.6.29,1.06.71,1.39,1.25.33.54.52,1.18.56,1.91,0,.2.02.44.02.71s0,.51-.02.73c-.04.73-.22,1.36-.54,1.9s-.77.96-1.37,1.26c-.6.29-1.33.44-2.21.44ZM1161.38,616.79c.52,0,.92-.16,1.18-.48.26-.32.41-.79.44-1.42,0-.16.02-.37.02-.64s0-.48-.02-.64c-.03-.62-.18-1.09-.44-1.42-.26-.33-.65-.49-1.18-.49s-.92.16-1.18.49-.42.8-.45,1.42c-.01.16-.02.37-.02.64s0,.48.02.64c.03.63.18,1.1.45,1.42.27.32.66.48,1.18.48Z" fill="#1c2126" stroke-width="0"/><path d="M1169.81,618.41c-.16,0-.28-.04-.36-.12-.08-.08-.15-.17-.2-.28l-3.01-7.42s-.03-.09-.03-.14c0-.1.03-.18.1-.25.07-.07.15-.1.25-.1h1.55c.14,0,.24.04.31.11.07.08.12.14.14.21l1.97,5.26,1.97-5.26c.03-.06.08-.13.14-.21.06-.07.16-.11.3-.11h1.55c.1,0,.18.04.25.1.07.07.1.15.1.25,0,.05,0,.1-.02.14l-3.01,7.42c-.04.11-.11.2-.19.28s-.21.12-.38.12h-1.44Z" fill="#1c2126" stroke-width="0"/><path d="M1179.6,618.57c-1.23,0-2.2-.34-2.92-1.02-.72-.68-1.1-1.67-1.14-2.98v-.67c.04-.83.23-1.54.56-2.14.33-.59.79-1.04,1.39-1.36.6-.31,1.29-.47,2.1-.47.91,0,1.66.18,2.26.55s1.05.87,1.35,1.5c.3.63.46,1.36.46,2.18v.37c0,.11-.04.2-.11.28-.07.08-.17.12-.29.12h-5.22v.11c.01.34.08.65.19.94.12.28.29.51.52.68.23.17.51.26.84.26.26,0,.47-.04.64-.12.17-.08.31-.17.42-.27.11-.1.19-.19.25-.26.1-.12.17-.19.23-.22.06-.03.15-.04.26-.04h1.7c.1,0,.18.03.25.1.07.06.1.14.09.24-.01.18-.1.4-.26.65-.17.25-.41.5-.73.74-.32.24-.72.44-1.19.6s-1.02.24-1.64.24ZM1178.04,613.46h3.12v-.05c0-.37-.06-.7-.18-.98-.12-.28-.3-.5-.54-.66-.23-.16-.52-.24-.85-.24s-.61.08-.84.24c-.23.16-.41.38-.53.66-.12.28-.18.61-.18.98v.05Z" fill="#1c2126" stroke-width="0"/><polygon points="1104.46 614.96 1098.89 611.74 1093.31 614.96 1104.46 621.39 1115.62 614.96 1110.04 611.74 1104.46 614.96" fill="#b7303d" stroke="#1c2126" stroke-linejoin="round" stroke-width=".33"/><polygon points="1098.89 605.3 1098.89 611.74 1093.31 614.96 1093.31 608.52 1098.89 605.3" fill="#ea4f4b" stroke="#1c2126" stroke-linejoin="round" stroke-width=".33"/><polygon points="1098.89 605.3 1098.89 611.74 1104.46 614.96 1104.46 608.52 1098.89 605.3" fill="#ff6b60" stroke="#1c2126" stroke-linejoin="round" stroke-width=".33"/><polygon points="1110.04 605.3 1110.04 611.74 1104.46 614.96 1104.46 608.52 1110.04 605.3" fill="#ea4f4b" stroke="#1c2126" stroke-linejoin="round" stroke-width=".33"/><polygon points="1110.04 605.3 1110.04 611.74 1115.61 614.96 1115.62 608.52 1110.04 605.3" fill="#ff6b60" stroke="#1c2126" stroke-linejoin="round" stroke-width=".33"/></g></svg>