<svg xmlns="http://www.w3.org/2000/svg" xmlns:xlink="http://www.w3.org/1999/xlink" width="1200" height="630" viewBox="0 0 1200 630"><defs><pattern id="a" width="12.01" height="12" patternUnits="userSpaceOnUse" viewBox="0 0 12.01 12"><rect width="12.01" height="12" fill="none"/><rect width="7" height="7" fill="#30c8c9"/><rect x="7.01" width="5" height="7" fill="#054861" opacity="0"/><polygon points="0 12 0 7 12.01 7 12.01 12 0 12" fill="#054861" opacity="0"/></pattern><linearGradient id="b" x1="595.68" y1="167.34" x2="595.68" y2="293.34" gradientUnits="userSpaceOnUse"><stop offset="0" stop-color="#ff6b60"/><stop offset="1" stop-color="#db4648"/></linearGradient></defs><rect width="1200" height="498.72" fill="#054861"/><rect width="1200" height="498.72" opacity="0.1" fill="url(#a)"/><rect x="1045.98" y="355.09" width="7" height="7" fill="#ff6b60"/><rect x="1069.98" y="355.09" width="7" height="7" fill="#ff6b60"/><rect x="1069.98" y="367.09" width="7" height="7" fill="#ff6b60"/><rect x="1033.98" y="367.09" width="7" height="7" fill="#ff6b60"/><rect x="1045.98" y="367.09" width="7" height="7" fill="#ff6b60"/><rect x="1057.98" y="367.09" width="7" height="7" fill="#ff6b60"/><rect x="1081.98" y="367.09" width="7" height="7" fill="#ff6b60"/><rect x="1069.98" y="379.09" width="7" height="7" fill="#ff6b60"/><rect x="1033.98" y="379.09" width="7" height="7" fill="#ff6b60"/><rect x="1045.98" y="379.09" width="7" height="7" fill="#ff6b60"/><rect x="1057.98" y="379.09" width="7" height="7" fill="#ff6b60"/><rect x="1069.98" y="391.09" width="7" height="7" fill="#ff6b60"/><rect x="1045.98" y="391.09" width="7" height="7" fill="#ff6b60"/><rect x="1057.98" y="391.09" width="7" height="7" fill="#ff6b60"/><rect x="1057.98" y="403.09" width="7" height="7" fill="#ff6b60"/><rect x="1081.98" y="379.09" width="7" height="7" fill="#ff6b60"/><rect x="121.74" y="43.05" width="7" height="7" fill="#ff6b60"/><rect x="145.74" y="43.05" width="7" height="7" fill="#ff6b60"/><rect x="145.74" y="55.05" width="7" height="7" fill="#ff6b60"/><rect x="109.74" y="55.05" width="7" height="7" fill="#ff6b60"/><rect x="121.74" y="55.05" width="7" height="7" fill="#ff6b60"/><rect x="133.74" y="55.05" width="7" height="7" fill="#ff6b60"/><rect x="157.74" y="55.05" width="7" height="7" fill="#ff6b60"/><rect x="145.74" y="67.05" width="7" height="7" fill="#ff6b60"/><rect x="109.74" y="67.05" width="7" height="7" fill="#ff6b60"/><rect x="121.74" y="67.05" width="7" height="7" fill="#ff6b60"/><rect x="133.74" y="67.05" width="7" height="7" fill="#ff6b60"/><rect x="145.74" y="79.05" width="7" height="7" fill="#ff6b60"/><rect x="121.74" y="79.05" width="7" height="7" fill="#ff6b60"/><rect x="133.74" y="79.05" width="7" height="7" fill="#ff6b60"/><rect x="133.74" y="91.05" width="7" height="7" fill="#ff6b60"/><rect x="157.74" y="67.05" width="7" height="7" fill="#ff6b60"/><rect x="205.68" y="67.05" width="7" height="7" fill="#ff6b60"/><rect x="229.68" y="67.05" width="7" height="7" fill="#ff6b60"/><rect x="229.68" y="79.05" width="7" height="7" fill="#ff6b60"/><rect x="193.68" y="79.05" width="7" height="7" fill="#ff6b60"/><rect x="205.68" y="79.05" width="7" height="7" fill="#ff6b60"/><rect x="217.68" y="79.05" width="7" height="7" fill="#ff6b60"/><rect x="241.68" y="79.05" width="7" height="7" fill="#ff6b60"/><rect x="229.68" y="91.05" width="7" height="7" fill="#ff6b60"/><rect x="193.68" y="91.05" width="7" height="7" fill="#ff6b60"/><rect x="205.68" y="91.05" width="7" height="7" fill="#ff6b60"/><rect x="217.68" y="91.05" width="7" height="7" fill="#ff6b60"/><rect x="229.68" y="103.05" width="7" height="7" fill="#ff6b60"/><rect x="205.68" y="103.05" width="7" height="7" fill="#ff6b60"/><rect x="217.68" y="103.05" width="7" height="7" fill="#ff6b60"/><rect x="217.68" y="115.05" width="7" height="7" fill="#ff6b60"/><rect x="241.68" y="91.05" width="7" height="7" fill="#ff6b60"/><path d="M179.37,213.09H144.11l-14.52,91.77H92.26l-9.62-13.6,24.14-78.17H71.52l-9.62-13.6L76.36,183l98.23-13.59L184.2,183ZM275.29,183,268,228H226.37L233.63,183,224,169.42,196.3,183l-29,108.25,9.62,13.6h37.33l7.43-46.49h41.65l-17.05,32.89,9.62,13.6h37.33L312.62,183,303,169.42Zm129.62,0,38.88,121.85H407.67l-9.62-13.6,3.22-9h-52l-13.52,22.64H297.41l-9.62-13.6L374.66,183l20.63-13.59Zm-39,71h28.53l-8.69-33h-.86Zm169.74-7.48L494.6,183,485,169.42,467.3,183l-29,108.25,9.62,13.6h34.91L493,241.33l40.86,63.53h27.3L580.5,183l-9.62-13.59L545.76,183ZM680.22,183,630.1,234.34h-.34L637.88,183l-9.62-13.59L600.55,183l-29,108.25,9.62,13.6h37.33l8.64-54.27h.35l37.68,54.27h42.86L664.6,242.4,724.47,183l-9.62-13.59Zm212.24,0-9.62-13.59L849.59,183l-31.14,39.61L800.16,183l-9.62-13.59-32,13.59,36.89,72.57-17.47,35.68,9.62,13.6h37.33l7.63-47.93Zm104.9,30.42q5.53,15,2.42,33.88-2.94,18.84-12.27,32.14a62,62,0,0,1-23.76,20.4q-14.44,7.08-32.93,7.08-21.26,0-34.82-8.81c-9-5.88-19-18.83-24.75-29.24-5.2-9.37,1.27-16,3.23-28.49s6-23.27,12.27-32.14a61.3,61.3,0,0,1,23.76-20.31q14.43-7,32.76-7c14.28,0,24-7.43,31.78,0C983.36,188.87,993.67,203.41,997.36,213.43Zm-36.47,13.74q-1.89-7.51-7.17-11.4T940,211.88q-11.76,0-18.14,8.21t-8.65,22q-1.73,10.89.09,18.49t7.09,11.5q5.26,3.88,13.56,3.89,11.76,0,18.41-8.39t8.73-22Q962.8,234.69,960.89,227.17ZM1102.44,183l-11.06,69.31q-1.73,11.58-6.83,17.63t-15,6.05q-10.87,0-14.6-6t-2-17l11.06-70-9.62-13.59L1026.74,183,1016,250.42c-2.08,13-10.65,10.6-7,19s15.88,26.29,27.07,31.6c8.21,3.9,18,6,29.55,6,13,0,25.23-2.55,32.32-6.05a46.54,46.54,0,0,0,20-18q7.17-11.93,9.94-29.38L1139.08,183l-9.29-13.59Z" fill="#1c2126" stroke="#1c2126" stroke-linejoin="round" stroke-width="2"/><path d="M169.75,199.49H134.49L120,291.26H82.64l14.52-91.77H61.9l4.84-30.07H174.59Zm95.92-30.07-7.26,44.93H216.76L224,169.42H186.68L167.33,291.26h37.33l7.43-46.49h41.65l-7.43,46.49h37.33L303,169.42Zm129.62,0,38.88,121.84H398.05l-6.4-22.64h-52l-13.52,22.64H287.79L365,169.42Zm-39,71h28.53l-8.69-33h-.86ZM526,233l-41-63.55h-27.3L438.32,291.26h34.91l10.13-63.53,40.86,63.53h27.3l19.36-121.84H536.14ZM670.6,169.42l-50.12,51.33h-.34l8.12-51.33H590.93L571.57,291.26H608.9L617.54,237h.35l37.68,54.27h42.86L655,228.81l59.87-59.39Zm212.24,0H840L808.83,209l-18.29-39.6H748.89L785.78,242l-7.85,49.28h37.33l7.63-47.93Zm104.9,30.42q5.53,15,2.42,33.87-2.94,18.84-12.27,32.15a61.93,61.93,0,0,1-23.76,20.39q-14.43,7.1-32.93,7.09-21.26,0-34.82-8.82a46.64,46.64,0,0,1-19-23.94q-5.45-15.12-2.51-33.78,2.94-18.84,12.27-32.15a61.26,61.26,0,0,1,23.77-20.31q14.42-7,32.75-7,21.42,0,35,8.73A46.76,46.76,0,0,1,987.74,199.84Zm-36.46,13.74q-1.9-7.53-7.18-11.41t-13.74-3.89q-11.75,0-18.14,8.21t-8.65,22q-1.73,10.88.09,18.49t7.09,11.49q5.26,3.89,13.56,3.89,11.76,0,18.41-8.38t8.73-22Q953.18,221.09,951.28,213.58Zm141.54-44.16-11.06,69.3q-1.73,11.58-6.83,17.63t-14.94,6q-10.89,0-14.61-6t-2-17l11.06-70h-37.33l-10.71,67.4q-3.12,19.53,2.33,32.06a35.73,35.73,0,0,0,17.72,18.49q12.27,6,29.55,6,19.53,0,32.32-6a45.43,45.43,0,0,0,20-18q7.17-11.93,9.94-29.38l11.23-70.51Z" stroke="#1c2126" stroke-linejoin="round" stroke-width="2" fill="url(#b)"/><path d="M266.9,353.93v3.64h6.27v7.07H266.9V387.5h-8.35V364.64h-4.82v-7.07h4.82V354c0-5.84,3.48-9.48,9.64-9.48H274V351H269.9C267.87,351,266.9,352,266.9,353.93Z" fill="#fff"/><path d="M306.79,372.56c0,8.95-5.72,15.69-15.74,15.69s-15.79-6.74-15.79-15.69,5.73-15.68,15.79-15.68S306.79,363.62,306.79,372.56Zm-22.8,0c0,4.93,2.73,8.09,7.06,8.09s7-3.16,7-8.09-2.68-8.08-7-8.08S284,367.64,284,372.56Z" fill="#fff"/><path d="M330.31,356.88v8.78h-3.38c-4.92,0-7.17,2.35-7.17,7.44v14.4h-8.35V357.57h8.35v4.07C321.63,358.7,325.11,356.88,330.31,356.88Z" fill="#fff"/><path d="M385.35,372.56c0,10.12-5.51,15.69-13.28,15.69-4.23,0-7.38-1.6-9.37-4.28v3.53h-8.35V344.94h8.35v16.17c2-2.63,5.14-4.23,9.37-4.23C379.84,356.88,385.35,362.39,385.35,372.56Zm-8.78.16c0-5.19-2.89-8.29-6.9-8.29s-7,3.05-7,8.29c0,5,2.84,8.36,7,8.36S376.57,377.65,376.57,372.72Z" fill="#fff"/><path d="M416.68,357.57V387.5h-8.35v-3.21a9.76,9.76,0,0,1-8.19,4c-6.59,0-10.87-4.92-10.87-13.76V357.57h8.35v15.37c0,4.55,2.09,7.12,5.3,7.12s5.41-2.73,5.41-7.07V357.57Z" fill="#fff"/><path d="M432.11,349.11a5,5,0,1,1-10,0,5,5,0,1,1,10,0Zm-.81,7.77V387.5H423V356.88a6.79,6.79,0,0,0,4.18,1.23A6.66,6.66,0,0,0,431.3,356.88Z" fill="#fff"/><path d="M446.19,344.94V387.5h-8.35V344.94Z" fill="#fff"/><path d="M481.31,344.94V387.5H473V384c-2,2.68-5.08,4.28-9.26,4.28-7.76,0-13.23-5.57-13.23-15.69s5.47-15.68,13.23-15.68c4.18,0,7.28,1.6,9.26,4.23V344.94ZM473,372.35c0-5.3-2.78-8.3-6.85-8.3s-6.91,3.05-6.91,8.3,2.89,8.3,6.91,8.3S473,377.65,473,372.35Z" fill="#fff"/><path d="M497.06,349.11a5,5,0,1,1-10,0,5,5,0,1,1,10,0Zm-.8,7.77V387.5h-8.35V356.88a6.78,6.78,0,0,0,4.17,1.23A6.69,6.69,0,0,0,496.26,356.88Z" fill="#fff"/><path d="M530.9,370.58V387.5h-8.35V372.19c0-4.61-2.19-7.18-5.57-7.18s-5.78,2.79-5.78,7.13V387.5h-8.35V357.57h8.35V361a10.11,10.11,0,0,1,8.51-4.07C526.51,356.88,530.9,361.75,530.9,370.58Z" fill="#fff"/><path d="M566.08,357.57v31.75c0,6.54-4,10.6-10.54,10.6H541.29v-7.06H554.2c2.41,0,3.53-1.18,3.53-3.54v-6.15c-2,2.57-5.08,4.17-9.31,4.17-7.77,0-13.28-5.41-13.28-15.31s5.51-15.15,13.28-15.15c4.23,0,7.33,1.55,9.31,4.17v-3.48Zm-8.35,14.24c0-4.87-2.78-7.76-6.9-7.76s-7,2.89-7,7.76,2.95,8,7,8S557.73,376.74,557.73,371.81Z" fill="#fff"/><path d="M618.56,370.42V387.5h-8.35v-3.26c-2.09,2.41-5.35,3.8-9.74,3.8-6.27,0-10.18-3.16-10.18-8.35,0-4.72,3.11-8.3,10.93-9.64l9-1.5c0-2.89-1.82-4.55-5.19-4.55s-4.82,1.39-5,3.69h-8.45c.16-5.51,4.65-10.65,13.49-10.65C613.64,357,618.56,361.86,618.56,370.42Zm-8.35,4.5v-.43l-6.85,1.13c-3.59.59-4.5,1.82-4.5,3.37,0,1.34,1.29,2.3,3.69,2.3C607.16,381.29,610.21,378.72,610.21,374.92Z" fill="#fff"/><path d="M675.22,372.56c0,10.12-5.52,15.69-13.28,15.69-4.23,0-7.39-1.6-9.37-4.28v3.53h-8.35V344.94h8.35v16.17c2-2.63,5.14-4.23,9.37-4.23C669.7,356.88,675.22,362.39,675.22,372.56Zm-8.78.16c0-5.19-2.89-8.29-6.91-8.29s-7,3.05-7,8.29c0,5,2.84,8.36,7,8.36S666.44,377.65,666.44,372.72Z" fill="#fff"/><path d="M709.22,375H687.11a6.43,6.43,0,0,0,6.8,6.05c3,0,4.93-1,5.84-2.68h8.89C706.92,384,701.46,388,693.8,388c-9.37,0-15.52-6.16-15.52-15.48S684.33,357,693.75,357s15.47,6.1,15.47,15.42Zm-22-5.73h13.17c-.59-3.38-3.21-5.3-6.64-5.3A6.55,6.55,0,0,0,687.22,369.3Z" fill="#fff"/><path d="M731.18,364.64H724.7V387.5h-8.35V364.64h-5.62v-7.07h5.62v-9.42h8.35v9.42h6.48Z" fill="#fff"/><path d="M754.64,364.64h-6.48V387.5H739.8V364.64h-5.62v-7.07h5.62v-9.42h8.36v9.42h6.48Z" fill="#fff"/><path d="M787.14,375H765a6.43,6.43,0,0,0,6.8,6.05c2.94,0,4.92-1,5.83-2.68h8.89c-1.71,5.62-7.17,9.64-14.83,9.64-9.37,0-15.53-6.16-15.53-15.48s6-15.52,15.48-15.52,15.47,6.1,15.47,15.42Zm-22-5.73H778.3c-.58-3.38-3.21-5.3-6.63-5.3A6.57,6.57,0,0,0,765.13,369.3Z" fill="#fff"/><path d="M810.54,356.88v8.78h-3.37c-4.93,0-7.18,2.35-7.18,7.44v14.4h-8.35V357.57H800v4.07C801.87,358.7,805.35,356.88,810.54,356.88Z" fill="#fff"/><path d="M877.26,357.57l-8.78,29.93h-8.41l-6.05-19-6.1,19h-8.19L831,357.57h8.14l5.62,19.06,5.89-19.06h7.17l5.84,19,5.62-19Z" fill="#fff"/><path d="M908.8,375H886.69a6.43,6.43,0,0,0,6.8,6.05c3,0,4.93-1,5.84-2.68h8.89C906.5,384,901,388,893.38,388c-9.37,0-15.52-6.16-15.52-15.48s6-15.52,15.47-15.52,15.47,6.1,15.47,15.42Zm-22-5.73H900c-.59-3.38-3.21-5.3-6.64-5.3A6.55,6.55,0,0,0,886.8,369.3Z" fill="#fff"/><path d="M944.52,372.56c0,10.12-5.51,15.69-13.28,15.69-4.23,0-7.39-1.6-9.37-4.28v3.53h-8.35V344.94h8.35v16.17c2-2.63,5.14-4.23,9.37-4.23C939,356.88,944.52,362.39,944.52,372.56Zm-8.78.16c0-5.19-2.89-8.29-6.91-8.29s-7,3.05-7,8.29c0,5,2.84,8.36,7,8.36S935.74,377.65,935.74,372.72Z" fill="#fff"/><polygon points="296.38 291.26 287.79 291.26 293.61 298.64 296.38 291.26" fill="#1c2126" stroke="#1c2126" stroke-linejoin="round" stroke-width="2"/><polyline points="98.48 234.03 90.52 284.01 98.48 284.01" fill="none" stroke="#ffd3bf" stroke-linecap="round" stroke-linejoin="round" stroke-width="2"/><polyline points="258.51 258.37 254.43 284.01 262.39 284.01" fill="none" stroke="#ffd3bf" stroke-linecap="round" stroke-linejoin="round" stroke-width="2"/><polyline points="519.34 270.51 528.01 284.01 535.98 284.01" fill="none" stroke="#ffd3bf" stroke-linecap="round" stroke-linejoin="round" stroke-width="2"/><polyline points="650.92 271.24 659.96 284.01 667.93 284.01" fill="none" stroke="#ffd3bf" stroke-linecap="round" stroke-linejoin="round" stroke-width="2"/><polyline points="78.96 175.05 72.32 175.05 69.46 193.01" fill="none" stroke="#ffd3bf" stroke-linecap="round" stroke-linejoin="round" stroke-width="2"/><polyline points="198.35 175.05 191.71 175.05 178.78 256.17" fill="none" stroke="#ffd3bf" stroke-linecap="round" stroke-linejoin="round" stroke-width="2"/><polyline points="470.86 175.05 464.22 175.05 451.29 256.17" fill="none" stroke="#ffd3bf" stroke-linecap="round" stroke-linejoin="round" stroke-width="2"/><polyline points="603.36 175.05 596.72 175.05 588.43 227.09" fill="none" stroke="#ffd3bf" stroke-linecap="round" stroke-linejoin="round" stroke-width="2"/><polyline points="1028.98 175.05 1022.34 175.05 1015.17 220.05" fill="none" stroke="#ffd3bf" stroke-linecap="round" stroke-linejoin="round" stroke-width="2"/><polyline points="766.24 175.05 759.6 175.05 779.43 213.57" fill="none" stroke="#ffd3bf" stroke-linecap="round" stroke-linejoin="round" stroke-width="2"/><polyline points="375.57 175.05 368.94 175.05 323.94 247.7" fill="none" stroke="#ffd3bf" stroke-linecap="round" stroke-linejoin="round" stroke-width="2"/><path d="M890.8,277.65a41.69,41.69,0,0,1-17-21.37q-4.86-13.5-2.24-30.16,2.63-16.81,10.95-28.7a54.67,54.67,0,0,1,21.22-18.12" fill="none" stroke="#ffd3bf" stroke-linecap="round" stroke-linejoin="round" stroke-width="2"/><rect x="1118.21" y="30.99" width="7" height="7" fill="#ff6b60"/><rect x="1142.21" y="30.99" width="7" height="7" fill="#ff6b60"/><rect x="1142.21" y="42.99" width="7" height="7" fill="#ff6b60"/><rect x="1106.21" y="42.99" width="7" height="7" fill="#ff6b60"/><rect x="1118.21" y="42.99" width="7" height="7" fill="#ff6b60"/><rect x="1130.21" y="42.99" width="7" height="7" fill="#ff6b60"/><rect x="1154.21" y="42.99" width="7" height="7" fill="#ff6b60"/><rect x="1142.21" y="54.99" width="7" height="7" fill="#ff6b60"/><rect x="1106.21" y="54.99" width="7" height="7" fill="#ff6b60"/><rect x="1118.21" y="54.99" width="7" height="7" fill="#ff6b60"/><rect x="1130.21" y="54.99" width="7" height="7" fill="#ff6b60"/><rect x="1142.21" y="66.99" width="7" height="7" fill="#ff6b60"/><rect x="1118.21" y="66.99" width="7" height="7" fill="#ff6b60"/><rect x="1130.21" y="66.99" width="7" height="7" fill="#ff6b60"/><rect x="1130.21" y="78.99" width="7" height="7" fill="#ff6b60"/><rect x="1154.21" y="54.99" width="7" height="7" fill="#ff6b60"/><rect y="595" width="1200" height="35" fill="#fff"/><rect y="499.19" width="1200" height="95.81" fill="#fff"/><line y1="499.19" x2="1200" y2="499.19" fill="none" stroke="#1c2126" stroke-miterlimit="10"/><line y1="595" x2="1200" y2="595" fill="none" stroke="#1c2126" stroke-miterlimit="10"/><path d="M24.24,559.45V540.69H17.85v-2.37H33.21v2.37H26.82v18.76Z" fill="#1c2126"/><path d="M44.08,559.89c-4.81,0-7.75-3.45-7.75-9.3v-3.41c0-5.85,2.94-9.3,7.75-9.3s7.74,3.45,7.74,9.3v3.41C51.82,556.44,48.88,559.89,44.08,559.89Zm5.14-9.31v-3.39c0-4.41-1.94-6.87-5.14-6.87s-5.15,2.46-5.15,6.87v3.39c0,4.41,1.94,6.87,5.15,6.87S49.22,555,49.22,550.58Z" fill="#1c2126"/><path d="M60,545.58a2.65,2.65,0,1,1,2.65,2.71A2.7,2.7,0,0,1,60,545.58Zm0,11.25a2.65,2.65,0,1,1,2.65,2.71A2.68,2.68,0,0,1,60,556.83Z" fill="#1c2126"/><line x1="582.03" y1="498.72" x2="582.03" y2="595" fill="none" stroke="#1c2126" stroke-miterlimit="10"/><path d="M1129.73,614.6a4.72,4.72,0,1,1-4.71-4.69A4.43,4.43,0,0,1,1129.73,614.6Zm-6.82,0A2.12,2.12,0,0,0,1125,617c1.3,0,2.1-.94,2.1-2.41s-.8-2.42-2.1-2.42S1122.91,613.12,1122.91,614.6Z" fill="#1c2126"/><path d="M1138.54,612.93H1136c0-.57-.52-1-1.37-1s-1.25.3-1.25.72.19.62,1.2.8l1.2.19c2.3.39,2.91,1.43,2.91,2.79,0,1.74-1.39,2.85-3.92,2.85-2.72,0-4.08-1.3-4.08-3.09h2.48c0,.65.53,1.1,1.7,1.1.88,0,1.33-.3,1.33-.75s-.26-.72-1.3-.9l-1.25-.21c-2.11-.33-2.77-1.39-2.77-2.67,0-1.58,1.3-2.8,3.78-2.8S1138.54,611.24,1138.54,612.93Z" fill="#1c2126"/><path d="M1147.49,612.93H1145c0-.57-.53-1-1.38-1s-1.25.3-1.25.72.2.62,1.2.8l1.21.19c2.3.39,2.91,1.43,2.91,2.79,0,1.74-1.39,2.85-3.92,2.85-2.72,0-4.09-1.3-4.09-3.09h2.49c0,.65.52,1.1,1.69,1.1.88,0,1.33-.3,1.33-.75s-.25-.72-1.3-.9l-1.24-.21c-2.12-.33-2.77-1.39-2.77-2.67,0-1.58,1.29-2.8,3.77-2.8S1147.49,611.24,1147.49,612.93Z" fill="#1c2126"/><path d="M1152,617.64a1.6,1.6,0,1,1-1.6-1.62A1.55,1.55,0,0,1,1152,617.64Z" fill="#1c2126"/><path d="M1156.27,606.34v12.72h-2.5V606.34Z" fill="#1c2126"/><path d="M1167,614.6a4.71,4.71,0,1,1-4.7-4.69A4.42,4.42,0,0,1,1167,614.6Zm-6.81,0a2.12,2.12,0,0,0,2.11,2.41c1.29,0,2.1-.94,2.1-2.41s-.81-2.42-2.1-2.42S1160.16,613.12,1160.16,614.6Z" fill="#1c2126"/><path d="M1176.59,610.12l-3.26,8.94h-3l-3.28-8.94h2.64l2.16,6.32,2.16-6.32Z" fill="#1c2126"/><path d="M1186.06,615.33h-6.61a1.92,1.92,0,0,0,2,1.81,1.82,1.82,0,0,0,1.75-.8h2.66a5,5,0,1,1,.17-1.77Zm-6.58-1.71h3.94a1.87,1.87,0,0,0-2-1.58A2,2,0,0,0,1179.48,613.62Z" fill="#1c2126"/><path d="M605.51,559.45V538.32H618v2.37H608.1v7.25h9v2.3h-9v9.21Z" fill="#1c2126"/><path d="M625.54,551v8.42H623V538.32h7.09c4.19,0,6.81,2.43,6.81,6.35A5.91,5.91,0,0,1,633,550.5l4.3,9h-2.91L630.41,551Zm0-2.18h4.19c2.92,0,4.56-1.48,4.56-4.12s-1.61-4.11-4.44-4.11h-4.31Z" fill="#1c2126"/><path d="M648.15,559.89c-4.81,0-7.75-3.45-7.75-9.3v-3.41c0-5.85,2.94-9.3,7.75-9.3s7.75,3.45,7.75,9.3v3.41C655.9,556.44,653,559.89,648.15,559.89Zm5.14-9.31v-3.39c0-4.41-1.93-6.87-5.14-6.87s-5.14,2.46-5.14,6.87v3.39c0,4.41,1.93,6.87,5.14,6.87S653.29,555,653.29,550.58Z" fill="#1c2126"/><path d="M661.38,559.45h-2.3V538.32H662l4.64,13.12h.19l4.62-13.12h2.9v21.13H672v-8.11l.13-8.56H672l-4.25,11.71h-2l-4.25-11.71h-.19l.14,8.56Z" fill="#1c2126"/><path d="M682.59,545.58a2.65,2.65,0,1,1,2.65,2.71A2.7,2.7,0,0,1,682.59,545.58Zm0,11.25a2.65,2.65,0,1,1,2.65,2.71A2.68,2.68,0,0,1,682.59,556.83Z" fill="#1c2126"/><path d="M27.75,606.92v12.14H25v-2.13l-4.7-5.41v7.54H17.63V606.92H20L25,612.77v-5.85Z" fill="#1c2126"/><path d="M38.37,615.33H31.76a1.92,1.92,0,0,0,2,1.81,1.81,1.81,0,0,0,1.74-.8H38.2a4.35,4.35,0,0,1-4.44,2.88,4.63,4.63,0,1,1,0-9.26,4.32,4.32,0,0,1,4.62,4.61Zm-6.58-1.71h3.94a1.87,1.87,0,0,0-2-1.58A2,2,0,0,0,31.79,613.62Z" fill="#1c2126"/><path d="M44.93,612.23H43v6.83H40.5v-6.83H38.82v-2.11H40.5V607.3H43v2.82h1.93Z" fill="#1c2126"/><path d="M48.9,606.34v12.72H46.4V606.34Z" fill="#1c2126"/><path d="M53.62,607.59a1.5,1.5,0,1,1-3,0,1.5,1.5,0,1,1,3,0Zm-.24,2.32v9.15h-2.5v-9.15a2.06,2.06,0,0,0,1.25.37A2,2,0,0,0,53.38,609.91Z" fill="#1c2126"/><path d="M58.55,609v1.09h1.87v2.11H58.55v6.83h-2.5v-6.83H54.61v-2.11h1.44V609a2.62,2.62,0,0,1,2.88-2.83h1.75v1.94H59.44A.78.78,0,0,0,58.55,609Z" fill="#1c2126"/><path d="M70.71,610.12l-5,11.89H63.33l1.38-3.28-3.49-8.61h2.51L66,615.69l2.32-5.57Z" fill="#1c2126"/><path d="M109.4,613c0,3.92-2.34,6.22-5.8,6.22s-5.79-2.3-5.79-6.22,2.33-6.25,5.79-6.25S109.4,609.08,109.4,613Zm-8.79,0c0,2.35,1.3,3.66,3,3.66s3-1.31,3-3.66-1.32-3.67-3-3.67S100.61,610.63,100.61,613Z" fill="#1c2126"/><path d="M120.32,610.53h-2.8c0-.89-.67-1.52-1.85-1.52s-1.7.55-1.7,1.23.38,1,1.49,1.3l1.37.32c2.64.59,3.73,1.73,3.73,3.73s-1.6,3.63-4.73,3.63-4.9-1.61-4.9-4h2.8a1.88,1.88,0,0,0,2.11,1.84c1.27,0,1.92-.63,1.92-1.44s-.38-1.09-1.57-1.35l-1.32-.27c-2.77-.56-3.72-1.87-3.72-3.73,0-2.06,1.6-3.54,4.58-3.54S120.32,608.29,120.32,610.53Z" fill="#1c2126"/><path d="M131.38,610.53h-2.8c0-.89-.67-1.52-1.86-1.52-1,0-1.69.55-1.69,1.23s.38,1,1.48,1.3l1.38.32c2.64.59,3.73,1.73,3.73,3.73s-1.6,3.63-4.74,3.63-4.9-1.61-4.9-4h2.81a1.88,1.88,0,0,0,2.11,1.84c1.26,0,1.92-.63,1.92-1.44s-.39-1.09-1.57-1.35l-1.33-.27c-2.77-.56-3.71-1.87-3.71-3.73,0-2.06,1.6-3.54,4.58-3.54S131.38,608.29,131.38,610.53Z" fill="#1c2126"/><path d="M91.16,610.11a3.62,3.62,0,0,0-1-1.22,3.91,3.91,0,0,0-2.49-1.14,3.62,3.62,0,0,0-2.51,1.37,8,8,0,0,0-1.41,2.21,6.53,6.53,0,0,0-2.39-2.73,4.09,4.09,0,0,0-3.58-.35,3,3,0,0,0-1.82,3,5,5,0,0,0,2,2.88q3.32,3,6.72,5.87l5-5.64C90.67,613.14,91.8,611.56,91.16,610.11Z" fill="#ff6b60" stroke="#ff6b60" stroke-linejoin="round"/></svg>