<?xml version="1.0" encoding="UTF-8"?><svg xmlns="http://www.w3.org/2000/svg" viewBox="0 0 1200 630"><g id="b"><rect x="-.79" width="1200" height="498.72" fill="#054861"/></g><g id="d"><rect x="0" y="595" width="1200" height="35" fill="#fff"/><rect x="0" y="499.19" width="1200" height="95.81" fill="#fff"/><line x1="0" y1="499.19" x2="1200" y2="499.19" fill="none" stroke="#1c2126" stroke-miterlimit="10"/><line x1="0" y1="595" x2="1200" y2="595" fill="none" stroke="#1c2126" stroke-miterlimit="10"/><path d="M24.24,559.45v-18.76h-6.39v-2.37h15.35v2.37h-6.39v18.76h-2.58Z" fill="#1c2126"/><path d="M44.08,559.89c-4.8,0-7.75-3.46-7.75-9.3v-3.41c0-5.84,2.94-9.3,7.75-9.3s7.75,3.46,7.75,9.3v3.41c0,5.84-2.94,9.3-7.75,9.3ZM49.22,550.58v-3.38c0-4.41-1.93-6.87-5.14-6.87s-5.14,2.46-5.14,6.87v3.38c0,4.41,1.93,6.87,5.14,6.87s5.14-2.46,5.14-6.87Z" fill="#1c2126"/><path d="M59.97,545.58c0-1.48,1.2-2.71,2.65-2.71s2.65,1.23,2.65,2.71-1.2,2.71-2.65,2.71-2.65-1.23-2.65-2.71ZM59.97,556.83c0-1.48,1.2-2.7,2.65-2.7s2.65,1.21,2.65,2.7-1.2,2.71-2.65,2.71-2.65-1.21-2.65-2.71Z" fill="#1c2126"/><line x1="582.03" y1="498.72" x2="582.03" y2="595" fill="none" stroke="#1c2126" stroke-miterlimit="10"/><path d="M605.51,559.45v-21.14h12.47v2.37h-9.87v7.25h9.02v2.3h-9.02v9.21h-2.59Z" fill="#1c2126"/><path d="M625.54,551.03v8.42h-2.55v-21.14h7.09c4.19,0,6.81,2.43,6.81,6.36,0,2.77-1.54,5.04-3.94,5.83l4.31,8.95h-2.92l-3.94-8.42h-4.86ZM625.54,548.85h4.19c2.92,0,4.56-1.48,4.56-4.12s-1.61-4.12-4.44-4.12h-4.31v8.23Z" fill="#1c2126"/><path d="M648.15,559.89c-4.8,0-7.75-3.46-7.75-9.3v-3.41c0-5.84,2.94-9.3,7.75-9.3s7.75,3.46,7.75,9.3v3.41c0,5.84-2.94,9.3-7.75,9.3ZM653.29,550.58v-3.38c0-4.41-1.93-6.87-5.14-6.87s-5.14,2.46-5.14,6.87v3.38c0,4.41,1.93,6.87,5.14,6.87s5.14-2.46,5.14-6.87Z" fill="#1c2126"/><path d="M661.18,559.45h-2.31v-21.14h2.86l4.88,13.08h.19l4.86-13.08h2.86v21.14h-2.31v-8.1l.15-8.57h-.19l-4.45,11.71h-2.02l-4.45-11.71h-.19l.15,8.57v8.1Z" fill="#1c2126"/><path d="M682.59,545.58c0-1.48,1.2-2.71,2.65-2.71s2.65,1.23,2.65,2.71-1.2,2.71-2.65,2.71-2.65-1.23-2.65-2.71ZM682.59,556.83c0-1.48,1.2-2.7,2.65-2.7s2.65,1.21,2.65,2.7-1.2,2.71-2.65,2.71-2.65-1.21-2.65-2.71Z" fill="#1c2126"/><path d="M12.77,618.4c-.12,0-.21-.04-.26-.11s-.08-.17-.06-.27l2.22-10.42c.02-.12.07-.21.16-.29.08-.07.19-.11.3-.11h6.95c.12,0,.2.04.26.11.05.07.07.17.05.29l-.24,1.12c-.02.12-.08.21-.16.28-.08.07-.19.11-.3.11h-5.14l-.66,3.04h4.82c.12,0,.2.04.26.11.05.07.07.17.05.29l-.22,1.12c-.02.11-.08.2-.17.27-.09.07-.19.11-.31.11h-4.82l-.85,3.97c-.02.11-.08.2-.16.27s-.19.11-.3.11h-1.41Z" fill="#1c2126"/><path d="M25.41,618.56c-.81,0-1.49-.15-2.02-.45s-.92-.72-1.15-1.26c-.23-.54-.29-1.18-.17-1.9.03-.19.08-.43.13-.71s.12-.51.17-.7c.19-.74.49-1.37.89-1.91s.91-.96,1.54-1.26c.62-.3,1.36-.45,2.22-.45s1.49.15,2.02.45c.54.3.93.72,1.16,1.26s.29,1.18.18,1.91c-.04.19-.09.43-.14.7s-.11.51-.16.71c-.19.72-.48,1.36-.87,1.9-.39.54-.9.96-1.52,1.26s-1.38.45-2.26.45ZM25.57,616.98c.58,0,1.06-.18,1.46-.54.4-.36.69-.88.87-1.58.04-.16.09-.37.14-.62s.1-.46.13-.62c.12-.69.07-1.22-.14-1.58-.21-.36-.61-.54-1.18-.54s-1.05.18-1.46.54-.69.88-.86,1.58c-.04.16-.09.37-.15.62s-.1.46-.12.62c-.12.69-.07,1.22.14,1.58s.6.54,1.18.54Z" fill="#1c2126"/><path d="M31.53,618.4c-.11,0-.19-.04-.25-.11s-.08-.17-.06-.27l1.6-7.54c.02-.12.08-.21.17-.29s.19-.11.3-.11h1.3c.11,0,.19.04.25.11s.08.17.06.29l-.14.66c.26-.34.58-.6.98-.78s.88-.27,1.44-.27h.78c.12,0,.2.04.26.11.05.07.07.16.05.27l-.24,1.15c-.02.11-.08.2-.17.27s-.19.11-.3.11h-1.25c-.51,0-.94.14-1.29.43-.35.28-.57.68-.68,1.19l-.94,4.4c-.02.11-.07.2-.16.27-.08.07-.19.11-.3.11h-1.39Z" fill="#1c2126"/><path d="M44.76,618.4c-.73,0-1.29-.11-1.7-.34-.4-.22-.67-.56-.78-1-.12-.44-.11-.99.03-1.66l.79-3.63h-1.26c-.11,0-.19-.04-.25-.11-.06-.07-.08-.17-.06-.29l.19-.91c.02-.11.08-.2.17-.27.09-.07.2-.11.31-.11h1.25l.58-2.65c.02-.11.07-.2.16-.27.08-.07.18-.11.29-.11h1.3c.12,0,.21.04.26.11.06.08.08.17.06.27l-.58,2.65h2c.11,0,.19.04.25.11s.08.16.06.27l-.19.91c-.02.12-.08.21-.17.29-.09.08-.19.11-.3.11h-2l-.74,3.47c-.06.29-.1.54-.1.74,0,.21.05.37.17.48s.33.17.62.17h1.15c.12,0,.2.04.26.11.05.08.07.17.05.27l-.21.99c-.02.11-.08.2-.16.27-.09.07-.19.11-.3.11h-1.14Z" fill="#1c2126"/><path d="M48.07,618.4c-.11,0-.19-.04-.25-.11s-.08-.17-.06-.27l2.26-10.59c.02-.11.08-.2.16-.27.08-.07.18-.11.29-.11h1.44c.11,0,.19.04.25.11.06.08.08.17.06.27l-.78,3.65c.34-.34.72-.62,1.14-.83.42-.21.93-.32,1.53-.32.69,0,1.26.15,1.7.44.44.29.75.71.92,1.24.17.53.18,1.17.02,1.92l-.96,4.5c-.02.11-.08.2-.16.27-.09.07-.19.11-.3.11h-1.44c-.11,0-.19-.04-.25-.11s-.08-.17-.06-.27l.93-4.4c.14-.62.11-1.1-.08-1.46-.19-.35-.58-.53-1.17-.53-.36,0-.71.08-1.03.23-.33.15-.61.38-.84.68s-.4.66-.5,1.07l-.93,4.4c-.02.11-.08.2-.16.27-.09.07-.18.11-.29.11h-1.44Z" fill="#1c2126"/><path d="M61.51,618.56c-.78,0-1.43-.15-1.95-.46-.52-.31-.87-.76-1.07-1.35-.2-.59-.23-1.29-.09-2.13.02-.11.05-.24.08-.41.03-.17.06-.3.1-.39.21-.81.54-1.51.99-2.09.45-.58.99-1.03,1.64-1.34s1.36-.47,2.14-.47c.86,0,1.55.18,2.06.54s.84.85,1.01,1.49.16,1.37,0,2.2l-.08.34c-.02.11-.08.2-.17.27-.09.08-.19.11-.31.11h-5.31c-.01.06-.02.11-.03.13-.05.38-.05.72.02,1.03.06.31.21.57.42.76s.51.29.87.29c.3,0,.56-.04.79-.13.22-.09.41-.2.55-.31.14-.12.25-.21.33-.29.13-.13.22-.21.29-.23.06-.03.15-.04.27-.04h1.39c.1,0,.17.03.22.1.05.06.07.14.05.24-.05.17-.19.38-.4.62-.21.24-.5.48-.86.72-.36.24-.79.43-1.29.58s-1.04.23-1.64.23ZM60.82,613.53h3.54l.02-.05c.1-.42.1-.78.02-1.1s-.23-.56-.46-.74c-.22-.18-.52-.26-.9-.26s-.71.09-1.02.26c-.3.18-.56.42-.76.74-.2.31-.35.68-.43,1.1l-.02.05Z" fill="#1c2126"/><path d="M71.06,618.4c-.11,0-.19-.04-.25-.11s-.08-.17-.06-.27l2.26-10.59c.02-.11.08-.2.16-.27.08-.07.18-.11.29-.11h1.33c.12,0,.21.04.26.11.06.08.08.17.06.27l-2.26,10.59c-.02.11-.08.2-.16.27-.09.07-.19.11-.3.11h-1.33Z" fill="#1c2126"/><path d="M78.64,618.56c-.81,0-1.49-.15-2.02-.45-.54-.3-.92-.72-1.15-1.26-.23-.54-.29-1.18-.17-1.9.03-.19.08-.43.14-.71s.11-.51.17-.7c.19-.74.49-1.37.89-1.91.4-.54.91-.96,1.54-1.26s1.36-.45,2.22-.45,1.49.15,2.02.45.92.72,1.16,1.26c.23.54.29,1.18.18,1.91-.04.19-.09.43-.14.7-.05.28-.11.51-.16.71-.19.72-.48,1.36-.87,1.9-.39.54-.9.96-1.52,1.26-.62.3-1.38.45-2.26.45ZM78.8,616.98c.58,0,1.06-.18,1.46-.54s.69-.88.87-1.58c.04-.16.09-.37.14-.62.05-.26.1-.46.13-.62.12-.69.07-1.22-.14-1.58s-.61-.54-1.18-.54-1.05.18-1.46.54c-.41.36-.69.88-.86,1.58-.04.16-.09.37-.15.62s-.1.46-.12.62c-.12.69-.07,1.22.14,1.58.21.36.6.54,1.18.54Z" fill="#1c2126"/><path d="M86.92,618.4c-.16,0-.27-.04-.34-.12-.06-.08-.11-.17-.13-.28l-1.42-7.49c-.02-.14,0-.25.08-.32s.18-.11.3-.11h1.22c.12,0,.21.03.27.1.06.06.11.15.13.27l.91,5.55,3.33-5.62c.03-.06.09-.13.17-.2.08-.07.18-.11.31-.11h1.39c.13,0,.22.05.26.14.05.1.03.21-.06.35l-4.56,7.42c-.08.11-.16.2-.25.28-.09.08-.22.12-.38.12h-1.25Z" fill="#1c2126"/><path d="M96.66,618.56c-.78,0-1.43-.15-1.94-.46-.52-.31-.88-.76-1.07-1.35-.2-.59-.23-1.29-.09-2.13.02-.11.05-.24.08-.41.03-.17.06-.3.1-.39.21-.81.54-1.51.99-2.09.45-.58.99-1.03,1.64-1.34s1.36-.47,2.14-.47c.86,0,1.55.18,2.06.54.51.36.84.85,1.01,1.49.17.63.16,1.37,0,2.2l-.08.34c-.02.11-.08.2-.17.27-.09.08-.2.11-.31.11h-5.31c-.01.06-.02.11-.03.13-.05.38-.05.72.02,1.03.06.31.21.57.42.76s.51.29.87.29c.3,0,.56-.04.78-.13.22-.09.41-.2.55-.31.14-.12.25-.21.33-.29.13-.13.22-.21.29-.23.06-.03.15-.04.27-.04h1.39c.1,0,.17.03.22.1.05.06.07.14.05.24-.05.17-.19.38-.4.62-.21.24-.5.48-.87.72-.36.24-.79.43-1.29.58s-1.04.23-1.64.23ZM95.97,613.53h3.54l.02-.05c.1-.42.1-.78.02-1.1s-.23-.56-.46-.74c-.22-.18-.52-.26-.9-.26s-.71.09-1.02.26-.56.42-.76.74c-.2.31-.35.68-.43,1.1l-.02.05Z" fill="#1c2126"/><path d="M109.56,618.56c-.81,0-1.49-.15-2.02-.45s-.92-.72-1.15-1.26c-.23-.54-.29-1.18-.17-1.9.03-.19.08-.43.13-.71s.12-.51.17-.7c.19-.74.49-1.37.89-1.91s.91-.96,1.54-1.26c.62-.3,1.36-.45,2.22-.45s1.49.15,2.02.45c.54.3.93.72,1.16,1.26s.29,1.18.18,1.91c-.04.19-.09.43-.14.7s-.11.51-.16.71c-.19.72-.48,1.36-.87,1.9-.39.54-.9.96-1.52,1.26s-1.38.45-2.26.45ZM109.72,616.98c.58,0,1.06-.18,1.46-.54.4-.36.69-.88.87-1.58.04-.16.09-.37.14-.62s.1-.46.13-.62c.12-.69.07-1.22-.14-1.58-.21-.36-.61-.54-1.18-.54s-1.05.18-1.46.54-.69.88-.86,1.58c-.04.16-.09.37-.15.62s-.1.46-.12.62c-.12.69-.07,1.22.14,1.58s.6.54,1.18.54Z" fill="#1c2126"/><path d="M116.42,618.4c-.12,0-.21-.04-.26-.11s-.08-.17-.06-.27l1.33-6.24h-1.29c-.11,0-.19-.04-.25-.11-.06-.07-.08-.17-.06-.29l.19-.91c.02-.11.08-.2.17-.27s.19-.11.31-.11h1.3l.13-.65c.15-.64.38-1.17.69-1.59.31-.42.7-.74,1.18-.95.48-.21,1.04-.32,1.68-.32h1.28c.12,0,.2.04.26.11.05.07.07.16.05.27l-.19.91c-.02.12-.08.21-.17.29s-.19.11-.3.11h-.96c-.43,0-.76.11-.99.32-.23.21-.39.52-.46.93l-.13.58h1.98c.12,0,.2.04.26.11.05.07.07.16.05.27l-.19.91c-.02.12-.08.21-.16.29-.09.08-.19.11-.3.11h-1.98l-1.34,6.24c-.02.11-.07.2-.16.27-.08.07-.18.11-.29.11h-1.3Z" fill="#1c2126"/><path d="M128.85,618.56c-.81,0-1.48-.15-2.02-.45s-.92-.72-1.15-1.26c-.23-.54-.29-1.18-.17-1.9.03-.19.08-.43.14-.71s.11-.51.17-.7c.19-.74.49-1.37.89-1.91s.91-.96,1.54-1.26c.62-.3,1.36-.45,2.22-.45s1.49.15,2.02.45c.54.3.92.72,1.16,1.26.23.54.29,1.18.18,1.91-.04.19-.09.43-.14.7s-.11.51-.16.71c-.19.72-.48,1.36-.87,1.9-.39.54-.9.96-1.52,1.26s-1.38.45-2.26.45ZM129.01,616.98c.58,0,1.06-.18,1.46-.54.4-.36.69-.88.87-1.58.04-.16.09-.37.14-.62.05-.26.1-.46.13-.62.12-.69.07-1.22-.14-1.58-.21-.36-.61-.54-1.18-.54s-1.05.18-1.46.54-.69.88-.86,1.58c-.04.16-.09.37-.15.62s-.1.46-.12.62c-.12.69-.07,1.22.14,1.58s.6.54,1.18.54Z" fill="#1c2126"/><path d="M134.32,621.45c-.11,0-.19-.04-.25-.11-.06-.07-.08-.16-.06-.27l2.26-10.59c.02-.11.08-.2.16-.27.09-.07.18-.11.29-.11h1.28c.11,0,.19.04.25.11s.08.16.06.27l-.14.64c.33-.34.7-.62,1.1-.85.4-.22.93-.34,1.58-.34.55,0,1.03.09,1.42.28.39.19.7.45.92.79.22.34.37.74.44,1.21.07.46.06.97-.04,1.53-.02.18-.05.35-.09.51s-.08.34-.14.53c-.13.52-.31,1.02-.54,1.48-.24.46-.52.87-.86,1.22-.34.35-.73.62-1.18.81-.45.19-.96.29-1.53.29-.6,0-1.09-.1-1.47-.31-.38-.21-.66-.48-.83-.82l-.78,3.63c-.02.11-.08.2-.16.27-.09.08-.19.11-.3.11h-1.36ZM138.88,616.85c.43,0,.79-.1,1.09-.3.3-.2.55-.46.74-.78.2-.33.35-.68.47-1.05.05-.16.1-.32.13-.48.03-.16.06-.32.08-.48.05-.38.06-.74.02-1.06s-.16-.58-.36-.78c-.2-.2-.51-.3-.94-.3-.45,0-.83.1-1.16.3-.33.2-.59.46-.8.78s-.36.64-.44.97c-.05.19-.1.39-.14.61s-.08.42-.11.62c-.05.32-.05.63,0,.92.06.29.2.54.43.73.23.19.56.29.98.29Z" fill="#1c2126"/><path d="M148.13,618.56c-.78,0-1.43-.15-1.95-.46-.52-.31-.87-.76-1.07-1.35-.2-.59-.23-1.29-.09-2.13.02-.11.05-.24.08-.41.03-.17.06-.3.1-.39.21-.81.54-1.51.99-2.09.45-.58.99-1.03,1.64-1.34s1.36-.47,2.14-.47c.86,0,1.55.18,2.06.54s.84.85,1.01,1.49.16,1.37,0,2.2l-.08.34c-.02.11-.08.2-.17.27-.09.08-.19.11-.31.11h-5.31c-.01.06-.02.11-.03.13-.05.38-.05.72.02,1.03.06.31.21.57.42.76s.51.29.87.29c.3,0,.56-.04.79-.13.22-.09.41-.2.55-.31.14-.12.25-.21.33-.29.13-.13.22-.21.29-.23.06-.03.15-.04.27-.04h1.39c.1,0,.17.03.22.1.05.06.07.14.05.24-.05.17-.19.38-.4.62-.21.24-.5.48-.86.72-.36.24-.79.43-1.29.58s-1.04.23-1.64.23ZM147.44,613.53h3.54l.02-.05c.1-.42.1-.78.02-1.1s-.23-.56-.46-.74c-.22-.18-.52-.26-.9-.26s-.71.09-1.02.26c-.3.18-.56.42-.76.74-.2.31-.35.68-.43,1.1l-.02.05Z" fill="#1c2126"/><path d="M153.96,618.4c-.11,0-.19-.04-.25-.11-.06-.07-.08-.17-.06-.27l1.6-7.55c.02-.11.08-.2.17-.27.09-.07.19-.11.3-.11h1.31c.11,0,.19.04.24.11.05.07.07.16.05.27l-.14.66c.34-.34.74-.63,1.21-.86.46-.23.99-.35,1.58-.35.73,0,1.31.15,1.74.44s.73.71.87,1.24c.14.53.14,1.17-.02,1.92l-.96,4.5c-.02.11-.07.2-.16.27s-.19.11-.3.11h-1.41c-.11,0-.19-.04-.25-.11s-.08-.17-.06-.27l.93-4.4c.14-.65.12-1.14-.04-1.48s-.56-.5-1.18-.5-1.12.18-1.54.53c-.42.35-.7.84-.84,1.46l-.93,4.4c-.02.11-.08.2-.16.27-.09.07-.18.11-.29.11h-1.41Z" fill="#1c2126"/><path d="M170.61,618.56c-.64,0-1.17-.07-1.59-.22-.42-.15-.75-.34-.99-.56-.24-.22-.41-.45-.5-.67-.09-.22-.12-.41-.1-.56.02-.12.08-.21.17-.28.09-.07.18-.11.28-.11h1.26s.08,0,.11.02c.03,0,.06.04.1.1l.37.37c.13.13.29.24.49.33.2.09.46.14.78.14.42,0,.78-.08,1.1-.25.31-.17.5-.4.57-.71.04-.22.02-.4-.08-.54-.1-.14-.29-.27-.59-.38s-.74-.23-1.33-.36c-.58-.14-1.04-.31-1.38-.53-.35-.21-.58-.48-.71-.8-.12-.32-.13-.69-.04-1.12.08-.42.29-.81.62-1.19.33-.38.77-.69,1.32-.94s1.19-.37,1.93-.37c.58,0,1.06.07,1.46.22s.72.32.96.54c.24.21.41.43.5.65.1.22.13.41.1.57-.01.12-.06.21-.15.28-.09.07-.18.11-.28.11h-1.17c-.05,0-.1-.01-.14-.03-.04-.02-.08-.05-.1-.08-.11-.11-.22-.22-.33-.34-.11-.12-.26-.23-.43-.31-.18-.08-.42-.13-.74-.13-.41,0-.73.09-.98.26s-.41.4-.47.66c-.03.18-.01.34.06.47.07.13.25.26.54.38s.73.24,1.31.37c.69.13,1.22.32,1.59.57.37.25.61.54.72.86s.13.69.04,1.08c-.1.48-.33.91-.7,1.29-.37.38-.85.69-1.45.9-.6.22-1.3.33-2.11.33Z" fill="#1c2126"/><path d="M179.52,618.56c-.81,0-1.49-.15-2.02-.45-.54-.3-.92-.72-1.15-1.26-.23-.54-.29-1.18-.17-1.9.03-.19.08-.43.14-.71s.11-.51.17-.7c.19-.74.49-1.37.89-1.91.4-.54.91-.96,1.54-1.26s1.36-.45,2.22-.45,1.49.15,2.02.45.92.72,1.16,1.26c.23.54.29,1.18.18,1.91-.04.19-.09.43-.14.7-.05.28-.11.51-.16.71-.19.72-.48,1.36-.87,1.9-.39.54-.9.96-1.52,1.26-.62.3-1.38.45-2.26.45ZM179.68,616.98c.58,0,1.06-.18,1.46-.54s.69-.88.87-1.58c.04-.16.09-.37.14-.62.05-.26.1-.46.13-.62.12-.69.07-1.22-.14-1.58s-.61-.54-1.18-.54-1.05.18-1.46.54c-.41.36-.69.88-.86,1.58-.04.16-.09.37-.15.62s-.1.46-.12.62c-.12.69-.07,1.22.14,1.58.21.36.6.54,1.18.54Z" fill="#1c2126"/><path d="M188.45,618.56c-.69,0-1.26-.15-1.7-.44s-.73-.71-.87-1.25-.14-1.18,0-1.91l.96-4.5c.02-.11.08-.2.17-.27.09-.07.19-.11.29-.11h1.41c.11,0,.19.04.24.11s.07.16.05.27l-.93,4.4c-.1.44-.13.8-.09,1.1.04.29.16.52.36.66.2.15.52.22.94.22.58,0,1.08-.18,1.5-.53.43-.35.7-.84.83-1.46l.94-4.4c.02-.11.08-.2.17-.27s.19-.11.3-.11h1.39c.12,0,.2.04.26.11.05.07.07.16.05.27l-1.6,7.55c-.02.11-.07.2-.16.27-.08.07-.19.11-.3.11h-1.3c-.11,0-.19-.04-.25-.11s-.08-.17-.06-.27l.13-.66c-.23.24-.47.46-.72.64-.25.18-.53.32-.85.42-.32.1-.71.14-1.18.14Z" fill="#1c2126"/><path d="M195.57,618.4c-.11,0-.19-.04-.25-.11-.06-.07-.08-.17-.06-.27l1.6-7.54c.02-.12.08-.21.17-.29.09-.07.19-.11.3-.11h1.3c.11,0,.19.04.25.11s.08.17.06.29l-.14.66c.26-.34.58-.6.98-.78.39-.18.87-.27,1.44-.27h.78c.12,0,.2.04.26.11s.07.16.05.27l-.24,1.15c-.02.11-.08.2-.17.27-.09.07-.19.11-.3.11h-1.25c-.51,0-.94.14-1.29.43-.35.28-.57.68-.68,1.19l-.94,4.4c-.02.11-.08.2-.16.27-.09.07-.19.11-.3.11h-1.39Z" fill="#1c2126"/><path d="M205.46,618.56c-.71,0-1.34-.14-1.88-.43s-.94-.71-1.19-1.26-.31-1.21-.18-1.99c.03-.16.07-.37.13-.63.05-.26.1-.48.14-.65.29-1.16.82-2.07,1.6-2.71.78-.64,1.77-.97,2.98-.97.67,0,1.23.1,1.69.29.45.19.81.44,1.07.74.26.3.44.61.54.93s.14.61.1.86c0,.12-.06.21-.14.28-.08.07-.17.1-.28.1h-1.46c-.11,0-.19-.03-.25-.08-.06-.05-.09-.13-.1-.24,0-.43-.11-.74-.34-.93-.23-.19-.56-.29-.98-.29-.52,0-.99.17-1.4.51-.41.34-.71.87-.89,1.59-.04.19-.09.39-.13.59s-.08.38-.11.53c-.12.74-.06,1.27.16,1.6.22.33.6.5,1.12.5.42,0,.79-.09,1.12-.26s.61-.48.83-.9c.06-.12.13-.2.2-.25.07-.05.16-.07.26-.07h1.44c.11,0,.19.04.25.11.06.07.07.16.04.28-.07.23-.21.51-.41.82s-.47.62-.81.92c-.34.3-.77.54-1.29.74-.52.19-1.13.29-1.85.29Z" fill="#1c2126"/><path d="M214.69,618.56c-.78,0-1.43-.15-1.95-.46-.52-.31-.87-.76-1.07-1.35-.2-.59-.23-1.29-.09-2.13.02-.11.05-.24.08-.41.03-.17.06-.3.1-.39.21-.81.54-1.51.99-2.09.45-.58.99-1.03,1.64-1.34s1.36-.47,2.14-.47c.86,0,1.55.18,2.06.54s.84.85,1.01,1.49.16,1.37,0,2.2l-.08.34c-.02.11-.08.2-.17.27-.09.08-.19.11-.31.11h-5.31c-.01.06-.02.11-.03.13-.05.38-.05.72.02,1.03.06.31.21.57.42.76s.51.29.87.29c.3,0,.56-.04.79-.13.22-.09.41-.2.55-.31.14-.12.25-.21.33-.29.13-.13.22-.21.29-.23.06-.03.15-.04.27-.04h1.39c.1,0,.17.03.22.1.05.06.07.14.05.24-.05.17-.19.38-.4.62-.21.24-.5.48-.86.72-.36.24-.79.43-1.29.58s-1.04.23-1.64.23ZM214,613.53h3.54l.02-.05c.1-.42.1-.78.02-1.1s-.23-.56-.46-.74c-.22-.18-.52-.26-.9-.26s-.71.09-1.02.26c-.3.18-.56.42-.76.74-.2.31-.35.68-.43,1.1l-.02.05Z" fill="#1c2126"/><path d="M227.19,618.56c-.64,0-1.17-.07-1.59-.22-.42-.15-.75-.34-.99-.56-.24-.22-.41-.45-.5-.67-.09-.22-.13-.41-.1-.56.02-.12.08-.21.17-.28.09-.07.18-.11.28-.11h1.26s.08,0,.11.02c.03,0,.06.04.1.1.12.12.24.24.37.37.13.13.29.24.49.33.2.09.46.14.78.14.42,0,.78-.08,1.1-.25.31-.17.5-.4.57-.71.04-.22.02-.4-.08-.54s-.29-.27-.59-.38c-.3-.11-.74-.23-1.33-.36-.58-.14-1.04-.31-1.38-.53-.35-.21-.58-.48-.7-.8-.12-.32-.14-.69-.04-1.12.09-.42.29-.81.62-1.19.33-.38.77-.69,1.32-.94.55-.25,1.19-.37,1.93-.37.58,0,1.06.07,1.46.22.4.14.72.32.96.54.24.21.41.43.5.65s.13.41.1.57c-.01.12-.06.21-.15.28-.09.07-.18.11-.28.11h-1.17c-.05,0-.1-.01-.14-.03s-.07-.05-.1-.08c-.11-.11-.22-.22-.33-.34-.11-.12-.26-.23-.43-.31-.18-.08-.42-.13-.74-.13-.41,0-.73.09-.98.26s-.41.4-.47.66c-.03.18-.01.34.06.47s.25.26.54.38.73.24,1.31.37c.69.13,1.22.32,1.59.57.37.25.61.54.72.86.11.33.12.69.04,1.08-.1.48-.33.91-.7,1.29-.37.38-.85.69-1.45.9-.6.22-1.3.33-2.11.33Z" fill="#1c2126"/><path d="M236.1,618.56c-.81,0-1.49-.15-2.02-.45-.54-.3-.92-.72-1.15-1.26-.23-.54-.29-1.18-.17-1.9.03-.19.08-.43.14-.71s.12-.51.17-.7c.19-.74.49-1.37.89-1.91.4-.54.91-.96,1.54-1.26s1.36-.45,2.22-.45,1.48.15,2.02.45.93.72,1.16,1.26.29,1.18.18,1.91c-.04.19-.09.43-.14.7-.05.28-.11.51-.16.71-.19.72-.48,1.36-.87,1.9-.39.54-.9.96-1.52,1.26-.62.3-1.38.45-2.26.45ZM236.26,616.98c.58,0,1.06-.18,1.46-.54s.69-.88.87-1.58c.04-.16.09-.37.14-.62.05-.26.1-.46.13-.62.12-.69.07-1.22-.14-1.58s-.61-.54-1.18-.54-1.05.18-1.46.54c-.4.36-.69.88-.86,1.58-.04.16-.09.37-.15.62s-.1.46-.12.62c-.12.69-.07,1.22.13,1.58.21.36.6.54,1.18.54Z" fill="#1c2126"/><path d="M242.96,618.4c-.12,0-.21-.04-.26-.11s-.08-.17-.06-.27l1.33-6.24h-1.3c-.11,0-.19-.04-.25-.11-.06-.07-.08-.17-.06-.29l.19-.91c.02-.11.08-.2.17-.27.09-.07.19-.11.31-.11h1.29l.13-.65c.15-.64.38-1.17.69-1.59.31-.42.7-.74,1.18-.95.48-.21,1.04-.32,1.68-.32h1.28c.12,0,.2.04.26.11.05.07.07.16.05.27l-.19.91c-.02.12-.08.21-.17.29s-.19.11-.3.11h-.96c-.43,0-.76.11-.99.32-.23.21-.39.52-.46.93l-.13.58h1.98c.12,0,.2.04.26.11.05.07.07.16.05.27l-.19.91c-.02.12-.07.21-.16.29-.08.08-.19.11-.3.11h-1.98l-1.34,6.24c-.02.11-.08.2-.16.27-.09.07-.18.11-.29.11h-1.29Z" fill="#1c2126"/><path d="M252.11,618.4c-.73,0-1.29-.11-1.7-.34-.4-.22-.67-.56-.78-1-.12-.44-.11-.99.03-1.66l.79-3.63h-1.26c-.11,0-.19-.04-.25-.11-.06-.07-.08-.17-.06-.29l.19-.91c.02-.11.08-.2.17-.27.09-.07.2-.11.31-.11h1.25l.58-2.65c.02-.11.07-.2.16-.27.08-.07.18-.11.29-.11h1.3c.12,0,.21.04.26.11.06.08.08.17.06.27l-.58,2.65h2c.11,0,.19.04.25.11s.08.16.06.27l-.19.91c-.02.12-.08.21-.17.29-.09.08-.19.11-.3.11h-2l-.74,3.47c-.06.29-.1.54-.1.74,0,.21.05.37.17.48s.33.17.62.17h1.15c.12,0,.2.04.26.11.05.08.07.17.05.27l-.21.99c-.02.11-.08.2-.16.27-.09.07-.19.11-.3.11h-1.14Z" fill="#1c2126"/><path d="M257.27,618.4c-.15,0-.26-.04-.32-.11-.06-.07-.1-.17-.11-.29l-.72-7.49c-.01-.12.02-.22.1-.3s.18-.13.32-.13h1.12c.13,0,.22.03.28.09.06.06.09.13.1.22l.46,5.3,2.75-5.25c.04-.08.11-.15.19-.23.09-.08.2-.12.34-.12h.83c.15,0,.25.04.3.12.05.08.09.16.1.23l.58,5.25,2.69-5.3c.03-.06.09-.13.16-.2.07-.07.18-.11.3-.11h1.3c.15,0,.24.05.26.14s.01.2-.04.32l-3.86,7.46c-.06.12-.14.21-.23.29s-.21.11-.36.11h-1.06c-.15,0-.26-.04-.33-.11s-.12-.17-.14-.29l-.66-5.05-2.72,5.05c-.06.12-.14.21-.24.29s-.22.11-.37.11h-1.04Z" fill="#1c2126"/><path d="M271.09,618.56c-.55,0-1.02-.09-1.41-.28-.38-.19-.69-.45-.9-.79-.22-.34-.36-.74-.42-1.21-.06-.46-.05-.97.03-1.53.04-.19.08-.37.11-.52.03-.15.07-.33.11-.52.14-.53.32-1.03.55-1.49.23-.46.51-.86.85-1.21.34-.35.73-.62,1.18-.81.45-.19.97-.29,1.56-.29.66,0,1.17.11,1.51.31.35.21.62.46.81.76l.11-.53c.02-.11.08-.2.16-.27s.18-.11.29-.11h1.26c.11,0,.19.04.26.11.06.07.09.16.06.27l-1.62,7.55c-.02.11-.08.2-.16.27-.09.07-.18.11-.29.11h-1.26c-.12,0-.21-.04-.26-.11s-.08-.17-.06-.27l.13-.59c-.32.33-.67.6-1.06.81-.38.21-.9.32-1.55.32ZM271.81,616.85c.45,0,.83-.1,1.15-.3s.58-.46.78-.78.34-.64.42-.97c.05-.19.1-.4.14-.62s.08-.42.11-.62c.06-.32.07-.63.02-.92s-.19-.54-.41-.73c-.22-.19-.55-.29-.98-.29s-.77.1-1.06.3-.54.46-.73.78-.35.67-.46,1.06c-.04.16-.08.32-.11.48s-.06.32-.08.48c-.05.38-.07.74-.04,1.06.03.32.14.58.34.78s.5.3.92.3Z" fill="#1c2126"/><path d="M278.05,618.4c-.11,0-.19-.04-.25-.11-.06-.07-.08-.17-.06-.27l1.6-7.54c.02-.12.08-.21.17-.29.09-.07.19-.11.3-.11h1.29c.11,0,.19.04.25.11s.08.17.06.29l-.14.66c.26-.34.58-.6.98-.78s.88-.27,1.44-.27h.78c.12,0,.2.04.26.11.05.07.07.16.05.27l-.24,1.15c-.02.11-.08.2-.17.27-.09.07-.19.11-.29.11h-1.25c-.51,0-.94.14-1.29.43-.35.28-.57.68-.68,1.19l-.94,4.4c-.02.11-.07.2-.16.27s-.19.11-.3.11h-1.39Z" fill="#1c2126"/><path d="M288.05,618.56c-.78,0-1.43-.15-1.95-.46-.52-.31-.87-.76-1.07-1.35-.2-.59-.23-1.29-.09-2.13.02-.11.05-.24.08-.41.03-.17.06-.3.1-.39.21-.81.54-1.51.99-2.09.45-.58.99-1.03,1.64-1.34s1.36-.47,2.14-.47c.86,0,1.55.18,2.06.54s.84.85,1.01,1.49.16,1.37,0,2.2l-.08.34c-.02.11-.08.2-.17.27-.09.08-.19.11-.31.11h-5.31c-.01.06-.02.11-.03.13-.05.38-.05.72.02,1.03.06.31.21.57.42.76s.51.29.87.29c.3,0,.56-.04.79-.13.22-.09.41-.2.55-.31.14-.12.25-.21.33-.29.13-.13.22-.21.29-.23.06-.03.15-.04.27-.04h1.39c.1,0,.17.03.22.1.05.06.07.14.05.24-.05.17-.19.38-.4.62-.21.24-.5.48-.86.72-.36.24-.79.43-1.29.58s-1.04.23-1.64.23ZM287.36,613.53h3.54l.02-.05c.1-.42.1-.78.02-1.1s-.23-.56-.46-.74c-.22-.18-.52-.26-.9-.26s-.71.09-1.02.26c-.3.18-.56.42-.76.74-.2.31-.35.68-.43,1.1l-.02.05Z" fill="#1c2126"/><path d="M1113.68,618.56c-.89,0-1.63-.15-2.22-.44-.6-.29-1.05-.71-1.37-1.26-.32-.54-.49-1.18-.52-1.9-.01-.21-.02-.46-.02-.73s0-.51.02-.71c.03-.74.21-1.37.54-1.91.33-.54.79-.96,1.39-1.25.6-.29,1.32-.44,2.18-.44s1.56.15,2.16.44c.6.29,1.06.71,1.39,1.25s.52,1.18.56,1.91c0,.2.02.44.02.71s0,.52-.02.73c-.04.72-.22,1.36-.54,1.9-.32.54-.77.96-1.37,1.26-.6.29-1.33.44-2.21.44ZM1113.68,616.79c.52,0,.91-.16,1.18-.48s.41-.79.44-1.42c0-.16.02-.37.02-.64s0-.48-.02-.64c-.03-.62-.18-1.09-.44-1.42-.26-.33-.65-.49-1.18-.49s-.92.16-1.18.49c-.27.32-.42.8-.45,1.42-.01.16-.02.37-.02.64s0,.48.02.64c.03.63.18,1.1.45,1.42s.66.48,1.18.48Z" fill="#1c2126"/><path d="M1122.77,618.56c-.66,0-1.23-.08-1.7-.23s-.86-.34-1.15-.57c-.29-.22-.51-.45-.66-.68-.14-.23-.22-.42-.23-.58-.01-.12.03-.21.11-.29.09-.07.17-.11.26-.11h1.55s.08,0,.1.02c.03,0,.06.04.1.08.14.1.28.21.42.33.14.12.32.23.52.31.2.09.45.13.74.13.35,0,.65-.07.89-.22.24-.14.36-.35.36-.62,0-.19-.05-.35-.16-.48-.11-.13-.31-.24-.62-.35s-.77-.22-1.38-.35c-.58-.13-1.07-.3-1.47-.51-.41-.21-.71-.48-.91-.81-.2-.33-.3-.72-.3-1.18,0-.42.13-.82.39-1.2.26-.38.65-.7,1.16-.95s1.15-.38,1.92-.38c.59,0,1.1.07,1.54.22s.81.33,1.11.54.53.44.68.67c.15.23.24.43.25.6.01.12-.02.21-.1.29-.08.08-.16.11-.26.11h-1.42c-.05,0-.1-.01-.14-.03s-.08-.05-.11-.08c-.13-.07-.26-.17-.39-.29-.13-.12-.29-.22-.47-.3-.18-.08-.42-.13-.7-.13-.34,0-.61.08-.79.23-.19.16-.28.35-.28.58,0,.15.05.29.14.42.1.13.29.25.58.35.29.11.75.22,1.37.34.73.13,1.3.32,1.73.58s.73.55.91.89c.18.34.27.7.27,1.08,0,.5-.15.95-.44,1.34-.29.39-.73.69-1.3.91-.58.22-1.28.33-2.11.33Z" fill="#1c2126"/><path d="M1131.46,618.56c-.66,0-1.23-.08-1.7-.23s-.86-.34-1.15-.57c-.29-.22-.51-.45-.66-.68-.14-.23-.22-.42-.23-.58-.01-.12.03-.21.11-.29.09-.07.17-.11.26-.11h1.55s.08,0,.1.02c.03,0,.06.04.1.08.14.1.28.21.42.33.14.12.32.23.52.31.2.09.45.13.74.13.35,0,.65-.07.89-.22.24-.14.36-.35.36-.62,0-.19-.05-.35-.16-.48-.11-.13-.31-.24-.62-.35s-.77-.22-1.38-.35c-.58-.13-1.07-.3-1.47-.51-.41-.21-.71-.48-.91-.81-.2-.33-.3-.72-.3-1.18,0-.42.13-.82.39-1.2.26-.38.65-.7,1.16-.95s1.15-.38,1.92-.38c.59,0,1.1.07,1.54.22s.81.33,1.11.54.53.44.68.67c.15.23.24.43.25.6.01.12-.02.21-.1.29-.08.08-.16.11-.26.11h-1.42c-.05,0-.1-.01-.14-.03s-.08-.05-.11-.08c-.13-.07-.26-.17-.39-.29-.13-.12-.29-.22-.47-.3-.18-.08-.42-.13-.7-.13-.34,0-.61.08-.79.23-.19.16-.28.35-.28.58,0,.15.05.29.14.42.1.13.29.25.58.35.29.11.75.22,1.37.34.73.13,1.3.32,1.73.58s.73.55.91.89c.18.34.27.7.27,1.08,0,.5-.15.95-.44,1.34-.29.39-.73.69-1.3.91-.58.22-1.28.33-2.11.33Z" fill="#1c2126"/><path d="M1137.17,618.4c-.12,0-.21-.04-.29-.11-.07-.07-.11-.17-.11-.29v-1.81c0-.11.04-.2.11-.28.08-.08.17-.12.29-.12h1.81c.11,0,.2.04.28.12s.12.17.12.28v1.81c0,.12-.04.21-.12.29s-.17.11-.28.11h-1.81Z" fill="#1c2126"/><path d="M1144.9,618.56c-.79,0-1.48-.14-2.07-.43-.59-.29-1.06-.71-1.4-1.26-.34-.55-.53-1.21-.56-1.98-.01-.17-.02-.39-.02-.65s0-.48.02-.65c.03-.78.22-1.44.55-1.99.34-.55.8-.97,1.4-1.26.6-.29,1.29-.43,2.08-.43.7,0,1.31.1,1.81.3.5.2.91.45,1.23.75s.56.62.72.94.25.6.26.85c.01.12-.03.21-.11.29-.09.07-.18.11-.29.11h-1.71c-.12,0-.21-.03-.26-.08-.06-.05-.11-.14-.17-.26-.14-.37-.33-.64-.56-.8s-.53-.24-.88-.24c-.48,0-.86.15-1.13.46-.27.31-.42.79-.44,1.44-.02.42-.02.79,0,1.13.02.66.17,1.14.44,1.44.27.3.65.45,1.13.45.37,0,.67-.08.9-.24.22-.16.41-.43.54-.8.05-.12.11-.2.17-.26.06-.05.15-.08.26-.08h1.71c.11,0,.2.04.29.11.08.07.12.17.11.29-.01.18-.06.39-.16.64-.1.25-.24.5-.44.75s-.45.49-.76.71c-.31.22-.69.4-1.13.53-.44.13-.95.2-1.53.2Z" fill="#1c2126"/><path d="M1152.92,618.56c-.57,0-1.07-.11-1.52-.33s-.81-.51-1.07-.89c-.27-.38-.4-.79-.4-1.25,0-.76.31-1.36.92-1.79s1.42-.74,2.42-.9l2.1-.3v-.29c0-.42-.1-.74-.29-.96-.19-.22-.53-.34-1.01-.34-.35,0-.63.07-.84.21s-.37.32-.49.54c-.08.14-.21.21-.38.21h-1.52c-.12,0-.21-.03-.27-.1-.06-.07-.09-.15-.08-.25,0-.18.07-.39.21-.64.14-.24.35-.49.64-.73.29-.24.66-.44,1.11-.6s1-.24,1.64-.24,1.25.08,1.73.24c.48.16.87.38,1.16.67.29.29.51.62.64,1,.13.38.2.79.2,1.22v4.94c0,.12-.04.21-.11.29-.08.07-.17.11-.27.11h-1.58c-.11,0-.2-.04-.27-.11-.07-.07-.11-.17-.11-.29v-.59c-.14.2-.33.39-.56.57s-.51.32-.84.42c-.33.11-.71.16-1.14.16ZM1153.56,616.9c.35,0,.67-.07.94-.22.28-.15.5-.38.66-.69.16-.31.24-.7.24-1.17v-.27l-1.49.24c-.57.1-.98.24-1.25.43-.27.19-.4.43-.4.7,0,.2.06.38.18.52.12.14.28.26.48.34s.41.12.63.12Z" fill="#1c2126"/><path d="M1160.13,618.4c-.11,0-.2-.04-.28-.11-.08-.07-.12-.17-.12-.29v-7.52c0-.11.04-.2.12-.28.08-.08.17-.12.28-.12h1.57c.12,0,.21.04.29.12.07.08.11.17.11.28v.64c.27-.33.6-.59.99-.77s.84-.27,1.34-.27h.69c.12,0,.21.04.29.11.07.07.11.17.11.29v1.39c0,.11-.04.2-.11.27-.08.07-.17.11-.29.11h-1.39c-.48,0-.85.13-1.11.4-.26.27-.39.63-.39,1.11v4.24c0,.12-.04.21-.12.29s-.17.11-.28.11h-1.7Z" fill="#1c2126"/><path d="M1169.72,618.56c-.53,0-1.01-.09-1.42-.26s-.77-.43-1.06-.77c-.29-.34-.51-.74-.66-1.2-.15-.46-.24-.98-.27-1.54-.01-.2-.02-.39-.02-.55s0-.34.02-.54c.02-.55.11-1.06.26-1.52.15-.46.37-.86.66-1.19.28-.34.63-.6,1.06-.78.42-.19.9-.28,1.43-.28s1.03.09,1.42.28c.39.19.72.42.98.71v-3.47c0-.12.04-.21.11-.29.08-.07.17-.11.29-.11h1.65c.12,0,.21.04.29.11.07.08.11.17.11.29v10.56c0,.12-.04.21-.11.29-.08.07-.17.11-.29.11h-1.54c-.11,0-.2-.04-.27-.11-.07-.07-.11-.17-.11-.29v-.54c-.27.32-.6.58-1.01.79-.41.21-.91.31-1.52.31ZM1170.45,616.64c.39,0,.71-.09.95-.27.24-.18.42-.41.53-.69.11-.28.17-.58.18-.9.02-.2.03-.41.03-.61s-.01-.4-.03-.59c-.01-.3-.08-.58-.2-.84-.12-.26-.3-.48-.54-.65-.23-.17-.54-.26-.93-.26-.41,0-.73.09-.96.26-.24.18-.4.41-.5.7-.1.29-.16.6-.18.94-.02.33-.02.66,0,.99.02.34.08.66.18.95.1.29.27.52.5.7.23.18.55.26.96.26Z" fill="#1c2126"/><path d="M1179.86,618.56c-.66,0-1.23-.08-1.7-.23s-.86-.34-1.15-.57c-.29-.22-.51-.45-.66-.68-.14-.23-.22-.42-.23-.58-.01-.12.03-.21.11-.29.08-.07.17-.11.26-.11h1.55s.08,0,.1.02c.03,0,.06.04.1.08.14.1.28.21.42.33.14.12.32.23.52.31.2.09.45.13.74.13.35,0,.65-.07.89-.22.24-.14.36-.35.36-.62,0-.19-.05-.35-.16-.48-.11-.13-.31-.24-.62-.35s-.77-.22-1.38-.35c-.58-.13-1.07-.3-1.47-.51-.41-.21-.71-.48-.91-.81-.2-.33-.3-.72-.3-1.18,0-.42.13-.82.39-1.2.26-.38.65-.7,1.16-.95.51-.25,1.15-.38,1.92-.38.59,0,1.1.07,1.54.22.44.14.81.33,1.11.54s.53.44.68.67c.15.23.24.43.25.6,0,.12-.02.21-.1.29-.07.08-.16.11-.26.11h-1.42c-.05,0-.1-.01-.14-.03-.04-.02-.08-.05-.11-.08-.13-.07-.26-.17-.39-.29-.13-.12-.29-.22-.47-.3-.18-.08-.42-.13-.7-.13-.34,0-.61.08-.79.23-.19.16-.28.35-.28.58,0,.15.05.29.14.42.1.13.29.25.58.35.29.11.75.22,1.37.34.72.13,1.3.32,1.73.58s.73.55.91.89.27.7.27,1.08c0,.5-.15.95-.44,1.34-.29.39-.73.69-1.3.91s-1.28.33-2.11.33Z" fill="#1c2126"/><polygon points="1093.31 614.96 1087.74 611.74 1082.16 614.96 1093.31 621.39 1104.46 614.96 1098.89 611.74 1093.31 614.96" fill="#b7303d" stroke="#1c2126" stroke-linejoin="round" stroke-width=".33"/><polygon points="1087.74 605.3 1087.74 611.74 1082.16 614.96 1082.16 608.52 1087.74 605.3" fill="#ea4f4b" stroke="#1c2126" stroke-linejoin="round" stroke-width=".33"/><polygon points="1087.74 605.3 1087.74 611.74 1093.31 614.96 1093.31 608.52 1087.74 605.3" fill="#ff6b60" stroke="#1c2126" stroke-linejoin="round" stroke-width=".33"/><polygon points="1098.89 605.3 1098.89 611.74 1093.31 614.96 1093.31 608.52 1098.89 605.3" fill="#ea4f4b" stroke="#1c2126" stroke-linejoin="round" stroke-width=".33"/><polygon points="1098.89 605.3 1098.89 611.74 1104.46 614.96 1104.46 608.52 1098.89 605.3" fill="#ff6b60" stroke="#1c2126" stroke-linejoin="round" stroke-width=".33"/><path d="M83.99,133.62c-7.54,0-9.96-2.39-9.96-9.8v-6.18c0-4.34-2.2-6.37-8.49-5.96v-6.62c6.29.42,8.49-1.61,8.49-5.98v-6.18c0-7.4,2.42-9.8,9.96-9.8h4.2v5.18h-2.81c-4.04,0-4.84.95-4.84,5.62v7.65c0,3.81-2.81,6.35-8.07,6.57v.5c5.26.22,8.07,2.73,8.07,6.57v7.63c0,4.68.81,5.62,4.84,5.62h2.81v5.18h-4.2Z" fill="#fff"/><path d="M137.99,174.61v-17.92h6.46v17.92h-6.46ZM150.24,174.61v-17.92h6.51v17.92h-6.51Z" fill="#fff6d0"/><path d="M189.6,176.53c-.53-3.48-2.95-5.4-6.49-5.4-4.56,0-7.07,3.28-7.07,9.27v2.34c0,5.98,2.5,9.27,7.07,9.27,3.56,0,5.93-1.84,6.49-5.21h6.35c-.7,6.82-5.34,10.66-12.78,10.66-8.71,0-13.64-5.07-13.64-14.14v-3.51c0-9.05,4.93-14.14,13.64-14.14,7.46,0,12.05,3.87,12.78,10.85h-6.35Z" fill="#fff6d0"/><path d="M204.1,183.94v-4.65c0-8.29,5.32-13.53,13.72-13.53s13.72,5.23,13.72,13.53v4.65c0,8.29-5.32,13.53-13.72,13.53s-13.72-5.23-13.72-13.53ZM210.5,179.65v3.92c0,5.26,2.81,8.52,7.32,8.52s7.32-3.26,7.32-8.52v-3.92c0-5.26-2.81-8.52-7.32-8.52s-7.32,3.26-7.32,8.52Z" fill="#fff6d0"/><path d="M259.05,191.84c-1.28,3.56-4.37,5.48-8.79,5.48-6.99,0-11.33-4.9-11.33-13.03v-5.43c0-8.1,4.34-13.03,11.33-13.03,4.4,0,7.54,1.98,8.68,5.51h.56v-16.75h6.68v42.25h-6.57v-5.01h-.56ZM245.52,183.91c0,4.79,2.7,7.77,7.07,7.77s7.04-2.98,7.04-7.77v-4.76c0-4.82-2.7-7.79-7.04-7.79s-7.07,3.01-7.07,7.79v4.76Z" fill="#fff6d0"/><path d="M301.69,188.58c-.72,5.23-5.9,8.88-12.72,8.88-8.68,0-13.69-4.98-13.69-13.67v-4.76c0-7.99,5.37-13.28,13.47-13.28s13,5.26,13,13.72v3.7h-20.09v1.47c0,4.65,2.87,7.65,7.29,7.65,3.37,0,5.96-1.48,6.6-3.73h6.15ZM281.65,178.84h13.8c0-4.96-2.56-7.96-6.82-7.96s-6.99,2.98-6.99,7.96Z" fill="#fff6d0"/><path d="M314.19,174.61v-17.92h6.46v17.92h-6.46ZM326.44,174.61v-17.92h6.51v17.92h-6.51Z" fill="#fff6d0"/><path d="M353.1,170.21c0-3.2,2.56-5.79,5.68-5.79s5.68,2.59,5.68,5.79-2.56,5.82-5.68,5.82-5.68-2.62-5.68-5.82ZM353.1,191.42c0-3.2,2.56-5.79,5.68-5.79s5.68,2.59,5.68,5.79-2.56,5.82-5.68,5.82-5.68-2.64-5.68-5.82Z" fill="#fff6d0"/><path d="M419.91,174.61v-17.92h6.46v17.92h-6.46ZM432.16,174.61v-17.92h6.51v17.92h-6.51Z" fill="#fff6d0"/><path d="M453.09,207.73v-5.37c.28.06,1.25.08,1.7.08,2.98,0,4.62-1.14,5.57-4.01l.42-1.36-10.94-30.7h7.1l7.46,24.32h.42l7.46-24.32h6.87l-10.88,31.17c-2.64,7.68-5.84,10.24-12.58,10.24-1.06,0-2.28-.03-2.59-.06Z" fill="#fff6d0"/><path d="M486.02,183.94v-4.65c0-8.29,5.32-13.53,13.72-13.53s13.72,5.23,13.72,13.53v4.65c0,8.29-5.32,13.53-13.72,13.53s-13.72-5.23-13.72-13.53ZM492.42,179.65v3.92c0,5.26,2.81,8.52,7.32,8.52s7.32-3.26,7.32-8.52v-3.92c0-5.26-2.81-8.52-7.32-8.52s-7.32,3.26-7.32,8.52Z" fill="#fff6d0"/><path d="M548.14,196.85h-6.26v-5.2h-.45c-1.56,3.73-4.93,5.82-9.41,5.82-6.62,0-10.21-3.95-10.21-11.36v-19.73h6.48v18.17c0,4.9,2,7.21,6.18,7.21s7.18-3.01,7.18-7.63v-17.76h6.49v30.48Z" fill="#fff6d0"/><path d="M570.36,174.17c1.25-5.87,4.65-8.6,10.44-8.6,1.72,0,3.31.22,4.37.64v7.04c-1.36-.53-3.37-.86-5.04-.86-7.04,0-10.74,3.84-10.74,10.88v8.74h9.07v4.84h-21.24v-4.84h5.93v-20.79h-6.51v-4.84h12.77v7.79h.95Z" fill="#fff6d0"/><path d="M605.49,165.71c6.99,0,11.41,3.23,11.83,8.71h-6.12c-.45-2.28-2.64-3.7-5.79-3.7s-5.4,1.5-5.4,3.79c0,1.95,1.39,3.06,4.7,3.79l4.54.97c6.09,1.31,8.79,3.9,8.79,8.46,0,5.93-4.87,9.74-12.53,9.74s-12.19-3.31-12.63-8.82h6.43c.56,2.39,2.87,3.76,6.32,3.76s5.76-1.56,5.76-3.92c0-2-1.28-3.03-4.76-3.79l-4.56-1c-5.62-1.25-8.46-4.15-8.46-8.68,0-5.68,4.68-9.29,11.88-9.29Z" fill="#fff6d0"/><path d="M631.35,174.61v-17.92h6.46v17.92h-6.46ZM643.59,174.61v-17.92h6.51v17.92h-6.51Z" fill="#fff6d0"/><path d="M668.79,206.17l3.67-20.51h7.9l-5.18,20.51h-6.4Z" fill="#fff6d0"/><path d="M137.99,243.02v-17.92h6.46v17.92h-6.46ZM150.24,243.02v-17.92h6.51v17.92h-6.51Z" fill="#fff6d0"/><path d="M183.06,226.27v8.71h11.77v5.23h-11.66v15.67c0,2.7,1.92,4.2,5.37,4.2,1.11,0,5.51-.03,6.04-.08v5.18c-.5.08-5.62.17-6.54.17-8.02,0-11.33-2.73-11.33-9.49v-15.64h-8.02v-5.23h8.02v-8.71h6.35Z" fill="#fff6d0"/><path d="M217.96,242.58c1.25-5.87,4.65-8.6,10.44-8.6,1.73,0,3.31.22,4.37.64v7.04c-1.36-.53-3.37-.86-5.04-.86-7.04,0-10.74,3.84-10.74,10.88v8.74h9.07v4.84h-21.24v-4.84h5.93v-20.79h-6.51v-4.84h12.78v7.79h.95Z" fill="#fff6d0"/><path d="M240.54,265.26v-5.18h10.05v-20.12h-9.71v-5.18h16.03v25.3h9.57v5.18h-25.94ZM248.83,223.59c0-2.62,1.95-4.42,4.7-4.42s4.73,1.81,4.73,4.42-1.95,4.43-4.73,4.43-4.7-1.81-4.7-4.43Z" fill="#fff6d0"/><path d="M295.32,244.94c-.53-3.48-2.95-5.4-6.49-5.4-4.56,0-7.07,3.28-7.07,9.27v2.34c0,5.98,2.5,9.27,7.07,9.27,3.56,0,5.93-1.84,6.49-5.21h6.35c-.7,6.82-5.34,10.66-12.78,10.66-8.71,0-13.64-5.07-13.64-14.14v-3.51c0-9.05,4.93-14.14,13.64-14.14,7.46,0,12.05,3.87,12.78,10.85h-6.35Z" fill="#fff6d0"/><path d="M331.61,265.26l-9.46-13.92-3.42,3.4v10.52h-6.46v-42.25h6.46v24.6h.42l11.69-12.83h7.54l-11.52,12.41,12.3,18.06h-7.54Z" fill="#fff6d0"/><path d="M349.43,243.02v-17.92h6.46v17.92h-6.46ZM361.68,243.02v-17.92h6.51v17.92h-6.51Z" fill="#fff6d0"/><path d="M388.34,238.62c0-3.2,2.56-5.79,5.68-5.79s5.68,2.59,5.68,5.79-2.56,5.82-5.68,5.82-5.68-2.62-5.68-5.82ZM388.34,259.83c0-3.2,2.56-5.79,5.68-5.79s5.68,2.59,5.68,5.79-2.56,5.82-5.68,5.82-5.68-2.64-5.68-5.82Z" fill="#fff6d0"/><path d="M459.57,240.21h-8.16v-5.23h8.16v-2.53c0-6.49,3.4-9.16,11.36-9.16,1.14,0,7.1.11,7.74.19v4.87c-.86-.08-6.48-.17-7.6-.17-3.4,0-5.15,1.34-5.15,3.92v2.87h12.75v5.23h-12.64v25.05h-6.46v-25.05Z" fill="#5cebdf"/><path d="M486.38,256.58c0-5.46,3.95-8.68,11.24-9.13l7.62-.45v-2.56c0-3.15-2.03-4.93-5.59-4.93-2.98,0-5.15,1.28-5.82,3.51h-6.35c.56-5.26,5.48-8.74,12.33-8.74,7.54,0,11.83,3.7,11.83,10.21v20.76h-6.15v-4.26h-.58c-1.47,3.03-4.73,4.76-8.88,4.76-5.79,0-9.66-3.67-9.66-9.18ZM505.25,254.15v-2.78l-6.65.36c-3.81.22-5.79,1.75-5.79,4.45s2.06,4.29,5.32,4.29c4.12,0,7.12-2.64,7.12-6.32Z" fill="#5cebdf"/><path d="M522.46,265.26v-5.18h9.99v-31.9h-9.66v-5.18h16.11v37.07h9.49v5.18h-25.94Z" fill="#5cebdf"/><path d="M570.25,234.12c6.99,0,11.41,3.23,11.83,8.71h-6.12c-.45-2.28-2.64-3.7-5.79-3.7s-5.4,1.5-5.4,3.79c0,1.95,1.39,3.06,4.7,3.79l4.54.97c6.09,1.31,8.79,3.9,8.79,8.46,0,5.93-4.87,9.74-12.53,9.74s-12.19-3.31-12.63-8.82h6.43c.56,2.39,2.87,3.76,6.32,3.76s5.76-1.56,5.76-3.92c0-2-1.28-3.03-4.76-3.79l-4.56-1c-5.62-1.25-8.46-4.15-8.46-8.68,0-5.68,4.68-9.29,11.88-9.29Z" fill="#5cebdf"/><path d="M618.85,256.99c-.72,5.23-5.9,8.88-12.72,8.88-8.68,0-13.69-4.98-13.69-13.67v-4.76c0-7.99,5.37-13.28,13.47-13.28s13,5.26,13,13.72v3.7h-20.09v1.47c0,4.65,2.87,7.65,7.29,7.65,3.37,0,5.96-1.48,6.6-3.73h6.15ZM598.81,247.25h13.8c0-4.96-2.56-7.96-6.82-7.96s-6.99,2.98-6.99,7.96Z" fill="#5cebdf"/><path d="M633.55,274.58l3.67-20.51h7.9l-5.18,20.51h-6.4Z" fill="#fff6d0"/><path d="M137.99,311.43v-17.92h6.46v17.92h-6.46ZM150.24,311.43v-17.92h6.51v17.92h-6.51Z" fill="#fff6d0"/><path d="M183.06,294.67v8.71h11.77v5.23h-11.66v15.67c0,2.7,1.92,4.2,5.37,4.2,1.11,0,5.51-.03,6.04-.08v5.18c-.5.08-5.62.17-6.54.17-8.02,0-11.33-2.73-11.33-9.49v-15.64h-8.02v-5.23h8.02v-8.71h6.35Z" fill="#fff6d0"/><path d="M217.96,310.98c1.25-5.87,4.65-8.6,10.44-8.6,1.73,0,3.31.22,4.37.64v7.04c-1.36-.53-3.37-.86-5.04-.86-7.04,0-10.74,3.84-10.74,10.88v8.74h9.07v4.84h-21.24v-4.84h5.93v-20.79h-6.51v-4.84h12.78v7.79h.95Z" fill="#fff6d0"/><path d="M266.45,325.4c-.72,5.23-5.9,8.88-12.72,8.88-8.68,0-13.69-4.98-13.69-13.67v-4.76c0-7.99,5.37-13.28,13.47-13.28s13,5.26,13,13.72v3.7h-20.09v1.47c0,4.65,2.87,7.65,7.29,7.65,3.37,0,5.96-1.48,6.6-3.73h6.15ZM246.41,315.66h13.8c0-4.96-2.56-7.96-6.82-7.96s-6.99,2.98-6.99,7.96Z" fill="#fff6d0"/><path d="M274.94,324.98c0-5.46,3.95-8.68,11.24-9.13l7.62-.45v-2.56c0-3.15-2.03-4.93-5.59-4.93-2.98,0-5.15,1.28-5.82,3.51h-6.35c.56-5.26,5.48-8.74,12.33-8.74,7.54,0,11.83,3.7,11.83,10.21v20.76h-6.15v-4.26h-.58c-1.47,3.03-4.73,4.76-8.88,4.76-5.79,0-9.66-3.67-9.66-9.18ZM293.81,322.56v-2.78l-6.65.36c-3.81.22-5.79,1.75-5.79,4.45s2.06,4.29,5.32,4.29c4.12,0,7.12-2.64,7.12-6.32Z" fill="#fff6d0"/><path d="M324.02,294.67v8.71h11.77v5.23h-11.66v15.67c0,2.7,1.92,4.2,5.37,4.2,1.11,0,5.51-.03,6.04-.08v5.18c-.5.08-5.62.17-6.54.17-8.02,0-11.33-2.73-11.33-9.49v-15.64h-8.02v-5.23h8.02v-8.71h6.35Z" fill="#fff6d0"/><path d="M349.43,311.43v-17.92h6.46v17.92h-6.46ZM361.68,311.43v-17.92h6.51v17.92h-6.51Z" fill="#fff6d0"/><path d="M388.34,307.03c0-3.2,2.56-5.79,5.68-5.79s5.68,2.59,5.68,5.79-2.56,5.82-5.68,5.82-5.68-2.62-5.68-5.82ZM388.34,328.24c0-3.2,2.56-5.79,5.68-5.79s5.68,2.59,5.68,5.79-2.56,5.82-5.68,5.82-5.68-2.64-5.68-5.82Z" fill="#fff6d0"/><path d="M464.97,294.67v8.71h11.77v5.23h-11.66v15.67c0,2.7,1.92,4.2,5.37,4.2,1.11,0,5.51-.03,6.04-.08v5.18c-.5.08-5.62.17-6.54.17-8.02,0-11.33-2.73-11.33-9.49v-15.64h-8.02v-5.23h8.02v-8.71h6.35Z" fill="#5cebdf"/><path d="M499.88,310.98c1.25-5.87,4.65-8.6,10.44-8.6,1.72,0,3.31.22,4.37.64v7.04c-1.36-.53-3.37-.86-5.04-.86-7.04,0-10.74,3.84-10.74,10.88v8.74h9.07v4.84h-21.24v-4.84h5.93v-20.79h-6.51v-4.84h12.77v7.79h.95Z" fill="#5cebdf"/><path d="M548.14,333.67h-6.26v-5.2h-.45c-1.56,3.73-4.93,5.82-9.41,5.82-6.62,0-10.21-3.95-10.21-11.36v-19.73h6.48v18.17c0,4.9,2,7.21,6.18,7.21s7.18-3.01,7.18-7.63v-17.76h6.49v30.48Z" fill="#5cebdf"/><path d="M583.61,325.4c-.72,5.23-5.9,8.88-12.72,8.88-8.68,0-13.69-4.98-13.69-13.67v-4.76c0-7.99,5.37-13.28,13.47-13.28s13,5.26,13,13.72v3.7h-20.09v1.47c0,4.65,2.87,7.65,7.29,7.65,3.37,0,5.96-1.48,6.6-3.73h6.15ZM563.57,315.66h13.8c0-4.96-2.56-7.96-6.82-7.96s-6.99,2.98-6.99,7.96Z" fill="#5cebdf"/><path d="M65.54,407.25v-5.18h2.81c4.04,0,4.84-.95,4.84-5.62v-7.63c0-3.84,2.81-6.35,8.07-6.57v-.5c-5.26-.22-8.07-2.76-8.07-6.57v-7.65c0-4.68-.81-5.62-4.84-5.62h-2.81v-5.18h4.2c7.54,0,9.96,2.39,9.96,9.8v6.18c0,4.37,2.2,6.4,8.49,5.98v6.62c-6.29-.42-8.49,1.61-8.49,5.96v6.18c0,7.4-2.42,9.8-9.96,9.8h-4.2Z" fill="#fff"/><g opacity=".1"><path d="M961.16,108.47c.58,0,1.11.11,1.51.19,9.36,1.94,18.72,4.42,27.82,7.38.27.09.48.28.6.53.12.25.12.54.01.8-1.68,4.03-3.58,8.04-5.41,11.91-2.9,6.14-5.9,12.48-8.09,18.99-.22.66-.44,1.35-.65,2.05,6.98-4.69,14.86-7.71,23.22-9.18,4.99-.88,10.06-1.3,15.12-1.51,5.52-.22,11.03-.04,16.54-.19,5.11-.15,11.34-1.78,15.58-5.28-4.29-1.86-8.28-5.11-9.33-9.8-1.11-4.94,2.02-10.03,7.33-10.26.11,0,.22,0,.33,0,4.5,0,8.52,3.93,9.33,8.23.69,3.64-.35,7.42-2.39,10.46,2.22.52,4.5.76,6.65.83.31,0,.61.01.91.01,5.57,0,10.85-1.51,15.48-4.67,5.26-3.59,9.58-8.37,15.18-11.5,5.17-2.89,10.75-4.37,16.57-5.24,2.94-.44,6.09-.76,9.24-.76,7.1,0,14.19,1.65,18.9,7.32,1.79,2.16,3.25,4.65,4.32,7.29,1.65-.46,3.35-.75,5.04-.84.39-.02.78-.03,1.16-.03,5.62,0,10.79,2.17,15.85,4.53,1.52.71.57,2.75-.84,2.75-.22,0-.44-.05-.67-.16-2.93-1.37-5.87-2.71-9.02-3.48-1.71-.42-3.5-.64-5.29-.64-1.77,0-3.55.22-5.25.69.19.65.36,1.3.5,1.95.88,4.08.87,8.73-1.89,12.13-1.24,1.52-2.94,2.47-4.88,2.47-.22,0-.43-.01-.65-.04-1.9-.21-3.48-1.43-4.36-3.1-2.04-3.83-.73-8.1,1.96-11.19,1.52-1.75,3.43-3.05,5.52-4-.12-.28-.24-.55-.36-.81-1.85-4.04-4.48-7.54-8.53-9.57-3.49-1.76-7.46-2.29-11.37-2.29-1.09,0-2.17.04-3.24.11-5.28.34-10.75,1.18-15.73,3-6.02,2.2-10.76,6.04-15.6,10.11-4.59,3.86-9.4,7.12-15.38,8.33-2.18.44-4.43.66-6.67.66-3.26,0-6.52-.46-9.63-1.35-2.95,2.92-6.89,4.82-10.85,5.94-4.75,1.34-9.51,1.22-14.39,1.24-10.16.04-20.49.26-30.37,2.91-7.12,1.91-13.57,5.2-19.27,9.63-.53,2.33-.96,4.8-1.21,7.36,4.38,1.25,8.62,3,12.59,5.26l4.98.3c3.97-.99,6.89-4.01,9.98-7.21,1.93-2,3.92-4.06,6.23-5.65,3.35-2.3,7.35-3.42,11.36-3.42,5.75,0,11.51,2.29,15.4,6.64.7.78,1.34,1.63,1.96,2.44,1.23,1.62,2.4,3.15,3.96,4.21,1.87,1.28,4.03,1.73,6.32,1.73,2.72,0,5.64-.63,8.5-1.25,1.09-.24,2.17-.47,3.23-.67,2.54-.47,5.12-.71,7.7-.71,17.91,0,36.32,11.06,46.73,28.79,9.62,16.39,13.03,37.5,10.14,62.74-3.3,28.73-13.58,56.58-29.74,80.56-10.31,15.29-21.13,25.92-33.1,32.49-8.84,4.85-18.38,7.32-27.5,7.32-6.33,0-12.45-1.19-17.98-3.6-.85-.37-1.69-.77-2.54-1.17-3.13-1.48-6.1-2.88-9.22-2.88-.26,0-.52,0-.78.03-2.74.21-5.33,1.62-7.84,2.98-.46.25-.91.49-1.37.73-8.44,4.44-17.94,6.65-27.44,6.65-10.85,0-21.71-2.88-31-8.57-1.23-.76-2.48-1.57-3.73-2.38-5.44-3.54-11.03-7.18-16.72-7.18-1.2,0-2.41.16-3.62.52-2.88.85-5.46,2.83-7.95,4.73-3.29,2.52-6.7,5.12-10.98,5.39-.24.02-.48.02-.72.02-3.08,0-6.04-1.24-8.79-2.6-33.66-16.61-53.86-50.86-71.66-84.52-8.98-16.98-16.56-32.43-18.29-49.51-1.05-10.38.65-18.81,5.04-25.06,3.53-5.02,8.96-8.94,17.07-12.35,9.69-4.07,20.35-6.36,30.86-6.64,6.61-17.52,24.84-29.24,43.3-29.24,3.73,0,7.48.48,11.13,1.49,2.34.65,4.67,1.49,6.92,2.3,4.74,1.72,9.21,3.35,13.97,3.35.18,0,.37,0,.56,0,4.57-.12,8.82-1.78,13.32-3.53,1.58-.62,3.21-1.25,4.84-1.81,4.31-1.47,8.79-2.38,13.32-2.78.07-6.07.56-12.33,1.22-18.46-.49-.92-1.03-1.83-1.67-2.69-2.5-3.42-6.04-6.29-10.12-7.57-1.36-.43-2.77-.69-4.14-.69-1.91,0-3.75.52-5.36,1.84-1.1.91-2,2.07-2.65,3.37.12.13.24.26.35.39,1.8,2.19,3.55,6.06,1.93,8.78-.57.95-1.46,1.41-2.38,1.41-.77,0-1.57-.33-2.2-.96-1.42-1.43-1.79-3.74-1.74-5.67.03-1.08.22-2.14.52-3.16-.63-.5-1.3-.95-1.99-1.34-4.12-2.36-9.12-3.4-13.9-3.4-.62,0-1.24.02-1.85.05-2.48.14-4.98.68-7.19,1.87-3.52,1.9-5.89,5.28-7.87,8.65-.3.51-.75.72-1.21.72-1.03,0-2.06-1.08-1.38-2.24,2.77-4.72,6.18-8.85,11.43-10.81,2.47-.92,5.12-1.25,7.76-1.25.69,0,1.39.02,2.07.06,5.1.31,11.08,1.59,15.37,4.8.99-1.7,2.35-3.2,3.99-4.3,1.9-1.29,4.08-1.82,6.29-1.82,2.02,0,4.07.45,5.97,1.16,4.23,1.61,7.76,4.51,10.49,8.09.46-3.82.95-7.56,1.43-11.13.64-4.82,1.25-9.37,1.68-13.53.09-.88.28-2.72,1.74-3.57.53-.31,1.1-.41,1.64-.41M1049.65,131.88c1.2-1.54,2.08-3.32,2.44-5.38.41-2.29.13-4.6-1.27-6.52-1.18-1.61-3.09-2.88-5.14-2.88-.09,0-.18,0-.28,0-2.25.13-4.13,1.86-4.52,4.08-.4,2.31.67,4.73,2.19,6.42,1.77,1.97,4.07,3.34,6.57,4.28M1134.63,142.44c.1,0,.21,0,.32-.02,1.81-.21,2.97-2.01,3.49-3.62.91-2.81.56-5.96-.31-8.87-.28.14-.57.25-.84.41-3.39,1.89-6.76,5.66-5.34,9.8.43,1.25,1.34,2.29,2.69,2.29M929.98,143.54c.04-.09.08-.19.09-.22.21-.92-.24-2.24-.62-3.07-.08-.18-.18-.34-.27-.51-.03.5-.04,1.01.02,1.51.05.47.14.98.3,1.43.1.28.39.58.46.84,0,0,.01.02.02.02M961.16,103.47c-1.53,0-2.93.37-4.17,1.09-3.65,2.13-4.06,6.07-4.19,7.37-.43,4.1-1.03,8.61-1.67,13.39-.07.52-.14,1.04-.21,1.56-1.59-1.03-3.26-1.87-4.98-2.53-2.61-.99-5.21-1.49-7.74-1.49-3.4,0-6.46.9-9.09,2.68-.84.57-1.64,1.22-2.39,1.94-4.75-2.25-9.95-3.04-13.87-3.28-.81-.05-1.61-.07-2.38-.07-3.51,0-6.71.53-9.5,1.57-7.33,2.73-11.5,8.7-14,12.96-1.19,2.02-1.21,4.43-.07,6.43,1.18,2.06,3.39,3.34,5.76,3.34s4.34-1.19,5.52-3.19c1.52-2.59,3.42-5.43,5.93-6.79,1.36-.73,3.08-1.17,5.09-1.28.52-.03,1.04-.04,1.57-.04,3.83,0,7.47.78,10.4,2.2-.01.19-.02.37-.03.56-.11,3.85,1.02,7.17,3.19,9.35,1.56,1.57,3.6,2.43,5.74,2.43,2.74,0,5.23-1.44,6.67-3.84,2.25-3.76,1.44-8.08-.36-11.51.39-.23.94-.43,1.8-.43.77,0,1.66.16,2.65.47,2.82.88,5.51,2.92,7.57,5.75.19.26.38.54.56.83-.48,4.74-.8,9.02-.96,12.94-3.46.55-6.83,1.38-10.05,2.48-1.71.58-3.38,1.23-4.99,1.86l-.05.02c-4.27,1.66-7.95,3.1-11.64,3.2-.14,0-.28,0-.42,0-3.86,0-7.72-1.4-12.2-3.02l-.07-.03c-2.35-.85-4.76-1.73-7.29-2.42-4.01-1.11-8.21-1.67-12.46-1.67-19.89,0-38.6,11.93-46.68,29.39-10.06.64-20.16,3-29.41,6.88-9.02,3.79-15.12,8.26-19.22,14.08-5.1,7.25-7.1,16.82-5.93,28.43,1.82,17.98,9.61,33.89,18.84,51.35,18.19,34.38,38.87,69.4,73.87,86.66,3.12,1.54,6.87,3.12,11.01,3.12.35,0,.7-.01,1.04-.03,5.79-.36,10.17-3.71,13.69-6.41,2.13-1.63,4.34-3.32,6.34-3.91.72-.21,1.44-.32,2.2-.32,4.21,0,9.17,3.23,13.97,6.35l2.78-4.15-2.73,4.19c1.25.81,2.53,1.65,3.81,2.43,9.93,6.09,21.55,9.31,33.61,9.31,10.5,0,20.79-2.5,29.77-7.22.47-.25.95-.5,1.42-.76,2.14-1.16,4.17-2.26,5.85-2.39.12,0,.26-.01.39-.01,2.02,0,4.48,1.16,7.08,2.4.94.44,1.79.85,2.68,1.23,6.12,2.67,12.84,4.02,19.98,4.02,10.1,0,20.44-2.75,29.9-7.94,12.68-6.96,24.08-18.11,34.84-34.08,16.6-24.64,27.17-53.26,30.56-82.78,3.02-26.34-.61-48.5-10.79-65.85-11.15-18.99-31.18-31.26-51.04-31.26-2.91,0-5.82.27-8.62.79-1.16.22-2.33.47-3.37.7-2.7.58-5.25,1.14-7.44,1.14-1.53,0-2.64-.27-3.5-.85-.89-.61-1.78-1.77-2.8-3.11-.66-.87-1.39-1.82-2.21-2.74-3.28-3.67-7.65-6.26-12.51-7.49h.33c4.67,0,9.5-.01,14.5-1.42,4.15-1.17,7.83-2.97,10.81-5.27,2.73.58,5.51.87,8.32.87,2.6,0,5.18-.26,7.67-.76,7.45-1.51,13.08-5.6,17.6-9.4,4.88-4.1,9.02-7.39,14.1-9.24,3.95-1.44,8.77-2.35,14.33-2.71,1.05-.07,2-.1,2.92-.1,3.79,0,6.77.58,9.12,1.76,1.73.87,3.23,2.23,4.51,4.11-.98.77-1.87,1.61-2.67,2.53-4.43,5.08-5.42,11.53-2.61,16.82,1.71,3.21,4.79,5.35,8.24,5.72.4.04.8.06,1.19.06,3.39,0,6.5-1.53,8.77-4.32,2.73-3.36,3.89-7.78,3.43-12.9,1.15.05,2.29.21,3.42.49,2.61.64,5.11,1.76,8.1,3.16.89.41,1.83.63,2.79.63,3.07,0,5.79-2.2,6.46-5.23.64-2.89-.8-5.78-3.51-7.04-5.41-2.53-11.26-4.99-17.96-4.99-.48,0-.96.01-1.43.04-.65.03-1.3.09-1.94.17-.96-1.73-2.06-3.34-3.29-4.82-5.02-6.06-12.68-9.13-22.75-9.13-3.03,0-6.29.27-9.98.82-7.33,1.1-13.14,2.95-18.27,5.82-3.65,2.04-6.69,4.6-9.63,7.07-2.01,1.69-3.91,3.29-5.92,4.66-3.7,2.53-7.97,3.81-12.67,3.81-.14,0-.28,0-.41,0,.54-2.42.6-4.88.16-7.23-1.3-6.9-7.56-12.3-14.25-12.3-.18,0-.36,0-.55.01-3.85.17-7.24,1.92-9.56,4.95-2.45,3.2-3.34,7.35-2.43,11.4.67,3.01,2.2,5.74,4.45,8.07-1.91.54-3.95.86-5.97.92-2.45.07-4.98.07-7.42.07-2.99,0-6.09,0-9.18.13-6.04.24-11.06.74-15.78,1.58-4.54.8-8.87,2.01-12.99,3.61,1.26-2.84,2.59-5.65,3.9-8.41l.03-.06c1.85-3.91,3.76-7.95,5.48-12.06.64-1.54.61-3.29-.08-4.81-.7-1.53-2.01-2.69-3.59-3.21-9.29-3.02-18.82-5.55-28.36-7.52-.5-.1-1.43-.3-2.52-.3h0ZM1047.26,124.74c-.16-.16-.32-.32-.47-.48-.67-.74-1.01-1.63-.99-2.13.22.08.63.33.98.8.34.46.5,1.07.48,1.81h0ZM980.21,157.86c4.92-3.55,10.31-6.13,16.07-7.67,5.01-1.34,10.21-2.03,15.55-2.37-2.28.72-4.42,1.76-6.38,3.11-2.72,1.87-4.98,4.21-6.98,6.28-2.48,2.57-4.64,4.81-6.97,5.65l-2.96-.18c-2.7-1.47-5.54-2.74-8.5-3.81.06-.34.12-.68.19-1.01h0Z" fill="#5cebdf"/></g><path d="M968.47,161.62c7.26-7.81,16.17-13.48,26.5-16.26,9.87-2.65,20.2-2.87,30.37-2.91,4.88-.02,9.65.1,14.39-1.24,4.22-1.19,8.43-3.25,11.43-6.52,3.01-3.27,4.74-7.92,3.9-12.37s-5.03-8.42-9.66-8.22c-5.31.23-8.44,5.32-7.33,10.26,1.25,5.56,6.61,9.09,11.73,10.7,5.46,1.72,11.48,2.05,17.09.91,5.98-1.21,10.78-4.47,15.38-8.33,4.84-4.07,9.58-7.91,15.6-10.11,4.98-1.82,10.45-2.66,15.73-3,4.9-.31,10.14-.06,14.61,2.18,4.04,2.03,6.68,5.53,8.53,9.57,1.71,3.73,3.01,8.47,1.69,12.51-.52,1.6-1.68,3.41-3.49,3.62-1.52.18-2.54-.93-3-2.28-1.42-4.15,1.95-7.91,5.34-9.8,4.24-2.37,9.5-2.64,14.15-1.51,3.15.77,6.1,2.12,9.02,3.48,1.74.81,3.26-1.77,1.51-2.59-5.4-2.52-10.93-4.82-17.01-4.49-4.95.27-10.06,2.05-13.39,5.87-2.69,3.09-4,7.36-1.96,11.19.89,1.67,2.46,2.9,4.36,3.1,2.21.24,4.17-.74,5.54-2.43,2.76-3.39,2.77-8.04,1.89-12.13-.94-4.34-2.95-8.63-5.79-12.05-6.79-8.19-18.55-7.99-28.14-6.56-5.82.87-11.4,2.34-16.57,5.24-5.6,3.13-9.92,7.91-15.18,11.5-4.89,3.33-10.49,4.83-16.39,4.66s-12.29-1.61-16.25-6.01c-1.52-1.69-2.58-4.11-2.19-6.42s2.26-3.95,4.52-4.08c2.15-.12,4.18,1.19,5.42,2.88,1.4,1.92,1.68,4.22,1.27,6.52-1.58,8.9-12.31,12.72-20.26,12.95-5.51.16-11.03-.03-16.54.19-5.06.2-10.12.63-15.12,1.51-10.22,1.8-19.73,5.91-27.74,12.56-2.15,1.79-4.17,3.74-6.08,5.79-1.31,1.41.8,3.54,2.12,2.12h0Z" fill="#30c8c9"/><path d="M960.71,152.31c-1.12-5.26-2.51-10.44-5.76-14.84-2.76-3.74-6.4-6.78-10.77-8.44-3.97-1.51-8.6-1.81-12.25.65-3.4,2.3-5.64,6.23-5.76,10.34-.06,1.93.32,4.24,1.74,5.67s3.54,1.3,4.59-.45c1.63-2.72-.13-6.59-1.93-8.78-4.17-5.07-11.74-6.9-17.99-7.28-3.3-.2-6.72.03-9.83,1.19-5.25,1.95-8.66,6.09-11.43,10.81-.98,1.67,1.61,3.18,2.59,1.51,1.98-3.37,4.34-6.75,7.87-8.65,2.2-1.19,4.71-1.73,7.19-1.87,5.31-.3,11.1.68,15.75,3.35,1.95,1.12,3.81,2.64,4.76,4.73.38.82.83,2.15.62,3.07-.02.07-.18.41-.18.42l-.04.05c-.12.13-.03.1.28-.07-.04-.05-.15-.14-.16-.19-.07-.26-.36-.56-.46-.84-.16-.45-.25-.96-.3-1.43-.36-3.21,1.19-6.52,3.65-8.54,2.76-2.27,6.24-2.16,9.5-1.14,4.08,1.27,7.62,4.15,10.12,7.57,3.04,4.16,4.29,9.01,5.35,13.97.4,1.89,3.3,1.09,2.89-.8h0Z" fill="#30c8c9"/><path d="M1112.57,193.33c-10.81-18.41-32.4-31.52-53.39-27.61-6.34,1.18-13.46,3.67-18.79.04-2.53-1.72-4.07-4.53-6.1-6.81-6.22-6.96-17.75-8.35-25.45-3.07-5.89,4.05-9.73,11.4-16.69,13.04l-5.36-.33c-14.02-8.08-31.55-9.79-46.87-4.57-6.1,2.08-12.02,5.22-18.46,5.39-7.53.2-14.48-3.68-21.74-5.68-21.29-5.87-46.03,6.98-53.46,27.78-10.68.19-21.33,2.44-31.18,6.58-6.39,2.68-12.65,6.34-16.64,12-4.87,6.93-5.71,15.95-4.86,24.38,1.77,17.49,9.95,33.6,18.18,49.15,17.47,33.04,37.7,67.55,71.22,84.09,2.83,1.39,5.86,2.67,9.01,2.48,7.16-.44,11.83-8.04,18.71-10.08,8.77-2.6,17.09,4.36,24.89,9.15,17.08,10.48,39.71,11.23,57.45,1.89,3.07-1.62,6.14-3.55,9.6-3.82,4.59-.36,8.8,2.26,13.02,4.1,14.16,6.18,31.05,3.75,44.6-3.68,13.54-7.43,24.12-19.36,32.75-32.17,16.06-23.83,26.3-51.56,29.58-80.11,2.43-21.21.8-43.71-10.01-62.12Z" fill="#ff6b60" stroke="#1c2126" stroke-linejoin="round" stroke-width="2"/><polygon points="984.57 243.67 997.86 206.55 1024.22 240.46 984.57 243.67" fill="#ffdd73" stroke="#1c2126" stroke-linejoin="round" stroke-width="2"/><polygon points="929.34 209.53 946.53 242.53 907.34 242.53 929.34 209.53" fill="#ffdd73" stroke="#1c2126" stroke-linejoin="round" stroke-width="2"/><polygon points="968.63 248.71 959.13 274.84 981.36 274.84 968.63 248.71" fill="#ffdd73" stroke="#1c2126" stroke-linejoin="round" stroke-width="2"/><path d="M1061.69,263.35s-20.17,28.3-37.34,28.9l3.01,15.05-18.37,6.02-3.31-15.66-21.08,3.31v17.46h-21.98v-15.36h-19.87v14.15l-20.78-5.72,2.71-13.85s-26.5-6.32-37.34-28.9c0,0,11.74,66.84,58.71,72.26v-9.03l18.97-.6v12.04l18.67-3.01v-8.73l21.68-3.31,1.81,8.43s49.98-15.66,54.5-73.47Z" fill="#ffdd73" stroke="#1c2126" stroke-linejoin="round" stroke-width="2"/><path d="M957,184.35c-6.94-19.85-.42-50.88,1.77-71.8.11-1.06.33-2.27,1.25-2.81.72-.42,1.63-.27,2.45-.1,9.36,1.94,18.62,4.39,27.71,7.35-4.34,10.4-9.94,20.28-13.53,30.97-3.59,10.68-5.04,22.61-.94,33.11" fill="#30c8c9" stroke="#1c2126" stroke-linejoin="round" stroke-width="2"/><path d="M937.91,186.86c4.33-3.4,10.06-4.96,15.52-4.22,2.15.29,4.3.92,6.46.7,2.91-.3,5.41-2.08,8.08-3.26,7.87-3.5,17.86-1.4,23.66,4.96" fill="#ff6b60" stroke="#1c2126" stroke-linejoin="round" stroke-width="2"/><path d="M1087.32,413.98c-.18-.53-.43-1.11-.92-1.38-.48-.26-1.07-.17-1.6-.04-6.36,1.55-22.17,23.96-23.89,30.52-.26.99-.47,2.01-.31,3.02.39,2.53,2.88,4.12,5.19,5.22,4.27,2.02,13.33,5.25,16.14,4.55,1-.25,1.67-1.16,2.21-2.04,4.89-7.98,4.16-37.04,3.18-39.86Z" fill="#fff6d0" stroke="#1c2126" stroke-linejoin="round" stroke-width="2"/><path d="M1084.1,433.79c-2.32-.75-4.63-1.51-6.92-2.36-2.6-.97-5.16-2.06-7.62-3.35-4.3,5.98-7.88,12.08-8.65,15.01-.26.99-.47,2.01-.31,3.02.39,2.53,2.88,4.12,5.19,5.22,4.27,2.02,13.33,5.25,16.14,4.55,1-.25,1.67-1.16,2.21-2.04,2.17-3.53,3.23-11.2,3.66-18.9-1.23-.39-2.47-.76-3.69-1.15Z" fill="#ffb916" stroke="#1c2126" stroke-linejoin="round" stroke-width="2"/><path d="M1068.55,433.86c4.95,2.12,10.18,3.38,15.3,5.02,1.18.38,2.37.72,3.57,1.03.37-3.8.55-7.84.6-11.58-4.99-1.37-9.86-3.2-14.58-5.37-2.53,3.15-5.02,6.63-7.12,9.87.74.37,1.48.71,2.24,1.03Z" fill="#ff6b60" stroke="#1c2126" stroke-linejoin="round" stroke-width="2"/><g opacity=".1"><path d="M1085.67,411.88c.33,0,.67.06.99.24.65.35.96,1.02,1.18,1.69h0c1.03,2.98,1.69,28.76-2.39,38.64,0,0,0,0,0,0-.13.31-.26.61-.4.89,0,0,0,.01-.01.02-.14.28-.28.54-.43.78-.59.96-1.36,1.99-2.55,2.29-.29.07-.65.11-1.05.11h0c-3.47,0-10.6-2.51-14.69-4.34-.27-.12-.53-.24-.78-.36-2.15-1.02-5.06-2.71-5.51-5.64-.17-1.11.05-2.22.33-3.25.72-2.74,3.84-8.24,8.03-14.2.03-.05.07-.09.1-.14.2-.28.4-.57.61-.86,0,0,0,0,0,0,1.28-1.78,2.6-3.52,3.89-5.13.03-.04.07-.06.1-.09,4.31-5.37,8.73-9.8,11.56-10.49.32-.08.66-.14,1.01-.14M1085.67,406.88c-.91,0-1.69.16-2.19.28-2.37.58-6.39,2.45-14.05,11.94-.11.11-.23.24-.34.39-1.29,1.6-2.62,3.35-3.94,5.2l-.03.04-.07.1c-.2.28-.39.55-.59.83l-.04.06-.12.16c-2.2,3.13-7.5,10.98-8.77,15.78-.39,1.48-.75,3.26-.43,5.29.91,5.89,6.48,8.53,8.31,9.4.27.13.56.26.87.4,3.68,1.65,11.92,4.78,16.73,4.78.83,0,1.56-.08,2.25-.25,3.35-.84,4.99-3.52,5.61-4.53.21-.34.41-.71.61-1.1l.02-.04.03-.07c.17-.34.34-.71.5-1.1l.08-.17.03-.09c4.49-11.15,3.85-37.86,2.42-42-.27-.77-1.07-3.12-3.52-4.45-1.03-.56-2.17-.84-3.38-.84h0Z" fill="#5cebdf"/></g><path d="M1113.42,366.71c-.57.02-1.18.08-1.59.48-.39.38-.48.97-.51,1.52-.38,6.53,16.41,28.22,22.17,31.79.87.54,1.79,1.04,2.79,1.18,2.53.37,4.79-1.55,6.51-3.44,3.19-3.49,8.93-11.21,9.09-14.1.06-1.03-.62-1.94-1.3-2.71-6.19-7.02-34.19-14.83-37.17-14.73Z" fill="#fff6d0" stroke="#1c2126" stroke-linejoin="round" stroke-width="2"/><path d="M1131.41,375.6c-1.39,2-2.8,3.99-4.29,5.92-1.69,2.2-3.49,4.33-5.44,6.31,4.46,5.86,9.24,11.08,11.81,12.67.87.54,1.79,1.04,2.79,1.18,2.53.37,4.79-1.55,6.51-3.44,3.19-3.49,8.93-11.21,9.09-14.1.06-1.03-.62-1.94-1.3-2.71-2.74-3.11-9.76-6.37-17-9.04-.73,1.06-1.45,2.14-2.19,3.19Z" fill="#ffb916" stroke="#1c2126" stroke-linejoin="round" stroke-width="2"/><path d="M1126.92,390.48c3.48-4.11,6.22-8.74,9.29-13.15.71-1.02,1.39-2.05,2.03-3.11-3.53-1.47-7.34-2.82-10.9-3.96-2.77,4.37-5.95,8.49-9.41,12.36,2.27,3.34,4.86,6.75,7.34,9.7.56-.6,1.11-1.21,1.64-1.84Z" fill="#ff6b60" stroke="#1c2126" stroke-linejoin="round" stroke-width="2"/><g opacity=".1"><path d="M1113.47,366.15c3.46,0,27.98,6.87,36.16,13.62,0,0,0,0,0,0,.26.21.5.43.73.64,0,0,.01.01.02.02.23.21.43.43.62.64.75.85,1.5,1.88,1.44,3.11-.02.3-.09.65-.21,1.04-1.02,3.31-5.51,9.4-8.46,12.77-.2.22-.39.44-.57.64-1.47,1.61-3.67,3.67-6.29,3.67-.24,0-.48-.02-.72-.05-1.11-.16-2.11-.7-3.01-1.26-2.41-1.5-6.75-6.09-11.22-11.84-.03-.04-.07-.09-.1-.14-.21-.28-.43-.55-.64-.83,0,0,0,0,0-.01-1.33-1.74-2.61-3.51-3.77-5.22-.03-.04-.04-.08-.06-.13-3.87-5.69-6.81-11.22-6.64-14.13.04-.64.15-1.37.67-1.88.53-.52,1.26-.61,1.96-.64h0s.05,0,.08,0M1113.47,361.15c-.09,0-.17,0-.25,0-.81.03-3.3.11-5.29,2.06-1.98,1.94-2.12,4.37-2.17,5.16-.14,2.44.47,6.83,7.29,16.93.07.13.15.27.25.41,1.15,1.7,2.41,3.45,3.75,5.21l.17.23c.23.3.43.56.63.82l.06.08.12.15c2.35,3.03,8.31,10.4,12.52,13.01,1.3.81,2.9,1.67,4.93,1.96.47.07.96.1,1.43.1,5.15,0,8.79-3.99,9.99-5.29.21-.23.42-.46.64-.71,2.66-3.04,8.06-10,9.48-14.6.24-.79.38-1.52.42-2.23.18-3.44-1.9-5.8-2.68-6.69-.26-.3-.56-.61-.88-.91h0s-.05-.05-.05-.05c-.31-.29-.63-.58-.97-.86h0s-.03-.03-.03-.03c-9.02-7.43-34.68-14.76-39.34-14.76h0Z" fill="#5cebdf"/></g><path d="M815.34,408.1c.56.08,1.18.12,1.64-.2.45-.31.64-.87.76-1.4,1.51-6.37-11.25-30.64-16.31-35.16-.76-.68-1.58-1.33-2.55-1.65-2.43-.8-4.98.69-7.01,2.25-3.74,2.88-10.74,9.49-11.4,12.3-.23,1,.27,2.01.81,2.89,4.88,7.99,31.09,20.55,34.05,20.97Z" fill="#fff6d0" stroke="#1c2126" stroke-linejoin="round" stroke-width="2"/><path d="M799.17,396.22c1.72-1.73,3.45-3.44,5.25-5.09,2.05-1.88,4.19-3.66,6.45-5.26-3.38-6.55-7.17-12.51-9.43-14.53-.76-.68-1.58-1.33-2.55-1.65-2.43-.8-4.98.69-7.01,2.25-3.74,2.88-10.74,9.49-11.4,12.3-.23,1,.27,2.01.81,2.89,2.16,3.54,8.51,7.97,15.17,11.85.91-.92,1.8-1.85,2.71-2.76Z" fill="#ffb916" stroke="#1c2126" stroke-linejoin="round" stroke-width="2"/><path d="M806.18,382.34c-4.14,3.45-7.64,7.53-11.43,11.34-.87.88-1.72,1.78-2.54,2.71,3.22,2.06,6.73,4.05,10.04,5.8,3.49-3.82,7.33-7.32,11.41-10.54-1.65-3.68-3.61-7.49-5.55-10.83-.66.49-1.31,1-1.94,1.52Z" fill="#ff6b60" stroke="#1c2126" stroke-linejoin="round" stroke-width="2"/><g opacity=".1"><path d="M797.48,368.9c.53,0,1.06.08,1.6.25,1.07.35,1.95,1.06,2.74,1.77,2.11,1.89,5.59,7.17,8.99,13.61.03.05.05.1.08.15.16.31.32.62.49.93,0,0,0,0,0,.01,1,1.95,1.96,3.91,2.8,5.8.02.04.03.09.03.13,2.82,6.28,4.76,12.23,4.08,15.07-.15.63-.38,1.32-.99,1.74-.39.27-.83.35-1.28.35-.25,0-.51-.03-.77-.06h0c-3.12-.44-26.38-11.58-33.32-19.71,0,0,0,0,0,0-.22-.26-.42-.51-.61-.76,0,0,0-.01-.01-.02-.18-.25-.35-.5-.5-.74-.59-.97-1.15-2.11-.88-3.31.07-.29.2-.62.38-.98,1.58-3.09,7.06-8.3,10.55-11.11.23-.19.46-.36.67-.53,1.53-1.18,3.67-2.59,5.94-2.59M797.48,363.9c-3.83,0-6.96,2.07-8.99,3.63-.24.18-.49.38-.75.59-3.15,2.53-9.68,8.45-11.87,12.73-.38.74-.64,1.43-.8,2.12-.78,3.36.86,6.05,1.48,7.06.21.35.46.71.72,1.07h0s.02.03.02.03l.02.03c.23.32.49.64.77.97l.12.15.06.06c7.89,9.07,31.96,20.65,36.3,21.27.54.08,1.01.11,1.47.11,1.53,0,2.91-.41,4.1-1.23,2.28-1.57,2.84-3.93,3.03-4.71.56-2.38.73-6.81-4.24-17.95-.05-.15-.11-.3-.18-.46-.78-1.75-1.66-3.57-2.6-5.43v-.04s-.33-.61-.33-.61c-.14-.27-.28-.54-.42-.81l-.07-.14-.03-.06-.06-.11c-1.79-3.4-6.38-11.69-10.08-15-1.14-1.02-2.57-2.15-4.51-2.79-1.02-.34-2.08-.51-3.16-.51h0Z" fill="#5cebdf"/></g><path d="M829.37,145.59c.51.25,1.08.49,1.62.33.52-.15.88-.63,1.17-1.09,3.44-5.57-1.01-32.63-4.37-38.51-.51-.88-1.08-1.76-1.89-2.37-2.05-1.53-4.95-.92-7.36-.08-4.46,1.55-13.19,5.61-14.7,8.08-.54.88-.38,2-.15,3,2.11,9.12,23.02,29.31,25.69,30.64Z" fill="#fff6d0" stroke="#1c2126" stroke-linejoin="round" stroke-width="2"/><path d="M817.78,129.21c2.18-1.09,4.36-2.17,6.59-3.17,2.53-1.13,5.13-2.15,7.78-2.96-1.14-7.28-2.86-14.14-4.36-16.77-.51-.88-1.08-1.76-1.89-2.37-2.05-1.53-4.95-.92-7.36-.08-4.46,1.55-13.19,5.61-14.7,8.08-.54.88-.38,2-.15,3,.93,4.04,5.56,10.25,10.65,16.03,1.15-.58,2.29-1.19,3.44-1.77Z" fill="#ffb916" stroke="#1c2126" stroke-linejoin="round" stroke-width="2"/><path d="M828.81,118.26c-5.02,1.96-9.63,4.73-14.43,7.15-1.11.56-2.2,1.15-3.26,1.77,2.41,2.97,5.11,5.97,7.7,8.67,4.52-2.53,9.27-4.64,14.16-6.4-.41-4.02-1.07-8.25-1.84-12.03-.78.26-1.55.53-2.32.83Z" fill="#ff6b60" stroke="#1c2126" stroke-linejoin="round" stroke-width="2"/><g opacity=".1"><path d="M822.75,102.45c1.22,0,2.43.28,3.47,1.05.9.67,1.52,1.62,2.05,2.54,1.41,2.46,3.04,8.57,4.23,15.76,0,.06.02.11.03.17.06.34.11.69.17,1.03,0,0,0,0,0,.01.34,2.16.62,4.33.83,6.39,0,.05,0,.09,0,.14.7,6.85.65,13.11-.88,15.59-.34.55-.78,1.13-1.49,1.34-.18.05-.35.07-.52.07-.53,0-1.03-.21-1.51-.44h0c-2.83-1.41-21.38-19.31-25.4-29.22,0,0,0,0,0,0-.13-.31-.24-.62-.34-.91,0,0,0-.01,0-.02-.1-.3-.18-.58-.24-.86-.25-1.1-.43-2.37.21-3.42.16-.26.39-.53.67-.81,2.47-2.43,9.32-5.65,13.52-7.21.28-.1.55-.2.8-.29,1.26-.44,2.84-.9,4.41-.9M822.75,97.45c-2.41,0-4.61.67-6.06,1.17-.28.1-.59.21-.9.32-3.79,1.41-11.85,4.96-15.28,8.33-.59.58-1.05,1.15-1.43,1.76-1.8,2.95-1.09,6.01-.83,7.17.09.39.2.8.34,1.21v.05s.04.08.04.08c.11.33.24.69.38,1.05h0s.06.17.06.17c4.49,11.08,23.86,29.85,27.8,31.82.83.41,2.13.97,3.73.97.65,0,1.28-.09,1.9-.27,2.66-.77,3.94-2.83,4.36-3.51,1.28-2.08,2.84-6.23,1.64-18.36,0-.15,0-.31-.03-.48-.2-1.93-.45-3.94-.76-6.01h0s-.1-.68-.1-.68c-.05-.33-.1-.65-.16-.98v-.09s-.03-.07-.03-.07l-.02-.1c-.63-3.81-2.36-13.12-4.83-17.42-.76-1.33-1.76-2.85-3.4-4.07-1.82-1.35-3.99-2.04-6.46-2.04h0Z" fill="#5cebdf"/></g><path d="M874.91,65.46c-.23.52-.45,1.1-.27,1.63.17.52.66.86,1.14,1.13,5.69,3.23,32.57-2.23,38.32-5.81.86-.54,1.72-1.14,2.3-1.98,1.45-2.11.73-4.98-.2-7.36-1.72-4.4-6.1-12.97-8.62-14.39-.9-.5-2.01-.3-3-.03-9.03,2.45-28.43,24.1-29.66,26.82Z" fill="#fff6d0" stroke="#1c2126" stroke-linejoin="round" stroke-width="2"/><path d="M890.84,53.26c1.18,2.13,2.33,4.28,3.41,6.46,1.23,2.49,2.34,5.04,3.25,7.67,7.23-1.41,14.02-3.38,16.59-4.99.86-.54,1.72-1.14,2.3-1.98,1.45-2.11.73-4.98-.2-7.36-1.72-4.4-6.1-12.97-8.62-14.39-.9-.5-2.01-.3-3-.03-4,1.08-10.03,5.94-15.62,11.24.63,1.13,1.27,2.25,1.89,3.37Z" fill="#ffb916" stroke="#1c2126" stroke-linejoin="round" stroke-width="2"/><path d="M902.2,63.88c-2.15-4.94-5.09-9.45-7.69-14.15-.6-1.08-1.23-2.15-1.89-3.19-2.88,2.51-5.78,5.33-8.38,8.02,2.69,4.42,4.98,9.09,6.92,13.91,4-.56,8.2-1.37,11.95-2.29-.28-.77-.59-1.53-.92-2.29Z" fill="#ff6b60" stroke="#1c2126" stroke-linejoin="round" stroke-width="2"/><g opacity=".1"><path d="M906.27,37.81c.54,0,1.08.1,1.58.38.26.15.54.37.84.64,2.52,2.38,6,9.1,7.71,13.24.11.28.22.54.32.79.86,2.21,1.82,5.44.14,7.89-.64.93-1.56,1.58-2.47,2.14-2.41,1.5-8.45,3.36-15.59,4.82-.06.01-.11.02-.17.03-.34.07-.68.14-1.03.21,0,0,0,0,0,0,0,0,0,0,0,0,0,0,0,0,0,0-2.15.42-4.31.78-6.35,1.07-.02,0-.03,0-.05,0-.03,0-.06,0-.09,0-3.33.47-6.53.75-9.22.75s-5.09-.31-6.39-1.05c-.56-.32-1.16-.74-1.39-1.44-.23-.71,0-1.4.29-2.04h0c1.3-2.88,18.5-22.09,28.25-26.47,0,0,0,0,0,0,.31-.14.61-.26.9-.37,0,0,.01,0,.02,0,.29-.11.58-.2.85-.27.59-.16,1.22-.3,1.85-.3M906.27,32.81c-1.27,0-2.41.27-3.16.47-.38.1-.78.23-1.19.38h-.04s-.11.05-.11.05c-.28.1-.6.23-.93.38h-.02s-.24.11-.24.11c-.02.01-.05.02-.07.03h-.03s0,.01,0,.01c-10.91,4.98-28.84,24.93-30.65,28.93-.34.74-1.36,3.01-.49,5.66.87,2.63,2.98,3.83,3.67,4.23,2.05,1.16,4.86,1.7,8.86,1.7,2.7,0,5.9-.25,9.52-.74h.15l.39-.05c1.95-.27,4.02-.61,6.13-1.02h.07l.47-.1c.31-.06.62-.12.93-.19l.09-.02h.04s.14-.04.14-.04c3.77-.77,13.01-2.85,17.22-5.47,1.3-.81,2.78-1.86,3.94-3.55,3.38-4.92,1.13-10.65.4-12.54-.11-.28-.23-.58-.36-.89-1.55-3.73-5.4-11.66-8.9-14.96-.6-.57-1.19-1.01-1.81-1.36-1.22-.68-2.57-1.03-4.03-1.03h0Z" fill="#5cebdf"/></g><path d="M1089.24,84.28c.23-1.03.06-2.1-.18-3.13-.42-1.8-1.13-3.67-2.63-4.74-1.58-1.13-3.7-1.14-5.6-.75-1.7.34-3.33.99-4.83,1.86.41-2.39.33-4.91-.62-7.14-.96-2.26-2.89-4.17-5.28-4.74-2.39-.57-5.16.42-6.36,2.57-1.15,2.05-.72,4.59-.25,6.9,1.18,5.76,2.46,11.5,3.83,17.21,4.85-1.04,9.7-2.08,14.55-3.12,3.06-.66,6.69-1.85,7.37-4.91Z" fill="#ffdd73" stroke="#1c2126" stroke-linejoin="round" stroke-width="2"/><path d="M1054,58.8c-.54-1.09-1.48-1.93-2.44-2.67-1.68-1.31-3.67-2.46-5.8-2.33-2.23.14-4.14,1.67-5.56,3.39-1.27,1.54-2.27,3.3-2.97,5.17-1.37-2.44-3.27-4.64-5.74-5.95-2.5-1.33-5.62-1.63-8.17-.41-2.55,1.23-4.32,4.13-3.84,6.92.46,2.67,2.69,4.64,4.79,6.36,5.24,4.3,10.55,8.51,15.93,12.64,3.59-4.45,7.17-8.91,10.76-13.36,2.26-2.81,4.65-6.52,3.04-9.75Z" fill="#ffdd73" stroke="#1c2126" stroke-linejoin="round" stroke-width="2"/></g></svg>