<?xml version="1.0" encoding="UTF-8"?><svg xmlns="http://www.w3.org/2000/svg" xmlns:xlink="http://www.w3.org/1999/xlink" viewBox="0 0 1200 630"><defs><clipPath id="e"><rect y="-732" width="1200" height="498.72" fill="none" stroke-width="0"/></clipPath><linearGradient id="f" x1="331.61" y1="414.5" x2="331.61" y2="306.05" gradientUnits="userSpaceOnUse"><stop offset="0" stop-color="#30c8c9"/><stop offset="1" stop-color="#5cebdf"/></linearGradient><linearGradient id="g" x1="137.3" y1="268.02" x2="137.3" y2="417" gradientUnits="userSpaceOnUse"><stop offset="0" stop-color="#ff6b60"/><stop offset="1" stop-color="#db4648"/></linearGradient><linearGradient id="h" x1="253.09" y1="323.04" x2="253.09" y2="289.05" xlink:href="#f"/><linearGradient id="i" x1="413.08" y1="324.38" x2="413.08" y2="290.39" xlink:href="#f"/><linearGradient id="j" x1="526.77" x2="526.77" y2="414.5" xlink:href="#g"/></defs><g id="b"><rect width="1200" height="498.72" fill="#5cebdf" stroke-width="0"/></g><g id="d"><path d="M372.71,321.41c-7.62,0-14.65,1.63-21.09,4.88-5.28,2.67-9.79,6.46-13.53,11.32l.34-13.71-11.82-15.37-29.73,15.37c-.28,4.99-.7,10.01-1.25,15.06-.56,5.06-1.18,10.08-1.87,15.06l-23.87,60.47,11.82,15.37h43.22l9.35-59.01c.83-4.99,2.77-9,5.82-12.05,3.05-3.05,6.92-4.57,11.64-4.57,3.19,0,5.68,1.14,7.48,3.43,1.8,2.28,2.29,6.06,1.45,11.32l-21.38,45.51,11.82,15.37h43.22l9.56-60.46c2.63-16.48,1.18-28.6-4.36-36.36-5.54-7.76-14.48-11.64-26.8-11.64Z" fill="#1c2126" stroke="#1c2126" stroke-linejoin="round" stroke-width="2"/><path d="M166.43,366.71c-1.39,9.28-4.12,16.34-8.21,21.19-4.09,4.85-10.08,7.27-17.97,7.27-8.73,0-14.58-2.39-17.56-7.17-2.98-4.78-3.78-11.6-2.39-20.47l13.3-84.15-11.82-15.37-33.06,15.37-12.88,81.03c-2.49,15.66-1.56,28.5,2.8,38.54,4.36,10.04,11.46,17.45,21.3,22.23,9.83,4.78,21.68,7.17,35.53,7.17,15.65,0,28.6-2.42,38.85-7.27,10.25-4.85,18.25-12.05,24-21.61,5.75-9.56,9.73-21.33,11.95-35.32l13.51-84.77-11.82-15.37-32.23,15.37-13.3,83.32Z" fill="#1c2126" stroke="#1c2126" stroke-linejoin="round" stroke-width="2"/><path d="M267.5,319.6c.41-.91.88-1.74,1.41-2.5,1.33-1.91,3.36-3.98,6.09-6.22l-11.82-15.37s-9.13,5.93-10.52,7.61c-1.76,2.12,6.25,12.18,5.35,14.48-.91,2.3-16,5.44-16,5.44l11.82,15.37h19.17l3-18.81-11.82-15.37,3.32,15.37Z" fill="#1c2126" stroke="#1c2126" stroke-linejoin="round" stroke-width="2"/><path d="M413.82,324.57h8.49c-.41.89-18.79-7.39-19.32-6.65l11.82,15.37,6,6.45c2.97-2.24,5.32-4.42,7.04-6.54,1.73-2.12,3.06-4.35,4-6.68.94-2.33,1.62-4.89,2.04-7.68l2.09-13.08-11.82-15.37-7.35,15.37-14.82,3.44,11.82,15.37Z" fill="#1c2126" stroke="#1c2126" stroke-linejoin="round" stroke-width="2"/><polygon points="609.26 319.54 615.07 283.39 603.25 268.02 485.42 283.39 467.78 304.17 479.61 319.54 521.99 319.54 510.26 393.72 467.92 393.72 450.28 414.5 462.1 429.87 504.54 429.87 549.42 429.87 591.75 429.87 597.57 393.72 585.75 378.35 555.14 393.72 566.87 319.54 609.26 319.54" fill="#1c2126" stroke="#1c2126" stroke-linejoin="round" stroke-width="2"/><g clip-path="url(#e)"><rect x="523.49" y="371.54" width="200" height="200" transform="translate(-150.81 578.99) rotate(-45)" fill="#ff6b60" stroke-width="0"/><polyline points="626.32 610.13 623.49 612.96 620.66 610.13" fill="none" stroke="#1c2126" stroke-linejoin="round" stroke-width="2"/><line x1="615.23" y1="604.7" x2="487.62" y2="477.08" fill="none" stroke="#1c2126" stroke-dasharray="0 0 7.68 7.68" stroke-linejoin="round" stroke-width="2"/><polyline points="484.9 474.36 482.07 471.54 484.9 468.71" fill="none" stroke="#1c2126" stroke-linejoin="round" stroke-width="2"/><line x1="490.33" y1="463.28" x2="617.95" y2="335.66" fill="none" stroke="#1c2126" stroke-dasharray="0 0 7.68 7.68" stroke-linejoin="round" stroke-width="2"/><polyline points="620.66 332.94 623.49 330.11 626.32 332.94" fill="none" stroke="#1c2126" stroke-linejoin="round" stroke-width="2"/><line x1="631.75" y1="338.37" x2="759.37" y2="465.99" fill="none" stroke="#1c2126" stroke-dasharray="0 0 7.68 7.68" stroke-linejoin="round" stroke-width="2"/><polyline points="762.09 468.71 764.91 471.54 762.09 474.36" fill="none" stroke="#1c2126" stroke-linejoin="round" stroke-width="2"/><line x1="756.66" y1="479.79" x2="629.04" y2="607.41" fill="none" stroke="#1c2126" stroke-dasharray="0 0 7.68 7.68" stroke-linejoin="round" stroke-width="2"/><rect x="548.5" y="396.55" width="149.98" height="149.98" transform="translate(516.04 -302.77) rotate(45)" fill="#ffd3bf" stroke="#1c2126" stroke-linejoin="round" stroke-width="2"/><rect x="577.96" y="426" width="91.07" height="91.07" transform="translate(516.04 -302.77) rotate(45)" fill="#bffde7" stroke="#1c2126" stroke-dasharray="0 8" stroke-linejoin="round" stroke-width="2"/><rect x="604.07" y="452.11" width="38.85" height="38.85" transform="translate(516.04 -302.77) rotate(45)" fill="#30c8c9" stroke="#1c2126" stroke-linejoin="round" stroke-width="2"/></g><path d="M78.04,142.17c-.51,0-.93-.16-1.26-.49-.33-.33-.49-.75-.49-1.26v-15.4l-16.38-29.61c-.05-.14-.09-.27-.14-.38-.05-.12-.07-.25-.07-.39,0-.37.15-.71.46-1.01.3-.3.64-.46,1.01-.46h7.49c.61,0,1.1.16,1.47.49.37.33.63.63.77.91l10.99,19.25,10.99-19.25c.14-.28.4-.58.77-.91.37-.33.89-.49,1.54-.49h7.42c.42,0,.77.15,1.05.46.28.3.42.64.42,1.01,0,.14-.01.27-.04.39s-.08.24-.17.38l-16.38,29.61v15.4c0,.51-.16.93-.49,1.26s-.75.49-1.26.49h-7.7Z" fill="#1c2126" stroke-width="0"/><path d="M120.39,142.87c-3.87,0-7.12-.64-9.73-1.92-2.61-1.28-4.61-3.12-5.98-5.5-1.38-2.38-2.14-5.16-2.28-8.33-.05-.93-.07-2-.07-3.19s.02-2.23.07-3.11c.14-3.22.93-6.01,2.38-8.37,1.45-2.36,3.48-4.18,6.09-5.46,2.61-1.28,5.79-1.92,9.52-1.92s6.84.64,9.45,1.92c2.61,1.28,4.64,3.1,6.09,5.46,1.45,2.36,2.26,5.14,2.45,8.37.05.89.07,1.92.07,3.11s-.02,2.25-.07,3.19c-.19,3.17-.97,5.95-2.34,8.33-1.38,2.38-3.37,4.21-5.98,5.5-2.61,1.28-5.83,1.92-9.66,1.92ZM120.39,135.1c2.29,0,4-.7,5.14-2.1s1.79-3.48,1.92-6.23c.05-.7.07-1.63.07-2.8s-.02-2.1-.07-2.8c-.14-2.71-.78-4.77-1.92-6.2-1.14-1.42-2.86-2.13-5.14-2.13s-4.01.71-5.18,2.13c-1.17,1.42-1.82,3.49-1.96,6.2-.05.7-.07,1.63-.07,2.8s.02,2.1.07,2.8c.14,2.75.79,4.83,1.96,6.23,1.17,1.4,2.89,2.1,5.18,2.1Z" fill="#1c2126" stroke-width="0"/><path d="M159.17,142.87c-2.71,0-5.1-.62-7.17-1.86-2.08-1.24-3.7-3.03-4.87-5.39-1.17-2.36-1.75-5.21-1.75-8.58v-19.53c0-.51.17-.93.52-1.26.35-.33.76-.49,1.23-.49h7.49c.47,0,.86.16,1.19.49.33.33.49.75.49,1.26v19.11c0,5.23,2.29,7.84,6.86,7.84,2.19,0,3.93-.69,5.22-2.06,1.28-1.38,1.92-3.3,1.92-5.78v-19.11c0-.51.16-.93.49-1.26.33-.33.75-.49,1.26-.49h7.42c.47,0,.86.16,1.19.49.33.33.49.75.49,1.26v32.9c0,.51-.16.93-.49,1.26-.33.33-.72.49-1.19.49h-6.93c-.47,0-.86-.16-1.19-.49-.33-.33-.49-.75-.49-1.26v-2.73c-1.21,1.68-2.78,2.96-4.69,3.85-1.91.89-4.25,1.33-7,1.33Z" fill="#1c2126" stroke-width="0"/><path d="M221.68,142.87c-3.45,0-6.48-.63-9.07-1.89-2.59-1.26-4.63-3.09-6.12-5.49-1.49-2.4-2.31-5.29-2.45-8.65-.05-.75-.07-1.69-.07-2.83s.02-2.09.07-2.83c.14-3.41.95-6.31,2.42-8.71,1.47-2.4,3.51-4.24,6.12-5.5,2.61-1.26,5.65-1.89,9.1-1.89,3.08,0,5.72.43,7.91,1.29s3.99,1.96,5.39,3.29c1.4,1.33,2.45,2.69,3.15,4.09.7,1.4,1.07,2.64,1.12,3.71.05.51-.12.93-.49,1.26-.38.33-.79.49-1.26.49h-7.49c-.51,0-.9-.12-1.16-.35-.26-.23-.5-.61-.74-1.12-.61-1.63-1.42-2.8-2.45-3.5-1.03-.7-2.31-1.05-3.85-1.05-2.1,0-3.75.68-4.93,2.03-1.19,1.35-1.83,3.45-1.93,6.3-.09,1.82-.09,3.48,0,4.97.09,2.89.74,4.99,1.93,6.3,1.19,1.31,2.83,1.96,4.93,1.96,1.63,0,2.94-.35,3.92-1.05.98-.7,1.77-1.87,2.38-3.5.23-.51.48-.89.74-1.12.26-.23.64-.35,1.16-.35h7.49c.47,0,.89.16,1.26.49.37.33.54.75.49,1.26-.05.79-.28,1.73-.7,2.8-.42,1.07-1.06,2.17-1.92,3.29-.86,1.12-1.97,2.16-3.33,3.11-1.35.96-3,1.73-4.93,2.31-1.94.58-4.17.88-6.68.88Z" fill="#1c2126" stroke-width="0"/><path d="M256.75,142.87c-2.47,0-4.69-.48-6.65-1.44s-3.52-2.25-4.69-3.88c-1.17-1.63-1.75-3.45-1.75-5.46,0-3.31,1.34-5.93,4.02-7.84,2.68-1.91,6.22-3.22,10.61-3.92l9.17-1.33v-1.26c0-1.82-.42-3.22-1.26-4.2-.84-.98-2.31-1.47-4.41-1.47-1.54,0-2.77.3-3.67.91-.91.61-1.62,1.4-2.14,2.38-.37.61-.93.91-1.68.91h-6.65c-.51,0-.91-.15-1.19-.46-.28-.3-.4-.66-.35-1.08,0-.79.3-1.73.91-2.8.61-1.07,1.54-2.13,2.8-3.18,1.26-1.05,2.88-1.92,4.86-2.62s4.38-1.05,7.18-1.05c2.94,0,5.46.35,7.56,1.05s3.79,1.68,5.08,2.94c1.28,1.26,2.22,2.72,2.8,4.38.58,1.66.88,3.44.88,5.36v21.63c0,.51-.16.93-.49,1.26s-.72.49-1.19.49h-6.93c-.47,0-.86-.16-1.19-.49-.33-.33-.49-.75-.49-1.26v-2.59c-.61.89-1.42,1.71-2.45,2.48-1.03.77-2.25,1.39-3.67,1.86-1.42.47-3.09.7-5,.7ZM259.55,135.59c1.54,0,2.92-.33,4.13-.98,1.21-.65,2.17-1.66,2.87-3.01.7-1.35,1.05-3.06,1.05-5.11v-1.19l-6.51,1.05c-2.47.42-4.29,1.05-5.46,1.89-1.17.84-1.75,1.87-1.75,3.08,0,.89.27,1.64.8,2.27.54.63,1.24,1.12,2.1,1.47.86.35,1.79.53,2.76.53Z" fill="#1c2126" stroke-width="0"/><path d="M288.32,142.17c-.47,0-.88-.16-1.22-.49-.35-.33-.53-.75-.53-1.26v-32.9c0-.51.17-.93.53-1.26.35-.33.76-.49,1.22-.49h6.86c.51,0,.93.16,1.26.49.33.33.49.75.49,1.26v2.73c1.21-1.49,2.79-2.73,4.72-3.71,1.94-.98,4.26-1.47,6.96-1.47s5.18.62,7.28,1.85c2.1,1.24,3.73,3.03,4.9,5.39,1.17,2.36,1.75,5.22,1.75,8.58v19.53c0,.51-.16.93-.49,1.26s-.75.49-1.26.49h-7.42c-.51,0-.93-.16-1.26-.49-.33-.33-.49-.75-.49-1.26v-19.11c0-2.47-.6-4.4-1.79-5.77-1.19-1.38-2.93-2.07-5.21-2.07s-3.93.69-5.22,2.07c-1.28,1.38-1.92,3.3-1.92,5.77v19.11c0,.51-.16.93-.49,1.26-.33.33-.75.49-1.26.49h-7.42Z" fill="#1c2126" stroke-width="0"/><path d="M329.41,109.13c-.42,0-.76-.14-1.02-.42-.26-.28-.36-.68-.31-1.19l2.03-12.74c.09-.61.33-1.14.7-1.61.37-.47.93-.7,1.68-.7h7.28c.37,0,.69.14.95.42.26.28.38.58.38.91s-.07.61-.21.84l-4.83,12.6c-.19.47-.46.9-.8,1.29-.35.4-.9.59-1.65.59h-4.2Z" fill="#1c2126" stroke-width="0"/><path d="M364.69,142.17c-2.89,0-5.36-.48-7.38-1.43-2.03-.96-3.58-2.44-4.66-4.45-1.07-2.01-1.61-4.53-1.61-7.56v-14.7h-5.46c-.51,0-.93-.16-1.26-.49-.33-.33-.49-.72-.49-1.19v-4.83c0-.51.16-.93.49-1.26s.75-.49,1.26-.49h5.46v-11.55c0-.51.17-.93.53-1.26.35-.33.76-.49,1.22-.49h6.93c.47,0,.86.16,1.19.49.33.33.49.75.49,1.26v11.55h8.75c.51,0,.93.16,1.26.49.33.33.49.75.49,1.26v4.83c0,.47-.16.86-.49,1.19s-.75.49-1.26.49h-8.75v13.86c0,1.77.33,3.16.98,4.17.65,1,1.75,1.5,3.29,1.5h5.11c.51,0,.93.16,1.26.49.33.33.49.72.49,1.19v5.18c0,.51-.16.93-.49,1.26s-.75.49-1.26.49h-6.09Z" fill="#1c2126" stroke-width="0"/><path d="M408.37,142.87c-2.89,0-5.38-.34-7.46-1.02-2.08-.68-3.76-1.5-5.04-2.48-1.28-.98-2.24-1.97-2.87-2.98-.63-1-.97-1.85-1.01-2.55-.05-.51.12-.93.49-1.26.37-.33.75-.49,1.12-.49h6.79c.19,0,.34.02.46.07.12.05.27.16.46.35.61.42,1.22.9,1.85,1.44.63.54,1.39.99,2.28,1.36.89.37,1.96.56,3.22.56,1.54,0,2.83-.32,3.88-.95s1.58-1.53,1.58-2.7c0-.84-.23-1.54-.7-2.1-.47-.56-1.38-1.07-2.73-1.54-1.35-.47-3.36-.98-6.02-1.54-2.52-.56-4.67-1.31-6.44-2.24-1.77-.93-3.1-2.11-3.99-3.53-.89-1.42-1.33-3.14-1.33-5.15,0-1.82.57-3.57,1.71-5.25s2.83-3.07,5.08-4.17c2.24-1.1,5.04-1.64,8.4-1.64,2.57,0,4.82.31,6.75.94,1.94.63,3.56,1.42,4.86,2.38,1.31.96,2.3,1.94,2.98,2.94.68,1,1.04,1.88,1.08,2.62.05.51-.09.93-.42,1.26s-.7.49-1.12.49h-6.23c-.23,0-.44-.05-.63-.14s-.35-.21-.49-.35c-.56-.33-1.13-.75-1.71-1.26-.58-.51-1.27-.96-2.06-1.33-.79-.37-1.82-.56-3.08-.56-1.49,0-2.65.34-3.46,1.01-.82.68-1.23,1.53-1.23,2.55,0,.65.21,1.26.63,1.82s1.27,1.07,2.56,1.54c1.28.47,3.28.96,5.98,1.47,3.17.56,5.69,1.4,7.56,2.52,1.87,1.12,3.2,2.42,3.99,3.88.79,1.47,1.19,3.04,1.19,4.72,0,2.19-.64,4.14-1.92,5.85-1.28,1.7-3.19,3.03-5.71,3.99s-5.6,1.44-9.24,1.44Z" fill="#1c2126" stroke-width="0"/><path d="M433.78,155.47c-.51,0-.93-.16-1.26-.49-.33-.33-.49-.75-.49-1.26v-46.2c0-.51.16-.93.49-1.26.33-.33.75-.49,1.26-.49h6.65c.51,0,.93.16,1.26.49.33.33.49.75.49,1.26v2.66c1.12-1.49,2.58-2.72,4.38-3.67,1.8-.96,4.03-1.43,6.69-1.43,2.38,0,4.47.38,6.26,1.15,1.8.77,3.31,1.87,4.55,3.29,1.24,1.42,2.21,3.14,2.91,5.15.7,2.01,1.1,4.27,1.19,6.79.05.89.07,1.73.07,2.52s-.02,1.66-.07,2.59c-.09,2.38-.48,4.57-1.16,6.58-.68,2.01-1.64,3.73-2.91,5.18-1.26,1.45-2.79,2.57-4.58,3.36-1.8.79-3.88,1.19-6.26,1.19s-4.5-.43-6.23-1.29c-1.73-.86-3.15-2.04-4.27-3.54v15.68c0,.51-.16.93-.49,1.26-.33.33-.75.49-1.26.49h-7.21ZM450.02,134.47c1.77,0,3.17-.38,4.2-1.16,1.03-.77,1.76-1.78,2.21-3.04.44-1.26.71-2.64.81-4.13.09-1.45.09-2.89,0-4.34-.09-1.49-.36-2.87-.81-4.13s-1.18-2.28-2.21-3.04c-1.03-.77-2.43-1.16-4.2-1.16s-3.12.4-4.17,1.19c-1.05.79-1.82,1.8-2.31,3.01-.49,1.21-.76,2.52-.8,3.92-.05.84-.07,1.7-.07,2.59s.02,1.77.07,2.66c.05,1.31.33,2.53.84,3.67.51,1.14,1.31,2.09,2.38,2.83,1.07.75,2.43,1.12,4.06,1.12Z" fill="#1c2126" stroke-width="0"/><path d="M491.81,142.87c-5.37,0-9.62-1.49-12.78-4.48-3.15-2.99-4.82-7.33-5-13.02v-2.94c.19-3.64,1-6.75,2.45-9.34,1.45-2.59,3.48-4.57,6.09-5.95,2.61-1.38,5.67-2.06,9.17-2.06,3.97,0,7.26.8,9.87,2.42,2.61,1.61,4.58,3.8,5.92,6.58,1.33,2.78,2,5.96,2,9.56v1.61c0,.47-.16.88-.49,1.23-.33.35-.75.52-1.26.52h-22.82v.49c.05,1.49.33,2.86.84,4.09.51,1.24,1.27,2.23,2.28,2.98,1,.75,2.23,1.12,3.67,1.12,1.12,0,2.05-.17,2.8-.53.75-.35,1.37-.75,1.86-1.19.49-.44.85-.83,1.08-1.16.42-.51.76-.83,1.01-.95.26-.12.64-.17,1.16-.17h7.42c.42,0,.78.14,1.08.42.3.28.43.63.38,1.05-.05.79-.43,1.74-1.16,2.83-.72,1.1-1.78,2.17-3.18,3.22-1.4,1.05-3.14,1.92-5.21,2.62-2.08.7-4.47,1.05-7.17,1.05ZM484.95,120.54h13.65v-.21c0-1.63-.27-3.07-.81-4.3-.54-1.24-1.32-2.21-2.34-2.91-1.03-.7-2.26-1.05-3.71-1.05s-2.67.35-3.67,1.05c-1,.7-1.77,1.67-2.31,2.91-.54,1.24-.8,2.67-.8,4.3v.21Z" fill="#1c2126" stroke-width="0"/><path d="M518.34,142.17c-.51,0-.93-.16-1.26-.49-.33-.33-.49-.75-.49-1.26v-46.2c0-.51.16-.93.49-1.26.33-.33.75-.49,1.26-.49h7c.51,0,.93.16,1.26.49.33.33.49.75.49,1.26v46.2c0,.51-.16.93-.49,1.26s-.75.49-1.26.49h-7Z" fill="#1c2126" stroke-width="0"/><path d="M537.66,142.17c-.51,0-.93-.16-1.26-.49-.33-.33-.49-.75-.49-1.26v-46.2c0-.51.16-.93.49-1.26.33-.33.75-.49,1.26-.49h7c.51,0,.93.16,1.26.49.33.33.49.75.49,1.26v46.2c0,.51-.16.93-.49,1.26s-.75.49-1.26.49h-7Z" fill="#1c2126" stroke-width="0"/><path d="M83.57,226.87c-4.11,0-7.7-.69-10.78-2.07s-5.46-3.5-7.14-6.37c-1.68-2.87-2.52-6.52-2.52-10.96v-28.56c0-.51.16-.93.49-1.26s.72-.49,1.19-.49h7.7c.51,0,.93.16,1.26.49.33.33.49.75.49,1.26v28.49c0,3.41.82,5.95,2.45,7.63,1.63,1.68,3.92,2.52,6.86,2.52s5.16-.84,6.79-2.52c1.63-1.68,2.45-4.22,2.45-7.63v-28.49c0-.51.17-.93.52-1.26.35-.33.76-.49,1.23-.49h7.7c.47,0,.86.16,1.19.49.33.33.49.75.49,1.26v28.56c0,4.43-.83,8.08-2.49,10.96-1.66,2.87-4.01,4.99-7.07,6.37s-6.66,2.07-10.81,2.07Z" fill="#1c2126" stroke-width="0"/><path d="M114.79,226.17c-.47,0-.88-.16-1.22-.49-.35-.33-.53-.75-.53-1.26v-32.9c0-.51.17-.93.53-1.26.35-.33.76-.49,1.22-.49h6.86c.51,0,.93.16,1.26.49.33.33.49.75.49,1.26v2.73c1.21-1.49,2.79-2.73,4.72-3.71,1.94-.98,4.26-1.47,6.96-1.47s5.18.62,7.28,1.85c2.1,1.24,3.73,3.03,4.9,5.39,1.17,2.36,1.75,5.22,1.75,8.58v19.53c0,.51-.16.93-.49,1.26s-.75.49-1.26.49h-7.42c-.51,0-.93-.16-1.26-.49-.33-.33-.49-.75-.49-1.26v-19.11c0-2.47-.6-4.4-1.79-5.77-1.19-1.38-2.93-2.07-5.21-2.07s-3.93.69-5.22,2.07c-1.28,1.38-1.92,3.3-1.92,5.77v19.11c0,.51-.16.93-.49,1.26-.33.33-.75.49-1.26.49h-7.42Z" fill="#1c2126" stroke-width="0"/><path d="M158.89,184.17c-.47,0-.86-.16-1.19-.49-.33-.33-.49-.75-.49-1.26v-5.67c0-.47.16-.88.49-1.22.33-.35.72-.53,1.19-.53h7.42c.47,0,.88.17,1.23.53s.52.76.52,1.22v5.67c0,.51-.17.93-.52,1.26-.35.33-.76.49-1.23.49h-7.42ZM159.1,226.17c-.47,0-.88-.16-1.22-.49-.35-.33-.53-.75-.53-1.26v-32.9c0-.51.17-.93.53-1.26.35-.33.76-.49,1.22-.49h7.07c.47,0,.86.16,1.19.49.33.33.49.75.49,1.26v32.9c0,.51-.16.93-.49,1.26-.33.33-.72.49-1.19.49h-7.07Z" fill="#1c2126" stroke-width="0"/><path d="M192.91,226.87c-3.45,0-6.48-.63-9.07-1.89-2.59-1.26-4.63-3.09-6.12-5.49-1.49-2.4-2.31-5.29-2.45-8.65-.05-.75-.07-1.69-.07-2.83s.02-2.09.07-2.83c.14-3.41.95-6.31,2.42-8.71,1.47-2.4,3.51-4.24,6.12-5.5,2.61-1.26,5.65-1.89,9.1-1.89,3.08,0,5.72.43,7.91,1.29s3.99,1.96,5.39,3.29c1.4,1.33,2.45,2.69,3.15,4.09.7,1.4,1.07,2.64,1.12,3.71.05.51-.12.93-.49,1.26-.38.33-.79.49-1.26.49h-7.49c-.51,0-.9-.12-1.16-.35-.26-.23-.5-.61-.74-1.12-.61-1.63-1.42-2.8-2.45-3.5-1.03-.7-2.31-1.05-3.85-1.05-2.1,0-3.75.68-4.93,2.03-1.19,1.35-1.83,3.45-1.93,6.3-.09,1.82-.09,3.48,0,4.97.09,2.89.74,4.99,1.93,6.3,1.19,1.31,2.83,1.96,4.93,1.96,1.63,0,2.94-.35,3.92-1.05.98-.7,1.77-1.87,2.38-3.5.23-.51.48-.89.74-1.12.26-.23.64-.35,1.16-.35h7.49c.47,0,.89.16,1.26.49.37.33.54.75.49,1.26-.05.79-.28,1.73-.7,2.8-.42,1.07-1.06,2.17-1.92,3.29-.86,1.12-1.97,2.16-3.33,3.11-1.35.96-3,1.73-4.93,2.31-1.94.58-4.17.88-6.68.88Z" fill="#1c2126" stroke-width="0"/><path d="M233.93,226.87c-3.87,0-7.12-.64-9.73-1.92-2.61-1.28-4.61-3.12-5.98-5.5-1.38-2.38-2.14-5.16-2.28-8.33-.05-.93-.07-2-.07-3.19s.02-2.23.07-3.11c.14-3.22.93-6.01,2.38-8.37,1.45-2.36,3.48-4.18,6.09-5.46,2.61-1.28,5.79-1.92,9.52-1.92s6.84.64,9.45,1.92c2.61,1.28,4.64,3.1,6.09,5.46,1.45,2.36,2.26,5.14,2.45,8.37.05.89.07,1.92.07,3.11s-.02,2.25-.07,3.19c-.19,3.17-.97,5.95-2.34,8.33-1.38,2.38-3.37,4.21-5.98,5.5-2.61,1.28-5.83,1.92-9.66,1.92ZM233.93,219.1c2.29,0,4-.7,5.14-2.1s1.79-3.48,1.92-6.23c.05-.7.07-1.63.07-2.8s-.02-2.1-.07-2.8c-.14-2.71-.78-4.77-1.92-6.2-1.14-1.42-2.86-2.13-5.14-2.13s-4.01.71-5.18,2.13c-1.17,1.42-1.82,3.49-1.96,6.2-.05.7-.07,1.63-.07,2.8s.02,2.1.07,2.8c.14,2.75.79,4.83,1.96,6.23,1.17,1.4,2.89,2.1,5.18,2.1Z" fill="#1c2126" stroke-width="0"/><path d="M272.85,226.87c-2.33,0-4.41-.38-6.23-1.16-1.82-.77-3.36-1.89-4.62-3.36-1.26-1.47-2.22-3.22-2.87-5.25-.65-2.03-1.05-4.28-1.19-6.75-.05-.89-.07-1.69-.07-2.42s.02-1.5.07-2.34c.09-2.43.48-4.64,1.16-6.65.68-2.01,1.63-3.74,2.87-5.21,1.24-1.47,2.78-2.61,4.62-3.43,1.84-.82,3.93-1.22,6.26-1.22s4.5.41,6.23,1.22c1.73.82,3.15,1.86,4.27,3.12v-15.19c0-.51.16-.93.49-1.26s.75-.49,1.26-.49h7.21c.51,0,.93.16,1.26.49.33.33.49.75.49,1.26v46.2c0,.51-.16.93-.49,1.26s-.75.49-1.26.49h-6.72c-.47,0-.86-.16-1.19-.49-.33-.33-.49-.75-.49-1.26v-2.38c-1.17,1.4-2.64,2.55-4.41,3.46-1.77.91-3.99,1.37-6.65,1.37ZM276.07,218.47c1.73,0,3.12-.4,4.17-1.19,1.05-.79,1.82-1.8,2.31-3.01.49-1.21.76-2.52.8-3.92.09-.89.14-1.77.14-2.66s-.05-1.75-.14-2.59c-.05-1.31-.34-2.53-.88-3.67-.54-1.14-1.32-2.09-2.34-2.83-1.03-.75-2.38-1.12-4.06-1.12-1.77,0-3.17.38-4.2,1.16-1.03.77-1.76,1.79-2.21,3.04-.44,1.26-.71,2.64-.81,4.13-.09,1.45-.09,2.89,0,4.34.09,1.49.36,2.87.81,4.13.44,1.26,1.18,2.28,2.21,3.04,1.03.77,2.43,1.16,4.2,1.16Z" fill="#1c2126" stroke-width="0"/><path d="M319.12,226.87c-5.37,0-9.62-1.49-12.78-4.48-3.15-2.99-4.82-7.33-5-13.02v-2.94c.19-3.64,1-6.75,2.45-9.34,1.45-2.59,3.48-4.57,6.09-5.95,2.61-1.38,5.67-2.06,9.17-2.06,3.97,0,7.26.8,9.87,2.42,2.61,1.61,4.58,3.8,5.92,6.58,1.33,2.78,2,5.96,2,9.56v1.61c0,.47-.16.88-.49,1.23-.33.35-.75.52-1.26.52h-22.82v.49c.05,1.49.33,2.86.84,4.09.51,1.24,1.27,2.23,2.28,2.98,1,.75,2.23,1.12,3.67,1.12,1.12,0,2.05-.17,2.8-.53.75-.35,1.37-.75,1.86-1.19.49-.44.85-.83,1.08-1.16.42-.51.76-.83,1.01-.95.26-.12.64-.17,1.16-.17h7.42c.42,0,.78.14,1.08.42.3.28.43.63.38,1.05-.05.79-.43,1.74-1.16,2.83-.72,1.1-1.78,2.17-3.18,3.22-1.4,1.05-3.14,1.92-5.21,2.62-2.08.7-4.47,1.05-7.17,1.05ZM312.26,204.54h13.65v-.21c0-1.63-.27-3.07-.81-4.3-.54-1.24-1.32-2.21-2.34-2.91-1.03-.7-2.26-1.05-3.71-1.05s-2.67.35-3.67,1.05c-1,.7-1.77,1.67-2.31,2.91-.54,1.24-.8,2.67-.8,4.3v.21Z" fill="#1c2126" stroke-width="0"/><path d="M367.84,226.17c-.65,0-1.16-.16-1.5-.49-.35-.33-.62-.75-.8-1.26l-10.01-32.41c-.09-.23-.14-.47-.14-.7,0-.42.15-.78.46-1.08.3-.3.67-.46,1.08-.46h6.23c.56,0,1,.16,1.33.49.33.33.54.63.63.91l6.37,21.56,6.79-21.42c.09-.33.32-.67.67-1.01.35-.35.85-.53,1.5-.53h3.99c.65,0,1.16.18,1.5.53.35.35.57.69.67,1.01l6.79,21.42,6.37-21.56c.05-.28.23-.58.56-.91.33-.33.79-.49,1.4-.49h6.23c.42,0,.78.15,1.08.46.3.3.46.67.46,1.08,0,.23-.05.47-.14.7l-10.01,32.41c-.19.51-.44.93-.77,1.26-.33.33-.84.49-1.54.49h-5.39c-.65,0-1.17-.16-1.54-.49-.37-.33-.65-.75-.84-1.26l-6.79-20.65-6.86,20.65c-.19.51-.46.93-.81,1.26-.35.33-.88.49-1.58.49h-5.39Z" fill="#1c2126" stroke-width="0"/><path d="M417.33,184.17c-.47,0-.86-.16-1.19-.49-.33-.33-.49-.75-.49-1.26v-5.67c0-.47.16-.88.49-1.22.33-.35.72-.53,1.19-.53h7.42c.47,0,.88.17,1.23.53s.52.76.52,1.22v5.67c0,.51-.17.93-.52,1.26-.35.33-.76.49-1.23.49h-7.42ZM417.54,226.17c-.47,0-.88-.16-1.22-.49-.35-.33-.53-.75-.53-1.26v-32.9c0-.51.17-.93.53-1.26.35-.33.76-.49,1.22-.49h7.07c.47,0,.86.16,1.19.49.33.33.49.75.49,1.26v32.9c0,.51-.16.93-.49,1.26-.33.33-.72.49-1.19.49h-7.07Z" fill="#1c2126" stroke-width="0"/><path d="M452.61,226.17c-2.89,0-5.36-.48-7.38-1.43-2.03-.96-3.58-2.44-4.66-4.45-1.07-2.01-1.61-4.53-1.61-7.56v-14.7h-5.46c-.51,0-.93-.16-1.26-.49-.33-.33-.49-.72-.49-1.19v-4.83c0-.51.16-.93.49-1.26s.75-.49,1.26-.49h5.46v-11.55c0-.51.17-.93.53-1.26.35-.33.76-.49,1.22-.49h6.93c.47,0,.86.16,1.19.49.33.33.49.75.49,1.26v11.55h8.75c.51,0,.93.16,1.26.49.33.33.49.75.49,1.26v4.83c0,.47-.16.86-.49,1.19s-.75.49-1.26.49h-8.75v13.86c0,1.77.33,3.16.98,4.17.65,1,1.75,1.5,3.29,1.5h5.11c.51,0,.93.16,1.26.49.33.33.49.72.49,1.19v5.18c0,.51-.16.93-.49,1.26s-.75.49-1.26.49h-6.09Z" fill="#1c2126" stroke-width="0"/><path d="M468.22,226.17c-.51,0-.93-.16-1.26-.49-.33-.33-.49-.75-.49-1.26v-46.2c0-.51.16-.93.49-1.26.33-.33.75-.49,1.26-.49h7.56c.51,0,.93.16,1.26.49.33.33.49.75.49,1.26v15.75c1.21-1.49,2.74-2.68,4.58-3.57s4.05-1.33,6.62-1.33c2.75,0,5.19.62,7.32,1.85,2.12,1.24,3.78,3.03,4.97,5.39,1.19,2.36,1.79,5.22,1.79,8.58v19.53c0,.51-.16.93-.49,1.26s-.75.49-1.26.49h-7.63c-.47,0-.86-.16-1.19-.49-.33-.33-.49-.75-.49-1.26v-19.11c0-2.47-.61-4.4-1.82-5.77-1.21-1.38-2.94-2.07-5.18-2.07s-3.94.69-5.25,2.07c-1.31,1.38-1.96,3.3-1.96,5.77v19.11c0,.51-.16.93-.49,1.26-.33.33-.75.49-1.26.49h-7.56Z" fill="#1c2126" stroke-width="0"/><path d="M527.86,226.87c-3.87,0-7.12-.64-9.73-1.92-2.61-1.28-4.61-3.12-5.98-5.5-1.38-2.38-2.14-5.16-2.28-8.33-.05-.93-.07-2-.07-3.19s.02-2.23.07-3.11c.14-3.22.93-6.01,2.38-8.37,1.45-2.36,3.48-4.18,6.09-5.46,2.61-1.28,5.79-1.92,9.52-1.92s6.84.64,9.45,1.92c2.61,1.28,4.64,3.1,6.09,5.46,1.45,2.36,2.26,5.14,2.45,8.37.05.89.07,1.92.07,3.11s-.02,2.25-.07,3.19c-.19,3.17-.97,5.95-2.34,8.33-1.38,2.38-3.37,4.21-5.98,5.5-2.61,1.28-5.83,1.92-9.66,1.92ZM527.86,219.1c2.29,0,4-.7,5.14-2.1s1.79-3.48,1.92-6.23c.05-.7.07-1.63.07-2.8s-.02-2.1-.07-2.8c-.14-2.71-.78-4.77-1.92-6.2-1.14-1.42-2.86-2.13-5.14-2.13s-4.01.71-5.18,2.13c-1.17,1.42-1.82,3.49-1.96,6.2-.05.7-.07,1.63-.07,2.8s.02,2.1.07,2.8c.14,2.75.79,4.83,1.96,6.23,1.17,1.4,2.89,2.1,5.18,2.1Z" fill="#1c2126" stroke-width="0"/><path d="M566.64,226.87c-2.71,0-5.1-.62-7.17-1.86-2.08-1.24-3.7-3.03-4.87-5.39-1.17-2.36-1.75-5.21-1.75-8.58v-19.53c0-.51.17-.93.52-1.26.35-.33.76-.49,1.23-.49h7.49c.47,0,.86.16,1.19.49.33.33.49.75.49,1.26v19.11c0,5.23,2.29,7.84,6.86,7.84,2.19,0,3.93-.69,5.22-2.06,1.28-1.38,1.92-3.3,1.92-5.78v-19.11c0-.51.16-.93.49-1.26.33-.33.75-.49,1.26-.49h7.42c.47,0,.86.16,1.19.49.33.33.49.75.49,1.26v32.9c0,.51-.16.93-.49,1.26-.33.33-.72.49-1.19.49h-6.93c-.47,0-.86-.16-1.19-.49-.33-.33-.49-.75-.49-1.26v-2.73c-1.21,1.68-2.78,2.96-4.69,3.85-1.91.89-4.25,1.33-7,1.33Z" fill="#1c2126" stroke-width="0"/><path d="M614.94,226.17c-2.89,0-5.36-.48-7.38-1.43-2.03-.96-3.58-2.44-4.66-4.45-1.07-2.01-1.61-4.53-1.61-7.56v-14.7h-5.46c-.51,0-.93-.16-1.26-.49-.33-.33-.49-.72-.49-1.19v-4.83c0-.51.16-.93.49-1.26s.75-.49,1.26-.49h5.46v-11.55c0-.51.17-.93.53-1.26.35-.33.76-.49,1.22-.49h6.93c.47,0,.86.16,1.19.49.33.33.49.75.49,1.26v11.55h8.75c.51,0,.93.16,1.26.49.33.33.49.75.49,1.26v4.83c0,.47-.16.86-.49,1.19s-.75.49-1.26.49h-8.75v13.86c0,1.77.33,3.16.98,4.17.65,1,1.75,1.5,3.29,1.5h5.11c.51,0,.93.16,1.26.49.33.33.49.72.49,1.19v5.18c0,.51-.16.93-.49,1.26s-.75.49-1.26.49h-6.09Z" fill="#1c2126" stroke-width="0"/><rect x="751.33" y="67.51" width="380.06" height="100.97" rx="9.52" ry="9.52" fill="#1c2126" opacity=".15" stroke-width="0"/><path d="M805.42,127.92v-36.02h9.41v36.56c0,13.16-7.62,20.94-20.51,20.94s-20.51-7.77-20.51-20.94v-36.56h9.41v36.02c0,8.28,4.02,12.97,11.09,12.97s11.09-4.69,11.09-12.97Z" stroke-width="0"/><path d="M848,144.21h-8.48v-16.88h-16.84v-8.2h16.84v-16.91h8.48v16.91h16.84v8.2h-16.84v16.88Z" stroke-width="0"/><path d="M914.87,140.34v7.93h-40v-7.93h15.74v-38.75h-.66l-15.16,9.96v-9.18l15.86-10.47h9.22v48.44h15Z" stroke-width="0"/><path d="M926.98,148.27v-56.37h34.65v8.24h-25.2v16.95h22.97v7.89h-22.97v23.28h-9.45Z" stroke-width="0"/><path d="M992.53,149.41c-12.11,0-20.55-8.24-20.55-20.12,0-6.72,2.3-12.89,7.85-20.82,1.29-1.95,11.09-15.23,12.15-16.56h10.74l-14.65,19.77c-1.72,2.34-1.91,2.7-2.3,3.52l.7.16c1.91-2.19,5.62-3.63,9.18-3.63,9.96,0,17.34,7.66,17.34,18.01,0,11.33-8.71,19.69-20.47,19.69ZM1003.7,130.11c0-6.45-4.84-11.29-11.25-11.29s-11.25,4.84-11.25,11.29,4.84,11.29,11.25,11.29,11.25-4.84,11.25-11.29Z" stroke-width="0"/><path d="M1061.94,120.07c0,18.87-7.3,29.41-20.31,29.41s-20.35-10.55-20.35-29.41,7.3-29.38,20.35-29.38,20.31,10.55,20.31,29.38ZM1051.4,108.19c-1.68-6.29-5-9.61-9.77-9.61-7.23,0-11.09,7.5-11.09,21.48,0,1.17.04,2.3.08,3.36l20.78-15.23ZM1031.87,132.06c1.68,6.25,5,9.53,9.77,9.53,7.19,0,11.05-7.5,11.05-21.52,0-1.17-.04-2.27-.08-3.32l-20.74,15.31Z" stroke-width="0"/><path d="M1088.82,91.91c15.86,0,24.02,9.49,24.02,27.89s-8.09,28.48-24.02,28.48h-17.19v-56.37h17.19ZM1081.08,140.03h6.56c10.62,0,15.55-6.29,15.55-20.08s-5-19.8-15.55-19.8h-6.56v39.88Z" stroke-width="0"/><rect x="751.33" y="198.87" width="380.06" height="100.97" rx="9.52" ry="9.52" fill="#1c2126" opacity=".15" stroke-width="0"/><path d="M805.42,259.29v-36.02h9.41v36.56c0,13.16-7.62,20.94-20.51,20.94s-20.51-7.77-20.51-20.94v-36.56h9.41v36.02c0,8.28,4.02,12.97,11.09,12.97s11.09-4.69,11.09-12.97Z" stroke-width="0"/><path d="M848,275.58h-8.48v-16.88h-16.84v-8.2h16.84v-16.91h8.48v16.91h16.84v8.2h-16.84v16.88Z" stroke-width="0"/><path d="M914.87,271.71v7.93h-40v-7.93h15.74v-38.75h-.66l-15.16,9.96v-9.18l15.86-10.47h9.22v48.44h15Z" stroke-width="0"/><path d="M926.98,279.64v-56.37h34.65v8.24h-25.2v16.95h22.97v7.89h-22.97v23.28h-9.45Z" stroke-width="0"/><path d="M992.53,280.77c-12.11,0-20.55-8.24-20.55-20.12,0-6.72,2.3-12.89,7.85-20.82,1.29-1.95,11.09-15.23,12.15-16.56h10.74l-14.65,19.77c-1.72,2.34-1.91,2.7-2.3,3.52l.7.16c1.91-2.19,5.62-3.63,9.18-3.63,9.96,0,17.34,7.66,17.34,18.01,0,11.33-8.71,19.69-20.47,19.69ZM1003.7,261.48c0-6.45-4.84-11.29-11.25-11.29s-11.25,4.84-11.25,11.29,4.84,11.29,11.25,11.29,11.25-4.84,11.25-11.29Z" stroke-width="0"/><path d="M1061.94,251.44c0,18.87-7.3,29.41-20.31,29.41s-20.35-10.55-20.35-29.41,7.3-29.38,20.35-29.38,20.31,10.55,20.31,29.38ZM1051.4,239.56c-1.68-6.29-5-9.61-9.77-9.61-7.23,0-11.09,7.5-11.09,21.48,0,1.17.04,2.3.08,3.36l20.78-15.23ZM1031.87,263.43c1.68,6.25,5,9.53,9.77,9.53,7.19,0,11.05-7.5,11.05-21.52,0-1.17-.04-2.27-.08-3.32l-20.74,15.31Z" stroke-width="0"/><path d="M1088.82,223.27c15.86,0,24.02,9.49,24.02,27.89s-8.09,28.48-24.02,28.48h-17.19v-56.37h17.19ZM1081.08,271.4h6.56c10.62,0,15.55-6.29,15.55-20.08s-5-19.8-15.55-19.8h-6.56v39.88Z" stroke-width="0"/><rect x="751.33" y="330.24" width="380.06" height="100.97" rx="9.52" ry="9.52" fill="#1c2126" opacity=".15" stroke-width="0"/><path d="M805.42,390.65v-36.02h9.41v36.56c0,13.16-7.62,20.94-20.51,20.94s-20.51-7.77-20.51-20.94v-36.56h9.41v36.02c0,8.28,4.02,12.97,11.09,12.97s11.09-4.69,11.09-12.97Z" stroke-width="0"/><path d="M848,406.94h-8.48v-16.88h-16.84v-8.2h16.84v-16.91h8.48v16.91h16.84v8.2h-16.84v16.88Z" stroke-width="0"/><path d="M914.87,403.08v7.93h-40v-7.93h15.74v-38.75h-.66l-15.16,9.96v-9.18l15.86-10.47h9.22v48.44h15Z" stroke-width="0"/><path d="M926.98,411.01v-56.37h34.65v8.24h-25.2v16.95h22.97v7.89h-22.97v23.28h-9.45Z" stroke-width="0"/><path d="M992.53,412.14c-12.11,0-20.55-8.24-20.55-20.12,0-6.72,2.3-12.89,7.85-20.82,1.29-1.95,11.09-15.23,12.15-16.56h10.74l-14.65,19.77c-1.72,2.34-1.91,2.7-2.3,3.52l.7.16c1.91-2.19,5.62-3.63,9.18-3.63,9.96,0,17.34,7.66,17.34,18.01,0,11.33-8.71,19.69-20.47,19.69ZM1003.7,392.84c0-6.45-4.84-11.29-11.25-11.29s-11.25,4.84-11.25,11.29,4.84,11.29,11.25,11.29,11.25-4.84,11.25-11.29Z" stroke-width="0"/><path d="M1061.94,382.8c0,18.87-7.3,29.41-20.31,29.41s-20.35-10.55-20.35-29.41,7.3-29.38,20.35-29.38,20.31,10.55,20.31,29.38ZM1051.4,370.93c-1.68-6.29-5-9.61-9.77-9.61-7.23,0-11.09,7.5-11.09,21.48,0,1.17.04,2.3.08,3.36l20.78-15.23ZM1031.87,394.79c1.68,6.25,5,9.53,9.77,9.53,7.19,0,11.05-7.5,11.05-21.52,0-1.17-.04-2.27-.08-3.32l-20.74,15.31Z" stroke-width="0"/><path d="M1088.82,354.64c15.86,0,24.02,9.49,24.02,27.89s-8.09,28.48-24.02,28.48h-17.19v-56.37h17.19ZM1081.08,402.76h6.56c10.62,0,15.55-6.29,15.55-20.08s-5-19.8-15.55-19.8h-6.56v39.88Z" stroke-width="0"/><path d="M271.7,49.18c-.71-1.08-1.8-1.85-2.91-2.52-1.94-1.17-4.19-2.14-6.42-1.74-2.34.42-4.16,2.28-5.45,4.28-1.15,1.79-1.98,3.77-2.49,5.84-1.75-2.4-4.04-4.49-6.81-5.57-2.81-1.09-6.14-1.02-8.69.59-2.54,1.62-4.05,4.9-3.19,7.79.82,2.77,3.42,4.56,5.85,6.11,6.08,3.88,12.21,7.67,18.41,11.35,3.23-5.15,6.46-10.31,9.7-15.46,2.04-3.25,4.1-7.47,1.99-10.68Z" fill="#ff6b60" stroke="#1c2126" stroke-linejoin="round" stroke-width="2"/><path d="M686.44,271.11c.11-1.29-.28-2.57-.74-3.77-.81-2.12-1.98-4.27-3.98-5.33-2.1-1.11-4.68-.78-6.93,0-2.01.7-3.89,1.75-5.56,3.06.1-2.97-.41-6.03-1.93-8.58-1.54-2.59-4.21-4.6-7.2-4.89-3-.3-6.21,1.36-7.31,4.17-1.06,2.69-.12,5.7.84,8.42,2.39,6.8,4.88,13.57,7.49,20.29,5.72-2.06,11.45-4.13,17.17-6.19,3.61-1.3,7.83-3.35,8.16-7.18Z" fill="#ff6b60" stroke="#1c2126" stroke-linejoin="round" stroke-width="2"/><path d="M360.89,306.05c-7.62,0-14.65,1.63-21.09,4.88-5.28,2.67-9.79,6.46-13.53,11.32l.34-13.71h-41.55c-.28,4.99-.7,10.01-1.25,15.06-.56,5.06-1.18,10.08-1.87,15.06l-12.05,75.84h43.22l9.35-59.01c.83-4.99,2.77-9,5.82-12.05,3.05-3.05,6.92-4.57,11.64-4.57,3.19,0,5.68,1.14,7.48,3.43,1.8,2.28,2.29,6.06,1.45,11.32l-9.56,60.88h43.22l9.56-60.46c2.63-16.48,1.18-28.6-4.36-36.36-5.54-7.76-14.48-11.64-26.8-11.64Z" fill="url(#f)" stroke="#1c2126" stroke-linejoin="round" stroke-width="2"/><path d="M154.61,351.34c-1.39,9.28-4.12,16.34-8.21,21.19-4.09,4.85-10.08,7.27-17.97,7.27-8.73,0-14.58-2.39-17.56-7.17-2.98-4.78-3.78-11.6-2.39-20.47l13.3-84.15h-44.88l-12.88,81.03c-2.49,15.66-1.56,28.5,2.8,38.54,4.36,10.04,11.46,17.45,21.3,22.23,9.83,4.78,21.68,7.17,35.53,7.17,15.65,0,28.6-2.42,38.85-7.27,10.25-4.85,18.25-12.05,24-21.61,5.75-9.56,9.73-21.33,11.95-35.32l13.51-84.77h-44.05l-13.3,83.32Z" fill="url(#g)" stroke="#1c2126" stroke-linejoin="round" stroke-width="2"/><path d="M255.68,304.23c.41-.91.88-1.74,1.41-2.5,1.33-1.91,3.36-3.98,6.09-6.22l-6-6.45c-2.91,2.24-5.24,4.42-7,6.54-1.76,2.12-3.09,4.33-4,6.63-.91,2.3-1.61,4.88-2.09,7.72l-2.09,13.08h19.17l3-18.81h-8.5Z" fill="url(#h)" stroke="#1c2126" stroke-linejoin="round" stroke-width="2"/><path d="M402,309.2h8.49c-.41.89-.88,1.71-1.41,2.45-1.33,1.88-3.36,3.97-6.09,6.27l6,6.45c2.97-2.24,5.32-4.42,7.04-6.54,1.73-2.12,3.06-4.35,4-6.68.94-2.33,1.62-4.89,2.04-7.68l2.09-13.08h-19.17l-3,18.81Z" fill="url(#i)" stroke="#1c2126" stroke-linejoin="round" stroke-width="2"/><polygon points="597.43 304.17 603.25 268.02 473.6 268.02 467.78 304.17 510.17 304.17 498.44 378.35 456.1 378.35 450.28 414.5 492.72 414.5 537.6 414.5 579.93 414.5 585.75 378.35 543.31 378.35 555.05 304.17 597.43 304.17" fill="url(#j)" stroke="#1c2126" stroke-linejoin="round" stroke-width="2"/><line x1="385.99" y1="315.54" x2="396.62" y2="329.74" fill="#1c2126" stroke="#1c2126" stroke-linejoin="round" stroke-width="2"/><line x1="75.42" y1="400.6" x2="82.75" y2="410.39" fill="#1c2126" stroke="#1c2126" stroke-linejoin="round" stroke-width="2"/><polyline points="89.63 274.85 82.99 274.85 75.82 319.85" fill="none" stroke="#ffd3bf" stroke-linecap="round" stroke-linejoin="round" stroke-width="2"/><polyline points="299.73 315 293.09 315 285.92 360" fill="none" stroke="#fff" stroke-linecap="round" stroke-linejoin="round" stroke-width="2"/><polyline points="379.24 387.97 376.17 407.19 367.62 407.19" fill="none" stroke="#fff" stroke-linecap="round" stroke-linejoin="round" stroke-width="2"/><polyline points="576.57 387.97 573.51 407.19 564.96 407.19" fill="none" stroke="#ffd3bf" stroke-linecap="round" stroke-linejoin="round" stroke-width="2"/><polyline points="485.84 274.47 479.21 274.47 475.62 296.97" fill="none" stroke="#ffd3bf" stroke-linecap="round" stroke-linejoin="round" stroke-width="2"/><rect x="0" y="595" width="1200" height="35" fill="#fff" stroke-width="0"/><rect x="0" y="499.19" width="1200" height="95.81" fill="#fff" stroke-width="0"/><line x1="0" y1="499.19" x2="1200" y2="499.19" fill="none" stroke="#1c2126" stroke-miterlimit="10"/><line x1="0" y1="595" x2="1200" y2="595" fill="none" stroke="#1c2126" stroke-miterlimit="10"/><path d="M24.24,559.45v-18.76h-6.39v-2.37h15.35v2.37h-6.39v18.76h-2.58Z" fill="#1c2126" stroke-width="0"/><path d="M44.08,559.89c-4.8,0-7.75-3.46-7.75-9.3v-3.41c0-5.84,2.94-9.3,7.75-9.3s7.75,3.46,7.75,9.3v3.41c0,5.84-2.94,9.3-7.75,9.3ZM49.22,550.58v-3.38c0-4.41-1.93-6.87-5.14-6.87s-5.14,2.46-5.14,6.87v3.38c0,4.41,1.93,6.87,5.14,6.87s5.14-2.46,5.14-6.87Z" fill="#1c2126" stroke-width="0"/><path d="M59.97,545.58c0-1.48,1.2-2.71,2.65-2.71s2.65,1.23,2.65,2.71-1.2,2.71-2.65,2.71-2.65-1.23-2.65-2.71ZM59.97,556.83c0-1.48,1.2-2.7,2.65-2.7s2.65,1.21,2.65,2.7-1.2,2.71-2.65,2.71-2.65-1.21-2.65-2.71Z" fill="#1c2126" stroke-width="0"/><line x1="582.03" y1="498.72" x2="582.03" y2="595" fill="none" stroke="#1c2126" stroke-miterlimit="10"/><path d="M605.51,559.45v-21.14h12.47v2.37h-9.87v7.25h9.02v2.3h-9.02v9.21h-2.59Z" fill="#1c2126" stroke-width="0"/><path d="M625.54,551.03v8.42h-2.55v-21.14h7.09c4.19,0,6.81,2.43,6.81,6.36,0,2.77-1.54,5.04-3.94,5.83l4.31,8.95h-2.92l-3.94-8.42h-4.86ZM625.54,548.85h4.19c2.92,0,4.56-1.48,4.56-4.12s-1.61-4.12-4.44-4.12h-4.31v8.23Z" fill="#1c2126" stroke-width="0"/><path d="M648.15,559.89c-4.8,0-7.75-3.46-7.75-9.3v-3.41c0-5.84,2.94-9.3,7.75-9.3s7.75,3.46,7.75,9.3v3.41c0,5.84-2.94,9.3-7.75,9.3ZM653.29,550.58v-3.38c0-4.41-1.93-6.87-5.14-6.87s-5.14,2.46-5.14,6.87v3.38c0,4.41,1.93,6.87,5.14,6.87s5.14-2.46,5.14-6.87Z" fill="#1c2126" stroke-width="0"/><path d="M661.18,559.45h-2.31v-21.14h2.86l4.88,13.08h.19l4.86-13.08h2.86v21.14h-2.31v-8.1l.15-8.57h-.19l-4.45,11.71h-2.02l-4.45-11.71h-.19l.15,8.57v8.1Z" fill="#1c2126" stroke-width="0"/><path d="M682.59,545.58c0-1.48,1.2-2.71,2.65-2.71s2.65,1.23,2.65,2.71-1.2,2.71-2.65,2.71-2.65-1.23-2.65-2.71ZM682.59,556.83c0-1.48,1.2-2.7,2.65-2.7s2.65,1.21,2.65,2.7-1.2,2.71-2.65,2.71-2.65-1.21-2.65-2.71Z" fill="#1c2126" stroke-width="0"/><path d="M12.77,618.4c-.12,0-.21-.04-.26-.11s-.08-.17-.06-.27l2.22-10.42c.02-.12.07-.21.16-.29.08-.07.19-.11.3-.11h6.95c.12,0,.2.04.26.11.05.07.07.17.05.29l-.24,1.12c-.02.12-.08.21-.16.28-.08.07-.19.11-.3.11h-5.14l-.66,3.04h4.82c.12,0,.2.04.26.11.05.07.07.17.05.29l-.22,1.12c-.02.11-.08.2-.17.27-.09.07-.19.11-.31.11h-4.82l-.85,3.97c-.02.11-.08.2-.16.27s-.19.11-.3.11h-1.41Z" fill="#1c2126" stroke-width="0"/><path d="M25.41,618.56c-.81,0-1.49-.15-2.02-.45s-.92-.72-1.15-1.26c-.23-.54-.29-1.18-.17-1.9.03-.19.08-.43.13-.71s.12-.51.17-.7c.19-.74.49-1.37.89-1.91s.91-.96,1.54-1.26c.62-.3,1.36-.45,2.22-.45s1.49.15,2.02.45c.54.3.93.72,1.16,1.26s.29,1.18.18,1.91c-.04.19-.09.43-.14.7s-.11.51-.16.71c-.19.72-.48,1.36-.87,1.9-.39.54-.9.96-1.52,1.26s-1.38.45-2.26.45ZM25.57,616.98c.58,0,1.06-.18,1.46-.54.4-.36.69-.88.87-1.58.04-.16.09-.37.14-.62s.1-.46.13-.62c.12-.69.07-1.22-.14-1.58-.21-.36-.61-.54-1.18-.54s-1.05.18-1.46.54-.69.88-.86,1.58c-.04.16-.09.37-.15.62s-.1.46-.12.62c-.12.69-.07,1.22.14,1.58s.6.54,1.18.54Z" fill="#1c2126" stroke-width="0"/><path d="M31.53,618.4c-.11,0-.19-.04-.25-.11s-.08-.17-.06-.27l1.6-7.54c.02-.12.08-.21.17-.29s.19-.11.3-.11h1.3c.11,0,.19.04.25.11s.08.17.06.29l-.14.66c.26-.34.58-.6.98-.78s.88-.27,1.44-.27h.78c.12,0,.2.04.26.11.05.07.07.16.05.27l-.24,1.15c-.02.11-.08.2-.17.27s-.19.11-.3.11h-1.25c-.51,0-.94.14-1.29.43-.35.28-.57.68-.68,1.19l-.94,4.4c-.02.11-.07.2-.16.27-.08.07-.19.11-.3.11h-1.39Z" fill="#1c2126" stroke-width="0"/><path d="M44.76,618.4c-.73,0-1.29-.11-1.7-.34-.4-.22-.67-.56-.78-1-.12-.44-.11-.99.03-1.66l.79-3.63h-1.26c-.11,0-.19-.04-.25-.11-.06-.07-.08-.17-.06-.29l.19-.91c.02-.11.08-.2.17-.27.09-.07.2-.11.31-.11h1.25l.58-2.65c.02-.11.07-.2.16-.27.08-.07.18-.11.29-.11h1.3c.12,0,.21.04.26.11.06.08.08.17.06.27l-.58,2.65h2c.11,0,.19.04.25.11s.08.16.06.27l-.19.91c-.02.12-.08.21-.17.29-.09.08-.19.11-.3.11h-2l-.74,3.47c-.06.29-.1.54-.1.74,0,.21.05.37.17.48s.33.17.62.17h1.15c.12,0,.2.04.26.11.05.08.07.17.05.27l-.21.99c-.02.11-.08.2-.16.27-.09.07-.19.11-.3.11h-1.14Z" fill="#1c2126" stroke-width="0"/><path d="M48.07,618.4c-.11,0-.19-.04-.25-.11s-.08-.17-.06-.27l2.26-10.59c.02-.11.08-.2.16-.27.08-.07.18-.11.29-.11h1.44c.11,0,.19.04.25.11.06.08.08.17.06.27l-.78,3.65c.34-.34.72-.62,1.14-.83.42-.21.93-.32,1.53-.32.69,0,1.26.15,1.7.44.44.29.75.71.92,1.24.17.53.18,1.17.02,1.92l-.96,4.5c-.02.11-.08.2-.16.27-.09.07-.19.11-.3.11h-1.44c-.11,0-.19-.04-.25-.11s-.08-.17-.06-.27l.93-4.4c.14-.62.11-1.1-.08-1.46-.19-.35-.58-.53-1.17-.53-.36,0-.71.08-1.03.23-.33.15-.61.38-.84.68s-.4.66-.5,1.07l-.93,4.4c-.02.11-.08.2-.16.27-.09.07-.18.11-.29.11h-1.44Z" fill="#1c2126" stroke-width="0"/><path d="M61.51,618.56c-.78,0-1.43-.15-1.95-.46-.52-.31-.87-.76-1.07-1.35-.2-.59-.23-1.29-.09-2.13.02-.11.05-.24.08-.41.03-.17.06-.3.1-.39.21-.81.54-1.51.99-2.09.45-.58.99-1.03,1.64-1.34s1.36-.47,2.14-.47c.86,0,1.55.18,2.06.54s.84.85,1.01,1.49.16,1.37,0,2.2l-.08.34c-.02.11-.08.2-.17.27-.09.08-.19.11-.31.11h-5.31c-.01.06-.02.11-.03.13-.05.38-.05.72.02,1.03.06.31.21.57.42.76s.51.29.87.29c.3,0,.56-.04.79-.13.22-.09.41-.2.55-.31.14-.12.25-.21.33-.29.13-.13.22-.21.29-.23.06-.03.15-.04.27-.04h1.39c.1,0,.17.03.22.1.05.06.07.14.05.24-.05.17-.19.38-.4.62-.21.24-.5.48-.86.72-.36.24-.79.43-1.29.58s-1.04.23-1.64.23ZM60.82,613.53h3.54l.02-.05c.1-.42.1-.78.02-1.1s-.23-.56-.46-.74c-.22-.18-.52-.26-.9-.26s-.71.09-1.02.26c-.3.18-.56.42-.76.74-.2.31-.35.68-.43,1.1l-.02.05Z" fill="#1c2126" stroke-width="0"/><path d="M71.06,618.4c-.11,0-.19-.04-.25-.11s-.08-.17-.06-.27l2.26-10.59c.02-.11.08-.2.16-.27.08-.07.18-.11.29-.11h1.33c.12,0,.21.04.26.11.06.08.08.17.06.27l-2.26,10.59c-.02.11-.08.2-.16.27-.09.07-.19.11-.3.11h-1.33Z" fill="#1c2126" stroke-width="0"/><path d="M78.64,618.56c-.81,0-1.49-.15-2.02-.45-.54-.3-.92-.72-1.15-1.26-.23-.54-.29-1.18-.17-1.9.03-.19.08-.43.14-.71s.11-.51.17-.7c.19-.74.49-1.37.89-1.91.4-.54.91-.96,1.54-1.26s1.36-.45,2.22-.45,1.49.15,2.02.45.92.72,1.16,1.26c.23.54.29,1.18.18,1.91-.04.19-.09.43-.14.7-.05.28-.11.51-.16.71-.19.72-.48,1.36-.87,1.9-.39.54-.9.96-1.52,1.26-.62.3-1.38.45-2.26.45ZM78.8,616.98c.58,0,1.06-.18,1.46-.54s.69-.88.87-1.58c.04-.16.09-.37.14-.62.05-.26.1-.46.13-.62.12-.69.07-1.22-.14-1.58s-.61-.54-1.18-.54-1.05.18-1.46.54c-.41.36-.69.88-.86,1.58-.04.16-.09.37-.15.62s-.1.46-.12.62c-.12.69-.07,1.22.14,1.58.21.36.6.54,1.18.54Z" fill="#1c2126" stroke-width="0"/><path d="M86.92,618.4c-.16,0-.27-.04-.34-.12-.06-.08-.11-.17-.13-.28l-1.42-7.49c-.02-.14,0-.25.08-.32s.18-.11.3-.11h1.22c.12,0,.21.03.27.1.06.06.11.15.13.27l.91,5.55,3.33-5.62c.03-.06.09-.13.17-.2.08-.07.18-.11.31-.11h1.39c.13,0,.22.05.26.14.05.1.03.21-.06.35l-4.56,7.42c-.08.11-.16.2-.25.28-.09.08-.22.12-.38.12h-1.25Z" fill="#1c2126" stroke-width="0"/><path d="M96.66,618.56c-.78,0-1.43-.15-1.94-.46-.52-.31-.88-.76-1.07-1.35-.2-.59-.23-1.29-.09-2.13.02-.11.05-.24.08-.41.03-.17.06-.3.1-.39.21-.81.54-1.51.99-2.09.45-.58.99-1.03,1.64-1.34s1.36-.47,2.14-.47c.86,0,1.55.18,2.06.54.51.36.84.85,1.01,1.49.17.63.16,1.37,0,2.2l-.08.34c-.02.11-.08.2-.17.27-.09.08-.2.11-.31.11h-5.31c-.01.06-.02.11-.03.13-.05.38-.05.72.02,1.03.06.31.21.57.42.76s.51.29.87.29c.3,0,.56-.04.78-.13.22-.09.41-.2.55-.31.14-.12.25-.21.33-.29.13-.13.22-.21.29-.23.06-.03.15-.04.27-.04h1.39c.1,0,.17.03.22.1.05.06.07.14.05.24-.05.17-.19.38-.4.62-.21.24-.5.48-.87.72-.36.24-.79.43-1.29.58s-1.04.23-1.64.23ZM95.97,613.53h3.54l.02-.05c.1-.42.1-.78.02-1.1s-.23-.56-.46-.74c-.22-.18-.52-.26-.9-.26s-.71.09-1.02.26-.56.42-.76.74c-.2.31-.35.68-.43,1.1l-.02.05Z" fill="#1c2126" stroke-width="0"/><path d="M109.56,618.56c-.81,0-1.49-.15-2.02-.45s-.92-.72-1.15-1.26c-.23-.54-.29-1.18-.17-1.9.03-.19.08-.43.13-.71s.12-.51.17-.7c.19-.74.49-1.37.89-1.91s.91-.96,1.54-1.26c.62-.3,1.36-.45,2.22-.45s1.49.15,2.02.45c.54.3.93.72,1.16,1.26s.29,1.18.18,1.91c-.04.19-.09.43-.14.7s-.11.51-.16.71c-.19.72-.48,1.36-.87,1.9-.39.54-.9.96-1.52,1.26s-1.38.45-2.26.45ZM109.72,616.98c.58,0,1.06-.18,1.46-.54.4-.36.69-.88.87-1.58.04-.16.09-.37.14-.62s.1-.46.13-.62c.12-.69.07-1.22-.14-1.58-.21-.36-.61-.54-1.18-.54s-1.05.18-1.46.54-.69.88-.86,1.58c-.04.16-.09.37-.15.62s-.1.46-.12.62c-.12.69-.07,1.22.14,1.58s.6.54,1.18.54Z" fill="#1c2126" stroke-width="0"/><path d="M116.42,618.4c-.12,0-.21-.04-.26-.11s-.08-.17-.06-.27l1.33-6.24h-1.29c-.11,0-.19-.04-.25-.11-.06-.07-.08-.17-.06-.29l.19-.91c.02-.11.08-.2.17-.27s.19-.11.31-.11h1.3l.13-.65c.15-.64.38-1.17.69-1.59.31-.42.7-.74,1.18-.95.48-.21,1.04-.32,1.68-.32h1.28c.12,0,.2.04.26.11.05.07.07.16.05.27l-.19.91c-.02.12-.08.21-.17.29s-.19.11-.3.11h-.96c-.43,0-.76.11-.99.32-.23.21-.39.52-.46.93l-.13.58h1.98c.12,0,.2.04.26.11.05.07.07.16.05.27l-.19.91c-.02.12-.08.21-.16.29-.09.08-.19.11-.3.11h-1.98l-1.34,6.24c-.02.11-.07.2-.16.27-.08.07-.18.11-.29.11h-1.3Z" fill="#1c2126" stroke-width="0"/><path d="M128.85,618.56c-.81,0-1.48-.15-2.02-.45s-.92-.72-1.15-1.26c-.23-.54-.29-1.18-.17-1.9.03-.19.08-.43.14-.71s.11-.51.17-.7c.19-.74.49-1.37.89-1.91s.91-.96,1.54-1.26c.62-.3,1.36-.45,2.22-.45s1.49.15,2.02.45c.54.3.92.72,1.16,1.26.23.54.29,1.18.18,1.91-.04.19-.09.43-.14.7s-.11.51-.16.71c-.19.72-.48,1.36-.87,1.9-.39.54-.9.96-1.52,1.26s-1.38.45-2.26.45ZM129.01,616.98c.58,0,1.06-.18,1.46-.54.4-.36.69-.88.87-1.58.04-.16.09-.37.14-.62.05-.26.1-.46.13-.62.12-.69.07-1.22-.14-1.58-.21-.36-.61-.54-1.18-.54s-1.05.18-1.46.54-.69.88-.86,1.58c-.04.16-.09.37-.15.62s-.1.46-.12.62c-.12.69-.07,1.22.14,1.58s.6.54,1.18.54Z" fill="#1c2126" stroke-width="0"/><path d="M134.32,621.45c-.11,0-.19-.04-.25-.11-.06-.07-.08-.16-.06-.27l2.26-10.59c.02-.11.08-.2.16-.27.09-.07.18-.11.29-.11h1.28c.11,0,.19.04.25.11s.08.16.06.27l-.14.64c.33-.34.7-.62,1.1-.85.4-.22.93-.34,1.58-.34.55,0,1.03.09,1.42.28.39.19.7.45.92.79.22.34.37.74.44,1.21.07.46.06.97-.04,1.53-.02.18-.05.35-.09.51s-.08.34-.14.53c-.13.52-.31,1.02-.54,1.48-.24.46-.52.87-.86,1.22-.34.35-.73.62-1.18.81-.45.19-.96.29-1.53.29-.6,0-1.09-.1-1.47-.31-.38-.21-.66-.48-.83-.82l-.78,3.63c-.02.11-.08.2-.16.27-.09.08-.19.11-.3.11h-1.36ZM138.88,616.85c.43,0,.79-.1,1.09-.3.3-.2.55-.46.74-.78.2-.33.35-.68.47-1.05.05-.16.1-.32.13-.48.03-.16.06-.32.08-.48.05-.38.06-.74.02-1.06s-.16-.58-.36-.78c-.2-.2-.51-.3-.94-.3-.45,0-.83.1-1.16.3-.33.2-.59.46-.8.78s-.36.64-.44.97c-.05.19-.1.39-.14.61s-.08.42-.11.62c-.05.32-.05.63,0,.92.06.29.2.54.43.73.23.19.56.29.98.29Z" fill="#1c2126" stroke-width="0"/><path d="M148.13,618.56c-.78,0-1.43-.15-1.95-.46-.52-.31-.87-.76-1.07-1.35-.2-.59-.23-1.29-.09-2.13.02-.11.05-.24.08-.41.03-.17.06-.3.1-.39.21-.81.54-1.51.99-2.09.45-.58.99-1.03,1.64-1.34s1.36-.47,2.14-.47c.86,0,1.55.18,2.06.54s.84.85,1.01,1.49.16,1.37,0,2.2l-.08.34c-.02.11-.08.2-.17.27-.09.08-.19.11-.31.11h-5.31c-.01.06-.02.11-.03.13-.05.38-.05.72.02,1.03.06.31.21.57.42.76s.51.29.87.29c.3,0,.56-.04.79-.13.22-.09.41-.2.55-.31.14-.12.25-.21.33-.29.13-.13.22-.21.29-.23.06-.03.15-.04.27-.04h1.39c.1,0,.17.03.22.1.05.06.07.14.05.24-.05.17-.19.38-.4.62-.21.24-.5.48-.86.72-.36.24-.79.43-1.29.58s-1.04.23-1.64.23ZM147.44,613.53h3.54l.02-.05c.1-.42.1-.78.02-1.1s-.23-.56-.46-.74c-.22-.18-.52-.26-.9-.26s-.71.09-1.02.26c-.3.18-.56.42-.76.74-.2.31-.35.68-.43,1.1l-.02.05Z" fill="#1c2126" stroke-width="0"/><path d="M153.96,618.4c-.11,0-.19-.04-.25-.11-.06-.07-.08-.17-.06-.27l1.6-7.55c.02-.11.08-.2.17-.27.09-.07.19-.11.3-.11h1.31c.11,0,.19.04.24.11.05.07.07.16.05.27l-.14.66c.34-.34.74-.63,1.21-.86.46-.23.99-.35,1.58-.35.73,0,1.31.15,1.74.44s.73.71.87,1.24c.14.53.14,1.17-.02,1.92l-.96,4.5c-.02.11-.07.2-.16.27s-.19.11-.3.11h-1.41c-.11,0-.19-.04-.25-.11s-.08-.17-.06-.27l.93-4.4c.14-.65.12-1.14-.04-1.48s-.56-.5-1.18-.5-1.12.18-1.54.53c-.42.35-.7.84-.84,1.46l-.93,4.4c-.02.11-.08.2-.16.27-.09.07-.18.11-.29.11h-1.41Z" fill="#1c2126" stroke-width="0"/><path d="M170.61,618.56c-.64,0-1.17-.07-1.59-.22-.42-.15-.75-.34-.99-.56-.24-.22-.41-.45-.5-.67-.09-.22-.12-.41-.1-.56.02-.12.08-.21.17-.28.09-.07.18-.11.28-.11h1.26s.08,0,.11.02c.03,0,.06.04.1.1l.37.37c.13.13.29.24.49.33.2.09.46.14.78.14.42,0,.78-.08,1.1-.25.31-.17.5-.4.57-.71.04-.22.02-.4-.08-.54-.1-.14-.29-.27-.59-.38s-.74-.23-1.33-.36c-.58-.14-1.04-.31-1.38-.53-.35-.21-.58-.48-.71-.8-.12-.32-.13-.69-.04-1.12.08-.42.29-.81.62-1.19.33-.38.77-.69,1.32-.94s1.19-.37,1.93-.37c.58,0,1.06.07,1.46.22s.72.32.96.54c.24.21.41.43.5.65.1.22.13.41.1.57-.01.12-.06.21-.15.28-.09.07-.18.11-.28.11h-1.17c-.05,0-.1-.01-.14-.03-.04-.02-.08-.05-.1-.08-.11-.11-.22-.22-.33-.34-.11-.12-.26-.23-.43-.31-.18-.08-.42-.13-.74-.13-.41,0-.73.09-.98.26s-.41.4-.47.66c-.03.18-.01.34.06.47.07.13.25.26.54.38s.73.24,1.31.37c.69.13,1.22.32,1.59.57.37.25.61.54.72.86s.13.69.04,1.08c-.1.48-.33.91-.7,1.29-.37.38-.85.69-1.45.9-.6.22-1.3.33-2.11.33Z" fill="#1c2126" stroke-width="0"/><path d="M179.52,618.56c-.81,0-1.49-.15-2.02-.45-.54-.3-.92-.72-1.15-1.26-.23-.54-.29-1.18-.17-1.9.03-.19.08-.43.14-.71s.11-.51.17-.7c.19-.74.49-1.37.89-1.91.4-.54.91-.96,1.54-1.26s1.36-.45,2.22-.45,1.49.15,2.02.45.92.72,1.16,1.26c.23.54.29,1.18.18,1.91-.04.19-.09.43-.14.7-.05.28-.11.51-.16.71-.19.72-.48,1.36-.87,1.9-.39.54-.9.96-1.52,1.26-.62.3-1.38.45-2.26.45ZM179.68,616.98c.58,0,1.06-.18,1.46-.54s.69-.88.87-1.58c.04-.16.09-.37.14-.62.05-.26.1-.46.13-.62.12-.69.07-1.22-.14-1.58s-.61-.54-1.18-.54-1.05.18-1.46.54c-.41.36-.69.88-.86,1.58-.04.16-.09.37-.15.62s-.1.46-.12.62c-.12.69-.07,1.22.14,1.58.21.36.6.54,1.18.54Z" fill="#1c2126" stroke-width="0"/><path d="M188.45,618.56c-.69,0-1.26-.15-1.7-.44s-.73-.71-.87-1.25-.14-1.18,0-1.91l.96-4.5c.02-.11.08-.2.17-.27.09-.07.19-.11.29-.11h1.41c.11,0,.19.04.24.11s.07.16.05.27l-.93,4.4c-.1.44-.13.8-.09,1.1.04.29.16.52.36.66.2.15.52.22.94.22.58,0,1.08-.18,1.5-.53.43-.35.7-.84.83-1.46l.94-4.4c.02-.11.08-.2.17-.27s.19-.11.3-.11h1.39c.12,0,.2.04.26.11.05.07.07.16.05.27l-1.6,7.55c-.02.11-.07.2-.16.27-.08.07-.19.11-.3.11h-1.3c-.11,0-.19-.04-.25-.11s-.08-.17-.06-.27l.13-.66c-.23.24-.47.46-.72.64-.25.18-.53.32-.85.42-.32.1-.71.14-1.18.14Z" fill="#1c2126" stroke-width="0"/><path d="M195.57,618.4c-.11,0-.19-.04-.25-.11-.06-.07-.08-.17-.06-.27l1.6-7.54c.02-.12.08-.21.17-.29.09-.07.19-.11.3-.11h1.3c.11,0,.19.04.25.11s.08.17.06.29l-.14.66c.26-.34.58-.6.98-.78.39-.18.87-.27,1.44-.27h.78c.12,0,.2.04.26.11s.07.16.05.27l-.24,1.15c-.02.11-.08.2-.17.27-.09.07-.19.11-.3.11h-1.25c-.51,0-.94.14-1.29.43-.35.28-.57.68-.68,1.19l-.94,4.4c-.02.11-.08.2-.16.27-.09.07-.19.11-.3.11h-1.39Z" fill="#1c2126" stroke-width="0"/><path d="M205.46,618.56c-.71,0-1.34-.14-1.88-.43s-.94-.71-1.19-1.26-.31-1.21-.18-1.99c.03-.16.07-.37.13-.63.05-.26.1-.48.14-.65.29-1.16.82-2.07,1.6-2.71.78-.64,1.77-.97,2.98-.97.67,0,1.23.1,1.69.29.45.19.81.44,1.07.74.26.3.44.61.54.93s.14.61.1.86c0,.12-.06.21-.14.28-.08.07-.17.1-.28.1h-1.46c-.11,0-.19-.03-.25-.08-.06-.05-.09-.13-.1-.24,0-.43-.11-.74-.34-.93-.23-.19-.56-.29-.98-.29-.52,0-.99.17-1.4.51-.41.34-.71.87-.89,1.59-.04.19-.09.39-.13.59s-.08.38-.11.53c-.12.74-.06,1.27.16,1.6.22.33.6.5,1.12.5.42,0,.79-.09,1.12-.26s.61-.48.83-.9c.06-.12.13-.2.2-.25.07-.05.16-.07.26-.07h1.44c.11,0,.19.04.25.11.06.07.07.16.04.28-.07.23-.21.51-.41.82s-.47.62-.81.92c-.34.3-.77.54-1.29.74-.52.19-1.13.29-1.85.29Z" fill="#1c2126" stroke-width="0"/><path d="M214.69,618.56c-.78,0-1.43-.15-1.95-.46-.52-.31-.87-.76-1.07-1.35-.2-.59-.23-1.29-.09-2.13.02-.11.05-.24.08-.41.03-.17.06-.3.1-.39.21-.81.54-1.51.99-2.09.45-.58.99-1.03,1.64-1.34s1.36-.47,2.14-.47c.86,0,1.55.18,2.06.54s.84.85,1.01,1.49.16,1.37,0,2.2l-.08.34c-.02.11-.08.2-.17.27-.09.08-.19.11-.31.11h-5.31c-.01.06-.02.11-.03.13-.05.38-.05.72.02,1.03.06.31.21.57.42.76s.51.29.87.29c.3,0,.56-.04.79-.13.22-.09.41-.2.55-.31.14-.12.25-.21.33-.29.13-.13.22-.21.29-.23.06-.03.15-.04.27-.04h1.39c.1,0,.17.03.22.1.05.06.07.14.05.24-.05.17-.19.38-.4.62-.21.24-.5.48-.86.72-.36.24-.79.43-1.29.58s-1.04.23-1.64.23ZM214,613.53h3.54l.02-.05c.1-.42.1-.78.02-1.1s-.23-.56-.46-.74c-.22-.18-.52-.26-.9-.26s-.71.09-1.02.26c-.3.18-.56.42-.76.74-.2.31-.35.68-.43,1.1l-.02.05Z" fill="#1c2126" stroke-width="0"/><path d="M227.19,618.56c-.64,0-1.17-.07-1.59-.22-.42-.15-.75-.34-.99-.56-.24-.22-.41-.45-.5-.67-.09-.22-.13-.41-.1-.56.02-.12.08-.21.17-.28.09-.07.18-.11.28-.11h1.26s.08,0,.11.02c.03,0,.06.04.1.1.12.12.24.24.37.37.13.13.29.24.49.33.2.09.46.14.78.14.42,0,.78-.08,1.1-.25.31-.17.5-.4.57-.71.04-.22.02-.4-.08-.54s-.29-.27-.59-.38c-.3-.11-.74-.23-1.33-.36-.58-.14-1.04-.31-1.38-.53-.35-.21-.58-.48-.7-.8-.12-.32-.14-.69-.04-1.12.09-.42.29-.81.62-1.19.33-.38.77-.69,1.32-.94.55-.25,1.19-.37,1.93-.37.58,0,1.06.07,1.46.22.4.14.72.32.96.54.24.21.41.43.5.65s.13.41.1.57c-.01.12-.06.21-.15.28-.09.07-.18.11-.28.11h-1.17c-.05,0-.1-.01-.14-.03s-.07-.05-.1-.08c-.11-.11-.22-.22-.33-.34-.11-.12-.26-.23-.43-.31-.18-.08-.42-.13-.74-.13-.41,0-.73.09-.98.26s-.41.4-.47.66c-.03.18-.01.34.06.47s.25.26.54.38.73.24,1.31.37c.69.13,1.22.32,1.59.57.37.25.61.54.72.86.11.33.12.69.04,1.08-.1.48-.33.91-.7,1.29-.37.38-.85.69-1.45.9-.6.22-1.3.33-2.11.33Z" fill="#1c2126" stroke-width="0"/><path d="M236.1,618.56c-.81,0-1.49-.15-2.02-.45-.54-.3-.92-.72-1.15-1.26-.23-.54-.29-1.18-.17-1.9.03-.19.08-.43.14-.71s.12-.51.17-.7c.19-.74.49-1.37.89-1.91.4-.54.91-.96,1.54-1.26s1.36-.45,2.22-.45,1.48.15,2.02.45.93.72,1.16,1.26.29,1.18.18,1.91c-.04.19-.09.43-.14.7-.05.28-.11.51-.16.71-.19.72-.48,1.36-.87,1.9-.39.54-.9.96-1.52,1.26-.62.3-1.38.45-2.26.45ZM236.26,616.98c.58,0,1.06-.18,1.46-.54s.69-.88.87-1.58c.04-.16.09-.37.14-.62.05-.26.1-.46.13-.62.12-.69.07-1.22-.14-1.58s-.61-.54-1.18-.54-1.05.18-1.46.54c-.4.36-.69.88-.86,1.58-.04.16-.09.37-.15.62s-.1.46-.12.62c-.12.69-.07,1.22.13,1.58.21.36.6.54,1.18.54Z" fill="#1c2126" stroke-width="0"/><path d="M242.96,618.4c-.12,0-.21-.04-.26-.11s-.08-.17-.06-.27l1.33-6.24h-1.3c-.11,0-.19-.04-.25-.11-.06-.07-.08-.17-.06-.29l.19-.91c.02-.11.08-.2.17-.27.09-.07.19-.11.31-.11h1.29l.13-.65c.15-.64.38-1.17.69-1.59.31-.42.7-.74,1.18-.95.48-.21,1.04-.32,1.68-.32h1.28c.12,0,.2.04.26.11.05.07.07.16.05.27l-.19.91c-.02.12-.08.21-.17.29s-.19.11-.3.11h-.96c-.43,0-.76.11-.99.32-.23.21-.39.52-.46.93l-.13.58h1.98c.12,0,.2.04.26.11.05.07.07.16.05.27l-.19.91c-.02.12-.07.21-.16.29-.08.08-.19.11-.3.11h-1.98l-1.34,6.24c-.02.11-.08.2-.16.27-.09.07-.18.11-.29.11h-1.29Z" fill="#1c2126" stroke-width="0"/><path d="M252.11,618.4c-.73,0-1.29-.11-1.7-.34-.4-.22-.67-.56-.78-1-.12-.44-.11-.99.03-1.66l.79-3.63h-1.26c-.11,0-.19-.04-.25-.11-.06-.07-.08-.17-.06-.29l.19-.91c.02-.11.08-.2.17-.27.09-.07.2-.11.31-.11h1.25l.58-2.65c.02-.11.07-.2.16-.27.08-.07.18-.11.29-.11h1.3c.12,0,.21.04.26.11.06.08.08.17.06.27l-.58,2.65h2c.11,0,.19.04.25.11s.08.16.06.27l-.19.91c-.02.12-.08.21-.17.29-.09.08-.19.11-.3.11h-2l-.74,3.47c-.06.29-.1.54-.1.74,0,.21.05.37.17.48s.33.17.62.17h1.15c.12,0,.2.04.26.11.05.08.07.17.05.27l-.21.99c-.02.11-.08.2-.16.27-.09.07-.19.11-.3.11h-1.14Z" fill="#1c2126" stroke-width="0"/><path d="M257.27,618.4c-.15,0-.26-.04-.32-.11-.06-.07-.1-.17-.11-.29l-.72-7.49c-.01-.12.02-.22.1-.3s.18-.13.32-.13h1.12c.13,0,.22.03.28.09.06.06.09.13.1.22l.46,5.3,2.75-5.25c.04-.08.11-.15.19-.23.09-.08.2-.12.34-.12h.83c.15,0,.25.04.3.12.05.08.09.16.1.23l.58,5.25,2.69-5.3c.03-.06.09-.13.16-.2.07-.07.18-.11.3-.11h1.3c.15,0,.24.05.26.14s.01.2-.04.32l-3.86,7.46c-.06.12-.14.21-.23.29s-.21.11-.36.11h-1.06c-.15,0-.26-.04-.33-.11s-.12-.17-.14-.29l-.66-5.05-2.72,5.05c-.06.12-.14.21-.24.29s-.22.11-.37.11h-1.04Z" fill="#1c2126" stroke-width="0"/><path d="M271.09,618.56c-.55,0-1.02-.09-1.41-.28-.38-.19-.69-.45-.9-.79-.22-.34-.36-.74-.42-1.21-.06-.46-.05-.97.03-1.53.04-.19.08-.37.11-.52.03-.15.07-.33.11-.52.14-.53.32-1.03.55-1.49.23-.46.51-.86.85-1.21.34-.35.73-.62,1.18-.81.45-.19.97-.29,1.56-.29.66,0,1.17.11,1.51.31.35.21.62.46.81.76l.11-.53c.02-.11.08-.2.16-.27s.18-.11.29-.11h1.26c.11,0,.19.04.26.11.06.07.09.16.06.27l-1.62,7.55c-.02.11-.08.2-.16.27-.09.07-.18.11-.29.11h-1.26c-.12,0-.21-.04-.26-.11s-.08-.17-.06-.27l.13-.59c-.32.33-.67.6-1.06.81-.38.21-.9.32-1.55.32ZM271.81,616.85c.45,0,.83-.1,1.15-.3s.58-.46.78-.78.34-.64.42-.97c.05-.19.1-.4.14-.62s.08-.42.11-.62c.06-.32.07-.63.02-.92s-.19-.54-.41-.73c-.22-.19-.55-.29-.98-.29s-.77.1-1.06.3-.54.46-.73.78-.35.67-.46,1.06c-.04.16-.08.32-.11.48s-.06.32-.08.48c-.05.38-.07.74-.04,1.06.03.32.14.58.34.78s.5.3.92.3Z" fill="#1c2126" stroke-width="0"/><path d="M278.05,618.4c-.11,0-.19-.04-.25-.11-.06-.07-.08-.17-.06-.27l1.6-7.54c.02-.12.08-.21.17-.29.09-.07.19-.11.3-.11h1.29c.11,0,.19.04.25.11s.08.17.06.29l-.14.66c.26-.34.58-.6.98-.78s.88-.27,1.44-.27h.78c.12,0,.2.04.26.11.05.07.07.16.05.27l-.24,1.15c-.02.11-.08.2-.17.27-.09.07-.19.11-.29.11h-1.25c-.51,0-.94.14-1.29.43-.35.28-.57.68-.68,1.19l-.94,4.4c-.02.11-.07.2-.16.27s-.19.11-.3.11h-1.39Z" fill="#1c2126" stroke-width="0"/><path d="M288.05,618.56c-.78,0-1.43-.15-1.95-.46-.52-.31-.87-.76-1.07-1.35-.2-.59-.23-1.29-.09-2.13.02-.11.05-.24.08-.41.03-.17.06-.3.1-.39.21-.81.54-1.51.99-2.09.45-.58.99-1.03,1.64-1.34s1.36-.47,2.14-.47c.86,0,1.55.18,2.06.54s.84.85,1.01,1.49.16,1.37,0,2.2l-.08.34c-.02.11-.08.2-.17.27-.09.08-.19.11-.31.11h-5.31c-.01.06-.02.11-.03.13-.05.38-.05.72.02,1.03.06.31.21.57.42.76s.51.29.87.29c.3,0,.56-.04.79-.13.22-.09.41-.2.55-.31.14-.12.25-.21.33-.29.13-.13.22-.21.29-.23.06-.03.15-.04.27-.04h1.39c.1,0,.17.03.22.1.05.06.07.14.05.24-.05.17-.19.38-.4.62-.21.24-.5.48-.86.72-.36.24-.79.43-1.29.58s-1.04.23-1.64.23ZM287.36,613.53h3.54l.02-.05c.1-.42.1-.78.02-1.1s-.23-.56-.46-.74c-.22-.18-.52-.26-.9-.26s-.71.09-1.02.26c-.3.18-.56.42-.76.74-.2.31-.35.68-.43,1.1l-.02.05Z" fill="#1c2126" stroke-width="0"/><path d="M1125.56,618.56c-.88,0-1.63-.15-2.22-.44s-1.05-.71-1.37-1.26c-.31-.54-.49-1.18-.52-1.9-.01-.21-.02-.46-.02-.73s0-.51.02-.71c.03-.74.21-1.37.54-1.91.33-.54.79-.96,1.39-1.25s1.32-.44,2.18-.44,1.56.15,2.16.44,1.06.71,1.39,1.25c.33.54.52,1.18.56,1.91.01.2.02.44.02.71s0,.52-.02.73c-.04.72-.22,1.36-.54,1.9-.31.54-.77.96-1.37,1.26s-1.33.44-2.21.44ZM1125.56,616.79c.52,0,.92-.16,1.18-.48.26-.32.41-.79.44-1.42.01-.16.02-.37.02-.64s0-.48-.02-.64c-.03-.62-.18-1.09-.44-1.42-.26-.33-.65-.49-1.18-.49s-.92.16-1.18.49c-.27.32-.42.8-.45,1.42-.01.16-.02.37-.02.64s0,.48.02.64c.03.63.18,1.1.45,1.42s.66.48,1.18.48Z" fill="#1c2126" stroke-width="0"/><path d="M1134.64,618.56c-.66,0-1.23-.08-1.7-.23s-.86-.34-1.15-.57c-.29-.22-.51-.45-.66-.68-.14-.23-.22-.42-.23-.58-.01-.12.03-.21.11-.29.09-.07.17-.11.26-.11h1.55s.08,0,.1.02c.03,0,.06.04.1.08.14.1.28.21.42.33.14.12.32.23.52.31.2.09.45.13.74.13.35,0,.65-.07.89-.22.24-.14.36-.35.36-.62,0-.19-.05-.35-.16-.48-.11-.13-.31-.24-.62-.35s-.77-.22-1.38-.35c-.58-.13-1.07-.3-1.47-.51-.41-.21-.71-.48-.91-.81-.2-.33-.3-.72-.3-1.18,0-.42.13-.82.39-1.2.26-.38.65-.7,1.16-.95s1.15-.38,1.92-.38c.59,0,1.1.07,1.54.22s.81.33,1.11.54.53.44.68.67c.15.23.24.43.25.6.01.12-.02.21-.1.29-.08.08-.16.11-.26.11h-1.42c-.05,0-.1-.01-.14-.03s-.08-.05-.11-.08c-.13-.07-.26-.17-.39-.29-.13-.12-.29-.22-.47-.3-.18-.08-.42-.13-.7-.13-.34,0-.61.08-.79.23-.19.16-.28.35-.28.58,0,.15.05.29.14.42.1.13.29.25.58.35.29.11.75.22,1.37.34.73.13,1.3.32,1.73.58s.73.55.91.89c.18.34.27.7.27,1.08,0,.5-.15.95-.44,1.34-.29.39-.73.69-1.3.91-.58.22-1.28.33-2.11.33Z" fill="#1c2126" stroke-width="0"/><path d="M1143.33,618.56c-.66,0-1.23-.08-1.7-.23s-.86-.34-1.15-.57c-.29-.22-.51-.45-.66-.68-.14-.23-.22-.42-.23-.58-.01-.12.03-.21.11-.29.09-.07.17-.11.26-.11h1.55s.08,0,.1.02c.03,0,.06.04.1.08.14.1.28.21.42.33.14.12.32.23.52.31.2.09.45.13.74.13.35,0,.65-.07.89-.22.24-.14.36-.35.36-.62,0-.19-.05-.35-.16-.48-.11-.13-.31-.24-.62-.35s-.77-.22-1.38-.35c-.58-.13-1.07-.3-1.47-.51-.41-.21-.71-.48-.91-.81-.2-.33-.3-.72-.3-1.18,0-.42.13-.82.39-1.2.26-.38.65-.7,1.16-.95s1.15-.38,1.92-.38c.59,0,1.1.07,1.54.22s.81.33,1.11.54.53.44.68.67c.15.23.24.43.25.6.01.12-.02.21-.1.29-.08.08-.16.11-.26.11h-1.42c-.05,0-.1-.01-.14-.03s-.08-.05-.11-.08c-.13-.07-.26-.17-.39-.29-.13-.12-.29-.22-.47-.3-.18-.08-.42-.13-.7-.13-.34,0-.61.08-.79.23-.19.16-.28.35-.28.58,0,.15.05.29.14.42.1.13.29.25.58.35.29.11.75.22,1.37.34.73.13,1.3.32,1.73.58s.73.55.91.89c.18.34.27.7.27,1.08,0,.5-.15.95-.44,1.34-.29.39-.73.69-1.3.91-.58.22-1.28.33-2.11.33Z" fill="#1c2126" stroke-width="0"/><path d="M1149.04,618.4c-.12,0-.21-.04-.29-.11-.07-.07-.11-.17-.11-.29v-1.81c0-.11.04-.2.11-.28.08-.08.17-.12.29-.12h1.81c.11,0,.2.04.28.12s.12.17.12.28v1.81c0,.12-.04.21-.12.29s-.17.11-.28.11h-1.81Z" fill="#1c2126" stroke-width="0"/><path d="M1153.56,618.4c-.12,0-.21-.04-.29-.11s-.11-.17-.11-.29v-10.56c0-.12.04-.21.11-.29.07-.07.17-.11.29-.11h1.6c.12,0,.21.04.29.11.08.08.11.17.11.29v10.56c0,.12-.04.21-.11.29-.07.07-.17.11-.29.11h-1.6Z" fill="#1c2126" stroke-width="0"/><path d="M1161.38,618.56c-.88,0-1.63-.15-2.22-.44s-1.05-.71-1.37-1.26c-.31-.54-.49-1.18-.52-1.9-.01-.21-.02-.46-.02-.73s0-.51.02-.71c.03-.74.21-1.37.54-1.91.33-.54.79-.96,1.39-1.25s1.32-.44,2.18-.44,1.56.15,2.16.44,1.06.71,1.39,1.25c.33.54.52,1.18.56,1.91.01.2.02.44.02.71s0,.52-.02.73c-.04.72-.22,1.36-.54,1.9-.31.54-.77.96-1.37,1.26s-1.33.44-2.21.44ZM1161.38,616.79c.52,0,.92-.16,1.18-.48.26-.32.41-.79.44-1.42.01-.16.02-.37.02-.64s0-.48-.02-.64c-.03-.62-.18-1.09-.44-1.42-.26-.33-.65-.49-1.18-.49s-.92.16-1.18.49c-.27.32-.42.8-.45,1.42-.01.16-.02.37-.02.64s0,.48.02.64c.03.63.18,1.1.45,1.42s.66.48,1.18.48Z" fill="#1c2126" stroke-width="0"/><path d="M1169.81,618.4c-.16,0-.28-.04-.36-.12-.08-.08-.15-.17-.2-.28l-3.01-7.42s-.03-.09-.03-.14c0-.1.03-.18.1-.25.07-.07.15-.11.25-.11h1.55c.14,0,.24.04.31.11s.11.14.14.21l1.97,5.26,1.97-5.26c.03-.06.08-.13.14-.21.06-.07.17-.11.3-.11h1.55c.1,0,.18.04.25.11s.1.15.1.25c0,.05,0,.1-.02.14l-3.01,7.42c-.04.11-.11.2-.19.28-.09.08-.21.12-.38.12h-1.44Z" fill="#1c2126" stroke-width="0"/><path d="M1179.6,618.56c-1.23,0-2.2-.34-2.92-1.02-.72-.68-1.1-1.67-1.14-2.98v-.67c.04-.83.23-1.54.56-2.14.33-.59.79-1.04,1.39-1.36.6-.31,1.3-.47,2.1-.47.91,0,1.66.19,2.26.55.6.37,1.05.87,1.35,1.5.3.63.46,1.36.46,2.18v.37c0,.11-.04.2-.11.28-.07.08-.17.12-.29.12h-5.22v.11c.01.34.08.65.19.94.12.28.29.51.52.68.23.17.51.26.84.26.26,0,.47-.04.64-.12s.31-.17.42-.27.19-.19.25-.26c.1-.12.17-.19.23-.22s.15-.04.26-.04h1.7c.1,0,.18.03.25.1.07.06.1.14.09.24-.01.18-.1.4-.26.65-.17.25-.41.5-.73.74s-.72.44-1.19.6-1.02.24-1.64.24ZM1178.04,613.46h3.12v-.05c0-.37-.06-.7-.18-.98-.12-.28-.3-.51-.54-.66-.23-.16-.52-.24-.85-.24s-.61.08-.84.24c-.23.16-.41.38-.53.66-.12.28-.18.61-.18.98v.05Z" fill="#1c2126" stroke-width="0"/><polygon points="1104.46 614.96 1098.89 611.74 1093.31 614.96 1104.46 621.39 1115.62 614.96 1110.04 611.74 1104.46 614.96" fill="#b7303d" stroke="#1c2126" stroke-linejoin="round" stroke-width=".33"/><polygon points="1098.89 605.3 1098.89 611.74 1093.31 614.96 1093.31 608.52 1098.89 605.3" fill="#ea4f4b" stroke="#1c2126" stroke-linejoin="round" stroke-width=".33"/><polygon points="1098.89 605.3 1098.89 611.74 1104.46 614.96 1104.46 608.52 1098.89 605.3" fill="#ff6b60" stroke="#1c2126" stroke-linejoin="round" stroke-width=".33"/><polygon points="1110.04 605.3 1110.04 611.74 1104.46 614.96 1104.46 608.52 1110.04 605.3" fill="#ea4f4b" stroke="#1c2126" stroke-linejoin="round" stroke-width=".33"/><polygon points="1110.04 605.3 1110.04 611.74 1115.61 614.96 1115.62 608.52 1110.04 605.3" fill="#ff6b60" stroke="#1c2126" stroke-linejoin="round" stroke-width=".33"/></g></svg>