<svg xmlns="http://www.w3.org/2000/svg" xmlns:xlink="http://www.w3.org/1999/xlink" width="1200" height="630" viewBox="0 0 1200 630"><defs><clipPath id="a"><rect width="1200" height="572.27" fill="none"/></clipPath></defs><rect width="1200" height="498.72" fill="#054861"/><g clip-path="url(#a)"><path d="M916.64,523.48h-28.1a288.54,288.54,0,1,0-577.08,0h-28.1a316.64,316.64,0,1,1,633.28,0Z" fill="#db4648" stroke="#1c2126" stroke-miterlimit="10" stroke-width="2"/><path d="M888.73,523.48h-28.1a260.63,260.63,0,1,0-521.26,0h-28.1a288.73,288.73,0,1,1,577.46,0Z" fill="#ff6b60" stroke="#1c2126" stroke-miterlimit="10" stroke-width="2"/><path d="M861.56,522.08h-28.1c0-128-104.1-232.06-232.06-232.06S369.34,394.12,369.34,522.08h-28.1a260.16,260.16,0,0,1,520.32,0Z" fill="#ffd3bf" stroke="#1c2126" stroke-miterlimit="10" stroke-width="2"/><path d="M835,522.08h-28.1c0-113.31-92.18-205.49-205.48-205.49S395.92,408.77,395.92,522.08h-28.1c0-128.8,104.78-233.59,233.58-233.59S835,393.28,835,522.08Z" fill="#fff6d0" stroke="#1c2126" stroke-miterlimit="10" stroke-width="2"/><path d="M806.41,522.08H778.3c0-97.55-79.35-176.91-176.9-176.91S424.5,424.53,424.5,522.08H396.4c0-113,92-205,205-205S806.41,409,806.41,522.08Z" fill="#ffdd73" stroke="#1c2126" stroke-miterlimit="10" stroke-width="2"/><path d="M777.83,522.08h-28.1c0-81.79-66.54-148.33-148.33-148.33S453.07,440.29,453.07,522.08H425c0-97.29,79.15-176.43,176.43-176.43S777.83,424.79,777.83,522.08Z" fill="#ffb916" stroke="#1c2126" stroke-miterlimit="10" stroke-width="2"/><path d="M-26.4,585.39c23.62-.92,47.24-1.92,70.87-2.16,25.46-.25,50.92,0,76.38-.09,51-.12,102.09-.48,153.12-1.7,50.8-1.21,101.58-3.26,152.28-6.77,24.86-1.71,49.59-3.54,74.33-6.65,6.19-.78,12.39-1.55,18.59-2.26a175.81,175.81,0,0,0,6.65-32c.72-6.73.94-13.78-1.73-20a23.85,23.85,0,0,0-4.47-6.86q1.92-1.46,3.7-3.09c-4-8.13-9.45-16.1-17.66-19.88-6.31-2.91-13.63-3-20.33-1-6.49-15.33-15.77-28.72-30.56-35.63-23.41-10.92-52.49.05-69.59,19.4a41.06,41.06,0,0,0-63.82-30.56c-3.66-15.91-8.7-33.69-23.07-41.44-7.17-3.87-15.63-4.52-23.78-4.31-13.13.33-26.78,3-37.1,11.1a38.8,38.8,0,0,0-20-37.36c-12.12-6.37-27.7-5.29-39,2.35a33.29,33.29,0,0,0-57.62,4c-10.21-14.91-25.12-27.81-43-30.42s-38.24,8.09-41.85,25.8c-16.44-16.8-49.83-9.38-57.62,12.8-2.41,6.86-2.61,14.27-2.78,21.55l-1.24,52.35c-1.05,44.3-2.1,88.61-2.62,132.92Z" fill="#fff" stroke="#1c2126" stroke-linejoin="round" stroke-width="2"/><path d="M185.35,211.6c-1.93,3.13-.94,7.55,1.8,10a11.43,11.43,0,0,0,10.38,2.15c5.71-1.49,10.41-6.49,16.31-6.41,3.77.05,7.24,2.29,9.67,5.18s4,6.39,5.48,9.85A14.83,14.83,0,0,1,248.07,218c3,.89,5.68,2.71,8.77,3.09,6,.74,11.79-5.34,10.75-11.29" fill="none" stroke="#ffd3bf" stroke-linecap="round" stroke-linejoin="round" stroke-width="2"/><path d="M273.36,259.44c-.58,3.41-.86,7.32,1.44,9.9,2.82,3.16,8,2.55,11.78.66s7.17-4.79,11.31-5.67c7.27-1.52,14.88,4.57,15.89,11.93.24-6.56,6.62-12.23,13.16-11.7,4.63.37,8.88,3.36,13.51,3,5.44-.4,9.81-6.21,8.68-11.54" fill="none" stroke="#ffd3bf" stroke-linecap="round" stroke-linejoin="round" stroke-width="2"/><path d="M844.39,239.11l.54,21.95" fill="none" stroke="#30c8c9" stroke-linecap="round" stroke-linejoin="round" stroke-width="2"/><path d="M854.86,243.37c-7.11,4.16-10.65,6.65-19.93,16.07" fill="none" stroke="#30c8c9" stroke-linecap="round" stroke-linejoin="round" stroke-width="2"/><path d="M834.54,244.4c10.2,6.39,12.93,9.77,20.88,13.47" fill="none" stroke="#30c8c9" stroke-linecap="round" stroke-linejoin="round" stroke-width="2"/><path d="M983.5,298.82V318.7" fill="none" stroke="#30c8c9" stroke-linecap="round" stroke-linejoin="round" stroke-width="2"/><path d="M976.22,303.58l14.93,11.26" fill="none" stroke="#30c8c9" stroke-linecap="round" stroke-linejoin="round" stroke-width="2"/><path d="M975,312.69l16.15-7" fill="none" stroke="#30c8c9" stroke-linecap="round" stroke-linejoin="round" stroke-width="2"/><path d="M1118.06,234.94l-18,15.19" fill="none" stroke="#30c8c9" stroke-linecap="round" stroke-linejoin="round" stroke-width="2"/><path d="M1108.2,232l1.23,22.09" fill="none" stroke="#30c8c9" stroke-linecap="round" stroke-linejoin="round" stroke-width="2"/><path d="M1099,237.86l18.67,9.24" fill="none" stroke="#30c8c9" stroke-linecap="round" stroke-linejoin="round" stroke-width="2"/><path d="M626,422.35l-18,15.19" fill="none" stroke="#30c8c9" stroke-linecap="round" stroke-linejoin="round" stroke-width="2"/><path d="M616.12,419.42l1.23,22.09" fill="none" stroke="#30c8c9" stroke-linecap="round" stroke-linejoin="round" stroke-width="2"/><path d="M607,425.27l18.67,9.24" fill="none" stroke="#30c8c9" stroke-linecap="round" stroke-linejoin="round" stroke-width="2"/><path d="M691.39,578.1h543.37c-.54-41.85-1.53-83.71-2.52-125.55L1231,400.2c-.18-7.28-.37-14.69-2.78-21.55-7.79-22.18-41.18-29.6-57.62-12.8-3.62-17.71-24-28.42-41.85-25.8s-32.79,15.51-43,30.42a33.3,33.3,0,0,0-57.63-4c-11.31-7.64-26.89-8.72-39-2.35a38.79,38.79,0,0,0-20,37.36c-10.32-8.13-24-10.77-37.11-11.1-8.14-.21-16.6.44-23.78,4.31-14.37,7.75-19.4,25.53-23.07,41.44a41.05,41.05,0,0,0-63.81,30.56c-17.11-19.35-46.19-30.32-69.59-19.4-14.79,6.91-24.07,20.3-30.56,35.63-6.7-2-14-1.91-20.33,1-8.22,3.78-13.7,11.75-17.66,19.88,1.18,1.09,2.42,2.12,3.7,3.09a23.65,23.65,0,0,0-4.47,6.86c-2.67,6.22-2.45,13.27-1.73,20A188.9,188.9,0,0,0,691.39,578.1Z" fill="#fff" stroke="#1c2126" stroke-linejoin="round" stroke-width="2"/><path d="M133.32,283.14l.41,16.58" fill="none" stroke="#30c8c9" stroke-linecap="round" stroke-linejoin="round" stroke-width="2"/><path d="M141.23,286.35c-5.37,3.15-8,5-15.06,12.14" fill="none" stroke="#30c8c9" stroke-linecap="round" stroke-linejoin="round" stroke-width="2"/><path d="M125.88,287.13c7.7,4.83,9.77,7.38,15.78,10.18" fill="none" stroke="#30c8c9" stroke-linecap="round" stroke-linejoin="round" stroke-width="2"/></g><rect y="595" width="1200" height="35" fill="#fff"/><rect y="499.19" width="1200" height="95.81" fill="#fff"/><line y1="499.19" x2="1200" y2="499.19" fill="none" stroke="#1c2126" stroke-miterlimit="10"/><line y1="595" x2="1200" y2="595" fill="none" stroke="#1c2126" stroke-miterlimit="10"/><path d="M24.24,559.45V540.69H17.85v-2.37H33.21v2.37H26.82v18.76Z" fill="#1c2126"/><path d="M44.07,559.89c-4.8,0-7.74-3.45-7.74-9.3v-3.41c0-5.85,2.94-9.3,7.74-9.3s7.75,3.45,7.75,9.3v3.41C51.82,556.44,48.88,559.89,44.07,559.89Zm5.15-9.31v-3.39c0-4.41-1.94-6.87-5.15-6.87s-5.14,2.46-5.14,6.87v3.39c0,4.41,1.94,6.87,5.14,6.87S49.22,555,49.22,550.58Z" fill="#1c2126"/><path d="M60,545.58a2.65,2.65,0,1,1,2.65,2.71A2.7,2.7,0,0,1,60,545.58Zm0,11.25a2.65,2.65,0,1,1,2.65,2.71A2.68,2.68,0,0,1,60,556.83Z" fill="#1c2126"/><line x1="582.03" y1="498.72" x2="582.03" y2="595" fill="none" stroke="#1c2126" stroke-miterlimit="10"/><path d="M1129.73,614.6a4.72,4.72,0,1,1-4.71-4.69A4.43,4.43,0,0,1,1129.73,614.6Zm-6.82,0A2.12,2.12,0,0,0,1125,617c1.3,0,2.1-.94,2.1-2.41s-.8-2.42-2.1-2.42S1122.91,613.12,1122.91,614.6Z" fill="#1c2126"/><path d="M1138.54,612.93H1136c0-.57-.52-1-1.37-1s-1.25.3-1.25.72.19.62,1.2.8l1.2.19c2.3.39,2.91,1.43,2.91,2.79,0,1.74-1.39,2.85-3.92,2.85-2.72,0-4.08-1.3-4.08-3.09h2.48c0,.65.53,1.1,1.7,1.1.88,0,1.33-.3,1.33-.75s-.26-.72-1.3-.9l-1.25-.21c-2.11-.33-2.77-1.39-2.77-2.67,0-1.58,1.3-2.8,3.78-2.8S1138.54,611.24,1138.54,612.93Z" fill="#1c2126"/><path d="M1147.49,612.93H1145c0-.57-.53-1-1.38-1s-1.25.3-1.25.72.2.62,1.2.8l1.2.19c2.31.39,2.92,1.43,2.92,2.79,0,1.74-1.39,2.85-3.92,2.85-2.72,0-4.09-1.3-4.09-3.09h2.49c0,.65.52,1.1,1.69,1.1.88,0,1.33-.3,1.33-.75s-.26-.72-1.3-.9l-1.24-.21c-2.12-.33-2.77-1.39-2.77-2.67,0-1.58,1.29-2.8,3.77-2.8S1147.49,611.24,1147.49,612.93Z" fill="#1c2126"/><path d="M1152,617.64a1.6,1.6,0,1,1-1.6-1.62A1.55,1.55,0,0,1,1152,617.64Z" fill="#1c2126"/><path d="M1156.27,606.34v12.72h-2.5V606.34Z" fill="#1c2126"/><path d="M1167,614.6a4.71,4.71,0,1,1-4.7-4.69A4.42,4.42,0,0,1,1167,614.6Zm-6.82,0a2.13,2.13,0,0,0,2.12,2.41c1.29,0,2.1-.94,2.1-2.41s-.81-2.42-2.1-2.42A2.13,2.13,0,0,0,1160.15,614.6Z" fill="#1c2126"/><path d="M1176.59,610.12l-3.27,8.94h-3l-3.29-8.94h2.64l2.17,6.32,2.16-6.32Z" fill="#1c2126"/><path d="M1186.06,615.33h-6.61a1.92,1.92,0,0,0,2,1.81,1.83,1.83,0,0,0,1.75-.8h2.66a5,5,0,1,1,.17-1.77Zm-6.58-1.71h3.94a1.87,1.87,0,0,0-2-1.58A2,2,0,0,0,1179.48,613.62Z" fill="#1c2126"/><path d="M605.51,559.45V538.32H618v2.37H608.1v7.25h9v2.3h-9v9.21Z" fill="#1c2126"/><path d="M625.54,551v8.42H623V538.32h7.09c4.19,0,6.81,2.43,6.81,6.35A5.91,5.91,0,0,1,633,550.5l4.3,9h-2.91L630.41,551Zm0-2.18h4.19c2.92,0,4.56-1.48,4.56-4.12s-1.61-4.11-4.44-4.11h-4.31Z" fill="#1c2126"/><path d="M648.15,559.89c-4.81,0-7.75-3.45-7.75-9.3v-3.41c0-5.85,2.94-9.3,7.75-9.3s7.75,3.45,7.75,9.3v3.41C655.9,556.44,653,559.89,648.15,559.89Zm5.14-9.31v-3.39c0-4.41-1.93-6.87-5.14-6.87s-5.14,2.46-5.14,6.87v3.39c0,4.41,1.93,6.87,5.14,6.87S653.29,555,653.29,550.58Z" fill="#1c2126"/><path d="M661.38,559.45h-2.31V538.32H662l4.64,13.12h.19l4.62-13.12h2.9v21.13H672v-8.11l.13-8.56H672l-4.25,11.71h-2l-4.25-11.71h-.19l.14,8.56Z" fill="#1c2126"/><path d="M682.59,545.58a2.65,2.65,0,1,1,2.65,2.71A2.7,2.7,0,0,1,682.59,545.58Zm0,11.25a2.65,2.65,0,1,1,2.65,2.71A2.68,2.68,0,0,1,682.59,556.83Z" fill="#1c2126"/><path d="M27.75,606.92v12.14H25v-2.13l-4.7-5.41v7.54H17.63V606.92H20L25,612.77v-5.85Z" fill="#1c2126"/><path d="M38.37,615.33H31.76a1.92,1.92,0,0,0,2,1.81,1.82,1.82,0,0,0,1.75-.8H38.2a4.35,4.35,0,0,1-4.44,2.88,4.63,4.63,0,1,1,0-9.26,4.32,4.32,0,0,1,4.62,4.61Zm-6.58-1.71h3.94a1.87,1.87,0,0,0-2-1.58A2,2,0,0,0,31.79,613.62Z" fill="#1c2126"/><path d="M44.93,612.23H43v6.83H40.5v-6.83H38.82v-2.11H40.5V607.3H43v2.82h1.93Z" fill="#1c2126"/><path d="M48.9,606.34v12.72H46.4V606.34Z" fill="#1c2126"/><path d="M53.62,607.59a1.5,1.5,0,1,1-3,0,1.5,1.5,0,1,1,3,0Zm-.24,2.32v9.15h-2.5v-9.15a2.06,2.06,0,0,0,1.25.37A2,2,0,0,0,53.38,609.91Z" fill="#1c2126"/><path d="M58.55,609v1.09h1.87v2.11H58.55v6.83h-2.5v-6.83H54.61v-2.11h1.44V609a2.62,2.62,0,0,1,2.88-2.83h1.75v1.94H59.44A.78.78,0,0,0,58.55,609Z" fill="#1c2126"/><path d="M70.71,610.12l-5,11.89H63.33l1.38-3.28-3.49-8.61h2.51L66,615.69l2.32-5.57Z" fill="#1c2126"/><path d="M109.4,613c0,3.92-2.34,6.22-5.8,6.22s-5.79-2.3-5.79-6.22,2.33-6.25,5.79-6.25S109.4,609.08,109.4,613Zm-8.79,0c0,2.35,1.29,3.66,3,3.66s3-1.31,3-3.66-1.31-3.67-3-3.67S100.61,610.63,100.61,613Z" fill="#1c2126"/><path d="M120.32,610.53h-2.8c0-.89-.67-1.52-1.85-1.52s-1.7.55-1.7,1.23.38,1,1.49,1.3l1.37.32c2.64.59,3.73,1.73,3.73,3.73s-1.6,3.63-4.73,3.63-4.9-1.61-4.9-4h2.8a1.88,1.88,0,0,0,2.11,1.84c1.27,0,1.92-.63,1.92-1.44s-.38-1.09-1.57-1.35l-1.32-.27c-2.77-.56-3.72-1.87-3.72-3.73,0-2.06,1.6-3.54,4.58-3.54S120.32,608.29,120.32,610.53Z" fill="#1c2126"/><path d="M131.38,610.53h-2.8c0-.89-.67-1.52-1.86-1.52-1,0-1.69.55-1.69,1.23s.38,1,1.48,1.3l1.38.32c2.64.59,3.73,1.73,3.73,3.73s-1.6,3.63-4.74,3.63-4.9-1.61-4.9-4h2.81a1.88,1.88,0,0,0,2.11,1.84c1.26,0,1.92-.63,1.92-1.44s-.39-1.09-1.57-1.35l-1.33-.27c-2.77-.56-3.71-1.87-3.71-3.73,0-2.06,1.6-3.54,4.58-3.54S131.38,608.29,131.38,610.53Z" fill="#1c2126"/><path d="M91.16,610.11a3.62,3.62,0,0,0-1-1.22,3.91,3.91,0,0,0-2.49-1.14,3.62,3.62,0,0,0-2.51,1.37,8,8,0,0,0-1.41,2.21,6.53,6.53,0,0,0-2.39-2.73,4.09,4.09,0,0,0-3.58-.35,3,3,0,0,0-1.82,3,5,5,0,0,0,2,2.88q3.32,3,6.72,5.87l5-5.64C90.67,613.14,91.8,611.56,91.16,610.11Z" fill="#ff6b60" stroke="#ff6b60" stroke-linejoin="round"/><path d="M128.22,139.41V134.5a15.2,15.2,0,0,0,1.74.08c3.06,0,4.71-1.28,5.88-4.62l.49-1.57L124.79,96.46h6.39l8.35,25.94h.41l8.29-25.94h6.19l-11.63,32.66C140,137,137.06,139.5,130.6,139.5,129.7,139.5,128.6,139.44,128.22,139.41Z" fill="#ffb916"/><path d="M162.49,114.72v-4.8c0-8.61,5.43-14,14-14s14,5.44,14,14v4.8c0,8.58-5.43,14.05-14,14.05S162.49,123.3,162.49,114.72Zm5.75-4.39v4c0,5.88,3.17,9.51,8.23,9.51s8.24-3.63,8.24-9.51v-4c0-5.88-3.17-9.51-8.24-9.51S168.24,104.45,168.24,110.33Z" fill="#ffb916"/><path d="M226.62,128.16H221v-5.5h-.41c-1.65,3.9-5.23,6.11-10,6.11-6.89,0-10.62-4.13-10.62-11.75V96.46h5.85v19.13c0,5.41,2.18,8,6.86,8,4.86,0,8.12-3.4,8.12-8.52V96.46h5.81Z" fill="#ffb916"/><path d="M249.08,123.68h9.63v4.48H237.13v-4.48h6.28V100.93h-6.89V96.46h12.53v8.08h.82c1.25-6,4.94-8.9,11-8.9a13,13,0,0,1,4.57.67v6.4a16.72,16.72,0,0,0-5.24-.9c-7.15,0-11.14,4.45-11.14,12.21Z" fill="#ffb916"/><path d="M271.57,112.19V106.9h30.77v5.29Z" fill="#ffb916"/><path d="M331.58,106.66c-.55-3.66-3.4-5.84-7.27-5.84-5.15,0-8,3.6-8,10.12v2.68c0,6.51,2.85,10.12,8,10.12,3.9,0,6.69-2.13,7.27-5.7h5.76c-.79,6.74-5.58,10.73-13,10.73-8.82,0-13.9-5.3-13.9-14.54v-3.9c0-9.25,5.08-14.51,13.9-14.51,7.39,0,12.18,4,13,10.84Z" fill="#ffb916"/><path d="M346.62,114.72v-4.8c0-8.61,5.44-14,14-14s14,5.44,14,14v4.8c0,8.58-5.44,14.05-14,14.05S346.62,123.3,346.62,114.72Zm5.76-4.39v4c0,5.88,3.17,9.51,8.24,9.51s8.23-3.63,8.23-9.51v-4c0-5.88-3.18-9.51-8.23-9.51S352.38,104.45,352.38,110.33Z" fill="#ffb916"/><path d="M383.05,115.19v-5.76c0-8.29,4.65-13.5,11.95-13.5,4.57,0,7.91,2,9.19,5.56h.55V84.1h6v44.06h-5.84v-5h-.55c-1.52,3.58-4.77,5.53-9.34,5.53C387.7,128.68,383.05,123.47,383.05,115.19Zm21.84-.56v-4.74c0-5.47-3.09-8.9-8-8.9s-8,3.46-8,8.9v4.74c0,5.44,3.08,8.87,8,8.87S404.89,120.07,404.89,114.63Z" fill="#ffb916"/><path d="M447.91,119.78c-.84,5.32-6.08,9-12.91,9-8.9,0-14-5.24-14-14.25v-4.83c0-8.35,5.44-13.84,13.67-13.84S448,101.31,448,110.33v3.43H426.74v1.43c0,5.35,3.23,8.78,8.23,8.78,3.75,0,6.57-1.6,7.36-4.19Zm-21.17-10.12h15.53c0-5.64-2.85-9-7.65-9S426.74,104,426.74,109.66Z" fill="#ffb916"/><path d="M494.55,84.1h5.64V102h.43c1.63-3.9,5.24-6.11,10-6.11,6.89,0,10.64,4.16,10.64,11.75v20.51h-5.81V109.08c0-5.38-2.24-8-6.92-8-4.92,0-8.18,3.4-8.18,8.52v18.53h-5.84Z" fill="#30c8c9"/><path d="M531.17,119.14c0-5.64,4.07-9,11.46-9.39l8.32-.44v-2.79c0-3.64-2.27-5.67-6.34-5.67-3.38,0-5.79,1.45-6.55,4h-5.69C533,99.57,537.92,96,544.72,96c7.65,0,12,3.84,12,10.5v21.67h-5.56v-4.63h-.55c-1.51,3.26-4.92,5.12-9.4,5.12C535.19,128.68,531.17,124.87,531.17,119.14ZM551,116.79v-3.35l-7.53.38c-4.22.23-6.43,2-6.43,5.06s2.32,4.94,6,4.94C547.57,123.82,551,120.83,551,116.79Z" fill="#30c8c9"/><path d="M581.67,95.82c6.92,0,11.46,3.31,12,8.81h-5.58c-.53-2.59-3-4.19-6.49-4.19-3.72,0-6.13,1.75-6.13,4.36,0,2.27,1.54,3.52,5.23,4.34l4.6,1c6.25,1.4,9.07,4.08,9.07,8.73,0,6-5,9.86-12.71,9.86-7.47,0-12.3-3.35-12.83-8.93h5.88c.64,2.7,3.26,4.25,7.1,4.25s6.54-1.78,6.54-4.54c0-2.33-1.43-3.52-5.27-4.39l-4.74-1.08c-5.78-1.31-8.66-4.22-8.66-8.84C569.66,99.54,574.4,95.82,581.67,95.82Z" fill="#30c8c9"/><path d="M702.65,128.16h-5.38l-5-23.76h-.32l-5.06,23.76h-5.38l-6.69-31.7h5.64L684.18,121h.67l4.63-24.52h5.17L699.28,121H700l3.75-24.57h5.64Z" fill="#ff6b60"/><path d="M715.52,84.1h5.64V102h.43c1.63-3.9,5.24-6.11,10-6.11,6.89,0,10.64,4.16,10.64,11.75v20.51h-5.81V109.08c0-5.38-2.24-8-6.93-8-4.91,0-8.17,3.4-8.17,8.52v18.53h-5.84Z" fill="#ff6b60"/><path d="M752.14,119.14c0-5.64,4.07-9,11.46-9.39l8.32-.44v-2.79c0-3.64-2.27-5.67-6.34-5.67-3.38,0-5.79,1.45-6.55,4h-5.7c.58-5.23,5.56-8.78,12.36-8.78,7.65,0,12,3.84,12,10.5v21.67h-5.55v-4.63h-.55c-1.52,3.26-4.92,5.12-9.4,5.12C756.15,128.68,752.14,124.87,752.14,119.14Zm19.78-2.35v-3.35l-7.54.38c-4.21.23-6.42,2-6.42,5.06s2.32,4.94,6,4.94C768.54,123.82,771.92,120.83,771.92,116.79Z" fill="#ff6b60"/><path d="M802.55,87.79v8.84h12.53v4.8H802.64v17.13c0,3.14,2.18,4.86,6.22,4.86,1.48,0,5.35-.06,6-.15V128c-.64.12-5.24.23-6.46.23-8.11,0-11.66-2.91-11.66-9.71V101.43h-8.38v-4.8h8.38V87.79Z" fill="#ff6b60"/><path d="M824,112.19V106.9h30.77v5.29Z" fill="#ff6b60"/><path d="M863.5,128.16v-4.71h10.67V101.17H863.73V96.46h16.14v27h10.24v4.71Zm8.72-43.42a4.52,4.52,0,1,1,4.51,4.3A4.29,4.29,0,0,1,872.22,84.74Z" fill="#ff6b60"/><path d="M897.65,112.19V106.9h30.77v5.29Z" fill="#ff6b60"/><path d="M936.54,96.46h5.64V102h.41c1.66-3.92,5.23-6.13,10-6.13,6.9,0,10.62,4.13,10.62,11.74v20.57h-5.85V109.05c0-5.44-2.18-8-6.86-8-4.86,0-8.11,3.4-8.11,8.52v18.59h-5.82Z" fill="#ff6b60"/><path d="M1000.33,119.78c-.85,5.32-6.08,9-12.91,9-8.9,0-14-5.24-14-14.25v-4.83c0-8.35,5.44-13.84,13.67-13.84s13.32,5.46,13.32,14.48v3.43H979.16v1.43c0,5.35,3.22,8.78,8.23,8.78,3.75,0,6.57-1.6,7.35-4.19Zm-21.17-10.12h15.53c0-5.64-2.85-9-7.65-9S979.16,104,979.16,109.66Z" fill="#ff6b60"/><path d="M1037.16,119.78c-.85,5.32-6.08,9-12.92,9-8.9,0-14-5.24-14-14.25v-4.83c0-8.35,5.44-13.84,13.67-13.84s13.32,5.46,13.32,14.48v3.43H1016v1.43c0,5.35,3.23,8.78,8.23,8.78,3.76,0,6.58-1.6,7.36-4.19ZM1016,109.66h15.53c0-5.64-2.85-9-7.64-9S1016,104,1016,109.66Z" fill="#ff6b60"/><path d="M1046,115.19v-5.76c0-8.29,4.65-13.5,12-13.5,4.57,0,7.91,2,9.19,5.56h.55V84.1h6v44.06h-5.84v-5h-.55c-1.52,3.58-4.77,5.53-9.34,5.53C1050.6,128.68,1046,123.47,1046,115.19Zm21.84-.56v-4.74c0-5.47-3.08-8.9-8-8.9s-8,3.46-8,8.9v4.74c0,5.44,3.08,8.87,8,8.87S1067.79,120.07,1067.79,114.63Z" fill="#ff6b60"/><g opacity="0.7"><path d="M112.47,102.36l-1.8,9.1h6l-1,5h-6.05l-2.33,11.72h-4.82l2.32-11.72h-8l-2.27,11.72H89.76l2.36-11.72h-6l1-5h6l1.77-9.1h-6l1-4.92h6l2.24-11.28h4.83l-2.24,11.28h8l2.24-11.28h4.82l-2.24,11.28h6.05l-1,4.92Zm-14.8,9.39H106l1.89-9.59H99.53Z" fill="#fff"/><path d="M465.51,100.5a5.59,5.59,0,1,1,5.59,5.67A5.67,5.67,0,0,1,465.51,100.5Zm0,22.25a5.59,5.59,0,1,1,5.59,5.7A5.67,5.67,0,0,1,465.51,122.75Z" fill="#fff"/><path d="M620.45,81.59h5.9c-6.11,8.76-8.64,16.26-8.64,25.57s2.53,16.81,8.64,25.56h-5.9c-5.88-6.63-9-15.44-9-25.56S614.57,88.23,620.45,81.59Z" fill="#fff"/><path d="M649.65,122.75a5.59,5.59,0,1,1,5.59,5.7A5.65,5.65,0,0,1,649.65,122.75Z" fill="#fff"/><path d="M1095.14,132.72h-5.91c6.11-8.75,8.64-16.23,8.64-25.56s-2.53-16.81-8.64-25.57h5.91c5.87,6.64,8.95,15.45,8.95,25.57S1101,126.09,1095.14,132.72Z" fill="#fff"/></g></svg>