<svg xmlns="http://www.w3.org/2000/svg" xmlns:xlink="http://www.w3.org/1999/xlink" width="1200" height="630" viewBox="0 0 1200 630"><defs><clipPath id="a"><rect x="-1220" width="1200" height="498.72" fill="none"/></clipPath><clipPath id="b"><rect width="1200" height="498.72" fill="none"/></clipPath></defs><rect width="1200" height="498.72" fill="#db4648"/><g clip-path="url(#a)"><polygon points="-49.04 176.12 -15.52 156.76 18.01 176.12 -15.52 195.47 -49.04 176.12" fill="#ffdd73" stroke="#1c2126" stroke-linejoin="round" stroke-width="2"/><polygon points="18.01 176.12 18.01 214.83 -15.52 234.19 -15.52 195.47 18.01 176.12" fill="#b7790b" stroke="#1c2126" stroke-linejoin="round" stroke-width="2"/><polygon points="-49.04 60.09 -15.52 40.74 18.01 60.09 -15.52 79.45 -49.04 60.09" fill="#ffdd73" stroke="#1c2126" stroke-linejoin="round" stroke-width="2"/><polygon points="18.01 60.09 18.01 98.81 -15.52 118.16 -15.52 79.45 18.01 60.09" fill="#b7790b" stroke="#1c2126" stroke-linejoin="round" stroke-width="2"/><polygon points="18.01 -55.93 18.01 -17.21 -15.52 2.14 -15.52 -36.57 18.01 -55.93" fill="#b7790b" stroke="#1c2126" stroke-linejoin="round" stroke-width="2"/><polygon points="-49.04 291.91 -15.52 272.55 18.01 291.91 -15.52 311.26 -49.04 291.91" fill="#ffdd73" stroke="#1c2126" stroke-linejoin="round" stroke-width="2"/><polygon points="18.01 291.91 18.01 330.62 -15.52 349.98 -15.52 311.26 18.01 291.91" fill="#b7790b" stroke="#1c2126" stroke-linejoin="round" stroke-width="2"/><polygon points="-49.04 407.7 -15.52 388.34 18.01 407.7 -15.52 427.06 -49.04 407.7" fill="#ffdd73" stroke="#1c2126" stroke-linejoin="round" stroke-width="2"/><polygon points="18.01 407.7 18.01 446.41 -15.52 465.77 -15.52 427.06 18.01 407.7" fill="#b7790b" stroke="#1c2126" stroke-linejoin="round" stroke-width="2"/></g><g clip-path="url(#b)"><rect x="208.68" y="-168.46" width="200" height="200" transform="translate(138.82 198.22) rotate(-45)" fill="#ff6b60"/><polyline points="311.51 70.14 308.68 72.96 305.85 70.14" fill="none" stroke="#1c2126" stroke-linejoin="round" stroke-width="2"/><line x1="300.42" y1="64.7" x2="172.8" y2="-62.91" fill="none" stroke="#1c2126" stroke-linejoin="round" stroke-width="2" stroke-dasharray="7.68 7.68"/><line x1="441.84" y1="-60.2" x2="314.22" y2="67.42" fill="none" stroke="#1c2126" stroke-linejoin="round" stroke-width="2" stroke-dasharray="7.68 7.68"/><rect x="233.69" y="-143.45" width="149.98" height="149.98" transform="translate(42 -238.32) rotate(45)" fill="#ffd3bf" stroke="#1c2126" stroke-linejoin="round" stroke-width="2"/><rect x="367.34" y="-9.8" width="200" height="200" transform="translate(73.1 356.88) rotate(-45)" fill="#ff6b60"/><polyline points="470.17 228.79 467.34 231.62 464.51 228.79" fill="none" stroke="#1c2126" stroke-linejoin="round" stroke-width="2"/><line x1="459.08" y1="223.36" x2="331.46" y2="95.74" fill="none" stroke="#1c2126" stroke-linejoin="round" stroke-width="2" stroke-dasharray="7.68 7.68"/><polyline points="328.75 93.03 325.92 90.2 328.75 87.37" fill="none" stroke="#1c2126" stroke-linejoin="round" stroke-width="2"/><line x1="334.18" y1="81.94" x2="461.79" y2="-45.68" fill="none" stroke="#1c2126" stroke-linejoin="round" stroke-width="2" stroke-dasharray="7.68 7.68"/><line x1="475.6" y1="-42.96" x2="603.22" y2="84.66" fill="none" stroke="#1c2126" stroke-linejoin="round" stroke-width="2" stroke-dasharray="7.68 7.68"/><polyline points="605.93 87.37 608.76 90.2 605.93 93.03" fill="none" stroke="#1c2126" stroke-linejoin="round" stroke-width="2"/><line x1="600.5" y1="98.46" x2="472.88" y2="226.08" fill="none" stroke="#1c2126" stroke-linejoin="round" stroke-width="2" stroke-dasharray="7.68 7.68"/><rect x="392.35" y="15.21" width="149.98" height="149.98" transform="translate(200.66 -304.04) rotate(45)" fill="#ffd3bf" stroke="#1c2126" stroke-linejoin="round" stroke-width="2"/><rect x="421.8" y="44.66" width="91.07" height="91.07" transform="translate(200.66 -304.04) rotate(45)" fill="#bffde7" stroke="#1c2126" stroke-linejoin="round" stroke-width="2" stroke-dasharray="8"/><rect x="447.91" y="70.78" width="38.85" height="38.85" transform="translate(200.66 -304.04) rotate(45)" fill="#30c8c9" stroke="#1c2126" stroke-linejoin="round" stroke-width="2"/><rect x="524.06" y="-171.5" width="200" height="200" transform="translate(233.34 420.34) rotate(-45)" fill="#ff6b60"/><polyline points="626.89 67.1 624.06 69.92 621.23 67.1" fill="none" stroke="#1c2126" stroke-linejoin="round" stroke-width="2"/><line x1="615.8" y1="61.67" x2="488.18" y2="-65.95" fill="none" stroke="#1c2126" stroke-linejoin="round" stroke-width="2" stroke-dasharray="7.68 7.68"/><line x1="757.22" y1="-63.24" x2="629.6" y2="64.38" fill="none" stroke="#1c2126" stroke-linejoin="round" stroke-width="2" stroke-dasharray="7.68 7.68"/><rect x="549.07" y="-146.49" width="149.98" height="149.98" transform="translate(132.23 -462.22) rotate(45)" fill="#ffd3bf" stroke="#1c2126" stroke-linejoin="round" stroke-width="2"/><rect x="49.15" y="-8.93" width="200" height="200" transform="translate(-20.71 132.14) rotate(-45)" fill="#ff6b60"/><polyline points="151.98 229.66 149.15 232.49 146.32 229.66" fill="none" stroke="#1c2126" stroke-linejoin="round" stroke-width="2"/><line x1="140.89" y1="224.23" x2="13.27" y2="96.62" fill="none" stroke="#1c2126" stroke-linejoin="round" stroke-width="2" stroke-dasharray="7.68 7.68"/><polyline points="10.56 93.9 7.73 91.07 10.56 88.24" fill="none" stroke="#1c2126" stroke-linejoin="round" stroke-width="2"/><line x1="15.99" y1="82.81" x2="143.61" y2="-44.81" fill="none" stroke="#1c2126" stroke-linejoin="round" stroke-width="2" stroke-dasharray="7.68 7.68"/><line x1="157.41" y1="-42.09" x2="285.03" y2="85.53" fill="none" stroke="#1c2126" stroke-linejoin="round" stroke-width="2" stroke-dasharray="7.68 7.68"/><polyline points="287.74 88.24 290.57 91.07 287.74 93.9" fill="none" stroke="#1c2126" stroke-linejoin="round" stroke-width="2"/><line x1="282.31" y1="99.33" x2="154.69" y2="226.95" fill="none" stroke="#1c2126" stroke-linejoin="round" stroke-width="2" stroke-dasharray="7.68 7.68"/><rect x="74.16" y="16.08" width="149.98" height="149.98" transform="translate(108.08 -78.79) rotate(45)" fill="#ffd3bf" stroke="#1c2126" stroke-linejoin="round" stroke-width="2"/><rect x="103.61" y="45.54" width="91.07" height="91.07" transform="translate(108.08 -78.79) rotate(45)" fill="#bffde7" stroke="#1c2126" stroke-linejoin="round" stroke-width="2" stroke-dasharray="8"/><rect x="129.72" y="71.65" width="38.85" height="38.85" transform="translate(108.08 -78.79) rotate(45)" fill="#30c8c9" stroke="#1c2126" stroke-linejoin="round" stroke-width="2"/><polygon points="-11.25 73.33 -11.25 -209.52 130.17 -68.09 -11.25 73.33" fill="#ff6b60"/><line x1="121.91" y1="-59.84" x2="-5.71" y2="67.78" fill="none" stroke="#1c2126" stroke-linejoin="round" stroke-width="2" stroke-dasharray="7.68 7.68"/><polygon points="-11.25 37.96 -11.25 -174.15 94.8 -68.09 -11.25 37.96" fill="#ffd3bf" stroke="#1c2126" stroke-linejoin="round" stroke-width="2"/><rect x="207.81" y="149.73" width="200" height="200" transform="translate(-86.43 290.8) rotate(-45)" fill="#ff6b60"/><polyline points="310.64 388.32 307.81 391.15 304.98 388.32" fill="none" stroke="#1c2126" stroke-linejoin="round" stroke-width="2"/><line x1="299.55" y1="382.89" x2="171.93" y2="255.27" fill="none" stroke="#1c2126" stroke-linejoin="round" stroke-width="2" stroke-dasharray="7.68 7.68"/><polyline points="169.22 252.56 166.39 249.73 169.22 246.9" fill="none" stroke="#1c2126" stroke-linejoin="round" stroke-width="2"/><line x1="174.65" y1="241.47" x2="302.26" y2="113.85" fill="none" stroke="#1c2126" stroke-linejoin="round" stroke-width="2" stroke-dasharray="7.68 7.68"/><polyline points="304.98 111.14 307.81 108.31 310.64 111.14" fill="none" stroke="#1c2126" stroke-linejoin="round" stroke-width="2"/><line x1="316.07" y1="116.57" x2="443.69" y2="244.19" fill="none" stroke="#1c2126" stroke-linejoin="round" stroke-width="2" stroke-dasharray="7.68 7.68"/><polyline points="446.4 246.9 449.23 249.73 446.4 252.56" fill="none" stroke="#1c2126" stroke-linejoin="round" stroke-width="2"/><line x1="440.97" y1="257.99" x2="313.35" y2="385.61" fill="none" stroke="#1c2126" stroke-linejoin="round" stroke-width="2" stroke-dasharray="7.68 7.68"/><rect x="232.82" y="174.74" width="149.98" height="149.98" transform="translate(266.74 -144.51) rotate(45)" fill="#ffd3bf" stroke="#1c2126" stroke-linejoin="round" stroke-width="2"/><rect x="262.27" y="204.19" width="91.07" height="91.07" transform="translate(266.74 -144.51) rotate(45)" fill="#bffde7" stroke="#1c2126" stroke-linejoin="round" stroke-width="2" stroke-dasharray="8"/><rect x="288.38" y="230.31" width="38.85" height="38.85" transform="translate(266.74 -144.51) rotate(45)" fill="#30c8c9" stroke="#1c2126" stroke-linejoin="round" stroke-width="2"/><rect x="365.4" y="307.32" width="200" height="200" transform="translate(-151.71 448.39) rotate(-45)" fill="#ff6b60"/><polyline points="468.23 545.91 465.4 548.74 462.57 545.91" fill="none" stroke="#1c2126" stroke-linejoin="round" stroke-width="2"/><line x1="457.14" y1="540.48" x2="329.52" y2="412.87" fill="none" stroke="#1c2126" stroke-linejoin="round" stroke-width="2" stroke-dasharray="7.68 7.68"/><polyline points="326.81 410.15 323.98 407.32 326.81 404.49" fill="none" stroke="#1c2126" stroke-linejoin="round" stroke-width="2"/><line x1="332.24" y1="399.06" x2="459.86" y2="271.44" fill="none" stroke="#1c2126" stroke-linejoin="round" stroke-width="2" stroke-dasharray="7.68 7.68"/><polyline points="462.57 268.73 465.4 265.9 468.23 268.73" fill="none" stroke="#1c2126" stroke-linejoin="round" stroke-width="2"/><line x1="473.66" y1="274.16" x2="601.28" y2="401.78" fill="none" stroke="#1c2126" stroke-linejoin="round" stroke-width="2" stroke-dasharray="7.68 7.68"/><polyline points="603.99 404.49 606.82 407.32 603.99 410.15" fill="none" stroke="#1c2126" stroke-linejoin="round" stroke-width="2"/><line x1="598.56" y1="415.58" x2="470.94" y2="543.2" fill="none" stroke="#1c2126" stroke-linejoin="round" stroke-width="2" stroke-dasharray="7.68 7.68"/><rect x="390.41" y="332.33" width="149.98" height="149.98" transform="translate(424.33 -209.79) rotate(45)" fill="#ffd3bf" stroke="#1c2126" stroke-linejoin="round" stroke-width="2"/><rect x="419.86" y="361.79" width="91.07" height="91.07" transform="translate(424.33 -209.79) rotate(45)" fill="#bffde7" stroke="#1c2126" stroke-linejoin="round" stroke-width="2" stroke-dasharray="8"/><rect x="445.97" y="387.9" width="38.85" height="38.85" transform="translate(424.33 -209.79) rotate(45)" fill="#30c8c9" stroke="#1c2126" stroke-linejoin="round" stroke-width="2"/><rect x="524.06" y="465.98" width="200" height="200" transform="translate(-217.43 607.05) rotate(-45)" fill="#ff6b60"/><line x1="615.8" y1="699.14" x2="488.18" y2="571.53" fill="none" stroke="#1c2126" stroke-linejoin="round" stroke-width="2" stroke-dasharray="7.68 7.68"/><polyline points="485.47 568.81 482.64 565.98 485.47 563.15" fill="none" stroke="#1c2126" stroke-linejoin="round" stroke-width="2"/><line x1="490.9" y1="557.72" x2="618.52" y2="430.1" fill="none" stroke="#1c2126" stroke-linejoin="round" stroke-width="2" stroke-dasharray="7.68 7.68"/><polyline points="621.23 427.39 624.06 424.56 626.89 427.39" fill="none" stroke="#1c2126" stroke-linejoin="round" stroke-width="2"/><line x1="632.32" y1="432.82" x2="759.94" y2="560.44" fill="none" stroke="#1c2126" stroke-linejoin="round" stroke-width="2" stroke-dasharray="7.68 7.68"/><polyline points="762.65 563.15 765.48 565.98 762.65 568.81" fill="none" stroke="#1c2126" stroke-linejoin="round" stroke-width="2"/><line x1="757.22" y1="574.24" x2="629.6" y2="701.86" fill="none" stroke="#1c2126" stroke-linejoin="round" stroke-width="2" stroke-dasharray="7.68 7.68"/><rect x="549.07" y="490.99" width="149.98" height="149.98" transform="translate(582.99 -275.5) rotate(45)" fill="#ffd3bf" stroke="#1c2126" stroke-linejoin="round" stroke-width="2"/><rect x="578.52" y="520.45" width="91.07" height="91.07" transform="translate(582.99 -275.5) rotate(45)" fill="#bffde7" stroke="#1c2126" stroke-linejoin="round" stroke-width="2" stroke-dasharray="8"/><rect x="604.63" y="546.56" width="38.85" height="38.85" transform="translate(582.99 -275.5) rotate(45)" fill="#30c8c9" stroke="#1c2126" stroke-linejoin="round" stroke-width="2"/><polygon points="-10.38 392.02 -10.38 109.18 131.04 250.6 -10.38 392.02" fill="#ff6b60"/><line x1="-2.12" y1="117.44" x2="125.5" y2="245.06" fill="none" stroke="#1c2126" stroke-linejoin="round" stroke-width="2" stroke-dasharray="7.68 7.68"/><polyline points="128.21 247.77 131.04 250.6 128.21 253.43" fill="none" stroke="#1c2126" stroke-linejoin="round" stroke-width="2"/><line x1="122.78" y1="258.86" x2="-4.84" y2="386.48" fill="none" stroke="#1c2126" stroke-linejoin="round" stroke-width="2" stroke-dasharray="7.68 7.68"/><polygon points="-10.38 356.65 -10.38 144.55 95.67 250.6 -10.38 356.65" fill="#ffd3bf" stroke="#1c2126" stroke-linejoin="round" stroke-width="2"/><polygon points="-10.38 315 -10.38 186.2 54.02 250.6 -10.38 315" fill="#bffde7" stroke="#1c2126" stroke-linejoin="round" stroke-width="2" stroke-dasharray="8"/><polygon points="-10.38 278.07 -10.38 223.13 17.09 250.6 -10.38 278.07" fill="#30c8c9" stroke="#1c2126" stroke-linejoin="round" stroke-width="2"/><rect x="48.28" y="309.26" width="200" height="200" transform="translate(-245.96 224.72) rotate(-45)" fill="#ff6b60"/><polyline points="151.11 547.85 148.28 550.68 145.45 547.85" fill="none" stroke="#1c2126" stroke-linejoin="round" stroke-width="2"/><line x1="140.02" y1="542.42" x2="12.4" y2="414.8" fill="none" stroke="#1c2126" stroke-linejoin="round" stroke-width="2" stroke-dasharray="7.68 7.68"/><polyline points="9.69 412.09 6.86 409.26 9.69 406.43" fill="none" stroke="#1c2126" stroke-linejoin="round" stroke-width="2"/><line x1="15.12" y1="401" x2="142.73" y2="273.38" fill="none" stroke="#1c2126" stroke-linejoin="round" stroke-width="2" stroke-dasharray="7.68 7.68"/><polyline points="145.45 270.67 148.28 267.84 151.11 270.67" fill="none" stroke="#1c2126" stroke-linejoin="round" stroke-width="2"/><line x1="156.54" y1="276.1" x2="284.16" y2="403.72" fill="none" stroke="#1c2126" stroke-linejoin="round" stroke-width="2" stroke-dasharray="7.68 7.68"/><polyline points="286.87 406.43 289.7 409.26 286.87 412.09" fill="none" stroke="#1c2126" stroke-linejoin="round" stroke-width="2"/><line x1="281.44" y1="417.52" x2="153.82" y2="545.14" fill="none" stroke="#1c2126" stroke-linejoin="round" stroke-width="2" stroke-dasharray="7.68 7.68"/><rect x="73.29" y="334.27" width="149.98" height="149.98" transform="translate(332.82 15.02) rotate(45)" fill="#ffd3bf" stroke="#1c2126" stroke-linejoin="round" stroke-width="2"/><rect x="102.74" y="363.72" width="91.07" height="91.07" transform="translate(332.82 15.02) rotate(45)" fill="#bffde7" stroke="#1c2126" stroke-linejoin="round" stroke-width="2" stroke-dasharray="8"/><rect x="128.85" y="389.84" width="38.85" height="38.85" transform="translate(332.82 15.02) rotate(45)" fill="#30c8c9" stroke="#1c2126" stroke-linejoin="round" stroke-width="2"/><polygon points="-11.25 710.21 -11.25 427.37 130.17 568.79 -11.25 710.21" fill="#ff6b60"/><line x1="-2.99" y1="435.63" x2="124.63" y2="563.25" fill="none" stroke="#1c2126" stroke-linejoin="round" stroke-width="2" stroke-dasharray="7.68 7.68"/><polyline points="127.34 565.96 130.17 568.79 127.34 571.62" fill="none" stroke="#1c2126" stroke-linejoin="round" stroke-width="2"/><line x1="121.91" y1="577.05" x2="-5.71" y2="704.67" fill="none" stroke="#1c2126" stroke-linejoin="round" stroke-width="2" stroke-dasharray="7.68 7.68"/><polygon points="-11.25 674.84 -11.25 462.74 94.8 568.79 -11.25 674.84" fill="#ffd3bf" stroke="#1c2126" stroke-linejoin="round" stroke-width="2"/><polygon points="-11.25 633.19 -11.25 504.39 53.15 568.79 -11.25 633.19" fill="#bffde7" stroke="#1c2126" stroke-linejoin="round" stroke-width="2" stroke-dasharray="8"/><polygon points="-11.25 596.26 -11.25 541.32 16.22 568.79 -11.25 596.26" fill="#30c8c9" stroke="#1c2126" stroke-linejoin="round" stroke-width="2"/><rect x="205.87" y="466.85" width="200" height="200" transform="translate(-311.24 382.31) rotate(-45)" fill="#ff6b60"/><line x1="297.61" y1="700.01" x2="169.99" y2="572.4" fill="none" stroke="#1c2126" stroke-linejoin="round" stroke-width="2" stroke-dasharray="7.68 7.68"/><polyline points="167.28 569.68 164.45 566.85 167.28 564.02" fill="none" stroke="#1c2126" stroke-linejoin="round" stroke-width="2"/><line x1="172.71" y1="558.59" x2="300.33" y2="430.97" fill="none" stroke="#1c2126" stroke-linejoin="round" stroke-width="2" stroke-dasharray="7.68 7.68"/><polyline points="303.04 428.26 305.87 425.43 308.7 428.26" fill="none" stroke="#1c2126" stroke-linejoin="round" stroke-width="2"/><line x1="314.13" y1="433.69" x2="441.75" y2="561.31" fill="none" stroke="#1c2126" stroke-linejoin="round" stroke-width="2" stroke-dasharray="7.68 7.68"/><polyline points="444.46 564.02 447.29 566.85 444.46 569.68" fill="none" stroke="#1c2126" stroke-linejoin="round" stroke-width="2"/><line x1="439.03" y1="575.11" x2="311.41" y2="702.73" fill="none" stroke="#1c2126" stroke-linejoin="round" stroke-width="2" stroke-dasharray="7.68 7.68"/><rect x="230.88" y="491.86" width="149.98" height="149.98" transform="translate(490.41 -50.26) rotate(45)" fill="#ffd3bf" stroke="#1c2126" stroke-linejoin="round" stroke-width="2"/><rect x="260.33" y="521.32" width="91.07" height="91.07" transform="translate(490.41 -50.26) rotate(45)" fill="#bffde7" stroke="#1c2126" stroke-linejoin="round" stroke-width="2" stroke-dasharray="8"/><rect x="286.44" y="547.43" width="38.85" height="38.85" transform="translate(490.41 -50.26) rotate(45)" fill="#30c8c9" stroke="#1c2126" stroke-linejoin="round" stroke-width="2"/></g><path d="M679.17,117.81v45.54H669V117.81Z" fill="#fff"/><path d="M709.29,129a7.56,7.56,0,0,0,4.62,1.38,7.94,7.94,0,0,0,4.74-1.38l-.07,37c0,7-4.25,11.28-11.21,11.28h-4.5V169h3.24c2.16,0,3.18-1.08,3.18-3.12Zm10.32-8.7a5.73,5.73,0,1,1-11.46,0,5.73,5.73,0,1,1,11.46,0Z" fill="#fff"/><path d="M756.33,129.81v33.54H747v-3.6a11,11,0,0,1-9.18,4.44c-7.38,0-12.18-5.52-12.18-15.42v-19H735V147c0,5.1,2.34,8,5.94,8S747,152,747,147.09V129.81Z" fill="#fff"/><path d="M790.58,140.37h-9.35c-.06-2.16-2-3.84-5.16-3.84s-4.68,1.14-4.68,2.7.72,2.34,4.5,3l4.5.72c8.64,1.44,10.91,5.34,10.91,10.44,0,6.54-5.22,10.68-14.69,10.68-10.2,0-15.3-4.86-15.3-11.58h9.3c.06,2.46,2,4.14,6.36,4.14,3.3,0,5-1.14,5-2.82s-1-2.7-4.86-3.36l-4.68-.78c-7.92-1.26-10.38-5.22-10.38-10,0-5.94,4.86-10.5,14.16-10.5S790.58,134,790.58,140.37Z" fill="#fff"/><path d="M817.53,137.73h-7.26v25.62h-9.36V137.73h-6.3v-7.92h6.3V119.25h9.36v10.56h7.26Z" fill="#fff"/><path d="M875.66,143.07h-9.84a6.46,6.46,0,0,0-6.72-5.94c-4.43,0-7.49,3.42-7.49,9.48s3.06,9.42,7.49,9.42a6.45,6.45,0,0,0,6.72-5.88h9.84c-.24,7.8-6.9,14-16.56,14-10.79,0-17.27-7-17.27-17.58S848.31,129,859.1,129C868.76,129,875.42,135.21,875.66,143.07Z" fill="#fff"/><path d="M914.48,146.61c0,10-6.42,17.58-17.63,17.58s-17.7-7.56-17.7-17.58S885.57,129,896.85,129,914.48,136.59,914.48,146.61Zm-25.55,0c0,5.52,3.06,9.06,7.92,9.06s7.86-3.54,7.86-9.06-3-9.06-7.86-9.06S888.93,141.09,888.93,146.61Z" fill="#fff"/><path d="M949.58,129.81v33.54h-9.35v-3.6a11,11,0,0,1-9.18,4.44c-7.38,0-12.18-5.52-12.18-15.42v-19h9.36V147c0,5.1,2.34,8,5.94,8s6.06-3.06,6.06-7.92V129.81Z" fill="#fff"/><path d="M966.51,115.65v47.7h-9.36v-47.7Z" fill="#fff"/><path d="M1005.86,115.65v47.7H996.5v-4c-2.21,3-5.69,4.8-10.38,4.8-8.69,0-14.81-6.24-14.81-17.58S977.43,129,986.12,129c4.69,0,8.17,1.8,10.38,4.74V115.65Zm-9.36,30.72c0-5.94-3.12-9.3-7.67-9.3s-7.74,3.42-7.74,9.3,3.24,9.3,7.74,9.3S996.5,152.31,996.5,146.37Z" fill="#fff"/><path d="M1044.87,144.39v19h-9.36V146.19c0-5.16-2.46-8-6.24-8s-6.48,3.12-6.48,8v17.22h-9.36V129.81h9.36v3.78a11.34,11.34,0,0,1,9.54-4.56C1040,129,1044.87,134.49,1044.87,144.39Z" fill="#fff"/><path d="M1057.29,122.49c0,4.86-2.46,8.46-8.1,10.26l-1.26.42-1.44-4.44,1.26-.36c2.64-.78,4-1.92,4.56-3.66a6.65,6.65,0,0,1-1.14.12,4.82,4.82,0,0,1-5.1-4.8c0-2.88,2.1-5,5.28-5C1055.07,115.05,1057.29,118,1057.29,122.49Z" fill="#fff"/><path d="M1083.74,137.73h-7.26v25.62h-9.36V137.73h-6.29v-7.92h6.29V119.25h9.36v10.56h7.26Z" fill="#fff"/><rect x="573.89" y="207.52" width="593.68" height="100.97" rx="11.89" fill="#1c2126" opacity="0.2"/><path d="M618.35,261v.74L644,274.65v10.2l-35.27-19.54v-7.93L644,237.85v10.2Z" fill="#fff"/><path d="M656,268.79v-7.62c0-11.36,6.1-18.28,15.9-18.28,6.17,0,10.59,2.78,12.19,7.74h.78V227.11h9.38v59.3H685v-7h-.78c-1.8,5-6.14,7.69-12.35,7.69C662.06,287.07,656,280.2,656,268.79Zm29.07-.55v-6.68c0-6.75-3.79-10.93-9.89-10.93s-9.92,4.22-9.92,10.93v6.68c0,6.72,3.79,10.9,9.92,10.9S685,275,685,268.24Z" fill="#fff"/><path d="M707.68,286.41v-7.27h14.1V250.9H708.15v-7.27h22.5v35.51h13.44v7.27Zm11.64-58.48c0-3.67,2.74-6.21,6.6-6.21s6.64,2.54,6.64,6.21-2.73,6.21-6.64,6.21S719.32,231.6,719.32,227.93Z" fill="#fff"/><path d="M764.17,243.63l10.35,33.75h.62l10.24-33.75H795l-15.16,42.78H769.63L754.4,243.63Z" fill="#fff"/><path d="M806.55,237.85l35.27,19.53v7.93l-35.27,19.54v-10.2l25.66-12.93V261l-25.66-12.93Z" fill="#fff"/><path d="M865.61,261v.74l25.67,12.93v10.2L856,265.31v-7.93l35.28-19.53v10.2Z" fill="#fff"/><path d="M905,293.67l26.87-70.9h9.22l-27.07,70.9Z" fill="#fff"/><path d="M952.68,268.79v-7.62c0-11.36,6.1-18.28,15.9-18.28,6.17,0,10.59,2.78,12.19,7.74h.78V227.11h9.37v59.3h-9.21v-7h-.79c-1.79,5-6.13,7.69-12.34,7.69C958.78,287.07,952.68,280.2,952.68,268.79Zm29.06-.55v-6.68c0-6.75-3.78-10.93-9.88-10.93s-9.92,4.22-9.92,10.93v6.68c0,6.72,3.79,10.9,9.92,10.9S981.74,275,981.74,268.24Z" fill="#fff"/><path d="M1004.4,286.41v-7.27h14.1V250.9h-13.63v-7.27h22.5v35.51h13.44v7.27ZM1016,227.93c0-3.67,2.74-6.21,6.6-6.21s6.64,2.54,6.64,6.21-2.73,6.21-6.64,6.21S1016,231.6,1016,227.93Z" fill="#fff"/><path d="M1060.88,243.63l10.36,33.75h.62l10.24-33.75h9.64l-15.15,42.78h-10.24l-15.23-42.78Z" fill="#fff"/><path d="M1103.27,237.85l35.27,19.53v7.93l-35.27,19.54v-10.2l25.66-12.93V261l-25.66-12.93Z" fill="#fff"/><path d="M743.21,354.86l-9.84,33.53H724l-6.78-21.29-6.84,21.29h-9.18l-9.84-33.53h9.12l6.3,21.35,6.6-21.35h8l6.54,21.23,6.3-21.23Z" fill="#fff"/><path d="M756.17,345.38a5.61,5.61,0,1,1-11.21,0,5.61,5.61,0,1,1,11.21,0Zm-.89,8.7v34.31h-9.36V354.08a7.62,7.62,0,0,0,4.68,1.38A7.51,7.51,0,0,0,755.28,354.08Z" fill="#fff"/><path d="M783.89,362.78h-7.26v25.61h-9.35V362.78H761v-7.92h6.3V344.3h9.35v10.56h7.26Z" fill="#fff"/><path d="M821.33,369.44v18.95H812V371.24c0-5.16-2.46-8-6.24-8s-6.42,3.12-6.42,8l-.06-.42v17.64H789.9V340.7h9.35v17.94a11.27,11.27,0,0,1,9.54-4.56C816.41,354.08,821.33,359.54,821.33,369.44Z" fill="#fff"/><path d="M861.35,371.66c0,10-6.42,17.57-17.64,17.57S826,381.67,826,371.66s6.42-17.58,17.69-17.58S861.35,361.64,861.35,371.66Zm-25.55,0c0,5.51,3.06,9,7.91,9s7.87-3.54,7.87-9-3-9.06-7.87-9.06S835.8,366.14,835.8,371.66Z" fill="#fff"/><path d="M896.46,354.86v33.53H887.1v-3.6a11,11,0,0,1-9.18,4.44c-7.38,0-12.18-5.52-12.18-15.41v-19h9.36v17.22c0,5.09,2.34,8,5.94,8s6.06-3.05,6.06-7.92V354.86Z" fill="#fff"/><path d="M924.54,362.78h-7.26v25.61h-9.36V362.78h-6.3v-7.92h6.3V344.3h9.36v10.56h7.26Z" fill="#fff"/><path d="M983.09,354.86,964.5,399.43h-9.06l5.16-12.3-13.08-32.27h9.42l8.4,20.88,8.7-20.88Z" fill="#fff"/><path d="M1019.27,371.66c0,10-6.42,17.57-17.64,17.57s-17.69-7.56-17.69-17.57,6.42-17.58,17.69-17.58S1019.27,361.64,1019.27,371.66Zm-25.55,0c0,5.51,3.06,9,7.91,9s7.87-3.54,7.87-9-3-9.06-7.87-9.06S993.72,366.14,993.72,371.66Z" fill="#fff"/><path d="M1054.38,354.86v33.53H1045v-3.6a11,11,0,0,1-9.18,4.44c-7.38,0-12.18-5.52-12.18-15.41v-19H1033v17.22c0,5.09,2.34,8,5.94,8s6.06-3.05,6.06-7.92V354.86Z" fill="#fff"/><rect y="595" width="1200" height="35" fill="#fff"/><rect y="499.19" width="1200" height="95.81" fill="#fff"/><line y1="499.19" x2="1200" y2="499.19" fill="none" stroke="#1c2126" stroke-miterlimit="10"/><line y1="595" x2="1200" y2="595" fill="none" stroke="#1c2126" stroke-miterlimit="10"/><path d="M24.24,559.45V540.69H17.85v-2.37H33.21v2.37H26.82v18.76Z" fill="#1c2126"/><path d="M44.08,559.89c-4.81,0-7.75-3.45-7.75-9.3v-3.41c0-5.85,2.94-9.3,7.75-9.3s7.74,3.45,7.74,9.3v3.41C51.82,556.44,48.88,559.89,44.08,559.89Zm5.14-9.31v-3.39c0-4.41-1.94-6.87-5.14-6.87s-5.15,2.46-5.15,6.87v3.39c0,4.41,1.94,6.87,5.15,6.87S49.22,555,49.22,550.58Z" fill="#1c2126"/><path d="M60,545.58a2.65,2.65,0,1,1,2.65,2.71A2.7,2.7,0,0,1,60,545.58Zm0,11.25a2.65,2.65,0,1,1,2.65,2.71A2.68,2.68,0,0,1,60,556.83Z" fill="#1c2126"/><circle cx="107.91" cy="548.15" r="31.98" fill="#1c2126"/><line x1="582.03" y1="498.72" x2="582.03" y2="595" fill="none" stroke="#1c2126" stroke-miterlimit="10"/><path d="M1129.73,614.6a4.72,4.72,0,1,1-4.71-4.69A4.43,4.43,0,0,1,1129.73,614.6Zm-6.82,0A2.12,2.12,0,0,0,1125,617c1.3,0,2.1-.94,2.1-2.41s-.8-2.42-2.1-2.42S1122.91,613.12,1122.91,614.6Z" fill="#1c2126"/><path d="M1138.54,612.93H1136c0-.57-.52-1-1.37-1s-1.25.3-1.25.72.19.62,1.2.8l1.2.19c2.3.39,2.91,1.43,2.91,2.79,0,1.74-1.39,2.85-3.92,2.85-2.72,0-4.08-1.3-4.08-3.09h2.48c0,.65.53,1.1,1.7,1.1.88,0,1.33-.3,1.33-.75s-.26-.72-1.3-.9l-1.25-.21c-2.11-.33-2.77-1.39-2.77-2.67,0-1.58,1.3-2.8,3.78-2.8S1138.54,611.24,1138.54,612.93Z" fill="#1c2126"/><path d="M1147.49,612.93H1145c0-.57-.53-1-1.38-1s-1.25.3-1.25.72.2.62,1.2.8l1.2.19c2.31.39,2.92,1.43,2.92,2.79,0,1.74-1.39,2.85-3.92,2.85-2.72,0-4.09-1.3-4.09-3.09h2.49c0,.65.52,1.1,1.69,1.1.88,0,1.33-.3,1.33-.75s-.26-.72-1.3-.9l-1.24-.21c-2.12-.33-2.77-1.39-2.77-2.67,0-1.58,1.29-2.8,3.77-2.8S1147.49,611.24,1147.49,612.93Z" fill="#1c2126"/><path d="M1152,617.64a1.6,1.6,0,1,1-1.6-1.62A1.55,1.55,0,0,1,1152,617.64Z" fill="#1c2126"/><path d="M1156.27,606.34v12.72h-2.5V606.34Z" fill="#1c2126"/><path d="M1167,614.6a4.71,4.71,0,1,1-4.7-4.69A4.42,4.42,0,0,1,1167,614.6Zm-6.81,0a2.12,2.12,0,0,0,2.11,2.41c1.29,0,2.1-.94,2.1-2.41s-.81-2.42-2.1-2.42S1160.16,613.12,1160.16,614.6Z" fill="#1c2126"/><path d="M1176.59,610.12l-3.26,8.94h-3l-3.29-8.94h2.64l2.17,6.32,2.16-6.32Z" fill="#1c2126"/><path d="M1186.06,615.33h-6.61a1.92,1.92,0,0,0,2,1.81,1.83,1.83,0,0,0,1.75-.8h2.66a5,5,0,1,1,.17-1.77Zm-6.58-1.71h3.94a1.87,1.87,0,0,0-2-1.58A2,2,0,0,0,1179.48,613.62Z" fill="#1c2126"/><path d="M605.51,559.45V538.32H618v2.37H608.1v7.25h9v2.3h-9v9.21Z" fill="#1c2126"/><path d="M625.54,551v8.42H623V538.32h7.09c4.19,0,6.81,2.43,6.81,6.35A5.91,5.91,0,0,1,633,550.5l4.3,9h-2.91L630.41,551Zm0-2.18h4.19c2.92,0,4.56-1.48,4.56-4.12s-1.61-4.11-4.44-4.11h-4.31Z" fill="#1c2126"/><path d="M648.15,559.89c-4.81,0-7.75-3.45-7.75-9.3v-3.41c0-5.85,2.94-9.3,7.75-9.3s7.75,3.45,7.75,9.3v3.41C655.9,556.44,653,559.89,648.15,559.89Zm5.14-9.31v-3.39c0-4.41-1.93-6.87-5.14-6.87s-5.14,2.46-5.14,6.87v3.39c0,4.41,1.93,6.87,5.14,6.87S653.29,555,653.29,550.58Z" fill="#1c2126"/><path d="M661.38,559.45h-2.3V538.32H662l4.64,13.12h.19l4.62-13.12h2.9v21.13H672v-8.11l.13-8.56H672l-4.25,11.71h-2l-4.25-11.71h-.19l.14,8.56Z" fill="#1c2126"/><path d="M682.59,545.58a2.65,2.65,0,1,1,2.65,2.71A2.7,2.7,0,0,1,682.59,545.58Zm0,11.25a2.65,2.65,0,1,1,2.65,2.71A2.68,2.68,0,0,1,682.59,556.83Z" fill="#1c2126"/><circle cx="733.24" cy="548.15" r="31.98" fill="#1c2126"/><path d="M791.37,562a13.93,13.93,0,0,1-5-.86,10.66,10.66,0,0,1-6.3-6.3,13.81,13.81,0,0,1-.87-5,13.54,13.54,0,0,1,.9-5,11.12,11.12,0,0,1,2.58-3.91,11.78,11.78,0,0,1,4-2.53,13.78,13.78,0,0,1,5.07-.9,13.44,13.44,0,0,1,4.55.74,10.32,10.32,0,0,1,3.54,2.12,9.19,9.19,0,0,1,2.28,3.27,10.78,10.78,0,0,1,.8,4.26,11.44,11.44,0,0,1-.7,4.2,6.47,6.47,0,0,1-1.93,2.77,4.55,4.55,0,0,1-2.91,1,3.24,3.24,0,0,1-2.55-1,3.31,3.31,0,0,1-.73-2.61l.51.14a5.85,5.85,0,0,1-2,2.56,4.88,4.88,0,0,1-2.79.88,4.34,4.34,0,0,1-3.43-1.36,5.39,5.39,0,0,1-1.22-3.73,8.24,8.24,0,0,1,.8-3.69,6.21,6.21,0,0,1,2.2-2.52,5.75,5.75,0,0,1,3.19-.91,4.13,4.13,0,0,1,2.59.76,3.51,3.51,0,0,1,1.3,2.13h-.33l.47-2.64h1.85l-1.29,7.26c0,.24-.07.47-.1.7s0,.43,0,.61a2,2,0,0,0,.44,1.4,1.65,1.65,0,0,0,1.3.48,2.75,2.75,0,0,0,2-.81,5.38,5.38,0,0,0,1.31-2.26,10.66,10.66,0,0,0,.48-3.37,9.37,9.37,0,0,0-.67-3.64,7.65,7.65,0,0,0-1.93-2.77,8.69,8.69,0,0,0-3-1.77,11.75,11.75,0,0,0-3.91-.61,11.94,11.94,0,0,0-4.41.77,9.42,9.42,0,0,0-5.56,5.58,12.48,12.48,0,0,0-.75,4.43,12,12,0,0,0,1.26,5.68,8.6,8.6,0,0,0,3.59,3.65,11.36,11.36,0,0,0,5.51,1.28,12.05,12.05,0,0,0,4.22-.71,8.25,8.25,0,0,0,3.14-2l.92,1.37a8.76,8.76,0,0,1-3.54,2.18A14.41,14.41,0,0,1,791.37,562ZM790,554.18a3.81,3.81,0,0,0,2.3-.74,5,5,0,0,0,1.58-2.06,7.5,7.5,0,0,0,.57-3,3.47,3.47,0,0,0-.7-2.38,2.81,2.81,0,0,0-2.21-.78,4,4,0,0,0-2.31.7,4.73,4.73,0,0,0-1.61,1.93,6.58,6.58,0,0,0-.59,2.86,3.85,3.85,0,0,0,.77,2.57A2.75,2.75,0,0,0,790,554.18Z" fill="#1c2126"/><path d="M806.82,557.45V536.84h2.27v20.61Z" fill="#1c2126"/><path d="M812.93,563.81l-.54-1.88a11.39,11.39,0,0,0,2.2-.71,4.26,4.26,0,0,0,1.47-1.08,6.19,6.19,0,0,0,1-1.68l.73-1.65-.06,1-6.13-14.36h2.46l5.07,12.35h-.73l5-12.35h2.38l-6.5,15.23a10.23,10.23,0,0,1-1.23,2.25,7.32,7.32,0,0,1-1.44,1.49,6.94,6.94,0,0,1-1.7.91A12.53,12.53,0,0,1,812.93,563.81Z" fill="#1c2126"/><path d="M828.35,557.45v-10.8c0-.53,0-1.06-.07-1.61s-.1-1.1-.15-1.64h2.18l.28,3.08h-.33a4.86,4.86,0,0,1,2-2.48,5.81,5.81,0,0,1,3.15-.85,5,5,0,0,1,3.77,1.33,5.86,5.86,0,0,1,1.27,4.18v8.79h-2.27V548.8a4.31,4.31,0,0,0-.8-2.9,3.13,3.13,0,0,0-2.47-.91,4.06,4.06,0,0,0-3.11,1.21,4.44,4.44,0,0,0-1.15,3.22v8Z" fill="#1c2126"/><path d="M844.76,557.45v-10.8c0-.53,0-1.06-.07-1.61s-.1-1.1-.15-1.64h2.18l.28,3.08h-.33a4.81,4.81,0,0,1,2-2.48,5.76,5.76,0,0,1,3.15-.85,4.94,4.94,0,0,1,3.76,1.33,5.86,5.86,0,0,1,1.28,4.18v8.79h-2.27V548.8a4.37,4.37,0,0,0-.8-2.9,3.13,3.13,0,0,0-2.47-.91,4.06,4.06,0,0,0-3.11,1.21,4.44,4.44,0,0,0-1.15,3.22v8Z" fill="#1c2126"/><path d="M866.52,557.71a6,6,0,0,1-3.28-.89,5.78,5.78,0,0,1-2.17-2.5,10.31,10.31,0,0,1,0-7.82,5.75,5.75,0,0,1,2.17-2.49,6.08,6.08,0,0,1,3.28-.86,5.64,5.64,0,0,1,3.29,1,4.56,4.56,0,0,1,1.83,2.62h-.34l.31-3.33h2.19c-.06.54-.11,1.08-.16,1.64s-.07,1.08-.07,1.61v10.8H871.3v-3.3h.31a4.42,4.42,0,0,1-1.85,2.6A5.57,5.57,0,0,1,866.52,557.71Zm.44-1.85a4,4,0,0,0,3.2-1.39,7.63,7.63,0,0,0,0-8.12,4.34,4.34,0,0,0-6.37,0,7.52,7.52,0,0,0,0,8.12A4,4,0,0,0,867,555.86Z" fill="#1c2126"/><path d="M878,557.45v-10.8c0-.53,0-1.06-.07-1.61s-.1-1.1-.15-1.64h2.18l.28,3.08h-.34a4.83,4.83,0,0,1,2-2.48,5.76,5.76,0,0,1,3.15-.85,5,5,0,0,1,3.76,1.33,5.86,5.86,0,0,1,1.28,4.18v8.79h-2.27V548.8a4.37,4.37,0,0,0-.8-2.9,3.15,3.15,0,0,0-2.48-.91,4.09,4.09,0,0,0-3.11,1.21,4.48,4.48,0,0,0-1.14,3.22v8Z" fill="#1c2126"/><path d="M899.7,557.71a5.93,5.93,0,0,1-3.25-.89,5.72,5.72,0,0,1-2.17-2.5,10.31,10.31,0,0,1,0-7.82,5.69,5.69,0,0,1,2.17-2.49,6,6,0,0,1,3.25-.86,5.66,5.66,0,0,1,3.29,1,4.61,4.61,0,0,1,1.86,2.57h-.34v-9.83h2.27v20.61h-2.24v-3.36h.31a4.58,4.58,0,0,1-1.85,2.65A5.71,5.71,0,0,1,899.7,557.71Zm.47-1.85a4,4,0,0,0,3.19-1.39,7.42,7.42,0,0,0,0-8.12,4.34,4.34,0,0,0-6.37,0,7.52,7.52,0,0,0,0,8.12A4,4,0,0,0,900.17,555.86Z" fill="#1c2126"/><path d="M916.16,557.71a4,4,0,0,1-3.16-1.2,5.14,5.14,0,0,1-1.1-3.59v-7.76h-2.74V543.4h2.74v-3.84l2.27-.64v4.48h4v1.76h-4v7.51a3.81,3.81,0,0,0,.58,2.39,2.05,2.05,0,0,0,1.72.71,4,4,0,0,0,.95-.1,4.87,4.87,0,0,0,.76-.23v1.9a5,5,0,0,1-.94.27A6.78,6.78,0,0,1,916.16,557.71Z" fill="#1c2126"/><path d="M926.6,557.71a6.78,6.78,0,0,1-3.51-.89,5.77,5.77,0,0,1-2.31-2.52,9.72,9.72,0,0,1,0-7.77,5.89,5.89,0,0,1,2.31-2.5,6.78,6.78,0,0,1,3.51-.88,6.85,6.85,0,0,1,3.55.88,6,6,0,0,1,2.32,2.5,9.51,9.51,0,0,1,0,7.77,5.91,5.91,0,0,1-2.32,2.52A6.85,6.85,0,0,1,926.6,557.71Zm0-1.85a4,4,0,0,0,3.2-1.39,7.63,7.63,0,0,0,0-8.12,4,4,0,0,0-3.2-1.39,4,4,0,0,0-3.16,1.39,7.57,7.57,0,0,0,0,8.12A3.92,3.92,0,0,0,926.6,555.86Z" fill="#1c2126"/><path d="M936.82,557.45v-10.8c0-.53,0-1.06-.07-1.61s-.09-1.1-.15-1.64h2.18l.28,3.08h-.33a4.86,4.86,0,0,1,2-2.48,5.81,5.81,0,0,1,3.15-.85,5,5,0,0,1,3.77,1.33,5.86,5.86,0,0,1,1.27,4.18v8.79h-2.27V548.8a4.37,4.37,0,0,0-.79-2.9,3.17,3.17,0,0,0-2.48-.91,4.08,4.08,0,0,0-3.11,1.21,4.44,4.44,0,0,0-1.15,3.22v8Z" fill="#1c2126"/><path d="M953,540.21v-2.55h2.8v2.55Zm.28,17.24V543.4h2.27v14.05Z" fill="#1c2126"/><path d="M965.8,557.71a6.91,6.91,0,0,1-3.59-.9,6,6,0,0,1-2.36-2.55,8.68,8.68,0,0,1-.82-3.92,8.32,8.32,0,0,1,.84-3.9,5.7,5.7,0,0,1,2.36-2.45,7.19,7.19,0,0,1,3.57-.84,7.35,7.35,0,0,1,2.62.47,5.79,5.79,0,0,1,2.12,1.34l-.82,1.63a5.77,5.77,0,0,0-1.83-1.21,5.29,5.29,0,0,0-1.95-.39,4.24,4.24,0,0,0-3.38,1.38,5.85,5.85,0,0,0-1.21,4,6,6,0,0,0,1.21,4,4.18,4.18,0,0,0,3.38,1.43,5.4,5.4,0,0,0,1.92-.37,5.28,5.28,0,0,0,1.86-1.2l.82,1.6a5.71,5.71,0,0,1-2.16,1.37A7.35,7.35,0,0,1,965.8,557.71Z" fill="#1c2126"/><path d="M167.16,562a13.84,13.84,0,0,1-5-.86,10.71,10.71,0,0,1-3.84-2.45,10.88,10.88,0,0,1-2.46-3.85,13.81,13.81,0,0,1-.87-5,13.54,13.54,0,0,1,.9-5,11,11,0,0,1,2.57-3.91,11.82,11.82,0,0,1,4-2.53,13.78,13.78,0,0,1,5.07-.9,13.49,13.49,0,0,1,4.55.74,10.32,10.32,0,0,1,3.54,2.12,9.19,9.19,0,0,1,2.28,3.27,11,11,0,0,1,.8,4.26,11.66,11.66,0,0,1-.7,4.2,6.47,6.47,0,0,1-1.93,2.77,4.58,4.58,0,0,1-2.92,1,3.2,3.2,0,0,1-2.54-1,3.31,3.31,0,0,1-.73-2.61l.5.14a5.71,5.71,0,0,1-2,2.56,4.85,4.85,0,0,1-2.78.88,4.34,4.34,0,0,1-3.43-1.36,5.34,5.34,0,0,1-1.22-3.73,8.11,8.11,0,0,1,.8-3.69,6.27,6.27,0,0,1,2.19-2.52,5.81,5.81,0,0,1,3.2-.91,4.15,4.15,0,0,1,2.59.76,3.55,3.55,0,0,1,1.3,2.13h-.34l.48-2.64H173l-1.29,7.26c0,.24-.07.47-.1.7a4.55,4.55,0,0,0,0,.61,2,2,0,0,0,.43,1.4,1.68,1.68,0,0,0,1.3.48,2.73,2.73,0,0,0,2-.81,5.5,5.5,0,0,0,1.32-2.26,10.66,10.66,0,0,0,.48-3.37,9.37,9.37,0,0,0-.68-3.64,7.53,7.53,0,0,0-1.93-2.77,8.6,8.6,0,0,0-3-1.77,11.69,11.69,0,0,0-3.9-.61,11.87,11.87,0,0,0-4.41.77,9.65,9.65,0,0,0-3.39,2.18,9.53,9.53,0,0,0-2.17,3.4,12.26,12.26,0,0,0-.76,4.43,12,12,0,0,0,1.26,5.68,8.62,8.62,0,0,0,3.6,3.65,11.32,11.32,0,0,0,5.5,1.28,12.11,12.11,0,0,0,4.23-.71,8.25,8.25,0,0,0,3.14-2l.92,1.37a8.83,8.83,0,0,1-3.54,2.18A14.47,14.47,0,0,1,167.16,562Zm-1.34-7.84a3.78,3.78,0,0,0,2.29-.74,5,5,0,0,0,1.59-2.06,7.5,7.5,0,0,0,.57-3,3.47,3.47,0,0,0-.7-2.38,2.83,2.83,0,0,0-2.21-.78,4,4,0,0,0-2.31.7,4.73,4.73,0,0,0-1.61,1.93,6.58,6.58,0,0,0-.59,2.86,3.85,3.85,0,0,0,.77,2.57A2.74,2.74,0,0,0,165.82,554.18Z" fill="#1c2126"/><path d="M184,557.45v-2h4.65V539.7h1.23l-5.43,3.39v-2.33l4.84-3h1.68v17.75h4.37v2Z" fill="#1c2126"/><path d="M200.76,557.45v-2h4.65V539.7h1.23l-5.43,3.39v-2.33l4.84-3h1.68v17.75h4.37v2Z" fill="#1c2126"/><path d="M221.2,557.71a4.06,4.06,0,0,1-3.16-1.2,5.14,5.14,0,0,1-1.09-3.59v-7.76H214.2V543.4H217v-3.84l2.26-.64v4.48h4v1.76h-4v7.51a3.88,3.88,0,0,0,.58,2.39,2.05,2.05,0,0,0,1.72.71,4,4,0,0,0,1-.1,4.87,4.87,0,0,0,.76-.23v1.9a4.82,4.82,0,0,1-.94.27A6.57,6.57,0,0,1,221.2,557.71Z" fill="#1c2126"/><path d="M225.63,563.81l-.54-1.88a11.39,11.39,0,0,0,2.2-.71,4.26,4.26,0,0,0,1.47-1.08,6.19,6.19,0,0,0,1-1.68l.73-1.65-.06,1-6.13-14.36h2.46l5.07,12.35h-.73l5-12.35h2.38L232,558.63a10.23,10.23,0,0,1-1.23,2.25,7.32,7.32,0,0,1-1.44,1.49,6.94,6.94,0,0,1-1.7.91A12.53,12.53,0,0,1,225.63,563.81Z" fill="#1c2126"/><path d="M27.75,606.92v12.14H25v-2.13l-4.7-5.41v7.54H17.63V606.92H20L25,612.77v-5.85Z" fill="#1c2126"/><path d="M38.37,615.33H31.76a1.92,1.92,0,0,0,2,1.81,1.81,1.81,0,0,0,1.74-.8H38.2a4.35,4.35,0,0,1-4.44,2.88,4.63,4.63,0,1,1,0-9.26,4.32,4.32,0,0,1,4.62,4.61Zm-6.58-1.71h3.94a1.87,1.87,0,0,0-2-1.58A2,2,0,0,0,31.79,613.62Z" fill="#1c2126"/><path d="M44.93,612.23H43v6.83H40.5v-6.83H38.82v-2.11H40.5V607.3H43v2.82h1.93Z" fill="#1c2126"/><path d="M48.9,606.34v12.72H46.4V606.34Z" fill="#1c2126"/><path d="M53.62,607.59a1.5,1.5,0,1,1-3,0,1.5,1.5,0,1,1,3,0Zm-.24,2.32v9.15h-2.5v-9.15a2.06,2.06,0,0,0,1.25.37A2,2,0,0,0,53.38,609.91Z" fill="#1c2126"/><path d="M58.55,609v1.09h1.87v2.11H58.55v6.83h-2.5v-6.83H54.61v-2.11h1.44V609a2.62,2.62,0,0,1,2.88-2.83h1.75v1.94H59.44A.78.78,0,0,0,58.55,609Z" fill="#1c2126"/><path d="M70.71,610.12l-5,11.89H63.33l1.38-3.28-3.49-8.61h2.51L66,615.69l2.32-5.57Z" fill="#1c2126"/><path d="M109.4,613c0,3.92-2.34,6.22-5.8,6.22s-5.79-2.3-5.79-6.22,2.33-6.25,5.79-6.25S109.4,609.08,109.4,613Zm-8.79,0c0,2.35,1.3,3.66,3,3.66s3-1.31,3-3.66-1.32-3.67-3-3.67S100.61,610.63,100.61,613Z" fill="#1c2126"/><path d="M120.32,610.53h-2.8c0-.89-.67-1.52-1.85-1.52s-1.7.55-1.7,1.23.38,1,1.49,1.3l1.37.32c2.64.59,3.73,1.73,3.73,3.73s-1.6,3.63-4.73,3.63-4.9-1.61-4.9-4h2.8a1.88,1.88,0,0,0,2.11,1.84c1.27,0,1.92-.63,1.92-1.44s-.38-1.09-1.57-1.35l-1.32-.27c-2.77-.56-3.72-1.87-3.72-3.73,0-2.06,1.6-3.54,4.58-3.54S120.32,608.29,120.32,610.53Z" fill="#1c2126"/><path d="M131.38,610.53h-2.8c0-.89-.67-1.52-1.86-1.52-1,0-1.69.55-1.69,1.23s.38,1,1.48,1.3l1.38.32c2.64.59,3.73,1.73,3.73,3.73s-1.6,3.63-4.74,3.63-4.9-1.61-4.9-4h2.81a1.88,1.88,0,0,0,2.11,1.84c1.26,0,1.92-.63,1.92-1.44s-.39-1.09-1.57-1.35l-1.33-.27c-2.77-.56-3.71-1.87-3.71-3.73,0-2.06,1.6-3.54,4.58-3.54S131.38,608.29,131.38,610.53Z" fill="#1c2126"/><path d="M91.16,610.11a3.62,3.62,0,0,0-1-1.22,3.91,3.91,0,0,0-2.49-1.14,3.62,3.62,0,0,0-2.51,1.37,8,8,0,0,0-1.41,2.21,6.53,6.53,0,0,0-2.39-2.73,4.09,4.09,0,0,0-3.58-.35,3,3,0,0,0-1.82,3,5,5,0,0,0,2,2.88q3.32,3,6.72,5.87l5-5.64C90.67,613.14,91.8,611.56,91.16,610.11Z" fill="#ff6b60" stroke="#ff6b60" stroke-linejoin="round"/></svg>