<svg xmlns="http://www.w3.org/2000/svg" xmlns:xlink="http://www.w3.org/1999/xlink" width="1200" height="630" viewBox="0 0 1200 630"><defs><clipPath id="a"><rect x="-1220" width="1200" height="498.72" fill="none"/></clipPath><clipPath id="b"><rect width="1200" height="498.72" fill="none"/></clipPath><radialGradient id="c" cx="1097.44" cy="565" r="111.35" gradientUnits="userSpaceOnUse"><stop offset="0" stop-color="#20c6b7"/><stop offset="1" stop-color="#4d9abf"/></radialGradient></defs><rect x="-2510.07" y="-89.85" width="6221.73" height="2273.11" fill="#a6a6a6"/><rect width="1200" height="498.72" fill="#db4648"/><g clip-path="url(#a)"><polygon points="-49.04 176.12 -15.52 156.76 18.01 176.12 -15.52 195.47 -49.04 176.12" fill="#ffdd73" stroke="#1c2126" stroke-linejoin="round" stroke-width="2"/><polygon points="18.01 176.12 18.01 214.83 -15.52 234.19 -15.52 195.47 18.01 176.12" fill="#b7790b" stroke="#1c2126" stroke-linejoin="round" stroke-width="2"/><polygon points="-49.04 60.09 -15.52 40.74 18.01 60.09 -15.52 79.45 -49.04 60.09" fill="#ffdd73" stroke="#1c2126" stroke-linejoin="round" stroke-width="2"/><polygon points="18.01 60.09 18.01 98.81 -15.52 118.16 -15.52 79.45 18.01 60.09" fill="#b7790b" stroke="#1c2126" stroke-linejoin="round" stroke-width="2"/><polygon points="18.01 -55.93 18.01 -17.21 -15.52 2.14 -15.52 -36.57 18.01 -55.93" fill="#b7790b" stroke="#1c2126" stroke-linejoin="round" stroke-width="2"/><polygon points="-49.04 291.91 -15.52 272.55 18.01 291.91 -15.52 311.26 -49.04 291.91" fill="#ffdd73" stroke="#1c2126" stroke-linejoin="round" stroke-width="2"/><polygon points="18.01 291.91 18.01 330.62 -15.52 349.98 -15.52 311.26 18.01 291.91" fill="#b7790b" stroke="#1c2126" stroke-linejoin="round" stroke-width="2"/><polygon points="-49.04 407.7 -15.52 388.34 18.01 407.7 -15.52 427.06 -49.04 407.7" fill="#ffdd73" stroke="#1c2126" stroke-linejoin="round" stroke-width="2"/><polygon points="18.01 407.7 18.01 446.41 -15.52 465.77 -15.52 427.06 18.01 407.7" fill="#b7790b" stroke="#1c2126" stroke-linejoin="round" stroke-width="2"/></g><g clip-path="url(#b)"><rect x="208.68" y="-168.46" width="200" height="200" transform="translate(138.82 198.22) rotate(-45)" fill="#ff6b60"/><polyline points="311.51 70.14 308.68 72.96 305.85 70.14" fill="none" stroke="#1c2126" stroke-linejoin="round" stroke-width="2"/><line x1="300.42" y1="64.7" x2="172.8" y2="-62.91" fill="none" stroke="#1c2126" stroke-linejoin="round" stroke-width="2" stroke-dasharray="7.68 7.68"/><line x1="441.84" y1="-60.2" x2="314.22" y2="67.42" fill="none" stroke="#1c2126" stroke-linejoin="round" stroke-width="2" stroke-dasharray="7.68 7.68"/><rect x="233.69" y="-143.45" width="149.98" height="149.98" transform="translate(42 -238.32) rotate(45)" fill="#ffd3bf" stroke="#1c2126" stroke-linejoin="round" stroke-width="2"/><rect x="367.34" y="-9.8" width="200" height="200" transform="translate(73.1 356.88) rotate(-45)" fill="#ff6b60"/><polyline points="470.17 228.79 467.34 231.62 464.51 228.79" fill="none" stroke="#1c2126" stroke-linejoin="round" stroke-width="2"/><line x1="459.08" y1="223.36" x2="331.46" y2="95.74" fill="none" stroke="#1c2126" stroke-linejoin="round" stroke-width="2" stroke-dasharray="7.68 7.68"/><polyline points="328.75 93.03 325.92 90.2 328.75 87.37" fill="none" stroke="#1c2126" stroke-linejoin="round" stroke-width="2"/><line x1="334.18" y1="81.94" x2="461.79" y2="-45.68" fill="none" stroke="#1c2126" stroke-linejoin="round" stroke-width="2" stroke-dasharray="7.68 7.68"/><line x1="475.6" y1="-42.96" x2="603.22" y2="84.66" fill="none" stroke="#1c2126" stroke-linejoin="round" stroke-width="2" stroke-dasharray="7.68 7.68"/><polyline points="605.93 87.37 608.76 90.2 605.93 93.03" fill="none" stroke="#1c2126" stroke-linejoin="round" stroke-width="2"/><line x1="600.5" y1="98.46" x2="472.88" y2="226.08" fill="none" stroke="#1c2126" stroke-linejoin="round" stroke-width="2" stroke-dasharray="7.68 7.68"/><rect x="392.35" y="15.21" width="149.98" height="149.98" transform="translate(200.66 -304.04) rotate(45)" fill="#ffd3bf" stroke="#1c2126" stroke-linejoin="round" stroke-width="2"/><rect x="421.8" y="44.66" width="91.07" height="91.07" transform="translate(200.66 -304.04) rotate(45)" fill="#bffde7" stroke="#1c2126" stroke-linejoin="round" stroke-width="2" stroke-dasharray="8"/><rect x="447.91" y="70.78" width="38.85" height="38.85" transform="translate(200.66 -304.04) rotate(45)" fill="#30c8c9" stroke="#1c2126" stroke-linejoin="round" stroke-width="2"/><rect x="524.06" y="-171.5" width="200" height="200" transform="translate(233.34 420.34) rotate(-45)" fill="#ff6b60"/><polyline points="626.89 67.1 624.06 69.92 621.23 67.1" fill="none" stroke="#1c2126" stroke-linejoin="round" stroke-width="2"/><line x1="615.8" y1="61.67" x2="488.18" y2="-65.95" fill="none" stroke="#1c2126" stroke-linejoin="round" stroke-width="2" stroke-dasharray="7.68 7.68"/><line x1="757.22" y1="-63.24" x2="629.6" y2="64.38" fill="none" stroke="#1c2126" stroke-linejoin="round" stroke-width="2" stroke-dasharray="7.68 7.68"/><rect x="549.07" y="-146.49" width="149.98" height="149.98" transform="translate(132.23 -462.22) rotate(45)" fill="#ffd3bf" stroke="#1c2126" stroke-linejoin="round" stroke-width="2"/><rect x="49.15" y="-8.93" width="200" height="200" transform="translate(-20.71 132.14) rotate(-45)" fill="#ff6b60"/><polyline points="151.98 229.66 149.15 232.49 146.32 229.66" fill="none" stroke="#1c2126" stroke-linejoin="round" stroke-width="2"/><line x1="140.89" y1="224.23" x2="13.27" y2="96.62" fill="none" stroke="#1c2126" stroke-linejoin="round" stroke-width="2" stroke-dasharray="7.68 7.68"/><polyline points="10.56 93.9 7.73 91.07 10.56 88.24" fill="none" stroke="#1c2126" stroke-linejoin="round" stroke-width="2"/><line x1="15.99" y1="82.81" x2="143.61" y2="-44.81" fill="none" stroke="#1c2126" stroke-linejoin="round" stroke-width="2" stroke-dasharray="7.68 7.68"/><line x1="157.41" y1="-42.09" x2="285.03" y2="85.53" fill="none" stroke="#1c2126" stroke-linejoin="round" stroke-width="2" stroke-dasharray="7.68 7.68"/><polyline points="287.74 88.24 290.57 91.07 287.74 93.9" fill="none" stroke="#1c2126" stroke-linejoin="round" stroke-width="2"/><line x1="282.31" y1="99.33" x2="154.69" y2="226.95" fill="none" stroke="#1c2126" stroke-linejoin="round" stroke-width="2" stroke-dasharray="7.68 7.68"/><rect x="74.16" y="16.08" width="149.98" height="149.98" transform="translate(108.08 -78.79) rotate(45)" fill="#ffd3bf" stroke="#1c2126" stroke-linejoin="round" stroke-width="2"/><rect x="103.61" y="45.54" width="91.07" height="91.07" transform="translate(108.08 -78.79) rotate(45)" fill="#bffde7" stroke="#1c2126" stroke-linejoin="round" stroke-width="2" stroke-dasharray="8"/><rect x="129.72" y="71.65" width="38.85" height="38.85" transform="translate(108.08 -78.79) rotate(45)" fill="#30c8c9" stroke="#1c2126" stroke-linejoin="round" stroke-width="2"/><rect x="-111.25" y="-168.09" width="200" height="200" transform="translate(44.85 -27.9) rotate(-45)" fill="#ff6b60"/><line x1="121.91" y1="-59.84" x2="-5.71" y2="67.78" fill="none" stroke="#1c2126" stroke-linejoin="round" stroke-width="2" stroke-dasharray="7.68 7.68"/><rect x="-86.24" y="-143.08" width="149.98" height="149.98" transform="translate(-51.45 -11.99) rotate(45)" fill="#ffd3bf" stroke="#1c2126" stroke-linejoin="round" stroke-width="2"/><rect x="207.81" y="149.73" width="200" height="200" transform="translate(-86.43 290.8) rotate(-45)" fill="#ff6b60"/><polyline points="310.64 388.32 307.81 391.15 304.98 388.32" fill="none" stroke="#1c2126" stroke-linejoin="round" stroke-width="2"/><line x1="299.55" y1="382.89" x2="171.93" y2="255.27" fill="none" stroke="#1c2126" stroke-linejoin="round" stroke-width="2" stroke-dasharray="7.68 7.68"/><polyline points="169.22 252.56 166.39 249.73 169.22 246.9" fill="none" stroke="#1c2126" stroke-linejoin="round" stroke-width="2"/><line x1="174.65" y1="241.47" x2="302.26" y2="113.85" fill="none" stroke="#1c2126" stroke-linejoin="round" stroke-width="2" stroke-dasharray="7.68 7.68"/><polyline points="304.98 111.14 307.81 108.31 310.64 111.14" fill="none" stroke="#1c2126" stroke-linejoin="round" stroke-width="2"/><line x1="316.07" y1="116.57" x2="443.69" y2="244.19" fill="none" stroke="#1c2126" stroke-linejoin="round" stroke-width="2" stroke-dasharray="7.68 7.68"/><polyline points="446.4 246.9 449.23 249.73 446.4 252.56" fill="none" stroke="#1c2126" stroke-linejoin="round" stroke-width="2"/><line x1="440.97" y1="257.99" x2="313.35" y2="385.61" fill="none" stroke="#1c2126" stroke-linejoin="round" stroke-width="2" stroke-dasharray="7.68 7.68"/><rect x="232.82" y="174.74" width="149.98" height="149.98" transform="translate(266.74 -144.51) rotate(45)" fill="#ffd3bf" stroke="#1c2126" stroke-linejoin="round" stroke-width="2"/><rect x="262.27" y="204.19" width="91.07" height="91.07" transform="translate(266.74 -144.51) rotate(45)" fill="#bffde7" stroke="#1c2126" stroke-linejoin="round" stroke-width="2" stroke-dasharray="8"/><rect x="288.38" y="230.31" width="38.85" height="38.85" transform="translate(266.74 -144.51) rotate(45)" fill="#30c8c9" stroke="#1c2126" stroke-linejoin="round" stroke-width="2"/><rect x="365.4" y="307.32" width="200" height="200" transform="translate(-151.71 448.39) rotate(-45)" fill="#ff6b60"/><polyline points="468.23 545.91 465.4 548.74 462.57 545.91" fill="none" stroke="#1c2126" stroke-linejoin="round" stroke-width="2"/><line x1="457.14" y1="540.48" x2="329.52" y2="412.87" fill="none" stroke="#1c2126" stroke-linejoin="round" stroke-width="2" stroke-dasharray="7.68 7.68"/><polyline points="326.81 410.15 323.98 407.32 326.81 404.49" fill="none" stroke="#1c2126" stroke-linejoin="round" stroke-width="2"/><line x1="332.24" y1="399.06" x2="459.86" y2="271.44" fill="none" stroke="#1c2126" stroke-linejoin="round" stroke-width="2" stroke-dasharray="7.68 7.68"/><polyline points="462.57 268.73 465.4 265.9 468.23 268.73" fill="none" stroke="#1c2126" stroke-linejoin="round" stroke-width="2"/><line x1="473.66" y1="274.16" x2="601.28" y2="401.78" fill="none" stroke="#1c2126" stroke-linejoin="round" stroke-width="2" stroke-dasharray="7.68 7.68"/><polyline points="603.99 404.49 606.82 407.32 603.99 410.15" fill="none" stroke="#1c2126" stroke-linejoin="round" stroke-width="2"/><line x1="598.56" y1="415.58" x2="470.94" y2="543.2" fill="none" stroke="#1c2126" stroke-linejoin="round" stroke-width="2" stroke-dasharray="7.68 7.68"/><rect x="390.41" y="332.33" width="149.98" height="149.98" transform="translate(424.33 -209.79) rotate(45)" fill="#ffd3bf" stroke="#1c2126" stroke-linejoin="round" stroke-width="2"/><rect x="419.86" y="361.79" width="91.07" height="91.07" transform="translate(424.33 -209.79) rotate(45)" fill="#bffde7" stroke="#1c2126" stroke-linejoin="round" stroke-width="2" stroke-dasharray="8"/><rect x="445.97" y="387.9" width="38.85" height="38.85" transform="translate(424.33 -209.79) rotate(45)" fill="#30c8c9" stroke="#1c2126" stroke-linejoin="round" stroke-width="2"/><rect x="524.06" y="465.98" width="200" height="200" transform="translate(-217.43 607.05) rotate(-45)" fill="#ff6b60"/><line x1="615.8" y1="699.14" x2="488.18" y2="571.53" fill="none" stroke="#1c2126" stroke-linejoin="round" stroke-width="2" stroke-dasharray="7.68 7.68"/><polyline points="485.47 568.81 482.64 565.98 485.47 563.15" fill="none" stroke="#1c2126" stroke-linejoin="round" stroke-width="2"/><line x1="490.9" y1="557.72" x2="618.52" y2="430.1" fill="none" stroke="#1c2126" stroke-linejoin="round" stroke-width="2" stroke-dasharray="7.68 7.68"/><polyline points="621.23 427.39 624.06 424.56 626.89 427.39" fill="none" stroke="#1c2126" stroke-linejoin="round" stroke-width="2"/><line x1="632.32" y1="432.82" x2="759.94" y2="560.44" fill="none" stroke="#1c2126" stroke-linejoin="round" stroke-width="2" stroke-dasharray="7.68 7.68"/><polyline points="762.65 563.15 765.48 565.98 762.65 568.81" fill="none" stroke="#1c2126" stroke-linejoin="round" stroke-width="2"/><line x1="757.22" y1="574.24" x2="629.6" y2="701.86" fill="none" stroke="#1c2126" stroke-linejoin="round" stroke-width="2" stroke-dasharray="7.68 7.68"/><rect x="549.07" y="490.99" width="149.98" height="149.98" transform="translate(582.99 -275.5) rotate(45)" fill="#ffd3bf" stroke="#1c2126" stroke-linejoin="round" stroke-width="2"/><rect x="578.52" y="520.45" width="91.07" height="91.07" transform="translate(582.99 -275.5) rotate(45)" fill="#bffde7" stroke="#1c2126" stroke-linejoin="round" stroke-width="2" stroke-dasharray="8"/><rect x="604.63" y="546.56" width="38.85" height="38.85" transform="translate(582.99 -275.5) rotate(45)" fill="#30c8c9" stroke="#1c2126" stroke-linejoin="round" stroke-width="2"/><rect x="-110.38" y="150.6" width="200" height="200" transform="translate(-180.24 66.06) rotate(-45)" fill="#ff6b60"/><line x1="-2.12" y1="117.44" x2="125.5" y2="245.06" fill="none" stroke="#1c2126" stroke-linejoin="round" stroke-width="2" stroke-dasharray="7.68 7.68"/><polyline points="128.21 247.77 131.04 250.6 128.21 253.43" fill="none" stroke="#1c2126" stroke-linejoin="round" stroke-width="2"/><line x1="122.78" y1="258.86" x2="-4.84" y2="386.48" fill="none" stroke="#1c2126" stroke-linejoin="round" stroke-width="2" stroke-dasharray="7.68 7.68"/><rect x="-85.37" y="175.61" width="149.98" height="149.98" transform="translate(174.16 80.74) rotate(45)" fill="#ffd3bf" stroke="#1c2126" stroke-linejoin="round" stroke-width="2"/><rect x="-55.92" y="205.07" width="91.07" height="91.07" transform="translate(174.16 80.74) rotate(45)" fill="#bffde7" stroke="#1c2126" stroke-linejoin="round" stroke-width="2" stroke-dasharray="8"/><rect x="-29.81" y="231.18" width="38.85" height="38.85" transform="translate(174.16 80.74) rotate(45)" fill="#30c8c9" stroke="#1c2126" stroke-linejoin="round" stroke-width="2"/><rect x="48.28" y="309.26" width="200" height="200" transform="translate(-245.96 224.72) rotate(-45)" fill="#ff6b60"/><polyline points="151.11 547.85 148.28 550.68 145.45 547.85" fill="none" stroke="#1c2126" stroke-linejoin="round" stroke-width="2"/><line x1="140.02" y1="542.42" x2="12.4" y2="414.8" fill="none" stroke="#1c2126" stroke-linejoin="round" stroke-width="2" stroke-dasharray="7.68 7.68"/><polyline points="9.69 412.09 6.86 409.26 9.69 406.43" fill="none" stroke="#1c2126" stroke-linejoin="round" stroke-width="2"/><line x1="15.12" y1="401" x2="142.73" y2="273.38" fill="none" stroke="#1c2126" stroke-linejoin="round" stroke-width="2" stroke-dasharray="7.68 7.68"/><polyline points="145.45 270.67 148.28 267.84 151.11 270.67" fill="none" stroke="#1c2126" stroke-linejoin="round" stroke-width="2"/><line x1="156.54" y1="276.1" x2="284.16" y2="403.72" fill="none" stroke="#1c2126" stroke-linejoin="round" stroke-width="2" stroke-dasharray="7.68 7.68"/><polyline points="286.87 406.43 289.7 409.26 286.87 412.09" fill="none" stroke="#1c2126" stroke-linejoin="round" stroke-width="2"/><line x1="281.44" y1="417.52" x2="153.82" y2="545.14" fill="none" stroke="#1c2126" stroke-linejoin="round" stroke-width="2" stroke-dasharray="7.68 7.68"/><rect x="73.29" y="334.27" width="149.98" height="149.98" transform="translate(332.82 15.02) rotate(45)" fill="#ffd3bf" stroke="#1c2126" stroke-linejoin="round" stroke-width="2"/><rect x="102.74" y="363.72" width="91.07" height="91.07" transform="translate(332.82 15.02) rotate(45)" fill="#bffde7" stroke="#1c2126" stroke-linejoin="round" stroke-width="2" stroke-dasharray="8"/><rect x="128.85" y="389.84" width="38.85" height="38.85" transform="translate(332.82 15.02) rotate(45)" fill="#30c8c9" stroke="#1c2126" stroke-linejoin="round" stroke-width="2"/><rect x="-111.25" y="468.79" width="200" height="200" transform="translate(-405.49 158.64) rotate(-45)" fill="#ff6b60"/><line x1="-2.99" y1="435.63" x2="124.63" y2="563.25" fill="none" stroke="#1c2126" stroke-linejoin="round" stroke-width="2" stroke-dasharray="7.68 7.68"/><polyline points="127.34 565.96 130.17 568.79 127.34 571.62" fill="none" stroke="#1c2126" stroke-linejoin="round" stroke-width="2"/><line x1="121.91" y1="577.05" x2="-5.71" y2="704.67" fill="none" stroke="#1c2126" stroke-linejoin="round" stroke-width="2" stroke-dasharray="7.68 7.68"/><rect x="-86.24" y="493.8" width="149.98" height="149.98" transform="translate(398.9 174.55) rotate(45)" fill="#ffd3bf" stroke="#1c2126" stroke-linejoin="round" stroke-width="2"/><rect x="-56.79" y="523.25" width="91.07" height="91.07" transform="translate(398.9 174.55) rotate(45)" fill="#bffde7" stroke="#1c2126" stroke-linejoin="round" stroke-width="2" stroke-dasharray="8"/><rect x="-30.68" y="549.37" width="38.85" height="38.85" transform="translate(398.9 174.55) rotate(45)" fill="#30c8c9" stroke="#1c2126" stroke-linejoin="round" stroke-width="2"/><rect x="205.87" y="466.85" width="200" height="200" transform="translate(-311.24 382.31) rotate(-45)" fill="#ff6b60"/><line x1="297.61" y1="700.01" x2="169.99" y2="572.4" fill="none" stroke="#1c2126" stroke-linejoin="round" stroke-width="2" stroke-dasharray="7.68 7.68"/><polyline points="167.28 569.68 164.45 566.85 167.28 564.02" fill="none" stroke="#1c2126" stroke-linejoin="round" stroke-width="2"/><line x1="172.71" y1="558.59" x2="300.33" y2="430.97" fill="none" stroke="#1c2126" stroke-linejoin="round" stroke-width="2" stroke-dasharray="7.68 7.68"/><polyline points="303.04 428.26 305.87 425.43 308.7 428.26" fill="none" stroke="#1c2126" stroke-linejoin="round" stroke-width="2"/><line x1="314.13" y1="433.69" x2="441.75" y2="561.31" fill="none" stroke="#1c2126" stroke-linejoin="round" stroke-width="2" stroke-dasharray="7.68 7.68"/><polyline points="444.46 564.02 447.29 566.85 444.46 569.68" fill="none" stroke="#1c2126" stroke-linejoin="round" stroke-width="2"/><line x1="439.03" y1="575.11" x2="311.41" y2="702.73" fill="none" stroke="#1c2126" stroke-linejoin="round" stroke-width="2" stroke-dasharray="7.68 7.68"/><rect x="230.88" y="491.86" width="149.98" height="149.98" transform="translate(490.41 -50.26) rotate(45)" fill="#ffd3bf" stroke="#1c2126" stroke-linejoin="round" stroke-width="2"/><rect x="260.33" y="521.32" width="91.07" height="91.07" transform="translate(490.41 -50.26) rotate(45)" fill="#bffde7" stroke="#1c2126" stroke-linejoin="round" stroke-width="2" stroke-dasharray="8"/><rect x="286.44" y="547.43" width="38.85" height="38.85" transform="translate(490.41 -50.26) rotate(45)" fill="#30c8c9" stroke="#1c2126" stroke-linejoin="round" stroke-width="2"/><rect x="364.53" y="625.51" width="200" height="200" transform="translate(-376.96 540.97) rotate(-45)" fill="#ff6b60"/><line x1="331.37" y1="717.25" x2="458.99" y2="589.63" fill="none" stroke="#1c2126" stroke-linejoin="round" stroke-width="2" stroke-dasharray="7.68 7.68"/><polyline points="461.7 586.92 464.53 584.09 467.36 586.92" fill="none" stroke="#1c2126" stroke-linejoin="round" stroke-width="2"/><line x1="472.79" y1="592.35" x2="600.41" y2="719.97" fill="none" stroke="#1c2126" stroke-linejoin="round" stroke-width="2" stroke-dasharray="7.68 7.68"/><rect x="389.54" y="650.52" width="149.98" height="149.98" transform="translate(649.07 -115.97) rotate(45)" fill="#ffd3bf" stroke="#1c2126" stroke-linejoin="round" stroke-width="2"/><rect x="46.34" y="626.38" width="200" height="200" transform="translate(-470.77 316.23) rotate(-45)" fill="#ff6b60"/><line x1="13.18" y1="718.12" x2="140.8" y2="590.5" fill="none" stroke="#1c2126" stroke-linejoin="round" stroke-width="2" stroke-dasharray="7.68 7.68"/><polyline points="143.51 587.79 146.34 584.96 149.17 587.79" fill="none" stroke="#1c2126" stroke-linejoin="round" stroke-width="2"/><line x1="154.6" y1="593.22" x2="282.22" y2="720.84" fill="none" stroke="#1c2126" stroke-linejoin="round" stroke-width="2" stroke-dasharray="7.68 7.68"/><rect x="71.35" y="651.39" width="149.98" height="149.98" transform="translate(556.49 109.27) rotate(45)" fill="#ffd3bf" stroke="#1c2126" stroke-linejoin="round" stroke-width="2"/><rect x="683.89" y="625.82" width="200" height="200" transform="translate(-283.63 766.88) rotate(-45)" fill="#ff6b60"/><line x1="650.73" y1="717.56" x2="778.35" y2="589.94" fill="none" stroke="#1c2126" stroke-linejoin="round" stroke-width="2" stroke-dasharray="7.68 7.68"/><polyline points="781.07 587.22 783.89 584.39 786.72 587.22" fill="none" stroke="#1c2126" stroke-linejoin="round" stroke-width="2"/><line x1="792.15" y1="592.65" x2="919.77" y2="720.27" fill="none" stroke="#1c2126" stroke-linejoin="round" stroke-width="2" stroke-dasharray="7.68 7.68"/><rect x="708.9" y="650.83" width="149.98" height="149.98" transform="translate(742.83 -341.71) rotate(45)" fill="#ffd3bf" stroke="#1c2126" stroke-linejoin="round" stroke-width="2"/></g><path d="M680,117.81v45.54H669.82V117.81Z" fill="#fff"/><path d="M710.08,129a7.56,7.56,0,0,0,4.62,1.38,7.94,7.94,0,0,0,4.74-1.38l-.06,37c0,7-4.26,11.28-11.22,11.28h-4.5V169h3.24c2.16,0,3.18-1.08,3.18-3.12Zm10.32-8.7a5.73,5.73,0,1,1-11.46,0,5.73,5.73,0,1,1,11.46,0Z" fill="#fff"/><path d="M757.12,129.81v33.54h-9.36v-3.6a11,11,0,0,1-9.18,4.44c-7.38,0-12.18-5.52-12.18-15.42v-19h9.36V147c0,5.1,2.34,8,5.94,8s6.06-3.06,6.06-7.92V129.81Z" fill="#fff"/><path d="M791.38,140.37H782c-.06-2.16-2-3.84-5.16-3.84s-4.68,1.14-4.68,2.7.72,2.34,4.5,3l4.5.72c8.64,1.44,10.92,5.34,10.92,10.44,0,6.54-5.22,10.68-14.7,10.68-10.2,0-15.3-4.86-15.3-11.58h9.3c.06,2.46,2,4.14,6.36,4.14,3.3,0,5-1.14,5-2.82s-1-2.7-4.86-3.36l-4.68-.78c-7.92-1.26-10.38-5.22-10.38-10,0-5.94,4.86-10.5,14.16-10.5S791.38,134,791.38,140.37Z" fill="#fff"/><path d="M818.32,137.73h-7.26v25.62H801.7V137.73h-6.3v-7.92h6.3V119.25h9.36v10.56h7.26Z" fill="#fff"/><path d="M876.46,143.07h-9.84a6.46,6.46,0,0,0-6.72-5.94c-4.44,0-7.5,3.42-7.5,9.48s3.06,9.42,7.5,9.42a6.45,6.45,0,0,0,6.72-5.88h9.84c-.25,7.8-6.9,14-16.56,14-10.8,0-17.28-7-17.28-17.58S849.1,129,859.9,129C869.56,129,876.21,135.21,876.46,143.07Z" fill="#fff"/><path d="M915.28,146.61c0,10-6.42,17.58-17.64,17.58s-17.7-7.56-17.7-17.58S886.36,129,897.64,129,915.28,136.59,915.28,146.61Zm-25.56,0c0,5.52,3.06,9.06,7.92,9.06s7.86-3.54,7.86-9.06-3-9.06-7.86-9.06S889.72,141.09,889.72,146.61Z" fill="#fff"/><path d="M950.38,129.81v33.54H941v-3.6a11,11,0,0,1-9.18,4.44c-7.38,0-12.18-5.52-12.18-15.42v-19H929V147c0,5.1,2.34,8,5.94,8S941,152,941,147.09V129.81Z" fill="#fff"/><path d="M967.3,115.65v47.7h-9.36v-47.7Z" fill="#fff"/><path d="M1006.66,115.65v47.7H997.3v-4c-2.22,3-5.7,4.8-10.38,4.8-8.7,0-14.82-6.24-14.82-17.58S978.22,129,986.92,129c4.68,0,8.16,1.8,10.38,4.74V115.65Zm-9.36,30.72c0-5.94-3.12-9.3-7.68-9.3s-7.74,3.42-7.74,9.3,3.24,9.3,7.74,9.3S997.3,152.31,997.3,146.37Z" fill="#fff"/><path d="M1045.66,144.39v19h-9.36V146.19c0-5.16-2.46-8-6.24-8s-6.48,3.12-6.48,8v17.22h-9.36V129.81h9.36v3.78a11.34,11.34,0,0,1,9.54-4.56C1040.74,129,1045.66,134.49,1045.66,144.39Z" fill="#fff"/><path d="M1058.08,122.49c0,4.86-2.46,8.46-8.1,10.26l-1.26.42-1.44-4.44,1.26-.36c2.64-.78,4-1.92,4.56-3.66a6.65,6.65,0,0,1-1.14.12,4.82,4.82,0,0,1-5.1-4.8c0-2.88,2.1-5,5.28-5C1055.86,115.05,1058.08,118,1058.08,122.49Z" fill="#fff"/><path d="M1084.54,137.73h-7.26v25.62h-9.36V137.73h-6.3v-7.92h6.3V119.25h9.36v10.56h7.26Z" fill="#fff"/><rect x="574.68" y="207.52" width="593.68" height="100.97" rx="11.89" fill="#1c2126" opacity="0.2"/><path d="M619.14,261v.74l25.66,12.93v10.2l-35.27-19.54v-7.93l35.27-19.53v10.2Z" fill="#fff"/><path d="M656.75,268.79v-7.62c0-11.36,6.1-18.28,15.9-18.28,6.17,0,10.59,2.78,12.19,7.74h.78V227.11H695v59.3h-9.22v-7H685c-1.8,5-6.14,7.69-12.35,7.69C662.85,287.07,656.75,280.2,656.75,268.79Zm29.07-.55v-6.68c0-6.75-3.79-10.93-9.89-10.93S666,254.85,666,261.56v6.68c0,6.72,3.79,10.9,9.92,10.9S685.82,275,685.82,268.24Z" fill="#fff"/><path d="M708.47,286.41v-7.27h14.1V250.9H708.94v-7.27h22.5v35.51h13.44v7.27Zm11.64-58.48c0-3.67,2.74-6.21,6.6-6.21s6.65,2.54,6.65,6.21-2.74,6.21-6.65,6.21S720.11,231.6,720.11,227.93Z" fill="#fff"/><path d="M765,243.63l10.35,33.75h.62l10.24-33.75h9.65l-15.16,42.78H770.43l-15.24-42.78Z" fill="#fff"/><path d="M807.34,237.85l35.27,19.53v7.93l-35.27,19.54v-10.2L833,261.72V261l-25.66-12.93Z" fill="#fff"/><path d="M866.4,261v.74l25.67,12.93v10.2l-35.28-19.54v-7.93l35.28-19.53v10.2Z" fill="#fff"/><path d="M905.82,293.67l26.87-70.9h9.22l-27.07,70.9Z" fill="#fff"/><path d="M953.47,268.79v-7.62c0-11.36,6.1-18.28,15.9-18.28,6.17,0,10.59,2.78,12.19,7.74h.78V227.11h9.37v59.3H982.5v-7h-.79c-1.79,5-6.13,7.69-12.34,7.69C959.57,287.07,953.47,280.2,953.47,268.79Zm29.07-.55v-6.68c0-6.75-3.79-10.93-9.89-10.93s-9.92,4.22-9.92,10.93v6.68c0,6.72,3.79,10.9,9.92,10.9S982.54,275,982.54,268.24Z" fill="#fff"/><path d="M1005.19,286.41v-7.27h14.1V250.9h-13.63v-7.27h22.5v35.51h13.44v7.27Zm11.64-58.48c0-3.67,2.74-6.21,6.6-6.21s6.64,2.54,6.64,6.21-2.73,6.21-6.64,6.21S1016.83,231.6,1016.83,227.93Z" fill="#fff"/><path d="M1061.68,243.63,1072,277.38h.62l10.24-33.75h9.65l-15.16,42.78h-10.24l-15.23-42.78Z" fill="#fff"/><path d="M1104.06,237.85l35.27,19.53v7.93l-35.27,19.54v-10.2l25.66-12.93V261l-25.66-12.93Z" fill="#fff"/><path d="M744,354.86l-9.84,33.53h-9.42L718,367.1l-6.84,21.29H702l-9.84-33.53h9.12l6.3,21.35,6.59-21.35h8l6.53,21.23,6.3-21.23Z" fill="#fff"/><path d="M757,345.38a5.61,5.61,0,1,1-11.22,0,5.61,5.61,0,1,1,11.22,0Zm-.9,8.7v34.31h-9.36V354.08a7.62,7.62,0,0,0,4.68,1.38A7.49,7.49,0,0,0,756.07,354.08Z" fill="#fff"/><path d="M784.69,362.78h-7.26v25.61h-9.36V362.78h-6.3v-7.92h6.3V344.3h9.36v10.56h7.26Z" fill="#fff"/><path d="M822.12,369.44v18.95h-9.35V371.24c0-5.16-2.46-8-6.24-8s-6.42,3.12-6.42,8l-.06-.42v17.64h-9.36V340.7h9.36v17.94a11.26,11.26,0,0,1,9.54-4.56C817.21,354.08,822.12,359.54,822.12,369.44Z" fill="#fff"/><path d="M862.15,371.66c0,10-6.42,17.57-17.64,17.57s-17.7-7.56-17.7-17.57,6.42-17.58,17.7-17.58S862.15,361.64,862.15,371.66Zm-25.56,0c0,5.51,3.06,9,7.92,9s7.86-3.54,7.86-9-3-9.06-7.86-9.06S836.59,366.14,836.59,371.66Z" fill="#fff"/><path d="M897.25,354.86v33.53h-9.36v-3.6a11,11,0,0,1-9.18,4.44c-7.38,0-12.18-5.52-12.18-15.41v-19h9.36v17.22c0,5.09,2.34,8,5.94,8s6.06-3.05,6.06-7.92V354.86Z" fill="#fff"/><path d="M925.33,362.78h-7.26v25.61h-9.36V362.78h-6.3v-7.92h6.3V344.3h9.36v10.56h7.26Z" fill="#fff"/><path d="M983.89,354.86l-18.6,44.57h-9.06l5.16-12.3-13.08-32.27h9.42l8.4,20.88,8.7-20.88Z" fill="#fff"/><path d="M1020.07,371.66c0,10-6.42,17.57-17.64,17.57s-17.7-7.56-17.7-17.57,6.42-17.58,17.7-17.58S1020.07,361.64,1020.07,371.66Zm-25.56,0c0,5.51,3.06,9,7.92,9s7.86-3.54,7.86-9-3-9.06-7.86-9.06S994.51,366.14,994.51,371.66Z" fill="#fff"/><path d="M1055.17,354.86v33.53h-9.36v-3.6a11,11,0,0,1-9.18,4.44c-7.38,0-12.18-5.52-12.18-15.41v-19h9.36v17.22c0,5.09,2.34,8,5.94,8s6.06-3.05,6.06-7.92V354.86Z" fill="#fff"/><rect y="500" width="1200" height="130" fill="#fff"/><rect x="1097.49" y="500" width="102.51" height="130" fill="url(#c)"/><line y1="499.19" x2="1200" y2="499.19" fill="none" stroke="#1c2126" stroke-miterlimit="10"/><line x1="1097.49" y1="498.72" x2="1097.49" y2="630" fill="none" stroke="#1c2126" stroke-miterlimit="10"/><path d="M35.09,576.62V557.86H28.7v-2.38H44.05v2.38H37.67v18.76Z" fill="#1c2126"/><path d="M54.92,577.06c-4.8,0-7.75-3.46-7.75-9.3v-3.41c0-5.85,2.95-9.31,7.75-9.31s7.75,3.46,7.75,9.31v3.41C62.67,573.6,59.73,577.06,54.92,577.06Zm5.14-9.31v-3.39c0-4.41-1.93-6.87-5.14-6.87s-5.14,2.46-5.14,6.87v3.39c0,4.4,1.93,6.87,5.14,6.87S60.06,572.15,60.06,567.75Z" fill="#1c2126"/><path d="M70.82,562.75a2.65,2.65,0,1,1,2.65,2.71A2.7,2.7,0,0,1,70.82,562.75Zm0,11.25a2.65,2.65,0,1,1,2.65,2.71A2.69,2.69,0,0,1,70.82,574Z" fill="#1c2126"/><path d="M209.27,581.51a14.89,14.89,0,0,1-5.34-.91,11.41,11.41,0,0,1-6.75-6.75,14.91,14.91,0,0,1-.93-5.39,14.58,14.58,0,0,1,1-5.4,11.83,11.83,0,0,1,2.76-4.18,12.58,12.58,0,0,1,4.26-2.72,14.82,14.82,0,0,1,5.43-1,14.26,14.26,0,0,1,4.87.8,11,11,0,0,1,3.8,2.26,9.83,9.83,0,0,1,2.44,3.51,11.69,11.69,0,0,1,.86,4.56,12.33,12.33,0,0,1-.75,4.5,6.89,6.89,0,0,1-2.07,3,4.86,4.86,0,0,1-3.12,1.05,3.48,3.48,0,0,1-2.73-1,3.58,3.58,0,0,1-.78-2.81l.54.15a6.19,6.19,0,0,1-2.18,2.75,5.2,5.2,0,0,1-3,.94,4.69,4.69,0,0,1-3.68-1.45,5.79,5.79,0,0,1-1.3-4,8.75,8.75,0,0,1,.85-3.94,6.69,6.69,0,0,1,2.36-2.7,6.14,6.14,0,0,1,3.42-1,4.45,4.45,0,0,1,2.77.81,3.8,3.8,0,0,1,1.4,2.28H213l.51-2.82h2l-1.38,7.77c0,.26-.08.51-.11.75s0,.46,0,.66a2.16,2.16,0,0,0,.46,1.5,1.81,1.81,0,0,0,1.4.51,2.93,2.93,0,0,0,2.1-.87,5.81,5.81,0,0,0,1.41-2.41,11.59,11.59,0,0,0,.51-3.62,10.11,10.11,0,0,0-.72-3.9,8.21,8.21,0,0,0-2.07-3,9.34,9.34,0,0,0-3.23-1.89,12.51,12.51,0,0,0-4.18-.66,12.93,12.93,0,0,0-4.73.83,10.42,10.42,0,0,0-3.63,2.34,10.18,10.18,0,0,0-2.32,3.64,13.24,13.24,0,0,0-.81,4.74,12.85,12.85,0,0,0,1.35,6.09,9.3,9.3,0,0,0,3.86,3.92,12.09,12.09,0,0,0,5.89,1.36,12.82,12.82,0,0,0,4.53-.76,8.71,8.71,0,0,0,3.36-2.18l1,1.47a9.5,9.5,0,0,1-3.8,2.34A15.33,15.33,0,0,1,209.27,581.51Zm-1.44-8.4a4,4,0,0,0,2.46-.79,5.3,5.3,0,0,0,1.69-2.21,8,8,0,0,0,.62-3.21,3.73,3.73,0,0,0-.75-2.55,3,3,0,0,0-2.37-.84,4.29,4.29,0,0,0-2.48.75,5.1,5.1,0,0,0-1.72,2.07,7,7,0,0,0-.63,3.06,4.12,4.12,0,0,0,.82,2.76A3,3,0,0,0,207.83,573.11Z" fill="#1c2126"/><path d="M227.27,576.62v-2.13h5V557.6h1.32l-5.82,3.63v-2.49l5.19-3.27h1.8v19h4.68v2.13Z" fill="#1c2126"/><path d="M245.27,576.62v-2.13h5V557.6h1.32l-5.82,3.63v-2.49l5.19-3.27h1.8v19h4.68v2.13Z" fill="#1c2126"/><path d="M267.17,576.89a4.37,4.37,0,0,1-3.39-1.27,5.55,5.55,0,0,1-1.17-3.86v-8.31h-2.94v-1.89h2.94v-4.11l2.43-.69v4.8h4.32v1.89H265v8a4.16,4.16,0,0,0,.61,2.57,2.23,2.23,0,0,0,1.85.76,4.52,4.52,0,0,0,1-.1,5.14,5.14,0,0,0,.81-.26v2a4.69,4.69,0,0,1-1,.29A6.46,6.46,0,0,1,267.17,576.89Z" fill="#1c2126"/><path d="M271.91,583.43l-.57-2a12.5,12.5,0,0,0,2.35-.76,4.67,4.67,0,0,0,1.58-1.16,6.51,6.51,0,0,0,1.08-1.8l.78-1.77-.06,1-6.57-15.39h2.64l5.43,13.23h-.78l5.37-13.23h2.55l-7,16.32a11.58,11.58,0,0,1-1.32,2.42,7.58,7.58,0,0,1-1.55,1.59,7,7,0,0,1-1.81,1A13.08,13.08,0,0,1,271.91,583.43Z" fill="#1c2126"/><circle cx="135.29" cy="563.72" r="40" fill="#1c2126"/><path d="M1163.33,555.54h0l0,0a.19.19,0,0,1,0-.15l1.25-7.62,5.84,5.85-6.08,2.58h-.08l0,0A2.57,2.57,0,0,0,1163.33,555.54Zm8.48-.46,6.25,6.25c1.3,1.3,2,1.95,2.19,2.7l.09.33L1165.4,558h0c-.06,0-.12,0-.12-.11s.07-.1.13-.12h0Zm8.27,11.29a11.28,11.28,0,0,1-2,2.3l-7,7.05-9.12-1.9h0c-.09,0-.17,0-.17-.1a2.75,2.75,0,0,0-1.06-1.93s0-.09,0-.14v0l1.71-10.52v0c0-.08,0-.17.1-.17a2.81,2.81,0,0,0,1.87-1.07.1.1,0,0,1,0,0,.22.22,0,0,1,.17,0l15.56,6.58Zm-10.68,11-11.59,11.58,2-12.19h0a.09.09,0,0,1,0-.05s0,0,.09-.07h0a2.88,2.88,0,0,0,1.12-.83.25.25,0,0,1,.15-.1h0l8.16,1.68Zm-14,14-1.31,1.3-14.44-20.87,0,0a.18.18,0,0,1,0-.1s0,0,0-.06v0a2.12,2.12,0,0,0,.12-.2l0-.06h0a.27.27,0,0,1,.08-.1.17.17,0,0,1,.12,0l16,3.3a.18.18,0,0,1,.12.05.09.09,0,0,1,0,.07,2.81,2.81,0,0,0,1.66,1.89s0,.08,0,.13l0,.07C1157.55,578,1155.82,588.53,1155.36,591.38Zm-2.73,2.72a6.1,6.1,0,0,1-2.17,1.67,3.24,3.24,0,0,1-2,0c-.75-.24-1.4-.89-2.7-2.19l-14.5-14.5,3.79-5.88a.2.2,0,0,1,.06-.07.16.16,0,0,1,.15,0A3.93,3.93,0,0,0,1138,573s.09,0,.12,0l0,0,14.51,21.06Zm-22.72-16.42-3.32-3.33,6.57-2.8h0s.09.05.11.1l.21.3,0,0a.09.09,0,0,1,0,.08l-3.63,5.63Zm-4.8-4.8-4.21-4.21c-.71-.71-1.23-1.23-1.59-1.68l12.8,2.65h0c.08,0,.17,0,.17.1s-.1.12-.18.15l0,0Zm-6.54-8a3.54,3.54,0,0,1,.15-.8c.24-.75.89-1.4,2.18-2.7l5.39-5.39q3.72,5.4,7.46,10.78c0,.06.09.13,0,.18a4.35,4.35,0,0,0-.63.85.28.28,0,0,1-.09.1H1133l-14.43-3Zm9.16-10.33,7.24-7.24c.68.3,3.16,1.34,5.38,2.28l3.68,1.56a.17.17,0,0,1,.11.09.12.12,0,0,1,0,.1,3.22,3.22,0,0,0,.85,2.94s0,.12,0,.18l0,0-7.35,11.38a.31.31,0,0,1-.07.09.22.22,0,0,1-.14,0,3.2,3.2,0,0,0-.87-.12,5.05,5.05,0,0,0-.84.1h0s-.06,0-.08,0a.3.3,0,0,1-.08-.08l-7.75-11.31Zm8.71-8.7,9.37-9.38c1.3-1.3,2-1.95,2.7-2.19a3.24,3.24,0,0,1,2,0c.75.24,1.4.89,2.7,2.19l2,2-6.67,10.33-.07.08a.22.22,0,0,1-.14,0,3.39,3.39,0,0,0-3.1.59s-.11,0-.16,0C1144.18,549.07,1137.41,546.21,1136.44,545.8Zm20.16-5.93,6.16,6.15-1.48,9.19v0a.14.14,0,0,1,0,.06s0,0-.08.05a2.8,2.8,0,0,0-.88.44l0,0a.1.1,0,0,1-.07,0s0,0-.07,0l-9.38-4h0c-.06,0-.13-.05-.13-.12a3.39,3.39,0,0,0-.5-1.47c0-.08-.09-.15,0-.23Zm-6.34,13.88,8.8,3.72a.19.19,0,0,1,.12.09.17.17,0,0,1,0,.1,1.79,1.79,0,0,0,0,.42v.25c0,.06-.06.08-.12.11h0l-19.58,8.35a.11.11,0,0,1-.09,0s0-.12,0-.18l0,0,7.23-11.19v0c0-.07.09-.15.17-.15l.07,0a3.75,3.75,0,0,0,.45,0,3.25,3.25,0,0,0,2.73-1.45l0-.06A.15.15,0,0,1,1150.26,553.75Zm-10.07,14.81,19.8-8.45a.09.09,0,0,1,.06,0,2.82,2.82,0,0,0,.29.25l0,0s.08.05.09.1a.08.08,0,0,1,0,0L1158.77,571v0c0,.08,0,.17-.1.17a2.75,2.75,0,0,0-2.21,1.37h0a.18.18,0,0,1-.08.09.14.14,0,0,1-.11,0l-15.8-3.25S1140.21,568.56,1140.19,568.56Z" fill="#fff"/><line x1="548.51" y1="498.72" x2="548.51" y2="630" fill="none" stroke="#1c2126" stroke-miterlimit="10"/><path d="M584.7,576.62V555.48h12.46v2.38h-9.87v7.25h9v2.3h-9v9.21Z" fill="#1c2126"/><path d="M604.74,568.2v8.42h-2.55V555.48h7.09c4.19,0,6.81,2.44,6.81,6.36a5.91,5.91,0,0,1-3.94,5.83l4.31,9h-2.92l-3.94-8.42Zm0-2.18h4.19c2.91,0,4.55-1.48,4.55-4.12s-1.61-4.12-4.44-4.12h-4.3Z" fill="#1c2126"/><path d="M627.34,577.06c-4.8,0-7.75-3.46-7.75-9.3v-3.41c0-5.85,2.95-9.31,7.75-9.31s7.75,3.46,7.75,9.31v3.41C635.09,573.6,632.14,577.06,627.34,577.06Zm5.14-9.31v-3.39c0-4.41-1.93-6.87-5.14-6.87s-5.14,2.46-5.14,6.87v3.39c0,4.4,1.93,6.87,5.14,6.87S632.48,572.15,632.48,567.75Z" fill="#1c2126"/><path d="M640.57,576.62h-2.3V555.48h2.88l4.65,13.13H646l4.61-13.13h2.9v21.14h-2.3v-8.11l.13-8.56h-.19l-4.25,11.71h-2L640.62,560h-.18l.13,8.56Z" fill="#1c2126"/><path d="M661.78,562.75a2.65,2.65,0,1,1,2.65,2.71A2.7,2.7,0,0,1,661.78,562.75Zm0,11.25a2.65,2.65,0,1,1,2.65,2.71A2.69,2.69,0,0,1,661.78,574Z" fill="#1c2126"/><path d="M804.86,581.51a14.89,14.89,0,0,1-5.34-.91,11.41,11.41,0,0,1-6.75-6.75,14.91,14.91,0,0,1-.93-5.39,14.58,14.58,0,0,1,1-5.4,11.83,11.83,0,0,1,2.76-4.18,12.58,12.58,0,0,1,4.26-2.72,14.82,14.82,0,0,1,5.43-1,14.31,14.31,0,0,1,4.88.8,11,11,0,0,1,3.79,2.26,10,10,0,0,1,2.45,3.51,11.69,11.69,0,0,1,.85,4.56,12.33,12.33,0,0,1-.75,4.5,6.89,6.89,0,0,1-2.07,3,4.86,4.86,0,0,1-3.12,1.05,3.48,3.48,0,0,1-2.73-1,3.58,3.58,0,0,1-.78-2.81l.54.15a6.18,6.18,0,0,1-2.17,2.75,5.24,5.24,0,0,1-3,.94,4.67,4.67,0,0,1-3.67-1.45,5.8,5.8,0,0,1-1.31-4,8.75,8.75,0,0,1,.86-3.94,6.66,6.66,0,0,1,2.35-2.7,6.14,6.14,0,0,1,3.42-1,4.48,4.48,0,0,1,2.78.81,3.79,3.79,0,0,1,1.39,2.28h-.36l.51-2.82h2l-1.38,7.77c0,.26-.07.51-.1.75a5.42,5.42,0,0,0,0,.66,2.16,2.16,0,0,0,.47,1.5,1.78,1.78,0,0,0,1.39.51,2.93,2.93,0,0,0,2.1-.87,5.81,5.81,0,0,0,1.41-2.41,11.59,11.59,0,0,0,.51-3.62,10.11,10.11,0,0,0-.72-3.9,8.21,8.21,0,0,0-2.07-3,9.29,9.29,0,0,0-3.22-1.89,12.57,12.57,0,0,0-4.19-.66,12.88,12.88,0,0,0-4.72.83,10.42,10.42,0,0,0-3.63,2.34,10.21,10.21,0,0,0-2.33,3.64,13.24,13.24,0,0,0-.81,4.74,12.85,12.85,0,0,0,1.35,6.09,9.35,9.35,0,0,0,3.86,3.92,12.12,12.12,0,0,0,5.89,1.36,12.82,12.82,0,0,0,4.53-.76,8.71,8.71,0,0,0,3.36-2.18l1,1.47A9.46,9.46,0,0,1,810,580.7,15.39,15.39,0,0,1,804.86,581.51Zm-1.44-8.4a4,4,0,0,0,2.46-.79,5.31,5.31,0,0,0,1.7-2.21,8,8,0,0,0,.61-3.21,3.73,3.73,0,0,0-.75-2.55,3,3,0,0,0-2.37-.84,4.26,4.26,0,0,0-2.47.75,5.12,5.12,0,0,0-1.73,2.07,7,7,0,0,0-.63,3.06,4.12,4.12,0,0,0,.83,2.76A2.93,2.93,0,0,0,803.42,573.11Z" fill="#1c2126"/><path d="M821.42,576.62V554.54h2.43v22.08Z" fill="#1c2126"/><path d="M828,583.43l-.57-2a12.62,12.62,0,0,0,2.36-.76,4.63,4.63,0,0,0,1.57-1.16,6.51,6.51,0,0,0,1.08-1.8l.78-1.77-.06,1-6.57-15.39h2.64l5.43,13.23h-.78l5.37-13.23h2.55l-7,16.32a11.58,11.58,0,0,1-1.32,2.42,7.55,7.55,0,0,1-1.54,1.59,7.06,7.06,0,0,1-1.82,1A13.08,13.08,0,0,1,828,583.43Z" fill="#1c2126"/><path d="M844.49,576.62V565c0-.56,0-1.13-.07-1.72s-.11-1.18-.17-1.76h2.34l.3,3.3h-.36a5.21,5.21,0,0,1,2.12-2.65,6.19,6.19,0,0,1,3.37-.92,5.35,5.35,0,0,1,4,1.43,6.29,6.29,0,0,1,1.36,4.48v9.42H855v-9.27a4.63,4.63,0,0,0-.85-3.1,3.36,3.36,0,0,0-2.66-1,4.38,4.38,0,0,0-3.33,1.29,4.79,4.79,0,0,0-1.23,3.45v8.61Z" fill="#1c2126"/><path d="M862.07,576.62V565c0-.56,0-1.13-.07-1.72s-.11-1.18-.17-1.76h2.34l.3,3.3h-.36a5.21,5.21,0,0,1,2.12-2.65,6.19,6.19,0,0,1,3.37-.92,5.35,5.35,0,0,1,4,1.43A6.29,6.29,0,0,1,875,567.2v9.42h-2.43v-9.27a4.63,4.63,0,0,0-.85-3.1,3.36,3.36,0,0,0-2.66-1,4.38,4.38,0,0,0-3.33,1.29A4.79,4.79,0,0,0,864.5,568v8.61Z" fill="#1c2126"/><path d="M885.38,576.89a6.44,6.44,0,0,1-3.51-.94,6.25,6.25,0,0,1-2.32-2.69,11,11,0,0,1,0-8.37,6.14,6.14,0,0,1,2.32-2.67,6.52,6.52,0,0,1,3.51-.93,6,6,0,0,1,3.53,1,4.85,4.85,0,0,1,2,2.8h-.36l.33-3.57h2.34c-.06.58-.11,1.17-.16,1.76s-.08,1.16-.08,1.72v11.58h-2.43v-3.54h.33a4.78,4.78,0,0,1-2,2.79A6,6,0,0,1,885.38,576.89Zm.48-2a4.25,4.25,0,0,0,3.42-1.48,8.14,8.14,0,0,0,0-8.7,4.65,4.65,0,0,0-6.82,0,8,8,0,0,0,0,8.7A4.25,4.25,0,0,0,885.86,574.91Z" fill="#1c2126"/><path d="M897.65,576.62V565c0-.56,0-1.13-.07-1.72s-.11-1.18-.17-1.76h2.34l.3,3.3h-.36a5.21,5.21,0,0,1,2.12-2.65,6.19,6.19,0,0,1,3.37-.92,5.35,5.35,0,0,1,4,1.43,6.29,6.29,0,0,1,1.36,4.48v9.42h-2.43v-9.27a4.63,4.63,0,0,0-.85-3.1,3.36,3.36,0,0,0-2.66-1,4.38,4.38,0,0,0-3.33,1.29,4.79,4.79,0,0,0-1.23,3.45v8.61Z" fill="#1c2126"/><path d="M920.93,576.89a6.39,6.39,0,0,1-3.48-.94,6.25,6.25,0,0,1-2.32-2.69,11,11,0,0,1,0-8.37,6.14,6.14,0,0,1,2.32-2.67,6.47,6.47,0,0,1,3.48-.93,6.09,6.09,0,0,1,3.53,1,4.93,4.93,0,0,1,2,2.76h-.36V554.54h2.43v22.08h-2.4V573h.33a4.86,4.86,0,0,1-2,2.84A6.08,6.08,0,0,1,920.93,576.89Zm.51-2a4.3,4.3,0,0,0,3.42-1.48,8,8,0,0,0,0-8.7,4.31,4.31,0,0,0-3.42-1.49,4.26,4.26,0,0,0-3.4,1.49,8,8,0,0,0,0,8.7A4.25,4.25,0,0,0,921.44,574.91Z" fill="#1c2126"/><path d="M938.57,576.89a4.37,4.37,0,0,1-3.39-1.27,5.55,5.55,0,0,1-1.17-3.86v-8.31h-2.94v-1.89H934v-4.11l2.43-.69v4.8h4.32v1.89h-4.32v8a4.16,4.16,0,0,0,.62,2.57,2.21,2.21,0,0,0,1.84.76,4.52,4.52,0,0,0,1-.1,5.14,5.14,0,0,0,.81-.26v2a4.59,4.59,0,0,1-1,.29A6.57,6.57,0,0,1,938.57,576.89Z" fill="#1c2126"/><path d="M949.76,576.89A7.26,7.26,0,0,1,946,576a6.3,6.3,0,0,1-2.48-2.7,10.4,10.4,0,0,1,0-8.33,6.31,6.31,0,0,1,2.48-2.68,7.27,7.27,0,0,1,3.76-1,7.37,7.37,0,0,1,3.8,1,6.39,6.39,0,0,1,2.49,2.68,10.3,10.3,0,0,1,0,8.33,6.39,6.39,0,0,1-2.49,2.7A7.36,7.36,0,0,1,949.76,576.89Zm0-2a4.25,4.25,0,0,0,3.42-1.48,8.14,8.14,0,0,0,0-8.7,4.64,4.64,0,0,0-6.81,0,8.14,8.14,0,0,0,0,8.7A4.21,4.21,0,0,0,949.76,574.91Z" fill="#1c2126"/><path d="M960.71,576.62V565c0-.56,0-1.13-.07-1.72s-.11-1.18-.17-1.76h2.34l.3,3.3h-.36a5.21,5.21,0,0,1,2.12-2.65,6.19,6.19,0,0,1,3.37-.92,5.35,5.35,0,0,1,4,1.43,6.29,6.29,0,0,1,1.36,4.48v9.42h-2.43v-9.27a4.63,4.63,0,0,0-.85-3.1,3.36,3.36,0,0,0-2.66-1,4.38,4.38,0,0,0-3.33,1.29,4.79,4.79,0,0,0-1.23,3.45v8.61Z" fill="#1c2126"/><path d="M978,558.14v-2.73h3v2.73Zm.3,18.48V561.56h2.43v15.06Z" fill="#1c2126"/><path d="M991.76,576.89a7.46,7.46,0,0,1-3.85-1,6.41,6.41,0,0,1-2.52-2.73,9.29,9.29,0,0,1-.89-4.2,8.93,8.93,0,0,1,.9-4.18,6.2,6.2,0,0,1,2.54-2.63,7.79,7.79,0,0,1,3.82-.9,8,8,0,0,1,2.81.51,6,6,0,0,1,2.26,1.44L996,565a6,6,0,0,0-2-1.29,5.69,5.69,0,0,0-2.09-.42,4.57,4.57,0,0,0-3.63,1.47A6.32,6.32,0,0,0,987,569a6.51,6.51,0,0,0,1.29,4.32,4.49,4.49,0,0,0,3.63,1.53,6,6,0,0,0,2.06-.39,5.66,5.66,0,0,0,2-1.29l.87,1.71a6.11,6.11,0,0,1-2.31,1.47A7.91,7.91,0,0,1,991.76,576.89Z" fill="#1c2126"/><circle cx="730.89" cy="563.72" r="40" fill="#1c2126"/></svg>