<?xml version="1.0" encoding="UTF-8"?><svg xmlns="http://www.w3.org/2000/svg" viewBox="0 0 1200 630"><defs><clipPath id="e"><path fill="none" stroke-width="0" d="M-1220 0H-20v498.72h-1200z"/></clipPath><clipPath id="f"><path fill="none" stroke-width="0" d="M0 0h1200v498.72H0z"/></clipPath></defs><path id="b" fill="#db4648" stroke-width="0" d="M0 0h1200v498.72H0z"/><g id="d"><g stroke="#1c2126" stroke-linejoin="round" stroke-width="2" clip-path="url(#e)"><path fill="#ffdd73" d="m-49.04 176.12 33.52-19.36 33.53 19.36-33.53 19.35-33.52-19.35z"/><path fill="#b7790b" d="M18.01 176.12v38.71l-33.53 19.36v-38.72l33.53-19.35z"/><path fill="#ffdd73" d="m-49.04 60.09 33.52-19.35 33.53 19.35-33.53 19.36-33.52-19.36z"/><path fill="#b7790b" d="M18.01 60.09v38.72l-33.53 19.35V79.45l33.53-19.36zM18.01-55.93v38.72L-15.52 2.14v-38.71l33.53-19.36z"/><path fill="#ffdd73" d="m-49.04 291.91 33.52-19.36 33.53 19.36-33.53 19.35-33.52-19.35z"/><path fill="#b7790b" d="M18.01 291.91v38.71l-33.53 19.36v-38.72l33.53-19.35z"/><path fill="#ffdd73" d="m-49.04 407.7 33.52-19.36 33.53 19.36-33.53 19.36-33.52-19.36z"/><path fill="#b7790b" d="M18.01 407.7v38.71l-33.53 19.36v-38.71l33.53-19.36z"/></g><g clip-path="url(#f)"><path fill="#ff6b60" stroke-width="0" d="M167.26-68.458 308.68-209.88 450.103-68.458 308.68 72.963z"/><path fill="none" stroke="#1c2126" stroke-linejoin="round" stroke-width="2" d="m311.51 70.13-2.83 2.83-2.83-2.83"/><path fill="none" stroke="#1c2126" stroke-dasharray="0 0 7.68 7.68" stroke-linejoin="round" stroke-width="2" d="M300.42 64.7 172.8-62.91M441.84-60.2 314.22 67.42"/><path fill="#ffd3bf" stroke="#1c2126" stroke-linejoin="round" stroke-width="2" d="M308.678-174.51 414.73-68.46 308.678 37.593 202.626-68.459z"/><path fill="#ff6b60" stroke-width="0" d="M325.919 90.202 467.34-51.22 608.762 90.202 467.34 231.623z"/><path fill="none" stroke="#1c2126" stroke-linejoin="round" stroke-width="2" d="m470.17 228.79-2.83 2.83-2.83-2.83"/><path fill="none" stroke="#1c2126" stroke-dasharray="0 0 7.68 7.68" stroke-linejoin="round" stroke-width="2" d="M459.08 223.36 331.46 95.74"/><path fill="none" stroke="#1c2126" stroke-linejoin="round" stroke-width="2" d="m328.75 93.03-2.83-2.83 2.83-2.83"/><path fill="none" stroke="#1c2126" stroke-dasharray="0 0 7.68 7.68" stroke-linejoin="round" stroke-width="2" d="M334.18 81.94 461.79-45.68M475.6-42.96 603.22 84.66"/><path fill="none" stroke="#1c2126" stroke-linejoin="round" stroke-width="2" d="m605.93 87.37 2.83 2.83-2.83 2.83"/><path fill="none" stroke="#1c2126" stroke-dasharray="0 0 7.68 7.68" stroke-linejoin="round" stroke-width="2" d="M600.5 98.46 472.88 226.08"/><path fill="#ffd3bf" stroke="#1c2126" stroke-linejoin="round" stroke-width="2" d="M467.338-15.852 573.39 90.2 467.338 196.252 361.286 90.2z"/><path fill="#bffde7" stroke="#1c2126" stroke-dasharray="0 8" stroke-linejoin="round" stroke-width="2" d="m467.338 25.797 64.396 64.396-64.396 64.396-64.396-64.396z"/><path fill="#30c8c9" stroke="#1c2126" stroke-linejoin="round" stroke-width="2" d="m467.331 62.73 27.471 27.47-27.47 27.471-27.472-27.47z"/><path fill="#ff6b60" stroke-width="0" d="m482.638-71.495 141.42-141.422L765.48-71.495 624.06 69.926z"/><path fill="none" stroke="#1c2126" stroke-linejoin="round" stroke-width="2" d="m626.89 67.1-2.83 2.82-2.83-2.82"/><path fill="none" stroke="#1c2126" stroke-dasharray="0 0 7.68 7.68" stroke-linejoin="round" stroke-width="2" d="M615.8 61.67 488.18-65.95M757.22-63.24 629.6 64.38"/><path fill="#ffd3bf" stroke="#1c2126" stroke-linejoin="round" stroke-width="2" d="M624.065-177.553 730.117-71.501 624.065 34.55 518.013-71.501z"/><path fill="#ff6b60" stroke-width="0" d="M7.73 91.071 149.15-50.35 290.573 91.07 149.15 232.493z"/><path fill="none" stroke="#1c2126" stroke-linejoin="round" stroke-width="2" d="m151.98 229.66-2.83 2.83-2.83-2.83"/><path fill="none" stroke="#1c2126" stroke-dasharray="0 0 7.68 7.68" stroke-linejoin="round" stroke-width="2" d="M140.89 224.23 13.27 96.62"/><path fill="none" stroke="#1c2126" stroke-linejoin="round" stroke-width="2" d="m10.56 93.9-2.83-2.83 2.83-2.83"/><path fill="none" stroke="#1c2126" stroke-dasharray="0 0 7.68 7.68" stroke-linejoin="round" stroke-width="2" d="M15.99 82.81 143.61-44.81M157.41-42.09 285.03 85.53"/><path fill="none" stroke="#1c2126" stroke-linejoin="round" stroke-width="2" d="m287.74 88.24 2.83 2.83-2.83 2.83"/><path fill="none" stroke="#1c2126" stroke-dasharray="0 0 7.68 7.68" stroke-linejoin="round" stroke-width="2" d="M282.31 99.33 154.69 226.95"/><path fill="#ffd3bf" stroke="#1c2126" stroke-linejoin="round" stroke-width="2" d="M149.149-14.98 255.2 91.07 149.149 197.123 43.097 91.071z"/><path fill="#bffde7" stroke="#1c2126" stroke-dasharray="0 8" stroke-linejoin="round" stroke-width="2" d="m149.142 26.675 64.396 64.396-64.396 64.396-64.397-64.396z"/><path fill="#30c8c9" stroke="#1c2126" stroke-linejoin="round" stroke-width="2" d="m149.142 63.6 27.47 27.471-27.47 27.471-27.471-27.47z"/><path fill="#ff6b60" stroke-width="0" d="M-11.25 73.33v-282.85L130.17-68.09-11.25 73.33z"/><path fill="none" stroke="#1c2126" stroke-dasharray="0 0 7.68 7.68" stroke-linejoin="round" stroke-width="2" d="M121.91-59.84-5.71 67.78"/><path fill="#ffd3bf" stroke="#1c2126" stroke-linejoin="round" stroke-width="2" d="M-11.25 37.96v-212.11L94.8-68.09-11.25 37.96z"/><path fill="#ff6b60" stroke-width="0" d="M166.389 249.731 307.81 108.31 449.232 249.73 307.81 391.153z"/><path fill="none" stroke="#1c2126" stroke-linejoin="round" stroke-width="2" d="m310.64 388.32-2.83 2.83-2.83-2.83"/><path fill="none" stroke="#1c2126" stroke-dasharray="0 0 7.68 7.68" stroke-linejoin="round" stroke-width="2" d="M299.55 382.89 171.93 255.27"/><path fill="none" stroke="#1c2126" stroke-linejoin="round" stroke-width="2" d="m169.22 252.56-2.83-2.83 2.83-2.83"/><path fill="none" stroke="#1c2126" stroke-dasharray="0 0 7.68 7.68" stroke-linejoin="round" stroke-width="2" d="m174.65 241.47 127.61-127.62"/><path fill="none" stroke="#1c2126" stroke-linejoin="round" stroke-width="2" d="m304.98 111.14 2.83-2.83 2.83 2.83"/><path fill="none" stroke="#1c2126" stroke-dasharray="0 0 7.68 7.68" stroke-linejoin="round" stroke-width="2" d="m316.07 116.57 127.62 127.62"/><path fill="none" stroke="#1c2126" stroke-linejoin="round" stroke-width="2" d="m446.4 246.9 2.83 2.83-2.83 2.83"/><path fill="none" stroke="#1c2126" stroke-dasharray="0 0 7.68 7.68" stroke-linejoin="round" stroke-width="2" d="M440.97 257.99 313.35 385.61"/><path fill="#ffd3bf" stroke="#1c2126" stroke-linejoin="round" stroke-width="2" d="M307.809 143.678 413.86 249.73 307.809 355.782 201.757 249.73z"/><path fill="#bffde7" stroke="#1c2126" stroke-dasharray="0 8" stroke-linejoin="round" stroke-width="2" d="m307.809 185.327 64.396 64.396-64.396 64.396-64.396-64.396z"/><path fill="#30c8c9" stroke="#1c2126" stroke-linejoin="round" stroke-width="2" d="m307.802 222.26 27.47 27.47-27.47 27.471-27.471-27.47z"/><path fill="#ff6b60" stroke-width="0" d="M323.975 407.321 465.396 265.9 606.818 407.32 465.396 548.743z"/><path fill="none" stroke="#1c2126" stroke-linejoin="round" stroke-width="2" d="m468.23 545.92-2.83 2.82-2.83-2.82"/><path fill="none" stroke="#1c2126" stroke-dasharray="0 0 7.68 7.68" stroke-linejoin="round" stroke-width="2" d="M457.14 540.48 329.52 412.87"/><path fill="none" stroke="#1c2126" stroke-linejoin="round" stroke-width="2" d="m326.81 410.15-2.83-2.83 2.83-2.83"/><path fill="none" stroke="#1c2126" stroke-dasharray="0 0 7.68 7.68" stroke-linejoin="round" stroke-width="2" d="m332.24 399.06 127.62-127.62"/><path fill="none" stroke="#1c2126" stroke-linejoin="round" stroke-width="2" d="m462.57 268.73 2.83-2.83 2.83 2.83"/><path fill="none" stroke="#1c2126" stroke-dasharray="0 0 7.68 7.68" stroke-linejoin="round" stroke-width="2" d="m473.66 274.16 127.62 127.62"/><path fill="none" stroke="#1c2126" stroke-linejoin="round" stroke-width="2" d="m603.99 404.49 2.83 2.83-2.83 2.83"/><path fill="none" stroke="#1c2126" stroke-dasharray="0 0 7.68 7.68" stroke-linejoin="round" stroke-width="2" d="M598.56 415.58 470.94 543.2"/><path fill="#ffd3bf" stroke="#1c2126" stroke-linejoin="round" stroke-width="2" d="M465.399 301.264 571.45 407.316 465.399 513.368 359.347 407.316z"/><path fill="#bffde7" stroke="#1c2126" stroke-dasharray="0 8" stroke-linejoin="round" stroke-width="2" d="m465.392 342.92 64.396 64.396-64.396 64.396-64.397-64.396z"/><path fill="#30c8c9" stroke="#1c2126" stroke-linejoin="round" stroke-width="2" d="m465.392 379.845 27.47 27.471-27.47 27.471-27.471-27.47z"/><path fill="#ff6b60" stroke-width="0" d="M482.634 565.981 624.055 424.56 765.477 565.98 624.055 707.403z"/><path fill="none" stroke="#1c2126" stroke-dasharray="0 0 7.68 7.68" stroke-linejoin="round" stroke-width="2" d="M615.8 699.14 488.18 571.53"/><path fill="none" stroke="#1c2126" stroke-linejoin="round" stroke-width="2" d="m485.47 568.81-2.83-2.83 2.83-2.83"/><path fill="none" stroke="#1c2126" stroke-dasharray="0 0 7.68 7.68" stroke-linejoin="round" stroke-width="2" d="M490.9 557.72 618.52 430.1"/><path fill="none" stroke="#1c2126" stroke-linejoin="round" stroke-width="2" d="m621.23 427.39 2.83-2.83 2.83 2.83"/><path fill="none" stroke="#1c2126" stroke-dasharray="0 0 7.68 7.68" stroke-linejoin="round" stroke-width="2" d="m632.32 432.82 127.62 127.62"/><path fill="none" stroke="#1c2126" stroke-linejoin="round" stroke-width="2" d="m762.65 563.15 2.83 2.83-2.83 2.83"/><path fill="none" stroke="#1c2126" stroke-dasharray="0 0 7.68 7.68" stroke-linejoin="round" stroke-width="2" d="M757.22 574.24 629.6 701.86"/><path fill="#ffd3bf" stroke="#1c2126" stroke-linejoin="round" stroke-width="2" d="M624.059 459.933 730.11 565.985 624.059 672.037 518.007 565.985z"/><path fill="#bffde7" stroke="#1c2126" stroke-dasharray="0 8" stroke-linejoin="round" stroke-width="2" d="m624.052 501.59 64.396 64.395-64.396 64.397-64.397-64.397z"/><path fill="#30c8c9" stroke="#1c2126" stroke-linejoin="round" stroke-width="2" d="m624.052 538.514 27.47 27.471-27.47 27.471-27.471-27.47z"/><path fill="#ff6b60" stroke-width="0" d="M-10.38 392.02V109.18L131.04 250.6-10.38 392.02z"/><path fill="none" stroke="#1c2126" stroke-dasharray="0 0 7.68 7.68" stroke-linejoin="round" stroke-width="2" d="M-2.12 117.44 125.5 245.06"/><path fill="none" stroke="#1c2126" stroke-linejoin="round" stroke-width="2" d="m128.21 247.77 2.83 2.83-2.83 2.83"/><path fill="none" stroke="#1c2126" stroke-dasharray="0 0 7.68 7.68" stroke-linejoin="round" stroke-width="2" d="M122.78 258.86-4.84 386.48"/><path fill="#ffd3bf" stroke="#1c2126" stroke-linejoin="round" stroke-width="2" d="M-10.38 356.65v-212.1L95.67 250.6-10.38 356.65z"/><path fill="#bffde7" stroke="#1c2126" stroke-dasharray="0 8" stroke-linejoin="round" stroke-width="2" d="M-10.38 315V186.2l64.4 64.4-64.4 64.4z"/><path fill="#30c8c9" stroke="#1c2126" stroke-linejoin="round" stroke-width="2" d="M-10.38 278.07v-54.94l27.47 27.47-27.47 27.47z"/><path fill="#ff6b60" stroke-width="0" d="M6.859 409.26 148.28 267.84l141.422 141.42L148.28 550.683z"/><path fill="none" stroke="#1c2126" stroke-linejoin="round" stroke-width="2" d="m151.11 547.85-2.83 2.83-2.83-2.83"/><path fill="none" stroke="#1c2126" stroke-dasharray="0 0 7.68 7.68" stroke-linejoin="round" stroke-width="2" d="M140.02 542.42 12.4 414.8"/><path fill="none" stroke="#1c2126" stroke-linejoin="round" stroke-width="2" d="m9.69 412.09-2.83-2.83 2.83-2.83"/><path fill="none" stroke="#1c2126" stroke-dasharray="0 0 7.68 7.68" stroke-linejoin="round" stroke-width="2" d="m15.12 401 127.61-127.62"/><path fill="none" stroke="#1c2126" stroke-linejoin="round" stroke-width="2" d="m145.45 270.67 2.83-2.83 2.83 2.83"/><path fill="none" stroke="#1c2126" stroke-dasharray="0 0 7.68 7.68" stroke-linejoin="round" stroke-width="2" d="m156.54 276.1 127.62 127.62"/><path fill="none" stroke="#1c2126" stroke-linejoin="round" stroke-width="2" d="m286.87 406.43 2.83 2.83-2.83 2.83"/><path fill="none" stroke="#1c2126" stroke-dasharray="0 0 7.68 7.68" stroke-linejoin="round" stroke-width="2" d="M281.44 417.52 153.82 545.14"/><path fill="#ffd3bf" stroke="#1c2126" stroke-linejoin="round" stroke-width="2" d="M148.28 303.208 254.33 409.26 148.28 515.312 42.227 409.26z"/><path fill="#bffde7" stroke="#1c2126" stroke-dasharray="0 8" stroke-linejoin="round" stroke-width="2" d="m148.28 344.857 64.395 64.396-64.396 64.396-64.396-64.396z"/><path fill="#30c8c9" stroke="#1c2126" stroke-linejoin="round" stroke-width="2" d="m148.272 381.79 27.471 27.47-27.47 27.471-27.472-27.47z"/><path fill="#ff6b60" stroke-width="0" d="M-11.25 710.21V427.37l141.42 141.42-141.42 141.42z"/><path fill="none" stroke="#1c2126" stroke-dasharray="0 0 7.68 7.68" stroke-linejoin="round" stroke-width="2" d="m-2.99 435.63 127.62 127.62"/><path fill="none" stroke="#1c2126" stroke-linejoin="round" stroke-width="2" d="m127.34 565.96 2.83 2.83-2.83 2.83"/><path fill="none" stroke="#1c2126" stroke-dasharray="0 0 7.68 7.68" stroke-linejoin="round" stroke-width="2" d="M121.91 577.05-5.71 704.67"/><path fill="#ffd3bf" stroke="#1c2126" stroke-linejoin="round" stroke-width="2" d="M-11.25 674.84v-212.1L94.8 568.79-11.25 674.84z"/><path fill="#bffde7" stroke="#1c2126" stroke-dasharray="0 8" stroke-linejoin="round" stroke-width="2" d="M-11.25 633.19v-128.8l64.4 64.4-64.4 64.4z"/><path fill="#30c8c9" stroke="#1c2126" stroke-linejoin="round" stroke-width="2" d="M-11.25 596.26v-54.94l27.47 27.47-27.47 27.47z"/><path fill="#ff6b60" stroke-width="0" d="m164.445 566.85 141.421-141.42 141.422 141.42-141.422 141.422z"/><path fill="none" stroke="#1c2126" stroke-dasharray="0 0 7.68 7.68" stroke-linejoin="round" stroke-width="2" d="M297.61 700.01 169.99 572.4"/><path fill="none" stroke="#1c2126" stroke-linejoin="round" stroke-width="2" d="m167.28 569.68-2.83-2.83 2.83-2.83"/><path fill="none" stroke="#1c2126" stroke-dasharray="0 0 7.68 7.68" stroke-linejoin="round" stroke-width="2" d="m172.71 558.59 127.62-127.62"/><path fill="none" stroke="#1c2126" stroke-linejoin="round" stroke-width="2" d="m303.04 428.26 2.83-2.83 2.83 2.83"/><path fill="none" stroke="#1c2126" stroke-dasharray="0 0 7.68 7.68" stroke-linejoin="round" stroke-width="2" d="m314.13 433.69 127.62 127.62"/><path fill="none" stroke="#1c2126" stroke-linejoin="round" stroke-width="2" d="m444.46 564.02 2.83 2.83-2.83 2.83"/><path fill="none" stroke="#1c2126" stroke-dasharray="0 0 7.68 7.68" stroke-linejoin="round" stroke-width="2" d="M439.03 575.11 311.41 702.73"/><path fill="#ffd3bf" stroke="#1c2126" stroke-linejoin="round" stroke-width="2" d="M305.87 460.794 411.92 566.846 305.87 672.898 199.817 566.846z"/><path fill="#bffde7" stroke="#1c2126" stroke-dasharray="0 8" stroke-linejoin="round" stroke-width="2" d="m305.862 502.45 64.396 64.396-64.396 64.396-64.396-64.396z"/><path fill="#30c8c9" stroke="#1c2126" stroke-linejoin="round" stroke-width="2" d="m305.862 539.375 27.471 27.471-27.47 27.471-27.472-27.47z"/></g><path fill="#fff" stroke-width="0" d="M680.16 163.35c-.4 0-.74-.14-1.02-.42-.28-.28-.42-.64-.42-1.08v-39c0-.44.14-.8.42-1.08s.62-.42 1.02-.42h6.9c.4 0 .74.14 1.02.42.28.28.42.64.42 1.08v39c0 .44-.14.8-.42 1.08s-.62.42-1.02.42h-6.9ZM704.76 174.75c-.44 0-.8-.14-1.08-.42-.28-.28-.42-.64-.42-1.08v-4.14c0-.4.14-.74.42-1.02.28-.28.64-.42 1.08-.42h1.92c1.08 0 1.91-.21 2.49-.63s.97-.99 1.17-1.71.3-1.52.3-2.4v-29.28c0-.44.14-.8.42-1.08.28-.28.62-.42 1.02-.42h6.3c.44 0 .8.14 1.08.42.28.28.42.64.42 1.08v29.46c0 2.44-.47 4.53-1.41 6.27-.94 1.74-2.32 3.07-4.14 3.99-1.82.92-4.07 1.38-6.75 1.38h-2.82Zm7.14-47.4c-.4 0-.74-.14-1.02-.42-.28-.28-.42-.64-.42-1.08v-4.86c0-.4.14-.75.42-1.05.28-.3.62-.45 1.02-.45h6.66c.4 0 .75.15 1.05.45.3.3.45.65.45 1.05v4.86c0 .44-.15.8-.45 1.08-.3.28-.65.42-1.05.42h-6.66ZM738.9 163.95c-2.32 0-4.37-.53-6.15-1.59-1.78-1.06-3.17-2.6-4.17-4.62s-1.5-4.47-1.5-7.35v-16.74c0-.44.15-.8.45-1.08.3-.28.65-.42 1.05-.42H735c.4 0 .74.14 1.02.42.28.28.42.64.42 1.08v16.38c0 4.48 1.96 6.72 5.88 6.72 1.88 0 3.37-.59 4.47-1.77 1.1-1.18 1.65-2.83 1.65-4.95v-16.38c0-.44.14-.8.42-1.08.28-.28.64-.42 1.08-.42h6.36c.4 0 .74.14 1.02.42.28.28.42.64.42 1.08v28.2c0 .44-.14.8-.42 1.08s-.62.42-1.02.42h-5.94c-.4 0-.74-.14-1.02-.42-.28-.28-.42-.64-.42-1.08v-2.34a10.119 10.119 0 0 1-4.02 3.3c-1.64.76-3.64 1.14-6 1.14ZM777.6 163.95c-2.48 0-4.61-.29-6.39-.87-1.78-.58-3.22-1.29-4.32-2.13-1.1-.84-1.92-1.69-2.46-2.55-.54-.86-.83-1.59-.87-2.19-.04-.44.1-.8.42-1.08.32-.28.64-.42.96-.42h5.82c.16 0 .29.02.39.06.1.04.23.14.39.3.52.36 1.05.77 1.59 1.23.54.46 1.19.85 1.95 1.17.76.32 1.68.48 2.76.48 1.32 0 2.43-.27 3.33-.81.9-.54 1.35-1.31 1.35-2.31 0-.72-.2-1.32-.6-1.8-.4-.48-1.18-.92-2.34-1.32s-2.88-.84-5.16-1.32c-2.16-.48-4-1.12-5.52-1.92-1.52-.8-2.66-1.81-3.42-3.03-.76-1.22-1.14-2.69-1.14-4.41 0-1.56.49-3.06 1.47-4.5s2.43-2.63 4.35-3.57c1.92-.94 4.32-1.41 7.2-1.41 2.2 0 4.13.27 5.79.81 1.66.54 3.05 1.22 4.17 2.04 1.12.82 1.97 1.66 2.55 2.52.58.86.89 1.61.93 2.25.04.44-.08.8-.36 1.08s-.6.42-.96.42h-5.34c-.2 0-.38-.04-.54-.12-.16-.08-.3-.18-.42-.3-.48-.28-.97-.64-1.47-1.08a7.48 7.48 0 0 0-1.77-1.14c-.68-.32-1.56-.48-2.64-.48-1.28 0-2.27.29-2.97.87-.7.58-1.05 1.31-1.05 2.19 0 .56.18 1.08.54 1.56.36.48 1.09.92 2.19 1.32 1.1.4 2.81.82 5.13 1.26 2.72.48 4.88 1.2 6.48 2.16s2.74 2.07 3.42 3.33a8.398 8.398 0 0 1 1.02 4.05c0 1.88-.55 3.55-1.65 5.01-1.1 1.46-2.73 2.6-4.89 3.42s-4.8 1.23-7.92 1.23ZM812.76 163.35c-2.48 0-4.59-.41-6.33-1.23-1.74-.82-3.07-2.09-3.99-3.81-.92-1.72-1.38-3.88-1.38-6.48v-12.6h-4.68c-.44 0-.8-.14-1.08-.42-.28-.28-.42-.62-.42-1.02v-4.14c0-.44.14-.8.42-1.08.28-.28.64-.42 1.08-.42h4.68v-9.9c0-.44.15-.8.45-1.08.3-.28.65-.42 1.05-.42h5.94c.4 0 .74.14 1.02.42.28.28.42.64.42 1.08v9.9h7.5c.44 0 .8.14 1.08.42.28.28.42.64.42 1.08v4.14c0 .4-.14.74-.42 1.02s-.64.42-1.08.42h-7.5v11.88c0 1.52.28 2.71.84 3.57.56.86 1.5 1.29 2.82 1.29h4.38c.44 0 .8.14 1.08.42.28.28.42.62.42 1.02v4.44c0 .44-.14.8-.42 1.08s-.64.42-1.08.42h-5.22ZM851.82 163.95c-2.96 0-5.55-.54-7.77-1.62-2.22-1.08-3.97-2.65-5.25-4.71-1.28-2.06-1.98-4.53-2.1-7.41-.04-.64-.06-1.45-.06-2.43s.02-1.79.06-2.43c.12-2.92.81-5.41 2.07-7.47 1.26-2.06 3.01-3.63 5.25-4.71s4.84-1.62 7.8-1.62c2.64 0 4.9.37 6.78 1.11 1.88.74 3.42 1.68 4.62 2.82 1.2 1.14 2.1 2.31 2.7 3.51.6 1.2.92 2.26.96 3.18.04.44-.1.8-.42 1.08-.32.28-.68.42-1.08.42h-6.42c-.44 0-.77-.1-.99-.3-.22-.2-.43-.52-.63-.96-.52-1.4-1.22-2.4-2.1-3-.88-.6-1.98-.9-3.3-.9-1.8 0-3.21.58-4.23 1.74-1.02 1.16-1.57 2.96-1.65 5.4-.08 1.56-.08 2.98 0 4.26.08 2.48.63 4.28 1.65 5.4s2.43 1.68 4.23 1.68c1.4 0 2.52-.3 3.36-.9.84-.6 1.52-1.6 2.04-3 .2-.44.41-.76.63-.96.22-.2.55-.3.99-.3h6.42c.4 0 .76.14 1.08.42.32.28.46.64.42 1.08-.04.68-.24 1.48-.6 2.4-.36.92-.91 1.86-1.65 2.82s-1.69 1.85-2.85 2.67c-1.16.82-2.57 1.48-4.23 1.98-1.66.5-3.57.75-5.73.75ZM886.97 163.95c-3.32 0-6.1-.55-8.34-1.65-2.24-1.1-3.95-2.67-5.13-4.71-1.18-2.04-1.83-4.42-1.95-7.14-.04-.8-.06-1.71-.06-2.73s.02-1.91.06-2.67c.12-2.76.8-5.15 2.04-7.17 1.24-2.02 2.98-3.58 5.22-4.68 2.24-1.1 4.96-1.65 8.16-1.65s5.86.55 8.1 1.65c2.24 1.1 3.98 2.66 5.22 4.68 1.24 2.02 1.94 4.41 2.1 7.17.04.76.06 1.65.06 2.67s-.02 1.93-.06 2.73c-.16 2.72-.83 5.1-2.01 7.14-1.18 2.04-2.89 3.61-5.13 4.71-2.24 1.1-5 1.65-8.28 1.65Zm0-6.66c1.96 0 3.43-.6 4.41-1.8.98-1.2 1.53-2.98 1.65-5.34.04-.6.06-1.4.06-2.4s-.02-1.8-.06-2.4c-.12-2.32-.67-4.09-1.65-5.31-.98-1.22-2.45-1.83-4.41-1.83s-3.44.61-4.44 1.83c-1 1.22-1.56 2.99-1.68 5.31-.04.6-.06 1.4-.06 2.4s.02 1.8.06 2.4c.12 2.36.68 4.14 1.68 5.34 1 1.2 2.48 1.8 4.44 1.8ZM920.21 163.95c-2.32 0-4.37-.53-6.15-1.59-1.78-1.06-3.17-2.6-4.17-4.62s-1.5-4.47-1.5-7.35v-16.74c0-.44.15-.8.45-1.08.3-.28.65-.42 1.05-.42h6.42c.4 0 .74.14 1.02.42.28.28.42.64.42 1.08v16.38c0 4.48 1.96 6.72 5.88 6.72 1.88 0 3.37-.59 4.47-1.77 1.1-1.18 1.65-2.83 1.65-4.95v-16.38c0-.44.14-.8.42-1.08.28-.28.64-.42 1.08-.42h6.36c.4 0 .74.14 1.02.42.28.28.42.64.42 1.08v28.2c0 .44-.14.8-.42 1.08s-.62.42-1.02.42h-5.94c-.4 0-.74-.14-1.02-.42-.28-.28-.42-.64-.42-1.08v-2.34a10.119 10.119 0 0 1-4.02 3.3c-1.64.76-3.64 1.14-6 1.14ZM948.12 163.35c-.44 0-.8-.14-1.08-.42-.28-.28-.42-.64-.42-1.08v-39.6c0-.44.14-.8.42-1.08s.64-.42 1.08-.42h6c.44 0 .8.14 1.08.42.28.28.42.64.42 1.08v39.6c0 .44-.14.8-.42 1.08s-.64.42-1.08.42h-6ZM974.75 163.95c-2 0-3.78-.33-5.34-.99-1.56-.66-2.88-1.62-3.96-2.88-1.08-1.26-1.9-2.76-2.46-4.5-.56-1.74-.9-3.67-1.02-5.79-.04-.76-.06-1.45-.06-2.07s.02-1.29.06-2.01c.08-2.08.41-3.98.99-5.7.58-1.72 1.4-3.21 2.46-4.47 1.06-1.26 2.38-2.24 3.96-2.94 1.58-.7 3.37-1.05 5.37-1.05s3.86.35 5.34 1.05c1.48.7 2.7 1.59 3.66 2.67v-13.02c0-.44.14-.8.42-1.08s.64-.42 1.08-.42h6.18c.44 0 .8.14 1.08.42.28.28.42.64.42 1.08v39.6c0 .44-.14.8-.42 1.08s-.64.42-1.08.42h-5.76c-.4 0-.74-.14-1.02-.42-.28-.28-.42-.64-.42-1.08v-2.04c-1 1.2-2.26 2.19-3.78 2.97-1.52.78-3.42 1.17-5.7 1.17Zm2.76-7.2c1.48 0 2.67-.34 3.57-1.02.9-.68 1.56-1.54 1.98-2.58.42-1.04.65-2.16.69-3.36.08-.76.12-1.52.12-2.28s-.04-1.5-.12-2.22a8.007 8.007 0 0 0-.75-3.15 6.236 6.236 0 0 0-2.01-2.43c-.88-.64-2.04-.96-3.48-.96-1.52 0-2.72.33-3.6.99-.88.66-1.51 1.53-1.89 2.61-.38 1.08-.61 2.26-.69 3.54a28.86 28.86 0 0 0 0 3.72c.08 1.28.31 2.46.69 3.54.38 1.08 1.01 1.95 1.89 2.61.88.66 2.08.99 3.6.99ZM1001.93 163.35c-.4 0-.75-.14-1.05-.42-.3-.28-.45-.64-.45-1.08v-28.2c0-.44.15-.8.45-1.08.3-.28.65-.42 1.05-.42h5.88c.44 0 .8.14 1.08.42.28.28.42.64.42 1.08v2.34c1.04-1.28 2.39-2.34 4.05-3.18 1.66-.84 3.65-1.26 5.97-1.26s4.44.53 6.24 1.59c1.8 1.06 3.2 2.6 4.2 4.62s1.5 4.47 1.5 7.35v16.74c0 .44-.14.8-.42 1.08s-.64.42-1.08.42h-6.36c-.44 0-.8-.14-1.08-.42-.28-.28-.42-.64-.42-1.08v-16.38c0-2.12-.51-3.77-1.53-4.95-1.02-1.18-2.51-1.77-4.47-1.77s-3.37.59-4.47 1.77c-1.1 1.18-1.65 2.83-1.65 4.95v16.38c0 .44-.14.8-.42 1.08s-.64.42-1.08.42h-6.36ZM1037.15 135.03c-.36 0-.65-.12-.87-.36-.22-.24-.31-.58-.27-1.02l1.74-10.92c.08-.52.28-.98.6-1.38.32-.4.8-.6 1.44-.6h6.24c.32 0 .59.12.81.36.22.24.33.5.33.78s-.06.52-.18.72l-4.14 10.8c-.16.4-.39.77-.69 1.11-.3.34-.77.51-1.41.51h-3.6ZM1067.39 163.35c-2.48 0-4.59-.41-6.33-1.23-1.74-.82-3.07-2.09-3.99-3.81-.92-1.72-1.38-3.88-1.38-6.48v-12.6h-4.68c-.44 0-.8-.14-1.08-.42-.28-.28-.42-.62-.42-1.02v-4.14c0-.44.14-.8.42-1.08.28-.28.64-.42 1.08-.42h4.68v-9.9c0-.44.15-.8.45-1.08.3-.28.65-.42 1.05-.42h5.94c.4 0 .74.14 1.02.42.28.28.42.64.42 1.08v9.9h7.5c.44 0 .8.14 1.08.42.28.28.42.64.42 1.08v4.14c0 .4-.14.74-.42 1.02s-.64.42-1.08.42h-7.5v11.88c0 1.52.28 2.71.84 3.57.56.86 1.5 1.29 2.82 1.29h4.38c.44 0 .8.14 1.08.42.28.28.42.62.42 1.02v4.44c0 .44-.14.8-.42 1.08s-.64.42-1.08.42h-5.22Z"/><rect width="593.68" height="100.97" x="573.89" y="207.52" fill="#1c2126" stroke-width="0" opacity=".2" rx="11.89" ry="11.89"/><path fill="#fff" stroke-width="0" d="M618.35 260.98v.74l25.66 12.93v10.2l-35.27-19.53v-7.93l35.27-19.53v10.2l-25.66 12.93ZM684.21 279.38c-1.8 5-6.13 7.7-12.34 7.7-9.8 0-15.9-6.88-15.9-18.28v-7.62c0-11.37 6.09-18.28 15.9-18.28 6.17 0 10.59 2.77 12.19 7.73h.78v-23.52h9.38v59.3H685v-7.03h-.78Zm-18.99-11.14c0 6.72 3.79 10.9 9.92 10.9s9.88-4.18 9.88-10.9v-6.68c0-6.76-3.79-10.94-9.88-10.94s-9.92 4.22-9.92 10.94v6.68ZM707.68 286.41v-7.27h14.1V250.9h-13.63v-7.27h22.5v35.51h13.44v7.27h-36.41Zm11.64-58.48c0-3.67 2.73-6.21 6.6-6.21s6.64 2.54 6.64 6.21-2.73 6.21-6.64 6.21-6.6-2.54-6.6-6.21ZM764.17 243.63l10.35 33.75h.62l10.23-33.75h9.65l-15.16 42.77h-10.23l-15.23-42.77h9.77ZM806.55 248.05v-10.2l35.27 19.53v7.93l-35.27 19.53v-10.2l25.66-12.93v-.74l-25.66-12.93ZM865.61 260.98v.74l25.66 12.93v10.2L856 265.32v-7.93l35.27-19.53v10.2l-25.66 12.93ZM905.03 293.67l26.88-70.9h9.22l-27.07 70.9h-9.02ZM980.92 279.38c-1.8 5-6.13 7.7-12.34 7.7-9.8 0-15.9-6.88-15.9-18.28v-7.62c0-11.37 6.09-18.28 15.9-18.28 6.17 0 10.59 2.77 12.19 7.73h.78v-23.52h9.38v59.3h-9.22v-7.03h-.78Zm-18.98-11.14c0 6.72 3.79 10.9 9.92 10.9s9.88-4.18 9.88-10.9v-6.68c0-6.76-3.79-10.94-9.88-10.94s-9.92 4.22-9.92 10.94v6.68ZM1004.4 286.41v-7.27h14.1V250.9h-13.63v-7.27h22.5v35.51h13.44v7.27h-36.41Zm11.64-58.48c0-3.67 2.73-6.21 6.6-6.21s6.64 2.54 6.64 6.21-2.73 6.21-6.64 6.21-6.6-2.54-6.6-6.21ZM1060.88 243.63l10.35 33.75h.62l10.23-33.75h9.65l-15.16 42.77h-10.23l-15.23-42.77h9.77ZM1103.27 248.05v-10.2l35.27 19.53v7.93l-35.27 19.53v-10.2l25.66-12.93v-.74l-25.66-12.93ZM711.33 388.39c-.56 0-.99-.14-1.29-.42-.3-.28-.53-.64-.69-1.08l-8.58-27.78c-.08-.2-.12-.4-.12-.6 0-.36.13-.67.39-.93s.57-.39.93-.39h5.34c.48 0 .86.14 1.14.42.28.28.46.54.54.78l5.46 18.48 5.82-18.36c.08-.28.27-.57.57-.87s.73-.45 1.29-.45h3.42c.56 0 .99.15 1.29.45s.49.59.57.87l5.82 18.36 5.46-18.48c.04-.24.2-.5.48-.78s.68-.42 1.2-.42h5.34c.36 0 .67.13.93.39s.39.57.39.93c0 .2-.04.4-.12.6l-8.58 27.78c-.16.44-.38.8-.66 1.08s-.72.42-1.32.42h-4.62c-.56 0-1-.14-1.32-.42-.32-.28-.56-.64-.72-1.08l-5.82-17.7-5.88 17.7c-.16.44-.39.8-.69 1.08-.3.28-.75.42-1.35.42h-4.62ZM753.75 352.39c-.4 0-.74-.14-1.02-.42-.28-.28-.42-.64-.42-1.08v-4.86c0-.4.14-.75.42-1.05s.62-.45 1.02-.45h6.36c.4 0 .75.15 1.05.45s.45.65.45 1.05v4.86c0 .44-.15.8-.45 1.08-.3.28-.65.42-1.05.42h-6.36Zm.17 36c-.4 0-.75-.14-1.05-.42-.3-.28-.45-.64-.45-1.08v-28.2c0-.44.15-.8.45-1.08.3-.28.65-.42 1.05-.42h6.06c.4 0 .74.14 1.02.42.28.28.42.64.42 1.08v28.2c0 .44-.14.8-.42 1.08s-.62.42-1.02.42h-6.06ZM783.99 388.39c-2.48 0-4.59-.41-6.33-1.23-1.74-.82-3.07-2.09-3.99-3.81-.92-1.72-1.38-3.88-1.38-6.48v-12.6h-4.68c-.44 0-.8-.14-1.08-.42-.28-.28-.42-.62-.42-1.02v-4.14c0-.44.14-.8.42-1.08s.64-.42 1.08-.42h4.68v-9.9c0-.44.15-.8.45-1.08.3-.28.65-.42 1.05-.42h5.94c.4 0 .74.14 1.02.42.28.28.42.64.42 1.08v9.9h7.5c.44 0 .8.14 1.08.42.28.28.42.64.42 1.08v4.14c0 .4-.14.74-.42 1.02s-.64.42-1.08.42h-7.5v11.88c0 1.52.28 2.71.84 3.57.56.86 1.5 1.29 2.82 1.29h4.38c.44 0 .8.14 1.08.42.28.28.42.62.42 1.02v4.44c0 .44-.14.8-.42 1.08s-.64.42-1.08.42h-5.22ZM797.37 388.39c-.44 0-.8-.14-1.08-.42-.28-.28-.42-.64-.42-1.08v-39.6c0-.44.14-.8.42-1.08s.64-.42 1.08-.42h6.48c.44 0 .8.14 1.08.42.28.28.42.64.42 1.08v13.5c1.04-1.28 2.35-2.3 3.93-3.06 1.58-.76 3.47-1.14 5.67-1.14 2.36 0 4.45.53 6.27 1.59 1.82 1.06 3.24 2.6 4.26 4.62 1.02 2.02 1.53 4.47 1.53 7.35v16.74c0 .44-.14.8-.42 1.08s-.64.42-1.08.42h-6.54c-.4 0-.74-.14-1.02-.42-.28-.28-.42-.64-.42-1.08v-16.38c0-2.12-.52-3.77-1.56-4.95-1.04-1.18-2.52-1.77-4.44-1.77s-3.38.59-4.5 1.77c-1.12 1.18-1.68 2.83-1.68 4.95v16.38c0 .44-.14.8-.42 1.08s-.64.42-1.08.42h-6.48ZM848.48 388.99c-3.32 0-6.1-.55-8.34-1.65s-3.95-2.67-5.13-4.71-1.83-4.42-1.95-7.14c-.04-.8-.06-1.71-.06-2.73s.02-1.91.06-2.67c.12-2.76.8-5.15 2.04-7.17 1.24-2.02 2.98-3.58 5.22-4.68 2.24-1.1 4.96-1.65 8.16-1.65s5.86.55 8.1 1.65c2.24 1.1 3.98 2.66 5.22 4.68 1.24 2.02 1.94 4.41 2.1 7.17.04.76.06 1.65.06 2.67s-.02 1.93-.06 2.73c-.16 2.72-.83 5.1-2.01 7.14s-2.89 3.61-5.13 4.71-5 1.65-8.28 1.65Zm0-6.66c1.96 0 3.43-.6 4.41-1.8.98-1.2 1.53-2.98 1.65-5.34.04-.6.06-1.4.06-2.4s-.02-1.8-.06-2.4c-.12-2.32-.67-4.09-1.65-5.31-.98-1.22-2.45-1.83-4.41-1.83s-3.44.61-4.44 1.83c-1 1.22-1.56 2.99-1.68 5.31-.04.6-.06 1.4-.06 2.4s.02 1.8.06 2.4c.12 2.36.68 4.14 1.68 5.34 1 1.2 2.48 1.8 4.44 1.8ZM881.72 388.99c-2.32 0-4.37-.53-6.15-1.59-1.78-1.06-3.17-2.6-4.17-4.62s-1.5-4.47-1.5-7.35v-16.74c0-.44.15-.8.45-1.08.3-.28.65-.42 1.05-.42h6.42c.4 0 .74.14 1.02.42.28.28.42.64.42 1.08v16.38c0 4.48 1.96 6.72 5.88 6.72 1.88 0 3.37-.59 4.47-1.77 1.1-1.18 1.65-2.83 1.65-4.95v-16.38c0-.44.14-.8.42-1.08s.64-.42 1.08-.42h6.36c.4 0 .74.14 1.02.42.28.28.42.64.42 1.08v28.2c0 .44-.14.8-.42 1.08s-.62.42-1.02.42h-5.94c-.4 0-.74-.14-1.02-.42-.28-.28-.42-.64-.42-1.08v-2.34a10.119 10.119 0 0 1-4.02 3.3c-1.64.76-3.64 1.14-6 1.14ZM923.12 388.39c-2.48 0-4.59-.41-6.33-1.23-1.74-.82-3.07-2.09-3.99-3.81-.92-1.72-1.38-3.88-1.38-6.48v-12.6h-4.68c-.44 0-.8-.14-1.08-.42-.28-.28-.42-.62-.42-1.02v-4.14c0-.44.14-.8.42-1.08s.64-.42 1.08-.42h4.68v-9.9c0-.44.15-.8.45-1.08.3-.28.65-.42 1.05-.42h5.94c.4 0 .74.14 1.02.42.28.28.42.64.42 1.08v9.9h7.5c.44 0 .8.14 1.08.42.28.28.42.64.42 1.08v4.14c0 .4-.14.74-.42 1.02s-.64.42-1.08.42h-7.5v11.88c0 1.52.28 2.71.84 3.57.56.86 1.5 1.29 2.82 1.29h4.38c.44 0 .8.14 1.08.42.28.28.42.62.42 1.02v4.44c0 .44-.14.8-.42 1.08s-.64.42-1.08.42h-5.22ZM952.41 399.79c-.32 0-.61-.12-.87-.36s-.39-.54-.39-.9c0-.08.02-.19.06-.33.04-.14.1-.31.18-.51l4.68-11.22-11.52-27.18c-.12-.32-.18-.58-.18-.78.04-.36.18-.67.42-.93s.54-.39.9-.39h5.88c.48 0 .84.13 1.08.39.24.26.42.53.54.81l7.44 18.54 7.62-18.54c.16-.32.36-.6.6-.84s.62-.36 1.14-.36h5.7c.36 0 .67.13.93.39s.39.55.39.87c0 .2-.06.48-.18.84l-16.98 39.3c-.16.32-.37.6-.63.84s-.65.36-1.17.36h-5.64ZM994.94 388.99c-3.32 0-6.1-.55-8.34-1.65s-3.95-2.67-5.13-4.71-1.83-4.42-1.95-7.14c-.04-.8-.06-1.71-.06-2.73s.02-1.91.06-2.67c.12-2.76.8-5.15 2.04-7.17 1.24-2.02 2.98-3.58 5.22-4.68 2.24-1.1 4.96-1.65 8.16-1.65s5.86.55 8.1 1.65c2.24 1.1 3.98 2.66 5.22 4.68 1.24 2.02 1.94 4.41 2.1 7.17.04.76.06 1.65.06 2.67s-.02 1.93-.06 2.73c-.16 2.72-.83 5.1-2.01 7.14s-2.89 3.61-5.13 4.71-5 1.65-8.28 1.65Zm0-6.66c1.96 0 3.43-.6 4.41-1.8.98-1.2 1.53-2.98 1.65-5.34.04-.6.06-1.4.06-2.4s-.02-1.8-.06-2.4c-.12-2.32-.67-4.09-1.65-5.31-.98-1.22-2.45-1.83-4.41-1.83s-3.44.61-4.44 1.83c-1 1.22-1.56 2.99-1.68 5.31-.04.6-.06 1.4-.06 2.4s.02 1.8.06 2.4c.12 2.36.68 4.14 1.68 5.34 1 1.2 2.48 1.8 4.44 1.8ZM1028.19 388.99c-2.32 0-4.37-.53-6.15-1.59-1.78-1.06-3.17-2.6-4.17-4.62s-1.5-4.47-1.5-7.35v-16.74c0-.44.15-.8.45-1.08.3-.28.65-.42 1.05-.42h6.42c.4 0 .74.14 1.02.42.28.28.42.64.42 1.08v16.38c0 4.48 1.96 6.72 5.88 6.72 1.88 0 3.37-.59 4.47-1.77 1.1-1.18 1.65-2.83 1.65-4.95v-16.38c0-.44.14-.8.42-1.08s.64-.42 1.08-.42h6.36c.4 0 .74.14 1.02.42.28.28.42.64.42 1.08v28.2c0 .44-.14.8-.42 1.08s-.62.42-1.02.42h-5.94c-.4 0-.74-.14-1.02-.42-.28-.28-.42-.64-.42-1.08v-2.34a10.119 10.119 0 0 1-4.02 3.3c-1.64.76-3.64 1.14-6 1.14ZM0 595h1200v35H0zM0 499.19h1200V595H0z"/><path fill="none" stroke="#1c2126" stroke-miterlimit="10" d="M0 499.19h1200M0 595h1200"/><path fill="#1c2126" stroke-width="0" d="M24.24 559.45v-18.76h-6.39v-2.37H33.2v2.37h-6.39v18.76h-2.58ZM44.08 559.89c-4.8 0-7.75-3.46-7.75-9.3v-3.41c0-5.84 2.94-9.3 7.75-9.3s7.75 3.46 7.75 9.3v3.41c0 5.84-2.94 9.3-7.75 9.3Zm5.14-9.31v-3.38c0-4.41-1.93-6.87-5.14-6.87s-5.14 2.46-5.14 6.87v3.38c0 4.41 1.93 6.87 5.14 6.87s5.14-2.46 5.14-6.87ZM59.97 545.58c0-1.48 1.2-2.71 2.65-2.71s2.65 1.23 2.65 2.71-1.2 2.71-2.65 2.71-2.65-1.23-2.65-2.71Zm0 11.25c0-1.48 1.2-2.7 2.65-2.7s2.65 1.22 2.65 2.7-1.2 2.71-2.65 2.71-2.65-1.22-2.65-2.71Z"/><path fill="none" stroke="#1c2126" stroke-miterlimit="10" d="M582.03 498.72V595"/><path fill="#1c2126" stroke-width="0" d="M605.51 559.45v-21.14h12.47v2.37h-9.87v7.25h9.02v2.3h-9.02v9.21h-2.59ZM625.54 551.03v8.42h-2.55v-21.14h7.09c4.19 0 6.81 2.43 6.81 6.36 0 2.77-1.54 5.04-3.94 5.83l4.31 8.95h-2.92l-3.94-8.42h-4.86Zm0-2.18h4.19c2.92 0 4.56-1.48 4.56-4.12s-1.61-4.12-4.44-4.12h-4.31v8.23ZM648.15 559.89c-4.8 0-7.75-3.46-7.75-9.3v-3.41c0-5.84 2.94-9.3 7.75-9.3s7.75 3.46 7.75 9.3v3.41c0 5.84-2.94 9.3-7.75 9.3Zm5.14-9.31v-3.38c0-4.41-1.93-6.87-5.14-6.87s-5.14 2.46-5.14 6.87v3.38c0 4.41 1.93 6.87 5.14 6.87s5.14-2.46 5.14-6.87ZM661.18 559.45h-2.31v-21.14h2.86l4.88 13.08h.19l4.86-13.08h2.86v21.14h-2.31v-8.1l.15-8.57h-.19l-4.45 11.7h-2.02l-4.45-11.7h-.19l.15 8.57v8.1ZM682.59 545.58c0-1.48 1.2-2.71 2.65-2.71s2.65 1.23 2.65 2.71-1.2 2.71-2.65 2.71-2.65-1.23-2.65-2.71Zm0 11.25c0-1.48 1.2-2.7 2.65-2.7s2.65 1.22 2.65 2.7-1.2 2.71-2.65 2.71-2.65-1.22-2.65-2.71ZM12.77 618.41c-.12 0-.21-.04-.26-.11-.06-.07-.08-.17-.06-.27l2.22-10.42a.469.469 0 0 1 .46-.4h6.95c.12 0 .2.04.26.11.05.07.07.17.05.29l-.24 1.12c-.02.12-.08.21-.16.28-.08.07-.19.1-.3.1h-5.14l-.66 3.04h4.82c.12 0 .2.04.26.11.05.07.07.17.05.29l-.22 1.12c-.02.11-.08.2-.17.27-.09.07-.19.11-.31.11H15.5l-.85 3.97a.47.47 0 0 1-.16.27c-.08.08-.19.11-.3.11h-1.41ZM25.41 618.57c-.81 0-1.49-.15-2.02-.45s-.92-.72-1.15-1.26c-.23-.54-.29-1.18-.17-1.9.03-.19.08-.43.13-.7s.12-.51.17-.7c.19-.74.49-1.37.89-1.91.4-.54.91-.96 1.54-1.26.62-.3 1.36-.45 2.22-.45s1.49.15 2.02.45c.54.3.93.72 1.16 1.26.23.54.29 1.18.18 1.91-.04.19-.09.43-.14.7s-.11.51-.16.7c-.19.73-.48 1.36-.87 1.9-.39.54-.9.96-1.52 1.26s-1.38.45-2.26.45Zm.16-1.59c.58 0 1.06-.18 1.46-.54.4-.36.69-.88.87-1.58.04-.16.09-.37.14-.62s.1-.46.13-.62c.12-.69.07-1.22-.14-1.58-.21-.36-.61-.54-1.18-.54s-1.05.18-1.46.54c-.41.36-.69.88-.86 1.58-.04.16-.09.37-.15.62s-.1.46-.12.62c-.12.69-.07 1.22.14 1.58s.6.54 1.18.54ZM31.53 618.41a.31.31 0 0 1-.25-.11c-.06-.07-.08-.17-.06-.27l1.6-7.54a.482.482 0 0 1 .47-.4h1.3c.11 0 .19.04.25.11.06.08.08.17.06.29l-.14.66c.26-.34.58-.6.98-.78s.88-.27 1.44-.27h.78c.12 0 .2.04.26.11.05.08.07.17.05.27l-.24 1.15c-.02.11-.08.2-.17.27-.09.07-.19.11-.3.11h-1.25c-.51 0-.94.14-1.29.42-.35.28-.57.68-.68 1.19l-.94 4.4c-.02.11-.07.2-.16.27-.08.08-.19.11-.3.11h-1.39ZM44.76 618.41c-.73 0-1.29-.11-1.7-.34-.4-.22-.67-.56-.78-1s-.11-.99.03-1.66l.79-3.63h-1.26a.31.31 0 0 1-.25-.11c-.06-.07-.08-.17-.06-.29l.19-.91c.02-.11.08-.2.17-.27.09-.07.2-.11.31-.11h1.25l.58-2.66c.02-.11.07-.2.16-.27.08-.07.18-.11.29-.11h1.3c.12 0 .21.04.26.11.06.08.08.17.06.27l-.58 2.66h2c.11 0 .19.04.25.11.06.08.08.17.06.27l-.19.91c-.02.12-.08.21-.17.29a.43.43 0 0 1-.3.11h-2l-.74 3.47c-.06.29-.1.54-.1.74 0 .21.05.37.17.48.12.11.33.17.62.17h1.15c.12 0 .2.04.26.11.05.08.07.17.05.27l-.21.99a.47.47 0 0 1-.16.27.43.43 0 0 1-.3.11h-1.14ZM48.07 618.41a.31.31 0 0 1-.25-.11c-.06-.07-.08-.17-.06-.27l2.26-10.59c.02-.11.08-.2.16-.27s.18-.11.29-.11h1.44c.11 0 .19.04.25.11.06.08.08.17.06.27l-.78 3.65c.34-.34.72-.62 1.14-.83.42-.21.93-.32 1.53-.32.69 0 1.26.15 1.7.44.44.29.75.71.92 1.24.17.53.18 1.17.02 1.92l-.96 4.5a.47.47 0 0 1-.16.27.43.43 0 0 1-.3.11h-1.44a.31.31 0 0 1-.25-.11c-.06-.07-.08-.17-.06-.27l.93-4.4c.14-.62.11-1.1-.08-1.46-.19-.35-.58-.53-1.17-.53-.36 0-.71.08-1.03.23a2.3 2.3 0 0 0-.84.68c-.23.3-.4.66-.5 1.07l-.93 4.4a.47.47 0 0 1-.16.27c-.09.08-.18.11-.29.11h-1.44ZM61.51 618.57c-.78 0-1.43-.16-1.95-.46-.52-.31-.87-.76-1.07-1.34-.2-.59-.23-1.3-.09-2.13.02-.11.05-.24.08-.41.03-.17.06-.3.1-.39.21-.81.54-1.51.99-2.09.45-.58.99-1.03 1.64-1.34s1.36-.47 2.14-.47c.86 0 1.55.18 2.06.54.51.36.84.85 1.01 1.49s.16 1.37 0 2.2l-.08.34c-.02.11-.08.2-.17.27-.09.08-.19.11-.31.11h-5.31a.63.63 0 0 1-.03.13c-.05.37-.05.72.02 1.03.06.31.21.57.42.76.22.19.51.29.87.29.3 0 .56-.04.79-.14.22-.09.41-.19.55-.31.14-.12.25-.21.33-.29.13-.13.22-.21.29-.23.06-.03.15-.04.27-.04h1.39c.1 0 .17.03.22.1.05.06.07.14.05.24-.05.17-.19.38-.4.62s-.5.49-.86.72c-.36.24-.79.43-1.29.58s-1.04.23-1.64.23Zm-.69-5.04h3.54l.02-.05c.1-.42.1-.78.02-1.1-.08-.31-.23-.56-.46-.74-.22-.18-.52-.26-.9-.26s-.71.09-1.02.26c-.3.18-.56.42-.76.74-.2.32-.35.68-.43 1.1l-.02.05ZM71.06 618.41a.31.31 0 0 1-.25-.11c-.06-.07-.08-.17-.06-.27l2.26-10.59c.02-.11.08-.2.16-.27s.18-.11.29-.11h1.33c.12 0 .21.04.26.11.06.08.08.17.06.27l-2.26 10.59a.47.47 0 0 1-.16.27.43.43 0 0 1-.3.11h-1.33ZM78.64 618.57c-.81 0-1.49-.15-2.02-.45-.54-.3-.92-.72-1.15-1.26-.23-.54-.29-1.18-.17-1.9.03-.19.08-.43.14-.7s.11-.51.17-.7c.19-.74.49-1.37.89-1.91.4-.54.91-.96 1.54-1.26.62-.3 1.36-.45 2.22-.45s1.49.15 2.02.45c.54.3.92.72 1.16 1.26.23.54.29 1.18.18 1.91-.04.19-.09.43-.14.7-.05.28-.11.51-.16.7-.19.73-.48 1.36-.87 1.9s-.9.96-1.52 1.26c-.62.3-1.38.45-2.26.45Zm.16-1.59c.58 0 1.06-.18 1.46-.54s.69-.88.87-1.58c.04-.16.09-.37.14-.62.05-.26.1-.46.13-.62.12-.69.07-1.22-.14-1.58-.21-.36-.61-.54-1.18-.54s-1.05.18-1.46.54c-.41.36-.69.88-.86 1.58-.04.16-.09.37-.15.62s-.1.46-.12.62c-.12.69-.07 1.22.14 1.58.21.36.6.54 1.18.54ZM86.92 618.41c-.16 0-.27-.04-.34-.12a.658.658 0 0 1-.13-.28l-1.42-7.49c-.02-.14 0-.25.08-.32s.18-.11.3-.11h1.22c.12 0 .21.03.27.1.06.06.11.15.13.27l.91 5.55 3.33-5.62c.03-.06.09-.13.17-.2s.18-.1.31-.1h1.39c.13 0 .22.05.26.14.05.1.03.21-.06.35L88.78 618c-.08.11-.16.2-.25.28-.09.08-.22.12-.38.12H86.9ZM96.66 618.57c-.78 0-1.43-.16-1.94-.46-.52-.31-.88-.76-1.07-1.34-.2-.59-.23-1.3-.09-2.13.02-.11.05-.24.08-.41.03-.17.06-.3.1-.39.21-.81.54-1.51.99-2.09.45-.58.99-1.03 1.64-1.34s1.36-.47 2.14-.47c.86 0 1.55.18 2.06.54.51.36.84.85 1.01 1.49.17.63.16 1.37 0 2.2l-.08.34c-.02.11-.08.2-.17.27-.09.08-.2.11-.31.11h-5.31a.63.63 0 0 1-.03.13c-.05.37-.05.72.02 1.03.06.31.21.57.42.76.22.19.51.29.87.29.3 0 .56-.04.78-.14.22-.09.41-.19.55-.31.14-.12.25-.21.33-.29.13-.13.22-.21.29-.23.06-.03.15-.04.27-.04h1.39c.1 0 .17.03.22.1.05.06.07.14.05.24-.05.17-.19.38-.4.62-.21.25-.5.49-.87.72-.36.24-.79.43-1.29.58s-1.04.23-1.64.23Zm-.69-5.04h3.54l.02-.05c.1-.42.1-.78.02-1.1-.08-.31-.23-.56-.46-.74-.22-.18-.52-.26-.9-.26s-.71.09-1.02.26-.56.42-.76.74c-.2.32-.35.68-.43 1.1l-.02.05ZM109.56 618.57c-.81 0-1.49-.15-2.02-.45s-.92-.72-1.15-1.26c-.23-.54-.29-1.18-.17-1.9.03-.19.08-.43.13-.7s.12-.51.17-.7c.19-.74.49-1.37.89-1.91.4-.54.91-.96 1.54-1.26.62-.3 1.36-.45 2.22-.45s1.49.15 2.02.45c.54.3.93.72 1.16 1.26.23.54.29 1.18.18 1.91-.04.19-.09.43-.14.7s-.11.51-.16.7c-.19.73-.48 1.36-.87 1.9-.39.54-.9.96-1.52 1.26s-1.38.45-2.26.45Zm.16-1.59c.58 0 1.06-.18 1.46-.54.4-.36.69-.88.87-1.58.04-.16.09-.37.14-.62s.1-.46.13-.62c.12-.69.07-1.22-.14-1.58-.21-.36-.61-.54-1.18-.54s-1.05.18-1.46.54c-.41.36-.69.88-.86 1.58-.04.16-.09.37-.15.62s-.1.46-.12.62c-.12.69-.07 1.22.14 1.58s.6.54 1.18.54ZM116.42 618.41c-.12 0-.21-.04-.26-.11-.06-.07-.08-.17-.06-.27l1.33-6.24h-1.29a.31.31 0 0 1-.25-.11c-.06-.07-.08-.17-.06-.29l.19-.91c.02-.11.08-.2.17-.27.09-.07.19-.11.31-.11h1.3l.13-.66c.15-.64.38-1.17.69-1.59.31-.42.7-.74 1.18-.95.48-.21 1.04-.32 1.68-.32h1.28c.12 0 .2.04.26.11.05.07.07.17.05.27l-.19.91c-.02.12-.08.21-.17.29s-.19.11-.3.11h-.96c-.43 0-.76.11-.99.32-.23.21-.39.52-.46.93l-.13.58h1.98c.12 0 .2.04.26.11.05.08.07.17.05.27l-.19.91c-.02.12-.08.21-.16.29a.43.43 0 0 1-.3.11h-1.98l-1.34 6.24c-.02.11-.07.2-.16.27-.08.08-.18.11-.29.11h-1.3ZM128.85 618.57c-.81 0-1.48-.15-2.02-.45s-.92-.72-1.15-1.26c-.23-.54-.29-1.18-.17-1.9.03-.19.08-.43.14-.7s.11-.51.17-.7c.19-.74.49-1.37.89-1.91.4-.54.91-.96 1.54-1.26.62-.3 1.36-.45 2.22-.45s1.49.15 2.02.45c.54.3.92.72 1.16 1.26.23.54.29 1.18.18 1.91-.04.19-.09.43-.14.7s-.11.51-.16.7c-.19.73-.48 1.36-.87 1.9-.39.54-.9.96-1.52 1.26s-1.38.45-2.26.45Zm.16-1.59c.58 0 1.06-.18 1.46-.54.4-.36.69-.88.87-1.58.04-.16.09-.37.14-.62.05-.26.1-.46.13-.62.12-.69.07-1.22-.14-1.58-.21-.36-.61-.54-1.18-.54s-1.05.18-1.46.54c-.41.36-.69.88-.86 1.58-.04.16-.09.37-.15.62s-.1.46-.12.62c-.12.69-.07 1.22.14 1.58s.6.54 1.18.54ZM134.32 621.45a.31.31 0 0 1-.25-.11c-.06-.07-.08-.17-.06-.27l2.26-10.59c.02-.11.08-.2.16-.27.09-.07.18-.11.29-.11H138c.11 0 .19.04.25.11.06.08.08.17.06.27l-.14.64c.33-.34.7-.62 1.1-.85.4-.22.93-.34 1.58-.34.55 0 1.03.09 1.42.28.39.19.7.45.92.79.22.34.37.74.44 1.21s.06.97-.04 1.53c-.02.18-.05.35-.09.51s-.08.34-.14.53c-.13.52-.31 1.02-.54 1.48-.24.46-.52.87-.86 1.22s-.73.62-1.18.81-.96.29-1.53.29c-.6 0-1.09-.1-1.47-.31-.38-.21-.66-.48-.83-.82l-.78 3.63a.47.47 0 0 1-.16.27.43.43 0 0 1-.3.11h-1.36Zm4.56-4.6c.43 0 .79-.1 1.09-.3.3-.2.55-.46.74-.78.2-.33.35-.67.47-1.05.05-.16.1-.32.13-.48.03-.16.06-.32.08-.48.05-.38.06-.74.02-1.06-.04-.32-.16-.58-.36-.78-.2-.2-.51-.3-.94-.3-.45 0-.83.1-1.16.3s-.59.46-.8.78c-.21.32-.36.64-.44.97-.05.19-.1.39-.14.61-.04.21-.08.42-.11.62-.05.32-.05.63 0 .92.06.29.2.54.43.73.23.19.56.29.98.29ZM148.13 618.57c-.78 0-1.43-.16-1.95-.46-.52-.31-.87-.76-1.07-1.34-.2-.59-.23-1.3-.09-2.13.02-.11.05-.24.08-.41.03-.17.06-.3.1-.39.21-.81.54-1.51.99-2.09.45-.58.99-1.03 1.64-1.34s1.36-.47 2.14-.47c.86 0 1.55.18 2.06.54.51.36.84.85 1.01 1.49s.16 1.37 0 2.2l-.08.34c-.02.11-.08.2-.17.27-.09.08-.19.11-.31.11h-5.31a.63.63 0 0 1-.03.13c-.05.37-.05.72.02 1.03.06.31.21.57.42.76.22.19.51.29.87.29.3 0 .56-.04.79-.14.22-.09.41-.19.55-.31.14-.12.25-.21.33-.29.13-.13.22-.21.29-.23.06-.03.15-.04.27-.04h1.39c.1 0 .17.03.22.1.05.06.07.14.05.24-.05.17-.19.38-.4.62s-.5.49-.86.72c-.36.24-.79.43-1.29.58s-1.04.23-1.64.23Zm-.69-5.04h3.54l.02-.05c.1-.42.1-.78.02-1.1-.08-.31-.23-.56-.46-.74-.22-.18-.52-.26-.9-.26s-.71.09-1.02.26c-.3.18-.56.42-.76.74-.2.32-.35.68-.43 1.1l-.02.05ZM153.96 618.41a.31.31 0 0 1-.25-.11c-.06-.07-.08-.17-.06-.27l1.6-7.55c.02-.11.08-.2.17-.27.09-.07.19-.11.3-.11h1.31c.11 0 .19.04.24.11.05.08.07.17.05.27l-.14.66c.34-.34.74-.63 1.21-.86s.99-.34 1.58-.34c.73 0 1.31.15 1.74.44.44.29.73.71.87 1.24s.14 1.17-.02 1.92l-.96 4.5c-.02.11-.07.2-.16.27a.43.43 0 0 1-.3.11h-1.41a.31.31 0 0 1-.25-.11c-.06-.07-.08-.17-.06-.27l.93-4.4c.14-.65.12-1.14-.04-1.48s-.56-.5-1.18-.5-1.12.18-1.54.53c-.42.35-.7.84-.84 1.46l-.93 4.4a.47.47 0 0 1-.16.27c-.09.08-.18.11-.29.11h-1.41ZM170.61 618.57c-.64 0-1.17-.08-1.59-.22-.42-.15-.75-.34-.99-.56s-.41-.45-.5-.67c-.09-.22-.12-.41-.1-.56.02-.12.08-.21.17-.28.09-.07.18-.1.28-.1h1.26s.08 0 .11.02c.03.01.06.04.1.1l.37.37c.13.13.29.24.49.33s.46.14.78.14c.42 0 .78-.08 1.1-.25.31-.17.5-.4.57-.71.04-.22.02-.41-.08-.54-.1-.14-.29-.26-.59-.38-.3-.11-.74-.23-1.33-.36-.58-.14-1.04-.31-1.38-.53-.35-.21-.58-.48-.71-.8-.12-.32-.13-.69-.04-1.12.08-.42.29-.81.62-1.19.33-.38.77-.69 1.32-.94s1.19-.37 1.93-.37c.58 0 1.06.07 1.46.22.4.14.72.32.96.54.24.21.41.43.5.65.1.22.13.41.1.57-.01.12-.06.21-.15.28-.09.07-.18.1-.28.1h-1.17a.32.32 0 0 1-.14-.03.272.272 0 0 1-.1-.08c-.11-.11-.22-.22-.33-.34-.11-.12-.26-.23-.43-.31-.18-.08-.42-.13-.74-.13-.41 0-.73.09-.98.26s-.41.4-.47.66c-.03.18-.01.34.06.47.07.13.25.26.54.38s.73.24 1.31.37c.69.13 1.22.32 1.59.57.37.25.61.54.72.86.11.33.13.69.04 1.08-.1.48-.33.91-.7 1.3-.37.38-.85.69-1.45.9-.6.22-1.3.33-2.11.33ZM179.52 618.57c-.81 0-1.49-.15-2.02-.45-.54-.3-.92-.72-1.15-1.26-.23-.54-.29-1.18-.17-1.9.03-.19.08-.43.14-.7s.11-.51.17-.7c.19-.74.49-1.37.89-1.91.4-.54.91-.96 1.54-1.26.62-.3 1.36-.45 2.22-.45s1.49.15 2.02.45c.54.3.92.72 1.16 1.26.23.54.29 1.18.18 1.91-.04.19-.09.43-.14.7-.05.28-.11.51-.16.7-.19.73-.48 1.36-.87 1.9s-.9.96-1.52 1.26c-.62.3-1.38.45-2.26.45Zm.16-1.59c.58 0 1.06-.18 1.46-.54s.69-.88.87-1.58c.04-.16.09-.37.14-.62.05-.26.1-.46.13-.62.12-.69.07-1.22-.14-1.58-.21-.36-.61-.54-1.18-.54s-1.05.18-1.46.54c-.41.36-.69.88-.86 1.58-.04.16-.09.37-.15.62s-.1.46-.12.62c-.12.69-.07 1.22.14 1.58.21.36.6.54 1.18.54ZM188.45 618.57c-.69 0-1.26-.15-1.7-.44-.44-.29-.73-.71-.87-1.25s-.14-1.18 0-1.91l.96-4.5c.02-.11.08-.2.17-.27.09-.07.19-.11.29-.11h1.41c.11 0 .19.04.24.11.05.08.07.17.05.27l-.93 4.4c-.1.44-.13.8-.09 1.1.04.29.16.52.36.66.2.15.52.22.94.22.58 0 1.08-.18 1.5-.53.43-.35.7-.84.83-1.46l.94-4.4c.02-.11.08-.2.17-.27.09-.07.19-.11.3-.11h1.39c.12 0 .2.04.26.11.05.08.07.17.05.27l-1.6 7.55c-.02.11-.07.2-.16.27-.08.08-.19.11-.3.11h-1.3a.31.31 0 0 1-.25-.11c-.06-.07-.08-.17-.06-.27l.13-.66c-.23.25-.47.46-.72.64s-.53.32-.85.42c-.32.1-.71.14-1.18.14ZM195.57 618.41a.31.31 0 0 1-.25-.11c-.06-.07-.08-.17-.06-.27l1.6-7.54a.482.482 0 0 1 .47-.4h1.3c.11 0 .19.04.25.11.06.08.08.17.06.29l-.14.66c.26-.34.58-.6.98-.78.39-.18.87-.27 1.44-.27h.78c.12 0 .2.04.26.11.05.08.07.17.05.27l-.24 1.15c-.02.11-.08.2-.17.27-.09.07-.19.11-.3.11h-1.25c-.51 0-.94.14-1.29.42-.35.28-.57.68-.68 1.19l-.94 4.4a.47.47 0 0 1-.16.27.43.43 0 0 1-.3.11h-1.39ZM205.46 618.57c-.71 0-1.34-.14-1.88-.43-.54-.29-.94-.71-1.19-1.26-.26-.55-.31-1.21-.18-1.99.03-.16.07-.37.13-.63.05-.26.1-.48.14-.65.29-1.16.82-2.07 1.6-2.71s1.77-.97 2.98-.97c.67 0 1.23.1 1.69.29.45.19.81.44 1.07.74s.44.61.54.93c.1.32.14.61.1.86 0 .12-.06.21-.14.28s-.17.1-.28.1h-1.46c-.11 0-.19-.03-.25-.08s-.09-.13-.1-.24c0-.43-.11-.74-.34-.93-.23-.19-.56-.29-.98-.29-.52 0-.99.17-1.4.5-.41.34-.71.87-.89 1.59-.04.19-.09.39-.13.59-.04.2-.08.38-.11.53-.12.74-.06 1.27.16 1.6.22.33.6.5 1.12.5.42 0 .79-.09 1.12-.26.33-.18.61-.48.83-.9.06-.12.13-.2.2-.25a.44.44 0 0 1 .26-.07h1.44c.11 0 .19.04.25.1s.07.16.04.28c-.07.24-.21.51-.41.82s-.47.62-.81.92c-.34.3-.77.54-1.29.74s-1.13.29-1.85.29ZM214.69 618.57c-.78 0-1.43-.16-1.95-.46-.52-.31-.87-.76-1.07-1.34-.2-.59-.23-1.3-.09-2.13.02-.11.05-.24.08-.41.03-.17.06-.3.1-.39.21-.81.54-1.51.99-2.09.45-.58.99-1.03 1.64-1.34s1.36-.47 2.14-.47c.86 0 1.55.18 2.06.54.51.36.84.85 1.01 1.49s.16 1.37 0 2.2l-.08.34c-.02.11-.08.2-.17.27-.09.08-.19.11-.31.11h-5.31a.63.63 0 0 1-.03.13c-.05.37-.05.72.02 1.03.06.31.21.57.42.76.22.19.51.29.87.29.3 0 .56-.04.79-.14.22-.09.41-.19.55-.31.14-.12.25-.21.33-.29.13-.13.22-.21.29-.23.06-.03.15-.04.27-.04h1.39c.1 0 .17.03.22.1.05.06.07.14.05.24-.05.17-.19.38-.4.62s-.5.49-.86.72c-.36.24-.79.43-1.29.58s-1.04.23-1.64.23Zm-.69-5.04h3.54l.02-.05c.1-.42.1-.78.02-1.1-.08-.31-.23-.56-.46-.74-.22-.18-.52-.26-.9-.26s-.71.09-1.02.26c-.3.18-.56.42-.76.74-.2.32-.35.68-.43 1.1l-.02.05ZM227.19 618.57c-.64 0-1.17-.08-1.59-.22-.42-.15-.75-.34-.99-.56-.24-.22-.41-.45-.5-.67s-.13-.41-.1-.56c.02-.12.08-.21.17-.28.09-.07.18-.1.28-.1h1.26s.08 0 .11.02c.03.01.06.04.1.1l.37.37c.13.13.29.24.49.33s.46.14.78.14c.42 0 .78-.08 1.1-.25s.5-.4.57-.71c.04-.22.02-.41-.08-.54s-.29-.26-.59-.38c-.3-.11-.74-.23-1.33-.36-.58-.14-1.04-.31-1.38-.53-.35-.21-.58-.48-.7-.8-.12-.32-.14-.69-.04-1.12.09-.42.29-.81.62-1.19.33-.38.77-.69 1.32-.94s1.19-.37 1.93-.37c.58 0 1.06.07 1.46.22.4.14.72.32.96.54.24.21.41.43.5.65s.13.41.1.57c-.01.12-.06.21-.15.28-.09.07-.18.1-.28.1h-1.17c-.05 0-.1-.01-.14-.03s-.07-.05-.1-.08c-.11-.11-.22-.22-.33-.34-.11-.12-.26-.23-.43-.31-.18-.08-.42-.13-.74-.13-.41 0-.73.09-.98.26s-.41.4-.47.66c-.03.18-.01.34.06.47.07.13.25.26.54.38s.73.24 1.31.37c.69.13 1.22.32 1.59.57.37.25.61.54.72.86.11.33.12.69.04 1.08-.1.48-.33.91-.7 1.3-.37.38-.85.69-1.45.9-.6.22-1.3.33-2.11.33ZM236.1 618.57c-.81 0-1.49-.15-2.02-.45-.54-.3-.92-.72-1.15-1.26s-.29-1.18-.17-1.9a18.749 18.749 0 0 1 .31-1.4c.19-.74.49-1.37.89-1.91.4-.54.91-.96 1.54-1.26.62-.3 1.36-.45 2.22-.45s1.48.15 2.02.45c.54.3.93.72 1.16 1.26.23.54.29 1.18.18 1.91-.04.19-.09.43-.14.7-.05.28-.11.51-.16.7-.19.73-.48 1.36-.87 1.9-.39.54-.9.96-1.52 1.26-.62.3-1.38.45-2.26.45Zm.16-1.59c.58 0 1.06-.18 1.46-.54s.69-.88.87-1.58c.04-.16.09-.37.14-.62.05-.26.1-.46.13-.62.12-.69.07-1.22-.14-1.58-.21-.36-.61-.54-1.18-.54s-1.05.18-1.46.54c-.4.36-.69.88-.86 1.58-.04.16-.09.37-.15.62s-.1.46-.12.62c-.12.69-.07 1.22.13 1.58.21.36.6.54 1.18.54ZM242.96 618.41c-.12 0-.21-.04-.26-.11-.06-.07-.08-.17-.06-.27l1.33-6.24h-1.3a.31.31 0 0 1-.25-.11c-.06-.07-.08-.17-.06-.29l.19-.91c.02-.11.08-.2.17-.27.09-.07.19-.11.31-.11h1.29l.13-.66c.15-.64.38-1.17.69-1.59.31-.42.7-.74 1.18-.95.48-.21 1.04-.32 1.68-.32h1.28c.12 0 .2.04.26.11.05.07.07.17.05.27l-.19.91c-.02.12-.08.21-.17.29s-.19.11-.3.11h-.96c-.43 0-.76.11-.99.32-.23.21-.39.52-.46.93l-.13.58h1.98c.12 0 .2.04.26.11.05.08.07.17.05.27l-.19.91c-.02.12-.07.21-.16.29-.08.08-.19.11-.3.11h-1.98l-1.34 6.24a.47.47 0 0 1-.16.27c-.09.08-.18.11-.29.11h-1.29ZM252.11 618.41c-.73 0-1.29-.11-1.7-.34-.4-.22-.67-.56-.78-1s-.11-.99.03-1.66l.79-3.63h-1.26a.31.31 0 0 1-.25-.11c-.06-.07-.08-.17-.06-.29l.19-.91c.02-.11.08-.2.17-.27.09-.07.2-.11.31-.11h1.25l.58-2.66c.02-.11.07-.2.16-.27.08-.07.18-.11.29-.11h1.3c.12 0 .21.04.26.11.06.08.08.17.06.27l-.58 2.66h2c.11 0 .19.04.25.11.06.08.08.17.06.27l-.19.91c-.02.12-.08.21-.17.29a.43.43 0 0 1-.3.11h-2l-.74 3.47c-.06.29-.1.54-.1.74 0 .21.05.37.17.48.12.11.33.17.62.17h1.15c.12 0 .2.04.26.11.05.08.07.17.05.27l-.21.99a.47.47 0 0 1-.16.27.43.43 0 0 1-.3.11h-1.14ZM257.27 618.41c-.15 0-.26-.04-.32-.11a.507.507 0 0 1-.11-.29l-.72-7.49c-.01-.12.02-.22.1-.3.08-.08.18-.13.32-.13h1.12c.13 0 .22.03.28.09.06.06.09.13.1.22l.46 5.3 2.75-5.25c.04-.08.11-.15.19-.23.09-.08.2-.12.34-.12h.83c.15 0 .25.04.3.12.05.08.09.16.1.23l.58 5.25 2.69-5.3c.03-.06.09-.13.16-.2s.18-.1.3-.1h1.3c.15 0 .24.05.26.14.03.1.01.2-.04.32l-3.86 7.46c-.06.12-.14.21-.23.29-.09.08-.21.11-.36.11h-1.06c-.15 0-.26-.04-.33-.11a.529.529 0 0 1-.14-.29l-.66-5.06-2.72 5.06a.85.85 0 0 1-.24.29c-.1.08-.22.11-.37.11h-1.04ZM271.09 618.57c-.55 0-1.02-.09-1.41-.28s-.69-.45-.9-.79c-.22-.34-.36-.74-.42-1.21-.06-.46-.05-.97.03-1.53.04-.19.08-.37.11-.52.03-.15.07-.33.11-.52.14-.53.32-1.03.55-1.49.23-.46.51-.86.85-1.21s.73-.62 1.18-.81c.45-.19.97-.29 1.56-.29.66 0 1.17.1 1.51.31s.62.46.81.76l.11-.53c.02-.11.08-.2.16-.27s.18-.11.29-.11h1.26c.11 0 .19.04.26.11.06.08.09.17.06.27l-1.62 7.55a.47.47 0 0 1-.16.27c-.09.08-.18.11-.29.11h-1.26c-.12 0-.21-.04-.26-.11-.06-.07-.08-.17-.06-.27l.13-.59c-.32.33-.67.6-1.06.82-.38.21-.9.32-1.55.32Zm.72-1.72c.45 0 .83-.1 1.15-.3.32-.2.58-.46.78-.78s.34-.64.42-.97c.05-.19.1-.4.14-.62s.08-.42.11-.62c.06-.32.07-.63.02-.92s-.19-.54-.41-.73c-.22-.19-.55-.29-.98-.29s-.77.1-1.06.3-.54.46-.73.78c-.19.32-.35.67-.46 1.06-.04.16-.08.32-.11.48s-.06.32-.08.48c-.05.38-.07.74-.04 1.06.03.32.14.58.34.78s.5.3.92.3ZM278.05 618.41a.31.31 0 0 1-.25-.11c-.06-.07-.08-.17-.06-.27l1.6-7.54a.482.482 0 0 1 .47-.4h1.29c.11 0 .19.04.25.11.06.08.08.17.06.29l-.14.66c.26-.34.58-.6.98-.78s.88-.27 1.44-.27h.78c.12 0 .2.04.26.11.05.08.07.17.05.27l-.24 1.15c-.02.11-.08.2-.17.27-.09.07-.19.11-.29.11h-1.25c-.51 0-.94.14-1.29.42-.35.28-.57.68-.68 1.19l-.94 4.4c-.02.11-.07.2-.16.27a.43.43 0 0 1-.3.11h-1.39ZM288.05 618.57c-.78 0-1.43-.16-1.95-.46-.52-.31-.87-.76-1.07-1.34-.2-.59-.23-1.3-.09-2.13.02-.11.05-.24.08-.41.03-.17.06-.3.1-.39.21-.81.54-1.51.99-2.09.45-.58.99-1.03 1.64-1.34s1.36-.47 2.14-.47c.86 0 1.55.18 2.06.54.51.36.84.85 1.01 1.49s.16 1.37 0 2.2l-.08.34c-.02.11-.08.2-.17.27-.09.08-.19.11-.31.11h-5.31a.63.63 0 0 1-.03.13c-.05.37-.05.72.02 1.03.06.31.21.57.42.76.22.19.51.29.87.29.3 0 .56-.04.79-.14.22-.09.41-.19.55-.31.14-.12.25-.21.33-.29.13-.13.22-.21.29-.23.06-.03.15-.04.27-.04h1.39c.1 0 .17.03.22.1.05.06.07.14.05.24-.05.17-.19.38-.4.62s-.5.49-.86.72c-.36.24-.79.43-1.29.58s-1.04.23-1.64.23Zm-.69-5.04h3.54l.02-.05c.1-.42.1-.78.02-1.1-.08-.31-.23-.56-.46-.74-.22-.18-.52-.26-.9-.26s-.71.09-1.02.26c-.3.18-.56.42-.76.74-.2.32-.35.68-.43 1.1l-.02.05ZM1125.56 618.57c-.88 0-1.63-.15-2.22-.44-.6-.29-1.05-.71-1.37-1.26s-.49-1.18-.52-1.9c-.01-.21-.02-.46-.02-.73s0-.51.02-.71c.03-.74.21-1.37.54-1.91.33-.54.79-.95 1.39-1.25.6-.29 1.32-.44 2.18-.44s1.56.15 2.16.44c.6.29 1.06.71 1.39 1.25.33.54.52 1.18.56 1.91.01.2.02.44.02.71s0 .51-.02.73c-.04.73-.22 1.36-.54 1.9s-.77.96-1.37 1.26c-.6.29-1.33.44-2.21.44Zm0-1.78c.52 0 .92-.16 1.18-.48.26-.32.41-.79.44-1.42.01-.16.02-.37.02-.64s0-.48-.02-.64c-.03-.62-.18-1.09-.44-1.42-.26-.33-.65-.49-1.18-.49s-.92.16-1.18.49-.42.8-.45 1.42c-.01.16-.02.37-.02.64s0 .48.02.64c.03.63.18 1.1.45 1.42.27.32.66.48 1.18.48ZM1134.64 618.57c-.66 0-1.23-.08-1.7-.23s-.86-.34-1.15-.57c-.29-.22-.51-.45-.66-.68-.14-.23-.22-.42-.23-.58-.01-.12.03-.21.11-.29.09-.07.17-.11.26-.11h1.55s.08 0 .1.02c.03.01.06.04.1.08.14.1.28.21.42.33.14.12.32.23.52.31.2.09.45.13.74.13.35 0 .65-.07.89-.22a.68.68 0 0 0 .36-.62c0-.19-.05-.35-.16-.48s-.31-.25-.62-.35c-.31-.11-.77-.22-1.38-.35-.58-.13-1.07-.3-1.47-.51-.41-.21-.71-.48-.91-.81-.2-.33-.3-.72-.3-1.18 0-.42.13-.82.39-1.2s.65-.7 1.16-.95c.51-.25 1.15-.38 1.92-.38.59 0 1.1.07 1.54.22.44.14.81.33 1.11.54s.53.44.68.67.24.43.25.6c.01.12-.02.21-.1.29s-.16.11-.26.11h-1.42c-.05 0-.1-.01-.14-.03s-.08-.05-.11-.08c-.13-.07-.26-.17-.39-.29a1.72 1.72 0 0 0-.47-.3c-.18-.08-.42-.13-.7-.13-.34 0-.61.08-.79.23a.724.724 0 0 0-.14 1c.1.13.29.25.58.35.29.11.75.22 1.37.34.73.13 1.3.32 1.73.58s.73.55.91.89c.18.34.27.7.27 1.08 0 .5-.15.95-.44 1.34-.29.39-.73.69-1.3.91-.58.22-1.28.33-2.11.33ZM1143.33 618.57c-.66 0-1.23-.08-1.7-.23s-.86-.34-1.15-.57c-.29-.22-.51-.45-.66-.68-.14-.23-.22-.42-.23-.58-.01-.12.03-.21.11-.29.09-.07.17-.11.26-.11h1.55s.08 0 .1.02c.03.01.06.04.1.08.14.1.28.21.42.33.14.12.32.23.52.31.2.09.45.13.74.13.35 0 .65-.07.89-.22a.68.68 0 0 0 .36-.62c0-.19-.05-.35-.16-.48s-.31-.25-.62-.35c-.31-.11-.77-.22-1.38-.35-.58-.13-1.07-.3-1.47-.51-.41-.21-.71-.48-.91-.81-.2-.33-.3-.72-.3-1.18 0-.42.13-.82.39-1.2s.65-.7 1.16-.95c.51-.25 1.15-.38 1.92-.38.59 0 1.1.07 1.54.22.44.14.81.33 1.11.54s.53.44.68.67.24.43.25.6c.01.12-.02.21-.1.29s-.16.11-.26.11h-1.42c-.05 0-.1-.01-.14-.03s-.08-.05-.11-.08c-.13-.07-.26-.17-.39-.29a1.72 1.72 0 0 0-.47-.3c-.18-.08-.42-.13-.7-.13-.34 0-.61.08-.79.23a.724.724 0 0 0-.14 1c.1.13.29.25.58.35.29.11.75.22 1.37.34.73.13 1.3.32 1.73.58s.73.55.91.89c.18.34.27.7.27 1.08 0 .5-.15.95-.44 1.34-.29.39-.73.69-1.3.91-.58.22-1.28.33-2.11.33ZM1149.04 618.41c-.12 0-.21-.04-.29-.11s-.11-.17-.11-.29v-1.81c0-.11.04-.2.11-.28.08-.08.17-.12.29-.12h1.81c.11 0 .2.04.28.12s.12.17.12.28v1.81c0 .12-.04.21-.12.29a.37.37 0 0 1-.28.11h-1.81ZM1153.56 618.41c-.12 0-.21-.04-.29-.11a.4.4 0 0 1-.11-.29v-10.56c0-.12.04-.21.11-.29a.4.4 0 0 1 .29-.11h1.6c.12 0 .21.04.29.11s.11.17.11.29v10.56c0 .12-.04.21-.11.29-.07.08-.17.11-.29.11h-1.6ZM1161.38 618.57c-.88 0-1.63-.15-2.22-.44-.6-.29-1.05-.71-1.37-1.26s-.49-1.18-.52-1.9c-.01-.21-.02-.46-.02-.73s0-.51.02-.71c.03-.74.21-1.37.54-1.91.33-.54.79-.95 1.39-1.25.6-.29 1.32-.44 2.18-.44s1.56.15 2.16.44c.6.29 1.06.71 1.39 1.25.33.54.52 1.18.56 1.91.01.2.02.44.02.71s0 .51-.02.73c-.04.73-.22 1.36-.54 1.9s-.77.96-1.37 1.26c-.6.29-1.33.44-2.21.44Zm0-1.78c.52 0 .92-.16 1.18-.48.26-.32.41-.79.44-1.42.01-.16.02-.37.02-.64s0-.48-.02-.64c-.03-.62-.18-1.09-.44-1.42-.26-.33-.65-.49-1.18-.49s-.92.16-1.18.49-.42.8-.45 1.42c-.01.16-.02.37-.02.64s0 .48.02.64c.03.63.18 1.1.45 1.42.27.32.66.48 1.18.48ZM1169.81 618.41c-.16 0-.28-.04-.36-.12a.95.95 0 0 1-.2-.28l-3.01-7.42s-.03-.09-.03-.14c0-.1.03-.18.1-.25s.15-.1.25-.1h1.55c.14 0 .24.04.31.11.07.08.11.14.14.21l1.97 5.26 1.97-5.26c.03-.06.08-.13.14-.21.06-.07.17-.11.3-.11h1.55c.1 0 .18.04.25.1.07.07.1.15.1.25 0 .05 0 .1-.02.14l-3.01 7.42c-.04.11-.11.2-.19.28-.09.08-.21.12-.38.12h-1.44ZM1179.6 618.57c-1.23 0-2.2-.34-2.92-1.02s-1.1-1.67-1.14-2.98v-.67c.04-.83.23-1.54.56-2.14.33-.59.79-1.04 1.39-1.36.6-.31 1.3-.47 2.1-.47.91 0 1.66.18 2.26.55.6.37 1.05.87 1.35 1.5.3.63.46 1.36.46 2.18v.37c0 .11-.04.2-.11.28a.37.37 0 0 1-.29.12h-5.22v.11c.01.34.08.65.19.94s.29.51.52.68c.23.17.51.26.84.26.26 0 .47-.04.64-.12s.31-.17.42-.27.19-.19.25-.26c.1-.12.17-.19.23-.22s.15-.04.26-.04h1.7c.1 0 .18.03.25.1.07.06.1.14.09.24-.01.18-.1.4-.26.65-.17.25-.41.5-.73.74s-.72.44-1.19.6-1.02.24-1.64.24Zm-1.56-5.11h3.12v-.05c0-.37-.06-.7-.18-.98s-.3-.5-.54-.66c-.23-.16-.52-.24-.85-.24s-.61.08-.84.24c-.23.16-.41.38-.53.66-.12.28-.18.61-.18.98v.05Z"/><path fill="#b7303d" stroke="#1c2126" stroke-linejoin="round" stroke-width=".33" d="m1104.46 614.96-5.57-3.22-5.58 3.22 11.15 6.43 11.16-6.43-5.58-3.22-5.58 3.22z"/><path fill="#ea4f4b" stroke="#1c2126" stroke-linejoin="round" stroke-width=".33" d="M1098.89 605.3v6.44l-5.58 3.22v-6.44l5.58-3.22z"/><path fill="#ff6b60" stroke="#1c2126" stroke-linejoin="round" stroke-width=".33" d="M1098.89 605.3v6.44l5.57 3.22v-6.44l-5.57-3.22z"/><path fill="#ea4f4b" stroke="#1c2126" stroke-linejoin="round" stroke-width=".33" d="M1110.04 605.3v6.44l-5.58 3.22v-6.44l5.58-3.22z"/><path fill="#ff6b60" stroke="#1c2126" stroke-linejoin="round" stroke-width=".33" d="M1110.04 605.3v6.44l5.57 3.22.01-6.44-5.58-3.22z"/></g></svg>