<svg xmlns="http://www.w3.org/2000/svg" xmlns:xlink="http://www.w3.org/1999/xlink" width="1200" height="630" viewBox="0 0 1200 630"><defs><pattern id="a" width="12.01" height="12" patternUnits="userSpaceOnUse" viewBox="0 0 12.01 12"><rect width="12.01" height="12" fill="none"/><rect width="7" height="7" fill="#ff6b60"/><rect x="7.01" width="5" height="7" fill="#054861" opacity="0"/><polygon points="0 12 0 7 12.01 7 12.01 12 0 12" fill="#054861" opacity="0"/></pattern><radialGradient id="b" cx="1097.44" cy="565" r="111.35" gradientUnits="userSpaceOnUse"><stop offset="0" stop-color="#20c6b7"/><stop offset="1" stop-color="#4d9abf"/></radialGradient></defs><rect x="-70.07" y="-821.85" width="6221.73" height="2273.11" fill="#a6a6a6"/><rect width="1200" height="498.72" fill="#b7303d"/><rect width="1200" height="498.72" opacity="0.15" fill="url(#a)"/><rect x="67.11" y="224.36" width="1065.78" height="340.64" rx="27.17" fill="#054861" stroke="#1c2126" stroke-miterlimit="10" stroke-width="2"/><path d="M121.16,142.17,125,118.26l1.62,8.18-17.27-34h17l8.53,18.48H132l14.53-18.48H164l-28.14,34.7,4.37-8.89-3.8,23.91Z" fill="#fff"/><path d="M169.4,143a22.42,22.42,0,0,1-11.14-2.5,14.06,14.06,0,0,1-6.32-7,19.67,19.67,0,0,1-.88-10.69,20.67,20.67,0,0,1,3.95-9.66,18.74,18.74,0,0,1,7.69-5.81A26.35,26.35,0,0,1,173,105.36a22.16,22.16,0,0,1,11.14,2.5,14,14,0,0,1,6.21,7,20,20,0,0,1,.85,10.71,21,21,0,0,1-3.92,9.67,18.53,18.53,0,0,1-7.58,5.81A26,26,0,0,1,169.4,143Zm.77-10.79a5.49,5.49,0,0,0,4.13-1.72,10.5,10.5,0,0,0,2.29-5.61q.78-4.94-.56-6.84a4.46,4.46,0,0,0-3.88-1.9,5.54,5.54,0,0,0-4.13,1.69c-1.1,1.13-1.87,3-2.29,5.64q-.78,4.93.53,6.84A4.42,4.42,0,0,0,170.17,132.22Z" fill="#fff"/><path d="M207.83,143q-7,0-9.94-4.12t-1.84-11.53l3.39-21.16H214.1l-3.38,21.3a4.18,4.18,0,0,0,.49,3.28,3.36,3.36,0,0,0,2.82,1.09,4.54,4.54,0,0,0,3.67-1.59,8.42,8.42,0,0,0,1.76-4.19l3.18-19.89H237.3l-5.71,36H217.28l.91-5.93h1.13a16.2,16.2,0,0,1-4.9,5A12.1,12.1,0,0,1,207.83,143Z" fill="#fff"/><path d="M259.37,142.17l4.09-25.74c.24-1.69.45-3.4.64-5.11s.33-3.43.42-5.12h14.1l-.14,5.71h-.77a13.78,13.78,0,0,1,5.22-4.93,15.13,15.13,0,0,1,7.12-1.62,11.45,11.45,0,0,1,6.49,1.79,8.27,8.27,0,0,1,3.38,5.68H298.3a16.34,16.34,0,0,1,6-5.5,15.75,15.75,0,0,1,7.44-2q6.56,0,9.17,4c1.73,2.66,2.16,6.81,1.26,12.45L319,142.17H304.22l3.25-20.67a6.29,6.29,0,0,0-.22-3.8,2.38,2.38,0,0,0-2.32-1.2,4.32,4.32,0,0,0-3.56,1.62,9.82,9.82,0,0,0-1.8,4.58l-3.1,19.47H281.8L285,121.5a6.39,6.39,0,0,0-.21-3.8,2.39,2.39,0,0,0-2.33-1.2,4.28,4.28,0,0,0-3.59,1.62,10,10,0,0,0-1.77,4.58L274,142.17Z" fill="#fff"/><path d="M341,143a13.51,13.51,0,0,1-8.39-2.61,14.21,14.21,0,0,1-4.94-7.19,22.54,22.54,0,0,1-.56-10.44,24.63,24.63,0,0,1,3.6-9.73,16.63,16.63,0,0,1,6.45-5.78,18.69,18.69,0,0,1,8.42-1.9,13.67,13.67,0,0,1,6.95,1.72,6.74,6.74,0,0,1,3.56,4.48l-.63.43,1.76-5.79h14.1q-.71,2.53-1.23,5.12c-.35,1.71-.67,3.42-.95,5.11l-4.09,25.74H350.55l.92-5.79h1.2a11.67,11.67,0,0,1-4.48,4.8A13.49,13.49,0,0,1,341,143Zm5.5-10.79a5.91,5.91,0,0,0,4.3-1.72,9.93,9.93,0,0,0,2.4-5.61q.78-4.94-.63-6.84a4.78,4.78,0,0,0-4.09-1.9,5.94,5.94,0,0,0-4.34,1.69q-1.73,1.69-2.36,5.64-.78,4.93.63,6.84A4.77,4.77,0,0,0,346.53,132.22Z" fill="#fff"/><path d="M371.85,142.17l8.25-51.9h14.67l-4.8,30h.14l12.41-14.11h17.63l-18,19.39-.07-4.72,12.55,21.3H397.52L389,127.64h-.14l-2.33,14.53Z" fill="#fff"/><path d="M436.37,143a23.66,23.66,0,0,1-11.78-2.64A15.09,15.09,0,0,1,418,133.1a19.05,19.05,0,0,1-1-10.54,21.67,21.67,0,0,1,3.52-9.06,18.59,18.59,0,0,1,6.88-6,20.69,20.69,0,0,1,9.62-2.15,16.37,16.37,0,0,1,9.31,2.46,13.42,13.42,0,0,1,5.22,6.7,18.76,18.76,0,0,1,.64,9.66l-.43,2.61h-23l1-6.62h12.06l-1.41,1.33q.56-3.45-.49-5a3.65,3.65,0,0,0-3.25-1.58,4.59,4.59,0,0,0-2.75.81,6.05,6.05,0,0,0-1.83,2.18,10.54,10.54,0,0,0-1,3.07l-.56,3.6q-.49,3.66,1.3,5.67t6.81,2a16.1,16.1,0,0,0,4.19-.53,23,23,0,0,0,4.41-1.72l3.45,9.52a23.07,23.07,0,0,1-6.62,2.68A33.45,33.45,0,0,1,436.37,143Z" fill="#fff"/><path d="M475.43,142.17l5.72-36h14.66l-5.71,36Zm6.14-40.06,2-12.83h15.1l-2,12.83Z" fill="#fff"/><path d="M516.83,143q-8.4,0-11.89-4.12t-2.36-11.39l1.69-10.58h-6.62l1.69-10.72H506l1.27-8.11,15.23-3.38-1.84,11.49H529l-1.7,10.72h-8.32l-1.62,10.16c-.28,1.74,0,2.89.92,3.45a5.69,5.69,0,0,0,3.1.85,10.65,10.65,0,0,0,1.87-.14,18.83,18.83,0,0,0,1.87-.5l-1.77,11.14a13.84,13.84,0,0,1-3.42.92A24.35,24.35,0,0,1,516.83,143Z" fill="#fff"/><path d="M569.57,143a23.59,23.59,0,0,1-11.77-2.64,15,15,0,0,1-6.63-7.27,19,19,0,0,1-1.06-10.54,21.55,21.55,0,0,1,3.53-9.06,18.48,18.48,0,0,1,6.87-6,20.76,20.76,0,0,1,9.63-2.15,16.33,16.33,0,0,1,9.3,2.46,13.42,13.42,0,0,1,5.22,6.7,18.65,18.65,0,0,1,.64,9.66l-.43,2.61h-23l1-6.62h12.06l-1.41,1.33c.38-2.3.21-4-.49-5a3.65,3.65,0,0,0-3.25-1.58,4.59,4.59,0,0,0-2.75.81,6.05,6.05,0,0,0-1.83,2.18,10.54,10.54,0,0,0-1,3.07l-.56,3.6q-.49,3.66,1.3,5.67t6.81,2a16.1,16.1,0,0,0,4.19-.53,23,23,0,0,0,4.41-1.72l3.46,9.52a23.13,23.13,0,0,1-6.63,2.68A33.45,33.45,0,0,1,569.57,143Z" fill="#fff"/><path d="M603.14,143a13.51,13.51,0,0,1-8.39-2.61,14.15,14.15,0,0,1-4.94-7.19,22.28,22.28,0,0,1-.56-10.44,24.48,24.48,0,0,1,3.59-9.73,16.7,16.7,0,0,1,6.45-5.78,18.73,18.73,0,0,1,8.43-1.9,13.7,13.7,0,0,1,6.95,1.72,6.8,6.8,0,0,1,3.56,4.48l-.64.43,1.77-5.79h14.1q-.71,2.53-1.23,5.12c-.36,1.71-.67,3.42-1,5.11l-4.09,25.74H612.66l.91-5.79h1.2a11.6,11.6,0,0,1-4.48,4.8A13.43,13.43,0,0,1,603.14,143Zm5.5-10.79a5.92,5.92,0,0,0,4.3-1.72,10.07,10.07,0,0,0,2.4-5.61q.76-4.94-.64-6.84a4.77,4.77,0,0,0-4.09-1.9,5.92,5.92,0,0,0-4.33,1.69c-1.16,1.13-1.94,3-2.37,5.64-.52,3.29-.3,5.57.64,6.84A4.77,4.77,0,0,0,608.64,132.22Z" fill="#fff"/><path d="M649.19,143a41.16,41.16,0,0,1-9.1-.91,24.22,24.22,0,0,1-6.7-2.47l3.67-9.45a31.11,31.11,0,0,0,6.06,2.22,26.18,26.18,0,0,0,6.63.88,7.23,7.23,0,0,0,3.28-.56,2,2,0,0,0,1.16-1.48,1.37,1.37,0,0,0-.39-1.34,2.85,2.85,0,0,0-1.58-.64l-7-1.06c-3.34-.51-5.73-1.74-7.16-3.66a9.48,9.48,0,0,1-1.45-7.41,12.33,12.33,0,0,1,3.07-6.45,15,15,0,0,1,6.28-4,25.46,25.46,0,0,1,8.49-1.34,37.63,37.63,0,0,1,7.69.77,17,17,0,0,1,6.28,2.61l-4,9.17a19.72,19.72,0,0,0-4.83-2,19.2,19.2,0,0,0-5.19-.81,8.44,8.44,0,0,0-3.73.6,2.11,2.11,0,0,0-1.27,1.51,1.62,1.62,0,0,0,.35,1.2,2.2,2.2,0,0,0,1.55.71l7,1.06q5.08.7,7.27,3.49c1.45,1.85,1.92,4.36,1.41,7.51a12.29,12.29,0,0,1-3.14,6.73,14.78,14.78,0,0,1-6.31,3.88A27.21,27.21,0,0,1,649.19,143Z" fill="#fff"/><path d="M667.17,158.17,665,146.89c2.35-.38,4.32-.77,5.92-1.2a12.53,12.53,0,0,0,4.06-1.8,9.68,9.68,0,0,0,2.78-3.06l2.4-4-.7,5.36-10-36h14.88L689,127.71h-2.54l12-21.51h14.88l-21.72,36.11a41.62,41.62,0,0,1-5.53,7.47,25.56,25.56,0,0,1-5.71,4.55,24.74,24.74,0,0,1-6.17,2.47Q671,157.61,667.17,158.17Z" fill="#fff"/><path d="M750,143q-8.38,0-11.88-4.12t-2.36-11.39l1.69-10.58h-6.63l1.69-10.72h6.63l1.27-8.11,15.23-3.38-1.83,11.49h8.32l-1.69,10.72h-8.32l-1.62,10.16c-.29,1.74,0,2.89.91,3.45a5.73,5.73,0,0,0,3.11.85,10.53,10.53,0,0,0,1.86-.14,17.48,17.48,0,0,0,1.87-.5l-1.76,11.14a14.07,14.07,0,0,1-3.42.92A24.62,24.62,0,0,1,750,143Z" fill="#fff"/><path d="M780.27,143a22.45,22.45,0,0,1-11.14-2.5,14,14,0,0,1-6.31-7,19.58,19.58,0,0,1-.88-10.69,20.67,20.67,0,0,1,3.95-9.66,18.71,18.71,0,0,1,7.68-5.81,26.44,26.44,0,0,1,10.3-1.94,22.19,22.19,0,0,1,11.14,2.5,14,14,0,0,1,6.21,7,19.88,19.88,0,0,1,.84,10.71,20.84,20.84,0,0,1-3.91,9.67,18.6,18.6,0,0,1-7.58,5.81A26.09,26.09,0,0,1,780.27,143Zm.78-10.79a5.47,5.47,0,0,0,4.12-1.72,10.43,10.43,0,0,0,2.29-5.61q.78-4.94-.56-6.84a4.45,4.45,0,0,0-3.88-1.9,5.52,5.52,0,0,0-4.12,1.69q-1.67,1.69-2.29,5.64-.78,4.93.52,6.84A4.44,4.44,0,0,0,781.05,132.22Z" fill="#fff"/><path d="M846.28,143a22.21,22.21,0,0,1-11.36-2.64,15,15,0,0,1-6.45-7.23,18.71,18.71,0,0,1-1-10.37,20.49,20.49,0,0,1,4-9.66,18.89,18.89,0,0,1,7.86-5.81,28.45,28.45,0,0,1,10.79-1.94,27.2,27.2,0,0,1,6.56.84,14.27,14.27,0,0,1,5.36,2.4l-4.16,9.87a10.23,10.23,0,0,0-3.42-1.55,15,15,0,0,0-4-.56,8.57,8.57,0,0,0-5.19,1.62q-2.22,1.62-2.85,5.5a8.22,8.22,0,0,0,1.06,6c1.08,1.7,2.91,2.54,5.5,2.54a11.77,11.77,0,0,0,3.52-.63,18,18,0,0,0,3.74-1.7l3.52,9.74A16.15,16.15,0,0,1,854.1,142,29,29,0,0,1,846.28,143Z" fill="#fff"/><path d="M881.75,143a22.49,22.49,0,0,1-11.15-2.5,14.09,14.09,0,0,1-6.31-7,19.67,19.67,0,0,1-.88-10.69,20.67,20.67,0,0,1,4-9.66,18.68,18.68,0,0,1,7.69-5.81,26.35,26.35,0,0,1,10.29-1.94,22.16,22.16,0,0,1,11.14,2.5,14,14,0,0,1,6.21,7,20,20,0,0,1,.85,10.71,21,21,0,0,1-3.92,9.67,18.53,18.53,0,0,1-7.58,5.81A26.07,26.07,0,0,1,881.75,143Zm.77-10.79a5.49,5.49,0,0,0,4.13-1.72,10.5,10.5,0,0,0,2.29-5.61q.78-4.94-.57-6.84a4.43,4.43,0,0,0-3.87-1.9,5.53,5.53,0,0,0-4.13,1.69c-1.1,1.13-1.87,3-2.29,5.64q-.78,4.93.53,6.84A4.42,4.42,0,0,0,882.52,132.22Z" fill="#fff"/><path d="M906.29,142.17l4.09-25.74c.23-1.69.44-3.4.63-5.11s.33-3.43.42-5.12h14.11l-.15,5.71h-.77a13.78,13.78,0,0,1,5.22-4.93,15.13,15.13,0,0,1,7.12-1.62,11.45,11.45,0,0,1,6.49,1.79,8.27,8.27,0,0,1,3.38,5.68h-1.62a16.34,16.34,0,0,1,6-5.5,15.75,15.75,0,0,1,7.44-2q6.55,0,9.17,4t1.27,12.45l-3.25,20.38H951.13l3.25-20.67a6.39,6.39,0,0,0-.21-3.8,2.4,2.4,0,0,0-2.33-1.2,4.32,4.32,0,0,0-3.56,1.62,9.82,9.82,0,0,0-1.8,4.58l-3.1,19.47H928.71L932,121.5a6.39,6.39,0,0,0-.21-3.8,2.39,2.39,0,0,0-2.33-1.2,4.28,4.28,0,0,0-3.59,1.62,10,10,0,0,0-1.77,4.58L921,142.17Z" fill="#fff"/><path d="M972.43,142.17l4.09-25.74c.23-1.69.44-3.4.63-5.11s.33-3.43.43-5.12h14.1l-.14,5.71h-.78A13.78,13.78,0,0,1,996,107a15.16,15.16,0,0,1,7.12-1.62,11.45,11.45,0,0,1,6.49,1.79,8.24,8.24,0,0,1,3.39,5.68h-1.63a16.49,16.49,0,0,1,6-5.5,15.75,15.75,0,0,1,7.44-2q6.57,0,9.17,4t1.27,12.45L1032,142.17h-14.74l3.24-20.67a6.39,6.39,0,0,0-.21-3.8,2.39,2.39,0,0,0-2.33-1.2,4.33,4.33,0,0,0-3.56,1.62,9.82,9.82,0,0,0-1.8,4.58l-3.1,19.47H994.85l3.25-20.67a6.29,6.29,0,0,0-.22-3.8,2.38,2.38,0,0,0-2.32-1.2,4.32,4.32,0,0,0-3.6,1.62,10.14,10.14,0,0,0-1.76,4.58l-3.1,19.47Z" fill="#fff"/><path d="M1038.57,142.17l5.72-36H1059l-5.71,36Zm6.14-40.06,2-12.83h15.09l-2,12.83Z" fill="#fff"/><path d="M1080,143q-8.39,0-11.88-4.12t-2.36-11.39l1.69-10.58h-6.63l1.7-10.72h6.63l1.26-8.11,15.24-3.38-1.84,11.49h8.32l-1.69,10.72h-8.32l-1.62,10.16c-.28,1.74,0,2.89.92,3.45a5.69,5.69,0,0,0,3.1.85,10.73,10.73,0,0,0,1.87-.14,18,18,0,0,0,1.86-.5l-1.76,11.14a14,14,0,0,1-3.42.92A24.5,24.5,0,0,1,1080,143Z" fill="#fff"/><polygon points="599.15 310.45 322.42 310.45 322.42 272.09 599.15 272.09 622.9 291.27 599.15 310.45" fill="#5cebdf" stroke="#1c2126" stroke-linejoin="round" stroke-width="2"/><polygon points="387.16 310.45 110.43 310.45 110.43 272.09 387.16 272.09 410.91 291.27 387.16 310.45" fill="#30c8c9" stroke="#1c2126" stroke-linejoin="round" stroke-width="2"/><polyline points="110.43 344.67 125.33 356.7 110.43 368.73" fill="none" stroke="#30c8c9" stroke-linecap="round" stroke-linejoin="round" stroke-width="2"/><path d="M156.89,362.6H147l-2.48,8.13H141l9.13-28.33h3.69L163,370.73h-3.65Zm-9-3h8l-4-13.08h-.1Z" fill="#fff"/><path d="M176,368.06h6.6v2.67H168.47v-2.67h4.3v-16H168v-2.67h8v5.44h.43c.79-3.95,3.44-6,7.55-6a8.67,8.67,0,0,1,3.08.47v3.75a11.39,11.39,0,0,0-3.52-.59c-4.71,0-7.5,3.26-7.5,8.68Z" fill="#fff"/><path d="M210.73,365.24c-.65,3.51-4,5.89-8.5,5.89-5.85,0-9.25-3.52-9.25-9.59v-3.2c0-5.61,3.59-9.31,9-9.31s8.8,3.68,8.8,9.84V361H196.28v.86c0,3.91,2.32,6.42,5.95,6.42,2.69,0,4.67-1.14,5.26-3Zm-14.45-6.82h11.21c0-4.06-2.08-6.52-5.52-6.52S196.28,354.34,196.28,358.42Z" fill="#fff"/><path d="M244.06,378.26v-2.93a7.17,7.17,0,0,0,1.17.08c2,0,3.11-.91,4-3.38l.37-1.16-7.83-21.44h3.63l6,17.83h.26l5.95-17.83h3.55l-8,22.09c-1.87,5.24-3.65,6.79-7.6,6.79C245,378.31,244.35,378.29,244.06,378.26Z" fill="#fff"/><path d="M267.09,361.7v-3.22c0-5.75,3.59-9.43,9.23-9.43s9.23,3.68,9.23,9.43v3.22c0,5.76-3.59,9.43-9.23,9.43S267.09,367.46,267.09,361.7Zm3.3-2.93v2.62c0,4.2,2.28,6.77,5.93,6.77s5.93-2.57,5.93-6.77v-2.62c0-4.18-2.28-6.77-5.93-6.77S270.39,354.59,270.39,358.77Z" fill="#fff"/><path d="M309.9,370.73h-3.2V367h-.28c-1.13,2.65-3.57,4.15-6.81,4.15-4.63,0-7.15-2.77-7.15-7.88V349.43h3.34v13c0,3.85,1.57,5.65,4.89,5.65,3.52,0,5.87-2.45,5.87-6.08V349.43h3.34Z" fill="#fff"/><path d="M351,349c4.44,0,7.44,2.22,7.84,5.78H355.6c-.4-1.87-2.18-3-4.68-3-2.71,0-4.46,1.26-4.46,3.2,0,1.63,1.1,2.56,3.77,3.15l3,.68c4.14.95,6,2.75,6,5.84,0,3.92-3.28,6.48-8.33,6.48-4.83,0-8-2.26-8.4-5.91h3.39c.5,2,2.38,3.1,5.13,3.1,2.91,0,4.75-1.32,4.75-3.36,0-1.69-1-2.59-3.75-3.2L348.9,361c-3.85-.88-5.75-2.82-5.75-5.85C343.15,351.49,346.29,349,351,349Z" fill="#fff"/><path d="M384.48,370.73h-3.2V367H381a7,7,0,0,1-6.82,4.15c-4.63,0-7.15-2.77-7.15-7.88V349.43h3.34v13c0,3.85,1.57,5.65,4.89,5.65,3.52,0,5.87-2.45,5.87-6.08V349.43h3.34Z" fill="#fff"/><path d="M399.78,368.06h6.6v2.67H392.22v-2.67h4.3v-16h-4.73v-2.67h7.95v5.44h.43c.79-3.95,3.44-6,7.54-6a8.69,8.69,0,0,1,3.09.47v3.75a11.44,11.44,0,0,0-3.52-.59c-4.71,0-7.5,3.26-7.5,8.68Z" fill="#fff"/><path d="M434.48,365.24c-.65,3.51-4,5.89-8.5,5.89-5.86,0-9.25-3.52-9.25-9.59v-3.2c0-5.61,3.59-9.31,9-9.31s8.8,3.68,8.8,9.84V361H420v.86c0,3.91,2.31,6.42,6,6.42,2.69,0,4.67-1.14,5.26-3ZM420,358.42h11.21c0-4.06-2.08-6.52-5.52-6.52S420,354.34,420,358.42Z" fill="#fff"/><path d="M450.46,342.12c4.76,0,8.15,3,8.15,7.13a7.57,7.57,0,0,1-4,6.76c-2.4,1.47-3.13,2.55-3.13,4.63v1.28h-3.41v-1.79c0-2.61,1.16-4.36,3.81-6,2.26-1.41,3.08-2.65,3.08-4.71,0-2.48-1.88-4.17-4.63-4.17a4.58,4.58,0,0,0-4.91,4.52H442.1C442.33,345.05,445.55,342.12,450.46,342.12Zm-3.24,26.2a2.69,2.69,0,1,1,2.69,2.79A2.73,2.73,0,0,1,447.22,368.32Z" fill="#fff"/><path d="M605.5,370.73V357.85h-12v12.88h-3.44V342.4h3.44v12.27h12V342.4h3.44v28.33Z" fill="#fff"/><path d="M633.37,365.24c-.65,3.51-4,5.89-8.51,5.89-5.85,0-9.25-3.52-9.25-9.59v-3.2c0-5.61,3.6-9.31,9-9.31s8.79,3.68,8.79,9.84V361H618.91v.86c0,3.91,2.32,6.42,6,6.42,2.69,0,4.68-1.14,5.26-3Zm-14.46-6.82h11.21c0-4.06-2.08-6.52-5.51-6.52S618.91,354.34,618.91,358.42Z" fill="#fff"/><path d="M654.81,356.06c-.41-2.49-2.49-4.06-5.24-4.06-3.72,0-5.78,2.53-5.78,7.11V361c0,4.58,2.06,7.09,5.78,7.09,2.75,0,4.83-1.55,5.24-4h3.3c-.53,4.34-3.77,7-8.49,7-5.79,0-9.17-3.56-9.17-9.67v-2.78c0-6.11,3.38-9.67,9.17-9.67,4.72,0,7.94,2.68,8.49,7.05Z" fill="#fff"/><path d="M679.83,349.43h4l-8.26,8.44,8.85,12.86h-4l-7.27-10.58-3,2.83v7.75H667V341.06h3.33V359h.26Z" fill="#fff"/><path d="M716.41,378.26v-2.93a7.38,7.38,0,0,0,1.18.08c2,0,3.1-.91,4-3.38l.37-1.16-7.84-21.44h3.64l6,17.83H724l5.95-17.83h3.56l-8,22.09c-1.86,5.24-3.65,6.79-7.6,6.79C717.35,378.31,716.71,378.29,716.41,378.26Z" fill="#fff"/><path d="M757.67,365.24c-.65,3.51-4,5.89-8.5,5.89-5.86,0-9.25-3.52-9.25-9.59v-3.2c0-5.61,3.59-9.31,9-9.31s8.8,3.68,8.8,9.84V361H743.22v.86c0,3.91,2.31,6.42,5.95,6.42,2.69,0,4.67-1.14,5.26-3Zm-14.45-6.82h11.21c0-4.06-2.08-6.52-5.52-6.52S743.22,354.34,743.22,358.42Z" fill="#fff"/><path d="M773.62,349c4.43,0,7.44,2.22,7.83,5.78h-3.22c-.39-1.87-2.18-3-4.67-3-2.71,0-4.46,1.26-4.46,3.2,0,1.63,1.1,2.56,3.77,3.15l3,.68c4.15.95,6,2.75,6,5.84,0,3.92-3.28,6.48-8.32,6.48-4.83,0-8-2.26-8.41-5.91h3.4c.49,2,2.38,3.1,5.12,3.1,2.91,0,4.76-1.32,4.76-3.36,0-1.69-1-2.59-3.75-3.2l-3.17-.73c-3.84-.88-5.75-2.82-5.75-5.85C765.78,351.49,768.92,349,773.62,349Z" fill="#fff"/><rect x="791.45" y="334.72" width="27.84" height="43.28" fill="#30c8c9"/><rect y="500" width="1200" height="130" fill="#fff"/><rect x="1097.49" y="500" width="102.51" height="130" fill="url(#b)"/><line y1="499.19" x2="1200" y2="499.19" fill="none" stroke="#1c2126" stroke-miterlimit="10"/><line x1="1097.49" y1="498.72" x2="1097.49" y2="630" fill="none" stroke="#1c2126" stroke-miterlimit="10"/><path d="M35.09,576.62V557.86H28.7v-2.38H44.05v2.38H37.67v18.76Z" fill="#1c2126"/><path d="M54.92,577.06c-4.8,0-7.75-3.46-7.75-9.3v-3.41c0-5.85,2.95-9.31,7.75-9.31s7.75,3.46,7.75,9.31v3.41C62.67,573.6,59.73,577.06,54.92,577.06Zm5.14-9.32v-3.38c0-4.41-1.93-6.87-5.14-6.87s-5.14,2.46-5.14,6.87v3.38c0,4.41,1.93,6.88,5.14,6.88S60.06,572.15,60.06,567.74Z" fill="#1c2126"/><path d="M70.82,562.75a2.65,2.65,0,1,1,2.65,2.71A2.7,2.7,0,0,1,70.82,562.75Zm0,11.25a2.65,2.65,0,1,1,2.65,2.71A2.69,2.69,0,0,1,70.82,574Z" fill="#1c2126"/><path d="M209.27,581.51a14.89,14.89,0,0,1-5.34-.91,11.41,11.41,0,0,1-6.75-6.75,14.91,14.91,0,0,1-.93-5.39,14.58,14.58,0,0,1,1-5.4,11.83,11.83,0,0,1,2.76-4.18,12.58,12.58,0,0,1,4.26-2.72,14.82,14.82,0,0,1,5.43-1,14.26,14.26,0,0,1,4.87.8,11,11,0,0,1,3.8,2.26,9.83,9.83,0,0,1,2.44,3.51,11.69,11.69,0,0,1,.86,4.56,12.33,12.33,0,0,1-.75,4.5,6.89,6.89,0,0,1-2.07,3,4.86,4.86,0,0,1-3.12,1.05,3.48,3.48,0,0,1-2.73-1,3.58,3.58,0,0,1-.78-2.81l.54.15a6.19,6.19,0,0,1-2.18,2.75,5.2,5.2,0,0,1-3,.94,4.69,4.69,0,0,1-3.68-1.45,5.79,5.79,0,0,1-1.3-4,8.75,8.75,0,0,1,.85-3.94,6.69,6.69,0,0,1,2.36-2.7,6.14,6.14,0,0,1,3.42-1,4.45,4.45,0,0,1,2.77.81,3.8,3.8,0,0,1,1.4,2.28H213l.51-2.82h2l-1.38,7.77c0,.26-.08.51-.11.75s0,.46,0,.66a2.16,2.16,0,0,0,.46,1.5,1.81,1.81,0,0,0,1.4.51,2.93,2.93,0,0,0,2.1-.87,5.81,5.81,0,0,0,1.41-2.41,11.59,11.59,0,0,0,.51-3.62,10.11,10.11,0,0,0-.72-3.9,8.21,8.21,0,0,0-2.07-3,9.34,9.34,0,0,0-3.23-1.89,12.51,12.51,0,0,0-4.18-.66,12.93,12.93,0,0,0-4.73.83,10.42,10.42,0,0,0-3.63,2.34,10.18,10.18,0,0,0-2.32,3.64,13.24,13.24,0,0,0-.81,4.74,12.85,12.85,0,0,0,1.35,6.09,9.3,9.3,0,0,0,3.86,3.92,12.09,12.09,0,0,0,5.89,1.36,12.82,12.82,0,0,0,4.53-.76,8.71,8.71,0,0,0,3.36-2.18l1,1.47a9.5,9.5,0,0,1-3.8,2.34A15.33,15.33,0,0,1,209.27,581.51Zm-1.44-8.4a4,4,0,0,0,2.46-.79,5.3,5.3,0,0,0,1.69-2.21,8,8,0,0,0,.62-3.21,3.73,3.73,0,0,0-.75-2.55,3,3,0,0,0-2.37-.84,4.29,4.29,0,0,0-2.48.75,5.1,5.1,0,0,0-1.72,2.07,7,7,0,0,0-.63,3.06,4.12,4.12,0,0,0,.82,2.76A3,3,0,0,0,207.83,573.11Z" fill="#1c2126"/><path d="M227.27,576.62v-2.13h5V557.6h1.32l-5.82,3.63v-2.49l5.19-3.27h1.8v19h4.68v2.13Z" fill="#1c2126"/><path d="M245.27,576.62v-2.13h5V557.6h1.32l-5.82,3.63v-2.49l5.19-3.27h1.8v19h4.68v2.13Z" fill="#1c2126"/><path d="M267.17,576.89a4.37,4.37,0,0,1-3.39-1.27,5.55,5.55,0,0,1-1.17-3.86v-8.31h-2.94v-1.89h2.94v-4.11l2.43-.69v4.8h4.32v1.89H265v8a4.16,4.16,0,0,0,.61,2.57,2.23,2.23,0,0,0,1.85.76,4.52,4.52,0,0,0,1-.1,5.14,5.14,0,0,0,.81-.26v2a4.69,4.69,0,0,1-1,.29A6.46,6.46,0,0,1,267.17,576.89Z" fill="#1c2126"/><path d="M271.91,583.43l-.57-2a12.5,12.5,0,0,0,2.35-.76,4.67,4.67,0,0,0,1.58-1.16,6.51,6.51,0,0,0,1.08-1.8l.78-1.77-.06,1-6.57-15.39h2.64l5.43,13.23h-.78l5.37-13.23h2.55l-7,16.32a11.58,11.58,0,0,1-1.32,2.42,7.58,7.58,0,0,1-1.55,1.59,7,7,0,0,1-1.81,1A13.08,13.08,0,0,1,271.91,583.43Z" fill="#1c2126"/><circle cx="135.29" cy="563.72" r="40" fill="#1c2126"/><path d="M1163.33,555.54h0l0,0a.19.19,0,0,1,0-.15l1.25-7.62,5.84,5.85-6.08,2.58h-.08l0,0A2.57,2.57,0,0,0,1163.33,555.54Zm8.48-.46,6.25,6.25c1.3,1.3,2,1.95,2.19,2.7l.09.33L1165.4,558h0c-.06,0-.12,0-.12-.11s.07-.1.13-.12h0Zm8.27,11.29a11.28,11.28,0,0,1-2,2.3l-7,7.05-9.12-1.9h0c-.09,0-.17,0-.17-.1a2.75,2.75,0,0,0-1.06-1.93s0-.09,0-.14v0l1.71-10.52v0c0-.08,0-.17.1-.17a2.81,2.81,0,0,0,1.87-1.07.1.1,0,0,1,0,0,.22.22,0,0,1,.17,0l15.56,6.58Zm-10.68,11-11.59,11.58,2-12.19h0a.09.09,0,0,1,0-.05s0,0,.09-.07h0a2.88,2.88,0,0,0,1.12-.83.25.25,0,0,1,.15-.1h0l8.16,1.68Zm-14,14-1.31,1.3-14.44-20.87,0,0a.18.18,0,0,1,0-.1s0,0,0-.06v0a2.12,2.12,0,0,0,.12-.2l0-.06h0a.27.27,0,0,1,.08-.1.17.17,0,0,1,.12,0l16,3.3a.18.18,0,0,1,.12.05.09.09,0,0,1,0,.07,2.81,2.81,0,0,0,1.66,1.89s0,.08,0,.13l0,.07C1157.55,578,1155.82,588.53,1155.36,591.38Zm-2.73,2.72a6.1,6.1,0,0,1-2.17,1.67,3.24,3.24,0,0,1-2,0c-.75-.24-1.4-.89-2.7-2.19l-14.5-14.5,3.79-5.88a.2.2,0,0,1,.06-.07.16.16,0,0,1,.15,0A3.93,3.93,0,0,0,1138,573s.09,0,.12,0l0,0,14.51,21.06Zm-22.72-16.42-3.32-3.33,6.57-2.8h0s.09.05.11.1l.21.3,0,0a.09.09,0,0,1,0,.08l-3.63,5.63Zm-4.8-4.8-4.21-4.21c-.71-.71-1.23-1.23-1.59-1.68l12.8,2.65h0c.08,0,.17,0,.17.1s-.1.12-.18.15l0,0Zm-6.54-8a3.54,3.54,0,0,1,.15-.8c.24-.75.89-1.4,2.18-2.7l5.39-5.39q3.72,5.4,7.46,10.78c0,.06.09.13,0,.18a4.35,4.35,0,0,0-.63.85.28.28,0,0,1-.09.1H1133l-14.43-3Zm9.16-10.33,7.24-7.24c.68.3,3.16,1.34,5.38,2.28l3.68,1.56a.17.17,0,0,1,.11.09.12.12,0,0,1,0,.1,3.22,3.22,0,0,0,.85,2.94s0,.12,0,.18l0,0-7.35,11.38a.31.31,0,0,1-.07.09.22.22,0,0,1-.14,0,3.2,3.2,0,0,0-.87-.12,5.05,5.05,0,0,0-.84.1h0s-.06,0-.08,0a.3.3,0,0,1-.08-.08l-7.75-11.31Zm8.71-8.7,9.37-9.38c1.3-1.3,2-1.95,2.7-2.19a3.24,3.24,0,0,1,2,0c.75.24,1.4.89,2.7,2.19l2,2-6.67,10.33-.07.08a.22.22,0,0,1-.14,0,3.39,3.39,0,0,0-3.1.59s-.11,0-.16,0C1144.18,549.07,1137.41,546.21,1136.44,545.8Zm20.16-5.93,6.16,6.15-1.48,9.19v0a.14.14,0,0,1,0,.06s0,0-.08.05a2.8,2.8,0,0,0-.88.44l0,0a.1.1,0,0,1-.07,0s0,0-.07,0l-9.38-4h0c-.06,0-.13-.05-.13-.12a3.39,3.39,0,0,0-.5-1.47c0-.08-.09-.15,0-.23Zm-6.34,13.88,8.8,3.72a.19.19,0,0,1,.12.09.17.17,0,0,1,0,.1,1.79,1.79,0,0,0,0,.42v.25c0,.06-.06.08-.12.11h0l-19.58,8.35a.11.11,0,0,1-.09,0s0-.12,0-.18l0,0,7.23-11.19v0c0-.07.09-.15.17-.15l.07,0a3.75,3.75,0,0,0,.45,0,3.25,3.25,0,0,0,2.73-1.45l0-.06A.15.15,0,0,1,1150.26,553.75Zm-10.07,14.81,19.8-8.45a.09.09,0,0,1,.06,0,2.82,2.82,0,0,0,.29.25l0,0s.08.05.09.1a.08.08,0,0,1,0,0L1158.77,571v0c0,.08,0,.17-.1.17a2.75,2.75,0,0,0-2.21,1.37h0a.18.18,0,0,1-.08.09.14.14,0,0,1-.11,0l-15.8-3.25S1140.21,568.56,1140.19,568.56Z" fill="#fff"/><line x1="548.51" y1="498.72" x2="548.51" y2="630" fill="none" stroke="#1c2126" stroke-miterlimit="10"/><path d="M584.7,576.62V555.48h12.46v2.38h-9.87v7.25h9v2.3h-9v9.21Z" fill="#1c2126"/><path d="M604.74,568.2v8.42h-2.55V555.48h7.09c4.19,0,6.81,2.44,6.81,6.36a5.91,5.91,0,0,1-3.94,5.83l4.31,9h-2.92l-3.94-8.42Zm0-2.18h4.19c2.91,0,4.55-1.48,4.55-4.12s-1.61-4.12-4.44-4.12h-4.3Z" fill="#1c2126"/><path d="M627.34,577.06c-4.8,0-7.75-3.46-7.75-9.3v-3.41c0-5.85,2.95-9.31,7.75-9.31s7.75,3.46,7.75,9.31v3.41C635.09,573.6,632.14,577.06,627.34,577.06Zm5.14-9.32v-3.38c0-4.41-1.93-6.87-5.14-6.87s-5.14,2.46-5.14,6.87v3.38c0,4.41,1.93,6.88,5.14,6.88S632.48,572.15,632.48,567.74Z" fill="#1c2126"/><path d="M640.57,576.62h-2.3V555.48h2.88l4.65,13.13H646l4.61-13.13h2.9v21.14h-2.3v-8.11l.13-8.56h-.19l-4.25,11.71h-2L640.62,560h-.18l.13,8.56Z" fill="#1c2126"/><path d="M661.78,562.75a2.65,2.65,0,1,1,2.65,2.71A2.7,2.7,0,0,1,661.78,562.75Zm0,11.25a2.65,2.65,0,1,1,2.65,2.71A2.69,2.69,0,0,1,661.78,574Z" fill="#1c2126"/><path d="M804.86,581.51a14.89,14.89,0,0,1-5.34-.91,11.41,11.41,0,0,1-6.75-6.75,14.91,14.91,0,0,1-.93-5.39,14.58,14.58,0,0,1,1-5.4,11.83,11.83,0,0,1,2.76-4.18,12.58,12.58,0,0,1,4.26-2.72,14.82,14.82,0,0,1,5.43-1,14.31,14.31,0,0,1,4.88.8,11,11,0,0,1,3.79,2.26,10,10,0,0,1,2.45,3.51,11.69,11.69,0,0,1,.85,4.56,12.33,12.33,0,0,1-.75,4.5,6.89,6.89,0,0,1-2.07,3,4.86,4.86,0,0,1-3.12,1.05,3.48,3.48,0,0,1-2.73-1,3.58,3.58,0,0,1-.78-2.81l.54.15a6.18,6.18,0,0,1-2.17,2.75,5.24,5.24,0,0,1-3,.94,4.67,4.67,0,0,1-3.67-1.45,5.8,5.8,0,0,1-1.31-4,8.75,8.75,0,0,1,.86-3.94,6.66,6.66,0,0,1,2.35-2.7,6.14,6.14,0,0,1,3.42-1,4.48,4.48,0,0,1,2.78.81,3.79,3.79,0,0,1,1.39,2.28h-.36l.51-2.82h2l-1.38,7.77c0,.26-.07.51-.1.75a5.42,5.42,0,0,0,0,.66,2.16,2.16,0,0,0,.47,1.5,1.78,1.78,0,0,0,1.39.51,2.93,2.93,0,0,0,2.1-.87,5.81,5.81,0,0,0,1.41-2.41,11.59,11.59,0,0,0,.51-3.62,10.11,10.11,0,0,0-.72-3.9,8.21,8.21,0,0,0-2.07-3,9.29,9.29,0,0,0-3.22-1.89,12.57,12.57,0,0,0-4.19-.66,12.88,12.88,0,0,0-4.72.83,10.42,10.42,0,0,0-3.63,2.34,10.21,10.21,0,0,0-2.33,3.64,13.24,13.24,0,0,0-.81,4.74,12.85,12.85,0,0,0,1.35,6.09,9.35,9.35,0,0,0,3.86,3.92,12.12,12.12,0,0,0,5.89,1.36,12.82,12.82,0,0,0,4.53-.76,8.71,8.71,0,0,0,3.36-2.18l1,1.47A9.46,9.46,0,0,1,810,580.7,15.39,15.39,0,0,1,804.86,581.51Zm-1.44-8.4a4,4,0,0,0,2.46-.79,5.31,5.31,0,0,0,1.7-2.21,8,8,0,0,0,.61-3.21,3.73,3.73,0,0,0-.75-2.55,3,3,0,0,0-2.37-.84,4.26,4.26,0,0,0-2.47.75,5.12,5.12,0,0,0-1.73,2.07,7,7,0,0,0-.63,3.06,4.12,4.12,0,0,0,.83,2.76A2.93,2.93,0,0,0,803.42,573.11Z" fill="#1c2126"/><path d="M821.42,576.62V554.54h2.43v22.08Z" fill="#1c2126"/><path d="M828,583.43l-.57-2a12.62,12.62,0,0,0,2.36-.76,4.63,4.63,0,0,0,1.57-1.16,6.51,6.51,0,0,0,1.08-1.8l.78-1.77-.06,1-6.57-15.39h2.64l5.43,13.23h-.78l5.37-13.23h2.55l-7,16.32a11.58,11.58,0,0,1-1.32,2.42,7.55,7.55,0,0,1-1.54,1.59,7.06,7.06,0,0,1-1.82,1A13.08,13.08,0,0,1,828,583.43Z" fill="#1c2126"/><path d="M844.49,576.62V565c0-.56,0-1.13-.07-1.72s-.11-1.18-.17-1.76h2.34l.3,3.3h-.36a5.21,5.21,0,0,1,2.12-2.65,6.19,6.19,0,0,1,3.37-.92,5.35,5.35,0,0,1,4,1.43,6.29,6.29,0,0,1,1.36,4.48v9.42H855v-9.27a4.63,4.63,0,0,0-.85-3.1,3.36,3.36,0,0,0-2.66-1,4.38,4.38,0,0,0-3.33,1.29,4.79,4.79,0,0,0-1.23,3.45v8.61Z" fill="#1c2126"/><path d="M862.07,576.62V565c0-.56,0-1.13-.07-1.72s-.11-1.18-.17-1.76h2.34l.3,3.3h-.36a5.21,5.21,0,0,1,2.12-2.65,6.19,6.19,0,0,1,3.37-.92,5.35,5.35,0,0,1,4,1.43A6.29,6.29,0,0,1,875,567.2v9.42h-2.43v-9.27a4.63,4.63,0,0,0-.85-3.1,3.36,3.36,0,0,0-2.66-1,4.38,4.38,0,0,0-3.33,1.29A4.79,4.79,0,0,0,864.5,568v8.61Z" fill="#1c2126"/><path d="M885.38,576.89a6.44,6.44,0,0,1-3.51-.94,6.25,6.25,0,0,1-2.32-2.69,11,11,0,0,1,0-8.37,6.14,6.14,0,0,1,2.32-2.67,6.52,6.52,0,0,1,3.51-.93,6,6,0,0,1,3.53,1,4.85,4.85,0,0,1,2,2.8h-.36l.33-3.57h2.34c-.06.58-.11,1.17-.16,1.76s-.08,1.16-.08,1.72v11.58h-2.43v-3.54h.33a4.78,4.78,0,0,1-2,2.79A6,6,0,0,1,885.38,576.89Zm.48-2a4.25,4.25,0,0,0,3.42-1.48,8.14,8.14,0,0,0,0-8.7,4.65,4.65,0,0,0-6.82,0,8,8,0,0,0,0,8.7A4.25,4.25,0,0,0,885.86,574.91Z" fill="#1c2126"/><path d="M897.65,576.62V565c0-.56,0-1.13-.07-1.72s-.11-1.18-.17-1.76h2.34l.3,3.3h-.36a5.21,5.21,0,0,1,2.12-2.65,6.19,6.19,0,0,1,3.37-.92,5.35,5.35,0,0,1,4,1.43,6.29,6.29,0,0,1,1.36,4.48v9.42h-2.43v-9.27a4.63,4.63,0,0,0-.85-3.1,3.36,3.36,0,0,0-2.66-1,4.38,4.38,0,0,0-3.33,1.29,4.79,4.79,0,0,0-1.23,3.45v8.61Z" fill="#1c2126"/><path d="M920.93,576.89a6.39,6.39,0,0,1-3.48-.94,6.25,6.25,0,0,1-2.32-2.69,11,11,0,0,1,0-8.37,6.14,6.14,0,0,1,2.32-2.67,6.47,6.47,0,0,1,3.48-.93,6.09,6.09,0,0,1,3.53,1,4.93,4.93,0,0,1,2,2.76h-.36V554.54h2.43v22.08h-2.4V573h.33a4.86,4.86,0,0,1-2,2.84A6.08,6.08,0,0,1,920.93,576.89Zm.51-2a4.3,4.3,0,0,0,3.42-1.48,8,8,0,0,0,0-8.7,4.31,4.31,0,0,0-3.42-1.49,4.26,4.26,0,0,0-3.4,1.49,8,8,0,0,0,0,8.7A4.25,4.25,0,0,0,921.44,574.91Z" fill="#1c2126"/><path d="M938.57,576.89a4.37,4.37,0,0,1-3.39-1.27,5.55,5.55,0,0,1-1.17-3.86v-8.31h-2.94v-1.89H934v-4.11l2.43-.69v4.8h4.32v1.89h-4.32v8a4.16,4.16,0,0,0,.62,2.57,2.21,2.21,0,0,0,1.84.76,4.52,4.52,0,0,0,1-.1,5.14,5.14,0,0,0,.81-.26v2a4.59,4.59,0,0,1-1,.29A6.57,6.57,0,0,1,938.57,576.89Z" fill="#1c2126"/><path d="M949.76,576.89A7.26,7.26,0,0,1,946,576a6.3,6.3,0,0,1-2.48-2.7,10.4,10.4,0,0,1,0-8.33,6.31,6.31,0,0,1,2.48-2.68,7.27,7.27,0,0,1,3.76-1,7.37,7.37,0,0,1,3.8,1,6.39,6.39,0,0,1,2.49,2.68,10.3,10.3,0,0,1,0,8.33,6.39,6.39,0,0,1-2.49,2.7A7.36,7.36,0,0,1,949.76,576.89Zm0-2a4.25,4.25,0,0,0,3.42-1.48,8.14,8.14,0,0,0,0-8.7,4.64,4.64,0,0,0-6.81,0,8.14,8.14,0,0,0,0,8.7A4.21,4.21,0,0,0,949.76,574.91Z" fill="#1c2126"/><path d="M960.71,576.62V565c0-.56,0-1.13-.07-1.72s-.11-1.18-.17-1.76h2.34l.3,3.3h-.36a5.21,5.21,0,0,1,2.12-2.65,6.19,6.19,0,0,1,3.37-.92,5.35,5.35,0,0,1,4,1.43,6.29,6.29,0,0,1,1.36,4.48v9.42h-2.43v-9.27a4.63,4.63,0,0,0-.85-3.1,3.36,3.36,0,0,0-2.66-1,4.38,4.38,0,0,0-3.33,1.29,4.79,4.79,0,0,0-1.23,3.45v8.61Z" fill="#1c2126"/><path d="M978,558.14v-2.73h3v2.73Zm.3,18.48V561.56h2.43v15.06Z" fill="#1c2126"/><path d="M991.76,576.89a7.46,7.46,0,0,1-3.85-1,6.41,6.41,0,0,1-2.52-2.73,9.29,9.29,0,0,1-.89-4.2,8.93,8.93,0,0,1,.9-4.18,6.2,6.2,0,0,1,2.54-2.63,7.79,7.79,0,0,1,3.82-.9,8,8,0,0,1,2.81.51,6,6,0,0,1,2.26,1.44L996,565a6,6,0,0,0-2-1.29,5.69,5.69,0,0,0-2.09-.42,4.57,4.57,0,0,0-3.63,1.47A6.32,6.32,0,0,0,987,569a6.51,6.51,0,0,0,1.29,4.32,4.49,4.49,0,0,0,3.63,1.53,6,6,0,0,0,2.06-.39,5.66,5.66,0,0,0,2-1.29l.87,1.71a6.11,6.11,0,0,1-2.31,1.47A7.91,7.91,0,0,1,991.76,576.89Z" fill="#1c2126"/><circle cx="730.89" cy="563.72" r="40" fill="#1c2126"/></svg>