<?xml version="1.0" encoding="UTF-8"?><svg xmlns="http://www.w3.org/2000/svg" xmlns:xlink="http://www.w3.org/1999/xlink" viewBox="0 0 1200 630"><defs><clipPath id="e"><rect width="1200" height="498.72" fill="none"/></clipPath></defs><g id="b"><rect width="1200" height="498.72" fill="#ffb916"/></g><g id="d"><path d="M93.84,153.51c-.66,0-1.21-.21-1.63-.63-.42-.42-.63-.96-.63-1.63v-19.9l-21.17-38.26c-.06-.18-.12-.35-.18-.5-.06-.15-.09-.32-.09-.5,0-.48.19-.92.59-1.31.39-.39.83-.59,1.31-.59h9.68c.78,0,1.42.21,1.9.63.48.42.81.81,1,1.18l14.2,24.87,14.2-24.87c.18-.36.51-.75,1-1.18.48-.42,1.14-.63,1.99-.63h9.59c.54,0,1,.2,1.36.59.36.39.54.83.54,1.31,0,.18-.02.35-.04.5-.03.15-.11.32-.23.5l-21.17,38.26v19.9c0,.66-.21,1.21-.63,1.63s-.97.63-1.63.63h-9.95Z" fill="#1c2126"/><path d="M148.57,154.42c-5.01,0-9.2-.83-12.57-2.49s-5.96-4.02-7.73-7.1c-1.78-3.08-2.76-6.66-2.94-10.76-.06-1.21-.09-2.58-.09-4.12s.03-2.88.09-4.02c.18-4.16,1.21-7.76,3.08-10.81,1.87-3.04,4.49-5.4,7.87-7.06,3.38-1.66,7.48-2.49,12.3-2.49s8.83.83,12.21,2.49c3.38,1.66,6,4.01,7.87,7.06,1.87,3.05,2.92,6.65,3.17,10.81.06,1.15.09,2.49.09,4.02s-.03,2.91-.09,4.12c-.24,4.1-1.25,7.69-3.03,10.76-1.78,3.08-4.36,5.44-7.73,7.1-3.38,1.66-7.54,2.49-12.48,2.49ZM148.57,144.38c2.95,0,5.17-.9,6.65-2.71,1.48-1.81,2.31-4.49,2.49-8.05.06-.9.09-2.11.09-3.62s-.03-2.71-.09-3.62c-.18-3.5-1.01-6.16-2.49-8-1.48-1.84-3.69-2.76-6.65-2.76s-5.19.92-6.69,2.76c-1.51,1.84-2.35,4.51-2.53,8-.06.9-.09,2.11-.09,3.62s.03,2.71.09,3.62c.18,3.56,1.03,6.24,2.53,8.05,1.51,1.81,3.74,2.71,6.69,2.71Z" fill="#1c2126"/><path d="M198.68,154.42c-3.5,0-6.59-.8-9.27-2.4-2.68-1.6-4.78-3.92-6.29-6.96-1.51-3.04-2.26-6.74-2.26-11.08v-25.24c0-.66.23-1.21.68-1.63.45-.42.98-.63,1.58-.63h9.68c.6,0,1.12.21,1.54.63.42.42.63.97.63,1.63v24.69c0,6.75,2.95,10.13,8.86,10.13,2.83,0,5.08-.89,6.74-2.67,1.66-1.78,2.49-4.27,2.49-7.46v-24.69c0-.66.21-1.21.63-1.63.42-.42.96-.63,1.63-.63h9.59c.6,0,1.12.21,1.54.63.42.42.63.97.63,1.63v42.51c0,.66-.21,1.21-.63,1.63s-.94.63-1.54.63h-8.95c-.6,0-1.12-.21-1.54-.63-.42-.42-.63-.96-.63-1.63v-3.53c-1.57,2.17-3.59,3.83-6.06,4.97-2.47,1.14-5.49,1.72-9.04,1.72Z" fill="#1c2126"/><path d="M238.11,110.82c-.54,0-.98-.18-1.31-.54-.33-.36-.47-.87-.41-1.54l2.62-16.46c.12-.78.42-1.48.9-2.08.48-.6,1.21-.9,2.17-.9h9.41c.48,0,.89.18,1.22.54.33.36.5.75.5,1.18s-.09.78-.27,1.09l-6.24,16.28c-.24.6-.59,1.16-1.04,1.67-.45.51-1.16.77-2.12.77h-5.43Z" fill="#1c2126"/><path d="M261.81,153.51c-.6,0-1.13-.21-1.58-.63-.45-.42-.68-.96-.68-1.63v-42.51c0-.6.23-1.13.68-1.58.45-.45.98-.68,1.58-.68h8.86c.66,0,1.21.23,1.63.68.42.45.63.98.63,1.58v3.62c1.51-1.87,3.38-3.32,5.61-4.34,2.23-1.02,4.76-1.54,7.6-1.54h3.89c.66,0,1.21.21,1.63.63.42.42.63.97.63,1.63v7.87c0,.6-.21,1.12-.63,1.54s-.97.63-1.63.63h-7.87c-2.71,0-4.81.75-6.29,2.26-1.48,1.51-2.22,3.59-2.22,6.24v23.97c0,.66-.23,1.21-.68,1.63-.45.42-.98.63-1.58.63h-9.59Z" fill="#1c2126"/><path d="M319.52,154.42c-6.93,0-12.44-1.93-16.51-5.79-4.07-3.86-6.23-9.47-6.47-16.82v-3.8c.24-4.7,1.3-8.73,3.17-12.07,1.87-3.35,4.49-5.91,7.87-7.69,3.38-1.78,7.33-2.67,11.85-2.67,5.12,0,9.38,1.04,12.75,3.12,3.38,2.08,5.92,4.92,7.64,8.5,1.72,3.59,2.58,7.7,2.58,12.35v2.08c0,.6-.21,1.13-.63,1.58-.42.45-.96.68-1.63.68h-29.49v.63c.06,1.93.42,3.69,1.09,5.29.66,1.6,1.64,2.88,2.94,3.84,1.3.97,2.88,1.45,4.75,1.45,1.45,0,2.65-.23,3.62-.68.96-.45,1.76-.96,2.4-1.54.63-.57,1.1-1.07,1.4-1.49.54-.66.98-1.07,1.31-1.22.33-.15.83-.23,1.49-.23h9.59c.54,0,1.01.18,1.4.54.39.36.56.81.5,1.36-.06,1.03-.56,2.25-1.49,3.66-.94,1.42-2.31,2.8-4.12,4.16-1.81,1.36-4.06,2.49-6.74,3.39-2.68.9-5.77,1.36-9.27,1.36ZM310.65,125.56h17.64v-.27c0-2.11-.35-3.96-1.04-5.56-.69-1.6-1.7-2.85-3.03-3.75-1.33-.9-2.93-1.36-4.79-1.36s-3.45.45-4.75,1.36c-1.3.9-2.29,2.16-2.99,3.75-.69,1.6-1.04,3.45-1.04,5.56v.27Z" fill="#1c2126"/><path d="M373.69,153.51c-.6,0-1.13-.21-1.58-.63-.45-.42-.68-.96-.68-1.63v-42.51c0-.66.23-1.21.68-1.63.45-.42.98-.63,1.58-.63h8.41c.66,0,1.21.21,1.63.63.42.42.63.97.63,1.63v3.08c1.27-1.69,2.97-3.13,5.11-4.34,2.14-1.21,4.69-1.84,7.64-1.9,6.93-.12,11.73,2.53,14.38,7.96,1.39-2.35,3.38-4.27,5.97-5.74,2.59-1.48,5.46-2.22,8.59-2.22s5.97.71,8.5,2.13c2.53,1.42,4.55,3.59,6.06,6.51,1.51,2.93,2.26,6.68,2.26,11.26v25.78c0,.66-.23,1.21-.68,1.63-.45.42-.98.63-1.58.63h-8.96c-.66,0-1.21-.21-1.63-.63-.42-.42-.63-.96-.63-1.63v-25.05c0-2.47-.35-4.4-1.04-5.79-.69-1.39-1.63-2.4-2.8-3.03-1.18-.63-2.49-.95-3.93-.95-1.27,0-2.49.32-3.66.95-1.18.63-2.14,1.64-2.89,3.03-.75,1.39-1.13,3.32-1.13,5.79v25.05c0,.66-.21,1.21-.63,1.63s-.94.63-1.54.63h-8.95c-.67,0-1.21-.21-1.63-.63-.42-.42-.63-.96-.63-1.63v-25.05c0-2.47-.36-4.4-1.08-5.79-.72-1.39-1.67-2.4-2.85-3.03-1.18-.63-2.46-.95-3.84-.95-1.27,0-2.49.32-3.66.95-1.18.63-2.14,1.64-2.89,3.03-.75,1.39-1.13,3.29-1.13,5.7v25.15c0,.66-.21,1.21-.63,1.63s-.97.63-1.63.63h-9.14Z" fill="#1c2126"/><path d="M460.71,170.7c-.48,0-.92-.18-1.31-.54-.39-.36-.59-.81-.59-1.36,0-.12.03-.29.09-.5.06-.21.15-.47.27-.77l7.06-16.91-17.37-40.97c-.18-.48-.27-.87-.27-1.18.06-.54.27-1.01.63-1.4.36-.39.81-.59,1.36-.59h8.86c.72,0,1.27.2,1.63.59.36.39.63.8.81,1.22l11.22,27.95,11.49-27.95c.24-.48.54-.9.9-1.27.36-.36.93-.54,1.72-.54h8.59c.54,0,1.01.2,1.4.59.39.39.59.83.59,1.31,0,.3-.09.72-.27,1.27l-25.6,59.24c-.24.48-.56.9-.95,1.27-.39.36-.98.54-1.76.54h-8.5Z" fill="#1c2126"/><path d="M81.54,262.05c-.66,0-1.21-.21-1.63-.63-.42-.42-.63-.96-.63-1.63v-34.1h-7.05c-.66,0-1.21-.21-1.63-.63-.42-.42-.63-.93-.63-1.54v-6.24c0-.66.21-1.21.63-1.63.42-.42.96-.63,1.63-.63h7.05v-3.26c0-3.86.72-7.02,2.17-9.5,1.45-2.47,3.57-4.28,6.38-5.43,2.8-1.15,6.2-1.72,10.18-1.72h6.69c.6,0,1.11.21,1.54.63.42.42.63.97.63,1.63v6.24c0,.6-.21,1.12-.63,1.54-.42.42-.94.63-1.54.63h-6.06c-2.23,0-3.78.56-4.66,1.67-.88,1.12-1.31,2.7-1.31,4.75v2.8h11.12c.6,0,1.12.21,1.54.63.42.42.63.97.63,1.63v6.24c0,.6-.21,1.12-.63,1.54-.42.42-.94.63-1.54.63h-11.12v34.1c0,.66-.21,1.21-.63,1.63s-.97.63-1.63.63h-8.86Z" fill="#1c2126"/><path d="M125.95,262.96c-3.2,0-6.06-.62-8.59-1.85s-4.55-2.91-6.06-5.02c-1.51-2.11-2.26-4.46-2.26-7.06,0-4.28,1.73-7.66,5.2-10.13,3.47-2.47,8.03-4.16,13.7-5.07l11.85-1.72v-1.63c0-2.35-.54-4.16-1.63-5.43-1.09-1.27-2.99-1.9-5.7-1.9-1.99,0-3.57.39-4.75,1.18-1.18.78-2.1,1.81-2.76,3.08-.48.78-1.21,1.18-2.17,1.18h-8.59c-.66,0-1.18-.19-1.54-.59-.36-.39-.51-.86-.45-1.4,0-1.02.39-2.23,1.18-3.62.78-1.39,1.99-2.76,3.62-4.12,1.63-1.36,3.72-2.49,6.29-3.39,2.56-.9,5.65-1.36,9.27-1.36,3.8,0,7.06.45,9.77,1.36,2.71.9,4.9,2.17,6.56,3.8,1.66,1.63,2.86,3.51,3.62,5.65.75,2.14,1.13,4.45,1.13,6.92v27.95c0,.66-.21,1.21-.63,1.63-.42.42-.94.63-1.54.63h-8.96c-.6,0-1.12-.21-1.54-.63-.42-.42-.63-.96-.63-1.63v-3.35c-.79,1.15-1.84,2.22-3.17,3.21-1.33,1-2.91,1.79-4.75,2.4-1.84.6-4,.9-6.47.9ZM129.57,253.55c1.99,0,3.77-.42,5.34-1.27,1.57-.84,2.8-2.14,3.71-3.89.9-1.75,1.36-3.95,1.36-6.6v-1.54l-8.41,1.36c-3.2.54-5.55,1.36-7.05,2.44-1.51,1.09-2.26,2.41-2.26,3.98,0,1.15.35,2.13,1.04,2.94.69.81,1.6,1.45,2.71,1.9,1.12.45,2.31.68,3.57.68Z" fill="#1c2126"/><path d="M179.95,262.05c-.9,0-1.58-.23-2.04-.68-.45-.45-.83-.98-1.13-1.58l-17-41.97c-.12-.24-.18-.51-.18-.81,0-.54.19-1.01.59-1.4.39-.39.86-.59,1.4-.59h8.77c.78,0,1.37.21,1.76.63.39.42.65.81.77,1.18l11.12,29.76,11.12-29.76c.18-.36.45-.75.81-1.18.36-.42.93-.63,1.72-.63h8.77c.54,0,1.01.2,1.4.59.39.39.59.86.59,1.4,0,.3-.03.57-.09.81l-17,41.97c-.24.6-.6,1.13-1.08,1.58-.48.45-1.21.68-2.17.68h-8.14Z" fill="#1c2126"/><path d="M235.85,262.96c-5.01,0-9.2-.83-12.57-2.49s-5.96-4.02-7.73-7.1c-1.78-3.08-2.76-6.66-2.94-10.76-.06-1.21-.09-2.58-.09-4.12s.03-2.88.09-4.02c.18-4.16,1.21-7.76,3.08-10.81,1.87-3.04,4.49-5.4,7.87-7.06,3.38-1.66,7.48-2.49,12.3-2.49s8.83.83,12.21,2.49c3.38,1.66,6,4.01,7.87,7.06,1.87,3.05,2.92,6.65,3.17,10.81.06,1.15.09,2.49.09,4.02s-.03,2.91-.09,4.12c-.24,4.1-1.25,7.69-3.03,10.76-1.78,3.08-4.36,5.44-7.73,7.1-3.38,1.66-7.54,2.49-12.48,2.49ZM235.85,252.92c2.95,0,5.17-.9,6.65-2.71,1.48-1.81,2.31-4.49,2.49-8.05.06-.9.09-2.11.09-3.62s-.03-2.71-.09-3.62c-.18-3.5-1.01-6.16-2.49-8-1.48-1.84-3.69-2.76-6.65-2.76s-5.19.92-6.69,2.76c-1.51,1.84-2.35,4.51-2.53,8-.06.9-.09,2.11-.09,3.62s.03,2.71.09,3.62c.18,3.56,1.03,6.24,2.53,8.05,1.51,1.81,3.74,2.71,6.69,2.71Z" fill="#1c2126"/><path d="M270.85,262.05c-.6,0-1.13-.21-1.58-.63-.45-.42-.68-.96-.68-1.63v-42.51c0-.6.23-1.13.68-1.58.45-.45.98-.68,1.58-.68h8.86c.66,0,1.21.23,1.63.68.42.45.63.98.63,1.58v3.62c1.51-1.87,3.38-3.32,5.61-4.34,2.23-1.02,4.76-1.54,7.6-1.54h3.89c.66,0,1.21.21,1.63.63.42.42.63.97.63,1.63v7.87c0,.6-.21,1.12-.63,1.54s-.97.63-1.63.63h-7.87c-2.71,0-4.81.75-6.29,2.26-1.48,1.51-2.22,3.59-2.22,6.24v23.97c0,.66-.23,1.21-.68,1.63-.45.42-.98.63-1.58.63h-9.59Z" fill="#1c2126"/><path d="M310.02,207.78c-.6,0-1.12-.21-1.54-.63-.42-.42-.63-.96-.63-1.63v-7.33c0-.6.21-1.13.63-1.58.42-.45.93-.68,1.54-.68h9.59c.6,0,1.13.23,1.58.68s.68.98.68,1.58v7.33c0,.66-.23,1.21-.68,1.63-.45.42-.98.63-1.58.63h-9.59ZM310.29,262.05c-.6,0-1.13-.21-1.58-.63-.45-.42-.68-.96-.68-1.63v-42.51c0-.66.23-1.21.68-1.63.45-.42.98-.63,1.58-.63h9.14c.6,0,1.11.21,1.54.63.42.42.63.97.63,1.63v42.51c0,.66-.21,1.21-.63,1.63s-.94.63-1.54.63h-9.14Z" fill="#1c2126"/><path d="M355.6,262.05c-3.74,0-6.92-.62-9.54-1.85-2.62-1.24-4.63-3.15-6.02-5.74-1.39-2.59-2.08-5.85-2.08-9.77v-18.99h-7.05c-.66,0-1.21-.21-1.63-.63-.42-.42-.63-.93-.63-1.54v-6.24c0-.66.21-1.21.63-1.63.42-.42.96-.63,1.63-.63h7.05v-14.92c0-.66.23-1.21.68-1.63.45-.42.98-.63,1.58-.63h8.95c.6,0,1.12.21,1.54.63.42.42.63.97.63,1.63v14.92h11.31c.66,0,1.21.21,1.63.63.42.42.63.97.63,1.63v6.24c0,.6-.21,1.12-.63,1.54-.42.42-.97.63-1.63.63h-11.31v17.91c0,2.29.42,4.09,1.27,5.38.84,1.3,2.26,1.94,4.25,1.94h6.6c.66,0,1.21.21,1.63.63.42.42.63.94.63,1.54v6.69c0,.66-.21,1.21-.63,1.63s-.96.63-1.63.63h-7.87Z" fill="#1c2126"/><path d="M394.5,262.96c-6.93,0-12.44-1.93-16.51-5.79-4.07-3.86-6.23-9.47-6.47-16.82v-3.8c.24-4.7,1.3-8.73,3.17-12.07,1.87-3.35,4.49-5.91,7.87-7.69,3.38-1.78,7.33-2.67,11.85-2.67,5.12,0,9.38,1.04,12.75,3.12,3.38,2.08,5.92,4.92,7.64,8.5,1.72,3.59,2.58,7.7,2.58,12.35v2.08c0,.6-.21,1.13-.63,1.58-.42.45-.96.68-1.63.68h-29.49v.63c.06,1.93.42,3.69,1.09,5.29.66,1.6,1.64,2.88,2.94,3.84,1.3.97,2.88,1.45,4.75,1.45,1.45,0,2.65-.23,3.62-.68.96-.45,1.76-.96,2.4-1.54.63-.57,1.1-1.07,1.4-1.49.54-.66.98-1.07,1.31-1.22.33-.15.83-.23,1.49-.23h9.59c.54,0,1.01.18,1.4.54.39.36.56.81.5,1.36-.06,1.03-.56,2.25-1.49,3.66-.94,1.42-2.31,2.8-4.12,4.16-1.81,1.36-4.06,2.49-6.74,3.39-2.68.9-5.77,1.36-9.27,1.36ZM385.63,234.1h17.64v-.27c0-2.11-.35-3.96-1.04-5.56-.69-1.6-1.7-2.85-3.03-3.75-1.33-.9-2.93-1.36-4.79-1.36s-3.45.45-4.75,1.36c-1.3.9-2.29,2.16-2.99,3.75-.69,1.6-1.04,3.45-1.04,5.56v.27Z" fill="#1c2126"/><path d="M91.58,371.49c-3.02,0-5.7-.5-8.05-1.49-2.35-1-4.34-2.44-5.97-4.34-1.63-1.9-2.87-4.16-3.71-6.78-.84-2.62-1.36-5.53-1.54-8.73-.06-1.14-.09-2.18-.09-3.12s.03-1.94.09-3.03c.12-3.13.62-6,1.49-8.59.87-2.59,2.11-4.84,3.71-6.74s3.59-3.38,5.97-4.43c2.38-1.05,5.08-1.58,8.1-1.58s5.82.53,8.05,1.58c2.23,1.06,4.07,2.4,5.52,4.03v-19.63c0-.66.21-1.21.63-1.63s.96-.63,1.63-.63h9.32c.66,0,1.21.21,1.63.63.42.42.63.97.63,1.63v59.7c0,.67-.21,1.21-.63,1.63s-.96.63-1.63.63h-8.68c-.6,0-1.12-.21-1.54-.63-.42-.42-.63-.96-.63-1.63v-3.08c-1.51,1.81-3.41,3.3-5.7,4.48-2.29,1.18-5.16,1.76-8.59,1.76ZM95.74,360.64c2.23,0,4.03-.51,5.38-1.54,1.36-1.02,2.35-2.32,2.99-3.89.63-1.57.98-3.26,1.04-5.07.12-1.14.18-2.29.18-3.44s-.06-2.26-.18-3.35c-.06-1.69-.44-3.27-1.13-4.75-.69-1.48-1.7-2.7-3.03-3.66-1.33-.96-3.08-1.45-5.25-1.45-2.29,0-4.1.5-5.43,1.49-1.33,1-2.28,2.31-2.85,3.93-.57,1.63-.92,3.41-1.04,5.34-.12,1.87-.12,3.74,0,5.61.12,1.93.47,3.71,1.04,5.34.57,1.63,1.52,2.94,2.85,3.93,1.33.99,3.13,1.49,5.43,1.49Z" fill="#1c2126"/><path d="M151.37,371.49c-6.93,0-12.44-1.93-16.51-5.79-4.07-3.86-6.23-9.47-6.47-16.82v-3.8c.24-4.7,1.3-8.73,3.17-12.08,1.87-3.35,4.49-5.91,7.87-7.69,3.38-1.78,7.33-2.67,11.85-2.67,5.12,0,9.38,1.04,12.75,3.12,3.38,2.08,5.92,4.92,7.64,8.5,1.72,3.59,2.58,7.7,2.58,12.35v2.08c0,.6-.21,1.13-.63,1.58s-.96.68-1.63.68h-29.49v.63c.06,1.93.42,3.69,1.09,5.29.66,1.6,1.64,2.88,2.94,3.84,1.3.97,2.88,1.45,4.75,1.45,1.45,0,2.65-.23,3.62-.68.96-.45,1.76-.96,2.4-1.54.63-.57,1.1-1.07,1.4-1.49.54-.66.98-1.07,1.31-1.22.33-.15.83-.23,1.49-.23h9.59c.54,0,1.01.18,1.4.54.39.36.56.81.5,1.36-.06,1.03-.56,2.25-1.49,3.66-.94,1.42-2.31,2.8-4.12,4.16-1.81,1.36-4.06,2.49-6.74,3.39-2.68.9-5.77,1.36-9.27,1.36ZM142.51,342.64h17.64v-.27c0-2.11-.35-3.96-1.04-5.56-.69-1.6-1.7-2.85-3.03-3.75-1.33-.91-2.93-1.36-4.79-1.36s-3.45.45-4.75,1.36c-1.3.9-2.29,2.16-2.99,3.75-.69,1.6-1.04,3.45-1.04,5.56v.27Z" fill="#1c2126"/><path d="M185.65,387.78c-.67,0-1.21-.21-1.63-.63s-.63-.96-.63-1.63v-59.7c0-.66.21-1.21.63-1.63.42-.42.96-.63,1.63-.63h8.59c.66,0,1.21.21,1.63.63.42.42.63.97.63,1.63v3.44c1.45-1.93,3.33-3.51,5.65-4.75,2.32-1.24,5.2-1.85,8.64-1.85,3.08,0,5.77.5,8.09,1.49s4.28,2.41,5.88,4.25c1.6,1.84,2.85,4.06,3.75,6.65.91,2.59,1.42,5.52,1.54,8.77.06,1.15.09,2.23.09,3.26s-.03,2.14-.09,3.35c-.12,3.08-.62,5.91-1.49,8.5-.88,2.59-2.13,4.83-3.75,6.69-1.63,1.87-3.6,3.32-5.92,4.34-2.32,1.02-5.02,1.54-8.09,1.54s-5.82-.56-8.05-1.67c-2.23-1.12-4.07-2.64-5.52-4.57v20.26c0,.66-.21,1.21-.63,1.63-.42.42-.97.63-1.63.63h-9.32ZM206.63,360.64c2.29,0,4.1-.5,5.43-1.49,1.33-1,2.28-2.31,2.85-3.93.57-1.63.92-3.41,1.04-5.34.12-1.87.12-3.74,0-5.61-.12-1.93-.47-3.71-1.04-5.34-.57-1.63-1.52-2.94-2.85-3.93-1.33-1-3.14-1.49-5.43-1.49s-4.02.51-5.38,1.54c-1.36,1.03-2.35,2.32-2.99,3.89-.63,1.57-.98,3.26-1.04,5.07-.06,1.08-.09,2.2-.09,3.35s.03,2.29.09,3.44c.06,1.69.42,3.27,1.08,4.75.66,1.48,1.69,2.7,3.08,3.66,1.39.96,3.13,1.45,5.25,1.45Z" fill="#1c2126"/><path d="M260.63,371.49c-6.93,0-12.44-1.93-16.51-5.79-4.07-3.86-6.23-9.47-6.47-16.82v-3.8c.24-4.7,1.3-8.73,3.17-12.08,1.87-3.35,4.49-5.91,7.87-7.69,3.38-1.78,7.33-2.67,11.85-2.67,5.12,0,9.38,1.04,12.75,3.12,3.38,2.08,5.92,4.92,7.64,8.5,1.72,3.59,2.58,7.7,2.58,12.35v2.08c0,.6-.21,1.13-.63,1.58s-.96.68-1.63.68h-29.49v.63c.06,1.93.42,3.69,1.09,5.29.66,1.6,1.64,2.88,2.94,3.84,1.3.97,2.88,1.45,4.75,1.45,1.45,0,2.65-.23,3.62-.68.96-.45,1.76-.96,2.4-1.54.63-.57,1.1-1.07,1.4-1.49.54-.66.98-1.07,1.31-1.22.33-.15.83-.23,1.49-.23h9.59c.54,0,1.01.18,1.4.54.39.36.56.81.5,1.36-.06,1.03-.56,2.25-1.49,3.66-.94,1.42-2.31,2.8-4.12,4.16-1.81,1.36-4.06,2.49-6.74,3.39-2.68.9-5.77,1.36-9.27,1.36ZM251.77,342.64h17.64v-.27c0-2.11-.35-3.96-1.04-5.56-.69-1.6-1.7-2.85-3.03-3.75-1.33-.91-2.93-1.36-4.79-1.36s-3.45.45-4.75,1.36c-1.3.9-2.29,2.16-2.99,3.75-.69,1.6-1.04,3.45-1.04,5.56v.27Z" fill="#1c2126"/><path d="M294.82,370.59c-.6,0-1.13-.21-1.58-.63s-.68-.96-.68-1.63v-42.51c0-.66.23-1.21.68-1.63.45-.42.98-.63,1.58-.63h8.86c.66,0,1.21.21,1.63.63.42.42.63.97.63,1.63v3.53c1.57-1.93,3.6-3.53,6.11-4.79,2.5-1.27,5.5-1.9,9-1.9s6.69.8,9.41,2.4c2.71,1.6,4.82,3.92,6.33,6.96,1.51,3.04,2.26,6.74,2.26,11.08v25.24c0,.67-.21,1.21-.63,1.63-.42.42-.97.63-1.63.63h-9.59c-.66,0-1.21-.21-1.63-.63-.42-.42-.63-.96-.63-1.63v-24.69c0-3.2-.77-5.68-2.31-7.46-1.54-1.78-3.79-2.67-6.74-2.67s-5.08.89-6.74,2.67c-1.66,1.78-2.49,4.27-2.49,7.46v24.69c0,.67-.21,1.21-.63,1.63-.42.42-.97.63-1.63.63h-9.59Z" fill="#1c2126"/><path d="M367.36,371.49c-3.02,0-5.7-.5-8.05-1.49-2.35-1-4.34-2.44-5.97-4.34-1.63-1.9-2.87-4.16-3.71-6.78-.84-2.62-1.36-5.53-1.54-8.73-.06-1.14-.09-2.18-.09-3.12s.03-1.94.09-3.03c.12-3.13.62-6,1.49-8.59.87-2.59,2.11-4.84,3.71-6.74s3.59-3.38,5.97-4.43c2.38-1.05,5.08-1.58,8.1-1.58s5.82.53,8.05,1.58c2.23,1.06,4.07,2.4,5.52,4.03v-19.63c0-.66.21-1.21.63-1.63s.96-.63,1.63-.63h9.32c.66,0,1.21.21,1.63.63.42.42.63.97.63,1.63v59.7c0,.67-.21,1.21-.63,1.63s-.96.63-1.63.63h-8.68c-.6,0-1.12-.21-1.54-.63-.42-.42-.63-.96-.63-1.63v-3.08c-1.51,1.81-3.41,3.3-5.7,4.48-2.29,1.18-5.16,1.76-8.59,1.76ZM371.52,360.64c2.23,0,4.03-.51,5.38-1.54,1.36-1.02,2.35-2.32,2.99-3.89.63-1.57.98-3.26,1.04-5.07.12-1.14.18-2.29.18-3.44s-.06-2.26-.18-3.35c-.06-1.69-.44-3.27-1.13-4.75-.69-1.48-1.7-2.7-3.03-3.66-1.33-.96-3.08-1.45-5.25-1.45-2.29,0-4.1.5-5.43,1.49-1.33,1-2.28,2.31-2.85,3.93-.57,1.63-.92,3.41-1.04,5.34-.12,1.87-.12,3.74,0,5.61.12,1.93.47,3.71,1.04,5.34.57,1.63,1.52,2.94,2.85,3.93,1.33.99,3.13,1.49,5.43,1.49Z" fill="#1c2126"/><path d="M427.15,371.49c-6.93,0-12.44-1.93-16.51-5.79-4.07-3.86-6.23-9.47-6.47-16.82v-3.8c.24-4.7,1.3-8.73,3.17-12.08,1.87-3.35,4.49-5.91,7.87-7.69,3.38-1.78,7.33-2.67,11.85-2.67,5.12,0,9.38,1.04,12.75,3.12,3.38,2.08,5.92,4.92,7.64,8.5,1.72,3.59,2.58,7.7,2.58,12.35v2.08c0,.6-.21,1.13-.63,1.58s-.96.68-1.63.68h-29.49v.63c.06,1.93.42,3.69,1.09,5.29.66,1.6,1.64,2.88,2.94,3.84,1.3.97,2.88,1.45,4.75,1.45,1.45,0,2.65-.23,3.62-.68.96-.45,1.76-.96,2.4-1.54.63-.57,1.1-1.07,1.4-1.49.54-.66.98-1.07,1.31-1.22.33-.15.83-.23,1.49-.23h9.59c.54,0,1.01.18,1.4.54.39.36.56.81.5,1.36-.06,1.03-.56,2.25-1.49,3.66-.94,1.42-2.31,2.8-4.12,4.16-1.81,1.36-4.06,2.49-6.74,3.39-2.68.9-5.77,1.36-9.27,1.36ZM418.28,342.64h17.64v-.27c0-2.11-.35-3.96-1.04-5.56-.69-1.6-1.7-2.85-3.03-3.75-1.33-.91-2.93-1.36-4.79-1.36s-3.45.45-4.75,1.36c-1.3.9-2.29,2.16-2.99,3.75-.69,1.6-1.04,3.45-1.04,5.56v.27Z" fill="#1c2126"/><path d="M461.34,370.59c-.6,0-1.13-.21-1.58-.63s-.68-.96-.68-1.63v-42.51c0-.66.23-1.21.68-1.63.45-.42.98-.63,1.58-.63h8.86c.66,0,1.21.21,1.63.63.42.42.63.97.63,1.63v3.53c1.57-1.93,3.6-3.53,6.11-4.79,2.5-1.27,5.5-1.9,9-1.9s6.69.8,9.41,2.4c2.71,1.6,4.82,3.92,6.33,6.96,1.51,3.04,2.26,6.74,2.26,11.08v25.24c0,.67-.21,1.21-.63,1.63-.42.42-.97.63-1.63.63h-9.59c-.66,0-1.21-.21-1.63-.63-.42-.42-.63-.96-.63-1.63v-24.69c0-3.2-.77-5.68-2.31-7.46-1.54-1.78-3.79-2.67-6.74-2.67s-5.08.89-6.74,2.67c-1.66,1.78-2.49,4.27-2.49,7.46v24.69c0,.67-.21,1.21-.63,1.63-.42.42-.97.63-1.63.63h-9.59Z" fill="#1c2126"/><path d="M537.41,371.49c-4.46,0-8.37-.81-11.71-2.44-3.35-1.63-5.99-3.99-7.92-7.1-1.93-3.11-2.98-6.83-3.17-11.17-.06-.96-.09-2.18-.09-3.66s.03-2.7.09-3.66c.18-4.4,1.22-8.15,3.12-11.26,1.9-3.1,4.54-5.47,7.91-7.1,3.38-1.63,7.3-2.44,11.76-2.44,3.98,0,7.39.56,10.22,1.67,2.83,1.12,5.16,2.53,6.96,4.25,1.81,1.72,3.17,3.48,4.07,5.29.9,1.81,1.39,3.41,1.45,4.79.06.66-.15,1.21-.63,1.63-.48.42-1.03.63-1.63.63h-9.68c-.66,0-1.16-.15-1.49-.45-.33-.3-.65-.78-.95-1.45-.78-2.11-1.84-3.62-3.17-4.52-1.33-.91-2.98-1.36-4.97-1.36-2.71,0-4.84.88-6.38,2.62-1.54,1.75-2.37,4.46-2.49,8.14-.12,2.35-.12,4.49,0,6.42.12,3.74.95,6.45,2.49,8.14,1.54,1.69,3.66,2.53,6.38,2.53,2.11,0,3.8-.45,5.07-1.36s2.29-2.41,3.08-4.52c.3-.66.62-1.14.95-1.45.33-.3.83-.45,1.49-.45h9.68c.6,0,1.14.21,1.63.63.48.42.69.97.63,1.63-.06,1.03-.36,2.23-.91,3.62-.54,1.39-1.37,2.8-2.49,4.25-1.12,1.45-2.55,2.79-4.3,4.03-1.75,1.24-3.88,2.23-6.38,2.98-2.5.75-5.38,1.13-8.64,1.13Z" fill="#1c2126"/><path d="M575.85,387.78c-.48,0-.92-.18-1.31-.54-.39-.36-.59-.81-.59-1.36,0-.12.03-.29.09-.5.06-.21.15-.47.27-.77l7.06-16.91-17.37-40.97c-.18-.48-.27-.87-.27-1.18.06-.54.27-1.01.63-1.4.36-.39.81-.59,1.36-.59h8.86c.72,0,1.27.2,1.63.59.36.39.63.8.81,1.22l11.22,27.95,11.49-27.95c.24-.48.54-.9.9-1.27.36-.36.93-.54,1.72-.54h8.59c.54,0,1.01.2,1.4.59.39.39.59.83.59,1.31,0,.3-.09.72-.27,1.27l-25.6,59.24c-.24.48-.56.91-.95,1.27-.39.36-.98.54-1.76.54h-8.5Z" fill="#1c2126"/><g clip-path="url(#e)"><polygon points="969.79 176.12 1003.32 156.76 1036.85 176.12 1003.32 195.47 969.79 176.12" fill="#ffdd73" stroke="#1c2126" stroke-linejoin="round" stroke-width="2"/><polygon points="969.79 176.12 969.79 214.83 1003.32 234.19 1003.32 195.47 969.79 176.12" fill="#ffb916" stroke="#1c2126" stroke-linejoin="round" stroke-width="2"/><polygon points="1036.85 176.12 1036.85 214.83 1003.32 234.19 1003.32 195.47 1036.85 176.12" fill="#b7790b" stroke="#1c2126" stroke-linejoin="round" stroke-width="2"/><polygon points="1103.9 176.12 1137.43 156.76 1170.96 176.12 1137.43 195.47 1103.9 176.12" fill="#ffdd73" stroke="#1c2126" stroke-linejoin="round" stroke-width="2"/><polygon points="1103.9 176.12 1103.9 214.83 1137.43 234.19 1137.43 195.47 1103.9 176.12" fill="#ffb916" stroke="#1c2126" stroke-linejoin="round" stroke-width="2"/><polygon points="1170.96 176.12 1170.95 214.83 1137.43 234.19 1137.43 195.47 1170.96 176.12" fill="#b7790b" stroke="#1c2126" stroke-linejoin="round" stroke-width="2"/><polygon points="1170.96 176.12 1204.48 156.76 1238.01 176.12 1204.48 195.47 1170.96 176.12" fill="#ffdd73" stroke="#1c2126" stroke-linejoin="round" stroke-width="2"/><polygon points="1170.96 176.12 1170.96 214.83 1204.48 234.19 1204.48 195.47 1170.96 176.12" fill="#ffb916" stroke="#1c2126" stroke-linejoin="round" stroke-width="2"/><polygon points="1137.43 234.07 1170.96 214.71 1204.48 234.07 1170.96 253.42 1137.43 234.07" fill="#ffdd73" stroke="#1c2126" stroke-linejoin="round" stroke-width="2"/><polygon points="1137.43 234.07 1137.43 272.78 1170.96 292.14 1170.96 253.42 1137.43 234.07" fill="#ffb916" stroke="#1c2126" stroke-linejoin="round" stroke-width="2"/><polygon points="1204.48 234.07 1204.48 272.78 1170.96 292.14 1170.96 253.42 1204.48 234.07" fill="#b7790b" stroke="#1c2126" stroke-linejoin="round" stroke-width="2"/><polygon points="1070.38 234.07 1103.9 214.71 1137.43 234.07 1103.9 253.42 1070.38 234.07" fill="#ffdd73" stroke="#1c2126" stroke-linejoin="round" stroke-width="2"/><polygon points="1070.38 234.07 1070.38 272.78 1103.9 292.14 1103.9 253.42 1070.38 234.07" fill="#ffb916" stroke="#1c2126" stroke-linejoin="round" stroke-width="2"/><polygon points="1137.43 234.07 1137.43 272.78 1103.9 292.14 1103.9 253.42 1137.43 234.07" fill="#b7790b" stroke="#1c2126" stroke-linejoin="round" stroke-width="2"/><polygon points="1103.9 60.09 1137.43 40.74 1170.96 60.09 1137.43 79.45 1103.9 60.09" fill="#ffdd73" stroke="#1c2126" stroke-linejoin="round" stroke-width="2"/><polygon points="1103.9 60.09 1103.9 98.81 1137.43 118.16 1137.43 79.45 1103.9 60.09" fill="#ffb916" stroke="#1c2126" stroke-linejoin="round" stroke-width="2"/><polygon points="1170.96 60.09 1170.95 98.81 1137.43 118.16 1137.43 79.45 1170.96 60.09" fill="#b7790b" stroke="#1c2126" stroke-linejoin="round" stroke-width="2"/><polygon points="1170.96 60.09 1204.48 40.74 1238.01 60.09 1204.48 79.45 1170.96 60.09" fill="#ffdd73" stroke="#1c2126" stroke-linejoin="round" stroke-width="2"/><polygon points="1170.96 60.09 1170.96 98.81 1204.48 118.16 1204.48 79.45 1170.96 60.09" fill="#ffb916" stroke="#1c2126" stroke-linejoin="round" stroke-width="2"/><polygon points="1137.43 118.05 1170.96 98.69 1204.48 118.05 1170.96 137.4 1137.43 118.05" fill="#ffdd73" stroke="#1c2126" stroke-linejoin="round" stroke-width="2"/><polygon points="1137.43 118.05 1137.43 156.76 1170.96 176.12 1170.96 137.4 1137.43 118.05" fill="#ffb916" stroke="#1c2126" stroke-linejoin="round" stroke-width="2"/><polygon points="1204.48 118.05 1204.48 156.76 1170.96 176.12 1170.96 137.4 1204.48 118.05" fill="#b7790b" stroke="#1c2126" stroke-linejoin="round" stroke-width="2"/><polygon points="1070.38 118.05 1103.9 98.69 1137.43 118.05 1103.9 137.4 1070.38 118.05" fill="#ffdd73" stroke="#1c2126" stroke-linejoin="round" stroke-width="2"/><polygon points="1070.38 118.05 1070.38 156.76 1103.9 176.12 1103.9 137.4 1070.38 118.05" fill="#ffb916" stroke="#1c2126" stroke-linejoin="round" stroke-width="2"/><polygon points="1137.43 118.05 1137.43 156.76 1103.9 176.12 1103.9 137.4 1137.43 118.05" fill="#b7790b" stroke="#1c2126" stroke-linejoin="round" stroke-width="2"/><polygon points="1103.9 -55.93 1103.9 -17.21 1137.43 2.14 1137.43 -36.57 1103.9 -55.93" fill="#ffb916" stroke="#1c2126" stroke-linejoin="round" stroke-width="2"/><polygon points="1170.96 -55.93 1170.95 -17.21 1137.43 2.14 1137.43 -36.57 1170.96 -55.93" fill="#b7790b" stroke="#1c2126" stroke-linejoin="round" stroke-width="2"/><polygon points="1170.96 -55.93 1170.96 -17.21 1204.48 2.14 1204.48 -36.57 1170.96 -55.93" fill="#ffb916" stroke="#1c2126" stroke-linejoin="round" stroke-width="2"/><polygon points="1137.43 2.03 1170.96 -17.33 1204.48 2.03 1170.96 21.38 1137.43 2.03" fill="#ffdd73" stroke="#1c2126" stroke-linejoin="round" stroke-width="2"/><polygon points="1137.43 2.03 1137.43 40.74 1170.96 60.09 1170.96 21.38 1137.43 2.03" fill="#ffb916" stroke="#1c2126" stroke-linejoin="round" stroke-width="2"/><polygon points="1204.48 2.03 1204.48 40.74 1170.96 60.09 1170.96 21.38 1204.48 2.03" fill="#b7790b" stroke="#1c2126" stroke-linejoin="round" stroke-width="2"/><polygon points="1070.38 2.03 1103.9 -17.33 1137.43 2.03 1103.9 21.38 1070.38 2.03" fill="#ffdd73" stroke="#1c2126" stroke-linejoin="round" stroke-width="2"/><polygon points="1070.38 2.03 1070.38 40.74 1103.9 60.09 1103.9 21.38 1070.38 2.03" fill="#ffb916" stroke="#1c2126" stroke-linejoin="round" stroke-width="2"/><polygon points="1137.43 2.03 1137.43 40.74 1103.9 60.09 1103.9 21.38 1137.43 2.03" fill="#b7790b" stroke="#1c2126" stroke-linejoin="round" stroke-width="2"/><polygon points="969.79 -55.93 969.79 -17.21 1003.32 2.14 1003.32 -36.57 969.79 -55.93" fill="#ffb916" stroke="#1c2126" stroke-linejoin="round" stroke-width="2"/><polygon points="1036.85 -55.93 1036.85 -17.21 1003.32 2.14 1003.32 -36.57 1036.85 -55.93" fill="#b7790b" stroke="#1c2126" stroke-linejoin="round" stroke-width="2"/><polygon points="1036.85 -55.93 1036.85 -17.21 1070.37 2.14 1070.37 -36.57 1036.85 -55.93" fill="#ffb916" stroke="#1c2126" stroke-linejoin="round" stroke-width="2"/><polygon points="1103.9 -55.93 1103.9 -17.21 1070.37 2.14 1070.37 -36.57 1103.9 -55.93" fill="#b7790b" stroke="#1c2126" stroke-linejoin="round" stroke-width="2"/><polygon points="1003.32 2.03 1036.85 -17.33 1070.37 2.03 1036.85 21.38 1003.32 2.03" fill="#ffdd73" stroke="#1c2126" stroke-linejoin="round" stroke-width="2"/><polygon points="1003.32 2.03 1003.32 40.74 1036.85 60.09 1036.85 21.38 1003.32 2.03" fill="#ffb916" stroke="#1c2126" stroke-linejoin="round" stroke-width="2"/><polygon points="1070.37 2.03 1070.37 40.74 1036.85 60.09 1036.85 21.38 1070.37 2.03" fill="#b7790b" stroke="#1c2126" stroke-linejoin="round" stroke-width="2"/><polygon points="936.27 2.03 969.79 -17.33 1003.32 2.03 969.79 21.38 936.27 2.03" fill="#ffdd73" stroke="#1c2126" stroke-linejoin="round" stroke-width="2"/><polygon points="936.27 2.03 936.27 40.74 969.79 60.09 969.79 21.38 936.27 2.03" fill="#ffb916" stroke="#1c2126" stroke-linejoin="round" stroke-width="2"/><polygon points="1003.32 2.03 1003.32 40.74 969.79 60.09 969.79 21.38 1003.32 2.03" fill="#b7790b" stroke="#1c2126" stroke-linejoin="round" stroke-width="2"/><polygon points="835.68 -55.93 835.68 -17.21 869.21 2.14 869.21 -36.57 835.68 -55.93" fill="#ffb916" stroke="#1c2126" stroke-linejoin="round" stroke-width="2"/><polygon points="902.74 -55.93 902.74 -17.21 869.21 2.14 869.21 -36.57 902.74 -55.93" fill="#b7790b" stroke="#1c2126" stroke-linejoin="round" stroke-width="2"/><polygon points="902.74 -55.93 902.74 -17.21 936.26 2.14 936.27 -36.57 902.74 -55.93" fill="#ffb916" stroke="#1c2126" stroke-linejoin="round" stroke-width="2"/><polygon points="969.79 -55.93 969.79 -17.21 936.26 2.14 936.27 -36.57 969.79 -55.93" fill="#b7790b" stroke="#1c2126" stroke-linejoin="round" stroke-width="2"/><polygon points="869.21 2.03 902.74 -17.33 936.27 2.03 902.74 21.38 869.21 2.03" fill="#ffdd73" stroke="#1c2126" stroke-linejoin="round" stroke-width="2"/><polygon points="869.21 2.03 869.21 40.74 902.74 60.09 902.74 21.38 869.21 2.03" fill="#ffb916" stroke="#1c2126" stroke-linejoin="round" stroke-width="2"/><polygon points="936.27 2.03 936.26 40.74 902.74 60.09 902.74 21.38 936.27 2.03" fill="#b7790b" stroke="#1c2126" stroke-linejoin="round" stroke-width="2"/><polygon points="802.16 2.03 835.68 -17.33 869.21 2.03 835.68 21.38 802.16 2.03" fill="#ffdd73" stroke="#1c2126" stroke-linejoin="round" stroke-width="2"/><polygon points="802.16 2.03 802.16 40.74 835.68 60.09 835.68 21.38 802.16 2.03" fill="#ffb916" stroke="#1c2126" stroke-linejoin="round" stroke-width="2"/><polygon points="869.21 2.03 869.21 40.74 835.68 60.09 835.68 21.38 869.21 2.03" fill="#b7790b" stroke="#1c2126" stroke-linejoin="round" stroke-width="2"/><polygon points="835.68 60.09 869.21 40.74 902.74 60.09 869.21 79.45 835.68 60.09" fill="#ffdd73" stroke="#1c2126" stroke-linejoin="round" stroke-width="2"/><polygon points="835.68 60.09 835.68 98.81 869.21 118.16 869.21 79.45 835.68 60.09" fill="#ffb916" stroke="#1c2126" stroke-linejoin="round" stroke-width="2"/><polygon points="902.74 60.09 902.74 98.81 869.21 118.16 869.21 79.45 902.74 60.09" fill="#b7790b" stroke="#1c2126" stroke-linejoin="round" stroke-width="2"/><polygon points="902.74 60.09 936.26 40.74 969.79 60.09 936.27 79.45 902.74 60.09" fill="#ffdd73" stroke="#1c2126" stroke-linejoin="round" stroke-width="2"/><polygon points="902.74 60.09 902.74 98.81 936.26 118.16 936.27 79.45 902.74 60.09" fill="#ffb916" stroke="#1c2126" stroke-linejoin="round" stroke-width="2"/><polygon points="969.79 60.09 969.79 98.81 936.26 118.16 936.27 79.45 969.79 60.09" fill="#b7790b" stroke="#1c2126" stroke-linejoin="round" stroke-width="2"/><polygon points="969.79 60.09 1003.32 40.74 1036.85 60.09 1003.32 79.45 969.79 60.09" fill="#ffdd73" stroke="#1c2126" stroke-linejoin="round" stroke-width="2"/><polygon points="969.79 60.09 969.79 98.81 1003.32 118.16 1003.32 79.45 969.79 60.09" fill="#ffb916" stroke="#1c2126" stroke-linejoin="round" stroke-width="2"/><polygon points="1036.85 60.09 1036.84 98.81 1003.32 118.16 1003.32 79.45 1036.85 60.09" fill="#b7790b" stroke="#1c2126" stroke-linejoin="round" stroke-width="2"/><polygon points="1036.85 60.09 1070.37 40.74 1103.9 60.09 1070.37 79.45 1036.85 60.09" fill="#ffdd73" stroke="#1c2126" stroke-linejoin="round" stroke-width="2"/><polygon points="1036.85 60.09 1036.85 98.81 1070.37 118.16 1070.37 79.45 1036.85 60.09" fill="#ffb916" stroke="#1c2126" stroke-linejoin="round" stroke-width="2"/><polygon points="1103.9 60.09 1103.9 98.81 1070.37 118.16 1070.37 79.45 1103.9 60.09" fill="#b7790b" stroke="#1c2126" stroke-linejoin="round" stroke-width="2"/><polygon points="701.57 60.09 735.1 40.74 768.63 60.09 735.1 79.45 701.57 60.09" fill="#ffdd73" stroke="#1c2126" stroke-linejoin="round" stroke-width="2"/><polygon points="701.57 60.09 701.57 98.81 735.1 118.16 735.1 79.45 701.57 60.09" fill="#ffb916" stroke="#1c2126" stroke-linejoin="round" stroke-width="2"/><polygon points="768.63 60.09 768.63 98.81 735.1 118.16 735.1 79.45 768.63 60.09" fill="#b7790b" stroke="#1c2126" stroke-linejoin="round" stroke-width="2"/><polygon points="768.63 60.09 802.15 40.74 835.68 60.09 802.16 79.45 768.63 60.09" fill="#ffdd73" stroke="#1c2126" stroke-linejoin="round" stroke-width="2"/><polygon points="768.63 60.09 768.63 98.81 802.15 118.16 802.16 79.45 768.63 60.09" fill="#ffb916" stroke="#1c2126" stroke-linejoin="round" stroke-width="2"/><polygon points="835.68 60.09 835.68 98.81 802.15 118.16 802.16 79.45 835.68 60.09" fill="#b7790b" stroke="#1c2126" stroke-linejoin="round" stroke-width="2"/><polygon points="701.57 -55.93 701.57 -17.21 735.1 2.14 735.1 -36.57 701.57 -55.93" fill="#ffb916" stroke="#1c2126" stroke-linejoin="round" stroke-width="2"/><polygon points="768.63 -55.93 768.63 -17.21 735.1 2.14 735.1 -36.57 768.63 -55.93" fill="#b7790b" stroke="#1c2126" stroke-linejoin="round" stroke-width="2"/><polygon points="768.63 -55.93 768.63 -17.21 802.15 2.14 802.16 -36.57 768.63 -55.93" fill="#ffb916" stroke="#1c2126" stroke-linejoin="round" stroke-width="2"/><polygon points="835.68 -55.93 835.68 -17.21 802.15 2.14 802.16 -36.57 835.68 -55.93" fill="#b7790b" stroke="#1c2126" stroke-linejoin="round" stroke-width="2"/><polygon points="735.1 2.03 768.63 -17.33 802.16 2.03 768.63 21.38 735.1 2.03" fill="#ffdd73" stroke="#1c2126" stroke-linejoin="round" stroke-width="2"/><polygon points="735.1 2.03 735.1 40.74 768.63 60.09 768.63 21.38 735.1 2.03" fill="#ffb916" stroke="#1c2126" stroke-linejoin="round" stroke-width="2"/><polygon points="802.16 2.03 802.15 40.74 768.63 60.09 768.63 21.38 802.16 2.03" fill="#b7790b" stroke="#1c2126" stroke-linejoin="round" stroke-width="2"/><polygon points="668.05 2.03 701.57 -17.33 735.1 2.03 701.57 21.38 668.05 2.03" fill="#ffdd73" stroke="#1c2126" stroke-linejoin="round" stroke-width="2"/><polygon points="668.05 2.03 668.05 40.74 701.57 60.09 701.57 21.38 668.05 2.03" fill="#ffb916" stroke="#1c2126" stroke-linejoin="round" stroke-width="2"/><polygon points="735.1 2.03 735.1 40.74 701.57 60.09 701.57 21.38 735.1 2.03" fill="#b7790b" stroke="#1c2126" stroke-linejoin="round" stroke-width="2"/><polygon points="567.47 -55.93 567.47 -17.21 600.99 2.14 600.99 -36.57 567.47 -55.93" fill="#ffb916" stroke="#1c2126" stroke-linejoin="round" stroke-width="2"/><polygon points="634.52 -55.93 634.52 -17.21 600.99 2.14 600.99 -36.57 634.52 -55.93" fill="#b7790b" stroke="#1c2126" stroke-linejoin="round" stroke-width="2"/><polygon points="634.52 -55.93 634.52 -17.21 668.05 2.14 668.05 -36.57 634.52 -55.93" fill="#ffb916" stroke="#1c2126" stroke-linejoin="round" stroke-width="2"/><polygon points="701.57 -55.93 701.57 -17.21 668.05 2.14 668.05 -36.57 701.57 -55.93" fill="#b7790b" stroke="#1c2126" stroke-linejoin="round" stroke-width="2"/><polygon points="600.99 2.03 634.52 -17.33 668.05 2.03 634.52 21.38 600.99 2.03" fill="#ffdd73" stroke="#1c2126" stroke-linejoin="round" stroke-width="2"/><polygon points="600.99 2.03 600.99 40.74 634.52 60.09 634.52 21.38 600.99 2.03" fill="#ffb916" stroke="#1c2126" stroke-linejoin="round" stroke-width="2"/><polygon points="668.05 2.03 668.04 40.74 634.52 60.09 634.52 21.38 668.05 2.03" fill="#b7790b" stroke="#1c2126" stroke-linejoin="round" stroke-width="2"/><polygon points="634.52 60.09 668.05 40.74 701.57 60.09 668.05 79.45 634.52 60.09" fill="#ffdd73" stroke="#1c2126" stroke-linejoin="round" stroke-width="2"/><polygon points="634.52 60.09 634.52 98.81 668.05 118.16 668.05 79.45 634.52 60.09" fill="#ffb916" stroke="#1c2126" stroke-linejoin="round" stroke-width="2"/><polygon points="701.57 60.09 701.57 98.81 668.05 118.16 668.05 79.45 701.57 60.09" fill="#b7790b" stroke="#1c2126" stroke-linejoin="round" stroke-width="2"/><polygon points="969.79 291.91 1003.32 272.55 1036.85 291.91 1003.32 311.26 969.79 291.91" fill="#ffdd73" stroke="#1c2126" stroke-linejoin="round" stroke-width="2"/><polygon points="969.79 291.91 969.79 330.62 1003.32 349.98 1003.32 311.26 969.79 291.91" fill="#ffb916" stroke="#1c2126" stroke-linejoin="round" stroke-width="2"/><polygon points="1036.85 291.91 1036.85 330.62 1003.32 349.98 1003.32 311.26 1036.85 291.91" fill="#b7790b" stroke="#1c2126" stroke-linejoin="round" stroke-width="2"/><polygon points="1036.85 291.91 1070.37 272.55 1103.9 291.91 1070.38 311.26 1036.85 291.91" fill="#ffdd73" stroke="#1c2126" stroke-linejoin="round" stroke-width="2"/><polygon points="1036.85 291.91 1036.85 330.62 1070.37 349.98 1070.38 311.26 1036.85 291.91" fill="#ffb916" stroke="#1c2126" stroke-linejoin="round" stroke-width="2"/><polygon points="1103.9 291.91 1103.9 330.62 1070.37 349.98 1070.38 311.26 1103.9 291.91" fill="#b7790b" stroke="#1c2126" stroke-linejoin="round" stroke-width="2"/><polygon points="1103.9 291.91 1137.43 272.55 1170.96 291.91 1137.43 311.26 1103.9 291.91" fill="#ffdd73" stroke="#1c2126" stroke-linejoin="round" stroke-width="2"/><polygon points="1103.9 291.91 1103.9 330.62 1137.43 349.98 1137.43 311.26 1103.9 291.91" fill="#ffb916" stroke="#1c2126" stroke-linejoin="round" stroke-width="2"/><polygon points="1170.96 291.91 1170.95 330.62 1137.43 349.98 1137.43 311.26 1170.96 291.91" fill="#b7790b" stroke="#1c2126" stroke-linejoin="round" stroke-width="2"/><polygon points="1170.96 291.91 1204.48 272.55 1238.01 291.91 1204.48 311.26 1170.96 291.91" fill="#ffdd73" stroke="#1c2126" stroke-linejoin="round" stroke-width="2"/><polygon points="1170.96 291.91 1170.96 330.62 1204.48 349.98 1204.48 311.26 1170.96 291.91" fill="#ffb916" stroke="#1c2126" stroke-linejoin="round" stroke-width="2"/><polygon points="1137.43 349.86 1170.96 330.5 1204.48 349.86 1170.96 369.22 1137.43 349.86" fill="#ffdd73" stroke="#1c2126" stroke-linejoin="round" stroke-width="2"/><polygon points="1137.43 349.86 1137.43 388.57 1170.96 407.93 1170.96 369.22 1137.43 349.86" fill="#ffb916" stroke="#1c2126" stroke-linejoin="round" stroke-width="2"/><polygon points="1204.48 349.86 1204.48 388.57 1170.96 407.93 1170.96 369.22 1204.48 349.86" fill="#b7790b" stroke="#1c2126" stroke-linejoin="round" stroke-width="2"/><polygon points="1070.38 349.86 1103.9 330.5 1137.43 349.86 1103.9 369.22 1070.38 349.86" fill="#ffdd73" stroke="#1c2126" stroke-linejoin="round" stroke-width="2"/><polygon points="1070.38 349.86 1070.38 388.57 1103.9 407.93 1103.9 369.22 1070.38 349.86" fill="#ffb916" stroke="#1c2126" stroke-linejoin="round" stroke-width="2"/><polygon points="1137.43 349.86 1137.43 388.57 1103.9 407.93 1103.9 369.22 1137.43 349.86" fill="#b7790b" stroke="#1c2126" stroke-linejoin="round" stroke-width="2"/><polygon points="1003.32 349.86 1036.85 330.5 1070.38 349.86 1036.85 369.22 1003.32 349.86" fill="#ffdd73" stroke="#1c2126" stroke-linejoin="round" stroke-width="2"/><polygon points="1003.32 349.86 1003.32 388.57 1036.85 407.93 1036.85 369.22 1003.32 349.86" fill="#ffb916" stroke="#1c2126" stroke-linejoin="round" stroke-width="2"/><polygon points="1070.38 349.86 1070.37 388.57 1036.85 407.93 1036.85 369.22 1070.38 349.86" fill="#b7790b" stroke="#1c2126" stroke-linejoin="round" stroke-width="2"/><polygon points="936.27 349.86 969.79 330.5 1003.32 349.86 969.79 369.22 936.27 349.86" fill="#ffdd73" stroke="#1c2126" stroke-linejoin="round" stroke-width="2"/><polygon points="936.27 349.86 936.27 388.57 969.79 407.93 969.79 369.22 936.27 349.86" fill="#ffb916" stroke="#1c2126" stroke-linejoin="round" stroke-width="2"/><polygon points="1003.32 349.86 1003.32 388.57 969.79 407.93 969.79 369.22 1003.32 349.86" fill="#b7790b" stroke="#1c2126" stroke-linejoin="round" stroke-width="2"/><polygon points="969.79 407.7 1003.32 388.34 1036.85 407.7 1003.32 427.06 969.79 407.7" fill="#ffdd73" stroke="#1c2126" stroke-linejoin="round" stroke-width="2"/><polygon points="969.79 407.7 969.79 446.41 1003.32 465.77 1003.32 427.06 969.79 407.7" fill="#ffb916" stroke="#1c2126" stroke-linejoin="round" stroke-width="2"/><polygon points="1036.85 407.7 1036.85 446.41 1003.32 465.77 1003.32 427.06 1036.85 407.7" fill="#b7790b" stroke="#1c2126" stroke-linejoin="round" stroke-width="2"/><polygon points="1036.85 407.7 1070.37 388.34 1103.9 407.7 1070.38 427.06 1036.85 407.7" fill="#ffdd73" stroke="#1c2126" stroke-linejoin="round" stroke-width="2"/><polygon points="1036.85 407.7 1036.85 446.41 1070.37 465.77 1070.38 427.06 1036.85 407.7" fill="#ffb916" stroke="#1c2126" stroke-linejoin="round" stroke-width="2"/><polygon points="1103.9 407.7 1103.9 446.41 1070.37 465.77 1070.38 427.06 1103.9 407.7" fill="#b7790b" stroke="#1c2126" stroke-linejoin="round" stroke-width="2"/><polygon points="1103.9 407.7 1137.43 388.34 1170.96 407.7 1137.43 427.06 1103.9 407.7" fill="#ffdd73" stroke="#1c2126" stroke-linejoin="round" stroke-width="2"/><polygon points="1103.9 407.7 1103.9 446.41 1137.43 465.77 1137.43 427.06 1103.9 407.7" fill="#ffb916" stroke="#1c2126" stroke-linejoin="round" stroke-width="2"/><polygon points="1170.96 407.7 1170.95 446.41 1137.43 465.77 1137.43 427.06 1170.96 407.7" fill="#b7790b" stroke="#1c2126" stroke-linejoin="round" stroke-width="2"/><polygon points="1170.96 407.7 1204.48 388.34 1238.01 407.7 1204.48 427.06 1170.96 407.7" fill="#ffdd73" stroke="#1c2126" stroke-linejoin="round" stroke-width="2"/><polygon points="1170.96 407.7 1170.96 446.41 1204.48 465.77 1204.48 427.06 1170.96 407.7" fill="#ffb916" stroke="#1c2126" stroke-linejoin="round" stroke-width="2"/><polygon points="1137.43 465.65 1170.96 446.3 1204.48 465.65 1170.96 485.01 1137.43 465.65" fill="#ffdd73" stroke="#1c2126" stroke-linejoin="round" stroke-width="2"/><polygon points="1137.43 465.65 1137.43 504.36 1170.96 523.72 1170.96 485.01 1137.43 465.65" fill="#ffb916" stroke="#1c2126" stroke-linejoin="round" stroke-width="2"/><polygon points="1204.48 465.65 1204.48 504.36 1170.96 523.72 1170.96 485.01 1204.48 465.65" fill="#b7790b" stroke="#1c2126" stroke-linejoin="round" stroke-width="2"/><polygon points="1070.38 465.65 1103.9 446.3 1137.43 465.65 1103.9 485.01 1070.38 465.65" fill="#ffdd73" stroke="#1c2126" stroke-linejoin="round" stroke-width="2"/><polygon points="1070.38 465.65 1070.38 504.36 1103.9 523.72 1103.9 485.01 1070.38 465.65" fill="#ffb916" stroke="#1c2126" stroke-linejoin="round" stroke-width="2"/><polygon points="1137.43 465.65 1137.43 504.36 1103.9 523.72 1103.9 485.01 1137.43 465.65" fill="#b7790b" stroke="#1c2126" stroke-linejoin="round" stroke-width="2"/><polygon points="1003.32 465.65 1036.85 446.3 1070.38 465.65 1036.85 485.01 1003.32 465.65" fill="#ffdd73" stroke="#1c2126" stroke-linejoin="round" stroke-width="2"/><polygon points="1003.32 465.65 1003.32 504.36 1036.85 523.72 1036.85 485.01 1003.32 465.65" fill="#ffb916" stroke="#1c2126" stroke-linejoin="round" stroke-width="2"/><polygon points="1070.38 465.65 1070.37 504.36 1036.85 523.72 1036.85 485.01 1070.38 465.65" fill="#b7790b" stroke="#1c2126" stroke-linejoin="round" stroke-width="2"/><polygon points="936.27 465.65 969.79 446.3 1003.32 465.65 969.79 485.01 936.27 465.65" fill="#ffdd73" stroke="#1c2126" stroke-linejoin="round" stroke-width="2"/><polygon points="936.27 465.65 936.27 504.36 969.79 523.72 969.79 485.01 936.27 465.65" fill="#ffb916" stroke="#1c2126" stroke-linejoin="round" stroke-width="2"/><polygon points="1003.32 465.65 1003.32 504.36 969.79 523.72 969.79 485.01 1003.32 465.65" fill="#b7790b" stroke="#1c2126" stroke-linejoin="round" stroke-width="2"/><polygon points="902.74 176.12 936.26 156.76 969.79 176.12 936.27 195.47 902.74 176.12" fill="#ffdd73" stroke="#1c2126" stroke-linejoin="round" stroke-width="2"/><polygon points="902.74 176.12 902.74 214.83 936.26 234.19 936.27 195.47 902.74 176.12" fill="#ffb916" stroke="#1c2126" stroke-linejoin="round" stroke-width="2"/><polygon points="969.79 176.12 969.79 214.83 936.26 234.19 936.27 195.47 969.79 176.12" fill="#b7790b" stroke="#1c2126" stroke-linejoin="round" stroke-width="2"/><polygon points="835.68 291.91 869.21 272.55 902.74 291.91 869.21 311.26 835.68 291.91" fill="#ffdd73" stroke="#1c2126" stroke-linejoin="round" stroke-width="2"/><polygon points="835.68 291.91 835.68 330.62 869.21 349.98 869.21 311.26 835.68 291.91" fill="#ffb916" stroke="#1c2126" stroke-linejoin="round" stroke-width="2"/><polygon points="902.74 291.91 902.74 330.62 869.21 349.98 869.21 311.26 902.74 291.91" fill="#b7790b" stroke="#1c2126" stroke-linejoin="round" stroke-width="2"/><polygon points="735.1 349.86 768.63 330.5 802.16 349.86 768.63 369.22 735.1 349.86" fill="#ffdd73" stroke="#1c2126" stroke-linejoin="round" stroke-width="2"/><polygon points="735.1 349.86 735.1 388.57 768.63 407.93 768.63 369.22 735.1 349.86" fill="#ffb916" stroke="#1c2126" stroke-linejoin="round" stroke-width="2"/><polygon points="802.16 349.86 802.15 388.57 768.63 407.93 768.63 369.22 802.16 349.86" fill="#b7790b" stroke="#1c2126" stroke-linejoin="round" stroke-width="2"/><polygon points="735.1 349.86 768.63 330.5 802.16 349.86 768.63 369.22 735.1 349.86" fill="#ffdd73" stroke="#1c2126" stroke-linejoin="round" stroke-width="2"/><polygon points="735.1 349.86 735.1 388.57 768.63 407.93 768.63 369.22 735.1 349.86" fill="#ffb916" stroke="#1c2126" stroke-linejoin="round" stroke-width="2"/><polygon points="802.16 349.86 802.15 388.57 768.63 407.93 768.63 369.22 802.16 349.86" fill="#b7790b" stroke="#1c2126" stroke-linejoin="round" stroke-width="2"/><polygon points="701.57 407.7 735.1 388.34 768.63 407.7 735.1 427.06 701.57 407.7" fill="#ffdd73" stroke="#1c2126" stroke-linejoin="round" stroke-width="2"/><polygon points="701.57 407.7 701.57 446.41 735.1 465.77 735.1 427.06 701.57 407.7" fill="#ffb916" stroke="#1c2126" stroke-linejoin="round" stroke-width="2"/><polygon points="768.63 407.7 768.63 446.41 735.1 465.77 735.1 427.06 768.63 407.7" fill="#b7790b" stroke="#1c2126" stroke-linejoin="round" stroke-width="2"/><polygon points="768.63 407.7 802.16 388.34 835.68 407.7 802.16 427.06 768.63 407.7" fill="#ffdd73" stroke="#1c2126" stroke-linejoin="round" stroke-width="2"/><polygon points="768.63 407.7 768.63 446.41 802.16 465.77 802.16 427.06 768.63 407.7" fill="#ffb916" stroke="#1c2126" stroke-linejoin="round" stroke-width="2"/><polygon points="835.68 407.7 835.68 446.41 802.16 465.77 802.16 427.06 835.68 407.7" fill="#b7790b" stroke="#1c2126" stroke-linejoin="round" stroke-width="2"/><polygon points="835.68 407.7 869.21 388.34 902.74 407.7 869.21 427.06 835.68 407.7" fill="#ffdd73" stroke="#1c2126" stroke-linejoin="round" stroke-width="2"/><polygon points="835.68 407.7 835.68 446.41 869.21 465.77 869.21 427.06 835.68 407.7" fill="#ffb916" stroke="#1c2126" stroke-linejoin="round" stroke-width="2"/><polygon points="902.74 407.7 902.74 446.41 869.21 465.77 869.21 427.06 902.74 407.7" fill="#b7790b" stroke="#1c2126" stroke-linejoin="round" stroke-width="2"/><polygon points="902.74 407.7 936.26 388.34 969.79 407.7 936.27 427.06 902.74 407.7" fill="#ffdd73" stroke="#1c2126" stroke-linejoin="round" stroke-width="2"/><polygon points="902.74 407.7 902.74 446.41 936.26 465.77 936.27 427.06 902.74 407.7" fill="#ffb916" stroke="#1c2126" stroke-linejoin="round" stroke-width="2"/><polygon points="969.79 407.7 969.79 446.41 936.26 465.77 936.27 427.06 969.79 407.7" fill="#b7790b" stroke="#1c2126" stroke-linejoin="round" stroke-width="2"/><polygon points="869.21 465.65 902.74 446.3 936.27 465.65 902.74 485.01 869.21 465.65" fill="#ffdd73" stroke="#1c2126" stroke-linejoin="round" stroke-width="2"/><polygon points="869.21 465.65 869.21 504.36 902.74 523.72 902.74 485.01 869.21 465.65" fill="#ffb916" stroke="#1c2126" stroke-linejoin="round" stroke-width="2"/><polygon points="936.27 465.65 936.26 504.36 902.74 523.72 902.74 485.01 936.27 465.65" fill="#b7790b" stroke="#1c2126" stroke-linejoin="round" stroke-width="2"/><polygon points="802.16 465.65 835.68 446.3 869.21 465.65 835.68 485.01 802.16 465.65" fill="#ffdd73" stroke="#1c2126" stroke-linejoin="round" stroke-width="2"/><polygon points="802.16 465.65 802.16 504.36 835.68 523.72 835.68 485.01 802.16 465.65" fill="#ffb916" stroke="#1c2126" stroke-linejoin="round" stroke-width="2"/><polygon points="869.21 465.65 869.21 504.36 835.68 523.72 835.68 485.01 869.21 465.65" fill="#b7790b" stroke="#1c2126" stroke-linejoin="round" stroke-width="2"/><polygon points="735.1 465.65 768.63 446.3 802.16 465.65 768.63 485.01 735.1 465.65" fill="#ffdd73" stroke="#1c2126" stroke-linejoin="round" stroke-width="2"/><polygon points="735.1 465.65 735.1 504.36 768.63 523.72 768.63 485.01 735.1 465.65" fill="#ffb916" stroke="#1c2126" stroke-linejoin="round" stroke-width="2"/><polygon points="802.16 465.65 802.15 504.36 768.63 523.72 768.63 485.01 802.16 465.65" fill="#b7790b" stroke="#1c2126" stroke-linejoin="round" stroke-width="2"/><polygon points="668.05 465.65 701.57 446.3 735.1 465.65 701.57 485.01 668.05 465.65" fill="#ffdd73" stroke="#1c2126" stroke-linejoin="round" stroke-width="2"/><polygon points="668.05 465.65 668.05 504.36 701.57 523.72 701.57 485.01 668.05 465.65" fill="#ffb916" stroke="#1c2126" stroke-linejoin="round" stroke-width="2"/><polygon points="735.1 465.65 735.1 504.36 701.57 523.72 701.57 485.01 735.1 465.65" fill="#b7790b" stroke="#1c2126" stroke-linejoin="round" stroke-width="2"/><polygon points="600.99 465.65 634.52 446.3 668.05 465.65 634.52 485.01 600.99 465.65" fill="#ffdd73" stroke="#1c2126" stroke-linejoin="round" stroke-width="2"/><polygon points="600.99 465.65 600.99 504.36 634.52 523.72 634.52 485.01 600.99 465.65" fill="#ffb916" stroke="#1c2126" stroke-linejoin="round" stroke-width="2"/><polygon points="668.05 465.65 668.05 504.36 634.52 523.72 634.52 485.01 668.05 465.65" fill="#b7790b" stroke="#1c2126" stroke-linejoin="round" stroke-width="2"/><polygon points="533.94 465.65 567.47 446.3 600.99 465.65 567.47 485.01 533.94 465.65" fill="#ffdd73" stroke="#1c2126" stroke-linejoin="round" stroke-width="2"/><polygon points="533.94 465.65 533.94 504.36 567.47 523.72 567.47 485.01 533.94 465.65" fill="#ffb916" stroke="#1c2126" stroke-linejoin="round" stroke-width="2"/><polygon points="600.99 465.65 600.99 504.36 567.47 523.72 567.47 485.01 600.99 465.65" fill="#b7790b" stroke="#1c2126" stroke-linejoin="round" stroke-width="2"/><polygon points="466.88 465.65 500.41 446.3 533.94 465.65 500.41 485.01 466.88 465.65" fill="#ffdd73" stroke="#1c2126" stroke-linejoin="round" stroke-width="2"/><polygon points="466.88 465.65 466.88 504.36 500.41 523.72 500.41 485.01 466.88 465.65" fill="#ffb916" stroke="#1c2126" stroke-linejoin="round" stroke-width="2"/><polygon points="533.94 465.65 533.94 504.36 500.41 523.72 500.41 485.01 533.94 465.65" fill="#b7790b" stroke="#1c2126" stroke-linejoin="round" stroke-width="2"/><polygon points="399.83 465.65 433.36 446.3 466.88 465.65 433.36 485.01 399.83 465.65" fill="#ffdd73" stroke="#1c2126" stroke-linejoin="round" stroke-width="2"/><polygon points="399.83 465.65 399.83 504.36 433.36 523.72 433.36 485.01 399.83 465.65" fill="#ffb916" stroke="#1c2126" stroke-linejoin="round" stroke-width="2"/><polygon points="466.88 465.65 466.88 504.36 433.36 523.72 433.36 485.01 466.88 465.65" fill="#b7790b" stroke="#1c2126" stroke-linejoin="round" stroke-width="2"/><polygon points="332.78 465.65 366.3 446.3 399.83 465.65 366.3 485.01 332.78 465.65" fill="#ffdd73" stroke="#1c2126" stroke-linejoin="round" stroke-width="2"/><polygon points="332.78 465.65 332.78 504.36 366.3 523.72 366.3 485.01 332.78 465.65" fill="#ffb916" stroke="#1c2126" stroke-linejoin="round" stroke-width="2"/><polygon points="399.83 465.65 399.83 504.36 366.3 523.72 366.3 485.01 399.83 465.65" fill="#b7790b" stroke="#1c2126" stroke-linejoin="round" stroke-width="2"/><polygon points="265.72 465.65 299.25 446.3 332.78 465.65 299.25 485.01 265.72 465.65" fill="#ffdd73" stroke="#1c2126" stroke-linejoin="round" stroke-width="2"/><polygon points="265.72 465.65 265.72 504.36 299.25 523.72 299.25 485.01 265.72 465.65" fill="#ffb916" stroke="#1c2126" stroke-linejoin="round" stroke-width="2"/><polygon points="332.78 465.65 332.77 504.36 299.25 523.72 299.25 485.01 332.78 465.65" fill="#b7790b" stroke="#1c2126" stroke-linejoin="round" stroke-width="2"/><polygon points="198.67 465.65 232.19 446.3 265.72 465.65 232.19 485.01 198.67 465.65" fill="#ffdd73" stroke="#1c2126" stroke-linejoin="round" stroke-width="2"/><polygon points="198.67 465.65 198.67 504.36 232.19 523.72 232.19 485.01 198.67 465.65" fill="#ffb916" stroke="#1c2126" stroke-linejoin="round" stroke-width="2"/><polygon points="265.72 465.65 265.72 504.36 232.19 523.72 232.19 485.01 265.72 465.65" fill="#b7790b" stroke="#1c2126" stroke-linejoin="round" stroke-width="2"/><polygon points="131.61 465.65 165.14 446.3 198.67 465.65 165.14 485.01 131.61 465.65" fill="#ffdd73" stroke="#1c2126" stroke-linejoin="round" stroke-width="2"/><polygon points="131.61 465.65 131.61 504.36 165.14 523.72 165.14 485.01 131.61 465.65" fill="#ffb916" stroke="#1c2126" stroke-linejoin="round" stroke-width="2"/><polygon points="198.67 465.65 198.66 504.36 165.14 523.72 165.14 485.01 198.67 465.65" fill="#b7790b" stroke="#1c2126" stroke-linejoin="round" stroke-width="2"/><polygon points="64.56 465.65 98.08 446.3 131.61 465.65 98.08 485.01 64.56 465.65" fill="#ffdd73" stroke="#1c2126" stroke-linejoin="round" stroke-width="2"/><polygon points="64.56 465.65 64.56 504.36 98.08 523.72 98.08 485.01 64.56 465.65" fill="#ffb916" stroke="#1c2126" stroke-linejoin="round" stroke-width="2"/><polygon points="131.61 465.65 131.61 504.36 98.08 523.72 98.08 485.01 131.61 465.65" fill="#b7790b" stroke="#1c2126" stroke-linejoin="round" stroke-width="2"/><polygon points="-2.5 465.65 31.03 446.3 64.56 465.65 31.03 485.01 -2.5 465.65" fill="#ffdd73" stroke="#1c2126" stroke-linejoin="round" stroke-width="2"/><polygon points="-2.5 465.65 -2.5 504.36 31.03 523.72 31.03 485.01 -2.5 465.65" fill="#ffb916" stroke="#1c2126" stroke-linejoin="round" stroke-width="2"/><polygon points="64.56 465.65 64.55 504.36 31.03 523.72 31.03 485.01 64.56 465.65" fill="#b7790b" stroke="#1c2126" stroke-linejoin="round" stroke-width="2"/><polygon points="768.63 214.83 735.1 195.47 701.57 214.83 768.63 253.54 835.68 214.83 802.15 195.47 768.63 214.83" fill="#b7303d" stroke="#1c2126" stroke-linejoin="round" stroke-width="2"/><polygon points="735.1 156.76 735.1 195.47 701.57 214.83 701.57 176.12 735.1 156.76" fill="#ea4f4b" stroke="#1c2126" stroke-linejoin="round" stroke-width="2"/><polygon points="735.1 156.76 735.1 195.47 768.63 214.83 768.63 176.12 735.1 156.76" fill="#ff6b60" stroke="#1c2126" stroke-linejoin="round" stroke-width="2"/><polygon points="802.16 156.76 802.15 195.47 768.63 214.83 768.63 176.12 802.16 156.76" fill="#ea4f4b" stroke="#1c2126" stroke-linejoin="round" stroke-width="2"/><polygon points="802.16 156.76 802.16 195.47 835.68 214.83 835.68 176.12 802.16 156.76" fill="#ff6b60" stroke="#1c2126" stroke-linejoin="round" stroke-width="2"/><polygon points="969.79 214.83 936.27 195.47 902.74 214.83 969.79 253.54 1036.85 214.83 1003.32 195.47 969.79 214.83" fill="#b7303d" stroke="#1c2126" stroke-linejoin="round" stroke-width="2"/><polygon points="936.27 156.76 936.26 195.47 902.74 214.83 902.74 176.12 936.27 156.76" fill="#ea4f4b" stroke="#1c2126" stroke-linejoin="round" stroke-width="2"/><polygon points="936.27 156.76 936.27 195.47 969.79 214.83 969.79 176.12 936.27 156.76" fill="#ff6b60" stroke="#1c2126" stroke-linejoin="round" stroke-width="2"/><polygon points="1003.32 156.76 1003.32 195.47 969.79 214.83 969.79 176.12 1003.32 156.76" fill="#ea4f4b" stroke="#1c2126" stroke-linejoin="round" stroke-width="2"/><polygon points="1003.32 156.76 1003.32 195.47 1036.85 214.83 1036.85 176.12 1003.32 156.76" fill="#ff6b60" stroke="#1c2126" stroke-linejoin="round" stroke-width="2"/><polygon points="869.21 311.49 835.68 292.14 802.16 311.49 869.21 350.21 936.27 311.49 902.74 292.14 869.21 311.49" fill="#b7303d" stroke="#1c2126" stroke-linejoin="round" stroke-width="2"/><polygon points="835.68 253.43 835.68 292.14 802.16 311.49 802.16 272.78 835.68 253.43" fill="#ea4f4b" stroke="#1c2126" stroke-linejoin="round" stroke-width="2"/><polygon points="835.68 253.42 835.68 292.14 869.21 311.49 869.21 272.78 835.68 253.42" fill="#ff6b60" stroke="#1c2126" stroke-linejoin="round" stroke-width="2"/><polygon points="902.74 253.43 902.74 292.14 869.21 311.49 869.21 272.78 902.74 253.43" fill="#ea4f4b" stroke="#1c2126" stroke-linejoin="round" stroke-width="2"/><polygon points="902.74 253.42 902.74 292.14 936.26 311.49 936.27 272.78 902.74 253.42" fill="#ff6b60" stroke="#1c2126" stroke-linejoin="round" stroke-width="2"/></g><rect x="0" y="595" width="1200" height="35" fill="#fff"/><rect x="0" y="499.19" width="1200" height="95.81" fill="#fff"/><line x1="0" y1="499.19" x2="1200" y2="499.19" fill="none" stroke="#1c2126" stroke-miterlimit="10"/><line x1="0" y1="595" x2="1200" y2="595" fill="none" stroke="#1c2126" stroke-miterlimit="10"/><path d="M24.24,559.45v-18.76h-6.39v-2.37h15.35v2.37h-6.39v18.76h-2.58Z" fill="#1c2126"/><path d="M44.08,559.89c-4.8,0-7.75-3.46-7.75-9.3v-3.41c0-5.84,2.94-9.3,7.75-9.3s7.75,3.46,7.75,9.3v3.41c0,5.84-2.94,9.3-7.75,9.3ZM49.22,550.58v-3.38c0-4.41-1.93-6.87-5.14-6.87s-5.14,2.46-5.14,6.87v3.38c0,4.41,1.93,6.87,5.14,6.87s5.14-2.46,5.14-6.87Z" fill="#1c2126"/><path d="M59.97,545.58c0-1.48,1.2-2.71,2.65-2.71s2.65,1.23,2.65,2.71-1.2,2.71-2.65,2.71-2.65-1.23-2.65-2.71ZM59.97,556.83c0-1.48,1.2-2.7,2.65-2.7s2.65,1.22,2.65,2.7-1.2,2.71-2.65,2.71-2.65-1.22-2.65-2.71Z" fill="#1c2126"/><line x1="582.03" y1="498.72" x2="582.03" y2="595" fill="none" stroke="#1c2126" stroke-miterlimit="10"/><path d="M605.51,559.45v-21.14h12.47v2.37h-9.87v7.25h9.02v2.3h-9.02v9.21h-2.59Z" fill="#1c2126"/><path d="M625.54,551.03v8.42h-2.55v-21.14h7.09c4.19,0,6.81,2.43,6.81,6.36,0,2.77-1.54,5.04-3.94,5.83l4.31,8.95h-2.92l-3.94-8.42h-4.86ZM625.54,548.85h4.19c2.92,0,4.56-1.48,4.56-4.12s-1.61-4.12-4.44-4.12h-4.31v8.23Z" fill="#1c2126"/><path d="M648.15,559.89c-4.8,0-7.75-3.46-7.75-9.3v-3.41c0-5.84,2.94-9.3,7.75-9.3s7.75,3.46,7.75,9.3v3.41c0,5.84-2.94,9.3-7.75,9.3ZM653.29,550.58v-3.38c0-4.41-1.93-6.87-5.14-6.87s-5.14,2.46-5.14,6.87v3.38c0,4.41,1.93,6.87,5.14,6.87s5.14-2.46,5.14-6.87Z" fill="#1c2126"/><path d="M661.18,559.45h-2.31v-21.14h2.86l4.88,13.08h.19l4.86-13.08h2.86v21.14h-2.31v-8.1l.15-8.57h-.19l-4.45,11.7h-2.02l-4.45-11.7h-.19l.15,8.57v8.1Z" fill="#1c2126"/><path d="M682.59,545.58c0-1.48,1.2-2.71,2.65-2.71s2.65,1.23,2.65,2.71-1.2,2.71-2.65,2.71-2.65-1.23-2.65-2.71ZM682.59,556.83c0-1.48,1.2-2.7,2.65-2.7s2.65,1.22,2.65,2.7-1.2,2.71-2.65,2.71-2.65-1.22-2.65-2.71Z" fill="#1c2126"/><path d="M12.77,618.41c-.12,0-.21-.04-.26-.11-.06-.07-.08-.17-.06-.27l2.22-10.42c.02-.12.07-.21.16-.29.08-.07.19-.11.3-.11h6.95c.12,0,.2.04.26.11.05.07.07.17.05.29l-.24,1.12c-.02.12-.08.21-.16.28-.08.07-.19.1-.3.1h-5.14l-.66,3.04h4.82c.12,0,.2.04.26.11.05.07.07.17.05.29l-.22,1.12c-.02.11-.08.2-.17.27-.09.07-.19.11-.31.11h-4.82l-.85,3.97c-.02.11-.08.2-.16.27-.08.08-.19.11-.3.11h-1.41Z" fill="#1c2126"/><path d="M25.41,618.57c-.81,0-1.49-.15-2.02-.45s-.92-.72-1.15-1.26c-.23-.54-.29-1.18-.17-1.9.03-.19.08-.43.13-.7s.12-.51.17-.7c.19-.74.49-1.37.89-1.91.4-.54.91-.96,1.54-1.26.62-.3,1.36-.45,2.22-.45s1.49.15,2.02.45c.54.3.93.72,1.16,1.26.23.54.29,1.18.18,1.91-.04.19-.09.43-.14.7s-.11.51-.16.7c-.19.73-.48,1.36-.87,1.9-.39.54-.9.96-1.52,1.26s-1.38.45-2.26.45ZM25.57,616.98c.58,0,1.06-.18,1.46-.54.4-.36.69-.88.87-1.58.04-.16.09-.37.14-.62s.1-.46.13-.62c.12-.69.07-1.22-.14-1.58-.21-.36-.61-.54-1.18-.54s-1.05.18-1.46.54c-.41.36-.69.88-.86,1.58-.04.16-.09.37-.15.62s-.1.46-.12.62c-.12.69-.07,1.22.14,1.58s.6.54,1.18.54Z" fill="#1c2126"/><path d="M31.53,618.41c-.11,0-.19-.04-.25-.11-.06-.07-.08-.17-.06-.27l1.6-7.54c.02-.12.08-.21.17-.29.09-.07.19-.11.3-.11h1.3c.11,0,.19.04.25.11.06.08.08.17.06.29l-.14.66c.26-.34.58-.6.98-.78s.88-.27,1.44-.27h.78c.12,0,.2.04.26.11.05.08.07.17.05.27l-.24,1.15c-.02.11-.08.2-.17.27-.09.07-.19.11-.3.11h-1.25c-.51,0-.94.14-1.29.42-.35.28-.57.68-.68,1.19l-.94,4.4c-.02.11-.07.2-.16.27-.08.08-.19.11-.3.11h-1.39Z" fill="#1c2126"/><path d="M44.76,618.41c-.73,0-1.29-.11-1.7-.34-.4-.22-.67-.56-.78-1s-.11-.99.03-1.66l.79-3.63h-1.26c-.11,0-.19-.04-.25-.11-.06-.07-.08-.17-.06-.29l.19-.91c.02-.11.08-.2.17-.27.09-.07.2-.11.31-.11h1.25l.58-2.66c.02-.11.07-.2.16-.27.08-.07.18-.11.29-.11h1.3c.12,0,.21.04.26.11.06.08.08.17.06.27l-.58,2.66h2c.11,0,.19.04.25.11.06.08.08.17.06.27l-.19.91c-.02.12-.08.21-.17.29-.09.08-.19.11-.3.11h-2l-.74,3.47c-.06.29-.1.54-.1.74,0,.21.05.37.17.48.12.11.33.17.62.17h1.15c.12,0,.2.04.26.11.05.08.07.17.05.27l-.21.99c-.02.11-.08.2-.16.27-.09.08-.19.11-.3.11h-1.14Z" fill="#1c2126"/><path d="M48.07,618.41c-.11,0-.19-.04-.25-.11-.06-.07-.08-.17-.06-.27l2.26-10.59c.02-.11.08-.2.16-.27.08-.07.18-.11.29-.11h1.44c.11,0,.19.04.25.11.06.08.08.17.06.27l-.78,3.65c.34-.34.72-.62,1.14-.83.42-.21.93-.32,1.53-.32.69,0,1.26.15,1.7.44.44.29.75.71.92,1.24.17.53.18,1.17.02,1.92l-.96,4.5c-.02.11-.08.2-.16.27-.09.08-.19.11-.3.11h-1.44c-.11,0-.19-.04-.25-.11-.06-.07-.08-.17-.06-.27l.93-4.4c.14-.62.11-1.1-.08-1.46-.19-.35-.58-.53-1.17-.53-.36,0-.71.08-1.03.23-.33.16-.61.38-.84.68-.23.3-.4.66-.5,1.07l-.93,4.4c-.02.11-.08.2-.16.27-.09.08-.18.11-.29.11h-1.44Z" fill="#1c2126"/><path d="M61.51,618.57c-.78,0-1.43-.16-1.95-.46-.52-.31-.87-.76-1.07-1.34-.2-.59-.23-1.3-.09-2.13.02-.11.05-.24.08-.41.03-.17.06-.3.1-.39.21-.81.54-1.51.99-2.09.45-.58.99-1.03,1.64-1.34s1.36-.47,2.14-.47c.86,0,1.55.18,2.06.54.51.36.84.85,1.01,1.49s.16,1.37,0,2.2l-.08.34c-.02.11-.08.2-.17.27-.09.08-.19.11-.31.11h-5.31c-.01.06-.02.11-.03.13-.05.37-.05.72.02,1.03.06.31.21.57.42.76.22.19.51.29.87.29.3,0,.56-.04.79-.14.22-.09.41-.19.55-.31.14-.12.25-.21.33-.29.13-.13.22-.21.29-.23.06-.03.15-.04.27-.04h1.39c.1,0,.17.03.22.1.05.06.07.14.05.24-.05.17-.19.38-.4.62s-.5.49-.86.72c-.36.24-.79.43-1.29.58s-1.04.23-1.64.23ZM60.82,613.53h3.54l.02-.05c.1-.42.1-.78.02-1.1-.08-.31-.23-.56-.46-.74-.22-.18-.52-.26-.9-.26s-.71.09-1.02.26c-.3.18-.56.42-.76.74-.2.32-.35.68-.43,1.1l-.02.05Z" fill="#1c2126"/><path d="M71.06,618.41c-.11,0-.19-.04-.25-.11-.06-.07-.08-.17-.06-.27l2.26-10.59c.02-.11.08-.2.16-.27.08-.07.18-.11.29-.11h1.33c.12,0,.21.04.26.11.06.08.08.17.06.27l-2.26,10.59c-.02.11-.08.2-.16.27-.09.08-.19.11-.3.11h-1.33Z" fill="#1c2126"/><path d="M78.64,618.57c-.81,0-1.49-.15-2.02-.45-.54-.3-.92-.72-1.15-1.26-.23-.54-.29-1.18-.17-1.9.03-.19.08-.43.14-.7s.11-.51.17-.7c.19-.74.49-1.37.89-1.91.4-.54.91-.96,1.54-1.26.62-.3,1.36-.45,2.22-.45s1.49.15,2.02.45c.54.3.92.72,1.16,1.26.23.54.29,1.18.18,1.91-.04.19-.09.43-.14.7-.05.28-.11.51-.16.7-.19.73-.48,1.36-.87,1.9s-.9.96-1.52,1.26c-.62.3-1.38.45-2.26.45ZM78.8,616.98c.58,0,1.06-.18,1.46-.54s.69-.88.87-1.58c.04-.16.09-.37.14-.62.05-.26.1-.46.13-.62.12-.69.07-1.22-.14-1.58-.21-.36-.61-.54-1.18-.54s-1.05.18-1.46.54c-.41.36-.69.88-.86,1.58-.04.16-.09.37-.15.62s-.1.46-.12.62c-.12.69-.07,1.22.14,1.58.21.36.6.54,1.18.54Z" fill="#1c2126"/><path d="M86.92,618.41c-.16,0-.27-.04-.34-.12-.06-.08-.11-.17-.13-.28l-1.42-7.49c-.02-.14,0-.25.08-.32.08-.07.18-.11.3-.11h1.22c.12,0,.21.03.27.1.06.06.11.15.13.27l.91,5.55,3.33-5.62c.03-.06.09-.13.17-.2s.18-.1.31-.1h1.39c.13,0,.22.05.26.14.05.1.03.21-.06.35l-4.56,7.42c-.08.11-.16.2-.25.28-.09.08-.22.12-.38.12h-1.25Z" fill="#1c2126"/><path d="M96.66,618.57c-.78,0-1.43-.16-1.94-.46-.52-.31-.88-.76-1.07-1.34-.2-.59-.23-1.3-.09-2.13.02-.11.05-.24.08-.41.03-.17.06-.3.1-.39.21-.81.54-1.51.99-2.09.45-.58.99-1.03,1.64-1.34s1.36-.47,2.14-.47c.86,0,1.55.18,2.06.54.51.36.84.85,1.01,1.49.17.63.16,1.37,0,2.2l-.08.34c-.02.11-.08.2-.17.27-.09.08-.2.11-.31.11h-5.31c-.01.06-.02.11-.03.13-.05.37-.05.72.02,1.03.06.31.21.57.42.76.22.19.51.29.87.29.3,0,.56-.04.78-.14.22-.09.41-.19.55-.31.14-.12.25-.21.33-.29.13-.13.22-.21.29-.23.06-.03.15-.04.27-.04h1.39c.1,0,.17.03.22.1.05.06.07.14.05.24-.05.17-.19.38-.4.62-.21.25-.5.49-.87.72-.36.24-.79.43-1.29.58s-1.04.23-1.64.23ZM95.97,613.53h3.54l.02-.05c.1-.42.1-.78.02-1.1-.08-.31-.23-.56-.46-.74-.22-.18-.52-.26-.9-.26s-.71.09-1.02.26-.56.42-.76.74c-.2.32-.35.68-.43,1.1l-.02.05Z" fill="#1c2126"/><path d="M109.56,618.57c-.81,0-1.49-.15-2.02-.45s-.92-.72-1.15-1.26c-.23-.54-.29-1.18-.17-1.9.03-.19.08-.43.13-.7s.12-.51.17-.7c.19-.74.49-1.37.89-1.91.4-.54.91-.96,1.54-1.26.62-.3,1.36-.45,2.22-.45s1.49.15,2.02.45c.54.3.93.72,1.16,1.26.23.54.29,1.18.18,1.91-.04.19-.09.43-.14.7s-.11.51-.16.7c-.19.73-.48,1.36-.87,1.9-.39.54-.9.96-1.52,1.26s-1.38.45-2.26.45ZM109.72,616.98c.58,0,1.06-.18,1.46-.54.4-.36.69-.88.87-1.58.04-.16.09-.37.14-.62s.1-.46.13-.62c.12-.69.07-1.22-.14-1.58-.21-.36-.61-.54-1.18-.54s-1.05.18-1.46.54c-.41.36-.69.88-.86,1.58-.04.16-.09.37-.15.62s-.1.46-.12.62c-.12.69-.07,1.22.14,1.58s.6.54,1.18.54Z" fill="#1c2126"/><path d="M116.42,618.41c-.12,0-.21-.04-.26-.11-.06-.07-.08-.17-.06-.27l1.33-6.24h-1.29c-.11,0-.19-.04-.25-.11-.06-.07-.08-.17-.06-.29l.19-.91c.02-.11.08-.2.17-.27.09-.07.19-.11.31-.11h1.3l.13-.66c.15-.64.38-1.17.69-1.59.31-.42.7-.74,1.18-.95.48-.21,1.04-.32,1.68-.32h1.28c.12,0,.2.04.26.11.05.07.07.17.05.27l-.19.91c-.02.12-.08.21-.17.29s-.19.11-.3.11h-.96c-.43,0-.76.11-.99.32-.23.21-.39.52-.46.93l-.13.58h1.98c.12,0,.2.04.26.11.05.08.07.17.05.27l-.19.91c-.02.12-.08.21-.16.29-.09.08-.19.11-.3.11h-1.98l-1.34,6.24c-.02.11-.07.2-.16.27-.08.08-.18.11-.29.11h-1.3Z" fill="#1c2126"/><path d="M128.85,618.57c-.81,0-1.48-.15-2.02-.45s-.92-.72-1.15-1.26c-.23-.54-.29-1.18-.17-1.9.03-.19.08-.43.14-.7s.11-.51.17-.7c.19-.74.49-1.37.89-1.91.4-.54.91-.96,1.54-1.26.62-.3,1.36-.45,2.22-.45s1.49.15,2.02.45c.54.3.92.72,1.16,1.26.23.54.29,1.18.18,1.91-.04.19-.09.43-.14.7s-.11.51-.16.7c-.19.73-.48,1.36-.87,1.9-.39.54-.9.96-1.52,1.26s-1.38.45-2.26.45ZM129.01,616.98c.58,0,1.06-.18,1.46-.54.4-.36.69-.88.87-1.58.04-.16.09-.37.14-.62.05-.26.1-.46.13-.62.12-.69.07-1.22-.14-1.58-.21-.36-.61-.54-1.18-.54s-1.05.18-1.46.54c-.41.36-.69.88-.86,1.58-.04.16-.09.37-.15.62s-.1.46-.12.62c-.12.69-.07,1.22.14,1.58s.6.54,1.18.54Z" fill="#1c2126"/><path d="M134.32,621.45c-.11,0-.19-.04-.25-.11-.06-.07-.08-.17-.06-.27l2.26-10.59c.02-.11.08-.2.16-.27.09-.07.18-.11.29-.11h1.28c.11,0,.19.04.25.11.06.08.08.17.06.27l-.14.64c.33-.34.7-.62,1.1-.85.4-.22.93-.34,1.58-.34.55,0,1.03.09,1.42.28.39.19.7.45.92.79.22.34.37.74.44,1.21s.06.97-.04,1.53c-.02.18-.05.35-.09.51s-.08.34-.14.53c-.13.52-.31,1.02-.54,1.48-.24.46-.52.87-.86,1.22s-.73.62-1.18.81-.96.29-1.53.29c-.6,0-1.09-.1-1.47-.31-.38-.21-.66-.48-.83-.82l-.78,3.63c-.02.11-.08.2-.16.27-.09.08-.19.11-.3.11h-1.36ZM138.88,616.85c.43,0,.79-.1,1.09-.3.3-.2.55-.46.74-.78.2-.33.35-.67.47-1.05.05-.16.1-.32.13-.48.03-.16.06-.32.08-.48.05-.38.06-.74.02-1.06-.04-.32-.16-.58-.36-.78-.2-.2-.51-.3-.94-.3-.45,0-.83.1-1.16.3s-.59.46-.8.78c-.21.32-.36.64-.44.97-.05.19-.1.39-.14.61-.04.21-.08.42-.11.62-.05.32-.05.63,0,.92.06.29.2.54.43.73.23.19.56.29.98.29Z" fill="#1c2126"/><path d="M148.13,618.57c-.78,0-1.43-.16-1.95-.46-.52-.31-.87-.76-1.07-1.34-.2-.59-.23-1.3-.09-2.13.02-.11.05-.24.08-.41.03-.17.06-.3.1-.39.21-.81.54-1.51.99-2.09.45-.58.99-1.03,1.64-1.34s1.36-.47,2.14-.47c.86,0,1.55.18,2.06.54.51.36.84.85,1.01,1.49s.16,1.37,0,2.2l-.08.34c-.02.11-.08.2-.17.27-.09.08-.19.11-.31.11h-5.31c-.01.06-.02.11-.03.13-.05.37-.05.72.02,1.03.06.31.21.57.42.76.22.19.51.29.87.29.3,0,.56-.04.79-.14.22-.09.41-.19.55-.31.14-.12.25-.21.33-.29.13-.13.22-.21.29-.23.06-.03.15-.04.27-.04h1.39c.1,0,.17.03.22.1.05.06.07.14.05.24-.05.17-.19.38-.4.62s-.5.49-.86.72c-.36.24-.79.43-1.29.58s-1.04.23-1.64.23ZM147.44,613.53h3.54l.02-.05c.1-.42.1-.78.02-1.1-.08-.31-.23-.56-.46-.74-.22-.18-.52-.26-.9-.26s-.71.09-1.02.26c-.3.18-.56.42-.76.74-.2.32-.35.68-.43,1.1l-.02.05Z" fill="#1c2126"/><path d="M153.96,618.41c-.11,0-.19-.04-.25-.11-.06-.07-.08-.17-.06-.27l1.6-7.55c.02-.11.08-.2.17-.27.09-.07.19-.11.3-.11h1.31c.11,0,.19.04.24.11.05.08.07.17.05.27l-.14.66c.34-.34.74-.63,1.21-.86s.99-.34,1.58-.34c.73,0,1.31.15,1.74.44.44.29.73.71.87,1.24.14.53.14,1.17-.02,1.92l-.96,4.5c-.02.11-.07.2-.16.27-.09.08-.19.11-.3.11h-1.41c-.11,0-.19-.04-.25-.11-.06-.07-.08-.17-.06-.27l.93-4.4c.14-.65.12-1.14-.04-1.48s-.56-.5-1.18-.5-1.12.18-1.54.53c-.42.35-.7.84-.84,1.46l-.93,4.4c-.02.11-.08.2-.16.27-.09.08-.18.11-.29.11h-1.41Z" fill="#1c2126"/><path d="M170.61,618.57c-.64,0-1.17-.08-1.59-.22-.42-.15-.75-.34-.99-.56s-.41-.45-.5-.67c-.09-.22-.12-.41-.1-.56.02-.12.08-.21.17-.28.09-.07.18-.1.28-.1h1.26s.08,0,.11.02c.03.01.06.04.1.1.12.12.24.24.37.37.13.13.29.24.49.33s.46.14.78.14c.42,0,.78-.08,1.1-.25.31-.17.5-.4.57-.71.04-.22.02-.41-.08-.54-.1-.14-.29-.26-.59-.38-.3-.11-.74-.23-1.33-.36-.58-.14-1.04-.31-1.38-.53-.35-.21-.58-.48-.71-.8-.12-.32-.13-.69-.04-1.12.08-.42.29-.81.62-1.19.33-.38.77-.69,1.32-.94.55-.25,1.19-.37,1.93-.37.58,0,1.06.07,1.46.22.4.14.72.32.96.54.24.21.41.43.5.65.1.22.13.41.1.57-.01.12-.06.21-.15.28-.09.07-.18.1-.28.1h-1.17c-.05,0-.1-.01-.14-.03-.04-.02-.08-.05-.1-.08-.11-.11-.22-.22-.33-.34-.11-.12-.26-.23-.43-.31-.18-.08-.42-.13-.74-.13-.41,0-.73.09-.98.26s-.41.4-.47.66c-.03.18-.01.34.06.47.07.13.25.26.54.38s.73.24,1.31.37c.69.13,1.22.32,1.59.57.37.25.61.54.72.86.11.33.13.69.04,1.08-.1.48-.33.91-.7,1.3-.37.38-.85.69-1.45.9-.6.22-1.3.33-2.11.33Z" fill="#1c2126"/><path d="M179.52,618.57c-.81,0-1.49-.15-2.02-.45-.54-.3-.92-.72-1.15-1.26-.23-.54-.29-1.18-.17-1.9.03-.19.08-.43.14-.7s.11-.51.17-.7c.19-.74.49-1.37.89-1.91.4-.54.91-.96,1.54-1.26.62-.3,1.36-.45,2.22-.45s1.49.15,2.02.45c.54.3.92.72,1.16,1.26.23.54.29,1.18.18,1.91-.04.19-.09.43-.14.7-.05.28-.11.51-.16.7-.19.73-.48,1.36-.87,1.9s-.9.96-1.52,1.26c-.62.3-1.38.45-2.26.45ZM179.68,616.98c.58,0,1.06-.18,1.46-.54s.69-.88.87-1.58c.04-.16.09-.37.14-.62.05-.26.1-.46.13-.62.12-.69.07-1.22-.14-1.58-.21-.36-.61-.54-1.18-.54s-1.05.18-1.46.54c-.41.36-.69.88-.86,1.58-.04.16-.09.37-.15.62s-.1.46-.12.62c-.12.69-.07,1.22.14,1.58.21.36.6.54,1.18.54Z" fill="#1c2126"/><path d="M188.45,618.57c-.69,0-1.26-.15-1.7-.44-.44-.29-.73-.71-.87-1.25-.14-.54-.14-1.18,0-1.91l.96-4.5c.02-.11.08-.2.17-.27.09-.07.19-.11.29-.11h1.41c.11,0,.19.04.24.11.05.08.07.17.05.27l-.93,4.4c-.1.44-.13.8-.09,1.1.04.29.16.52.36.66.2.15.52.22.94.22.58,0,1.08-.18,1.5-.53.43-.35.7-.84.83-1.46l.94-4.4c.02-.11.08-.2.17-.27.09-.07.19-.11.3-.11h1.39c.12,0,.2.04.26.11.05.08.07.17.05.27l-1.6,7.55c-.02.11-.07.2-.16.27-.08.08-.19.11-.3.11h-1.3c-.11,0-.19-.04-.25-.11-.06-.07-.08-.17-.06-.27l.13-.66c-.23.25-.47.46-.72.64-.25.18-.53.32-.85.42-.32.1-.71.14-1.18.14Z" fill="#1c2126"/><path d="M195.57,618.41c-.11,0-.19-.04-.25-.11-.06-.07-.08-.17-.06-.27l1.6-7.54c.02-.12.08-.21.17-.29.09-.07.19-.11.3-.11h1.3c.11,0,.19.04.25.11.06.08.08.17.06.29l-.14.66c.26-.34.58-.6.98-.78.39-.18.87-.27,1.44-.27h.78c.12,0,.2.04.26.11.05.08.07.17.05.27l-.24,1.15c-.02.11-.08.2-.17.27-.09.07-.19.11-.3.11h-1.25c-.51,0-.94.14-1.29.42-.35.28-.57.68-.68,1.19l-.94,4.4c-.02.11-.08.2-.16.27-.09.08-.19.11-.3.11h-1.39Z" fill="#1c2126"/><path d="M205.46,618.57c-.71,0-1.34-.14-1.88-.43-.54-.29-.94-.71-1.19-1.26-.26-.55-.31-1.21-.18-1.99.03-.16.07-.37.13-.63.05-.26.1-.48.14-.65.29-1.16.82-2.07,1.6-2.71s1.77-.97,2.98-.97c.67,0,1.23.1,1.69.29.45.19.81.44,1.07.74.26.3.44.61.54.93.1.32.14.61.1.86,0,.12-.06.21-.14.28s-.17.1-.28.1h-1.46c-.11,0-.19-.03-.25-.08-.06-.05-.09-.13-.1-.24,0-.43-.11-.74-.34-.93-.23-.19-.56-.29-.98-.29-.52,0-.99.17-1.4.5-.41.34-.71.87-.89,1.59-.04.19-.09.39-.13.59-.04.2-.08.38-.11.53-.12.74-.06,1.27.16,1.6.22.33.6.5,1.12.5.42,0,.79-.09,1.12-.26.33-.18.61-.48.83-.9.06-.12.13-.2.2-.25.07-.05.16-.07.26-.07h1.44c.11,0,.19.04.25.1s.07.16.04.28c-.07.24-.21.51-.41.82s-.47.62-.81.92c-.34.3-.77.54-1.29.74s-1.13.29-1.85.29Z" fill="#1c2126"/><path d="M214.69,618.57c-.78,0-1.43-.16-1.95-.46-.52-.31-.87-.76-1.07-1.34-.2-.59-.23-1.3-.09-2.13.02-.11.05-.24.08-.41.03-.17.06-.3.1-.39.21-.81.54-1.51.99-2.09.45-.58.99-1.03,1.64-1.34s1.36-.47,2.14-.47c.86,0,1.55.18,2.06.54.51.36.84.85,1.01,1.49s.16,1.37,0,2.2l-.08.34c-.02.11-.08.2-.17.27-.09.08-.19.11-.31.11h-5.31c-.01.06-.02.11-.03.13-.05.37-.05.72.02,1.03.06.31.21.57.42.76.22.19.51.29.87.29.3,0,.56-.04.79-.14.22-.09.41-.19.55-.31.14-.12.25-.21.33-.29.13-.13.22-.21.29-.23.06-.03.15-.04.27-.04h1.39c.1,0,.17.03.22.1.05.06.07.14.05.24-.05.17-.19.38-.4.62s-.5.49-.86.72c-.36.24-.79.43-1.29.58s-1.04.23-1.64.23ZM214,613.53h3.54l.02-.05c.1-.42.1-.78.02-1.1-.08-.31-.23-.56-.46-.74-.22-.18-.52-.26-.9-.26s-.71.09-1.02.26c-.3.18-.56.42-.76.74-.2.32-.35.68-.43,1.1l-.02.05Z" fill="#1c2126"/><path d="M227.19,618.57c-.64,0-1.17-.08-1.59-.22-.42-.15-.75-.34-.99-.56-.24-.22-.41-.45-.5-.67s-.13-.41-.1-.56c.02-.12.08-.21.17-.28.09-.07.18-.1.28-.1h1.26s.08,0,.11.02c.03.01.06.04.1.1.12.12.24.24.37.37.13.13.29.24.49.33s.46.14.78.14c.42,0,.78-.08,1.1-.25s.5-.4.57-.71c.04-.22.02-.41-.08-.54s-.29-.26-.59-.38c-.3-.11-.74-.23-1.33-.36-.58-.14-1.04-.31-1.38-.53-.35-.21-.58-.48-.7-.8-.12-.32-.14-.69-.04-1.12.09-.42.29-.81.62-1.19.33-.38.77-.69,1.32-.94.55-.25,1.19-.37,1.93-.37.58,0,1.06.07,1.46.22.4.14.72.32.96.54.24.21.41.43.5.65s.13.41.1.57c-.01.12-.06.21-.15.28-.09.07-.18.1-.28.1h-1.17c-.05,0-.1-.01-.14-.03s-.07-.05-.1-.08c-.11-.11-.22-.22-.33-.34-.11-.12-.26-.23-.43-.31-.18-.08-.42-.13-.74-.13-.41,0-.73.09-.98.26s-.41.4-.47.66c-.03.18-.01.34.06.47.07.13.25.26.54.38s.73.24,1.31.37c.69.13,1.22.32,1.59.57.37.25.61.54.72.86.11.33.12.69.04,1.08-.1.48-.33.91-.7,1.3-.37.38-.85.69-1.45.9-.6.22-1.3.33-2.11.33Z" fill="#1c2126"/><path d="M236.1,618.57c-.81,0-1.49-.15-2.02-.45-.54-.3-.92-.72-1.15-1.26s-.29-1.18-.17-1.9c.03-.19.08-.43.14-.7s.12-.51.17-.7c.19-.74.49-1.37.89-1.91.4-.54.91-.96,1.54-1.26.62-.3,1.36-.45,2.22-.45s1.48.15,2.02.45c.54.3.93.72,1.16,1.26.23.54.29,1.18.18,1.91-.04.19-.09.43-.14.7-.05.28-.11.51-.16.7-.19.73-.48,1.36-.87,1.9-.39.54-.9.96-1.52,1.26-.62.3-1.38.45-2.26.45ZM236.26,616.98c.58,0,1.06-.18,1.46-.54s.69-.88.87-1.58c.04-.16.09-.37.14-.62.05-.26.1-.46.13-.62.12-.69.07-1.22-.14-1.58-.21-.36-.61-.54-1.18-.54s-1.05.18-1.46.54c-.4.36-.69.88-.86,1.58-.04.16-.09.37-.15.62s-.1.46-.12.62c-.12.69-.07,1.22.13,1.58.21.36.6.54,1.18.54Z" fill="#1c2126"/><path d="M242.96,618.41c-.12,0-.21-.04-.26-.11-.06-.07-.08-.17-.06-.27l1.33-6.24h-1.3c-.11,0-.19-.04-.25-.11-.06-.07-.08-.17-.06-.29l.19-.91c.02-.11.08-.2.17-.27.09-.07.19-.11.31-.11h1.29l.13-.66c.15-.64.38-1.17.69-1.59.31-.42.7-.74,1.18-.95.48-.21,1.04-.32,1.68-.32h1.28c.12,0,.2.04.26.11.05.07.07.17.05.27l-.19.91c-.02.12-.08.21-.17.29s-.19.11-.3.11h-.96c-.43,0-.76.11-.99.32-.23.21-.39.52-.46.93l-.13.58h1.98c.12,0,.2.04.26.11.05.08.07.17.05.27l-.19.91c-.02.12-.07.21-.16.29-.08.08-.19.11-.3.11h-1.98l-1.34,6.24c-.02.11-.08.2-.16.27-.09.08-.18.11-.29.11h-1.29Z" fill="#1c2126"/><path d="M252.11,618.41c-.73,0-1.29-.11-1.7-.34-.4-.22-.67-.56-.78-1s-.11-.99.03-1.66l.79-3.63h-1.26c-.11,0-.19-.04-.25-.11-.06-.07-.08-.17-.06-.29l.19-.91c.02-.11.08-.2.17-.27.09-.07.2-.11.31-.11h1.25l.58-2.66c.02-.11.07-.2.16-.27.08-.07.18-.11.29-.11h1.3c.12,0,.21.04.26.11.06.08.08.17.06.27l-.58,2.66h2c.11,0,.19.04.25.11.06.08.08.17.06.27l-.19.91c-.02.12-.08.21-.17.29-.09.08-.19.11-.3.11h-2l-.74,3.47c-.06.29-.1.54-.1.74,0,.21.05.37.17.48.12.11.33.17.62.17h1.15c.12,0,.2.04.26.11.05.08.07.17.05.27l-.21.99c-.02.11-.08.2-.16.27-.09.08-.19.11-.3.11h-1.14Z" fill="#1c2126"/><path d="M257.27,618.41c-.15,0-.26-.04-.32-.11-.06-.07-.1-.17-.11-.29l-.72-7.49c-.01-.12.02-.22.1-.3.08-.08.18-.13.32-.13h1.12c.13,0,.22.03.28.09.06.06.09.13.1.22l.46,5.3,2.75-5.25c.04-.08.11-.15.19-.23.09-.08.2-.12.34-.12h.83c.15,0,.25.04.3.12.05.08.09.16.1.23l.58,5.25,2.69-5.3c.03-.06.09-.13.16-.2s.18-.1.3-.1h1.3c.15,0,.24.05.26.14.03.1.01.2-.04.32l-3.86,7.46c-.06.12-.14.21-.23.29-.09.08-.21.11-.36.11h-1.06c-.15,0-.26-.04-.33-.11-.07-.07-.12-.17-.14-.29l-.66-5.06-2.72,5.06c-.06.12-.14.21-.24.29-.1.08-.22.11-.37.11h-1.04Z" fill="#1c2126"/><path d="M271.09,618.57c-.55,0-1.02-.09-1.41-.28s-.69-.45-.9-.79c-.22-.34-.36-.74-.42-1.21-.06-.46-.05-.97.03-1.53.04-.19.08-.37.11-.52.03-.15.07-.33.11-.52.14-.53.32-1.03.55-1.49.23-.46.51-.86.85-1.21s.73-.62,1.18-.81c.45-.19.97-.29,1.56-.29.66,0,1.17.1,1.51.31s.62.46.81.76l.11-.53c.02-.11.08-.2.16-.27.08-.07.18-.11.29-.11h1.26c.11,0,.19.04.26.11.06.08.09.17.06.27l-1.62,7.55c-.02.11-.08.2-.16.27-.09.08-.18.11-.29.11h-1.26c-.12,0-.21-.04-.26-.11-.06-.07-.08-.17-.06-.27l.13-.59c-.32.33-.67.6-1.06.82-.38.21-.9.32-1.55.32ZM271.81,616.85c.45,0,.83-.1,1.15-.3.32-.2.58-.46.78-.78s.34-.64.42-.97c.05-.19.1-.4.14-.62s.08-.42.11-.62c.06-.32.07-.63.02-.92s-.19-.54-.41-.73c-.22-.19-.55-.29-.98-.29s-.77.1-1.06.3-.54.46-.73.78c-.19.32-.35.67-.46,1.06-.04.16-.08.32-.11.48s-.06.32-.08.48c-.05.38-.07.74-.04,1.06.03.32.14.58.34.78s.5.3.92.3Z" fill="#1c2126"/><path d="M278.05,618.41c-.11,0-.19-.04-.25-.11-.06-.07-.08-.17-.06-.27l1.6-7.54c.02-.12.08-.21.17-.29.09-.07.19-.11.3-.11h1.29c.11,0,.19.04.25.11.06.08.08.17.06.29l-.14.66c.26-.34.58-.6.98-.78s.88-.27,1.44-.27h.78c.12,0,.2.04.26.11.05.08.07.17.05.27l-.24,1.15c-.02.11-.08.2-.17.27-.09.07-.19.11-.29.11h-1.25c-.51,0-.94.14-1.29.42-.35.28-.57.68-.68,1.19l-.94,4.4c-.02.11-.07.2-.16.27-.09.08-.19.11-.3.11h-1.39Z" fill="#1c2126"/><path d="M288.05,618.57c-.78,0-1.43-.16-1.95-.46-.52-.31-.87-.76-1.07-1.34-.2-.59-.23-1.3-.09-2.13.02-.11.05-.24.08-.41.03-.17.06-.3.1-.39.21-.81.54-1.51.99-2.09.45-.58.99-1.03,1.64-1.34s1.36-.47,2.14-.47c.86,0,1.55.18,2.06.54.51.36.84.85,1.01,1.49s.16,1.37,0,2.2l-.08.34c-.02.11-.08.2-.17.27-.09.08-.19.11-.31.11h-5.31c-.01.06-.02.11-.03.13-.05.37-.05.72.02,1.03.06.31.21.57.42.76.22.19.51.29.87.29.3,0,.56-.04.79-.14.22-.09.41-.19.55-.31.14-.12.25-.21.33-.29.13-.13.22-.21.29-.23.06-.03.15-.04.27-.04h1.39c.1,0,.17.03.22.1.05.06.07.14.05.24-.05.17-.19.38-.4.62s-.5.49-.86.72c-.36.24-.79.43-1.29.58s-1.04.23-1.64.23ZM287.36,613.53h3.54l.02-.05c.1-.42.1-.78.02-1.1-.08-.31-.23-.56-.46-.74-.22-.18-.52-.26-.9-.26s-.71.09-1.02.26c-.3.18-.56.42-.76.74-.2.32-.35.68-.43,1.1l-.02.05Z" fill="#1c2126"/><path d="M1113.68,618.57c-.89,0-1.63-.15-2.22-.44-.6-.29-1.05-.71-1.37-1.26-.32-.54-.49-1.18-.52-1.9-.01-.21-.02-.46-.02-.73s0-.51.02-.71c.03-.74.21-1.37.54-1.91.33-.54.79-.95,1.39-1.25.6-.29,1.32-.44,2.18-.44s1.56.15,2.16.44c.6.29,1.06.71,1.39,1.25.33.54.52,1.18.56,1.91,0,.2.02.44.02.71s0,.51-.02.73c-.04.73-.22,1.36-.54,1.9-.32.54-.77.96-1.37,1.26-.6.29-1.33.44-2.21.44ZM1113.68,616.79c.52,0,.91-.16,1.18-.48.26-.32.41-.79.44-1.42,0-.16.02-.37.02-.64s0-.48-.02-.64c-.03-.62-.18-1.09-.44-1.42s-.65-.49-1.18-.49-.92.16-1.18.49-.42.8-.45,1.42c-.01.16-.02.37-.02.64s0,.48.02.64c.03.63.18,1.1.45,1.42.27.32.66.48,1.18.48Z" fill="#1c2126"/><path d="M1122.77,618.57c-.66,0-1.23-.08-1.7-.23s-.86-.34-1.15-.57c-.29-.22-.51-.45-.66-.68-.14-.23-.22-.42-.23-.58-.01-.12.03-.21.11-.29.09-.07.17-.11.26-.11h1.55s.08,0,.1.02c.03.01.06.04.1.08.14.1.28.21.42.33.14.12.32.23.52.31.2.09.45.13.74.13.35,0,.65-.07.89-.22.24-.14.36-.35.36-.62,0-.19-.05-.35-.16-.48s-.31-.25-.62-.35c-.31-.11-.77-.22-1.38-.35-.58-.13-1.07-.3-1.47-.51-.41-.21-.71-.48-.91-.81-.2-.33-.3-.72-.3-1.18,0-.42.13-.82.39-1.2.26-.38.65-.7,1.16-.95.51-.25,1.15-.38,1.92-.38.59,0,1.1.07,1.54.22.44.14.81.33,1.11.54s.53.44.68.67.24.43.25.6c.01.12-.02.21-.1.29s-.16.11-.26.11h-1.42c-.05,0-.1-.01-.14-.03s-.08-.05-.11-.08c-.13-.07-.26-.17-.39-.29-.13-.12-.29-.22-.47-.3-.18-.08-.42-.13-.7-.13-.34,0-.61.08-.79.23-.19.16-.28.35-.28.58,0,.15.05.29.14.42.1.13.29.25.58.35.29.11.75.22,1.37.34.73.13,1.3.32,1.73.58s.73.55.91.89c.18.34.27.7.27,1.08,0,.5-.15.95-.44,1.34-.29.39-.73.69-1.3.91-.58.22-1.28.33-2.11.33Z" fill="#1c2126"/><path d="M1131.46,618.57c-.66,0-1.23-.08-1.7-.23s-.86-.34-1.15-.57c-.29-.22-.51-.45-.66-.68-.14-.23-.22-.42-.23-.58-.01-.12.03-.21.11-.29.09-.07.17-.11.26-.11h1.55s.08,0,.1.02c.03.01.06.04.1.08.14.1.28.21.42.33.14.12.32.23.52.31.2.09.45.13.74.13.35,0,.65-.07.89-.22.24-.14.36-.35.36-.62,0-.19-.05-.35-.16-.48s-.31-.25-.62-.35c-.31-.11-.77-.22-1.38-.35-.58-.13-1.07-.3-1.47-.51-.41-.21-.71-.48-.91-.81-.2-.33-.3-.72-.3-1.18,0-.42.13-.82.39-1.2.26-.38.65-.7,1.16-.95.51-.25,1.15-.38,1.92-.38.59,0,1.1.07,1.54.22.44.14.81.33,1.11.54s.53.44.68.67.24.43.25.6c.01.12-.02.21-.1.29s-.16.11-.26.11h-1.42c-.05,0-.1-.01-.14-.03s-.08-.05-.11-.08c-.13-.07-.26-.17-.39-.29-.13-.12-.29-.22-.47-.3-.18-.08-.42-.13-.7-.13-.34,0-.61.08-.79.23-.19.16-.28.35-.28.58,0,.15.05.29.14.42.1.13.29.25.58.35.29.11.75.22,1.37.34.73.13,1.3.32,1.73.58s.73.55.91.89c.18.34.27.7.27,1.08,0,.5-.15.95-.44,1.34-.29.39-.73.69-1.3.91-.58.22-1.28.33-2.11.33Z" fill="#1c2126"/><path d="M1137.17,618.41c-.12,0-.21-.04-.29-.11s-.11-.17-.11-.29v-1.81c0-.11.04-.2.11-.28.08-.08.17-.12.29-.12h1.81c.11,0,.2.04.28.12s.12.17.12.28v1.81c0,.12-.04.21-.12.29-.08.08-.17.11-.28.11h-1.81Z" fill="#1c2126"/><path d="M1144.9,618.57c-.79,0-1.48-.14-2.07-.43-.59-.29-1.06-.71-1.4-1.26-.34-.55-.53-1.21-.56-1.98-.01-.17-.02-.39-.02-.65s0-.48.02-.65c.03-.78.22-1.44.55-1.99.34-.55.8-.97,1.4-1.26s1.29-.43,2.08-.43c.7,0,1.31.1,1.81.3.5.2.91.45,1.23.75.32.3.56.62.72.94s.25.6.26.85c.01.12-.03.21-.11.29-.09.08-.18.11-.29.11h-1.71c-.12,0-.21-.03-.26-.08-.06-.05-.11-.14-.17-.26-.14-.37-.33-.64-.56-.8s-.53-.24-.88-.24c-.48,0-.86.15-1.13.46-.27.31-.42.79-.44,1.44-.02.42-.02.79,0,1.14.02.66.17,1.14.44,1.44.27.3.65.45,1.13.45.37,0,.67-.08.9-.24.22-.16.41-.43.54-.8.05-.12.11-.2.17-.26.06-.05.15-.08.26-.08h1.71c.11,0,.2.04.29.11.08.08.12.17.11.29-.01.18-.06.39-.16.64-.1.25-.24.5-.44.75s-.45.49-.76.71c-.31.22-.69.4-1.13.53-.44.13-.95.2-1.53.2Z" fill="#1c2126"/><path d="M1152.92,618.57c-.57,0-1.07-.11-1.52-.33s-.81-.51-1.07-.89c-.27-.37-.4-.79-.4-1.25,0-.76.31-1.35.92-1.79s1.42-.74,2.42-.9l2.1-.3v-.29c0-.42-.1-.74-.29-.96-.19-.22-.53-.34-1.01-.34-.35,0-.63.07-.84.21s-.37.32-.49.54c-.08.14-.21.21-.38.21h-1.52c-.12,0-.21-.03-.27-.1-.06-.07-.09-.15-.08-.25,0-.18.07-.39.21-.64.14-.25.35-.49.64-.73.29-.24.66-.44,1.11-.6s1-.24,1.64-.24,1.25.08,1.73.24c.48.16.87.38,1.16.67.29.29.51.62.64,1,.13.38.2.79.2,1.22v4.94c0,.12-.04.21-.11.29s-.17.11-.27.11h-1.58c-.11,0-.2-.04-.27-.11s-.11-.17-.11-.29v-.59c-.14.2-.33.39-.56.57s-.51.32-.84.42-.71.16-1.14.16ZM1153.56,616.9c.35,0,.67-.07.94-.22s.5-.38.66-.69c.16-.31.24-.7.24-1.17v-.27l-1.49.24c-.57.1-.98.24-1.25.43-.27.19-.4.43-.4.7,0,.2.06.38.18.52.12.14.28.26.48.34s.41.12.63.12Z" fill="#1c2126"/><path d="M1160.13,618.41c-.11,0-.2-.04-.28-.11-.08-.07-.12-.17-.12-.29v-7.52c0-.11.04-.2.12-.28.08-.08.17-.12.28-.12h1.57c.12,0,.21.04.29.12.07.08.11.17.11.28v.64c.27-.33.6-.59.99-.77s.84-.27,1.34-.27h.69c.12,0,.21.04.29.11.07.08.11.17.11.29v1.39c0,.11-.04.2-.11.27-.08.07-.17.11-.29.11h-1.39c-.48,0-.85.13-1.11.4-.26.27-.39.63-.39,1.1v4.24c0,.12-.04.21-.12.29-.08.08-.17.11-.28.11h-1.7Z" fill="#1c2126"/><path d="M1169.72,618.57c-.53,0-1.01-.09-1.42-.26-.42-.18-.77-.43-1.06-.77-.29-.34-.51-.74-.66-1.2s-.24-.98-.27-1.54c-.01-.2-.02-.39-.02-.55s0-.34.02-.54c.02-.55.11-1.06.26-1.52.15-.46.37-.86.66-1.19.28-.34.63-.6,1.06-.78.42-.19.9-.28,1.43-.28s1.03.09,1.42.28.72.42.98.71v-3.47c0-.12.04-.21.11-.29.08-.07.17-.11.29-.11h1.65c.12,0,.21.04.29.11.07.08.11.17.11.29v10.56c0,.12-.04.21-.11.29s-.17.11-.29.11h-1.54c-.11,0-.2-.04-.27-.11s-.11-.17-.11-.29v-.54c-.27.32-.6.58-1.01.79-.41.21-.91.31-1.52.31ZM1170.45,616.65c.39,0,.71-.09.95-.27.24-.18.42-.41.53-.69.11-.28.17-.58.18-.9.02-.2.03-.41.03-.61s-.01-.4-.03-.59c-.01-.3-.08-.58-.2-.84-.12-.26-.3-.48-.54-.65s-.54-.26-.93-.26c-.41,0-.73.09-.96.26-.24.18-.4.41-.5.7-.1.29-.16.6-.18.94-.02.33-.02.66,0,.99.02.34.08.66.18.94.1.29.27.52.5.7.23.18.55.26.96.26Z" fill="#1c2126"/><path d="M1179.86,618.57c-.66,0-1.23-.08-1.7-.23s-.86-.34-1.15-.57c-.29-.22-.51-.45-.66-.68-.14-.23-.22-.42-.23-.58-.01-.12.03-.21.11-.29.08-.07.17-.11.26-.11h1.55s.08,0,.1.02c.03.01.06.04.1.08.14.1.28.21.42.33.14.12.32.23.52.31.2.09.45.13.74.13.35,0,.65-.07.89-.22.24-.14.36-.35.36-.62,0-.19-.05-.35-.16-.48-.11-.13-.31-.25-.62-.35-.31-.11-.77-.22-1.38-.35-.58-.13-1.07-.3-1.47-.51-.41-.21-.71-.48-.91-.81-.2-.33-.3-.72-.3-1.18,0-.42.13-.82.39-1.2.26-.38.65-.7,1.16-.95.51-.25,1.15-.38,1.92-.38.59,0,1.1.07,1.54.22.44.14.81.33,1.11.54s.53.44.68.67c.15.23.24.43.25.6,0,.12-.02.21-.1.29-.07.08-.16.11-.26.11h-1.42c-.05,0-.1-.01-.14-.03-.04-.02-.08-.05-.11-.08-.13-.07-.26-.17-.39-.29-.13-.12-.29-.22-.47-.3-.18-.08-.42-.13-.7-.13-.34,0-.61.08-.79.23-.19.16-.28.35-.28.58,0,.15.05.29.14.42.1.13.29.25.58.35.29.11.75.22,1.37.34.72.13,1.3.32,1.73.58s.73.55.91.89.27.7.27,1.08c0,.5-.15.95-.44,1.34s-.73.69-1.3.91-1.28.33-2.11.33Z" fill="#1c2126"/><polygon points="1093.31 614.96 1087.74 611.74 1082.16 614.96 1093.31 621.39 1104.46 614.96 1098.89 611.74 1093.31 614.96" fill="#b7303d" stroke="#1c2126" stroke-linejoin="round" stroke-width=".33"/><polygon points="1087.74 605.3 1087.74 611.74 1082.16 614.96 1082.16 608.52 1087.74 605.3" fill="#ea4f4b" stroke="#1c2126" stroke-linejoin="round" stroke-width=".33"/><polygon points="1087.74 605.3 1087.74 611.74 1093.31 614.96 1093.31 608.52 1087.74 605.3" fill="#ff6b60" stroke="#1c2126" stroke-linejoin="round" stroke-width=".33"/><polygon points="1098.89 605.3 1098.89 611.74 1093.31 614.96 1093.31 608.52 1098.89 605.3" fill="#ea4f4b" stroke="#1c2126" stroke-linejoin="round" stroke-width=".33"/><polygon points="1098.89 605.3 1098.89 611.74 1104.46 614.96 1104.46 608.52 1098.89 605.3" fill="#ff6b60" stroke="#1c2126" stroke-linejoin="round" stroke-width=".33"/></g></svg>