<svg xmlns="http://www.w3.org/2000/svg" xmlns:xlink="http://www.w3.org/1999/xlink" width="1200" height="630" viewBox="0 0 1200 630"><defs><clipPath id="a"><rect y="35.47" width="1200" height="498.72" fill="none"/></clipPath><clipPath id="b"><rect x="1220" width="1200" height="498.72" fill="none"/></clipPath><radialGradient id="c" cx="1104.02" cy="581.87" r="98.4" gradientUnits="userSpaceOnUse"><stop offset="0" stop-color="#20c6b7"/><stop offset="1" stop-color="#4d9abf"/></radialGradient></defs><rect x="-1290.07" y="-89.85" width="6221.73" height="2273.11" fill="#a6a6a6"/><rect y="35.47" width="1200" height="498.72" fill="#ffb916"/><path d="M109,165.28V189H93.82V165.46L69.67,120.33H86.13l15.56,28.76,15.47-28.76h16Z" fill="#1c2126"/><path d="M177.67,163.75c0,15.1-9.68,26.5-26.59,26.5s-26.69-11.4-26.69-26.5,9.68-26.51,26.69-26.51S177.67,148.64,177.67,163.75Zm-38.53,0c0,8.32,4.61,13.65,11.94,13.65s11.85-5.33,11.85-13.65-4.52-13.66-11.85-13.66S139.14,155.42,139.14,163.75Z" fill="#1c2126"/><path d="M230.58,138.42V189H216.47v-5.42c-2.8,4-7.68,6.69-13.84,6.69-11.12,0-18.36-8.32-18.36-23.25V138.42h14.11v26c0,7.69,3.53,12,9,12s9.13-4.61,9.13-11.94V138.42Z" fill="#1c2126"/><path d="M252.83,127.38c0,7.33-3.7,12.76-12.21,15.47l-1.9.63-2.17-6.69,1.9-.54c4-1.18,6.06-2.9,6.88-5.52a10.2,10.2,0,0,1-1.72.18c-4.71,0-7.69-3.35-7.69-7.24,0-4.34,3.16-7.5,8-7.5C249.49,116.17,252.83,120.6,252.83,127.38Z" fill="#1c2126"/><path d="M289.29,137.24v14.84h-5.7c-8.32,0-12.12,4-12.12,12.57V189H257.36V138.42h14.11v6.87C274.63,140.32,280.51,137.24,289.29,137.24Z" fill="#1c2126"/><path d="M344.37,167.91H307c.73,6.06,4.8,10.22,11.49,10.22,5,0,8.32-1.63,9.86-4.52h15c-2.9,9.49-12.13,16.28-25.06,16.28-15.83,0-26.23-10.41-26.23-26.14s10.22-26.24,26.14-26.24,26.14,10.32,26.14,26.05Zm-37.18-9.68h22.26c-1-5.7-5.43-9-11.22-9A11.1,11.1,0,0,0,307.19,158.23Z" fill="#1c2126"/><path d="M462.14,160.4V189H448V162.84c0-8.32-3.35-12.66-8.69-12.66-5.15,0-8.68,4.7-8.68,12.57V189H416.55V162.84c0-8.32-3.35-12.66-8.69-12.66-5.15,0-8.68,4.7-8.68,12.57V189H385.07V138.42h14.11v5.52a15.18,15.18,0,0,1,13.12-6.7c6.51,0,11.66,2.72,14.92,8a17.79,17.79,0,0,1,15.29-8C454.36,137.24,462.14,146.11,462.14,160.4Z" fill="#1c2126"/><path d="M518.84,138.42l-28,67.21H477.15l7.77-18.55-19.71-48.66h14.2l12.66,31.48,13.12-31.48Z" fill="#1c2126"/><path d="M94.18,240.81V247h10.59V258.9H94.18v38.62H80.07V258.9H71.93V247h8.14V240.9c0-9.86,5.88-16,16.28-16h9.86v10.94h-7C95.81,235.83,94.18,237.55,94.18,240.81Z" fill="#1c2126"/><path d="M155.69,268.67v28.85H141.58V292c-3.53,4.07-9,6.43-16.46,6.43-10.59,0-17.19-5.34-17.19-14.11,0-8,5.25-14,18.45-16.29l15.2-2.53c0-4.88-3.08-7.69-8.77-7.69-5.52,0-8.14,2.35-8.51,6.24H110c.27-9.31,7.87-18,22.8-18C147.37,246.05,155.69,254.19,155.69,268.67Zm-14.11,7.59v-.72L130,277.44c-6.06,1-7.6,3.08-7.6,5.7,0,2.26,2.18,3.89,6.25,3.89C136.42,287,141.58,282.69,141.58,276.26Z" fill="#1c2126"/><path d="M213.13,247l-18.46,50.56h-17L159.13,247h14.92l12.21,35.73L198.47,247Z" fill="#1c2126"/><path d="M267.67,272.28c0,15.11-9.68,26.51-26.6,26.51s-26.68-11.4-26.68-26.51,9.68-26.5,26.68-26.5S267.67,257.18,267.67,272.28Zm-38.54,0c0,8.33,4.62,13.66,11.94,13.66s11.85-5.33,11.85-13.66-4.52-13.65-11.85-13.65S229.13,264,229.13,272.28Z" fill="#1c2126"/><path d="M307.37,245.78v14.84h-5.7c-8.32,0-12.12,4-12.12,12.57v24.33H275.44V247h14.11v6.87C292.72,248.86,298.6,245.78,307.37,245.78Z" fill="#1c2126"/><path d="M330.17,232.67a8.46,8.46,0,1,1-16.92,0c0-4.71,3.17-8.51,8.41-8.51A8.17,8.17,0,0,1,330.17,232.67Zm-1.36,13.11v51.74H314.7V245.78a11.46,11.46,0,0,0,7.05,2.08A11.28,11.28,0,0,0,328.81,245.78Z" fill="#1c2126"/><path d="M372,258.9H361v38.62H346.9V258.9h-9.5V247h9.5V231H361V247H372Z" fill="#1c2126"/><path d="M426.86,276.45H389.5c.72,6.06,4.79,10.22,11.49,10.22,5,0,8.32-1.63,9.86-4.53h15c-2.89,9.5-12.12,16.29-25.05,16.29-15.83,0-26.23-10.41-26.23-26.15s10.22-26.23,26.14-26.23,26.14,10.31,26.14,26.05Zm-37.18-9.68h22.25c-1-5.7-5.43-9-11.21-9A11.1,11.1,0,0,0,389.68,266.77Z" fill="#1c2126"/><path d="M124.31,334.15v71.91H110.19v-6c-3.34,4.52-8.59,7.24-15.64,7.24-13.12,0-22.35-9.41-22.35-26.51s9.23-26.5,22.35-26.5c7,0,12.3,2.71,15.64,7.15V334.15Zm-14.12,46.31c0-8.95-4.7-14-11.57-14S87,371.6,87,380.46s4.88,14,11.67,14S110.19,389.42,110.19,380.46Z" fill="#1c2126"/><path d="M183.73,385H146.37c.73,6.06,4.8,10.23,11.49,10.23,5,0,8.32-1.63,9.86-4.53h15c-2.9,9.5-12.13,16.28-25.06,16.28-15.83,0-26.23-10.4-26.23-26.14s10.22-26.23,26.14-26.23,26.14,10.31,26.14,26.05Zm-37.18-9.67h22.26c-1-5.7-5.43-9-11.22-9A11.1,11.1,0,0,0,146.55,375.31Z" fill="#1c2126"/><path d="M245.24,380.82c0,17.1-9.23,26.51-22.35,26.51-7,0-12.3-2.72-15.64-7.24v23.16H193.13V355.5h14.12v6c3.34-4.44,8.59-7.15,15.64-7.15C236,354.32,245.24,363.64,245.24,380.82Zm-14.75.27c0-8.77-4.88-14-11.67-14s-11.57,5.15-11.57,14c0,9.05,4.7,14.12,11.57,14.12S230.49,390,230.49,381.09Z" fill="#1c2126"/><path d="M302.67,385H265.31c.73,6.06,4.8,10.23,11.49,10.23,5,0,8.32-1.63,9.86-4.53h15c-2.9,9.5-12.12,16.28-25.06,16.28-15.83,0-26.23-10.4-26.23-26.14s10.22-26.23,26.14-26.23,26.14,10.31,26.14,26.05Zm-37.17-9.67h22.25c-1-5.7-5.43-9-11.22-9A11.08,11.08,0,0,0,265.5,375.31Z" fill="#1c2126"/><path d="M357.66,377.48v28.58H343.55V380.19c0-7.78-3.71-12.12-9.4-12.12s-9.77,4.7-9.77,12v26H310.26V355.5h14.12v5.7c2.8-4.08,8-6.88,14.38-6.88C350.25,354.32,357.66,362.55,357.66,377.48Z" fill="#1c2126"/><path d="M416.37,334.15v71.91H402.25v-6c-3.34,4.52-8.59,7.24-15.64,7.24-13.12,0-22.35-9.41-22.35-26.51s9.23-26.5,22.35-26.5c7.05,0,12.3,2.71,15.64,7.15V334.15Zm-14.12,46.31c0-8.95-4.7-14-11.57-14S379,371.6,379,380.46s4.88,14,11.67,14S402.25,389.42,402.25,380.46Z" fill="#1c2126"/><path d="M475.79,385H438.43c.73,6.06,4.8,10.23,11.49,10.23,5,0,8.32-1.63,9.86-4.53h15c-2.89,9.5-12.12,16.28-25.05,16.28-15.83,0-26.23-10.4-26.23-26.14s10.22-26.23,26.14-26.23,26.14,10.31,26.14,26.05Zm-37.18-9.67h22.26c-1-5.7-5.43-9-11.22-9A11.1,11.1,0,0,0,438.61,375.31Z" fill="#1c2126"/><path d="M530.78,377.48v28.58H516.67V380.19c0-7.78-3.71-12.12-9.41-12.12s-9.76,4.7-9.76,12v26H483.38V355.5H497.5v5.7c2.8-4.08,8-6.88,14.38-6.88C523.37,354.32,530.78,362.55,530.78,377.48Z" fill="#1c2126"/><path d="M588.4,375.49H573.56a9.73,9.73,0,0,0-10.13-9c-6.69,0-11.3,5.16-11.3,14.29,0,9,4.61,14.21,11.3,14.21a9.72,9.72,0,0,0,10.13-8.87H588.4c-.36,11.76-10.4,21.17-25,21.17-16.28,0-26-10.59-26-26.51s9.77-26.5,26-26.5C578,354.32,588,363.64,588.4,375.49Z" fill="#1c2126"/><path d="M644,355.5l-28,67.2H602.33l7.77-18.54L590.39,355.5h14.2L617.25,387l13.12-31.47Z" fill="#1c2126"/><g clip-path="url(#a)"><polygon points="969.79 211.59 1003.32 192.23 1036.85 211.59 1003.32 230.94 969.79 211.59" fill="#ffdd73" stroke="#1c2126" stroke-linejoin="round" stroke-width="2"/><polygon points="969.79 211.59 969.79 250.3 1003.32 269.66 1003.32 230.94 969.79 211.59" fill="#ffb916" stroke="#1c2126" stroke-linejoin="round" stroke-width="2"/><polygon points="1036.85 211.59 1036.85 250.3 1003.32 269.66 1003.32 230.94 1036.85 211.59" fill="#b7790b" stroke="#1c2126" stroke-linejoin="round" stroke-width="2"/><polygon points="1103.9 211.59 1137.43 192.23 1170.96 211.59 1137.43 230.94 1103.9 211.59" fill="#ffdd73" stroke="#1c2126" stroke-linejoin="round" stroke-width="2"/><polygon points="1103.9 211.59 1103.9 250.3 1137.43 269.66 1137.43 230.94 1103.9 211.59" fill="#ffb916" stroke="#1c2126" stroke-linejoin="round" stroke-width="2"/><polygon points="1170.96 211.59 1170.95 250.3 1137.43 269.66 1137.43 230.94 1170.96 211.59" fill="#b7790b" stroke="#1c2126" stroke-linejoin="round" stroke-width="2"/><polygon points="1170.96 211.59 1204.48 192.23 1238.01 211.59 1204.48 230.94 1170.96 211.59" fill="#ffdd73" stroke="#1c2126" stroke-linejoin="round" stroke-width="2"/><polygon points="1170.96 211.59 1170.96 250.3 1204.48 269.66 1204.48 230.94 1170.96 211.59" fill="#ffb916" stroke="#1c2126" stroke-linejoin="round" stroke-width="2"/><polygon points="1137.43 269.54 1170.96 250.18 1204.48 269.54 1170.96 288.89 1137.43 269.54" fill="#ffdd73" stroke="#1c2126" stroke-linejoin="round" stroke-width="2"/><polygon points="1137.43 269.54 1137.43 308.25 1170.96 327.61 1170.96 288.89 1137.43 269.54" fill="#ffb916" stroke="#1c2126" stroke-linejoin="round" stroke-width="2"/><polygon points="1204.48 269.54 1204.48 308.25 1170.96 327.61 1170.96 288.89 1204.48 269.54" fill="#b7790b" stroke="#1c2126" stroke-linejoin="round" stroke-width="2"/><polygon points="1070.38 269.54 1103.9 250.18 1137.43 269.54 1103.9 288.89 1070.38 269.54" fill="#ffdd73" stroke="#1c2126" stroke-linejoin="round" stroke-width="2"/><polygon points="1070.38 269.54 1070.38 308.25 1103.9 327.61 1103.9 288.89 1070.38 269.54" fill="#ffb916" stroke="#1c2126" stroke-linejoin="round" stroke-width="2"/><polygon points="1137.43 269.54 1137.43 308.25 1103.9 327.61 1103.9 288.89 1137.43 269.54" fill="#b7790b" stroke="#1c2126" stroke-linejoin="round" stroke-width="2"/><polygon points="1103.9 95.56 1137.43 76.21 1170.96 95.56 1137.43 114.92 1103.9 95.56" fill="#ffdd73" stroke="#1c2126" stroke-linejoin="round" stroke-width="2"/><polygon points="1103.9 95.56 1103.9 134.28 1137.43 153.63 1137.43 114.92 1103.9 95.56" fill="#ffb916" stroke="#1c2126" stroke-linejoin="round" stroke-width="2"/><polygon points="1170.96 95.56 1170.95 134.28 1137.43 153.63 1137.43 114.92 1170.96 95.56" fill="#b7790b" stroke="#1c2126" stroke-linejoin="round" stroke-width="2"/><polygon points="1170.96 95.56 1204.48 76.21 1238.01 95.56 1204.48 114.92 1170.96 95.56" fill="#ffdd73" stroke="#1c2126" stroke-linejoin="round" stroke-width="2"/><polygon points="1170.96 95.56 1170.96 134.28 1204.48 153.63 1204.48 114.92 1170.96 95.56" fill="#ffb916" stroke="#1c2126" stroke-linejoin="round" stroke-width="2"/><polygon points="1137.43 153.52 1170.96 134.16 1204.48 153.52 1170.96 172.87 1137.43 153.52" fill="#ffdd73" stroke="#1c2126" stroke-linejoin="round" stroke-width="2"/><polygon points="1137.43 153.52 1137.43 192.23 1170.96 211.59 1170.96 172.87 1137.43 153.52" fill="#ffb916" stroke="#1c2126" stroke-linejoin="round" stroke-width="2"/><polygon points="1204.48 153.52 1204.48 192.23 1170.96 211.59 1170.96 172.87 1204.48 153.52" fill="#b7790b" stroke="#1c2126" stroke-linejoin="round" stroke-width="2"/><polygon points="1070.38 153.52 1103.9 134.16 1137.43 153.52 1103.9 172.87 1070.38 153.52" fill="#ffdd73" stroke="#1c2126" stroke-linejoin="round" stroke-width="2"/><polygon points="1070.38 153.52 1070.38 192.23 1103.9 211.59 1103.9 172.87 1070.38 153.52" fill="#ffb916" stroke="#1c2126" stroke-linejoin="round" stroke-width="2"/><polygon points="1137.43 153.52 1137.43 192.23 1103.9 211.59 1103.9 172.87 1137.43 153.52" fill="#b7790b" stroke="#1c2126" stroke-linejoin="round" stroke-width="2"/><polygon points="1103.9 -20.46 1103.9 18.26 1137.43 37.61 1137.43 -1.1 1103.9 -20.46" fill="#ffb916" stroke="#1c2126" stroke-linejoin="round" stroke-width="2"/><polygon points="1170.96 -20.46 1170.95 18.26 1137.43 37.61 1137.43 -1.1 1170.96 -20.46" fill="#b7790b" stroke="#1c2126" stroke-linejoin="round" stroke-width="2"/><polygon points="1170.96 -20.46 1170.96 18.26 1204.48 37.61 1204.48 -1.1 1170.96 -20.46" fill="#ffb916" stroke="#1c2126" stroke-linejoin="round" stroke-width="2"/><polygon points="1137.43 37.49 1170.96 18.14 1204.48 37.49 1170.96 56.85 1137.43 37.49" fill="#ffdd73" stroke="#1c2126" stroke-linejoin="round" stroke-width="2"/><polygon points="1137.43 37.49 1137.43 76.21 1170.96 95.56 1170.96 56.85 1137.43 37.49" fill="#ffb916" stroke="#1c2126" stroke-linejoin="round" stroke-width="2"/><polygon points="1204.48 37.49 1204.48 76.21 1170.96 95.56 1170.96 56.85 1204.48 37.49" fill="#b7790b" stroke="#1c2126" stroke-linejoin="round" stroke-width="2"/><polygon points="1070.38 37.49 1103.9 18.14 1137.43 37.49 1103.9 56.85 1070.38 37.49" fill="#ffdd73" stroke="#1c2126" stroke-linejoin="round" stroke-width="2"/><polygon points="1070.38 37.49 1070.38 76.21 1103.9 95.56 1103.9 56.85 1070.38 37.49" fill="#ffb916" stroke="#1c2126" stroke-linejoin="round" stroke-width="2"/><polygon points="1137.43 37.49 1137.43 76.21 1103.9 95.56 1103.9 56.85 1137.43 37.49" fill="#b7790b" stroke="#1c2126" stroke-linejoin="round" stroke-width="2"/><polygon points="969.79 -20.46 969.79 18.26 1003.32 37.61 1003.32 -1.1 969.79 -20.46" fill="#ffb916" stroke="#1c2126" stroke-linejoin="round" stroke-width="2"/><polygon points="1036.85 -20.46 1036.85 18.26 1003.32 37.61 1003.32 -1.1 1036.85 -20.46" fill="#b7790b" stroke="#1c2126" stroke-linejoin="round" stroke-width="2"/><polygon points="1036.85 -20.46 1036.85 18.26 1070.37 37.61 1070.38 -1.1 1036.85 -20.46" fill="#ffb916" stroke="#1c2126" stroke-linejoin="round" stroke-width="2"/><polygon points="1103.9 -20.46 1103.9 18.26 1070.37 37.61 1070.38 -1.1 1103.9 -20.46" fill="#b7790b" stroke="#1c2126" stroke-linejoin="round" stroke-width="2"/><polygon points="1003.32 37.49 1036.85 18.14 1070.38 37.49 1036.85 56.85 1003.32 37.49" fill="#ffdd73" stroke="#1c2126" stroke-linejoin="round" stroke-width="2"/><polygon points="1003.32 37.49 1003.32 76.21 1036.85 95.56 1036.85 56.85 1003.32 37.49" fill="#ffb916" stroke="#1c2126" stroke-linejoin="round" stroke-width="2"/><polygon points="1070.38 37.49 1070.37 76.21 1036.85 95.56 1036.85 56.85 1070.38 37.49" fill="#b7790b" stroke="#1c2126" stroke-linejoin="round" stroke-width="2"/><polygon points="936.27 37.49 969.79 18.14 1003.32 37.49 969.79 56.85 936.27 37.49" fill="#ffdd73" stroke="#1c2126" stroke-linejoin="round" stroke-width="2"/><polygon points="936.27 37.49 936.27 76.21 969.79 95.56 969.79 56.85 936.27 37.49" fill="#ffb916" stroke="#1c2126" stroke-linejoin="round" stroke-width="2"/><polygon points="1003.32 37.49 1003.32 76.21 969.79 95.56 969.79 56.85 1003.32 37.49" fill="#b7790b" stroke="#1c2126" stroke-linejoin="round" stroke-width="2"/><polygon points="835.68 -20.46 835.68 18.26 869.21 37.61 869.21 -1.1 835.68 -20.46" fill="#ffb916" stroke="#1c2126" stroke-linejoin="round" stroke-width="2"/><polygon points="902.74 -20.46 902.74 18.26 869.21 37.61 869.21 -1.1 902.74 -20.46" fill="#b7790b" stroke="#1c2126" stroke-linejoin="round" stroke-width="2"/><polygon points="902.74 -20.46 902.74 18.26 936.26 37.61 936.26 -1.1 902.74 -20.46" fill="#ffb916" stroke="#1c2126" stroke-linejoin="round" stroke-width="2"/><polygon points="969.79 -20.46 969.79 18.26 936.26 37.61 936.26 -1.1 969.79 -20.46" fill="#b7790b" stroke="#1c2126" stroke-linejoin="round" stroke-width="2"/><polygon points="869.21 37.49 902.74 18.14 936.26 37.49 902.74 56.85 869.21 37.49" fill="#ffdd73" stroke="#1c2126" stroke-linejoin="round" stroke-width="2"/><polygon points="869.21 37.49 869.21 76.21 902.74 95.56 902.74 56.85 869.21 37.49" fill="#ffb916" stroke="#1c2126" stroke-linejoin="round" stroke-width="2"/><polygon points="936.26 37.49 936.26 76.21 902.74 95.56 902.74 56.85 936.26 37.49" fill="#b7790b" stroke="#1c2126" stroke-linejoin="round" stroke-width="2"/><polygon points="802.16 37.49 835.68 18.14 869.21 37.49 835.68 56.85 802.16 37.49" fill="#ffdd73" stroke="#1c2126" stroke-linejoin="round" stroke-width="2"/><polygon points="802.16 37.49 802.16 76.21 835.68 95.56 835.68 56.85 802.16 37.49" fill="#ffb916" stroke="#1c2126" stroke-linejoin="round" stroke-width="2"/><polygon points="869.21 37.49 869.21 76.21 835.68 95.56 835.68 56.85 869.21 37.49" fill="#b7790b" stroke="#1c2126" stroke-linejoin="round" stroke-width="2"/><polygon points="835.68 95.56 869.21 76.21 902.74 95.56 869.21 114.92 835.68 95.56" fill="#ffdd73" stroke="#1c2126" stroke-linejoin="round" stroke-width="2"/><polygon points="835.68 95.56 835.68 134.28 869.21 153.63 869.21 114.92 835.68 95.56" fill="#ffb916" stroke="#1c2126" stroke-linejoin="round" stroke-width="2"/><polygon points="902.74 95.56 902.74 134.28 869.21 153.63 869.21 114.92 902.74 95.56" fill="#b7790b" stroke="#1c2126" stroke-linejoin="round" stroke-width="2"/><polygon points="902.74 95.56 936.26 76.21 969.79 95.56 936.26 114.92 902.74 95.56" fill="#ffdd73" stroke="#1c2126" stroke-linejoin="round" stroke-width="2"/><polygon points="902.74 95.56 902.74 134.28 936.26 153.63 936.26 114.92 902.74 95.56" fill="#ffb916" stroke="#1c2126" stroke-linejoin="round" stroke-width="2"/><polygon points="969.79 95.56 969.79 134.28 936.26 153.63 936.26 114.92 969.79 95.56" fill="#b7790b" stroke="#1c2126" stroke-linejoin="round" stroke-width="2"/><polygon points="969.79 95.56 1003.32 76.21 1036.85 95.56 1003.32 114.92 969.79 95.56" fill="#ffdd73" stroke="#1c2126" stroke-linejoin="round" stroke-width="2"/><polygon points="969.79 95.56 969.79 134.28 1003.32 153.63 1003.32 114.92 969.79 95.56" fill="#ffb916" stroke="#1c2126" stroke-linejoin="round" stroke-width="2"/><polygon points="1036.85 95.56 1036.85 134.28 1003.32 153.63 1003.32 114.92 1036.85 95.56" fill="#b7790b" stroke="#1c2126" stroke-linejoin="round" stroke-width="2"/><polygon points="1036.85 95.56 1070.37 76.21 1103.9 95.56 1070.37 114.92 1036.85 95.56" fill="#ffdd73" stroke="#1c2126" stroke-linejoin="round" stroke-width="2"/><polygon points="1036.85 95.56 1036.85 134.28 1070.37 153.63 1070.37 114.92 1036.85 95.56" fill="#ffb916" stroke="#1c2126" stroke-linejoin="round" stroke-width="2"/><polygon points="1103.9 95.56 1103.9 134.28 1070.37 153.63 1070.37 114.92 1103.9 95.56" fill="#b7790b" stroke="#1c2126" stroke-linejoin="round" stroke-width="2"/><polygon points="701.57 95.56 735.1 76.21 768.63 95.56 735.1 114.92 701.57 95.56" fill="#ffdd73" stroke="#1c2126" stroke-linejoin="round" stroke-width="2"/><polygon points="701.57 95.56 701.57 134.28 735.1 153.63 735.1 114.92 701.57 95.56" fill="#ffb916" stroke="#1c2126" stroke-linejoin="round" stroke-width="2"/><polygon points="768.63 95.56 768.63 134.28 735.1 153.63 735.1 114.92 768.63 95.56" fill="#b7790b" stroke="#1c2126" stroke-linejoin="round" stroke-width="2"/><polygon points="768.63 95.56 802.15 76.21 835.68 95.56 802.16 114.92 768.63 95.56" fill="#ffdd73" stroke="#1c2126" stroke-linejoin="round" stroke-width="2"/><polygon points="768.63 95.56 768.63 134.28 802.15 153.63 802.16 114.92 768.63 95.56" fill="#ffb916" stroke="#1c2126" stroke-linejoin="round" stroke-width="2"/><polygon points="835.68 95.56 835.68 134.28 802.15 153.63 802.16 114.92 835.68 95.56" fill="#b7790b" stroke="#1c2126" stroke-linejoin="round" stroke-width="2"/><polygon points="701.57 -20.46 701.57 18.26 735.1 37.61 735.1 -1.1 701.57 -20.46" fill="#ffb916" stroke="#1c2126" stroke-linejoin="round" stroke-width="2"/><polygon points="768.63 -20.46 768.63 18.26 735.1 37.61 735.1 -1.1 768.63 -20.46" fill="#b7790b" stroke="#1c2126" stroke-linejoin="round" stroke-width="2"/><polygon points="768.63 -20.46 768.63 18.26 802.15 37.61 802.16 -1.1 768.63 -20.46" fill="#ffb916" stroke="#1c2126" stroke-linejoin="round" stroke-width="2"/><polygon points="835.68 -20.46 835.68 18.26 802.15 37.61 802.16 -1.1 835.68 -20.46" fill="#b7790b" stroke="#1c2126" stroke-linejoin="round" stroke-width="2"/><polygon points="735.1 37.49 768.63 18.14 802.16 37.49 768.63 56.85 735.1 37.49" fill="#ffdd73" stroke="#1c2126" stroke-linejoin="round" stroke-width="2"/><polygon points="735.1 37.49 735.1 76.21 768.63 95.56 768.63 56.85 735.1 37.49" fill="#ffb916" stroke="#1c2126" stroke-linejoin="round" stroke-width="2"/><polygon points="802.16 37.49 802.15 76.21 768.63 95.56 768.63 56.85 802.16 37.49" fill="#b7790b" stroke="#1c2126" stroke-linejoin="round" stroke-width="2"/><polygon points="668.05 37.49 701.57 18.14 735.1 37.49 701.57 56.85 668.05 37.49" fill="#ffdd73" stroke="#1c2126" stroke-linejoin="round" stroke-width="2"/><polygon points="668.05 37.49 668.05 76.21 701.57 95.56 701.57 56.85 668.05 37.49" fill="#ffb916" stroke="#1c2126" stroke-linejoin="round" stroke-width="2"/><polygon points="735.1 37.49 735.1 76.21 701.57 95.56 701.57 56.85 735.1 37.49" fill="#b7790b" stroke="#1c2126" stroke-linejoin="round" stroke-width="2"/><polygon points="567.47 -20.46 567.47 18.26 600.99 37.61 600.99 -1.1 567.47 -20.46" fill="#ffb916" stroke="#1c2126" stroke-linejoin="round" stroke-width="2"/><polygon points="634.52 -20.46 634.52 18.26 600.99 37.61 600.99 -1.1 634.52 -20.46" fill="#b7790b" stroke="#1c2126" stroke-linejoin="round" stroke-width="2"/><polygon points="634.52 -20.46 634.52 18.26 668.05 37.61 668.05 -1.1 634.52 -20.46" fill="#ffb916" stroke="#1c2126" stroke-linejoin="round" stroke-width="2"/><polygon points="701.58 -20.46 701.57 18.26 668.05 37.61 668.05 -1.1 701.58 -20.46" fill="#b7790b" stroke="#1c2126" stroke-linejoin="round" stroke-width="2"/><polygon points="600.99 37.49 634.52 18.14 668.05 37.49 634.52 56.85 600.99 37.49" fill="#ffdd73" stroke="#1c2126" stroke-linejoin="round" stroke-width="2"/><polygon points="600.99 37.49 600.99 76.21 634.52 95.56 634.52 56.85 600.99 37.49" fill="#ffb916" stroke="#1c2126" stroke-linejoin="round" stroke-width="2"/><polygon points="668.05 37.49 668.04 76.21 634.52 95.56 634.52 56.85 668.05 37.49" fill="#b7790b" stroke="#1c2126" stroke-linejoin="round" stroke-width="2"/><polygon points="634.52 95.56 668.05 76.21 701.58 95.56 668.05 114.92 634.52 95.56" fill="#ffdd73" stroke="#1c2126" stroke-linejoin="round" stroke-width="2"/><polygon points="634.52 95.56 634.52 134.28 668.05 153.63 668.05 114.92 634.52 95.56" fill="#ffb916" stroke="#1c2126" stroke-linejoin="round" stroke-width="2"/><polygon points="701.58 95.56 701.57 134.28 668.05 153.63 668.05 114.92 701.58 95.56" fill="#b7790b" stroke="#1c2126" stroke-linejoin="round" stroke-width="2"/><polygon points="969.79 327.38 1003.32 308.02 1036.85 327.38 1003.32 346.74 969.79 327.38" fill="#ffdd73" stroke="#1c2126" stroke-linejoin="round" stroke-width="2"/><polygon points="969.79 327.38 969.79 366.09 1003.32 385.45 1003.32 346.74 969.79 327.38" fill="#ffb916" stroke="#1c2126" stroke-linejoin="round" stroke-width="2"/><polygon points="1036.85 327.38 1036.85 366.09 1003.32 385.45 1003.32 346.74 1036.85 327.38" fill="#b7790b" stroke="#1c2126" stroke-linejoin="round" stroke-width="2"/><polygon points="1036.85 327.38 1070.37 308.02 1103.9 327.38 1070.38 346.74 1036.85 327.38" fill="#ffdd73" stroke="#1c2126" stroke-linejoin="round" stroke-width="2"/><polygon points="1036.85 327.38 1036.85 366.09 1070.37 385.45 1070.38 346.74 1036.85 327.38" fill="#ffb916" stroke="#1c2126" stroke-linejoin="round" stroke-width="2"/><polygon points="1103.9 327.38 1103.9 366.09 1070.37 385.45 1070.38 346.74 1103.9 327.38" fill="#b7790b" stroke="#1c2126" stroke-linejoin="round" stroke-width="2"/><polygon points="1103.9 327.38 1137.43 308.02 1170.96 327.38 1137.43 346.74 1103.9 327.38" fill="#ffdd73" stroke="#1c2126" stroke-linejoin="round" stroke-width="2"/><polygon points="1103.9 327.38 1103.9 366.09 1137.43 385.45 1137.43 346.74 1103.9 327.38" fill="#ffb916" stroke="#1c2126" stroke-linejoin="round" stroke-width="2"/><polygon points="1170.96 327.38 1170.95 366.09 1137.43 385.45 1137.43 346.74 1170.96 327.38" fill="#b7790b" stroke="#1c2126" stroke-linejoin="round" stroke-width="2"/><polygon points="1170.96 327.38 1204.48 308.02 1238.01 327.38 1204.48 346.74 1170.96 327.38" fill="#ffdd73" stroke="#1c2126" stroke-linejoin="round" stroke-width="2"/><polygon points="1170.96 327.38 1170.96 366.09 1204.48 385.45 1204.48 346.74 1170.96 327.38" fill="#ffb916" stroke="#1c2126" stroke-linejoin="round" stroke-width="2"/><polygon points="1137.43 385.33 1170.96 365.97 1204.48 385.33 1170.96 404.69 1137.43 385.33" fill="#ffdd73" stroke="#1c2126" stroke-linejoin="round" stroke-width="2"/><polygon points="1137.43 385.33 1137.43 424.04 1170.96 443.4 1170.96 404.69 1137.43 385.33" fill="#ffb916" stroke="#1c2126" stroke-linejoin="round" stroke-width="2"/><polygon points="1204.48 385.33 1204.48 424.04 1170.96 443.4 1170.96 404.69 1204.48 385.33" fill="#b7790b" stroke="#1c2126" stroke-linejoin="round" stroke-width="2"/><polygon points="1070.38 385.33 1103.9 365.97 1137.43 385.33 1103.9 404.69 1070.38 385.33" fill="#ffdd73" stroke="#1c2126" stroke-linejoin="round" stroke-width="2"/><polygon points="1070.38 385.33 1070.38 424.04 1103.9 443.4 1103.9 404.69 1070.38 385.33" fill="#ffb916" stroke="#1c2126" stroke-linejoin="round" stroke-width="2"/><polygon points="1137.43 385.33 1137.43 424.04 1103.9 443.4 1103.9 404.69 1137.43 385.33" fill="#b7790b" stroke="#1c2126" stroke-linejoin="round" stroke-width="2"/><polygon points="1003.32 385.33 1036.85 365.97 1070.38 385.33 1036.85 404.69 1003.32 385.33" fill="#ffdd73" stroke="#1c2126" stroke-linejoin="round" stroke-width="2"/><polygon points="1003.32 385.33 1003.32 424.04 1036.85 443.4 1036.85 404.69 1003.32 385.33" fill="#ffb916" stroke="#1c2126" stroke-linejoin="round" stroke-width="2"/><polygon points="1070.38 385.33 1070.37 424.04 1036.85 443.4 1036.85 404.69 1070.38 385.33" fill="#b7790b" stroke="#1c2126" stroke-linejoin="round" stroke-width="2"/><polygon points="936.27 385.33 969.79 365.97 1003.32 385.33 969.79 404.69 936.27 385.33" fill="#ffdd73" stroke="#1c2126" stroke-linejoin="round" stroke-width="2"/><polygon points="936.27 385.33 936.27 424.04 969.79 443.4 969.79 404.69 936.27 385.33" fill="#ffb916" stroke="#1c2126" stroke-linejoin="round" stroke-width="2"/><polygon points="1003.32 385.33 1003.32 424.04 969.79 443.4 969.79 404.69 1003.32 385.33" fill="#b7790b" stroke="#1c2126" stroke-linejoin="round" stroke-width="2"/><polygon points="969.79 443.17 1003.32 423.81 1036.85 443.17 1003.32 462.53 969.79 443.17" fill="#ffdd73" stroke="#1c2126" stroke-linejoin="round" stroke-width="2"/><polygon points="969.79 443.17 969.79 481.88 1003.32 501.24 1003.32 462.53 969.79 443.17" fill="#ffb916" stroke="#1c2126" stroke-linejoin="round" stroke-width="2"/><polygon points="1036.85 443.17 1036.85 481.88 1003.32 501.24 1003.32 462.53 1036.85 443.17" fill="#b7790b" stroke="#1c2126" stroke-linejoin="round" stroke-width="2"/><polygon points="1036.85 443.17 1070.37 423.81 1103.9 443.17 1070.38 462.53 1036.85 443.17" fill="#ffdd73" stroke="#1c2126" stroke-linejoin="round" stroke-width="2"/><polygon points="1036.85 443.17 1036.85 481.88 1070.37 501.24 1070.38 462.53 1036.85 443.17" fill="#ffb916" stroke="#1c2126" stroke-linejoin="round" stroke-width="2"/><polygon points="1103.9 443.17 1103.9 481.88 1070.37 501.24 1070.38 462.53 1103.9 443.17" fill="#b7790b" stroke="#1c2126" stroke-linejoin="round" stroke-width="2"/><polygon points="1103.9 443.17 1137.43 423.81 1170.96 443.17 1137.43 462.53 1103.9 443.17" fill="#ffdd73" stroke="#1c2126" stroke-linejoin="round" stroke-width="2"/><polygon points="1103.9 443.17 1103.9 481.88 1137.43 501.24 1137.43 462.53 1103.9 443.17" fill="#ffb916" stroke="#1c2126" stroke-linejoin="round" stroke-width="2"/><polygon points="1170.96 443.17 1170.95 481.88 1137.43 501.24 1137.43 462.53 1170.96 443.17" fill="#b7790b" stroke="#1c2126" stroke-linejoin="round" stroke-width="2"/><polygon points="1170.96 443.17 1204.48 423.81 1238.01 443.17 1204.48 462.53 1170.96 443.17" fill="#ffdd73" stroke="#1c2126" stroke-linejoin="round" stroke-width="2"/><polygon points="1170.96 443.17 1170.96 481.88 1204.48 501.24 1204.48 462.53 1170.96 443.17" fill="#ffb916" stroke="#1c2126" stroke-linejoin="round" stroke-width="2"/><polygon points="1137.43 501.12 1170.96 481.76 1204.48 501.12 1170.96 520.48 1137.43 501.12" fill="#ffdd73" stroke="#1c2126" stroke-linejoin="round" stroke-width="2"/><polygon points="1137.43 501.12 1137.43 539.84 1170.96 559.19 1170.96 520.48 1137.43 501.12" fill="#ffb916" stroke="#1c2126" stroke-linejoin="round" stroke-width="2"/><polygon points="1204.48 501.12 1204.48 539.83 1170.96 559.19 1170.96 520.48 1204.48 501.12" fill="#b7790b" stroke="#1c2126" stroke-linejoin="round" stroke-width="2"/><polygon points="1070.38 501.12 1103.9 481.76 1137.43 501.12 1103.9 520.48 1070.38 501.12" fill="#ffdd73" stroke="#1c2126" stroke-linejoin="round" stroke-width="2"/><polygon points="1070.38 501.12 1070.38 539.84 1103.9 559.19 1103.9 520.48 1070.38 501.12" fill="#ffb916" stroke="#1c2126" stroke-linejoin="round" stroke-width="2"/><polygon points="1137.43 501.12 1137.43 539.83 1103.9 559.19 1103.9 520.48 1137.43 501.12" fill="#b7790b" stroke="#1c2126" stroke-linejoin="round" stroke-width="2"/><polygon points="1003.32 501.12 1036.85 481.76 1070.38 501.12 1036.85 520.48 1003.32 501.12" fill="#ffdd73" stroke="#1c2126" stroke-linejoin="round" stroke-width="2"/><polygon points="1003.32 501.12 1003.32 539.84 1036.85 559.19 1036.85 520.48 1003.32 501.12" fill="#ffb916" stroke="#1c2126" stroke-linejoin="round" stroke-width="2"/><polygon points="1070.38 501.12 1070.37 539.83 1036.85 559.19 1036.85 520.48 1070.38 501.12" fill="#b7790b" stroke="#1c2126" stroke-linejoin="round" stroke-width="2"/><polygon points="936.27 501.12 969.79 481.76 1003.32 501.12 969.79 520.48 936.27 501.12" fill="#ffdd73" stroke="#1c2126" stroke-linejoin="round" stroke-width="2"/><polygon points="936.27 501.12 936.27 539.84 969.79 559.19 969.79 520.48 936.27 501.12" fill="#ffb916" stroke="#1c2126" stroke-linejoin="round" stroke-width="2"/><polygon points="1003.32 501.12 1003.32 539.83 969.79 559.19 969.79 520.48 1003.32 501.12" fill="#b7790b" stroke="#1c2126" stroke-linejoin="round" stroke-width="2"/><polygon points="902.74 211.59 936.26 192.23 969.79 211.59 936.27 230.94 902.74 211.59" fill="#ffdd73" stroke="#1c2126" stroke-linejoin="round" stroke-width="2"/><polygon points="902.74 211.59 902.74 250.3 936.26 269.66 936.27 230.94 902.74 211.59" fill="#ffb916" stroke="#1c2126" stroke-linejoin="round" stroke-width="2"/><polygon points="969.79 211.59 969.79 250.3 936.26 269.66 936.27 230.94 969.79 211.59" fill="#b7790b" stroke="#1c2126" stroke-linejoin="round" stroke-width="2"/><polygon points="835.68 327.38 869.21 308.02 902.74 327.38 869.21 346.74 835.68 327.38" fill="#ffdd73" stroke="#1c2126" stroke-linejoin="round" stroke-width="2"/><polygon points="835.68 327.38 835.68 366.09 869.21 385.45 869.21 346.74 835.68 327.38" fill="#ffb916" stroke="#1c2126" stroke-linejoin="round" stroke-width="2"/><polygon points="902.74 327.38 902.74 366.09 869.21 385.45 869.21 346.74 902.74 327.38" fill="#b7790b" stroke="#1c2126" stroke-linejoin="round" stroke-width="2"/><polygon points="735.1 385.33 768.63 365.97 802.16 385.33 768.63 404.69 735.1 385.33" fill="#ffdd73" stroke="#1c2126" stroke-linejoin="round" stroke-width="2"/><polygon points="735.1 385.33 735.1 424.04 768.63 443.4 768.63 404.69 735.1 385.33" fill="#ffb916" stroke="#1c2126" stroke-linejoin="round" stroke-width="2"/><polygon points="802.16 385.33 802.15 424.04 768.63 443.4 768.63 404.69 802.16 385.33" fill="#b7790b" stroke="#1c2126" stroke-linejoin="round" stroke-width="2"/><polygon points="735.1 385.33 768.63 365.97 802.16 385.33 768.63 404.69 735.1 385.33" fill="#ffdd73" stroke="#1c2126" stroke-linejoin="round" stroke-width="2"/><polygon points="735.1 385.33 735.1 424.04 768.63 443.4 768.63 404.69 735.1 385.33" fill="#ffb916" stroke="#1c2126" stroke-linejoin="round" stroke-width="2"/><polygon points="802.16 385.33 802.15 424.04 768.63 443.4 768.63 404.69 802.16 385.33" fill="#b7790b" stroke="#1c2126" stroke-linejoin="round" stroke-width="2"/><polygon points="701.58 443.17 735.1 423.81 768.63 443.17 735.1 462.53 701.58 443.17" fill="#ffdd73" stroke="#1c2126" stroke-linejoin="round" stroke-width="2"/><polygon points="701.58 443.17 701.58 481.88 735.1 501.24 735.1 462.53 701.58 443.17" fill="#ffb916" stroke="#1c2126" stroke-linejoin="round" stroke-width="2"/><polygon points="768.63 443.17 768.63 481.88 735.1 501.24 735.1 462.53 768.63 443.17" fill="#b7790b" stroke="#1c2126" stroke-linejoin="round" stroke-width="2"/><polygon points="768.63 443.17 802.16 423.81 835.68 443.17 802.16 462.53 768.63 443.17" fill="#ffdd73" stroke="#1c2126" stroke-linejoin="round" stroke-width="2"/><polygon points="768.63 443.17 768.63 481.88 802.16 501.24 802.16 462.53 768.63 443.17" fill="#ffb916" stroke="#1c2126" stroke-linejoin="round" stroke-width="2"/><polygon points="835.68 443.17 835.68 481.88 802.16 501.24 802.16 462.53 835.68 443.17" fill="#b7790b" stroke="#1c2126" stroke-linejoin="round" stroke-width="2"/><polygon points="835.68 443.17 869.21 423.81 902.74 443.17 869.21 462.53 835.68 443.17" fill="#ffdd73" stroke="#1c2126" stroke-linejoin="round" stroke-width="2"/><polygon points="835.68 443.17 835.68 481.88 869.21 501.24 869.21 462.53 835.68 443.17" fill="#ffb916" stroke="#1c2126" stroke-linejoin="round" stroke-width="2"/><polygon points="902.74 443.17 902.74 481.88 869.21 501.24 869.21 462.53 902.74 443.17" fill="#b7790b" stroke="#1c2126" stroke-linejoin="round" stroke-width="2"/><polygon points="902.74 443.17 936.26 423.81 969.79 443.17 936.27 462.53 902.74 443.17" fill="#ffdd73" stroke="#1c2126" stroke-linejoin="round" stroke-width="2"/><polygon points="902.74 443.17 902.74 481.88 936.26 501.24 936.27 462.53 902.74 443.17" fill="#ffb916" stroke="#1c2126" stroke-linejoin="round" stroke-width="2"/><polygon points="969.79 443.17 969.79 481.88 936.26 501.24 936.27 462.53 969.79 443.17" fill="#b7790b" stroke="#1c2126" stroke-linejoin="round" stroke-width="2"/><polygon points="869.21 501.12 902.74 481.76 936.27 501.12 902.74 520.48 869.21 501.12" fill="#ffdd73" stroke="#1c2126" stroke-linejoin="round" stroke-width="2"/><polygon points="869.21 501.12 869.21 539.84 902.74 559.19 902.74 520.48 869.21 501.12" fill="#ffb916" stroke="#1c2126" stroke-linejoin="round" stroke-width="2"/><polygon points="936.27 501.12 936.26 539.83 902.74 559.19 902.74 520.48 936.27 501.12" fill="#b7790b" stroke="#1c2126" stroke-linejoin="round" stroke-width="2"/><polygon points="802.16 501.12 835.68 481.76 869.21 501.12 835.68 520.48 802.16 501.12" fill="#ffdd73" stroke="#1c2126" stroke-linejoin="round" stroke-width="2"/><polygon points="802.16 501.12 802.16 539.84 835.68 559.19 835.68 520.48 802.16 501.12" fill="#ffb916" stroke="#1c2126" stroke-linejoin="round" stroke-width="2"/><polygon points="869.21 501.12 869.21 539.83 835.68 559.19 835.68 520.48 869.21 501.12" fill="#b7790b" stroke="#1c2126" stroke-linejoin="round" stroke-width="2"/><polygon points="735.1 501.12 768.63 481.76 802.16 501.12 768.63 520.48 735.1 501.12" fill="#ffdd73" stroke="#1c2126" stroke-linejoin="round" stroke-width="2"/><polygon points="735.1 501.12 735.1 539.84 768.63 559.19 768.63 520.48 735.1 501.12" fill="#ffb916" stroke="#1c2126" stroke-linejoin="round" stroke-width="2"/><polygon points="802.16 501.12 802.15 539.83 768.63 559.19 768.63 520.48 802.16 501.12" fill="#b7790b" stroke="#1c2126" stroke-linejoin="round" stroke-width="2"/><polygon points="668.05 501.12 701.57 481.76 735.1 501.12 701.58 520.48 668.05 501.12" fill="#ffdd73" stroke="#1c2126" stroke-linejoin="round" stroke-width="2"/><polygon points="668.05 501.12 668.05 539.84 701.57 559.19 701.58 520.48 668.05 501.12" fill="#ffb916" stroke="#1c2126" stroke-linejoin="round" stroke-width="2"/><polygon points="735.1 501.12 735.1 539.83 701.57 559.19 701.58 520.48 735.1 501.12" fill="#b7790b" stroke="#1c2126" stroke-linejoin="round" stroke-width="2"/><polygon points="600.99 501.12 634.52 481.76 668.05 501.12 634.52 520.48 600.99 501.12" fill="#ffdd73" stroke="#1c2126" stroke-linejoin="round" stroke-width="2"/><polygon points="600.99 501.12 600.99 539.84 634.52 559.19 634.52 520.48 600.99 501.12" fill="#ffb916" stroke="#1c2126" stroke-linejoin="round" stroke-width="2"/><polygon points="668.05 501.12 668.04 539.83 634.52 559.19 634.52 520.48 668.05 501.12" fill="#b7790b" stroke="#1c2126" stroke-linejoin="round" stroke-width="2"/><polygon points="533.94 501.12 567.47 481.76 600.99 501.12 567.47 520.48 533.94 501.12" fill="#ffdd73" stroke="#1c2126" stroke-linejoin="round" stroke-width="2"/><polygon points="533.94 501.12 533.94 539.84 567.47 559.19 567.47 520.48 533.94 501.12" fill="#ffb916" stroke="#1c2126" stroke-linejoin="round" stroke-width="2"/><polygon points="600.99 501.12 600.99 539.83 567.47 559.19 567.47 520.48 600.99 501.12" fill="#b7790b" stroke="#1c2126" stroke-linejoin="round" stroke-width="2"/><polygon points="466.88 501.12 500.41 481.76 533.94 501.12 500.41 520.48 466.88 501.12" fill="#ffdd73" stroke="#1c2126" stroke-linejoin="round" stroke-width="2"/><polygon points="466.88 501.12 466.88 539.84 500.41 559.19 500.41 520.48 466.88 501.12" fill="#ffb916" stroke="#1c2126" stroke-linejoin="round" stroke-width="2"/><polygon points="533.94 501.12 533.94 539.83 500.41 559.19 500.41 520.48 533.94 501.12" fill="#b7790b" stroke="#1c2126" stroke-linejoin="round" stroke-width="2"/><polygon points="399.83 501.12 433.36 481.76 466.88 501.12 433.36 520.48 399.83 501.12" fill="#ffdd73" stroke="#1c2126" stroke-linejoin="round" stroke-width="2"/><polygon points="399.83 501.12 399.83 539.84 433.36 559.19 433.36 520.48 399.83 501.12" fill="#ffb916" stroke="#1c2126" stroke-linejoin="round" stroke-width="2"/><polygon points="466.88 501.12 466.88 539.83 433.36 559.19 433.36 520.48 466.88 501.12" fill="#b7790b" stroke="#1c2126" stroke-linejoin="round" stroke-width="2"/><polygon points="332.77 501.12 366.3 481.76 399.83 501.12 366.3 520.48 332.77 501.12" fill="#ffdd73" stroke="#1c2126" stroke-linejoin="round" stroke-width="2"/><polygon points="332.77 501.12 332.77 539.84 366.3 559.19 366.3 520.48 332.77 501.12" fill="#ffb916" stroke="#1c2126" stroke-linejoin="round" stroke-width="2"/><polygon points="399.83 501.12 399.83 539.83 366.3 559.19 366.3 520.48 399.83 501.12" fill="#b7790b" stroke="#1c2126" stroke-linejoin="round" stroke-width="2"/><polygon points="265.72 501.12 299.25 481.76 332.77 501.12 299.25 520.48 265.72 501.12" fill="#ffdd73" stroke="#1c2126" stroke-linejoin="round" stroke-width="2"/><polygon points="265.72 501.12 265.72 539.84 299.25 559.19 299.25 520.48 265.72 501.12" fill="#ffb916" stroke="#1c2126" stroke-linejoin="round" stroke-width="2"/><polygon points="332.77 501.12 332.77 539.83 299.25 559.19 299.25 520.48 332.77 501.12" fill="#b7790b" stroke="#1c2126" stroke-linejoin="round" stroke-width="2"/><polygon points="198.67 501.12 232.19 481.76 265.72 501.12 232.19 520.48 198.67 501.12" fill="#ffdd73" stroke="#1c2126" stroke-linejoin="round" stroke-width="2"/><polygon points="198.67 501.12 198.67 539.84 232.19 559.19 232.19 520.48 198.67 501.12" fill="#ffb916" stroke="#1c2126" stroke-linejoin="round" stroke-width="2"/><polygon points="265.72 501.12 265.72 539.83 232.19 559.19 232.19 520.48 265.72 501.12" fill="#b7790b" stroke="#1c2126" stroke-linejoin="round" stroke-width="2"/><polygon points="131.61 501.12 165.14 481.76 198.67 501.12 165.14 520.48 131.61 501.12" fill="#ffdd73" stroke="#1c2126" stroke-linejoin="round" stroke-width="2"/><polygon points="131.61 501.12 131.61 539.84 165.14 559.19 165.14 520.48 131.61 501.12" fill="#ffb916" stroke="#1c2126" stroke-linejoin="round" stroke-width="2"/><polygon points="198.67 501.12 198.66 539.83 165.14 559.19 165.14 520.48 198.67 501.12" fill="#b7790b" stroke="#1c2126" stroke-linejoin="round" stroke-width="2"/><polygon points="64.56 501.12 98.08 481.76 131.61 501.12 98.08 520.48 64.56 501.12" fill="#ffdd73" stroke="#1c2126" stroke-linejoin="round" stroke-width="2"/><polygon points="64.56 501.12 64.56 539.84 98.08 559.19 98.08 520.48 64.56 501.12" fill="#ffb916" stroke="#1c2126" stroke-linejoin="round" stroke-width="2"/><polygon points="131.61 501.12 131.61 539.83 98.08 559.19 98.08 520.48 131.61 501.12" fill="#b7790b" stroke="#1c2126" stroke-linejoin="round" stroke-width="2"/><polygon points="-2.5 501.12 31.03 481.76 64.56 501.12 31.03 520.48 -2.5 501.12" fill="#ffdd73" stroke="#1c2126" stroke-linejoin="round" stroke-width="2"/><polygon points="-2.5 501.12 -2.5 539.84 31.03 559.19 31.03 520.48 -2.5 501.12" fill="#ffb916" stroke="#1c2126" stroke-linejoin="round" stroke-width="2"/><polygon points="64.56 501.12 64.56 539.83 31.03 559.19 31.03 520.48 64.56 501.12" fill="#b7790b" stroke="#1c2126" stroke-linejoin="round" stroke-width="2"/><polygon points="768.63 250.3 735.1 230.94 701.57 250.3 768.63 289.01 835.68 250.3 802.15 230.94 768.63 250.3" fill="#b7303d" stroke="#1c2126" stroke-linejoin="round" stroke-width="2"/><polygon points="735.1 192.23 735.1 230.94 701.57 250.3 701.57 211.59 735.1 192.23" fill="#ea4f4b" stroke="#1c2126" stroke-linejoin="round" stroke-width="2"/><polygon points="735.1 192.23 735.1 230.94 768.63 250.3 768.63 211.59 735.1 192.23" fill="#ff6b60" stroke="#1c2126" stroke-linejoin="round" stroke-width="2"/><polygon points="802.16 192.23 802.15 230.94 768.63 250.3 768.63 211.59 802.16 192.23" fill="#ea4f4b" stroke="#1c2126" stroke-linejoin="round" stroke-width="2"/><polygon points="802.16 192.23 802.16 230.94 835.68 250.3 835.68 211.59 802.16 192.23" fill="#ff6b60" stroke="#1c2126" stroke-linejoin="round" stroke-width="2"/><polygon points="969.79 250.3 936.26 230.94 902.74 250.3 969.79 289.01 1036.85 250.3 1003.32 230.94 969.79 250.3" fill="#b7303d" stroke="#1c2126" stroke-linejoin="round" stroke-width="2"/><polygon points="936.27 192.23 936.26 230.94 902.74 250.3 902.74 211.59 936.27 192.23" fill="#ea4f4b" stroke="#1c2126" stroke-linejoin="round" stroke-width="2"/><polygon points="936.27 192.23 936.27 230.94 969.79 250.3 969.79 211.59 936.27 192.23" fill="#ff6b60" stroke="#1c2126" stroke-linejoin="round" stroke-width="2"/><polygon points="1003.32 192.23 1003.32 230.94 969.79 250.3 969.79 211.59 1003.32 192.23" fill="#ea4f4b" stroke="#1c2126" stroke-linejoin="round" stroke-width="2"/><polygon points="1003.32 192.23 1003.32 230.94 1036.85 250.3 1036.85 211.59 1003.32 192.23" fill="#ff6b60" stroke="#1c2126" stroke-linejoin="round" stroke-width="2"/><polygon points="869.21 346.96 835.68 327.61 802.16 346.96 869.21 385.68 936.27 346.96 902.74 327.61 869.21 346.96" fill="#b7303d" stroke="#1c2126" stroke-linejoin="round" stroke-width="2"/><polygon points="835.68 288.89 835.68 327.61 802.16 346.96 802.16 308.25 835.68 288.89" fill="#ea4f4b" stroke="#1c2126" stroke-linejoin="round" stroke-width="2"/><polygon points="835.68 288.89 835.68 327.61 869.21 346.96 869.21 308.25 835.68 288.89" fill="#ff6b60" stroke="#1c2126" stroke-linejoin="round" stroke-width="2"/><polygon points="902.74 288.89 902.74 327.61 869.21 346.96 869.21 308.25 902.74 288.89" fill="#ea4f4b" stroke="#1c2126" stroke-linejoin="round" stroke-width="2"/><polygon points="902.74 288.89 902.74 327.61 936.26 346.96 936.27 308.25 902.74 288.89" fill="#ff6b60" stroke="#1c2126" stroke-linejoin="round" stroke-width="2"/></g><g clip-path="url(#b)"><rect x="1108.75" y="-168.09" width="200" height="200" transform="translate(402.18 834.77) rotate(-45)" fill="#ff6b60"/><line x1="1200.49" y1="65.07" x2="1072.87" y2="-62.55" fill="none" stroke="#1c2126" stroke-linejoin="round" stroke-width="2" stroke-dasharray="7.68 7.68"/><rect x="1133.76" y="-143.08" width="149.98" height="149.98" transform="translate(305.88 -874.66) rotate(45)" fill="#ffd3bf" stroke="#1c2126" stroke-linejoin="round" stroke-width="2"/><rect x="1109.62" y="150.6" width="200" height="200" transform="translate(177.09 928.73) rotate(-45)" fill="#ff6b60"/><line x1="1201.36" y1="383.76" x2="1073.74" y2="256.15" fill="none" stroke="#1c2126" stroke-linejoin="round" stroke-width="2" stroke-dasharray="7.68 7.68"/><polyline points="1071.03 253.43 1068.2 250.6 1071.03 247.77" fill="none" stroke="#1c2126" stroke-linejoin="round" stroke-width="2"/><line x1="1076.46" y1="242.34" x2="1204.08" y2="114.72" fill="none" stroke="#1c2126" stroke-linejoin="round" stroke-width="2" stroke-dasharray="7.68 7.68"/><rect x="1134.63" y="175.61" width="149.98" height="149.98" transform="translate(531.49 -781.93) rotate(45)" fill="#ffd3bf" stroke="#1c2126" stroke-linejoin="round" stroke-width="2"/><rect x="1164.08" y="205.07" width="91.07" height="91.07" transform="translate(531.49 -781.93) rotate(45)" fill="#bffde7" stroke="#1c2126" stroke-linejoin="round" stroke-width="2" stroke-dasharray="8"/><rect x="1190.19" y="231.18" width="38.85" height="38.85" transform="translate(531.49 -781.93) rotate(45)" fill="#30c8c9" stroke="#1c2126" stroke-linejoin="round" stroke-width="2"/><rect x="950.09" y="310.13" width="200" height="200" transform="translate(17.56 862.65) rotate(-45)" fill="#ff6b60"/><polyline points="1052.92 548.73 1050.09 551.55 1047.26 548.73" fill="none" stroke="#1c2126" stroke-linejoin="round" stroke-width="2"/><line x1="1041.83" y1="543.29" x2="914.21" y2="415.68" fill="none" stroke="#1c2126" stroke-linejoin="round" stroke-width="2" stroke-dasharray="7.68 7.68"/><polyline points="911.5 412.96 908.67 410.13 911.5 407.3" fill="none" stroke="#1c2126" stroke-linejoin="round" stroke-width="2"/><line x1="916.93" y1="401.87" x2="1044.55" y2="274.25" fill="none" stroke="#1c2126" stroke-linejoin="round" stroke-width="2" stroke-dasharray="7.68 7.68"/><polyline points="1047.26 271.54 1050.09 268.71 1052.92 271.54" fill="none" stroke="#1c2126" stroke-linejoin="round" stroke-width="2"/><line x1="1058.35" y1="276.97" x2="1185.97" y2="404.59" fill="none" stroke="#1c2126" stroke-linejoin="round" stroke-width="2" stroke-dasharray="7.68 7.68"/><polyline points="1188.68 407.3 1191.51 410.13 1188.68 412.96" fill="none" stroke="#1c2126" stroke-linejoin="round" stroke-width="2"/><line x1="1183.25" y1="418.39" x2="1055.63" y2="546.01" fill="none" stroke="#1c2126" stroke-linejoin="round" stroke-width="2" stroke-dasharray="7.68 7.68"/><rect x="975.1" y="335.14" width="149.98" height="149.98" transform="translate(597.57 -622.4) rotate(45)" fill="#ffd3bf" stroke="#1c2126" stroke-linejoin="round" stroke-width="2"/><rect x="1004.55" y="364.6" width="91.07" height="91.07" transform="translate(597.57 -622.4) rotate(45)" fill="#bffde7" stroke="#1c2126" stroke-linejoin="round" stroke-width="2" stroke-dasharray="8"/><rect x="1030.66" y="390.71" width="38.85" height="38.85" transform="translate(597.57 -622.4) rotate(45)" fill="#30c8c9" stroke="#1c2126" stroke-linejoin="round" stroke-width="2"/><rect x="1108.75" y="468.79" width="200" height="200" transform="translate(-48.16 1021.31) rotate(-45)" fill="#ff6b60"/><line x1="1200.49" y1="701.95" x2="1072.87" y2="574.33" fill="none" stroke="#1c2126" stroke-linejoin="round" stroke-width="2" stroke-dasharray="7.68 7.68"/><polyline points="1070.16 571.62 1067.33 568.79 1070.16 565.96" fill="none" stroke="#1c2126" stroke-linejoin="round" stroke-width="2"/><line x1="1075.59" y1="560.53" x2="1203.2" y2="432.91" fill="none" stroke="#1c2126" stroke-linejoin="round" stroke-width="2" stroke-dasharray="7.68 7.68"/><rect x="1133.76" y="493.8" width="149.98" height="149.98" transform="translate(756.23 -688.12) rotate(45)" fill="#ffd3bf" stroke="#1c2126" stroke-linejoin="round" stroke-width="2"/><rect x="1163.21" y="523.25" width="91.07" height="91.07" transform="translate(756.23 -688.12) rotate(45)" fill="#bffde7" stroke="#1c2126" stroke-linejoin="round" stroke-width="2" stroke-dasharray="8"/><rect x="1189.32" y="549.37" width="38.85" height="38.85" transform="translate(756.23 -688.12) rotate(45)" fill="#30c8c9" stroke="#1c2126" stroke-linejoin="round" stroke-width="2"/></g><rect width="1200" height="35" fill="#054861"/><path d="M27.75,11.91V24.06H25V21.93l-4.7-5.41v7.54H17.63V11.91H20L25,17.77V11.91Z" fill="#fff"/><path d="M38.37,20.33H31.76a1.92,1.92,0,0,0,2,1.81,1.81,1.81,0,0,0,1.74-.8H38.2a4.35,4.35,0,0,1-4.44,2.88,4.36,4.36,0,0,1-4.64-4.62A4.35,4.35,0,0,1,33.75,15a4.32,4.32,0,0,1,4.62,4.6Zm-6.58-1.71h3.94a1.87,1.87,0,0,0-2-1.58A2,2,0,0,0,31.79,18.62Z" fill="#fff"/><path d="M44.93,17.23H43v6.83H40.5V17.23H38.82V15.12H40.5V12.3H43v2.82h1.93Z" fill="#fff"/><path d="M48.9,11.34V24.06H46.4V11.34Z" fill="#fff"/><path d="M53.62,12.59a1.5,1.5,0,1,1-3,0,1.5,1.5,0,1,1,3,0Zm-.24,2.32v9.15h-2.5V14.91a2.06,2.06,0,0,0,1.25.37A2,2,0,0,0,53.38,14.91Z" fill="#fff"/><path d="M58.55,14v1.09h1.87v2.11H58.55v6.83h-2.5V17.23H54.61V15.12h1.44V14a2.62,2.62,0,0,1,2.88-2.83h1.75v1.94H59.44A.78.78,0,0,0,58.55,14Z" fill="#fff"/><path d="M70.71,15.12,65.75,27H63.33l1.38-3.28-3.49-8.61h2.51L66,20.69l2.32-5.57Z" fill="#fff"/><path d="M109.4,18c0,3.92-2.34,6.22-5.8,6.22s-5.79-2.3-5.79-6.22,2.33-6.25,5.79-6.25S109.4,14.07,109.4,18Zm-8.79,0c0,2.35,1.3,3.66,3,3.66s3-1.31,3-3.66-1.32-3.67-3-3.67S100.61,15.63,100.61,18Z" fill="#fff"/><path d="M120.32,15.53h-2.8c0-.89-.67-1.52-1.85-1.52s-1.7.55-1.7,1.23.38,1,1.49,1.3l1.37.32c2.65.59,3.73,1.73,3.73,3.73s-1.6,3.63-4.73,3.63-4.9-1.61-4.9-4h2.8a1.88,1.88,0,0,0,2.11,1.84c1.27,0,1.92-.63,1.92-1.44s-.38-1.09-1.57-1.35L114.87,19c-2.77-.56-3.72-1.87-3.72-3.73,0-2.06,1.6-3.54,4.58-3.54S120.32,13.29,120.32,15.53Z" fill="#fff"/><path d="M131.38,15.53h-2.8c0-.89-.67-1.52-1.86-1.52-1,0-1.69.55-1.69,1.23s.38,1,1.48,1.3l1.38.32c2.64.59,3.73,1.73,3.73,3.73s-1.6,3.63-4.74,3.63-4.9-1.61-4.9-4h2.81a1.88,1.88,0,0,0,2.11,1.84c1.26,0,1.92-.63,1.92-1.44s-.39-1.09-1.57-1.35L125.92,19c-2.77-.56-3.71-1.87-3.71-3.73,0-2.06,1.6-3.54,4.58-3.54S131.38,13.29,131.38,15.53Z" fill="#fff"/><path d="M1131.73,19.6a4.72,4.72,0,0,1-9.43,0,4.72,4.72,0,0,1,9.43,0Zm-6.82,0A2.12,2.12,0,0,0,1127,22c1.3,0,2.1-.94,2.1-2.41s-.8-2.42-2.1-2.42S1124.91,18.12,1124.91,19.6Z" fill="#fff"/><path d="M1140.54,17.93H1138c0-.57-.52-1-1.37-1s-1.25.3-1.25.72.19.62,1.2.8l1.2.19c2.3.39,2.91,1.43,2.91,2.79,0,1.74-1.39,2.85-3.92,2.85-2.72,0-4.08-1.3-4.08-3.09h2.48c0,.65.53,1.1,1.7,1.1.88,0,1.33-.3,1.33-.75s-.26-.72-1.3-.9l-1.25-.21c-2.11-.33-2.77-1.39-2.77-2.67,0-1.58,1.3-2.8,3.78-2.8S1140.54,16.24,1140.54,17.93Z" fill="#fff"/><path d="M1149.49,17.93H1147c0-.57-.53-1-1.38-1s-1.25.3-1.25.72.2.62,1.2.8l1.21.19c2.3.39,2.91,1.43,2.91,2.79,0,1.74-1.39,2.85-3.92,2.85-2.72,0-4.09-1.3-4.09-3.09h2.49c0,.65.52,1.1,1.69,1.1.88,0,1.33-.3,1.33-.75s-.25-.72-1.3-.9l-1.24-.21c-2.12-.33-2.77-1.39-2.77-2.67,0-1.58,1.29-2.8,3.77-2.8S1149.49,16.24,1149.49,17.93Z" fill="#fff"/><path d="M1154,22.64a1.6,1.6,0,1,1-1.6-1.62A1.55,1.55,0,0,1,1154,22.64Z" fill="#fff"/><path d="M1158.27,11.34V24.06h-2.5V11.34Z" fill="#fff"/><path d="M1169,19.6a4.71,4.71,0,0,1-9.42,0,4.71,4.71,0,0,1,9.42,0Zm-6.81,0a2.12,2.12,0,0,0,2.11,2.41c1.29,0,2.1-.94,2.1-2.41s-.81-2.42-2.1-2.42S1162.16,18.12,1162.16,19.6Z" fill="#fff"/><path d="M1178.59,15.12l-3.26,8.94h-3L1169,15.12h2.64l2.16,6.32,2.16-6.32Z" fill="#fff"/><path d="M1188.06,20.33h-6.61a1.92,1.92,0,0,0,2,1.81,1.82,1.82,0,0,0,1.75-.8h2.66a4.73,4.73,0,0,1-9.08-1.74,4.63,4.63,0,0,1,9.25,0Zm-6.58-1.71h3.94a1.87,1.87,0,0,0-2-1.58A2,2,0,0,0,1181.48,18.62Z" fill="#fff"/><path d="M91.16,15.11a3.71,3.71,0,0,0-1-1.22,4,4,0,0,0-2.5-1.14,3.62,3.62,0,0,0-2.51,1.37,8,8,0,0,0-1.41,2.21,6.53,6.53,0,0,0-2.39-2.73,4.07,4.07,0,0,0-3.57-.35,3,3,0,0,0-1.83,3,5.09,5.09,0,0,0,2,2.88q3.32,3,6.72,5.87l5-5.64C90.67,18.14,91.8,16.56,91.16,15.11Z" fill="#ff6b60" stroke="#ff6b60" stroke-linejoin="round"/><rect y="534.18" width="1200" height="95.82" fill="#fff"/><rect x="1104.08" y="533.91" width="95.92" height="95.92" fill="url(#c)"/><path d="M1164.23,573.57h0l0,0a.18.18,0,0,1,0-.13l1.1-6.69,5.13,5.13-5.34,2.27H1165l0,0A2.43,2.43,0,0,0,1164.23,573.57Zm7.44-.41,5.49,5.49c1.14,1.14,1.71,1.71,1.92,2.37a2.63,2.63,0,0,1,.08.3L1166,575.76h0c-.06,0-.12,0-.12-.1s.07-.08.12-.1h0Zm7.26,9.92a10.22,10.22,0,0,1-1.77,2l-6.19,6.18-8-1.66h0c-.07,0-.15,0-.15-.09a2.41,2.41,0,0,0-.93-1.69s0-.08,0-.13v0l1.51-9.24v0c0-.07,0-.15.09-.15a2.42,2.42,0,0,0,1.64-1l0,0a.21.21,0,0,1,.15,0l13.66,5.78Zm-9.38,9.63-10.18,10.17,1.75-10.7v0a.08.08,0,0,1,0,0s0,0,.08-.06h0a2.64,2.64,0,0,0,1-.73.16.16,0,0,1,.12-.08h0l7.17,1.47ZM1157.22,605l-1.15,1.14-12.68-18.32v0a.18.18,0,0,1,0-.09s0,0,0-.06l0,0a1,1,0,0,0,.1-.17l0,0h0s0-.07.07-.09h.1l14,2.9a.21.21,0,0,1,.11,0s0,0,0,.07a2.46,2.46,0,0,0,1.45,1.66s0,.06,0,.11l0,.06C1159.15,593.28,1157.63,602.54,1157.22,605Zm-2.39,2.39a5.39,5.39,0,0,1-1.91,1.46,2.78,2.78,0,0,1-1.71,0c-.66-.21-1.23-.78-2.37-1.92l-12.73-12.73,3.32-5.16a.2.2,0,0,1,.06-.07s.08,0,.13,0a3.43,3.43,0,0,0,2.32-.12.09.09,0,0,1,.1,0,.08.08,0,0,1,0,0l12.75,18.49ZM1134.88,593l-2.92-2.92,5.77-2.47h0s.08,0,.1.09l.19.26,0,0a.07.07,0,0,1,0,.07l-3.18,5Zm-4.22-4.22L1127,585.1a20.06,20.06,0,0,1-1.4-1.48L1136.8,586h0c.07,0,.14,0,.14.09s-.08.1-.15.13h0Zm-5.74-7.07a2.79,2.79,0,0,1,.13-.7c.21-.66.78-1.23,1.92-2.37l4.73-4.73q3.25,4.74,6.55,9.47c0,.05.08.11,0,.15a4,4,0,0,0-.55.75.3.3,0,0,1-.08.08s0,0-.06,0h0l-12.67-2.66Zm8-9.07,6.36-6.36c.6.27,2.77,1.18,4.72,2l3.24,1.37s.08,0,.1.08,0,0,0,.08a2.82,2.82,0,0,0,.74,2.59s0,.1,0,.16l0,0-6.46,10a.19.19,0,0,1-.06.07.17.17,0,0,1-.12,0,3.33,3.33,0,0,0-.77-.11,5.13,5.13,0,0,0-.74.09h-.08l-.06-.08-6.81-9.93Zm7.65-7.64,8.23-8.23c1.14-1.14,1.71-1.71,2.37-1.92a2.77,2.77,0,0,1,1.71,0c.66.21,1.23.78,2.37,1.92l1.78,1.78-5.85,9.07-.06.07a.19.19,0,0,1-.13,0,3,3,0,0,0-2.72.52s-.09,0-.14,0C1147.41,567.88,1141.46,565.37,1140.61,565Zm17.71-5.21,5.4,5.41-1.3,8.07v0a.43.43,0,0,1,0,.05.12.12,0,0,1-.07,0,2.57,2.57,0,0,0-.78.38l0,0a.09.09,0,0,1,0,0h-.06l-8.24-3.5h0c-.05,0-.11-.05-.11-.11a3.15,3.15,0,0,0-.44-1.29c0-.07-.09-.13,0-.2ZM1152.75,572l7.72,3.27a.23.23,0,0,1,.11.08.11.11,0,0,1,0,.08,2.33,2.33,0,0,0,0,.38V576c0,.06-.06.08-.11.1h0c-1.22.52-17.17,7.32-17.2,7.32a.1.1,0,0,1-.07,0s0-.1,0-.16l0,0,6.34-9.82,0,0c0-.06.08-.13.14-.13h.07a2.75,2.75,0,0,0,2.79-1.23l0-.06A.17.17,0,0,1,1152.75,572Zm-8.85,13,17.39-7.42a.06.06,0,0,1,0,0l.26.21,0,0s.07,0,.08.08a0,0,0,0,1,0,0l-1.49,9.15v0c0,.07,0,.15-.09.15a2.45,2.45,0,0,0-1.94,1.2h0s0,.07-.07.08a.12.12,0,0,1-.1,0l-13.87-2.86S1143.92,585,1143.9,585Z" fill="#fff"/><line y1="534.19" x2="1200" y2="534.19" fill="none" stroke="#1c2126" stroke-miterlimit="10"/><path d="M24.24,594.45V575.69H17.85v-2.37H33.21v2.37H26.82v18.76Z" fill="#1c2126"/><path d="M44.08,594.89c-4.81,0-7.75-3.45-7.75-9.3v-3.41c0-5.85,2.94-9.3,7.75-9.3s7.74,3.45,7.74,9.3v3.41C51.82,591.44,48.88,594.89,44.08,594.89Zm5.14-9.31v-3.39c0-4.41-1.94-6.87-5.14-6.87s-5.15,2.46-5.15,6.87v3.39c0,4.41,1.94,6.87,5.15,6.87S49.22,590,49.22,585.58Z" fill="#1c2126"/><path d="M60,580.58a2.65,2.65,0,1,1,2.65,2.71A2.7,2.7,0,0,1,60,580.58Zm0,11.25a2.65,2.65,0,1,1,2.65,2.71A2.68,2.68,0,0,1,60,591.83Z" fill="#1c2126"/><circle cx="107.91" cy="583.15" r="31.98" fill="#1c2126"/><line x1="528.54" y1="533.72" x2="528.54" y2="630" fill="none" stroke="#1c2126" stroke-miterlimit="10"/><line x1="1104.08" y1="533.72" x2="1104.08" y2="630" fill="none" stroke="#1c2126" stroke-miterlimit="10"/><path d="M552,594.45V573.32h12.46v2.37h-9.87v7.25h9v2.3h-9v9.21Z" fill="#1c2126"/><path d="M572.06,586v8.42h-2.55V573.32h7.09c4.19,0,6.81,2.43,6.81,6.35a5.91,5.91,0,0,1-3.94,5.83l4.31,9h-2.92L576.92,586Zm0-2.18h4.19c2.91,0,4.55-1.48,4.55-4.12s-1.61-4.11-4.44-4.11h-4.3Z" fill="#1c2126"/><path d="M594.66,594.89c-4.8,0-7.75-3.45-7.75-9.3v-3.41c0-5.85,3-9.3,7.75-9.3s7.75,3.45,7.75,9.3v3.41C602.41,591.44,599.46,594.89,594.66,594.89Zm5.14-9.31v-3.39c0-4.41-1.93-6.87-5.14-6.87s-5.14,2.46-5.14,6.87v3.39c0,4.41,1.93,6.87,5.14,6.87S599.8,590,599.8,585.58Z" fill="#1c2126"/><path d="M607.89,594.45h-2.3V573.32h2.88l4.65,13.12h.19l4.61-13.12h2.9v21.13h-2.3v-8.11l.13-8.56h-.19l-4.24,11.71h-2L608,577.78h-.19l.13,8.56Z" fill="#1c2126"/><path d="M629.1,580.58a2.65,2.65,0,1,1,2.65,2.71A2.7,2.7,0,0,1,629.1,580.58Zm0,11.25a2.65,2.65,0,1,1,2.65,2.71A2.68,2.68,0,0,1,629.1,591.83Z" fill="#1c2126"/><circle cx="679.75" cy="583.15" r="31.98" fill="#1c2126"/><path d="M737.88,597a13.84,13.84,0,0,1-5-.86,10.63,10.63,0,0,1-3.84-2.45,10.9,10.9,0,0,1-2.47-3.85,14,14,0,0,1-.86-5,13.74,13.74,0,0,1,.89-5,11.12,11.12,0,0,1,2.58-3.91,11.78,11.78,0,0,1,4-2.53,13.85,13.85,0,0,1,5.07-.9,13.44,13.44,0,0,1,4.55.74,10.13,10.13,0,0,1,3.54,2.12,9.34,9.34,0,0,1,2.29,3.27,11,11,0,0,1,.8,4.26,11.44,11.44,0,0,1-.71,4.2,6.39,6.39,0,0,1-1.93,2.77,4.55,4.55,0,0,1-2.91,1,3.24,3.24,0,0,1-2.55-1,3.31,3.31,0,0,1-.73-2.61l.51.14a5.78,5.78,0,0,1-2,2.56,4.88,4.88,0,0,1-2.79.88,4.37,4.37,0,0,1-3.43-1.36,5.39,5.39,0,0,1-1.22-3.73,8.24,8.24,0,0,1,.8-3.69,6.29,6.29,0,0,1,2.2-2.52,5.78,5.78,0,0,1,3.19-.91,4.11,4.11,0,0,1,2.59.76,3.46,3.46,0,0,1,1.3,2.13h-.33l.48-2.64h1.84l-1.28,7.26c0,.24-.08.47-.1.7a4.55,4.55,0,0,0,0,.61,2,2,0,0,0,.43,1.4,1.66,1.66,0,0,0,1.3.48,2.73,2.73,0,0,0,2-.81,5.5,5.5,0,0,0,1.32-2.26,11,11,0,0,0,.47-3.37,9.37,9.37,0,0,0-.67-3.64,7.65,7.65,0,0,0-1.93-2.77,8.6,8.6,0,0,0-3-1.77,11.75,11.75,0,0,0-3.91-.61,11.94,11.94,0,0,0-4.41.77,9.7,9.7,0,0,0-3.38,2.18,9.4,9.4,0,0,0-2.17,3.4,12.26,12.26,0,0,0-.76,4.43,12,12,0,0,0,1.26,5.68,8.62,8.62,0,0,0,3.6,3.65,11.32,11.32,0,0,0,5.5,1.28,12.11,12.11,0,0,0,4.23-.71,8.21,8.21,0,0,0,3.13-2l.93,1.37a8.87,8.87,0,0,1-3.55,2.18A14.37,14.37,0,0,1,737.88,597Zm-1.34-7.84a3.8,3.8,0,0,0,2.29-.74,5,5,0,0,0,1.58-2.06,7.33,7.33,0,0,0,.58-3,3.52,3.52,0,0,0-.7-2.38,2.84,2.84,0,0,0-2.21-.78,4,4,0,0,0-2.31.7,4.65,4.65,0,0,0-1.61,1.93,6.44,6.44,0,0,0-.59,2.86,3.79,3.79,0,0,0,.77,2.57A2.72,2.72,0,0,0,736.54,589.18Z" fill="#1c2126"/><path d="M758.32,592.71a4,4,0,0,1-3.16-1.2,5.14,5.14,0,0,1-1.1-3.59v-7.76h-2.74V578.4h2.74v-3.84l2.27-.64v4.48h4v1.76h-4v7.51a3.81,3.81,0,0,0,.58,2.39,2.05,2.05,0,0,0,1.72.71,4,4,0,0,0,1-.1,4.43,4.43,0,0,0,.75-.23v1.9a4.71,4.71,0,0,1-.93.27A6.78,6.78,0,0,1,758.32,592.71Z" fill="#1c2126"/><path d="M763.13,592.45V571.84h2.27v9.66H765a4.67,4.67,0,0,1,2-2.5,6,6,0,0,1,3.21-.85A4.83,4.83,0,0,1,774,579.5a6,6,0,0,1,1.23,4.11v8.84h-2.27v-8.7a4.37,4.37,0,0,0-.76-2.86,3.11,3.11,0,0,0-2.48-.9,4.14,4.14,0,0,0-3.13,1.21,4.36,4.36,0,0,0-1.16,3.16v8.09Z" fill="#1c2126"/><path d="M779.26,575.21v-2.55h2.8v2.55Zm.28,17.24V578.4h2.27v14.05Z" fill="#1c2126"/><path d="M790.88,592.71a10.21,10.21,0,0,1-3.13-.47,6.46,6.46,0,0,1-2.41-1.3l.78-1.6a7,7,0,0,0,2.26,1.21,8.21,8.21,0,0,0,2.53.39,4.37,4.37,0,0,0,2.53-.6,1.93,1.93,0,0,0,.86-1.67,1.65,1.65,0,0,0-.55-1.3,4,4,0,0,0-1.78-.77l-2.6-.53a5.13,5.13,0,0,1-2.69-1.33,3.32,3.32,0,0,1-.89-2.4,3.75,3.75,0,0,1,.64-2.17,4.3,4.3,0,0,1,1.88-1.48,7.12,7.12,0,0,1,2.88-.54,8.38,8.38,0,0,1,2.84.46,5.72,5.72,0,0,1,2.17,1.33l-.81,1.56a5.53,5.53,0,0,0-1.92-1.21,6.28,6.28,0,0,0-2.22-.41,3.91,3.91,0,0,0-2.48.66,2.1,2.1,0,0,0-.83,1.72,1.78,1.78,0,0,0,.52,1.33,3.28,3.28,0,0,0,1.61.77l2.6.53a6,6,0,0,1,2.85,1.31,3.08,3.08,0,0,1,.93,2.36,3.57,3.57,0,0,1-.7,2.2,4.37,4.37,0,0,1-1.94,1.44A7.71,7.71,0,0,1,790.88,592.71Z" fill="#1c2126"/><path d="M799.9,585.71v-1.88h8v1.88Z" fill="#1c2126"/><path d="M811.8,575.21v-2.55h2.8v2.55Zm.28,17.24V578.4h2.27v14.05Z" fill="#1c2126"/><path d="M823.42,592.71a10.28,10.28,0,0,1-3.14-.47,6.54,6.54,0,0,1-2.41-1.3l.79-1.6a7,7,0,0,0,2.25,1.21,8.28,8.28,0,0,0,2.54.39,4.4,4.4,0,0,0,2.53-.6,1.93,1.93,0,0,0,.85-1.67,1.68,1.68,0,0,0-.54-1.3,4.06,4.06,0,0,0-1.78-.77l-2.6-.53a5.06,5.06,0,0,1-2.69-1.33,3.32,3.32,0,0,1-.9-2.4,3.82,3.82,0,0,1,.64-2.17,4.36,4.36,0,0,1,1.88-1.48,7.13,7.13,0,0,1,2.89-.54,8.42,8.42,0,0,1,2.84.46,5.72,5.72,0,0,1,2.17,1.33l-.81,1.56a5.53,5.53,0,0,0-1.92-1.21,6.29,6.29,0,0,0-2.23-.41,3.93,3.93,0,0,0-2.48.66,2.09,2.09,0,0,0-.82,1.72,1.78,1.78,0,0,0,.52,1.33,3.23,3.23,0,0,0,1.61.77l2.6.53a5.92,5.92,0,0,1,2.84,1.31,3.05,3.05,0,0,1,.94,2.36,3.57,3.57,0,0,1-.7,2.2,4.46,4.46,0,0,1-1.95,1.44A7.66,7.66,0,0,1,823.42,592.71Z" fill="#1c2126"/><path d="M832.43,585.71v-1.88h8v1.88Z" fill="#1c2126"/><path d="M850,592.71a6,6,0,0,1-3.27-.89,5.72,5.72,0,0,1-2.17-2.5,10.31,10.31,0,0,1,0-7.82,5.69,5.69,0,0,1,2.17-2.49,6,6,0,0,1,3.27-.86,5.62,5.62,0,0,1,3.29,1,4.47,4.47,0,0,1,1.83,2.62h-.33l.31-3.33h2.18c0,.54-.11,1.08-.15,1.64s-.07,1.08-.07,1.61v10.8h-2.27v-3.3h.31a4.47,4.47,0,0,1-1.85,2.6A5.61,5.61,0,0,1,850,592.71Zm.45-1.85a4,4,0,0,0,3.19-1.39,7.57,7.57,0,0,0,0-8.12,4.34,4.34,0,0,0-6.37,0,7.52,7.52,0,0,0,0,8.12A4,4,0,0,0,850.41,590.86Z" fill="#1c2126"/><path d="M861.22,585.71v-1.88h8v1.88Z" fill="#1c2126"/><path d="M873.4,592.45V571.84h2.27v20.61Z" fill="#1c2126"/><path d="M885.83,592.71a6.79,6.79,0,0,1-3.52-.89A5.89,5.89,0,0,1,880,589.3a9.72,9.72,0,0,1,0-7.77,6,6,0,0,1,2.31-2.5,7.52,7.52,0,0,1,7.06,0,6,6,0,0,1,2.32,2.5,9.51,9.51,0,0,1,0,7.77,5.85,5.85,0,0,1-2.32,2.52A6.84,6.84,0,0,1,885.83,592.71Zm0-1.85a4,4,0,0,0,3.19-1.39,7.57,7.57,0,0,0,0-8.12,4,4,0,0,0-3.19-1.39,3.93,3.93,0,0,0-3.16,1.39,7.57,7.57,0,0,0,0,8.12A3.9,3.9,0,0,0,885.83,590.86Z" fill="#1c2126"/><path d="M896.05,592.45v-10.8c0-.53,0-1.06-.07-1.61s-.1-1.1-.15-1.64H898l.28,3.08H898a4.83,4.83,0,0,1,2-2.48,5.76,5.76,0,0,1,3.15-.85,5,5,0,0,1,3.76,1.33,5.86,5.86,0,0,1,1.28,4.18v8.79h-2.27V583.8a4.37,4.37,0,0,0-.8-2.9,3.15,3.15,0,0,0-2.48-.91,4.09,4.09,0,0,0-3.11,1.21,4.48,4.48,0,0,0-1.14,3.22v8Z" fill="#1c2126"/><path d="M918.64,598.7a12,12,0,0,1-3.36-.45,8.75,8.75,0,0,1-2.77-1.37l.67-1.71a8.88,8.88,0,0,0,3.45,1.53,9.65,9.65,0,0,0,1.9.18,4.23,4.23,0,0,0,3.14-1.09,4.28,4.28,0,0,0,1.06-3.11v-4.12H923a4.5,4.5,0,0,1-1.85,2.62,5.63,5.63,0,0,1-3.27,1,6.35,6.35,0,0,1-3.35-.86,5.66,5.66,0,0,1-2.18-2.43,8.41,8.41,0,0,1-.77-3.74,8.23,8.23,0,0,1,.77-3.7,5.7,5.7,0,0,1,2.18-2.42,6.34,6.34,0,0,1,3.35-.85,5.64,5.64,0,0,1,3.29,1,4.49,4.49,0,0,1,1.83,2.63l-.28-.28.25-3.05h2.22c-.08.54-.13,1.08-.17,1.64s-.06,1.08-.06,1.61v10.72a5.64,5.64,0,0,1-6.33,6.33Zm-.33-8.4a4.07,4.07,0,0,0,3.22-1.36,5.68,5.68,0,0,0,1.17-3.82,5.62,5.62,0,0,0-1.17-3.81,4.52,4.52,0,0,0-6.44,0,5.53,5.53,0,0,0-1.21,3.81,5.59,5.59,0,0,0,1.21,3.82A4.1,4.1,0,0,0,918.31,590.3Z" fill="#1c2126"/><path d="M929.14,585.71v-1.88h8v1.88Z" fill="#1c2126"/><path d="M946.28,592.71a4.89,4.89,0,0,1-3.77-1.38,6,6,0,0,1-1.27-4.2V578.4h2.27v8.68a4.3,4.3,0,0,0,.78,2.84,3,3,0,0,0,2.44.91,3.86,3.86,0,0,0,3-1.22,4.57,4.57,0,0,0,1.12-3.2v-8h2.26v14.05h-2.21v-3.16h.37a5.16,5.16,0,0,1-1.89,2.52A5.27,5.27,0,0,1,946.28,592.71Z" fill="#1c2126"/><path d="M962.16,592.71a10.28,10.28,0,0,1-3.14-.47,6.54,6.54,0,0,1-2.41-1.3l.79-1.6a7,7,0,0,0,2.25,1.21,8.26,8.26,0,0,0,2.53.39,4.43,4.43,0,0,0,2.54-.6,1.93,1.93,0,0,0,.85-1.67,1.68,1.68,0,0,0-.54-1.3,4.06,4.06,0,0,0-1.78-.77l-2.61-.53a5.06,5.06,0,0,1-2.68-1.33,3.32,3.32,0,0,1-.9-2.4,3.82,3.82,0,0,1,.64-2.17,4.36,4.36,0,0,1,1.88-1.48,7.12,7.12,0,0,1,2.88-.54,8.43,8.43,0,0,1,2.85.46,5.8,5.8,0,0,1,2.17,1.33l-.81,1.56a5.72,5.72,0,0,0-1.92-1.21,6.29,6.29,0,0,0-2.23-.41,3.93,3.93,0,0,0-2.48.66,2.09,2.09,0,0,0-.82,1.72,1.81,1.81,0,0,0,.51,1.33,3.32,3.32,0,0,0,1.61.77l2.61.53a5.92,5.92,0,0,1,2.84,1.31,3.05,3.05,0,0,1,.94,2.36,3.57,3.57,0,0,1-.7,2.2,4.46,4.46,0,0,1-1.95,1.44A7.66,7.66,0,0,1,962.16,592.71Z" fill="#1c2126"/><path d="M977.61,592.71a7.93,7.93,0,0,1-3.78-.86,5.91,5.91,0,0,1-2.46-2.49,8.24,8.24,0,0,1-.87-3.91,8.37,8.37,0,0,1,.84-3.85,6.23,6.23,0,0,1,2.35-2.55,6.67,6.67,0,0,1,3.47-.9,6.1,6.1,0,0,1,3.25.81,5.25,5.25,0,0,1,2,2.31,8.4,8.4,0,0,1,.7,3.54v.84H972.24v-1.43h9.4l-.47.36a5.48,5.48,0,0,0-1-3.5,3.63,3.63,0,0,0-3-1.25,4,4,0,0,0-3.93,2.54,7.24,7.24,0,0,0-.52,2.89v.25a5.6,5.6,0,0,0,1.3,4,4.86,4.86,0,0,0,3.66,1.36,7.25,7.25,0,0,0,2.36-.38,6.37,6.37,0,0,0,2.12-1.25l.78,1.6a6,6,0,0,1-2.34,1.38A8.92,8.92,0,0,1,977.61,592.71Z" fill="#1c2126"/><path d="M986.54,592.45V581.79c0-.56,0-1.13,0-1.71s-.07-1.14-.12-1.68h2.18l.28,3.41-.39,0a4.54,4.54,0,0,1,1-2.07,4.47,4.47,0,0,1,1.65-1.22,5,5,0,0,1,2-.4c.28,0,.52,0,.74,0a2.39,2.39,0,0,1,.6.14l0,2a3.53,3.53,0,0,0-.77-.18,6.31,6.31,0,0,0-.79,0,3.89,3.89,0,0,0-2.15.58,3.85,3.85,0,0,0-1.37,1.52,4.25,4.25,0,0,0-.46,2v8.28Z" fill="#1c2126"/><path d="M996.76,592.45v-10.8c0-.53,0-1.06-.07-1.61s-.1-1.1-.15-1.64h2.18l.28,3.08h-.33a4.86,4.86,0,0,1,2-2.48,5.81,5.81,0,0,1,3.15-.85,5,5,0,0,1,3.77,1.33,5.86,5.86,0,0,1,1.27,4.18v8.79h-2.27V583.8a4.31,4.31,0,0,0-.8-2.9,3.13,3.13,0,0,0-2.47-.91,4.06,4.06,0,0,0-3.11,1.21,4.44,4.44,0,0,0-1.15,3.22v8Z" fill="#1c2126"/><path d="M1018.52,592.71a6,6,0,0,1-3.28-.89,5.85,5.85,0,0,1-2.17-2.5,10.31,10.31,0,0,1,0-7.82,5.82,5.82,0,0,1,2.17-2.49,6.11,6.11,0,0,1,3.28-.86,5.64,5.64,0,0,1,3.29,1,4.56,4.56,0,0,1,1.83,2.62h-.33l.31-3.33h2.18c-.06.54-.11,1.08-.16,1.64s-.06,1.08-.06,1.61v10.8h-2.27v-3.3h.31a4.47,4.47,0,0,1-1.85,2.6A5.63,5.63,0,0,1,1018.52,592.71Zm.45-1.85a4,4,0,0,0,3.19-1.39,7.63,7.63,0,0,0,0-8.12,4.34,4.34,0,0,0-6.37,0,7.52,7.52,0,0,0,0,8.12A4,4,0,0,0,1019,590.86Z" fill="#1c2126"/><path d="M1030,592.45v-10.8c0-.53,0-1.06-.07-1.61s-.1-1.1-.15-1.64h2.18l.28,3.08h-.33a4.9,4.9,0,0,1,1.77-2.47,5,5,0,0,1,3-.86,4.57,4.57,0,0,1,2.87.84,4.26,4.26,0,0,1,1.49,2.6h-.42a4.92,4.92,0,0,1,1.88-2.52,5.38,5.38,0,0,1,3.14-.92,4.42,4.42,0,0,1,3.5,1.33,6.21,6.21,0,0,1,1.17,4.18v8.79H1048V583.8a4.78,4.78,0,0,0-.7-2.9A2.65,2.65,0,0,0,1045,580a3.45,3.45,0,0,0-2.79,1.22,4.91,4.91,0,0,0-1,3.26v8H1039V583.8a4.78,4.78,0,0,0-.7-2.9A2.68,2.68,0,0,0,1036,580a3.4,3.4,0,0,0-2.77,1.22,5,5,0,0,0-1,3.26v8Z" fill="#1c2126"/><path d="M1060.8,592.71a7.87,7.87,0,0,1-3.78-.86,5.93,5.93,0,0,1-2.47-2.49,9.28,9.28,0,0,1,0-7.76,6.23,6.23,0,0,1,2.35-2.55,6.65,6.65,0,0,1,3.47-.9,6.1,6.1,0,0,1,3.25.81,5.25,5.25,0,0,1,2,2.31,8.41,8.41,0,0,1,.69,3.54v.84h-10.89v-1.43h9.41l-.48.36a5.48,5.48,0,0,0-1-3.5,3.64,3.64,0,0,0-3-1.25,4,4,0,0,0-3.93,2.54,7.24,7.24,0,0,0-.52,2.89v.25a5.56,5.56,0,0,0,1.3,4,4.85,4.85,0,0,0,3.65,1.36,7.36,7.36,0,0,0,2.37-.38,6.33,6.33,0,0,0,2.11-1.25l.79,1.6a6.16,6.16,0,0,1-2.34,1.38A9,9,0,0,1,1060.8,592.71Z" fill="#1c2126"/><path d="M167.16,597a13.84,13.84,0,0,1-5-.86,10.71,10.71,0,0,1-3.84-2.45,10.88,10.88,0,0,1-2.46-3.85,13.81,13.81,0,0,1-.87-5,13.54,13.54,0,0,1,.9-5,11,11,0,0,1,2.57-3.91,11.82,11.82,0,0,1,4-2.53,13.78,13.78,0,0,1,5.07-.9,13.49,13.49,0,0,1,4.55.74,10.32,10.32,0,0,1,3.54,2.12,9.19,9.19,0,0,1,2.28,3.27,11,11,0,0,1,.8,4.26,11.66,11.66,0,0,1-.7,4.2,6.47,6.47,0,0,1-1.93,2.77,4.58,4.58,0,0,1-2.92,1,3.2,3.2,0,0,1-2.54-1,3.31,3.31,0,0,1-.73-2.61l.5.14a5.71,5.71,0,0,1-2,2.56,4.85,4.85,0,0,1-2.78.88,4.34,4.34,0,0,1-3.43-1.36,5.34,5.34,0,0,1-1.22-3.73,8.11,8.11,0,0,1,.8-3.69,6.27,6.27,0,0,1,2.19-2.52,5.81,5.81,0,0,1,3.2-.91,4.15,4.15,0,0,1,2.59.76,3.55,3.55,0,0,1,1.3,2.13h-.34l.48-2.64H173l-1.29,7.26c0,.24-.07.47-.1.7a4.55,4.55,0,0,0,0,.61,2,2,0,0,0,.43,1.4,1.68,1.68,0,0,0,1.3.48,2.73,2.73,0,0,0,2-.81,5.5,5.5,0,0,0,1.32-2.26,10.66,10.66,0,0,0,.48-3.37,9.37,9.37,0,0,0-.68-3.64,7.53,7.53,0,0,0-1.93-2.77,8.6,8.6,0,0,0-3-1.77,11.69,11.69,0,0,0-3.9-.61,11.87,11.87,0,0,0-4.41.77,9.65,9.65,0,0,0-3.39,2.18,9.53,9.53,0,0,0-2.17,3.4,12.26,12.26,0,0,0-.76,4.43,12,12,0,0,0,1.26,5.68,8.62,8.62,0,0,0,3.6,3.65,11.32,11.32,0,0,0,5.5,1.28,12.11,12.11,0,0,0,4.23-.71,8.25,8.25,0,0,0,3.14-2l.92,1.37a8.83,8.83,0,0,1-3.54,2.18A14.47,14.47,0,0,1,167.16,597Zm-1.34-7.84a3.78,3.78,0,0,0,2.29-.74,5,5,0,0,0,1.59-2.06,7.5,7.5,0,0,0,.57-3,3.47,3.47,0,0,0-.7-2.38,2.83,2.83,0,0,0-2.21-.78,4,4,0,0,0-2.31.7,4.73,4.73,0,0,0-1.61,1.93,6.58,6.58,0,0,0-.59,2.86,3.85,3.85,0,0,0,.77,2.57A2.74,2.74,0,0,0,165.82,589.18Z" fill="#1c2126"/><path d="M187.6,592.71a4.06,4.06,0,0,1-3.16-1.2,5.14,5.14,0,0,1-1.09-3.59v-7.76H180.6V578.4h2.75v-3.84l2.26-.64v4.48h4v1.76h-4v7.51a3.88,3.88,0,0,0,.58,2.39,2.05,2.05,0,0,0,1.72.71,4,4,0,0,0,1-.1,4.87,4.87,0,0,0,.76-.23v1.9a4.82,4.82,0,0,1-.94.27A6.57,6.57,0,0,1,187.6,592.71Z" fill="#1c2126"/><path d="M192.42,592.45V571.84h2.27v9.66h-.37a4.65,4.65,0,0,1,2-2.5,6,6,0,0,1,3.2-.85,4.83,4.83,0,0,1,3.75,1.35,5.92,5.92,0,0,1,1.24,4.11v8.84h-2.27v-8.7a4.37,4.37,0,0,0-.77-2.86A3.11,3.11,0,0,0,199,580a4.1,4.1,0,0,0-3.12,1.21,4.32,4.32,0,0,0-1.16,3.16v8.09Z" fill="#1c2126"/><path d="M208.55,575.21v-2.55h2.8v2.55Zm.28,17.24V578.4h2.26v14.05Z" fill="#1c2126"/><path d="M220.17,592.71a10.23,10.23,0,0,1-3.14-.47,6.54,6.54,0,0,1-2.41-1.3l.79-1.6a7,7,0,0,0,2.25,1.21,8.26,8.26,0,0,0,2.53.39,4.43,4.43,0,0,0,2.54-.6,1.93,1.93,0,0,0,.85-1.67,1.68,1.68,0,0,0-.54-1.3,4.06,4.06,0,0,0-1.78-.77l-2.61-.53a5.06,5.06,0,0,1-2.68-1.33,3.32,3.32,0,0,1-.9-2.4,3.75,3.75,0,0,1,.64-2.17,4.36,4.36,0,0,1,1.88-1.48,7.12,7.12,0,0,1,2.88-.54,8.43,8.43,0,0,1,2.85.46,5.8,5.8,0,0,1,2.17,1.33l-.82,1.56a5.53,5.53,0,0,0-1.92-1.21,6.24,6.24,0,0,0-2.22-.41,3.93,3.93,0,0,0-2.48.66,2.09,2.09,0,0,0-.82,1.72,1.81,1.81,0,0,0,.51,1.33,3.28,3.28,0,0,0,1.61.77l2.61.53a6,6,0,0,1,2.84,1.31,3.09,3.09,0,0,1,.94,2.36,3.63,3.63,0,0,1-.7,2.2,4.46,4.46,0,0,1-1.95,1.44A7.66,7.66,0,0,1,220.17,592.71Z" fill="#1c2126"/><path d="M229.18,585.71v-1.88h8v1.88Z" fill="#1c2126"/><path d="M241.08,575.21v-2.55h2.8v2.55Zm.28,17.24V578.4h2.27v14.05Z" fill="#1c2126"/><path d="M252.7,592.71a10.32,10.32,0,0,1-3.14-.47,6.42,6.42,0,0,1-2.4-1.3l.78-1.6a7,7,0,0,0,2.25,1.21,8.32,8.32,0,0,0,2.54.39,4.4,4.4,0,0,0,2.53-.6,1.93,1.93,0,0,0,.86-1.67,1.68,1.68,0,0,0-.55-1.3,4,4,0,0,0-1.78-.77l-2.6-.53a5.09,5.09,0,0,1-2.69-1.33,3.32,3.32,0,0,1-.9-2.4,3.75,3.75,0,0,1,.65-2.17,4.33,4.33,0,0,1,1.87-1.48,7.2,7.2,0,0,1,2.89-.54,8.38,8.38,0,0,1,2.84.46,5.72,5.72,0,0,1,2.17,1.33l-.81,1.56a5.53,5.53,0,0,0-1.92-1.21,6.29,6.29,0,0,0-2.23-.41,3.89,3.89,0,0,0-2.47.66,2.1,2.1,0,0,0-.83,1.72,1.78,1.78,0,0,0,.52,1.33,3.23,3.23,0,0,0,1.61.77l2.6.53a5.92,5.92,0,0,1,2.84,1.31,3.05,3.05,0,0,1,.94,2.36,3.57,3.57,0,0,1-.7,2.2,4.37,4.37,0,0,1-1.94,1.44A7.71,7.71,0,0,1,252.7,592.71Z" fill="#1c2126"/><path d="M261.72,585.71v-1.88h8v1.88Z" fill="#1c2126"/><path d="M279.24,592.71a6,6,0,0,1-3.27-.89,5.78,5.78,0,0,1-2.17-2.5,10.31,10.31,0,0,1,0-7.82A5.75,5.75,0,0,1,276,579a6,6,0,0,1,3.27-.86,5.62,5.62,0,0,1,3.29,1,4.53,4.53,0,0,1,1.84,2.62H284l.31-3.33h2.18c0,.54-.1,1.08-.15,1.64s-.07,1.08-.07,1.61v10.8H284v-3.3h.31a4.42,4.42,0,0,1-1.85,2.6A5.58,5.58,0,0,1,279.24,592.71Zm.45-1.85a3.94,3.94,0,0,0,3.19-1.39,7.57,7.57,0,0,0,0-8.12,4,4,0,0,0-3.19-1.39,4,4,0,0,0-3.18,1.39,7.52,7.52,0,0,0,0,8.12A4,4,0,0,0,279.69,590.86Z" fill="#1c2126"/><path d="M290.5,585.71v-1.88h8v1.88Z" fill="#1c2126"/><path d="M302.68,592.45V571.84H305v20.61Z" fill="#1c2126"/><path d="M315.11,592.71a6.78,6.78,0,0,1-3.51-.89,5.77,5.77,0,0,1-2.31-2.52,9.72,9.72,0,0,1,0-7.77,5.89,5.89,0,0,1,2.31-2.5,7.5,7.5,0,0,1,7,0,6,6,0,0,1,2.33,2.5,9.61,9.61,0,0,1,0,7.77,5.87,5.87,0,0,1-2.33,2.52A6.82,6.82,0,0,1,315.11,592.71Zm0-1.85a3.94,3.94,0,0,0,3.19-1.39,7.57,7.57,0,0,0,0-8.12,4.32,4.32,0,0,0-6.35,0,7.57,7.57,0,0,0,0,8.12A3.92,3.92,0,0,0,315.11,590.86Z" fill="#1c2126"/><path d="M325.33,592.45v-10.8c0-.53,0-1.06-.07-1.61s-.1-1.1-.15-1.64h2.18l.28,3.08h-.33a4.81,4.81,0,0,1,2-2.48,5.81,5.81,0,0,1,3.15-.85,5,5,0,0,1,3.77,1.33,5.86,5.86,0,0,1,1.27,4.18v8.79h-2.27V583.8a4.31,4.31,0,0,0-.8-2.9,3.13,3.13,0,0,0-2.47-.91,4.06,4.06,0,0,0-3.11,1.21,4.44,4.44,0,0,0-1.15,3.22v8Z" fill="#1c2126"/><path d="M347.93,598.7a11.87,11.87,0,0,1-3.36-.45,8.8,8.8,0,0,1-2.78-1.37l.68-1.71a8.92,8.92,0,0,0,3.44,1.53,9.68,9.68,0,0,0,1.91.18,4.21,4.21,0,0,0,3.13-1.09,4.28,4.28,0,0,0,1.07-3.11v-4.12h.27a4.48,4.48,0,0,1-1.84,2.62,5.69,5.69,0,0,1-3.28,1,6.31,6.31,0,0,1-3.34-.86,5.62,5.62,0,0,1-2.19-2.43,8.55,8.55,0,0,1-.77-3.74,8.37,8.37,0,0,1,.77-3.7,5.65,5.65,0,0,1,2.19-2.42,6.31,6.31,0,0,1,3.34-.85,5.62,5.62,0,0,1,3.29,1,4.4,4.4,0,0,1,1.83,2.63l-.27-.28.25-3.05h2.21c-.08.54-.13,1.08-.17,1.64s-.06,1.08-.06,1.61v10.72a5.63,5.63,0,0,1-6.32,6.33Zm-.34-8.4a4.05,4.05,0,0,0,3.22-1.36,5.63,5.63,0,0,0,1.18-3.82,5.57,5.57,0,0,0-1.18-3.81,4,4,0,0,0-3.22-1.35,4.1,4.1,0,0,0-3.22,1.35,5.53,5.53,0,0,0-1.2,3.81,5.59,5.59,0,0,0,1.2,3.82A4.11,4.11,0,0,0,347.59,590.3Z" fill="#1c2126"/><path d="M358.43,585.71v-1.88h8v1.88Z" fill="#1c2126"/><path d="M375.56,592.71a4.86,4.86,0,0,1-3.76-1.38,6,6,0,0,1-1.28-4.2V578.4h2.27v8.68a4.24,4.24,0,0,0,.79,2.84,3,3,0,0,0,2.43.91,3.86,3.86,0,0,0,3-1.22,4.53,4.53,0,0,0,1.12-3.2v-8h2.27v14.05h-2.21v-3.16h.36a5,5,0,0,1-1.89,2.52A5.27,5.27,0,0,1,375.56,592.71Z" fill="#1c2126"/><path d="M391.44,592.71a10.28,10.28,0,0,1-3.14-.47,6.42,6.42,0,0,1-2.4-1.3l.78-1.6a7,7,0,0,0,2.25,1.21,8.32,8.32,0,0,0,2.54.39,4.4,4.4,0,0,0,2.53-.6,1.93,1.93,0,0,0,.86-1.67,1.68,1.68,0,0,0-.55-1.3,4,4,0,0,0-1.78-.77l-2.6-.53a5.09,5.09,0,0,1-2.69-1.33,3.32,3.32,0,0,1-.9-2.4,3.75,3.75,0,0,1,.65-2.17,4.33,4.33,0,0,1,1.87-1.48,7.17,7.17,0,0,1,2.89-.54,8.42,8.42,0,0,1,2.84.46,5.72,5.72,0,0,1,2.17,1.33L396,581.5a5.53,5.53,0,0,0-1.92-1.21,6.29,6.29,0,0,0-2.23-.41,3.89,3.89,0,0,0-2.47.66,2.1,2.1,0,0,0-.83,1.72,1.78,1.78,0,0,0,.52,1.33,3.23,3.23,0,0,0,1.61.77l2.6.53a5.92,5.92,0,0,1,2.84,1.31,3.05,3.05,0,0,1,.94,2.36,3.57,3.57,0,0,1-.7,2.2,4.43,4.43,0,0,1-1.94,1.44A7.71,7.71,0,0,1,391.44,592.71Z" fill="#1c2126"/><path d="M406.89,592.71a7.93,7.93,0,0,1-3.78-.86,5.91,5.91,0,0,1-2.46-2.49,8.24,8.24,0,0,1-.87-3.91,8.37,8.37,0,0,1,.84-3.85,6.3,6.3,0,0,1,2.35-2.55,6.68,6.68,0,0,1,3.48-.9,6.06,6.06,0,0,1,3.24.81,5.25,5.25,0,0,1,2,2.31,8.25,8.25,0,0,1,.7,3.54v.84H401.52v-1.43h9.41l-.48.36a5.48,5.48,0,0,0-1-3.5,3.62,3.62,0,0,0-3-1.25,4,4,0,0,0-3.94,2.54,7.42,7.42,0,0,0-.52,2.89v.25a5.56,5.56,0,0,0,1.31,4,4.82,4.82,0,0,0,3.65,1.36,7.36,7.36,0,0,0,2.37-.38,6.43,6.43,0,0,0,2.11-1.25l.78,1.6a6,6,0,0,1-2.33,1.38A9,9,0,0,1,406.89,592.71Z" fill="#1c2126"/><path d="M415.83,592.45V581.79c0-.56,0-1.13,0-1.71s-.08-1.14-.13-1.68h2.18l.28,3.41-.39,0a4.64,4.64,0,0,1,1-2.07,4.55,4.55,0,0,1,1.65-1.22,5.05,5.05,0,0,1,2-.4c.28,0,.53,0,.74,0a2.36,2.36,0,0,1,.61.14l0,2a3.67,3.67,0,0,0-.77-.18,6.48,6.48,0,0,0-.8,0,3.85,3.85,0,0,0-2.14.58,3.8,3.8,0,0,0-1.38,1.52,4.38,4.38,0,0,0-.46,2v8.28Z" fill="#1c2126"/><path d="M426.05,592.45v-10.8c0-.53,0-1.06-.07-1.61s-.1-1.1-.16-1.64H428l.28,3.08H428a4.86,4.86,0,0,1,2-2.48,5.81,5.81,0,0,1,3.15-.85,5,5,0,0,1,3.77,1.33,5.86,5.86,0,0,1,1.27,4.18v8.79h-2.26V583.8a4.37,4.37,0,0,0-.8-2.9,3.15,3.15,0,0,0-2.48-.91,4.08,4.08,0,0,0-3.11,1.21,4.48,4.48,0,0,0-1.15,3.22v8Z" fill="#1c2126"/><path d="M447.8,592.71a6,6,0,0,1-3.27-.89,5.72,5.72,0,0,1-2.17-2.5,10.31,10.31,0,0,1,0-7.82,5.69,5.69,0,0,1,2.17-2.49,6,6,0,0,1,3.27-.86,5.62,5.62,0,0,1,3.29,1,4.53,4.53,0,0,1,1.84,2.62h-.34l.31-3.33h2.18c-.05.54-.11,1.08-.15,1.64s-.07,1.08-.07,1.61v10.8h-2.27v-3.3h.31a4.47,4.47,0,0,1-1.85,2.6A5.61,5.61,0,0,1,447.8,592.71Zm.45-1.85a4,4,0,0,0,3.19-1.39,7.57,7.57,0,0,0,0-8.12,4.34,4.34,0,0,0-6.37,0,7.52,7.52,0,0,0,0,8.12A4,4,0,0,0,448.25,590.86Z" fill="#1c2126"/><path d="M459.25,592.45v-10.8c0-.53,0-1.06-.07-1.61s-.09-1.1-.15-1.64h2.18l.28,3.08h-.33a4.86,4.86,0,0,1,1.78-2.47,4.92,4.92,0,0,1,2.95-.86,4.55,4.55,0,0,1,2.87.84,4.23,4.23,0,0,1,1.5,2.6h-.42a4.85,4.85,0,0,1,1.87-2.52,5.4,5.4,0,0,1,3.14-.92,4.41,4.41,0,0,1,3.5,1.33,6.21,6.21,0,0,1,1.18,4.18v8.79h-2.27V583.8a4.85,4.85,0,0,0-.7-2.9,2.68,2.68,0,0,0-2.24-.91,3.45,3.45,0,0,0-2.79,1.22,4.91,4.91,0,0,0-1,3.26v8h-2.27V583.8a4.78,4.78,0,0,0-.7-2.9,2.65,2.65,0,0,0-2.24-.91,3.41,3.41,0,0,0-2.77,1.22,5,5,0,0,0-1,3.26v8Z" fill="#1c2126"/><path d="M490.08,592.71a7.93,7.93,0,0,1-3.78-.86,5.91,5.91,0,0,1-2.46-2.49,8.24,8.24,0,0,1-.87-3.91,8.37,8.37,0,0,1,.84-3.85,6.23,6.23,0,0,1,2.35-2.55,6.67,6.67,0,0,1,3.47-.9,6.1,6.1,0,0,1,3.25.81,5.25,5.25,0,0,1,2,2.31,8.4,8.4,0,0,1,.7,3.54v.84H484.71v-1.43h9.4l-.47.36a5.48,5.48,0,0,0-1-3.5,3.63,3.63,0,0,0-3-1.25,4,4,0,0,0-3.93,2.54,7.24,7.24,0,0,0-.52,2.89v.25a5.6,5.6,0,0,0,1.3,4,4.86,4.86,0,0,0,3.66,1.36,7.25,7.25,0,0,0,2.36-.38,6.37,6.37,0,0,0,2.12-1.25l.78,1.6a6,6,0,0,1-2.34,1.38A8.92,8.92,0,0,1,490.08,592.71Z" fill="#1c2126"/></svg>