<svg xmlns="http://www.w3.org/2000/svg" xmlns:xlink="http://www.w3.org/1999/xlink" width="1200" height="630" viewBox="0 0 1200 630"><defs><clipPath id="a"><rect width="1200" height="498.72" fill="none"/></clipPath><clipPath id="b"><rect x="1220" width="1200" height="498.72" fill="none"/></clipPath><radialGradient id="c" cx="1097.44" cy="565" r="111.35" gradientUnits="userSpaceOnUse"><stop offset="0" stop-color="#20c6b7"/><stop offset="1" stop-color="#4d9abf"/></radialGradient></defs><rect x="-1290.07" y="-89.85" width="6221.73" height="2273.11" fill="#a6a6a6"/><rect width="1200" height="498.72" fill="#ffb916"/><path d="M109,129.81v23.7H93.82V130L69.67,84.86H86.13l15.56,28.76,15.47-28.76h16Z" fill="#1c2126"/><path d="M177.67,128.28c0,15.1-9.68,26.5-26.59,26.5s-26.69-11.4-26.69-26.5,9.68-26.51,26.69-26.51S177.67,113.17,177.67,128.28Zm-38.53,0c0,8.32,4.61,13.65,11.94,13.65s11.85-5.33,11.85-13.65-4.52-13.66-11.85-13.66S139.14,120,139.14,128.28Z" fill="#1c2126"/><path d="M230.58,103v50.56H216.47v-5.43c-2.8,4-7.68,6.7-13.84,6.7-11.12,0-18.36-8.32-18.36-23.25V103h14.11v26c0,7.69,3.53,12,9,12s9.13-4.61,9.13-11.94V103Z" fill="#1c2126"/><path d="M252.83,91.91c0,7.33-3.7,12.76-12.21,15.47l-1.9.63-2.17-6.69,1.9-.54c4-1.18,6.06-2.9,6.88-5.52a10.2,10.2,0,0,1-1.72.18c-4.71,0-7.69-3.35-7.69-7.24,0-4.34,3.16-7.5,8-7.5C249.49,80.7,252.83,85.13,252.83,91.91Z" fill="#1c2126"/><path d="M289.29,101.77v14.84h-5.7c-8.32,0-12.12,4-12.12,12.57v24.33H257.36V103h14.11v6.87C274.63,104.85,280.51,101.77,289.29,101.77Z" fill="#1c2126"/><path d="M344.37,132.44H307c.73,6.06,4.8,10.22,11.49,10.22,5,0,8.32-1.63,9.86-4.52h15c-2.9,9.49-12.13,16.28-25.06,16.28-15.83,0-26.23-10.41-26.23-26.14S302.31,102,318.23,102s26.14,10.32,26.14,26.05Zm-37.18-9.68h22.26c-1-5.7-5.43-9-11.22-9A11.1,11.1,0,0,0,307.19,122.76Z" fill="#1c2126"/><path d="M462.14,124.93v28.58H448V127.37c0-8.32-3.35-12.66-8.69-12.66-5.15,0-8.68,4.7-8.68,12.57v26.23H416.55V127.37c0-8.32-3.35-12.66-8.69-12.66-5.15,0-8.68,4.7-8.68,12.57v26.23H385.07V103h14.11v5.52a15.18,15.18,0,0,1,13.12-6.7c6.51,0,11.66,2.72,14.92,8a17.79,17.79,0,0,1,15.29-8C454.36,101.77,462.14,110.64,462.14,124.93Z" fill="#1c2126"/><path d="M518.84,103l-28,67.21H477.15l7.77-18.55L465.21,103h14.2l12.66,31.48L505.19,103Z" fill="#1c2126"/><path d="M94.18,205.34v6.15h10.59v11.94H94.18v38.62H80.07V223.43H71.93V211.49h8.14v-6.06c0-9.86,5.88-16,16.28-16h9.86v10.94h-7C95.81,200.36,94.18,202.08,94.18,205.34Z" fill="#1c2126"/><path d="M155.69,233.2v28.85H141.58v-5.52c-3.53,4.07-9,6.43-16.46,6.43-10.59,0-17.19-5.34-17.19-14.11,0-8,5.25-14,18.45-16.29l15.2-2.53c0-4.88-3.08-7.69-8.77-7.69-5.52,0-8.14,2.35-8.51,6.24H110c.27-9.31,7.87-18,22.8-18C147.37,210.58,155.69,218.72,155.69,233.2Zm-14.11,7.59v-.72L130,242c-6.06,1-7.6,3.08-7.6,5.7,0,2.26,2.18,3.89,6.25,3.89C136.42,251.56,141.58,247.22,141.58,240.79Z" fill="#1c2126"/><path d="M213.13,211.49l-18.46,50.56h-17l-18.54-50.56h14.92l12.21,35.73,12.21-35.73Z" fill="#1c2126"/><path d="M267.67,236.81c0,15.11-9.68,26.51-26.6,26.51s-26.68-11.4-26.68-26.51,9.68-26.5,26.68-26.5S267.67,221.71,267.67,236.81Zm-38.54,0c0,8.33,4.62,13.66,11.94,13.66s11.85-5.33,11.85-13.66-4.52-13.65-11.85-13.65S229.13,228.49,229.13,236.81Z" fill="#1c2126"/><path d="M307.37,210.31v14.84h-5.7c-8.32,0-12.12,4-12.12,12.57v24.33H275.44V211.49h14.11v6.87C292.72,213.39,298.6,210.31,307.37,210.31Z" fill="#1c2126"/><path d="M330.17,197.2a8.46,8.46,0,1,1-16.92,0c0-4.71,3.17-8.51,8.41-8.51A8.17,8.17,0,0,1,330.17,197.2Zm-1.36,13.11v51.74H314.7V210.31a11.46,11.46,0,0,0,7.05,2.08A11.28,11.28,0,0,0,328.81,210.31Z" fill="#1c2126"/><path d="M372,223.43H361v38.62H346.9V223.43h-9.5V211.49h9.5V195.57H361v15.92H372Z" fill="#1c2126"/><path d="M426.86,241H389.5c.72,6.06,4.79,10.22,11.49,10.22,5,0,8.32-1.63,9.86-4.53h15C423,256.17,413.74,263,400.81,263c-15.83,0-26.23-10.41-26.23-26.15s10.22-26.23,26.14-26.23,26.14,10.31,26.14,26Zm-37.18-9.68h22.25c-1-5.7-5.43-9-11.21-9A11.1,11.1,0,0,0,389.68,231.3Z" fill="#1c2126"/><path d="M124.31,298.68v71.91H110.19v-6c-3.34,4.52-8.59,7.24-15.64,7.24-13.12,0-22.35-9.41-22.35-26.51s9.23-26.5,22.35-26.5c7,0,12.3,2.71,15.64,7.15V298.68ZM110.19,345c0-8.95-4.7-14-11.57-14S87,336.13,87,345s4.88,14,11.67,14S110.19,354,110.19,345Z" fill="#1c2126"/><path d="M183.73,349.51H146.37c.73,6.06,4.8,10.23,11.49,10.23,5,0,8.32-1.63,9.86-4.53h15c-2.9,9.5-12.13,16.28-25.06,16.28-15.83,0-26.23-10.4-26.23-26.14s10.22-26.23,26.14-26.23,26.14,10.31,26.14,26.05Zm-37.18-9.68h22.26c-1-5.69-5.43-8.95-11.22-8.95A11.1,11.1,0,0,0,146.55,339.83Z" fill="#1c2126"/><path d="M245.24,345.35c0,17.1-9.23,26.51-22.35,26.51-7,0-12.3-2.72-15.64-7.24v23.16H193.13V320h14.12v6c3.34-4.44,8.59-7.15,15.64-7.15C236,318.85,245.24,328.17,245.24,345.35Zm-14.75.27c0-8.77-4.88-14-11.67-14s-11.57,5.16-11.57,14c0,9.05,4.7,14.12,11.57,14.12S230.49,354.49,230.49,345.62Z" fill="#1c2126"/><path d="M302.67,349.51H265.31c.73,6.06,4.8,10.23,11.49,10.23,5,0,8.32-1.63,9.86-4.53h15c-2.9,9.5-12.12,16.28-25.06,16.28-15.83,0-26.23-10.4-26.23-26.14s10.22-26.23,26.14-26.23,26.14,10.31,26.14,26.05Zm-37.17-9.68h22.25c-1-5.69-5.43-8.95-11.22-8.95A11.08,11.08,0,0,0,265.5,339.83Z" fill="#1c2126"/><path d="M357.66,342v28.58H343.55V344.72c0-7.78-3.71-12.12-9.4-12.12s-9.77,4.7-9.77,12v26H310.26V320h14.12v5.69c2.8-4.07,8-6.87,14.38-6.87C350.25,318.85,357.66,327.08,357.66,342Z" fill="#1c2126"/><path d="M416.37,298.68v71.91H402.25v-6c-3.34,4.52-8.59,7.24-15.64,7.24-13.12,0-22.35-9.41-22.35-26.51s9.23-26.5,22.35-26.5c7.05,0,12.3,2.71,15.64,7.15V298.68ZM402.25,345c0-8.95-4.7-14-11.57-14S379,336.13,379,345s4.88,14,11.67,14S402.25,354,402.25,345Z" fill="#1c2126"/><path d="M475.79,349.51H438.43c.73,6.06,4.8,10.23,11.49,10.23,5,0,8.32-1.63,9.86-4.53h15c-2.89,9.5-12.12,16.28-25.05,16.28-15.83,0-26.23-10.4-26.23-26.14s10.22-26.23,26.14-26.23,26.14,10.31,26.14,26.05Zm-37.18-9.68h22.26c-1-5.69-5.43-8.95-11.22-8.95A11.1,11.1,0,0,0,438.61,339.83Z" fill="#1c2126"/><path d="M530.78,342v28.58H516.67V344.72c0-7.78-3.71-12.12-9.41-12.12s-9.76,4.7-9.76,12v26H483.38V320H497.5v5.69c2.8-4.07,8-6.87,14.38-6.87C523.37,318.85,530.78,327.08,530.78,342Z" fill="#1c2126"/><path d="M588.4,340H573.56a9.73,9.73,0,0,0-10.13-9c-6.69,0-11.3,5.16-11.3,14.29,0,9,4.61,14.2,11.3,14.2a9.72,9.72,0,0,0,10.13-8.86H588.4c-.36,11.76-10.4,21.17-25,21.17-16.28,0-26-10.59-26-26.51s9.77-26.5,26-26.5C578,318.85,588,328.17,588.4,340Z" fill="#1c2126"/><path d="M644,320l-28,67.2H602.33l7.77-18.54L590.39,320h14.2l12.66,31.47L630.37,320Z" fill="#1c2126"/><g clip-path="url(#a)"><polygon points="969.79 176.12 1003.32 156.76 1036.85 176.12 1003.32 195.47 969.79 176.12" fill="#ffdd73" stroke="#1c2126" stroke-linejoin="round" stroke-width="2"/><polygon points="969.79 176.12 969.79 214.83 1003.32 234.19 1003.32 195.47 969.79 176.12" fill="#ffb916" stroke="#1c2126" stroke-linejoin="round" stroke-width="2"/><polygon points="1036.85 176.12 1036.85 214.83 1003.32 234.19 1003.32 195.47 1036.85 176.12" fill="#b7790b" stroke="#1c2126" stroke-linejoin="round" stroke-width="2"/><polygon points="1103.9 176.12 1137.43 156.76 1170.96 176.12 1137.43 195.47 1103.9 176.12" fill="#ffdd73" stroke="#1c2126" stroke-linejoin="round" stroke-width="2"/><polygon points="1103.9 176.12 1103.9 214.83 1137.43 234.19 1137.43 195.47 1103.9 176.12" fill="#ffb916" stroke="#1c2126" stroke-linejoin="round" stroke-width="2"/><polygon points="1170.96 176.12 1170.95 214.83 1137.43 234.19 1137.43 195.47 1170.96 176.12" fill="#b7790b" stroke="#1c2126" stroke-linejoin="round" stroke-width="2"/><polygon points="1170.96 176.12 1204.48 156.76 1238.01 176.12 1204.48 195.47 1170.96 176.12" fill="#ffdd73" stroke="#1c2126" stroke-linejoin="round" stroke-width="2"/><polygon points="1170.96 176.12 1170.96 214.83 1204.48 234.19 1204.48 195.47 1170.96 176.12" fill="#ffb916" stroke="#1c2126" stroke-linejoin="round" stroke-width="2"/><polygon points="1137.43 234.07 1170.96 214.71 1204.48 234.07 1170.96 253.42 1137.43 234.07" fill="#ffdd73" stroke="#1c2126" stroke-linejoin="round" stroke-width="2"/><polygon points="1137.43 234.07 1137.43 272.78 1170.96 292.14 1170.96 253.42 1137.43 234.07" fill="#ffb916" stroke="#1c2126" stroke-linejoin="round" stroke-width="2"/><polygon points="1204.48 234.07 1204.48 272.78 1170.96 292.14 1170.96 253.42 1204.48 234.07" fill="#b7790b" stroke="#1c2126" stroke-linejoin="round" stroke-width="2"/><polygon points="1070.38 234.07 1103.9 214.71 1137.43 234.07 1103.9 253.42 1070.38 234.07" fill="#ffdd73" stroke="#1c2126" stroke-linejoin="round" stroke-width="2"/><polygon points="1070.38 234.07 1070.38 272.78 1103.9 292.14 1103.9 253.42 1070.38 234.07" fill="#ffb916" stroke="#1c2126" stroke-linejoin="round" stroke-width="2"/><polygon points="1137.43 234.07 1137.43 272.78 1103.9 292.14 1103.9 253.42 1137.43 234.07" fill="#b7790b" stroke="#1c2126" stroke-linejoin="round" stroke-width="2"/><polygon points="1103.9 60.09 1137.43 40.74 1170.96 60.09 1137.43 79.45 1103.9 60.09" fill="#ffdd73" stroke="#1c2126" stroke-linejoin="round" stroke-width="2"/><polygon points="1103.9 60.09 1103.9 98.81 1137.43 118.16 1137.43 79.45 1103.9 60.09" fill="#ffb916" stroke="#1c2126" stroke-linejoin="round" stroke-width="2"/><polygon points="1170.96 60.09 1170.95 98.81 1137.43 118.16 1137.43 79.45 1170.96 60.09" fill="#b7790b" stroke="#1c2126" stroke-linejoin="round" stroke-width="2"/><polygon points="1170.96 60.09 1204.48 40.74 1238.01 60.09 1204.48 79.45 1170.96 60.09" fill="#ffdd73" stroke="#1c2126" stroke-linejoin="round" stroke-width="2"/><polygon points="1170.96 60.09 1170.96 98.81 1204.48 118.16 1204.48 79.45 1170.96 60.09" fill="#ffb916" stroke="#1c2126" stroke-linejoin="round" stroke-width="2"/><polygon points="1137.43 118.05 1170.96 98.69 1204.48 118.05 1170.96 137.4 1137.43 118.05" fill="#ffdd73" stroke="#1c2126" stroke-linejoin="round" stroke-width="2"/><polygon points="1137.43 118.05 1137.43 156.76 1170.96 176.12 1170.96 137.4 1137.43 118.05" fill="#ffb916" stroke="#1c2126" stroke-linejoin="round" stroke-width="2"/><polygon points="1204.48 118.05 1204.48 156.76 1170.96 176.12 1170.96 137.4 1204.48 118.05" fill="#b7790b" stroke="#1c2126" stroke-linejoin="round" stroke-width="2"/><polygon points="1070.38 118.05 1103.9 98.69 1137.43 118.05 1103.9 137.4 1070.38 118.05" fill="#ffdd73" stroke="#1c2126" stroke-linejoin="round" stroke-width="2"/><polygon points="1070.38 118.05 1070.38 156.76 1103.9 176.12 1103.9 137.4 1070.38 118.05" fill="#ffb916" stroke="#1c2126" stroke-linejoin="round" stroke-width="2"/><polygon points="1137.43 118.05 1137.43 156.76 1103.9 176.12 1103.9 137.4 1137.43 118.05" fill="#b7790b" stroke="#1c2126" stroke-linejoin="round" stroke-width="2"/><polygon points="1103.9 -55.93 1103.9 -17.21 1137.43 2.14 1137.43 -36.57 1103.9 -55.93" fill="#ffb916" stroke="#1c2126" stroke-linejoin="round" stroke-width="2"/><polygon points="1170.96 -55.93 1170.95 -17.21 1137.43 2.14 1137.43 -36.57 1170.96 -55.93" fill="#b7790b" stroke="#1c2126" stroke-linejoin="round" stroke-width="2"/><polygon points="1170.96 -55.93 1170.96 -17.21 1204.48 2.14 1204.48 -36.57 1170.96 -55.93" fill="#ffb916" stroke="#1c2126" stroke-linejoin="round" stroke-width="2"/><polygon points="1137.43 2.02 1170.96 -17.33 1204.48 2.02 1170.96 21.38 1137.43 2.02" fill="#ffdd73" stroke="#1c2126" stroke-linejoin="round" stroke-width="2"/><polygon points="1137.43 2.02 1137.43 40.74 1170.96 60.09 1170.96 21.38 1137.43 2.02" fill="#ffb916" stroke="#1c2126" stroke-linejoin="round" stroke-width="2"/><polygon points="1204.48 2.02 1204.48 40.74 1170.96 60.09 1170.96 21.38 1204.48 2.02" fill="#b7790b" stroke="#1c2126" stroke-linejoin="round" stroke-width="2"/><polygon points="1070.38 2.02 1103.9 -17.33 1137.43 2.02 1103.9 21.38 1070.38 2.02" fill="#ffdd73" stroke="#1c2126" stroke-linejoin="round" stroke-width="2"/><polygon points="1070.38 2.02 1070.38 40.74 1103.9 60.09 1103.9 21.38 1070.38 2.02" fill="#ffb916" stroke="#1c2126" stroke-linejoin="round" stroke-width="2"/><polygon points="1137.43 2.02 1137.43 40.74 1103.9 60.09 1103.9 21.38 1137.43 2.02" fill="#b7790b" stroke="#1c2126" stroke-linejoin="round" stroke-width="2"/><polygon points="969.79 -55.93 969.79 -17.21 1003.32 2.14 1003.32 -36.57 969.79 -55.93" fill="#ffb916" stroke="#1c2126" stroke-linejoin="round" stroke-width="2"/><polygon points="1036.85 -55.93 1036.85 -17.21 1003.32 2.14 1003.32 -36.57 1036.85 -55.93" fill="#b7790b" stroke="#1c2126" stroke-linejoin="round" stroke-width="2"/><polygon points="1036.85 -55.93 1036.85 -17.21 1070.37 2.14 1070.38 -36.57 1036.85 -55.93" fill="#ffb916" stroke="#1c2126" stroke-linejoin="round" stroke-width="2"/><polygon points="1103.9 -55.93 1103.9 -17.21 1070.37 2.14 1070.38 -36.57 1103.9 -55.93" fill="#b7790b" stroke="#1c2126" stroke-linejoin="round" stroke-width="2"/><polygon points="1003.32 2.02 1036.85 -17.33 1070.38 2.02 1036.85 21.38 1003.32 2.02" fill="#ffdd73" stroke="#1c2126" stroke-linejoin="round" stroke-width="2"/><polygon points="1003.32 2.02 1003.32 40.74 1036.85 60.09 1036.85 21.38 1003.32 2.02" fill="#ffb916" stroke="#1c2126" stroke-linejoin="round" stroke-width="2"/><polygon points="1070.38 2.02 1070.37 40.74 1036.85 60.09 1036.85 21.38 1070.38 2.02" fill="#b7790b" stroke="#1c2126" stroke-linejoin="round" stroke-width="2"/><polygon points="936.27 2.02 969.79 -17.33 1003.32 2.02 969.79 21.38 936.27 2.02" fill="#ffdd73" stroke="#1c2126" stroke-linejoin="round" stroke-width="2"/><polygon points="936.27 2.02 936.27 40.74 969.79 60.09 969.79 21.38 936.27 2.02" fill="#ffb916" stroke="#1c2126" stroke-linejoin="round" stroke-width="2"/><polygon points="1003.32 2.02 1003.32 40.74 969.79 60.09 969.79 21.38 1003.32 2.02" fill="#b7790b" stroke="#1c2126" stroke-linejoin="round" stroke-width="2"/><polygon points="835.68 -55.93 835.68 -17.21 869.21 2.14 869.21 -36.57 835.68 -55.93" fill="#ffb916" stroke="#1c2126" stroke-linejoin="round" stroke-width="2"/><polygon points="902.74 -55.93 902.74 -17.21 869.21 2.14 869.21 -36.57 902.74 -55.93" fill="#b7790b" stroke="#1c2126" stroke-linejoin="round" stroke-width="2"/><polygon points="902.74 -55.93 902.74 -17.21 936.26 2.14 936.26 -36.57 902.74 -55.93" fill="#ffb916" stroke="#1c2126" stroke-linejoin="round" stroke-width="2"/><polygon points="969.79 -55.93 969.79 -17.21 936.26 2.14 936.26 -36.57 969.79 -55.93" fill="#b7790b" stroke="#1c2126" stroke-linejoin="round" stroke-width="2"/><polygon points="869.21 2.02 902.74 -17.33 936.26 2.02 902.74 21.38 869.21 2.02" fill="#ffdd73" stroke="#1c2126" stroke-linejoin="round" stroke-width="2"/><polygon points="869.21 2.02 869.21 40.74 902.74 60.09 902.74 21.38 869.21 2.02" fill="#ffb916" stroke="#1c2126" stroke-linejoin="round" stroke-width="2"/><polygon points="936.26 2.02 936.26 40.74 902.74 60.09 902.74 21.38 936.26 2.02" fill="#b7790b" stroke="#1c2126" stroke-linejoin="round" stroke-width="2"/><polygon points="802.16 2.02 835.68 -17.33 869.21 2.02 835.68 21.38 802.16 2.02" fill="#ffdd73" stroke="#1c2126" stroke-linejoin="round" stroke-width="2"/><polygon points="802.16 2.02 802.16 40.74 835.68 60.09 835.68 21.38 802.16 2.02" fill="#ffb916" stroke="#1c2126" stroke-linejoin="round" stroke-width="2"/><polygon points="869.21 2.02 869.21 40.74 835.68 60.09 835.68 21.38 869.21 2.02" fill="#b7790b" stroke="#1c2126" stroke-linejoin="round" stroke-width="2"/><polygon points="835.68 60.09 869.21 40.74 902.74 60.09 869.21 79.45 835.68 60.09" fill="#ffdd73" stroke="#1c2126" stroke-linejoin="round" stroke-width="2"/><polygon points="835.68 60.09 835.68 98.81 869.21 118.16 869.21 79.45 835.68 60.09" fill="#ffb916" stroke="#1c2126" stroke-linejoin="round" stroke-width="2"/><polygon points="902.74 60.09 902.74 98.81 869.21 118.16 869.21 79.45 902.74 60.09" fill="#b7790b" stroke="#1c2126" stroke-linejoin="round" stroke-width="2"/><polygon points="902.74 60.09 936.26 40.74 969.79 60.09 936.26 79.45 902.74 60.09" fill="#ffdd73" stroke="#1c2126" stroke-linejoin="round" stroke-width="2"/><polygon points="902.74 60.09 902.74 98.81 936.26 118.16 936.26 79.45 902.74 60.09" fill="#ffb916" stroke="#1c2126" stroke-linejoin="round" stroke-width="2"/><polygon points="969.79 60.09 969.79 98.81 936.26 118.16 936.26 79.45 969.79 60.09" fill="#b7790b" stroke="#1c2126" stroke-linejoin="round" stroke-width="2"/><polygon points="969.79 60.09 1003.32 40.74 1036.85 60.09 1003.32 79.45 969.79 60.09" fill="#ffdd73" stroke="#1c2126" stroke-linejoin="round" stroke-width="2"/><polygon points="969.79 60.09 969.79 98.81 1003.32 118.16 1003.32 79.45 969.79 60.09" fill="#ffb916" stroke="#1c2126" stroke-linejoin="round" stroke-width="2"/><polygon points="1036.85 60.09 1036.85 98.81 1003.32 118.16 1003.32 79.45 1036.85 60.09" fill="#b7790b" stroke="#1c2126" stroke-linejoin="round" stroke-width="2"/><polygon points="1036.85 60.09 1070.37 40.74 1103.9 60.09 1070.37 79.45 1036.85 60.09" fill="#ffdd73" stroke="#1c2126" stroke-linejoin="round" stroke-width="2"/><polygon points="1036.85 60.09 1036.85 98.81 1070.37 118.16 1070.37 79.45 1036.85 60.09" fill="#ffb916" stroke="#1c2126" stroke-linejoin="round" stroke-width="2"/><polygon points="1103.9 60.09 1103.9 98.81 1070.37 118.16 1070.37 79.45 1103.9 60.09" fill="#b7790b" stroke="#1c2126" stroke-linejoin="round" stroke-width="2"/><polygon points="701.57 60.09 735.1 40.74 768.63 60.09 735.1 79.45 701.57 60.09" fill="#ffdd73" stroke="#1c2126" stroke-linejoin="round" stroke-width="2"/><polygon points="701.57 60.09 701.57 98.81 735.1 118.16 735.1 79.45 701.57 60.09" fill="#ffb916" stroke="#1c2126" stroke-linejoin="round" stroke-width="2"/><polygon points="768.63 60.09 768.63 98.81 735.1 118.16 735.1 79.45 768.63 60.09" fill="#b7790b" stroke="#1c2126" stroke-linejoin="round" stroke-width="2"/><polygon points="768.63 60.09 802.15 40.74 835.68 60.09 802.16 79.45 768.63 60.09" fill="#ffdd73" stroke="#1c2126" stroke-linejoin="round" stroke-width="2"/><polygon points="768.63 60.09 768.63 98.81 802.15 118.16 802.16 79.45 768.63 60.09" fill="#ffb916" stroke="#1c2126" stroke-linejoin="round" stroke-width="2"/><polygon points="835.68 60.09 835.68 98.81 802.15 118.16 802.16 79.45 835.68 60.09" fill="#b7790b" stroke="#1c2126" stroke-linejoin="round" stroke-width="2"/><polygon points="701.57 -55.93 701.57 -17.21 735.1 2.14 735.1 -36.57 701.57 -55.93" fill="#ffb916" stroke="#1c2126" stroke-linejoin="round" stroke-width="2"/><polygon points="768.63 -55.93 768.63 -17.21 735.1 2.14 735.1 -36.57 768.63 -55.93" fill="#b7790b" stroke="#1c2126" stroke-linejoin="round" stroke-width="2"/><polygon points="768.63 -55.93 768.63 -17.21 802.15 2.14 802.16 -36.57 768.63 -55.93" fill="#ffb916" stroke="#1c2126" stroke-linejoin="round" stroke-width="2"/><polygon points="835.68 -55.93 835.68 -17.21 802.15 2.14 802.16 -36.57 835.68 -55.93" fill="#b7790b" stroke="#1c2126" stroke-linejoin="round" stroke-width="2"/><polygon points="735.1 2.02 768.63 -17.33 802.16 2.02 768.63 21.38 735.1 2.02" fill="#ffdd73" stroke="#1c2126" stroke-linejoin="round" stroke-width="2"/><polygon points="735.1 2.02 735.1 40.74 768.63 60.09 768.63 21.38 735.1 2.02" fill="#ffb916" stroke="#1c2126" stroke-linejoin="round" stroke-width="2"/><polygon points="802.16 2.02 802.15 40.74 768.63 60.09 768.63 21.38 802.16 2.02" fill="#b7790b" stroke="#1c2126" stroke-linejoin="round" stroke-width="2"/><polygon points="668.05 2.02 701.57 -17.33 735.1 2.02 701.57 21.38 668.05 2.02" fill="#ffdd73" stroke="#1c2126" stroke-linejoin="round" stroke-width="2"/><polygon points="668.05 2.02 668.05 40.74 701.57 60.09 701.57 21.38 668.05 2.02" fill="#ffb916" stroke="#1c2126" stroke-linejoin="round" stroke-width="2"/><polygon points="735.1 2.02 735.1 40.74 701.57 60.09 701.57 21.38 735.1 2.02" fill="#b7790b" stroke="#1c2126" stroke-linejoin="round" stroke-width="2"/><polygon points="567.47 -55.93 567.47 -17.21 600.99 2.14 600.99 -36.57 567.47 -55.93" fill="#ffb916" stroke="#1c2126" stroke-linejoin="round" stroke-width="2"/><polygon points="634.52 -55.93 634.52 -17.21 600.99 2.14 600.99 -36.57 634.52 -55.93" fill="#b7790b" stroke="#1c2126" stroke-linejoin="round" stroke-width="2"/><polygon points="634.52 -55.93 634.52 -17.21 668.05 2.14 668.05 -36.57 634.52 -55.93" fill="#ffb916" stroke="#1c2126" stroke-linejoin="round" stroke-width="2"/><polygon points="701.58 -55.93 701.57 -17.21 668.05 2.14 668.05 -36.57 701.58 -55.93" fill="#b7790b" stroke="#1c2126" stroke-linejoin="round" stroke-width="2"/><polygon points="600.99 2.02 634.52 -17.33 668.05 2.02 634.52 21.38 600.99 2.02" fill="#ffdd73" stroke="#1c2126" stroke-linejoin="round" stroke-width="2"/><polygon points="600.99 2.02 600.99 40.74 634.52 60.09 634.52 21.38 600.99 2.02" fill="#ffb916" stroke="#1c2126" stroke-linejoin="round" stroke-width="2"/><polygon points="668.05 2.02 668.04 40.74 634.52 60.09 634.52 21.38 668.05 2.02" fill="#b7790b" stroke="#1c2126" stroke-linejoin="round" stroke-width="2"/><polygon points="634.52 60.09 668.05 40.74 701.58 60.09 668.05 79.45 634.52 60.09" fill="#ffdd73" stroke="#1c2126" stroke-linejoin="round" stroke-width="2"/><polygon points="634.52 60.09 634.52 98.81 668.05 118.16 668.05 79.45 634.52 60.09" fill="#ffb916" stroke="#1c2126" stroke-linejoin="round" stroke-width="2"/><polygon points="701.58 60.09 701.57 98.81 668.05 118.16 668.05 79.45 701.58 60.09" fill="#b7790b" stroke="#1c2126" stroke-linejoin="round" stroke-width="2"/><polygon points="969.79 291.91 1003.32 272.55 1036.85 291.91 1003.32 311.26 969.79 291.91" fill="#ffdd73" stroke="#1c2126" stroke-linejoin="round" stroke-width="2"/><polygon points="969.79 291.91 969.79 330.62 1003.32 349.98 1003.32 311.26 969.79 291.91" fill="#ffb916" stroke="#1c2126" stroke-linejoin="round" stroke-width="2"/><polygon points="1036.85 291.91 1036.85 330.62 1003.32 349.98 1003.32 311.26 1036.85 291.91" fill="#b7790b" stroke="#1c2126" stroke-linejoin="round" stroke-width="2"/><polygon points="1036.85 291.91 1070.37 272.55 1103.9 291.91 1070.38 311.26 1036.85 291.91" fill="#ffdd73" stroke="#1c2126" stroke-linejoin="round" stroke-width="2"/><polygon points="1036.85 291.91 1036.85 330.62 1070.37 349.98 1070.38 311.26 1036.85 291.91" fill="#ffb916" stroke="#1c2126" stroke-linejoin="round" stroke-width="2"/><polygon points="1103.9 291.91 1103.9 330.62 1070.37 349.98 1070.38 311.26 1103.9 291.91" fill="#b7790b" stroke="#1c2126" stroke-linejoin="round" stroke-width="2"/><polygon points="1103.9 291.91 1137.43 272.55 1170.96 291.91 1137.43 311.26 1103.9 291.91" fill="#ffdd73" stroke="#1c2126" stroke-linejoin="round" stroke-width="2"/><polygon points="1103.9 291.91 1103.9 330.62 1137.43 349.98 1137.43 311.26 1103.9 291.91" fill="#ffb916" stroke="#1c2126" stroke-linejoin="round" stroke-width="2"/><polygon points="1170.96 291.91 1170.95 330.62 1137.43 349.98 1137.43 311.26 1170.96 291.91" fill="#b7790b" stroke="#1c2126" stroke-linejoin="round" stroke-width="2"/><polygon points="1170.96 291.91 1204.48 272.55 1238.01 291.91 1204.48 311.26 1170.96 291.91" fill="#ffdd73" stroke="#1c2126" stroke-linejoin="round" stroke-width="2"/><polygon points="1170.96 291.91 1170.96 330.62 1204.48 349.98 1204.48 311.26 1170.96 291.91" fill="#ffb916" stroke="#1c2126" stroke-linejoin="round" stroke-width="2"/><polygon points="1137.43 349.86 1170.96 330.5 1204.48 349.86 1170.96 369.22 1137.43 349.86" fill="#ffdd73" stroke="#1c2126" stroke-linejoin="round" stroke-width="2"/><polygon points="1137.43 349.86 1137.43 388.57 1170.96 407.93 1170.96 369.22 1137.43 349.86" fill="#ffb916" stroke="#1c2126" stroke-linejoin="round" stroke-width="2"/><polygon points="1204.48 349.86 1204.48 388.57 1170.96 407.93 1170.96 369.22 1204.48 349.86" fill="#b7790b" stroke="#1c2126" stroke-linejoin="round" stroke-width="2"/><polygon points="1070.38 349.86 1103.9 330.5 1137.43 349.86 1103.9 369.22 1070.38 349.86" fill="#ffdd73" stroke="#1c2126" stroke-linejoin="round" stroke-width="2"/><polygon points="1070.38 349.86 1070.38 388.57 1103.9 407.93 1103.9 369.22 1070.38 349.86" fill="#ffb916" stroke="#1c2126" stroke-linejoin="round" stroke-width="2"/><polygon points="1137.43 349.86 1137.43 388.57 1103.9 407.93 1103.9 369.22 1137.43 349.86" fill="#b7790b" stroke="#1c2126" stroke-linejoin="round" stroke-width="2"/><polygon points="1003.32 349.86 1036.85 330.5 1070.38 349.86 1036.85 369.22 1003.32 349.86" fill="#ffdd73" stroke="#1c2126" stroke-linejoin="round" stroke-width="2"/><polygon points="1003.32 349.86 1003.32 388.57 1036.85 407.93 1036.85 369.22 1003.32 349.86" fill="#ffb916" stroke="#1c2126" stroke-linejoin="round" stroke-width="2"/><polygon points="1070.38 349.86 1070.37 388.57 1036.85 407.93 1036.85 369.22 1070.38 349.86" fill="#b7790b" stroke="#1c2126" stroke-linejoin="round" stroke-width="2"/><polygon points="936.27 349.86 969.79 330.5 1003.32 349.86 969.79 369.22 936.27 349.86" fill="#ffdd73" stroke="#1c2126" stroke-linejoin="round" stroke-width="2"/><polygon points="936.27 349.86 936.27 388.57 969.79 407.93 969.79 369.22 936.27 349.86" fill="#ffb916" stroke="#1c2126" stroke-linejoin="round" stroke-width="2"/><polygon points="1003.32 349.86 1003.32 388.57 969.79 407.93 969.79 369.22 1003.32 349.86" fill="#b7790b" stroke="#1c2126" stroke-linejoin="round" stroke-width="2"/><polygon points="969.79 407.7 1003.32 388.34 1036.85 407.7 1003.32 427.06 969.79 407.7" fill="#ffdd73" stroke="#1c2126" stroke-linejoin="round" stroke-width="2"/><polygon points="969.79 407.7 969.79 446.41 1003.32 465.77 1003.32 427.06 969.79 407.7" fill="#ffb916" stroke="#1c2126" stroke-linejoin="round" stroke-width="2"/><polygon points="1036.85 407.7 1036.85 446.41 1003.32 465.77 1003.32 427.06 1036.85 407.7" fill="#b7790b" stroke="#1c2126" stroke-linejoin="round" stroke-width="2"/><polygon points="1036.85 407.7 1070.37 388.34 1103.9 407.7 1070.38 427.06 1036.85 407.7" fill="#ffdd73" stroke="#1c2126" stroke-linejoin="round" stroke-width="2"/><polygon points="1036.85 407.7 1036.85 446.41 1070.37 465.77 1070.38 427.06 1036.85 407.7" fill="#ffb916" stroke="#1c2126" stroke-linejoin="round" stroke-width="2"/><polygon points="1103.9 407.7 1103.9 446.41 1070.37 465.77 1070.38 427.06 1103.9 407.7" fill="#b7790b" stroke="#1c2126" stroke-linejoin="round" stroke-width="2"/><polygon points="1103.9 407.7 1137.43 388.34 1170.96 407.7 1137.43 427.06 1103.9 407.7" fill="#ffdd73" stroke="#1c2126" stroke-linejoin="round" stroke-width="2"/><polygon points="1103.9 407.7 1103.9 446.41 1137.43 465.77 1137.43 427.06 1103.9 407.7" fill="#ffb916" stroke="#1c2126" stroke-linejoin="round" stroke-width="2"/><polygon points="1170.96 407.7 1170.95 446.41 1137.43 465.77 1137.43 427.06 1170.96 407.7" fill="#b7790b" stroke="#1c2126" stroke-linejoin="round" stroke-width="2"/><polygon points="1170.96 407.7 1204.48 388.34 1238.01 407.7 1204.48 427.06 1170.96 407.7" fill="#ffdd73" stroke="#1c2126" stroke-linejoin="round" stroke-width="2"/><polygon points="1170.96 407.7 1170.96 446.41 1204.48 465.77 1204.48 427.06 1170.96 407.7" fill="#ffb916" stroke="#1c2126" stroke-linejoin="round" stroke-width="2"/><polygon points="1137.43 465.65 1170.96 446.3 1204.48 465.65 1170.96 485.01 1137.43 465.65" fill="#ffdd73" stroke="#1c2126" stroke-linejoin="round" stroke-width="2"/><polygon points="1137.43 465.65 1137.43 504.37 1170.96 523.72 1170.96 485.01 1137.43 465.65" fill="#ffb916" stroke="#1c2126" stroke-linejoin="round" stroke-width="2"/><polygon points="1204.48 465.65 1204.48 504.36 1170.96 523.72 1170.96 485.01 1204.48 465.65" fill="#b7790b" stroke="#1c2126" stroke-linejoin="round" stroke-width="2"/><polygon points="1070.38 465.65 1103.9 446.3 1137.43 465.65 1103.9 485.01 1070.38 465.65" fill="#ffdd73" stroke="#1c2126" stroke-linejoin="round" stroke-width="2"/><polygon points="1070.38 465.65 1070.38 504.37 1103.9 523.72 1103.9 485.01 1070.38 465.65" fill="#ffb916" stroke="#1c2126" stroke-linejoin="round" stroke-width="2"/><polygon points="1137.43 465.65 1137.43 504.36 1103.9 523.72 1103.9 485.01 1137.43 465.65" fill="#b7790b" stroke="#1c2126" stroke-linejoin="round" stroke-width="2"/><polygon points="1003.32 465.65 1036.85 446.3 1070.38 465.65 1036.85 485.01 1003.32 465.65" fill="#ffdd73" stroke="#1c2126" stroke-linejoin="round" stroke-width="2"/><polygon points="1003.32 465.65 1003.32 504.37 1036.85 523.72 1036.85 485.01 1003.32 465.65" fill="#ffb916" stroke="#1c2126" stroke-linejoin="round" stroke-width="2"/><polygon points="1070.38 465.65 1070.37 504.36 1036.85 523.72 1036.85 485.01 1070.38 465.65" fill="#b7790b" stroke="#1c2126" stroke-linejoin="round" stroke-width="2"/><polygon points="936.27 465.65 969.79 446.3 1003.32 465.65 969.79 485.01 936.27 465.65" fill="#ffdd73" stroke="#1c2126" stroke-linejoin="round" stroke-width="2"/><polygon points="936.27 465.65 936.27 504.37 969.79 523.72 969.79 485.01 936.27 465.65" fill="#ffb916" stroke="#1c2126" stroke-linejoin="round" stroke-width="2"/><polygon points="1003.32 465.65 1003.32 504.36 969.79 523.72 969.79 485.01 1003.32 465.65" fill="#b7790b" stroke="#1c2126" stroke-linejoin="round" stroke-width="2"/><polygon points="902.74 176.12 936.26 156.76 969.79 176.12 936.27 195.47 902.74 176.12" fill="#ffdd73" stroke="#1c2126" stroke-linejoin="round" stroke-width="2"/><polygon points="902.74 176.12 902.74 214.83 936.26 234.19 936.27 195.47 902.74 176.12" fill="#ffb916" stroke="#1c2126" stroke-linejoin="round" stroke-width="2"/><polygon points="969.79 176.12 969.79 214.83 936.26 234.19 936.27 195.47 969.79 176.12" fill="#b7790b" stroke="#1c2126" stroke-linejoin="round" stroke-width="2"/><polygon points="835.68 291.91 869.21 272.55 902.74 291.91 869.21 311.26 835.68 291.91" fill="#ffdd73" stroke="#1c2126" stroke-linejoin="round" stroke-width="2"/><polygon points="835.68 291.91 835.68 330.62 869.21 349.98 869.21 311.26 835.68 291.91" fill="#ffb916" stroke="#1c2126" stroke-linejoin="round" stroke-width="2"/><polygon points="902.74 291.91 902.74 330.62 869.21 349.98 869.21 311.26 902.74 291.91" fill="#b7790b" stroke="#1c2126" stroke-linejoin="round" stroke-width="2"/><polygon points="735.1 349.86 768.63 330.5 802.16 349.86 768.63 369.22 735.1 349.86" fill="#ffdd73" stroke="#1c2126" stroke-linejoin="round" stroke-width="2"/><polygon points="735.1 349.86 735.1 388.57 768.63 407.93 768.63 369.22 735.1 349.86" fill="#ffb916" stroke="#1c2126" stroke-linejoin="round" stroke-width="2"/><polygon points="802.16 349.86 802.15 388.57 768.63 407.93 768.63 369.22 802.16 349.86" fill="#b7790b" stroke="#1c2126" stroke-linejoin="round" stroke-width="2"/><polygon points="735.1 349.86 768.63 330.5 802.16 349.86 768.63 369.22 735.1 349.86" fill="#ffdd73" stroke="#1c2126" stroke-linejoin="round" stroke-width="2"/><polygon points="735.1 349.86 735.1 388.57 768.63 407.93 768.63 369.22 735.1 349.86" fill="#ffb916" stroke="#1c2126" stroke-linejoin="round" stroke-width="2"/><polygon points="802.16 349.86 802.15 388.57 768.63 407.93 768.63 369.22 802.16 349.86" fill="#b7790b" stroke="#1c2126" stroke-linejoin="round" stroke-width="2"/><polygon points="701.58 407.7 735.1 388.34 768.63 407.7 735.1 427.06 701.58 407.7" fill="#ffdd73" stroke="#1c2126" stroke-linejoin="round" stroke-width="2"/><polygon points="701.58 407.7 701.58 446.41 735.1 465.77 735.1 427.06 701.58 407.7" fill="#ffb916" stroke="#1c2126" stroke-linejoin="round" stroke-width="2"/><polygon points="768.63 407.7 768.63 446.41 735.1 465.77 735.1 427.06 768.63 407.7" fill="#b7790b" stroke="#1c2126" stroke-linejoin="round" stroke-width="2"/><polygon points="768.63 407.7 802.16 388.34 835.68 407.7 802.16 427.06 768.63 407.7" fill="#ffdd73" stroke="#1c2126" stroke-linejoin="round" stroke-width="2"/><polygon points="768.63 407.7 768.63 446.41 802.16 465.77 802.16 427.06 768.63 407.7" fill="#ffb916" stroke="#1c2126" stroke-linejoin="round" stroke-width="2"/><polygon points="835.68 407.7 835.68 446.41 802.16 465.77 802.16 427.06 835.68 407.7" fill="#b7790b" stroke="#1c2126" stroke-linejoin="round" stroke-width="2"/><polygon points="835.68 407.7 869.21 388.34 902.74 407.7 869.21 427.06 835.68 407.7" fill="#ffdd73" stroke="#1c2126" stroke-linejoin="round" stroke-width="2"/><polygon points="835.68 407.7 835.68 446.41 869.21 465.77 869.21 427.06 835.68 407.7" fill="#ffb916" stroke="#1c2126" stroke-linejoin="round" stroke-width="2"/><polygon points="902.74 407.7 902.74 446.41 869.21 465.77 869.21 427.06 902.74 407.7" fill="#b7790b" stroke="#1c2126" stroke-linejoin="round" stroke-width="2"/><polygon points="902.74 407.7 936.26 388.34 969.79 407.7 936.27 427.06 902.74 407.7" fill="#ffdd73" stroke="#1c2126" stroke-linejoin="round" stroke-width="2"/><polygon points="902.74 407.7 902.74 446.41 936.26 465.77 936.27 427.06 902.74 407.7" fill="#ffb916" stroke="#1c2126" stroke-linejoin="round" stroke-width="2"/><polygon points="969.79 407.7 969.79 446.41 936.26 465.77 936.27 427.06 969.79 407.7" fill="#b7790b" stroke="#1c2126" stroke-linejoin="round" stroke-width="2"/><polygon points="869.21 465.65 902.74 446.3 936.27 465.65 902.74 485.01 869.21 465.65" fill="#ffdd73" stroke="#1c2126" stroke-linejoin="round" stroke-width="2"/><polygon points="869.21 465.65 869.21 504.37 902.74 523.72 902.74 485.01 869.21 465.65" fill="#ffb916" stroke="#1c2126" stroke-linejoin="round" stroke-width="2"/><polygon points="936.27 465.65 936.26 504.36 902.74 523.72 902.74 485.01 936.27 465.65" fill="#b7790b" stroke="#1c2126" stroke-linejoin="round" stroke-width="2"/><polygon points="802.16 465.65 835.68 446.3 869.21 465.65 835.68 485.01 802.16 465.65" fill="#ffdd73" stroke="#1c2126" stroke-linejoin="round" stroke-width="2"/><polygon points="802.16 465.65 802.16 504.37 835.68 523.72 835.68 485.01 802.16 465.65" fill="#ffb916" stroke="#1c2126" stroke-linejoin="round" stroke-width="2"/><polygon points="869.21 465.65 869.21 504.36 835.68 523.72 835.68 485.01 869.21 465.65" fill="#b7790b" stroke="#1c2126" stroke-linejoin="round" stroke-width="2"/><polygon points="735.1 465.65 768.63 446.3 802.16 465.65 768.63 485.01 735.1 465.65" fill="#ffdd73" stroke="#1c2126" stroke-linejoin="round" stroke-width="2"/><polygon points="735.1 465.65 735.1 504.37 768.63 523.72 768.63 485.01 735.1 465.65" fill="#ffb916" stroke="#1c2126" stroke-linejoin="round" stroke-width="2"/><polygon points="802.16 465.65 802.15 504.36 768.63 523.72 768.63 485.01 802.16 465.65" fill="#b7790b" stroke="#1c2126" stroke-linejoin="round" stroke-width="2"/><polygon points="668.05 465.65 701.57 446.3 735.1 465.65 701.58 485.01 668.05 465.65" fill="#ffdd73" stroke="#1c2126" stroke-linejoin="round" stroke-width="2"/><polygon points="668.05 465.65 668.05 504.37 701.57 523.72 701.58 485.01 668.05 465.65" fill="#ffb916" stroke="#1c2126" stroke-linejoin="round" stroke-width="2"/><polygon points="735.1 465.65 735.1 504.36 701.57 523.72 701.58 485.01 735.1 465.65" fill="#b7790b" stroke="#1c2126" stroke-linejoin="round" stroke-width="2"/><polygon points="600.99 465.65 634.52 446.3 668.05 465.65 634.52 485.01 600.99 465.65" fill="#ffdd73" stroke="#1c2126" stroke-linejoin="round" stroke-width="2"/><polygon points="600.99 465.65 600.99 504.37 634.52 523.72 634.52 485.01 600.99 465.65" fill="#ffb916" stroke="#1c2126" stroke-linejoin="round" stroke-width="2"/><polygon points="668.05 465.65 668.04 504.36 634.52 523.72 634.52 485.01 668.05 465.65" fill="#b7790b" stroke="#1c2126" stroke-linejoin="round" stroke-width="2"/><polygon points="533.94 465.65 567.47 446.3 600.99 465.65 567.47 485.01 533.94 465.65" fill="#ffdd73" stroke="#1c2126" stroke-linejoin="round" stroke-width="2"/><polygon points="533.94 465.65 533.94 504.37 567.47 523.72 567.47 485.01 533.94 465.65" fill="#ffb916" stroke="#1c2126" stroke-linejoin="round" stroke-width="2"/><polygon points="600.99 465.65 600.99 504.36 567.47 523.72 567.47 485.01 600.99 465.65" fill="#b7790b" stroke="#1c2126" stroke-linejoin="round" stroke-width="2"/><polygon points="466.88 465.65 500.41 446.3 533.94 465.65 500.41 485.01 466.88 465.65" fill="#ffdd73" stroke="#1c2126" stroke-linejoin="round" stroke-width="2"/><polygon points="466.88 465.65 466.88 504.37 500.41 523.72 500.41 485.01 466.88 465.65" fill="#ffb916" stroke="#1c2126" stroke-linejoin="round" stroke-width="2"/><polygon points="533.94 465.65 533.94 504.36 500.41 523.72 500.41 485.01 533.94 465.65" fill="#b7790b" stroke="#1c2126" stroke-linejoin="round" stroke-width="2"/><polygon points="399.83 465.65 433.36 446.3 466.88 465.65 433.36 485.01 399.83 465.65" fill="#ffdd73" stroke="#1c2126" stroke-linejoin="round" stroke-width="2"/><polygon points="399.83 465.65 399.83 504.37 433.36 523.72 433.36 485.01 399.83 465.65" fill="#ffb916" stroke="#1c2126" stroke-linejoin="round" stroke-width="2"/><polygon points="466.88 465.65 466.88 504.36 433.36 523.72 433.36 485.01 466.88 465.65" fill="#b7790b" stroke="#1c2126" stroke-linejoin="round" stroke-width="2"/><polygon points="332.77 465.65 366.3 446.3 399.83 465.65 366.3 485.01 332.77 465.65" fill="#ffdd73" stroke="#1c2126" stroke-linejoin="round" stroke-width="2"/><polygon points="332.77 465.65 332.77 504.37 366.3 523.72 366.3 485.01 332.77 465.65" fill="#ffb916" stroke="#1c2126" stroke-linejoin="round" stroke-width="2"/><polygon points="399.83 465.65 399.83 504.36 366.3 523.72 366.3 485.01 399.83 465.65" fill="#b7790b" stroke="#1c2126" stroke-linejoin="round" stroke-width="2"/><polygon points="265.72 465.65 299.25 446.3 332.77 465.65 299.25 485.01 265.72 465.65" fill="#ffdd73" stroke="#1c2126" stroke-linejoin="round" stroke-width="2"/><polygon points="265.72 465.65 265.72 504.37 299.25 523.72 299.25 485.01 265.72 465.65" fill="#ffb916" stroke="#1c2126" stroke-linejoin="round" stroke-width="2"/><polygon points="332.77 465.65 332.77 504.36 299.25 523.72 299.25 485.01 332.77 465.65" fill="#b7790b" stroke="#1c2126" stroke-linejoin="round" stroke-width="2"/><polygon points="198.67 465.65 232.19 446.3 265.72 465.65 232.19 485.01 198.67 465.65" fill="#ffdd73" stroke="#1c2126" stroke-linejoin="round" stroke-width="2"/><polygon points="198.67 465.65 198.67 504.37 232.19 523.72 232.19 485.01 198.67 465.65" fill="#ffb916" stroke="#1c2126" stroke-linejoin="round" stroke-width="2"/><polygon points="265.72 465.65 265.72 504.36 232.19 523.72 232.19 485.01 265.72 465.65" fill="#b7790b" stroke="#1c2126" stroke-linejoin="round" stroke-width="2"/><polygon points="131.61 465.65 165.14 446.3 198.67 465.65 165.14 485.01 131.61 465.65" fill="#ffdd73" stroke="#1c2126" stroke-linejoin="round" stroke-width="2"/><polygon points="131.61 465.65 131.61 504.37 165.14 523.72 165.14 485.01 131.61 465.65" fill="#ffb916" stroke="#1c2126" stroke-linejoin="round" stroke-width="2"/><polygon points="198.67 465.65 198.66 504.36 165.14 523.72 165.14 485.01 198.67 465.65" fill="#b7790b" stroke="#1c2126" stroke-linejoin="round" stroke-width="2"/><polygon points="64.56 465.65 98.08 446.3 131.61 465.65 98.08 485.01 64.56 465.65" fill="#ffdd73" stroke="#1c2126" stroke-linejoin="round" stroke-width="2"/><polygon points="64.56 465.65 64.56 504.37 98.08 523.72 98.08 485.01 64.56 465.65" fill="#ffb916" stroke="#1c2126" stroke-linejoin="round" stroke-width="2"/><polygon points="131.61 465.65 131.61 504.36 98.08 523.72 98.08 485.01 131.61 465.65" fill="#b7790b" stroke="#1c2126" stroke-linejoin="round" stroke-width="2"/><polygon points="-2.5 465.65 31.03 446.3 64.56 465.65 31.03 485.01 -2.5 465.65" fill="#ffdd73" stroke="#1c2126" stroke-linejoin="round" stroke-width="2"/><polygon points="-2.5 465.65 -2.5 504.37 31.03 523.72 31.03 485.01 -2.5 465.65" fill="#ffb916" stroke="#1c2126" stroke-linejoin="round" stroke-width="2"/><polygon points="64.56 465.65 64.56 504.36 31.03 523.72 31.03 485.01 64.56 465.65" fill="#b7790b" stroke="#1c2126" stroke-linejoin="round" stroke-width="2"/><polygon points="768.63 214.83 735.1 195.47 701.57 214.83 768.63 253.54 835.68 214.83 802.15 195.47 768.63 214.83" fill="#b7303d" stroke="#1c2126" stroke-linejoin="round" stroke-width="2"/><polygon points="735.1 156.76 735.1 195.47 701.57 214.83 701.57 176.12 735.1 156.76" fill="#ea4f4b" stroke="#1c2126" stroke-linejoin="round" stroke-width="2"/><polygon points="735.1 156.76 735.1 195.47 768.63 214.83 768.63 176.12 735.1 156.76" fill="#ff6b60" stroke="#1c2126" stroke-linejoin="round" stroke-width="2"/><polygon points="802.16 156.76 802.15 195.47 768.63 214.83 768.63 176.12 802.16 156.76" fill="#ea4f4b" stroke="#1c2126" stroke-linejoin="round" stroke-width="2"/><polygon points="802.16 156.76 802.16 195.47 835.68 214.83 835.68 176.12 802.16 156.76" fill="#ff6b60" stroke="#1c2126" stroke-linejoin="round" stroke-width="2"/><polygon points="969.79 214.83 936.26 195.47 902.74 214.83 969.79 253.54 1036.85 214.83 1003.32 195.47 969.79 214.83" fill="#b7303d" stroke="#1c2126" stroke-linejoin="round" stroke-width="2"/><polygon points="936.27 156.76 936.26 195.47 902.74 214.83 902.74 176.12 936.27 156.76" fill="#ea4f4b" stroke="#1c2126" stroke-linejoin="round" stroke-width="2"/><polygon points="936.27 156.76 936.27 195.47 969.79 214.83 969.79 176.12 936.27 156.76" fill="#ff6b60" stroke="#1c2126" stroke-linejoin="round" stroke-width="2"/><polygon points="1003.32 156.76 1003.32 195.47 969.79 214.83 969.79 176.12 1003.32 156.76" fill="#ea4f4b" stroke="#1c2126" stroke-linejoin="round" stroke-width="2"/><polygon points="1003.32 156.76 1003.32 195.47 1036.85 214.83 1036.85 176.12 1003.32 156.76" fill="#ff6b60" stroke="#1c2126" stroke-linejoin="round" stroke-width="2"/><polygon points="869.21 311.49 835.68 292.14 802.16 311.49 869.21 350.21 936.27 311.49 902.74 292.14 869.21 311.49" fill="#b7303d" stroke="#1c2126" stroke-linejoin="round" stroke-width="2"/><polygon points="835.68 253.43 835.68 292.14 802.16 311.5 802.16 272.78 835.68 253.43" fill="#ea4f4b" stroke="#1c2126" stroke-linejoin="round" stroke-width="2"/><polygon points="835.68 253.42 835.68 292.14 869.21 311.49 869.21 272.78 835.68 253.42" fill="#ff6b60" stroke="#1c2126" stroke-linejoin="round" stroke-width="2"/><polygon points="902.74 253.43 902.74 292.14 869.21 311.5 869.21 272.78 902.74 253.43" fill="#ea4f4b" stroke="#1c2126" stroke-linejoin="round" stroke-width="2"/><polygon points="902.74 253.42 902.74 292.14 936.26 311.49 936.27 272.78 902.74 253.42" fill="#ff6b60" stroke="#1c2126" stroke-linejoin="round" stroke-width="2"/></g><g clip-path="url(#b)"><rect x="1108.75" y="-168.09" width="200" height="200" transform="translate(402.18 834.77) rotate(-45)" fill="#ff6b60"/><line x1="1200.49" y1="65.07" x2="1072.87" y2="-62.55" fill="none" stroke="#1c2126" stroke-linejoin="round" stroke-width="2" stroke-dasharray="7.68 7.68"/><rect x="1133.76" y="-143.08" width="149.98" height="149.98" transform="translate(305.88 -874.66) rotate(45)" fill="#ffd3bf" stroke="#1c2126" stroke-linejoin="round" stroke-width="2"/><rect x="1109.62" y="150.6" width="200" height="200" transform="translate(177.09 928.73) rotate(-45)" fill="#ff6b60"/><line x1="1201.36" y1="383.76" x2="1073.74" y2="256.15" fill="none" stroke="#1c2126" stroke-linejoin="round" stroke-width="2" stroke-dasharray="7.68 7.68"/><polyline points="1071.03 253.43 1068.2 250.6 1071.03 247.77" fill="none" stroke="#1c2126" stroke-linejoin="round" stroke-width="2"/><line x1="1076.46" y1="242.34" x2="1204.08" y2="114.72" fill="none" stroke="#1c2126" stroke-linejoin="round" stroke-width="2" stroke-dasharray="7.68 7.68"/><rect x="1134.63" y="175.61" width="149.98" height="149.98" transform="translate(531.49 -781.93) rotate(45)" fill="#ffd3bf" stroke="#1c2126" stroke-linejoin="round" stroke-width="2"/><rect x="1164.08" y="205.07" width="91.07" height="91.07" transform="translate(531.49 -781.93) rotate(45)" fill="#bffde7" stroke="#1c2126" stroke-linejoin="round" stroke-width="2" stroke-dasharray="8"/><rect x="1190.19" y="231.18" width="38.85" height="38.85" transform="translate(531.49 -781.93) rotate(45)" fill="#30c8c9" stroke="#1c2126" stroke-linejoin="round" stroke-width="2"/><rect x="950.09" y="310.13" width="200" height="200" transform="translate(17.56 862.65) rotate(-45)" fill="#ff6b60"/><polyline points="1052.92 548.73 1050.09 551.55 1047.26 548.73" fill="none" stroke="#1c2126" stroke-linejoin="round" stroke-width="2"/><line x1="1041.83" y1="543.29" x2="914.21" y2="415.68" fill="none" stroke="#1c2126" stroke-linejoin="round" stroke-width="2" stroke-dasharray="7.68 7.68"/><polyline points="911.5 412.96 908.67 410.13 911.5 407.3" fill="none" stroke="#1c2126" stroke-linejoin="round" stroke-width="2"/><line x1="916.93" y1="401.87" x2="1044.55" y2="274.25" fill="none" stroke="#1c2126" stroke-linejoin="round" stroke-width="2" stroke-dasharray="7.68 7.68"/><polyline points="1047.26 271.54 1050.09 268.71 1052.92 271.54" fill="none" stroke="#1c2126" stroke-linejoin="round" stroke-width="2"/><line x1="1058.35" y1="276.97" x2="1185.97" y2="404.59" fill="none" stroke="#1c2126" stroke-linejoin="round" stroke-width="2" stroke-dasharray="7.68 7.68"/><polyline points="1188.68 407.3 1191.51 410.13 1188.68 412.96" fill="none" stroke="#1c2126" stroke-linejoin="round" stroke-width="2"/><line x1="1183.25" y1="418.39" x2="1055.63" y2="546.01" fill="none" stroke="#1c2126" stroke-linejoin="round" stroke-width="2" stroke-dasharray="7.68 7.68"/><rect x="975.1" y="335.14" width="149.98" height="149.98" transform="translate(597.57 -622.4) rotate(45)" fill="#ffd3bf" stroke="#1c2126" stroke-linejoin="round" stroke-width="2"/><rect x="1004.55" y="364.6" width="91.07" height="91.07" transform="translate(597.57 -622.4) rotate(45)" fill="#bffde7" stroke="#1c2126" stroke-linejoin="round" stroke-width="2" stroke-dasharray="8"/><rect x="1030.66" y="390.71" width="38.85" height="38.85" transform="translate(597.57 -622.4) rotate(45)" fill="#30c8c9" stroke="#1c2126" stroke-linejoin="round" stroke-width="2"/><rect x="1108.75" y="468.79" width="200" height="200" transform="translate(-48.16 1021.31) rotate(-45)" fill="#ff6b60"/><line x1="1200.49" y1="701.95" x2="1072.87" y2="574.33" fill="none" stroke="#1c2126" stroke-linejoin="round" stroke-width="2" stroke-dasharray="7.68 7.68"/><polyline points="1070.16 571.62 1067.33 568.79 1070.16 565.96" fill="none" stroke="#1c2126" stroke-linejoin="round" stroke-width="2"/><line x1="1075.59" y1="560.53" x2="1203.2" y2="432.91" fill="none" stroke="#1c2126" stroke-linejoin="round" stroke-width="2" stroke-dasharray="7.68 7.68"/><rect x="1133.76" y="493.8" width="149.98" height="149.98" transform="translate(756.23 -688.12) rotate(45)" fill="#ffd3bf" stroke="#1c2126" stroke-linejoin="round" stroke-width="2"/><rect x="1163.21" y="523.25" width="91.07" height="91.07" transform="translate(756.23 -688.12) rotate(45)" fill="#bffde7" stroke="#1c2126" stroke-linejoin="round" stroke-width="2" stroke-dasharray="8"/><rect x="1189.32" y="549.37" width="38.85" height="38.85" transform="translate(756.23 -688.12) rotate(45)" fill="#30c8c9" stroke="#1c2126" stroke-linejoin="round" stroke-width="2"/></g><rect y="500" width="1200" height="130" fill="#fff"/><rect x="1097.49" y="500" width="102.51" height="130" fill="url(#c)"/><line y1="499.19" x2="1200" y2="499.19" fill="none" stroke="#1c2126" stroke-miterlimit="10"/><line x1="1097.49" y1="498.72" x2="1097.49" y2="630" fill="none" stroke="#1c2126" stroke-miterlimit="10"/><path d="M35.09,576.62V557.86H28.7v-2.38H44.05v2.38H37.67v18.76Z" fill="#1c2126"/><path d="M54.92,577.06c-4.8,0-7.75-3.46-7.75-9.3v-3.41c0-5.85,2.95-9.31,7.75-9.31s7.75,3.46,7.75,9.31v3.41C62.67,573.6,59.73,577.06,54.92,577.06Zm5.14-9.31v-3.39c0-4.41-1.93-6.87-5.14-6.87s-5.14,2.46-5.14,6.87v3.39c0,4.4,1.93,6.87,5.14,6.87S60.06,572.15,60.06,567.75Z" fill="#1c2126"/><path d="M70.82,562.75a2.65,2.65,0,1,1,2.65,2.71A2.7,2.7,0,0,1,70.82,562.75Zm0,11.25a2.65,2.65,0,1,1,2.65,2.71A2.69,2.69,0,0,1,70.82,574Z" fill="#1c2126"/><path d="M209.27,581.51a14.89,14.89,0,0,1-5.34-.91,11.41,11.41,0,0,1-6.75-6.75,14.91,14.91,0,0,1-.93-5.39,14.58,14.58,0,0,1,1-5.4,11.83,11.83,0,0,1,2.76-4.18,12.58,12.58,0,0,1,4.26-2.72,14.82,14.82,0,0,1,5.43-1,14.26,14.26,0,0,1,4.87.8,11,11,0,0,1,3.8,2.26,9.83,9.83,0,0,1,2.44,3.51,11.69,11.69,0,0,1,.86,4.56,12.33,12.33,0,0,1-.75,4.5,6.89,6.89,0,0,1-2.07,3,4.86,4.86,0,0,1-3.12,1.05,3.48,3.48,0,0,1-2.73-1,3.58,3.58,0,0,1-.78-2.81l.54.15a6.19,6.19,0,0,1-2.18,2.75,5.2,5.2,0,0,1-3,.94,4.69,4.69,0,0,1-3.68-1.45,5.79,5.79,0,0,1-1.3-4,8.75,8.75,0,0,1,.85-3.94,6.69,6.69,0,0,1,2.36-2.7,6.14,6.14,0,0,1,3.42-1,4.45,4.45,0,0,1,2.77.81,3.8,3.8,0,0,1,1.4,2.28H213l.51-2.82h2l-1.38,7.77c0,.26-.08.51-.11.75s0,.46,0,.66a2.16,2.16,0,0,0,.46,1.5,1.81,1.81,0,0,0,1.4.51,2.93,2.93,0,0,0,2.1-.87,5.81,5.81,0,0,0,1.41-2.41,11.59,11.59,0,0,0,.51-3.62,10.11,10.11,0,0,0-.72-3.9,8.21,8.21,0,0,0-2.07-3,9.34,9.34,0,0,0-3.23-1.89,12.51,12.51,0,0,0-4.18-.66,12.93,12.93,0,0,0-4.73.83,10.42,10.42,0,0,0-3.63,2.34,10.18,10.18,0,0,0-2.32,3.64,13.24,13.24,0,0,0-.81,4.74,12.85,12.85,0,0,0,1.35,6.09,9.3,9.3,0,0,0,3.86,3.92,12.09,12.09,0,0,0,5.89,1.36,12.82,12.82,0,0,0,4.53-.76,8.71,8.71,0,0,0,3.36-2.18l1,1.47a9.5,9.5,0,0,1-3.8,2.34A15.33,15.33,0,0,1,209.27,581.51Zm-1.44-8.4a4,4,0,0,0,2.46-.79,5.3,5.3,0,0,0,1.69-2.21,8,8,0,0,0,.62-3.21,3.73,3.73,0,0,0-.75-2.55,3,3,0,0,0-2.37-.84,4.29,4.29,0,0,0-2.48.75,5.1,5.1,0,0,0-1.72,2.07,7,7,0,0,0-.63,3.06,4.12,4.12,0,0,0,.82,2.76A3,3,0,0,0,207.83,573.11Z" fill="#1c2126"/><path d="M227.27,576.62v-2.13h5V557.6h1.32l-5.82,3.63v-2.49l5.19-3.27h1.8v19h4.68v2.13Z" fill="#1c2126"/><path d="M245.27,576.62v-2.13h5V557.6h1.32l-5.82,3.63v-2.49l5.19-3.27h1.8v19h4.68v2.13Z" fill="#1c2126"/><path d="M267.17,576.89a4.37,4.37,0,0,1-3.39-1.27,5.55,5.55,0,0,1-1.17-3.86v-8.31h-2.94v-1.89h2.94v-4.11l2.43-.69v4.8h4.32v1.89H265v8a4.16,4.16,0,0,0,.61,2.57,2.23,2.23,0,0,0,1.85.76,4.52,4.52,0,0,0,1-.1,5.14,5.14,0,0,0,.81-.26v2a4.69,4.69,0,0,1-1,.29A6.46,6.46,0,0,1,267.17,576.89Z" fill="#1c2126"/><path d="M271.91,583.43l-.57-2a12.5,12.5,0,0,0,2.35-.76,4.67,4.67,0,0,0,1.58-1.16,6.51,6.51,0,0,0,1.08-1.8l.78-1.77-.06,1-6.57-15.39h2.64l5.43,13.23h-.78l5.37-13.23h2.55l-7,16.32a11.58,11.58,0,0,1-1.32,2.42,7.58,7.58,0,0,1-1.55,1.59,7,7,0,0,1-1.81,1A13.08,13.08,0,0,1,271.91,583.43Z" fill="#1c2126"/><circle cx="135.29" cy="563.72" r="40" fill="#1c2126"/><path d="M1163.33,555.54h0l0,0a.19.19,0,0,1,0-.15l1.25-7.62,5.84,5.85-6.08,2.58h-.08l0,0A2.57,2.57,0,0,0,1163.33,555.54Zm8.48-.46,6.25,6.25c1.3,1.3,2,1.95,2.19,2.7l.09.33L1165.4,558h0c-.06,0-.12,0-.12-.11s.07-.1.13-.12h0Zm8.27,11.29a11.28,11.28,0,0,1-2,2.3l-7,7.05-9.12-1.9h0c-.09,0-.17,0-.17-.1a2.75,2.75,0,0,0-1.06-1.93s0-.09,0-.14v0l1.71-10.52v0c0-.08,0-.17.1-.17a2.81,2.81,0,0,0,1.87-1.07.1.1,0,0,1,0,0,.22.22,0,0,1,.17,0l15.56,6.58Zm-10.68,11-11.59,11.58,2-12.19h0a.09.09,0,0,1,0-.05s0,0,.09-.07h0a2.88,2.88,0,0,0,1.12-.83.25.25,0,0,1,.15-.1h0l8.16,1.68Zm-14,14-1.31,1.3-14.44-20.87,0,0a.18.18,0,0,1,0-.1s0,0,0-.06v0a2.12,2.12,0,0,0,.12-.2l0-.06h0a.27.27,0,0,1,.08-.1.17.17,0,0,1,.12,0l16,3.3a.18.18,0,0,1,.12.05.09.09,0,0,1,0,.07,2.81,2.81,0,0,0,1.66,1.89s0,.08,0,.13l0,.07C1157.55,578,1155.82,588.53,1155.36,591.38Zm-2.73,2.72a6.1,6.1,0,0,1-2.17,1.67,3.24,3.24,0,0,1-2,0c-.75-.24-1.4-.89-2.7-2.19l-14.5-14.5,3.79-5.88a.2.2,0,0,1,.06-.07.16.16,0,0,1,.15,0A3.93,3.93,0,0,0,1138,573s.09,0,.12,0l0,0,14.51,21.06Zm-22.72-16.42-3.32-3.33,6.57-2.8h0s.09.05.11.1l.21.3,0,0a.09.09,0,0,1,0,.08l-3.63,5.63Zm-4.8-4.8-4.21-4.21c-.71-.71-1.23-1.23-1.59-1.68l12.8,2.65h0c.08,0,.17,0,.17.1s-.1.12-.18.15l0,0Zm-6.54-8a3.54,3.54,0,0,1,.15-.8c.24-.75.89-1.4,2.18-2.7l5.39-5.39q3.72,5.4,7.46,10.78c0,.06.09.13,0,.18a4.35,4.35,0,0,0-.63.85.28.28,0,0,1-.09.1H1133l-14.43-3Zm9.16-10.33,7.24-7.24c.68.3,3.16,1.34,5.38,2.28l3.68,1.56a.17.17,0,0,1,.11.09.12.12,0,0,1,0,.1,3.22,3.22,0,0,0,.85,2.94s0,.12,0,.18l0,0-7.35,11.38a.31.31,0,0,1-.07.09.22.22,0,0,1-.14,0,3.2,3.2,0,0,0-.87-.12,5.05,5.05,0,0,0-.84.1h0s-.06,0-.08,0a.3.3,0,0,1-.08-.08l-7.75-11.31Zm8.71-8.7,9.37-9.38c1.3-1.3,2-1.95,2.7-2.19a3.24,3.24,0,0,1,2,0c.75.24,1.4.89,2.7,2.19l2,2-6.67,10.33-.07.08a.22.22,0,0,1-.14,0,3.39,3.39,0,0,0-3.1.59s-.11,0-.16,0C1144.18,549.07,1137.41,546.21,1136.44,545.8Zm20.16-5.93,6.16,6.15-1.48,9.19v0a.14.14,0,0,1,0,.06s0,0-.08.05a2.8,2.8,0,0,0-.88.44l0,0a.1.1,0,0,1-.07,0s0,0-.07,0l-9.38-4h0c-.06,0-.13-.05-.13-.12a3.39,3.39,0,0,0-.5-1.47c0-.08-.09-.15,0-.23Zm-6.34,13.88,8.8,3.72a.19.19,0,0,1,.12.09.17.17,0,0,1,0,.1,1.79,1.79,0,0,0,0,.42v.25c0,.06-.06.08-.12.11h0l-19.58,8.35a.11.11,0,0,1-.09,0s0-.12,0-.18l0,0,7.23-11.19v0c0-.07.09-.15.17-.15l.07,0a3.75,3.75,0,0,0,.45,0,3.25,3.25,0,0,0,2.73-1.45l0-.06A.15.15,0,0,1,1150.26,553.75Zm-10.07,14.81,19.8-8.45a.09.09,0,0,1,.06,0,2.82,2.82,0,0,0,.29.25l0,0s.08.05.09.1a.08.08,0,0,1,0,0L1158.77,571v0c0,.08,0,.17-.1.17a2.75,2.75,0,0,0-2.21,1.37h0a.18.18,0,0,1-.08.09.14.14,0,0,1-.11,0l-15.8-3.25S1140.21,568.56,1140.19,568.56Z" fill="#fff"/><line x1="548.51" y1="498.72" x2="548.51" y2="630" fill="none" stroke="#1c2126" stroke-miterlimit="10"/><path d="M584.7,576.62V555.48h12.46v2.38h-9.87v7.25h9v2.3h-9v9.21Z" fill="#1c2126"/><path d="M604.74,568.2v8.42h-2.55V555.48h7.09c4.19,0,6.81,2.44,6.81,6.36a5.91,5.91,0,0,1-3.94,5.83l4.31,9h-2.92l-3.94-8.42Zm0-2.18h4.19c2.91,0,4.55-1.48,4.55-4.12s-1.61-4.12-4.44-4.12h-4.3Z" fill="#1c2126"/><path d="M627.34,577.06c-4.81,0-7.75-3.46-7.75-9.3v-3.41c0-5.85,2.94-9.31,7.75-9.31s7.75,3.46,7.75,9.31v3.41C635.09,573.6,632.14,577.06,627.34,577.06Zm5.14-9.31v-3.39c0-4.41-1.93-6.87-5.14-6.87s-5.14,2.46-5.14,6.87v3.39c0,4.4,1.93,6.87,5.14,6.87S632.48,572.15,632.48,567.75Z" fill="#1c2126"/><path d="M640.57,576.62h-2.3V555.48h2.88l4.65,13.13H646l4.61-13.13h2.9v21.14h-2.3v-8.11l.13-8.56h-.19l-4.25,11.71h-2L640.62,560h-.19l.14,8.56Z" fill="#1c2126"/><path d="M661.78,562.75a2.65,2.65,0,1,1,2.65,2.71A2.7,2.7,0,0,1,661.78,562.75Zm0,11.25a2.65,2.65,0,1,1,2.65,2.71A2.69,2.69,0,0,1,661.78,574Z" fill="#1c2126"/><path d="M804.86,581.51a14.89,14.89,0,0,1-5.34-.91,11.41,11.41,0,0,1-6.75-6.75,14.91,14.91,0,0,1-.93-5.39,14.58,14.58,0,0,1,1-5.4,11.83,11.83,0,0,1,2.76-4.18,12.58,12.58,0,0,1,4.26-2.72,14.82,14.82,0,0,1,5.43-1,14.31,14.31,0,0,1,4.88.8,11,11,0,0,1,3.79,2.26,10,10,0,0,1,2.45,3.51,11.69,11.69,0,0,1,.85,4.56,12.33,12.33,0,0,1-.75,4.5,6.89,6.89,0,0,1-2.07,3,4.86,4.86,0,0,1-3.12,1.05,3.48,3.48,0,0,1-2.73-1,3.58,3.58,0,0,1-.78-2.81l.54.15a6.18,6.18,0,0,1-2.17,2.75,5.24,5.24,0,0,1-3,.94,4.67,4.67,0,0,1-3.67-1.45,5.8,5.8,0,0,1-1.31-4,8.75,8.75,0,0,1,.86-3.94,6.66,6.66,0,0,1,2.35-2.7,6.14,6.14,0,0,1,3.42-1,4.48,4.48,0,0,1,2.78.81,3.79,3.79,0,0,1,1.39,2.28h-.36l.51-2.82h2l-1.38,7.77c0,.26-.07.51-.1.75a5.42,5.42,0,0,0,0,.66,2.16,2.16,0,0,0,.47,1.5,1.78,1.78,0,0,0,1.39.51,2.93,2.93,0,0,0,2.1-.87,5.81,5.81,0,0,0,1.41-2.41,11.59,11.59,0,0,0,.51-3.62,10.11,10.11,0,0,0-.72-3.9,8.21,8.21,0,0,0-2.07-3,9.29,9.29,0,0,0-3.22-1.89,12.57,12.57,0,0,0-4.19-.66,12.88,12.88,0,0,0-4.72.83,10.42,10.42,0,0,0-3.63,2.34,10.21,10.21,0,0,0-2.33,3.64,13.24,13.24,0,0,0-.81,4.74,12.85,12.85,0,0,0,1.35,6.09,9.35,9.35,0,0,0,3.86,3.92,12.12,12.12,0,0,0,5.89,1.36,12.82,12.82,0,0,0,4.53-.76,8.71,8.71,0,0,0,3.36-2.18l1,1.47A9.46,9.46,0,0,1,810,580.7,15.39,15.39,0,0,1,804.86,581.51Zm-1.44-8.4a4,4,0,0,0,2.46-.79,5.31,5.31,0,0,0,1.7-2.21,8,8,0,0,0,.61-3.21,3.73,3.73,0,0,0-.75-2.55,3,3,0,0,0-2.37-.84,4.26,4.26,0,0,0-2.47.75,5.12,5.12,0,0,0-1.73,2.07,7,7,0,0,0-.63,3.06,4.12,4.12,0,0,0,.83,2.76A2.93,2.93,0,0,0,803.42,573.11Z" fill="#1c2126"/><path d="M821.42,576.62V554.54h2.43v22.08Z" fill="#1c2126"/><path d="M828,583.43l-.57-2a12.62,12.62,0,0,0,2.36-.76,4.63,4.63,0,0,0,1.57-1.16,6.51,6.51,0,0,0,1.08-1.8l.78-1.77-.06,1-6.57-15.39h2.64l5.43,13.23h-.78l5.37-13.23h2.55l-7,16.32a11.58,11.58,0,0,1-1.32,2.42,7.55,7.55,0,0,1-1.54,1.59,7.06,7.06,0,0,1-1.82,1A13.08,13.08,0,0,1,828,583.43Z" fill="#1c2126"/><path d="M844.49,576.62V565c0-.56,0-1.13-.07-1.72s-.11-1.18-.17-1.76h2.34l.3,3.3h-.36a5.21,5.21,0,0,1,2.12-2.65,6.19,6.19,0,0,1,3.37-.92,5.35,5.35,0,0,1,4,1.43,6.29,6.29,0,0,1,1.36,4.48v9.42H855v-9.27a4.63,4.63,0,0,0-.85-3.1,3.36,3.36,0,0,0-2.66-1,4.38,4.38,0,0,0-3.33,1.29,4.79,4.79,0,0,0-1.23,3.45v8.61Z" fill="#1c2126"/><path d="M862.07,576.62V565c0-.56,0-1.13-.07-1.72s-.11-1.18-.17-1.76h2.34l.3,3.3h-.36a5.21,5.21,0,0,1,2.12-2.65,6.19,6.19,0,0,1,3.37-.92,5.35,5.35,0,0,1,4,1.43A6.29,6.29,0,0,1,875,567.2v9.42h-2.43v-9.27a4.63,4.63,0,0,0-.85-3.1,3.36,3.36,0,0,0-2.66-1,4.38,4.38,0,0,0-3.33,1.29A4.79,4.79,0,0,0,864.5,568v8.61Z" fill="#1c2126"/><path d="M885.38,576.89a6.44,6.44,0,0,1-3.51-.94,6.25,6.25,0,0,1-2.32-2.69,11,11,0,0,1,0-8.37,6.14,6.14,0,0,1,2.32-2.67,6.52,6.52,0,0,1,3.51-.93,6,6,0,0,1,3.53,1,4.85,4.85,0,0,1,2,2.8h-.36l.33-3.57h2.34c-.06.58-.11,1.17-.16,1.76s-.08,1.16-.08,1.72v11.58h-2.43v-3.54h.33a4.78,4.78,0,0,1-2,2.79A6,6,0,0,1,885.38,576.89Zm.48-2a4.25,4.25,0,0,0,3.42-1.48,8.14,8.14,0,0,0,0-8.7,4.65,4.65,0,0,0-6.82,0,8,8,0,0,0,0,8.7A4.25,4.25,0,0,0,885.86,574.91Z" fill="#1c2126"/><path d="M897.65,576.62V565c0-.56,0-1.13-.07-1.72s-.11-1.18-.17-1.76h2.34l.3,3.3h-.36a5.21,5.21,0,0,1,2.12-2.65,6.19,6.19,0,0,1,3.37-.92,5.35,5.35,0,0,1,4,1.43,6.29,6.29,0,0,1,1.36,4.48v9.42h-2.43v-9.27a4.63,4.63,0,0,0-.85-3.1,3.36,3.36,0,0,0-2.66-1,4.38,4.38,0,0,0-3.33,1.29,4.79,4.79,0,0,0-1.23,3.45v8.61Z" fill="#1c2126"/><path d="M920.93,576.89a6.39,6.39,0,0,1-3.48-.94,6.25,6.25,0,0,1-2.32-2.69,11,11,0,0,1,0-8.37,6.14,6.14,0,0,1,2.32-2.67,6.47,6.47,0,0,1,3.48-.93,6.09,6.09,0,0,1,3.53,1,4.93,4.93,0,0,1,2,2.76h-.36V554.54h2.43v22.08h-2.4V573h.33a4.86,4.86,0,0,1-2,2.84A6.08,6.08,0,0,1,920.93,576.89Zm.51-2a4.3,4.3,0,0,0,3.42-1.48,8,8,0,0,0,0-8.7,4.31,4.31,0,0,0-3.42-1.49,4.26,4.26,0,0,0-3.4,1.49,8,8,0,0,0,0,8.7A4.25,4.25,0,0,0,921.44,574.91Z" fill="#1c2126"/><path d="M938.57,576.89a4.37,4.37,0,0,1-3.39-1.27,5.55,5.55,0,0,1-1.17-3.86v-8.31h-2.94v-1.89H934v-4.11l2.43-.69v4.8h4.32v1.89h-4.32v8a4.16,4.16,0,0,0,.62,2.57,2.21,2.21,0,0,0,1.84.76,4.52,4.52,0,0,0,1-.1,5.14,5.14,0,0,0,.81-.26v2a4.59,4.59,0,0,1-1,.29A6.57,6.57,0,0,1,938.57,576.89Z" fill="#1c2126"/><path d="M949.76,576.89A7.26,7.26,0,0,1,946,576a6.3,6.3,0,0,1-2.48-2.7,10.4,10.4,0,0,1,0-8.33,6.31,6.31,0,0,1,2.48-2.68,7.27,7.27,0,0,1,3.76-1,7.37,7.37,0,0,1,3.8,1,6.39,6.39,0,0,1,2.49,2.68,10.3,10.3,0,0,1,0,8.33,6.39,6.39,0,0,1-2.49,2.7A7.36,7.36,0,0,1,949.76,576.89Zm0-2a4.25,4.25,0,0,0,3.42-1.48,8.14,8.14,0,0,0,0-8.7,4.64,4.64,0,0,0-6.81,0,8.14,8.14,0,0,0,0,8.7A4.21,4.21,0,0,0,949.76,574.91Z" fill="#1c2126"/><path d="M960.71,576.62V565c0-.56,0-1.13-.07-1.72s-.11-1.18-.17-1.76h2.34l.3,3.3h-.36a5.21,5.21,0,0,1,2.12-2.65,6.19,6.19,0,0,1,3.37-.92,5.35,5.35,0,0,1,4,1.43,6.29,6.29,0,0,1,1.36,4.48v9.42h-2.43v-9.27a4.63,4.63,0,0,0-.85-3.1,3.36,3.36,0,0,0-2.66-1,4.38,4.38,0,0,0-3.33,1.29,4.79,4.79,0,0,0-1.23,3.45v8.61Z" fill="#1c2126"/><path d="M978,558.14v-2.73h3v2.73Zm.3,18.48V561.56h2.43v15.06Z" fill="#1c2126"/><path d="M991.76,576.89a7.46,7.46,0,0,1-3.85-1,6.41,6.41,0,0,1-2.52-2.73,9.29,9.29,0,0,1-.89-4.2,8.93,8.93,0,0,1,.9-4.18,6.2,6.2,0,0,1,2.54-2.63,7.79,7.79,0,0,1,3.82-.9,8,8,0,0,1,2.81.51,6,6,0,0,1,2.26,1.44L996,565a6,6,0,0,0-2-1.29,5.69,5.69,0,0,0-2.09-.42,4.57,4.57,0,0,0-3.63,1.47A6.32,6.32,0,0,0,987,569a6.51,6.51,0,0,0,1.29,4.32,4.49,4.49,0,0,0,3.63,1.53,6,6,0,0,0,2.06-.39,5.66,5.66,0,0,0,2-1.29l.87,1.71a6.11,6.11,0,0,1-2.31,1.47A7.91,7.91,0,0,1,991.76,576.89Z" fill="#1c2126"/><circle cx="730.89" cy="563.72" r="40" fill="#1c2126"/></svg>