<svg xmlns="http://www.w3.org/2000/svg" width="1200" height="630" viewBox="0 0 1200 630"><rect x="-3730.07" y="-821.85" width="6221.73" height="2273.11" fill="#a6a6a6"/><rect width="1200" height="498.72" fill="#ffb916"/><path d="M602.23,330.36c-22.38,0-29.57-7.1-29.57-29.07V283c0-12.88-6.52-18.91-25.19-17.67V245.62c18.67,1.24,25.19-4.79,25.19-17.76V209.53c0-22,7.19-29.08,29.57-29.08h12.48v15.36h-8.35c-12,0-14.37,2.81-14.37,16.69v22.71c0,11.32-8.34,18.83-24,19.5v1.48c15.61.66,24,8.1,24,19.49v22.63c0,13.88,2.4,16.69,14.37,16.69h8.35v15.36Z" fill="#1c2126"/><path d="M1070.33,315h8.35c12,0,14.37-2.81,14.37-16.69V275.68c0-11.39,8.34-18.83,24-19.49v-1.48c-15.61-.67-24-8.18-24-19.5V212.5c0-13.88-2.4-16.69-14.37-16.69h-8.35V180.45h12.48c22.38,0,29.57,7.1,29.57,29.08v18.33c0,13,6.52,19,25.19,17.76v19.66c-18.67-1.24-25.19,4.79-25.19,17.67v18.34c0,22-7.19,29.07-29.57,29.07h-12.48Z" fill="#1c2126"/><path d="M67.66,157.26,79.23,84.45h22.3L90,157.26Z" fill="#1c2126"/><path d="M161.64,158.5q-10,0-16.63-3.87A21.94,21.94,0,0,1,135.56,144a27.4,27.4,0,0,1-1.5-15.18,30,30,0,0,1,5.84-14.15,27.63,27.63,0,0,1,11.51-8.52,41.94,41.94,0,0,1,15.81-2.84,39.35,39.35,0,0,1,9.6,1.24,20.89,20.89,0,0,1,7.85,3.51l-6.09,14.46a15.1,15.1,0,0,0-5-2.27,22.35,22.35,0,0,0-5.84-.83,12.49,12.49,0,0,0-7.59,2.38q-3.25,2.37-4.18,8a12.11,12.11,0,0,0,1.55,8.78c1.58,2.48,4.27,3.72,8.05,3.72a17.12,17.12,0,0,0,5.17-.93A26.45,26.45,0,0,0,176.2,139l5.17,14.25A23.56,23.56,0,0,1,173.1,157,42.43,42.43,0,0,1,161.64,158.5Z" fill="#1c2126"/><path d="M213.59,158.5q-9.83,0-16.32-3.67A20.52,20.52,0,0,1,188,144.51q-2.75-6.66-1.3-15.65a30.31,30.31,0,0,1,5.79-14.15,27.49,27.49,0,0,1,11.26-8.52,38.83,38.83,0,0,1,15.07-2.84q9.92,0,16.32,3.67a20.46,20.46,0,0,1,9.09,10.27q2.69,6.61,1.24,15.7a30.64,30.64,0,0,1-5.73,14.15,27.15,27.15,0,0,1-11.1,8.52A38.46,38.46,0,0,1,213.59,158.5Zm1.13-15.8a8,8,0,0,0,6-2.53c1.62-1.69,2.74-4.42,3.36-8.21q1.14-7.23-.83-10a6.5,6.5,0,0,0-5.67-2.79,8.13,8.13,0,0,0-6.05,2.48c-1.62,1.65-2.73,4.41-3.35,8.26q-1.14,7.23.77,10A6.47,6.47,0,0,0,214.72,142.7Z" fill="#1c2126"/><path d="M269.87,158.5q-10.22,0-14.56-6t-2.69-16.89l5-31h21.48l-4.95,31.19q-.53,3.21.72,4.8a4.9,4.9,0,0,0,4.13,1.6,6.66,6.66,0,0,0,5.37-2.32,12.36,12.36,0,0,0,2.58-6.15l4.65-29.12H313l-8.36,52.67h-21l1.34-8.67h1.66a24.08,24.08,0,0,1-7.18,7.33A17.69,17.69,0,0,1,269.87,158.5Z" fill="#1c2126"/><path d="M314.59,157.26l12.08-76h21.49l-12.09,76Z" fill="#1c2126"/><path d="M368.6,158.5a19.8,19.8,0,0,1-12.29-3.82,20.86,20.86,0,0,1-7.23-10.53,32.88,32.88,0,0,1-.82-15.29,34.86,34.86,0,0,1,5.16-14.25,24.31,24.31,0,0,1,9.5-8.47,27.75,27.75,0,0,1,12.4-2.79,20.09,20.09,0,0,1,10.17,2.53c2.93,1.69,4.66,3.87,5.22,6.56h-1.24l4.95-31.19h21.49l-12.09,76H382.65l1.34-8.47h1.65a17.13,17.13,0,0,1-6.55,7A19.72,19.72,0,0,1,368.6,158.5Zm8.06-15.8a8.64,8.64,0,0,0,6.3-2.53c1.72-1.69,2.89-4.42,3.51-8.21q1.14-7.23-.93-10a7,7,0,0,0-6-2.79,8.72,8.72,0,0,0-6.35,2.48c-1.69,1.65-2.84,4.41-3.46,8.26q-1.14,7.23.93,10A7,7,0,0,0,376.66,142.7Z" fill="#1c2126"/><path d="M413.74,157.26l6-37.69q.51-3.72.93-7.49t.62-7.49h20.65l-.21,8.37-1.13.1a20,20,0,0,1,7.9-7.28A22.86,22.86,0,0,1,459,103.35q9.19,0,13.32,5.78t2.17,18.08l-4.75,30.05H448.23L453,127q.61-3.91-.72-5.63a4.5,4.5,0,0,0-3.72-1.7,7.84,7.84,0,0,0-5.78,2.27,10.65,10.65,0,0,0-2.89,6l-4.65,29.33Z" fill="#1c2126"/><path d="M492.74,123.08l-6.81-7.34a41.19,41.19,0,0,0,6.92-7.12,21.65,21.65,0,0,0,3.3-8.06l3.72,5.27H484.79l3.41-21.38H510l-2.37,14.87a39.28,39.28,0,0,1-2.33,8.73,29.55,29.55,0,0,1-4.54,7.59A46.37,46.37,0,0,1,492.74,123.08Z" fill="#1c2126"/><path d="M537.46,158.5q-12.29,0-17.4-6t-3.46-16.68l2.48-15.49h-9.71l2.48-15.7h9.71l1.85-11.88,22.31-4.95L543,104.59h12.18l-2.47,15.7H540.56l-2.38,14.87c-.41,2.55,0,4.23,1.35,5.06a8.27,8.27,0,0,0,4.54,1.24,14.88,14.88,0,0,0,2.74-.21,22.67,22.67,0,0,0,2.73-.72L547,156.85a20.54,20.54,0,0,1-5,1.34A35,35,0,0,1,537.46,158.5Z" fill="#1c2126"/><path d="M71.58,287.26l5.89-37H67.76l2.48-15.7H86l-7,5.58,1.14-6.72q1.75-11.35,8.83-17t20.19-5.62a35.63,35.63,0,0,1,5.42.41,26.6,26.6,0,0,1,4.9,1.24l-2.58,16.21a15.51,15.51,0,0,0-2.79-.72,20.1,20.1,0,0,0-3.09-.21,17.76,17.76,0,0,0-3.77.47,9.28,9.28,0,0,0-3.83,1.81,5.94,5.94,0,0,0-2.11,3.92l-.62,3.72-2.38-3.1h15.08l-2.48,15.7H99l-5.88,37Z" fill="#1c2126"/><path d="M130.76,288.5q-10.23,0-14.56-6t-2.69-16.89l5-31H140L135,265.78q-.52,3.21.72,4.8c.82,1.07,2.2,1.6,4.13,1.6a6.66,6.66,0,0,0,5.37-2.32,12.36,12.36,0,0,0,2.58-6.15l4.65-29.12h21.48l-8.36,52.67h-21l1.34-8.67h1.65a23.94,23.94,0,0,1-7.17,7.33A17.69,17.69,0,0,1,130.76,288.5Z" fill="#1c2126"/><path d="M175.48,287.26l6-37.69q.51-3.72.93-7.49t.62-7.49h20.65l-.2,8.37-1.14.1a20,20,0,0,1,7.9-7.28,22.89,22.89,0,0,1,10.48-2.43q9.19,0,13.33,5.78t2.17,18.08l-4.75,30.05H210L214.72,257q.63-3.92-.72-5.63a4.47,4.47,0,0,0-3.72-1.7,7.84,7.84,0,0,0-5.78,2.27,10.65,10.65,0,0,0-2.89,6L197,287.26Z" fill="#1c2126"/><path d="M271,288.5q-10,0-16.63-3.87A22,22,0,0,1,244.93,274a27.4,27.4,0,0,1-1.5-15.18,30,30,0,0,1,5.84-14.15,27.66,27.66,0,0,1,11.52-8.52,41.85,41.85,0,0,1,15.8-2.84,39.29,39.29,0,0,1,9.6,1.24A20.89,20.89,0,0,1,294,238.1L288,252.56a15.1,15.1,0,0,0-5-2.27,22.35,22.35,0,0,0-5.84-.83,12.49,12.49,0,0,0-7.59,2.38q-3.25,2.37-4.18,8a12.11,12.11,0,0,0,1.55,8.78c1.58,2.48,4.27,3.72,8.05,3.72a17.12,17.12,0,0,0,5.17-.93,26.22,26.22,0,0,0,5.47-2.48l5.17,14.25a23.56,23.56,0,0,1-8.27,3.77A42.43,42.43,0,0,1,271,288.5Z" fill="#1c2126"/><path d="M324.51,288.5q-12.3,0-17.41-6t-3.46-16.68l2.48-15.49h-9.71l2.48-15.7h9.71l1.86-11.88,22.31-5-2.69,16.83h12.19l-2.48,15.7H327.6l-2.37,14.87c-.41,2.55,0,4.23,1.34,5.06a8.3,8.3,0,0,0,4.55,1.24,14.69,14.69,0,0,0,2.73-.21,22.28,22.28,0,0,0,2.74-.72L334,286.85a20.54,20.54,0,0,1-5,1.34A35.08,35.08,0,0,1,324.51,288.5Z" fill="#1c2126"/><path d="M340.1,287.26l8.36-52.67H370l-8.37,52.67Zm9-58.66,3-18.8h22.1l-3,18.8Z" fill="#1c2126"/><path d="M400.72,288.5q-9.81,0-16.32-3.67a20.56,20.56,0,0,1-9.24-10.32q-2.75-6.66-1.29-15.65a30.2,30.2,0,0,1,5.78-14.15,27.56,27.56,0,0,1,11.26-8.52A38.88,38.88,0,0,1,406,233.35q9.92,0,16.32,3.67a20.5,20.5,0,0,1,9.09,10.27q2.67,6.61,1.23,15.7a30.43,30.43,0,0,1-5.73,14.15,27,27,0,0,1-11.1,8.52A38.42,38.42,0,0,1,400.72,288.5Zm1.14-15.8a8,8,0,0,0,6-2.53c1.62-1.69,2.74-4.42,3.36-8.21q1.13-7.23-.83-10a6.51,6.51,0,0,0-5.68-2.79,8.12,8.12,0,0,0-6,2.48c-1.62,1.65-2.74,4.41-3.36,8.26q-1.14,7.23.78,10A6.47,6.47,0,0,0,401.86,272.7Z" fill="#1c2126"/><path d="M436.66,287.26l6-37.69q.53-3.72.93-7.49c.28-2.51.48-5,.62-7.49h20.66l-.21,8.37-1.14.1a20,20,0,0,1,7.91-7.28,22.86,22.86,0,0,1,10.48-2.43q9.19,0,13.32,5.78t2.17,18.08l-4.75,30.05H471.16L475.91,257q.61-3.92-.73-5.63a4.47,4.47,0,0,0-3.71-1.7,7.86,7.86,0,0,0-5.79,2.27,10.72,10.72,0,0,0-2.89,6l-4.65,29.33Z" fill="#1c2126"/><path d="M82.12,417.26,68,364.59h21l7.13,31.09H93.48l16.73-31.09h13L130,395.68h-2l16.73-31.09H166L135.2,417.26H117.54L109.28,385h8L99.78,417.26Z" fill="#1c2126"/><path d="M160.5,417.26l8.37-52.67h21.48L182,417.26Zm9-58.66,3-18.8h22.1l-3,18.8Z" fill="#1c2126"/><path d="M221.13,418.5q-12.3,0-17.41-6t-3.46-16.68l2.48-15.49H193l2.47-15.7h9.71l1.86-11.88,22.31-4.95-2.69,16.83h12.19l-2.48,15.7H224.23l-2.38,14.87c-.41,2.55,0,4.23,1.34,5.06a8.3,8.3,0,0,0,4.55,1.24,14.69,14.69,0,0,0,2.73-.21,22.28,22.28,0,0,0,2.74-.72l-2.58,16.32a20.54,20.54,0,0,1-5,1.34A35.08,35.08,0,0,1,221.13,418.5Z" fill="#1c2126"/><path d="M236.72,417.26l12.08-76h21.49l-5.06,31.81h-1.66a20,20,0,0,1,7.9-7.28A22.9,22.9,0,0,1,282,363.35q9.18,0,13.32,5.78t2.17,18.08l-4.75,30.05H271.22L276,387c.41-2.61.19-4.49-.68-5.63a4.43,4.43,0,0,0-3.76-1.7,7.8,7.8,0,0,0-5.84,2.27,10.87,10.87,0,0,0-2.84,6l-4.65,29.33Z" fill="#1c2126"/><path d="M331.53,418.5q-9.81,0-16.32-3.67A20.52,20.52,0,0,1,306,404.51q-2.75-6.66-1.29-15.65a30.2,30.2,0,0,1,5.78-14.15,27.49,27.49,0,0,1,11.26-8.52,38.88,38.88,0,0,1,15.08-2.84q9.92,0,16.31,3.67a20.46,20.46,0,0,1,9.09,10.27q2.69,6.61,1.24,15.7a30.43,30.43,0,0,1-5.73,14.15,27.15,27.15,0,0,1-11.1,8.52A38.42,38.42,0,0,1,331.53,418.5Zm1.14-15.8a8,8,0,0,0,6-2.53c1.61-1.69,2.73-4.42,3.35-8.21q1.14-7.23-.82-10a6.51,6.51,0,0,0-5.68-2.79,8.11,8.11,0,0,0-6,2.48c-1.62,1.65-2.74,4.41-3.36,8.26q-1.14,7.23.77,10A6.5,6.5,0,0,0,332.67,402.7Z" fill="#1c2126"/><path d="M387.82,418.5q-10.23,0-14.57-6t-2.68-16.89l5-31H397l-5,31.19c-.35,2.14-.1,3.74.72,4.8a4.91,4.91,0,0,0,4.13,1.6,6.63,6.63,0,0,0,5.37-2.32,12.46,12.46,0,0,0,2.59-6.15l4.64-29.12H431l-8.37,52.67h-21l1.35-8.67h1.65a24.08,24.08,0,0,1-7.18,7.33A17.68,17.68,0,0,1,387.82,418.5Z" fill="#1c2126"/><path d="M461.76,418.5q-12.28,0-17.4-6t-3.46-16.68l2.48-15.49h-9.71l2.48-15.7h9.71l1.85-11.88L470,347.76l-2.68,16.83h12.18l-2.47,15.7H464.86l-2.38,14.87c-.41,2.55,0,4.23,1.35,5.06a8.27,8.27,0,0,0,4.54,1.24,14.88,14.88,0,0,0,2.74-.21,22.67,22.67,0,0,0,2.73-.72l-2.58,16.32a20.54,20.54,0,0,1-5,1.34A35,35,0,0,1,461.76,418.5Z" fill="#1c2126"/><path d="M505.24,440.71,502,424.18c3.44-.55,6.33-1.14,8.67-1.75a18.44,18.44,0,0,0,5.94-2.64,14.17,14.17,0,0,0,4.08-4.49l3.51-5.89-1,7.85-14.56-52.67h21.79l6.81,31.5h-3.71l17.55-31.5h21.79l-31.8,52.88A61.75,61.75,0,0,1,533,428.42a37.28,37.28,0,0,1-8.37,6.66,36.13,36.13,0,0,1-9,3.61Q510.81,439.88,505.24,440.71Z" fill="#1c2126"/><path d="M594.26,418.5q-9.81,0-16.31-3.67a20.58,20.58,0,0,1-9.25-10.32q-2.73-6.66-1.29-15.65a30.2,30.2,0,0,1,5.78-14.15,27.56,27.56,0,0,1,11.26-8.52,38.92,38.92,0,0,1,15.08-2.84q9.91,0,16.32,3.67a20.5,20.5,0,0,1,9.09,10.27q2.68,6.61,1.24,15.7a30.54,30.54,0,0,1-5.74,14.15,27,27,0,0,1-11.1,8.52A38.39,38.39,0,0,1,594.26,418.5Zm1.14-15.8a8,8,0,0,0,6-2.53c1.62-1.69,2.74-4.42,3.36-8.21q1.13-7.23-.83-10a6.51,6.51,0,0,0-5.68-2.79,8.12,8.12,0,0,0-6,2.48c-1.62,1.65-2.74,4.41-3.36,8.26q-1.14,7.23.78,10A6.47,6.47,0,0,0,595.4,402.7Z" fill="#1c2126"/><path d="M650.55,418.5q-10.23,0-14.56-6t-2.69-16.89l5-31h21.48l-5,31.19q-.51,3.21.73,4.8c.82,1.07,2.2,1.6,4.13,1.6a6.66,6.66,0,0,0,5.37-2.32,12.45,12.45,0,0,0,2.58-6.15l4.65-29.12h21.48l-8.37,52.67h-21l1.34-8.67h1.65a24,24,0,0,1-7.17,7.33A17.72,17.72,0,0,1,650.55,418.5Z" fill="#1c2126"/><path d="M768.43,249c-1.53-3.48-4.33-6.24-7.23-8.72-5.08-4.34-11.14-8.26-17.82-8.17-7,.1-13.21,4.61-17.91,9.8a57,57,0,0,0-10.07,15.76c-3.92-7.84-9.56-15-17.1-19.48s-17.36-6-25.53-2.48-14.13,12.29-13,21.09c1,8.44,7.73,14.91,14,20.6q23.67,21.35,48,41.92l35.67-40.24C765,270.6,773,259.35,768.43,249Z" fill="#1c2126" stroke="#1c2126" stroke-linejoin="round" stroke-width="2" opacity="0.1"/><path d="M905.81,249c-1.54-3.48-4.34-6.24-7.24-8.72-5.08-4.34-11.14-8.26-17.82-8.17-7,.1-13.21,4.61-17.91,9.8a56.93,56.93,0,0,0-10.06,15.76c-3.93-7.84-9.57-15-17.11-19.48s-17.36-6-25.53-2.48S796,248,797.11,256.79c1.06,8.44,7.73,14.91,14,20.6q23.67,21.35,48,41.92l35.67-40.24C902.34,270.6,910.36,259.35,905.81,249Z" fill="#1c2126" stroke="#1c2126" stroke-linejoin="round" stroke-width="2" opacity="0.1"/><path d="M1044.62,249c-1.53-3.48-4.34-6.24-7.23-8.72-5.08-4.34-11.14-8.26-17.82-8.17-7,.1-13.21,4.61-17.92,9.8a57.16,57.16,0,0,0-10.06,15.76c-3.93-7.84-9.56-15-17.1-19.48s-17.37-6-25.53-2.48-14.14,12.29-13,21.09c1.05,8.44,7.73,14.91,14,20.6q23.67,21.35,48,41.92l35.66-40.24C1041.16,270.6,1049.17,259.35,1044.62,249Z" fill="#1c2126" stroke="#1c2126" stroke-linejoin="round" stroke-width="2" opacity="0.1"/><path d="M758.13,233c-1.53-3.49-4.33-6.25-7.23-8.73-5.08-4.34-11.14-8.26-17.82-8.16-7,.09-13.21,4.6-17.91,9.79a57.11,57.11,0,0,0-10.07,15.76c-3.92-7.84-9.56-15-17.1-19.48s-17.36-5.94-25.53-2.48-14.13,12.29-13,21.09c1,8.44,7.73,14.91,14,20.61q23.65,21.35,48,41.91l35.67-40.24C754.67,254.64,762.69,243.38,758.13,233Z" fill="#db4648" stroke="#1c2126" stroke-linejoin="round" stroke-width="2"/><path d="M895.5,233c-1.53-3.49-4.33-6.25-7.23-8.73-5.08-4.34-11.14-8.26-17.82-8.16-7,.09-13.21,4.6-17.91,9.79a57.34,57.34,0,0,0-10.07,15.76c-3.92-7.84-9.56-15-17.1-19.48s-17.36-5.94-25.53-2.48-14.13,12.29-13,21.09c1.06,8.44,7.73,14.91,14.05,20.61q23.67,21.35,48,41.91l35.67-40.24C892,254.64,900.06,243.38,895.5,233Z" fill="#ff6b60" stroke="#1c2126" stroke-linejoin="round" stroke-width="2"/><path d="M1034.32,233c-1.54-3.49-4.34-6.25-7.23-8.73C1022,220,1016,216,1009.26,216.14c-7,.09-13.2,4.6-17.91,9.79a57.08,57.08,0,0,0-10.06,15.76c-3.93-7.84-9.57-15-17.1-19.48s-17.37-5.94-25.54-2.48-14.13,12.29-13,21.09c1.06,8.44,7.74,14.91,14,20.61q23.67,21.35,48,41.91l35.67-40.24C1030.85,254.64,1038.87,243.38,1034.32,233Z" fill="#db4648" stroke="#1c2126" stroke-linejoin="round" stroke-width="2"/><rect y="595" width="1200" height="35" fill="#fff"/><rect y="499.19" width="1200" height="95.81" fill="#fff"/><line y1="499.19" x2="1200" y2="499.19" fill="none" stroke="#1c2126" stroke-miterlimit="10"/><line y1="595" x2="1200" y2="595" fill="none" stroke="#1c2126" stroke-miterlimit="10"/><path d="M24.24,559.45V540.69H17.85v-2.37H33.21v2.37H26.82v18.76Z" fill="#1c2126"/><path d="M44.08,559.89c-4.81,0-7.75-3.45-7.75-9.3v-3.41c0-5.85,2.94-9.3,7.75-9.3s7.74,3.45,7.74,9.3v3.41C51.82,556.44,48.88,559.89,44.08,559.89Zm5.14-9.31v-3.39c0-4.41-1.94-6.87-5.14-6.87s-5.15,2.46-5.15,6.87v3.39c0,4.41,1.94,6.87,5.15,6.87S49.22,555,49.22,550.58Z" fill="#1c2126"/><path d="M60,545.58a2.65,2.65,0,1,1,2.65,2.71A2.7,2.7,0,0,1,60,545.58Zm0,11.25a2.65,2.65,0,1,1,2.65,2.71A2.68,2.68,0,0,1,60,556.83Z" fill="#1c2126"/><circle cx="107.91" cy="548.15" r="31.98" fill="#1c2126"/><line x1="582.03" y1="498.72" x2="582.03" y2="595" fill="none" stroke="#1c2126" stroke-miterlimit="10"/><path d="M1129.73,614.6a4.72,4.72,0,1,1-4.71-4.69A4.43,4.43,0,0,1,1129.73,614.6Zm-6.82,0A2.12,2.12,0,0,0,1125,617c1.3,0,2.1-.94,2.1-2.41s-.8-2.42-2.1-2.42S1122.91,613.12,1122.91,614.6Z" fill="#1c2126"/><path d="M1138.54,612.93H1136c0-.57-.52-1-1.37-1s-1.25.3-1.25.72.19.62,1.2.8l1.2.19c2.3.39,2.91,1.43,2.91,2.79,0,1.74-1.39,2.85-3.92,2.85-2.72,0-4.08-1.3-4.08-3.09h2.48c0,.65.53,1.1,1.7,1.1.88,0,1.33-.3,1.33-.75s-.26-.72-1.3-.9l-1.25-.21c-2.11-.33-2.77-1.39-2.77-2.67,0-1.58,1.3-2.8,3.78-2.8S1138.54,611.24,1138.54,612.93Z" fill="#1c2126"/><path d="M1147.49,612.93H1145c0-.57-.53-1-1.38-1s-1.25.3-1.25.72.2.62,1.2.8l1.21.19c2.3.39,2.91,1.43,2.91,2.79,0,1.74-1.39,2.85-3.92,2.85-2.72,0-4.09-1.3-4.09-3.09h2.49c0,.65.52,1.1,1.69,1.1.88,0,1.33-.3,1.33-.75s-.25-.72-1.3-.9l-1.24-.21c-2.12-.33-2.77-1.39-2.77-2.67,0-1.58,1.29-2.8,3.77-2.8S1147.49,611.24,1147.49,612.93Z" fill="#1c2126"/><path d="M1152,617.64a1.6,1.6,0,1,1-1.6-1.62A1.55,1.55,0,0,1,1152,617.64Z" fill="#1c2126"/><path d="M1156.27,606.34v12.72h-2.5V606.34Z" fill="#1c2126"/><path d="M1167,614.6a4.71,4.71,0,1,1-4.7-4.69A4.42,4.42,0,0,1,1167,614.6Zm-6.81,0a2.12,2.12,0,0,0,2.11,2.41c1.29,0,2.1-.94,2.1-2.41s-.81-2.42-2.1-2.42S1160.16,613.12,1160.16,614.6Z" fill="#1c2126"/><path d="M1176.59,610.12l-3.26,8.94h-3l-3.28-8.94h2.64l2.16,6.32,2.16-6.32Z" fill="#1c2126"/><path d="M1186.06,615.33h-6.61a1.92,1.92,0,0,0,2,1.81,1.82,1.82,0,0,0,1.75-.8h2.66a5,5,0,1,1,.17-1.77Zm-6.58-1.71h3.94a1.87,1.87,0,0,0-2-1.58A2,2,0,0,0,1179.48,613.62Z" fill="#1c2126"/><path d="M605.51,559.45V538.32H618v2.37H608.1v7.25h9v2.3h-9v9.21Z" fill="#1c2126"/><path d="M625.54,551v8.42H623V538.32h7.09c4.19,0,6.81,2.43,6.81,6.35A5.91,5.91,0,0,1,633,550.5l4.3,9h-2.91L630.41,551Zm0-2.18h4.19c2.92,0,4.56-1.48,4.56-4.12s-1.61-4.11-4.44-4.11h-4.31Z" fill="#1c2126"/><path d="M648.15,559.89c-4.81,0-7.75-3.45-7.75-9.3v-3.41c0-5.85,2.94-9.3,7.75-9.3s7.75,3.45,7.75,9.3v3.41C655.9,556.44,653,559.89,648.15,559.89Zm5.14-9.31v-3.39c0-4.41-1.93-6.87-5.14-6.87s-5.14,2.46-5.14,6.87v3.39c0,4.41,1.93,6.87,5.14,6.87S653.29,555,653.29,550.58Z" fill="#1c2126"/><path d="M661.38,559.45h-2.3V538.32H662l4.64,13.12h.19l4.62-13.12h2.9v21.13H672v-8.11l.13-8.56H672l-4.25,11.71h-2l-4.25-11.71h-.19l.14,8.56Z" fill="#1c2126"/><path d="M682.59,545.58a2.65,2.65,0,1,1,2.65,2.71A2.7,2.7,0,0,1,682.59,545.58Zm0,11.25a2.65,2.65,0,1,1,2.65,2.71A2.68,2.68,0,0,1,682.59,556.83Z" fill="#1c2126"/><circle cx="733.24" cy="548.15" r="31.98" fill="#1c2126"/><path d="M791.37,562a13.93,13.93,0,0,1-5-.86,10.66,10.66,0,0,1-6.3-6.3,13.81,13.81,0,0,1-.87-5,13.54,13.54,0,0,1,.9-5,11.12,11.12,0,0,1,2.58-3.91,11.78,11.78,0,0,1,4-2.53,13.78,13.78,0,0,1,5.07-.9,13.44,13.44,0,0,1,4.55.74,10.32,10.32,0,0,1,3.54,2.12,9.19,9.19,0,0,1,2.28,3.27,10.78,10.78,0,0,1,.8,4.26,11.44,11.44,0,0,1-.7,4.2,6.47,6.47,0,0,1-1.93,2.77,4.55,4.55,0,0,1-2.91,1,3.24,3.24,0,0,1-2.55-1,3.31,3.31,0,0,1-.73-2.61l.51.14a5.85,5.85,0,0,1-2,2.56,4.88,4.88,0,0,1-2.79.88,4.34,4.34,0,0,1-3.43-1.36,5.39,5.39,0,0,1-1.22-3.73,8.24,8.24,0,0,1,.8-3.69,6.21,6.21,0,0,1,2.2-2.52,5.75,5.75,0,0,1,3.19-.91,4.13,4.13,0,0,1,2.59.76,3.51,3.51,0,0,1,1.3,2.13h-.33l.47-2.64h1.85l-1.29,7.26c0,.24-.07.47-.1.7s0,.43,0,.61a2,2,0,0,0,.44,1.4,1.65,1.65,0,0,0,1.3.48,2.75,2.75,0,0,0,2-.81,5.38,5.38,0,0,0,1.31-2.26,10.66,10.66,0,0,0,.48-3.37,9.37,9.37,0,0,0-.67-3.64,7.65,7.65,0,0,0-1.93-2.77,8.69,8.69,0,0,0-3-1.77,11.75,11.75,0,0,0-3.91-.61,11.94,11.94,0,0,0-4.41.77,9.42,9.42,0,0,0-5.56,5.58,12.48,12.48,0,0,0-.75,4.43,12,12,0,0,0,1.26,5.68,8.6,8.6,0,0,0,3.59,3.65,11.36,11.36,0,0,0,5.51,1.28,12.05,12.05,0,0,0,4.22-.71,8.25,8.25,0,0,0,3.14-2l.92,1.37a8.76,8.76,0,0,1-3.54,2.18A14.41,14.41,0,0,1,791.37,562ZM790,554.18a3.81,3.81,0,0,0,2.3-.74,5,5,0,0,0,1.58-2.06,7.5,7.5,0,0,0,.57-3,3.47,3.47,0,0,0-.7-2.38,2.81,2.81,0,0,0-2.21-.78,4,4,0,0,0-2.31.7,4.73,4.73,0,0,0-1.61,1.93,6.58,6.58,0,0,0-.59,2.86,3.85,3.85,0,0,0,.77,2.57A2.75,2.75,0,0,0,790,554.18Z" fill="#1c2126"/><path d="M806.82,557.45V536.84h2.27v20.61Z" fill="#1c2126"/><path d="M812.93,563.81l-.54-1.88a11.39,11.39,0,0,0,2.2-.71,4.26,4.26,0,0,0,1.47-1.08,6.19,6.19,0,0,0,1-1.68l.73-1.65-.06,1-6.13-14.36h2.46l5.07,12.35h-.73l5-12.35h2.38l-6.5,15.23a10.23,10.23,0,0,1-1.23,2.25,7.32,7.32,0,0,1-1.44,1.49,6.94,6.94,0,0,1-1.7.91A12.53,12.53,0,0,1,812.93,563.81Z" fill="#1c2126"/><path d="M828.35,557.45v-10.8c0-.53,0-1.06-.07-1.61s-.1-1.1-.15-1.64h2.18l.28,3.08h-.33a4.86,4.86,0,0,1,2-2.48,5.81,5.81,0,0,1,3.15-.85,5,5,0,0,1,3.77,1.33,5.86,5.86,0,0,1,1.27,4.18v8.79h-2.27V548.8a4.31,4.31,0,0,0-.8-2.9,3.13,3.13,0,0,0-2.47-.91,4.06,4.06,0,0,0-3.11,1.21,4.44,4.44,0,0,0-1.15,3.22v8Z" fill="#1c2126"/><path d="M844.76,557.45v-10.8c0-.53,0-1.06-.07-1.61s-.1-1.1-.15-1.64h2.18l.28,3.08h-.33a4.81,4.81,0,0,1,2-2.48,5.76,5.76,0,0,1,3.15-.85,4.94,4.94,0,0,1,3.76,1.33,5.86,5.86,0,0,1,1.28,4.18v8.79h-2.27V548.8a4.37,4.37,0,0,0-.8-2.9,3.13,3.13,0,0,0-2.47-.91,4.06,4.06,0,0,0-3.11,1.21,4.44,4.44,0,0,0-1.15,3.22v8Z" fill="#1c2126"/><path d="M866.52,557.71a6,6,0,0,1-3.28-.89,5.78,5.78,0,0,1-2.17-2.5,10.31,10.31,0,0,1,0-7.82,5.75,5.75,0,0,1,2.17-2.49,6.08,6.08,0,0,1,3.28-.86,5.64,5.64,0,0,1,3.29,1,4.56,4.56,0,0,1,1.83,2.62h-.34l.31-3.33h2.19c-.06.54-.11,1.08-.16,1.64s-.07,1.08-.07,1.61v10.8H871.3v-3.3h.31a4.42,4.42,0,0,1-1.85,2.6A5.57,5.57,0,0,1,866.52,557.71Zm.44-1.85a4,4,0,0,0,3.2-1.39,7.63,7.63,0,0,0,0-8.12,4.34,4.34,0,0,0-6.37,0,7.52,7.52,0,0,0,0,8.12A4,4,0,0,0,867,555.86Z" fill="#1c2126"/><path d="M878,557.45v-10.8c0-.53,0-1.06-.07-1.61s-.1-1.1-.15-1.64h2.18l.28,3.08h-.34a4.83,4.83,0,0,1,2-2.48,5.76,5.76,0,0,1,3.15-.85,5,5,0,0,1,3.76,1.33,5.86,5.86,0,0,1,1.28,4.18v8.79h-2.27V548.8a4.37,4.37,0,0,0-.8-2.9,3.15,3.15,0,0,0-2.48-.91,4.09,4.09,0,0,0-3.11,1.21,4.48,4.48,0,0,0-1.14,3.22v8Z" fill="#1c2126"/><path d="M899.7,557.71a5.93,5.93,0,0,1-3.25-.89,5.72,5.72,0,0,1-2.17-2.5,10.31,10.31,0,0,1,0-7.82,5.69,5.69,0,0,1,2.17-2.49,6,6,0,0,1,3.25-.86,5.66,5.66,0,0,1,3.29,1,4.61,4.61,0,0,1,1.86,2.57h-.34v-9.83h2.27v20.61h-2.24v-3.36h.31a4.58,4.58,0,0,1-1.85,2.65A5.71,5.71,0,0,1,899.7,557.71Zm.47-1.85a4,4,0,0,0,3.19-1.39,7.42,7.42,0,0,0,0-8.12,4.34,4.34,0,0,0-6.37,0,7.52,7.52,0,0,0,0,8.12A4,4,0,0,0,900.17,555.86Z" fill="#1c2126"/><path d="M916.16,557.71a4,4,0,0,1-3.16-1.2,5.14,5.14,0,0,1-1.1-3.59v-7.76h-2.74V543.4h2.74v-3.84l2.27-.64v4.48h4v1.76h-4v7.51a3.81,3.81,0,0,0,.58,2.39,2.05,2.05,0,0,0,1.72.71,4,4,0,0,0,.95-.1,4.87,4.87,0,0,0,.76-.23v1.9a5,5,0,0,1-.94.27A6.78,6.78,0,0,1,916.16,557.71Z" fill="#1c2126"/><path d="M926.6,557.71a6.78,6.78,0,0,1-3.51-.89,5.77,5.77,0,0,1-2.31-2.52,9.72,9.72,0,0,1,0-7.77,5.89,5.89,0,0,1,2.31-2.5,6.78,6.78,0,0,1,3.51-.88,6.85,6.85,0,0,1,3.55.88,6,6,0,0,1,2.32,2.5,9.51,9.51,0,0,1,0,7.77,5.91,5.91,0,0,1-2.32,2.52A6.85,6.85,0,0,1,926.6,557.71Zm0-1.85a4,4,0,0,0,3.2-1.39,7.63,7.63,0,0,0,0-8.12,4,4,0,0,0-3.2-1.39,4,4,0,0,0-3.16,1.39,7.57,7.57,0,0,0,0,8.12A3.92,3.92,0,0,0,926.6,555.86Z" fill="#1c2126"/><path d="M936.82,557.45v-10.8c0-.53,0-1.06-.07-1.61s-.09-1.1-.15-1.64h2.18l.28,3.08h-.33a4.86,4.86,0,0,1,2-2.48,5.81,5.81,0,0,1,3.15-.85,5,5,0,0,1,3.77,1.33,5.86,5.86,0,0,1,1.27,4.18v8.79h-2.27V548.8a4.37,4.37,0,0,0-.79-2.9,3.17,3.17,0,0,0-2.48-.91,4.08,4.08,0,0,0-3.11,1.21,4.44,4.44,0,0,0-1.15,3.22v8Z" fill="#1c2126"/><path d="M953,540.21v-2.55h2.8v2.55Zm.28,17.24V543.4h2.27v14.05Z" fill="#1c2126"/><path d="M965.8,557.71a6.91,6.91,0,0,1-3.59-.9,6,6,0,0,1-2.36-2.55,8.68,8.68,0,0,1-.82-3.92,8.32,8.32,0,0,1,.84-3.9,5.7,5.7,0,0,1,2.36-2.45,7.19,7.19,0,0,1,3.57-.84,7.35,7.35,0,0,1,2.62.47,5.79,5.79,0,0,1,2.12,1.34l-.82,1.63a5.77,5.77,0,0,0-1.83-1.21,5.29,5.29,0,0,0-1.95-.39,4.24,4.24,0,0,0-3.38,1.38,5.85,5.85,0,0,0-1.21,4,6,6,0,0,0,1.21,4,4.18,4.18,0,0,0,3.38,1.43,5.4,5.4,0,0,0,1.92-.37,5.28,5.28,0,0,0,1.86-1.2l.82,1.6a5.71,5.71,0,0,1-2.16,1.37A7.35,7.35,0,0,1,965.8,557.71Z" fill="#1c2126"/><path d="M167.16,562a13.84,13.84,0,0,1-5-.86,10.71,10.71,0,0,1-3.84-2.45,10.88,10.88,0,0,1-2.46-3.85,13.81,13.81,0,0,1-.87-5,13.54,13.54,0,0,1,.9-5,11,11,0,0,1,2.57-3.91,11.82,11.82,0,0,1,4-2.53,13.78,13.78,0,0,1,5.07-.9,13.49,13.49,0,0,1,4.55.74,10.32,10.32,0,0,1,3.54,2.12,9.19,9.19,0,0,1,2.28,3.27,11,11,0,0,1,.8,4.26,11.66,11.66,0,0,1-.7,4.2,6.47,6.47,0,0,1-1.93,2.77,4.58,4.58,0,0,1-2.92,1,3.2,3.2,0,0,1-2.54-1,3.31,3.31,0,0,1-.73-2.61l.5.14a5.71,5.71,0,0,1-2,2.56,4.85,4.85,0,0,1-2.78.88,4.34,4.34,0,0,1-3.43-1.36,5.34,5.34,0,0,1-1.22-3.73,8.11,8.11,0,0,1,.8-3.69,6.27,6.27,0,0,1,2.19-2.52,5.81,5.81,0,0,1,3.2-.91,4.15,4.15,0,0,1,2.59.76,3.55,3.55,0,0,1,1.3,2.13h-.34l.48-2.64H173l-1.29,7.26c0,.24-.07.47-.1.7a4.55,4.55,0,0,0,0,.61,2,2,0,0,0,.43,1.4,1.68,1.68,0,0,0,1.3.48,2.73,2.73,0,0,0,2-.81,5.5,5.5,0,0,0,1.32-2.26,10.66,10.66,0,0,0,.48-3.37,9.37,9.37,0,0,0-.68-3.64,7.53,7.53,0,0,0-1.93-2.77,8.6,8.6,0,0,0-3-1.77,11.69,11.69,0,0,0-3.9-.61,11.87,11.87,0,0,0-4.41.77,9.65,9.65,0,0,0-3.39,2.18,9.53,9.53,0,0,0-2.17,3.4,12.26,12.26,0,0,0-.76,4.43,12,12,0,0,0,1.26,5.68,8.62,8.62,0,0,0,3.6,3.65,11.32,11.32,0,0,0,5.5,1.28,12.11,12.11,0,0,0,4.23-.71,8.25,8.25,0,0,0,3.14-2l.92,1.37a8.83,8.83,0,0,1-3.54,2.18A14.47,14.47,0,0,1,167.16,562Zm-1.34-7.84a3.78,3.78,0,0,0,2.29-.74,5,5,0,0,0,1.59-2.06,7.5,7.5,0,0,0,.57-3,3.47,3.47,0,0,0-.7-2.38,2.83,2.83,0,0,0-2.21-.78,4,4,0,0,0-2.31.7,4.73,4.73,0,0,0-1.61,1.93,6.58,6.58,0,0,0-.59,2.86,3.85,3.85,0,0,0,.77,2.57A2.74,2.74,0,0,0,165.82,554.18Z" fill="#1c2126"/><path d="M184,557.45v-2h4.65V539.7h1.23l-5.43,3.39v-2.33l4.84-3h1.68v17.75h4.37v2Z" fill="#1c2126"/><path d="M200.76,557.45v-2h4.65V539.7h1.23l-5.43,3.39v-2.33l4.84-3h1.68v17.75h4.37v2Z" fill="#1c2126"/><path d="M221.2,557.71a4.06,4.06,0,0,1-3.16-1.2,5.14,5.14,0,0,1-1.09-3.59v-7.76H214.2V543.4H217v-3.84l2.26-.64v4.48h4v1.76h-4v7.51a3.88,3.88,0,0,0,.58,2.39,2.05,2.05,0,0,0,1.72.71,4,4,0,0,0,1-.1,4.87,4.87,0,0,0,.76-.23v1.9a4.82,4.82,0,0,1-.94.27A6.57,6.57,0,0,1,221.2,557.71Z" fill="#1c2126"/><path d="M225.63,563.81l-.54-1.88a11.39,11.39,0,0,0,2.2-.71,4.26,4.26,0,0,0,1.47-1.08,6.19,6.19,0,0,0,1-1.68l.73-1.65-.06,1-6.13-14.36h2.46l5.07,12.35h-.73l5-12.35h2.38L232,558.63a10.23,10.23,0,0,1-1.23,2.25,7.32,7.32,0,0,1-1.44,1.49,6.94,6.94,0,0,1-1.7.91A12.53,12.53,0,0,1,225.63,563.81Z" fill="#1c2126"/><path d="M27.75,606.92v12.14H25v-2.13l-4.7-5.41v7.54H17.63V606.92H20L25,612.77v-5.85Z" fill="#1c2126"/><path d="M38.37,615.33H31.76a1.92,1.92,0,0,0,2,1.81,1.81,1.81,0,0,0,1.74-.8H38.2a4.35,4.35,0,0,1-4.44,2.88,4.63,4.63,0,1,1,0-9.26,4.32,4.32,0,0,1,4.62,4.61Zm-6.58-1.71h3.94a1.87,1.87,0,0,0-2-1.58A2,2,0,0,0,31.79,613.62Z" fill="#1c2126"/><path d="M44.93,612.23H43v6.83H40.5v-6.83H38.82v-2.11H40.5V607.3H43v2.82h1.93Z" fill="#1c2126"/><path d="M48.9,606.34v12.72H46.4V606.34Z" fill="#1c2126"/><path d="M53.62,607.59a1.5,1.5,0,1,1-3,0,1.5,1.5,0,1,1,3,0Zm-.24,2.32v9.15h-2.5v-9.15a2.06,2.06,0,0,0,1.25.37A2,2,0,0,0,53.38,609.91Z" fill="#1c2126"/><path d="M58.55,609v1.09h1.87v2.11H58.55v6.83h-2.5v-6.83H54.61v-2.11h1.44V609a2.62,2.62,0,0,1,2.88-2.83h1.75v1.94H59.44A.78.78,0,0,0,58.55,609Z" fill="#1c2126"/><path d="M70.71,610.12l-5,11.89H63.33l1.38-3.28-3.49-8.61h2.51L66,615.69l2.32-5.57Z" fill="#1c2126"/><path d="M109.4,613c0,3.92-2.34,6.22-5.8,6.22s-5.79-2.3-5.79-6.22,2.33-6.25,5.79-6.25S109.4,609.08,109.4,613Zm-8.79,0c0,2.35,1.3,3.66,3,3.66s3-1.31,3-3.66-1.32-3.67-3-3.67S100.61,610.63,100.61,613Z" fill="#1c2126"/><path d="M120.32,610.53h-2.8c0-.89-.67-1.52-1.85-1.52s-1.7.55-1.7,1.23.38,1,1.49,1.3l1.37.32c2.64.59,3.73,1.73,3.73,3.73s-1.6,3.63-4.73,3.63-4.9-1.61-4.9-4h2.8a1.88,1.88,0,0,0,2.11,1.84c1.27,0,1.92-.63,1.92-1.44s-.38-1.09-1.57-1.35l-1.32-.27c-2.77-.56-3.72-1.87-3.72-3.73,0-2.06,1.6-3.54,4.58-3.54S120.32,608.29,120.32,610.53Z" fill="#1c2126"/><path d="M131.38,610.53h-2.8c0-.89-.67-1.52-1.86-1.52-1,0-1.69.55-1.69,1.23s.38,1,1.48,1.3l1.38.32c2.64.59,3.73,1.73,3.73,3.73s-1.6,3.63-4.74,3.63-4.9-1.61-4.9-4h2.81a1.88,1.88,0,0,0,2.11,1.84c1.26,0,1.92-.63,1.92-1.44s-.39-1.09-1.57-1.35l-1.33-.27c-2.77-.56-3.71-1.87-3.71-3.73,0-2.06,1.6-3.54,4.58-3.54S131.38,608.29,131.38,610.53Z" fill="#1c2126"/><path d="M91.16,610.11a3.71,3.71,0,0,0-1-1.22,4,4,0,0,0-2.5-1.14,3.62,3.62,0,0,0-2.51,1.37,8,8,0,0,0-1.41,2.21,6.53,6.53,0,0,0-2.39-2.73,4.07,4.07,0,0,0-3.57-.35,3,3,0,0,0-1.83,3,5.09,5.09,0,0,0,2,2.88q3.32,3,6.72,5.87l5-5.64C90.67,613.14,91.8,611.56,91.16,610.11Z" fill="#ff6b60" stroke="#ff6b60" stroke-linejoin="round"/></svg>