<svg xmlns="http://www.w3.org/2000/svg" width="1200" height="630" viewBox="0 0 1200 630"><rect width="1200" height="498.72" fill="#ffb916"/><path d="M601.44,330.36c-22.38,0-29.57-7.1-29.57-29.07V283c0-12.88-6.52-18.91-25.19-17.67V245.62c18.67,1.24,25.19-4.79,25.19-17.76V209.53c0-22,7.19-29.08,29.57-29.08h12.47v15.36h-8.34c-12,0-14.37,2.81-14.37,16.69v22.71c0,11.32-8.34,18.83-24,19.5v1.48c15.61.66,24,8.1,24,19.49v22.63c0,13.88,2.4,16.69,14.37,16.69h8.34v15.36Z" fill="#1c2126"/><path d="M1069.54,315h8.35c12,0,14.37-2.81,14.37-16.69V275.68c0-11.39,8.34-18.83,24-19.49v-1.48c-15.61-.67-24-8.18-24-19.5V212.5c0-13.88-2.4-16.69-14.37-16.69h-8.35V180.45H1082c22.38,0,29.56,7.1,29.56,29.08v18.33c0,13,6.53,19,25.2,17.76v19.66c-18.67-1.24-25.2,4.79-25.2,17.67v18.34c0,22-7.18,29.07-29.56,29.07h-12.48Z" fill="#1c2126"/><path d="M66.87,157.26,78.43,84.45h22.31L89.18,157.26Z" fill="#1c2126"/><path d="M160.85,158.5q-10,0-16.63-3.87A21.94,21.94,0,0,1,134.77,144a27.4,27.4,0,0,1-1.5-15.18,30,30,0,0,1,5.84-14.15,27.63,27.63,0,0,1,11.51-8.52,41.88,41.88,0,0,1,15.8-2.84,39.43,39.43,0,0,1,9.61,1.24,21,21,0,0,1,7.85,3.51l-6.09,14.46a15.1,15.1,0,0,0-5-2.27,22.35,22.35,0,0,0-5.84-.83,12.49,12.49,0,0,0-7.59,2.38q-3.25,2.37-4.18,8a12.11,12.11,0,0,0,1.55,8.78c1.58,2.48,4.27,3.72,8.05,3.72a17.12,17.12,0,0,0,5.17-.93,26.45,26.45,0,0,0,5.47-2.48l5.16,14.25a23.42,23.42,0,0,1-8.26,3.77A42.43,42.43,0,0,1,160.85,158.5Z" fill="#1c2126"/><path d="M212.8,158.5q-9.83,0-16.32-3.67a20.58,20.58,0,0,1-9.25-10.32q-2.73-6.66-1.29-15.65a30.31,30.31,0,0,1,5.79-14.15A27.53,27.53,0,0,1,203,106.19a38.92,38.92,0,0,1,15.08-2.84q9.91,0,16.32,3.67a20.46,20.46,0,0,1,9.09,10.27q2.68,6.61,1.24,15.7A30.64,30.64,0,0,1,239,147.14a27.12,27.12,0,0,1-11.11,8.52A38.37,38.37,0,0,1,212.8,158.5Zm1.13-15.8a8,8,0,0,0,6-2.53c1.62-1.69,2.74-4.42,3.36-8.21q1.14-7.23-.83-10a6.5,6.5,0,0,0-5.68-2.79,8.12,8.12,0,0,0-6,2.48c-1.62,1.65-2.74,4.41-3.35,8.26q-1.14,7.23.77,10A6.47,6.47,0,0,0,213.93,142.7Z" fill="#1c2126"/><path d="M269.08,158.5q-10.23,0-14.56-6t-2.69-16.89l5-31h21.48l-4.95,31.19q-.52,3.21.72,4.8c.82,1.07,2.2,1.6,4.13,1.6a6.66,6.66,0,0,0,5.37-2.32,12.36,12.36,0,0,0,2.58-6.15l4.65-29.12h21.48l-8.36,52.67h-21l1.34-8.67h1.66a24.08,24.08,0,0,1-7.18,7.33A17.69,17.69,0,0,1,269.08,158.5Z" fill="#1c2126"/><path d="M313.8,157.26l12.08-76h21.49l-12.09,76Z" fill="#1c2126"/><path d="M367.81,158.5a19.8,19.8,0,0,1-12.29-3.82,20.86,20.86,0,0,1-7.23-10.53,32.88,32.88,0,0,1-.82-15.29,34.86,34.86,0,0,1,5.16-14.25,24.31,24.31,0,0,1,9.5-8.47,27.75,27.75,0,0,1,12.4-2.79,20.09,20.09,0,0,1,10.17,2.53c2.92,1.69,4.66,3.87,5.21,6.56h-1.24l5-31.19h21.48l-12.08,76H381.86l1.34-8.47h1.65a17.13,17.13,0,0,1-6.55,7A19.72,19.72,0,0,1,367.81,158.5Zm8.06-15.8a8.64,8.64,0,0,0,6.3-2.53c1.72-1.69,2.89-4.42,3.51-8.21q1.14-7.23-.93-10a7,7,0,0,0-6-2.79,8.7,8.7,0,0,0-6.35,2.48c-1.69,1.65-2.84,4.41-3.46,8.26q-1.14,7.23.93,10A7,7,0,0,0,375.87,142.7Z" fill="#1c2126"/><path d="M413,157.26l6-37.69q.51-3.72.93-7.49c.27-2.51.48-5,.61-7.49h20.66l-.21,8.37-1.13.1a20,20,0,0,1,7.9-7.28,22.86,22.86,0,0,1,10.48-2.43q9.19,0,13.32,5.78t2.17,18.08l-4.75,30.05H447.44L452.19,127q.62-3.91-.72-5.63a4.5,4.5,0,0,0-3.72-1.7,7.84,7.84,0,0,0-5.78,2.27,10.73,10.73,0,0,0-2.9,6l-4.64,29.33Z" fill="#1c2126"/><path d="M492,123.08l-6.81-7.34a40.71,40.71,0,0,0,6.91-7.12,21.49,21.49,0,0,0,3.31-8.06l3.72,5.27H484l3.41-21.38H509.2l-2.38,14.87a38.75,38.75,0,0,1-2.32,8.73,29.55,29.55,0,0,1-4.54,7.59A46.74,46.74,0,0,1,492,123.08Z" fill="#1c2126"/><path d="M536.67,158.5q-12.3,0-17.4-6t-3.46-16.68l2.48-15.49h-9.71l2.48-15.7h9.7l1.86-11.88,22.31-4.95-2.68,16.83h12.18L552,120.29H539.77l-2.38,14.87c-.41,2.55,0,4.23,1.34,5.06a8.32,8.32,0,0,0,4.55,1.24,14.88,14.88,0,0,0,2.74-.21,22.67,22.67,0,0,0,2.73-.72l-2.58,16.32a20.54,20.54,0,0,1-5,1.34A35,35,0,0,1,536.67,158.5Z" fill="#1c2126"/><path d="M70.79,287.26l5.89-37H67l2.48-15.7h15.8l-7,5.58,1.13-6.72q1.76-11.35,8.83-17t20.2-5.62a35.73,35.73,0,0,1,5.42.41,26.6,26.6,0,0,1,4.9,1.24l-2.58,16.21a15.51,15.51,0,0,0-2.79-.72,20.23,20.23,0,0,0-3.1-.21,17.84,17.84,0,0,0-3.77.47,9.3,9.3,0,0,0-3.82,1.81,5.94,5.94,0,0,0-2.11,3.92l-.62,3.72-2.38-3.1h15.08l-2.48,15.7h-12l-5.89,37Z" fill="#1c2126"/><path d="M130,288.5q-10.23,0-14.56-6t-2.69-16.89l5-31h21.48l-5,31.19q-.51,3.21.73,4.8c.82,1.07,2.2,1.6,4.13,1.6a6.66,6.66,0,0,0,5.37-2.32,12.36,12.36,0,0,0,2.58-6.15l4.65-29.12h21.48l-8.37,52.67h-21l1.34-8.67h1.65a23.94,23.94,0,0,1-7.17,7.33A17.69,17.69,0,0,1,130,288.5Z" fill="#1c2126"/><path d="M174.69,287.26l6-37.69q.51-3.72.93-7.49t.62-7.49h20.65l-.2,8.37-1.14.1a20,20,0,0,1,7.9-7.28,22.89,22.89,0,0,1,10.48-2.43q9.2,0,13.33,5.78t2.17,18.08l-4.76,30.05H209.18L213.93,257c.42-2.61.17-4.49-.72-5.63a4.49,4.49,0,0,0-3.72-1.7,7.84,7.84,0,0,0-5.78,2.27,10.65,10.65,0,0,0-2.89,6l-4.65,29.33Z" fill="#1c2126"/><path d="M270.22,288.5q-10,0-16.63-3.87A21.94,21.94,0,0,1,244.14,274a27.4,27.4,0,0,1-1.5-15.18,30,30,0,0,1,5.84-14.15A27.63,27.63,0,0,1,260,236.19a41.94,41.94,0,0,1,15.81-2.84,39.35,39.35,0,0,1,9.6,1.24,20.89,20.89,0,0,1,7.85,3.51l-6.09,14.46a15.1,15.1,0,0,0-5-2.27,22.35,22.35,0,0,0-5.84-.83,12.49,12.49,0,0,0-7.59,2.38q-3.25,2.37-4.18,8a12.11,12.11,0,0,0,1.55,8.78c1.58,2.48,4.27,3.72,8.05,3.72a17.12,17.12,0,0,0,5.17-.93,26.45,26.45,0,0,0,5.47-2.48L290,283.23a23.56,23.56,0,0,1-8.27,3.77A42.43,42.43,0,0,1,270.22,288.5Z" fill="#1c2126"/><path d="M323.71,288.5q-12.29,0-17.4-6t-3.46-16.68l2.48-15.49h-9.71l2.48-15.7h9.71l1.86-11.88,22.31-5-2.69,16.83h12.19L339,250.29H326.81l-2.37,14.87c-.42,2.55,0,4.23,1.34,5.06a8.29,8.29,0,0,0,4.54,1.24,14.81,14.81,0,0,0,2.74-.21,22.76,22.76,0,0,0,2.74-.72l-2.58,16.32a20.78,20.78,0,0,1-5,1.34A35.11,35.11,0,0,1,323.71,288.5Z" fill="#1c2126"/><path d="M339.31,287.26l8.36-52.67h21.49l-8.37,52.67Zm9-58.66,3-18.8h22.1l-3,18.8Z" fill="#1c2126"/><path d="M399.93,288.5q-9.81,0-16.32-3.67a20.56,20.56,0,0,1-9.24-10.32q-2.75-6.66-1.29-15.65a30.2,30.2,0,0,1,5.78-14.15,27.56,27.56,0,0,1,11.26-8.52,38.88,38.88,0,0,1,15.08-2.84q9.92,0,16.32,3.67a20.48,20.48,0,0,1,9.08,10.27q2.68,6.61,1.24,15.7a30.43,30.43,0,0,1-5.73,14.15,27.15,27.15,0,0,1-11.1,8.52A38.42,38.42,0,0,1,399.93,288.5Zm1.14-15.8a8,8,0,0,0,6-2.53c1.62-1.69,2.74-4.42,3.35-8.21q1.14-7.23-.82-10a6.51,6.51,0,0,0-5.68-2.79,8.11,8.11,0,0,0-6,2.48c-1.62,1.65-2.74,4.41-3.36,8.26q-1.14,7.23.77,10A6.5,6.5,0,0,0,401.07,272.7Z" fill="#1c2126"/><path d="M435.87,287.26l6-37.69c.35-2.48.65-5,.93-7.49s.48-5,.62-7.49h20.66l-.21,8.37-1.14.1a20,20,0,0,1,7.9-7.28,22.93,22.93,0,0,1,10.49-2.43q9.18,0,13.32,5.78t2.17,18.08l-4.75,30.05H470.37L475.12,257q.61-3.92-.73-5.63a4.47,4.47,0,0,0-3.71-1.7,7.86,7.86,0,0,0-5.79,2.27,10.72,10.72,0,0,0-2.89,6l-4.65,29.33Z" fill="#1c2126"/><path d="M81.33,417.26,67.18,364.59h21l7.13,31.09H92.69l16.73-31.09h13l6.82,31.09h-2L144,364.59h21.17l-30.78,52.67H116.75L108.49,385h8L99,417.26Z" fill="#1c2126"/><path d="M159.71,417.26l8.37-52.67h21.48l-8.36,52.67Zm9-58.66,3-18.8H193.8l-3,18.8Z" fill="#1c2126"/><path d="M220.34,418.5q-12.3,0-17.41-6t-3.46-16.68L202,380.29h-9.71l2.48-15.7h9.71l1.86-11.88,22.31-4.95-2.69,16.83H238.1l-2.48,15.7H223.43l-2.37,14.87c-.41,2.55,0,4.23,1.34,5.06a8.3,8.3,0,0,0,4.55,1.24,14.69,14.69,0,0,0,2.73-.21,22.28,22.28,0,0,0,2.74-.72l-2.58,16.32a20.54,20.54,0,0,1-5,1.34A35.08,35.08,0,0,1,220.34,418.5Z" fill="#1c2126"/><path d="M235.93,417.26l12.08-76H269.5l-5.07,31.81h-1.65a20,20,0,0,1,7.9-7.28,22.9,22.9,0,0,1,10.49-2.43q9.18,0,13.32,5.78t2.17,18.08l-4.75,30.05H270.42L275.17,387c.42-2.61.19-4.49-.67-5.63a4.44,4.44,0,0,0-3.77-1.7,7.8,7.8,0,0,0-5.83,2.27,10.87,10.87,0,0,0-2.84,6l-4.65,29.33Z" fill="#1c2126"/><path d="M330.74,418.5q-9.81,0-16.32-3.67a20.52,20.52,0,0,1-9.24-10.32q-2.74-6.66-1.29-15.65a30.2,30.2,0,0,1,5.78-14.15,27.49,27.49,0,0,1,11.26-8.52A38.88,38.88,0,0,1,336,363.35q9.92,0,16.31,3.67a20.46,20.46,0,0,1,9.09,10.27q2.68,6.61,1.24,15.7a30.53,30.53,0,0,1-5.73,14.15,27.15,27.15,0,0,1-11.1,8.52A38.42,38.42,0,0,1,330.74,418.5Zm1.13-15.8a8,8,0,0,0,6.05-2.53c1.61-1.69,2.73-4.42,3.35-8.21q1.14-7.23-.82-10a6.51,6.51,0,0,0-5.68-2.79,8.14,8.14,0,0,0-6,2.48c-1.61,1.65-2.73,4.41-3.35,8.26q-1.14,7.23.77,10A6.5,6.5,0,0,0,331.87,402.7Z" fill="#1c2126"/><path d="M387,418.5q-10.22,0-14.56-6t-2.68-16.89l5-31h21.49l-5,31.19c-.35,2.14-.1,3.74.72,4.8a4.9,4.9,0,0,0,4.13,1.6,6.66,6.66,0,0,0,5.37-2.32,12.46,12.46,0,0,0,2.59-6.15l4.64-29.12h21.48l-8.36,52.67h-21l1.35-8.67h1.65a24.08,24.08,0,0,1-7.18,7.33A17.69,17.69,0,0,1,387,418.5Z" fill="#1c2126"/><path d="M461,418.5q-12.29,0-17.4-6t-3.46-16.68l2.48-15.49h-9.71l2.48-15.7h9.71l1.85-11.88,22.31-4.95-2.68,16.83h12.18l-2.48,15.7H464.07l-2.38,14.87c-.41,2.55,0,4.23,1.35,5.06a8.27,8.27,0,0,0,4.54,1.24,14.88,14.88,0,0,0,2.74-.21,22.67,22.67,0,0,0,2.73-.72l-2.58,16.32a20.54,20.54,0,0,1-5,1.34A35,35,0,0,1,461,418.5Z" fill="#1c2126"/><path d="M504.45,440.71l-3.2-16.53c3.44-.55,6.33-1.14,8.67-1.75a18.44,18.44,0,0,0,5.94-2.64,14.17,14.17,0,0,0,4.08-4.49l3.51-5.89-1,7.85-14.56-52.67h21.79l6.81,31.5h-3.71l17.55-31.5h21.79l-31.81,52.88a61.26,61.26,0,0,1-8.1,10.95,37.28,37.28,0,0,1-8.37,6.66,36.2,36.2,0,0,1-9,3.61Q510,439.88,504.45,440.71Z" fill="#1c2126"/><path d="M593.47,418.5q-9.81,0-16.32-3.67a20.56,20.56,0,0,1-9.24-10.32q-2.74-6.66-1.29-15.65a30.2,30.2,0,0,1,5.78-14.15,27.56,27.56,0,0,1,11.26-8.52,38.88,38.88,0,0,1,15.08-2.84q9.91,0,16.32,3.67a20.5,20.5,0,0,1,9.09,10.27q2.67,6.61,1.23,15.7a30.43,30.43,0,0,1-5.73,14.15,27,27,0,0,1-11.1,8.52A38.42,38.42,0,0,1,593.47,418.5Zm1.14-15.8a8,8,0,0,0,6-2.53c1.62-1.69,2.74-4.42,3.36-8.21q1.13-7.23-.83-10a6.51,6.51,0,0,0-5.68-2.79,8.12,8.12,0,0,0-6,2.48c-1.62,1.65-2.74,4.41-3.36,8.26q-1.14,7.23.78,10A6.47,6.47,0,0,0,594.61,402.7Z" fill="#1c2126"/><path d="M649.76,418.5q-10.23,0-14.56-6t-2.69-16.89l5-31H659l-5,31.19q-.51,3.21.72,4.8c.83,1.07,2.21,1.6,4.14,1.6a6.66,6.66,0,0,0,5.37-2.32,12.45,12.45,0,0,0,2.58-6.15l4.65-29.12h21.48l-8.37,52.67h-21l1.34-8.67h1.65a24,24,0,0,1-7.18,7.33A17.66,17.66,0,0,1,649.76,418.5Z" fill="#1c2126"/><path d="M767.64,249c-1.53-3.48-4.33-6.24-7.23-8.72-5.08-4.34-11.14-8.26-17.82-8.17-7,.1-13.21,4.61-17.91,9.8a57,57,0,0,0-10.07,15.76c-3.92-7.84-9.56-15-17.1-19.48s-17.36-6-25.53-2.48S657.85,248,659,256.79c1,8.44,7.73,14.91,14,20.6q23.65,21.35,48,41.92l35.67-40.24C764.18,270.6,772.2,259.35,767.64,249Z" fill="#1c2126" stroke="#1c2126" stroke-linejoin="round" stroke-width="2" opacity="0.1"/><path d="M905,249c-1.53-3.48-4.33-6.24-7.23-8.72-5.08-4.34-11.14-8.26-17.82-8.17-7,.1-13.21,4.61-17.91,9.8A57.19,57.19,0,0,0,852,257.66c-3.92-7.84-9.56-15-17.1-19.48s-17.36-6-25.53-2.48-14.13,12.29-13,21.09c1.06,8.44,7.73,14.91,14,20.6q23.67,21.35,48,41.92l35.67-40.24C901.55,270.6,909.57,259.35,905,249Z" fill="#1c2126" stroke="#1c2126" stroke-linejoin="round" stroke-width="2" opacity="0.1"/><path d="M1043.83,249c-1.54-3.48-4.34-6.24-7.23-8.72-5.08-4.34-11.14-8.26-17.82-8.17-7,.1-13.21,4.61-17.92,9.8a56.93,56.93,0,0,0-10.06,15.76c-3.93-7.84-9.57-15-17.1-19.48s-17.37-6-25.53-2.48S934,248,935.13,256.79c1.06,8.44,7.74,14.91,14,20.6q23.67,21.35,48,41.92l35.67-40.24C1040.36,270.6,1048.38,259.35,1043.83,249Z" fill="#1c2126" stroke="#1c2126" stroke-linejoin="round" stroke-width="2" opacity="0.1"/><path d="M757.34,233c-1.53-3.49-4.34-6.25-7.23-8.73C745,220,739,216,732.29,216.14c-7,.09-13.21,4.6-17.91,9.79a57.11,57.11,0,0,0-10.07,15.76c-3.93-7.84-9.56-15-17.1-19.48s-17.37-5.94-25.53-2.48-14.13,12.29-13,21.09c1.05,8.44,7.73,14.91,14,20.61q23.67,21.35,48,41.91l35.67-40.24C753.88,254.64,761.89,243.38,757.34,233Z" fill="#db4648" stroke="#1c2126" stroke-linejoin="round" stroke-width="2"/><path d="M894.71,233c-1.53-3.49-4.33-6.25-7.23-8.73-5.08-4.34-11.14-8.26-17.82-8.16-7,.09-13.21,4.6-17.91,9.79a57.11,57.11,0,0,0-10.07,15.76c-3.92-7.84-9.56-15-17.1-19.48s-17.36-5.94-25.53-2.48S784.92,232,786,240.82c1.05,8.44,7.73,14.91,14.05,20.61q23.67,21.35,48,41.91l35.67-40.24C891.25,254.64,899.27,243.38,894.71,233Z" fill="#ff6b60" stroke="#1c2126" stroke-linejoin="round" stroke-width="2"/><path d="M1033.53,233c-1.54-3.49-4.34-6.25-7.23-8.73-5.08-4.34-11.14-8.26-17.83-8.16-7,.09-13.2,4.6-17.91,9.79a57.08,57.08,0,0,0-10.06,15.76c-3.93-7.84-9.57-15-17.11-19.48s-17.36-5.94-25.53-2.48-14.13,12.29-13,21.09c1.06,8.44,7.74,14.91,14,20.61q23.67,21.35,48,41.91l35.67-40.24C1030.06,254.64,1038.08,243.38,1033.53,233Z" fill="#db4648" stroke="#1c2126" stroke-linejoin="round" stroke-width="2"/><rect y="595" width="1200" height="35" fill="#fff"/><rect y="499.19" width="1200" height="95.81" fill="#fff"/><line y1="499.19" x2="1200" y2="499.19" fill="none" stroke="#1c2126" stroke-miterlimit="10"/><line y1="595" x2="1200" y2="595" fill="none" stroke="#1c2126" stroke-miterlimit="10"/><path d="M24.24,559.45V540.69H17.85v-2.37H33.21v2.37H26.82v18.76Z" fill="#1c2126"/><path d="M44.08,559.89c-4.81,0-7.75-3.45-7.75-9.3v-3.41c0-5.85,2.94-9.3,7.75-9.3s7.74,3.45,7.74,9.3v3.41C51.82,556.44,48.88,559.89,44.08,559.89Zm5.14-9.31v-3.39c0-4.41-1.94-6.87-5.14-6.87s-5.15,2.46-5.15,6.87v3.39c0,4.41,1.94,6.87,5.15,6.87S49.22,555,49.22,550.58Z" fill="#1c2126"/><path d="M60,545.58a2.65,2.65,0,1,1,2.65,2.71A2.7,2.7,0,0,1,60,545.58Zm0,11.25a2.65,2.65,0,1,1,2.65,2.71A2.68,2.68,0,0,1,60,556.83Z" fill="#1c2126"/><line x1="582.03" y1="498.72" x2="582.03" y2="595" fill="none" stroke="#1c2126" stroke-miterlimit="10"/><path d="M1129.73,614.6a4.72,4.72,0,1,1-4.71-4.69A4.43,4.43,0,0,1,1129.73,614.6Zm-6.82,0A2.12,2.12,0,0,0,1125,617c1.3,0,2.1-.94,2.1-2.41s-.8-2.42-2.1-2.42S1122.91,613.12,1122.91,614.6Z" fill="#1c2126"/><path d="M1138.54,612.93H1136c0-.57-.52-1-1.37-1s-1.25.3-1.25.72.19.62,1.2.8l1.2.19c2.3.39,2.91,1.43,2.91,2.79,0,1.74-1.39,2.85-3.92,2.85-2.72,0-4.08-1.3-4.08-3.09h2.48c0,.65.53,1.1,1.7,1.1.88,0,1.33-.3,1.33-.75s-.26-.72-1.3-.9l-1.25-.21c-2.11-.33-2.77-1.39-2.77-2.67,0-1.58,1.3-2.8,3.78-2.8S1138.54,611.24,1138.54,612.93Z" fill="#1c2126"/><path d="M1147.49,612.93H1145c0-.57-.53-1-1.38-1s-1.25.3-1.25.72.2.62,1.2.8l1.21.19c2.3.39,2.91,1.43,2.91,2.79,0,1.74-1.39,2.85-3.92,2.85-2.72,0-4.09-1.3-4.09-3.09h2.49c0,.65.52,1.1,1.69,1.1.88,0,1.33-.3,1.33-.75s-.25-.72-1.3-.9l-1.24-.21c-2.12-.33-2.77-1.39-2.77-2.67,0-1.58,1.29-2.8,3.77-2.8S1147.49,611.24,1147.49,612.93Z" fill="#1c2126"/><path d="M1152,617.64a1.6,1.6,0,1,1-1.6-1.62A1.55,1.55,0,0,1,1152,617.64Z" fill="#1c2126"/><path d="M1156.27,606.34v12.72h-2.5V606.34Z" fill="#1c2126"/><path d="M1167,614.6a4.71,4.71,0,1,1-4.7-4.69A4.42,4.42,0,0,1,1167,614.6Zm-6.81,0a2.12,2.12,0,0,0,2.11,2.41c1.29,0,2.1-.94,2.1-2.41s-.81-2.42-2.1-2.42S1160.16,613.12,1160.16,614.6Z" fill="#1c2126"/><path d="M1176.59,610.12l-3.26,8.94h-3l-3.28-8.94h2.64l2.16,6.32,2.16-6.32Z" fill="#1c2126"/><path d="M1186.06,615.33h-6.61a1.92,1.92,0,0,0,2,1.81,1.82,1.82,0,0,0,1.75-.8h2.66a5,5,0,1,1,.17-1.77Zm-6.58-1.71h3.94a1.87,1.87,0,0,0-2-1.58A2,2,0,0,0,1179.48,613.62Z" fill="#1c2126"/><path d="M605.51,559.45V538.32H618v2.37H608.1v7.25h9v2.3h-9v9.21Z" fill="#1c2126"/><path d="M625.54,551v8.42H623V538.32h7.09c4.19,0,6.81,2.43,6.81,6.35A5.91,5.91,0,0,1,633,550.5l4.3,9h-2.91L630.41,551Zm0-2.18h4.19c2.92,0,4.56-1.48,4.56-4.12s-1.61-4.11-4.44-4.11h-4.31Z" fill="#1c2126"/><path d="M648.15,559.89c-4.81,0-7.75-3.45-7.75-9.3v-3.41c0-5.85,2.94-9.3,7.75-9.3s7.75,3.45,7.75,9.3v3.41C655.9,556.44,653,559.89,648.15,559.89Zm5.14-9.31v-3.39c0-4.41-1.93-6.87-5.14-6.87s-5.14,2.46-5.14,6.87v3.39c0,4.41,1.93,6.87,5.14,6.87S653.29,555,653.29,550.58Z" fill="#1c2126"/><path d="M661.38,559.45h-2.3V538.32H662l4.64,13.12h.19l4.62-13.12h2.9v21.13H672v-8.11l.13-8.56H672l-4.25,11.71h-2l-4.25-11.71h-.19l.14,8.56Z" fill="#1c2126"/><path d="M682.59,545.58a2.65,2.65,0,1,1,2.65,2.71A2.7,2.7,0,0,1,682.59,545.58Zm0,11.25a2.65,2.65,0,1,1,2.65,2.71A2.68,2.68,0,0,1,682.59,556.83Z" fill="#1c2126"/><path d="M27.75,606.92v12.14H25v-2.13l-4.7-5.41v7.54H17.63V606.92H20L25,612.77v-5.85Z" fill="#1c2126"/><path d="M38.37,615.33H31.76a1.92,1.92,0,0,0,2,1.81,1.81,1.81,0,0,0,1.74-.8H38.2a4.35,4.35,0,0,1-4.44,2.88,4.63,4.63,0,1,1,0-9.26,4.32,4.32,0,0,1,4.62,4.61Zm-6.58-1.71h3.94a1.87,1.87,0,0,0-2-1.58A2,2,0,0,0,31.79,613.62Z" fill="#1c2126"/><path d="M44.93,612.23H43v6.83H40.5v-6.83H38.82v-2.11H40.5V607.3H43v2.82h1.93Z" fill="#1c2126"/><path d="M48.9,606.34v12.72H46.4V606.34Z" fill="#1c2126"/><path d="M53.62,607.59a1.5,1.5,0,1,1-3,0,1.5,1.5,0,1,1,3,0Zm-.24,2.32v9.15h-2.5v-9.15a2.06,2.06,0,0,0,1.25.37A2,2,0,0,0,53.38,609.91Z" fill="#1c2126"/><path d="M58.55,609v1.09h1.87v2.11H58.55v6.83h-2.5v-6.83H54.61v-2.11h1.44V609a2.62,2.62,0,0,1,2.88-2.83h1.75v1.94H59.44A.78.78,0,0,0,58.55,609Z" fill="#1c2126"/><path d="M70.71,610.12l-5,11.89H63.33l1.38-3.28-3.49-8.61h2.51L66,615.69l2.32-5.57Z" fill="#1c2126"/><path d="M109.4,613c0,3.92-2.34,6.22-5.8,6.22s-5.79-2.3-5.79-6.22,2.33-6.25,5.79-6.25S109.4,609.08,109.4,613Zm-8.79,0c0,2.35,1.3,3.66,3,3.66s3-1.31,3-3.66-1.32-3.67-3-3.67S100.61,610.63,100.61,613Z" fill="#1c2126"/><path d="M120.32,610.53h-2.8c0-.89-.67-1.52-1.85-1.52s-1.7.55-1.7,1.23.38,1,1.49,1.3l1.37.32c2.64.59,3.73,1.73,3.73,3.73s-1.6,3.63-4.73,3.63-4.9-1.61-4.9-4h2.8a1.88,1.88,0,0,0,2.11,1.84c1.27,0,1.92-.63,1.92-1.44s-.38-1.09-1.57-1.35l-1.32-.27c-2.77-.56-3.72-1.87-3.72-3.73,0-2.06,1.6-3.54,4.58-3.54S120.32,608.29,120.32,610.53Z" fill="#1c2126"/><path d="M131.38,610.53h-2.8c0-.89-.67-1.52-1.86-1.52-1,0-1.69.55-1.69,1.23s.38,1,1.48,1.3l1.38.32c2.64.59,3.73,1.73,3.73,3.73s-1.6,3.63-4.74,3.63-4.9-1.61-4.9-4h2.81a1.88,1.88,0,0,0,2.11,1.84c1.26,0,1.92-.63,1.92-1.44s-.39-1.09-1.57-1.35l-1.33-.27c-2.77-.56-3.71-1.87-3.71-3.73,0-2.06,1.6-3.54,4.58-3.54S131.38,608.29,131.38,610.53Z" fill="#1c2126"/><path d="M91.16,610.11a3.62,3.62,0,0,0-1-1.22,3.91,3.91,0,0,0-2.49-1.14,3.62,3.62,0,0,0-2.51,1.37,8,8,0,0,0-1.41,2.21,6.53,6.53,0,0,0-2.39-2.73,4.09,4.09,0,0,0-3.58-.35,3,3,0,0,0-1.82,3,5,5,0,0,0,2,2.88q3.32,3,6.72,5.87l5-5.64C90.67,613.14,91.8,611.56,91.16,610.11Z" fill="#ff6b60" stroke="#ff6b60" stroke-linejoin="round"/></svg>