<?xml version="1.0" encoding="UTF-8"?><svg xmlns="http://www.w3.org/2000/svg" viewBox="0 0 1200 630"><path id="b" fill="#ffb916" stroke-width="0" d="M0 0h1200v498.72H0z"/><g id="d"><path fill="#1c2126" stroke-width="0" d="M601.44 330.36c-22.38 0-29.57-7.1-29.57-29.07v-18.34c0-12.88-6.53-18.92-25.19-17.68v-19.66c18.67 1.24 25.19-4.79 25.19-17.76v-18.34c0-21.97 7.19-29.07 29.57-29.07h12.47v15.36h-8.34c-11.98 0-14.37 2.81-14.37 16.68v22.71c0 11.31-8.34 18.83-23.95 19.49v1.49c15.61.66 23.95 8.09 23.95 19.49v22.63c0 13.88 2.4 16.69 14.37 16.69h8.34v15.36h-12.47ZM1069.54 330.36V315h8.34c11.98 0 14.37-2.81 14.37-16.69v-22.63c0-11.4 8.34-18.83 23.95-19.49v-1.49c-15.61-.66-23.95-8.18-23.95-19.49V212.5c0-13.88-2.4-16.68-14.37-16.68h-8.34v-15.36h12.47c22.38 0 29.57 7.1 29.57 29.07v18.34c0 12.97 6.53 19 25.19 17.76v19.66c-18.67-1.24-25.19 4.79-25.19 17.68v18.34c0 21.97-7.19 29.07-29.57 29.07h-12.47ZM66.87 157.26l11.57-72.81h22.31l-11.57 72.81H66.87ZM160.85 158.5c-6.68 0-12.22-1.29-16.63-3.87-4.41-2.58-7.56-6.11-9.45-10.59-1.89-4.47-2.39-9.54-1.5-15.18.89-5.64 2.84-10.36 5.84-14.15 3-3.79 6.83-6.62 11.51-8.52 4.68-1.89 9.95-2.84 15.8-2.84 3.1 0 6.3.41 9.6 1.24 3.31.83 5.92 2 7.85 3.51l-6.09 14.46c-1.31-.96-2.98-1.72-5.01-2.27s-3.98-.83-5.83-.83c-2.89 0-5.42.79-7.59 2.38-2.17 1.58-3.56 4.27-4.18 8.06-.55 3.37-.04 6.3 1.55 8.78 1.58 2.48 4.27 3.72 8.06 3.72 1.51 0 3.24-.31 5.16-.93 1.93-.62 3.75-1.45 5.47-2.48l5.16 14.25c-1.93 1.51-4.68 2.77-8.26 3.77s-7.4 1.5-11.46 1.5ZM212.8 158.5c-6.54 0-11.98-1.22-16.32-3.67-4.34-2.44-7.42-5.89-9.24-10.33-1.83-4.44-2.26-9.66-1.29-15.65.89-5.64 2.82-10.36 5.78-14.15 2.96-3.79 6.71-6.62 11.26-8.52 4.54-1.89 9.57-2.84 15.08-2.84 6.61 0 12.05 1.22 16.32 3.67 4.27 2.44 7.3 5.87 9.09 10.28 1.79 4.41 2.2 9.64 1.24 15.7-.9 5.65-2.81 10.36-5.73 14.15-2.93 3.79-6.63 6.63-11.1 8.52-4.48 1.89-9.5 2.84-15.08 2.84Zm1.13-15.8c2.41 0 4.42-.84 6.04-2.53s2.74-4.42 3.36-8.21c.76-4.82.48-8.16-.83-10.02-1.31-1.86-3.2-2.79-5.68-2.79s-4.42.83-6.04 2.48-2.74 4.41-3.36 8.26c-.76 4.82-.5 8.16.77 10.02 1.27 1.86 3.18 2.79 5.73 2.79ZM269.08 158.5c-6.82 0-11.67-2.01-14.56-6.04-2.89-4.03-3.79-9.66-2.68-16.89l4.96-30.98h21.48l-4.96 31.19c-.35 2.13-.1 3.74.72 4.8.83 1.07 2.2 1.6 4.13 1.6 2.27 0 4.06-.78 5.37-2.32 1.31-1.55 2.17-3.6 2.58-6.14l4.65-29.12h21.48l-8.37 52.67h-20.97l1.34-8.68h1.65c-2.07 3.17-4.46 5.61-7.18 7.33-2.72 1.72-5.94 2.58-9.66 2.58ZM313.8 157.26l12.08-76.01h21.48l-12.08 76.01H313.8ZM367.81 158.5c-4.82 0-8.92-1.27-12.29-3.82-3.37-2.55-5.78-6.06-7.23-10.53-1.45-4.47-1.72-9.57-.83-15.29.89-5.71 2.62-10.46 5.16-14.25 2.55-3.79 5.71-6.61 9.5-8.47 3.79-1.86 7.92-2.79 12.39-2.79 3.85 0 7.25.84 10.17 2.53s4.66 3.87 5.21 6.56h-1.24l4.96-31.19h21.48l-12.08 76.01h-21.17l1.34-8.47h1.65c-1.45 2.89-3.63 5.23-6.56 7.02-2.93 1.79-6.42 2.69-10.48 2.69Zm8.06-15.8c2.48 0 4.58-.84 6.3-2.53 1.72-1.69 2.89-4.42 3.51-8.21.76-4.82.45-8.16-.93-10.02-1.38-1.86-3.37-2.79-5.99-2.79s-4.67.83-6.35 2.48c-1.69 1.65-2.84 4.41-3.46 8.26-.76 4.82-.45 8.16.93 10.02 1.38 1.86 3.37 2.79 5.99 2.79ZM412.95 157.26l5.99-37.7c.34-2.48.65-4.97.93-7.49.27-2.51.48-5.01.62-7.49h20.66l-.21 8.37-1.14.1c2.07-3.24 4.7-5.66 7.9-7.28s6.7-2.43 10.48-2.43c6.13 0 10.57 1.93 13.32 5.78 2.75 3.86 3.48 9.88 2.17 18.07l-4.75 30.05h-21.48l4.75-30.26c.41-2.62.17-4.49-.72-5.63-.9-1.14-2.13-1.7-3.72-1.7-2.34 0-4.27.76-5.78 2.27-1.52 1.52-2.48 3.51-2.89 5.99l-4.65 29.33h-21.48ZM491.95 123.08l-6.82-7.33c3.1-2.62 5.4-4.99 6.92-7.13 1.51-2.13 2.62-4.82 3.31-8.06l3.72 5.27H484l3.41-21.38h21.79l-2.38 14.87c-.48 3.17-1.26 6.08-2.32 8.73-1.07 2.65-2.58 5.18-4.54 7.59s-4.63 4.89-8 7.44ZM536.67 158.5c-8.19 0-13.99-2.01-17.4-6.04-3.41-4.03-4.56-9.59-3.46-16.68l2.48-15.49h-9.71l2.48-15.7h9.71l1.86-11.88 22.31-4.96-2.69 16.83h12.19l-2.48 15.7h-12.19l-2.38 14.87c-.41 2.55.03 4.23 1.34 5.06 1.31.83 2.82 1.24 4.54 1.24 1.1 0 2.01-.07 2.74-.21.72-.14 1.63-.38 2.74-.72l-2.58 16.32c-1.72.69-3.39 1.14-5.01 1.34-1.62.21-3.12.31-4.49.31ZM70.79 287.26l5.89-36.97h-9.71l2.48-15.7h15.8l-7.02 5.58 1.14-6.71c1.17-7.57 4.11-13.24 8.83-16.99 4.72-3.75 11.45-5.63 20.19-5.63 1.86 0 3.67.14 5.42.41 1.76.28 3.39.69 4.91 1.24l-2.58 16.21c-.96-.34-1.89-.58-2.79-.72-.9-.14-1.93-.21-3.1-.21-1.1 0-2.36.16-3.77.46-1.41.31-2.69.91-3.82 1.81-1.14.9-1.84 2.2-2.12 3.92l-.62 3.72-2.38-3.1h15.08l-2.48 15.7H98.16l-5.89 36.97H70.79ZM129.97 288.5c-6.82 0-11.67-2.01-14.56-6.04-2.89-4.03-3.79-9.66-2.68-16.89l4.96-30.98h21.48l-4.96 31.19c-.35 2.13-.1 3.74.72 4.8.83 1.07 2.2 1.6 4.13 1.6 2.27 0 4.06-.78 5.37-2.32 1.31-1.55 2.17-3.6 2.58-6.14l4.65-29.12h21.48l-8.37 52.67H143.8l1.34-8.68h1.65c-2.07 3.17-4.46 5.61-7.18 7.33-2.72 1.72-5.94 2.58-9.66 2.58ZM174.69 287.26l5.99-37.7c.34-2.48.65-4.97.93-7.49.27-2.51.48-5.01.62-7.49h20.66l-.21 8.37-1.14.1c2.07-3.24 4.7-5.66 7.9-7.28s6.7-2.43 10.48-2.43c6.13 0 10.57 1.93 13.32 5.78 2.75 3.86 3.48 9.88 2.17 18.07l-4.75 30.05h-21.48l4.75-30.26c.41-2.62.17-4.49-.72-5.63-.9-1.14-2.13-1.7-3.72-1.7-2.34 0-4.27.76-5.78 2.27-1.52 1.52-2.48 3.51-2.89 5.99l-4.65 29.33h-21.48ZM270.22 288.5c-6.68 0-12.22-1.29-16.63-3.87-4.41-2.58-7.56-6.11-9.45-10.59-1.89-4.47-2.39-9.54-1.5-15.18.89-5.64 2.84-10.36 5.84-14.15 3-3.79 6.83-6.62 11.51-8.52 4.68-1.89 9.95-2.84 15.8-2.84 3.1 0 6.3.41 9.6 1.24 3.31.83 5.92 2 7.85 3.51l-6.09 14.46c-1.31-.96-2.98-1.72-5.01-2.27s-3.98-.83-5.83-.83c-2.89 0-5.42.79-7.59 2.38-2.17 1.58-3.56 4.27-4.18 8.06-.55 3.37-.04 6.3 1.55 8.78 1.58 2.48 4.27 3.72 8.06 3.72 1.51 0 3.24-.31 5.16-.93 1.93-.62 3.75-1.45 5.47-2.48l5.16 14.25c-1.93 1.51-4.68 2.77-8.26 3.77s-7.4 1.5-11.46 1.5ZM323.71 288.5c-8.19 0-13.99-2.01-17.4-6.04-3.41-4.03-4.56-9.59-3.46-16.68l2.48-15.49h-9.71l2.48-15.7h9.71l1.86-11.88 22.31-4.96-2.69 16.83h12.19l-2.48 15.7h-12.19l-2.38 14.87c-.41 2.55.03 4.23 1.34 5.06 1.31.83 2.82 1.24 4.54 1.24 1.1 0 2.01-.07 2.74-.21.72-.14 1.63-.38 2.74-.72l-2.58 16.32c-1.72.69-3.39 1.14-5.01 1.34-1.62.21-3.12.31-4.49.31ZM339.31 287.26l8.37-52.67h21.48l-8.37 52.67h-21.48Zm8.98-58.66 3-18.8h22.1l-3 18.8h-22.1ZM399.93 288.5c-6.54 0-11.98-1.22-16.32-3.67-4.34-2.44-7.42-5.89-9.24-10.33-1.83-4.44-2.26-9.66-1.29-15.65.89-5.64 2.82-10.36 5.78-14.15 2.96-3.79 6.71-6.62 11.26-8.52 4.54-1.89 9.57-2.84 15.08-2.84 6.61 0 12.05 1.22 16.32 3.67 4.27 2.44 7.3 5.87 9.09 10.28 1.79 4.41 2.2 9.64 1.24 15.7-.9 5.65-2.81 10.36-5.73 14.15-2.93 3.79-6.63 6.63-11.1 8.52-4.48 1.89-9.5 2.84-15.08 2.84Zm1.14-15.8c2.41 0 4.42-.84 6.04-2.53s2.74-4.42 3.36-8.21c.76-4.82.48-8.16-.83-10.02-1.31-1.86-3.2-2.79-5.68-2.79s-4.42.83-6.04 2.48-2.74 4.41-3.36 8.26c-.76 4.82-.5 8.16.77 10.02 1.27 1.86 3.18 2.79 5.73 2.79ZM435.87 287.26l5.99-37.7c.34-2.48.65-4.97.93-7.49.27-2.51.48-5.01.62-7.49h20.66l-.21 8.37-1.14.1c2.07-3.24 4.7-5.66 7.9-7.28s6.7-2.43 10.48-2.43c6.13 0 10.57 1.93 13.32 5.78 2.75 3.86 3.48 9.88 2.17 18.07l-4.75 30.05h-21.48l4.75-30.26c.41-2.62.17-4.49-.72-5.63-.9-1.14-2.13-1.7-3.72-1.7-2.34 0-4.27.76-5.78 2.27-1.52 1.52-2.48 3.51-2.89 5.99l-4.65 29.33h-21.48ZM81.33 417.26l-14.15-52.67h20.96l7.13 31.09h-2.58l16.73-31.09h13.01l6.82 31.09h-1.96l16.73-31.09h21.17l-30.78 52.67h-17.66l-8.26-32.22h7.95l-17.45 32.22H81.33ZM159.71 417.26l8.37-52.67h21.48l-8.37 52.67h-21.48Zm8.99-58.66 3-18.8h22.1l-3 18.8h-22.1ZM220.34 418.5c-8.19 0-13.99-2.01-17.4-6.04-3.41-4.03-4.56-9.59-3.46-16.68l2.48-15.49h-9.71l2.48-15.7h9.71l1.86-11.88 22.31-4.96-2.69 16.83h12.19l-2.48 15.7h-12.19l-2.38 14.87c-.41 2.55.03 4.23 1.34 5.06 1.31.83 2.82 1.24 4.54 1.24 1.1 0 2.01-.07 2.74-.21.72-.14 1.63-.38 2.74-.72l-2.58 16.32c-1.72.69-3.39 1.14-5.01 1.34-1.62.21-3.12.31-4.49.31ZM235.93 417.26l12.08-76.01h21.48l-5.06 31.81h-1.65c2.07-3.24 4.7-5.66 7.9-7.28s6.7-2.43 10.48-2.43c6.13 0 10.57 1.93 13.32 5.78 2.75 3.86 3.48 9.88 2.17 18.07l-4.75 30.05h-21.48l4.75-30.26c.41-2.62.19-4.49-.67-5.63-.86-1.14-2.12-1.7-3.77-1.7-2.41 0-4.36.76-5.83 2.27-1.48 1.52-2.43 3.51-2.84 5.99l-4.65 29.33h-21.48ZM330.74 418.5c-6.54 0-11.98-1.22-16.32-3.67-4.34-2.44-7.42-5.89-9.24-10.33-1.83-4.44-2.26-9.66-1.29-15.65.89-5.64 2.82-10.36 5.78-14.15 2.96-3.79 6.71-6.62 11.26-8.52 4.54-1.89 9.57-2.84 15.08-2.84 6.61 0 12.05 1.22 16.32 3.67 4.27 2.44 7.3 5.87 9.09 10.28 1.79 4.41 2.2 9.64 1.24 15.7-.9 5.65-2.81 10.36-5.73 14.15-2.93 3.79-6.63 6.63-11.1 8.52-4.48 1.89-9.5 2.84-15.08 2.84Zm1.13-15.8c2.41 0 4.42-.84 6.04-2.53s2.74-4.42 3.36-8.21c.76-4.82.48-8.16-.83-10.02-1.31-1.86-3.2-2.79-5.68-2.79s-4.42.83-6.04 2.48-2.74 4.41-3.36 8.26c-.76 4.82-.5 8.16.77 10.02 1.27 1.86 3.18 2.79 5.73 2.79ZM387.02 418.5c-6.82 0-11.67-2.01-14.56-6.04-2.89-4.03-3.79-9.66-2.68-16.89l4.96-30.98h21.48l-4.96 31.19c-.35 2.13-.1 3.74.72 4.8.83 1.07 2.2 1.6 4.13 1.6 2.27 0 4.06-.78 5.37-2.32 1.31-1.55 2.17-3.6 2.58-6.14l4.65-29.12h21.48l-8.37 52.67h-20.97l1.34-8.68h1.65c-2.07 3.17-4.46 5.61-7.18 7.33-2.72 1.72-5.94 2.58-9.66 2.58ZM460.97 418.5c-8.19 0-13.99-2.01-17.4-6.04-3.41-4.03-4.56-9.59-3.46-16.68l2.48-15.49h-9.71l2.48-15.7h9.71l1.86-11.88 22.31-4.96-2.69 16.83h12.19l-2.48 15.7h-12.19l-2.38 14.87c-.41 2.55.03 4.23 1.34 5.06 1.31.83 2.82 1.24 4.54 1.24 1.1 0 2.01-.07 2.74-.21.72-.14 1.63-.38 2.74-.72l-2.58 16.32c-1.72.69-3.39 1.14-5.01 1.34-1.62.21-3.12.31-4.49.31ZM504.45 440.71l-3.2-16.52c3.44-.55 6.33-1.14 8.68-1.76 2.34-.62 4.32-1.5 5.94-2.63 1.62-1.14 2.98-2.63 4.08-4.49l3.51-5.89-1.03 7.85-14.56-52.67h21.79l6.82 31.5h-3.72l17.56-31.5h21.79l-31.81 52.88c-2.68 4.47-5.39 8.12-8.11 10.95-2.72 2.82-5.51 5.04-8.37 6.66a35.823 35.823 0 0 1-9.04 3.61c-3.17.79-6.61 1.46-10.33 2.01ZM593.47 418.5c-6.54 0-11.98-1.22-16.32-3.67-4.34-2.44-7.42-5.89-9.24-10.33-1.83-4.44-2.26-9.66-1.29-15.65.89-5.64 2.82-10.36 5.78-14.15 2.96-3.79 6.71-6.62 11.26-8.52 4.54-1.89 9.57-2.84 15.08-2.84 6.61 0 12.05 1.22 16.32 3.67 4.27 2.44 7.3 5.87 9.09 10.28 1.79 4.41 2.2 9.64 1.24 15.7-.9 5.65-2.81 10.36-5.73 14.15-2.93 3.79-6.63 6.63-11.1 8.52-4.48 1.89-9.5 2.84-15.08 2.84Zm1.14-15.8c2.41 0 4.42-.84 6.04-2.53s2.74-4.42 3.36-8.21c.76-4.82.48-8.16-.83-10.02-1.31-1.86-3.2-2.79-5.68-2.79s-4.42.83-6.04 2.48-2.74 4.41-3.36 8.26c-.76 4.82-.5 8.16.77 10.02 1.27 1.86 3.18 2.79 5.73 2.79ZM649.76 418.5c-6.82 0-11.67-2.01-14.56-6.04-2.89-4.03-3.79-9.66-2.68-16.89l4.96-30.98h21.48L654 395.78c-.35 2.13-.1 3.74.72 4.8.83 1.07 2.2 1.6 4.13 1.6 2.27 0 4.06-.78 5.37-2.32 1.31-1.55 2.17-3.6 2.58-6.14l4.65-29.12h21.48l-8.37 52.67h-20.97l1.34-8.68h1.65c-2.07 3.17-4.46 5.61-7.18 7.33-2.72 1.72-5.94 2.58-9.66 2.58Z"/><path fill="#1c2126" stroke="#1c2126" stroke-linejoin="round" stroke-width="2" d="M767.64 248.99c-1.53-3.49-4.34-6.25-7.23-8.72-5.08-4.34-11.14-8.26-17.82-8.17-7 .1-13.21 4.6-17.91 9.79-4.21 4.64-7.58 10.01-10.06 15.76-3.93-7.84-9.56-15.01-17.1-19.48-7.63-4.52-17.36-5.95-25.53-2.49-8.17 3.46-14.13 12.29-13.03 21.09 1.06 8.44 7.73 14.91 14.05 20.61a2010.46 2010.46 0 0 0 48.01 41.92c11.89-13.41 23.78-26.83 35.67-40.24 7.5-8.46 15.52-19.72 10.97-30.07ZM905.01 248.99c-1.53-3.49-4.34-6.25-7.23-8.72-5.08-4.34-11.14-8.26-17.82-8.17-7 .1-13.21 4.6-17.91 9.79-4.21 4.64-7.58 10.01-10.06 15.76-3.93-7.84-9.56-15.01-17.1-19.48-7.63-4.52-17.36-5.95-25.53-2.49-8.17 3.46-14.13 12.29-13.03 21.09 1.06 8.44 7.73 14.91 14.05 20.61a2010.46 2010.46 0 0 0 48.01 41.92c11.89-13.41 23.78-26.83 35.67-40.24 7.5-8.46 15.52-19.72 10.97-30.07ZM1043.83 248.99c-1.53-3.49-4.34-6.25-7.23-8.72-5.08-4.34-11.14-8.26-17.82-8.17-7 .1-13.21 4.6-17.91 9.79-4.21 4.64-7.58 10.01-10.06 15.76-3.93-7.84-9.56-15.01-17.1-19.48-7.63-4.52-17.36-5.95-25.53-2.49-8.17 3.46-14.13 12.29-13.03 21.09 1.06 8.44 7.73 14.91 14.05 20.61a2010.46 2010.46 0 0 0 48.01 41.92c11.89-13.41 23.78-26.83 35.67-40.24 7.5-8.46 15.52-19.72 10.97-30.07Z" opacity=".1"/><path fill="#db4648" stroke="#1c2126" stroke-linejoin="round" stroke-width="2" d="M757.34 233.03c-1.53-3.49-4.34-6.25-7.23-8.72-5.08-4.34-11.14-8.26-17.82-8.17-7 .1-13.21 4.6-17.91 9.79-4.21 4.64-7.58 10.01-10.06 15.76-3.93-7.84-9.56-15.01-17.1-19.48-7.63-4.52-17.36-5.95-25.53-2.49-8.17 3.46-14.13 12.29-13.03 21.09 1.06 8.44 7.73 14.91 14.05 20.61a2010.46 2010.46 0 0 0 48.01 41.92c11.89-13.41 23.78-26.83 35.67-40.24 7.5-8.46 15.52-19.72 10.97-30.07Z"/><path fill="#ff6b60" stroke="#1c2126" stroke-linejoin="round" stroke-width="2" d="M894.71 233.03c-1.53-3.49-4.34-6.25-7.23-8.72-5.08-4.34-11.14-8.26-17.82-8.17-7 .1-13.21 4.6-17.91 9.79-4.21 4.64-7.58 10.01-10.06 15.76-3.93-7.84-9.56-15.01-17.1-19.48-7.63-4.52-17.36-5.95-25.53-2.49-8.17 3.46-14.13 12.29-13.03 21.09 1.06 8.44 7.73 14.91 14.05 20.61a2010.46 2010.46 0 0 0 48.01 41.92c11.89-13.41 23.78-26.83 35.67-40.24 7.5-8.46 15.52-19.72 10.97-30.07Z"/><path fill="#db4648" stroke="#1c2126" stroke-linejoin="round" stroke-width="2" d="M1033.53 233.03c-1.53-3.49-4.34-6.25-7.23-8.72-5.08-4.34-11.14-8.26-17.82-8.17-7 .1-13.21 4.6-17.91 9.79-4.21 4.64-7.58 10.01-10.06 15.76-3.93-7.84-9.56-15.01-17.1-19.48-7.63-4.52-17.36-5.95-25.53-2.49-8.17 3.46-14.13 12.29-13.03 21.09 1.06 8.44 7.73 14.91 14.05 20.61a2010.46 2010.46 0 0 0 48.01 41.92c11.89-13.41 23.78-26.83 35.67-40.24 7.5-8.46 15.52-19.72 10.97-30.07Z"/><path fill="#fff" stroke-width="0" d="M0 595h1200v35H0zM0 499.19h1200V595H0z"/><path fill="none" stroke="#1c2126" stroke-miterlimit="10" d="M0 499.19h1200M0 595h1200"/><path fill="#1c2126" stroke-width="0" d="M24.24 559.45v-18.76h-6.39v-2.37H33.2v2.37h-6.39v18.76h-2.58ZM44.08 559.89c-4.8 0-7.75-3.46-7.75-9.3v-3.41c0-5.84 2.94-9.3 7.75-9.3s7.75 3.46 7.75 9.3v3.41c0 5.84-2.94 9.3-7.75 9.3Zm5.14-9.31v-3.38c0-4.41-1.93-6.87-5.14-6.87s-5.14 2.46-5.14 6.87v3.38c0 4.41 1.93 6.87 5.14 6.87s5.14-2.46 5.14-6.87ZM59.97 545.58c0-1.48 1.2-2.71 2.65-2.71s2.65 1.23 2.65 2.71-1.2 2.71-2.65 2.71-2.65-1.23-2.65-2.71Zm0 11.25c0-1.48 1.2-2.7 2.65-2.7s2.65 1.21 2.65 2.7-1.2 2.71-2.65 2.71-2.65-1.21-2.65-2.71Z"/><path fill="none" stroke="#1c2126" stroke-miterlimit="10" d="M582.03 498.72V595"/><path fill="#1c2126" stroke-width="0" d="M605.51 559.45v-21.14h12.47v2.37h-9.87v7.25h9.02v2.3h-9.02v9.21h-2.59ZM625.54 551.03v8.42h-2.55v-21.14h7.09c4.19 0 6.81 2.43 6.81 6.36 0 2.77-1.54 5.04-3.94 5.83l4.31 8.95h-2.92l-3.94-8.42h-4.86Zm0-2.18h4.19c2.92 0 4.56-1.48 4.56-4.12s-1.61-4.12-4.44-4.12h-4.31v8.23ZM648.15 559.89c-4.8 0-7.75-3.46-7.75-9.3v-3.41c0-5.84 2.94-9.3 7.75-9.3s7.75 3.46 7.75 9.3v3.41c0 5.84-2.94 9.3-7.75 9.3Zm5.14-9.31v-3.38c0-4.41-1.93-6.87-5.14-6.87s-5.14 2.46-5.14 6.87v3.38c0 4.41 1.93 6.87 5.14 6.87s5.14-2.46 5.14-6.87ZM661.18 559.45h-2.31v-21.14h2.86l4.88 13.08h.19l4.86-13.08h2.86v21.14h-2.31v-8.1l.15-8.57h-.19l-4.45 11.71h-2.02l-4.45-11.71h-.19l.15 8.57v8.1ZM682.59 545.58c0-1.48 1.2-2.71 2.65-2.71s2.65 1.23 2.65 2.71-1.2 2.71-2.65 2.71-2.65-1.23-2.65-2.71Zm0 11.25c0-1.48 1.2-2.7 2.65-2.7s2.65 1.21 2.65 2.7-1.2 2.71-2.65 2.71-2.65-1.21-2.65-2.71ZM12.77 618.4c-.12 0-.21-.04-.26-.11s-.08-.17-.06-.27l2.22-10.42a.469.469 0 0 1 .46-.4h6.95c.12 0 .2.04.26.11.05.07.07.17.05.29l-.24 1.12a.465.465 0 0 1-.46.39h-5.14l-.66 3.04h4.82c.12 0 .2.04.26.11.05.07.07.17.05.29l-.22 1.12c-.02.11-.08.2-.17.27-.09.07-.19.11-.31.11H15.5l-.85 3.97a.47.47 0 0 1-.46.38h-1.41ZM25.41 618.56c-.81 0-1.49-.15-2.02-.45s-.92-.72-1.15-1.26c-.23-.54-.29-1.18-.17-1.9.03-.19.08-.43.13-.71s.12-.51.17-.7c.19-.74.49-1.37.89-1.91s.91-.96 1.54-1.26c.62-.3 1.36-.45 2.22-.45s1.49.15 2.02.45c.54.3.93.72 1.16 1.26s.29 1.18.18 1.91c-.04.19-.09.43-.14.7s-.11.51-.16.71c-.19.72-.48 1.36-.87 1.9-.39.54-.9.96-1.52 1.26s-1.38.45-2.26.45Zm.16-1.58c.58 0 1.06-.18 1.46-.54.4-.36.69-.88.87-1.58.04-.16.09-.37.14-.62s.1-.46.13-.62c.12-.69.07-1.22-.14-1.58-.21-.36-.61-.54-1.18-.54s-1.05.18-1.46.54-.69.88-.86 1.58c-.04.16-.09.37-.15.62s-.1.46-.12.62c-.12.69-.07 1.22.14 1.58s.6.54 1.18.54ZM31.53 618.4c-.11 0-.19-.04-.25-.11s-.08-.17-.06-.27l1.6-7.54c.02-.12.08-.21.17-.29s.19-.11.3-.11h1.3c.11 0 .19.04.25.11s.08.17.06.29l-.14.66c.26-.34.58-.6.98-.78s.88-.27 1.44-.27h.78c.12 0 .2.04.26.11.05.07.07.16.05.27l-.24 1.15c-.02.11-.08.2-.17.27s-.19.11-.3.11h-1.25c-.51 0-.94.14-1.29.43-.35.28-.57.68-.68 1.19l-.94 4.4c-.02.11-.07.2-.16.27-.08.07-.19.11-.3.11h-1.39ZM44.76 618.4c-.73 0-1.29-.11-1.7-.34-.4-.22-.67-.56-.78-1-.12-.44-.11-.99.03-1.66l.79-3.63h-1.26a.31.31 0 0 1-.25-.11c-.06-.07-.08-.17-.06-.29l.19-.91c.02-.11.08-.2.17-.27.09-.07.2-.11.31-.11h1.25l.58-2.65c.02-.11.07-.2.16-.27.08-.07.18-.11.29-.11h1.3c.12 0 .21.04.26.11.06.08.08.17.06.27l-.58 2.65h2c.11 0 .19.04.25.11s.08.16.06.27l-.19.91c-.02.12-.08.21-.17.29a.43.43 0 0 1-.3.11h-2l-.74 3.47c-.06.29-.1.54-.1.74 0 .21.05.37.17.48s.33.17.62.17h1.15c.12 0 .2.04.26.11.05.08.07.17.05.27l-.21.99a.47.47 0 0 1-.46.38h-1.14ZM48.07 618.4c-.11 0-.19-.04-.25-.11s-.08-.17-.06-.27l2.26-10.59c.02-.11.08-.2.16-.27s.18-.11.29-.11h1.44c.11 0 .19.04.25.11.06.08.08.17.06.27l-.78 3.65c.34-.34.72-.62 1.14-.83.42-.21.93-.32 1.53-.32.69 0 1.26.15 1.7.44.44.29.75.71.92 1.24.17.53.18 1.17.02 1.92l-.96 4.5a.47.47 0 0 1-.46.38h-1.44c-.11 0-.19-.04-.25-.11s-.08-.17-.06-.27l.93-4.4c.14-.62.11-1.1-.08-1.46-.19-.35-.58-.53-1.17-.53-.36 0-.71.08-1.03.23-.33.15-.61.38-.84.68s-.4.66-.5 1.07l-.93 4.4a.47.47 0 0 1-.16.27c-.09.07-.18.11-.29.11h-1.44ZM61.51 618.56c-.78 0-1.43-.15-1.95-.46-.52-.31-.87-.76-1.07-1.35-.2-.59-.23-1.29-.09-2.13.02-.11.05-.24.08-.41.03-.17.06-.3.1-.39.21-.81.54-1.51.99-2.09.45-.58.99-1.03 1.64-1.34s1.36-.47 2.14-.47c.86 0 1.55.18 2.06.54s.84.85 1.01 1.49.16 1.37 0 2.2l-.08.34c-.02.11-.08.2-.17.27-.09.08-.19.11-.31.11h-5.31a.63.63 0 0 1-.03.13c-.05.38-.05.72.02 1.03.06.31.21.57.42.76s.51.29.87.29c.3 0 .56-.04.79-.13.22-.09.41-.2.55-.31.14-.12.25-.21.33-.29.13-.13.22-.21.29-.23.06-.03.15-.04.27-.04h1.39c.1 0 .17.03.22.1.05.06.07.14.05.24-.05.17-.19.38-.4.62-.21.24-.5.48-.86.72s-.79.43-1.29.58-1.04.23-1.64.23Zm-.69-5.03h3.54l.02-.05c.1-.42.1-.78.02-1.1s-.23-.56-.46-.74c-.22-.18-.52-.26-.9-.26s-.71.09-1.02.26c-.3.18-.56.42-.76.74-.2.31-.35.68-.43 1.1l-.02.05ZM71.06 618.4c-.11 0-.19-.04-.25-.11s-.08-.17-.06-.27l2.26-10.59c.02-.11.08-.2.16-.27s.18-.11.29-.11h1.33c.12 0 .21.04.26.11.06.08.08.17.06.27l-2.26 10.59a.47.47 0 0 1-.46.38h-1.33ZM78.64 618.56c-.81 0-1.49-.15-2.02-.45-.54-.3-.92-.72-1.15-1.26-.23-.54-.29-1.18-.17-1.9.03-.19.08-.43.14-.71s.11-.51.17-.7c.19-.74.49-1.37.89-1.91.4-.54.91-.96 1.54-1.26s1.36-.45 2.22-.45 1.49.15 2.02.45.92.72 1.16 1.26c.23.54.29 1.18.18 1.91-.04.19-.09.43-.14.7-.05.28-.11.51-.16.71-.19.72-.48 1.36-.87 1.9-.39.54-.9.96-1.52 1.26-.62.3-1.38.45-2.26.45Zm.16-1.58c.58 0 1.06-.18 1.46-.54s.69-.88.87-1.58c.04-.16.09-.37.14-.62.05-.26.1-.46.13-.62.12-.69.07-1.22-.14-1.58s-.61-.54-1.18-.54-1.05.18-1.46.54c-.41.36-.69.88-.86 1.58-.04.16-.09.37-.15.62s-.1.46-.12.62c-.12.69-.07 1.22.14 1.58.21.36.6.54 1.18.54ZM86.92 618.4c-.16 0-.27-.04-.34-.12a.658.658 0 0 1-.13-.28l-1.42-7.49c-.02-.14 0-.25.08-.32s.18-.11.3-.11h1.22c.12 0 .21.03.27.1.06.06.11.15.13.27l.91 5.55 3.33-5.62c.03-.06.09-.13.17-.2a.45.45 0 0 1 .31-.11h1.39c.13 0 .22.05.26.14.05.1.03.21-.06.35l-4.56 7.42c-.08.11-.16.2-.25.28-.09.08-.22.12-.38.12H86.9ZM96.66 618.56c-.78 0-1.43-.15-1.94-.46-.52-.31-.88-.76-1.07-1.35-.2-.59-.23-1.29-.09-2.13.02-.11.05-.24.08-.41.03-.17.06-.3.1-.39.21-.81.54-1.51.99-2.09.45-.58.99-1.03 1.64-1.34s1.36-.47 2.14-.47c.86 0 1.55.18 2.06.54.51.36.84.85 1.01 1.49.17.63.16 1.37 0 2.2l-.08.34c-.02.11-.08.2-.17.27-.09.08-.2.11-.31.11h-5.31a.63.63 0 0 1-.03.13c-.05.38-.05.72.02 1.03.06.31.21.57.42.76s.51.29.87.29c.3 0 .56-.04.78-.13.22-.09.41-.2.55-.31.14-.12.25-.21.33-.29.13-.13.22-.21.29-.23.06-.03.15-.04.27-.04h1.39c.1 0 .17.03.22.1.05.06.07.14.05.24-.05.17-.19.38-.4.62-.21.24-.5.48-.87.72-.36.24-.79.43-1.29.58s-1.04.23-1.64.23Zm-.69-5.03h3.54l.02-.05c.1-.42.1-.78.02-1.1s-.23-.56-.46-.74c-.22-.18-.52-.26-.9-.26s-.71.09-1.02.26-.56.42-.76.74c-.2.31-.35.68-.43 1.1l-.02.05ZM109.56 618.56c-.81 0-1.49-.15-2.02-.45s-.92-.72-1.15-1.26c-.23-.54-.29-1.18-.17-1.9.03-.19.08-.43.13-.71s.12-.51.17-.7c.19-.74.49-1.37.89-1.91s.91-.96 1.54-1.26c.62-.3 1.36-.45 2.22-.45s1.49.15 2.02.45c.54.3.93.72 1.16 1.26s.29 1.18.18 1.91c-.04.19-.09.43-.14.7s-.11.51-.16.71c-.19.72-.48 1.36-.87 1.9-.39.54-.9.96-1.52 1.26s-1.38.45-2.26.45Zm.16-1.58c.58 0 1.06-.18 1.46-.54.4-.36.69-.88.87-1.58.04-.16.09-.37.14-.62s.1-.46.13-.62c.12-.69.07-1.22-.14-1.58-.21-.36-.61-.54-1.18-.54s-1.05.18-1.46.54-.69.88-.86 1.58c-.04.16-.09.37-.15.62s-.1.46-.12.62c-.12.69-.07 1.22.14 1.58s.6.54 1.18.54ZM116.42 618.4c-.12 0-.21-.04-.26-.11s-.08-.17-.06-.27l1.33-6.24h-1.29a.31.31 0 0 1-.25-.11c-.06-.07-.08-.17-.06-.29l.19-.91c.02-.11.08-.2.17-.27s.19-.11.31-.11h1.3l.13-.65c.15-.64.38-1.17.69-1.59.31-.42.7-.74 1.18-.95.48-.21 1.04-.32 1.68-.32h1.28c.12 0 .2.04.26.11.05.07.07.16.05.27l-.19.91c-.02.12-.08.21-.17.29s-.19.11-.3.11h-.96c-.43 0-.76.11-.99.32-.23.21-.39.52-.46.93l-.13.58h1.98c.12 0 .2.04.26.11.05.07.07.16.05.27l-.19.91c-.02.12-.08.21-.16.29a.43.43 0 0 1-.3.11h-1.98l-1.34 6.24c-.02.11-.07.2-.16.27-.08.07-.18.11-.29.11h-1.3ZM128.85 618.56c-.81 0-1.48-.15-2.02-.45s-.92-.72-1.15-1.26c-.23-.54-.29-1.18-.17-1.9.03-.19.08-.43.14-.71s.11-.51.17-.7c.19-.74.49-1.37.89-1.91s.91-.96 1.54-1.26c.62-.3 1.36-.45 2.22-.45s1.49.15 2.02.45c.54.3.92.72 1.16 1.26.23.54.29 1.18.18 1.91-.04.19-.09.43-.14.7s-.11.51-.16.71c-.19.72-.48 1.36-.87 1.9-.39.54-.9.96-1.52 1.26s-1.38.45-2.26.45Zm.16-1.58c.58 0 1.06-.18 1.46-.54.4-.36.69-.88.87-1.58.04-.16.09-.37.14-.62.05-.26.1-.46.13-.62.12-.69.07-1.22-.14-1.58-.21-.36-.61-.54-1.18-.54s-1.05.18-1.46.54-.69.88-.86 1.58c-.04.16-.09.37-.15.62s-.1.46-.12.62c-.12.69-.07 1.22.14 1.58s.6.54 1.18.54ZM134.32 621.45a.31.31 0 0 1-.25-.11c-.06-.07-.08-.16-.06-.27l2.26-10.59c.02-.11.08-.2.16-.27.09-.07.18-.11.29-.11H138c.11 0 .19.04.25.11s.08.16.06.27l-.14.64c.33-.34.7-.62 1.1-.85.4-.22.93-.34 1.58-.34.55 0 1.03.09 1.42.28.39.19.7.45.92.79.22.34.37.74.44 1.21.07.46.06.97-.04 1.53-.02.18-.05.35-.09.51s-.08.34-.14.53c-.13.52-.31 1.02-.54 1.48-.24.46-.52.87-.86 1.22-.34.35-.73.62-1.18.81a3.9 3.9 0 0 1-1.53.29c-.6 0-1.09-.1-1.47-.31-.38-.21-.66-.48-.83-.82l-.78 3.63a.47.47 0 0 1-.16.27.43.43 0 0 1-.3.11h-1.36Zm4.56-4.6c.43 0 .79-.1 1.09-.3.3-.2.55-.46.74-.78.2-.33.35-.68.47-1.05.05-.16.1-.32.13-.48.03-.16.06-.32.08-.48.05-.38.06-.74.02-1.06s-.16-.58-.36-.78c-.2-.2-.51-.3-.94-.3-.45 0-.83.1-1.16.3-.33.2-.59.46-.8.78s-.36.64-.44.97c-.05.19-.1.39-.14.61s-.08.42-.11.62c-.05.32-.05.63 0 .92.06.29.2.54.43.73.23.19.56.29.98.29ZM148.13 618.56c-.78 0-1.43-.15-1.95-.46-.52-.31-.87-.76-1.07-1.35-.2-.59-.23-1.29-.09-2.13.02-.11.05-.24.08-.41.03-.17.06-.3.1-.39.21-.81.54-1.51.99-2.09.45-.58.99-1.03 1.64-1.34s1.36-.47 2.14-.47c.86 0 1.55.18 2.06.54s.84.85 1.01 1.49.16 1.37 0 2.2l-.08.34c-.02.11-.08.2-.17.27-.09.08-.19.11-.31.11h-5.31a.63.63 0 0 1-.03.13c-.05.38-.05.72.02 1.03.06.31.21.57.42.76s.51.29.87.29c.3 0 .56-.04.79-.13.22-.09.41-.2.55-.31.14-.12.25-.21.33-.29.13-.13.22-.21.29-.23.06-.03.15-.04.27-.04h1.39c.1 0 .17.03.22.1.05.06.07.14.05.24-.05.17-.19.38-.4.62-.21.24-.5.48-.86.72s-.79.43-1.29.58-1.04.23-1.64.23Zm-.69-5.03h3.54l.02-.05c.1-.42.1-.78.02-1.1s-.23-.56-.46-.74c-.22-.18-.52-.26-.9-.26s-.71.09-1.02.26c-.3.18-.56.42-.76.74-.2.31-.35.68-.43 1.1l-.02.05ZM153.96 618.4a.31.31 0 0 1-.25-.11c-.06-.07-.08-.17-.06-.27l1.6-7.55c.02-.11.08-.2.17-.27.09-.07.19-.11.3-.11h1.31c.11 0 .19.04.24.11.05.07.07.16.05.27l-.14.66c.34-.34.74-.63 1.21-.86.46-.23.99-.35 1.58-.35.73 0 1.31.15 1.74.44s.73.71.87 1.24.14 1.17-.02 1.92l-.96 4.5c-.02.11-.07.2-.16.27s-.19.11-.3.11h-1.41c-.11 0-.19-.04-.25-.11s-.08-.17-.06-.27l.93-4.4c.14-.65.12-1.14-.04-1.48s-.56-.5-1.18-.5-1.12.18-1.54.53c-.42.35-.7.84-.84 1.46l-.93 4.4a.47.47 0 0 1-.16.27c-.09.07-.18.11-.29.11h-1.41ZM170.61 618.56c-.64 0-1.17-.07-1.59-.22-.42-.15-.75-.34-.99-.56-.24-.22-.41-.45-.5-.67-.09-.22-.12-.41-.1-.56.02-.12.08-.21.17-.28a.45.45 0 0 1 .28-.11h1.26s.08 0 .11.02c.03 0 .06.04.1.1l.37.37c.13.13.29.24.49.33.2.09.46.14.78.14.42 0 .78-.08 1.1-.25.31-.17.5-.4.57-.71.04-.22.02-.4-.08-.54s-.29-.27-.59-.38-.74-.23-1.33-.36c-.58-.14-1.04-.31-1.38-.53-.35-.21-.58-.48-.71-.8-.12-.32-.13-.69-.04-1.12.08-.42.29-.81.62-1.19.33-.38.77-.69 1.32-.94s1.19-.37 1.93-.37c.58 0 1.06.07 1.46.22s.72.32.96.54c.24.21.41.43.5.65.1.22.13.41.1.57-.01.12-.06.21-.15.28a.45.45 0 0 1-.28.11h-1.17a.32.32 0 0 1-.14-.03.272.272 0 0 1-.1-.08c-.11-.11-.22-.22-.33-.34-.11-.12-.26-.23-.43-.31-.18-.08-.42-.13-.74-.13-.41 0-.73.09-.98.26s-.41.4-.47.66c-.03.18-.01.34.06.47.07.13.25.26.54.38s.73.24 1.31.37c.69.13 1.22.32 1.59.57.37.25.61.54.72.86s.13.69.04 1.08c-.1.48-.33.91-.7 1.29-.37.38-.85.69-1.45.9-.6.22-1.3.33-2.11.33ZM179.52 618.56c-.81 0-1.49-.15-2.02-.45-.54-.3-.92-.72-1.15-1.26-.23-.54-.29-1.18-.17-1.9.03-.19.08-.43.14-.71s.11-.51.17-.7c.19-.74.49-1.37.89-1.91.4-.54.91-.96 1.54-1.26s1.36-.45 2.22-.45 1.49.15 2.02.45.92.72 1.16 1.26c.23.54.29 1.18.18 1.91-.04.19-.09.43-.14.7-.05.28-.11.51-.16.71-.19.72-.48 1.36-.87 1.9-.39.54-.9.96-1.52 1.26-.62.3-1.38.45-2.26.45Zm.16-1.58c.58 0 1.06-.18 1.46-.54s.69-.88.87-1.58c.04-.16.09-.37.14-.62.05-.26.1-.46.13-.62.12-.69.07-1.22-.14-1.58s-.61-.54-1.18-.54-1.05.18-1.46.54c-.41.36-.69.88-.86 1.58-.04.16-.09.37-.15.62s-.1.46-.12.62c-.12.69-.07 1.22.14 1.58.21.36.6.54 1.18.54ZM188.45 618.56c-.69 0-1.26-.15-1.7-.44s-.73-.71-.87-1.25-.14-1.18 0-1.91l.96-4.5c.02-.11.08-.2.17-.27.09-.07.19-.11.29-.11h1.41c.11 0 .19.04.24.11s.07.16.05.27l-.93 4.4c-.1.44-.13.8-.09 1.1.04.29.16.52.36.66.2.15.52.22.94.22.58 0 1.08-.18 1.5-.53.43-.35.7-.84.83-1.46l.94-4.4c.02-.11.08-.2.17-.27s.19-.11.3-.11h1.39c.12 0 .2.04.26.11.05.07.07.16.05.27l-1.6 7.55c-.02.11-.07.2-.16.27-.08.07-.19.11-.3.11h-1.3c-.11 0-.19-.04-.25-.11s-.08-.17-.06-.27l.13-.66c-.23.24-.47.46-.72.64s-.53.32-.85.42c-.32.1-.71.14-1.18.14ZM195.57 618.4a.31.31 0 0 1-.25-.11c-.06-.07-.08-.17-.06-.27l1.6-7.54a.482.482 0 0 1 .47-.4h1.3c.11 0 .19.04.25.11s.08.17.06.29l-.14.66c.26-.34.58-.6.98-.78.39-.18.87-.27 1.44-.27h.78c.12 0 .2.04.26.11s.07.16.05.27l-.24 1.15c-.02.11-.08.2-.17.27-.09.07-.19.11-.3.11h-1.25c-.51 0-.94.14-1.29.43-.35.28-.57.68-.68 1.19l-.94 4.4a.47.47 0 0 1-.46.38h-1.39ZM205.46 618.56c-.71 0-1.34-.14-1.88-.43s-.94-.71-1.19-1.26-.31-1.21-.18-1.99c.03-.16.07-.37.13-.63.05-.26.1-.48.14-.65.29-1.16.82-2.07 1.6-2.71.78-.64 1.77-.97 2.98-.97.67 0 1.23.1 1.69.29.45.19.81.44 1.07.74s.44.61.54.93.14.61.1.86c0 .12-.06.21-.14.28-.08.07-.17.1-.28.1h-1.46c-.11 0-.19-.03-.25-.08s-.09-.13-.1-.24c0-.43-.11-.74-.34-.93-.23-.19-.56-.29-.98-.29-.52 0-.99.17-1.4.51-.41.34-.71.87-.89 1.59-.04.19-.09.39-.13.59s-.08.38-.11.53c-.12.74-.06 1.27.16 1.6.22.33.6.5 1.12.5.42 0 .79-.09 1.12-.26s.61-.48.83-.9c.06-.12.13-.2.2-.25a.44.44 0 0 1 .26-.07h1.44c.11 0 .19.04.25.11s.07.16.04.28c-.07.23-.21.51-.41.82s-.47.62-.81.92c-.34.3-.77.54-1.29.74-.52.19-1.13.29-1.85.29ZM214.69 618.56c-.78 0-1.43-.15-1.95-.46-.52-.31-.87-.76-1.07-1.35-.2-.59-.23-1.29-.09-2.13.02-.11.05-.24.08-.41.03-.17.06-.3.1-.39.21-.81.54-1.51.99-2.09.45-.58.99-1.03 1.64-1.34s1.36-.47 2.14-.47c.86 0 1.55.18 2.06.54s.84.85 1.01 1.49.16 1.37 0 2.2l-.08.34c-.02.11-.08.2-.17.27-.09.08-.19.11-.31.11h-5.31a.63.63 0 0 1-.03.13c-.05.38-.05.72.02 1.03.06.31.21.57.42.76s.51.29.87.29c.3 0 .56-.04.79-.13.22-.09.41-.2.55-.31.14-.12.25-.21.33-.29.13-.13.22-.21.29-.23.06-.03.15-.04.27-.04h1.39c.1 0 .17.03.22.1.05.06.07.14.05.24-.05.17-.19.38-.4.62-.21.24-.5.48-.86.72s-.79.43-1.29.58-1.04.23-1.64.23Zm-.69-5.03h3.54l.02-.05c.1-.42.1-.78.02-1.1s-.23-.56-.46-.74c-.22-.18-.52-.26-.9-.26s-.71.09-1.02.26c-.3.18-.56.42-.76.74-.2.31-.35.68-.43 1.1l-.02.05ZM227.19 618.56c-.64 0-1.17-.07-1.59-.22-.42-.15-.75-.34-.99-.56-.24-.22-.41-.45-.5-.67-.09-.22-.13-.41-.1-.56.02-.12.08-.21.17-.28a.45.45 0 0 1 .28-.11h1.26s.08 0 .11.02c.03 0 .06.04.1.1l.37.37c.13.13.29.24.49.33.2.09.46.14.78.14.42 0 .78-.08 1.1-.25.31-.17.5-.4.57-.71.04-.22.02-.4-.08-.54s-.29-.27-.59-.38c-.3-.11-.74-.23-1.33-.36-.58-.14-1.04-.31-1.38-.53-.35-.21-.58-.48-.7-.8-.12-.32-.14-.69-.04-1.12.09-.42.29-.81.62-1.19.33-.38.77-.69 1.32-.94s1.19-.37 1.93-.37c.58 0 1.06.07 1.46.22.4.14.72.32.96.54.24.21.41.43.5.65s.13.41.1.57c-.01.12-.06.21-.15.28a.45.45 0 0 1-.28.11h-1.17c-.05 0-.1-.01-.14-.03s-.07-.05-.1-.08c-.11-.11-.22-.22-.33-.34-.11-.12-.26-.23-.43-.31-.18-.08-.42-.13-.74-.13-.41 0-.73.09-.98.26s-.41.4-.47.66c-.03.18-.01.34.06.47s.25.26.54.38.73.24 1.31.37c.69.13 1.22.32 1.59.57.37.25.61.54.72.86.11.33.12.69.04 1.08-.1.48-.33.91-.7 1.29-.37.38-.85.69-1.45.9-.6.22-1.3.33-2.11.33ZM236.1 618.56c-.81 0-1.49-.15-2.02-.45-.54-.3-.92-.72-1.15-1.26-.23-.54-.29-1.18-.17-1.9.03-.19.08-.43.14-.71s.12-.51.17-.7c.19-.74.49-1.37.89-1.91.4-.54.91-.96 1.54-1.26s1.36-.45 2.22-.45 1.48.15 2.02.45.93.72 1.16 1.26.29 1.18.18 1.91c-.04.19-.09.43-.14.7-.05.28-.11.51-.16.71-.19.72-.48 1.36-.87 1.9-.39.54-.9.96-1.52 1.26-.62.3-1.38.45-2.26.45Zm.16-1.58c.58 0 1.06-.18 1.46-.54s.69-.88.87-1.58c.04-.16.09-.37.14-.62.05-.26.1-.46.13-.62.12-.69.07-1.22-.14-1.58s-.61-.54-1.18-.54-1.05.18-1.46.54c-.4.36-.69.88-.86 1.58-.04.16-.09.37-.15.62s-.1.46-.12.62c-.12.69-.07 1.22.13 1.58.21.36.6.54 1.18.54ZM242.96 618.4c-.12 0-.21-.04-.26-.11s-.08-.17-.06-.27l1.33-6.24h-1.3a.31.31 0 0 1-.25-.11c-.06-.07-.08-.17-.06-.29l.19-.91c.02-.11.08-.2.17-.27.09-.07.19-.11.31-.11h1.29l.13-.65c.15-.64.38-1.17.69-1.59.31-.42.7-.74 1.18-.95.48-.21 1.04-.32 1.68-.32h1.28c.12 0 .2.04.26.11.05.07.07.16.05.27l-.19.91c-.02.12-.08.21-.17.29s-.19.11-.3.11h-.96c-.43 0-.76.11-.99.32-.23.21-.39.52-.46.93l-.13.58h1.98c.12 0 .2.04.26.11.05.07.07.16.05.27l-.19.91c-.02.12-.07.21-.16.29-.08.08-.19.11-.3.11h-1.98l-1.34 6.24a.47.47 0 0 1-.16.27c-.09.07-.18.11-.29.11h-1.29ZM252.11 618.4c-.73 0-1.29-.11-1.7-.34-.4-.22-.67-.56-.78-1-.12-.44-.11-.99.03-1.66l.79-3.63h-1.26a.31.31 0 0 1-.25-.11c-.06-.07-.08-.17-.06-.29l.19-.91c.02-.11.08-.2.17-.27.09-.07.2-.11.31-.11h1.25l.58-2.65c.02-.11.07-.2.16-.27.08-.07.18-.11.29-.11h1.3c.12 0 .21.04.26.11.06.08.08.17.06.27l-.58 2.65h2c.11 0 .19.04.25.11s.08.16.06.27l-.19.91c-.02.12-.08.21-.17.29a.43.43 0 0 1-.3.11h-2l-.74 3.47c-.06.29-.1.54-.1.74 0 .21.05.37.17.48s.33.17.62.17h1.15c.12 0 .2.04.26.11.05.08.07.17.05.27l-.21.99a.47.47 0 0 1-.46.38h-1.14ZM257.27 618.4c-.15 0-.26-.04-.32-.11a.507.507 0 0 1-.11-.29l-.72-7.49c-.01-.12.02-.22.1-.3s.18-.13.32-.13h1.12c.13 0 .22.03.28.09.06.06.09.13.1.22l.46 5.3 2.75-5.25c.04-.08.11-.15.19-.23.09-.08.2-.12.34-.12h.83c.15 0 .25.04.3.12.05.08.09.16.1.23l.58 5.25 2.69-5.3c.03-.06.09-.13.16-.2s.18-.11.3-.11h1.3c.15 0 .24.05.26.14s.01.2-.04.32L264.4 618c-.06.12-.14.21-.23.29s-.21.11-.36.11h-1.06c-.15 0-.26-.04-.33-.11s-.12-.17-.14-.29l-.66-5.05-2.72 5.05c-.06.12-.14.21-.24.29s-.22.11-.37.11h-1.04ZM271.09 618.56c-.55 0-1.02-.09-1.41-.28-.38-.19-.69-.45-.9-.79-.22-.34-.36-.74-.42-1.21-.06-.46-.05-.97.03-1.53.04-.19.08-.37.11-.52.03-.15.07-.33.11-.52.14-.53.32-1.03.55-1.49.23-.46.51-.86.85-1.21.34-.35.73-.62 1.18-.81.45-.19.97-.29 1.56-.29.66 0 1.17.11 1.51.31.35.21.62.46.81.76l.11-.53c.02-.11.08-.2.16-.27s.18-.11.29-.11h1.26c.11 0 .19.04.26.11.06.07.09.16.06.27l-1.62 7.55a.47.47 0 0 1-.16.27c-.09.07-.18.11-.29.11h-1.26c-.12 0-.21-.04-.26-.11s-.08-.17-.06-.27l.13-.59c-.32.33-.67.6-1.06.81-.38.21-.9.32-1.55.32Zm.72-1.71c.45 0 .83-.1 1.15-.3s.58-.46.78-.78.34-.64.42-.97c.05-.19.1-.4.14-.62s.08-.42.11-.62c.06-.32.07-.63.02-.92s-.19-.54-.41-.73c-.22-.19-.55-.29-.98-.29s-.77.1-1.06.3-.54.46-.73.78-.35.67-.46 1.06c-.04.16-.08.32-.11.48s-.06.32-.08.48c-.05.38-.07.74-.04 1.06.03.32.14.58.34.78s.5.3.92.3ZM278.05 618.4a.31.31 0 0 1-.25-.11c-.06-.07-.08-.17-.06-.27l1.6-7.54a.482.482 0 0 1 .47-.4h1.29c.11 0 .19.04.25.11s.08.17.06.29l-.14.66c.26-.34.58-.6.98-.78s.88-.27 1.44-.27h.78c.12 0 .2.04.26.11.05.07.07.16.05.27l-.24 1.15c-.02.11-.08.2-.17.27-.09.07-.19.11-.29.11h-1.25c-.51 0-.94.14-1.29.43-.35.28-.57.68-.68 1.19l-.94 4.4c-.02.11-.07.2-.16.27s-.19.11-.3.11h-1.39ZM288.05 618.56c-.78 0-1.43-.15-1.95-.46-.52-.31-.87-.76-1.07-1.35-.2-.59-.23-1.29-.09-2.13.02-.11.05-.24.08-.41.03-.17.06-.3.1-.39.21-.81.54-1.51.99-2.09.45-.58.99-1.03 1.64-1.34s1.36-.47 2.14-.47c.86 0 1.55.18 2.06.54s.84.85 1.01 1.49.16 1.37 0 2.2l-.08.34c-.02.11-.08.2-.17.27-.09.08-.19.11-.31.11h-5.31a.63.63 0 0 1-.03.13c-.05.38-.05.72.02 1.03.06.31.21.57.42.76s.51.29.87.29c.3 0 .56-.04.79-.13.22-.09.41-.2.55-.31.14-.12.25-.21.33-.29.13-.13.22-.21.29-.23.06-.03.15-.04.27-.04h1.39c.1 0 .17.03.22.1.05.06.07.14.05.24-.05.17-.19.38-.4.62-.21.24-.5.48-.86.72s-.79.43-1.29.58-1.04.23-1.64.23Zm-.69-5.03h3.54l.02-.05c.1-.42.1-.78.02-1.1s-.23-.56-.46-.74c-.22-.18-.52-.26-.9-.26s-.71.09-1.02.26c-.3.18-.56.42-.76.74-.2.31-.35.68-.43 1.1l-.02.05ZM1125.56 618.56c-.89 0-1.63-.15-2.22-.44s-1.05-.71-1.37-1.26c-.32-.54-.49-1.18-.52-1.9-.01-.21-.02-.46-.02-.73s0-.51.02-.71c.03-.74.21-1.37.54-1.91s.79-.96 1.39-1.25c.6-.29 1.32-.44 2.18-.44s1.56.15 2.16.44c.6.29 1.06.71 1.39 1.25s.52 1.18.56 1.91c.01.2.02.44.02.71s0 .52-.02.73c-.04.72-.22 1.36-.54 1.9-.32.54-.77.96-1.37 1.26s-1.33.44-2.21.44Zm0-1.77c.52 0 .91-.16 1.18-.48s.41-.79.44-1.42c.01-.16.02-.37.02-.64s0-.48-.02-.64c-.03-.62-.18-1.09-.44-1.42-.26-.33-.65-.49-1.18-.49s-.92.16-1.18.49c-.27.32-.42.8-.45 1.42 0 .16-.02.37-.02.64s0 .48.02.64c.03.63.18 1.1.45 1.42s.66.48 1.18.48ZM1134.64 618.56c-.66 0-1.23-.08-1.7-.23s-.86-.34-1.15-.57c-.29-.22-.51-.45-.66-.68-.14-.23-.22-.42-.23-.58-.01-.12.03-.21.11-.29.09-.07.17-.11.26-.11h1.55s.08 0 .1.02c.03 0 .06.04.1.08.14.1.28.21.42.33.14.12.32.23.52.31.2.09.45.13.74.13.35 0 .65-.07.89-.22a.68.68 0 0 0 .36-.62c0-.19-.05-.35-.16-.48s-.31-.24-.62-.35c-.31-.11-.77-.22-1.38-.35-.58-.13-1.07-.3-1.47-.51-.41-.21-.71-.48-.91-.81s-.3-.72-.3-1.18c0-.42.13-.82.39-1.2s.65-.7 1.16-.95 1.15-.38 1.92-.38c.59 0 1.1.07 1.54.22.44.14.81.33 1.11.54s.53.44.68.67c.15.23.24.43.25.6.01.12-.02.21-.1.29-.07.08-.16.11-.26.11h-1.42c-.05 0-.1-.01-.14-.03s-.08-.05-.11-.08c-.13-.07-.26-.17-.39-.29s-.29-.22-.47-.3c-.18-.08-.42-.13-.7-.13-.34 0-.61.08-.79.23a.724.724 0 0 0-.14 1c.1.13.29.25.58.35.29.11.75.22 1.37.34.73.13 1.3.32 1.73.58s.73.55.91.89.27.7.27 1.08c0 .5-.15.95-.44 1.34-.29.39-.73.69-1.3.91-.58.22-1.28.33-2.11.33ZM1143.33 618.56c-.66 0-1.23-.08-1.7-.23s-.86-.34-1.15-.57c-.29-.22-.51-.45-.66-.68-.14-.23-.22-.42-.23-.58-.01-.12.03-.21.11-.29.09-.07.17-.11.26-.11h1.55s.08 0 .1.02c.03 0 .06.04.1.08.14.1.28.21.42.33.14.12.32.23.52.31.2.09.45.13.74.13.35 0 .65-.07.89-.22a.68.68 0 0 0 .36-.62c0-.19-.05-.35-.16-.48s-.31-.24-.62-.35c-.31-.11-.77-.22-1.38-.35-.58-.13-1.07-.3-1.47-.51-.41-.21-.71-.48-.91-.81s-.3-.72-.3-1.18c0-.42.13-.82.39-1.2s.65-.7 1.16-.95 1.15-.38 1.92-.38c.59 0 1.1.07 1.54.22.44.14.81.33 1.11.54s.53.44.68.67c.15.23.24.43.25.6.01.12-.02.21-.1.29-.07.08-.16.11-.26.11h-1.42c-.05 0-.1-.01-.14-.03s-.08-.05-.11-.08c-.13-.07-.26-.17-.39-.29s-.29-.22-.47-.3c-.18-.08-.42-.13-.7-.13-.34 0-.61.08-.79.23a.724.724 0 0 0-.14 1c.1.13.29.25.58.35.29.11.75.22 1.37.34.73.13 1.3.32 1.73.58s.73.55.91.89.27.7.27 1.08c0 .5-.15.95-.44 1.34-.29.39-.73.69-1.3.91-.58.22-1.28.33-2.11.33ZM1149.04 618.4c-.12 0-.21-.04-.29-.11a.4.4 0 0 1-.11-.29v-1.81c0-.11.04-.2.11-.28.08-.08.17-.12.29-.12h1.81c.11 0 .2.04.28.12s.12.17.12.28V618c0 .12-.04.21-.12.29s-.17.11-.28.11h-1.81ZM1153.56 618.4c-.12 0-.21-.04-.29-.11s-.11-.17-.11-.29v-10.56c0-.12.04-.21.11-.29a.4.4 0 0 1 .29-.11h1.6c.12 0 .21.04.29.11.08.08.11.17.11.29V618c0 .12-.04.21-.11.29a.4.4 0 0 1-.29.11h-1.6ZM1161.38 618.56c-.88 0-1.63-.15-2.22-.44-.6-.29-1.05-.71-1.37-1.26-.31-.54-.49-1.18-.52-1.9-.01-.21-.02-.46-.02-.73s0-.51.02-.71c.03-.74.21-1.37.54-1.91s.79-.96 1.39-1.25 1.32-.44 2.18-.44 1.56.15 2.16.44 1.06.71 1.39 1.25c.33.54.52 1.18.56 1.91 0 .2.02.44.02.71s0 .52-.02.73c-.04.72-.22 1.36-.54 1.9-.31.54-.77.96-1.37 1.26-.6.29-1.33.44-2.21.44Zm0-1.77c.52 0 .92-.16 1.18-.48.26-.32.41-.79.44-1.42 0-.16.02-.37.02-.64s0-.48-.02-.64c-.03-.62-.18-1.09-.44-1.42-.26-.33-.65-.49-1.18-.49s-.92.16-1.18.49c-.27.32-.42.8-.45 1.42-.01.16-.02.37-.02.64s0 .48.02.64c.03.63.18 1.1.45 1.42s.66.48 1.18.48ZM1169.81 618.4c-.16 0-.28-.04-.36-.12a.95.95 0 0 1-.2-.28l-3.01-7.42s-.03-.09-.03-.14c0-.1.03-.18.1-.25a.34.34 0 0 1 .25-.11h1.55c.14 0 .24.04.31.11s.12.14.14.21l1.97 5.26 1.97-5.26c.03-.06.08-.13.14-.21.06-.07.16-.11.3-.11h1.55c.1 0 .18.04.25.11s.1.15.1.25c0 .05 0 .1-.02.14l-3.01 7.42c-.04.11-.11.2-.19.28s-.21.12-.38.12h-1.44ZM1179.6 618.56c-1.23 0-2.2-.34-2.92-1.02-.72-.68-1.1-1.67-1.14-2.98v-.67c.04-.83.23-1.54.56-2.14.33-.59.79-1.04 1.39-1.36.6-.31 1.29-.47 2.1-.47.91 0 1.66.19 2.26.55.6.37 1.05.87 1.35 1.5.3.63.46 1.36.46 2.18v.37c0 .11-.04.2-.11.28a.37.37 0 0 1-.29.12h-5.22v.11c.01.34.08.65.19.94.12.28.29.51.52.68.23.17.51.26.84.26.26 0 .47-.04.64-.12.17-.08.31-.17.42-.27.11-.1.19-.19.25-.26.1-.12.17-.19.23-.22s.15-.04.26-.04h1.7c.1 0 .18.03.25.1.07.06.1.14.09.24-.01.18-.1.4-.26.65-.17.25-.41.5-.73.74s-.72.44-1.19.6-1.02.24-1.64.24Zm-1.56-5.1h3.12v-.05c0-.37-.06-.7-.18-.98s-.3-.51-.54-.66c-.23-.16-.52-.24-.85-.24s-.61.08-.84.24c-.23.16-.41.38-.53.66-.12.28-.18.61-.18.98v.05Z"/><path fill="#b7303d" stroke="#1c2126" stroke-linejoin="round" stroke-width=".33" d="m1104.46 614.96-5.57-3.22-5.58 3.22 11.15 6.43 11.16-6.43-5.58-3.22-5.58 3.22z"/><path fill="#ea4f4b" stroke="#1c2126" stroke-linejoin="round" stroke-width=".33" d="M1098.89 605.3v6.44l-5.58 3.22v-6.44l5.58-3.22z"/><path fill="#ff6b60" stroke="#1c2126" stroke-linejoin="round" stroke-width=".33" d="M1098.89 605.3v6.44l5.57 3.22v-6.44l-5.57-3.22z"/><path fill="#ea4f4b" stroke="#1c2126" stroke-linejoin="round" stroke-width=".33" d="M1110.04 605.3v6.44l-5.58 3.22v-6.44l5.58-3.22z"/><path fill="#ff6b60" stroke="#1c2126" stroke-linejoin="round" stroke-width=".33" d="M1110.04 605.3v6.44l5.57 3.22.01-6.44-5.58-3.22z"/></g></svg>