<svg xmlns="http://www.w3.org/2000/svg" xmlns:xlink="http://www.w3.org/1999/xlink" width="1200" height="630" viewBox="0 0 1200 630"><defs><radialGradient id="a" cx="1097.44" cy="565" r="111.35" gradientUnits="userSpaceOnUse"><stop offset="0" stop-color="#20c6b7"/><stop offset="1" stop-color="#4d9abf"/></radialGradient></defs><rect x="-3730.07" y="-821.85" width="6221.73" height="2273.11" fill="#a6a6a6"/><rect width="1200" height="498.72" fill="#ffb916"/><path d="M602.23,330.36c-22.38,0-29.57-7.1-29.57-29.07V283c0-12.88-6.52-18.91-25.19-17.67V245.62c18.67,1.24,25.19-4.79,25.19-17.76V209.53c0-22,7.19-29.08,29.57-29.08h12.48v15.36h-8.35c-12,0-14.37,2.81-14.37,16.69v22.71c0,11.32-8.34,18.83-24,19.5v1.48c15.61.66,24,8.1,24,19.49v22.63c0,13.88,2.4,16.69,14.37,16.69h8.35v15.36Z" fill="#1c2126"/><path d="M1070.33,315h8.35c12,0,14.37-2.81,14.37-16.69V275.68c0-11.39,8.34-18.83,24-19.49v-1.48c-15.61-.67-24-8.18-24-19.5V212.5c0-13.88-2.4-16.69-14.37-16.69h-8.35V180.45h12.48c22.38,0,29.57,7.1,29.57,29.08v18.33c0,13,6.52,19,25.19,17.76v19.66c-18.67-1.24-25.19,4.79-25.19,17.67v18.34c0,22-7.19,29.07-29.57,29.07h-12.48Z" fill="#1c2126"/><path d="M67.66,157.26,79.23,84.45h22.3L90,157.26Z" fill="#1c2126"/><path d="M161.64,158.5q-10,0-16.63-3.87A21.94,21.94,0,0,1,135.56,144a27.4,27.4,0,0,1-1.5-15.18,30,30,0,0,1,5.84-14.15,27.63,27.63,0,0,1,11.51-8.52,41.94,41.94,0,0,1,15.81-2.84,39.35,39.35,0,0,1,9.6,1.24,20.89,20.89,0,0,1,7.85,3.51l-6.09,14.46a15.1,15.1,0,0,0-5-2.27,22.35,22.35,0,0,0-5.84-.83,12.49,12.49,0,0,0-7.59,2.38q-3.25,2.37-4.18,8a12.11,12.11,0,0,0,1.55,8.78c1.58,2.48,4.27,3.72,8.05,3.72a17.12,17.12,0,0,0,5.17-.93A26.45,26.45,0,0,0,176.2,139l5.17,14.25A23.56,23.56,0,0,1,173.1,157,42.43,42.43,0,0,1,161.64,158.5Z" fill="#1c2126"/><path d="M213.59,158.5q-9.83,0-16.32-3.67A20.52,20.52,0,0,1,188,144.51q-2.75-6.66-1.3-15.65a30.31,30.31,0,0,1,5.79-14.15,27.49,27.49,0,0,1,11.26-8.52,38.83,38.83,0,0,1,15.07-2.84q9.92,0,16.32,3.67a20.46,20.46,0,0,1,9.09,10.27q2.69,6.61,1.24,15.7a30.64,30.64,0,0,1-5.73,14.15,27.15,27.15,0,0,1-11.1,8.52A38.46,38.46,0,0,1,213.59,158.5Zm1.13-15.8a8,8,0,0,0,6-2.53c1.62-1.69,2.74-4.42,3.36-8.21q1.14-7.23-.83-10a6.5,6.5,0,0,0-5.67-2.79,8.13,8.13,0,0,0-6.05,2.48c-1.62,1.65-2.73,4.41-3.35,8.26q-1.14,7.23.77,10A6.47,6.47,0,0,0,214.72,142.7Z" fill="#1c2126"/><path d="M269.87,158.5q-10.22,0-14.56-6t-2.69-16.89l5-31h21.48l-4.95,31.19q-.53,3.21.72,4.8a4.9,4.9,0,0,0,4.13,1.6,6.66,6.66,0,0,0,5.37-2.32,12.36,12.36,0,0,0,2.58-6.15l4.65-29.12H313l-8.36,52.67h-21l1.34-8.67h1.66a24.08,24.08,0,0,1-7.18,7.33A17.69,17.69,0,0,1,269.87,158.5Z" fill="#1c2126"/><path d="M314.59,157.26l12.08-76h21.49l-12.09,76Z" fill="#1c2126"/><path d="M368.6,158.5a19.8,19.8,0,0,1-12.29-3.82,20.86,20.86,0,0,1-7.23-10.53,32.88,32.88,0,0,1-.82-15.29,34.86,34.86,0,0,1,5.16-14.25,24.31,24.31,0,0,1,9.5-8.47,27.75,27.75,0,0,1,12.4-2.79,20.09,20.09,0,0,1,10.17,2.53c2.93,1.69,4.66,3.87,5.22,6.56h-1.24l4.95-31.19h21.49l-12.09,76H382.65l1.34-8.47h1.65a17.13,17.13,0,0,1-6.55,7A19.72,19.72,0,0,1,368.6,158.5Zm8.06-15.8a8.64,8.64,0,0,0,6.3-2.53c1.72-1.69,2.89-4.42,3.51-8.21q1.14-7.23-.93-10a7,7,0,0,0-6-2.79,8.72,8.72,0,0,0-6.35,2.48c-1.69,1.65-2.84,4.41-3.46,8.26q-1.14,7.23.93,10A7,7,0,0,0,376.66,142.7Z" fill="#1c2126"/><path d="M413.74,157.26l6-37.69q.51-3.72.93-7.49t.62-7.49h20.65l-.21,8.37-1.13.1a20,20,0,0,1,7.9-7.28A22.86,22.86,0,0,1,459,103.35q9.19,0,13.32,5.78t2.17,18.08l-4.75,30.05H448.23L453,127q.61-3.91-.72-5.63a4.5,4.5,0,0,0-3.72-1.7,7.84,7.84,0,0,0-5.78,2.27,10.65,10.65,0,0,0-2.89,6l-4.65,29.33Z" fill="#1c2126"/><path d="M492.74,123.08l-6.81-7.34a41.19,41.19,0,0,0,6.92-7.12,21.65,21.65,0,0,0,3.3-8.06l3.72,5.27H484.79l3.41-21.38H510l-2.37,14.87a39.28,39.28,0,0,1-2.33,8.73,29.55,29.55,0,0,1-4.54,7.59A46.37,46.37,0,0,1,492.74,123.08Z" fill="#1c2126"/><path d="M537.46,158.5q-12.29,0-17.4-6t-3.46-16.68l2.48-15.49h-9.71l2.48-15.7h9.71l1.85-11.88,22.31-4.95L543,104.59h12.18l-2.47,15.7H540.56l-2.38,14.87c-.41,2.55,0,4.23,1.35,5.06a8.27,8.27,0,0,0,4.54,1.24,14.88,14.88,0,0,0,2.74-.21,22.67,22.67,0,0,0,2.73-.72L547,156.85a20.54,20.54,0,0,1-5,1.34A35,35,0,0,1,537.46,158.5Z" fill="#1c2126"/><path d="M71.58,287.26l5.89-37H67.76l2.48-15.7H86l-7,5.58,1.14-6.72q1.75-11.35,8.83-17t20.19-5.62a35.63,35.63,0,0,1,5.42.41,26.6,26.6,0,0,1,4.9,1.24l-2.58,16.21a15.51,15.51,0,0,0-2.79-.72,20.1,20.1,0,0,0-3.09-.21,17.76,17.76,0,0,0-3.77.47,9.28,9.28,0,0,0-3.83,1.81,5.94,5.94,0,0,0-2.11,3.92l-.62,3.72-2.38-3.1h15.08l-2.48,15.7H99l-5.88,37Z" fill="#1c2126"/><path d="M130.76,288.5q-10.23,0-14.56-6t-2.69-16.89l5-31H140L135,265.78q-.52,3.21.72,4.8c.82,1.07,2.2,1.6,4.13,1.6a6.66,6.66,0,0,0,5.37-2.32,12.36,12.36,0,0,0,2.58-6.15l4.65-29.12h21.48l-8.36,52.67h-21l1.34-8.67h1.65a23.94,23.94,0,0,1-7.17,7.33A17.69,17.69,0,0,1,130.76,288.5Z" fill="#1c2126"/><path d="M175.48,287.26l6-37.69q.51-3.72.93-7.49t.62-7.49h20.65l-.2,8.37-1.14.1a20,20,0,0,1,7.9-7.28,22.89,22.89,0,0,1,10.48-2.43q9.19,0,13.33,5.78t2.17,18.08l-4.75,30.05H210L214.72,257q.63-3.92-.72-5.63a4.47,4.47,0,0,0-3.72-1.7,7.84,7.84,0,0,0-5.78,2.27,10.65,10.65,0,0,0-2.89,6L197,287.26Z" fill="#1c2126"/><path d="M271,288.5q-10,0-16.63-3.87A22,22,0,0,1,244.93,274a27.4,27.4,0,0,1-1.5-15.18,30,30,0,0,1,5.84-14.15,27.66,27.66,0,0,1,11.52-8.52,41.85,41.85,0,0,1,15.8-2.84,39.29,39.29,0,0,1,9.6,1.24A20.89,20.89,0,0,1,294,238.1L288,252.56a15.1,15.1,0,0,0-5-2.27,22.35,22.35,0,0,0-5.84-.83,12.49,12.49,0,0,0-7.59,2.38q-3.25,2.37-4.18,8a12.11,12.11,0,0,0,1.55,8.78c1.58,2.48,4.27,3.72,8.05,3.72a17.12,17.12,0,0,0,5.17-.93,26.22,26.22,0,0,0,5.47-2.48l5.17,14.25a23.56,23.56,0,0,1-8.27,3.77A42.43,42.43,0,0,1,271,288.5Z" fill="#1c2126"/><path d="M324.51,288.5q-12.3,0-17.41-6t-3.46-16.68l2.48-15.49h-9.71l2.48-15.7h9.71l1.86-11.88,22.31-5-2.69,16.83h12.19l-2.48,15.7H327.6l-2.37,14.87c-.41,2.55,0,4.23,1.34,5.06a8.3,8.3,0,0,0,4.55,1.24,14.69,14.69,0,0,0,2.73-.21,22.28,22.28,0,0,0,2.74-.72L334,286.85a20.54,20.54,0,0,1-5,1.34A35.08,35.08,0,0,1,324.51,288.5Z" fill="#1c2126"/><path d="M340.1,287.26l8.36-52.67H370l-8.37,52.67Zm9-58.66,3-18.8h22.1l-3,18.8Z" fill="#1c2126"/><path d="M400.72,288.5q-9.81,0-16.32-3.67a20.56,20.56,0,0,1-9.24-10.32q-2.75-6.66-1.29-15.65a30.2,30.2,0,0,1,5.78-14.15,27.56,27.56,0,0,1,11.26-8.52A38.88,38.88,0,0,1,406,233.35q9.92,0,16.32,3.67a20.5,20.5,0,0,1,9.09,10.27q2.67,6.61,1.23,15.7a30.43,30.43,0,0,1-5.73,14.15,27,27,0,0,1-11.1,8.52A38.42,38.42,0,0,1,400.72,288.5Zm1.14-15.8a8,8,0,0,0,6-2.53c1.62-1.69,2.74-4.42,3.36-8.21q1.13-7.23-.83-10a6.51,6.51,0,0,0-5.68-2.79,8.12,8.12,0,0,0-6,2.48c-1.62,1.65-2.74,4.41-3.36,8.26q-1.14,7.23.78,10A6.47,6.47,0,0,0,401.86,272.7Z" fill="#1c2126"/><path d="M436.66,287.26l6-37.69q.53-3.72.93-7.49c.28-2.51.48-5,.62-7.49h20.66l-.21,8.37-1.14.1a20,20,0,0,1,7.91-7.28,22.86,22.86,0,0,1,10.48-2.43q9.19,0,13.32,5.78t2.17,18.08l-4.75,30.05H471.16L475.91,257q.61-3.92-.73-5.63a4.47,4.47,0,0,0-3.71-1.7,7.86,7.86,0,0,0-5.79,2.27,10.72,10.72,0,0,0-2.89,6l-4.65,29.33Z" fill="#1c2126"/><path d="M82.12,417.26,68,364.59h21l7.13,31.09H93.48l16.73-31.09h13L130,395.68h-2l16.73-31.09H166L135.2,417.26H117.54L109.28,385h8L99.78,417.26Z" fill="#1c2126"/><path d="M160.5,417.26l8.37-52.67h21.48L182,417.26Zm9-58.66,3-18.8h22.1l-3,18.8Z" fill="#1c2126"/><path d="M221.13,418.5q-12.3,0-17.41-6t-3.46-16.68l2.48-15.49H193l2.47-15.7h9.71l1.86-11.88,22.31-4.95-2.69,16.83h12.19l-2.48,15.7H224.23l-2.38,14.87c-.41,2.55,0,4.23,1.34,5.06a8.3,8.3,0,0,0,4.55,1.24,14.69,14.69,0,0,0,2.73-.21,22.28,22.28,0,0,0,2.74-.72l-2.58,16.32a20.54,20.54,0,0,1-5,1.34A35.08,35.08,0,0,1,221.13,418.5Z" fill="#1c2126"/><path d="M236.72,417.26l12.08-76h21.49l-5.06,31.81h-1.66a20,20,0,0,1,7.9-7.28A22.9,22.9,0,0,1,282,363.35q9.18,0,13.32,5.78t2.17,18.08l-4.75,30.05H271.22L276,387c.41-2.61.19-4.49-.68-5.63a4.43,4.43,0,0,0-3.76-1.7,7.8,7.8,0,0,0-5.84,2.27,10.87,10.87,0,0,0-2.84,6l-4.65,29.33Z" fill="#1c2126"/><path d="M331.53,418.5q-9.81,0-16.32-3.67A20.52,20.52,0,0,1,306,404.51q-2.75-6.66-1.29-15.65a30.2,30.2,0,0,1,5.78-14.15,27.49,27.49,0,0,1,11.26-8.52,38.88,38.88,0,0,1,15.08-2.84q9.92,0,16.31,3.67a20.46,20.46,0,0,1,9.09,10.27q2.69,6.61,1.24,15.7a30.43,30.43,0,0,1-5.73,14.15,27.15,27.15,0,0,1-11.1,8.52A38.42,38.42,0,0,1,331.53,418.5Zm1.14-15.8a8,8,0,0,0,6-2.53c1.61-1.69,2.73-4.42,3.35-8.21q1.14-7.23-.82-10a6.51,6.51,0,0,0-5.68-2.79,8.11,8.11,0,0,0-6,2.48c-1.62,1.65-2.74,4.41-3.36,8.26q-1.14,7.23.77,10A6.5,6.5,0,0,0,332.67,402.7Z" fill="#1c2126"/><path d="M387.82,418.5q-10.23,0-14.57-6t-2.68-16.89l5-31H397l-5,31.19c-.35,2.14-.1,3.74.72,4.8a4.91,4.91,0,0,0,4.13,1.6,6.63,6.63,0,0,0,5.37-2.32,12.46,12.46,0,0,0,2.59-6.15l4.64-29.12H431l-8.37,52.67h-21l1.35-8.67h1.65a24.08,24.08,0,0,1-7.18,7.33A17.68,17.68,0,0,1,387.82,418.5Z" fill="#1c2126"/><path d="M461.76,418.5q-12.28,0-17.4-6t-3.46-16.68l2.48-15.49h-9.71l2.48-15.7h9.71l1.85-11.88L470,347.76l-2.68,16.83h12.18l-2.47,15.7H464.86l-2.38,14.87c-.41,2.55,0,4.23,1.35,5.06a8.27,8.27,0,0,0,4.54,1.24,14.88,14.88,0,0,0,2.74-.21,22.67,22.67,0,0,0,2.73-.72l-2.58,16.32a20.54,20.54,0,0,1-5,1.34A35,35,0,0,1,461.76,418.5Z" fill="#1c2126"/><path d="M505.24,440.71,502,424.18c3.44-.55,6.33-1.14,8.67-1.75a18.44,18.44,0,0,0,5.94-2.64,14.17,14.17,0,0,0,4.08-4.49l3.51-5.89-1,7.85-14.56-52.67h21.79l6.81,31.5h-3.71l17.55-31.5h21.79l-31.8,52.88A61.75,61.75,0,0,1,533,428.42a37.28,37.28,0,0,1-8.37,6.66,36.13,36.13,0,0,1-9,3.61Q510.81,439.88,505.24,440.71Z" fill="#1c2126"/><path d="M594.26,418.5q-9.81,0-16.31-3.67a20.58,20.58,0,0,1-9.25-10.32q-2.73-6.66-1.29-15.65a30.2,30.2,0,0,1,5.78-14.15,27.56,27.56,0,0,1,11.26-8.52,38.92,38.92,0,0,1,15.08-2.84q9.91,0,16.32,3.67a20.5,20.5,0,0,1,9.09,10.27q2.68,6.61,1.24,15.7a30.54,30.54,0,0,1-5.74,14.15,27,27,0,0,1-11.1,8.52A38.39,38.39,0,0,1,594.26,418.5Zm1.14-15.8a8,8,0,0,0,6-2.53c1.62-1.69,2.74-4.42,3.36-8.21q1.13-7.23-.83-10a6.51,6.51,0,0,0-5.68-2.79,8.12,8.12,0,0,0-6,2.48c-1.62,1.65-2.74,4.41-3.36,8.26q-1.14,7.23.78,10A6.47,6.47,0,0,0,595.4,402.7Z" fill="#1c2126"/><path d="M650.55,418.5q-10.23,0-14.56-6t-2.69-16.89l5-31h21.48l-5,31.19q-.51,3.21.73,4.8c.82,1.07,2.2,1.6,4.13,1.6a6.66,6.66,0,0,0,5.37-2.32,12.45,12.45,0,0,0,2.58-6.15l4.65-29.12h21.48l-8.37,52.67h-21l1.34-8.67h1.65a24,24,0,0,1-7.17,7.33A17.72,17.72,0,0,1,650.55,418.5Z" fill="#1c2126"/><path d="M768.43,249c-1.53-3.48-4.33-6.24-7.23-8.72-5.08-4.34-11.14-8.26-17.82-8.17-7,.1-13.21,4.61-17.91,9.8a57,57,0,0,0-10.07,15.76c-3.92-7.84-9.56-15-17.1-19.48s-17.36-6-25.53-2.48-14.13,12.29-13,21.09c1,8.44,7.73,14.91,14,20.6q23.67,21.35,48,41.92l35.67-40.24C765,270.6,773,259.35,768.43,249Z" fill="#1c2126" stroke="#1c2126" stroke-linejoin="round" stroke-width="2" opacity="0.1"/><path d="M905.81,249c-1.54-3.48-4.34-6.24-7.24-8.72-5.08-4.34-11.14-8.26-17.82-8.17-7,.1-13.21,4.61-17.91,9.8a56.93,56.93,0,0,0-10.06,15.76c-3.93-7.84-9.57-15-17.11-19.48s-17.36-6-25.53-2.48S796,248,797.11,256.79c1.06,8.44,7.73,14.91,14,20.6q23.67,21.35,48,41.92l35.67-40.24C902.34,270.6,910.36,259.35,905.81,249Z" fill="#1c2126" stroke="#1c2126" stroke-linejoin="round" stroke-width="2" opacity="0.1"/><path d="M1044.62,249c-1.53-3.48-4.34-6.24-7.23-8.72-5.08-4.34-11.14-8.26-17.82-8.17-7,.1-13.21,4.61-17.92,9.8a57.16,57.16,0,0,0-10.06,15.76c-3.93-7.84-9.56-15-17.1-19.48s-17.37-6-25.53-2.48-14.14,12.29-13,21.09c1.05,8.44,7.73,14.91,14,20.6q23.67,21.35,48,41.92l35.66-40.24C1041.16,270.6,1049.17,259.35,1044.62,249Z" fill="#1c2126" stroke="#1c2126" stroke-linejoin="round" stroke-width="2" opacity="0.1"/><path d="M758.13,233c-1.53-3.49-4.33-6.25-7.23-8.73-5.08-4.34-11.14-8.26-17.82-8.16-7,.09-13.21,4.6-17.91,9.79a57.11,57.11,0,0,0-10.07,15.76c-3.92-7.84-9.56-15-17.1-19.48s-17.36-5.94-25.53-2.48-14.13,12.29-13,21.09c1,8.44,7.73,14.91,14,20.61q23.65,21.35,48,41.91l35.67-40.24C754.67,254.64,762.69,243.38,758.13,233Z" fill="#db4648" stroke="#1c2126" stroke-linejoin="round" stroke-width="2"/><path d="M895.5,233c-1.53-3.49-4.33-6.25-7.23-8.73-5.08-4.34-11.14-8.26-17.82-8.16-7,.09-13.21,4.6-17.91,9.79a57.34,57.34,0,0,0-10.07,15.76c-3.92-7.84-9.56-15-17.1-19.48s-17.36-5.94-25.53-2.48-14.13,12.29-13,21.09c1.06,8.44,7.73,14.91,14.05,20.61q23.67,21.35,48,41.91l35.67-40.24C892,254.64,900.06,243.38,895.5,233Z" fill="#ff6b60" stroke="#1c2126" stroke-linejoin="round" stroke-width="2"/><path d="M1034.32,233c-1.54-3.49-4.34-6.25-7.23-8.73C1022,220,1016,216,1009.26,216.14c-7,.09-13.2,4.6-17.91,9.79a57.08,57.08,0,0,0-10.06,15.76c-3.93-7.84-9.57-15-17.1-19.48s-17.37-5.94-25.54-2.48-14.13,12.29-13,21.09c1.06,8.44,7.74,14.91,14,20.61q23.67,21.35,48,41.91l35.67-40.24C1030.85,254.64,1038.87,243.38,1034.32,233Z" fill="#db4648" stroke="#1c2126" stroke-linejoin="round" stroke-width="2"/><rect y="500" width="1200" height="130" fill="#fff"/><rect x="1097.49" y="500" width="102.51" height="130" fill="url(#a)"/><line y1="499.19" x2="1200" y2="499.19" fill="none" stroke="#1c2126" stroke-miterlimit="10"/><line x1="1097.49" y1="498.72" x2="1097.49" y2="630" fill="none" stroke="#1c2126" stroke-miterlimit="10"/><path d="M35.09,576.62V557.86H28.7v-2.38H44.05v2.38H37.67v18.76Z" fill="#1c2126"/><path d="M54.92,577.06c-4.8,0-7.75-3.46-7.75-9.3v-3.41c0-5.85,2.95-9.31,7.75-9.31s7.75,3.46,7.75,9.31v3.41C62.67,573.6,59.73,577.06,54.92,577.06Zm5.14-9.32v-3.38c0-4.41-1.93-6.87-5.14-6.87s-5.14,2.46-5.14,6.87v3.38c0,4.41,1.93,6.88,5.14,6.88S60.06,572.15,60.06,567.74Z" fill="#1c2126"/><path d="M70.82,562.75a2.65,2.65,0,1,1,2.65,2.71A2.7,2.7,0,0,1,70.82,562.75Zm0,11.25a2.65,2.65,0,1,1,2.65,2.71A2.69,2.69,0,0,1,70.82,574Z" fill="#1c2126"/><path d="M209.27,581.51a14.89,14.89,0,0,1-5.34-.91,11.41,11.41,0,0,1-6.75-6.75,14.91,14.91,0,0,1-.93-5.39,14.58,14.58,0,0,1,1-5.4,11.83,11.83,0,0,1,2.76-4.18,12.58,12.58,0,0,1,4.26-2.72,14.82,14.82,0,0,1,5.43-1,14.26,14.26,0,0,1,4.87.8,11,11,0,0,1,3.8,2.26,9.83,9.83,0,0,1,2.44,3.51,11.69,11.69,0,0,1,.86,4.56,12.33,12.33,0,0,1-.75,4.5,6.89,6.89,0,0,1-2.07,3,4.86,4.86,0,0,1-3.12,1.05,3.48,3.48,0,0,1-2.73-1,3.58,3.58,0,0,1-.78-2.81l.54.15a6.19,6.19,0,0,1-2.18,2.75,5.2,5.2,0,0,1-3,.94,4.69,4.69,0,0,1-3.68-1.45,5.79,5.79,0,0,1-1.3-4,8.75,8.75,0,0,1,.85-3.94,6.69,6.69,0,0,1,2.36-2.7,6.14,6.14,0,0,1,3.42-1,4.45,4.45,0,0,1,2.77.81,3.8,3.8,0,0,1,1.4,2.28H213l.51-2.82h2l-1.38,7.77c0,.26-.08.51-.11.75s0,.46,0,.66a2.16,2.16,0,0,0,.46,1.5,1.81,1.81,0,0,0,1.4.51,2.93,2.93,0,0,0,2.1-.87,5.81,5.81,0,0,0,1.41-2.41,11.59,11.59,0,0,0,.51-3.62,10.11,10.11,0,0,0-.72-3.9,8.21,8.21,0,0,0-2.07-3,9.34,9.34,0,0,0-3.23-1.89,12.51,12.51,0,0,0-4.18-.66,12.93,12.93,0,0,0-4.73.83,10.42,10.42,0,0,0-3.63,2.34,10.18,10.18,0,0,0-2.32,3.64,13.24,13.24,0,0,0-.81,4.74,12.85,12.85,0,0,0,1.35,6.09,9.3,9.3,0,0,0,3.86,3.92,12.09,12.09,0,0,0,5.89,1.36,12.82,12.82,0,0,0,4.53-.76,8.71,8.71,0,0,0,3.36-2.18l1,1.47a9.5,9.5,0,0,1-3.8,2.34A15.33,15.33,0,0,1,209.27,581.51Zm-1.44-8.4a4,4,0,0,0,2.46-.79,5.3,5.3,0,0,0,1.69-2.21,8,8,0,0,0,.62-3.21,3.73,3.73,0,0,0-.75-2.55,3,3,0,0,0-2.37-.84,4.29,4.29,0,0,0-2.48.75,5.1,5.1,0,0,0-1.72,2.07,7,7,0,0,0-.63,3.06,4.12,4.12,0,0,0,.82,2.76A3,3,0,0,0,207.83,573.11Z" fill="#1c2126"/><path d="M227.27,576.62v-2.13h5V557.6h1.32l-5.82,3.63v-2.49l5.19-3.27h1.8v19h4.68v2.13Z" fill="#1c2126"/><path d="M245.27,576.62v-2.13h5V557.6h1.32l-5.82,3.63v-2.49l5.19-3.27h1.8v19h4.68v2.13Z" fill="#1c2126"/><path d="M267.17,576.89a4.37,4.37,0,0,1-3.39-1.27,5.55,5.55,0,0,1-1.17-3.86v-8.31h-2.94v-1.89h2.94v-4.11l2.43-.69v4.8h4.32v1.89H265v8a4.16,4.16,0,0,0,.61,2.57,2.23,2.23,0,0,0,1.85.76,4.52,4.52,0,0,0,1-.1,5.14,5.14,0,0,0,.81-.26v2a4.69,4.69,0,0,1-1,.29A6.46,6.46,0,0,1,267.17,576.89Z" fill="#1c2126"/><path d="M271.91,583.43l-.57-2a12.5,12.5,0,0,0,2.35-.76,4.67,4.67,0,0,0,1.58-1.16,6.51,6.51,0,0,0,1.08-1.8l.78-1.77-.06,1-6.57-15.39h2.64l5.43,13.23h-.78l5.37-13.23h2.55l-7,16.32a11.58,11.58,0,0,1-1.32,2.42,7.58,7.58,0,0,1-1.55,1.59,7,7,0,0,1-1.81,1A13.08,13.08,0,0,1,271.91,583.43Z" fill="#1c2126"/><circle cx="135.29" cy="563.72" r="40" fill="#1c2126"/><path d="M1163.33,555.54h0l0,0a.19.19,0,0,1,0-.15l1.25-7.62,5.84,5.85-6.08,2.58h-.08l0,0A2.57,2.57,0,0,0,1163.33,555.54Zm8.48-.46,6.25,6.25c1.3,1.3,2,1.95,2.19,2.7l.09.33L1165.4,558h0c-.06,0-.12,0-.12-.11s.07-.1.13-.12h0Zm8.27,11.29a11.28,11.28,0,0,1-2,2.3l-7,7.05-9.12-1.9h0c-.09,0-.17,0-.17-.1a2.75,2.75,0,0,0-1.06-1.93s0-.09,0-.14v0l1.71-10.52v0c0-.08,0-.17.1-.17a2.81,2.81,0,0,0,1.87-1.07.1.1,0,0,1,0,0,.22.22,0,0,1,.17,0l15.56,6.58Zm-10.68,11-11.59,11.58,2-12.19h0a.09.09,0,0,1,0-.05s0,0,.09-.07h0a2.88,2.88,0,0,0,1.12-.83.25.25,0,0,1,.15-.1h0l8.16,1.68Zm-14,14-1.31,1.3-14.44-20.87,0,0a.18.18,0,0,1,0-.1s0,0,0-.06v0a2.12,2.12,0,0,0,.12-.2l0-.06h0a.27.27,0,0,1,.08-.1.17.17,0,0,1,.12,0l16,3.3a.18.18,0,0,1,.12.05.09.09,0,0,1,0,.07,2.81,2.81,0,0,0,1.66,1.89s0,.08,0,.13l0,.07C1157.55,578,1155.82,588.53,1155.36,591.38Zm-2.73,2.72a6.1,6.1,0,0,1-2.17,1.67,3.24,3.24,0,0,1-2,0c-.75-.24-1.4-.89-2.7-2.19l-14.5-14.5,3.79-5.88a.2.2,0,0,1,.06-.07.16.16,0,0,1,.15,0A3.93,3.93,0,0,0,1138,573s.09,0,.12,0l0,0,14.51,21.06Zm-22.72-16.42-3.32-3.33,6.57-2.8h0s.09.05.11.1l.21.3,0,0a.09.09,0,0,1,0,.08l-3.63,5.63Zm-4.8-4.8-4.21-4.21c-.71-.71-1.23-1.23-1.59-1.68l12.8,2.65h0c.08,0,.17,0,.17.1s-.1.12-.18.15l0,0Zm-6.54-8a3.54,3.54,0,0,1,.15-.8c.24-.75.89-1.4,2.18-2.7l5.39-5.39q3.72,5.4,7.46,10.78c0,.06.09.13,0,.18a4.35,4.35,0,0,0-.63.85.28.28,0,0,1-.09.1H1133l-14.43-3Zm9.16-10.33,7.24-7.24c.68.3,3.16,1.34,5.38,2.28l3.68,1.56a.17.17,0,0,1,.11.09.12.12,0,0,1,0,.1,3.22,3.22,0,0,0,.85,2.94s0,.12,0,.18l0,0-7.35,11.38a.31.31,0,0,1-.07.09.22.22,0,0,1-.14,0,3.2,3.2,0,0,0-.87-.12,5.05,5.05,0,0,0-.84.1h0s-.06,0-.08,0a.3.3,0,0,1-.08-.08l-7.75-11.31Zm8.71-8.7,9.37-9.38c1.3-1.3,2-1.95,2.7-2.19a3.24,3.24,0,0,1,2,0c.75.24,1.4.89,2.7,2.19l2,2-6.67,10.33-.07.08a.22.22,0,0,1-.14,0,3.39,3.39,0,0,0-3.1.59s-.11,0-.16,0C1144.18,549.07,1137.41,546.21,1136.44,545.8Zm20.16-5.93,6.16,6.15-1.48,9.19v0a.14.14,0,0,1,0,.06s0,0-.08.05a2.8,2.8,0,0,0-.88.44l0,0a.1.1,0,0,1-.07,0s0,0-.07,0l-9.38-4h0c-.06,0-.13-.05-.13-.12a3.39,3.39,0,0,0-.5-1.47c0-.08-.09-.15,0-.23Zm-6.34,13.88,8.8,3.72a.19.19,0,0,1,.12.09.17.17,0,0,1,0,.1,1.79,1.79,0,0,0,0,.42v.25c0,.06-.06.08-.12.11h0l-19.58,8.35a.11.11,0,0,1-.09,0s0-.12,0-.18l0,0,7.23-11.19v0c0-.07.09-.15.17-.15l.07,0a3.75,3.75,0,0,0,.45,0,3.25,3.25,0,0,0,2.73-1.45l0-.06A.15.15,0,0,1,1150.26,553.75Zm-10.07,14.81,19.8-8.45a.09.09,0,0,1,.06,0,2.82,2.82,0,0,0,.29.25l0,0s.08.05.09.1a.08.08,0,0,1,0,0L1158.77,571v0c0,.08,0,.17-.1.17a2.75,2.75,0,0,0-2.21,1.37h0a.18.18,0,0,1-.08.09.14.14,0,0,1-.11,0l-15.8-3.25S1140.21,568.56,1140.19,568.56Z" fill="#fff"/><line x1="548.51" y1="498.72" x2="548.51" y2="630" fill="none" stroke="#1c2126" stroke-miterlimit="10"/><path d="M584.7,576.62V555.48h12.46v2.38h-9.87v7.25h9v2.3h-9v9.21Z" fill="#1c2126"/><path d="M604.74,568.2v8.42h-2.55V555.48h7.09c4.19,0,6.81,2.44,6.81,6.36a5.91,5.91,0,0,1-3.94,5.83l4.31,9h-2.92l-3.94-8.42Zm0-2.18h4.19c2.91,0,4.55-1.48,4.55-4.12s-1.61-4.12-4.44-4.12h-4.3Z" fill="#1c2126"/><path d="M627.34,577.06c-4.8,0-7.75-3.46-7.75-9.3v-3.41c0-5.85,2.95-9.31,7.75-9.31s7.75,3.46,7.75,9.31v3.41C635.09,573.6,632.14,577.06,627.34,577.06Zm5.14-9.32v-3.38c0-4.41-1.93-6.87-5.14-6.87s-5.14,2.46-5.14,6.87v3.38c0,4.41,1.93,6.88,5.14,6.88S632.48,572.15,632.48,567.74Z" fill="#1c2126"/><path d="M640.57,576.62h-2.3V555.48h2.88l4.65,13.13H646l4.61-13.13h2.9v21.14h-2.3v-8.11l.13-8.56h-.19l-4.25,11.71h-2L640.62,560h-.18l.13,8.56Z" fill="#1c2126"/><path d="M661.78,562.75a2.65,2.65,0,1,1,2.65,2.71A2.7,2.7,0,0,1,661.78,562.75Zm0,11.25a2.65,2.65,0,1,1,2.65,2.71A2.69,2.69,0,0,1,661.78,574Z" fill="#1c2126"/><path d="M804.86,581.51a14.89,14.89,0,0,1-5.34-.91,11.41,11.41,0,0,1-6.75-6.75,14.91,14.91,0,0,1-.93-5.39,14.58,14.58,0,0,1,1-5.4,11.83,11.83,0,0,1,2.76-4.18,12.58,12.58,0,0,1,4.26-2.72,14.82,14.82,0,0,1,5.43-1,14.31,14.31,0,0,1,4.88.8,11,11,0,0,1,3.79,2.26,10,10,0,0,1,2.45,3.51,11.69,11.69,0,0,1,.85,4.56,12.33,12.33,0,0,1-.75,4.5,6.89,6.89,0,0,1-2.07,3,4.86,4.86,0,0,1-3.12,1.05,3.48,3.48,0,0,1-2.73-1,3.58,3.58,0,0,1-.78-2.81l.54.15a6.18,6.18,0,0,1-2.17,2.75,5.24,5.24,0,0,1-3,.94,4.67,4.67,0,0,1-3.67-1.45,5.8,5.8,0,0,1-1.31-4,8.75,8.75,0,0,1,.86-3.94,6.66,6.66,0,0,1,2.35-2.7,6.14,6.14,0,0,1,3.42-1,4.48,4.48,0,0,1,2.78.81,3.79,3.79,0,0,1,1.39,2.28h-.36l.51-2.82h2l-1.38,7.77c0,.26-.07.51-.1.75a5.42,5.42,0,0,0,0,.66,2.16,2.16,0,0,0,.47,1.5,1.78,1.78,0,0,0,1.39.51,2.93,2.93,0,0,0,2.1-.87,5.81,5.81,0,0,0,1.41-2.41,11.59,11.59,0,0,0,.51-3.62,10.11,10.11,0,0,0-.72-3.9,8.21,8.21,0,0,0-2.07-3,9.29,9.29,0,0,0-3.22-1.89,12.57,12.57,0,0,0-4.19-.66,12.88,12.88,0,0,0-4.72.83,10.42,10.42,0,0,0-3.63,2.34,10.21,10.21,0,0,0-2.33,3.64,13.24,13.24,0,0,0-.81,4.74,12.85,12.85,0,0,0,1.35,6.09,9.35,9.35,0,0,0,3.86,3.92,12.12,12.12,0,0,0,5.89,1.36,12.82,12.82,0,0,0,4.53-.76,8.71,8.71,0,0,0,3.36-2.18l1,1.47A9.46,9.46,0,0,1,810,580.7,15.39,15.39,0,0,1,804.86,581.51Zm-1.44-8.4a4,4,0,0,0,2.46-.79,5.31,5.31,0,0,0,1.7-2.21,8,8,0,0,0,.61-3.21,3.73,3.73,0,0,0-.75-2.55,3,3,0,0,0-2.37-.84,4.26,4.26,0,0,0-2.47.75,5.12,5.12,0,0,0-1.73,2.07,7,7,0,0,0-.63,3.06,4.12,4.12,0,0,0,.83,2.76A2.93,2.93,0,0,0,803.42,573.11Z" fill="#1c2126"/><path d="M821.42,576.62V554.54h2.43v22.08Z" fill="#1c2126"/><path d="M828,583.43l-.57-2a12.62,12.62,0,0,0,2.36-.76,4.63,4.63,0,0,0,1.57-1.16,6.51,6.51,0,0,0,1.08-1.8l.78-1.77-.06,1-6.57-15.39h2.64l5.43,13.23h-.78l5.37-13.23h2.55l-7,16.32a11.58,11.58,0,0,1-1.32,2.42,7.55,7.55,0,0,1-1.54,1.59,7.06,7.06,0,0,1-1.82,1A13.08,13.08,0,0,1,828,583.43Z" fill="#1c2126"/><path d="M844.49,576.62V565c0-.56,0-1.13-.07-1.72s-.11-1.18-.17-1.76h2.34l.3,3.3h-.36a5.21,5.21,0,0,1,2.12-2.65,6.19,6.19,0,0,1,3.37-.92,5.35,5.35,0,0,1,4,1.43,6.29,6.29,0,0,1,1.36,4.48v9.42H855v-9.27a4.63,4.63,0,0,0-.85-3.1,3.36,3.36,0,0,0-2.66-1,4.38,4.38,0,0,0-3.33,1.29,4.79,4.79,0,0,0-1.23,3.45v8.61Z" fill="#1c2126"/><path d="M862.07,576.62V565c0-.56,0-1.13-.07-1.72s-.11-1.18-.17-1.76h2.34l.3,3.3h-.36a5.21,5.21,0,0,1,2.12-2.65,6.19,6.19,0,0,1,3.37-.92,5.35,5.35,0,0,1,4,1.43A6.29,6.29,0,0,1,875,567.2v9.42h-2.43v-9.27a4.63,4.63,0,0,0-.85-3.1,3.36,3.36,0,0,0-2.66-1,4.38,4.38,0,0,0-3.33,1.29A4.79,4.79,0,0,0,864.5,568v8.61Z" fill="#1c2126"/><path d="M885.38,576.89a6.44,6.44,0,0,1-3.51-.94,6.25,6.25,0,0,1-2.32-2.69,11,11,0,0,1,0-8.37,6.14,6.14,0,0,1,2.32-2.67,6.52,6.52,0,0,1,3.51-.93,6,6,0,0,1,3.53,1,4.85,4.85,0,0,1,2,2.8h-.36l.33-3.57h2.34c-.06.58-.11,1.17-.16,1.76s-.08,1.16-.08,1.72v11.58h-2.43v-3.54h.33a4.78,4.78,0,0,1-2,2.79A6,6,0,0,1,885.38,576.89Zm.48-2a4.25,4.25,0,0,0,3.42-1.48,8.14,8.14,0,0,0,0-8.7,4.65,4.65,0,0,0-6.82,0,8,8,0,0,0,0,8.7A4.25,4.25,0,0,0,885.86,574.91Z" fill="#1c2126"/><path d="M897.65,576.62V565c0-.56,0-1.13-.07-1.72s-.11-1.18-.17-1.76h2.34l.3,3.3h-.36a5.21,5.21,0,0,1,2.12-2.65,6.19,6.19,0,0,1,3.37-.92,5.35,5.35,0,0,1,4,1.43,6.29,6.29,0,0,1,1.36,4.48v9.42h-2.43v-9.27a4.63,4.63,0,0,0-.85-3.1,3.36,3.36,0,0,0-2.66-1,4.38,4.38,0,0,0-3.33,1.29,4.79,4.79,0,0,0-1.23,3.45v8.61Z" fill="#1c2126"/><path d="M920.93,576.89a6.39,6.39,0,0,1-3.48-.94,6.25,6.25,0,0,1-2.32-2.69,11,11,0,0,1,0-8.37,6.14,6.14,0,0,1,2.32-2.67,6.47,6.47,0,0,1,3.48-.93,6.09,6.09,0,0,1,3.53,1,4.93,4.93,0,0,1,2,2.76h-.36V554.54h2.43v22.08h-2.4V573h.33a4.86,4.86,0,0,1-2,2.84A6.08,6.08,0,0,1,920.93,576.89Zm.51-2a4.3,4.3,0,0,0,3.42-1.48,8,8,0,0,0,0-8.7,4.31,4.31,0,0,0-3.42-1.49,4.26,4.26,0,0,0-3.4,1.49,8,8,0,0,0,0,8.7A4.25,4.25,0,0,0,921.44,574.91Z" fill="#1c2126"/><path d="M938.57,576.89a4.37,4.37,0,0,1-3.39-1.27,5.55,5.55,0,0,1-1.17-3.86v-8.31h-2.94v-1.89H934v-4.11l2.43-.69v4.8h4.32v1.89h-4.32v8a4.16,4.16,0,0,0,.62,2.57,2.21,2.21,0,0,0,1.84.76,4.52,4.52,0,0,0,1-.1,5.14,5.14,0,0,0,.81-.26v2a4.59,4.59,0,0,1-1,.29A6.57,6.57,0,0,1,938.57,576.89Z" fill="#1c2126"/><path d="M949.76,576.89A7.26,7.26,0,0,1,946,576a6.3,6.3,0,0,1-2.48-2.7,10.4,10.4,0,0,1,0-8.33,6.31,6.31,0,0,1,2.48-2.68,7.27,7.27,0,0,1,3.76-1,7.37,7.37,0,0,1,3.8,1,6.39,6.39,0,0,1,2.49,2.68,10.3,10.3,0,0,1,0,8.33,6.39,6.39,0,0,1-2.49,2.7A7.36,7.36,0,0,1,949.76,576.89Zm0-2a4.25,4.25,0,0,0,3.42-1.48,8.14,8.14,0,0,0,0-8.7,4.64,4.64,0,0,0-6.81,0,8.14,8.14,0,0,0,0,8.7A4.21,4.21,0,0,0,949.76,574.91Z" fill="#1c2126"/><path d="M960.71,576.62V565c0-.56,0-1.13-.07-1.72s-.11-1.18-.17-1.76h2.34l.3,3.3h-.36a5.21,5.21,0,0,1,2.12-2.65,6.19,6.19,0,0,1,3.37-.92,5.35,5.35,0,0,1,4,1.43,6.29,6.29,0,0,1,1.36,4.48v9.42h-2.43v-9.27a4.63,4.63,0,0,0-.85-3.1,3.36,3.36,0,0,0-2.66-1,4.38,4.38,0,0,0-3.33,1.29,4.79,4.79,0,0,0-1.23,3.45v8.61Z" fill="#1c2126"/><path d="M978,558.14v-2.73h3v2.73Zm.3,18.48V561.56h2.43v15.06Z" fill="#1c2126"/><path d="M991.76,576.89a7.46,7.46,0,0,1-3.85-1,6.41,6.41,0,0,1-2.52-2.73,9.29,9.29,0,0,1-.89-4.2,8.93,8.93,0,0,1,.9-4.18,6.2,6.2,0,0,1,2.54-2.63,7.79,7.79,0,0,1,3.82-.9,8,8,0,0,1,2.81.51,6,6,0,0,1,2.26,1.44L996,565a6,6,0,0,0-2-1.29,5.69,5.69,0,0,0-2.09-.42,4.57,4.57,0,0,0-3.63,1.47A6.32,6.32,0,0,0,987,569a6.51,6.51,0,0,0,1.29,4.32,4.49,4.49,0,0,0,3.63,1.53,6,6,0,0,0,2.06-.39,5.66,5.66,0,0,0,2-1.29l.87,1.71a6.11,6.11,0,0,1-2.31,1.47A7.91,7.91,0,0,1,991.76,576.89Z" fill="#1c2126"/><circle cx="730.89" cy="563.72" r="40" fill="#1c2126"/></svg>