<svg xmlns="http://www.w3.org/2000/svg" width="1200" height="630" viewBox="0 0 1200 630"><rect x="-1290.07" y="-1558.85" width="6221.73" height="2273.11" fill="#a6a6a6"/><rect width="1200" height="498.72" fill="#5cebdf"/><g opacity="0.5"><path d="M1081.51,402.93a12.28,12.28,0,0,1,12.28,12.28V568.57a12.28,12.28,0,0,1-12.28,12.28H689a12.28,12.28,0,0,1-12.28-12.28V415.21A12.28,12.28,0,0,1,689,402.93h392.5m0-12H689a24.3,24.3,0,0,0-24.28,24.28V568.57A24.3,24.3,0,0,0,689,592.85h392.5a24.3,24.3,0,0,0,24.28-24.28V415.21a24.3,24.3,0,0,0-24.28-24.28Z" fill="#bffde7"/></g><polygon points="851.27 273.48 823.44 233.49 795 273.48 810.65 273.48 810.65 551.52 835.61 551.52 835.61 273.48 851.27 273.48" fill="#db4648" stroke="#1c2126" stroke-linejoin="round" stroke-width="2"/><polygon points="876.2 281.42 848.38 241.43 819.94 281.42 835.59 281.42 835.59 559.46 860.55 559.46 860.55 281.42 876.2 281.42" fill="#ff6b60" stroke="#1c2126" stroke-linejoin="round" stroke-width="2"/><polygon points="901.19 289.35 873.36 249.36 844.92 289.35 860.58 289.35 860.58 567.39 885.54 567.39 885.54 289.35 901.19 289.35" fill="#ffd3bf" stroke="#1c2126" stroke-linejoin="round" stroke-width="2"/><polygon points="926.07 293.44 898.24 253.45 869.8 293.44 885.45 293.44 885.45 571.48 910.41 571.48 910.41 293.44 926.07 293.44" fill="#fff6d0" stroke="#1c2126" stroke-linejoin="round" stroke-width="2"/><polygon points="951 289.35 923.18 249.36 894.74 289.35 910.39 289.35 910.39 567.39 935.35 567.39 935.35 289.35 951 289.35" fill="#ffdd73" stroke="#1c2126" stroke-linejoin="round" stroke-width="2"/><polygon points="975.99 284.22 948.16 244.23 919.72 284.22 935.38 284.22 935.38 562.26 960.34 562.26 960.34 284.22 975.99 284.22" fill="#ffb916" stroke="#1c2126" stroke-linejoin="round" stroke-width="2"/><rect x="676.73" y="402.93" width="417.07" height="177.92" rx="12.28" fill="#054861" stroke="#1c2126" stroke-miterlimit="10" stroke-width="2"/><polygon points="954.63 447.9 810.09 447.9 810.09 427.86 954.63 427.86 967.03 437.88 954.63 447.9" fill="#5cebdf" stroke="#1c2126" stroke-linejoin="round" stroke-width="2"/><polygon points="843.9 447.9 699.36 447.9 699.36 427.86 843.9 427.86 856.3 437.88 843.9 447.9" fill="#30c8c9" stroke="#1c2126" stroke-linejoin="round" stroke-width="2"/><polyline points="699.36 465.77 707.14 472.05 699.36 478.34" fill="none" stroke="#30c8c9" stroke-linecap="round" stroke-linejoin="round" stroke-width="2"/><rect x="716.25" y="460.57" width="14.54" height="22.61" fill="#30c8c9"/><path d="M1068.56,126.61c-8.12-3.61-17.33-3.56-26.22-3.44l-29.6.39c-2.71,0-5.78-.07-7.58-2.1s-1.59-4.9-1.56-7.53c.33-25.46-23.26-47.49-48.65-49.4s-50.13,13.52-63.6,35.12C875.25,79.35,851.12,62.87,825.3,65c-25.28,2.07-48.24,28.47-40.47,52.29-7.49-6.88-15.23-13.88-24.73-17.47-12.71-4.8-28.38-2.27-37.64,7.66s-10.19,27.17-.74,36.93a36.74,36.74,0,0,0-40,6c-10.48,9.78-13,26.58-4.68,39s41.84,6.37,64,.29c-3.85,20.1,17.65,37.9,38.12,37.84s38.73-12.28,54.83-24.91a108.88,108.88,0,0,0,63.61,33.68c11.56,1.71,24,1.37,34.1-4.5s16.94-18.45,13.25-29.54a236.62,236.62,0,0,0,43.87,2c7.14-.35,15-1.33,19.86-6.52s3.89-15.84-3.09-17.38A77.19,77.19,0,0,0,1073,162c4.32-4,8.35-8.82,9.17-14.63C1083.42,138.58,1076.69,130.21,1068.56,126.61Z" fill="#fff" stroke="#1c2126" stroke-linejoin="round" stroke-width="2"/><path d="M189.78,167.62V186H178v-18.2l-18.69-34.94h12.74l12.05,22.27,12-22.27h12.39Z" fill="#1c2126"/><path d="M242.91,166.43c0,11.69-7.49,20.51-20.58,20.51s-20.66-8.82-20.66-20.51,7.49-20.51,20.66-20.51S242.91,154.74,242.91,166.43Zm-29.83,0c0,6.44,3.58,10.57,9.25,10.57s9.17-4.13,9.17-10.57-3.5-10.57-9.17-10.57S213.08,160,213.08,166.43Z" fill="#1c2126"/><path d="M283.86,146.83V186H272.94v-4.2a12.79,12.79,0,0,1-10.71,5.18c-8.61,0-14.22-6.44-14.22-18V146.83h10.93v20.09c0,6,2.73,9.31,6.93,9.31s7.07-3.57,7.07-9.24V146.83Z" fill="#1c2126"/><path d="M354.49,162.3H343a7.53,7.53,0,0,0-7.84-6.93c-5.18,0-8.75,4-8.75,11.06s3.57,11,8.75,11a7.53,7.53,0,0,0,7.84-6.86h11.48c-.28,9.1-8.05,16.38-19.32,16.38-12.61,0-20.17-8.19-20.17-20.51s7.56-20.51,20.17-20.51C346.44,145.92,354.21,153.13,354.49,162.3Z" fill="#1c2126"/><path d="M396.14,163.63V186H385.22v-4.27c-2.73,3.15-7,5-12.75,5-8.19,0-13.3-4.13-13.3-10.92,0-6.16,4.06-10.85,14.29-12.6l11.76-2c0-3.78-2.38-6-6.79-6s-6.31,1.82-6.59,4.83H360.78c.21-7.21,6.09-13.94,17.65-13.94C389.7,146.12,396.14,152.43,396.14,163.63Zm-10.92,5.88V169l-9,1.47c-4.69.77-5.87,2.38-5.87,4.41,0,1.75,1.67,3,4.83,3C381.23,177.84,385.22,174.48,385.22,169.51Z" fill="#1c2126"/><path d="M440.24,163.84V186H429.32v-20c0-6-2.87-9.38-7.28-9.38s-7.56,3.64-7.56,9.31V186H403.55V146.83h10.93v4.41c2.17-3.16,6.16-5.32,11.13-5.32C434.5,145.92,440.24,152.29,440.24,163.84Z" fill="#1c2126"/><path d="M454.72,138.28c0,5.68-2.87,9.88-9.45,12l-1.47.5-1.68-5.19,1.47-.42c3.08-.91,4.69-2.24,5.32-4.27a7.75,7.75,0,0,1-1.33.14,5.62,5.62,0,0,1-5.95-5.6c0-3.36,2.45-5.81,6.16-5.81C452.13,129.6,454.72,133,454.72,138.28Z" fill="#1c2126"/><path d="M485.59,156.07h-8.47V186H466.2V156.07h-7.35v-9.24h7.35V134.5h10.92v12.33h8.47Z" fill="#1c2126"/><path d="M178.58,366.83,167.1,406h-11l-7.91-24.85-8,24.85H129.5L118,366.83h10.64L136,391.75l7.7-24.92h9.39l7.63,24.78,7.35-24.78Z" fill="#1c2126"/><path d="M193.69,355.76a6.55,6.55,0,1,1-13.09,0,6.55,6.55,0,1,1,13.09,0Zm-1.05,10.16v40H181.72v-40a9,9,0,0,0,5.46,1.61A8.8,8.8,0,0,0,192.64,365.92Z" fill="#1c2126"/><path d="M226,376.07h-8.48V406H206.64V376.07h-7.35v-9.24h7.35V354.5h10.92v12.33H226Z" fill="#1c2126"/><path d="M269.72,383.84V406H258.8v-20c0-6-2.87-9.38-7.28-9.38S244,380.2,244,385.87l-.07-.49V406H233V350.3H244v20.94c2.16-3.16,6.09-5.32,11.13-5.32C264,365.92,269.72,372.29,269.72,383.84Z" fill="#1c2126"/><path d="M316.41,386.43c0,11.69-7.49,20.51-20.58,20.51s-20.66-8.82-20.66-20.51,7.49-20.51,20.66-20.51S316.41,374.74,316.41,386.43Zm-29.83,0c0,6.44,3.58,10.57,9.25,10.57s9.17-4.13,9.17-10.57-3.5-10.57-9.17-10.57S286.58,380,286.58,386.43Z" fill="#1c2126"/><path d="M357.36,366.83V406H346.44v-4.2a12.79,12.79,0,0,1-10.71,5.18c-8.62,0-14.22-6.44-14.22-18V366.83h10.93v20.09c0,5.95,2.73,9.31,6.93,9.31s7.07-3.57,7.07-9.24V366.83Z" fill="#1c2126"/><path d="M390.12,376.07h-8.47V406H370.73V376.07h-7.35v-9.24h7.35V354.5h10.92v12.33h8.47Z" fill="#1c2126"/><path d="M430.65,364.93c0,3.36-2.45,5.82-6.16,5.82-4.35,0-6.94-3.37-6.94-8.69,0-5.67,2.87-9.87,9.46-12l1.47-.49,1.68,5.18-1.47.42c-3.08.91-4.69,2.24-5.32,4.27a7.75,7.75,0,0,1,1.33-.14A5.62,5.62,0,0,1,430.65,364.93Z" fill="#1c2126"/><path d="M472.09,366.83V406H461.17v-4.2a12.79,12.79,0,0,1-10.71,5.18c-8.62,0-14.22-6.44-14.22-18V366.83h10.93v20.09c0,5.95,2.72,9.31,6.93,9.31s7.07-3.57,7.07-9.24V366.83Z" fill="#1c2126"/><path d="M512.06,379.15H501.14c-.07-2.52-2.31-4.48-6-4.48s-5.46,1.33-5.46,3.15.84,2.73,5.25,3.5l5.25.84c10.08,1.68,12.74,6.23,12.74,12.18,0,7.63-6.09,12.46-17.15,12.46-11.91,0-17.86-5.67-17.86-13.51h10.86c.07,2.87,2.31,4.83,7.42,4.83,3.85,0,5.81-1.33,5.81-3.29s-1.12-3.15-5.67-3.92l-5.46-.91c-9.25-1.47-12.12-6.09-12.12-11.69,0-6.93,5.67-12.26,16.53-12.26S512.06,371.73,512.06,379.15Z" fill="#1c2126"/><path d="M528.22,358.28c0,5.68-2.87,9.88-9.45,12l-1.47.5-1.68-5.19,1.47-.42c3.08-.91,4.69-2.24,5.32-4.27a7.75,7.75,0,0,1-1.33.14,5.62,5.62,0,0,1-6-5.6c0-3.36,2.45-5.81,6.16-5.81C525.63,349.6,528.22,353,528.22,358.28Z" fill="#1c2126"/><rect x="125" y="220.61" width="397.09" height="92.15" rx="9.29" fill="#1c2126" opacity="0.15"/><path d="M145.86,294.38H154c.71,2.82,4.17,4.64,8.8,4.64,6.09,0,9.41-2.92,9.41-8.38v-7.06h-.71c-1.39,4.32-5.88,7.06-11.62,7.06-9,0-14.62-6.38-14.62-16.68v-6.38c0-10.37,5.67-16.68,14.94-16.68,5.67,0,10,2.71,11.44,7.06h.71v-6.38h8.16v39c0,9.16-6.73,14.72-17.82,14.72C153,305.29,146.57,301.12,145.86,294.38Zm17.07-11c5.6,0,9.2-3.89,9.2-10v-5.49c0-6.1-3.6-10-9.2-10s-9.23,3.88-9.23,10v5.49C153.7,279.52,157.3,283.41,162.93,283.41Z" fill="#1c2126"/><path d="M192.88,290.61V284h12.87V258.21H193.31v-6.63h20.53V284H226.1v6.63Zm10.62-53.36c0-3.35,2.5-5.67,6-5.67s6.05,2.32,6.05,5.67-2.49,5.66-6.05,5.66S203.5,240.6,203.5,237.25Z" fill="#1c2126"/><path d="M254.66,240.67v11.16h15.08v6.7H254.8v20.06c0,3.46,2.46,5.39,6.88,5.39,1.43,0,7.06,0,7.74-.11v6.63c-.65.11-7.21.21-8.38.21-10.27,0-14.51-3.49-14.51-12.15v-20H236.27v-6.7h10.26V240.67Z" fill="#1c2126"/><path d="M362.46,267.62v6.95c0,10.4-5.56,16.71-14.54,16.71-5.64,0-9.63-2.56-11.09-7h-.71v19.46h-8.56V251.58H336V258h.72c1.64-4.56,5.59-7.06,11.23-7.06C356.9,250.93,362.46,257.24,362.46,267.62Zm-26.52.53v6.13c0,6.13,3.46,10,9,10s9.05-3.85,9.05-10v-6.13c0-6.13-3.46-9.94-9.05-9.94S335.94,262,335.94,268.15Z" fill="#1c2126"/><path d="M406.31,290.61h-8v-6.67h-.57c-2,4.78-6.31,7.45-12.05,7.45-8.48,0-13.08-5.06-13.08-14.54V251.58h8.3v23.27c0,6.27,2.57,9.23,7.92,9.23,5.56,0,9.19-3.85,9.19-9.76V251.58h8.31Z" fill="#1c2126"/><path d="M434.62,250.72c8.94,0,14.61,4.13,15.15,11.16h-7.85c-.57-2.93-3.38-4.74-7.41-4.74s-6.92,1.92-6.92,4.84c0,2.5,1.79,3.93,6,4.85l5.81,1.25c7.8,1.67,11.26,5,11.26,10.84,0,7.59-6.24,12.47-16,12.47-9.55,0-15.61-4.24-16.18-11.3h8.23c.72,3.07,3.68,4.81,8.09,4.81s7.38-2,7.38-5c0-2.57-1.64-3.89-6.09-4.85l-5.85-1.28c-7.2-1.61-10.83-5.31-10.83-11.12C419.4,255.35,425.38,250.72,434.62,250.72Z" fill="#1c2126"/><path d="M462.78,236.5h8.06v21.81h.53c2-4.74,6.38-7.45,12.16-7.45,8.51,0,13.15,5.14,13.15,14.51v25.24h-8.31V267.4c0-6.24-2.6-9.27-8-9.27-5.63,0-9.34,3.93-9.34,9.84v22.64h-8.27Z" fill="#1c2126"/><path d="M857.15,146.25s10.17-10.49,20.66,0" fill="none" stroke="#1c2126" stroke-linecap="round" stroke-miterlimit="10" stroke-width="2"/><path d="M892.58,146.25s10.16-10.49,20.66,0" fill="none" stroke="#1c2126" stroke-linecap="round" stroke-miterlimit="10" stroke-width="2"/><path d="M863.19,158.52c.37,11.09,10.2,20,22.3,20s21.94-8.9,22.31-20Z" fill="#7a122d" stroke="#1c2126" stroke-linecap="round" stroke-linejoin="round" stroke-width="2"/><path d="M1057.2,76.1a7.3,7.3,0,0,0-1.15-2.92,7.82,7.82,0,0,0-4-3.67,7.16,7.16,0,0,0-5.55,1,15.62,15.62,0,0,0-4,3.28,12.82,12.82,0,0,0-2.83-6.59,8,8,0,0,0-6.5-2.84,5.86,5.86,0,0,0-5.24,4.43c-.45,2.31.75,4.58,1.93,6.62q4.38,7.65,9,15.15l12.83-7.52C1054.43,81.49,1057.51,79.21,1057.2,76.1Z" fill="#ff6b60" stroke="#1c2126" stroke-linejoin="round" stroke-width="2"/><path d="M767.13,49a8.58,8.58,0,0,0-3.56-1.45c-2.21-.49-4.66-.69-6.64.4s-3.22,3.5-3.79,5.8a19.26,19.26,0,0,0-.49,6.33A15.7,15.7,0,0,0,744.41,57a9.83,9.83,0,0,0-8,3.34,7.18,7.18,0,0,0-.52,8.4c1.67,2.36,4.7,3.22,7.5,3.92q10.5,2.59,21.08,4.86l4.23-17.76C769.55,56,770.15,51.34,767.13,49Z" fill="#ff6b60" stroke="#1c2126" stroke-linejoin="round" stroke-width="2"/><path d="M146.1,59.89c.1-3.74-3.25-6.83-6.85-7.86s-7.42-.53-11.15-.28a4.37,4.37,0,0,1-1.73-.12c-1.14-.41-1.73-1.64-2.3-2.72-2.84-5.31-5-9.45-14.33-9.85s-15.49,7.16-15.49,7.16c-3.46-2.81-7-5.68-11.19-7.21-5.53-2-12.32-1.32-16.51,2.83s-4.6,11.91-.1,15.73c-5.38,0-11,.15-15.7,2.8s-7.86,8.76-5.43,13.56c2.3,4.56,8.26,5.81,13.36,5.52A39.58,39.58,0,0,0,76,74.33c-.28,4.8,3,9.26,7.2,11.64s9.09,3,13.89,3.33c3.75.24,7.74.24,11-1.71s5.11-6.5,3-9.6c4.42-.07,8.59,1.83,12.89,2.84s9.42.91,12.41-2.34,1.19-10.06-3.22-9.85C138.78,68.1,146,65.64,146.1,59.89Z" fill="#fff" stroke="#1c2126" stroke-linejoin="round" stroke-width="2"/><path d="M1203.76,286a22,22,0,0,0-26.63,21.59c-4.5-3-11.11-2.8-14.85,1.07s-3.19,11.29,1.52,13.9a18.24,18.24,0,0,0-17.49,8.78c-1.53,2.63-2.32,6.05-.76,8.66a8.81,8.81,0,0,0,4.22,3.29,18.9,18.9,0,0,0,17.88-1.82c3,4.34,6.76,8.62,11.89,9.75s11.46-2.57,11.11-7.81a24.49,24.49,0,0,0,17.4,5.1" fill="#fff" stroke="#1c2126" stroke-linejoin="round" stroke-width="2"/><path d="M686.13,277.39a5.7,5.7,0,0,0-2.49-1.52,38.79,38.79,0,0,0-10.91-2.38c1.35-2.47,5.42-7.41,2.27-12.47s-18.26-2.63-23.7,3.25c0,0-4.8-8.09-15.49-5.89-5.27,1.08-10.38,4.78-11.12,10.11-3.22-2.94-7.71-4.76-12-3.92s-8,4.8-7.74,9.15C597.36,270.4,578,268,578,281.32a6.26,6.26,0,0,0,4.52,5.7c2.51.78,5.2.39,7.8,0a5.39,5.39,0,0,1,2.56.06,6,6,0,0,1,1.84,1.31,21.6,21.6,0,0,0,31.52-3.16,101.06,101.06,0,0,0,17.87,6.52c4,1,8.16,1.83,12.19,1s7.91-3.58,8.94-7.57c3.46,2.29,7.58,3.84,11.72,3.48s8.21-2.94,9.57-6.86A4.64,4.64,0,0,0,686.13,277.39Z" fill="#fff" stroke="#1c2126" stroke-linecap="round" stroke-linejoin="round" stroke-width="2"/><rect y="595" width="1200" height="35" fill="#fff"/><rect y="499.19" width="1200" height="95.81" fill="#fff"/><line y1="499.19" x2="1200" y2="499.19" fill="none" stroke="#1c2126" stroke-miterlimit="10"/><line y1="595" x2="1200" y2="595" fill="none" stroke="#1c2126" stroke-miterlimit="10"/><path d="M24.24,559.45V540.69H17.85v-2.37H33.21v2.37H26.82v18.76Z" fill="#1c2126"/><path d="M44.08,559.89c-4.81,0-7.75-3.45-7.75-9.3v-3.41c0-5.85,2.94-9.3,7.75-9.3s7.74,3.45,7.74,9.3v3.41C51.82,556.44,48.88,559.89,44.08,559.89Zm5.14-9.31v-3.39c0-4.41-1.94-6.87-5.14-6.87s-5.15,2.46-5.15,6.87v3.39c0,4.41,1.94,6.87,5.15,6.87S49.22,555,49.22,550.58Z" fill="#1c2126"/><path d="M60,545.58a2.65,2.65,0,1,1,2.65,2.71A2.7,2.7,0,0,1,60,545.58Zm0,11.25a2.65,2.65,0,1,1,2.65,2.71A2.68,2.68,0,0,1,60,556.83Z" fill="#1c2126"/><circle cx="107.91" cy="548.15" r="31.98" fill="#1c2126"/><line x1="582.03" y1="498.72" x2="582.03" y2="595" fill="none" stroke="#1c2126" stroke-miterlimit="10"/><path d="M1129.73,614.6a4.72,4.72,0,1,1-4.71-4.69A4.43,4.43,0,0,1,1129.73,614.6Zm-6.82,0A2.12,2.12,0,0,0,1125,617c1.3,0,2.1-.94,2.1-2.41s-.8-2.42-2.1-2.42S1122.91,613.12,1122.91,614.6Z" fill="#1c2126"/><path d="M1138.54,612.93H1136c0-.57-.52-1-1.37-1s-1.25.3-1.25.72.19.62,1.2.8l1.2.19c2.3.39,2.91,1.43,2.91,2.79,0,1.74-1.39,2.85-3.92,2.85-2.72,0-4.08-1.3-4.08-3.09h2.48c0,.65.53,1.1,1.7,1.1.88,0,1.33-.3,1.33-.75s-.26-.72-1.3-.9l-1.25-.21c-2.11-.33-2.77-1.39-2.77-2.67,0-1.58,1.3-2.8,3.78-2.8S1138.54,611.24,1138.54,612.93Z" fill="#1c2126"/><path d="M1147.49,612.93H1145c0-.57-.53-1-1.38-1s-1.25.3-1.25.72.2.62,1.2.8l1.21.19c2.3.39,2.91,1.43,2.91,2.79,0,1.74-1.39,2.85-3.92,2.85-2.72,0-4.09-1.3-4.09-3.09h2.49c0,.65.52,1.1,1.69,1.1.88,0,1.33-.3,1.33-.75s-.25-.72-1.3-.9l-1.24-.21c-2.12-.33-2.77-1.39-2.77-2.67,0-1.58,1.29-2.8,3.77-2.8S1147.49,611.24,1147.49,612.93Z" fill="#1c2126"/><path d="M1152,617.64a1.6,1.6,0,1,1-1.6-1.62A1.55,1.55,0,0,1,1152,617.64Z" fill="#1c2126"/><path d="M1156.27,606.34v12.72h-2.5V606.34Z" fill="#1c2126"/><path d="M1167,614.6a4.71,4.71,0,1,1-4.7-4.69A4.42,4.42,0,0,1,1167,614.6Zm-6.81,0a2.12,2.12,0,0,0,2.11,2.41c1.29,0,2.1-.94,2.1-2.41s-.81-2.42-2.1-2.42S1160.16,613.12,1160.16,614.6Z" fill="#1c2126"/><path d="M1176.59,610.12l-3.26,8.94h-3l-3.28-8.94h2.64l2.16,6.32,2.16-6.32Z" fill="#1c2126"/><path d="M1186.06,615.33h-6.61a1.92,1.92,0,0,0,2,1.81,1.82,1.82,0,0,0,1.75-.8h2.66a5,5,0,1,1,.17-1.77Zm-6.58-1.71h3.94a1.87,1.87,0,0,0-2-1.58A2,2,0,0,0,1179.48,613.62Z" fill="#1c2126"/><path d="M605.51,559.45V538.32H618v2.37H608.1v7.25h9v2.3h-9v9.21Z" fill="#1c2126"/><path d="M625.54,551v8.42H623V538.32h7.09c4.19,0,6.81,2.43,6.81,6.35A5.91,5.91,0,0,1,633,550.5l4.3,9h-2.91L630.41,551Zm0-2.18h4.19c2.92,0,4.56-1.48,4.56-4.12s-1.61-4.11-4.44-4.11h-4.31Z" fill="#1c2126"/><path d="M648.15,559.89c-4.81,0-7.75-3.45-7.75-9.3v-3.41c0-5.85,2.94-9.3,7.75-9.3s7.75,3.45,7.75,9.3v3.41C655.9,556.44,653,559.89,648.15,559.89Zm5.14-9.31v-3.39c0-4.41-1.93-6.87-5.14-6.87s-5.14,2.46-5.14,6.87v3.39c0,4.41,1.93,6.87,5.14,6.87S653.29,555,653.29,550.58Z" fill="#1c2126"/><path d="M661.38,559.45h-2.3V538.32H662l4.64,13.12h.19l4.62-13.12h2.9v21.13H672v-8.11l.13-8.56H672l-4.25,11.71h-2l-4.25-11.71h-.19l.14,8.56Z" fill="#1c2126"/><path d="M682.59,545.58a2.65,2.65,0,1,1,2.65,2.71A2.7,2.7,0,0,1,682.59,545.58Zm0,11.25a2.65,2.65,0,1,1,2.65,2.71A2.68,2.68,0,0,1,682.59,556.83Z" fill="#1c2126"/><circle cx="733.24" cy="548.15" r="31.98" fill="#1c2126"/><path d="M791.37,562a13.93,13.93,0,0,1-5-.86,10.66,10.66,0,0,1-6.3-6.3,13.81,13.81,0,0,1-.87-5,13.54,13.54,0,0,1,.9-5,11.12,11.12,0,0,1,2.58-3.91,11.78,11.78,0,0,1,4-2.53,13.78,13.78,0,0,1,5.07-.9,13.44,13.44,0,0,1,4.55.74,10.32,10.32,0,0,1,3.54,2.12,9.19,9.19,0,0,1,2.28,3.27,10.78,10.78,0,0,1,.8,4.26,11.44,11.44,0,0,1-.7,4.2,6.47,6.47,0,0,1-1.93,2.77,4.55,4.55,0,0,1-2.91,1,3.24,3.24,0,0,1-2.55-1,3.31,3.31,0,0,1-.73-2.61l.51.14a5.85,5.85,0,0,1-2,2.56,4.88,4.88,0,0,1-2.79.88,4.34,4.34,0,0,1-3.43-1.36,5.39,5.39,0,0,1-1.22-3.73,8.24,8.24,0,0,1,.8-3.69,6.21,6.21,0,0,1,2.2-2.52,5.75,5.75,0,0,1,3.19-.91,4.13,4.13,0,0,1,2.59.76,3.51,3.51,0,0,1,1.3,2.13h-.33l.47-2.64h1.85l-1.29,7.26c0,.24-.07.47-.1.7s0,.43,0,.61a2,2,0,0,0,.44,1.4,1.65,1.65,0,0,0,1.3.48,2.75,2.75,0,0,0,2-.81,5.38,5.38,0,0,0,1.31-2.26,10.66,10.66,0,0,0,.48-3.37,9.37,9.37,0,0,0-.67-3.64,7.65,7.65,0,0,0-1.93-2.77,8.69,8.69,0,0,0-3-1.77,11.75,11.75,0,0,0-3.91-.61,11.94,11.94,0,0,0-4.41.77,9.42,9.42,0,0,0-5.56,5.58,12.48,12.48,0,0,0-.75,4.43,12,12,0,0,0,1.26,5.68,8.6,8.6,0,0,0,3.59,3.65,11.36,11.36,0,0,0,5.51,1.28,12.05,12.05,0,0,0,4.22-.71,8.25,8.25,0,0,0,3.14-2l.92,1.37a8.76,8.76,0,0,1-3.54,2.18A14.41,14.41,0,0,1,791.37,562ZM790,554.18a3.81,3.81,0,0,0,2.3-.74,5,5,0,0,0,1.58-2.06,7.5,7.5,0,0,0,.57-3,3.47,3.47,0,0,0-.7-2.38,2.81,2.81,0,0,0-2.21-.78,4,4,0,0,0-2.31.7,4.73,4.73,0,0,0-1.61,1.93,6.58,6.58,0,0,0-.59,2.86,3.85,3.85,0,0,0,.77,2.57A2.75,2.75,0,0,0,790,554.18Z" fill="#1c2126"/><path d="M806.82,557.45V536.84h2.27v20.61Z" fill="#1c2126"/><path d="M812.93,563.81l-.54-1.88a11.39,11.39,0,0,0,2.2-.71,4.26,4.26,0,0,0,1.47-1.08,6.19,6.19,0,0,0,1-1.68l.73-1.65-.06,1-6.13-14.36h2.46l5.07,12.35h-.73l5-12.35h2.38l-6.5,15.23a10.23,10.23,0,0,1-1.23,2.25,7.32,7.32,0,0,1-1.44,1.49,6.94,6.94,0,0,1-1.7.91A12.53,12.53,0,0,1,812.93,563.81Z" fill="#1c2126"/><path d="M828.35,557.45v-10.8c0-.53,0-1.06-.07-1.61s-.1-1.1-.15-1.64h2.18l.28,3.08h-.33a4.86,4.86,0,0,1,2-2.48,5.81,5.81,0,0,1,3.15-.85,5,5,0,0,1,3.77,1.33,5.86,5.86,0,0,1,1.27,4.18v8.79h-2.27V548.8a4.31,4.31,0,0,0-.8-2.9,3.13,3.13,0,0,0-2.47-.91,4.06,4.06,0,0,0-3.11,1.21,4.44,4.44,0,0,0-1.15,3.22v8Z" fill="#1c2126"/><path d="M844.76,557.45v-10.8c0-.53,0-1.06-.07-1.61s-.1-1.1-.15-1.64h2.18l.28,3.08h-.33a4.81,4.81,0,0,1,2-2.48,5.76,5.76,0,0,1,3.15-.85,4.94,4.94,0,0,1,3.76,1.33,5.86,5.86,0,0,1,1.28,4.18v8.79h-2.27V548.8a4.37,4.37,0,0,0-.8-2.9,3.13,3.13,0,0,0-2.47-.91,4.06,4.06,0,0,0-3.11,1.21,4.44,4.44,0,0,0-1.15,3.22v8Z" fill="#1c2126"/><path d="M866.52,557.71a6,6,0,0,1-3.28-.89,5.78,5.78,0,0,1-2.17-2.5,10.31,10.31,0,0,1,0-7.82,5.75,5.75,0,0,1,2.17-2.49,6.08,6.08,0,0,1,3.28-.86,5.64,5.64,0,0,1,3.29,1,4.56,4.56,0,0,1,1.83,2.62h-.34l.31-3.33h2.19c-.06.54-.11,1.08-.16,1.64s-.07,1.08-.07,1.61v10.8H871.3v-3.3h.31a4.42,4.42,0,0,1-1.85,2.6A5.57,5.57,0,0,1,866.52,557.71Zm.44-1.85a4,4,0,0,0,3.2-1.39,7.63,7.63,0,0,0,0-8.12,4.34,4.34,0,0,0-6.37,0,7.52,7.52,0,0,0,0,8.12A4,4,0,0,0,867,555.86Z" fill="#1c2126"/><path d="M878,557.45v-10.8c0-.53,0-1.06-.07-1.61s-.1-1.1-.15-1.64h2.18l.28,3.08h-.34a4.83,4.83,0,0,1,2-2.48,5.76,5.76,0,0,1,3.15-.85,5,5,0,0,1,3.76,1.33,5.86,5.86,0,0,1,1.28,4.18v8.79h-2.27V548.8a4.37,4.37,0,0,0-.8-2.9,3.15,3.15,0,0,0-2.48-.91,4.09,4.09,0,0,0-3.11,1.21,4.48,4.48,0,0,0-1.14,3.22v8Z" fill="#1c2126"/><path d="M899.7,557.71a5.93,5.93,0,0,1-3.25-.89,5.72,5.72,0,0,1-2.17-2.5,10.31,10.31,0,0,1,0-7.82,5.69,5.69,0,0,1,2.17-2.49,6,6,0,0,1,3.25-.86,5.66,5.66,0,0,1,3.29,1,4.61,4.61,0,0,1,1.86,2.57h-.34v-9.83h2.27v20.61h-2.24v-3.36h.31a4.58,4.58,0,0,1-1.85,2.65A5.71,5.71,0,0,1,899.7,557.71Zm.47-1.85a4,4,0,0,0,3.19-1.39,7.42,7.42,0,0,0,0-8.12,4.34,4.34,0,0,0-6.37,0,7.52,7.52,0,0,0,0,8.12A4,4,0,0,0,900.17,555.86Z" fill="#1c2126"/><path d="M916.16,557.71a4,4,0,0,1-3.16-1.2,5.14,5.14,0,0,1-1.1-3.59v-7.76h-2.74V543.4h2.74v-3.84l2.27-.64v4.48h4v1.76h-4v7.51a3.81,3.81,0,0,0,.58,2.39,2.05,2.05,0,0,0,1.72.71,4,4,0,0,0,.95-.1,4.87,4.87,0,0,0,.76-.23v1.9a5,5,0,0,1-.94.27A6.78,6.78,0,0,1,916.16,557.71Z" fill="#1c2126"/><path d="M926.6,557.71a6.78,6.78,0,0,1-3.51-.89,5.77,5.77,0,0,1-2.31-2.52,9.72,9.72,0,0,1,0-7.77,5.89,5.89,0,0,1,2.31-2.5,6.78,6.78,0,0,1,3.51-.88,6.85,6.85,0,0,1,3.55.88,6,6,0,0,1,2.32,2.5,9.51,9.51,0,0,1,0,7.77,5.91,5.91,0,0,1-2.32,2.52A6.85,6.85,0,0,1,926.6,557.71Zm0-1.85a4,4,0,0,0,3.2-1.39,7.63,7.63,0,0,0,0-8.12,4,4,0,0,0-3.2-1.39,4,4,0,0,0-3.16,1.39,7.57,7.57,0,0,0,0,8.12A3.92,3.92,0,0,0,926.6,555.86Z" fill="#1c2126"/><path d="M936.82,557.45v-10.8c0-.53,0-1.06-.07-1.61s-.09-1.1-.15-1.64h2.18l.28,3.08h-.33a4.86,4.86,0,0,1,2-2.48,5.81,5.81,0,0,1,3.15-.85,5,5,0,0,1,3.77,1.33,5.86,5.86,0,0,1,1.27,4.18v8.79h-2.27V548.8a4.37,4.37,0,0,0-.79-2.9,3.17,3.17,0,0,0-2.48-.91,4.08,4.08,0,0,0-3.11,1.21,4.44,4.44,0,0,0-1.15,3.22v8Z" fill="#1c2126"/><path d="M953,540.21v-2.55h2.8v2.55Zm.28,17.24V543.4h2.27v14.05Z" fill="#1c2126"/><path d="M965.8,557.71a6.91,6.91,0,0,1-3.59-.9,6,6,0,0,1-2.36-2.55,8.68,8.68,0,0,1-.82-3.92,8.32,8.32,0,0,1,.84-3.9,5.7,5.7,0,0,1,2.36-2.45,7.19,7.19,0,0,1,3.57-.84,7.35,7.35,0,0,1,2.62.47,5.79,5.79,0,0,1,2.12,1.34l-.82,1.63a5.77,5.77,0,0,0-1.83-1.21,5.29,5.29,0,0,0-1.95-.39,4.24,4.24,0,0,0-3.38,1.38,5.85,5.85,0,0,0-1.21,4,6,6,0,0,0,1.21,4,4.18,4.18,0,0,0,3.38,1.43,5.4,5.4,0,0,0,1.92-.37,5.28,5.28,0,0,0,1.86-1.2l.82,1.6a5.71,5.71,0,0,1-2.16,1.37A7.35,7.35,0,0,1,965.8,557.71Z" fill="#1c2126"/><path d="M167.16,562a13.84,13.84,0,0,1-5-.86,10.71,10.71,0,0,1-3.84-2.45,10.88,10.88,0,0,1-2.46-3.85,13.81,13.81,0,0,1-.87-5,13.54,13.54,0,0,1,.9-5,11,11,0,0,1,2.57-3.91,11.82,11.82,0,0,1,4-2.53,13.78,13.78,0,0,1,5.07-.9,13.49,13.49,0,0,1,4.55.74,10.32,10.32,0,0,1,3.54,2.12,9.19,9.19,0,0,1,2.28,3.27,11,11,0,0,1,.8,4.26,11.66,11.66,0,0,1-.7,4.2,6.47,6.47,0,0,1-1.93,2.77,4.58,4.58,0,0,1-2.92,1,3.2,3.2,0,0,1-2.54-1,3.31,3.31,0,0,1-.73-2.61l.5.14a5.71,5.71,0,0,1-2,2.56,4.85,4.85,0,0,1-2.78.88,4.34,4.34,0,0,1-3.43-1.36,5.34,5.34,0,0,1-1.22-3.73,8.11,8.11,0,0,1,.8-3.69,6.27,6.27,0,0,1,2.19-2.52,5.81,5.81,0,0,1,3.2-.91,4.15,4.15,0,0,1,2.59.76,3.55,3.55,0,0,1,1.3,2.13h-.34l.48-2.64H173l-1.29,7.26c0,.24-.07.47-.1.7a4.55,4.55,0,0,0,0,.61,2,2,0,0,0,.43,1.4,1.68,1.68,0,0,0,1.3.48,2.73,2.73,0,0,0,2-.81,5.5,5.5,0,0,0,1.32-2.26,10.66,10.66,0,0,0,.48-3.37,9.37,9.37,0,0,0-.68-3.64,7.53,7.53,0,0,0-1.93-2.77,8.6,8.6,0,0,0-3-1.77,11.69,11.69,0,0,0-3.9-.61,11.87,11.87,0,0,0-4.41.77,9.65,9.65,0,0,0-3.39,2.18,9.53,9.53,0,0,0-2.17,3.4,12.26,12.26,0,0,0-.76,4.43,12,12,0,0,0,1.26,5.68,8.62,8.62,0,0,0,3.6,3.65,11.32,11.32,0,0,0,5.5,1.28,12.11,12.11,0,0,0,4.23-.71,8.25,8.25,0,0,0,3.14-2l.92,1.37a8.83,8.83,0,0,1-3.54,2.18A14.47,14.47,0,0,1,167.16,562Zm-1.34-7.84a3.78,3.78,0,0,0,2.29-.74,5,5,0,0,0,1.59-2.06,7.5,7.5,0,0,0,.57-3,3.47,3.47,0,0,0-.7-2.38,2.83,2.83,0,0,0-2.21-.78,4,4,0,0,0-2.31.7,4.73,4.73,0,0,0-1.61,1.93,6.58,6.58,0,0,0-.59,2.86,3.85,3.85,0,0,0,.77,2.57A2.74,2.74,0,0,0,165.82,554.18Z" fill="#1c2126"/><path d="M184,557.45v-2h4.65V539.7h1.23l-5.43,3.39v-2.33l4.84-3h1.68v17.75h4.37v2Z" fill="#1c2126"/><path d="M200.76,557.45v-2h4.65V539.7h1.23l-5.43,3.39v-2.33l4.84-3h1.68v17.75h4.37v2Z" fill="#1c2126"/><path d="M221.2,557.71a4.06,4.06,0,0,1-3.16-1.2,5.14,5.14,0,0,1-1.09-3.59v-7.76H214.2V543.4H217v-3.84l2.26-.64v4.48h4v1.76h-4v7.51a3.88,3.88,0,0,0,.58,2.39,2.05,2.05,0,0,0,1.72.71,4,4,0,0,0,1-.1,4.87,4.87,0,0,0,.76-.23v1.9a4.82,4.82,0,0,1-.94.27A6.57,6.57,0,0,1,221.2,557.71Z" fill="#1c2126"/><path d="M225.63,563.81l-.54-1.88a11.39,11.39,0,0,0,2.2-.71,4.26,4.26,0,0,0,1.47-1.08,6.19,6.19,0,0,0,1-1.68l.73-1.65-.06,1-6.13-14.36h2.46l5.07,12.35h-.73l5-12.35h2.38L232,558.63a10.23,10.23,0,0,1-1.23,2.25,7.32,7.32,0,0,1-1.44,1.49,6.94,6.94,0,0,1-1.7.91A12.53,12.53,0,0,1,225.63,563.81Z" fill="#1c2126"/><path d="M27.75,606.92v12.14H25v-2.13l-4.7-5.41v7.54H17.63V606.92H20L25,612.77v-5.85Z" fill="#1c2126"/><path d="M38.37,615.33H31.76a1.92,1.92,0,0,0,2,1.81,1.81,1.81,0,0,0,1.74-.8H38.2a4.35,4.35,0,0,1-4.44,2.88,4.63,4.63,0,1,1,0-9.26,4.32,4.32,0,0,1,4.62,4.61Zm-6.58-1.71h3.94a1.87,1.87,0,0,0-2-1.58A2,2,0,0,0,31.79,613.62Z" fill="#1c2126"/><path d="M44.93,612.23H43v6.83H40.5v-6.83H38.82v-2.11H40.5V607.3H43v2.82h1.93Z" fill="#1c2126"/><path d="M48.9,606.34v12.72H46.4V606.34Z" fill="#1c2126"/><path d="M53.62,607.59a1.5,1.5,0,1,1-3,0,1.5,1.5,0,1,1,3,0Zm-.24,2.32v9.15h-2.5v-9.15a2.06,2.06,0,0,0,1.25.37A2,2,0,0,0,53.38,609.91Z" fill="#1c2126"/><path d="M58.55,609v1.09h1.87v2.11H58.55v6.83h-2.5v-6.83H54.61v-2.11h1.44V609a2.62,2.62,0,0,1,2.88-2.83h1.75v1.94H59.44A.78.78,0,0,0,58.55,609Z" fill="#1c2126"/><path d="M70.71,610.12l-5,11.89H63.33l1.38-3.28-3.49-8.61h2.51L66,615.69l2.32-5.57Z" fill="#1c2126"/><path d="M109.4,613c0,3.92-2.34,6.22-5.8,6.22s-5.79-2.3-5.79-6.22,2.33-6.25,5.79-6.25S109.4,609.08,109.4,613Zm-8.79,0c0,2.35,1.3,3.66,3,3.66s3-1.31,3-3.66-1.32-3.67-3-3.67S100.61,610.63,100.61,613Z" fill="#1c2126"/><path d="M120.32,610.53h-2.8c0-.89-.67-1.52-1.85-1.52s-1.7.55-1.7,1.23.38,1,1.49,1.3l1.37.32c2.64.59,3.73,1.73,3.73,3.73s-1.6,3.63-4.73,3.63-4.9-1.61-4.9-4h2.8a1.88,1.88,0,0,0,2.11,1.84c1.27,0,1.92-.63,1.92-1.44s-.38-1.09-1.57-1.35l-1.32-.27c-2.77-.56-3.72-1.87-3.72-3.73,0-2.06,1.6-3.54,4.58-3.54S120.32,608.29,120.32,610.53Z" fill="#1c2126"/><path d="M131.38,610.53h-2.8c0-.89-.67-1.52-1.86-1.52-1,0-1.69.55-1.69,1.23s.38,1,1.48,1.3l1.38.32c2.64.59,3.73,1.73,3.73,3.73s-1.6,3.63-4.74,3.63-4.9-1.61-4.9-4h2.81a1.88,1.88,0,0,0,2.11,1.84c1.26,0,1.92-.63,1.92-1.44s-.39-1.09-1.57-1.35l-1.33-.27c-2.77-.56-3.71-1.87-3.71-3.73,0-2.06,1.6-3.54,4.58-3.54S131.38,608.29,131.38,610.53Z" fill="#1c2126"/><path d="M91.16,610.11a3.71,3.71,0,0,0-1-1.22,4,4,0,0,0-2.5-1.14,3.62,3.62,0,0,0-2.51,1.37,8,8,0,0,0-1.41,2.21,6.53,6.53,0,0,0-2.39-2.73,4.07,4.07,0,0,0-3.57-.35,3,3,0,0,0-1.83,3,5.09,5.09,0,0,0,2,2.88q3.32,3,6.72,5.87l5-5.64C90.67,613.14,91.8,611.56,91.16,610.11Z" fill="#ff6b60" stroke="#ff6b60" stroke-linejoin="round"/></svg>