<svg xmlns="http://www.w3.org/2000/svg" xmlns:xlink="http://www.w3.org/1999/xlink" width="1200" height="630" viewBox="0 0 1200 630"><defs><radialGradient id="a" cx="1097.44" cy="565" r="111.35" gradientUnits="userSpaceOnUse"><stop offset="0" stop-color="#20c6b7"/><stop offset="1" stop-color="#4d9abf"/></radialGradient></defs><rect x="-1290.07" y="-1558.85" width="6221.73" height="2273.11" fill="#a6a6a6"/><rect width="1200" height="498.72" fill="#5cebdf"/><g opacity="0.5"><path d="M1081.51,402.93a12.28,12.28,0,0,1,12.28,12.28V568.57a12.28,12.28,0,0,1-12.28,12.28H689a12.28,12.28,0,0,1-12.28-12.28V415.21A12.28,12.28,0,0,1,689,402.93h392.5m0-12H689a24.3,24.3,0,0,0-24.28,24.28V568.57A24.3,24.3,0,0,0,689,592.85h392.5a24.3,24.3,0,0,0,24.28-24.28V415.21a24.3,24.3,0,0,0-24.28-24.28Z" fill="#bffde7"/></g><polygon points="851.27 273.48 823.44 233.49 795 273.48 810.65 273.48 810.65 551.52 835.61 551.52 835.61 273.48 851.27 273.48" fill="#db4648" stroke="#1c2126" stroke-linejoin="round" stroke-width="2"/><polygon points="876.2 281.42 848.38 241.43 819.94 281.42 835.59 281.42 835.59 559.46 860.55 559.46 860.55 281.42 876.2 281.42" fill="#ff6b60" stroke="#1c2126" stroke-linejoin="round" stroke-width="2"/><polygon points="901.19 289.35 873.36 249.36 844.92 289.35 860.58 289.35 860.58 567.39 885.54 567.39 885.54 289.35 901.19 289.35" fill="#ffd3bf" stroke="#1c2126" stroke-linejoin="round" stroke-width="2"/><polygon points="926.07 293.44 898.24 253.45 869.8 293.44 885.45 293.44 885.45 571.48 910.41 571.48 910.41 293.44 926.07 293.44" fill="#fff6d0" stroke="#1c2126" stroke-linejoin="round" stroke-width="2"/><polygon points="951 289.35 923.18 249.36 894.74 289.35 910.39 289.35 910.39 567.39 935.35 567.39 935.35 289.35 951 289.35" fill="#ffdd73" stroke="#1c2126" stroke-linejoin="round" stroke-width="2"/><polygon points="975.99 284.22 948.16 244.23 919.72 284.22 935.38 284.22 935.38 562.26 960.34 562.26 960.34 284.22 975.99 284.22" fill="#ffb916" stroke="#1c2126" stroke-linejoin="round" stroke-width="2"/><rect x="676.73" y="402.93" width="417.07" height="177.92" rx="12.28" fill="#054861" stroke="#1c2126" stroke-miterlimit="10" stroke-width="2"/><polygon points="954.63 447.9 810.09 447.9 810.09 427.86 954.63 427.86 967.03 437.88 954.63 447.9" fill="#5cebdf" stroke="#1c2126" stroke-linejoin="round" stroke-width="2"/><polygon points="843.9 447.9 699.36 447.9 699.36 427.86 843.9 427.86 856.3 437.88 843.9 447.9" fill="#30c8c9" stroke="#1c2126" stroke-linejoin="round" stroke-width="2"/><polyline points="699.36 465.77 707.14 472.05 699.36 478.34" fill="none" stroke="#30c8c9" stroke-linecap="round" stroke-linejoin="round" stroke-width="2"/><rect x="716.25" y="460.57" width="14.54" height="22.61" fill="#30c8c9"/><path d="M1068.56,126.61c-8.12-3.61-17.33-3.56-26.22-3.44l-29.6.39c-2.71,0-5.78-.07-7.58-2.1s-1.59-4.9-1.56-7.53c.33-25.46-23.26-47.49-48.65-49.4s-50.13,13.52-63.6,35.12C875.25,79.35,851.12,62.87,825.3,65c-25.28,2.07-48.24,28.47-40.47,52.29-7.49-6.88-15.23-13.88-24.73-17.47-12.71-4.8-28.38-2.27-37.64,7.66s-10.19,27.17-.74,36.93a36.74,36.74,0,0,0-40,6c-10.48,9.78-13,26.58-4.68,39s41.84,6.37,64,.29c-3.85,20.1,17.65,37.9,38.12,37.84s38.73-12.28,54.83-24.91a108.88,108.88,0,0,0,63.61,33.68c11.56,1.71,24,1.37,34.1-4.5s16.94-18.45,13.25-29.54a236.62,236.62,0,0,0,43.87,2c7.14-.35,15-1.33,19.86-6.52s3.89-15.84-3.09-17.38A77.19,77.19,0,0,0,1073,162c4.32-4,8.35-8.82,9.17-14.63C1083.42,138.58,1076.69,130.21,1068.56,126.61Z" fill="#fff" stroke="#1c2126" stroke-linejoin="round" stroke-width="2"/><path d="M189.78,167.62V186H178v-18.2l-18.69-34.94h12.74l12.05,22.27,12-22.27h12.39Z" fill="#1c2126"/><path d="M242.91,166.43c0,11.69-7.49,20.51-20.58,20.51s-20.66-8.82-20.66-20.51,7.49-20.51,20.66-20.51S242.91,154.74,242.91,166.43Zm-29.83,0c0,6.44,3.58,10.57,9.25,10.57s9.17-4.13,9.17-10.57-3.5-10.57-9.17-10.57S213.08,160,213.08,166.43Z" fill="#1c2126"/><path d="M283.86,146.83V186H272.94v-4.2a12.79,12.79,0,0,1-10.71,5.18c-8.61,0-14.22-6.44-14.22-18V146.83h10.93v20.09c0,6,2.73,9.31,6.93,9.31s7.07-3.57,7.07-9.24V146.83Z" fill="#1c2126"/><path d="M354.49,162.3H343a7.53,7.53,0,0,0-7.84-6.93c-5.18,0-8.75,4-8.75,11.06s3.57,11,8.75,11a7.53,7.53,0,0,0,7.84-6.86h11.48c-.28,9.1-8.05,16.38-19.32,16.38-12.61,0-20.17-8.19-20.17-20.51s7.56-20.51,20.17-20.51C346.44,145.92,354.21,153.13,354.49,162.3Z" fill="#1c2126"/><path d="M396.14,163.63V186H385.22v-4.27c-2.73,3.15-7,5-12.75,5-8.19,0-13.3-4.13-13.3-10.92,0-6.16,4.06-10.85,14.29-12.6l11.76-2c0-3.78-2.38-6-6.79-6s-6.31,1.82-6.59,4.83H360.78c.21-7.21,6.09-13.94,17.65-13.94C389.7,146.12,396.14,152.43,396.14,163.63Zm-10.92,5.88V169l-9,1.47c-4.69.77-5.87,2.38-5.87,4.41,0,1.75,1.67,3,4.83,3C381.23,177.84,385.22,174.48,385.22,169.51Z" fill="#1c2126"/><path d="M440.24,163.84V186H429.32v-20c0-6-2.87-9.38-7.28-9.38s-7.56,3.64-7.56,9.31V186H403.55V146.83h10.93v4.41c2.17-3.16,6.16-5.32,11.13-5.32C434.5,145.92,440.24,152.29,440.24,163.84Z" fill="#1c2126"/><path d="M454.72,138.28c0,5.68-2.87,9.88-9.45,12l-1.47.5-1.68-5.19,1.47-.42c3.08-.91,4.69-2.24,5.32-4.27a7.75,7.75,0,0,1-1.33.14,5.62,5.62,0,0,1-5.95-5.6c0-3.36,2.45-5.81,6.16-5.81C452.13,129.6,454.72,133,454.72,138.28Z" fill="#1c2126"/><path d="M485.59,156.07h-8.47V186H466.2V156.07h-7.35v-9.24h7.35V134.5h10.92v12.33h8.47Z" fill="#1c2126"/><path d="M178.58,366.83,167.1,406h-11l-7.91-24.85-8,24.85H129.5L118,366.83h10.64L136,391.75l7.7-24.92h9.39l7.63,24.78,7.35-24.78Z" fill="#1c2126"/><path d="M193.69,355.76a6.55,6.55,0,1,1-13.09,0,6.55,6.55,0,1,1,13.09,0Zm-1.05,10.16v40H181.72v-40a9,9,0,0,0,5.46,1.61A8.8,8.8,0,0,0,192.64,365.92Z" fill="#1c2126"/><path d="M226,376.07h-8.48V406H206.64V376.07h-7.35v-9.24h7.35V354.5h10.92v12.33H226Z" fill="#1c2126"/><path d="M269.72,383.84V406H258.8v-20c0-6-2.87-9.38-7.28-9.38S244,380.2,244,385.87l-.07-.49V406H233V350.3H244v20.94c2.16-3.16,6.09-5.32,11.13-5.32C264,365.92,269.72,372.29,269.72,383.84Z" fill="#1c2126"/><path d="M316.41,386.43c0,11.69-7.49,20.51-20.58,20.51s-20.66-8.82-20.66-20.51,7.49-20.51,20.66-20.51S316.41,374.74,316.41,386.43Zm-29.83,0c0,6.44,3.58,10.57,9.25,10.57s9.17-4.13,9.17-10.57-3.5-10.57-9.17-10.57S286.58,380,286.58,386.43Z" fill="#1c2126"/><path d="M357.36,366.83V406H346.44v-4.2a12.79,12.79,0,0,1-10.71,5.18c-8.62,0-14.22-6.44-14.22-18V366.83h10.93v20.09c0,5.95,2.73,9.31,6.93,9.31s7.07-3.57,7.07-9.24V366.83Z" fill="#1c2126"/><path d="M390.12,376.07h-8.47V406H370.73V376.07h-7.35v-9.24h7.35V354.5h10.92v12.33h8.47Z" fill="#1c2126"/><path d="M430.65,364.93c0,3.36-2.45,5.82-6.16,5.82-4.35,0-6.94-3.37-6.94-8.69,0-5.67,2.87-9.87,9.46-12l1.47-.49,1.68,5.18-1.47.42c-3.08.91-4.69,2.24-5.32,4.27a7.75,7.75,0,0,1,1.33-.14A5.62,5.62,0,0,1,430.65,364.93Z" fill="#1c2126"/><path d="M472.09,366.83V406H461.17v-4.2a12.79,12.79,0,0,1-10.71,5.18c-8.62,0-14.22-6.44-14.22-18V366.83h10.93v20.09c0,5.95,2.72,9.31,6.93,9.31s7.07-3.57,7.07-9.24V366.83Z" fill="#1c2126"/><path d="M512.06,379.15H501.14c-.07-2.52-2.31-4.48-6-4.48s-5.46,1.33-5.46,3.15.84,2.73,5.25,3.5l5.25.84c10.08,1.68,12.74,6.23,12.74,12.18,0,7.63-6.09,12.46-17.15,12.46-11.91,0-17.86-5.67-17.86-13.51h10.86c.07,2.87,2.31,4.83,7.42,4.83,3.85,0,5.81-1.33,5.81-3.29s-1.12-3.15-5.67-3.92l-5.46-.91c-9.25-1.47-12.12-6.09-12.12-11.69,0-6.93,5.67-12.26,16.53-12.26S512.06,371.73,512.06,379.15Z" fill="#1c2126"/><path d="M528.22,358.28c0,5.68-2.87,9.88-9.45,12l-1.47.5-1.68-5.19,1.47-.42c3.08-.91,4.69-2.24,5.32-4.27a7.75,7.75,0,0,1-1.33.14,5.62,5.62,0,0,1-6-5.6c0-3.36,2.45-5.81,6.16-5.81C525.63,349.6,528.22,353,528.22,358.28Z" fill="#1c2126"/><rect x="125" y="220.61" width="397.09" height="92.15" rx="9.29" fill="#1c2126" opacity="0.15"/><path d="M145.86,294.38H154c.71,2.82,4.17,4.64,8.8,4.64,6.09,0,9.41-2.92,9.41-8.38v-7.06h-.71c-1.39,4.32-5.88,7.06-11.62,7.06-9,0-14.62-6.38-14.62-16.68v-6.38c0-10.37,5.67-16.68,14.94-16.68,5.67,0,10,2.71,11.44,7.06h.71v-6.38h8.16v39c0,9.16-6.73,14.72-17.82,14.72C153,305.29,146.57,301.12,145.86,294.38Zm17.07-11c5.6,0,9.2-3.89,9.2-10v-5.49c0-6.1-3.6-10-9.2-10s-9.23,3.88-9.23,10v5.49C153.7,279.52,157.3,283.41,162.93,283.41Z" fill="#1c2126"/><path d="M192.88,290.61V284h12.87V258.21H193.31v-6.63h20.53V284H226.1v6.63Zm10.62-53.36c0-3.35,2.5-5.67,6-5.67s6.05,2.32,6.05,5.67-2.49,5.66-6.05,5.66S203.5,240.6,203.5,237.25Z" fill="#1c2126"/><path d="M254.66,240.67v11.16h15.08v6.7H254.8v20.06c0,3.46,2.46,5.39,6.88,5.39,1.43,0,7.06,0,7.74-.11v6.63c-.65.11-7.21.21-8.38.21-10.27,0-14.51-3.49-14.51-12.15v-20H236.27v-6.7h10.26V240.67Z" fill="#1c2126"/><path d="M362.46,267.62v6.95c0,10.4-5.56,16.71-14.54,16.71-5.64,0-9.63-2.56-11.09-7h-.71v19.46h-8.56V251.58H336V258h.72c1.64-4.56,5.59-7.06,11.23-7.06C356.9,250.93,362.46,257.24,362.46,267.62Zm-26.52.53v6.13c0,6.13,3.46,10,9,10s9.05-3.85,9.05-10v-6.13c0-6.13-3.46-9.94-9.05-9.94S335.94,262,335.94,268.15Z" fill="#1c2126"/><path d="M406.31,290.61h-8v-6.67h-.57c-2,4.78-6.31,7.45-12.05,7.45-8.48,0-13.08-5.06-13.08-14.54V251.58h8.3v23.27c0,6.27,2.57,9.23,7.92,9.23,5.56,0,9.19-3.85,9.19-9.76V251.58h8.31Z" fill="#1c2126"/><path d="M434.62,250.72c8.94,0,14.61,4.13,15.15,11.16h-7.85c-.57-2.93-3.38-4.74-7.41-4.74s-6.92,1.92-6.92,4.84c0,2.5,1.79,3.93,6,4.85l5.81,1.25c7.8,1.67,11.26,5,11.26,10.84,0,7.59-6.24,12.47-16,12.47-9.55,0-15.61-4.24-16.18-11.3h8.23c.72,3.07,3.68,4.81,8.09,4.81s7.38-2,7.38-5c0-2.57-1.64-3.89-6.09-4.85l-5.85-1.28c-7.2-1.61-10.83-5.31-10.83-11.12C419.4,255.35,425.38,250.72,434.62,250.72Z" fill="#1c2126"/><path d="M462.78,236.5h8.06v21.81h.53c2-4.74,6.38-7.45,12.16-7.45,8.51,0,13.15,5.14,13.15,14.51v25.24h-8.31V267.4c0-6.24-2.6-9.27-8-9.27-5.63,0-9.34,3.93-9.34,9.84v22.64h-8.27Z" fill="#1c2126"/><path d="M857.15,146.25s10.17-10.49,20.66,0" fill="none" stroke="#1c2126" stroke-linecap="round" stroke-miterlimit="10" stroke-width="2"/><path d="M892.58,146.25s10.16-10.49,20.66,0" fill="none" stroke="#1c2126" stroke-linecap="round" stroke-miterlimit="10" stroke-width="2"/><path d="M863.19,158.52c.37,11.09,10.2,20,22.3,20s21.94-8.9,22.31-20Z" fill="#7a122d" stroke="#1c2126" stroke-linecap="round" stroke-linejoin="round" stroke-width="2"/><path d="M1057.2,76.1a7.3,7.3,0,0,0-1.15-2.92,7.82,7.82,0,0,0-4-3.67,7.16,7.16,0,0,0-5.55,1,15.62,15.62,0,0,0-4,3.28,12.82,12.82,0,0,0-2.83-6.59,8,8,0,0,0-6.5-2.84,5.86,5.86,0,0,0-5.24,4.43c-.45,2.31.75,4.58,1.93,6.62q4.38,7.65,9,15.15l12.83-7.52C1054.43,81.49,1057.51,79.21,1057.2,76.1Z" fill="#ff6b60" stroke="#1c2126" stroke-linejoin="round" stroke-width="2"/><path d="M767.13,49a8.58,8.58,0,0,0-3.56-1.45c-2.21-.49-4.66-.69-6.64.4s-3.22,3.5-3.79,5.8a19.26,19.26,0,0,0-.49,6.33A15.7,15.7,0,0,0,744.41,57a9.83,9.83,0,0,0-8,3.34,7.18,7.18,0,0,0-.52,8.4c1.67,2.36,4.7,3.22,7.5,3.92q10.5,2.59,21.08,4.86l4.23-17.76C769.55,56,770.15,51.34,767.13,49Z" fill="#ff6b60" stroke="#1c2126" stroke-linejoin="round" stroke-width="2"/><path d="M146.1,59.89c.1-3.74-3.25-6.83-6.85-7.86s-7.42-.53-11.15-.28a4.37,4.37,0,0,1-1.73-.12c-1.14-.41-1.73-1.64-2.3-2.72-2.84-5.31-5-9.45-14.33-9.85s-15.49,7.16-15.49,7.16c-3.46-2.81-7-5.68-11.19-7.21-5.53-2-12.32-1.32-16.51,2.83s-4.6,11.91-.1,15.73c-5.38,0-11,.15-15.7,2.8s-7.86,8.76-5.43,13.56c2.3,4.56,8.26,5.81,13.36,5.52A39.58,39.58,0,0,0,76,74.33c-.28,4.8,3,9.26,7.2,11.64s9.09,3,13.89,3.33c3.75.24,7.74.24,11-1.71s5.11-6.5,3-9.6c4.42-.07,8.59,1.83,12.89,2.84s9.42.91,12.41-2.34,1.19-10.06-3.22-9.85C138.78,68.1,146,65.64,146.1,59.89Z" fill="#fff" stroke="#1c2126" stroke-linejoin="round" stroke-width="2"/><path d="M1203.76,286a22,22,0,0,0-26.63,21.59c-4.5-3-11.11-2.8-14.85,1.07s-3.19,11.29,1.52,13.9a18.24,18.24,0,0,0-17.49,8.78c-1.53,2.63-2.32,6.05-.76,8.66a8.81,8.81,0,0,0,4.22,3.29,18.9,18.9,0,0,0,17.88-1.82c3,4.34,6.76,8.62,11.89,9.75s11.46-2.57,11.11-7.81a24.49,24.49,0,0,0,17.4,5.1" fill="#fff" stroke="#1c2126" stroke-linejoin="round" stroke-width="2"/><path d="M686.13,277.39a5.7,5.7,0,0,0-2.49-1.52,38.79,38.79,0,0,0-10.91-2.38c1.35-2.47,5.42-7.41,2.27-12.47s-18.26-2.63-23.7,3.25c0,0-4.8-8.09-15.49-5.89-5.27,1.08-10.38,4.78-11.12,10.11-3.22-2.94-7.71-4.76-12-3.92s-8,4.8-7.74,9.15C597.36,270.4,578,268,578,281.32a6.26,6.26,0,0,0,4.52,5.7c2.51.78,5.2.39,7.8,0a5.39,5.39,0,0,1,2.56.06,6,6,0,0,1,1.84,1.31,21.6,21.6,0,0,0,31.52-3.16,101.06,101.06,0,0,0,17.87,6.52c4,1,8.16,1.83,12.19,1s7.91-3.58,8.94-7.57c3.46,2.29,7.58,3.84,11.72,3.48s8.21-2.94,9.57-6.86A4.64,4.64,0,0,0,686.13,277.39Z" fill="#fff" stroke="#1c2126" stroke-linecap="round" stroke-linejoin="round" stroke-width="2"/><rect y="500" width="1200" height="130" fill="#fff"/><rect x="1097.49" y="500" width="102.51" height="130" fill="url(#a)"/><line y1="499.19" x2="1200" y2="499.19" fill="none" stroke="#1c2126" stroke-miterlimit="10"/><line x1="1097.49" y1="498.72" x2="1097.49" y2="630" fill="none" stroke="#1c2126" stroke-miterlimit="10"/><path d="M35.09,576.62V557.86H28.7v-2.38H44.05v2.38H37.67v18.76Z" fill="#1c2126"/><path d="M54.92,577.06c-4.8,0-7.75-3.46-7.75-9.3v-3.41c0-5.85,2.95-9.31,7.75-9.31s7.75,3.46,7.75,9.31v3.41C62.67,573.6,59.73,577.06,54.92,577.06Zm5.14-9.32v-3.38c0-4.41-1.93-6.87-5.14-6.87s-5.14,2.46-5.14,6.87v3.38c0,4.41,1.93,6.88,5.14,6.88S60.06,572.15,60.06,567.74Z" fill="#1c2126"/><path d="M70.82,562.75a2.65,2.65,0,1,1,2.65,2.71A2.7,2.7,0,0,1,70.82,562.75Zm0,11.25a2.65,2.65,0,1,1,2.65,2.71A2.69,2.69,0,0,1,70.82,574Z" fill="#1c2126"/><path d="M209.27,581.51a14.89,14.89,0,0,1-5.34-.91,11.41,11.41,0,0,1-6.75-6.75,14.91,14.91,0,0,1-.93-5.39,14.58,14.58,0,0,1,1-5.4,11.83,11.83,0,0,1,2.76-4.18,12.58,12.58,0,0,1,4.26-2.72,14.82,14.82,0,0,1,5.43-1,14.26,14.26,0,0,1,4.87.8,11,11,0,0,1,3.8,2.26,9.83,9.83,0,0,1,2.44,3.51,11.69,11.69,0,0,1,.86,4.56,12.33,12.33,0,0,1-.75,4.5,6.89,6.89,0,0,1-2.07,3,4.86,4.86,0,0,1-3.12,1.05,3.48,3.48,0,0,1-2.73-1,3.58,3.58,0,0,1-.78-2.81l.54.15a6.19,6.19,0,0,1-2.18,2.75,5.2,5.2,0,0,1-3,.94,4.69,4.69,0,0,1-3.68-1.45,5.79,5.79,0,0,1-1.3-4,8.75,8.75,0,0,1,.85-3.94,6.69,6.69,0,0,1,2.36-2.7,6.14,6.14,0,0,1,3.42-1,4.45,4.45,0,0,1,2.77.81,3.8,3.8,0,0,1,1.4,2.28H213l.51-2.82h2l-1.38,7.77c0,.26-.08.51-.11.75s0,.46,0,.66a2.16,2.16,0,0,0,.46,1.5,1.81,1.81,0,0,0,1.4.51,2.93,2.93,0,0,0,2.1-.87,5.81,5.81,0,0,0,1.41-2.41,11.59,11.59,0,0,0,.51-3.62,10.11,10.11,0,0,0-.72-3.9,8.21,8.21,0,0,0-2.07-3,9.34,9.34,0,0,0-3.23-1.89,12.51,12.51,0,0,0-4.18-.66,12.93,12.93,0,0,0-4.73.83,10.42,10.42,0,0,0-3.63,2.34,10.18,10.18,0,0,0-2.32,3.64,13.24,13.24,0,0,0-.81,4.74,12.85,12.85,0,0,0,1.35,6.09,9.3,9.3,0,0,0,3.86,3.92,12.09,12.09,0,0,0,5.89,1.36,12.82,12.82,0,0,0,4.53-.76,8.71,8.71,0,0,0,3.36-2.18l1,1.47a9.5,9.5,0,0,1-3.8,2.34A15.33,15.33,0,0,1,209.27,581.51Zm-1.44-8.4a4,4,0,0,0,2.46-.79,5.3,5.3,0,0,0,1.69-2.21,8,8,0,0,0,.62-3.21,3.73,3.73,0,0,0-.75-2.55,3,3,0,0,0-2.37-.84,4.29,4.29,0,0,0-2.48.75,5.1,5.1,0,0,0-1.72,2.07,7,7,0,0,0-.63,3.06,4.12,4.12,0,0,0,.82,2.76A3,3,0,0,0,207.83,573.11Z" fill="#1c2126"/><path d="M227.27,576.62v-2.13h5V557.6h1.32l-5.82,3.63v-2.49l5.19-3.27h1.8v19h4.68v2.13Z" fill="#1c2126"/><path d="M245.27,576.62v-2.13h5V557.6h1.32l-5.82,3.63v-2.49l5.19-3.27h1.8v19h4.68v2.13Z" fill="#1c2126"/><path d="M267.17,576.89a4.37,4.37,0,0,1-3.39-1.27,5.55,5.55,0,0,1-1.17-3.86v-8.31h-2.94v-1.89h2.94v-4.11l2.43-.69v4.8h4.32v1.89H265v8a4.16,4.16,0,0,0,.61,2.57,2.23,2.23,0,0,0,1.85.76,4.52,4.52,0,0,0,1-.1,5.14,5.14,0,0,0,.81-.26v2a4.69,4.69,0,0,1-1,.29A6.46,6.46,0,0,1,267.17,576.89Z" fill="#1c2126"/><path d="M271.91,583.43l-.57-2a12.5,12.5,0,0,0,2.35-.76,4.67,4.67,0,0,0,1.58-1.16,6.51,6.51,0,0,0,1.08-1.8l.78-1.77-.06,1-6.57-15.39h2.64l5.43,13.23h-.78l5.37-13.23h2.55l-7,16.32a11.58,11.58,0,0,1-1.32,2.42,7.58,7.58,0,0,1-1.55,1.59,7,7,0,0,1-1.81,1A13.08,13.08,0,0,1,271.91,583.43Z" fill="#1c2126"/><circle cx="135.29" cy="563.72" r="40" fill="#1c2126"/><path d="M1163.33,555.54h0l0,0a.19.19,0,0,1,0-.15l1.25-7.62,5.84,5.85-6.08,2.58h-.08l0,0A2.57,2.57,0,0,0,1163.33,555.54Zm8.48-.46,6.25,6.25c1.3,1.3,2,1.95,2.19,2.7l.09.33L1165.4,558h0c-.06,0-.12,0-.12-.11s.07-.1.13-.12h0Zm8.27,11.29a11.28,11.28,0,0,1-2,2.3l-7,7.05-9.12-1.9h0c-.09,0-.17,0-.17-.1a2.75,2.75,0,0,0-1.06-1.93s0-.09,0-.14v0l1.71-10.52v0c0-.08,0-.17.1-.17a2.81,2.81,0,0,0,1.87-1.07.1.1,0,0,1,0,0,.22.22,0,0,1,.17,0l15.56,6.58Zm-10.68,11-11.59,11.58,2-12.19h0a.09.09,0,0,1,0-.05s0,0,.09-.07h0a2.88,2.88,0,0,0,1.12-.83.25.25,0,0,1,.15-.1h0l8.16,1.68Zm-14,14-1.31,1.3-14.44-20.87,0,0a.18.18,0,0,1,0-.1s0,0,0-.06v0a2.12,2.12,0,0,0,.12-.2l0-.06h0a.27.27,0,0,1,.08-.1.17.17,0,0,1,.12,0l16,3.3a.18.18,0,0,1,.12.05.09.09,0,0,1,0,.07,2.81,2.81,0,0,0,1.66,1.89s0,.08,0,.13l0,.07C1157.55,578,1155.82,588.53,1155.36,591.38Zm-2.73,2.72a6.1,6.1,0,0,1-2.17,1.67,3.24,3.24,0,0,1-2,0c-.75-.24-1.4-.89-2.7-2.19l-14.5-14.5,3.79-5.88a.2.2,0,0,1,.06-.07.16.16,0,0,1,.15,0A3.93,3.93,0,0,0,1138,573s.09,0,.12,0l0,0,14.51,21.06Zm-22.72-16.42-3.32-3.33,6.57-2.8h0s.09.05.11.1l.21.3,0,0a.09.09,0,0,1,0,.08l-3.63,5.63Zm-4.8-4.8-4.21-4.21c-.71-.71-1.23-1.23-1.59-1.68l12.8,2.65h0c.08,0,.17,0,.17.1s-.1.12-.18.15l0,0Zm-6.54-8a3.54,3.54,0,0,1,.15-.8c.24-.75.89-1.4,2.18-2.7l5.39-5.39q3.72,5.4,7.46,10.78c0,.06.09.13,0,.18a4.35,4.35,0,0,0-.63.85.28.28,0,0,1-.09.1H1133l-14.43-3Zm9.16-10.33,7.24-7.24c.68.3,3.16,1.34,5.38,2.28l3.68,1.56a.17.17,0,0,1,.11.09.12.12,0,0,1,0,.1,3.22,3.22,0,0,0,.85,2.94s0,.12,0,.18l0,0-7.35,11.38a.31.31,0,0,1-.07.09.22.22,0,0,1-.14,0,3.2,3.2,0,0,0-.87-.12,5.05,5.05,0,0,0-.84.1h0s-.06,0-.08,0a.3.3,0,0,1-.08-.08l-7.75-11.31Zm8.71-8.7,9.37-9.38c1.3-1.3,2-1.95,2.7-2.19a3.24,3.24,0,0,1,2,0c.75.24,1.4.89,2.7,2.19l2,2-6.67,10.33-.07.08a.22.22,0,0,1-.14,0,3.39,3.39,0,0,0-3.1.59s-.11,0-.16,0C1144.18,549.07,1137.41,546.21,1136.44,545.8Zm20.16-5.93,6.16,6.15-1.48,9.19v0a.14.14,0,0,1,0,.06s0,0-.08.05a2.8,2.8,0,0,0-.88.44l0,0a.1.1,0,0,1-.07,0s0,0-.07,0l-9.38-4h0c-.06,0-.13-.05-.13-.12a3.39,3.39,0,0,0-.5-1.47c0-.08-.09-.15,0-.23Zm-6.34,13.88,8.8,3.72a.19.19,0,0,1,.12.09.17.17,0,0,1,0,.1,1.79,1.79,0,0,0,0,.42v.25c0,.06-.06.08-.12.11h0l-19.58,8.35a.11.11,0,0,1-.09,0s0-.12,0-.18l0,0,7.23-11.19v0c0-.07.09-.15.17-.15l.07,0a3.75,3.75,0,0,0,.45,0,3.25,3.25,0,0,0,2.73-1.45l0-.06A.15.15,0,0,1,1150.26,553.75Zm-10.07,14.81,19.8-8.45a.09.09,0,0,1,.06,0,2.82,2.82,0,0,0,.29.25l0,0s.08.05.09.1a.08.08,0,0,1,0,0L1158.77,571v0c0,.08,0,.17-.1.17a2.75,2.75,0,0,0-2.21,1.37h0a.18.18,0,0,1-.08.09.14.14,0,0,1-.11,0l-15.8-3.25S1140.21,568.56,1140.19,568.56Z" fill="#fff"/><line x1="548.51" y1="498.72" x2="548.51" y2="630" fill="none" stroke="#1c2126" stroke-miterlimit="10"/><path d="M584.7,576.62V555.48h12.46v2.38h-9.87v7.25h9v2.3h-9v9.21Z" fill="#1c2126"/><path d="M604.74,568.2v8.42h-2.55V555.48h7.09c4.19,0,6.81,2.44,6.81,6.36a5.91,5.91,0,0,1-3.94,5.83l4.31,9h-2.92l-3.94-8.42Zm0-2.18h4.19c2.91,0,4.55-1.48,4.55-4.12s-1.61-4.12-4.44-4.12h-4.3Z" fill="#1c2126"/><path d="M627.34,577.06c-4.8,0-7.75-3.46-7.75-9.3v-3.41c0-5.85,2.95-9.31,7.75-9.31s7.75,3.46,7.75,9.31v3.41C635.09,573.6,632.14,577.06,627.34,577.06Zm5.14-9.32v-3.38c0-4.41-1.93-6.87-5.14-6.87s-5.14,2.46-5.14,6.87v3.38c0,4.41,1.93,6.88,5.14,6.88S632.48,572.15,632.48,567.74Z" fill="#1c2126"/><path d="M640.57,576.62h-2.3V555.48h2.88l4.65,13.13H646l4.61-13.13h2.9v21.14h-2.3v-8.11l.13-8.56h-.19l-4.25,11.71h-2L640.62,560h-.18l.13,8.56Z" fill="#1c2126"/><path d="M661.78,562.75a2.65,2.65,0,1,1,2.65,2.71A2.7,2.7,0,0,1,661.78,562.75Zm0,11.25a2.65,2.65,0,1,1,2.65,2.71A2.69,2.69,0,0,1,661.78,574Z" fill="#1c2126"/><path d="M804.86,581.51a14.89,14.89,0,0,1-5.34-.91,11.41,11.41,0,0,1-6.75-6.75,14.91,14.91,0,0,1-.93-5.39,14.58,14.58,0,0,1,1-5.4,11.83,11.83,0,0,1,2.76-4.18,12.58,12.58,0,0,1,4.26-2.72,14.82,14.82,0,0,1,5.43-1,14.31,14.31,0,0,1,4.88.8,11,11,0,0,1,3.79,2.26,10,10,0,0,1,2.45,3.51,11.69,11.69,0,0,1,.85,4.56,12.33,12.33,0,0,1-.75,4.5,6.89,6.89,0,0,1-2.07,3,4.86,4.86,0,0,1-3.12,1.05,3.48,3.48,0,0,1-2.73-1,3.58,3.58,0,0,1-.78-2.81l.54.15a6.18,6.18,0,0,1-2.17,2.75,5.24,5.24,0,0,1-3,.94,4.67,4.67,0,0,1-3.67-1.45,5.8,5.8,0,0,1-1.31-4,8.75,8.75,0,0,1,.86-3.94,6.66,6.66,0,0,1,2.35-2.7,6.14,6.14,0,0,1,3.42-1,4.48,4.48,0,0,1,2.78.81,3.79,3.79,0,0,1,1.39,2.28h-.36l.51-2.82h2l-1.38,7.77c0,.26-.07.51-.1.75a5.42,5.42,0,0,0,0,.66,2.16,2.16,0,0,0,.47,1.5,1.78,1.78,0,0,0,1.39.51,2.93,2.93,0,0,0,2.1-.87,5.81,5.81,0,0,0,1.41-2.41,11.59,11.59,0,0,0,.51-3.62,10.11,10.11,0,0,0-.72-3.9,8.21,8.21,0,0,0-2.07-3,9.29,9.29,0,0,0-3.22-1.89,12.57,12.57,0,0,0-4.19-.66,12.88,12.88,0,0,0-4.72.83,10.42,10.42,0,0,0-3.63,2.34,10.21,10.21,0,0,0-2.33,3.64,13.24,13.24,0,0,0-.81,4.74,12.85,12.85,0,0,0,1.35,6.09,9.35,9.35,0,0,0,3.86,3.92,12.12,12.12,0,0,0,5.89,1.36,12.82,12.82,0,0,0,4.53-.76,8.71,8.71,0,0,0,3.36-2.18l1,1.47A9.46,9.46,0,0,1,810,580.7,15.39,15.39,0,0,1,804.86,581.51Zm-1.44-8.4a4,4,0,0,0,2.46-.79,5.31,5.31,0,0,0,1.7-2.21,8,8,0,0,0,.61-3.21,3.73,3.73,0,0,0-.75-2.55,3,3,0,0,0-2.37-.84,4.26,4.26,0,0,0-2.47.75,5.12,5.12,0,0,0-1.73,2.07,7,7,0,0,0-.63,3.06,4.12,4.12,0,0,0,.83,2.76A2.93,2.93,0,0,0,803.42,573.11Z" fill="#1c2126"/><path d="M821.42,576.62V554.54h2.43v22.08Z" fill="#1c2126"/><path d="M828,583.43l-.57-2a12.62,12.62,0,0,0,2.36-.76,4.63,4.63,0,0,0,1.57-1.16,6.51,6.51,0,0,0,1.08-1.8l.78-1.77-.06,1-6.57-15.39h2.64l5.43,13.23h-.78l5.37-13.23h2.55l-7,16.32a11.58,11.58,0,0,1-1.32,2.42,7.55,7.55,0,0,1-1.54,1.59,7.06,7.06,0,0,1-1.82,1A13.08,13.08,0,0,1,828,583.43Z" fill="#1c2126"/><path d="M844.49,576.62V565c0-.56,0-1.13-.07-1.72s-.11-1.18-.17-1.76h2.34l.3,3.3h-.36a5.21,5.21,0,0,1,2.12-2.65,6.19,6.19,0,0,1,3.37-.92,5.35,5.35,0,0,1,4,1.43,6.29,6.29,0,0,1,1.36,4.48v9.42H855v-9.27a4.63,4.63,0,0,0-.85-3.1,3.36,3.36,0,0,0-2.66-1,4.38,4.38,0,0,0-3.33,1.29,4.79,4.79,0,0,0-1.23,3.45v8.61Z" fill="#1c2126"/><path d="M862.07,576.62V565c0-.56,0-1.13-.07-1.72s-.11-1.18-.17-1.76h2.34l.3,3.3h-.36a5.21,5.21,0,0,1,2.12-2.65,6.19,6.19,0,0,1,3.37-.92,5.35,5.35,0,0,1,4,1.43A6.29,6.29,0,0,1,875,567.2v9.42h-2.43v-9.27a4.63,4.63,0,0,0-.85-3.1,3.36,3.36,0,0,0-2.66-1,4.38,4.38,0,0,0-3.33,1.29A4.79,4.79,0,0,0,864.5,568v8.61Z" fill="#1c2126"/><path d="M885.38,576.89a6.44,6.44,0,0,1-3.51-.94,6.25,6.25,0,0,1-2.32-2.69,11,11,0,0,1,0-8.37,6.14,6.14,0,0,1,2.32-2.67,6.52,6.52,0,0,1,3.51-.93,6,6,0,0,1,3.53,1,4.85,4.85,0,0,1,2,2.8h-.36l.33-3.57h2.34c-.06.58-.11,1.17-.16,1.76s-.08,1.16-.08,1.72v11.58h-2.43v-3.54h.33a4.78,4.78,0,0,1-2,2.79A6,6,0,0,1,885.38,576.89Zm.48-2a4.25,4.25,0,0,0,3.42-1.48,8.14,8.14,0,0,0,0-8.7,4.65,4.65,0,0,0-6.82,0,8,8,0,0,0,0,8.7A4.25,4.25,0,0,0,885.86,574.91Z" fill="#1c2126"/><path d="M897.65,576.62V565c0-.56,0-1.13-.07-1.72s-.11-1.18-.17-1.76h2.34l.3,3.3h-.36a5.21,5.21,0,0,1,2.12-2.65,6.19,6.19,0,0,1,3.37-.92,5.35,5.35,0,0,1,4,1.43,6.29,6.29,0,0,1,1.36,4.48v9.42h-2.43v-9.27a4.63,4.63,0,0,0-.85-3.1,3.36,3.36,0,0,0-2.66-1,4.38,4.38,0,0,0-3.33,1.29,4.79,4.79,0,0,0-1.23,3.45v8.61Z" fill="#1c2126"/><path d="M920.93,576.89a6.39,6.39,0,0,1-3.48-.94,6.25,6.25,0,0,1-2.32-2.69,11,11,0,0,1,0-8.37,6.14,6.14,0,0,1,2.32-2.67,6.47,6.47,0,0,1,3.48-.93,6.09,6.09,0,0,1,3.53,1,4.93,4.93,0,0,1,2,2.76h-.36V554.54h2.43v22.08h-2.4V573h.33a4.86,4.86,0,0,1-2,2.84A6.08,6.08,0,0,1,920.93,576.89Zm.51-2a4.3,4.3,0,0,0,3.42-1.48,8,8,0,0,0,0-8.7,4.31,4.31,0,0,0-3.42-1.49,4.26,4.26,0,0,0-3.4,1.49,8,8,0,0,0,0,8.7A4.25,4.25,0,0,0,921.44,574.91Z" fill="#1c2126"/><path d="M938.57,576.89a4.37,4.37,0,0,1-3.39-1.27,5.55,5.55,0,0,1-1.17-3.86v-8.31h-2.94v-1.89H934v-4.11l2.43-.69v4.8h4.32v1.89h-4.32v8a4.16,4.16,0,0,0,.62,2.57,2.21,2.21,0,0,0,1.84.76,4.52,4.52,0,0,0,1-.1,5.14,5.14,0,0,0,.81-.26v2a4.59,4.59,0,0,1-1,.29A6.57,6.57,0,0,1,938.57,576.89Z" fill="#1c2126"/><path d="M949.76,576.89A7.26,7.26,0,0,1,946,576a6.3,6.3,0,0,1-2.48-2.7,10.4,10.4,0,0,1,0-8.33,6.31,6.31,0,0,1,2.48-2.68,7.27,7.27,0,0,1,3.76-1,7.37,7.37,0,0,1,3.8,1,6.39,6.39,0,0,1,2.49,2.68,10.3,10.3,0,0,1,0,8.33,6.39,6.39,0,0,1-2.49,2.7A7.36,7.36,0,0,1,949.76,576.89Zm0-2a4.25,4.25,0,0,0,3.42-1.48,8.14,8.14,0,0,0,0-8.7,4.64,4.64,0,0,0-6.81,0,8.14,8.14,0,0,0,0,8.7A4.21,4.21,0,0,0,949.76,574.91Z" fill="#1c2126"/><path d="M960.71,576.62V565c0-.56,0-1.13-.07-1.72s-.11-1.18-.17-1.76h2.34l.3,3.3h-.36a5.21,5.21,0,0,1,2.12-2.65,6.19,6.19,0,0,1,3.37-.92,5.35,5.35,0,0,1,4,1.43,6.29,6.29,0,0,1,1.36,4.48v9.42h-2.43v-9.27a4.63,4.63,0,0,0-.85-3.1,3.36,3.36,0,0,0-2.66-1,4.38,4.38,0,0,0-3.33,1.29,4.79,4.79,0,0,0-1.23,3.45v8.61Z" fill="#1c2126"/><path d="M978,558.14v-2.73h3v2.73Zm.3,18.48V561.56h2.43v15.06Z" fill="#1c2126"/><path d="M991.76,576.89a7.46,7.46,0,0,1-3.85-1,6.41,6.41,0,0,1-2.52-2.73,9.29,9.29,0,0,1-.89-4.2,8.93,8.93,0,0,1,.9-4.18,6.2,6.2,0,0,1,2.54-2.63,7.79,7.79,0,0,1,3.82-.9,8,8,0,0,1,2.81.51,6,6,0,0,1,2.26,1.44L996,565a6,6,0,0,0-2-1.29,5.69,5.69,0,0,0-2.09-.42,4.57,4.57,0,0,0-3.63,1.47A6.32,6.32,0,0,0,987,569a6.51,6.51,0,0,0,1.29,4.32,4.49,4.49,0,0,0,3.63,1.53,6,6,0,0,0,2.06-.39,5.66,5.66,0,0,0,2-1.29l.87,1.71a6.11,6.11,0,0,1-2.31,1.47A7.91,7.91,0,0,1,991.76,576.89Z" fill="#1c2126"/><circle cx="730.89" cy="563.72" r="40" fill="#1c2126"/></svg>