<svg xmlns="http://www.w3.org/2000/svg" xmlns:xlink="http://www.w3.org/1999/xlink" width="1200" height="630" viewBox="0 0 1200 630"><defs><clipPath id="a"><rect x="1220" y="-732" width="1200" height="498.72" fill="none"/></clipPath><radialGradient id="b" cx="1097.44" cy="565" r="111.35" gradientUnits="userSpaceOnUse"><stop offset="0" stop-color="#20c6b7"/><stop offset="1" stop-color="#4d9abf"/></radialGradient></defs><rect x="-1290.07" y="-821.85" width="6221.73" height="2273.11" fill="#a6a6a6"/><rect width="1200" height="498.72" fill="#ff6b60"/><g opacity="0.1"><polygon points="717.15 302.57 717.15 237.6 730.49 224.26 864.19 237.6 864.19 302.57 823.16 302.57 823.16 395.79 864.19 395.79 877.53 447.42 864.19 460.76 823.16 460.76 758.18 460.76 717.15 460.76 717.15 395.79 730.49 382.45 758.18 395.79 758.18 302.57 717.15 302.57" fill="#1c2126" stroke="#1c2126" stroke-linejoin="round" stroke-width="2"/></g><polygon points="730.49 289.23 730.49 224.26 743.83 210.92 877.53 224.26 877.53 289.23 836.5 289.23 836.5 382.45 877.53 382.45 890.87 434.08 877.53 447.42 836.5 447.42 771.52 447.42 730.49 447.42 730.49 382.45 743.83 369.11 771.52 382.45 771.52 289.23 730.49 289.23" fill="#0f6a80" stroke="#1c2126" stroke-linejoin="round" stroke-width="2"/><polygon points="743.83 275.89 743.83 210.92 757.17 197.58 890.87 210.92 904.21 262.55 890.87 275.89 849.84 275.89 849.84 369.11 890.87 369.11 904.21 420.74 890.87 434.08 849.84 434.08 784.87 434.08 743.83 434.08 743.83 369.11 757.17 355.77 784.87 369.11 784.87 275.89 743.83 275.89" fill="#30c8c9" stroke="#1c2126" stroke-linejoin="round" stroke-width="2"/><polygon points="757.17 262.55 757.17 197.58 770.51 184.24 904.21 197.58 917.55 249.21 904.21 262.55 863.18 262.55 863.18 355.77 904.21 355.77 917.55 407.4 904.21 420.74 863.18 420.74 798.21 420.74 757.17 420.74 757.17 355.77 770.51 342.43 798.21 355.77 798.21 262.55 757.17 262.55" fill="#5cebdf" stroke="#1c2126" stroke-linejoin="round" stroke-width="2"/><polygon points="770.51 249.21 770.51 184.24 783.85 170.9 917.55 184.24 930.89 235.87 917.55 249.21 876.52 249.21 876.52 342.43 917.55 342.43 930.89 394.06 917.55 407.4 876.52 407.4 811.54 407.4 770.51 407.4 770.51 342.43 783.85 329.09 811.54 342.43 811.54 249.21 770.51 249.21" fill="#bffde7" stroke="#1c2126" stroke-linejoin="round" stroke-width="2"/><polygon points="783.85 235.87 783.85 170.9 930.89 170.9 930.89 235.87 889.86 235.87 889.86 329.09 930.89 329.09 930.89 394.06 889.86 394.06 824.88 394.06 783.85 394.06 783.85 329.09 824.88 329.09 824.88 235.87 783.85 235.87" fill="#fff" stroke="#1c2126" stroke-linejoin="round" stroke-width="2"/><g opacity="0.1"><path d="M403.61,237.6V366.69c0,20.34,9.88,29.38,24,29.38s24-9,24-29.38V237.6l51.63-13.34L516.6,237.6V372.34c0,58.76-31.92,88.42-90.39,88.42s-90.4-29.66-90.4-88.42V237.6h67.8Z" fill="#1c2126" stroke="#1c2126" stroke-linejoin="round" stroke-width="2"/></g><path d="M390.27,224.26V353.35c0,20.34,9.88,29.38,24,29.38s24-9,24-29.38V224.26l51.63-13.34,13.34,13.34V359c0,58.76-31.92,88.42-90.39,88.42s-90.4-29.66-90.4-88.42V224.26l54.46-13.34Z" fill="#0f6a80" stroke="#1c2126" stroke-linejoin="round" stroke-width="2"/><path d="M376.93,210.92V340c0,20.34,9.88,29.38,24,29.38s24-9,24-29.38V210.92l51.63-13.34,13.34,13.34V345.66c0,58.76-31.92,88.42-90.39,88.42s-90.4-29.66-90.4-88.42V210.92l54.46-13.34Z" fill="#30c8c9" stroke="#1c2126" stroke-linejoin="round" stroke-width="2"/><path d="M363.59,197.58V326.67c0,20.34,9.88,29.38,24,29.38s24-9,24-29.38V197.58l51.63-13.34,13.34,13.34V332.32c0,58.76-31.92,88.42-90.39,88.42s-90.4-29.66-90.4-88.42V197.58l54.46-13.34Z" fill="#5cebdf" stroke="#1c2126" stroke-linejoin="round" stroke-width="2"/><path d="M350.25,184.24V313.33c0,20.34,9.88,29.38,24,29.38s24-9,24-29.38V184.24L449.9,170.9l13.34,13.34V319c0,58.76-31.92,88.42-90.39,88.42s-90.4-29.66-90.4-88.42V184.24l54.46-13.34Z" fill="#bffde7" stroke="#1c2126" stroke-linejoin="round" stroke-width="2"/><path d="M336.91,170.9V300c0,20.34,9.88,29.38,24,29.38s24-9,24-29.38V170.9h65V305.64c0,58.76-31.92,88.42-90.39,88.42s-90.4-29.66-90.4-88.42V170.9Z" fill="#fff" stroke="#1c2126" stroke-linejoin="round" stroke-width="2"/><line x1="290.13" y1="369.6" x2="347.76" y2="427.11" fill="#fff5eb" stroke="#1c2126" stroke-linejoin="round" stroke-width="2"/><path d="M149.7,98.11v18H138.15V98.25L119.79,63.94h12.52L144.13,85.8l11.76-21.86h12.17Z" fill="#fff"/><path d="M201.89,96.94c0,11.48-7.36,20.14-20.22,20.14s-20.28-8.66-20.28-20.14,7.36-20.15,20.28-20.15S201.89,85.46,201.89,96.94Zm-29.29,0c0,6.32,3.5,10.38,9.07,10.38s9-4.06,9-10.38-3.44-10.38-9-10.38S172.6,90.61,172.6,96.94Z" fill="#fff"/><path d="M242.11,77.69v38.43H231.38V112a12.56,12.56,0,0,1-10.52,5.08c-8.45,0-14-6.32-14-17.67V77.69h10.72V97.42c0,5.84,2.68,9.15,6.81,9.15s6.94-3.51,6.94-9.08V77.69Z" fill="#fff"/><path d="M311.48,92.88H300.2a7.39,7.39,0,0,0-7.7-6.8c-5.08,0-8.59,3.92-8.59,10.86s3.51,10.79,8.59,10.79a7.39,7.39,0,0,0,7.7-6.73h11.28c-.27,8.93-7.91,16.08-19,16.08-12.37,0-19.8-8-19.8-20.14s7.43-20.15,19.8-20.15C303.57,76.79,311.21,83.88,311.48,92.88Z" fill="#fff"/><path d="M352.39,94.19v21.93H341.66v-4.19c-2.68,3.09-6.87,4.88-12.51,4.88-8,0-13.07-4.06-13.07-10.73,0-6,4-10.65,14-12.37l11.55-1.93c0-3.71-2.34-5.84-6.67-5.84s-6.19,1.79-6.46,4.74H317.67c.2-7.08,6-13.68,17.32-13.68C346.06,77,352.39,83.19,352.39,94.19ZM341.66,100v-.55l-8.8,1.45c-4.61.75-5.77,2.34-5.77,4.33,0,1.72,1.65,3,4.74,3C337.74,108.15,341.66,104.85,341.66,100Z" fill="#fff"/><path d="M395.7,94.4v21.72H385V96.46c0-5.92-2.82-9.22-7.15-9.22s-7.43,3.58-7.43,9.15v19.73H359.67V77.69H370.4V82c2.13-3.1,6.05-5.23,10.93-5.23C390.06,76.79,395.7,83.05,395.7,94.4Z" fill="#fff"/><path d="M409.93,69.3c0,5.57-2.82,9.69-9.28,11.76l-1.44.48-1.65-5.09L399,76c3-.9,4.61-2.2,5.23-4.2a7.62,7.62,0,0,1-1.31.14,5.51,5.51,0,0,1-5.84-5.5c0-3.3,2.4-5.71,6.05-5.71C407.39,60.77,409.93,64.14,409.93,69.3Z" fill="#fff"/><path d="M440.25,86.76h-8.32v29.36H421.21V86.76H414V77.69h7.22V65.59h10.72v12.1h8.32Z" fill="#fff"/><path d="M502.13,89.79H491.4c-.06-2.48-2.26-4.4-5.91-4.4s-5.36,1.3-5.36,3.09.82,2.68,5.16,3.44l5.15.83c9.9,1.65,12.52,6.11,12.52,12,0,7.49-6,12.24-16.85,12.24-11.69,0-17.53-5.57-17.53-13.27h10.65c.07,2.82,2.27,4.74,7.29,4.74,3.78,0,5.71-1.3,5.71-3.23s-1.1-3.09-5.57-3.85l-5.36-.89c-9.08-1.45-11.9-6-11.9-11.49,0-6.8,5.57-12,16.23-12S502.13,82.5,502.13,89.79Z" fill="#fff"/><path d="M548.13,96.94c0,13-7,20.14-17,20.14-5.36,0-9.35-2.06-11.89-5.5v17.61H508.52V77.69h10.73v4.54c2.54-3.37,6.53-5.44,11.89-5.44C541.11,76.79,548.13,83.88,548.13,96.94Zm-11.21.21c0-6.67-3.71-10.66-8.87-10.66s-8.8,3.92-8.8,10.66,3.57,10.72,8.8,10.72S536.92,103.88,536.92,97.15Z" fill="#fff"/><path d="M591.79,100.1h-28.4c.55,4.61,3.64,7.77,8.73,7.77,3.78,0,6.33-1.24,7.5-3.44H591c-2.2,7.22-9.21,12.38-19,12.38-12,0-19.94-7.91-19.94-19.87S559.81,77,571.92,77s19.87,7.84,19.87,19.8Zm-28.26-7.35h16.91c-.76-4.34-4.12-6.81-8.52-6.81A8.42,8.42,0,0,0,563.53,92.75Z" fill="#fff"/><path d="M608.56,61.46v54.66H597.83V61.46Z" fill="#fff"/><path d="M628,61.46v54.66H617.22V61.46Z" fill="#fff"/><path d="M709.42,87.11v5c0,15.12-10,24.68-24.68,24.68s-25-10.38-25-26.75,10.25-26.81,25-26.81c13.41,0,21.59,7.56,24,17.6H696c-1.66-4-5.57-6.88-11-6.88-7.83,0-13.2,5.71-13.2,16.09s5.5,16.09,13.48,16.09a12.47,12.47,0,0,0,12.31-9.76h-13V87.11Z" fill="#fff"/><path d="M729.29,63.94v30.8c0,7.63,3.85,11.07,9,11.07s9-3.44,9-11.07V63.94h11.21V95.29c0,13.89-7.08,21.52-20.42,21.52s-20.42-7.63-20.42-21.52V63.94Z" fill="#fff"/><path d="M781.33,63.94v52.18H769.71V63.94Z" fill="#fff"/><path d="M870.3,77.69,859,116.12h-10.8l-7.77-24.41-7.84,24.41H822.1L810.83,77.69h10.45l7.22,24.48,7.56-24.48h9.22L852.77,102,860,77.69Z" fill="#fff"/><path d="M885.15,66.82a6.43,6.43,0,1,1-12.86,0,6.43,6.43,0,1,1,12.86,0Zm-1,10v39.33H873.39V76.79a8.71,8.71,0,0,0,5.37,1.59A8.55,8.55,0,0,0,884.12,76.79Z" fill="#fff"/><path d="M916.92,86.76H908.6v29.36H897.87V86.76h-7.22V77.69h7.22V65.59H908.6v12.1h8.32Z" fill="#fff"/><path d="M959.82,94.4v21.72H949.09V96.46c0-5.92-2.82-9.22-7.15-9.22s-7.35,3.58-7.35,9.15l-.07-.48v20.21H923.79V61.46h10.73V82c2.13-3.1,6-5.23,10.93-5.23C954.18,76.79,959.82,83.05,959.82,94.4Z" fill="#fff"/><path d="M1005.68,96.94c0,11.48-7.36,20.14-20.22,20.14s-20.28-8.66-20.28-20.14,7.36-20.15,20.28-20.15S1005.68,85.46,1005.68,96.94Zm-29.29,0c0,6.32,3.5,10.38,9.07,10.38s9-4.06,9-10.38-3.44-10.38-9-10.38S976.39,90.61,976.39,96.94Z" fill="#fff"/><path d="M1045.9,77.69v38.43h-10.73V112a12.56,12.56,0,0,1-10.52,5.08c-8.45,0-14-6.32-14-17.67V77.69h10.72V97.42c0,5.84,2.68,9.15,6.81,9.15s6.94-3.51,6.94-9.08V77.69Z" fill="#fff"/><path d="M1078.08,86.76h-8.32v29.36H1059V86.76h-7.22V77.69H1059V65.59h10.73v12.1h8.32Z" fill="#fff"/><path d="M578.45,325.21c-.44,1.28.14,4.41-1.2,6,1.07.46.7,2.31-.13,3.28.55,1,.93,1.78-.35,4,0,.3.64-.14.77-.3a24.38,24.38,0,0,1-.69,6.68c-2.22.26-4.47-1.66-5.57-1.1-.09-1.44-.38-2-1.38-1.87l0-1c.36,0,.62-.29.63-.8-.36.05-.67-.14-.72-.64,0-1.66.57-3.84.76-6,.5-.06.6.87.65,2,.51-.06,1-3.09.91-4.76l-.9-.26c.06,1.16.24,2.74-.66,2.48.1-1,0-3.57.14-4.45l1.4,1.37c-.17-.86.16-1.11-.11-2.17-4.1.32-14.26,7.37-17.23,10l-.25,1,.38.82c-.93,2.65-1.66,5.72-2.64,7.35l-4.74-1.41c-.47-2.2-3.66-2.78-3.08-4.74l-1.15.14c.33-11,11-24,16.68-33.8a53.35,53.35,0,0,1,8.42-10.77c.46-.49,2.54,0,2.53-1.38a15.31,15.31,0,0,1,4.25,1.54l-1.24.58c.06,1.23,1.7-.34,2.09-.09,2.92,2,1.86,6,3.46,7.95.11.35.67,6.53-.33,7.3a2.17,2.17,0,0,0,.46.24,31.15,31.15,0,0,0-.49,5.8c0,.86,3,3,3.17,6.17C581,324.48,579.65,324.92,578.45,325.21Zm-22.07,8.34a12.16,12.16,0,0,0-.64,1.38l5.12-3.49C559.85,330.83,557.66,332.67,556.38,333.55Zm2.74-3.37c-.55.28-1,.41-1.45.68l-.72,1.32C557.22,332,558.8,331.24,559.12,330.18Zm14.68-26.52c-1.35.23-4.19,4.62-6.81,9.06l-.4-.32c.15-.59.32-1,0-1.3-1,1.42-1.43,2.12-.63,3.41q-1.37,2.34-2.56,4.21c-1.1,1.8-2.69,5.11-4.06,7.66,1.33-1,2.23-2.65,5-4.2a44.38,44.38,0,0,1,6.36-2.83,20.8,20.8,0,0,1,.73-4.37l1.34.93c.61-2.32.95-8.24,1.37-11.56ZM564,329.33v-.07c-1.56.25-2.19.47-2.35,1.65C562.28,330.47,563.3,329.92,564,329.33Zm7.14,6.52-.18,1,.43-.05.16-1.18Zm.24-17.54c-.19.9.31.84.81.71l0-.8Zm.52-1.22-.3,0-.2.83.65-.08Zm1.06-9-.64.07.35-2,.61-.36Z" fill="#fff"/><path d="M630.71,292a8.39,8.39,0,0,1,3.62-1.35c2.58-.37,4.62-.24,5.94.48L639,292.27l.18.27a6.65,6.65,0,0,0,2.21-1l2.26,1.93a43.58,43.58,0,0,0-12.72,13.29c-.36.62-.75-.2-1.14.13.15,2.6-1.2,4.14-2.61,7.06-.28.68,0,1.6-.35,2.65.05.43-1,1-1.11,1.66-1.16,5.72-2.94,11.74-4.56,17.88l-3.4-1.14-.32,1.06c-4.72-.7-5.36-2.44-6.56-7.17-.42-1.84-.22-5.13-.9-6.65-2.3-4.82-.9-7.16-1.75-10.77l-.68-2.75c-2.14,1-4.4,3.41-5.88,7l.35,1.12c-2.81,7.15-5,16.84-7.7,21.51l-2,.23c-2.08.24-3.78-4.43-4.69-4.76l-.79-3.11c-.61-2.18-.06-3,.29-4.46,3.68-12.91,11-21.31,16-27.76,2.24.54,8.54,3.52,9.85,6.06,1.1,2.05,2.48,6.47,3.54,9.33,3.9-9,9.86-20.38,11.37-21.14l1.48-.39c-3.94,4.89-6.5,10.41-7.94,13.12-.52,1.15-.75,1.61-.6,1.66l.46.24C622.93,303.91,627,296.55,630.71,292Zm-27.81,8.28-1.39,1.83c.94.62,1.57-.91,2-1.47Zm24,20.35-.7-.36c0-1-.13-2.38.78-2.12Zm2.52-24.84,1-1.72-.61-.22a6,6,0,0,0-1,1.64C628.88,295.6,629.12,295.86,629.4,295.76Zm1.23,7.55c-.47.93-1.45,2.57-.69,2.84l1.24-2.46C631.3,303.46,630.75,303.08,630.63,303.31Zm1.58-2.72-1.22,2c.42-.12.58,0,.68.29l1.08-2C632.88,300.73,632.52,300.12,632.21,300.59ZM637,294l.22.63c.66-.59,1.3-.73,1-1.79Z" fill="#fff"/><path d="M681.9,305.72a2.77,2.77,0,0,1-1.85,1l1-1.27a1.66,1.66,0,0,0-1.54.54c-.38.47-1.42,1.54-2.72,2.85l1.32.14a109.41,109.41,0,0,1-23.86,19.3l-.19,4c-1.45-.56-2.44.28-3.94.45-4.38.51-6.36-4.13-8.18-6a9.85,9.85,0,0,0,.26-2.79l1.7-1a3.82,3.82,0,0,0,2-2.4,57.7,57.7,0,0,0,1.58-8.39l-.41-1c.63-3.34,2.58-6,2.4-8.85-.16-2-3-3-3.09-4.8s3.26-3.21,5-4.42l.77.42c2.95-4.05,2.32-11.46,6.12-11.89.65-.08,3.71,3.86,4.18,4.75.42,1.11-.07,2.55-.19,4.09,2.44-.28,5-1.3,8.72-1.22-.56,1.44,1.55.84,1.87-.21.78.49,2.76,0,4.4.36,6.82,1.25,7.81,6.73,8.53,9.77A39.21,39.21,0,0,1,681.9,305.72Zm-27.63,20.67-.06.73,1.89-1.3.26-.91Zm3.72-24,.18,2.23c-.24.39-.79.67-1.16,1.22V306c1-1.07,1.27,2.17.63,2.25a2.12,2.12,0,0,1-1-.33V308a3.38,3.38,0,0,1,.68,1.44c.12,1.66-1.09,3.83-1.13,6.6,2.4-1.88,7.94-4.83,11.17-8.33.32.26.61.22,1.12.31l-.54-1,.6-.5c.34.47.63.51.78.49.72-.08,1.95-1.39,4.12-4.61,1.94.43,5.11-4.8,4.38-7.4C665.72,296.39,661.72,300.77,658,302.43Zm-.73,22.74,3.45-2.21a.87.87,0,0,1-.28-1.2v-.07a16.27,16.27,0,0,0-3.17,3.41Zm16.13-12.59c-1.29.14-2.36,1-3.68,2.09s-3.81,2.9-5.94,4.6a1.69,1.69,0,0,1-.65,1.31c-.56-.44-1.32-.14-2,.67a4,4,0,0,1,1.71.31c3.8-3,7.54-6.46,10.6-8.91Zm1.76-2.39-2.22,1.56a1.19,1.19,0,0,0,1.51-.17l1.38-1.25Zm6-6.34-.5.71,1,.11.5-.72Z" fill="#fff"/><path d="M1018.18,299.2v83.31l17.36-16.36,12.34,24.41,13.59-6.54-11.65-22.4h25.74l-57.38-62.42Z" fill="#1c2126" stroke="#1c2126" stroke-linejoin="round" stroke-width="2" opacity="0.1"/><path d="M1007.43,294.46v83.31l17.37-16.36,12.34,24.41,13.59-6.54-11.65-22.4h25.74l-57.39-62.42Z" fill="#fff" stroke="#1c2126" stroke-linejoin="round"/><polygon points="1032.35 352.8 1039.08 352.8 1055.53 352.8 1011.52 304.93 1011.52 368.31 1022 358.44 1025.98 354.69 1028.44 359.57 1038.97 380.41 1045.16 377.43 1035.46 358.76 1032.35 352.8" fill="#1c2126"/><path d="M239,260.64a8.72,8.72,0,0,0-3.56-1.45c-2.22-.49-4.66-.69-6.65.41s-3.21,3.49-3.79,5.79a19.28,19.28,0,0,0-.49,6.33,15.75,15.75,0,0,0-8.23-3.09,9.83,9.83,0,0,0-8,3.34,7.2,7.2,0,0,0-.53,8.4c1.67,2.36,4.71,3.23,7.51,3.92q10.5,2.59,21.07,4.86,2.13-8.88,4.24-17.75C241.45,267.66,242.05,263,239,260.64Z" fill="#b7303d" stroke="#1c2126" stroke-linejoin="round" stroke-width="2"/><path d="M1002.24,190.45a8.7,8.7,0,0,0-.73-3.78c-.81-2.12-2-4.27-4-5.33s-4.69-.77-6.93,0a19.12,19.12,0,0,0-5.56,3.06,15.76,15.76,0,0,0-1.93-8.59,9.86,9.86,0,0,0-7.2-4.89,7.19,7.19,0,0,0-7.31,4.17c-1.06,2.68-.12,5.7.83,8.42q3.59,10.2,7.49,20.29l17.17-6.19C997.7,196.32,1001.92,194.27,1002.24,190.45Z" fill="#b7303d" stroke="#1c2126" stroke-linejoin="round" stroke-width="2"/><rect y="500" width="1200" height="130" fill="#fff"/><rect x="1097.49" y="500" width="102.51" height="130" fill="url(#b)"/><line y1="499.19" x2="1200" y2="499.19" fill="none" stroke="#1c2126" stroke-miterlimit="10"/><line x1="1097.49" y1="498.72" x2="1097.49" y2="630" fill="none" stroke="#1c2126" stroke-miterlimit="10"/><path d="M35.09,576.62V557.86H28.7v-2.38H44.05v2.38H37.67v18.76Z" fill="#1c2126"/><path d="M54.92,577.06c-4.8,0-7.75-3.46-7.75-9.3v-3.41c0-5.85,2.95-9.31,7.75-9.31s7.75,3.46,7.75,9.31v3.41C62.67,573.6,59.73,577.06,54.92,577.06Zm5.14-9.32v-3.38c0-4.41-1.93-6.87-5.14-6.87s-5.14,2.46-5.14,6.87v3.38c0,4.41,1.93,6.88,5.14,6.88S60.06,572.15,60.06,567.74Z" fill="#1c2126"/><path d="M70.82,562.75a2.65,2.65,0,1,1,2.65,2.71A2.7,2.7,0,0,1,70.82,562.75Zm0,11.25a2.65,2.65,0,1,1,2.65,2.71A2.69,2.69,0,0,1,70.82,574Z" fill="#1c2126"/><path d="M209.27,581.51a14.89,14.89,0,0,1-5.34-.91,11.41,11.41,0,0,1-6.75-6.75,14.91,14.91,0,0,1-.93-5.39,14.58,14.58,0,0,1,1-5.4,11.83,11.83,0,0,1,2.76-4.18,12.58,12.58,0,0,1,4.26-2.72,14.82,14.82,0,0,1,5.43-1,14.26,14.26,0,0,1,4.87.8,11,11,0,0,1,3.8,2.26,9.83,9.83,0,0,1,2.44,3.51,11.69,11.69,0,0,1,.86,4.56,12.33,12.33,0,0,1-.75,4.5,6.89,6.89,0,0,1-2.07,3,4.86,4.86,0,0,1-3.12,1.05,3.48,3.48,0,0,1-2.73-1,3.58,3.58,0,0,1-.78-2.81l.54.15a6.19,6.19,0,0,1-2.18,2.75,5.2,5.2,0,0,1-3,.94,4.69,4.69,0,0,1-3.68-1.45,5.79,5.79,0,0,1-1.3-4,8.75,8.75,0,0,1,.85-3.94,6.69,6.69,0,0,1,2.36-2.7,6.14,6.14,0,0,1,3.42-1,4.45,4.45,0,0,1,2.77.81,3.8,3.8,0,0,1,1.4,2.28H213l.51-2.82h2l-1.38,7.77c0,.26-.08.51-.11.75s0,.46,0,.66a2.16,2.16,0,0,0,.46,1.5,1.81,1.81,0,0,0,1.4.51,2.93,2.93,0,0,0,2.1-.87,5.81,5.81,0,0,0,1.41-2.41,11.59,11.59,0,0,0,.51-3.62,10.11,10.11,0,0,0-.72-3.9,8.21,8.21,0,0,0-2.07-3,9.34,9.34,0,0,0-3.23-1.89,12.51,12.51,0,0,0-4.18-.66,12.93,12.93,0,0,0-4.73.83,10.42,10.42,0,0,0-3.63,2.34,10.18,10.18,0,0,0-2.32,3.64,13.24,13.24,0,0,0-.81,4.74,12.85,12.85,0,0,0,1.35,6.09,9.3,9.3,0,0,0,3.86,3.92,12.09,12.09,0,0,0,5.89,1.36,12.82,12.82,0,0,0,4.53-.76,8.71,8.71,0,0,0,3.36-2.18l1,1.47a9.5,9.5,0,0,1-3.8,2.34A15.33,15.33,0,0,1,209.27,581.51Zm-1.44-8.4a4,4,0,0,0,2.46-.79,5.3,5.3,0,0,0,1.69-2.21,8,8,0,0,0,.62-3.21,3.73,3.73,0,0,0-.75-2.55,3,3,0,0,0-2.37-.84,4.29,4.29,0,0,0-2.48.75,5.1,5.1,0,0,0-1.72,2.07,7,7,0,0,0-.63,3.06,4.12,4.12,0,0,0,.82,2.76A3,3,0,0,0,207.83,573.11Z" fill="#1c2126"/><path d="M227.27,576.62v-2.13h5V557.6h1.32l-5.82,3.63v-2.49l5.19-3.27h1.8v19h4.68v2.13Z" fill="#1c2126"/><path d="M245.27,576.62v-2.13h5V557.6h1.32l-5.82,3.63v-2.49l5.19-3.27h1.8v19h4.68v2.13Z" fill="#1c2126"/><path d="M267.17,576.89a4.37,4.37,0,0,1-3.39-1.27,5.55,5.55,0,0,1-1.17-3.86v-8.31h-2.94v-1.89h2.94v-4.11l2.43-.69v4.8h4.32v1.89H265v8a4.16,4.16,0,0,0,.61,2.57,2.23,2.23,0,0,0,1.85.76,4.52,4.52,0,0,0,1-.1,5.14,5.14,0,0,0,.81-.26v2a4.69,4.69,0,0,1-1,.29A6.46,6.46,0,0,1,267.17,576.89Z" fill="#1c2126"/><path d="M271.91,583.43l-.57-2a12.5,12.5,0,0,0,2.35-.76,4.67,4.67,0,0,0,1.58-1.16,6.51,6.51,0,0,0,1.08-1.8l.78-1.77-.06,1-6.57-15.39h2.64l5.43,13.23h-.78l5.37-13.23h2.55l-7,16.32a11.58,11.58,0,0,1-1.32,2.42,7.58,7.58,0,0,1-1.55,1.59,7,7,0,0,1-1.81,1A13.08,13.08,0,0,1,271.91,583.43Z" fill="#1c2126"/><circle cx="135.29" cy="563.72" r="40" fill="#1c2126"/><path d="M1163.33,555.54h0l0,0a.19.19,0,0,1,0-.15l1.25-7.62,5.84,5.85-6.08,2.58h-.08l0,0A2.57,2.57,0,0,0,1163.33,555.54Zm8.48-.46,6.25,6.25c1.3,1.3,2,1.95,2.19,2.7l.09.33L1165.4,558h0c-.06,0-.12,0-.12-.11s.07-.1.13-.12h0Zm8.27,11.29a11.28,11.28,0,0,1-2,2.3l-7,7.05-9.12-1.9h0c-.09,0-.17,0-.17-.1a2.75,2.75,0,0,0-1.06-1.93s0-.09,0-.14v0l1.71-10.52v0c0-.08,0-.17.1-.17a2.81,2.81,0,0,0,1.87-1.07.1.1,0,0,1,0,0,.22.22,0,0,1,.17,0l15.56,6.58Zm-10.68,11-11.59,11.58,2-12.19h0a.09.09,0,0,1,0-.05s0,0,.09-.07h0a2.88,2.88,0,0,0,1.12-.83.25.25,0,0,1,.15-.1h0l8.16,1.68Zm-14,14-1.31,1.3-14.44-20.87,0,0a.18.18,0,0,1,0-.1s0,0,0-.06v0a2.12,2.12,0,0,0,.12-.2l0-.06h0a.27.27,0,0,1,.08-.1.17.17,0,0,1,.12,0l16,3.3a.18.18,0,0,1,.12.05.09.09,0,0,1,0,.07,2.81,2.81,0,0,0,1.66,1.89s0,.08,0,.13l0,.07C1157.55,578,1155.82,588.53,1155.36,591.38Zm-2.73,2.72a6.1,6.1,0,0,1-2.17,1.67,3.24,3.24,0,0,1-2,0c-.75-.24-1.4-.89-2.7-2.19l-14.5-14.5,3.79-5.88a.2.2,0,0,1,.06-.07.16.16,0,0,1,.15,0A3.93,3.93,0,0,0,1138,573s.09,0,.12,0l0,0,14.51,21.06Zm-22.72-16.42-3.32-3.33,6.57-2.8h0s.09.05.11.1l.21.3,0,0a.09.09,0,0,1,0,.08l-3.63,5.63Zm-4.8-4.8-4.21-4.21c-.71-.71-1.23-1.23-1.59-1.68l12.8,2.65h0c.08,0,.17,0,.17.1s-.1.12-.18.15l0,0Zm-6.54-8a3.54,3.54,0,0,1,.15-.8c.24-.75.89-1.4,2.18-2.7l5.39-5.39q3.72,5.4,7.46,10.78c0,.06.09.13,0,.18a4.35,4.35,0,0,0-.63.85.28.28,0,0,1-.09.1H1133l-14.43-3Zm9.16-10.33,7.24-7.24c.68.3,3.16,1.34,5.38,2.28l3.68,1.56a.17.17,0,0,1,.11.09.12.12,0,0,1,0,.1,3.22,3.22,0,0,0,.85,2.94s0,.12,0,.18l0,0-7.35,11.38a.31.31,0,0,1-.07.09.22.22,0,0,1-.14,0,3.2,3.2,0,0,0-.87-.12,5.05,5.05,0,0,0-.84.1h0s-.06,0-.08,0a.3.3,0,0,1-.08-.08l-7.75-11.31Zm8.71-8.7,9.37-9.38c1.3-1.3,2-1.95,2.7-2.19a3.24,3.24,0,0,1,2,0c.75.24,1.4.89,2.7,2.19l2,2-6.67,10.33-.07.08a.22.22,0,0,1-.14,0,3.39,3.39,0,0,0-3.1.59s-.11,0-.16,0C1144.18,549.07,1137.41,546.21,1136.44,545.8Zm20.16-5.93,6.16,6.15-1.48,9.19v0a.14.14,0,0,1,0,.06s0,0-.08.05a2.8,2.8,0,0,0-.88.44l0,0a.1.1,0,0,1-.07,0s0,0-.07,0l-9.38-4h0c-.06,0-.13-.05-.13-.12a3.39,3.39,0,0,0-.5-1.47c0-.08-.09-.15,0-.23Zm-6.34,13.88,8.8,3.72a.19.19,0,0,1,.12.09.17.17,0,0,1,0,.1,1.79,1.79,0,0,0,0,.42v.25c0,.06-.06.08-.12.11h0l-19.58,8.35a.11.11,0,0,1-.09,0s0-.12,0-.18l0,0,7.23-11.19v0c0-.07.09-.15.17-.15l.07,0a3.75,3.75,0,0,0,.45,0,3.25,3.25,0,0,0,2.73-1.45l0-.06A.15.15,0,0,1,1150.26,553.75Zm-10.07,14.81,19.8-8.45a.09.09,0,0,1,.06,0,2.82,2.82,0,0,0,.29.25l0,0s.08.05.09.1a.08.08,0,0,1,0,0L1158.77,571v0c0,.08,0,.17-.1.17a2.75,2.75,0,0,0-2.21,1.37h0a.18.18,0,0,1-.08.09.14.14,0,0,1-.11,0l-15.8-3.25S1140.21,568.56,1140.19,568.56Z" fill="#fff"/><line x1="548.51" y1="498.72" x2="548.51" y2="630" fill="none" stroke="#1c2126" stroke-miterlimit="10"/><path d="M584.7,576.62V555.48h12.46v2.38h-9.87v7.25h9v2.3h-9v9.21Z" fill="#1c2126"/><path d="M604.74,568.2v8.42h-2.55V555.48h7.09c4.19,0,6.81,2.44,6.81,6.36a5.91,5.91,0,0,1-3.94,5.83l4.31,9h-2.92l-3.94-8.42Zm0-2.18h4.19c2.91,0,4.55-1.48,4.55-4.12s-1.61-4.12-4.44-4.12h-4.3Z" fill="#1c2126"/><path d="M627.34,577.06c-4.8,0-7.75-3.46-7.75-9.3v-3.41c0-5.85,2.95-9.31,7.75-9.31s7.75,3.46,7.75,9.31v3.41C635.09,573.6,632.14,577.06,627.34,577.06Zm5.14-9.32v-3.38c0-4.41-1.93-6.87-5.14-6.87s-5.14,2.46-5.14,6.87v3.38c0,4.41,1.93,6.88,5.14,6.88S632.48,572.15,632.48,567.74Z" fill="#1c2126"/><path d="M640.57,576.62h-2.3V555.48h2.88l4.65,13.13H646l4.61-13.13h2.9v21.14h-2.3v-8.11l.13-8.56h-.19l-4.25,11.71h-2L640.62,560h-.18l.13,8.56Z" fill="#1c2126"/><path d="M661.78,562.75a2.65,2.65,0,1,1,2.65,2.71A2.7,2.7,0,0,1,661.78,562.75Zm0,11.25a2.65,2.65,0,1,1,2.65,2.71A2.69,2.69,0,0,1,661.78,574Z" fill="#1c2126"/><path d="M804.86,581.51a14.89,14.89,0,0,1-5.34-.91,11.41,11.41,0,0,1-6.75-6.75,14.91,14.91,0,0,1-.93-5.39,14.58,14.58,0,0,1,1-5.4,11.83,11.83,0,0,1,2.76-4.18,12.58,12.58,0,0,1,4.26-2.72,14.82,14.82,0,0,1,5.43-1,14.31,14.31,0,0,1,4.88.8,11,11,0,0,1,3.79,2.26,10,10,0,0,1,2.45,3.51,11.69,11.69,0,0,1,.85,4.56,12.33,12.33,0,0,1-.75,4.5,6.89,6.89,0,0,1-2.07,3,4.86,4.86,0,0,1-3.12,1.05,3.48,3.48,0,0,1-2.73-1,3.58,3.58,0,0,1-.78-2.81l.54.15a6.18,6.18,0,0,1-2.17,2.75,5.24,5.24,0,0,1-3,.94,4.67,4.67,0,0,1-3.67-1.45,5.8,5.8,0,0,1-1.31-4,8.75,8.75,0,0,1,.86-3.94,6.66,6.66,0,0,1,2.35-2.7,6.14,6.14,0,0,1,3.42-1,4.48,4.48,0,0,1,2.78.81,3.79,3.79,0,0,1,1.39,2.28h-.36l.51-2.82h2l-1.38,7.77c0,.26-.07.51-.1.75a5.42,5.42,0,0,0,0,.66,2.16,2.16,0,0,0,.47,1.5,1.78,1.78,0,0,0,1.39.51,2.93,2.93,0,0,0,2.1-.87,5.81,5.81,0,0,0,1.41-2.41,11.59,11.59,0,0,0,.51-3.62,10.11,10.11,0,0,0-.72-3.9,8.21,8.21,0,0,0-2.07-3,9.29,9.29,0,0,0-3.22-1.89,12.57,12.57,0,0,0-4.19-.66,12.88,12.88,0,0,0-4.72.83,10.42,10.42,0,0,0-3.63,2.34,10.21,10.21,0,0,0-2.33,3.64,13.24,13.24,0,0,0-.81,4.74,12.85,12.85,0,0,0,1.35,6.09,9.35,9.35,0,0,0,3.86,3.92,12.12,12.12,0,0,0,5.89,1.36,12.82,12.82,0,0,0,4.53-.76,8.71,8.71,0,0,0,3.36-2.18l1,1.47A9.46,9.46,0,0,1,810,580.7,15.39,15.39,0,0,1,804.86,581.51Zm-1.44-8.4a4,4,0,0,0,2.46-.79,5.31,5.31,0,0,0,1.7-2.21,8,8,0,0,0,.61-3.21,3.73,3.73,0,0,0-.75-2.55,3,3,0,0,0-2.37-.84,4.26,4.26,0,0,0-2.47.75,5.12,5.12,0,0,0-1.73,2.07,7,7,0,0,0-.63,3.06,4.12,4.12,0,0,0,.83,2.76A2.93,2.93,0,0,0,803.42,573.11Z" fill="#1c2126"/><path d="M821.42,576.62V554.54h2.43v22.08Z" fill="#1c2126"/><path d="M828,583.43l-.57-2a12.62,12.62,0,0,0,2.36-.76,4.63,4.63,0,0,0,1.57-1.16,6.51,6.51,0,0,0,1.08-1.8l.78-1.77-.06,1-6.57-15.39h2.64l5.43,13.23h-.78l5.37-13.23h2.55l-7,16.32a11.58,11.58,0,0,1-1.32,2.42,7.55,7.55,0,0,1-1.54,1.59,7.06,7.06,0,0,1-1.82,1A13.08,13.08,0,0,1,828,583.43Z" fill="#1c2126"/><path d="M844.49,576.62V565c0-.56,0-1.13-.07-1.72s-.11-1.18-.17-1.76h2.34l.3,3.3h-.36a5.21,5.21,0,0,1,2.12-2.65,6.19,6.19,0,0,1,3.37-.92,5.35,5.35,0,0,1,4,1.43,6.29,6.29,0,0,1,1.36,4.48v9.42H855v-9.27a4.63,4.63,0,0,0-.85-3.1,3.36,3.36,0,0,0-2.66-1,4.38,4.38,0,0,0-3.33,1.29,4.79,4.79,0,0,0-1.23,3.45v8.61Z" fill="#1c2126"/><path d="M862.07,576.62V565c0-.56,0-1.13-.07-1.72s-.11-1.18-.17-1.76h2.34l.3,3.3h-.36a5.21,5.21,0,0,1,2.12-2.65,6.19,6.19,0,0,1,3.37-.92,5.35,5.35,0,0,1,4,1.43A6.29,6.29,0,0,1,875,567.2v9.42h-2.43v-9.27a4.63,4.63,0,0,0-.85-3.1,3.36,3.36,0,0,0-2.66-1,4.38,4.38,0,0,0-3.33,1.29A4.79,4.79,0,0,0,864.5,568v8.61Z" fill="#1c2126"/><path d="M885.38,576.89a6.44,6.44,0,0,1-3.51-.94,6.25,6.25,0,0,1-2.32-2.69,11,11,0,0,1,0-8.37,6.14,6.14,0,0,1,2.32-2.67,6.52,6.52,0,0,1,3.51-.93,6,6,0,0,1,3.53,1,4.85,4.85,0,0,1,2,2.8h-.36l.33-3.57h2.34c-.06.58-.11,1.17-.16,1.76s-.08,1.16-.08,1.72v11.58h-2.43v-3.54h.33a4.78,4.78,0,0,1-2,2.79A6,6,0,0,1,885.38,576.89Zm.48-2a4.25,4.25,0,0,0,3.42-1.48,8.14,8.14,0,0,0,0-8.7,4.65,4.65,0,0,0-6.82,0,8,8,0,0,0,0,8.7A4.25,4.25,0,0,0,885.86,574.91Z" fill="#1c2126"/><path d="M897.65,576.62V565c0-.56,0-1.13-.07-1.72s-.11-1.18-.17-1.76h2.34l.3,3.3h-.36a5.21,5.21,0,0,1,2.12-2.65,6.19,6.19,0,0,1,3.37-.92,5.35,5.35,0,0,1,4,1.43,6.29,6.29,0,0,1,1.36,4.48v9.42h-2.43v-9.27a4.63,4.63,0,0,0-.85-3.1,3.36,3.36,0,0,0-2.66-1,4.38,4.38,0,0,0-3.33,1.29,4.79,4.79,0,0,0-1.23,3.45v8.61Z" fill="#1c2126"/><path d="M920.93,576.89a6.39,6.39,0,0,1-3.48-.94,6.25,6.25,0,0,1-2.32-2.69,11,11,0,0,1,0-8.37,6.14,6.14,0,0,1,2.32-2.67,6.47,6.47,0,0,1,3.48-.93,6.09,6.09,0,0,1,3.53,1,4.93,4.93,0,0,1,2,2.76h-.36V554.54h2.43v22.08h-2.4V573h.33a4.86,4.86,0,0,1-2,2.84A6.08,6.08,0,0,1,920.93,576.89Zm.51-2a4.3,4.3,0,0,0,3.42-1.48,8,8,0,0,0,0-8.7,4.31,4.31,0,0,0-3.42-1.49,4.26,4.26,0,0,0-3.4,1.49,8,8,0,0,0,0,8.7A4.25,4.25,0,0,0,921.44,574.91Z" fill="#1c2126"/><path d="M938.57,576.89a4.37,4.37,0,0,1-3.39-1.27,5.55,5.55,0,0,1-1.17-3.86v-8.31h-2.94v-1.89H934v-4.11l2.43-.69v4.8h4.32v1.89h-4.32v8a4.16,4.16,0,0,0,.62,2.57,2.21,2.21,0,0,0,1.84.76,4.52,4.52,0,0,0,1-.1,5.14,5.14,0,0,0,.81-.26v2a4.59,4.59,0,0,1-1,.29A6.57,6.57,0,0,1,938.57,576.89Z" fill="#1c2126"/><path d="M949.76,576.89A7.26,7.26,0,0,1,946,576a6.3,6.3,0,0,1-2.48-2.7,10.4,10.4,0,0,1,0-8.33,6.31,6.31,0,0,1,2.48-2.68,7.27,7.27,0,0,1,3.76-1,7.37,7.37,0,0,1,3.8,1,6.39,6.39,0,0,1,2.49,2.68,10.3,10.3,0,0,1,0,8.33,6.39,6.39,0,0,1-2.49,2.7A7.36,7.36,0,0,1,949.76,576.89Zm0-2a4.25,4.25,0,0,0,3.42-1.48,8.14,8.14,0,0,0,0-8.7,4.64,4.64,0,0,0-6.81,0,8.14,8.14,0,0,0,0,8.7A4.21,4.21,0,0,0,949.76,574.91Z" fill="#1c2126"/><path d="M960.71,576.62V565c0-.56,0-1.13-.07-1.72s-.11-1.18-.17-1.76h2.34l.3,3.3h-.36a5.21,5.21,0,0,1,2.12-2.65,6.19,6.19,0,0,1,3.37-.92,5.35,5.35,0,0,1,4,1.43,6.29,6.29,0,0,1,1.36,4.48v9.42h-2.43v-9.27a4.63,4.63,0,0,0-.85-3.1,3.36,3.36,0,0,0-2.66-1,4.38,4.38,0,0,0-3.33,1.29,4.79,4.79,0,0,0-1.23,3.45v8.61Z" fill="#1c2126"/><path d="M978,558.14v-2.73h3v2.73Zm.3,18.48V561.56h2.43v15.06Z" fill="#1c2126"/><path d="M991.76,576.89a7.46,7.46,0,0,1-3.85-1,6.41,6.41,0,0,1-2.52-2.73,9.29,9.29,0,0,1-.89-4.2,8.93,8.93,0,0,1,.9-4.18,6.2,6.2,0,0,1,2.54-2.63,7.79,7.79,0,0,1,3.82-.9,8,8,0,0,1,2.81.51,6,6,0,0,1,2.26,1.44L996,565a6,6,0,0,0-2-1.29,5.69,5.69,0,0,0-2.09-.42,4.57,4.57,0,0,0-3.63,1.47A6.32,6.32,0,0,0,987,569a6.51,6.51,0,0,0,1.29,4.32,4.49,4.49,0,0,0,3.63,1.53,6,6,0,0,0,2.06-.39,5.66,5.66,0,0,0,2-1.29l.87,1.71a6.11,6.11,0,0,1-2.31,1.47A7.91,7.91,0,0,1,991.76,576.89Z" fill="#1c2126"/><circle cx="730.89" cy="563.72" r="40" fill="#1c2126"/></svg>