<?xml version="1.0" encoding="UTF-8"?><svg xmlns="http://www.w3.org/2000/svg" viewBox="0 0 1200 630"><g id="b"><rect width="1200" height="498.72" fill="#054861"/></g><g id="d"><circle cx="959.99" cy="249.36" r="183.06" fill="#5cebdf" opacity=".1"/><rect x="61.44" y="276.8" width="665.86" height="100.97" rx="12.6" ry="12.6" fill="#1c2126" opacity=".3"/><circle cx="959.99" cy="249.36" r="167.11" fill="#5cebdf" stroke="#1c2126" stroke-miterlimit="10" stroke-width="2"/><path d="M964.42,293.97c-2.67-11.37-10.1-21-16.51-30.51-6.76-10.02-12.48-20.61-15-32.55-2.65-12.5-1.69-25.39,3.57-37.1,3.08-6.86,8.04-12.73,13.33-18.01,11.58-11.53,25.4-20.68,36.35-32.87,4.49-5,8.54-10.77,10.02-17.42,1.65-7.43-.84-14.67-4.7-20.99-9.49-15.55-27.72-20.37-44.83-21.47-.63-.04-1.27-.07-1.9-.1-85.15,7.7-151.87,79.26-151.87,166.41,0,35,10.77,67.48,29.16,94.32.65-2.96,1.54-5.89,2.67-8.76,6.82-17.19,21.6-29.98,40.31-31.83,9.64-.95,18.94,1.47,27.81,5.02,11.07,4.44,21.12,11.53,32.65,14.76,19.19,5.38,44.33-5.97,38.94-28.91Z" fill="#30c8c9" stroke="#1c2126" stroke-miterlimit="10" stroke-width="2"/><path d="M1048.61,160.8c-4.94,7.87-11.37,14.66-17.25,21.82-5.7,6.94-10.59,14.7-15.29,22.35-5.01,8.14-9.68,16.66-12.59,25.8-2.39,7.5-4.82,17.69-.25,24.85,4.19,6.56,12.8,9.52,20.24,7.62,8.13-2.07,13.76-9.71,19.5-15.28,8.22-7.96,24.23-18.13,35.86-10.88,8.53,5.32,8.64,17.54,9.34,26.38.49,6.17.51,20.22,9.27,20.79,7.94.51,18.61-8.71,28.27-13.23.92-7.09,1.39-14.32,1.39-21.66,0-56.63-28.18-106.68-71.27-136.9,3.02,16.4,1.81,33.95-7.22,48.34Z" fill="#30c8c9" stroke="#1c2126" stroke-miterlimit="10" stroke-width="2"/><path d="M1084.25,324.83c-18.97-.93-36.35,7.94-48.59,22.1-10.41,12.05-15.8,28.69-31.05,35.99-19.72,9.44-42.16,3.63-62.42,10.17-10.39,3.36-18.79,9.71-25.51,17.7,13.81,3.7,28.32,5.68,43.3,5.68,62.65,0,117.24-34.48,145.85-85.5-6.58-3.56-13.89-5.76-21.58-6.14Z" fill="#30c8c9" stroke="#1c2126" stroke-miterlimit="10" stroke-width="2"/><path d="M777.39,88.04h-64.46c-6.19,0-11.2,5.02-11.2,11.2v26.37c0,6.19,5.02,11.2,11.2,11.2h39.86l21.19,23.01v-23.01h3.41c6.19,0,11.2-5.02,11.2-11.2v-26.37c0-6.19-5.02-11.2-11.2-11.2Z" fill="#fff" stroke="#1c2126" stroke-linecap="round" stroke-linejoin="round" stroke-width="2"/><path d="M748.47,99.79v22.77h-5.07v-10.35h-8.82v10.35h-5.07v-22.77h5.07v7.59h8.82v-7.59h5.07Z" fill="#1c2126"/><path d="M757.89,101.05c0,1.53-1.08,2.82-2.82,2.82s-2.79-1.29-2.79-2.82,1.05-2.82,2.79-2.82,2.82,1.26,2.82,2.82ZM757.44,105.4v17.16h-4.68v-17.16c.6.42,1.29.69,2.34.69s1.77-.27,2.34-.69Z" fill="#1c2126"/><path d="M104.3,230.98c-.44,0-.8-.14-1.08-.42-.28-.28-.42-.64-.42-1.08v-13.2l-14.04-25.38c-.04-.12-.08-.23-.12-.33-.04-.1-.06-.21-.06-.33,0-.32.13-.61.39-.87.26-.26.55-.39.87-.39h6.42c.52,0,.94.14,1.26.42.32.28.54.54.66.78l9.42,16.5,9.42-16.5c.12-.24.34-.5.66-.78.32-.28.76-.42,1.32-.42h6.36c.36,0,.66.13.9.39.24.26.36.55.36.87,0,.12,0,.23-.03.33-.02.1-.07.21-.15.33l-14.04,25.38v13.2c0,.44-.14.8-.42,1.08s-.64.42-1.08.42h-6.6Z" fill="#fff"/><path d="M140.6,231.58c-3.32,0-6.1-.55-8.34-1.65-2.24-1.1-3.95-2.67-5.13-4.71-1.18-2.04-1.83-4.42-1.95-7.14-.04-.8-.06-1.71-.06-2.73s.02-1.91.06-2.67c.12-2.76.8-5.15,2.04-7.17,1.24-2.02,2.98-3.58,5.22-4.68,2.24-1.1,4.96-1.65,8.16-1.65s5.86.55,8.1,1.65c2.24,1.1,3.98,2.66,5.22,4.68,1.24,2.02,1.94,4.41,2.1,7.17.04.76.06,1.65.06,2.67s-.02,1.93-.06,2.73c-.16,2.72-.83,5.1-2.01,7.14-1.18,2.04-2.89,3.61-5.13,4.71-2.24,1.1-5,1.65-8.28,1.65ZM140.6,224.92c1.96,0,3.43-.6,4.41-1.8.98-1.2,1.53-2.98,1.65-5.34.04-.6.06-1.4.06-2.4s-.02-1.8-.06-2.4c-.12-2.32-.67-4.09-1.65-5.31-.98-1.22-2.45-1.83-4.41-1.83s-3.44.61-4.44,1.83c-1,1.22-1.56,2.99-1.68,5.31-.04.6-.06,1.4-.06,2.4s.02,1.8.06,2.4c.12,2.36.68,4.14,1.68,5.34,1,1.2,2.48,1.8,4.44,1.8Z" fill="#fff"/><path d="M173.84,231.58c-2.32,0-4.37-.53-6.15-1.59-1.78-1.06-3.17-2.6-4.17-4.62-1-2.02-1.5-4.47-1.5-7.35v-16.74c0-.44.15-.8.45-1.08.3-.28.65-.42,1.05-.42h6.42c.4,0,.74.14,1.02.42.28.28.42.64.42,1.08v16.38c0,4.48,1.96,6.72,5.88,6.72,1.88,0,3.37-.59,4.47-1.77,1.1-1.18,1.65-2.83,1.65-4.95v-16.38c0-.44.14-.8.42-1.08.28-.28.64-.42,1.08-.42h6.36c.4,0,.74.14,1.02.42.28.28.42.64.42,1.08v28.2c0,.44-.14.8-.42,1.08s-.62.42-1.02.42h-5.94c-.4,0-.74-.14-1.02-.42-.28-.28-.42-.64-.42-1.08v-2.34c-1.04,1.44-2.38,2.54-4.02,3.3-1.64.76-3.64,1.14-6,1.14Z" fill="#fff"/><path d="M215,230.98c-.44,0-.8-.14-1.08-.42-.28-.28-.42-.64-.42-1.08v-39.6c0-.44.14-.8.42-1.08s.64-.42,1.08-.42h6.48c.44,0,.8.14,1.08.42.28.28.42.64.42,1.08v13.5c1.04-1.28,2.35-2.3,3.93-3.06,1.58-.76,3.47-1.14,5.67-1.14,2.36,0,4.45.53,6.27,1.59,1.82,1.06,3.24,2.6,4.26,4.62,1.02,2.02,1.53,4.47,1.53,7.35v16.74c0,.44-.14.8-.42,1.08s-.64.42-1.08.42h-6.54c-.4,0-.74-.14-1.02-.42-.28-.28-.42-.64-.42-1.08v-16.38c0-2.12-.52-3.77-1.56-4.95-1.04-1.18-2.52-1.77-4.44-1.77s-3.38.59-4.5,1.77c-1.12,1.18-1.68,2.83-1.68,4.95v16.38c0,.44-.14.8-.42,1.08s-.64.42-1.08.42h-6.48Z" fill="#fff"/><path d="M261.02,231.58c-2.12,0-4.02-.41-5.7-1.23-1.68-.82-3.02-1.93-4.02-3.33-1-1.4-1.5-2.96-1.5-4.68,0-2.84,1.15-5.08,3.45-6.72,2.3-1.64,5.33-2.76,9.09-3.36l7.86-1.14v-1.08c0-1.56-.36-2.76-1.08-3.6-.72-.84-1.98-1.26-3.78-1.26-1.32,0-2.37.26-3.15.78-.78.52-1.39,1.2-1.83,2.04-.32.52-.8.78-1.44.78h-5.7c-.44,0-.78-.13-1.02-.39-.24-.26-.34-.57-.3-.93,0-.68.26-1.48.78-2.4.52-.92,1.32-1.83,2.4-2.73,1.08-.9,2.47-1.65,4.17-2.25,1.7-.6,3.75-.9,6.15-.9,2.52,0,4.68.3,6.48.9,1.8.6,3.25,1.44,4.35,2.52,1.1,1.08,1.9,2.33,2.4,3.75.5,1.42.75,2.95.75,4.59v18.54c0,.44-.14.8-.42,1.08s-.62.42-1.02.42h-5.94c-.4,0-.74-.14-1.02-.42-.28-.28-.42-.64-.42-1.08v-2.22c-.52.76-1.22,1.47-2.1,2.13-.88.66-1.93,1.19-3.15,1.59-1.22.4-2.65.6-4.29.6ZM263.42,225.34c1.32,0,2.5-.28,3.54-.84,1.04-.56,1.86-1.42,2.46-2.58.6-1.16.9-2.62.9-4.38v-1.02l-5.58.9c-2.12.36-3.68.9-4.68,1.62-1,.72-1.5,1.6-1.5,2.64,0,.76.23,1.41.69,1.95.46.54,1.06.96,1.8,1.26.74.3,1.53.45,2.37.45Z" fill="#fff"/><path d="M298.21,231.58c-2,0-3.78-.33-5.34-.99-1.56-.66-2.88-1.62-3.96-2.88-1.08-1.26-1.9-2.76-2.46-4.5-.56-1.74-.9-3.67-1.02-5.79-.04-.76-.06-1.45-.06-2.07s.02-1.29.06-2.01c.08-2.08.41-3.98.99-5.7.58-1.72,1.4-3.21,2.46-4.47,1.06-1.26,2.38-2.24,3.96-2.94,1.58-.7,3.37-1.05,5.37-1.05s3.86.35,5.34,1.05c1.48.7,2.7,1.59,3.66,2.67v-13.02c0-.44.14-.8.42-1.08s.64-.42,1.08-.42h6.18c.44,0,.8.14,1.08.42.28.28.42.64.42,1.08v39.6c0,.44-.14.8-.42,1.08s-.64.42-1.08.42h-5.76c-.4,0-.74-.14-1.02-.42-.28-.28-.42-.64-.42-1.08v-2.04c-1,1.2-2.26,2.19-3.78,2.97-1.52.78-3.42,1.17-5.7,1.17ZM300.97,224.38c1.48,0,2.67-.34,3.57-1.02.9-.68,1.56-1.54,1.98-2.58.42-1.04.65-2.16.69-3.36.08-.76.12-1.52.12-2.28s-.04-1.5-.12-2.22c-.04-1.12-.29-2.17-.75-3.15-.46-.98-1.13-1.79-2.01-2.43-.88-.64-2.04-.96-3.48-.96-1.52,0-2.72.33-3.6.99-.88.66-1.51,1.53-1.89,2.61-.38,1.08-.61,2.26-.69,3.54-.08,1.24-.08,2.48,0,3.72.08,1.28.31,2.46.69,3.54.38,1.08,1.01,1.95,1.89,2.61.88.66,2.08.99,3.6.99Z" fill="#fff"/><path d="M338.65,230.98c-.4,0-.75-.14-1.05-.42-.3-.28-.45-.64-.45-1.08v-28.2c0-.44.15-.8.45-1.08.3-.28.65-.42,1.05-.42h5.58c.44,0,.8.14,1.08.42.28.28.42.64.42,1.08v2.04c.84-1.12,1.97-2.08,3.39-2.88,1.42-.8,3.11-1.22,5.07-1.26,4.6-.08,7.78,1.68,9.54,5.28.92-1.56,2.24-2.83,3.96-3.81,1.72-.98,3.62-1.47,5.7-1.47s3.96.47,5.64,1.41c1.68.94,3.02,2.38,4.02,4.32,1,1.94,1.5,4.43,1.5,7.47v17.1c0,.44-.15.8-.45,1.08-.3.28-.65.42-1.05.42h-5.94c-.44,0-.8-.14-1.08-.42-.28-.28-.42-.64-.42-1.08v-16.62c0-1.64-.23-2.92-.69-3.84-.46-.92-1.08-1.59-1.86-2.01-.78-.42-1.65-.63-2.61-.63-.84,0-1.65.21-2.43.63-.78.42-1.42,1.09-1.92,2.01-.5.92-.75,2.2-.75,3.84v16.62c0,.44-.14.8-.42,1.08s-.62.42-1.02.42h-5.94c-.44,0-.8-.14-1.08-.42-.28-.28-.42-.64-.42-1.08v-16.62c0-1.64-.24-2.92-.72-3.84-.48-.92-1.11-1.59-1.89-2.01-.78-.42-1.63-.63-2.55-.63-.84,0-1.65.21-2.43.63-.78.42-1.42,1.09-1.92,2.01-.5.92-.75,2.18-.75,3.78v16.68c0,.44-.14.8-.42,1.08s-.64.42-1.08.42h-6.06Z" fill="#fff"/><path d="M405.67,231.58c-4.6,0-8.25-1.28-10.95-3.84-2.7-2.56-4.13-6.28-4.29-11.16v-2.52c.16-3.12.86-5.79,2.1-8.01,1.24-2.22,2.98-3.92,5.22-5.1,2.24-1.18,4.86-1.77,7.86-1.77,3.4,0,6.22.69,8.46,2.07s3.93,3.26,5.07,5.64c1.14,2.38,1.71,5.11,1.71,8.19v1.38c0,.4-.14.75-.42,1.05-.28.3-.64.45-1.08.45h-19.56v.42c.04,1.28.28,2.45.72,3.51.44,1.06,1.09,1.91,1.95,2.55.86.64,1.91.96,3.15.96.96,0,1.76-.15,2.4-.45.64-.3,1.17-.64,1.59-1.02.42-.38.73-.71.93-.99.36-.44.65-.71.87-.81.22-.1.55-.15.99-.15h6.36c.36,0,.67.12.93.36.26.24.37.54.33.9-.04.68-.37,1.49-.99,2.43-.62.94-1.53,1.86-2.73,2.76-1.2.9-2.69,1.65-4.47,2.25-1.78.6-3.83.9-6.15.9ZM399.79,212.44h11.7v-.18c0-1.4-.23-2.63-.69-3.69-.46-1.06-1.13-1.89-2.01-2.49-.88-.6-1.94-.9-3.18-.9s-2.29.3-3.15.9c-.86.6-1.52,1.43-1.98,2.49-.46,1.06-.69,2.29-.69,3.69v.18Z" fill="#fff"/><path d="M449.35,231.58c-2.12,0-4.02-.41-5.7-1.23-1.68-.82-3.02-1.93-4.02-3.33-1-1.4-1.5-2.96-1.5-4.68,0-2.84,1.15-5.08,3.45-6.72,2.3-1.64,5.33-2.76,9.09-3.36l7.86-1.14v-1.08c0-1.56-.36-2.76-1.08-3.6-.72-.84-1.98-1.26-3.78-1.26-1.32,0-2.37.26-3.15.78-.78.52-1.39,1.2-1.83,2.04-.32.52-.8.78-1.44.78h-5.7c-.44,0-.78-.13-1.02-.39-.24-.26-.34-.57-.3-.93,0-.68.26-1.48.78-2.4.52-.92,1.32-1.83,2.4-2.73,1.08-.9,2.47-1.65,4.17-2.25,1.7-.6,3.75-.9,6.15-.9,2.52,0,4.68.3,6.48.9,1.8.6,3.25,1.44,4.35,2.52,1.1,1.08,1.9,2.33,2.4,3.75.5,1.42.75,2.95.75,4.59v18.54c0,.44-.14.8-.42,1.08s-.62.42-1.02.42h-5.94c-.4,0-.74-.14-1.02-.42-.28-.28-.42-.64-.42-1.08v-2.22c-.52.76-1.22,1.47-2.1,2.13-.88.66-1.93,1.19-3.15,1.59-1.22.4-2.65.6-4.29.6ZM451.75,225.34c1.32,0,2.5-.28,3.54-.84,1.04-.56,1.86-1.42,2.46-2.58.6-1.16.9-2.62.9-4.38v-1.02l-5.58.9c-2.12.36-3.68.9-4.68,1.62-1,.72-1.5,1.6-1.5,2.64,0,.76.23,1.41.69,1.95.46.54,1.06.96,1.8,1.26.74.3,1.53.45,2.37.45Z" fill="#fff"/><path d="M489.73,230.98c-2.48,0-4.59-.41-6.33-1.23-1.74-.82-3.07-2.09-3.99-3.81-.92-1.72-1.38-3.88-1.38-6.48v-12.6h-4.68c-.44,0-.8-.14-1.08-.42-.28-.28-.42-.62-.42-1.02v-4.14c0-.44.14-.8.42-1.08.28-.28.64-.42,1.08-.42h4.68v-9.9c0-.44.15-.8.45-1.08.3-.28.65-.42,1.05-.42h5.94c.4,0,.74.14,1.02.42.28.28.42.64.42,1.08v9.9h7.5c.44,0,.8.14,1.08.42.28.28.42.64.42,1.08v4.14c0,.4-.14.74-.42,1.02s-.64.42-1.08.42h-7.5v11.88c0,1.52.28,2.71.84,3.57.56.86,1.5,1.29,2.82,1.29h4.38c.44,0,.8.14,1.08.42.28.28.42.62.42,1.02v4.44c0,.44-.14.8-.42,1.08s-.64.42-1.08.42h-5.22Z" fill="#fff"/><path d="M117.96,359.49v-28.56h-23.89v28.56h-10.81v-65.53h10.81v27.38h23.89v-27.38h10.81v65.53h-10.81Z" fill="#fff"/><path d="M185.35,346c-1.18,8.54-9.63,14.49-20.75,14.49-14.17,0-22.34-8.13-22.34-22.3v-7.77c0-13.03,8.76-21.66,21.98-21.66s21.21,8.58,21.21,22.39v6.04h-32.79v2.41c0,7.58,4.68,12.49,11.9,12.49,5.49,0,9.72-2.41,10.76-6.08h10.04ZM152.65,330.11h22.52c0-8.08-4.18-12.99-11.13-12.99s-11.4,4.86-11.4,12.99Z" fill="#fff"/><path d="M200.56,359.49v-8.45h16.3v-52.04h-15.76v-8.45h26.29v60.49h15.48v8.45h-42.32Z" fill="#fff"/><path d="M258.05,359.49v-8.45h16.3v-52.04h-15.76v-8.45h26.29v60.49h15.48v8.45h-42.32Z" fill="#fff"/><path d="M313.59,338.42v-7.58c0-13.53,8.67-22.07,22.39-22.07s22.39,8.54,22.39,22.07v7.58c0,13.53-8.67,22.07-22.39,22.07s-22.39-8.54-22.39-22.07ZM324.03,331.42v6.4c0,8.58,4.59,13.89,11.94,13.89s11.94-5.31,11.94-13.89v-6.4c0-8.58-4.59-13.9-11.94-13.9s-11.94,5.31-11.94,13.9Z" fill="#fff"/><path d="M450.63,320.03l-7.99,39.46h-9.81l-10.63-65.53h10.08l3.18,24.11,3.09,26.47h.64l7.31-35.6h8.9l7.31,35.6h.64l3.09-26.47,3.18-24.11h10.08l-10.63,65.53h-9.81l-7.99-39.46h-.64Z" fill="#fff"/><path d="M486.05,338.42v-7.58c0-13.53,8.67-22.07,22.39-22.07s22.39,8.54,22.39,22.07v7.58c0,13.53-8.67,22.07-22.39,22.07s-22.39-8.54-22.39-22.07ZM496.5,331.42v6.4c0,8.58,4.59,13.89,11.94,13.89s11.94-5.31,11.94-13.89v-6.4c0-8.58-4.59-13.9-11.94-13.9s-11.94,5.31-11.94,13.9Z" fill="#fff"/><path d="M566.16,322.48c2.04-9.58,7.58-14.03,17.03-14.03,2.82,0,5.4.36,7.13,1.04v11.49c-2.23-.86-5.49-1.41-8.22-1.41-11.49,0-17.53,6.27-17.53,17.76v14.26h14.8v7.9h-34.65v-7.9h9.67v-33.92h-10.63v-7.9h20.84v12.72h1.54Z" fill="#fff"/><path d="M602.99,359.49v-8.45h16.3v-52.04h-15.76v-8.45h26.29v60.49h15.49v8.45h-42.32Z" fill="#fff"/><path d="M690.67,351.31c-2.09,5.81-7.13,8.95-14.35,8.95-11.4,0-18.48-7.99-18.48-21.25v-8.85c0-13.21,7.08-21.25,18.48-21.25,7.17,0,12.31,3.22,14.17,8.99h.91v-27.34h10.9v68.93h-10.72v-8.17h-.91ZM668.6,338.37c0,7.81,4.4,12.67,11.53,12.67s11.49-4.86,11.49-12.67v-7.77c0-7.86-4.41-12.71-11.49-12.71s-11.53,4.9-11.53,12.71v7.77Z" fill="#fff"/><path d="M1070.39,123.93c15.84,25.28,25.01,55.16,25.01,87.19,0,90.82-73.62,164.44-164.44,164.44-48.18,0-91.52-20.72-121.59-53.74,26.99,56,84.29,94.64,150.62,94.64,92.29,0,167.11-74.82,167.11-167.11,0-49.97-21.94-94.81-56.7-125.43Z" fill="#054861" opacity=".1"/><path d="M1013.56,27.64c1.93,0,1.93-3,0-3s-1.93,3,0,3h0Z" fill="#fff"/><path d="M936.19,38.2c1.93,0,1.93-3,0-3s-1.93,3,0,3h0Z" fill="#fff"/><path d="M679.68,48.03c1.93,0,1.93-3,0-3s-1.93,3,0,3h0Z" fill="#fff"/><path d="M635.42,187.78c1.93,0,1.93-3,0-3s-1.93,3,0,3h0Z" fill="#fff"/><path d="M731.77,238.13c1.93,0,1.93-3,0-3s-1.93,3,0,3h0Z" fill="#fff"/><path d="M614.58,425.62c1.93,0,1.93-3,0-3s-1.93,3,0,3h0Z" fill="#fff"/><path d="M788.6,404.59c1.93,0,1.93-3,0-3s-1.93,3,0,3h0Z" fill="#fff"/><path d="M865.44,460.34c1.93,0,1.93-3,0-3s-1.93,3,0,3h0Z" fill="#fff"/><path d="M1136.27,430.83c1.93,0,1.93-3,0-3s-1.93,3,0,3h0Z" fill="#fff"/><path d="M1173.59,233.79c1.93,0,1.93-3,0-3s-1.93,3,0,3h0Z" fill="#fff"/><path d="M1116.11,114.87c1.93,0,1.93-3,0-3s-1.93,3,0,3h0Z" fill="#fff"/><path d="M1163.18,59.31c1.93,0,1.93-3,0-3s-1.93,3,0,3h0Z" fill="#fff"/><path d="M327.16,101.41c1.93,0,1.93-3,0-3s-1.93,3,0,3h0Z" fill="#fff"/><path d="M184.78,124.19c1.93,0,1.93-3,0-3s-1.93,3,0,3h0Z" fill="#fff"/><path d="M101.62,62.68c1.93,0,1.93-3,0-3s-1.93,3,0,3h0Z" fill="#fff"/><path d="M876.67,68.73c-.1-1.05-.6-2.02-1.15-2.92-.96-1.58-2.22-3.13-3.99-3.68-1.85-.58-3.87.08-5.55,1.04-1.51.86-2.85,1.98-4,3.28-.36-2.4-1.23-4.77-2.83-6.59-1.62-1.84-4.06-3.06-6.5-2.85-2.45.21-4.77,2.02-5.24,4.43-.45,2.31.75,4.59,1.93,6.63,2.93,5.1,5.94,10.15,9.03,15.15,4.28-2.51,8.56-5.02,12.84-7.52,2.7-1.58,5.78-3.85,5.47-6.97Z" fill="#ff6b60" stroke="#1c2126" stroke-linejoin="round" stroke-width="2"/><path d="M832.74,40.32c-.86-.86-2-1.37-3.15-1.77-2.01-.71-4.26-1.19-6.24-.4-2.08.83-3.41,2.88-4.22,4.96-.72,1.86-1.12,3.85-1.2,5.84-2.06-1.89-4.56-3.38-7.32-3.85-2.79-.48-5.85.21-7.89,2.17-2.04,1.96-2.81,5.27-1.47,7.77,1.28,2.39,4.01,3.56,6.54,4.54,6.33,2.44,12.69,4.78,19.09,7.01,2.01-5.35,4.02-10.71,6.03-16.06,1.27-3.38,2.37-7.65-.17-10.21Z" fill="#ff6b60" stroke="#1c2126" stroke-linejoin="round" stroke-width="2"/><path d="M849.35,104.82c-1.02-.8-2.3-1.18-3.56-1.45-2.22-.49-4.66-.69-6.64.41-2.08,1.15-3.22,3.49-3.79,5.8-.52,2.06-.67,4.21-.49,6.33-2.43-1.72-5.27-2.96-8.24-3.09-3.01-.13-6.15,1-8.04,3.34-1.89,2.34-2.26,5.94-.52,8.4,1.67,2.36,4.7,3.22,7.5,3.92,7,1.73,14.03,3.35,21.08,4.86,1.41-5.92,2.82-11.84,4.23-17.75.89-3.73,1.49-8.39-1.53-10.76Z" fill="#ff6b60" stroke="#1c2126" stroke-linejoin="round" stroke-width="2"/><path d="M399.35,445.3c1.93,0,1.93-3,0-3s-1.93,3,0,3h0Z" fill="#fff"/><path d="M165.56,428.35c1.93,0,1.93-3,0-3s-1.93,3,0,3h0Z" fill="#fff"/><path d="M85.93,452.07c1.93,0,1.93-3,0-3s-1.93,3,0,3h0Z" fill="#fff"/><path d="M492.52,53.95c1.93,0,1.93-3,0-3s-1.93,3,0,3h0Z" fill="#fff"/><path d="M31.72,242c1.93,0,1.93-3,0-3s-1.93,3,0,3h0Z" fill="#fff"/><path d="M823.95,201.05s10.16-10.49,20.66,0" fill="none" stroke="#1c2126" stroke-linecap="round" stroke-miterlimit="10" stroke-width="2"/><path d="M859.37,201.05s10.16-10.49,20.66,0" fill="none" stroke="#1c2126" stroke-linecap="round" stroke-miterlimit="10" stroke-width="2"/><path d="M829.98,213.32c.37,11.09,10.2,19.99,22.3,19.99s21.94-8.89,22.3-19.99h-44.61Z" fill="#7a122d" stroke="#1c2126" stroke-linecap="round" stroke-linejoin="round" stroke-width="2"/><rect x="0" y="595" width="1200" height="35" fill="#fff"/><rect x="0" y="499.19" width="1200" height="95.81" fill="#fff"/><line x1="0" y1="499.19" x2="1200" y2="499.19" fill="none" stroke="#1c2126" stroke-miterlimit="10"/><line x1="0" y1="595" x2="1200" y2="595" fill="none" stroke="#1c2126" stroke-miterlimit="10"/><path d="M24.24,559.45v-18.76h-6.39v-2.37h15.35v2.37h-6.39v18.76h-2.58Z" fill="#1c2126"/><path d="M44.08,559.89c-4.8,0-7.75-3.46-7.75-9.3v-3.41c0-5.84,2.94-9.3,7.75-9.3s7.75,3.46,7.75,9.3v3.41c0,5.84-2.94,9.3-7.75,9.3ZM49.22,550.58v-3.38c0-4.41-1.93-6.87-5.14-6.87s-5.14,2.46-5.14,6.87v3.38c0,4.41,1.93,6.87,5.14,6.87s5.14-2.46,5.14-6.87Z" fill="#1c2126"/><path d="M59.97,545.58c0-1.48,1.2-2.71,2.65-2.71s2.65,1.23,2.65,2.71-1.2,2.71-2.65,2.71-2.65-1.23-2.65-2.71ZM59.97,556.83c0-1.48,1.2-2.7,2.65-2.7s2.65,1.22,2.65,2.7-1.2,2.71-2.65,2.71-2.65-1.22-2.65-2.71Z" fill="#1c2126"/><line x1="582.03" y1="498.72" x2="582.03" y2="595" fill="none" stroke="#1c2126" stroke-miterlimit="10"/><path d="M605.51,559.45v-21.14h12.47v2.37h-9.87v7.25h9.02v2.3h-9.02v9.21h-2.59Z" fill="#1c2126"/><path d="M625.54,551.03v8.42h-2.55v-21.14h7.09c4.19,0,6.81,2.43,6.81,6.36,0,2.77-1.54,5.04-3.94,5.83l4.31,8.95h-2.92l-3.94-8.42h-4.86ZM625.54,548.85h4.19c2.92,0,4.56-1.48,4.56-4.12s-1.61-4.12-4.44-4.12h-4.31v8.23Z" fill="#1c2126"/><path d="M648.15,559.89c-4.8,0-7.75-3.46-7.75-9.3v-3.41c0-5.84,2.94-9.3,7.75-9.3s7.75,3.46,7.75,9.3v3.41c0,5.84-2.94,9.3-7.75,9.3ZM653.29,550.58v-3.38c0-4.41-1.93-6.87-5.14-6.87s-5.14,2.46-5.14,6.87v3.38c0,4.41,1.93,6.87,5.14,6.87s5.14-2.46,5.14-6.87Z" fill="#1c2126"/><path d="M661.18,559.45h-2.31v-21.14h2.86l4.88,13.08h.19l4.86-13.08h2.86v21.14h-2.31v-8.1l.15-8.57h-.19l-4.45,11.7h-2.02l-4.45-11.7h-.19l.15,8.57v8.1Z" fill="#1c2126"/><path d="M682.59,545.58c0-1.48,1.2-2.71,2.65-2.71s2.65,1.23,2.65,2.71-1.2,2.71-2.65,2.71-2.65-1.23-2.65-2.71ZM682.59,556.83c0-1.48,1.2-2.7,2.65-2.7s2.65,1.22,2.65,2.7-1.2,2.71-2.65,2.71-2.65-1.22-2.65-2.71Z" fill="#1c2126"/><path d="M12.77,618.41c-.12,0-.21-.04-.26-.11-.06-.07-.08-.17-.06-.27l2.22-10.42c.02-.12.07-.21.16-.29.08-.07.19-.11.3-.11h6.94c.12,0,.2.04.26.11.05.07.07.17.05.29l-.24,1.12c-.02.12-.07.21-.16.28-.09.07-.19.1-.3.1h-5.14l-.66,3.04h4.82c.12,0,.2.04.26.11.05.07.07.17.05.29l-.22,1.12c-.02.11-.08.2-.17.27-.09.07-.19.11-.31.11h-4.82l-.85,3.97c-.02.11-.08.2-.16.27-.09.08-.19.11-.3.11h-1.41Z" fill="#1c2126"/><path d="M25.41,618.57c-.81,0-1.49-.15-2.02-.45s-.92-.72-1.15-1.26c-.23-.54-.29-1.18-.17-1.9.03-.19.08-.43.14-.7s.11-.51.17-.7c.19-.74.49-1.37.89-1.91.4-.54.91-.96,1.54-1.26.62-.3,1.36-.45,2.22-.45s1.49.15,2.02.45c.54.3.93.72,1.16,1.26.23.54.29,1.18.18,1.91-.04.19-.09.43-.14.7s-.11.51-.16.7c-.19.73-.48,1.36-.87,1.9-.39.54-.9.96-1.52,1.26s-1.38.45-2.26.45ZM25.57,616.98c.58,0,1.06-.18,1.46-.54s.69-.88.87-1.58c.04-.16.09-.37.14-.62.05-.26.1-.46.13-.62.12-.69.07-1.22-.14-1.58-.21-.36-.61-.54-1.18-.54s-1.05.18-1.46.54c-.41.36-.69.88-.86,1.58-.04.16-.09.37-.15.62s-.1.46-.12.62c-.12.69-.07,1.22.14,1.58s.6.54,1.18.54Z" fill="#1c2126"/><path d="M31.53,618.41c-.11,0-.19-.04-.25-.11-.06-.07-.08-.17-.06-.27l1.6-7.54c.02-.12.08-.21.17-.29.09-.07.19-.11.3-.11h1.3c.11,0,.19.04.25.11.06.08.08.17.06.29l-.14.66c.26-.34.58-.6.98-.78.39-.18.87-.27,1.44-.27h.78c.12,0,.2.04.26.11.05.08.07.17.05.27l-.24,1.15c-.02.11-.08.2-.17.27-.09.07-.19.11-.3.11h-1.25c-.51,0-.94.14-1.29.42-.35.28-.57.68-.68,1.19l-.94,4.4c-.02.11-.07.2-.16.27-.09.08-.19.11-.3.11h-1.39Z" fill="#1c2126"/><path d="M44.76,618.41c-.73,0-1.29-.11-1.7-.34s-.67-.56-.78-1-.11-.99.03-1.66l.78-3.63h-1.26c-.11,0-.19-.04-.25-.11-.06-.07-.08-.17-.06-.29l.19-.91c.02-.11.08-.2.17-.27.09-.07.19-.11.31-.11h1.25l.58-2.66c.02-.11.07-.2.16-.27.08-.07.18-.11.29-.11h1.3c.12,0,.21.04.26.11.06.08.08.17.06.27l-.58,2.66h2c.11,0,.19.04.25.11.06.08.08.17.06.27l-.19.91c-.02.12-.08.21-.17.29-.09.08-.19.11-.3.11h-2l-.74,3.47c-.06.29-.1.54-.1.74s.05.37.17.48c.12.11.33.17.62.17h1.15c.12,0,.2.04.26.11.05.08.07.17.05.27l-.21.99c-.02.11-.07.2-.16.27-.09.08-.19.11-.3.11h-1.14Z" fill="#1c2126"/><path d="M48.07,618.41c-.11,0-.19-.04-.25-.11-.06-.07-.08-.17-.06-.27l2.26-10.59c.02-.11.07-.2.16-.27.08-.07.18-.11.29-.11h1.44c.11,0,.19.04.25.11.06.08.08.17.06.27l-.78,3.65c.34-.34.72-.62,1.14-.83.42-.21.93-.32,1.53-.32.69,0,1.26.15,1.7.44.44.29.75.71.92,1.24.17.53.18,1.17.02,1.92l-.96,4.5c-.02.11-.07.2-.16.27-.09.08-.19.11-.3.11h-1.44c-.11,0-.19-.04-.25-.11-.06-.07-.08-.17-.06-.27l.93-4.4c.14-.62.11-1.1-.08-1.46-.19-.35-.58-.53-1.17-.53-.36,0-.71.08-1.03.23-.33.16-.61.38-.84.68-.23.3-.4.66-.5,1.07l-.93,4.4c-.02.11-.07.2-.16.27-.09.08-.18.11-.29.11h-1.44Z" fill="#1c2126"/><path d="M61.51,618.57c-.78,0-1.43-.16-1.94-.46-.52-.31-.87-.76-1.07-1.34-.2-.59-.23-1.3-.09-2.13.02-.11.05-.24.08-.41.03-.17.06-.3.1-.39.21-.81.54-1.51.99-2.09.45-.58.99-1.03,1.64-1.34s1.36-.47,2.14-.47c.86,0,1.55.18,2.06.54.51.36.84.85,1.01,1.49.17.63.16,1.37,0,2.2l-.08.34c-.02.11-.08.2-.17.27-.09.08-.19.11-.31.11h-5.31c-.01.06-.02.11-.03.13-.05.37-.05.72.02,1.03s.21.57.42.76c.22.19.51.29.87.29.3,0,.56-.04.78-.14s.41-.19.55-.31c.14-.12.25-.21.33-.29.13-.13.22-.21.29-.23s.15-.04.27-.04h1.39c.1,0,.17.03.22.1.05.06.07.14.05.24-.05.17-.19.38-.4.62-.21.25-.5.49-.86.72-.36.24-.79.43-1.29.58s-1.04.23-1.64.23ZM60.82,613.53h3.54l.02-.05c.1-.42.1-.78.02-1.1-.08-.31-.23-.56-.46-.74-.22-.18-.52-.26-.9-.26s-.71.09-1.02.26c-.3.18-.56.42-.76.74-.2.32-.35.68-.43,1.1l-.02.05Z" fill="#1c2126"/><path d="M71.06,618.41c-.11,0-.19-.04-.25-.11-.06-.07-.08-.17-.06-.27l2.26-10.59c.02-.11.07-.2.16-.27.08-.07.18-.11.29-.11h1.33c.12,0,.21.04.26.11.06.08.08.17.06.27l-2.26,10.59c-.02.11-.08.2-.16.27-.09.08-.19.11-.3.11h-1.33Z" fill="#1c2126"/><path d="M78.64,618.57c-.81,0-1.49-.15-2.02-.45s-.92-.72-1.15-1.26c-.23-.54-.29-1.18-.17-1.9.03-.19.08-.43.14-.7s.11-.51.17-.7c.19-.74.49-1.37.89-1.91.4-.54.91-.96,1.54-1.26.62-.3,1.36-.45,2.22-.45s1.49.15,2.02.45c.54.3.93.72,1.16,1.26.23.54.29,1.18.18,1.91-.04.19-.09.43-.14.7s-.11.51-.16.7c-.19.73-.48,1.36-.87,1.9-.39.54-.9.96-1.52,1.26s-1.38.45-2.26.45ZM78.8,616.98c.58,0,1.06-.18,1.46-.54s.69-.88.87-1.58c.04-.16.09-.37.14-.62.05-.26.1-.46.13-.62.12-.69.07-1.22-.14-1.58-.21-.36-.61-.54-1.18-.54s-1.05.18-1.46.54c-.41.36-.69.88-.86,1.58-.04.16-.09.37-.15.62s-.1.46-.12.62c-.12.69-.07,1.22.14,1.58s.6.54,1.18.54Z" fill="#1c2126"/><path d="M86.92,618.41c-.16,0-.27-.04-.34-.12s-.11-.17-.13-.28l-1.42-7.49c-.02-.14,0-.25.08-.32.07-.07.18-.11.3-.11h1.22c.12,0,.21.03.27.1.06.06.11.15.13.27l.91,5.55,3.33-5.62c.03-.06.09-.13.17-.2s.18-.1.31-.1h1.39c.13,0,.22.05.26.14s.03.21-.06.35l-4.56,7.42c-.07.11-.16.2-.25.28-.09.08-.22.12-.38.12h-1.25Z" fill="#1c2126"/><path d="M96.66,618.57c-.78,0-1.43-.16-1.94-.46-.52-.31-.87-.76-1.07-1.34-.2-.59-.23-1.3-.09-2.13.02-.11.05-.24.08-.41.03-.17.06-.3.1-.39.21-.81.54-1.51.99-2.09.45-.58.99-1.03,1.64-1.34s1.36-.47,2.14-.47c.86,0,1.55.18,2.06.54.51.36.84.85,1.01,1.49.17.63.16,1.37,0,2.2l-.08.34c-.02.11-.08.2-.17.27-.09.08-.19.11-.31.11h-5.31c-.01.06-.02.11-.03.13-.05.37-.05.72.02,1.03s.21.57.42.76c.22.19.51.29.87.29.3,0,.56-.04.78-.14s.41-.19.55-.31c.14-.12.25-.21.33-.29.13-.13.22-.21.29-.23s.15-.04.27-.04h1.39c.1,0,.17.03.22.1.05.06.07.14.05.24-.05.17-.19.38-.4.62-.21.25-.5.49-.86.72-.36.24-.79.43-1.29.58s-1.04.23-1.64.23ZM95.97,613.53h3.54l.02-.05c.1-.42.1-.78.02-1.1-.08-.31-.23-.56-.46-.74-.22-.18-.52-.26-.9-.26s-.71.09-1.02.26c-.3.18-.56.42-.76.74-.2.32-.35.68-.43,1.1l-.02.05Z" fill="#1c2126"/><path d="M109.56,618.57c-.81,0-1.49-.15-2.02-.45s-.92-.72-1.15-1.26c-.23-.54-.29-1.18-.17-1.9.03-.19.08-.43.14-.7s.11-.51.17-.7c.19-.74.49-1.37.89-1.91.4-.54.91-.96,1.54-1.26.62-.3,1.36-.45,2.22-.45s1.49.15,2.02.45c.54.3.93.72,1.16,1.26.23.54.29,1.18.18,1.91-.04.19-.09.43-.14.7s-.11.51-.16.7c-.19.73-.48,1.36-.87,1.9-.39.54-.9.96-1.52,1.26s-1.38.45-2.26.45ZM109.72,616.98c.58,0,1.06-.18,1.46-.54s.69-.88.87-1.58c.04-.16.09-.37.14-.62.05-.26.1-.46.13-.62.12-.69.07-1.22-.14-1.58-.21-.36-.61-.54-1.18-.54s-1.05.18-1.46.54c-.41.36-.69.88-.86,1.58-.04.16-.09.37-.15.62s-.1.46-.12.62c-.12.69-.07,1.22.14,1.58s.6.54,1.18.54Z" fill="#1c2126"/><path d="M116.42,618.41c-.12,0-.21-.04-.26-.11-.06-.07-.08-.17-.06-.27l1.33-6.24h-1.3c-.11,0-.19-.04-.25-.11-.06-.07-.08-.17-.06-.29l.19-.91c.02-.11.08-.2.17-.27.09-.07.19-.11.31-.11h1.3l.13-.66c.15-.64.38-1.17.69-1.59.31-.42.7-.74,1.18-.95.48-.21,1.04-.32,1.68-.32h1.28c.12,0,.2.04.26.11.05.07.07.17.05.27l-.19.91c-.02.12-.08.21-.17.29s-.19.11-.3.11h-.96c-.43,0-.76.11-.99.32-.23.21-.39.52-.46.93l-.13.58h1.98c.12,0,.2.04.26.11.05.08.07.17.05.27l-.19.91c-.02.12-.07.21-.16.29-.09.08-.19.11-.3.11h-1.98l-1.34,6.24c-.02.11-.07.2-.16.27-.09.08-.18.11-.29.11h-1.3Z" fill="#1c2126"/><path d="M128.85,618.57c-.81,0-1.49-.15-2.02-.45s-.92-.72-1.15-1.26c-.23-.54-.29-1.18-.17-1.9.03-.19.08-.43.14-.7s.11-.51.17-.7c.19-.74.49-1.37.89-1.91.4-.54.91-.96,1.54-1.26.62-.3,1.36-.45,2.22-.45s1.49.15,2.02.45c.54.3.93.72,1.16,1.26.23.54.29,1.18.18,1.91-.04.19-.09.43-.14.7s-.11.51-.16.7c-.19.73-.48,1.36-.87,1.9-.39.54-.9.96-1.52,1.26s-1.38.45-2.26.45ZM129.01,616.98c.58,0,1.06-.18,1.46-.54s.69-.88.87-1.58c.04-.16.09-.37.14-.62.05-.26.1-.46.13-.62.12-.69.07-1.22-.14-1.58-.21-.36-.61-.54-1.18-.54s-1.05.18-1.46.54c-.41.36-.69.88-.86,1.58-.04.16-.09.37-.15.62s-.1.46-.12.62c-.12.69-.07,1.22.14,1.58s.6.54,1.18.54Z" fill="#1c2126"/><path d="M134.32,621.45c-.11,0-.19-.04-.25-.11-.06-.07-.08-.17-.06-.27l2.26-10.59c.02-.11.07-.2.16-.27.09-.07.18-.11.29-.11h1.28c.11,0,.19.04.25.11.06.08.08.17.06.27l-.14.64c.33-.34.7-.62,1.1-.85.4-.22.93-.34,1.58-.34.55,0,1.03.09,1.42.28.39.19.7.45.92.79.22.34.37.74.44,1.21.07.46.06.97-.04,1.53-.02.18-.05.35-.09.51-.04.16-.08.34-.14.53-.13.52-.31,1.02-.54,1.48-.23.46-.52.87-.86,1.22s-.73.62-1.18.81c-.45.19-.96.29-1.53.29-.6,0-1.09-.1-1.47-.31-.38-.21-.66-.48-.83-.82l-.78,3.63c-.02.11-.07.2-.16.27-.09.08-.19.11-.3.11h-1.36ZM138.88,616.85c.43,0,.79-.1,1.09-.3.3-.2.55-.46.74-.78.2-.33.35-.67.47-1.05.05-.16.1-.32.13-.48.03-.16.06-.32.08-.48.05-.38.06-.74.02-1.06-.04-.32-.16-.58-.36-.78-.2-.2-.51-.3-.94-.3-.45,0-.83.1-1.16.3-.33.2-.59.46-.8.78-.21.32-.35.64-.44.97-.05.19-.1.39-.14.61-.04.21-.08.42-.11.62-.05.32-.05.63,0,.92.06.29.2.54.43.73.23.19.56.29.98.29Z" fill="#1c2126"/><path d="M148.13,618.57c-.78,0-1.43-.16-1.94-.46-.52-.31-.87-.76-1.07-1.34-.2-.59-.23-1.3-.09-2.13.02-.11.05-.24.08-.41.03-.17.06-.3.1-.39.21-.81.54-1.51.99-2.09.45-.58.99-1.03,1.64-1.34s1.36-.47,2.14-.47c.86,0,1.55.18,2.06.54.51.36.84.85,1.01,1.49.17.63.16,1.37,0,2.2l-.08.34c-.02.11-.08.2-.17.27-.09.08-.19.11-.31.11h-5.31c-.01.06-.02.11-.03.13-.05.37-.05.72.02,1.03s.21.57.42.76c.22.19.51.29.87.29.3,0,.56-.04.78-.14s.41-.19.55-.31c.14-.12.25-.21.33-.29.13-.13.22-.21.29-.23s.15-.04.27-.04h1.39c.1,0,.17.03.22.1.05.06.07.14.05.24-.05.17-.19.38-.4.62-.21.25-.5.49-.86.72-.36.24-.79.43-1.29.58s-1.04.23-1.64.23ZM147.44,613.53h3.54l.02-.05c.1-.42.1-.78.02-1.1-.08-.31-.23-.56-.46-.74-.22-.18-.52-.26-.9-.26s-.71.09-1.02.26c-.3.18-.56.42-.76.74-.2.32-.35.68-.43,1.1l-.02.05Z" fill="#1c2126"/><path d="M153.96,618.41c-.11,0-.19-.04-.25-.11-.06-.07-.08-.17-.06-.27l1.6-7.55c.02-.11.08-.2.17-.27.09-.07.19-.11.3-.11h1.31c.11,0,.19.04.24.11.05.08.07.17.05.27l-.14.66c.34-.34.74-.63,1.21-.86s.99-.34,1.58-.34c.73,0,1.31.15,1.74.44.44.29.73.71.87,1.24s.14,1.17-.02,1.92l-.96,4.5c-.02.11-.07.2-.16.27-.09.08-.19.11-.3.11h-1.41c-.11,0-.19-.04-.25-.11-.06-.07-.08-.17-.06-.27l.93-4.4c.14-.65.12-1.14-.04-1.48-.17-.34-.56-.5-1.18-.5s-1.12.18-1.54.53c-.42.35-.7.84-.84,1.46l-.93,4.4c-.02.11-.07.2-.16.27-.09.08-.18.11-.29.11h-1.41Z" fill="#1c2126"/><path d="M170.61,618.57c-.64,0-1.17-.08-1.59-.22-.42-.15-.75-.34-.99-.56-.24-.22-.41-.45-.5-.67-.09-.22-.13-.41-.1-.56.02-.12.08-.21.17-.28.09-.07.18-.1.28-.1h1.26s.08,0,.11.02c.03.01.06.04.1.1l.37.37c.13.13.29.24.49.33s.46.14.78.14c.42,0,.78-.08,1.1-.25.31-.17.5-.4.57-.71.04-.22.02-.41-.08-.54-.1-.14-.29-.26-.59-.38-.3-.11-.74-.23-1.33-.36-.58-.14-1.04-.31-1.38-.53-.35-.21-.58-.48-.7-.8-.12-.32-.14-.69-.04-1.12.09-.42.29-.81.62-1.19s.77-.69,1.32-.94c.55-.25,1.19-.37,1.93-.37.58,0,1.06.07,1.46.22.4.14.72.32.96.54.24.21.41.43.5.65.1.22.13.41.1.57-.01.12-.06.21-.15.28-.09.07-.18.1-.28.1h-1.17c-.05,0-.1-.01-.14-.03-.04-.02-.08-.05-.1-.08-.11-.11-.22-.22-.33-.34-.11-.12-.26-.23-.43-.31-.18-.08-.42-.13-.74-.13-.41,0-.73.09-.98.26s-.41.4-.47.66c-.03.18-.01.34.06.47.07.13.25.26.54.38s.73.24,1.31.37c.69.13,1.22.32,1.59.57.37.25.61.54.72.86.11.33.13.69.04,1.08-.1.48-.33.91-.7,1.3-.37.38-.85.69-1.45.9s-1.3.33-2.11.33Z" fill="#1c2126"/><path d="M179.52,618.57c-.81,0-1.49-.15-2.02-.45s-.92-.72-1.15-1.26c-.23-.54-.29-1.18-.17-1.9.03-.19.08-.43.14-.7s.11-.51.17-.7c.19-.74.49-1.37.89-1.91.4-.54.91-.96,1.54-1.26.62-.3,1.36-.45,2.22-.45s1.49.15,2.02.45c.54.3.93.72,1.16,1.26.23.54.29,1.18.18,1.91-.04.19-.09.43-.14.7s-.11.51-.16.7c-.19.73-.48,1.36-.87,1.9-.39.54-.9.96-1.52,1.26s-1.38.45-2.26.45ZM179.68,616.98c.58,0,1.06-.18,1.46-.54s.69-.88.87-1.58c.04-.16.09-.37.14-.62.05-.26.1-.46.13-.62.12-.69.07-1.22-.14-1.58-.21-.36-.61-.54-1.18-.54s-1.05.18-1.46.54c-.41.36-.69.88-.86,1.58-.04.16-.09.37-.15.62s-.1.46-.12.62c-.12.69-.07,1.22.14,1.58s.6.54,1.18.54Z" fill="#1c2126"/><path d="M188.45,618.57c-.69,0-1.26-.15-1.7-.44-.44-.29-.73-.71-.87-1.25-.14-.54-.14-1.18,0-1.91l.96-4.5c.02-.11.08-.2.17-.27.09-.07.19-.11.3-.11h1.41c.11,0,.19.04.24.11.05.08.07.17.05.27l-.93,4.4c-.1.44-.13.8-.09,1.1.04.29.16.52.36.66.2.15.52.22.94.22.58,0,1.08-.18,1.5-.53.43-.35.7-.84.83-1.46l.94-4.4c.02-.11.08-.2.17-.27.09-.07.19-.11.3-.11h1.39c.12,0,.2.04.26.11.05.08.07.17.05.27l-1.6,7.55c-.02.11-.07.2-.16.27-.09.08-.19.11-.3.11h-1.3c-.11,0-.19-.04-.25-.11-.06-.07-.08-.17-.06-.27l.13-.66c-.23.25-.48.46-.72.64-.25.18-.53.32-.85.42-.32.1-.71.14-1.18.14Z" fill="#1c2126"/><path d="M195.57,618.41c-.11,0-.19-.04-.25-.11-.06-.07-.08-.17-.06-.27l1.6-7.54c.02-.12.08-.21.17-.29.09-.07.19-.11.3-.11h1.3c.11,0,.19.04.25.11.06.08.08.17.06.29l-.14.66c.26-.34.58-.6.98-.78.39-.18.87-.27,1.44-.27h.78c.12,0,.2.04.26.11.05.08.07.17.05.27l-.24,1.15c-.02.11-.08.2-.17.27-.09.07-.19.11-.3.11h-1.25c-.51,0-.94.14-1.29.42-.35.28-.57.68-.68,1.19l-.94,4.4c-.02.11-.07.2-.16.27-.09.08-.19.11-.3.11h-1.39Z" fill="#1c2126"/><path d="M205.46,618.57c-.71,0-1.34-.14-1.88-.43-.54-.29-.94-.71-1.19-1.26-.26-.55-.31-1.21-.18-1.99.03-.16.07-.37.13-.63.05-.26.1-.48.14-.65.29-1.16.82-2.07,1.6-2.71.78-.65,1.77-.97,2.98-.97.67,0,1.23.1,1.69.29.45.19.81.44,1.07.74s.44.61.54.93c.1.32.14.61.1.86-.01.12-.06.21-.14.28s-.17.1-.28.1h-1.46c-.11,0-.19-.03-.25-.08-.06-.05-.09-.13-.1-.24,0-.43-.11-.74-.34-.93-.23-.19-.56-.29-.98-.29-.52,0-.99.17-1.4.5-.41.34-.71.87-.89,1.59-.04.19-.09.39-.13.59-.04.2-.08.38-.11.53-.12.74-.06,1.27.16,1.6.22.33.6.5,1.12.5.42,0,.79-.09,1.12-.26.33-.18.61-.48.83-.9.06-.12.13-.2.2-.25s.16-.07.26-.07h1.44c.11,0,.19.04.25.1s.07.16.04.28c-.07.24-.21.51-.41.82s-.47.62-.81.92c-.34.3-.77.54-1.29.74-.52.19-1.13.29-1.85.29Z" fill="#1c2126"/><path d="M214.69,618.57c-.78,0-1.43-.16-1.94-.46-.52-.31-.87-.76-1.07-1.34-.2-.59-.23-1.3-.09-2.13.02-.11.05-.24.08-.41.03-.17.06-.3.1-.39.21-.81.54-1.51.99-2.09.45-.58.99-1.03,1.64-1.34s1.36-.47,2.14-.47c.86,0,1.55.18,2.06.54.51.36.84.85,1.01,1.49.17.63.16,1.37,0,2.2l-.08.34c-.02.11-.08.2-.17.27-.09.08-.19.11-.31.11h-5.31c-.01.06-.02.11-.03.13-.05.37-.05.72.02,1.03s.21.57.42.76c.22.19.51.29.87.29.3,0,.56-.04.78-.14s.41-.19.55-.31c.14-.12.25-.21.33-.29.13-.13.22-.21.29-.23s.15-.04.27-.04h1.39c.1,0,.17.03.22.1.05.06.07.14.05.24-.05.17-.19.38-.4.62-.21.25-.5.49-.86.72-.36.24-.79.43-1.29.58s-1.04.23-1.64.23ZM214,613.53h3.54l.02-.05c.1-.42.1-.78.02-1.1-.08-.31-.23-.56-.46-.74-.22-.18-.52-.26-.9-.26s-.71.09-1.02.26c-.3.18-.56.42-.76.74-.2.32-.35.68-.43,1.1l-.02.05Z" fill="#1c2126"/><path d="M227.19,618.57c-.64,0-1.17-.08-1.59-.22-.42-.15-.75-.34-.99-.56-.24-.22-.41-.45-.5-.67-.09-.22-.13-.41-.1-.56.02-.12.08-.21.17-.28.09-.07.18-.1.28-.1h1.26s.08,0,.11.02c.03.01.06.04.1.1l.37.37c.13.13.29.24.49.33s.46.14.78.14c.42,0,.78-.08,1.1-.25.31-.17.5-.4.57-.71.04-.22.02-.41-.08-.54-.1-.14-.29-.26-.59-.38-.3-.11-.74-.23-1.33-.36-.58-.14-1.04-.31-1.38-.53-.35-.21-.58-.48-.7-.8-.12-.32-.14-.69-.04-1.12.09-.42.29-.81.62-1.19s.77-.69,1.32-.94c.55-.25,1.19-.37,1.93-.37.58,0,1.06.07,1.46.22.4.14.72.32.96.54.24.21.41.43.5.65.1.22.13.41.1.57-.01.12-.06.21-.15.28-.09.07-.18.1-.28.1h-1.17c-.05,0-.1-.01-.14-.03-.04-.02-.08-.05-.1-.08-.11-.11-.22-.22-.33-.34-.11-.12-.26-.23-.43-.31-.18-.08-.42-.13-.74-.13-.41,0-.73.09-.98.26s-.41.4-.47.66c-.03.18-.01.34.06.47.07.13.25.26.54.38s.73.24,1.31.37c.69.13,1.22.32,1.59.57.37.25.61.54.72.86.11.33.13.69.04,1.08-.1.48-.33.91-.7,1.3-.37.38-.85.69-1.45.9s-1.3.33-2.11.33Z" fill="#1c2126"/><path d="M236.1,618.57c-.81,0-1.49-.15-2.02-.45s-.92-.72-1.15-1.26c-.23-.54-.29-1.18-.17-1.9.03-.19.08-.43.14-.7s.11-.51.17-.7c.19-.74.49-1.37.89-1.91.4-.54.91-.96,1.54-1.26.62-.3,1.36-.45,2.22-.45s1.49.15,2.02.45c.54.3.93.72,1.16,1.26.23.54.29,1.18.18,1.91-.04.19-.09.43-.14.7s-.11.51-.16.7c-.19.73-.48,1.36-.87,1.9-.39.54-.9.96-1.52,1.26s-1.38.45-2.26.45ZM236.26,616.98c.58,0,1.06-.18,1.46-.54s.69-.88.87-1.58c.04-.16.09-.37.14-.62.05-.26.1-.46.13-.62.12-.69.07-1.22-.14-1.58-.21-.36-.61-.54-1.18-.54s-1.05.18-1.46.54c-.41.36-.69.88-.86,1.58-.04.16-.09.37-.15.62s-.1.46-.12.62c-.12.69-.07,1.22.14,1.58s.6.54,1.18.54Z" fill="#1c2126"/><path d="M242.96,618.41c-.12,0-.21-.04-.26-.11-.06-.07-.08-.17-.06-.27l1.33-6.24h-1.3c-.11,0-.19-.04-.25-.11-.06-.07-.08-.17-.06-.29l.19-.91c.02-.11.08-.2.17-.27.09-.07.19-.11.31-.11h1.3l.13-.66c.15-.64.38-1.17.69-1.59.31-.42.7-.74,1.18-.95.48-.21,1.04-.32,1.68-.32h1.28c.12,0,.2.04.26.11.05.07.07.17.05.27l-.19.91c-.02.12-.08.21-.17.29s-.19.11-.3.11h-.96c-.43,0-.76.11-.99.32-.23.21-.39.52-.46.93l-.13.58h1.98c.12,0,.2.04.26.11.05.08.07.17.05.27l-.19.91c-.02.12-.07.21-.16.29-.09.08-.19.11-.3.11h-1.98l-1.34,6.24c-.02.11-.07.2-.16.27-.09.08-.18.11-.29.11h-1.3Z" fill="#1c2126"/><path d="M252.11,618.41c-.73,0-1.29-.11-1.7-.34s-.67-.56-.78-1-.11-.99.03-1.66l.78-3.63h-1.26c-.11,0-.19-.04-.25-.11-.06-.07-.08-.17-.06-.29l.19-.91c.02-.11.08-.2.17-.27.09-.07.19-.11.31-.11h1.25l.58-2.66c.02-.11.07-.2.16-.27.08-.07.18-.11.29-.11h1.3c.12,0,.21.04.26.11.06.08.08.17.06.27l-.58,2.66h2c.11,0,.19.04.25.11.06.08.08.17.06.27l-.19.91c-.02.12-.08.21-.17.29-.09.08-.19.11-.3.11h-2l-.74,3.47c-.06.29-.1.54-.1.74s.05.37.17.48c.12.11.33.17.62.17h1.15c.12,0,.2.04.26.11.05.08.07.17.05.27l-.21.99c-.02.11-.07.2-.16.27-.09.08-.19.11-.3.11h-1.14Z" fill="#1c2126"/><path d="M257.27,618.41c-.15,0-.26-.04-.32-.11-.06-.07-.1-.17-.11-.29l-.72-7.49c-.01-.12.02-.22.1-.3.07-.08.18-.13.32-.13h1.12c.13,0,.22.03.28.09.06.06.09.13.1.22l.46,5.3,2.75-5.25c.04-.08.11-.15.19-.23s.2-.12.34-.12h.83c.15,0,.25.04.3.12.05.08.09.16.1.23l.58,5.25,2.69-5.3c.03-.06.09-.13.16-.2.07-.07.18-.1.3-.1h1.3c.15,0,.24.05.26.14.03.1.01.2-.04.32l-3.86,7.46c-.06.12-.14.21-.23.29-.09.08-.21.11-.36.11h-1.06c-.15,0-.26-.04-.33-.11-.07-.07-.12-.17-.14-.29l-.66-5.06-2.72,5.06c-.06.12-.14.21-.24.29-.1.08-.22.11-.37.11h-1.04Z" fill="#1c2126"/><path d="M271.09,618.57c-.55,0-1.02-.09-1.41-.28-.38-.19-.69-.45-.9-.79-.22-.34-.36-.74-.42-1.21-.06-.46-.05-.97.03-1.53.04-.19.08-.37.11-.52.03-.15.07-.33.11-.52.14-.53.32-1.03.55-1.49s.51-.86.85-1.21.73-.62,1.18-.81c.45-.19.97-.29,1.56-.29.66,0,1.17.1,1.51.31s.62.46.81.76l.11-.53c.02-.11.07-.2.16-.27.09-.07.18-.11.29-.11h1.26c.11,0,.19.04.26.11.06.08.08.17.06.27l-1.62,7.55c-.02.11-.07.2-.16.27-.09.08-.18.11-.29.11h-1.26c-.12,0-.21-.04-.26-.11-.06-.07-.08-.17-.06-.27l.13-.59c-.32.33-.67.6-1.06.82-.38.21-.9.32-1.55.32ZM271.81,616.85c.45,0,.83-.1,1.15-.3.32-.2.58-.46.78-.78.2-.31.34-.64.42-.97.05-.19.1-.4.14-.62s.08-.42.11-.62c.06-.32.07-.63.02-.92s-.19-.54-.41-.73c-.22-.19-.55-.29-.98-.29s-.77.1-1.06.3-.54.46-.73.78c-.19.32-.35.67-.46,1.06-.04.16-.08.32-.11.48-.03.16-.06.32-.08.48-.05.38-.07.74-.04,1.06.03.32.14.58.34.78s.5.3.92.3Z" fill="#1c2126"/><path d="M278.05,618.41c-.11,0-.19-.04-.25-.11-.06-.07-.08-.17-.06-.27l1.6-7.54c.02-.12.08-.21.17-.29.09-.07.19-.11.3-.11h1.3c.11,0,.19.04.25.11.06.08.08.17.06.29l-.14.66c.26-.34.58-.6.98-.78.39-.18.87-.27,1.44-.27h.78c.12,0,.2.04.26.11.05.08.07.17.05.27l-.24,1.15c-.02.11-.08.2-.17.27-.09.07-.19.11-.3.11h-1.25c-.51,0-.94.14-1.29.42-.35.28-.57.68-.68,1.19l-.94,4.4c-.02.11-.07.2-.16.27-.09.08-.19.11-.3.11h-1.39Z" fill="#1c2126"/><path d="M288.05,618.57c-.78,0-1.43-.16-1.94-.46-.52-.31-.87-.76-1.07-1.34-.2-.59-.23-1.3-.09-2.13.02-.11.05-.24.08-.41.03-.17.06-.3.1-.39.21-.81.54-1.51.99-2.09.45-.58.99-1.03,1.64-1.34s1.36-.47,2.14-.47c.86,0,1.55.18,2.06.54.51.36.84.85,1.01,1.49.17.63.16,1.37,0,2.2l-.08.34c-.02.11-.08.2-.17.27-.09.08-.19.11-.31.11h-5.31c-.01.06-.02.11-.03.13-.05.37-.05.72.02,1.03s.21.57.42.76c.22.19.51.29.87.29.3,0,.56-.04.78-.14s.41-.19.55-.31c.14-.12.25-.21.33-.29.13-.13.22-.21.29-.23s.15-.04.27-.04h1.39c.1,0,.17.03.22.1.05.06.07.14.05.24-.05.17-.19.38-.4.62-.21.25-.5.49-.86.72-.36.24-.79.43-1.29.58s-1.04.23-1.64.23ZM287.36,613.53h3.54l.02-.05c.1-.42.1-.78.02-1.1-.08-.31-.23-.56-.46-.74-.22-.18-.52-.26-.9-.26s-.71.09-1.02.26c-.3.18-.56.42-.76.74-.2.32-.35.68-.43,1.1l-.02.05Z" fill="#1c2126"/><path d="M1113.68,618.57c-.89,0-1.63-.15-2.22-.44-.6-.29-1.05-.71-1.37-1.26-.32-.54-.49-1.18-.52-1.9-.01-.21-.02-.46-.02-.73s0-.51.02-.71c.03-.74.21-1.37.54-1.91.33-.54.79-.95,1.39-1.25.6-.29,1.32-.44,2.18-.44s1.56.15,2.16.44c.6.29,1.06.71,1.39,1.25.33.54.52,1.18.56,1.91,0,.2.02.44.02.71s0,.51-.02.73c-.04.73-.22,1.36-.54,1.9-.32.54-.77.96-1.37,1.26-.6.29-1.33.44-2.21.44ZM1113.68,616.79c.52,0,.91-.16,1.18-.48.26-.32.41-.79.44-1.42,0-.16.02-.37.02-.64s0-.48-.02-.64c-.03-.62-.18-1.09-.44-1.42s-.65-.49-1.18-.49-.92.16-1.18.49-.42.8-.45,1.42c-.01.16-.02.37-.02.64s0,.48.02.64c.03.63.18,1.1.45,1.42.27.32.66.48,1.18.48Z" fill="#1c2126"/><path d="M1122.77,618.57c-.66,0-1.23-.08-1.7-.23s-.86-.34-1.15-.57c-.29-.22-.51-.45-.66-.68-.14-.23-.22-.42-.23-.58-.01-.12.03-.21.11-.29.09-.07.17-.11.26-.11h1.55s.08,0,.1.02c.03.01.06.04.1.08.14.1.28.21.42.33.14.12.32.23.52.31.2.09.45.13.74.13.35,0,.65-.07.89-.22.24-.14.36-.35.36-.62,0-.19-.05-.35-.16-.48s-.31-.25-.62-.35c-.31-.11-.77-.22-1.38-.35-.58-.13-1.07-.3-1.47-.51-.41-.21-.71-.48-.91-.81-.2-.33-.3-.72-.3-1.18,0-.42.13-.82.39-1.2.26-.38.65-.7,1.16-.95.51-.25,1.15-.38,1.92-.38.59,0,1.1.07,1.54.22.44.14.81.33,1.11.54s.53.44.68.67.24.43.25.6c.01.12-.02.21-.1.29s-.16.11-.26.11h-1.42c-.05,0-.1-.01-.14-.03s-.08-.05-.11-.08c-.13-.07-.26-.17-.39-.29-.13-.12-.29-.22-.47-.3-.18-.08-.42-.13-.7-.13-.34,0-.61.08-.79.23-.19.16-.28.35-.28.58,0,.15.05.29.14.42.1.13.29.25.58.35.29.11.75.22,1.37.34.73.13,1.3.32,1.73.58s.73.55.91.89c.18.34.27.7.27,1.08,0,.5-.15.95-.44,1.34-.29.39-.73.69-1.3.91-.58.22-1.28.33-2.11.33Z" fill="#1c2126"/><path d="M1131.46,618.57c-.66,0-1.23-.08-1.7-.23s-.86-.34-1.15-.57c-.29-.22-.51-.45-.66-.68-.14-.23-.22-.42-.23-.58-.01-.12.03-.21.11-.29.09-.07.17-.11.26-.11h1.55s.08,0,.1.02c.03.01.06.04.1.08.14.1.28.21.42.33.14.12.32.23.52.31.2.09.45.13.74.13.35,0,.65-.07.89-.22.24-.14.36-.35.36-.62,0-.19-.05-.35-.16-.48s-.31-.25-.62-.35c-.31-.11-.77-.22-1.38-.35-.58-.13-1.07-.3-1.47-.51-.41-.21-.71-.48-.91-.81-.2-.33-.3-.72-.3-1.18,0-.42.13-.82.39-1.2.26-.38.65-.7,1.16-.95.51-.25,1.15-.38,1.92-.38.59,0,1.1.07,1.54.22.44.14.81.33,1.11.54s.53.44.68.67.24.43.25.6c.01.12-.02.21-.1.29s-.16.11-.26.11h-1.42c-.05,0-.1-.01-.14-.03s-.08-.05-.11-.08c-.13-.07-.26-.17-.39-.29-.13-.12-.29-.22-.47-.3-.18-.08-.42-.13-.7-.13-.34,0-.61.08-.79.23-.19.16-.28.35-.28.58,0,.15.05.29.14.42.1.13.29.25.58.35.29.11.75.22,1.37.34.73.13,1.3.32,1.73.58s.73.55.91.89c.18.34.27.7.27,1.08,0,.5-.15.95-.44,1.34-.29.39-.73.69-1.3.91-.58.22-1.28.33-2.11.33Z" fill="#1c2126"/><path d="M1137.17,618.41c-.12,0-.21-.04-.29-.11s-.11-.17-.11-.29v-1.81c0-.11.04-.2.11-.28.08-.08.17-.12.29-.12h1.81c.11,0,.2.04.28.12s.12.17.12.28v1.81c0,.12-.04.21-.12.29-.08.08-.17.11-.28.11h-1.81Z" fill="#1c2126"/><path d="M1144.9,618.57c-.79,0-1.48-.14-2.07-.43-.59-.29-1.06-.71-1.4-1.26-.34-.55-.53-1.21-.56-1.98-.01-.17-.02-.39-.02-.65s0-.48.02-.65c.03-.78.22-1.44.55-1.99.34-.55.8-.97,1.4-1.26s1.29-.43,2.08-.43c.7,0,1.31.1,1.81.3.5.2.91.45,1.23.75.32.3.56.62.72.94s.25.6.26.85c.01.12-.03.21-.11.29-.09.08-.18.11-.29.11h-1.71c-.12,0-.21-.03-.26-.08-.06-.05-.11-.14-.17-.26-.14-.37-.33-.64-.56-.8s-.53-.24-.88-.24c-.48,0-.86.15-1.13.46-.27.31-.42.79-.44,1.44-.02.42-.02.79,0,1.14.02.66.17,1.14.44,1.44.27.3.65.45,1.13.45.37,0,.67-.08.9-.24.22-.16.41-.43.54-.8.05-.12.11-.2.17-.26.06-.05.15-.08.26-.08h1.71c.11,0,.2.04.29.11.08.08.12.17.11.29-.01.18-.06.39-.16.64-.1.25-.24.5-.44.75s-.45.49-.76.71c-.31.22-.69.4-1.13.53-.44.13-.95.2-1.53.2Z" fill="#1c2126"/><path d="M1152.92,618.57c-.57,0-1.07-.11-1.52-.33s-.81-.51-1.07-.89c-.27-.37-.4-.79-.4-1.25,0-.76.31-1.35.92-1.79s1.42-.74,2.42-.9l2.1-.3v-.29c0-.42-.1-.74-.29-.96-.19-.22-.53-.34-1.01-.34-.35,0-.63.07-.84.21s-.37.32-.49.54c-.08.14-.21.21-.38.21h-1.52c-.12,0-.21-.03-.27-.1-.06-.07-.09-.15-.08-.25,0-.18.07-.39.21-.64.14-.25.35-.49.64-.73.29-.24.66-.44,1.11-.6s1-.24,1.64-.24,1.25.08,1.73.24c.48.16.87.38,1.16.67.29.29.51.62.64,1,.13.38.2.79.2,1.22v4.94c0,.12-.04.21-.11.29s-.17.11-.27.11h-1.58c-.11,0-.2-.04-.27-.11s-.11-.17-.11-.29v-.59c-.14.2-.33.39-.56.57s-.51.32-.84.42-.71.16-1.14.16ZM1153.56,616.9c.35,0,.67-.07.94-.22s.5-.38.66-.69c.16-.31.24-.7.24-1.17v-.27l-1.49.24c-.57.1-.98.24-1.25.43-.27.19-.4.43-.4.7,0,.2.06.38.18.52.12.14.28.26.48.34s.41.12.63.12Z" fill="#1c2126"/><path d="M1160.13,618.41c-.11,0-.2-.04-.28-.11-.08-.07-.12-.17-.12-.29v-7.52c0-.11.04-.2.12-.28.08-.08.17-.12.28-.12h1.57c.12,0,.21.04.29.12.07.08.11.17.11.28v.64c.27-.33.6-.59.99-.77s.84-.27,1.34-.27h.69c.12,0,.21.04.29.11.07.08.11.17.11.29v1.39c0,.11-.04.2-.11.27-.08.07-.17.11-.29.11h-1.39c-.48,0-.85.13-1.11.4-.26.27-.39.63-.39,1.1v4.24c0,.12-.04.21-.12.29-.08.08-.17.11-.28.11h-1.7Z" fill="#1c2126"/><path d="M1169.72,618.57c-.53,0-1.01-.09-1.42-.26-.42-.18-.77-.43-1.06-.77-.29-.34-.51-.74-.66-1.2s-.24-.98-.27-1.54c-.01-.2-.02-.39-.02-.55s0-.34.02-.54c.02-.55.11-1.06.26-1.52.15-.46.37-.86.66-1.19.28-.34.63-.6,1.06-.78.42-.19.9-.28,1.43-.28s1.03.09,1.42.28.72.42.98.71v-3.47c0-.12.04-.21.11-.29.08-.07.17-.11.29-.11h1.65c.12,0,.21.04.29.11.07.08.11.17.11.29v10.56c0,.12-.04.21-.11.29s-.17.11-.29.11h-1.54c-.11,0-.2-.04-.27-.11s-.11-.17-.11-.29v-.54c-.27.32-.6.58-1.01.79-.41.21-.91.31-1.52.31ZM1170.45,616.65c.39,0,.71-.09.95-.27.24-.18.42-.41.53-.69.11-.28.17-.58.18-.9.02-.2.03-.41.03-.61s-.01-.4-.03-.59c-.01-.3-.08-.58-.2-.84-.12-.26-.3-.48-.54-.65s-.54-.26-.93-.26c-.41,0-.73.09-.96.26-.24.18-.4.41-.5.7-.1.29-.16.6-.18.94-.02.33-.02.66,0,.99.02.34.08.66.18.94.1.29.27.52.5.7.23.18.55.26.96.26Z" fill="#1c2126"/><path d="M1179.86,618.57c-.66,0-1.23-.08-1.7-.23s-.86-.34-1.15-.57c-.29-.22-.51-.45-.66-.68-.14-.23-.22-.42-.23-.58-.01-.12.03-.21.11-.29.08-.07.17-.11.26-.11h1.55s.08,0,.1.02c.03.01.06.04.1.08.14.1.28.21.42.33.14.12.32.23.52.31.2.09.45.13.74.13.35,0,.65-.07.89-.22.24-.14.36-.35.36-.62,0-.19-.05-.35-.16-.48-.11-.13-.31-.25-.62-.35-.31-.11-.77-.22-1.38-.35-.58-.13-1.07-.3-1.47-.51-.41-.21-.71-.48-.91-.81-.2-.33-.3-.72-.3-1.18,0-.42.13-.82.39-1.2.26-.38.65-.7,1.16-.95.51-.25,1.15-.38,1.92-.38.59,0,1.1.07,1.54.22.44.14.81.33,1.11.54s.53.44.68.67c.15.23.24.43.25.6,0,.12-.02.21-.1.29-.07.08-.16.11-.26.11h-1.42c-.05,0-.1-.01-.14-.03-.04-.02-.08-.05-.11-.08-.13-.07-.26-.17-.39-.29-.13-.12-.29-.22-.47-.3-.18-.08-.42-.13-.7-.13-.34,0-.61.08-.79.23-.19.16-.28.35-.28.58,0,.15.05.29.14.42.1.13.29.25.58.35.29.11.75.22,1.37.34.72.13,1.3.32,1.73.58s.73.55.91.89.27.7.27,1.08c0,.5-.15.95-.44,1.34s-.73.69-1.3.91-1.28.33-2.11.33Z" fill="#1c2126"/><polygon points="1093.31 614.96 1087.74 611.74 1082.16 614.96 1093.31 621.39 1104.46 614.96 1098.89 611.74 1093.31 614.96" fill="#b7303d" stroke="#1c2126" stroke-linejoin="round" stroke-width=".33"/><polygon points="1087.74 605.3 1087.74 611.74 1082.16 614.96 1082.16 608.52 1087.74 605.3" fill="#ea4f4b" stroke="#1c2126" stroke-linejoin="round" stroke-width=".33"/><polygon points="1087.74 605.3 1087.74 611.74 1093.31 614.96 1093.31 608.52 1087.74 605.3" fill="#ff6b60" stroke="#1c2126" stroke-linejoin="round" stroke-width=".33"/><polygon points="1098.89 605.3 1098.89 611.74 1093.31 614.96 1093.31 608.52 1098.89 605.3" fill="#ea4f4b" stroke="#1c2126" stroke-linejoin="round" stroke-width=".33"/><polygon points="1098.89 605.3 1098.89 611.74 1104.46 614.96 1104.46 608.52 1098.89 605.3" fill="#ff6b60" stroke="#1c2126" stroke-linejoin="round" stroke-width=".33"/></g></svg>