<svg xmlns="http://www.w3.org/2000/svg" xmlns:xlink="http://www.w3.org/1999/xlink" width="1200" height="630" viewBox="0 0 1200 630"><defs><radialGradient id="a" cx="1097.44" cy="565" r="111.35" gradientUnits="userSpaceOnUse"><stop offset="0" stop-color="#20c6b7"/><stop offset="1" stop-color="#4d9abf"/></radialGradient></defs><rect x="-70.07" y="-89.85" width="6221.73" height="2273.11" fill="#a6a6a6"/><rect width="1200" height="498.72" fill="#054861"/><circle cx="960.78" cy="249.36" r="183.06" fill="#5cebdf" opacity="0.1"/><rect x="62.23" y="276.8" width="665.86" height="100.97" rx="12.6" fill="#1c2126" opacity="0.3"/><circle cx="960.78" cy="249.36" r="167.11" fill="#5cebdf" stroke="#1c2126" stroke-miterlimit="10" stroke-width="2"/><path d="M965.21,294c-2.67-11.37-10.1-21-16.51-30.51-6.77-10-12.48-20.61-15-32.55a59.78,59.78,0,0,1,3.58-37.09c3.08-6.87,8-12.74,13.33-18,11.58-11.53,25.4-20.68,36.35-32.87,4.49-5,8.54-10.77,10-17.42,1.66-7.44-.83-14.67-4.69-21C982.79,89,964.56,84.16,947.45,83.05l-1.91-.1A167.11,167.11,0,0,0,822.83,343.68a56.57,56.57,0,0,1,2.67-8.76c6.82-17.19,21.6-30,40.31-31.83,9.64-.95,18.93,1.47,27.81,5,11.07,4.44,21.11,11.53,32.65,14.76C945.46,328.26,970.6,316.91,965.21,294Z" fill="#30c8c9" stroke="#1c2126" stroke-miterlimit="10" stroke-width="2"/><path d="M1049.4,160.8c-4.94,7.87-11.37,14.66-17.25,21.81A200.49,200.49,0,0,0,1016.86,205c-5,8.14-9.68,16.66-12.59,25.8-2.38,7.5-4.82,17.69-.25,24.84,4.19,6.56,12.8,9.52,20.24,7.63,8.13-2.07,13.76-9.71,19.5-15.28,8.22-8,24.23-18.13,35.86-10.88,8.52,5.32,8.64,17.54,9.33,26.39.49,6.17.52,20.22,9.28,20.78,7.94.52,18.6-8.71,28.26-13.22a167.23,167.23,0,0,0-69.88-158.56C1059.63,128.86,1058.42,146.42,1049.4,160.8Z" fill="#30c8c9" stroke="#1c2126" stroke-miterlimit="10" stroke-width="2"/><path d="M1085.05,324.83c-19-.93-36.36,7.94-48.59,22.1-10.41,12.05-15.8,28.69-31.05,36-19.72,9.43-42.16,3.63-62.42,10.17-10.39,3.36-18.79,9.72-25.51,17.7A167.28,167.28,0,0,0,1106.63,331,50.53,50.53,0,0,0,1085.05,324.83Z" fill="#30c8c9" stroke="#1c2126" stroke-miterlimit="10" stroke-width="2"/><path d="M778.18,88H713.73a11.2,11.2,0,0,0-11.21,11.2v26.37a11.2,11.2,0,0,0,11.21,11.2h39.86l21.19,23v-23h3.4a11.2,11.2,0,0,0,11.21-11.2V99.24A11.2,11.2,0,0,0,778.18,88Z" fill="#fff" stroke="#1c2126" stroke-linecap="round" stroke-linejoin="round" stroke-width="2"/><path d="M749.26,99.79v22.77h-5.07V112.21h-8.82v10.35H730.3V99.79h5.07v7.59h8.82V99.79Z" fill="#1c2126"/><path d="M758.68,101.05a2.81,2.81,0,1,1-5.61,0,2.81,2.81,0,1,1,5.61,0Zm-.45,4.35v17.16h-4.68V105.4a3.81,3.81,0,0,0,2.34.69A3.75,3.75,0,0,0,758.23,105.4Z" fill="#1c2126"/><path d="M114.63,215.26V231H104.55v-15.6l-16-29.94H99.45l10.32,19.08L120,185.44h10.62Z" fill="#fff"/><path d="M160.17,214.24c0,10-6.42,17.58-17.64,17.58s-17.7-7.56-17.7-17.58,6.42-17.58,17.7-17.58S160.17,204.22,160.17,214.24Zm-25.56,0c0,5.52,3.06,9.06,7.92,9.06s7.86-3.54,7.86-9.06-3-9.06-7.86-9.06S134.61,208.72,134.61,214.24Z" fill="#fff"/><path d="M195.27,197.44V231h-9.36v-3.6a11,11,0,0,1-9.18,4.44c-7.38,0-12.18-5.52-12.18-15.42v-19h9.36v17.22c0,5.1,2.34,8,5.94,8s6.06-3.06,6.06-7.92V197.44Z" fill="#fff"/><path d="M256.47,212v19h-9.36V213.82c0-5.16-2.46-8-6.24-8s-6.42,3.12-6.42,8l-.06-.42V231H225v-47.7h9.36v17.94a11.26,11.26,0,0,1,9.54-4.56C251.55,196.66,256.47,202.12,256.47,212Z" fill="#fff"/><path d="M293.37,211.84V231H284v-3.66c-2.34,2.7-6,4.26-10.92,4.26-7,0-11.4-3.54-11.4-9.36,0-5.28,3.48-9.3,12.24-10.8L284,209.74c0-3.24-2-5.1-5.82-5.1s-5.4,1.56-5.64,4.14h-9.48c.18-6.18,5.22-11.94,15.12-11.94C287.85,196.84,293.37,202.24,293.37,211.84Zm-9.36,5v-.48l-7.68,1.26c-4,.66-5,2-5,3.78,0,1.5,1.44,2.58,4.14,2.58C280.59,224,284,221.14,284,216.88Z" fill="#fff"/><path d="M332.73,183.28V231h-9.36v-4c-2.22,3-5.7,4.8-10.38,4.8-8.7,0-14.82-6.24-14.82-17.58s6.12-17.58,14.82-17.58c4.68,0,8.16,1.8,10.38,4.74V183.28ZM323.37,214c0-5.94-3.12-9.3-7.68-9.3S308,208.12,308,214s3.24,9.3,7.74,9.3S323.37,219.94,323.37,214Z" fill="#fff"/><path d="M413.13,212v19h-9.36V213.64c0-5.52-2.22-8.4-5.76-8.4s-5.76,3.12-5.76,8.34V231h-9.36V213.64c0-5.52-2.22-8.4-5.76-8.4s-5.76,3.12-5.76,8.34V231H362V197.44h9.36v3.66a10.06,10.06,0,0,1,8.7-4.44,11,11,0,0,1,9.9,5.28,11.79,11.79,0,0,1,10.14-5.28C408,196.66,413.13,202.54,413.13,212Z" fill="#fff"/><path d="M452.43,217H427.65a7.21,7.21,0,0,0,7.62,6.78c3.3,0,5.52-1.08,6.54-3h10c-1.92,6.3-8,10.8-16.62,10.8-10.5,0-17.4-6.9-17.4-17.34s6.78-17.4,17.34-17.4,17.34,6.84,17.34,17.28Zm-24.66-6.42h14.76c-.66-3.78-3.6-5.94-7.44-5.94A7.36,7.36,0,0,0,427.77,210.58Z" fill="#fff"/><path d="M509.48,211.84V231h-9.35v-3.66c-2.34,2.7-6,4.26-10.92,4.26-7,0-11.4-3.54-11.4-9.36,0-5.28,3.48-9.3,12.24-10.8l10.08-1.68c0-3.24-2-5.1-5.82-5.1s-5.4,1.56-5.64,4.14h-9.48c.18-6.18,5.22-11.94,15.12-11.94C504,196.84,509.48,202.24,509.48,211.84Zm-9.35,5v-.48l-7.68,1.26c-4,.66-5,2-5,3.78,0,1.5,1.44,2.58,4.14,2.58C496.71,224,500.13,221.14,500.13,216.88Z" fill="#fff"/><path d="M537,205.36h-7.26V231h-9.36V205.36h-6.3v-7.92h6.3V186.88h9.36v10.56H537Z" fill="#fff"/><path d="M118.75,359.49V330.92H94.86v28.57H84.06V294h10.8v27.38h23.89V294h10.81v65.53Z" fill="#fff"/><path d="M186.14,346c-1.18,8.54-9.63,14.49-20.75,14.49-14.17,0-22.35-8.13-22.35-22.3v-7.77c0-13,8.77-21.66,22-21.66s21.21,8.59,21.21,22.39v6H153.44v2.41c0,7.58,4.68,12.48,11.9,12.48,5.5,0,9.72-2.4,10.76-6.08Zm-32.7-15.89H176c0-8.09-4.18-13-11.13-13C157.71,317.12,153.44,322,153.44,330.11Z" fill="#fff"/><path d="M201.35,359.49V351h16.3V299H201.9v-8.45h26.29V351h15.48v8.45Z" fill="#fff"/><path d="M258.84,359.49V351h16.3V299H259.39v-8.45h26.29V351h15.48v8.45Z" fill="#fff"/><path d="M314.38,338.42v-7.59c0-13.53,8.67-22.07,22.38-22.07s22.39,8.54,22.39,22.07v7.59c0,13.53-8.67,22.07-22.39,22.07S314.38,352,314.38,338.42Zm10.44-7v6.41c0,8.58,4.59,13.89,11.94,13.89s11.95-5.31,11.95-13.89v-6.41c0-8.58-4.59-13.89-11.95-13.89S324.82,322.84,324.82,331.42Z" fill="#fff"/><path d="M451.43,320l-8,39.46h-9.81L423,294h10.08l3.18,24.11,3.09,26.48H440l7.31-35.6h8.9l7.31,35.6h.64l3.09-26.48L470.41,294h10.08l-10.63,65.53h-9.81l-8-39.46Z" fill="#fff"/><path d="M486.85,338.42v-7.59c0-13.53,8.67-22.07,22.38-22.07s22.39,8.54,22.39,22.07v7.59c0,13.53-8.67,22.07-22.39,22.07S486.85,352,486.85,338.42Zm10.44-7v6.41c0,8.58,4.59,13.89,11.94,13.89s11.95-5.31,11.95-13.89v-6.41c0-8.58-4.59-13.89-11.95-13.89S497.29,322.84,497.29,331.42Z" fill="#fff"/><path d="M565.36,351.59h14.8v7.9H545.52v-7.9h9.67V317.67H544.56v-7.91H565.4v12.72H567c2-9.58,7.58-14,17-14a20.83,20.83,0,0,1,7.13,1V321a25.07,25.07,0,0,0-8.22-1.41c-11.49,0-17.53,6.27-17.53,17.76Z" fill="#fff"/><path d="M603.78,359.49V351h16.3V299H604.32v-8.45h26.29V351H646.1v8.45Z" fill="#fff"/><path d="M658.63,339v-8.86c0-13.21,7.09-21.25,18.48-21.25,7.18,0,12.31,3.22,14.17,9h.91V290.55h10.9v68.94H692.37v-8.18h-.91c-2.09,5.82-7.13,8.95-14.35,8.95C665.72,360.26,658.63,352.27,658.63,339Zm33.79-.64v-7.76c0-7.86-4.41-12.72-11.49-12.72s-11.54,4.91-11.54,12.72v7.76c0,7.81,4.41,12.67,11.54,12.67S692.42,346.18,692.42,338.37Z" fill="#fff"/><path d="M1071.18,123.93a164.44,164.44,0,0,1-261,197.9,167.12,167.12,0,1,0,261-197.9Z" fill="#054861" opacity="0.1"/><path d="M1014.35,27.64a1.5,1.5,0,0,0,0-3,1.5,1.5,0,0,0,0,3Z" fill="#fff"/><path d="M937,38.2a1.5,1.5,0,0,0,0-3,1.5,1.5,0,0,0,0,3Z" fill="#fff"/><path d="M680.48,48a1.5,1.5,0,0,0,0-3,1.5,1.5,0,0,0,0,3Z" fill="#fff"/><path d="M636.21,187.78a1.5,1.5,0,0,0,0-3,1.5,1.5,0,0,0,0,3Z" fill="#fff"/><path d="M732.56,238.13a1.5,1.5,0,0,0,0-3,1.5,1.5,0,0,0,0,3Z" fill="#fff"/><path d="M615.37,425.62a1.5,1.5,0,0,0,0-3,1.5,1.5,0,0,0,0,3Z" fill="#fff"/><path d="M789.39,404.59a1.5,1.5,0,0,0,0-3,1.5,1.5,0,0,0,0,3Z" fill="#fff"/><path d="M866.23,460.34a1.5,1.5,0,0,0,0-3,1.5,1.5,0,0,0,0,3Z" fill="#fff"/><path d="M1137.06,430.83a1.5,1.5,0,0,0,0-3,1.5,1.5,0,0,0,0,3Z" fill="#fff"/><path d="M1174.39,233.79a1.5,1.5,0,0,0,0-3,1.5,1.5,0,0,0,0,3Z" fill="#fff"/><path d="M1116.9,114.87a1.5,1.5,0,0,0,0-3,1.5,1.5,0,0,0,0,3Z" fill="#fff"/><path d="M1164,59.31a1.5,1.5,0,0,0,0-3,1.5,1.5,0,0,0,0,3Z" fill="#fff"/><path d="M328,101.41a1.5,1.5,0,0,0,0-3,1.5,1.5,0,0,0,0,3Z" fill="#fff"/><path d="M185.57,124.19a1.5,1.5,0,0,0,0-3,1.5,1.5,0,0,0,0,3Z" fill="#fff"/><path d="M102.41,62.68a1.5,1.5,0,0,0,0-3,1.5,1.5,0,0,0,0,3Z" fill="#fff"/><path d="M877.46,68.73a7,7,0,0,0-1.15-2.92,7.78,7.78,0,0,0-4-3.67,7.16,7.16,0,0,0-5.55,1,16,16,0,0,0-4,3.29,12.86,12.86,0,0,0-2.83-6.6,8,8,0,0,0-6.5-2.84,5.87,5.87,0,0,0-5.24,4.43c-.44,2.31.76,4.58,1.93,6.62q4.39,7.65,9,15.15L872,75.7C874.7,74.12,877.77,71.84,877.46,68.73Z" fill="#ff6b60" stroke="#1c2126" stroke-linejoin="round" stroke-width="2"/><path d="M833.53,40.32a8,8,0,0,0-3.15-1.77c-2-.72-4.26-1.19-6.24-.4s-3.41,2.88-4.22,5a18.54,18.54,0,0,0-1.2,5.84,14.79,14.79,0,0,0-7.31-3.85,9.25,9.25,0,0,0-7.9,2.18A6.76,6.76,0,0,0,802,55.05c1.28,2.39,4,3.56,6.54,4.54q9.48,3.64,19.09,7l6-16.06C835,47.15,836.07,42.89,833.53,40.32Z" fill="#ff6b60" stroke="#1c2126" stroke-linejoin="round" stroke-width="2"/><path d="M850.14,104.82a8.86,8.86,0,0,0-3.56-1.45c-2.22-.49-4.66-.69-6.64.41s-3.22,3.49-3.79,5.8a19.2,19.2,0,0,0-.49,6.32,15.78,15.78,0,0,0-8.24-3.09,9.81,9.81,0,0,0-8,3.35,7.17,7.17,0,0,0-.52,8.39c1.66,2.36,4.7,3.23,7.5,3.92q10.5,2.59,21.08,4.86l4.23-17.75C852.56,111.84,853.16,107.19,850.14,104.82Z" fill="#ff6b60" stroke="#1c2126" stroke-linejoin="round" stroke-width="2"/><path d="M400.14,445.3a1.5,1.5,0,0,0,0-3,1.5,1.5,0,0,0,0,3Z" fill="#fff"/><path d="M166.35,428.35a1.5,1.5,0,0,0,0-3,1.5,1.5,0,0,0,0,3Z" fill="#fff"/><path d="M86.73,452.07a1.5,1.5,0,0,0,0-3,1.5,1.5,0,0,0,0,3Z" fill="#fff"/><path d="M493.31,54a1.5,1.5,0,0,0,0-3,1.5,1.5,0,0,0,0,3Z" fill="#fff"/><path d="M32.51,242a1.5,1.5,0,0,0,0-3,1.5,1.5,0,0,0,0,3Z" fill="#fff"/><path d="M824.74,201.05s10.16-10.49,20.65,0" fill="none" stroke="#1c2126" stroke-linecap="round" stroke-miterlimit="10" stroke-width="2"/><path d="M860.16,201.05s10.17-10.49,20.66,0" fill="none" stroke="#1c2126" stroke-linecap="round" stroke-miterlimit="10" stroke-width="2"/><path d="M830.78,213.32c.36,11.09,10.19,20,22.3,20s21.94-8.89,22.3-20Z" fill="#7a122d" stroke="#1c2126" stroke-linecap="round" stroke-linejoin="round" stroke-width="2"/><rect y="500" width="1200" height="130" fill="#fff"/><rect x="1097.49" y="500" width="102.51" height="130" fill="url(#a)"/><line y1="499.19" x2="1200" y2="499.19" fill="none" stroke="#1c2126" stroke-miterlimit="10"/><line x1="1097.49" y1="498.72" x2="1097.49" y2="630" fill="none" stroke="#1c2126" stroke-miterlimit="10"/><path d="M35.09,576.62V557.86H28.7v-2.38H44.05v2.38H37.67v18.76Z" fill="#1c2126"/><path d="M54.92,577.06c-4.8,0-7.75-3.46-7.75-9.3v-3.41c0-5.85,2.95-9.31,7.75-9.31s7.75,3.46,7.75,9.31v3.41C62.67,573.6,59.73,577.06,54.92,577.06Zm5.14-9.31v-3.39c0-4.41-1.93-6.87-5.14-6.87s-5.14,2.46-5.14,6.87v3.39c0,4.4,1.93,6.87,5.14,6.87S60.06,572.15,60.06,567.75Z" fill="#1c2126"/><path d="M70.82,562.75a2.65,2.65,0,1,1,2.65,2.71A2.7,2.7,0,0,1,70.82,562.75Zm0,11.25a2.65,2.65,0,1,1,2.65,2.71A2.69,2.69,0,0,1,70.82,574Z" fill="#1c2126"/><path d="M209.27,581.51a14.89,14.89,0,0,1-5.34-.91,11.41,11.41,0,0,1-6.75-6.75,14.91,14.91,0,0,1-.93-5.39,14.58,14.58,0,0,1,1-5.4,11.83,11.83,0,0,1,2.76-4.18,12.58,12.58,0,0,1,4.26-2.72,14.82,14.82,0,0,1,5.43-1,14.26,14.26,0,0,1,4.87.8,11,11,0,0,1,3.8,2.26,9.83,9.83,0,0,1,2.44,3.51,11.69,11.69,0,0,1,.86,4.56,12.33,12.33,0,0,1-.75,4.5,6.89,6.89,0,0,1-2.07,3,4.86,4.86,0,0,1-3.12,1.05,3.48,3.48,0,0,1-2.73-1,3.58,3.58,0,0,1-.78-2.81l.54.15a6.19,6.19,0,0,1-2.18,2.75,5.2,5.2,0,0,1-3,.94,4.69,4.69,0,0,1-3.68-1.45,5.79,5.79,0,0,1-1.3-4,8.75,8.75,0,0,1,.85-3.94,6.69,6.69,0,0,1,2.36-2.7,6.14,6.14,0,0,1,3.42-1,4.45,4.45,0,0,1,2.77.81,3.8,3.8,0,0,1,1.4,2.28H213l.51-2.82h2l-1.38,7.77c0,.26-.08.51-.11.75s0,.46,0,.66a2.16,2.16,0,0,0,.46,1.5,1.81,1.81,0,0,0,1.4.51,2.93,2.93,0,0,0,2.1-.87,5.81,5.81,0,0,0,1.41-2.41,11.59,11.59,0,0,0,.51-3.62,10.11,10.11,0,0,0-.72-3.9,8.21,8.21,0,0,0-2.07-3,9.34,9.34,0,0,0-3.23-1.89,12.51,12.51,0,0,0-4.18-.66,12.93,12.93,0,0,0-4.73.83,10.42,10.42,0,0,0-3.63,2.34,10.18,10.18,0,0,0-2.32,3.64,13.24,13.24,0,0,0-.81,4.74,12.85,12.85,0,0,0,1.35,6.09,9.3,9.3,0,0,0,3.86,3.92,12.09,12.09,0,0,0,5.89,1.36,12.82,12.82,0,0,0,4.53-.76,8.71,8.71,0,0,0,3.36-2.18l1,1.47a9.5,9.5,0,0,1-3.8,2.34A15.33,15.33,0,0,1,209.27,581.51Zm-1.44-8.4a4,4,0,0,0,2.46-.79,5.3,5.3,0,0,0,1.69-2.21,8,8,0,0,0,.62-3.21,3.73,3.73,0,0,0-.75-2.55,3,3,0,0,0-2.37-.84,4.29,4.29,0,0,0-2.48.75,5.1,5.1,0,0,0-1.72,2.07,7,7,0,0,0-.63,3.06,4.12,4.12,0,0,0,.82,2.76A3,3,0,0,0,207.83,573.11Z" fill="#1c2126"/><path d="M227.27,576.62v-2.13h5V557.6h1.32l-5.82,3.63v-2.49l5.19-3.27h1.8v19h4.68v2.13Z" fill="#1c2126"/><path d="M245.27,576.62v-2.13h5V557.6h1.32l-5.82,3.63v-2.49l5.19-3.27h1.8v19h4.68v2.13Z" fill="#1c2126"/><path d="M267.17,576.89a4.37,4.37,0,0,1-3.39-1.27,5.55,5.55,0,0,1-1.17-3.86v-8.31h-2.94v-1.89h2.94v-4.11l2.43-.69v4.8h4.32v1.89H265v8a4.16,4.16,0,0,0,.61,2.57,2.23,2.23,0,0,0,1.85.76,4.52,4.52,0,0,0,1-.1,5.14,5.14,0,0,0,.81-.26v2a4.69,4.69,0,0,1-1,.29A6.46,6.46,0,0,1,267.17,576.89Z" fill="#1c2126"/><path d="M271.91,583.43l-.57-2a12.5,12.5,0,0,0,2.35-.76,4.67,4.67,0,0,0,1.58-1.16,6.51,6.51,0,0,0,1.08-1.8l.78-1.77-.06,1-6.57-15.39h2.64l5.43,13.23h-.78l5.37-13.23h2.55l-7,16.32a11.58,11.58,0,0,1-1.32,2.42,7.58,7.58,0,0,1-1.55,1.59,7,7,0,0,1-1.81,1A13.08,13.08,0,0,1,271.91,583.43Z" fill="#1c2126"/><circle cx="135.29" cy="563.72" r="40" fill="#1c2126"/><path d="M1163.33,555.54h0l0,0a.19.19,0,0,1,0-.15l1.25-7.62,5.84,5.85-6.08,2.58h-.08l0,0A2.57,2.57,0,0,0,1163.33,555.54Zm8.48-.46,6.25,6.25c1.3,1.3,2,1.95,2.19,2.7l.09.33L1165.4,558h0c-.06,0-.12,0-.12-.11s.07-.1.13-.12h0Zm8.27,11.29a11.28,11.28,0,0,1-2,2.3l-7,7.05-9.12-1.9h0c-.09,0-.17,0-.17-.1a2.75,2.75,0,0,0-1.06-1.93s0-.09,0-.14v0l1.71-10.52v0c0-.08,0-.17.1-.17a2.81,2.81,0,0,0,1.87-1.07.1.1,0,0,1,0,0,.22.22,0,0,1,.17,0l15.56,6.58Zm-10.68,11-11.59,11.58,2-12.19h0a.09.09,0,0,1,0-.05s0,0,.09-.07h0a2.88,2.88,0,0,0,1.12-.83.25.25,0,0,1,.15-.1h0l8.16,1.68Zm-14,14-1.31,1.3-14.44-20.87,0,0a.18.18,0,0,1,0-.1s0,0,0-.06v0a2.12,2.12,0,0,0,.12-.2l0-.06h0a.27.27,0,0,1,.08-.1.17.17,0,0,1,.12,0l16,3.3a.18.18,0,0,1,.12.05.09.09,0,0,1,0,.07,2.81,2.81,0,0,0,1.66,1.89s0,.08,0,.13l0,.07C1157.55,578,1155.82,588.53,1155.36,591.38Zm-2.73,2.72a6.1,6.1,0,0,1-2.17,1.67,3.24,3.24,0,0,1-2,0c-.75-.24-1.4-.89-2.7-2.19l-14.5-14.5,3.79-5.88a.2.2,0,0,1,.06-.07.16.16,0,0,1,.15,0A3.93,3.93,0,0,0,1138,573s.09,0,.12,0l0,0,14.51,21.06Zm-22.72-16.42-3.32-3.33,6.57-2.8h0s.09.05.11.1l.21.3,0,0a.09.09,0,0,1,0,.08l-3.63,5.63Zm-4.8-4.8-4.21-4.21c-.71-.71-1.23-1.23-1.59-1.68l12.8,2.65h0c.08,0,.17,0,.17.1s-.1.12-.18.15l0,0Zm-6.54-8a3.54,3.54,0,0,1,.15-.8c.24-.75.89-1.4,2.18-2.7l5.39-5.39q3.72,5.4,7.46,10.78c0,.06.09.13,0,.18a4.35,4.35,0,0,0-.63.85.28.28,0,0,1-.09.1H1133l-14.43-3Zm9.16-10.33,7.24-7.24c.68.3,3.16,1.34,5.38,2.28l3.68,1.56a.17.17,0,0,1,.11.09.12.12,0,0,1,0,.1,3.22,3.22,0,0,0,.85,2.94s0,.12,0,.18l0,0-7.35,11.38a.31.31,0,0,1-.07.09.22.22,0,0,1-.14,0,3.2,3.2,0,0,0-.87-.12,5.05,5.05,0,0,0-.84.1h0s-.06,0-.08,0a.3.3,0,0,1-.08-.08l-7.75-11.31Zm8.71-8.7,9.37-9.38c1.3-1.3,2-1.95,2.7-2.19a3.24,3.24,0,0,1,2,0c.75.24,1.4.89,2.7,2.19l2,2-6.67,10.33-.07.08a.22.22,0,0,1-.14,0,3.39,3.39,0,0,0-3.1.59s-.11,0-.16,0C1144.18,549.07,1137.41,546.21,1136.44,545.8Zm20.16-5.93,6.16,6.15-1.48,9.19v0a.14.14,0,0,1,0,.06s0,0-.08.05a2.8,2.8,0,0,0-.88.44l0,0a.1.1,0,0,1-.07,0s0,0-.07,0l-9.38-4h0c-.06,0-.13-.05-.13-.12a3.39,3.39,0,0,0-.5-1.47c0-.08-.09-.15,0-.23Zm-6.34,13.88,8.8,3.72a.19.19,0,0,1,.12.09.17.17,0,0,1,0,.1,1.79,1.79,0,0,0,0,.42v.25c0,.06-.06.08-.12.11h0l-19.58,8.35a.11.11,0,0,1-.09,0s0-.12,0-.18l0,0,7.23-11.19v0c0-.07.09-.15.17-.15l.07,0a3.75,3.75,0,0,0,.45,0,3.25,3.25,0,0,0,2.73-1.45l0-.06A.15.15,0,0,1,1150.26,553.75Zm-10.07,14.81,19.8-8.45a.09.09,0,0,1,.06,0,2.82,2.82,0,0,0,.29.25l0,0s.08.05.09.1a.08.08,0,0,1,0,0L1158.77,571v0c0,.08,0,.17-.1.17a2.75,2.75,0,0,0-2.21,1.37h0a.18.18,0,0,1-.08.09.14.14,0,0,1-.11,0l-15.8-3.25S1140.21,568.56,1140.19,568.56Z" fill="#fff"/><line x1="548.51" y1="498.72" x2="548.51" y2="630" fill="none" stroke="#1c2126" stroke-miterlimit="10"/><path d="M584.7,576.62V555.48h12.46v2.38h-9.87v7.25h9v2.3h-9v9.21Z" fill="#1c2126"/><path d="M604.74,568.2v8.42h-2.55V555.48h7.09c4.19,0,6.81,2.44,6.81,6.36a5.91,5.91,0,0,1-3.94,5.83l4.31,9h-2.92l-3.94-8.42Zm0-2.18h4.19c2.91,0,4.55-1.48,4.55-4.12s-1.61-4.12-4.44-4.12h-4.3Z" fill="#1c2126"/><path d="M627.34,577.06c-4.81,0-7.75-3.46-7.75-9.3v-3.41c0-5.85,2.94-9.31,7.75-9.31s7.75,3.46,7.75,9.31v3.41C635.09,573.6,632.14,577.06,627.34,577.06Zm5.14-9.31v-3.39c0-4.41-1.93-6.87-5.14-6.87s-5.14,2.46-5.14,6.87v3.39c0,4.4,1.93,6.87,5.14,6.87S632.48,572.15,632.48,567.75Z" fill="#1c2126"/><path d="M640.57,576.62h-2.3V555.48h2.88l4.65,13.13H646l4.61-13.13h2.9v21.14h-2.3v-8.11l.13-8.56h-.19l-4.25,11.71h-2L640.62,560h-.19l.14,8.56Z" fill="#1c2126"/><path d="M661.78,562.75a2.65,2.65,0,1,1,2.65,2.71A2.7,2.7,0,0,1,661.78,562.75Zm0,11.25a2.65,2.65,0,1,1,2.65,2.71A2.69,2.69,0,0,1,661.78,574Z" fill="#1c2126"/><path d="M804.86,581.51a14.89,14.89,0,0,1-5.34-.91,11.41,11.41,0,0,1-6.75-6.75,14.91,14.91,0,0,1-.93-5.39,14.58,14.58,0,0,1,1-5.4,11.83,11.83,0,0,1,2.76-4.18,12.58,12.58,0,0,1,4.26-2.72,14.82,14.82,0,0,1,5.43-1,14.31,14.31,0,0,1,4.88.8,11,11,0,0,1,3.79,2.26,10,10,0,0,1,2.45,3.51,11.69,11.69,0,0,1,.85,4.56,12.33,12.33,0,0,1-.75,4.5,6.89,6.89,0,0,1-2.07,3,4.86,4.86,0,0,1-3.12,1.05,3.48,3.48,0,0,1-2.73-1,3.58,3.58,0,0,1-.78-2.81l.54.15a6.18,6.18,0,0,1-2.17,2.75,5.24,5.24,0,0,1-3,.94,4.67,4.67,0,0,1-3.67-1.45,5.8,5.8,0,0,1-1.31-4,8.75,8.75,0,0,1,.86-3.94,6.66,6.66,0,0,1,2.35-2.7,6.14,6.14,0,0,1,3.42-1,4.48,4.48,0,0,1,2.78.81,3.79,3.79,0,0,1,1.39,2.28h-.36l.51-2.82h2l-1.38,7.77c0,.26-.07.51-.1.75a5.42,5.42,0,0,0,0,.66,2.16,2.16,0,0,0,.47,1.5,1.78,1.78,0,0,0,1.39.51,2.93,2.93,0,0,0,2.1-.87,5.81,5.81,0,0,0,1.41-2.41,11.59,11.59,0,0,0,.51-3.62,10.11,10.11,0,0,0-.72-3.9,8.21,8.21,0,0,0-2.07-3,9.29,9.29,0,0,0-3.22-1.89,12.57,12.57,0,0,0-4.19-.66,12.88,12.88,0,0,0-4.72.83,10.42,10.42,0,0,0-3.63,2.34,10.21,10.21,0,0,0-2.33,3.64,13.24,13.24,0,0,0-.81,4.74,12.85,12.85,0,0,0,1.35,6.09,9.35,9.35,0,0,0,3.86,3.92,12.12,12.12,0,0,0,5.89,1.36,12.82,12.82,0,0,0,4.53-.76,8.71,8.71,0,0,0,3.36-2.18l1,1.47A9.46,9.46,0,0,1,810,580.7,15.39,15.39,0,0,1,804.86,581.51Zm-1.44-8.4a4,4,0,0,0,2.46-.79,5.31,5.31,0,0,0,1.7-2.21,8,8,0,0,0,.61-3.21,3.73,3.73,0,0,0-.75-2.55,3,3,0,0,0-2.37-.84,4.26,4.26,0,0,0-2.47.75,5.12,5.12,0,0,0-1.73,2.07,7,7,0,0,0-.63,3.06,4.12,4.12,0,0,0,.83,2.76A2.93,2.93,0,0,0,803.42,573.11Z" fill="#1c2126"/><path d="M821.42,576.62V554.54h2.43v22.08Z" fill="#1c2126"/><path d="M828,583.43l-.57-2a12.62,12.62,0,0,0,2.36-.76,4.63,4.63,0,0,0,1.57-1.16,6.51,6.51,0,0,0,1.08-1.8l.78-1.77-.06,1-6.57-15.39h2.64l5.43,13.23h-.78l5.37-13.23h2.55l-7,16.32a11.58,11.58,0,0,1-1.32,2.42,7.55,7.55,0,0,1-1.54,1.59,7.06,7.06,0,0,1-1.82,1A13.08,13.08,0,0,1,828,583.43Z" fill="#1c2126"/><path d="M844.49,576.62V565c0-.56,0-1.13-.07-1.72s-.11-1.18-.17-1.76h2.34l.3,3.3h-.36a5.21,5.21,0,0,1,2.12-2.65,6.19,6.19,0,0,1,3.37-.92,5.35,5.35,0,0,1,4,1.43,6.29,6.29,0,0,1,1.36,4.48v9.42H855v-9.27a4.63,4.63,0,0,0-.85-3.1,3.36,3.36,0,0,0-2.66-1,4.38,4.38,0,0,0-3.33,1.29,4.79,4.79,0,0,0-1.23,3.45v8.61Z" fill="#1c2126"/><path d="M862.07,576.62V565c0-.56,0-1.13-.07-1.72s-.11-1.18-.17-1.76h2.34l.3,3.3h-.36a5.21,5.21,0,0,1,2.12-2.65,6.19,6.19,0,0,1,3.37-.92,5.35,5.35,0,0,1,4,1.43A6.29,6.29,0,0,1,875,567.2v9.42h-2.43v-9.27a4.63,4.63,0,0,0-.85-3.1,3.36,3.36,0,0,0-2.66-1,4.38,4.38,0,0,0-3.33,1.29A4.79,4.79,0,0,0,864.5,568v8.61Z" fill="#1c2126"/><path d="M885.38,576.89a6.44,6.44,0,0,1-3.51-.94,6.25,6.25,0,0,1-2.32-2.69,11,11,0,0,1,0-8.37,6.14,6.14,0,0,1,2.32-2.67,6.52,6.52,0,0,1,3.51-.93,6,6,0,0,1,3.53,1,4.85,4.85,0,0,1,2,2.8h-.36l.33-3.57h2.34c-.06.58-.11,1.17-.16,1.76s-.08,1.16-.08,1.72v11.58h-2.43v-3.54h.33a4.78,4.78,0,0,1-2,2.79A6,6,0,0,1,885.38,576.89Zm.48-2a4.25,4.25,0,0,0,3.42-1.48,8.14,8.14,0,0,0,0-8.7,4.65,4.65,0,0,0-6.82,0,8,8,0,0,0,0,8.7A4.25,4.25,0,0,0,885.86,574.91Z" fill="#1c2126"/><path d="M897.65,576.62V565c0-.56,0-1.13-.07-1.72s-.11-1.18-.17-1.76h2.34l.3,3.3h-.36a5.21,5.21,0,0,1,2.12-2.65,6.19,6.19,0,0,1,3.37-.92,5.35,5.35,0,0,1,4,1.43,6.29,6.29,0,0,1,1.36,4.48v9.42h-2.43v-9.27a4.63,4.63,0,0,0-.85-3.1,3.36,3.36,0,0,0-2.66-1,4.38,4.38,0,0,0-3.33,1.29,4.79,4.79,0,0,0-1.23,3.45v8.61Z" fill="#1c2126"/><path d="M920.93,576.89a6.39,6.39,0,0,1-3.48-.94,6.25,6.25,0,0,1-2.32-2.69,11,11,0,0,1,0-8.37,6.14,6.14,0,0,1,2.32-2.67,6.47,6.47,0,0,1,3.48-.93,6.09,6.09,0,0,1,3.53,1,4.93,4.93,0,0,1,2,2.76h-.36V554.54h2.43v22.08h-2.4V573h.33a4.86,4.86,0,0,1-2,2.84A6.08,6.08,0,0,1,920.93,576.89Zm.51-2a4.3,4.3,0,0,0,3.42-1.48,8,8,0,0,0,0-8.7,4.31,4.31,0,0,0-3.42-1.49,4.26,4.26,0,0,0-3.4,1.49,8,8,0,0,0,0,8.7A4.25,4.25,0,0,0,921.44,574.91Z" fill="#1c2126"/><path d="M938.57,576.89a4.37,4.37,0,0,1-3.39-1.27,5.55,5.55,0,0,1-1.17-3.86v-8.31h-2.94v-1.89H934v-4.11l2.43-.69v4.8h4.32v1.89h-4.32v8a4.16,4.16,0,0,0,.62,2.57,2.21,2.21,0,0,0,1.84.76,4.52,4.52,0,0,0,1-.1,5.14,5.14,0,0,0,.81-.26v2a4.59,4.59,0,0,1-1,.29A6.57,6.57,0,0,1,938.57,576.89Z" fill="#1c2126"/><path d="M949.76,576.89A7.26,7.26,0,0,1,946,576a6.3,6.3,0,0,1-2.48-2.7,10.4,10.4,0,0,1,0-8.33,6.31,6.31,0,0,1,2.48-2.68,7.27,7.27,0,0,1,3.76-1,7.37,7.37,0,0,1,3.8,1,6.39,6.39,0,0,1,2.49,2.68,10.3,10.3,0,0,1,0,8.33,6.39,6.39,0,0,1-2.49,2.7A7.36,7.36,0,0,1,949.76,576.89Zm0-2a4.25,4.25,0,0,0,3.42-1.48,8.14,8.14,0,0,0,0-8.7,4.64,4.64,0,0,0-6.81,0,8.14,8.14,0,0,0,0,8.7A4.21,4.21,0,0,0,949.76,574.91Z" fill="#1c2126"/><path d="M960.71,576.62V565c0-.56,0-1.13-.07-1.72s-.11-1.18-.17-1.76h2.34l.3,3.3h-.36a5.21,5.21,0,0,1,2.12-2.65,6.19,6.19,0,0,1,3.37-.92,5.35,5.35,0,0,1,4,1.43,6.29,6.29,0,0,1,1.36,4.48v9.42h-2.43v-9.27a4.63,4.63,0,0,0-.85-3.1,3.36,3.36,0,0,0-2.66-1,4.38,4.38,0,0,0-3.33,1.29,4.79,4.79,0,0,0-1.23,3.45v8.61Z" fill="#1c2126"/><path d="M978,558.14v-2.73h3v2.73Zm.3,18.48V561.56h2.43v15.06Z" fill="#1c2126"/><path d="M991.76,576.89a7.46,7.46,0,0,1-3.85-1,6.41,6.41,0,0,1-2.52-2.73,9.29,9.29,0,0,1-.89-4.2,8.93,8.93,0,0,1,.9-4.18,6.2,6.2,0,0,1,2.54-2.63,7.79,7.79,0,0,1,3.82-.9,8,8,0,0,1,2.81.51,6,6,0,0,1,2.26,1.44L996,565a6,6,0,0,0-2-1.29,5.69,5.69,0,0,0-2.09-.42,4.57,4.57,0,0,0-3.63,1.47A6.32,6.32,0,0,0,987,569a6.51,6.51,0,0,0,1.29,4.32,4.49,4.49,0,0,0,3.63,1.53,6,6,0,0,0,2.06-.39,5.66,5.66,0,0,0,2-1.29l.87,1.71a6.11,6.11,0,0,1-2.31,1.47A7.91,7.91,0,0,1,991.76,576.89Z" fill="#1c2126"/><circle cx="730.89" cy="563.72" r="40" fill="#1c2126"/></svg>