<svg xmlns="http://www.w3.org/2000/svg" width="1200" height="630" viewBox="0 0 1200 630"><rect x="-70.07" y="-89.85" width="6221.73" height="2273.11" fill="#a6a6a6"/><rect width="1200" height="498.72" fill="#054861"/><circle cx="960.78" cy="249.36" r="183.06" fill="#5cebdf" opacity="0.1"/><rect x="62.23" y="276.8" width="665.86" height="100.97" rx="12.6" fill="#1c2126" opacity="0.3"/><circle cx="960.78" cy="249.36" r="167.11" fill="#5cebdf" stroke="#1c2126" stroke-miterlimit="10" stroke-width="2"/><path d="M965.21,294c-2.67-11.37-10.1-21-16.51-30.51-6.77-10-12.48-20.61-15-32.55a59.78,59.78,0,0,1,3.58-37.09c3.08-6.87,8-12.74,13.33-18,11.58-11.53,25.4-20.68,36.35-32.87,4.49-5,8.54-10.77,10-17.42,1.66-7.44-.83-14.67-4.69-21C982.79,89,964.56,84.16,947.45,83.05l-1.91-.1A167.11,167.11,0,0,0,822.83,343.68a56.57,56.57,0,0,1,2.67-8.76c6.82-17.19,21.6-30,40.31-31.83,9.64-.95,18.93,1.47,27.81,5,11.07,4.44,21.11,11.53,32.65,14.76C945.46,328.26,970.6,316.91,965.21,294Z" fill="#30c8c9" stroke="#1c2126" stroke-miterlimit="10" stroke-width="2"/><path d="M1049.4,160.8c-4.94,7.87-11.37,14.66-17.25,21.81A200.49,200.49,0,0,0,1016.86,205c-5,8.14-9.68,16.66-12.59,25.8-2.38,7.5-4.82,17.69-.25,24.84,4.19,6.56,12.8,9.52,20.24,7.63,8.13-2.07,13.76-9.71,19.5-15.28,8.22-8,24.23-18.13,35.86-10.88,8.52,5.32,8.64,17.54,9.33,26.39.49,6.17.52,20.22,9.28,20.78,7.94.52,18.6-8.71,28.26-13.22a167.23,167.23,0,0,0-69.88-158.56C1059.63,128.86,1058.42,146.42,1049.4,160.8Z" fill="#30c8c9" stroke="#1c2126" stroke-miterlimit="10" stroke-width="2"/><path d="M1085.05,324.83c-19-.93-36.36,7.94-48.59,22.1-10.41,12.05-15.8,28.69-31.05,36-19.72,9.43-42.16,3.63-62.42,10.17-10.39,3.36-18.79,9.72-25.51,17.7A167.28,167.28,0,0,0,1106.63,331,50.53,50.53,0,0,0,1085.05,324.83Z" fill="#30c8c9" stroke="#1c2126" stroke-miterlimit="10" stroke-width="2"/><path d="M778.18,88H713.73a11.2,11.2,0,0,0-11.21,11.2v26.37a11.2,11.2,0,0,0,11.21,11.2h39.86l21.19,23v-23h3.4a11.2,11.2,0,0,0,11.21-11.2V99.24A11.2,11.2,0,0,0,778.18,88Z" fill="#fff" stroke="#1c2126" stroke-linecap="round" stroke-linejoin="round" stroke-width="2"/><path d="M749.26,99.79v22.77h-5.07V112.21h-8.82v10.35H730.3V99.79h5.07v7.59h8.82V99.79Z" fill="#1c2126"/><path d="M758.68,101.05a2.81,2.81,0,1,1-5.61,0,2.81,2.81,0,1,1,5.61,0Zm-.45,4.35v17.16h-4.68V105.4a3.81,3.81,0,0,0,2.34.69A3.75,3.75,0,0,0,758.23,105.4Z" fill="#1c2126"/><path d="M114.63,215.26V231H104.55v-15.6l-16-29.94H99.45l10.32,19.08L120,185.44h10.62Z" fill="#fff"/><path d="M160.17,214.24c0,10-6.42,17.58-17.64,17.58s-17.7-7.56-17.7-17.58,6.42-17.58,17.7-17.58S160.17,204.22,160.17,214.24Zm-25.56,0c0,5.52,3.06,9.06,7.92,9.06s7.86-3.54,7.86-9.06-3-9.06-7.86-9.06S134.61,208.72,134.61,214.24Z" fill="#fff"/><path d="M195.27,197.44V231h-9.36v-3.6a11,11,0,0,1-9.18,4.44c-7.38,0-12.18-5.52-12.18-15.42v-19h9.36v17.22c0,5.1,2.34,8,5.94,8s6.06-3.06,6.06-7.92V197.44Z" fill="#fff"/><path d="M256.47,212v19h-9.36V213.82c0-5.16-2.46-8-6.24-8s-6.42,3.12-6.42,8l-.06-.42V231H225v-47.7h9.36v17.94a11.26,11.26,0,0,1,9.54-4.56C251.55,196.66,256.47,202.12,256.47,212Z" fill="#fff"/><path d="M293.37,211.84V231H284v-3.66c-2.34,2.7-6,4.26-10.92,4.26-7,0-11.4-3.54-11.4-9.36,0-5.28,3.48-9.3,12.24-10.8L284,209.74c0-3.24-2-5.1-5.82-5.1s-5.4,1.56-5.64,4.14h-9.48c.18-6.18,5.22-11.94,15.12-11.94C287.85,196.84,293.37,202.24,293.37,211.84Zm-9.36,5v-.48l-7.68,1.26c-4,.66-5,2-5,3.78,0,1.5,1.44,2.58,4.14,2.58C280.59,224,284,221.14,284,216.88Z" fill="#fff"/><path d="M332.73,183.28V231h-9.36v-4c-2.22,3-5.7,4.8-10.38,4.8-8.7,0-14.82-6.24-14.82-17.58s6.12-17.58,14.82-17.58c4.68,0,8.16,1.8,10.38,4.74V183.28ZM323.37,214c0-5.94-3.12-9.3-7.68-9.3S308,208.12,308,214s3.24,9.3,7.74,9.3S323.37,219.94,323.37,214Z" fill="#fff"/><path d="M413.13,212v19h-9.36V213.64c0-5.52-2.22-8.4-5.76-8.4s-5.76,3.12-5.76,8.34V231h-9.36V213.64c0-5.52-2.22-8.4-5.76-8.4s-5.76,3.12-5.76,8.34V231H362V197.44h9.36v3.66a10.06,10.06,0,0,1,8.7-4.44,11,11,0,0,1,9.9,5.28,11.79,11.79,0,0,1,10.14-5.28C408,196.66,413.13,202.54,413.13,212Z" fill="#fff"/><path d="M452.43,217H427.65a7.21,7.21,0,0,0,7.62,6.78c3.3,0,5.52-1.08,6.54-3h10c-1.92,6.3-8,10.8-16.62,10.8-10.5,0-17.4-6.9-17.4-17.34s6.78-17.4,17.34-17.4,17.34,6.84,17.34,17.28Zm-24.66-6.42h14.76c-.66-3.78-3.6-5.94-7.44-5.94A7.36,7.36,0,0,0,427.77,210.58Z" fill="#fff"/><path d="M509.48,211.84V231h-9.35v-3.66c-2.34,2.7-6,4.26-10.92,4.26-7,0-11.4-3.54-11.4-9.36,0-5.28,3.48-9.3,12.24-10.8l10.08-1.68c0-3.24-2-5.1-5.82-5.1s-5.4,1.56-5.64,4.14h-9.48c.18-6.18,5.22-11.94,15.12-11.94C504,196.84,509.48,202.24,509.48,211.84Zm-9.35,5v-.48l-7.68,1.26c-4,.66-5,2-5,3.78,0,1.5,1.44,2.58,4.14,2.58C496.71,224,500.13,221.14,500.13,216.88Z" fill="#fff"/><path d="M537,205.36h-7.26V231h-9.36V205.36h-6.3v-7.92h6.3V186.88h9.36v10.56H537Z" fill="#fff"/><path d="M118.75,359.49V330.92H94.86v28.57H84.06V294h10.8v27.38h23.89V294h10.81v65.53Z" fill="#fff"/><path d="M186.14,346c-1.18,8.54-9.63,14.49-20.75,14.49-14.17,0-22.35-8.13-22.35-22.3v-7.77c0-13,8.77-21.66,22-21.66s21.21,8.59,21.21,22.39v6H153.44v2.41c0,7.58,4.68,12.48,11.9,12.48,5.5,0,9.72-2.4,10.76-6.08Zm-32.7-15.89H176c0-8.09-4.18-13-11.13-13C157.71,317.12,153.44,322,153.44,330.11Z" fill="#fff"/><path d="M201.35,359.49V351h16.3V299H201.9v-8.45h26.29V351h15.48v8.45Z" fill="#fff"/><path d="M258.84,359.49V351h16.3V299H259.39v-8.45h26.29V351h15.48v8.45Z" fill="#fff"/><path d="M314.38,338.42v-7.59c0-13.53,8.67-22.07,22.38-22.07s22.39,8.54,22.39,22.07v7.59c0,13.53-8.67,22.07-22.39,22.07S314.38,352,314.38,338.42Zm10.44-7v6.41c0,8.58,4.59,13.89,11.94,13.89s11.95-5.31,11.95-13.89v-6.41c0-8.58-4.59-13.89-11.95-13.89S324.82,322.84,324.82,331.42Z" fill="#fff"/><path d="M451.43,320l-8,39.46h-9.81L423,294h10.08l3.18,24.11,3.09,26.48H440l7.31-35.6h8.9l7.31,35.6h.64l3.09-26.48L470.41,294h10.08l-10.63,65.53h-9.81l-8-39.46Z" fill="#fff"/><path d="M486.85,338.42v-7.59c0-13.53,8.67-22.07,22.38-22.07s22.39,8.54,22.39,22.07v7.59c0,13.53-8.67,22.07-22.39,22.07S486.85,352,486.85,338.42Zm10.44-7v6.41c0,8.58,4.59,13.89,11.94,13.89s11.95-5.31,11.95-13.89v-6.41c0-8.58-4.59-13.89-11.95-13.89S497.29,322.84,497.29,331.42Z" fill="#fff"/><path d="M565.36,351.59h14.8v7.9H545.52v-7.9h9.67V317.67H544.56v-7.91H565.4v12.72H567c2-9.58,7.58-14,17-14a20.83,20.83,0,0,1,7.13,1V321a25.07,25.07,0,0,0-8.22-1.41c-11.49,0-17.53,6.27-17.53,17.76Z" fill="#fff"/><path d="M603.78,359.49V351h16.3V299H604.32v-8.45h26.29V351H646.1v8.45Z" fill="#fff"/><path d="M658.63,339v-8.86c0-13.21,7.09-21.25,18.48-21.25,7.18,0,12.31,3.22,14.17,9h.91V290.55h10.9v68.94H692.37v-8.18h-.91c-2.09,5.82-7.13,8.95-14.35,8.95C665.72,360.26,658.63,352.27,658.63,339Zm33.79-.64v-7.76c0-7.86-4.41-12.72-11.49-12.72s-11.54,4.91-11.54,12.72v7.76c0,7.81,4.41,12.67,11.54,12.67S692.42,346.18,692.42,338.37Z" fill="#fff"/><path d="M1071.18,123.93a164.44,164.44,0,0,1-261,197.9,167.12,167.12,0,1,0,261-197.9Z" fill="#054861" opacity="0.1"/><path d="M1014.35,27.64a1.5,1.5,0,0,0,0-3,1.5,1.5,0,0,0,0,3Z" fill="#fff"/><path d="M937,38.2a1.5,1.5,0,0,0,0-3,1.5,1.5,0,0,0,0,3Z" fill="#fff"/><path d="M680.48,48a1.5,1.5,0,0,0,0-3,1.5,1.5,0,0,0,0,3Z" fill="#fff"/><path d="M636.21,187.78a1.5,1.5,0,0,0,0-3,1.5,1.5,0,0,0,0,3Z" fill="#fff"/><path d="M732.56,238.13a1.5,1.5,0,0,0,0-3,1.5,1.5,0,0,0,0,3Z" fill="#fff"/><path d="M615.37,425.62a1.5,1.5,0,0,0,0-3,1.5,1.5,0,0,0,0,3Z" fill="#fff"/><path d="M789.39,404.59a1.5,1.5,0,0,0,0-3,1.5,1.5,0,0,0,0,3Z" fill="#fff"/><path d="M866.23,460.34a1.5,1.5,0,0,0,0-3,1.5,1.5,0,0,0,0,3Z" fill="#fff"/><path d="M1137.06,430.83a1.5,1.5,0,0,0,0-3,1.5,1.5,0,0,0,0,3Z" fill="#fff"/><path d="M1174.39,233.79a1.5,1.5,0,0,0,0-3,1.5,1.5,0,0,0,0,3Z" fill="#fff"/><path d="M1116.9,114.87a1.5,1.5,0,0,0,0-3,1.5,1.5,0,0,0,0,3Z" fill="#fff"/><path d="M1164,59.31a1.5,1.5,0,0,0,0-3,1.5,1.5,0,0,0,0,3Z" fill="#fff"/><path d="M328,101.41a1.5,1.5,0,0,0,0-3,1.5,1.5,0,0,0,0,3Z" fill="#fff"/><path d="M185.57,124.19a1.5,1.5,0,0,0,0-3,1.5,1.5,0,0,0,0,3Z" fill="#fff"/><path d="M102.41,62.68a1.5,1.5,0,0,0,0-3,1.5,1.5,0,0,0,0,3Z" fill="#fff"/><path d="M877.46,68.73a7,7,0,0,0-1.15-2.92,7.78,7.78,0,0,0-4-3.67,7.16,7.16,0,0,0-5.55,1,16,16,0,0,0-4,3.29,12.86,12.86,0,0,0-2.83-6.6,8,8,0,0,0-6.5-2.84,5.87,5.87,0,0,0-5.24,4.43c-.44,2.31.76,4.58,1.93,6.62q4.39,7.65,9,15.15L872,75.7C874.7,74.12,877.77,71.84,877.46,68.73Z" fill="#ff6b60" stroke="#1c2126" stroke-linejoin="round" stroke-width="2"/><path d="M833.53,40.32a8,8,0,0,0-3.15-1.77c-2-.72-4.26-1.19-6.24-.4s-3.41,2.88-4.22,5a18.54,18.54,0,0,0-1.2,5.84,14.79,14.79,0,0,0-7.31-3.85,9.25,9.25,0,0,0-7.9,2.18A6.76,6.76,0,0,0,802,55.05c1.28,2.39,4,3.56,6.54,4.54q9.48,3.64,19.09,7l6-16.06C835,47.15,836.07,42.89,833.53,40.32Z" fill="#ff6b60" stroke="#1c2126" stroke-linejoin="round" stroke-width="2"/><path d="M850.14,104.82a8.86,8.86,0,0,0-3.56-1.45c-2.22-.49-4.66-.69-6.64.41s-3.22,3.49-3.79,5.8a19.2,19.2,0,0,0-.49,6.32,15.78,15.78,0,0,0-8.24-3.09,9.81,9.81,0,0,0-8,3.35,7.17,7.17,0,0,0-.52,8.39c1.66,2.36,4.7,3.23,7.5,3.92q10.5,2.59,21.08,4.86l4.23-17.75C852.56,111.84,853.16,107.19,850.14,104.82Z" fill="#ff6b60" stroke="#1c2126" stroke-linejoin="round" stroke-width="2"/><path d="M400.14,445.3a1.5,1.5,0,0,0,0-3,1.5,1.5,0,0,0,0,3Z" fill="#fff"/><path d="M166.35,428.35a1.5,1.5,0,0,0,0-3,1.5,1.5,0,0,0,0,3Z" fill="#fff"/><path d="M86.73,452.07a1.5,1.5,0,0,0,0-3,1.5,1.5,0,0,0,0,3Z" fill="#fff"/><path d="M493.31,54a1.5,1.5,0,0,0,0-3,1.5,1.5,0,0,0,0,3Z" fill="#fff"/><path d="M32.51,242a1.5,1.5,0,0,0,0-3,1.5,1.5,0,0,0,0,3Z" fill="#fff"/><path d="M824.74,201.05s10.16-10.49,20.65,0" fill="none" stroke="#1c2126" stroke-linecap="round" stroke-miterlimit="10" stroke-width="2"/><path d="M860.16,201.05s10.17-10.49,20.66,0" fill="none" stroke="#1c2126" stroke-linecap="round" stroke-miterlimit="10" stroke-width="2"/><path d="M830.78,213.32c.36,11.09,10.19,20,22.3,20s21.94-8.89,22.3-20Z" fill="#7a122d" stroke="#1c2126" stroke-linecap="round" stroke-linejoin="round" stroke-width="2"/><rect y="595" width="1200" height="35" fill="#fff"/><rect y="499.19" width="1200" height="95.81" fill="#fff"/><line y1="499.19" x2="1200" y2="499.19" fill="none" stroke="#1c2126" stroke-miterlimit="10"/><line y1="595" x2="1200" y2="595" fill="none" stroke="#1c2126" stroke-miterlimit="10"/><path d="M24.24,559.45V540.69H17.85v-2.37H33.21v2.37H26.82v18.76Z" fill="#1c2126"/><path d="M44.08,559.89c-4.81,0-7.75-3.45-7.75-9.3v-3.41c0-5.85,2.94-9.3,7.75-9.3s7.74,3.45,7.74,9.3v3.41C51.82,556.44,48.88,559.89,44.08,559.89Zm5.14-9.31v-3.39c0-4.41-1.94-6.87-5.14-6.87s-5.15,2.46-5.15,6.87v3.39c0,4.41,1.94,6.87,5.15,6.87S49.22,555,49.22,550.58Z" fill="#1c2126"/><path d="M60,545.58a2.65,2.65,0,1,1,2.65,2.71A2.7,2.7,0,0,1,60,545.58Zm0,11.25a2.65,2.65,0,1,1,2.65,2.71A2.68,2.68,0,0,1,60,556.83Z" fill="#1c2126"/><circle cx="107.91" cy="548.15" r="31.98" fill="#1c2126"/><line x1="582.03" y1="498.72" x2="582.03" y2="595" fill="none" stroke="#1c2126" stroke-miterlimit="10"/><path d="M1129.73,614.6a4.72,4.72,0,1,1-4.71-4.69A4.43,4.43,0,0,1,1129.73,614.6Zm-6.82,0A2.12,2.12,0,0,0,1125,617c1.3,0,2.1-.94,2.1-2.41s-.8-2.42-2.1-2.42S1122.91,613.12,1122.91,614.6Z" fill="#1c2126"/><path d="M1138.54,612.93H1136c0-.57-.52-1-1.37-1s-1.25.3-1.25.72.19.62,1.2.8l1.2.19c2.3.39,2.91,1.43,2.91,2.79,0,1.74-1.39,2.85-3.92,2.85-2.72,0-4.08-1.3-4.08-3.09h2.48c0,.65.53,1.1,1.7,1.1.88,0,1.33-.3,1.33-.75s-.26-.72-1.3-.9l-1.25-.21c-2.11-.33-2.77-1.39-2.77-2.67,0-1.58,1.3-2.8,3.78-2.8S1138.54,611.24,1138.54,612.93Z" fill="#1c2126"/><path d="M1147.49,612.93H1145c0-.57-.53-1-1.38-1s-1.25.3-1.25.72.2.62,1.2.8l1.21.19c2.3.39,2.91,1.43,2.91,2.79,0,1.74-1.39,2.85-3.92,2.85-2.72,0-4.09-1.3-4.09-3.09h2.49c0,.65.52,1.1,1.69,1.1.88,0,1.33-.3,1.33-.75s-.25-.72-1.3-.9l-1.24-.21c-2.12-.33-2.77-1.39-2.77-2.67,0-1.58,1.29-2.8,3.77-2.8S1147.49,611.24,1147.49,612.93Z" fill="#1c2126"/><path d="M1152,617.64a1.6,1.6,0,1,1-1.6-1.62A1.55,1.55,0,0,1,1152,617.64Z" fill="#1c2126"/><path d="M1156.27,606.34v12.72h-2.5V606.34Z" fill="#1c2126"/><path d="M1167,614.6a4.71,4.71,0,1,1-4.7-4.69A4.42,4.42,0,0,1,1167,614.6Zm-6.81,0a2.12,2.12,0,0,0,2.11,2.41c1.29,0,2.1-.94,2.1-2.41s-.81-2.42-2.1-2.42S1160.16,613.12,1160.16,614.6Z" fill="#1c2126"/><path d="M1176.59,610.12l-3.26,8.94h-3l-3.28-8.94h2.64l2.16,6.32,2.16-6.32Z" fill="#1c2126"/><path d="M1186.06,615.33h-6.61a1.92,1.92,0,0,0,2,1.81,1.82,1.82,0,0,0,1.75-.8h2.66a5,5,0,1,1,.17-1.77Zm-6.58-1.71h3.94a1.87,1.87,0,0,0-2-1.58A2,2,0,0,0,1179.48,613.62Z" fill="#1c2126"/><path d="M605.51,559.45V538.32H618v2.37H608.1v7.25h9v2.3h-9v9.21Z" fill="#1c2126"/><path d="M625.54,551v8.42H623V538.32h7.09c4.19,0,6.81,2.43,6.81,6.35A5.91,5.91,0,0,1,633,550.5l4.3,9h-2.91L630.41,551Zm0-2.18h4.19c2.92,0,4.56-1.48,4.56-4.12s-1.61-4.11-4.44-4.11h-4.31Z" fill="#1c2126"/><path d="M648.15,559.89c-4.81,0-7.75-3.45-7.75-9.3v-3.41c0-5.85,2.94-9.3,7.75-9.3s7.75,3.45,7.75,9.3v3.41C655.9,556.44,653,559.89,648.15,559.89Zm5.14-9.31v-3.39c0-4.41-1.93-6.87-5.14-6.87s-5.14,2.46-5.14,6.87v3.39c0,4.41,1.93,6.87,5.14,6.87S653.29,555,653.29,550.58Z" fill="#1c2126"/><path d="M661.38,559.45h-2.3V538.32H662l4.64,13.12h.19l4.62-13.12h2.9v21.13H672v-8.11l.13-8.56H672l-4.25,11.71h-2l-4.25-11.71h-.19l.14,8.56Z" fill="#1c2126"/><path d="M682.59,545.58a2.65,2.65,0,1,1,2.65,2.71A2.7,2.7,0,0,1,682.59,545.58Zm0,11.25a2.65,2.65,0,1,1,2.65,2.71A2.68,2.68,0,0,1,682.59,556.83Z" fill="#1c2126"/><circle cx="733.24" cy="548.15" r="31.98" fill="#1c2126"/><path d="M791.37,562a13.93,13.93,0,0,1-5-.86,10.66,10.66,0,0,1-6.3-6.3,13.81,13.81,0,0,1-.87-5,13.54,13.54,0,0,1,.9-5,11.12,11.12,0,0,1,2.58-3.91,11.78,11.78,0,0,1,4-2.53,13.78,13.78,0,0,1,5.07-.9,13.44,13.44,0,0,1,4.55.74,10.32,10.32,0,0,1,3.54,2.12,9.19,9.19,0,0,1,2.28,3.27,10.78,10.78,0,0,1,.8,4.26,11.44,11.44,0,0,1-.7,4.2,6.47,6.47,0,0,1-1.93,2.77,4.55,4.55,0,0,1-2.91,1,3.24,3.24,0,0,1-2.55-1,3.31,3.31,0,0,1-.73-2.61l.51.14a5.85,5.85,0,0,1-2,2.56,4.88,4.88,0,0,1-2.79.88,4.34,4.34,0,0,1-3.43-1.36,5.39,5.39,0,0,1-1.22-3.73,8.24,8.24,0,0,1,.8-3.69,6.21,6.21,0,0,1,2.2-2.52,5.75,5.75,0,0,1,3.19-.91,4.13,4.13,0,0,1,2.59.76,3.51,3.51,0,0,1,1.3,2.13h-.33l.47-2.64h1.85l-1.29,7.26c0,.24-.07.47-.1.7s0,.43,0,.61a2,2,0,0,0,.44,1.4,1.65,1.65,0,0,0,1.3.48,2.75,2.75,0,0,0,2-.81,5.38,5.38,0,0,0,1.31-2.26,10.66,10.66,0,0,0,.48-3.37,9.37,9.37,0,0,0-.67-3.64,7.65,7.65,0,0,0-1.93-2.77,8.69,8.69,0,0,0-3-1.77,11.75,11.75,0,0,0-3.91-.61,11.94,11.94,0,0,0-4.41.77,9.42,9.42,0,0,0-5.56,5.58,12.48,12.48,0,0,0-.75,4.43,12,12,0,0,0,1.26,5.68,8.6,8.6,0,0,0,3.59,3.65,11.36,11.36,0,0,0,5.51,1.28,12.05,12.05,0,0,0,4.22-.71,8.25,8.25,0,0,0,3.14-2l.92,1.37a8.76,8.76,0,0,1-3.54,2.18A14.41,14.41,0,0,1,791.37,562ZM790,554.18a3.81,3.81,0,0,0,2.3-.74,5,5,0,0,0,1.58-2.06,7.5,7.5,0,0,0,.57-3,3.47,3.47,0,0,0-.7-2.38,2.81,2.81,0,0,0-2.21-.78,4,4,0,0,0-2.31.7,4.73,4.73,0,0,0-1.61,1.93,6.58,6.58,0,0,0-.59,2.86,3.85,3.85,0,0,0,.77,2.57A2.75,2.75,0,0,0,790,554.18Z" fill="#1c2126"/><path d="M806.82,557.45V536.84h2.27v20.61Z" fill="#1c2126"/><path d="M812.93,563.81l-.54-1.88a11.39,11.39,0,0,0,2.2-.71,4.26,4.26,0,0,0,1.47-1.08,6.19,6.19,0,0,0,1-1.68l.73-1.65-.06,1-6.13-14.36h2.46l5.07,12.35h-.73l5-12.35h2.38l-6.5,15.23a10.23,10.23,0,0,1-1.23,2.25,7.32,7.32,0,0,1-1.44,1.49,6.94,6.94,0,0,1-1.7.91A12.53,12.53,0,0,1,812.93,563.81Z" fill="#1c2126"/><path d="M828.35,557.45v-10.8c0-.53,0-1.06-.07-1.61s-.1-1.1-.15-1.64h2.18l.28,3.08h-.33a4.86,4.86,0,0,1,2-2.48,5.81,5.81,0,0,1,3.15-.85,5,5,0,0,1,3.77,1.33,5.86,5.86,0,0,1,1.27,4.18v8.79h-2.27V548.8a4.31,4.31,0,0,0-.8-2.9,3.13,3.13,0,0,0-2.47-.91,4.06,4.06,0,0,0-3.11,1.21,4.44,4.44,0,0,0-1.15,3.22v8Z" fill="#1c2126"/><path d="M844.76,557.45v-10.8c0-.53,0-1.06-.07-1.61s-.1-1.1-.15-1.64h2.18l.28,3.08h-.33a4.81,4.81,0,0,1,2-2.48,5.76,5.76,0,0,1,3.15-.85,4.94,4.94,0,0,1,3.76,1.33,5.86,5.86,0,0,1,1.28,4.18v8.79h-2.27V548.8a4.37,4.37,0,0,0-.8-2.9,3.13,3.13,0,0,0-2.47-.91,4.06,4.06,0,0,0-3.11,1.21,4.44,4.44,0,0,0-1.15,3.22v8Z" fill="#1c2126"/><path d="M866.52,557.71a6,6,0,0,1-3.28-.89,5.78,5.78,0,0,1-2.17-2.5,10.31,10.31,0,0,1,0-7.82,5.75,5.75,0,0,1,2.17-2.49,6.08,6.08,0,0,1,3.28-.86,5.64,5.64,0,0,1,3.29,1,4.56,4.56,0,0,1,1.83,2.62h-.34l.31-3.33h2.19c-.06.54-.11,1.08-.16,1.64s-.07,1.08-.07,1.61v10.8H871.3v-3.3h.31a4.42,4.42,0,0,1-1.85,2.6A5.57,5.57,0,0,1,866.52,557.71Zm.44-1.85a4,4,0,0,0,3.2-1.39,7.63,7.63,0,0,0,0-8.12,4.34,4.34,0,0,0-6.37,0,7.52,7.52,0,0,0,0,8.12A4,4,0,0,0,867,555.86Z" fill="#1c2126"/><path d="M878,557.45v-10.8c0-.53,0-1.06-.07-1.61s-.1-1.1-.15-1.64h2.18l.28,3.08h-.34a4.83,4.83,0,0,1,2-2.48,5.76,5.76,0,0,1,3.15-.85,5,5,0,0,1,3.76,1.33,5.86,5.86,0,0,1,1.28,4.18v8.79h-2.27V548.8a4.37,4.37,0,0,0-.8-2.9,3.15,3.15,0,0,0-2.48-.91,4.09,4.09,0,0,0-3.11,1.21,4.48,4.48,0,0,0-1.14,3.22v8Z" fill="#1c2126"/><path d="M899.7,557.71a5.93,5.93,0,0,1-3.25-.89,5.72,5.72,0,0,1-2.17-2.5,10.31,10.31,0,0,1,0-7.82,5.69,5.69,0,0,1,2.17-2.49,6,6,0,0,1,3.25-.86,5.66,5.66,0,0,1,3.29,1,4.61,4.61,0,0,1,1.86,2.57h-.34v-9.83h2.27v20.61h-2.24v-3.36h.31a4.58,4.58,0,0,1-1.85,2.65A5.71,5.71,0,0,1,899.7,557.71Zm.47-1.85a4,4,0,0,0,3.19-1.39,7.42,7.42,0,0,0,0-8.12,4.34,4.34,0,0,0-6.37,0,7.52,7.52,0,0,0,0,8.12A4,4,0,0,0,900.17,555.86Z" fill="#1c2126"/><path d="M916.16,557.71a4,4,0,0,1-3.16-1.2,5.14,5.14,0,0,1-1.1-3.59v-7.76h-2.74V543.4h2.74v-3.84l2.27-.64v4.48h4v1.76h-4v7.51a3.81,3.81,0,0,0,.58,2.39,2.05,2.05,0,0,0,1.72.71,4,4,0,0,0,.95-.1,4.87,4.87,0,0,0,.76-.23v1.9a5,5,0,0,1-.94.27A6.78,6.78,0,0,1,916.16,557.71Z" fill="#1c2126"/><path d="M926.6,557.71a6.78,6.78,0,0,1-3.51-.89,5.77,5.77,0,0,1-2.31-2.52,9.72,9.72,0,0,1,0-7.77,5.89,5.89,0,0,1,2.31-2.5,6.78,6.78,0,0,1,3.51-.88,6.85,6.85,0,0,1,3.55.88,6,6,0,0,1,2.32,2.5,9.51,9.51,0,0,1,0,7.77,5.91,5.91,0,0,1-2.32,2.52A6.85,6.85,0,0,1,926.6,557.71Zm0-1.85a4,4,0,0,0,3.2-1.39,7.63,7.63,0,0,0,0-8.12,4,4,0,0,0-3.2-1.39,4,4,0,0,0-3.16,1.39,7.57,7.57,0,0,0,0,8.12A3.92,3.92,0,0,0,926.6,555.86Z" fill="#1c2126"/><path d="M936.82,557.45v-10.8c0-.53,0-1.06-.07-1.61s-.09-1.1-.15-1.64h2.18l.28,3.08h-.33a4.86,4.86,0,0,1,2-2.48,5.81,5.81,0,0,1,3.15-.85,5,5,0,0,1,3.77,1.33,5.86,5.86,0,0,1,1.27,4.18v8.79h-2.27V548.8a4.37,4.37,0,0,0-.79-2.9,3.17,3.17,0,0,0-2.48-.91,4.08,4.08,0,0,0-3.11,1.21,4.44,4.44,0,0,0-1.15,3.22v8Z" fill="#1c2126"/><path d="M953,540.21v-2.55h2.8v2.55Zm.28,17.24V543.4h2.27v14.05Z" fill="#1c2126"/><path d="M965.8,557.71a6.91,6.91,0,0,1-3.59-.9,6,6,0,0,1-2.36-2.55,8.68,8.68,0,0,1-.82-3.92,8.32,8.32,0,0,1,.84-3.9,5.7,5.7,0,0,1,2.36-2.45,7.19,7.19,0,0,1,3.57-.84,7.35,7.35,0,0,1,2.62.47,5.79,5.79,0,0,1,2.12,1.34l-.82,1.63a5.77,5.77,0,0,0-1.83-1.21,5.29,5.29,0,0,0-1.95-.39,4.24,4.24,0,0,0-3.38,1.38,5.85,5.85,0,0,0-1.21,4,6,6,0,0,0,1.21,4,4.18,4.18,0,0,0,3.38,1.43,5.4,5.4,0,0,0,1.92-.37,5.28,5.28,0,0,0,1.86-1.2l.82,1.6a5.71,5.71,0,0,1-2.16,1.37A7.35,7.35,0,0,1,965.8,557.71Z" fill="#1c2126"/><path d="M167.16,562a13.84,13.84,0,0,1-5-.86,10.71,10.71,0,0,1-3.84-2.45,10.88,10.88,0,0,1-2.46-3.85,13.81,13.81,0,0,1-.87-5,13.54,13.54,0,0,1,.9-5,11,11,0,0,1,2.57-3.91,11.82,11.82,0,0,1,4-2.53,13.78,13.78,0,0,1,5.07-.9,13.49,13.49,0,0,1,4.55.74,10.32,10.32,0,0,1,3.54,2.12,9.19,9.19,0,0,1,2.28,3.27,11,11,0,0,1,.8,4.26,11.66,11.66,0,0,1-.7,4.2,6.47,6.47,0,0,1-1.93,2.77,4.58,4.58,0,0,1-2.92,1,3.2,3.2,0,0,1-2.54-1,3.31,3.31,0,0,1-.73-2.61l.5.14a5.71,5.71,0,0,1-2,2.56,4.85,4.85,0,0,1-2.78.88,4.34,4.34,0,0,1-3.43-1.36,5.34,5.34,0,0,1-1.22-3.73,8.11,8.11,0,0,1,.8-3.69,6.27,6.27,0,0,1,2.19-2.52,5.81,5.81,0,0,1,3.2-.91,4.15,4.15,0,0,1,2.59.76,3.55,3.55,0,0,1,1.3,2.13h-.34l.48-2.64H173l-1.29,7.26c0,.24-.07.47-.1.7a4.55,4.55,0,0,0,0,.61,2,2,0,0,0,.43,1.4,1.68,1.68,0,0,0,1.3.48,2.73,2.73,0,0,0,2-.81,5.5,5.5,0,0,0,1.32-2.26,10.66,10.66,0,0,0,.48-3.37,9.37,9.37,0,0,0-.68-3.64,7.53,7.53,0,0,0-1.93-2.77,8.6,8.6,0,0,0-3-1.77,11.69,11.69,0,0,0-3.9-.61,11.87,11.87,0,0,0-4.41.77,9.65,9.65,0,0,0-3.39,2.18,9.53,9.53,0,0,0-2.17,3.4,12.26,12.26,0,0,0-.76,4.43,12,12,0,0,0,1.26,5.68,8.62,8.62,0,0,0,3.6,3.65,11.32,11.32,0,0,0,5.5,1.28,12.11,12.11,0,0,0,4.23-.71,8.25,8.25,0,0,0,3.14-2l.92,1.37a8.83,8.83,0,0,1-3.54,2.18A14.47,14.47,0,0,1,167.16,562Zm-1.34-7.84a3.78,3.78,0,0,0,2.29-.74,5,5,0,0,0,1.59-2.06,7.5,7.5,0,0,0,.57-3,3.47,3.47,0,0,0-.7-2.38,2.83,2.83,0,0,0-2.21-.78,4,4,0,0,0-2.31.7,4.73,4.73,0,0,0-1.61,1.93,6.58,6.58,0,0,0-.59,2.86,3.85,3.85,0,0,0,.77,2.57A2.74,2.74,0,0,0,165.82,554.18Z" fill="#1c2126"/><path d="M184,557.45v-2h4.65V539.7h1.23l-5.43,3.39v-2.33l4.84-3h1.68v17.75h4.37v2Z" fill="#1c2126"/><path d="M200.76,557.45v-2h4.65V539.7h1.23l-5.43,3.39v-2.33l4.84-3h1.68v17.75h4.37v2Z" fill="#1c2126"/><path d="M221.2,557.71a4.06,4.06,0,0,1-3.16-1.2,5.14,5.14,0,0,1-1.09-3.59v-7.76H214.2V543.4H217v-3.84l2.26-.64v4.48h4v1.76h-4v7.51a3.88,3.88,0,0,0,.58,2.39,2.05,2.05,0,0,0,1.72.71,4,4,0,0,0,1-.1,4.87,4.87,0,0,0,.76-.23v1.9a4.82,4.82,0,0,1-.94.27A6.57,6.57,0,0,1,221.2,557.71Z" fill="#1c2126"/><path d="M225.63,563.81l-.54-1.88a11.39,11.39,0,0,0,2.2-.71,4.26,4.26,0,0,0,1.47-1.08,6.19,6.19,0,0,0,1-1.68l.73-1.65-.06,1-6.13-14.36h2.46l5.07,12.35h-.73l5-12.35h2.38L232,558.63a10.23,10.23,0,0,1-1.23,2.25,7.32,7.32,0,0,1-1.44,1.49,6.94,6.94,0,0,1-1.7.91A12.53,12.53,0,0,1,225.63,563.81Z" fill="#1c2126"/><path d="M27.75,606.92v12.14h-2.7v-2.13l-4.71-5.41v7.54H17.63V606.92H20l5.09,5.85v-5.85Z" fill="#1c2126"/><path d="M38.37,615.33H31.76a1.92,1.92,0,0,0,2,1.81,1.81,1.81,0,0,0,1.74-.8H38.2a4.35,4.35,0,0,1-4.44,2.88,4.63,4.63,0,1,1,0-9.26,4.32,4.32,0,0,1,4.62,4.61Zm-6.58-1.71h3.94a1.87,1.87,0,0,0-2-1.58A2,2,0,0,0,31.79,613.62Z" fill="#1c2126"/><path d="M44.93,612.23H43v6.83H40.5v-6.83H38.82v-2.11H40.5V607.3H43v2.82h1.93Z" fill="#1c2126"/><path d="M48.9,606.34v12.72H46.4V606.34Z" fill="#1c2126"/><path d="M53.62,607.59a1.46,1.46,0,0,1-1.51,1.5,1.51,1.51,0,1,1,1.51-1.5Zm-.24,2.32v9.15h-2.5v-9.15a2.06,2.06,0,0,0,1.25.37A2,2,0,0,0,53.38,609.91Z" fill="#1c2126"/><path d="M58.55,609v1.09h1.87v2.11H58.55v6.83h-2.5v-6.83H54.61v-2.11h1.44V609a2.62,2.62,0,0,1,2.88-2.83h1.75v1.94H59.44A.78.78,0,0,0,58.55,609Z" fill="#1c2126"/><path d="M70.71,610.12l-5,11.89H63.33l1.38-3.28-3.49-8.61h2.51L66,615.69l2.32-5.57Z" fill="#1c2126"/><path d="M109.4,613c0,3.92-2.34,6.22-5.8,6.22s-5.79-2.3-5.79-6.22,2.33-6.25,5.79-6.25S109.4,609.08,109.4,613Zm-8.79,0c0,2.35,1.3,3.66,3,3.66s3-1.31,3-3.66-1.32-3.67-3-3.67S100.61,610.63,100.61,613Z" fill="#1c2126"/><path d="M120.32,610.53h-2.8c0-.89-.67-1.52-1.85-1.52s-1.7.55-1.7,1.23.38,1,1.49,1.3l1.37.32c2.65.59,3.73,1.73,3.73,3.73s-1.6,3.63-4.73,3.63-4.9-1.61-4.9-4h2.8a1.88,1.88,0,0,0,2.11,1.84c1.27,0,1.92-.63,1.92-1.44s-.38-1.09-1.57-1.35l-1.32-.27c-2.77-.56-3.72-1.87-3.72-3.73,0-2.06,1.6-3.54,4.58-3.54S120.32,608.29,120.32,610.53Z" fill="#1c2126"/><path d="M131.38,610.53h-2.8c0-.89-.67-1.52-1.86-1.52-1,0-1.69.55-1.69,1.23s.38,1,1.48,1.3l1.38.32c2.64.59,3.73,1.73,3.73,3.73s-1.6,3.63-4.74,3.63-4.9-1.61-4.9-4h2.81a1.88,1.88,0,0,0,2.11,1.84c1.26,0,1.92-.63,1.92-1.44s-.39-1.09-1.57-1.35l-1.33-.27c-2.77-.56-3.71-1.87-3.71-3.73,0-2.06,1.6-3.54,4.58-3.54S131.38,608.29,131.38,610.53Z" fill="#1c2126"/><path d="M91.16,610.11a3.71,3.71,0,0,0-1-1.22,4,4,0,0,0-2.5-1.14,3.62,3.62,0,0,0-2.51,1.37,8,8,0,0,0-1.41,2.21,6.53,6.53,0,0,0-2.39-2.73,4.07,4.07,0,0,0-3.57-.35,3,3,0,0,0-1.83,3,5.09,5.09,0,0,0,2,2.88q3.32,3,6.72,5.87l5-5.64C90.67,613.14,91.8,611.56,91.16,610.11Z" fill="#ff6b60" stroke="#ff6b60" stroke-linejoin="round"/></svg>