<?xml version="1.0" encoding="UTF-8"?><svg xmlns="http://www.w3.org/2000/svg" viewBox="0 0 1200 630"><g id="b"><rect width="1200" height="498.72" fill="#30c8c9"/></g><g id="d"><path d="M1077.23,379.66c-5.32-10.58-11.46-21.1-18.63-30.81,0,0,0,0,0,0,27.71-40.82,16.06-99.52,16.16-102.27l-51.79,85.19h0s7.07-11.63,7.07-11.63c-2.97-2.09-6.05-4.03-9.26-5.8-27.04-14.92-65.18-9.76-82.58,17.22-3.29,4.53-5.64,9.43-7.47,14.54-8.24-9.79-13.46-21.76-17.21-34.54,1.99,6.76-1.17,21.1,1.87,27.21,14.01-19.01,39.72-44.11,52.83-59.38,2.73-3,5.33-6.12,7.79-9.33.94-.1,1.84-.32,2.65-.8,1.11-.67,1.89-1.77,2.62-2.84,10.91-15.9,20.27-33.06,25.74-51.56s6.93-38.43,2.2-57.13l-.71-.85c-1.11.5-2.23.98-3.35,1.46-3.23-19.73-12.65-40.83-26.5-57.14,2.84-4.36,5.07-7.65,6.47-9.68,2.04-.11,4.11-.53,6.17-1.29,7.76-2.86,15.33-10.13,19.98-20.19,7.5-16.25,4.49-33.62-6.72-38.8-4.27-1.97-9.12-1.89-13.9-.12-7.76,2.86-15.33,10.13-19.97,20.19-5.55,12.02-5.33,24.64-.32,32.5-1.01,1.48-2.26,3.32-3.69,5.49-4.17-3.45-8.61-6.47-13.29-8.95-38.5-17.91-95.1-20.61-130.96,2.8-10.68,7.01-21.11,19.7-21.11,38.55s13.88,40.27,44.06,37.73,29.74-18.21,40.51-23.33c16.84-6.3,27.7-9,44.44-.75,2.38,1.17,4.41,2.77,6.17,4.7-3.52,6.63-7.08,13.63-10.58,20.92-20.24,42.22-31.27,79.25-33.04,110.68,0-.1,0-.2.01-.3-2.1,2.17-4.16,4.35-6.16,6.55-14.19,15.86-26.57,33.53-33.78,53.69-40.04,113.46,93.15,194.72,129.94,54.94,9.33.18,18.29-1.09,26.63-3.42.04.05.09.1.13.15,9.5,10.49,12.34,26.56,23.49,35.1,25.07,20.64,60.66-10.97,44.08-38.7ZM985.68,58.25c3.15-6.82,7.72-10.51,10.68-11.61.58-.21,1.01-.29,1.25-.31,1.25,1.57,2.54,8.37-1.35,16.8-3.15,6.82-7.72,10.52-10.68,11.61-.58.21-1.01.29-1.25.31-1.25-1.58-2.54-8.37,1.35-16.8ZM1056.72,309.92c.12,9.31-4.26,18.96-10.51,27.56.46-.64.92-1.28,1.36-1.93-4.51-4.81-9.36-9.26-14.59-13.23,8.13-7.13,18.99-15.22,23.74-12.4ZM1044.49,339.76,1032.97,322.33c-.25.22-.5.44-.75.66.25-.22.5-.44.75-.66ZM1031.82,323.35c-.24.21-.47.42-.7.63.23-.21.46-.42.7-.63ZM1030.72,324.34c-.22.2-.45.41-.67.61.22-.2.44-.4.67-.61ZM1029.69,325.28c-.75.7-1.46,1.36-2.12,1.98.66-.62,1.36-1.29,2.12-1.98ZM1027.27,327.55c-.18.17-.35.33-.51.49.17-.16.34-.32.51-.49ZM1026.42,328.36c-.15.14-.29.28-.42.41.14-.13.28-.27.42-.41ZM1025.62,329.15c-.11.11-.22.22-.33.32.1-.1.21-.21.33-.32ZM1024.83,329.92c-.05.05-.11.11-.16.16.05-.05.11-.11.16-.16ZM1024.11,330.64s-.05.05-.07.07c.03-.03.05-.05.07-.07ZM1023.63,331.12s-.02.02-.03.03c.01-.01.02-.02.03-.03ZM945.05,159.61c.89,4.66,1.35,9.57,1.55,14.4-.96.73-1.74,1.64-2.2,2.84-.64,1.66-.49,3.5-.42,5.28.38,10.61-2.67,21.14-7.39,30.65-4.72,9.51-11.06,18.12-17.61,26.48-1.25,1.59-2.58,3.47-2.16,5.44.11.54.35,1.03.66,1.48-1.85,2.01-3.73,4-5.64,5.97,5.59-31.53,19.14-64.54,33.21-92.54ZM913.71,398.35c-11.86-18.1-10.41-35.27-2.61-51.37,4.07,6.47,8.91,12.41,14.64,17.63-2.64,11.78-5.16,23.62-12.03,33.74ZM986.55,370.26c.26-1.4.52-2.82.77-4.26,3.4.26,6.36,1.6,9.04,3.5,7.17-1.03,13.8-3.08,19.63-5.86-8.41,4.02-18.51,6.51-29.44,6.62Z" fill="#30c8c9" opacity=".3" stroke="#bffde7" stroke-linejoin="round" stroke-width="12"/><path d="M947.19,379.37c31.04,13.72,61.23,8.25,83.35-4.01,62.17-34.46,44.09-124.48,44.22-127.9l-51.79,85.19s25.7-26.65,33.75-21.86c.24,19.76-19.75,41.08-34.96,50.56-16.53,10.31-42.18,14.27-67.89,2.9-24.26-10.72-34.92-31.75-41.28-55.06-20.96-76.86,59.91-198.48,72.52-216.79,2.04-.11,4.11-.53,6.17-1.29,7.76-2.86,15.33-10.13,19.97-20.19,7.5-16.25,4.49-33.62-6.72-38.8-4.27-1.97-9.12-1.89-13.9-.12-7.76,2.86-15.33,10.13-19.97,20.19-5.55,12.02-5.33,24.64-.32,32.5-7.31,10.67-26.71,40.17-44.44,77.15-29.87,62.31-39.71,113.35-29.27,151.69,7.64,28.03,21.85,53.16,50.55,65.84ZM985.68,59.11c3.15-6.82,7.72-10.51,10.68-11.61.58-.21,1.01-.29,1.25-.31,1.24,1.57,2.54,8.37-1.35,16.8-3.15,6.82-7.72,10.52-10.68,11.61-.58.21-1.01.29-1.25.31-1.25-1.58-2.54-8.37,1.35-16.8Z" fill="#ff6b60" stroke="#1c2126" stroke-linejoin="round" stroke-width="2"/><path d="M885.88,136.97c16.84-6.3,27.7-9,44.44-.75,16.75,8.25,17.13,37.43,16.02,56.1-2.79,24.92-17.82,43.44-34.51,60.7-3.52,19.85-3.89,39.12.76,56.17,2.16,7.92,4.84,15.56,8.36,22.64,14.01-19.01,34.15-36.29,47.25-51.57,28.09-30.89,42.52-73.59,37.72-115.17-3.21-31.53-23.22-68.33-52.57-83.88-38.5-17.91-95.1-20.61-130.96,2.8-10.68,7.01-21.11,19.7-21.11,38.55s13.88,40.27,44.06,37.73c30.19-2.54,29.74-18.21,40.51-23.33Z" fill="#ffd3bf" stroke="#1c2126" stroke-linejoin="round" stroke-width="2"/><path d="M930.32,136.21c16.75,8.25,17.13,37.43,16.02,56.1-2.79,24.92-17.82,43.44-34.51,60.7-1.31,7.39-2.18,14.7-2.52,21.84,7.85-3.83,17.81-1.53,25.8.55,10.08,2.63,20.02,6.4,30.35,7.97.94-1.05,1.86-2.08,2.74-3.11,6.65-7.32,12.53-15.3,17.58-23.77-4.42-.25-9.06.42-13.3.35-4.16-.08-8.26-.86-11.96-2.84-3.44-1.84-6.52-4.82-8.54-8.15-3.42-5.65-2.88-12.19-.88-18.23,1.09-3.31,2.52-6.49,3.94-9.67,1.77-3.94,3.34-7.95,4.57-12.09,2.39-8,3.37-16.25,3.57-24.57.29-12.65,0-26.05-4.44-38.06-1.96-5.27-4.86-10.19-8.76-14.26-4.4-4.58-9.89-7.97-15.76-10.34-6.69-2.7-13.71-4.33-20.96-3.57-6.7.7-13.08,3.36-18.57,7.2-8.35,5.84-14.66,14.33-18.51,23.76,3.13-3.68,5.6-7.13,9.68-9.06,16.84-6.3,27.7-9,44.44-.75Z" fill="#1c2126" opacity=".1"/><path d="M1077.23,380.53c-5.32-10.58-11.46-21.1-18.63-30.81-6.76,9.97-15.86,18.87-28.06,25.63-6.39,3.54-13.46,6.51-21.02,8.62.05.05.09.1.14.15,9.5,10.49,12.34,26.56,23.49,35.1,25.07,20.64,60.66-10.97,44.08-38.7Z" fill="#ffd3bf" stroke="#1c2126" stroke-linejoin="round" stroke-width="2"/><path d="M1055.88,420.56c-8.94-2.23-15.78-8.76-21.02-16.09-2.6-3.64-4.69-7.68-5.44-12.13-.31-1.86-.52-3.9.05-5.73.56-1.81,1.85-2.66,3.56-3.28,1.68-.61,3.48-.84,5.15-1.48,2.25-.87,4.42-2.03,6.48-3.27,4.12-2.48,7.86-5.54,11.23-8.98,3.31-3.38,6.23-7.09,8.83-11.04-1.95-3-3.97-5.96-6.1-8.84-6.76,9.97-15.86,18.87-28.06,25.63-6.39,3.54-13.46,6.51-21.02,8.62.05.05.09.1.14.15,9.5,10.49,12.34,26.56,23.49,35.1,10.6,8.73,23.09,8.11,32.71,2.39-3.38.08-6.75-.26-9.99-1.07Z" fill="#1c2126" opacity=".1"/><path d="M1021.77,361.35c8.57-5.35,18.67-14.46,25.8-24.94-4.51-4.81-9.36-9.26-14.59-13.23-5.67,4.97-10.01,9.47-10.01,9.47l7.07-11.63c-2.97-2.09-6.05-4.03-9.26-5.8-27.04-14.92-65.18-9.76-82.58,17.22-14.37,19.76-10.83,46.66-24.49,66.77-11.86-18.1-10.41-35.28-2.61-51.38-6.52-10.35-11.12-22.05-14.46-34.3-3.39-12.45-4.64-26.24-3.76-41.31-2.1,2.17-4.16,4.35-6.16,6.55-14.19,15.86-26.57,33.53-33.78,53.69-41.87,118.64,105.68,202.08,134.36,34.41,3.4.26,6.36,1.6,9.04,3.5,9.66-1.39,18.37-4.62,25.41-9.01Z" fill="#ffd3bf" stroke="#1c2126" stroke-linejoin="round" stroke-width="2"/><path d="M892.33,321.4c2.36,5.11,4.16,10.38,5.05,15.95,1.72,10.79-.46,21.66-.97,32.45-.5,10.62.91,22.52,9.61,29.79,1.39,1.16,3.25,2.37,5.15,2.18,1.45-.15,2.56-1.17,3.3-2.37.75-1.21,1.24-2.56,1.57-3.96-.72,1.28-1.49,2.54-2.33,3.77-11.86-18.1-10.41-35.28-2.61-51.38-6.52-10.35-11.12-22.05-14.46-34.3-3.39-12.45-4.64-26.24-3.76-41.31-2.1,2.17-4.16,4.35-6.16,6.55-2.31,2.58-4.56,5.21-6.76,7.89.77,6.31,1.92,12.58,4.45,18.43,2.4,5.55,5.37,10.83,7.91,16.31Z" fill="#1c2126" opacity=".1"/><path d="M970.03,400.81c-2.62,4.48-5.78,8.71-8.99,12.79-3.51,4.46-7.29,8.72-11.33,12.7-7.7,7.58-16.52,14.36-26.51,18.63-5.28,2.25-10.8,3.66-16.53,4.07-5.88.42-11.79-.14-17.59-1.17-5.04-.89-10-2.15-14.92-3.51,35.34,32.47,93.07,23.38,111.82-70.23-6.58,8-10.73,17.81-15.93,26.71Z" fill="#1c2126" opacity=".1"/><path d="M1010.82,363.82c-6.52-3.13-21.21-7.28-22.58,3.15,3.01.42,5.67,1.67,8.11,3.39,6.32-.91,12.21-2.62,17.52-4.91-.99-.59-2.02-1.13-3.05-1.63Z" fill="#1c2126" opacity=".1"/><path d="M1009.21,158.61l-.71-.85c-16.73,7.5-34.63,12.38-52.85,14.4-4.38.49-9.66,1.43-11.24,5.55-.64,1.66-.49,3.5-.42,5.28.38,10.61-2.67,21.14-7.39,30.65-4.72,9.51-11.06,18.12-17.61,26.48-1.25,1.59-2.58,3.47-2.16,5.44.31,1.49,1.54,2.58,2.7,3.56,10.09,8.55,20.7,17.36,33.56,20.44,6.79,1.62,13.85,1.55,20.83,1.47,1.63-.02,3.35-.06,4.75-.9,1.11-.67,1.89-1.77,2.62-2.84,10.91-15.9,20.27-33.06,25.74-51.56s6.93-38.43,2.2-57.13Z" fill="#ffd3bf" stroke="#1c2126" stroke-linejoin="round" stroke-width="2"/><path d="M820.03,112.85s7.16-7.39,14.55,0" fill="none" stroke="#1c2126" stroke-linecap="round" stroke-miterlimit="10" stroke-width="2"/><path d="M844.98,112.85s7.16-7.39,14.55,0" fill="none" stroke="#1c2126" stroke-linecap="round" stroke-miterlimit="10" stroke-width="2"/><path d="M824.28,121.49c.26,7.81,7.18,14.08,15.71,14.08s15.45-6.27,15.71-14.08h-31.42Z" fill="#7a122d" stroke="#1c2126" stroke-linecap="round" stroke-linejoin="round" stroke-width="2"/><path d="M825.91,45.53c-.25-1.02-.88-1.91-1.55-2.72-1.18-1.43-2.64-2.79-4.46-3.08-1.91-.31-3.82.62-5.35,1.81-1.37,1.06-2.55,2.36-3.5,3.81-.69-2.32-1.89-4.55-3.73-6.13-1.86-1.6-4.45-2.45-6.84-1.9-2.39.55-4.44,2.67-4.56,5.12-.12,2.35,1.39,4.43,2.84,6.29,3.62,4.63,7.31,9.21,11.07,13.73,3.88-3.08,7.77-6.17,11.65-9.25,2.45-1.95,5.18-4.63,4.43-7.67Z" fill="#ffdd73" stroke="#1c2126" stroke-linejoin="round" stroke-width="2"/><path d="M792.63,59.06c-1.05-.62-2.29-.81-3.5-.91-2.12-.18-4.42-.07-6.14,1.2-1.8,1.33-2.57,3.65-2.82,5.87-.23,1.99-.1,4.01.33,5.96-2.48-1.3-5.27-2.11-8.06-1.86-2.82.25-5.61,1.69-7.08,4.11-1.47,2.42-1.37,5.82.55,7.89,1.84,1.99,4.78,2.42,7.48,2.72,6.74.75,13.49,1.39,20.24,1.92.58-5.69,1.17-11.38,1.75-17.07.37-3.59.35-8-2.76-9.83Z" fill="#ffdd73" stroke="#1c2126" stroke-linejoin="round" stroke-width="2"/><line x1="994.61" y1="-5.87" x2="994.61" y2="50.21" fill="#fff6d0" stroke="#1c2126" stroke-linecap="round" stroke-linejoin="round" stroke-width="2"/><polyline points="992.49 28.49 997.54 29.8 992.49 25.68 998.29 25.68" fill="#fff6d0" stroke="#1c2126" stroke-linecap="round" stroke-linejoin="round" stroke-width="2"/><circle cx="1140.69" cy="66.36" r="26.08" fill="#5cebdf" stroke="#bffde7" stroke-linejoin="round" stroke-width="2"/><ellipse cx="1132.03" cy="55.22" rx="13.05" ry="5.11" transform="translate(220.6 728.89) rotate(-39.26)" fill="#bffde7"/><circle cx="1091.07" cy="126.99" r="17.47" fill="#5cebdf" stroke="#bffde7" stroke-linejoin="round" stroke-width="2"/><ellipse cx="1085.27" cy="119.53" rx="8.74" ry="3.42" transform="translate(169.34 713.82) rotate(-39.26)" fill="#bffde7"/><circle cx="605.91" cy="94.95" r="20.07" fill="#5cebdf" stroke="#bffde7" stroke-linejoin="round" stroke-width="2"/><ellipse cx="599.25" cy="86.38" rx="10.04" ry="3.93" transform="translate(80.61 398.74) rotate(-39.26)" fill="#bffde7"/><circle cx="164.28" cy="72.38" r="20.07" fill="#5cebdf" stroke="#bffde7" stroke-linejoin="round" stroke-width="2"/><ellipse cx="157.61" cy="63.8" rx="10.04" ry="3.93" transform="translate(-4.8 114.15) rotate(-39.26)" fill="#bffde7"/><circle cx="373.54" cy="427.55" r="20.07" fill="#5cebdf" stroke="#bffde7" stroke-linejoin="round" stroke-width="2"/><ellipse cx="366.88" cy="418.98" rx="10.04" ry="3.93" transform="translate(-182.34 326.77) rotate(-39.26)" fill="#bffde7"/><circle cx="665.36" cy="150.96" r="14.81" fill="#5cebdf" stroke="#bffde7" stroke-linejoin="round" stroke-width="2"/><ellipse cx="660.44" cy="144.63" rx="7.41" ry="2.9" transform="translate(57.56 450.62) rotate(-39.26)" fill="#bffde7"/><circle cx="315" cy="454.98" r="14.81" fill="#5cebdf" stroke="#bffde7" stroke-linejoin="round" stroke-width="2"/><ellipse cx="310.09" cy="448.65" rx="7.41" ry="2.9" transform="translate(-213.94 297.52) rotate(-39.26)" fill="#bffde7"/><circle cx="107.91" cy="427.55" r="14.81" fill="#5cebdf" stroke="#bffde7" stroke-linejoin="round" stroke-width="2"/><ellipse cx="102.99" cy="421.23" rx="7.41" ry="2.9" transform="translate(-243.33 160.27) rotate(-39.26)" fill="#bffde7"/><circle cx="781.9" cy="399.21" r="14.81" fill="#5cebdf" stroke="#bffde7" stroke-linejoin="round" stroke-width="2"/><ellipse cx="776.98" cy="392.88" rx="7.41" ry="2.9" transform="translate(-73.25 580.41) rotate(-39.26)" fill="#bffde7"/><circle cx="1155.5" cy="440.17" r="14.81" fill="#5cebdf" stroke="#bffde7" stroke-linejoin="round" stroke-width="2"/><ellipse cx="1150.59" cy="433.84" rx="7.41" ry="2.9" transform="translate(-14.83 826.11) rotate(-39.26)" fill="#bffde7"/><circle cx="677.35" cy="56.85" r="14.41" fill="#5cebdf" stroke="#bffde7" stroke-linejoin="round" stroke-width="2"/><ellipse cx="672.57" cy="50.69" rx="7.21" ry="2.82" transform="translate(119.74 437.09) rotate(-39.26)" fill="#bffde7"/><path d="M904.07,400.66s5.02,6.9,9.64-1.45" fill="none" stroke="#1c2126" stroke-linecap="round" stroke-linejoin="round" stroke-width="2"/><path d="M987.31,366.86s1.37-8.12,3.98-10.24" fill="none" stroke="#1c2126" stroke-linecap="round" stroke-linejoin="round" stroke-width="2"/><path d="M93.84,235.72c-.66,0-1.21-.21-1.63-.63-.42-.42-.63-.96-.63-1.63v-19.9l-21.17-38.26c-.06-.18-.12-.35-.18-.5-.06-.15-.09-.32-.09-.5,0-.48.19-.92.59-1.31.39-.39.83-.59,1.31-.59h9.68c.78,0,1.42.21,1.9.63.48.42.81.81,1,1.18l14.2,24.87,14.2-24.87c.18-.36.51-.75,1-1.18.48-.42,1.14-.63,1.99-.63h9.59c.54,0,1,.2,1.36.59.36.39.54.83.54,1.31,0,.18-.02.35-.04.5-.03.15-.11.32-.23.5l-21.17,38.26v19.9c0,.66-.21,1.21-.63,1.63s-.97.63-1.63.63h-9.95Z" fill="#1c2126"/><path d="M148.57,236.62c-5.01,0-9.2-.83-12.57-2.49s-5.96-4.02-7.73-7.1c-1.78-3.08-2.76-6.66-2.94-10.76-.06-1.21-.09-2.58-.09-4.12s.03-2.88.09-4.02c.18-4.16,1.21-7.76,3.08-10.81,1.87-3.04,4.49-5.4,7.87-7.06,3.38-1.66,7.48-2.49,12.3-2.49s8.83.83,12.21,2.49c3.38,1.66,6,4.01,7.87,7.06,1.87,3.05,2.92,6.65,3.17,10.81.06,1.15.09,2.49.09,4.02s-.03,2.91-.09,4.12c-.24,4.1-1.25,7.69-3.03,10.76-1.78,3.08-4.36,5.44-7.73,7.1-3.38,1.66-7.54,2.49-12.48,2.49ZM148.57,226.59c2.95,0,5.17-.9,6.65-2.71,1.48-1.81,2.31-4.49,2.49-8.05.06-.9.09-2.11.09-3.62s-.03-2.71-.09-3.62c-.18-3.5-1.01-6.16-2.49-8-1.48-1.84-3.69-2.76-6.65-2.76s-5.19.92-6.69,2.76c-1.51,1.84-2.35,4.51-2.53,8-.06.9-.09,2.11-.09,3.62s.03,2.71.09,3.62c.18,3.56,1.03,6.24,2.53,8.05,1.51,1.81,3.74,2.71,6.69,2.71Z" fill="#1c2126"/><path d="M198.68,236.62c-3.5,0-6.59-.8-9.27-2.4-2.68-1.6-4.78-3.92-6.29-6.96-1.51-3.04-2.26-6.74-2.26-11.08v-25.24c0-.66.23-1.21.68-1.63.45-.42.98-.63,1.58-.63h9.68c.6,0,1.12.21,1.54.63.42.42.63.97.63,1.63v24.69c0,6.75,2.95,10.13,8.86,10.13,2.83,0,5.08-.89,6.74-2.67,1.66-1.78,2.49-4.27,2.49-7.46v-24.69c0-.66.21-1.21.63-1.63.42-.42.96-.63,1.63-.63h9.59c.6,0,1.12.21,1.54.63.42.42.63.97.63,1.63v42.51c0,.66-.21,1.21-.63,1.63s-.94.63-1.54.63h-8.95c-.6,0-1.12-.21-1.54-.63-.42-.42-.63-.96-.63-1.63v-3.53c-1.57,2.17-3.59,3.83-6.06,4.97-2.47,1.14-5.49,1.72-9.04,1.72Z" fill="#1c2126"/><path d="M240.64,235.72c-.6,0-1.13-.21-1.58-.63-.45-.42-.68-.96-.68-1.63v-42.51c0-.6.23-1.13.68-1.58.45-.45.98-.68,1.58-.68h8.86c.66,0,1.21.23,1.63.68.42.45.63.98.63,1.58v3.62c1.51-1.87,3.38-3.32,5.61-4.34,2.23-1.02,4.76-1.54,7.6-1.54h3.89c.66,0,1.21.21,1.63.63.42.42.63.97.63,1.63v7.87c0,.6-.21,1.12-.63,1.54s-.97.63-1.63.63h-7.87c-2.71,0-4.81.75-6.29,2.26-1.48,1.51-2.22,3.59-2.22,6.24v23.97c0,.66-.23,1.21-.68,1.63-.45.42-.98.63-1.58.63h-9.59Z" fill="#1c2126"/><path d="M317.07,236.62c-4.46,0-8.37-.81-11.71-2.44s-5.99-3.99-7.92-7.1c-1.93-3.1-2.98-6.83-3.17-11.17-.06-.96-.09-2.18-.09-3.66s.03-2.7.09-3.66c.18-4.4,1.22-8.15,3.12-11.26,1.9-3.1,4.54-5.47,7.91-7.1,3.38-1.63,7.3-2.44,11.76-2.44,3.98,0,7.39.56,10.22,1.67,2.83,1.12,5.16,2.53,6.96,4.25,1.81,1.72,3.17,3.48,4.07,5.29.9,1.81,1.39,3.41,1.45,4.79.06.66-.15,1.21-.63,1.63-.48.42-1.03.63-1.63.63h-9.68c-.66,0-1.16-.15-1.49-.45-.33-.3-.65-.78-.95-1.45-.78-2.11-1.84-3.62-3.17-4.52-1.33-.9-2.98-1.36-4.97-1.36-2.71,0-4.84.87-6.38,2.62-1.54,1.75-2.37,4.46-2.49,8.14-.12,2.35-.12,4.49,0,6.42.12,3.74.95,6.45,2.49,8.14,1.54,1.69,3.66,2.53,6.38,2.53,2.11,0,3.8-.45,5.07-1.36s2.29-2.41,3.08-4.52c.3-.66.62-1.15.95-1.45.33-.3.83-.45,1.49-.45h9.68c.6,0,1.14.21,1.63.63.48.42.69.96.63,1.63-.06,1.03-.36,2.23-.91,3.62-.54,1.39-1.37,2.8-2.49,4.25-1.12,1.45-2.55,2.79-4.3,4.02-1.75,1.24-3.88,2.23-6.38,2.98-2.5.75-5.38,1.13-8.64,1.13Z" fill="#1c2126"/><path d="M370.08,236.62c-5.01,0-9.2-.83-12.57-2.49s-5.96-4.02-7.73-7.1c-1.78-3.08-2.76-6.66-2.94-10.76-.06-1.21-.09-2.58-.09-4.12s.03-2.88.09-4.02c.18-4.16,1.21-7.76,3.08-10.81,1.87-3.04,4.49-5.4,7.87-7.06,3.38-1.66,7.48-2.49,12.3-2.49s8.83.83,12.21,2.49c3.38,1.66,6,4.01,7.87,7.06,1.87,3.05,2.92,6.65,3.17,10.81.06,1.15.09,2.49.09,4.02s-.03,2.91-.09,4.12c-.24,4.1-1.25,7.69-3.03,10.76-1.78,3.08-4.36,5.44-7.73,7.1-3.38,1.66-7.54,2.49-12.48,2.49ZM370.08,226.59c2.95,0,5.17-.9,6.65-2.71,1.48-1.81,2.31-4.49,2.49-8.05.06-.9.09-2.11.09-3.62s-.03-2.71-.09-3.62c-.18-3.5-1.01-6.16-2.49-8-1.48-1.84-3.69-2.76-6.65-2.76s-5.19.92-6.69,2.76c-1.51,1.84-2.35,4.51-2.53,8-.06.9-.09,2.11-.09,3.62s.03,2.71.09,3.62c.18,3.56,1.03,6.24,2.53,8.05,1.51,1.81,3.74,2.71,6.69,2.71Z" fill="#1c2126"/><path d="M420.37,236.62c-3.02,0-5.7-.5-8.05-1.49-2.35-1-4.34-2.44-5.97-4.34-1.63-1.9-2.87-4.16-3.71-6.78-.84-2.62-1.36-5.53-1.54-8.73-.06-1.15-.09-2.19-.09-3.12s.03-1.94.09-3.03c.12-3.13.62-6,1.49-8.59.87-2.59,2.11-4.84,3.71-6.74s3.59-3.38,5.97-4.43c2.38-1.05,5.08-1.58,8.1-1.58s5.82.53,8.05,1.58c2.23,1.06,4.07,2.4,5.52,4.03v-19.63c0-.66.21-1.21.63-1.63s.96-.63,1.63-.63h9.32c.66,0,1.21.21,1.63.63.42.42.63.97.63,1.63v59.7c0,.66-.21,1.21-.63,1.63-.42.42-.96.63-1.63.63h-8.68c-.6,0-1.12-.21-1.54-.63-.42-.42-.63-.96-.63-1.63v-3.08c-1.51,1.81-3.41,3.3-5.7,4.48-2.29,1.18-5.16,1.76-8.59,1.76ZM424.53,225.77c2.23,0,4.03-.51,5.38-1.54,1.36-1.02,2.35-2.32,2.99-3.89.63-1.57.98-3.26,1.04-5.06.12-1.15.18-2.29.18-3.44s-.06-2.26-.18-3.35c-.06-1.69-.44-3.27-1.13-4.75-.69-1.48-1.7-2.7-3.03-3.66-1.33-.96-3.08-1.45-5.25-1.45-2.29,0-4.1.5-5.43,1.49-1.33,1-2.28,2.31-2.85,3.93-.57,1.63-.92,3.41-1.04,5.34-.12,1.87-.12,3.74,0,5.61.12,1.93.47,3.71,1.04,5.34.57,1.63,1.52,2.94,2.85,3.93,1.33,1,3.13,1.49,5.43,1.49Z" fill="#1c2126"/><path d="M480.15,236.62c-6.93,0-12.44-1.93-16.51-5.79-4.07-3.86-6.23-9.47-6.47-16.82v-3.8c.24-4.7,1.3-8.73,3.17-12.07,1.87-3.35,4.49-5.91,7.87-7.69,3.38-1.78,7.33-2.67,11.85-2.67,5.12,0,9.38,1.04,12.75,3.12,3.38,2.08,5.92,4.92,7.64,8.5,1.72,3.59,2.58,7.7,2.58,12.35v2.08c0,.6-.21,1.13-.63,1.58-.42.45-.96.68-1.63.68h-29.49v.63c.06,1.93.42,3.69,1.09,5.29.66,1.6,1.64,2.88,2.94,3.84,1.3.97,2.88,1.45,4.75,1.45,1.45,0,2.65-.23,3.62-.68.96-.45,1.76-.96,2.4-1.54.63-.57,1.1-1.07,1.4-1.49.54-.66.98-1.07,1.31-1.22.33-.15.83-.23,1.49-.23h9.59c.54,0,1.01.18,1.4.54.39.36.56.81.5,1.36-.06,1.03-.56,2.25-1.49,3.66-.94,1.42-2.31,2.8-4.12,4.16-1.81,1.36-4.06,2.49-6.74,3.39-2.68.9-5.77,1.36-9.27,1.36ZM471.29,207.77h17.64v-.27c0-2.11-.35-3.96-1.04-5.56-.69-1.6-1.7-2.85-3.03-3.75-1.33-.9-2.93-1.36-4.79-1.36s-3.45.45-4.75,1.36c-1.3.9-2.29,2.16-2.99,3.75-.69,1.6-1.04,3.45-1.04,5.56v.27Z" fill="#1c2126"/><path d="M510.09,193.03c-.54,0-.98-.18-1.31-.54-.33-.36-.47-.87-.41-1.54l2.62-16.46c.12-.78.42-1.48.9-2.08.48-.6,1.21-.9,2.17-.9h9.41c.48,0,.89.18,1.22.54.33.36.5.75.5,1.18s-.09.78-.27,1.09l-6.24,16.28c-.24.6-.59,1.16-1.04,1.67-.45.51-1.16.77-2.12.77h-5.43Z" fill="#1c2126"/><path d="M548.62,236.62c-3.74,0-6.95-.44-9.63-1.31-2.68-.87-4.85-1.94-6.51-3.21-1.66-1.27-2.89-2.55-3.71-3.84-.81-1.3-1.25-2.4-1.31-3.3-.06-.66.15-1.21.63-1.63.48-.42.96-.63,1.45-.63h8.77c.24,0,.44.03.59.09.15.06.35.21.59.45.78.54,1.58,1.16,2.4,1.85.81.69,1.79,1.28,2.94,1.76,1.14.48,2.53.72,4.16.72,1.99,0,3.66-.41,5.02-1.22,1.36-.81,2.04-1.97,2.04-3.48,0-1.09-.3-1.99-.9-2.71-.6-.72-1.78-1.39-3.53-1.99-1.75-.6-4.34-1.27-7.78-1.99-3.26-.72-6.03-1.69-8.32-2.89-2.29-1.21-4.01-2.73-5.16-4.57-1.15-1.84-1.72-4.05-1.72-6.65,0-2.35.74-4.61,2.22-6.78,1.48-2.17,3.66-3.96,6.56-5.38,2.89-1.42,6.51-2.13,10.85-2.13,3.32,0,6.23.41,8.73,1.22,2.5.81,4.6,1.84,6.29,3.08,1.69,1.24,2.97,2.5,3.84,3.8.87,1.3,1.34,2.43,1.4,3.39.06.66-.12,1.21-.54,1.63-.42.42-.9.63-1.45.63h-8.05c-.3,0-.57-.06-.81-.18-.24-.12-.45-.27-.63-.45-.72-.42-1.46-.96-2.22-1.63-.75-.66-1.64-1.23-2.67-1.72-1.03-.48-2.35-.72-3.98-.72-1.93,0-3.42.44-4.48,1.31-1.06.87-1.58,1.98-1.58,3.3,0,.85.27,1.63.81,2.35s1.64,1.39,3.3,1.99c1.66.6,4.24,1.24,7.73,1.9,4.1.72,7.36,1.81,9.77,3.26,2.41,1.45,4.13,3.12,5.16,5.02,1.02,1.9,1.54,3.93,1.54,6.11,0,2.83-.83,5.35-2.49,7.55-1.66,2.2-4.12,3.92-7.37,5.16s-7.24,1.85-11.94,1.85Z" fill="#1c2126"/><path d="M96.2,364.16c-4.46,0-8.17-.59-11.12-1.76-2.96-1.18-5.29-2.59-7.01-4.25-1.72-1.66-2.94-3.3-3.66-4.93-.72-1.63-1.12-2.93-1.18-3.89-.06-.6.15-1.13.63-1.58.48-.45,1.02-.68,1.63-.68h9.68c.6,0,1.08.14,1.45.41.36.27.66.77.9,1.49.36.72.81,1.49,1.36,2.31.54.81,1.36,1.49,2.44,2.04,1.08.54,2.56.81,4.43.81,2.11,0,3.86-.3,5.25-.9,1.39-.6,2.43-1.63,3.12-3.08.69-1.45,1.04-3.41,1.04-5.88v-6.06c-1.45,1.57-3.27,2.86-5.47,3.89-2.2,1.03-4.9,1.54-8.09,1.54s-5.89-.5-8.28-1.49c-2.38-1-4.36-2.41-5.92-4.25-1.57-1.84-2.77-4.05-3.62-6.65-.85-2.59-1.33-5.52-1.45-8.77-.06-1.63-.06-3.23,0-4.79.12-3.13.6-6,1.45-8.59.84-2.59,2.05-4.84,3.62-6.74,1.57-1.9,3.54-3.38,5.92-4.43,2.38-1.05,5.14-1.58,8.28-1.58,3.32,0,6.15.63,8.5,1.9,2.35,1.27,4.28,2.83,5.79,4.7v-3.44c0-.6.21-1.13.63-1.58.42-.45.93-.68,1.54-.68h8.86c.66,0,1.21.23,1.63.68.42.45.63.98.63,1.58l.09,43.51c0,4.52-.87,8.35-2.62,11.49-1.75,3.13-4.33,5.53-7.73,7.19-3.41,1.66-7.64,2.49-12.71,2.49ZM95.74,332.95c2.17,0,3.93-.48,5.29-1.45,1.36-.96,2.37-2.22,3.03-3.75.66-1.54,1.03-3.15,1.09-4.84.06-.66.09-1.61.09-2.85s-.03-2.18-.09-2.85c-.06-1.69-.42-3.29-1.09-4.79-.66-1.51-1.67-2.76-3.03-3.75-1.36-1-3.12-1.49-5.29-1.49-2.29,0-4.1.5-5.43,1.49-1.33,1-2.28,2.31-2.85,3.93-.57,1.63-.92,3.41-1.04,5.34-.12,1.45-.12,2.86,0,4.25.12,1.99.47,3.8,1.04,5.43.57,1.63,1.52,2.93,2.85,3.89,1.33.96,3.13,1.45,5.43,1.45Z" fill="#1c2126"/><path d="M152.19,345.16c-5.01,0-9.2-.83-12.57-2.49-3.38-1.66-5.96-4.02-7.73-7.1-1.78-3.08-2.76-6.66-2.94-10.76-.06-1.21-.09-2.58-.09-4.12s.03-2.88.09-4.03c.18-4.16,1.21-7.76,3.08-10.81,1.87-3.04,4.49-5.4,7.87-7.06,3.38-1.66,7.48-2.49,12.3-2.49s8.83.83,12.21,2.49c3.38,1.66,6,4.01,7.87,7.06,1.87,3.05,2.92,6.65,3.17,10.81.06,1.15.09,2.49.09,4.03s-.03,2.91-.09,4.12c-.24,4.1-1.25,7.69-3.03,10.76-1.78,3.08-4.36,5.44-7.73,7.1-3.38,1.66-7.54,2.49-12.48,2.49ZM152.19,335.12c2.95,0,5.17-.91,6.65-2.71,1.48-1.81,2.31-4.49,2.49-8.05.06-.9.09-2.11.09-3.62s-.03-2.71-.09-3.62c-.18-3.5-1.01-6.16-2.49-8-1.48-1.84-3.69-2.76-6.65-2.76s-5.19.92-6.69,2.76c-1.51,1.84-2.35,4.51-2.53,8-.06.9-.09,2.11-.09,3.62s.03,2.71.09,3.62c.18,3.56,1.03,6.24,2.53,8.05,1.51,1.81,3.74,2.71,6.69,2.71Z" fill="#1c2126"/><path d="M207.36,344.26c-3.74,0-6.92-.62-9.54-1.85-2.62-1.24-4.63-3.15-6.02-5.74-1.39-2.59-2.08-5.85-2.08-9.77v-18.99h-7.05c-.66,0-1.21-.21-1.63-.63-.42-.42-.63-.93-.63-1.54v-6.24c0-.66.21-1.21.63-1.63.42-.42.96-.63,1.63-.63h7.05v-14.92c0-.66.23-1.21.68-1.63.45-.42.98-.63,1.58-.63h8.95c.6,0,1.12.21,1.54.63.42.42.63.97.63,1.63v14.92h11.31c.66,0,1.21.21,1.63.63.42.42.63.97.63,1.63v6.24c0,.6-.21,1.12-.63,1.54-.42.42-.97.63-1.63.63h-11.31v17.91c0,2.29.42,4.09,1.27,5.38.84,1.3,2.26,1.94,4.25,1.94h6.6c.66,0,1.21.21,1.63.63.42.42.63.94.63,1.54v6.69c0,.66-.21,1.21-.63,1.63s-.96.63-1.63.63h-7.87Z" fill="#1c2126"/><path d="M247.43,344.26c-.6,0-1.13-.21-1.58-.63-.45-.42-.68-.96-.68-1.63v-42.51c0-.66.23-1.21.68-1.63.45-.42.98-.63,1.58-.63h8.41c.66,0,1.21.21,1.63.63.42.42.63.97.63,1.63v3.08c1.27-1.69,2.97-3.13,5.11-4.34,2.14-1.21,4.69-1.84,7.64-1.9,6.93-.12,11.73,2.53,14.38,7.96,1.39-2.35,3.38-4.27,5.97-5.74,2.59-1.48,5.46-2.22,8.59-2.22s5.97.71,8.5,2.13c2.53,1.42,4.55,3.59,6.06,6.51,1.51,2.93,2.26,6.68,2.26,11.26v25.78c0,.66-.23,1.21-.68,1.63-.45.42-.98.63-1.58.63h-8.96c-.66,0-1.21-.21-1.63-.63-.42-.42-.63-.96-.63-1.63v-25.05c0-2.47-.35-4.4-1.04-5.79-.69-1.39-1.63-2.4-2.8-3.03-1.18-.63-2.49-.95-3.93-.95-1.27,0-2.49.32-3.66.95-1.18.63-2.14,1.64-2.89,3.03-.75,1.39-1.13,3.32-1.13,5.79v25.05c0,.66-.21,1.21-.63,1.63s-.94.63-1.54.63h-8.95c-.67,0-1.21-.21-1.63-.63-.42-.42-.63-.96-.63-1.63v-25.05c0-2.47-.36-4.4-1.08-5.79-.72-1.39-1.67-2.4-2.85-3.03-1.18-.63-2.46-.95-3.84-.95-1.27,0-2.49.32-3.66.95-1.18.63-2.14,1.64-2.89,3.03-.75,1.39-1.13,3.29-1.13,5.7v25.15c0,.66-.21,1.21-.63,1.63s-.97.63-1.63.63h-9.14Z" fill="#1c2126"/><path d="M348.46,345.16c-6.93,0-12.44-1.93-16.51-5.79-4.07-3.86-6.23-9.47-6.47-16.82v-3.8c.24-4.7,1.3-8.73,3.17-12.07,1.87-3.35,4.49-5.91,7.87-7.69,3.38-1.78,7.33-2.67,11.85-2.67,5.12,0,9.38,1.04,12.75,3.12,3.38,2.08,5.92,4.92,7.64,8.5,1.72,3.59,2.58,7.7,2.58,12.35v2.08c0,.6-.21,1.13-.63,1.58s-.96.68-1.63.68h-29.49v.63c.06,1.93.42,3.69,1.09,5.29.66,1.6,1.64,2.88,2.94,3.84,1.3.96,2.88,1.45,4.75,1.45,1.45,0,2.65-.23,3.62-.68.96-.45,1.76-.96,2.4-1.54.63-.57,1.1-1.07,1.4-1.49.54-.66.98-1.07,1.31-1.22.33-.15.83-.23,1.49-.23h9.59c.54,0,1.01.18,1.4.54.39.36.56.81.5,1.36-.06,1.03-.56,2.25-1.49,3.66-.94,1.42-2.31,2.8-4.12,4.16-1.81,1.36-4.06,2.49-6.74,3.39-2.68.9-5.77,1.36-9.27,1.36ZM339.59,316.31h17.64v-.27c0-2.11-.35-3.96-1.04-5.56-.69-1.6-1.7-2.85-3.03-3.75-1.33-.9-2.93-1.36-4.79-1.36s-3.45.45-4.75,1.36c-1.3.9-2.29,2.16-2.99,3.75-.69,1.6-1.04,3.45-1.04,5.56v.27Z" fill="#1c2126"/><path d="M402.73,344.26c-.67,0-1.21-.21-1.63-.63-.42-.42-.63-.96-.63-1.63v-59.7c0-.66.21-1.21.63-1.63.42-.42.96-.63,1.63-.63h9.77c.66,0,1.21.21,1.63.63.42.42.63.97.63,1.63v20.35c1.57-1.93,3.54-3.47,5.92-4.61,2.38-1.14,5.23-1.72,8.55-1.72,3.56,0,6.71.8,9.45,2.4,2.74,1.6,4.88,3.92,6.42,6.96,1.54,3.05,2.31,6.74,2.31,11.08v25.24c0,.66-.21,1.21-.63,1.63s-.97.63-1.63.63h-9.86c-.6,0-1.12-.21-1.54-.63-.42-.42-.63-.96-.63-1.63v-24.69c0-3.2-.78-5.68-2.35-7.46-1.57-1.78-3.8-2.67-6.69-2.67s-5.1.89-6.78,2.67c-1.69,1.78-2.53,4.27-2.53,7.46v24.69c0,.66-.21,1.21-.63,1.63s-.97.63-1.63.63h-9.77Z" fill="#1c2126"/><path d="M479.79,345.16c-5.01,0-9.2-.83-12.57-2.49-3.38-1.66-5.96-4.02-7.73-7.1-1.78-3.08-2.76-6.66-2.94-10.76-.06-1.21-.09-2.58-.09-4.12s.03-2.88.09-4.03c.18-4.16,1.21-7.76,3.08-10.81,1.87-3.04,4.49-5.4,7.87-7.06,3.38-1.66,7.48-2.49,12.3-2.49s8.83.83,12.21,2.49c3.38,1.66,6,4.01,7.87,7.06,1.87,3.05,2.92,6.65,3.17,10.81.06,1.15.09,2.49.09,4.03s-.03,2.91-.09,4.12c-.24,4.1-1.25,7.69-3.03,10.76-1.78,3.08-4.36,5.44-7.73,7.1-3.38,1.66-7.54,2.49-12.48,2.49ZM479.79,335.12c2.95,0,5.17-.91,6.65-2.71,1.48-1.81,2.31-4.49,2.49-8.05.06-.9.09-2.11.09-3.62s-.03-2.71-.09-3.62c-.18-3.5-1.01-6.16-2.49-8-1.48-1.84-3.69-2.76-6.65-2.76s-5.19.92-6.69,2.76c-1.51,1.84-2.35,4.51-2.53,8-.06.9-.09,2.11-.09,3.62s.03,2.71.09,3.62c.18,3.56,1.03,6.24,2.53,8.05,1.51,1.81,3.74,2.71,6.69,2.71Z" fill="#1c2126"/><path d="M534.15,345.16c-5.01,0-9.2-.83-12.57-2.49-3.38-1.66-5.96-4.02-7.73-7.1-1.78-3.08-2.76-6.66-2.94-10.76-.06-1.21-.09-2.58-.09-4.12s.03-2.88.09-4.03c.18-4.16,1.21-7.76,3.08-10.81,1.87-3.04,4.49-5.4,7.87-7.06,3.38-1.66,7.48-2.49,12.3-2.49s8.83.83,12.21,2.49c3.38,1.66,6,4.01,7.87,7.06,1.87,3.05,2.92,6.65,3.17,10.81.06,1.15.09,2.49.09,4.03s-.03,2.91-.09,4.12c-.24,4.1-1.25,7.69-3.03,10.76-1.78,3.08-4.36,5.44-7.73,7.1-3.38,1.66-7.54,2.49-12.48,2.49ZM534.15,335.12c2.95,0,5.17-.91,6.65-2.71,1.48-1.81,2.31-4.49,2.49-8.05.06-.9.09-2.11.09-3.62s-.03-2.71-.09-3.62c-.18-3.5-1.01-6.16-2.49-8-1.48-1.84-3.69-2.76-6.65-2.76s-5.19.92-6.69,2.76c-1.51,1.84-2.35,4.51-2.53,8-.06.9-.09,2.11-.09,3.62s.03,2.71.09,3.62c.18,3.56,1.03,6.24,2.53,8.05,1.51,1.81,3.74,2.71,6.69,2.71Z" fill="#1c2126"/><path d="M569.25,344.26c-.67,0-1.21-.21-1.63-.63-.42-.42-.63-.96-.63-1.63v-59.7c0-.66.21-1.21.63-1.63.42-.42.96-.63,1.63-.63h8.86c.6,0,1.13.21,1.58.63.45.42.68.97.68,1.63v30.57l13.84-14.11c.48-.42.92-.78,1.31-1.09.39-.3,1.01-.45,1.85-.45h10.31c.54,0,1.01.2,1.4.59.39.39.59.86.59,1.4,0,.24-.06.51-.18.81-.12.3-.33.54-.63.72l-17.46,17.55,19.72,22.52c.48.48.72.96.72,1.45,0,.54-.18,1.01-.54,1.4-.36.39-.85.59-1.45.59h-10.49c-.9,0-1.55-.15-1.94-.45-.39-.3-.83-.66-1.31-1.08l-15.74-17.73v17c0,.66-.23,1.21-.68,1.63-.45.42-.98.63-1.58.63h-8.86Z" fill="#1c2126"/><path d="M637.17,345.16c-6.93,0-12.44-1.93-16.51-5.79-4.07-3.86-6.23-9.47-6.47-16.82v-3.8c.24-4.7,1.3-8.73,3.17-12.07,1.87-3.35,4.49-5.91,7.87-7.69,3.38-1.78,7.33-2.67,11.85-2.67,5.12,0,9.38,1.04,12.75,3.12,3.38,2.08,5.92,4.92,7.64,8.5,1.72,3.59,2.58,7.7,2.58,12.35v2.08c0,.6-.21,1.13-.63,1.58s-.96.68-1.63.68h-29.49v.63c.06,1.93.42,3.69,1.09,5.29.66,1.6,1.64,2.88,2.94,3.84,1.3.96,2.88,1.45,4.75,1.45,1.45,0,2.65-.23,3.62-.68.96-.45,1.76-.96,2.4-1.54.63-.57,1.1-1.07,1.4-1.49.54-.66.98-1.07,1.31-1.22.33-.15.83-.23,1.49-.23h9.59c.54,0,1.01.18,1.4.54.39.36.56.81.5,1.36-.06,1.03-.56,2.25-1.49,3.66-.94,1.42-2.31,2.8-4.12,4.16-1.81,1.36-4.06,2.49-6.74,3.39-2.68.9-5.77,1.36-9.27,1.36ZM628.31,316.31h17.64v-.27c0-2.11-.35-3.96-1.04-5.56-.69-1.6-1.7-2.85-3.03-3.75-1.33-.9-2.93-1.36-4.79-1.36s-3.45.45-4.75,1.36c-1.3.9-2.29,2.16-2.99,3.75-.69,1.6-1.04,3.45-1.04,5.56v.27Z" fill="#1c2126"/><path d="M686.65,345.16c-3.02,0-5.7-.5-8.05-1.49-2.35-1-4.34-2.44-5.97-4.34-1.63-1.9-2.87-4.16-3.71-6.78-.84-2.62-1.36-5.53-1.54-8.73-.06-1.14-.09-2.18-.09-3.12s.03-1.95.09-3.03c.12-3.13.62-6,1.49-8.59.87-2.59,2.11-4.84,3.71-6.74s3.59-3.38,5.97-4.43c2.38-1.05,5.08-1.58,8.1-1.58s5.82.53,8.05,1.58c2.23,1.06,4.07,2.4,5.52,4.03v-19.63c0-.66.21-1.21.63-1.63s.96-.63,1.63-.63h9.32c.66,0,1.21.21,1.63.63.42.42.63.97.63,1.63v59.7c0,.66-.21,1.21-.63,1.63-.42.42-.96.63-1.63.63h-8.68c-.6,0-1.12-.21-1.54-.63-.42-.42-.63-.96-.63-1.63v-3.08c-1.51,1.81-3.41,3.3-5.7,4.48-2.29,1.18-5.16,1.76-8.59,1.76ZM690.81,334.31c2.23,0,4.03-.51,5.38-1.54,1.36-1.02,2.35-2.32,2.99-3.89.63-1.57.98-3.26,1.04-5.07.12-1.14.18-2.29.18-3.44s-.06-2.26-.18-3.35c-.06-1.69-.44-3.27-1.13-4.75-.69-1.48-1.7-2.7-3.03-3.66-1.33-.96-3.08-1.45-5.25-1.45-2.29,0-4.1.5-5.43,1.49-1.33,1-2.28,2.31-2.85,3.93-.57,1.63-.92,3.41-1.04,5.34-.12,1.87-.12,3.74,0,5.61.12,1.93.47,3.71,1.04,5.34.57,1.63,1.52,2.94,2.85,3.93,1.33,1,3.13,1.49,5.43,1.49Z" fill="#1c2126"/><rect x="0" y="595" width="1200" height="35" fill="#fff"/><rect x="0" y="499.19" width="1200" height="95.81" fill="#fff"/><line x1="0" y1="499.19" x2="1200" y2="499.19" fill="none" stroke="#1c2126" stroke-miterlimit="10"/><line x1="0" y1="595" x2="1200" y2="595" fill="none" stroke="#1c2126" stroke-miterlimit="10"/><path d="M24.24,559.45v-18.76h-6.39v-2.37h15.35v2.37h-6.39v18.76h-2.58Z" fill="#1c2126"/><path d="M44.08,559.89c-4.8,0-7.75-3.46-7.75-9.3v-3.41c0-5.84,2.94-9.3,7.75-9.3s7.75,3.46,7.75,9.3v3.41c0,5.84-2.94,9.3-7.75,9.3ZM49.22,550.58v-3.38c0-4.41-1.93-6.87-5.14-6.87s-5.14,2.46-5.14,6.87v3.38c0,4.41,1.93,6.87,5.14,6.87s5.14-2.46,5.14-6.87Z" fill="#1c2126"/><path d="M59.97,545.58c0-1.48,1.2-2.71,2.65-2.71s2.65,1.23,2.65,2.71-1.2,2.71-2.65,2.71-2.65-1.23-2.65-2.71ZM59.97,556.83c0-1.48,1.2-2.7,2.65-2.7s2.65,1.22,2.65,2.7-1.2,2.71-2.65,2.71-2.65-1.22-2.65-2.71Z" fill="#1c2126"/><line x1="582.03" y1="498.72" x2="582.03" y2="595" fill="none" stroke="#1c2126" stroke-miterlimit="10"/><path d="M605.51,559.45v-21.14h12.47v2.37h-9.87v7.25h9.02v2.3h-9.02v9.21h-2.59Z" fill="#1c2126"/><path d="M625.54,551.03v8.42h-2.55v-21.14h7.09c4.19,0,6.81,2.43,6.81,6.36,0,2.77-1.54,5.04-3.94,5.83l4.31,8.95h-2.92l-3.94-8.42h-4.86ZM625.54,548.85h4.19c2.92,0,4.56-1.48,4.56-4.12s-1.61-4.12-4.44-4.12h-4.31v8.23Z" fill="#1c2126"/><path d="M648.15,559.89c-4.8,0-7.75-3.46-7.75-9.3v-3.41c0-5.84,2.94-9.3,7.75-9.3s7.75,3.46,7.75,9.3v3.41c0,5.84-2.94,9.3-7.75,9.3ZM653.29,550.58v-3.38c0-4.41-1.93-6.87-5.14-6.87s-5.14,2.46-5.14,6.87v3.38c0,4.41,1.93,6.87,5.14,6.87s5.14-2.46,5.14-6.87Z" fill="#1c2126"/><path d="M661.18,559.45h-2.31v-21.14h2.86l4.88,13.08h.19l4.86-13.08h2.86v21.14h-2.31v-8.1l.15-8.57h-.19l-4.45,11.7h-2.02l-4.45-11.7h-.19l.15,8.57v8.1Z" fill="#1c2126"/><path d="M682.59,545.58c0-1.48,1.2-2.71,2.65-2.71s2.65,1.23,2.65,2.71-1.2,2.71-2.65,2.71-2.65-1.23-2.65-2.71ZM682.59,556.83c0-1.48,1.2-2.7,2.65-2.7s2.65,1.22,2.65,2.7-1.2,2.71-2.65,2.71-2.65-1.22-2.65-2.71Z" fill="#1c2126"/><path d="M12.77,618.41c-.12,0-.21-.04-.26-.11-.06-.07-.08-.17-.06-.27l2.22-10.42c.02-.12.07-.21.16-.29.08-.07.19-.11.3-.11h6.95c.12,0,.2.04.26.11.05.07.07.17.05.29l-.24,1.12c-.02.12-.08.21-.16.28-.08.07-.19.1-.3.1h-5.14l-.66,3.04h4.82c.12,0,.2.04.26.11.05.07.07.17.05.29l-.22,1.12c-.02.11-.08.2-.17.27-.09.07-.19.11-.31.11h-4.82l-.85,3.97c-.02.11-.08.2-.16.27-.08.08-.19.11-.3.11h-1.41Z" fill="#1c2126"/><path d="M25.41,618.57c-.81,0-1.49-.15-2.02-.45s-.92-.72-1.15-1.26c-.23-.54-.29-1.18-.17-1.9.03-.19.08-.43.13-.7s.12-.51.17-.7c.19-.74.49-1.37.89-1.91.4-.54.91-.96,1.54-1.26.62-.3,1.36-.45,2.22-.45s1.49.15,2.02.45c.54.3.93.72,1.16,1.26.23.54.29,1.18.18,1.91-.04.19-.09.43-.14.7s-.11.51-.16.7c-.19.73-.48,1.36-.87,1.9-.39.54-.9.96-1.52,1.26s-1.38.45-2.26.45ZM25.57,616.98c.58,0,1.06-.18,1.46-.54.4-.36.69-.88.87-1.58.04-.16.09-.37.14-.62s.1-.46.13-.62c.12-.69.07-1.22-.14-1.58-.21-.36-.61-.54-1.18-.54s-1.05.18-1.46.54c-.41.36-.69.88-.86,1.58-.04.16-.09.37-.15.62s-.1.46-.12.62c-.12.69-.07,1.22.14,1.58s.6.54,1.18.54Z" fill="#1c2126"/><path d="M31.53,618.41c-.11,0-.19-.04-.25-.11-.06-.07-.08-.17-.06-.27l1.6-7.54c.02-.12.08-.21.17-.29.09-.07.19-.11.3-.11h1.3c.11,0,.19.04.25.11.06.08.08.17.06.29l-.14.66c.26-.34.58-.6.98-.78s.88-.27,1.44-.27h.78c.12,0,.2.04.26.11.05.08.07.17.05.27l-.24,1.15c-.02.11-.08.2-.17.27-.09.07-.19.11-.3.11h-1.25c-.51,0-.94.14-1.29.42-.35.28-.57.68-.68,1.19l-.94,4.4c-.02.11-.07.2-.16.27-.08.08-.19.11-.3.11h-1.39Z" fill="#1c2126"/><path d="M44.76,618.41c-.73,0-1.29-.11-1.7-.34-.4-.22-.67-.56-.78-1s-.11-.99.03-1.66l.79-3.63h-1.26c-.11,0-.19-.04-.25-.11-.06-.07-.08-.17-.06-.29l.19-.91c.02-.11.08-.2.17-.27.09-.07.2-.11.31-.11h1.25l.58-2.66c.02-.11.07-.2.16-.27.08-.07.18-.11.29-.11h1.3c.12,0,.21.04.26.11.06.08.08.17.06.27l-.58,2.66h2c.11,0,.19.04.25.11.06.08.08.17.06.27l-.19.91c-.02.12-.08.21-.17.29-.09.08-.19.11-.3.11h-2l-.74,3.47c-.06.29-.1.54-.1.74,0,.21.05.37.17.48.12.11.33.17.62.17h1.15c.12,0,.2.04.26.11.05.08.07.17.05.27l-.21.99c-.02.11-.08.2-.16.27-.09.08-.19.11-.3.11h-1.14Z" fill="#1c2126"/><path d="M48.07,618.41c-.11,0-.19-.04-.25-.11-.06-.07-.08-.17-.06-.27l2.26-10.59c.02-.11.08-.2.16-.27.08-.07.18-.11.29-.11h1.44c.11,0,.19.04.25.11.06.08.08.17.06.27l-.78,3.65c.34-.34.72-.62,1.14-.83.42-.21.93-.32,1.53-.32.69,0,1.26.15,1.7.44.44.29.75.71.92,1.24.17.53.18,1.17.02,1.92l-.96,4.5c-.02.11-.08.2-.16.27-.09.08-.19.11-.3.11h-1.44c-.11,0-.19-.04-.25-.11-.06-.07-.08-.17-.06-.27l.93-4.4c.14-.62.11-1.1-.08-1.46-.19-.35-.58-.53-1.17-.53-.36,0-.71.08-1.03.23-.33.16-.61.38-.84.68-.23.3-.4.66-.5,1.07l-.93,4.4c-.02.11-.08.2-.16.27-.09.08-.18.11-.29.11h-1.44Z" fill="#1c2126"/><path d="M61.51,618.57c-.78,0-1.43-.16-1.95-.46-.52-.31-.87-.76-1.07-1.34-.2-.59-.23-1.3-.09-2.13.02-.11.05-.24.08-.41.03-.17.06-.3.1-.39.21-.81.54-1.51.99-2.09.45-.58.99-1.03,1.64-1.34s1.36-.47,2.14-.47c.86,0,1.55.18,2.06.54.51.36.84.85,1.01,1.49s.16,1.37,0,2.2l-.08.34c-.02.11-.08.2-.17.27-.09.08-.19.11-.31.11h-5.31c-.01.06-.02.11-.03.13-.05.37-.05.72.02,1.03.06.31.21.57.42.76.22.19.51.29.87.29.3,0,.56-.04.79-.14.22-.09.41-.19.55-.31.14-.12.25-.21.33-.29.13-.13.22-.21.29-.23.06-.03.15-.04.27-.04h1.39c.1,0,.17.03.22.1.05.06.07.14.05.24-.05.17-.19.38-.4.62s-.5.49-.86.72c-.36.24-.79.43-1.29.58s-1.04.23-1.64.23ZM60.82,613.53h3.54l.02-.05c.1-.42.1-.78.02-1.1-.08-.31-.23-.56-.46-.74-.22-.18-.52-.26-.9-.26s-.71.09-1.02.26c-.3.18-.56.42-.76.74-.2.32-.35.68-.43,1.1l-.02.05Z" fill="#1c2126"/><path d="M71.06,618.41c-.11,0-.19-.04-.25-.11-.06-.07-.08-.17-.06-.27l2.26-10.59c.02-.11.08-.2.16-.27.08-.07.18-.11.29-.11h1.33c.12,0,.21.04.26.11.06.08.08.17.06.27l-2.26,10.59c-.02.11-.08.2-.16.27-.09.08-.19.11-.3.11h-1.33Z" fill="#1c2126"/><path d="M78.64,618.57c-.81,0-1.49-.15-2.02-.45-.54-.3-.92-.72-1.15-1.26-.23-.54-.29-1.18-.17-1.9.03-.19.08-.43.14-.7s.11-.51.17-.7c.19-.74.49-1.37.89-1.91.4-.54.91-.96,1.54-1.26.62-.3,1.36-.45,2.22-.45s1.49.15,2.02.45c.54.3.92.72,1.16,1.26.23.54.29,1.18.18,1.91-.04.19-.09.43-.14.7-.05.28-.11.51-.16.7-.19.73-.48,1.36-.87,1.9s-.9.96-1.52,1.26c-.62.3-1.38.45-2.26.45ZM78.8,616.98c.58,0,1.06-.18,1.46-.54s.69-.88.87-1.58c.04-.16.09-.37.14-.62.05-.26.1-.46.13-.62.12-.69.07-1.22-.14-1.58-.21-.36-.61-.54-1.18-.54s-1.05.18-1.46.54c-.41.36-.69.88-.86,1.58-.04.16-.09.37-.15.62s-.1.46-.12.62c-.12.69-.07,1.22.14,1.58.21.36.6.54,1.18.54Z" fill="#1c2126"/><path d="M86.92,618.41c-.16,0-.27-.04-.34-.12-.06-.08-.11-.17-.13-.28l-1.42-7.49c-.02-.14,0-.25.08-.32.08-.07.18-.11.3-.11h1.22c.12,0,.21.03.27.1.06.06.11.15.13.27l.91,5.55,3.33-5.62c.03-.06.09-.13.17-.2s.18-.1.31-.1h1.39c.13,0,.22.05.26.14.05.1.03.21-.06.35l-4.56,7.42c-.08.11-.16.2-.25.28-.09.08-.22.12-.38.12h-1.25Z" fill="#1c2126"/><path d="M96.66,618.57c-.78,0-1.43-.16-1.94-.46-.52-.31-.88-.76-1.07-1.34-.2-.59-.23-1.3-.09-2.13.02-.11.05-.24.08-.41.03-.17.06-.3.1-.39.21-.81.54-1.51.99-2.09.45-.58.99-1.03,1.64-1.34s1.36-.47,2.14-.47c.86,0,1.55.18,2.06.54.51.36.84.85,1.01,1.49.17.63.16,1.37,0,2.2l-.08.34c-.02.11-.08.2-.17.27-.09.08-.2.11-.31.11h-5.31c-.01.06-.02.11-.03.13-.05.37-.05.72.02,1.03.06.31.21.57.42.76.22.19.51.29.87.29.3,0,.56-.04.78-.14.22-.09.41-.19.55-.31.14-.12.25-.21.33-.29.13-.13.22-.21.29-.23.06-.03.15-.04.27-.04h1.39c.1,0,.17.03.22.1.05.06.07.14.05.24-.05.17-.19.38-.4.62-.21.25-.5.49-.87.72-.36.24-.79.43-1.29.58s-1.04.23-1.64.23ZM95.97,613.53h3.54l.02-.05c.1-.42.1-.78.02-1.1-.08-.31-.23-.56-.46-.74-.22-.18-.52-.26-.9-.26s-.71.09-1.02.26-.56.42-.76.74c-.2.32-.35.68-.43,1.1l-.02.05Z" fill="#1c2126"/><path d="M109.56,618.57c-.81,0-1.49-.15-2.02-.45s-.92-.72-1.15-1.26c-.23-.54-.29-1.18-.17-1.9.03-.19.08-.43.13-.7s.12-.51.17-.7c.19-.74.49-1.37.89-1.91.4-.54.91-.96,1.54-1.26.62-.3,1.36-.45,2.22-.45s1.49.15,2.02.45c.54.3.93.72,1.16,1.26.23.54.29,1.18.18,1.91-.04.19-.09.43-.14.7s-.11.51-.16.7c-.19.73-.48,1.36-.87,1.9-.39.54-.9.96-1.52,1.26s-1.38.45-2.26.45ZM109.72,616.98c.58,0,1.06-.18,1.46-.54.4-.36.69-.88.87-1.58.04-.16.09-.37.14-.62s.1-.46.13-.62c.12-.69.07-1.22-.14-1.58-.21-.36-.61-.54-1.18-.54s-1.05.18-1.46.54c-.41.36-.69.88-.86,1.58-.04.16-.09.37-.15.62s-.1.46-.12.62c-.12.69-.07,1.22.14,1.58s.6.54,1.18.54Z" fill="#1c2126"/><path d="M116.42,618.41c-.12,0-.21-.04-.26-.11-.06-.07-.08-.17-.06-.27l1.33-6.24h-1.29c-.11,0-.19-.04-.25-.11-.06-.07-.08-.17-.06-.29l.19-.91c.02-.11.08-.2.17-.27.09-.07.19-.11.31-.11h1.3l.13-.66c.15-.64.38-1.17.69-1.59.31-.42.7-.74,1.18-.95.48-.21,1.04-.32,1.68-.32h1.28c.12,0,.2.04.26.11.05.07.07.17.05.27l-.19.91c-.02.12-.08.21-.17.29s-.19.11-.3.11h-.96c-.43,0-.76.11-.99.32-.23.21-.39.52-.46.93l-.13.58h1.98c.12,0,.2.04.26.11.05.08.07.17.05.27l-.19.91c-.02.12-.08.21-.16.29-.09.08-.19.11-.3.11h-1.98l-1.34,6.24c-.02.11-.07.2-.16.27-.08.08-.18.11-.29.11h-1.3Z" fill="#1c2126"/><path d="M128.85,618.57c-.81,0-1.48-.15-2.02-.45s-.92-.72-1.15-1.26c-.23-.54-.29-1.18-.17-1.9.03-.19.08-.43.14-.7s.11-.51.17-.7c.19-.74.49-1.37.89-1.91.4-.54.91-.96,1.54-1.26.62-.3,1.36-.45,2.22-.45s1.49.15,2.02.45c.54.3.92.72,1.16,1.26.23.54.29,1.18.18,1.91-.04.19-.09.43-.14.7s-.11.51-.16.7c-.19.73-.48,1.36-.87,1.9-.39.54-.9.96-1.52,1.26s-1.38.45-2.26.45ZM129.01,616.98c.58,0,1.06-.18,1.46-.54.4-.36.69-.88.87-1.58.04-.16.09-.37.14-.62.05-.26.1-.46.13-.62.12-.69.07-1.22-.14-1.58-.21-.36-.61-.54-1.18-.54s-1.05.18-1.46.54c-.41.36-.69.88-.86,1.58-.04.16-.09.37-.15.62s-.1.46-.12.62c-.12.69-.07,1.22.14,1.58s.6.54,1.18.54Z" fill="#1c2126"/><path d="M134.32,621.45c-.11,0-.19-.04-.25-.11-.06-.07-.08-.17-.06-.27l2.26-10.59c.02-.11.08-.2.16-.27.09-.07.18-.11.29-.11h1.28c.11,0,.19.04.25.11.06.08.08.17.06.27l-.14.64c.33-.34.7-.62,1.1-.85.4-.22.93-.34,1.58-.34.55,0,1.03.09,1.42.28.39.19.7.45.92.79.22.34.37.74.44,1.21s.06.97-.04,1.53c-.02.18-.05.35-.09.51s-.08.34-.14.53c-.13.52-.31,1.02-.54,1.48-.24.46-.52.87-.86,1.22s-.73.62-1.18.81-.96.29-1.53.29c-.6,0-1.09-.1-1.47-.31-.38-.21-.66-.48-.83-.82l-.78,3.63c-.02.11-.08.2-.16.27-.09.08-.19.11-.3.11h-1.36ZM138.88,616.85c.43,0,.79-.1,1.09-.3.3-.2.55-.46.74-.78.2-.33.35-.67.47-1.05.05-.16.1-.32.13-.48.03-.16.06-.32.08-.48.05-.38.06-.74.02-1.06-.04-.32-.16-.58-.36-.78-.2-.2-.51-.3-.94-.3-.45,0-.83.1-1.16.3s-.59.46-.8.78c-.21.32-.36.64-.44.97-.05.19-.1.39-.14.61-.04.21-.08.42-.11.62-.05.32-.05.63,0,.92.06.29.2.54.43.73.23.19.56.29.98.29Z" fill="#1c2126"/><path d="M148.13,618.57c-.78,0-1.43-.16-1.95-.46-.52-.31-.87-.76-1.07-1.34-.2-.59-.23-1.3-.09-2.13.02-.11.05-.24.08-.41.03-.17.06-.3.1-.39.21-.81.54-1.51.99-2.09.45-.58.99-1.03,1.64-1.34s1.36-.47,2.14-.47c.86,0,1.55.18,2.06.54.51.36.84.85,1.01,1.49s.16,1.37,0,2.2l-.08.34c-.02.11-.08.2-.17.27-.09.08-.19.11-.31.11h-5.31c-.01.06-.02.11-.03.13-.05.37-.05.72.02,1.03.06.31.21.57.42.76.22.19.51.29.87.29.3,0,.56-.04.79-.14.22-.09.41-.19.55-.31.14-.12.25-.21.33-.29.13-.13.22-.21.29-.23.06-.03.15-.04.27-.04h1.39c.1,0,.17.03.22.1.05.06.07.14.05.24-.05.17-.19.38-.4.62s-.5.49-.86.72c-.36.24-.79.43-1.29.58s-1.04.23-1.64.23ZM147.44,613.53h3.54l.02-.05c.1-.42.1-.78.02-1.1-.08-.31-.23-.56-.46-.74-.22-.18-.52-.26-.9-.26s-.71.09-1.02.26c-.3.18-.56.42-.76.74-.2.32-.35.68-.43,1.1l-.02.05Z" fill="#1c2126"/><path d="M153.96,618.41c-.11,0-.19-.04-.25-.11-.06-.07-.08-.17-.06-.27l1.6-7.55c.02-.11.08-.2.17-.27.09-.07.19-.11.3-.11h1.31c.11,0,.19.04.24.11.05.08.07.17.05.27l-.14.66c.34-.34.74-.63,1.21-.86s.99-.34,1.58-.34c.73,0,1.31.15,1.74.44.44.29.73.71.87,1.24.14.53.14,1.17-.02,1.92l-.96,4.5c-.02.11-.07.2-.16.27-.09.08-.19.11-.3.11h-1.41c-.11,0-.19-.04-.25-.11-.06-.07-.08-.17-.06-.27l.93-4.4c.14-.65.12-1.14-.04-1.48s-.56-.5-1.18-.5-1.12.18-1.54.53c-.42.35-.7.84-.84,1.46l-.93,4.4c-.02.11-.08.2-.16.27-.09.08-.18.11-.29.11h-1.41Z" fill="#1c2126"/><path d="M170.61,618.57c-.64,0-1.17-.08-1.59-.22-.42-.15-.75-.34-.99-.56s-.41-.45-.5-.67c-.09-.22-.12-.41-.1-.56.02-.12.08-.21.17-.28.09-.07.18-.1.28-.1h1.26s.08,0,.11.02c.03.01.06.04.1.1.12.12.24.24.37.37.13.13.29.24.49.33s.46.14.78.14c.42,0,.78-.08,1.1-.25.31-.17.5-.4.57-.71.04-.22.02-.41-.08-.54-.1-.14-.29-.26-.59-.38-.3-.11-.74-.23-1.33-.36-.58-.14-1.04-.31-1.38-.53-.35-.21-.58-.48-.71-.8-.12-.32-.13-.69-.04-1.12.08-.42.29-.81.62-1.19.33-.38.77-.69,1.32-.94.55-.25,1.19-.37,1.93-.37.58,0,1.06.07,1.46.22.4.14.72.32.96.54.24.21.41.43.5.65.1.22.13.41.1.57-.01.12-.06.21-.15.28-.09.07-.18.1-.28.1h-1.17c-.05,0-.1-.01-.14-.03-.04-.02-.08-.05-.1-.08-.11-.11-.22-.22-.33-.34-.11-.12-.26-.23-.43-.31-.18-.08-.42-.13-.74-.13-.41,0-.73.09-.98.26s-.41.4-.47.66c-.03.18-.01.34.06.47.07.13.25.26.54.38s.73.24,1.31.37c.69.13,1.22.32,1.59.57.37.25.61.54.72.86.11.33.13.69.04,1.08-.1.48-.33.91-.7,1.3-.37.38-.85.69-1.45.9-.6.22-1.3.33-2.11.33Z" fill="#1c2126"/><path d="M179.52,618.57c-.81,0-1.49-.15-2.02-.45-.54-.3-.92-.72-1.15-1.26-.23-.54-.29-1.18-.17-1.9.03-.19.08-.43.14-.7s.11-.51.17-.7c.19-.74.49-1.37.89-1.91.4-.54.91-.96,1.54-1.26.62-.3,1.36-.45,2.22-.45s1.49.15,2.02.45c.54.3.92.72,1.16,1.26.23.54.29,1.18.18,1.91-.04.19-.09.43-.14.7-.05.28-.11.51-.16.7-.19.73-.48,1.36-.87,1.9s-.9.96-1.52,1.26c-.62.3-1.38.45-2.26.45ZM179.68,616.98c.58,0,1.06-.18,1.46-.54s.69-.88.87-1.58c.04-.16.09-.37.14-.62.05-.26.1-.46.13-.62.12-.69.07-1.22-.14-1.58-.21-.36-.61-.54-1.18-.54s-1.05.18-1.46.54c-.41.36-.69.88-.86,1.58-.04.16-.09.37-.15.62s-.1.46-.12.62c-.12.69-.07,1.22.14,1.58.21.36.6.54,1.18.54Z" fill="#1c2126"/><path d="M188.45,618.57c-.69,0-1.26-.15-1.7-.44-.44-.29-.73-.71-.87-1.25-.14-.54-.14-1.18,0-1.91l.96-4.5c.02-.11.08-.2.17-.27.09-.07.19-.11.29-.11h1.41c.11,0,.19.04.24.11.05.08.07.17.05.27l-.93,4.4c-.1.44-.13.8-.09,1.1.04.29.16.52.36.66.2.15.52.22.94.22.58,0,1.08-.18,1.5-.53.43-.35.7-.84.83-1.46l.94-4.4c.02-.11.08-.2.17-.27.09-.07.19-.11.3-.11h1.39c.12,0,.2.04.26.11.05.08.07.17.05.27l-1.6,7.55c-.02.11-.07.2-.16.27-.08.08-.19.11-.3.11h-1.3c-.11,0-.19-.04-.25-.11-.06-.07-.08-.17-.06-.27l.13-.66c-.23.25-.47.46-.72.64-.25.18-.53.32-.85.42-.32.1-.71.14-1.18.14Z" fill="#1c2126"/><path d="M195.57,618.41c-.11,0-.19-.04-.25-.11-.06-.07-.08-.17-.06-.27l1.6-7.54c.02-.12.08-.21.17-.29.09-.07.19-.11.3-.11h1.3c.11,0,.19.04.25.11.06.08.08.17.06.29l-.14.66c.26-.34.58-.6.98-.78.39-.18.87-.27,1.44-.27h.78c.12,0,.2.04.26.11.05.08.07.17.05.27l-.24,1.15c-.02.11-.08.2-.17.27-.09.07-.19.11-.3.11h-1.25c-.51,0-.94.14-1.29.42-.35.28-.57.68-.68,1.19l-.94,4.4c-.02.11-.08.2-.16.27-.09.08-.19.11-.3.11h-1.39Z" fill="#1c2126"/><path d="M205.46,618.57c-.71,0-1.34-.14-1.88-.43-.54-.29-.94-.71-1.19-1.26-.26-.55-.31-1.21-.18-1.99.03-.16.07-.37.13-.63.05-.26.1-.48.14-.65.29-1.16.82-2.07,1.6-2.71s1.77-.97,2.98-.97c.67,0,1.23.1,1.69.29.45.19.81.44,1.07.74.26.3.44.61.54.93.1.32.14.61.1.86,0,.12-.06.21-.14.28s-.17.1-.28.1h-1.46c-.11,0-.19-.03-.25-.08-.06-.05-.09-.13-.1-.24,0-.43-.11-.74-.34-.93-.23-.19-.56-.29-.98-.29-.52,0-.99.17-1.4.5-.41.34-.71.87-.89,1.59-.04.19-.09.39-.13.59-.04.2-.08.38-.11.53-.12.74-.06,1.27.16,1.6.22.33.6.5,1.12.5.42,0,.79-.09,1.12-.26.33-.18.61-.48.83-.9.06-.12.13-.2.2-.25.07-.05.16-.07.26-.07h1.44c.11,0,.19.04.25.1s.07.16.04.28c-.07.24-.21.51-.41.82s-.47.62-.81.92c-.34.3-.77.54-1.29.74s-1.13.29-1.85.29Z" fill="#1c2126"/><path d="M214.69,618.57c-.78,0-1.43-.16-1.95-.46-.52-.31-.87-.76-1.07-1.34-.2-.59-.23-1.3-.09-2.13.02-.11.05-.24.08-.41.03-.17.06-.3.1-.39.21-.81.54-1.51.99-2.09.45-.58.99-1.03,1.64-1.34s1.36-.47,2.14-.47c.86,0,1.55.18,2.06.54.51.36.84.85,1.01,1.49s.16,1.37,0,2.2l-.08.34c-.02.11-.08.2-.17.27-.09.08-.19.11-.31.11h-5.31c-.01.06-.02.11-.03.13-.05.37-.05.72.02,1.03.06.31.21.57.42.76.22.19.51.29.87.29.3,0,.56-.04.79-.14.22-.09.41-.19.55-.31.14-.12.25-.21.33-.29.13-.13.22-.21.29-.23.06-.03.15-.04.27-.04h1.39c.1,0,.17.03.22.1.05.06.07.14.05.24-.05.17-.19.38-.4.62s-.5.49-.86.72c-.36.24-.79.43-1.29.58s-1.04.23-1.64.23ZM214,613.53h3.54l.02-.05c.1-.42.1-.78.02-1.1-.08-.31-.23-.56-.46-.74-.22-.18-.52-.26-.9-.26s-.71.09-1.02.26c-.3.18-.56.42-.76.74-.2.32-.35.68-.43,1.1l-.02.05Z" fill="#1c2126"/><path d="M227.19,618.57c-.64,0-1.17-.08-1.59-.22-.42-.15-.75-.34-.99-.56-.24-.22-.41-.45-.5-.67s-.13-.41-.1-.56c.02-.12.08-.21.17-.28.09-.07.18-.1.28-.1h1.26s.08,0,.11.02c.03.01.06.04.1.1.12.12.24.24.37.37.13.13.29.24.49.33s.46.14.78.14c.42,0,.78-.08,1.1-.25s.5-.4.57-.71c.04-.22.02-.41-.08-.54s-.29-.26-.59-.38c-.3-.11-.74-.23-1.33-.36-.58-.14-1.04-.31-1.38-.53-.35-.21-.58-.48-.7-.8-.12-.32-.14-.69-.04-1.12.09-.42.29-.81.62-1.19.33-.38.77-.69,1.32-.94.55-.25,1.19-.37,1.93-.37.58,0,1.06.07,1.46.22.4.14.72.32.96.54.24.21.41.43.5.65s.13.41.1.57c-.01.12-.06.21-.15.28-.09.07-.18.1-.28.1h-1.17c-.05,0-.1-.01-.14-.03s-.07-.05-.1-.08c-.11-.11-.22-.22-.33-.34-.11-.12-.26-.23-.43-.31-.18-.08-.42-.13-.74-.13-.41,0-.73.09-.98.26s-.41.4-.47.66c-.03.18-.01.34.06.47.07.13.25.26.54.38s.73.24,1.31.37c.69.13,1.22.32,1.59.57.37.25.61.54.72.86.11.33.12.69.04,1.08-.1.48-.33.91-.7,1.3-.37.38-.85.69-1.45.9-.6.22-1.3.33-2.11.33Z" fill="#1c2126"/><path d="M236.1,618.57c-.81,0-1.49-.15-2.02-.45-.54-.3-.92-.72-1.15-1.26s-.29-1.18-.17-1.9c.03-.19.08-.43.14-.7s.12-.51.17-.7c.19-.74.49-1.37.89-1.91.4-.54.91-.96,1.54-1.26.62-.3,1.36-.45,2.22-.45s1.48.15,2.02.45c.54.3.93.72,1.16,1.26.23.54.29,1.18.18,1.91-.04.19-.09.43-.14.7-.05.28-.11.51-.16.7-.19.73-.48,1.36-.87,1.9-.39.54-.9.96-1.52,1.26-.62.3-1.38.45-2.26.45ZM236.26,616.98c.58,0,1.06-.18,1.46-.54s.69-.88.87-1.58c.04-.16.09-.37.14-.62.05-.26.1-.46.13-.62.12-.69.07-1.22-.14-1.58-.21-.36-.61-.54-1.18-.54s-1.05.18-1.46.54c-.4.36-.69.88-.86,1.58-.04.16-.09.37-.15.62s-.1.46-.12.62c-.12.69-.07,1.22.13,1.58.21.36.6.54,1.18.54Z" fill="#1c2126"/><path d="M242.96,618.41c-.12,0-.21-.04-.26-.11-.06-.07-.08-.17-.06-.27l1.33-6.24h-1.3c-.11,0-.19-.04-.25-.11-.06-.07-.08-.17-.06-.29l.19-.91c.02-.11.08-.2.17-.27.09-.07.19-.11.31-.11h1.29l.13-.66c.15-.64.38-1.17.69-1.59.31-.42.7-.74,1.18-.95.48-.21,1.04-.32,1.68-.32h1.28c.12,0,.2.04.26.11.05.07.07.17.05.27l-.19.91c-.02.12-.08.21-.17.29s-.19.11-.3.11h-.96c-.43,0-.76.11-.99.32-.23.21-.39.52-.46.93l-.13.58h1.98c.12,0,.2.04.26.11.05.08.07.17.05.27l-.19.91c-.02.12-.07.21-.16.29-.08.08-.19.11-.3.11h-1.98l-1.34,6.24c-.02.11-.08.2-.16.27-.09.08-.18.11-.29.11h-1.29Z" fill="#1c2126"/><path d="M252.11,618.41c-.73,0-1.29-.11-1.7-.34-.4-.22-.67-.56-.78-1s-.11-.99.03-1.66l.79-3.63h-1.26c-.11,0-.19-.04-.25-.11-.06-.07-.08-.17-.06-.29l.19-.91c.02-.11.08-.2.17-.27.09-.07.2-.11.31-.11h1.25l.58-2.66c.02-.11.07-.2.16-.27.08-.07.18-.11.29-.11h1.3c.12,0,.21.04.26.11.06.08.08.17.06.27l-.58,2.66h2c.11,0,.19.04.25.11.06.08.08.17.06.27l-.19.91c-.02.12-.08.21-.17.29-.09.08-.19.11-.3.11h-2l-.74,3.47c-.06.29-.1.54-.1.74,0,.21.05.37.17.48.12.11.33.17.62.17h1.15c.12,0,.2.04.26.11.05.08.07.17.05.27l-.21.99c-.02.11-.08.2-.16.27-.09.08-.19.11-.3.11h-1.14Z" fill="#1c2126"/><path d="M257.27,618.41c-.15,0-.26-.04-.32-.11-.06-.07-.1-.17-.11-.29l-.72-7.49c-.01-.12.02-.22.1-.3.08-.08.18-.13.32-.13h1.12c.13,0,.22.03.28.09.06.06.09.13.1.22l.46,5.3,2.75-5.25c.04-.08.11-.15.19-.23.09-.08.2-.12.34-.12h.83c.15,0,.25.04.3.12.05.08.09.16.1.23l.58,5.25,2.69-5.3c.03-.06.09-.13.16-.2s.18-.1.3-.1h1.3c.15,0,.24.05.26.14.03.1.01.2-.04.32l-3.86,7.46c-.06.12-.14.21-.23.29-.09.08-.21.11-.36.11h-1.06c-.15,0-.26-.04-.33-.11-.07-.07-.12-.17-.14-.29l-.66-5.06-2.72,5.06c-.06.12-.14.21-.24.29-.1.08-.22.11-.37.11h-1.04Z" fill="#1c2126"/><path d="M271.09,618.57c-.55,0-1.02-.09-1.41-.28s-.69-.45-.9-.79c-.22-.34-.36-.74-.42-1.21-.06-.46-.05-.97.03-1.53.04-.19.08-.37.11-.52.03-.15.07-.33.11-.52.14-.53.32-1.03.55-1.49.23-.46.51-.86.85-1.21s.73-.62,1.18-.81c.45-.19.97-.29,1.56-.29.66,0,1.17.1,1.51.31s.62.46.81.76l.11-.53c.02-.11.08-.2.16-.27.08-.07.18-.11.29-.11h1.26c.11,0,.19.04.26.11.06.08.09.17.06.27l-1.62,7.55c-.02.11-.08.2-.16.27-.09.08-.18.11-.29.11h-1.26c-.12,0-.21-.04-.26-.11-.06-.07-.08-.17-.06-.27l.13-.59c-.32.33-.67.6-1.06.82-.38.21-.9.32-1.55.32ZM271.81,616.85c.45,0,.83-.1,1.15-.3.32-.2.58-.46.78-.78s.34-.64.42-.97c.05-.19.1-.4.14-.62s.08-.42.11-.62c.06-.32.07-.63.02-.92s-.19-.54-.41-.73c-.22-.19-.55-.29-.98-.29s-.77.1-1.06.3-.54.46-.73.78c-.19.32-.35.67-.46,1.06-.04.16-.08.32-.11.48s-.06.32-.08.48c-.05.38-.07.74-.04,1.06.03.32.14.58.34.78s.5.3.92.3Z" fill="#1c2126"/><path d="M278.05,618.41c-.11,0-.19-.04-.25-.11-.06-.07-.08-.17-.06-.27l1.6-7.54c.02-.12.08-.21.17-.29.09-.07.19-.11.3-.11h1.29c.11,0,.19.04.25.11.06.08.08.17.06.29l-.14.66c.26-.34.58-.6.98-.78s.88-.27,1.44-.27h.78c.12,0,.2.04.26.11.05.08.07.17.05.27l-.24,1.15c-.02.11-.08.2-.17.27-.09.07-.19.11-.29.11h-1.25c-.51,0-.94.14-1.29.42-.35.28-.57.68-.68,1.19l-.94,4.4c-.02.11-.07.2-.16.27-.09.08-.19.11-.3.11h-1.39Z" fill="#1c2126"/><path d="M288.05,618.57c-.78,0-1.43-.16-1.95-.46-.52-.31-.87-.76-1.07-1.34-.2-.59-.23-1.3-.09-2.13.02-.11.05-.24.08-.41.03-.17.06-.3.1-.39.21-.81.54-1.51.99-2.09.45-.58.99-1.03,1.64-1.34s1.36-.47,2.14-.47c.86,0,1.55.18,2.06.54.51.36.84.85,1.01,1.49s.16,1.37,0,2.2l-.08.34c-.02.11-.08.2-.17.27-.09.08-.19.11-.31.11h-5.31c-.01.06-.02.11-.03.13-.05.37-.05.72.02,1.03.06.31.21.57.42.76.22.19.51.29.87.29.3,0,.56-.04.79-.14.22-.09.41-.19.55-.31.14-.12.25-.21.33-.29.13-.13.22-.21.29-.23.06-.03.15-.04.27-.04h1.39c.1,0,.17.03.22.1.05.06.07.14.05.24-.05.17-.19.38-.4.62s-.5.49-.86.72c-.36.24-.79.43-1.29.58s-1.04.23-1.64.23ZM287.36,613.53h3.54l.02-.05c.1-.42.1-.78.02-1.1-.08-.31-.23-.56-.46-.74-.22-.18-.52-.26-.9-.26s-.71.09-1.02.26c-.3.18-.56.42-.76.74-.2.32-.35.68-.43,1.1l-.02.05Z" fill="#1c2126"/><path d="M1113.68,618.57c-.89,0-1.63-.15-2.22-.44-.6-.29-1.05-.71-1.37-1.26-.32-.54-.49-1.18-.52-1.9,0-.21-.02-.46-.02-.73s0-.51.02-.71c.03-.74.21-1.37.54-1.91.33-.54.79-.95,1.39-1.25.6-.29,1.32-.44,2.18-.44s1.56.15,2.16.44c.6.29,1.06.71,1.39,1.25.33.54.52,1.18.56,1.91,0,.2.02.44.02.71s0,.51-.02.73c-.04.73-.22,1.36-.54,1.9-.32.54-.77.96-1.37,1.26-.6.29-1.33.44-2.21.44ZM1113.68,616.79c.52,0,.92-.16,1.18-.48.26-.32.41-.79.44-1.42,0-.16.02-.37.02-.64s0-.48-.02-.64c-.03-.62-.18-1.09-.44-1.42-.26-.33-.65-.49-1.18-.49s-.92.16-1.18.49c-.27.33-.42.8-.45,1.42-.01.16-.02.37-.02.64s0,.48.02.64c.03.63.18,1.1.45,1.42.27.32.66.48,1.18.48Z" fill="#1c2126"/><path d="M1122.77,618.57c-.66,0-1.23-.08-1.7-.23s-.86-.34-1.15-.57c-.29-.22-.51-.45-.66-.68-.14-.23-.22-.42-.23-.58-.01-.12.03-.21.11-.29.08-.07.17-.11.26-.11h1.55s.08,0,.1.02c.03.01.06.04.1.08.14.1.28.21.42.33.14.12.32.23.52.31.2.09.45.13.74.13.35,0,.65-.07.89-.22.24-.14.36-.35.36-.62,0-.19-.05-.35-.16-.48-.11-.13-.31-.25-.62-.35-.31-.11-.77-.22-1.38-.35-.58-.13-1.07-.3-1.47-.51-.41-.21-.71-.48-.91-.81-.2-.33-.3-.72-.3-1.18,0-.42.13-.82.39-1.2.26-.38.65-.7,1.16-.95.51-.25,1.15-.38,1.92-.38.59,0,1.1.07,1.54.22.44.14.81.33,1.11.54s.53.44.68.67c.15.23.24.43.25.6,0,.12-.02.21-.1.29-.08.08-.16.11-.26.11h-1.42c-.05,0-.1-.01-.14-.03-.04-.02-.08-.05-.11-.08-.13-.07-.26-.17-.39-.29-.13-.12-.29-.22-.47-.3-.18-.08-.42-.13-.7-.13-.34,0-.61.08-.79.23-.19.16-.28.35-.28.58,0,.15.05.29.14.42.1.13.29.25.58.35.29.11.75.22,1.37.34.72.13,1.3.32,1.73.58s.73.55.91.89c.18.34.27.7.27,1.08,0,.5-.15.95-.44,1.34-.29.39-.73.69-1.3.91s-1.28.33-2.11.33Z" fill="#1c2126"/><path d="M1131.46,618.57c-.66,0-1.23-.08-1.7-.23s-.86-.34-1.15-.57c-.29-.22-.51-.45-.66-.68-.14-.23-.22-.42-.23-.58-.01-.12.03-.21.11-.29.09-.07.17-.11.26-.11h1.55s.08,0,.1.02c.03.01.06.04.1.08.14.1.28.21.42.33.14.12.32.23.52.31.2.09.45.13.74.13.35,0,.65-.07.89-.22.24-.14.36-.35.36-.62,0-.19-.05-.35-.16-.48-.11-.13-.31-.25-.62-.35-.31-.11-.77-.22-1.38-.35-.58-.13-1.07-.3-1.47-.51-.41-.21-.71-.48-.91-.81-.2-.33-.3-.72-.3-1.18,0-.42.13-.82.39-1.2.26-.38.65-.7,1.16-.95.51-.25,1.15-.38,1.92-.38.59,0,1.1.07,1.54.22.44.14.81.33,1.11.54s.53.44.68.67.24.43.25.6c.01.12-.02.21-.1.29-.07.08-.16.11-.26.11h-1.42c-.05,0-.1-.01-.14-.03s-.08-.05-.11-.08c-.13-.07-.26-.17-.39-.29-.13-.12-.29-.22-.47-.3-.18-.08-.42-.13-.7-.13-.34,0-.61.08-.79.23-.19.16-.28.35-.28.58,0,.15.05.29.14.42.1.13.29.25.58.35.29.11.75.22,1.37.34.73.13,1.3.32,1.73.58s.73.55.91.89.27.7.27,1.08c0,.5-.15.95-.44,1.34s-.73.69-1.3.91c-.58.22-1.28.33-2.11.33Z" fill="#1c2126"/><path d="M1137.17,618.41c-.12,0-.21-.04-.29-.11-.08-.07-.11-.17-.11-.29v-1.81c0-.11.04-.2.11-.28.07-.08.17-.12.29-.12h1.81c.11,0,.2.04.28.12s.12.17.12.28v1.81c0,.12-.04.21-.12.29-.08.08-.17.11-.28.11h-1.81Z" fill="#1c2126"/><path d="M1144.9,618.57c-.79,0-1.48-.14-2.07-.43-.59-.29-1.06-.71-1.4-1.26-.34-.55-.53-1.21-.56-1.98-.01-.17-.02-.39-.02-.65s0-.48.02-.65c.03-.78.21-1.44.55-1.99.34-.55.8-.97,1.4-1.26s1.29-.43,2.08-.43c.7,0,1.31.1,1.81.3.5.2.91.45,1.23.75.32.3.56.62.72.94s.25.6.26.85c.01.12-.03.21-.11.29-.09.08-.18.11-.29.11h-1.71c-.12,0-.21-.03-.26-.08-.06-.05-.12-.14-.17-.26-.14-.37-.33-.64-.56-.8s-.53-.24-.88-.24c-.48,0-.86.15-1.13.46s-.42.79-.44,1.44c-.02.42-.02.79,0,1.14.02.66.17,1.14.44,1.44.27.3.65.45,1.13.45.37,0,.67-.08.9-.24.22-.16.41-.43.54-.8.05-.12.11-.2.17-.26.06-.05.15-.08.26-.08h1.71c.11,0,.2.04.29.11.09.08.12.17.11.29,0,.18-.06.39-.16.64-.1.25-.24.5-.44.75s-.45.49-.76.71c-.31.22-.69.4-1.13.53s-.95.2-1.53.2Z" fill="#1c2126"/><path d="M1152.92,618.57c-.57,0-1.07-.11-1.52-.33-.45-.22-.81-.51-1.07-.89-.27-.37-.4-.79-.4-1.25,0-.76.31-1.35.92-1.79s1.42-.74,2.42-.9l2.1-.3v-.29c0-.42-.1-.74-.29-.96-.19-.22-.53-.34-1.01-.34-.35,0-.63.07-.84.21-.21.14-.37.32-.49.54-.09.14-.21.21-.38.21h-1.52c-.12,0-.21-.03-.27-.1-.06-.07-.09-.15-.08-.25,0-.18.07-.39.21-.64.14-.25.35-.49.64-.73.29-.24.66-.44,1.11-.6s1-.24,1.64-.24,1.25.08,1.73.24c.48.16.87.38,1.16.67.29.29.51.62.64,1,.13.38.2.79.2,1.22v4.94c0,.12-.04.21-.11.29s-.17.11-.27.11h-1.58c-.11,0-.2-.04-.27-.11-.08-.07-.11-.17-.11-.29v-.59c-.14.2-.33.39-.56.57-.24.18-.52.32-.84.42-.33.11-.71.16-1.14.16ZM1153.56,616.9c.35,0,.67-.07.94-.22s.5-.38.66-.69.24-.7.24-1.17v-.27l-1.49.24c-.57.1-.98.24-1.25.43-.27.19-.4.43-.4.7,0,.2.06.38.18.52.12.14.28.26.48.34s.41.12.63.12Z" fill="#1c2126"/><path d="M1160.13,618.41c-.11,0-.2-.04-.28-.11-.08-.07-.12-.17-.12-.29v-7.52c0-.11.04-.2.12-.28.08-.08.17-.12.28-.12h1.57c.12,0,.21.04.29.12s.11.17.11.28v.64c.27-.33.6-.59.99-.77s.84-.27,1.34-.27h.69c.12,0,.21.04.29.11.07.08.11.17.11.29v1.39c0,.11-.04.2-.11.27s-.17.11-.29.11h-1.39c-.48,0-.85.13-1.11.4s-.39.63-.39,1.1v4.24c0,.12-.04.21-.12.29-.08.08-.17.11-.28.11h-1.7Z" fill="#1c2126"/><path d="M1169.72,618.57c-.53,0-1.01-.09-1.42-.26-.42-.18-.77-.43-1.06-.77-.29-.34-.51-.74-.66-1.2s-.24-.98-.27-1.54c-.01-.2-.02-.39-.02-.55s0-.34.02-.54c.02-.55.11-1.06.26-1.52.15-.46.37-.86.66-1.19.28-.34.63-.6,1.06-.78s.9-.28,1.43-.28,1.03.09,1.42.28.72.42.98.71v-3.47c0-.12.04-.21.11-.29s.17-.11.29-.11h1.65c.12,0,.21.04.29.11.08.08.11.17.11.29v10.56c0,.12-.04.21-.11.29-.08.08-.17.11-.29.11h-1.54c-.11,0-.2-.04-.27-.11s-.11-.17-.11-.29v-.54c-.27.32-.6.58-1.01.79-.41.21-.91.31-1.52.31ZM1170.45,616.65c.39,0,.71-.09.95-.27.24-.18.42-.41.53-.69.11-.28.17-.58.18-.9.02-.2.03-.41.03-.61s-.01-.4-.03-.59c-.01-.3-.08-.58-.2-.84-.12-.26-.3-.48-.54-.65-.23-.17-.54-.26-.93-.26-.41,0-.73.09-.96.26s-.4.41-.5.7-.16.6-.18.94c-.02.33-.02.66,0,.99.02.34.08.66.18.94s.27.52.5.7c.23.18.55.26.96.26Z" fill="#1c2126"/><path d="M1179.86,618.57c-.66,0-1.23-.08-1.7-.23s-.86-.34-1.15-.57c-.29-.22-.51-.45-.66-.68-.14-.23-.22-.42-.23-.58,0-.12.03-.21.11-.29.08-.07.17-.11.26-.11h1.55s.08,0,.1.02.06.04.1.08c.14.1.28.21.42.33s.32.23.52.31c.2.09.45.13.74.13.35,0,.65-.07.89-.22.24-.14.36-.35.36-.62,0-.19-.05-.35-.16-.48-.11-.13-.31-.25-.62-.35-.31-.11-.77-.22-1.38-.35-.58-.13-1.07-.3-1.47-.51-.4-.21-.71-.48-.91-.81-.2-.33-.3-.72-.3-1.18,0-.42.13-.82.39-1.2.26-.38.65-.7,1.16-.95.51-.25,1.15-.38,1.92-.38.59,0,1.1.07,1.54.22.44.14.81.33,1.11.54s.53.44.68.67c.15.23.24.43.25.6.01.12-.02.21-.1.29-.07.08-.16.11-.26.11h-1.42c-.05,0-.1-.01-.14-.03-.04-.02-.08-.05-.11-.08-.13-.07-.26-.17-.39-.29-.13-.12-.29-.22-.47-.3-.18-.08-.42-.13-.71-.13-.34,0-.61.08-.79.23-.19.16-.28.35-.28.58,0,.15.05.29.14.42.1.13.29.25.58.35s.75.22,1.37.34c.73.13,1.3.32,1.73.58.43.26.73.55.91.89s.27.7.27,1.08c0,.5-.15.95-.44,1.34s-.73.69-1.3.91c-.58.22-1.28.33-2.11.33Z" fill="#1c2126"/><polygon points="1093.31 614.96 1087.74 611.74 1082.16 614.96 1093.31 621.39 1104.46 614.96 1098.89 611.74 1093.31 614.96" fill="#b7303d" stroke="#1c2126" stroke-linejoin="round" stroke-width=".33"/><polygon points="1087.74 605.3 1087.74 611.74 1082.16 614.96 1082.16 608.52 1087.74 605.3" fill="#ea4f4b" stroke="#1c2126" stroke-linejoin="round" stroke-width=".33"/><polygon points="1087.74 605.3 1087.74 611.74 1093.31 614.96 1093.31 608.52 1087.74 605.3" fill="#ff6b60" stroke="#1c2126" stroke-linejoin="round" stroke-width=".33"/><polygon points="1098.89 605.3 1098.89 611.74 1093.31 614.96 1093.31 608.52 1098.89 605.3" fill="#ea4f4b" stroke="#1c2126" stroke-linejoin="round" stroke-width=".33"/><polygon points="1098.89 605.3 1098.89 611.74 1104.46 614.96 1104.46 608.52 1098.89 605.3" fill="#ff6b60" stroke="#1c2126" stroke-linejoin="round" stroke-width=".33"/></g></svg>