<svg xmlns="http://www.w3.org/2000/svg" xmlns:xlink="http://www.w3.org/1999/xlink" width="1200" height="630" viewBox="0 0 1200 630"><defs><radialGradient id="a" cx="1097.44" cy="565" r="111.35" gradientUnits="userSpaceOnUse"><stop offset="0" stop-color="#20c6b7"/><stop offset="1" stop-color="#4d9abf"/></radialGradient></defs><rect x="-4950.07" y="-89.85" width="6221.73" height="2273.11" fill="#a6a6a6"/><rect width="1200" height="498.72" fill="#30c8c9"/><g opacity="0.3"><path d="M1065.68,462.68a57.35,57.35,0,0,1-8.76-.73c-4.53-.7-15.29-2.33-30.18-4.58-58.6-8.85-180.4-27.25-207.48-32.77-3.57-.73-7.43-1.35-11.15-1.94-19.12-3.08-40.75-6.56-51.39-27.76-.19-.21-.37-.43-.55-.65-8.1-10.14-9.86-24.94-5.68-48,1-5.5,2-12,3.13-19,3.83-24.24,8.6-54.4,17.26-79.7,9-26.34,20.61-42.5,35.26-49.05-8.86-12.64-21.58-36.34-13.54-59.89,8.68-25.43,38.64-42.67,89-51.26a289.13,289.13,0,0,1,48.33-4,309.36,309.36,0,0,1,81.51,10.88h0c32.9,7.63,61.9,19.6,83.87,34.6,22.67,15.48,36.71,33.43,40.6,51.93,3.3,15.62.81,39-28.4,63.15,4.63,7.31,11.81,20.73,14.56,37.2,3.33,20-10.77,90.56-21.66,141.92-.66,3.11-1.19,5.59-1.54,7.31-3.11,15-9.7,32.27-33.26,32.27Z" fill="#30c8c9"/><path d="M930,89.42a302.38,302.38,0,0,1,80,10.7l.13,0c65.59,15.21,112.67,47.37,119.95,81.91,4.45,21.08-6.14,42.05-30.63,60.69,2.69,3.65,13.36,19.15,16.74,39.42,3.53,21.16-15.39,110.37-21.61,139.69-.66,3.12-1.19,5.61-1.55,7.33-3,14.44-8.52,27.49-27.38,27.49a50.21,50.21,0,0,1-7.84-.66c-4.54-.71-15.33-2.34-30.26-4.59-58.5-8.84-180.21-27.23-207.13-32.71-3.69-.75-7.61-1.38-11.4-2-18.76-3-38.16-6.14-47.3-25.2-.3-.34-.61-.67-.89-1-6.93-8.66-8.31-22-4.47-43.17,1-5.54,2.05-12.13,3.15-19.1,7.58-47.87,19-119.82,56.56-126.52-5.43-6.5-26.9-34.51-17.82-61.12,7.91-23.19,36.3-39.1,84.38-47.28A283.13,283.13,0,0,1,930,89.42m0-12a294.93,294.93,0,0,0-49.34,4.06c-25.28,4.3-45.84,10.82-61.1,19.37-16.72,9.37-27.69,21.44-32.62,35.86-7.78,22.81,1.78,45.35,10.65,59.71A59,59,0,0,0,783,210.27c-6.84,8.91-12.64,20.48-17.74,35.37-8.83,25.8-13.65,56.25-17.52,80.71-1.09,6.9-2.12,13.41-3.11,18.84-4.51,24.91-2.38,41.2,6.91,52.81l.2.25c12.12,23.36,36.11,27.21,55.46,30.33,3.67.59,7.46,1.2,10.91,1.9,27.23,5.55,149.14,24,207.72,32.81l.15,0c14.84,2.24,25.56,3.86,30.06,4.56a63.14,63.14,0,0,0,9.69.8c31.47,0,37.24-27.89,39.13-37.05.36-1.72.88-4.19,1.54-7.28,17.71-83.51,24.4-128,21.7-144.16a107.68,107.68,0,0,0-12.73-35c9.32-8.38,16.37-17.26,21-26.5,6.43-12.75,8.28-25.92,5.5-39.14-4.23-20-19.13-39.28-43.09-55.64-22.56-15.41-52.23-27.67-85.82-35.47a315.77,315.77,0,0,0-83-11.06Z" fill="#bffde7"/></g><g opacity="0.3"><path d="M639.44,220.67a21.88,21.88,0,0,1-21.54-18.34L604.49,120a21.82,21.82,0,0,1,1.8-12.81,14.1,14.1,0,0,1-5.35-9L599.3,88.21A14.22,14.22,0,0,1,611,71.9l110.44-18a13.76,13.76,0,0,1,2.31-.19,14.23,14.23,0,0,1,14,11.92l1.64,10.05a14.14,14.14,0,0,1-2.23,10.18A21.71,21.71,0,0,1,743,97.46l13.41,82.29a21.85,21.85,0,0,1-18,25.09L643,220.38A21.28,21.28,0,0,1,639.44,220.67Z" fill="#30c8c9"/><path d="M723.78,59.71a8.22,8.22,0,0,1,8.08,6.89l1.64,10.05a8.22,8.22,0,0,1-6.74,9.41,15.85,15.85,0,0,1,10.29,12.37l13.41,82.29a15.86,15.86,0,0,1-13.1,18.2L642,214.46a16.16,16.16,0,0,1-2.59.21,15.87,15.87,0,0,1-15.62-13.31l-13.41-82.29a15.84,15.84,0,0,1,5.84-15,8.35,8.35,0,0,1-1.31.1,8.22,8.22,0,0,1-8.08-6.89l-1.64-10.05A8.22,8.22,0,0,1,612,77.82l110.44-18a7.57,7.57,0,0,1,1.34-.11m0-12a21.23,21.23,0,0,0-3.28.26L610.07,66a20.22,20.22,0,0,0-16.69,23.19L595,99.23a20.13,20.13,0,0,0,4.3,9.54,27.82,27.82,0,0,0-.75,12.23L612,203.29a27.88,27.88,0,0,0,27.46,23.38,28.5,28.5,0,0,0,4.52-.36l95.33-15.54a27.88,27.88,0,0,0,23-32L748.89,96.5a27.73,27.73,0,0,0-4.6-11.41,20,20,0,0,0,1.05-10.37l-1.64-10a20.22,20.22,0,0,0-19.92-17Z" fill="#bffde7"/></g><path d="M841.78,214.71s-77.32-83.94,64.78-108.13c35-6,70.85-13,103.37-5.46,97.71,22.67,162.08,86,88.15,141.43a95.33,95.33,0,0,1,17.15,39.78c3.86,23.16-19.35,128.3-23.15,146.66S1080.66,458.57,1058,455s-203.71-30.45-237.34-37.3c-21.43-4.36-47.29-4.15-58-26.73-3.65-7.67,15.71-15.78,18.5-31.22C788.82,317.22,797.73,220,841.78,214.71Z" fill="#b7790b" stroke="#1c2126" stroke-linejoin="round" stroke-width="2"/><path d="M109,212v23.7H93.82V212.2L69.67,167.07H86.13l15.56,28.76,15.47-28.76h16Z" fill="#1c2126"/><path d="M177.67,210.48c0,15.11-9.68,26.51-26.59,26.51s-26.68-11.4-26.68-26.51,9.67-26.5,26.68-26.5S177.67,195.38,177.67,210.48Zm-38.53,0c0,8.33,4.61,13.66,11.94,13.66s11.85-5.33,11.85-13.66-4.52-13.65-11.85-13.65S139.14,202.16,139.14,210.48Z" fill="#1c2126"/><path d="M230.59,185.16v50.56H216.48v-5.43c-2.81,4-7.69,6.7-13.84,6.7-11.13,0-18.37-8.32-18.37-23.25V185.16h14.11v26c0,7.69,3.53,12,9,12s9.14-4.62,9.14-11.94V185.16Z" fill="#1c2126"/><path d="M252.83,174.12c0,7.33-3.7,12.76-12.21,15.47l-1.9.63-2.17-6.69,1.9-.54c4-1.18,6.06-2.9,6.88-5.52a10.09,10.09,0,0,1-1.72.18c-4.7,0-7.69-3.35-7.69-7.24,0-4.34,3.17-7.5,8-7.5C249.49,162.91,252.83,167.34,252.83,174.12Z" fill="#1c2126"/><path d="M289.29,184v14.84h-5.7c-8.32,0-12.12,4-12.12,12.57v24.33H257.36V185.16h14.11V192C274.63,187.06,280.51,184,289.29,184Z" fill="#1c2126"/><path d="M344.37,214.65H307c.73,6.06,4.8,10.22,11.49,10.22,5,0,8.32-1.63,9.86-4.53h15c-2.9,9.5-12.12,16.28-25.06,16.28-15.83,0-26.23-10.4-26.23-26.14s10.22-26.23,26.14-26.23,26.14,10.31,26.14,26.05ZM307.2,205h22.25c-1-5.7-5.43-9-11.22-9A11.08,11.08,0,0,0,307.2,205Z" fill="#1c2126"/><path d="M462.14,207.14v28.58H448V209.58c0-8.32-3.35-12.66-8.69-12.66-5.15,0-8.68,4.7-8.68,12.57v26.23H416.55V209.58c0-8.32-3.35-12.66-8.68-12.66-5.16,0-8.69,4.7-8.69,12.57v26.23H385.07V185.16h14.11v5.51A15.17,15.17,0,0,1,412.3,184c6.51,0,11.67,2.71,14.92,8a17.79,17.79,0,0,1,15.29-8C454.36,184,462.14,192.85,462.14,207.14Z" fill="#1c2126"/><path d="M518.85,185.16l-28,67.2H477.15l7.78-18.54-19.72-48.66h14.2l12.66,31.47,13.12-31.47Z" fill="#1c2126"/><path d="M122,275.6v42.7c0,17.1-8.86,27.23-25,27.23s-25-10.41-25-27H87.22c0,8.86,3.35,13.84,9.68,13.84s9.77-4.79,9.77-13.84V275.6Z" fill="#1c2126"/><path d="M178.39,315.4v28.86H164.28v-5.52c-3.52,4.07-9,6.42-16.46,6.42-10.58,0-17.19-5.33-17.19-14.11,0-8,5.25-14,18.46-16.28l15.19-2.53c0-4.89-3.07-7.69-8.77-7.69-5.52,0-8.14,2.35-8.5,6.24h-14.3c.28-9.31,7.87-18,22.8-18C170.07,292.79,178.39,300.93,178.39,315.4ZM164.28,323v-.72l-11.57,1.9c-6.07,1-7.6,3.07-7.6,5.7,0,2.26,2.17,3.89,6.24,3.89C159.13,333.77,164.28,329.43,164.28,323Z" fill="#1c2126"/><path d="M265.05,315.68v28.58H250.94V318.12c0-8.32-3.35-12.66-8.69-12.66-5.15,0-8.68,4.7-8.68,12.57v26.23H219.46V318.12c0-8.32-3.35-12.66-8.69-12.66-5.15,0-8.68,4.7-8.68,12.57v26.23H188V293.7h14.11v5.51a15.17,15.17,0,0,1,13.12-6.69c6.51,0,11.67,2.71,14.92,8a17.79,17.79,0,0,1,15.29-8C257.27,292.52,265.05,301.38,265.05,315.68Z" fill="#1c2126"/><path d="M298.15,268.55l7.69,9.32c-10.32,9.4-16.56,22.16-16.56,39s6.24,29.67,16.56,39.08l-7.69,9.32c-14.38-11.22-22.34-27.86-22.34-48.4S283.77,279.77,298.15,268.55Z" fill="#1c2126"/><path d="M355.31,309.62H341.2c-.09-3.26-3-5.79-7.78-5.79-4.61,0-7.05,1.72-7.05,4.07s1.08,3.52,6.78,4.52l6.78,1.09c13,2.17,16.47,8.05,16.47,15.73,0,9.86-7.87,16.11-22.16,16.11-15.38,0-23.07-7.33-23.07-17.46h14c.09,3.71,3,6.24,9.59,6.24,5,0,7.51-1.72,7.51-4.25,0-2.72-1.45-4.07-7.33-5.07l-7.06-1.17c-11.94-1.9-15.64-7.87-15.64-15.11,0-8.95,7.32-15.83,21.34-15.83S355.31,300,355.31,309.62Z" fill="#1c2126"/><path d="M395.92,305.64H385v38.62H370.87V305.64h-9.5V293.7h9.5V277.78H385V293.7h10.94Z" fill="#1c2126"/><path d="M447.21,315.4v28.86H433.1v-5.52c-3.53,4.07-9.05,6.42-16.46,6.42-10.59,0-17.19-5.33-17.19-14.11,0-8,5.25-14,18.45-16.28l15.2-2.53c0-4.89-3.08-7.69-8.78-7.69-5.51,0-8.14,2.35-8.5,6.24H401.53c.27-9.31,7.87-18,22.79-18C438.89,292.79,447.21,300.93,447.21,315.4ZM433.1,323v-.72l-11.58,1.9c-6.06,1-7.6,3.07-7.6,5.7,0,2.26,2.17,3.89,6.24,3.89C427.94,333.77,433.1,329.43,433.1,323Z" fill="#1c2126"/><path d="M505.46,313.69H490.62a9.73,9.73,0,0,0-10.13-9c-6.69,0-11.3,5.16-11.3,14.29,0,9,4.61,14.2,11.3,14.2a9.72,9.72,0,0,0,10.13-8.86h14.84c-.36,11.76-10.4,21.17-25,21.17-16.28,0-26.05-10.59-26.05-26.51s9.77-26.5,26.05-26.5C495.06,292.52,505.1,301.84,505.46,313.69Z" fill="#1c2126"/><path d="M544.26,344.26l-18.09-19.72v19.72H512.06V272.35h14.11v40.52l17.46-19H560l-22.61,24.6,23.33,25.78Z" fill="#1c2126"/><path d="M569.5,365.25l-7.69-9.32c10.22-9.41,16.46-22.16,16.46-39.08s-6.24-29.58-16.46-39l7.69-9.32c14.29,11.22,22.25,27.86,22.25,48.3S583.79,354,569.5,365.25Z" fill="#1c2126"/><path d="M818,202.43s-77.32-83.94,64.78-108.14c136.44-23.23,291,61.41,191.52,136a95.33,95.33,0,0,1,17.15,39.78c3.86,23.15-19.35,128.3-23.14,146.66s-11.43,29.58-34.1,26-203.71-30.44-237.34-37.29-47.24-15.38-39.53-57.95S774,207.69,818,202.43Z" fill="#fff6d0" stroke="#1c2126" stroke-linejoin="round" stroke-width="2"/><path d="M1042.94,346.45a34.42,34.42,0,0,0-20.64-21.23c28-11,49.77-41.63,27.52-68.61,12.19-11.88,14.48-32.08,5.53-46.4,10.93-18-.46-43.82-21.17-47.87-28.06-7.19-56.26-14.39-85.12-17.56-29.77-2.87-63-6.55-89.31,10.51-19.42,12.88-33.41,40.2-22.74,62.56,1.48,4.24,5.6,9.46,9,12.5-46.07,24-55.3,76.72,1.44,92.87-31.72,25.21-17.57,69.85,21.58,75.62,28.76,4.69,56-9.39,84-13.63a147.52,147.52,0,0,1,32.58-3.07c8.37.34,15,6.68,23.44,6.37C1031.28,392.14,1050.3,367.26,1042.94,346.45Z" fill="#ff6b60" stroke="#1c2126" stroke-miterlimit="10" stroke-width="2"/><path d="M1122.45,104.46a7.06,7.06,0,0,0-.18-3.13,7.84,7.84,0,0,0-2.63-4.75,7.24,7.24,0,0,0-5.6-.75,16.13,16.13,0,0,0-4.83,1.86,12.85,12.85,0,0,0-.61-7.14,8,8,0,0,0-5.29-4.74,5.84,5.84,0,0,0-6.36,2.57c-1.15,2.05-.72,4.59-.25,6.89q1.79,8.64,3.83,17.22l14.55-3.13C1118.14,108.71,1121.77,107.51,1122.45,104.46Z" fill="#ff6b60" stroke="#1c2126" stroke-linejoin="round" stroke-width="2"/><path d="M1084.17,67a8.09,8.09,0,0,0-2.44-2.67c-1.68-1.31-3.67-2.47-5.8-2.34s-4.14,1.67-5.56,3.39a18.3,18.3,0,0,0-3,5.18,14.77,14.77,0,0,0-5.75-6,9.2,9.2,0,0,0-8.17-.41,6.77,6.77,0,0,0-3.84,6.92c.47,2.67,2.69,4.63,4.79,6.35q7.86,6.45,15.93,12.64l10.77-13.36C1083.39,73.94,1085.78,70.23,1084.17,67Z" fill="#ff6b60" stroke="#1c2126" stroke-linejoin="round" stroke-width="2"/><path d="M915.35,186.89s10.17-10.49,20.66,0" fill="none" stroke="#1c2126" stroke-linecap="round" stroke-miterlimit="10" stroke-width="2"/><path d="M950.78,186.89s10.16-10.49,20.66,0" fill="none" stroke="#1c2126" stroke-linecap="round" stroke-miterlimit="10" stroke-width="2"/><path d="M921.39,199.16c.37,11.09,10.2,20,22.3,20s21.94-8.9,22.31-20Z" fill="#7a122d" stroke="#1c2126" stroke-linecap="round" stroke-linejoin="round" stroke-width="2"/><rect x="617.28" y="93.35" width="126.31" height="113.1" rx="14.86" transform="translate(-15.25 111.44) rotate(-9.26)" fill="#bffde7" stroke="#1c2126" stroke-linejoin="round" stroke-width="2"/><path d="M619,132.65,629.64,198a11.5,11.5,0,0,0,13.2,9.5l91.55-14.92a11.5,11.5,0,0,0,9.5-13.2L733.23,114Z" fill="#ff6b60" stroke="#1c2126" stroke-linejoin="round" stroke-width="2"/><rect x="606.2" y="69.65" width="126.31" height="24.6" rx="7.21" transform="translate(-4.46 108.77) rotate(-9.26)" fill="#ffb916" stroke="#1c2126" stroke-linejoin="round" stroke-width="2"/><rect x="639.62" y="115.56" width="81.1" height="65.43" transform="translate(-14.99 111.37) rotate(-9.26)" fill="#fff6d0" stroke="#1c2126" stroke-linejoin="round" stroke-width="2"/><rect x="628.6" y="110.21" width="4.8" height="89.7" rx="2.4" transform="translate(-16.73 103.55) rotate(-9.26)" fill="#fff"/><path d="M696,138.82a8.1,8.1,0,0,0-2.7-2.4c-1.82-1.12-3.92-2.06-6-1.71s-3.94,2.09-5.17,4a18.17,18.17,0,0,0-2.41,5.46,14.78,14.78,0,0,0-6.34-5.31,9.24,9.24,0,0,0-8.17.46,6.74,6.74,0,0,0-3.08,7.29c.74,2.6,3.16,4.32,5.43,5.81q8.51,5.58,17.18,10.88L694,148.83C696,145.8,698,141.86,696,138.82Z" fill="#db4648" stroke="#1c2126" stroke-linejoin="round" stroke-width="2"/><rect y="500" width="1200" height="130" fill="#fff"/><rect x="1097.49" y="500" width="102.51" height="130" fill="url(#a)"/><line y1="499.19" x2="1200" y2="499.19" fill="none" stroke="#1c2126" stroke-miterlimit="10"/><line x1="1097.49" y1="498.72" x2="1097.49" y2="630" fill="none" stroke="#1c2126" stroke-miterlimit="10"/><path d="M35.09,576.62V557.86H28.7v-2.38H44.05v2.38H37.67v18.76Z" fill="#1c2126"/><path d="M54.92,577.06c-4.8,0-7.75-3.46-7.75-9.3v-3.41c0-5.85,2.95-9.31,7.75-9.31s7.75,3.46,7.75,9.31v3.41C62.67,573.6,59.73,577.06,54.92,577.06Zm5.14-9.31v-3.39c0-4.41-1.93-6.87-5.14-6.87s-5.14,2.46-5.14,6.87v3.39c0,4.4,1.93,6.87,5.14,6.87S60.06,572.15,60.06,567.75Z" fill="#1c2126"/><path d="M70.82,562.75a2.65,2.65,0,1,1,2.65,2.71A2.7,2.7,0,0,1,70.82,562.75Zm0,11.25a2.65,2.65,0,1,1,2.65,2.71A2.69,2.69,0,0,1,70.82,574Z" fill="#1c2126"/><path d="M209.27,581.51a14.89,14.89,0,0,1-5.34-.91,11.41,11.41,0,0,1-6.75-6.75,14.91,14.91,0,0,1-.93-5.39,14.58,14.58,0,0,1,1-5.4,11.83,11.83,0,0,1,2.76-4.18,12.58,12.58,0,0,1,4.26-2.72,14.82,14.82,0,0,1,5.43-1,14.26,14.26,0,0,1,4.87.8,11,11,0,0,1,3.8,2.26,9.83,9.83,0,0,1,2.44,3.51,11.69,11.69,0,0,1,.86,4.56,12.33,12.33,0,0,1-.75,4.5,6.89,6.89,0,0,1-2.07,3,4.86,4.86,0,0,1-3.12,1.05,3.48,3.48,0,0,1-2.73-1,3.58,3.58,0,0,1-.78-2.81l.54.15a6.19,6.19,0,0,1-2.18,2.75,5.2,5.2,0,0,1-3,.94,4.69,4.69,0,0,1-3.68-1.45,5.79,5.79,0,0,1-1.3-4,8.75,8.75,0,0,1,.85-3.94,6.69,6.69,0,0,1,2.36-2.7,6.14,6.14,0,0,1,3.42-1,4.45,4.45,0,0,1,2.77.81,3.8,3.8,0,0,1,1.4,2.28H213l.51-2.82h2l-1.38,7.77c0,.26-.08.51-.11.75s0,.46,0,.66a2.16,2.16,0,0,0,.46,1.5,1.81,1.81,0,0,0,1.4.51,2.93,2.93,0,0,0,2.1-.87,5.81,5.81,0,0,0,1.41-2.41,11.59,11.59,0,0,0,.51-3.62,10.11,10.11,0,0,0-.72-3.9,8.21,8.21,0,0,0-2.07-3,9.34,9.34,0,0,0-3.23-1.89,12.51,12.51,0,0,0-4.18-.66,12.93,12.93,0,0,0-4.73.83,10.42,10.42,0,0,0-3.63,2.34,10.18,10.18,0,0,0-2.32,3.64,13.24,13.24,0,0,0-.81,4.74,12.85,12.85,0,0,0,1.35,6.09,9.3,9.3,0,0,0,3.86,3.92,12.09,12.09,0,0,0,5.89,1.36,12.82,12.82,0,0,0,4.53-.76,8.71,8.71,0,0,0,3.36-2.18l1,1.47a9.5,9.5,0,0,1-3.8,2.34A15.33,15.33,0,0,1,209.27,581.51Zm-1.44-8.4a4,4,0,0,0,2.46-.79,5.3,5.3,0,0,0,1.69-2.21,8,8,0,0,0,.62-3.21,3.73,3.73,0,0,0-.75-2.55,3,3,0,0,0-2.37-.84,4.29,4.29,0,0,0-2.48.75,5.1,5.1,0,0,0-1.72,2.07,7,7,0,0,0-.63,3.06,4.12,4.12,0,0,0,.82,2.76A3,3,0,0,0,207.83,573.11Z" fill="#1c2126"/><path d="M227.27,576.62v-2.13h5V557.6h1.32l-5.82,3.63v-2.49l5.19-3.27h1.8v19h4.68v2.13Z" fill="#1c2126"/><path d="M245.27,576.62v-2.13h5V557.6h1.32l-5.82,3.63v-2.49l5.19-3.27h1.8v19h4.68v2.13Z" fill="#1c2126"/><path d="M267.17,576.89a4.37,4.37,0,0,1-3.39-1.27,5.55,5.55,0,0,1-1.17-3.86v-8.31h-2.94v-1.89h2.94v-4.11l2.43-.69v4.8h4.32v1.89H265v8a4.16,4.16,0,0,0,.61,2.57,2.23,2.23,0,0,0,1.85.76,4.52,4.52,0,0,0,1-.1,5.14,5.14,0,0,0,.81-.26v2a4.69,4.69,0,0,1-1,.29A6.46,6.46,0,0,1,267.17,576.89Z" fill="#1c2126"/><path d="M271.91,583.43l-.57-2a12.5,12.5,0,0,0,2.35-.76,4.67,4.67,0,0,0,1.58-1.16,6.51,6.51,0,0,0,1.08-1.8l.78-1.77-.06,1-6.57-15.39h2.64l5.43,13.23h-.78l5.37-13.23h2.55l-7,16.32a11.58,11.58,0,0,1-1.32,2.42,7.58,7.58,0,0,1-1.55,1.59,7,7,0,0,1-1.81,1A13.08,13.08,0,0,1,271.91,583.43Z" fill="#1c2126"/><circle cx="135.29" cy="563.72" r="40" fill="#1c2126"/><path d="M1163.33,555.54h0l0,0a.19.19,0,0,1,0-.15l1.25-7.62,5.84,5.85-6.08,2.58h-.08l0,0A2.57,2.57,0,0,0,1163.33,555.54Zm8.48-.46,6.25,6.25c1.3,1.3,2,1.95,2.19,2.7l.09.33L1165.4,558h0c-.06,0-.12,0-.12-.11s.07-.1.13-.12h0Zm8.27,11.29a11.28,11.28,0,0,1-2,2.3l-7,7.05-9.12-1.9h0c-.09,0-.17,0-.17-.1a2.75,2.75,0,0,0-1.06-1.93s0-.09,0-.14v0l1.71-10.52v0c0-.08,0-.17.1-.17a2.81,2.81,0,0,0,1.87-1.07.1.1,0,0,1,0,0,.22.22,0,0,1,.17,0l15.56,6.58Zm-10.68,11-11.59,11.58,2-12.19h0a.09.09,0,0,1,0-.05s0,0,.09-.07h0a2.88,2.88,0,0,0,1.12-.83.25.25,0,0,1,.15-.1h0l8.16,1.68Zm-14,14-1.31,1.3-14.44-20.87,0,0a.18.18,0,0,1,0-.1s0,0,0-.06v0a2.12,2.12,0,0,0,.12-.2l0-.06h0a.27.27,0,0,1,.08-.1.17.17,0,0,1,.12,0l16,3.3a.18.18,0,0,1,.12.05.09.09,0,0,1,0,.07,2.81,2.81,0,0,0,1.66,1.89s0,.08,0,.13l0,.07C1157.55,578,1155.82,588.53,1155.36,591.38Zm-2.73,2.72a6.1,6.1,0,0,1-2.17,1.67,3.24,3.24,0,0,1-2,0c-.75-.24-1.4-.89-2.7-2.19l-14.5-14.5,3.79-5.88a.2.2,0,0,1,.06-.07.16.16,0,0,1,.15,0A3.93,3.93,0,0,0,1138,573s.09,0,.12,0l0,0,14.51,21.06Zm-22.72-16.42-3.32-3.33,6.57-2.8h0s.09.05.11.1l.21.3,0,0a.09.09,0,0,1,0,.08l-3.63,5.63Zm-4.8-4.8-4.21-4.21c-.71-.71-1.23-1.23-1.59-1.68l12.8,2.65h0c.08,0,.17,0,.17.1s-.1.12-.18.15l0,0Zm-6.54-8a3.54,3.54,0,0,1,.15-.8c.24-.75.89-1.4,2.18-2.7l5.39-5.39q3.72,5.4,7.46,10.78c0,.06.09.13,0,.18a4.35,4.35,0,0,0-.63.85.28.28,0,0,1-.09.1H1133l-14.43-3Zm9.16-10.33,7.24-7.24c.68.3,3.16,1.34,5.38,2.28l3.68,1.56a.17.17,0,0,1,.11.09.12.12,0,0,1,0,.1,3.22,3.22,0,0,0,.85,2.94s0,.12,0,.18l0,0-7.35,11.38a.31.31,0,0,1-.07.09.22.22,0,0,1-.14,0,3.2,3.2,0,0,0-.87-.12,5.05,5.05,0,0,0-.84.1h0s-.06,0-.08,0a.3.3,0,0,1-.08-.08l-7.75-11.31Zm8.71-8.7,9.37-9.38c1.3-1.3,2-1.95,2.7-2.19a3.24,3.24,0,0,1,2,0c.75.24,1.4.89,2.7,2.19l2,2-6.67,10.33-.07.08a.22.22,0,0,1-.14,0,3.39,3.39,0,0,0-3.1.59s-.11,0-.16,0C1144.18,549.07,1137.41,546.21,1136.44,545.8Zm20.16-5.93,6.16,6.15-1.48,9.19v0a.14.14,0,0,1,0,.06s0,0-.08.05a2.8,2.8,0,0,0-.88.44l0,0a.1.1,0,0,1-.07,0s0,0-.07,0l-9.38-4h0c-.06,0-.13-.05-.13-.12a3.39,3.39,0,0,0-.5-1.47c0-.08-.09-.15,0-.23Zm-6.34,13.88,8.8,3.72a.19.19,0,0,1,.12.09.17.17,0,0,1,0,.1,1.79,1.79,0,0,0,0,.42v.25c0,.06-.06.08-.12.11h0l-19.58,8.35a.11.11,0,0,1-.09,0s0-.12,0-.18l0,0,7.23-11.19v0c0-.07.09-.15.17-.15l.07,0a3.75,3.75,0,0,0,.45,0,3.25,3.25,0,0,0,2.73-1.45l0-.06A.15.15,0,0,1,1150.26,553.75Zm-10.07,14.81,19.8-8.45a.09.09,0,0,1,.06,0,2.82,2.82,0,0,0,.29.25l0,0s.08.05.09.1a.08.08,0,0,1,0,0L1158.77,571v0c0,.08,0,.17-.1.17a2.75,2.75,0,0,0-2.21,1.37h0a.18.18,0,0,1-.08.09.14.14,0,0,1-.11,0l-15.8-3.25S1140.21,568.56,1140.19,568.56Z" fill="#fff"/><line x1="548.51" y1="498.72" x2="548.51" y2="630" fill="none" stroke="#1c2126" stroke-miterlimit="10"/><path d="M584.7,576.62V555.48h12.46v2.38h-9.87v7.25h9v2.3h-9v9.21Z" fill="#1c2126"/><path d="M604.74,568.2v8.42h-2.55V555.48h7.09c4.19,0,6.81,2.44,6.81,6.36a5.91,5.91,0,0,1-3.94,5.83l4.31,9h-2.92l-3.94-8.42Zm0-2.18h4.19c2.91,0,4.55-1.48,4.55-4.12s-1.61-4.12-4.44-4.12h-4.3Z" fill="#1c2126"/><path d="M627.34,577.06c-4.8,0-7.75-3.46-7.75-9.3v-3.41c0-5.85,2.95-9.31,7.75-9.31s7.75,3.46,7.75,9.31v3.41C635.09,573.6,632.14,577.06,627.34,577.06Zm5.14-9.31v-3.39c0-4.41-1.93-6.87-5.14-6.87s-5.14,2.46-5.14,6.87v3.39c0,4.4,1.93,6.87,5.14,6.87S632.48,572.15,632.48,567.75Z" fill="#1c2126"/><path d="M640.57,576.62h-2.3V555.48h2.88l4.65,13.13H646l4.61-13.13h2.9v21.14h-2.3v-8.11l.13-8.56h-.19l-4.25,11.71h-2L640.62,560h-.18l.13,8.56Z" fill="#1c2126"/><path d="M661.78,562.75a2.65,2.65,0,1,1,2.65,2.71A2.7,2.7,0,0,1,661.78,562.75Zm0,11.25a2.65,2.65,0,1,1,2.65,2.71A2.69,2.69,0,0,1,661.78,574Z" fill="#1c2126"/><path d="M804.86,581.51a14.89,14.89,0,0,1-5.34-.91,11.41,11.41,0,0,1-6.75-6.75,14.91,14.91,0,0,1-.93-5.39,14.58,14.58,0,0,1,1-5.4,11.83,11.83,0,0,1,2.76-4.18,12.58,12.58,0,0,1,4.26-2.72,14.82,14.82,0,0,1,5.43-1,14.31,14.31,0,0,1,4.88.8,11,11,0,0,1,3.79,2.26,10,10,0,0,1,2.45,3.51,11.69,11.69,0,0,1,.85,4.56,12.33,12.33,0,0,1-.75,4.5,6.89,6.89,0,0,1-2.07,3,4.86,4.86,0,0,1-3.12,1.05,3.48,3.48,0,0,1-2.73-1,3.58,3.58,0,0,1-.78-2.81l.54.15a6.18,6.18,0,0,1-2.17,2.75,5.24,5.24,0,0,1-3,.94,4.67,4.67,0,0,1-3.67-1.45,5.8,5.8,0,0,1-1.31-4,8.75,8.75,0,0,1,.86-3.94,6.66,6.66,0,0,1,2.35-2.7,6.14,6.14,0,0,1,3.42-1,4.48,4.48,0,0,1,2.78.81,3.79,3.79,0,0,1,1.39,2.28h-.36l.51-2.82h2l-1.38,7.77c0,.26-.07.51-.1.75a5.42,5.42,0,0,0,0,.66,2.16,2.16,0,0,0,.47,1.5,1.78,1.78,0,0,0,1.39.51,2.93,2.93,0,0,0,2.1-.87,5.81,5.81,0,0,0,1.41-2.41,11.59,11.59,0,0,0,.51-3.62,10.11,10.11,0,0,0-.72-3.9,8.21,8.21,0,0,0-2.07-3,9.29,9.29,0,0,0-3.22-1.89,12.57,12.57,0,0,0-4.19-.66,12.88,12.88,0,0,0-4.72.83,10.42,10.42,0,0,0-3.63,2.34,10.21,10.21,0,0,0-2.33,3.64,13.24,13.24,0,0,0-.81,4.74,12.85,12.85,0,0,0,1.35,6.09,9.35,9.35,0,0,0,3.86,3.92,12.12,12.12,0,0,0,5.89,1.36,12.82,12.82,0,0,0,4.53-.76,8.71,8.71,0,0,0,3.36-2.18l1,1.47A9.46,9.46,0,0,1,810,580.7,15.39,15.39,0,0,1,804.86,581.51Zm-1.44-8.4a4,4,0,0,0,2.46-.79,5.31,5.31,0,0,0,1.7-2.21,8,8,0,0,0,.61-3.21,3.73,3.73,0,0,0-.75-2.55,3,3,0,0,0-2.37-.84,4.26,4.26,0,0,0-2.47.75,5.12,5.12,0,0,0-1.73,2.07,7,7,0,0,0-.63,3.06,4.12,4.12,0,0,0,.83,2.76A2.93,2.93,0,0,0,803.42,573.11Z" fill="#1c2126"/><path d="M821.42,576.62V554.54h2.43v22.08Z" fill="#1c2126"/><path d="M828,583.43l-.57-2a12.62,12.62,0,0,0,2.36-.76,4.63,4.63,0,0,0,1.57-1.16,6.51,6.51,0,0,0,1.08-1.8l.78-1.77-.06,1-6.57-15.39h2.64l5.43,13.23h-.78l5.37-13.23h2.55l-7,16.32a11.58,11.58,0,0,1-1.32,2.42,7.55,7.55,0,0,1-1.54,1.59,7.06,7.06,0,0,1-1.82,1A13.08,13.08,0,0,1,828,583.43Z" fill="#1c2126"/><path d="M844.49,576.62V565c0-.56,0-1.13-.07-1.72s-.11-1.18-.17-1.76h2.34l.3,3.3h-.36a5.21,5.21,0,0,1,2.12-2.65,6.19,6.19,0,0,1,3.37-.92,5.35,5.35,0,0,1,4,1.43,6.29,6.29,0,0,1,1.36,4.48v9.42H855v-9.27a4.63,4.63,0,0,0-.85-3.1,3.36,3.36,0,0,0-2.66-1,4.38,4.38,0,0,0-3.33,1.29,4.79,4.79,0,0,0-1.23,3.45v8.61Z" fill="#1c2126"/><path d="M862.07,576.62V565c0-.56,0-1.13-.07-1.72s-.11-1.18-.17-1.76h2.34l.3,3.3h-.36a5.21,5.21,0,0,1,2.12-2.65,6.19,6.19,0,0,1,3.37-.92,5.35,5.35,0,0,1,4,1.43A6.29,6.29,0,0,1,875,567.2v9.42h-2.43v-9.27a4.63,4.63,0,0,0-.85-3.1,3.36,3.36,0,0,0-2.66-1,4.38,4.38,0,0,0-3.33,1.29A4.79,4.79,0,0,0,864.5,568v8.61Z" fill="#1c2126"/><path d="M885.38,576.89a6.44,6.44,0,0,1-3.51-.94,6.25,6.25,0,0,1-2.32-2.69,11,11,0,0,1,0-8.37,6.14,6.14,0,0,1,2.32-2.67,6.52,6.52,0,0,1,3.51-.93,6,6,0,0,1,3.53,1,4.85,4.85,0,0,1,2,2.8h-.36l.33-3.57h2.34c-.06.58-.11,1.17-.16,1.76s-.08,1.16-.08,1.72v11.58h-2.43v-3.54h.33a4.78,4.78,0,0,1-2,2.79A6,6,0,0,1,885.38,576.89Zm.48-2a4.25,4.25,0,0,0,3.42-1.48,8.14,8.14,0,0,0,0-8.7,4.65,4.65,0,0,0-6.82,0,8,8,0,0,0,0,8.7A4.25,4.25,0,0,0,885.86,574.91Z" fill="#1c2126"/><path d="M897.65,576.62V565c0-.56,0-1.13-.07-1.72s-.11-1.18-.17-1.76h2.34l.3,3.3h-.36a5.21,5.21,0,0,1,2.12-2.65,6.19,6.19,0,0,1,3.37-.92,5.35,5.35,0,0,1,4,1.43,6.29,6.29,0,0,1,1.36,4.48v9.42h-2.43v-9.27a4.63,4.63,0,0,0-.85-3.1,3.36,3.36,0,0,0-2.66-1,4.38,4.38,0,0,0-3.33,1.29,4.79,4.79,0,0,0-1.23,3.45v8.61Z" fill="#1c2126"/><path d="M920.93,576.89a6.39,6.39,0,0,1-3.48-.94,6.25,6.25,0,0,1-2.32-2.69,11,11,0,0,1,0-8.37,6.14,6.14,0,0,1,2.32-2.67,6.47,6.47,0,0,1,3.48-.93,6.09,6.09,0,0,1,3.53,1,4.93,4.93,0,0,1,2,2.76h-.36V554.54h2.43v22.08h-2.4V573h.33a4.86,4.86,0,0,1-2,2.84A6.08,6.08,0,0,1,920.93,576.89Zm.51-2a4.3,4.3,0,0,0,3.42-1.48,8,8,0,0,0,0-8.7,4.31,4.31,0,0,0-3.42-1.49,4.26,4.26,0,0,0-3.4,1.49,8,8,0,0,0,0,8.7A4.25,4.25,0,0,0,921.44,574.91Z" fill="#1c2126"/><path d="M938.57,576.89a4.37,4.37,0,0,1-3.39-1.27,5.55,5.55,0,0,1-1.17-3.86v-8.31h-2.94v-1.89H934v-4.11l2.43-.69v4.8h4.32v1.89h-4.32v8a4.16,4.16,0,0,0,.62,2.57,2.21,2.21,0,0,0,1.84.76,4.52,4.52,0,0,0,1-.1,5.14,5.14,0,0,0,.81-.26v2a4.59,4.59,0,0,1-1,.29A6.57,6.57,0,0,1,938.57,576.89Z" fill="#1c2126"/><path d="M949.76,576.89A7.26,7.26,0,0,1,946,576a6.3,6.3,0,0,1-2.48-2.7,10.4,10.4,0,0,1,0-8.33,6.31,6.31,0,0,1,2.48-2.68,7.27,7.27,0,0,1,3.76-1,7.37,7.37,0,0,1,3.8,1,6.39,6.39,0,0,1,2.49,2.68,10.3,10.3,0,0,1,0,8.33,6.39,6.39,0,0,1-2.49,2.7A7.36,7.36,0,0,1,949.76,576.89Zm0-2a4.25,4.25,0,0,0,3.42-1.48,8.14,8.14,0,0,0,0-8.7,4.64,4.64,0,0,0-6.81,0,8.14,8.14,0,0,0,0,8.7A4.21,4.21,0,0,0,949.76,574.91Z" fill="#1c2126"/><path d="M960.71,576.62V565c0-.56,0-1.13-.07-1.72s-.11-1.18-.17-1.76h2.34l.3,3.3h-.36a5.21,5.21,0,0,1,2.12-2.65,6.19,6.19,0,0,1,3.37-.92,5.35,5.35,0,0,1,4,1.43,6.29,6.29,0,0,1,1.36,4.48v9.42h-2.43v-9.27a4.63,4.63,0,0,0-.85-3.1,3.36,3.36,0,0,0-2.66-1,4.38,4.38,0,0,0-3.33,1.29,4.79,4.79,0,0,0-1.23,3.45v8.61Z" fill="#1c2126"/><path d="M978,558.14v-2.73h3v2.73Zm.3,18.48V561.56h2.43v15.06Z" fill="#1c2126"/><path d="M991.76,576.89a7.46,7.46,0,0,1-3.85-1,6.41,6.41,0,0,1-2.52-2.73,9.29,9.29,0,0,1-.89-4.2,8.93,8.93,0,0,1,.9-4.18,6.2,6.2,0,0,1,2.54-2.63,7.79,7.79,0,0,1,3.82-.9,8,8,0,0,1,2.81.51,6,6,0,0,1,2.26,1.44L996,565a6,6,0,0,0-2-1.29,5.69,5.69,0,0,0-2.09-.42,4.57,4.57,0,0,0-3.63,1.47A6.32,6.32,0,0,0,987,569a6.51,6.51,0,0,0,1.29,4.32,4.49,4.49,0,0,0,3.63,1.53,6,6,0,0,0,2.06-.39,5.66,5.66,0,0,0,2-1.29l.87,1.71a6.11,6.11,0,0,1-2.31,1.47A7.91,7.91,0,0,1,991.76,576.89Z" fill="#1c2126"/><circle cx="730.89" cy="563.72" r="40" fill="#1c2126"/></svg>