<svg xmlns="http://www.w3.org/2000/svg" width="1200" height="630" viewBox="0 0 1200 630"><rect x="-4950.07" y="-89.85" width="6221.73" height="2273.11" fill="#a6a6a6"/><rect width="1200" height="498.72" fill="#30c8c9"/><g opacity="0.3"><path d="M1065.68,462.68a57.35,57.35,0,0,1-8.76-.73c-4.53-.7-15.29-2.33-30.18-4.58-58.6-8.85-180.4-27.25-207.48-32.77-3.57-.73-7.43-1.35-11.15-1.94-19.12-3.08-40.75-6.56-51.39-27.76-.19-.21-.37-.43-.55-.65-8.1-10.14-9.86-24.94-5.68-48,1-5.5,2-12,3.13-19,3.83-24.24,8.6-54.4,17.26-79.7,9-26.34,20.61-42.5,35.26-49.05-8.86-12.64-21.58-36.34-13.54-59.89,8.68-25.43,38.64-42.67,89-51.26a289.13,289.13,0,0,1,48.33-4,309.36,309.36,0,0,1,81.51,10.88h0c32.9,7.63,61.9,19.6,83.87,34.6,22.67,15.48,36.71,33.43,40.6,51.93,3.3,15.62.81,39-28.4,63.15,4.63,7.31,11.81,20.73,14.56,37.2,3.33,20-10.77,90.56-21.66,141.92-.66,3.11-1.19,5.59-1.54,7.31-3.11,15-9.7,32.27-33.26,32.27Z" fill="#30c8c9"/><path d="M930,89.42a302.38,302.38,0,0,1,80,10.7l.13,0c65.59,15.21,112.67,47.37,119.95,81.91,4.45,21.08-6.14,42.05-30.63,60.69,2.69,3.65,13.36,19.15,16.74,39.42,3.53,21.16-15.39,110.37-21.61,139.69-.66,3.12-1.19,5.61-1.55,7.33-3,14.44-8.52,27.49-27.38,27.49a50.21,50.21,0,0,1-7.84-.66c-4.54-.71-15.33-2.34-30.26-4.59-58.5-8.84-180.21-27.23-207.13-32.71-3.69-.75-7.61-1.38-11.4-2-18.76-3-38.16-6.14-47.3-25.2-.3-.34-.61-.67-.89-1-6.93-8.66-8.31-22-4.47-43.17,1-5.54,2.05-12.13,3.15-19.1,7.58-47.87,19-119.82,56.56-126.52-5.43-6.5-26.9-34.51-17.82-61.12,7.91-23.19,36.3-39.1,84.38-47.28A283.13,283.13,0,0,1,930,89.42m0-12a294.93,294.93,0,0,0-49.34,4.06c-25.28,4.3-45.84,10.82-61.1,19.37-16.72,9.37-27.69,21.44-32.62,35.86-7.78,22.81,1.78,45.35,10.65,59.71A59,59,0,0,0,783,210.27c-6.84,8.91-12.64,20.48-17.74,35.37-8.83,25.8-13.65,56.25-17.52,80.71-1.09,6.9-2.12,13.41-3.11,18.84-4.51,24.91-2.38,41.2,6.91,52.81l.2.25c12.12,23.36,36.11,27.21,55.46,30.33,3.67.59,7.46,1.2,10.91,1.9,27.23,5.55,149.14,24,207.72,32.81l.15,0c14.84,2.24,25.56,3.86,30.06,4.56a63.14,63.14,0,0,0,9.69.8c31.47,0,37.24-27.89,39.13-37.05.36-1.72.88-4.19,1.54-7.28,17.71-83.51,24.4-128,21.7-144.16a107.68,107.68,0,0,0-12.73-35c9.32-8.38,16.37-17.26,21-26.5,6.43-12.75,8.28-25.92,5.5-39.14-4.23-20-19.13-39.28-43.09-55.64-22.56-15.41-52.23-27.67-85.82-35.47a315.77,315.77,0,0,0-83-11.06Z" fill="#bffde7"/></g><g opacity="0.3"><path d="M639.44,220.67a21.88,21.88,0,0,1-21.54-18.34L604.49,120a21.82,21.82,0,0,1,1.8-12.81,14.1,14.1,0,0,1-5.35-9L599.3,88.21A14.22,14.22,0,0,1,611,71.9l110.44-18a13.76,13.76,0,0,1,2.31-.19,14.23,14.23,0,0,1,14,11.92l1.64,10.05a14.14,14.14,0,0,1-2.23,10.18A21.71,21.71,0,0,1,743,97.46l13.41,82.29a21.85,21.85,0,0,1-18,25.09L643,220.38A21.28,21.28,0,0,1,639.44,220.67Z" fill="#30c8c9"/><path d="M723.78,59.71a8.22,8.22,0,0,1,8.08,6.89l1.64,10.05a8.22,8.22,0,0,1-6.74,9.41,15.85,15.85,0,0,1,10.29,12.37l13.41,82.29a15.86,15.86,0,0,1-13.1,18.2L642,214.46a16.16,16.16,0,0,1-2.59.21,15.87,15.87,0,0,1-15.62-13.31l-13.41-82.29a15.84,15.84,0,0,1,5.84-15,8.35,8.35,0,0,1-1.31.1,8.22,8.22,0,0,1-8.08-6.89l-1.64-10.05A8.22,8.22,0,0,1,612,77.82l110.44-18a7.57,7.57,0,0,1,1.34-.11m0-12a21.23,21.23,0,0,0-3.28.26L610.07,66a20.22,20.22,0,0,0-16.69,23.19L595,99.23a20.13,20.13,0,0,0,4.3,9.54,27.82,27.82,0,0,0-.75,12.23L612,203.29a27.88,27.88,0,0,0,27.46,23.38,28.5,28.5,0,0,0,4.52-.36l95.33-15.54a27.88,27.88,0,0,0,23-32L748.89,96.5a27.73,27.73,0,0,0-4.6-11.41,20,20,0,0,0,1.05-10.37l-1.64-10a20.22,20.22,0,0,0-19.92-17Z" fill="#bffde7"/></g><path d="M841.78,214.71s-77.32-83.94,64.78-108.13c35-6,70.85-13,103.37-5.46,97.71,22.67,162.08,86,88.15,141.43a95.33,95.33,0,0,1,17.15,39.78c3.86,23.16-19.35,128.3-23.15,146.66S1080.66,458.57,1058,455s-203.71-30.45-237.34-37.3c-21.43-4.36-47.29-4.15-58-26.73-3.65-7.67,15.71-15.78,18.5-31.22C788.82,317.22,797.73,220,841.78,214.71Z" fill="#b7790b" stroke="#1c2126" stroke-linejoin="round" stroke-width="2"/><path d="M109,212v23.7H93.82V212.2L69.67,167.07H86.13l15.56,28.76,15.47-28.76h16Z" fill="#1c2126"/><path d="M177.67,210.48c0,15.11-9.68,26.51-26.59,26.51s-26.68-11.4-26.68-26.51,9.67-26.5,26.68-26.5S177.67,195.38,177.67,210.48Zm-38.53,0c0,8.33,4.61,13.66,11.94,13.66s11.85-5.33,11.85-13.66-4.52-13.65-11.85-13.65S139.14,202.16,139.14,210.48Z" fill="#1c2126"/><path d="M230.59,185.16v50.56H216.48v-5.43c-2.81,4-7.69,6.7-13.84,6.7-11.13,0-18.37-8.32-18.37-23.25V185.16h14.11v26c0,7.69,3.53,12,9,12s9.14-4.62,9.14-11.94V185.16Z" fill="#1c2126"/><path d="M252.83,174.12c0,7.33-3.7,12.76-12.21,15.47l-1.9.63-2.17-6.69,1.9-.54c4-1.18,6.06-2.9,6.88-5.52a10.09,10.09,0,0,1-1.72.18c-4.7,0-7.69-3.35-7.69-7.24,0-4.34,3.17-7.5,8-7.5C249.49,162.91,252.83,167.34,252.83,174.12Z" fill="#1c2126"/><path d="M289.29,184v14.84h-5.7c-8.32,0-12.12,4-12.12,12.57v24.33H257.36V185.16h14.11V192C274.63,187.06,280.51,184,289.29,184Z" fill="#1c2126"/><path d="M344.37,214.65H307c.73,6.06,4.8,10.22,11.49,10.22,5,0,8.32-1.63,9.86-4.53h15c-2.9,9.5-12.12,16.28-25.06,16.28-15.83,0-26.23-10.4-26.23-26.14s10.22-26.23,26.14-26.23,26.14,10.31,26.14,26.05ZM307.2,205h22.25c-1-5.7-5.43-9-11.22-9A11.08,11.08,0,0,0,307.2,205Z" fill="#1c2126"/><path d="M462.14,207.14v28.58H448V209.58c0-8.32-3.35-12.66-8.69-12.66-5.15,0-8.68,4.7-8.68,12.57v26.23H416.55V209.58c0-8.32-3.35-12.66-8.68-12.66-5.16,0-8.69,4.7-8.69,12.57v26.23H385.07V185.16h14.11v5.51A15.17,15.17,0,0,1,412.3,184c6.51,0,11.67,2.71,14.92,8a17.79,17.79,0,0,1,15.29-8C454.36,184,462.14,192.85,462.14,207.14Z" fill="#1c2126"/><path d="M518.85,185.16l-28,67.2H477.15l7.78-18.54-19.72-48.66h14.2l12.66,31.47,13.12-31.47Z" fill="#1c2126"/><path d="M122,275.6v42.7c0,17.1-8.86,27.23-25,27.23s-25-10.41-25-27H87.22c0,8.86,3.35,13.84,9.68,13.84s9.77-4.79,9.77-13.84V275.6Z" fill="#1c2126"/><path d="M178.39,315.4v28.86H164.28v-5.52c-3.52,4.07-9,6.42-16.46,6.42-10.58,0-17.19-5.33-17.19-14.11,0-8,5.25-14,18.46-16.28l15.19-2.53c0-4.89-3.07-7.69-8.77-7.69-5.52,0-8.14,2.35-8.5,6.24h-14.3c.28-9.31,7.87-18,22.8-18C170.07,292.79,178.39,300.93,178.39,315.4ZM164.28,323v-.72l-11.57,1.9c-6.07,1-7.6,3.07-7.6,5.7,0,2.26,2.17,3.89,6.24,3.89C159.13,333.77,164.28,329.43,164.28,323Z" fill="#1c2126"/><path d="M265.05,315.68v28.58H250.94V318.12c0-8.32-3.35-12.66-8.69-12.66-5.15,0-8.68,4.7-8.68,12.57v26.23H219.46V318.12c0-8.32-3.35-12.66-8.69-12.66-5.15,0-8.68,4.7-8.68,12.57v26.23H188V293.7h14.11v5.51a15.17,15.17,0,0,1,13.12-6.69c6.51,0,11.67,2.71,14.92,8a17.79,17.79,0,0,1,15.29-8C257.27,292.52,265.05,301.38,265.05,315.68Z" fill="#1c2126"/><path d="M298.15,268.55l7.69,9.32c-10.32,9.4-16.56,22.16-16.56,39s6.24,29.67,16.56,39.08l-7.69,9.32c-14.38-11.22-22.34-27.86-22.34-48.4S283.77,279.77,298.15,268.55Z" fill="#1c2126"/><path d="M355.31,309.62H341.2c-.09-3.26-3-5.79-7.78-5.79-4.61,0-7.05,1.72-7.05,4.07s1.08,3.52,6.78,4.52l6.78,1.09c13,2.17,16.47,8.05,16.47,15.73,0,9.86-7.87,16.11-22.16,16.11-15.38,0-23.07-7.33-23.07-17.46h14c.09,3.71,3,6.24,9.59,6.24,5,0,7.51-1.72,7.51-4.25,0-2.72-1.45-4.07-7.33-5.07l-7.06-1.17c-11.94-1.9-15.64-7.87-15.64-15.11,0-8.95,7.32-15.83,21.34-15.83S355.31,300,355.31,309.62Z" fill="#1c2126"/><path d="M395.92,305.64H385v38.62H370.87V305.64h-9.5V293.7h9.5V277.78H385V293.7h10.94Z" fill="#1c2126"/><path d="M447.21,315.4v28.86H433.1v-5.52c-3.53,4.07-9.05,6.42-16.46,6.42-10.59,0-17.19-5.33-17.19-14.11,0-8,5.25-14,18.45-16.28l15.2-2.53c0-4.89-3.08-7.69-8.78-7.69-5.51,0-8.14,2.35-8.5,6.24H401.53c.27-9.31,7.87-18,22.79-18C438.89,292.79,447.21,300.93,447.21,315.4ZM433.1,323v-.72l-11.58,1.9c-6.06,1-7.6,3.07-7.6,5.7,0,2.26,2.17,3.89,6.24,3.89C427.94,333.77,433.1,329.43,433.1,323Z" fill="#1c2126"/><path d="M505.46,313.69H490.62a9.73,9.73,0,0,0-10.13-9c-6.69,0-11.3,5.16-11.3,14.29,0,9,4.61,14.2,11.3,14.2a9.72,9.72,0,0,0,10.13-8.86h14.84c-.36,11.76-10.4,21.17-25,21.17-16.28,0-26.05-10.59-26.05-26.51s9.77-26.5,26.05-26.5C495.06,292.52,505.1,301.84,505.46,313.69Z" fill="#1c2126"/><path d="M544.26,344.26l-18.09-19.72v19.72H512.06V272.35h14.11v40.52l17.46-19H560l-22.61,24.6,23.33,25.78Z" fill="#1c2126"/><path d="M569.5,365.25l-7.69-9.32c10.22-9.41,16.46-22.16,16.46-39.08s-6.24-29.58-16.46-39l7.69-9.32c14.29,11.22,22.25,27.86,22.25,48.3S583.79,354,569.5,365.25Z" fill="#1c2126"/><path d="M818,202.43s-77.32-83.94,64.78-108.14c136.44-23.23,291,61.41,191.52,136a95.33,95.33,0,0,1,17.15,39.78c3.86,23.15-19.35,128.3-23.14,146.66s-11.43,29.58-34.1,26-203.71-30.44-237.34-37.29-47.24-15.38-39.53-57.95S774,207.69,818,202.43Z" fill="#fff6d0" stroke="#1c2126" stroke-linejoin="round" stroke-width="2"/><path d="M1042.94,346.45a34.42,34.42,0,0,0-20.64-21.23c28-11,49.77-41.63,27.52-68.61,12.19-11.88,14.48-32.08,5.53-46.4,10.93-18-.46-43.82-21.17-47.87-28.06-7.19-56.26-14.39-85.12-17.56-29.77-2.87-63-6.55-89.31,10.51-19.42,12.88-33.41,40.2-22.74,62.56,1.48,4.24,5.6,9.46,9,12.5-46.07,24-55.3,76.72,1.44,92.87-31.72,25.21-17.57,69.85,21.58,75.62,28.76,4.69,56-9.39,84-13.63a147.52,147.52,0,0,1,32.58-3.07c8.37.34,15,6.68,23.44,6.37C1031.28,392.14,1050.3,367.26,1042.94,346.45Z" fill="#ff6b60" stroke="#1c2126" stroke-miterlimit="10" stroke-width="2"/><path d="M1122.45,104.46a7.06,7.06,0,0,0-.18-3.13,7.84,7.84,0,0,0-2.63-4.75,7.24,7.24,0,0,0-5.6-.75,16.13,16.13,0,0,0-4.83,1.86,12.85,12.85,0,0,0-.61-7.14,8,8,0,0,0-5.29-4.74,5.84,5.84,0,0,0-6.36,2.57c-1.15,2.05-.72,4.59-.25,6.89q1.79,8.64,3.83,17.22l14.55-3.13C1118.14,108.71,1121.77,107.51,1122.45,104.46Z" fill="#ff6b60" stroke="#1c2126" stroke-linejoin="round" stroke-width="2"/><path d="M1084.17,67a8.09,8.09,0,0,0-2.44-2.67c-1.68-1.31-3.67-2.47-5.8-2.34s-4.14,1.67-5.56,3.39a18.3,18.3,0,0,0-3,5.18,14.77,14.77,0,0,0-5.75-6,9.2,9.2,0,0,0-8.17-.41,6.77,6.77,0,0,0-3.84,6.92c.47,2.67,2.69,4.63,4.79,6.35q7.86,6.45,15.93,12.64l10.77-13.36C1083.39,73.94,1085.78,70.23,1084.17,67Z" fill="#ff6b60" stroke="#1c2126" stroke-linejoin="round" stroke-width="2"/><path d="M915.35,186.89s10.17-10.49,20.66,0" fill="none" stroke="#1c2126" stroke-linecap="round" stroke-miterlimit="10" stroke-width="2"/><path d="M950.78,186.89s10.16-10.49,20.66,0" fill="none" stroke="#1c2126" stroke-linecap="round" stroke-miterlimit="10" stroke-width="2"/><path d="M921.39,199.16c.37,11.09,10.2,20,22.3,20s21.94-8.9,22.31-20Z" fill="#7a122d" stroke="#1c2126" stroke-linecap="round" stroke-linejoin="round" stroke-width="2"/><rect x="617.28" y="93.35" width="126.31" height="113.1" rx="14.86" transform="translate(-15.25 111.44) rotate(-9.26)" fill="#bffde7" stroke="#1c2126" stroke-linejoin="round" stroke-width="2"/><path d="M619,132.65,629.64,198a11.5,11.5,0,0,0,13.2,9.5l91.55-14.92a11.5,11.5,0,0,0,9.5-13.2L733.23,114Z" fill="#ff6b60" stroke="#1c2126" stroke-linejoin="round" stroke-width="2"/><rect x="606.2" y="69.65" width="126.31" height="24.6" rx="7.21" transform="translate(-4.46 108.77) rotate(-9.26)" fill="#ffb916" stroke="#1c2126" stroke-linejoin="round" stroke-width="2"/><rect x="639.62" y="115.56" width="81.1" height="65.43" transform="translate(-14.99 111.37) rotate(-9.26)" fill="#fff6d0" stroke="#1c2126" stroke-linejoin="round" stroke-width="2"/><rect x="628.6" y="110.21" width="4.8" height="89.7" rx="2.4" transform="translate(-16.73 103.55) rotate(-9.26)" fill="#fff"/><path d="M696,138.82a8.1,8.1,0,0,0-2.7-2.4c-1.82-1.12-3.92-2.06-6-1.71s-3.94,2.09-5.17,4a18.17,18.17,0,0,0-2.41,5.46,14.78,14.78,0,0,0-6.34-5.31,9.24,9.24,0,0,0-8.17.46,6.74,6.74,0,0,0-3.08,7.29c.74,2.6,3.16,4.32,5.43,5.81q8.51,5.58,17.18,10.88L694,148.83C696,145.8,698,141.86,696,138.82Z" fill="#db4648" stroke="#1c2126" stroke-linejoin="round" stroke-width="2"/><rect y="595" width="1200" height="35" fill="#fff"/><rect y="499.19" width="1200" height="95.81" fill="#fff"/><line y1="499.19" x2="1200" y2="499.19" fill="none" stroke="#1c2126" stroke-miterlimit="10"/><line y1="595" x2="1200" y2="595" fill="none" stroke="#1c2126" stroke-miterlimit="10"/><path d="M24.24,559.45V540.69H17.85v-2.37H33.21v2.37H26.82v18.76Z" fill="#1c2126"/><path d="M44.08,559.89c-4.81,0-7.75-3.45-7.75-9.3v-3.41c0-5.85,2.94-9.3,7.75-9.3s7.74,3.45,7.74,9.3v3.41C51.82,556.44,48.88,559.89,44.08,559.89Zm5.14-9.31v-3.39c0-4.41-1.94-6.87-5.14-6.87s-5.15,2.46-5.15,6.87v3.39c0,4.41,1.94,6.87,5.15,6.87S49.22,555,49.22,550.58Z" fill="#1c2126"/><path d="M60,545.58a2.65,2.65,0,1,1,2.65,2.71A2.7,2.7,0,0,1,60,545.58Zm0,11.25a2.65,2.65,0,1,1,2.65,2.71A2.68,2.68,0,0,1,60,556.83Z" fill="#1c2126"/><circle cx="107.91" cy="548.15" r="31.98" fill="#1c2126"/><line x1="582.03" y1="498.72" x2="582.03" y2="595" fill="none" stroke="#1c2126" stroke-miterlimit="10"/><path d="M1129.73,614.6a4.72,4.72,0,1,1-4.71-4.69A4.43,4.43,0,0,1,1129.73,614.6Zm-6.82,0A2.12,2.12,0,0,0,1125,617c1.3,0,2.1-.94,2.1-2.41s-.8-2.42-2.1-2.42S1122.91,613.12,1122.91,614.6Z" fill="#1c2126"/><path d="M1138.54,612.93H1136c0-.57-.52-1-1.37-1s-1.25.3-1.25.72.19.62,1.2.8l1.2.19c2.3.39,2.91,1.43,2.91,2.79,0,1.74-1.39,2.85-3.92,2.85-2.72,0-4.08-1.3-4.08-3.09h2.48c0,.65.53,1.1,1.7,1.1.88,0,1.33-.3,1.33-.75s-.26-.72-1.3-.9l-1.25-.21c-2.11-.33-2.77-1.39-2.77-2.67,0-1.58,1.3-2.8,3.78-2.8S1138.54,611.24,1138.54,612.93Z" fill="#1c2126"/><path d="M1147.49,612.93H1145c0-.57-.53-1-1.38-1s-1.25.3-1.25.72.2.62,1.2.8l1.21.19c2.3.39,2.91,1.43,2.91,2.79,0,1.74-1.39,2.85-3.92,2.85-2.72,0-4.09-1.3-4.09-3.09h2.49c0,.65.52,1.1,1.69,1.1.88,0,1.33-.3,1.33-.75s-.25-.72-1.3-.9l-1.24-.21c-2.12-.33-2.77-1.39-2.77-2.67,0-1.58,1.29-2.8,3.77-2.8S1147.49,611.24,1147.49,612.93Z" fill="#1c2126"/><path d="M1152,617.64a1.6,1.6,0,1,1-1.6-1.62A1.55,1.55,0,0,1,1152,617.64Z" fill="#1c2126"/><path d="M1156.27,606.34v12.72h-2.5V606.34Z" fill="#1c2126"/><path d="M1167,614.6a4.71,4.71,0,1,1-4.7-4.69A4.42,4.42,0,0,1,1167,614.6Zm-6.81,0a2.12,2.12,0,0,0,2.11,2.41c1.29,0,2.1-.94,2.1-2.41s-.81-2.42-2.1-2.42S1160.16,613.12,1160.16,614.6Z" fill="#1c2126"/><path d="M1176.59,610.12l-3.26,8.94h-3l-3.28-8.94h2.64l2.16,6.32,2.16-6.32Z" fill="#1c2126"/><path d="M1186.06,615.33h-6.61a1.92,1.92,0,0,0,2,1.81,1.82,1.82,0,0,0,1.75-.8h2.66a5,5,0,1,1,.17-1.77Zm-6.58-1.71h3.94a1.87,1.87,0,0,0-2-1.58A2,2,0,0,0,1179.48,613.62Z" fill="#1c2126"/><path d="M605.51,559.45V538.32H618v2.37H608.1v7.25h9v2.3h-9v9.21Z" fill="#1c2126"/><path d="M625.54,551v8.42H623V538.32h7.09c4.19,0,6.81,2.43,6.81,6.35A5.91,5.91,0,0,1,633,550.5l4.3,9h-2.91L630.41,551Zm0-2.18h4.19c2.92,0,4.56-1.48,4.56-4.12s-1.61-4.11-4.44-4.11h-4.31Z" fill="#1c2126"/><path d="M648.15,559.89c-4.81,0-7.75-3.45-7.75-9.3v-3.41c0-5.85,2.94-9.3,7.75-9.3s7.75,3.45,7.75,9.3v3.41C655.9,556.44,653,559.89,648.15,559.89Zm5.14-9.31v-3.39c0-4.41-1.93-6.87-5.14-6.87s-5.14,2.46-5.14,6.87v3.39c0,4.41,1.93,6.87,5.14,6.87S653.29,555,653.29,550.58Z" fill="#1c2126"/><path d="M661.38,559.45h-2.3V538.32H662l4.64,13.12h.19l4.62-13.12h2.9v21.13H672v-8.11l.13-8.56H672l-4.25,11.71h-2l-4.25-11.71h-.19l.14,8.56Z" fill="#1c2126"/><path d="M682.59,545.58a2.65,2.65,0,1,1,2.65,2.71A2.7,2.7,0,0,1,682.59,545.58Zm0,11.25a2.65,2.65,0,1,1,2.65,2.71A2.68,2.68,0,0,1,682.59,556.83Z" fill="#1c2126"/><circle cx="733.24" cy="548.15" r="31.98" fill="#1c2126"/><path d="M791.37,562a13.93,13.93,0,0,1-5-.86,10.66,10.66,0,0,1-6.3-6.3,13.81,13.81,0,0,1-.87-5,13.54,13.54,0,0,1,.9-5,11.12,11.12,0,0,1,2.58-3.91,11.78,11.78,0,0,1,4-2.53,13.78,13.78,0,0,1,5.07-.9,13.44,13.44,0,0,1,4.55.74,10.32,10.32,0,0,1,3.54,2.12,9.19,9.19,0,0,1,2.28,3.27,10.78,10.78,0,0,1,.8,4.26,11.44,11.44,0,0,1-.7,4.2,6.47,6.47,0,0,1-1.93,2.77,4.55,4.55,0,0,1-2.91,1,3.24,3.24,0,0,1-2.55-1,3.31,3.31,0,0,1-.73-2.61l.51.14a5.85,5.85,0,0,1-2,2.56,4.88,4.88,0,0,1-2.79.88,4.34,4.34,0,0,1-3.43-1.36,5.39,5.39,0,0,1-1.22-3.73,8.24,8.24,0,0,1,.8-3.69,6.21,6.21,0,0,1,2.2-2.52,5.75,5.75,0,0,1,3.19-.91,4.13,4.13,0,0,1,2.59.76,3.51,3.51,0,0,1,1.3,2.13h-.33l.47-2.64h1.85l-1.29,7.26c0,.24-.07.47-.1.7s0,.43,0,.61a2,2,0,0,0,.44,1.4,1.65,1.65,0,0,0,1.3.48,2.75,2.75,0,0,0,2-.81,5.38,5.38,0,0,0,1.31-2.26,10.66,10.66,0,0,0,.48-3.37,9.37,9.37,0,0,0-.67-3.64,7.65,7.65,0,0,0-1.93-2.77,8.69,8.69,0,0,0-3-1.77,11.75,11.75,0,0,0-3.91-.61,11.94,11.94,0,0,0-4.41.77,9.42,9.42,0,0,0-5.56,5.58,12.48,12.48,0,0,0-.75,4.43,12,12,0,0,0,1.26,5.68,8.6,8.6,0,0,0,3.59,3.65,11.36,11.36,0,0,0,5.51,1.28,12.05,12.05,0,0,0,4.22-.71,8.25,8.25,0,0,0,3.14-2l.92,1.37a8.76,8.76,0,0,1-3.54,2.18A14.41,14.41,0,0,1,791.37,562ZM790,554.18a3.81,3.81,0,0,0,2.3-.74,5,5,0,0,0,1.58-2.06,7.5,7.5,0,0,0,.57-3,3.47,3.47,0,0,0-.7-2.38,2.81,2.81,0,0,0-2.21-.78,4,4,0,0,0-2.31.7,4.73,4.73,0,0,0-1.61,1.93,6.58,6.58,0,0,0-.59,2.86,3.85,3.85,0,0,0,.77,2.57A2.75,2.75,0,0,0,790,554.18Z" fill="#1c2126"/><path d="M806.82,557.45V536.84h2.27v20.61Z" fill="#1c2126"/><path d="M812.93,563.81l-.54-1.88a11.39,11.39,0,0,0,2.2-.71,4.26,4.26,0,0,0,1.47-1.08,6.19,6.19,0,0,0,1-1.68l.73-1.65-.06,1-6.13-14.36h2.46l5.07,12.35h-.73l5-12.35h2.38l-6.5,15.23a10.23,10.23,0,0,1-1.23,2.25,7.32,7.32,0,0,1-1.44,1.49,6.94,6.94,0,0,1-1.7.91A12.53,12.53,0,0,1,812.93,563.81Z" fill="#1c2126"/><path d="M828.35,557.45v-10.8c0-.53,0-1.06-.07-1.61s-.1-1.1-.15-1.64h2.18l.28,3.08h-.33a4.86,4.86,0,0,1,2-2.48,5.81,5.81,0,0,1,3.15-.85,5,5,0,0,1,3.77,1.33,5.86,5.86,0,0,1,1.27,4.18v8.79h-2.27V548.8a4.31,4.31,0,0,0-.8-2.9,3.13,3.13,0,0,0-2.47-.91,4.06,4.06,0,0,0-3.11,1.21,4.44,4.44,0,0,0-1.15,3.22v8Z" fill="#1c2126"/><path d="M844.76,557.45v-10.8c0-.53,0-1.06-.07-1.61s-.1-1.1-.15-1.64h2.18l.28,3.08h-.33a4.81,4.81,0,0,1,2-2.48,5.76,5.76,0,0,1,3.15-.85,4.94,4.94,0,0,1,3.76,1.33,5.86,5.86,0,0,1,1.28,4.18v8.79h-2.27V548.8a4.37,4.37,0,0,0-.8-2.9,3.13,3.13,0,0,0-2.47-.91,4.06,4.06,0,0,0-3.11,1.21,4.44,4.44,0,0,0-1.15,3.22v8Z" fill="#1c2126"/><path d="M866.52,557.71a6,6,0,0,1-3.28-.89,5.78,5.78,0,0,1-2.17-2.5,10.31,10.31,0,0,1,0-7.82,5.75,5.75,0,0,1,2.17-2.49,6.08,6.08,0,0,1,3.28-.86,5.64,5.64,0,0,1,3.29,1,4.56,4.56,0,0,1,1.83,2.62h-.34l.31-3.33h2.19c-.06.54-.11,1.08-.16,1.64s-.07,1.08-.07,1.61v10.8H871.3v-3.3h.31a4.42,4.42,0,0,1-1.85,2.6A5.57,5.57,0,0,1,866.52,557.71Zm.44-1.85a4,4,0,0,0,3.2-1.39,7.63,7.63,0,0,0,0-8.12,4.34,4.34,0,0,0-6.37,0,7.52,7.52,0,0,0,0,8.12A4,4,0,0,0,867,555.86Z" fill="#1c2126"/><path d="M878,557.45v-10.8c0-.53,0-1.06-.07-1.61s-.1-1.1-.15-1.64h2.18l.28,3.08h-.34a4.83,4.83,0,0,1,2-2.48,5.76,5.76,0,0,1,3.15-.85,5,5,0,0,1,3.76,1.33,5.86,5.86,0,0,1,1.28,4.18v8.79h-2.27V548.8a4.37,4.37,0,0,0-.8-2.9,3.15,3.15,0,0,0-2.48-.91,4.09,4.09,0,0,0-3.11,1.21,4.48,4.48,0,0,0-1.14,3.22v8Z" fill="#1c2126"/><path d="M899.7,557.71a5.93,5.93,0,0,1-3.25-.89,5.72,5.72,0,0,1-2.17-2.5,10.31,10.31,0,0,1,0-7.82,5.69,5.69,0,0,1,2.17-2.49,6,6,0,0,1,3.25-.86,5.66,5.66,0,0,1,3.29,1,4.61,4.61,0,0,1,1.86,2.57h-.34v-9.83h2.27v20.61h-2.24v-3.36h.31a4.58,4.58,0,0,1-1.85,2.65A5.71,5.71,0,0,1,899.7,557.71Zm.47-1.85a4,4,0,0,0,3.19-1.39,7.42,7.42,0,0,0,0-8.12,4.34,4.34,0,0,0-6.37,0,7.52,7.52,0,0,0,0,8.12A4,4,0,0,0,900.17,555.86Z" fill="#1c2126"/><path d="M916.16,557.71a4,4,0,0,1-3.16-1.2,5.14,5.14,0,0,1-1.1-3.59v-7.76h-2.74V543.4h2.74v-3.84l2.27-.64v4.48h4v1.76h-4v7.51a3.81,3.81,0,0,0,.58,2.39,2.05,2.05,0,0,0,1.72.71,4,4,0,0,0,.95-.1,4.87,4.87,0,0,0,.76-.23v1.9a5,5,0,0,1-.94.27A6.78,6.78,0,0,1,916.16,557.71Z" fill="#1c2126"/><path d="M926.6,557.71a6.78,6.78,0,0,1-3.51-.89,5.77,5.77,0,0,1-2.31-2.52,9.72,9.72,0,0,1,0-7.77,5.89,5.89,0,0,1,2.31-2.5,6.78,6.78,0,0,1,3.51-.88,6.85,6.85,0,0,1,3.55.88,6,6,0,0,1,2.32,2.5,9.51,9.51,0,0,1,0,7.77,5.91,5.91,0,0,1-2.32,2.52A6.85,6.85,0,0,1,926.6,557.71Zm0-1.85a4,4,0,0,0,3.2-1.39,7.63,7.63,0,0,0,0-8.12,4,4,0,0,0-3.2-1.39,4,4,0,0,0-3.16,1.39,7.57,7.57,0,0,0,0,8.12A3.92,3.92,0,0,0,926.6,555.86Z" fill="#1c2126"/><path d="M936.82,557.45v-10.8c0-.53,0-1.06-.07-1.61s-.09-1.1-.15-1.64h2.18l.28,3.08h-.33a4.86,4.86,0,0,1,2-2.48,5.81,5.81,0,0,1,3.15-.85,5,5,0,0,1,3.77,1.33,5.86,5.86,0,0,1,1.27,4.18v8.79h-2.27V548.8a4.37,4.37,0,0,0-.79-2.9,3.17,3.17,0,0,0-2.48-.91,4.08,4.08,0,0,0-3.11,1.21,4.44,4.44,0,0,0-1.15,3.22v8Z" fill="#1c2126"/><path d="M953,540.21v-2.55h2.8v2.55Zm.28,17.24V543.4h2.27v14.05Z" fill="#1c2126"/><path d="M965.8,557.71a6.91,6.91,0,0,1-3.59-.9,6,6,0,0,1-2.36-2.55,8.68,8.68,0,0,1-.82-3.92,8.32,8.32,0,0,1,.84-3.9,5.7,5.7,0,0,1,2.36-2.45,7.19,7.19,0,0,1,3.57-.84,7.35,7.35,0,0,1,2.62.47,5.79,5.79,0,0,1,2.12,1.34l-.82,1.63a5.77,5.77,0,0,0-1.83-1.21,5.29,5.29,0,0,0-1.95-.39,4.24,4.24,0,0,0-3.38,1.38,5.85,5.85,0,0,0-1.21,4,6,6,0,0,0,1.21,4,4.18,4.18,0,0,0,3.38,1.43,5.4,5.4,0,0,0,1.92-.37,5.28,5.28,0,0,0,1.86-1.2l.82,1.6a5.71,5.71,0,0,1-2.16,1.37A7.35,7.35,0,0,1,965.8,557.71Z" fill="#1c2126"/><path d="M167.16,562a13.84,13.84,0,0,1-5-.86,10.71,10.71,0,0,1-3.84-2.45,10.88,10.88,0,0,1-2.46-3.85,13.81,13.81,0,0,1-.87-5,13.54,13.54,0,0,1,.9-5,11,11,0,0,1,2.57-3.91,11.82,11.82,0,0,1,4-2.53,13.78,13.78,0,0,1,5.07-.9,13.49,13.49,0,0,1,4.55.74,10.32,10.32,0,0,1,3.54,2.12,9.19,9.19,0,0,1,2.28,3.27,11,11,0,0,1,.8,4.26,11.66,11.66,0,0,1-.7,4.2,6.47,6.47,0,0,1-1.93,2.77,4.58,4.58,0,0,1-2.92,1,3.2,3.2,0,0,1-2.54-1,3.31,3.31,0,0,1-.73-2.61l.5.14a5.71,5.71,0,0,1-2,2.56,4.85,4.85,0,0,1-2.78.88,4.34,4.34,0,0,1-3.43-1.36,5.34,5.34,0,0,1-1.22-3.73,8.11,8.11,0,0,1,.8-3.69,6.27,6.27,0,0,1,2.19-2.52,5.81,5.81,0,0,1,3.2-.91,4.15,4.15,0,0,1,2.59.76,3.55,3.55,0,0,1,1.3,2.13h-.34l.48-2.64H173l-1.29,7.26c0,.24-.07.47-.1.7a4.55,4.55,0,0,0,0,.61,2,2,0,0,0,.43,1.4,1.68,1.68,0,0,0,1.3.48,2.73,2.73,0,0,0,2-.81,5.5,5.5,0,0,0,1.32-2.26,10.66,10.66,0,0,0,.48-3.37,9.37,9.37,0,0,0-.68-3.64,7.53,7.53,0,0,0-1.93-2.77,8.6,8.6,0,0,0-3-1.77,11.69,11.69,0,0,0-3.9-.61,11.87,11.87,0,0,0-4.41.77,9.65,9.65,0,0,0-3.39,2.18,9.53,9.53,0,0,0-2.17,3.4,12.26,12.26,0,0,0-.76,4.43,12,12,0,0,0,1.26,5.68,8.62,8.62,0,0,0,3.6,3.65,11.32,11.32,0,0,0,5.5,1.28,12.11,12.11,0,0,0,4.23-.71,8.25,8.25,0,0,0,3.14-2l.92,1.37a8.83,8.83,0,0,1-3.54,2.18A14.47,14.47,0,0,1,167.16,562Zm-1.34-7.84a3.78,3.78,0,0,0,2.29-.74,5,5,0,0,0,1.59-2.06,7.5,7.5,0,0,0,.57-3,3.47,3.47,0,0,0-.7-2.38,2.83,2.83,0,0,0-2.21-.78,4,4,0,0,0-2.31.7,4.73,4.73,0,0,0-1.61,1.93,6.58,6.58,0,0,0-.59,2.86,3.85,3.85,0,0,0,.77,2.57A2.74,2.74,0,0,0,165.82,554.18Z" fill="#1c2126"/><path d="M184,557.45v-2h4.65V539.7h1.23l-5.43,3.39v-2.33l4.84-3h1.68v17.75h4.37v2Z" fill="#1c2126"/><path d="M200.76,557.45v-2h4.65V539.7h1.23l-5.43,3.39v-2.33l4.84-3h1.68v17.75h4.37v2Z" fill="#1c2126"/><path d="M221.2,557.71a4.06,4.06,0,0,1-3.16-1.2,5.14,5.14,0,0,1-1.09-3.59v-7.76H214.2V543.4H217v-3.84l2.26-.64v4.48h4v1.76h-4v7.51a3.88,3.88,0,0,0,.58,2.39,2.05,2.05,0,0,0,1.72.71,4,4,0,0,0,1-.1,4.87,4.87,0,0,0,.76-.23v1.9a4.82,4.82,0,0,1-.94.27A6.57,6.57,0,0,1,221.2,557.71Z" fill="#1c2126"/><path d="M225.63,563.81l-.54-1.88a11.39,11.39,0,0,0,2.2-.71,4.26,4.26,0,0,0,1.47-1.08,6.19,6.19,0,0,0,1-1.68l.73-1.65-.06,1-6.13-14.36h2.46l5.07,12.35h-.73l5-12.35h2.38L232,558.63a10.23,10.23,0,0,1-1.23,2.25,7.32,7.32,0,0,1-1.44,1.49,6.94,6.94,0,0,1-1.7.91A12.53,12.53,0,0,1,225.63,563.81Z" fill="#1c2126"/><path d="M27.75,606.92v12.14H25v-2.13l-4.7-5.41v7.54H17.63V606.92H20L25,612.77v-5.85Z" fill="#1c2126"/><path d="M38.37,615.33H31.76a1.92,1.92,0,0,0,2,1.81,1.81,1.81,0,0,0,1.74-.8H38.2a4.35,4.35,0,0,1-4.44,2.88,4.63,4.63,0,1,1,0-9.26,4.32,4.32,0,0,1,4.62,4.61Zm-6.58-1.71h3.94a1.87,1.87,0,0,0-2-1.58A2,2,0,0,0,31.79,613.62Z" fill="#1c2126"/><path d="M44.93,612.23H43v6.83H40.5v-6.83H38.82v-2.11H40.5V607.3H43v2.82h1.93Z" fill="#1c2126"/><path d="M48.9,606.34v12.72H46.4V606.34Z" fill="#1c2126"/><path d="M53.62,607.59a1.5,1.5,0,1,1-3,0,1.5,1.5,0,1,1,3,0Zm-.24,2.32v9.15h-2.5v-9.15a2.06,2.06,0,0,0,1.25.37A2,2,0,0,0,53.38,609.91Z" fill="#1c2126"/><path d="M58.55,609v1.09h1.87v2.11H58.55v6.83h-2.5v-6.83H54.61v-2.11h1.44V609a2.62,2.62,0,0,1,2.88-2.83h1.75v1.94H59.44A.78.78,0,0,0,58.55,609Z" fill="#1c2126"/><path d="M70.71,610.12l-5,11.89H63.33l1.38-3.28-3.49-8.61h2.51L66,615.69l2.32-5.57Z" fill="#1c2126"/><path d="M109.4,613c0,3.92-2.34,6.22-5.8,6.22s-5.79-2.3-5.79-6.22,2.33-6.25,5.79-6.25S109.4,609.08,109.4,613Zm-8.79,0c0,2.35,1.3,3.66,3,3.66s3-1.31,3-3.66-1.32-3.67-3-3.67S100.61,610.63,100.61,613Z" fill="#1c2126"/><path d="M120.32,610.53h-2.8c0-.89-.67-1.52-1.85-1.52s-1.7.55-1.7,1.23.38,1,1.49,1.3l1.37.32c2.64.59,3.73,1.73,3.73,3.73s-1.6,3.63-4.73,3.63-4.9-1.61-4.9-4h2.8a1.88,1.88,0,0,0,2.11,1.84c1.27,0,1.92-.63,1.92-1.44s-.38-1.09-1.57-1.35l-1.32-.27c-2.77-.56-3.72-1.87-3.72-3.73,0-2.06,1.6-3.54,4.58-3.54S120.32,608.29,120.32,610.53Z" fill="#1c2126"/><path d="M131.38,610.53h-2.8c0-.89-.67-1.52-1.86-1.52-1,0-1.69.55-1.69,1.23s.38,1,1.48,1.3l1.38.32c2.64.59,3.73,1.73,3.73,3.73s-1.6,3.63-4.74,3.63-4.9-1.61-4.9-4h2.81a1.88,1.88,0,0,0,2.11,1.84c1.26,0,1.92-.63,1.92-1.44s-.39-1.09-1.57-1.35l-1.33-.27c-2.77-.56-3.71-1.87-3.71-3.73,0-2.06,1.6-3.54,4.58-3.54S131.38,608.29,131.38,610.53Z" fill="#1c2126"/><path d="M91.16,610.11a3.71,3.71,0,0,0-1-1.22,4,4,0,0,0-2.5-1.14,3.62,3.62,0,0,0-2.51,1.37,8,8,0,0,0-1.41,2.21,6.53,6.53,0,0,0-2.39-2.73,4.07,4.07,0,0,0-3.57-.35,3,3,0,0,0-1.83,3,5.09,5.09,0,0,0,2,2.88q3.32,3,6.72,5.87l5-5.64C90.67,613.14,91.8,611.56,91.16,610.11Z" fill="#ff6b60" stroke="#ff6b60" stroke-linejoin="round"/></svg>