<svg xmlns="http://www.w3.org/2000/svg" width="1200" height="630" viewBox="0 0 1200 630"><rect width="1200" height="498.72" fill="#ffb916"/><polygon points="1011.86 333.36 996.08 244.62 982.91 238.86 982.91 300.69 861.84 166.13 876.41 77.16 869.52 77.16 861.8 101.37 847.59 77.16 843.04 75.16 860.37 108.48 851.15 154.05 779.79 71.4 744.58 58.85 865.04 228.09 684.72 162.65 684.72 171.87 731.49 192.21 676.64 251.59 681.42 254.16 743.6 197.48 886.88 259.79 1063.69 522 1112.51 514.85 1172.81 515.05 1011.86 333.36" fill="#b7790b" stroke="#1c2126" stroke-linejoin="round" stroke-width="2"/><polygon points="778.74 88.95 744.58 58.85 874.01 240.7 684.72 171.87 731.49 192.21 676.64 251.59 681.42 254.16 743.6 197.48 886.88 259.79 1063.69 522 1112.51 514.85 778.74 88.95" fill="#1c2126" opacity="0.1"/><rect y="595" width="1200" height="35" fill="#fff"/><rect y="499.19" width="1200" height="95.81" fill="#fff"/><line y1="499.19" x2="1200" y2="499.19" fill="none" stroke="#1c2126" stroke-miterlimit="10"/><line y1="595" x2="1200" y2="595" fill="none" stroke="#1c2126" stroke-miterlimit="10"/><path d="M24.24,559.45V540.69H17.85v-2.37H33.21v2.37H26.82v18.76Z" fill="#1c2126"/><path d="M44.08,559.89c-4.81,0-7.75-3.45-7.75-9.3v-3.41c0-5.85,2.94-9.3,7.75-9.3s7.74,3.45,7.74,9.3v3.41C51.82,556.44,48.88,559.89,44.08,559.89Zm5.14-9.31v-3.39c0-4.41-1.94-6.87-5.14-6.87s-5.15,2.46-5.15,6.87v3.39c0,4.41,1.94,6.87,5.15,6.87S49.22,555,49.22,550.58Z" fill="#1c2126"/><path d="M60,545.58a2.65,2.65,0,1,1,2.65,2.71A2.7,2.7,0,0,1,60,545.58Zm0,11.25a2.65,2.65,0,1,1,2.65,2.71A2.68,2.68,0,0,1,60,556.83Z" fill="#1c2126"/><line x1="582.03" y1="498.72" x2="582.03" y2="595" fill="none" stroke="#1c2126" stroke-miterlimit="10"/><path d="M1129.73,614.6a4.72,4.72,0,1,1-4.71-4.69A4.43,4.43,0,0,1,1129.73,614.6Zm-6.82,0A2.12,2.12,0,0,0,1125,617c1.3,0,2.1-.94,2.1-2.41s-.8-2.42-2.1-2.42S1122.91,613.12,1122.91,614.6Z" fill="#1c2126"/><path d="M1138.54,612.93H1136c0-.57-.52-1-1.37-1s-1.25.3-1.25.72.19.62,1.2.8l1.2.19c2.3.39,2.91,1.43,2.91,2.79,0,1.74-1.39,2.85-3.92,2.85-2.72,0-4.08-1.3-4.08-3.09h2.48c0,.65.53,1.1,1.7,1.1.88,0,1.33-.3,1.33-.75s-.26-.72-1.3-.9l-1.25-.21c-2.11-.33-2.77-1.39-2.77-2.67,0-1.58,1.3-2.8,3.78-2.8S1138.54,611.24,1138.54,612.93Z" fill="#1c2126"/><path d="M1147.49,612.93H1145c0-.57-.53-1-1.38-1s-1.25.3-1.25.72.2.62,1.2.8l1.21.19c2.3.39,2.91,1.43,2.91,2.79,0,1.74-1.39,2.85-3.92,2.85-2.72,0-4.09-1.3-4.09-3.09h2.49c0,.65.52,1.1,1.69,1.1.88,0,1.33-.3,1.33-.75s-.25-.72-1.3-.9l-1.24-.21c-2.12-.33-2.77-1.39-2.77-2.67,0-1.58,1.29-2.8,3.77-2.8S1147.49,611.24,1147.49,612.93Z" fill="#1c2126"/><path d="M1152,617.64a1.6,1.6,0,1,1-1.6-1.62A1.55,1.55,0,0,1,1152,617.64Z" fill="#1c2126"/><path d="M1156.27,606.34v12.72h-2.5V606.34Z" fill="#1c2126"/><path d="M1167,614.6a4.71,4.71,0,1,1-4.7-4.69A4.42,4.42,0,0,1,1167,614.6Zm-6.81,0a2.12,2.12,0,0,0,2.11,2.41c1.29,0,2.1-.94,2.1-2.41s-.81-2.42-2.1-2.42S1160.16,613.12,1160.16,614.6Z" fill="#1c2126"/><path d="M1176.59,610.12l-3.26,8.94h-3l-3.28-8.94h2.64l2.16,6.32,2.16-6.32Z" fill="#1c2126"/><path d="M1186.06,615.33h-6.61a1.92,1.92,0,0,0,2,1.81,1.82,1.82,0,0,0,1.75-.8h2.66a5,5,0,1,1,.17-1.77Zm-6.58-1.71h3.94a1.87,1.87,0,0,0-2-1.58A2,2,0,0,0,1179.48,613.62Z" fill="#1c2126"/><path d="M605.51,559.45V538.32H618v2.37H608.1v7.25h9v2.3h-9v9.21Z" fill="#1c2126"/><path d="M625.54,551v8.42H623V538.32h7.09c4.19,0,6.81,2.43,6.81,6.35A5.91,5.91,0,0,1,633,550.5l4.3,9h-2.91L630.41,551Zm0-2.18h4.19c2.92,0,4.56-1.48,4.56-4.12s-1.61-4.11-4.44-4.11h-4.31Z" fill="#1c2126"/><path d="M648.15,559.89c-4.81,0-7.75-3.45-7.75-9.3v-3.41c0-5.85,2.94-9.3,7.75-9.3s7.75,3.45,7.75,9.3v3.41C655.9,556.44,653,559.89,648.15,559.89Zm5.14-9.31v-3.39c0-4.41-1.93-6.87-5.14-6.87s-5.14,2.46-5.14,6.87v3.39c0,4.41,1.93,6.87,5.14,6.87S653.29,555,653.29,550.58Z" fill="#1c2126"/><path d="M661.38,559.45h-2.3V538.32H662l4.64,13.12h.19l4.62-13.12h2.9v21.13H672v-8.11l.13-8.56H672l-4.25,11.71h-2l-4.25-11.71h-.19l.14,8.56Z" fill="#1c2126"/><path d="M682.59,545.58a2.65,2.65,0,1,1,2.65,2.71A2.7,2.7,0,0,1,682.59,545.58Zm0,11.25a2.65,2.65,0,1,1,2.65,2.71A2.68,2.68,0,0,1,682.59,556.83Z" fill="#1c2126"/><path d="M27.75,606.92v12.14H25v-2.13l-4.7-5.41v7.54H17.63V606.92H20L25,612.77v-5.85Z" fill="#1c2126"/><path d="M38.37,615.33H31.76a1.92,1.92,0,0,0,2,1.81,1.81,1.81,0,0,0,1.74-.8H38.2a4.35,4.35,0,0,1-4.44,2.88,4.63,4.63,0,1,1,0-9.26,4.32,4.32,0,0,1,4.62,4.61Zm-6.58-1.71h3.94a1.87,1.87,0,0,0-2-1.58A2,2,0,0,0,31.79,613.62Z" fill="#1c2126"/><path d="M44.93,612.23H43v6.83H40.5v-6.83H38.82v-2.11H40.5V607.3H43v2.82h1.93Z" fill="#1c2126"/><path d="M48.9,606.34v12.72H46.4V606.34Z" fill="#1c2126"/><path d="M53.62,607.59a1.5,1.5,0,1,1-3,0,1.5,1.5,0,1,1,3,0Zm-.24,2.32v9.15h-2.5v-9.15a2.06,2.06,0,0,0,1.25.37A2,2,0,0,0,53.38,609.91Z" fill="#1c2126"/><path d="M58.55,609v1.09h1.87v2.11H58.55v6.83h-2.5v-6.83H54.61v-2.11h1.44V609a2.62,2.62,0,0,1,2.88-2.83h1.75v1.94H59.44A.78.78,0,0,0,58.55,609Z" fill="#1c2126"/><path d="M70.71,610.12l-5,11.89H63.33l1.38-3.28-3.49-8.61h2.51L66,615.69l2.32-5.57Z" fill="#1c2126"/><path d="M109.4,613c0,3.92-2.34,6.22-5.8,6.22s-5.79-2.3-5.79-6.22,2.33-6.25,5.79-6.25S109.4,609.08,109.4,613Zm-8.79,0c0,2.35,1.3,3.66,3,3.66s3-1.31,3-3.66-1.32-3.67-3-3.67S100.61,610.63,100.61,613Z" fill="#1c2126"/><path d="M120.32,610.53h-2.8c0-.89-.67-1.52-1.85-1.52s-1.7.55-1.7,1.23.38,1,1.49,1.3l1.37.32c2.64.59,3.73,1.73,3.73,3.73s-1.6,3.63-4.73,3.63-4.9-1.61-4.9-4h2.8a1.88,1.88,0,0,0,2.11,1.84c1.27,0,1.92-.63,1.92-1.44s-.38-1.09-1.57-1.35l-1.32-.27c-2.77-.56-3.72-1.87-3.72-3.73,0-2.06,1.6-3.54,4.58-3.54S120.32,608.29,120.32,610.53Z" fill="#1c2126"/><path d="M131.38,610.53h-2.8c0-.89-.67-1.52-1.86-1.52-1,0-1.69.55-1.69,1.23s.38,1,1.48,1.3l1.38.32c2.64.59,3.73,1.73,3.73,3.73s-1.6,3.63-4.74,3.63-4.9-1.61-4.9-4h2.81a1.88,1.88,0,0,0,2.11,1.84c1.26,0,1.92-.63,1.92-1.44s-.39-1.09-1.57-1.35l-1.33-.27c-2.77-.56-3.71-1.87-3.71-3.73,0-2.06,1.6-3.54,4.58-3.54S131.38,608.29,131.38,610.53Z" fill="#1c2126"/><path d="M91.16,610.11a3.62,3.62,0,0,0-1-1.22,3.91,3.91,0,0,0-2.49-1.14,3.62,3.62,0,0,0-2.51,1.37,8,8,0,0,0-1.41,2.21,6.53,6.53,0,0,0-2.39-2.73,4.09,4.09,0,0,0-3.58-.35,3,3,0,0,0-1.82,3,5,5,0,0,0,2,2.88q3.32,3,6.72,5.87l5-5.64C90.67,613.14,91.8,611.56,91.16,610.11Z" fill="#ff6b60" stroke="#ff6b60" stroke-linejoin="round"/><path d="M126.84,136.12v23.7H111.65V136.3L87.5,91.17H104l15.56,28.76L135,91.17h16Z" fill="#1c2126"/><path d="M195.5,134.58c0,15.11-9.68,26.51-26.6,26.51s-26.68-11.4-26.68-26.51,9.68-26.5,26.68-26.5S195.5,119.48,195.5,134.58Zm-38.54,0c0,8.33,4.62,13.66,11.94,13.66s11.85-5.33,11.85-13.66-4.52-13.65-11.85-13.65S157,126.26,157,134.58Z" fill="#1c2126"/><path d="M248.41,109.26v50.56H234.3v-5.43c-2.81,4-7.69,6.7-13.84,6.7-11.13,0-18.36-8.32-18.36-23.25V109.26h14.11v26c0,7.69,3.53,12,8.95,12s9.14-4.61,9.14-11.94v-26Z" fill="#1c2126"/><path d="M270.66,98.22c0,7.33-3.71,12.76-12.21,15.47l-1.9.63-2.17-6.69,1.9-.54c4-1.18,6.06-2.9,6.87-5.52a10,10,0,0,1-1.72.18c-4.7,0-7.69-3.35-7.69-7.24,0-4.34,3.17-7.5,8-7.5C267.31,87,270.66,91.44,270.66,98.22Z" fill="#1c2126"/><path d="M307.11,108.08v14.84h-5.7c-8.32,0-12.12,4-12.12,12.57v24.33H275.18V109.26h14.11v6.87C292.46,111.16,298.34,108.08,307.11,108.08Z" fill="#1c2126"/><path d="M362.2,138.75H324.84c.72,6.06,4.79,10.22,11.49,10.22,5,0,8.32-1.63,9.85-4.52h15c-2.89,9.49-12.12,16.28-25.06,16.28-15.82,0-26.23-10.41-26.23-26.15s10.22-26.23,26.14-26.23,26.15,10.32,26.15,26.05ZM325,129.07h22.25c-1-5.7-5.43-9-11.22-9A11.09,11.09,0,0,0,325,129.07Z" fill="#1c2126"/><path d="M480,131.24v28.58H465.85V133.68c0-8.32-3.35-12.66-8.68-12.66-5.16,0-8.69,4.7-8.69,12.57v26.23H434.37V133.68c0-8.32-3.34-12.66-8.68-12.66-5.16,0-8.69,4.7-8.69,12.57v26.23H402.89V109.26H417v5.52a15.19,15.19,0,0,1,13.12-6.7c6.51,0,11.67,2.72,14.93,8a17.77,17.77,0,0,1,15.28-8C472.18,108.08,480,117,480,131.24Z" fill="#1c2126"/><path d="M536.67,109.26l-28,67.21H495l7.78-18.55L483,109.26h14.2l12.67,31.48L523,109.26Z" fill="#1c2126"/><path d="M164.65,361.18H150.54c-.09-3.26-3-5.79-7.78-5.79-4.61,0-7,1.72-7,4.07s1.08,3.53,6.78,4.52l6.79,1.09c13,2.17,16.46,8.05,16.46,15.74,0,9.86-7.87,16.1-22.16,16.1-15.38,0-23.07-7.33-23.07-17.46h14c.09,3.71,3,6.24,9.59,6.24,5,0,7.51-1.72,7.51-4.25,0-2.71-1.45-4.07-7.33-5.06l-7.05-1.18c-12-1.9-15.65-7.87-15.65-15.11,0-8.95,7.32-15.83,21.34-15.83S164.65,351.59,164.65,361.18Z" fill="#1c2126"/><path d="M224,345.26V413H209.88V389.94c-3.35,4.44-8.6,7.15-15.74,7.15-13.12,0-22.43-9.41-22.43-26.5s9.31-26.51,22.43-26.51c7.14,0,12.39,2.63,15.74,7.06v-5.88Zm-14.11,25c0-9-4.71-14-11.67-14-6.79,0-11.76,5.16-11.76,14s5,14,11.76,14C205.17,384.24,209.88,379.18,209.88,370.22Z" fill="#1c2126"/><path d="M279.61,345.26v50.56H265.5V390.4c-2.8,4-7.69,6.69-13.84,6.69-11.12,0-18.36-8.32-18.36-23.25V345.26h14.11v26c0,7.69,3.53,12,9,12s9.13-4.61,9.13-11.94V345.26Z" fill="#1c2126"/><path d="M339.67,374.75H302.31c.73,6.06,4.8,10.22,11.49,10.22,5,0,8.32-1.63,9.86-4.52h15c-2.9,9.49-12.13,16.28-25.06,16.28-15.83,0-26.23-10.41-26.23-26.14s10.22-26.24,26.14-26.24,26.14,10.32,26.14,26Zm-37.18-9.68h22.26c-1-5.7-5.43-9-11.22-9A11.1,11.1,0,0,0,302.49,365.07Z" fill="#1c2126"/><path d="M397.2,374.75H359.84c.72,6.06,4.79,10.22,11.49,10.22,5,0,8.32-1.63,9.86-4.52h15c-2.89,9.49-12.12,16.28-25.05,16.28-15.83,0-26.23-10.41-26.23-26.14s10.22-26.24,26.14-26.24,26.14,10.32,26.14,26ZM360,365.07h22.25c-1-5.7-5.43-9-11.21-9A11.1,11.1,0,0,0,360,365.07Z" fill="#1c2126"/><path d="M447.85,383.88v11.94H405.24V383.88h.09l26.15-26.68H405.7V345.26h41.7V357.2h-.1l-26.68,26.68Z" fill="#1c2126"/><path d="M504.38,374.75H467c.72,6.06,4.79,10.22,11.49,10.22,5,0,8.32-1.63,9.86-4.52h15c-2.89,9.49-12.12,16.28-25.05,16.28-15.83,0-26.23-10.41-26.23-26.14s10.22-26.24,26.14-26.24,26.14,10.32,26.14,26Zm-37.18-9.68h22.25c-1-5.7-5.42-9-11.21-9A11.1,11.1,0,0,0,467.2,365.07Z" fill="#1c2126"/><rect x="110.13" y="197.3" width="404.44" height="107.59" rx="16.57" fill="#ffdd73" stroke="#1c2126" stroke-linejoin="round" stroke-width="2"/><circle cx="155.26" cy="234.09" r="8.08" fill="none" stroke="#1c2126" stroke-miterlimit="10" stroke-width="2"/><circle cx="189.45" cy="234.09" r="8.08" fill="none" stroke="#1c2126" stroke-miterlimit="10" stroke-width="2"/><circle cx="155.26" cy="275.51" r="8.08" fill="none" stroke="#1c2126" stroke-miterlimit="10" stroke-width="2"/><line x1="155.26" y1="242.16" x2="155.26" y2="267.59" fill="none" stroke="#1c2126" stroke-miterlimit="10" stroke-width="2"/><path d="M165.51,254.88h17.72a6.23,6.23,0,0,0,6.22-6.22v-6.5" fill="none" stroke="#1c2126" stroke-miterlimit="10" stroke-width="2"/><path d="M171.42,254.88h-9.94a6.22,6.22,0,0,0-6.22,6.22v6.49" fill="none" stroke="#1c2126" stroke-miterlimit="10" stroke-width="2"/><path d="M231,235.05h6.27l.64,6.5h.25c3.92-4.23,8.61-7.6,13.95-7.6,6.86,0,10.53,3.28,12.38,8.54,4.65-5,9.33-8.54,14.78-8.54,9.22,0,13.64,6.09,13.64,17.53v28.4h-7.58V252.46c0-8.35-2.64-11.93-8.34-11.93-3.48,0-7.09,2.28-11.24,6.89v32.46h-7.59V252.46c0-8.35-2.64-11.93-8.34-11.93-3.36,0-7.09,2.28-11.23,6.89v32.46H231Z"/><path d="M304.66,268.25c0-9.77,8.43-14.65,27.54-16.73,0-5.77-1.94-11.32-9.26-11.32-5.18,0-9.85,2.45-13.37,4.8l-3-5.2c4.13-2.71,10.42-5.85,17.61-5.85,10.94,0,15.57,7.27,15.57,18.43v27.5h-6.27l-.63-5.36h-.26c-4.27,3.56-9.26,6.47-14.82,6.47C310.29,281,304.66,276.33,304.66,268.25Zm27.54.7V256.5c-15,1.8-20.11,5.48-20.11,11.21,0,5.1,3.46,7.17,7.86,7.17S327.85,272.77,332.2,269Z"/><path d="M352.53,220.94c0-3,2.29-4.9,5.24-4.9S363,218,363,220.94a5.25,5.25,0,0,1-10.48,0Zm1.39,14.11h7.58v44.83h-7.58Z"/><path d="M376.6,235.05h6.27l.64,6.47h.25c4.27-4.2,8.88-7.57,15-7.57,9.44,0,13.69,6.09,13.69,17.53v28.4H404.9V252.46c0-8.35-2.52-11.93-8.46-11.93-4.58,0-7.76,2.35-12.25,6.89v32.46H376.6Z"/><polygon points="454.62 252.48 467.64 263.57 480.67 252.48 454.62 252.48" fill="#1c2126" stroke="#1c2126" stroke-linecap="round" stroke-linejoin="round" stroke-width="2"/><path d="M868.94,128.32s16.19-34.79,56.21-25.25C925.15,103.07,900.2,152.18,868.94,128.32Z" fill="#30c8c9" stroke="#1c2126" stroke-linejoin="round" stroke-width="2"/><path d="M1000,264.37s-3.33-38.23,36.1-49.93C1036.14,214.44,1039,269.45,1000,264.37Z" fill="#30c8c9" stroke="#1c2126" stroke-linejoin="round" stroke-width="2"/><path d="M717.46,173.42s-31.54-21.86-15.35-59.68C702.11,113.74,746.28,146.66,717.46,173.42Z" fill="#30c8c9" stroke="#1c2126" stroke-linejoin="round" stroke-width="2"/><path d="M727.22,178.28s-.6-23.42,23.86-29.08C751.08,149.2,750.79,182.82,727.22,178.28Z" fill="#30c8c9" stroke="#1c2126" stroke-linejoin="round" stroke-width="2"/><path d="M693.46,232.43s-17.26,15.84-37.59,1.11C655.87,233.54,681.41,211.67,693.46,232.43Z" fill="#30c8c9" stroke="#1c2126" stroke-linejoin="round" stroke-width="2"/><path d="M843.06,75.16s-18.95-2.9-20-23.42C823.09,51.74,850.13,56.83,843.06,75.16Z" fill="#30c8c9" stroke="#1c2126" stroke-linejoin="round" stroke-width="2"/><path d="M853.67,85.78S870.5,76.59,864.46,57C864.46,57,840.78,71,853.67,85.78Z" fill="#30c8c9" stroke="#1c2126" stroke-linejoin="round" stroke-width="2"/><path d="M736.55,203.9s-12,12.91-8.18,36.8" fill="none" stroke="#1c2126" stroke-linejoin="round" stroke-width="2"/><path d="M783,299.09c-1.76-31.75-19.75-40.85-40.25-45.91-7.51-18.58-21.23-15.71-23.13,3.9-12,15.85-24.76,25.47-22,50.18s17.09,33.65,30,41c8.49,1.89,9.54,14.65,17.09,14.65s11.28-6.34,11.61-11.89C773.56,331.71,784.8,330.85,783,299.09Z" fill="#ffdd73" stroke="#1c2126" stroke-linejoin="round" stroke-width="2"/><path d="M720.36,297.43s7.2-7.44,14.63,0" fill="none" stroke="#1c2126" stroke-linecap="round" stroke-miterlimit="10" stroke-width="2"/><path d="M745.46,297.43s7.2-7.44,14.64,0" fill="none" stroke="#1c2126" stroke-linecap="round" stroke-miterlimit="10" stroke-width="2"/><path d="M724.64,306.12c.25,7.86,7.22,14.16,15.8,14.16s15.55-6.3,15.8-14.16Z" fill="#7a122d" stroke="#1c2126" stroke-linecap="round" stroke-linejoin="round" stroke-width="2"/><path d="M729.92,240.75s11-20.67,35.1-13.54C765,227.21,748.19,256.33,729.92,240.75Z" fill="#30c8c9" stroke="#1c2126" stroke-linejoin="round" stroke-width="2"/><path d="M821.34,231.29s31.78,15.53,24.31,54.36" fill="none" stroke="#1c2126" stroke-linejoin="round" stroke-width="2"/><path d="M800.26,350.29c-3-31.67,13.48-43.33,33-51.37,4.68-19.49,18.67-18.69,23.45.42C871,313.24,885,320.86,886,345.7s-11.91,35.81-23.55,45c-8.11,3.13-7.27,15.9-14.73,17s-12.1-4.6-13.24-10C814.46,381.14,803.22,382,800.26,350.29Z" fill="#ffdd73" stroke="#1c2126" stroke-linejoin="round" stroke-width="2"/><path d="M823.09,341.1s7.2-7.43,14.64,0" fill="none" stroke="#1c2126" stroke-linecap="round" stroke-miterlimit="10" stroke-width="2"/><path d="M848.19,341.1s7.2-7.43,14.64,0" fill="none" stroke="#1c2126" stroke-linecap="round" stroke-miterlimit="10" stroke-width="2"/><path d="M827.37,349.79c.26,7.86,7.22,14.17,15.8,14.17s15.55-6.31,15.81-14.17Z" fill="#7a122d" stroke="#1c2126" stroke-linecap="round" stroke-linejoin="round" stroke-width="2"/><path d="M844.9,284.2s-8.76-21.72-33.45-17.19C811.45,267,825.08,297.74,844.9,284.2Z" fill="#30c8c9" stroke="#1c2126" stroke-linejoin="round" stroke-width="2"/><polygon points="996.08 244.62 990.99 242.39 996.14 312.6 1011.86 333.36 996.08 244.62" fill="#1c2126" opacity="0.1"/><path d="M665.94,293a8,8,0,0,0-3.15-1.77c-2-.72-4.26-1.19-6.24-.4s-3.41,2.88-4.22,5a18.54,18.54,0,0,0-1.2,5.85,14.72,14.72,0,0,0-7.32-3.86,9.23,9.23,0,0,0-7.89,2.18,6.76,6.76,0,0,0-1.47,7.77c1.28,2.39,4,3.56,6.54,4.54q9.48,3.65,19.09,7l6-16.06C667.38,299.88,668.48,295.61,665.94,293Z" fill="#ff6b60" stroke="#1c2126" stroke-linecap="round" stroke-linejoin="round" stroke-width="2"/><path d="M941.25,385.24a8,8,0,0,0-.52-3.57c-.66-2-1.66-4.1-3.49-5.19s-4.37-.94-6.51-.31a18.42,18.42,0,0,0-5.36,2.62,14.81,14.81,0,0,0-1.42-8.15,9.23,9.23,0,0,0-6.54-4.91,6.75,6.75,0,0,0-7.06,3.57c-1.11,2.48-.37,5.35.41,7.95q2.9,9.75,6.11,19.4l16.4-5C936.72,390.55,940.77,388.82,941.25,385.24Z" fill="#db4648" stroke="#1c2126" stroke-linecap="round" stroke-linejoin="round" stroke-width="2"/></svg>