<svg xmlns="http://www.w3.org/2000/svg" xmlns:xlink="http://www.w3.org/1999/xlink" width="1200" height="630" viewBox="0 0 1200 630"><defs><clipPath id="a"><rect width="1200" height="498.72" fill="none"/></clipPath><radialGradient id="b" cx="1097.44" cy="565" r="111.35" gradientUnits="userSpaceOnUse"><stop offset="0" stop-color="#20c6b7"/><stop offset="1" stop-color="#4d9abf"/></radialGradient></defs><rect x="-70.07" y="-1558.85" width="6221.73" height="2273.11" fill="#a6a6a6"/><rect width="1200" height="498.72" fill="#b7303d"/><g clip-path="url(#a)"><rect x="37.57" y="101" width="500.94" height="687.26" rx="250.47" fill="#ff6b60"/></g><path d="M737,122.7v43.08h-9.59V122.7Z" fill="#fff"/><path d="M794.74,146.59h-9.31a6.11,6.11,0,0,0-6.36-5.62c-4.2,0-7.09,3.24-7.09,9s2.89,8.91,7.09,8.91a6.1,6.1,0,0,0,6.36-5.56h9.31c-.23,7.38-6.53,13.28-15.67,13.28-10.21,0-16.34-6.64-16.34-16.63s6.13-16.63,16.34-16.63C788.21,133.31,794.51,139.16,794.74,146.59Z" fill="#fff"/><path d="M828.51,147.67v18.11h-8.85v-3.46c-2.22,2.55-5.68,4-10.33,4-6.65,0-10.79-3.35-10.79-8.86,0-5,3.29-8.8,11.58-10.22l9.54-1.58c0-3.07-1.93-4.83-5.51-4.83s-5.11,1.48-5.34,3.92h-9c.17-5.85,4.93-11.3,14.3-11.3C823.29,133.48,828.51,138.59,828.51,147.67Zm-8.85,4.77V152l-7.27,1.19c-3.8.62-4.77,1.93-4.77,3.57,0,1.42,1.36,2.45,3.92,2.45C816.42,159.2,819.66,156.47,819.66,152.44Z" fill="#fff"/><path d="M864.27,147.84v17.94h-8.85V149.54c0-4.88-2.33-7.6-5.91-7.6s-6.13,2.95-6.13,7.55v16.29h-8.85V134.05h8.85v3.57a10.75,10.75,0,0,1,9-4.31C859.62,133.31,864.27,138.48,864.27,147.84Z" fill="#fff"/><path d="M876,127.12c0,4.6-2.33,8-7.66,9.71l-1.2.4L865.8,133l1.19-.34c2.5-.74,3.81-1.82,4.32-3.47a5.94,5.94,0,0,1-1.08.12,4.56,4.56,0,0,1-4.83-4.54,4.65,4.65,0,0,1,5-4.72C873.92,120.08,876,122.87,876,127.12Z" fill="#fff"/><path d="M901.05,141.54h-6.87v24.24h-8.85V141.54h-6v-7.49h6v-10h8.85v10h6.87Z" fill="#fff"/><path d="M956.84,134.05v33.66c0,6.92-4.25,11.24-11.18,11.24h-15.1v-7.49h13.68c2.56,0,3.75-1.25,3.75-3.75v-6.53c-2.1,2.73-5.39,4.43-9.88,4.43-8.23,0-14.07-5.73-14.07-16.23s5.84-16.07,14.07-16.07c4.49,0,7.78,1.65,9.88,4.43v-3.69ZM948,149.15c0-5.17-3-8.23-7.32-8.23s-7.38,3.06-7.38,8.23,3.12,8.46,7.38,8.46S948,154.37,948,149.15Z" fill="#fff"/><path d="M993.85,152.55H970.41a6.82,6.82,0,0,0,7.21,6.42c3.12,0,5.22-1,6.18-2.84h9.43c-1.82,6-7.61,10.22-15.73,10.22-9.93,0-16.46-6.53-16.46-16.41s6.42-16.46,16.41-16.46,16.4,6.47,16.4,16.35Zm-23.33-6.07h14c-.63-3.58-3.41-5.62-7-5.62A7,7,0,0,0,970.52,146.48Z" fill="#fff"/><path d="M1017.12,141.54h-6.87v24.24h-8.85V141.54h-6v-7.49h6v-10h8.85v10h6.87Z" fill="#fff"/><path d="M700.49,210.05l-17.6,42.17h-8.57l4.88-11.63-12.37-30.54h8.91l8,19.75,8.23-19.75Z" fill="#fff"/><path d="M734.72,225.94c0,9.48-6.08,16.63-16.69,16.63s-16.75-7.15-16.75-16.63,6.08-16.63,16.75-16.63S734.72,216.46,734.72,225.94Zm-24.19,0c0,5.23,2.9,8.57,7.5,8.57s7.43-3.34,7.43-8.57-2.84-8.57-7.43-8.57S710.53,220.72,710.53,225.94Z" fill="#fff"/><path d="M767.92,210.05v31.73h-8.85v-3.41a10.37,10.37,0,0,1-8.69,4.2c-7,0-11.52-5.22-11.52-14.58V210.05h8.85v16.29c0,4.83,2.22,7.55,5.62,7.55s5.74-2.9,5.74-7.49V210.05Z" fill="#fff"/><path d="M826.61,225.94c0,9.48-6.07,16.63-16.69,16.63s-16.74-7.15-16.74-16.63,6.07-16.63,16.74-16.63S826.61,216.46,826.61,225.94Zm-24.18,0c0,5.23,2.89,8.57,7.49,8.57s7.44-3.34,7.44-8.57-2.84-8.57-7.44-8.57S802.43,220.72,802.43,225.94Z" fill="#fff"/><path d="M859.81,210.05v31.73H851v-3.41a10.37,10.37,0,0,1-8.69,4.2c-7,0-11.52-5.22-11.52-14.58V210.05h8.86v16.29c0,4.83,2.21,7.55,5.62,7.55S851,231,851,226.4V210.05Z" fill="#fff"/><path d="M886.38,217.54h-6.87v24.24h-8.86V217.54h-6v-7.49h6v-10h8.86v10h6.87Z" fill="#fff"/><path d="M942.8,225.94c0,9.48-6.08,16.63-16.69,16.63s-16.75-7.15-16.75-16.63,6.08-16.63,16.75-16.63S942.8,216.46,942.8,225.94Zm-24.18,0c0,5.23,2.89,8.57,7.49,8.57s7.43-3.34,7.43-8.57-2.83-8.57-7.43-8.57S918.62,220.72,918.62,225.94Z" fill="#fff"/><path d="M959,206.19v3.86h6.64v7.49H959v24.24h-8.85V217.54h-5.11v-7.49h5.11v-3.8c0-6.19,3.69-10.05,10.21-10.05h6.19v6.87h-4.37C960.05,203.07,959,204.15,959,206.19Z" fill="#fff"/><path d="M1039.23,223.84v17.94h-8.85v-16.4c0-5.23-2.1-7.95-5.45-7.95s-5.45,2.95-5.45,7.89v16.46h-8.86v-16.4c0-5.23-2.1-7.95-5.44-7.95s-5.45,2.95-5.45,7.89v16.46h-8.86V210.05h8.86v3.46a9.5,9.5,0,0,1,8.23-4.2,10.42,10.42,0,0,1,9.36,5,11.15,11.15,0,0,1,9.6-5C1034.35,209.31,1039.23,214.87,1039.23,223.84Z" fill="#fff"/><path d="M1074.82,210.05l-17.6,42.17h-8.57l4.88-11.63-12.37-30.54h8.91l8,19.75,8.23-19.75Z" fill="#fff"/><rect x="590.77" y="283.93" width="560.11" height="83.36" rx="10.5" fill="#1c2126" opacity="0.2"/><path d="M619.25,328.07v.61l21.18,10.67v8.41l-29.11-16.12V325.1L640.43,309v8.41Z" fill="#fff"/><path d="M651.37,300.11h7.29v19.73h.48c1.78-4.28,5.77-6.73,11-6.73,7.7,0,11.89,4.64,11.89,13.12v22.82h-7.51v-21c0-5.65-2.35-8.39-7.22-8.39-5.09,0-8.45,3.55-8.45,8.9v20.47h-7.48Z" fill="#fff"/><path d="M723,339.48c-.84,6.06-6.83,10.28-14.73,10.28-10.06,0-15.87-5.77-15.87-15.83v-5.51c0-9.25,6.23-15.38,15.61-15.38s15.06,6.09,15.06,15.9v4.28H699.81v1.71c0,5.39,3.32,8.87,8.44,8.87,3.91,0,6.9-1.71,7.65-4.32Zm-23.21-11.29h16c0-5.73-3-9.22-7.9-9.22S699.81,322.42,699.81,328.19Z" fill="#fff"/><path d="M732.86,339c0-6.32,4.58-10.06,13-10.58l8.83-.52v-3c0-3.65-2.35-5.71-6.48-5.71-3.45,0-6,1.48-6.74,4.06h-7.35c.65-6.09,6.35-10.12,14.29-10.12,8.73,0,13.7,4.29,13.7,11.83v24.05H755v-4.93h-.67c-1.71,3.52-5.48,5.51-10.29,5.51C737.35,349.63,732.86,345.38,732.86,339Zm21.86-2.81V333l-7.7.41c-4.42.26-6.71,2-6.71,5.16s2.39,5,6.16,5C751.24,343.51,754.72,340.45,754.72,336.19Z" fill="#fff"/><path d="M772.79,334.51v-6.28c0-9.39,5-15.09,13.12-15.09,5.09,0,8.74,2.29,10.06,6.38h.64V300.11h7.74v48.94h-7.61v-5.8h-.64c-1.48,4.13-5.06,6.35-10.19,6.35C777.82,349.6,772.79,343.93,772.79,334.51Zm24-.45v-5.51c0-5.58-3.13-9-8.16-9s-8.19,3.48-8.19,9v5.51c0,5.55,3.13,9,8.19,9S796.78,339.61,796.78,334.06Z" fill="#fff"/><path d="M815.45,309l29.12,16.12v6.54l-29.12,16.12v-8.41l21.18-10.67v-.61l-21.18-10.68Z" fill="#fff"/><path d="M864.21,328.07v.61l21.18,10.67v8.41l-29.11-16.12V325.1L885.39,309v8.41Z" fill="#fff"/><path d="M896.75,355.05l22.18-58.52h7.61L904.2,355.05Z" fill="#fff"/><path d="M937.16,300.11h7.28v19.73h.49c1.77-4.28,5.77-6.73,11-6.73,7.71,0,11.9,4.64,11.9,13.12v22.82h-7.51v-21c0-5.65-2.36-8.39-7.23-8.39-5.09,0-8.44,3.55-8.44,8.9v20.47h-7.48Z" fill="#fff"/><path d="M1008.81,339.48c-.84,6.06-6.84,10.28-14.74,10.28-10.06,0-15.86-5.77-15.86-15.83v-5.51c0-9.25,6.22-15.38,15.6-15.38s15.06,6.09,15.06,15.9v4.28H985.59v1.71c0,5.39,3.32,8.87,8.45,8.87,3.9,0,6.9-1.71,7.64-4.32Zm-23.22-11.29h16c0-5.73-3-9.22-7.89-9.22S985.59,322.42,985.59,328.19Z" fill="#fff"/><path d="M1018.65,339c0-6.32,4.58-10.06,13-10.58l8.83-.52v-3c0-3.65-2.35-5.71-6.48-5.71-3.45,0-6,1.48-6.74,4.06h-7.35c.64-6.09,6.35-10.12,14.28-10.12,8.74,0,13.71,4.29,13.71,11.83v24.05h-7.13v-4.93h-.68c-1.71,3.52-5.48,5.51-10.28,5.51C1023.13,349.63,1018.65,345.38,1018.65,339Zm21.86-2.81V333l-7.71.41c-4.41.26-6.7,2-6.7,5.16s2.38,5,6.16,5C1037,343.51,1040.51,340.45,1040.51,336.19Z" fill="#fff"/><path d="M1058.57,334.51v-6.28c0-9.39,5-15.09,13.13-15.09,5.09,0,8.73,2.29,10,6.38h.65V300.11h7.74v48.94h-7.61v-5.8h-.65c-1.48,4.13-5.06,6.35-10.18,6.35C1063.6,349.6,1058.57,343.93,1058.57,334.51Zm24-.45v-5.51c0-5.58-3.13-9-8.16-9s-8.19,3.48-8.19,9v5.51c0,5.55,3.13,9,8.19,9S1082.56,339.61,1082.56,334.06Z" fill="#fff"/><path d="M1101.24,309l29.11,16.12v6.54l-29.11,16.12v-8.41l21.18-10.67v-.61l-21.18-10.68Z" fill="#fff"/><path d="M197,405c-15.53,0-29.6-6-38.62-16.37A39.46,39.46,0,0,1,151.47,377a52.22,52.22,0,0,1-19.05,3.64,48.24,48.24,0,0,1-14.27-2.12c-5.92-1.83-10.42-4.48-13.77-8.13-6.86-7.45-7.47-17.29-6.6-25.34A26.6,26.6,0,0,1,80.3,328.47C77,318.84,79,307.19,85.72,297.3a70.34,70.34,0,0,1,13.51-14.24c-4.55-8.43-8.85-21.41-4.7-32.14,2.16-5.57,7.07-12,18.2-14.41a28.67,28.67,0,0,1,1-8.79,34.71,34.71,0,0,1,16.84-21.27c6.81-3.66,14.72-5.44,24.17-5.44,1.56,0,3.17.05,4.86.15a30.8,30.8,0,0,1,3-10.91A36.73,36.73,0,0,1,179,173.56c7.21-3.59,15.42-5.27,25.85-5.27,2.74,0,5.47.12,8.12.29a43.85,43.85,0,0,1,29.06-21,41.82,41.82,0,0,1,8.31-.82,44.43,44.43,0,0,1,21.84,5.75,17.31,17.31,0,0,1,11.17-4.31h.47a23.14,23.14,0,0,1,12.05,4.12,48.93,48.93,0,0,1,28.23-8.92A46.13,46.13,0,0,1,339.37,146a48.65,48.65,0,0,1,29.54,30.21,56.12,56.12,0,0,1,10-.94,37.81,37.81,0,0,1,15.68,3.18,29,29,0,0,1,15.05,16.3,56.9,56.9,0,0,1,5.69-.29,51.86,51.86,0,0,1,24.52,6c11.63,6.24,20.83,17.55,25.25,31a56,56,0,0,1,1.33,30.66c5.09,2.72,10.17,7.33,15,13.72,13.82,18.18,24.37,49,17.8,72.63-3.16,11.38-13.93,19-26.79,19h0a28.85,28.85,0,0,1-11.1-2.15c-5.43,10.65-13.28,18.95-22.79,23.89A42.59,42.59,0,0,1,419,394a38.3,38.3,0,0,1-19.62-5.17,61,61,0,0,1-38.13,12.89c-15.81,0-31.53-5.76-40.11-14.7-11.15,10.05-25.61,15.45-41.86,15.45-15.37,0-30.78-5.12-38.84-12.82-11.64,8.08-23.3,13-34.76,14.73A59.29,59.29,0,0,1,197,405Z" fill="#ff6b60"/><path d="M324.12,151.94A37.94,37.94,0,0,1,336.57,154a40,40,0,0,1,26,32.4,61.34,61.34,0,0,1,16.37-2.65,29.22,29.22,0,0,1,12.17,2.42c7.05,3.19,12.23,11.14,11.54,18.45a49.73,49.73,0,0,1,12.71-1.68,43.25,43.25,0,0,1,20.5,5c20.4,11,29.58,38.93,19.63,59.85h.35c18.1,0,43.79,47.69,35.25,78.43-2.31,8.33-10.5,12.81-18.6,12.81a18.42,18.42,0,0,1-14.86-6.85c-3.89,12.19-11.59,23.64-23,29.55A34.29,34.29,0,0,1,419,385.49c-7.43,0-14.75-2.45-20.05-7.63a52.52,52.52,0,0,1-37.7,15.35c-20.73,0-38.66-11.1-38.13-21.15C311.48,388.37,294.56,394,279.27,394c-19.64,0-36.6-9.24-36.3-16.89-11.22,9.16-24.22,16.75-38.55,18.88a49.19,49.19,0,0,1-7.39.55c-12.12,0-24.33-4.36-32.2-13.44a32.38,32.38,0,0,1-7.59-18.72,43.6,43.6,0,0,1-24.82,7.82,40.18,40.18,0,0,1-11.77-1.74,22.41,22.41,0,0,1-10-5.76c-6.57-7.14-4.87-18.32-2.76-27.79a12.47,12.47,0,0,1-3.85.6c-6.76,0-13.41-5.18-15.68-11.78-2.71-7.85-.25-16.75,4.41-23.62s11.32-12.11,17.86-17.24C106,280.62,86.77,244,122.75,244h.9c-6.32-10.16.36-24.44,10.91-30.09,6.17-3.32,13.09-4.43,20.15-4.43a102.52,102.52,0,0,1,15,1.29c-5.21-10.8,2.4-24.29,13.13-29.63,6.81-3.4,14.38-4.38,22.06-4.38,4.42,0,8.88.33,13.24.7a35.56,35.56,0,0,1,25.62-21.55,33.49,33.49,0,0,1,6.63-.65,35.61,35.61,0,0,1,25.34,10.59c-1.93-4.33,2.93-9.15,7.67-9.15h.21c4.8.14,8.86,3.41,12.53,6.52a40,40,0,0,1,28-11.32m0-17v0a57.71,57.71,0,0,0-28.56,7.56,29.59,29.59,0,0,0-11.46-2.76h-.73a25.33,25.33,0,0,0-11.83,3,52.93,52.93,0,0,0-21.18-4.43,50.44,50.44,0,0,0-10,1,52.39,52.39,0,0,0-31.83,20.57c-1.21,0-2.44-.06-3.67-.06-11.63,0-21.33,2-29.64,6.16A45.44,45.44,0,0,0,155,186.57a40.44,40.44,0,0,0-2.32,6c-10,.25-18.55,2.36-26.11,6.42a43.34,43.34,0,0,0-21,26.57,39.34,39.34,0,0,0-.94,4.59,30.77,30.77,0,0,0-18,17.73c-3.36,8.7-2.95,19.27,1.21,30.57.3.8.62,1.64,1,2.5a68.7,68.7,0,0,0-10.1,11.61c-8.21,12.08-10.61,26.55-6.43,38.7A34.94,34.94,0,0,0,89,350.69c0,8.35,2,17.75,9.13,25.49,4.34,4.71,10.24,8.24,17.52,10.49a56.77,56.77,0,0,0,16.78,2.5,60.28,60.28,0,0,0,14.64-1.82A46.24,46.24,0,0,0,152,394.2C162.62,406.47,179,413.51,197,413.51a68.19,68.19,0,0,0,9.9-.73c11-1.64,22-5.89,33-12.68,10,6.74,24.55,10.87,39.3,10.87,15.71,0,30-4.48,41.69-12.9,10.44,7.61,25.15,12.14,40.28,12.14a70.46,70.46,0,0,0,38.88-11.49A47.87,47.87,0,0,0,419,402.49a51.09,51.09,0,0,0,23.5-5.7,60.56,60.56,0,0,0,22.92-21.42,38,38,0,0,0,7,.64,38.59,38.59,0,0,0,20.7-6,33.75,33.75,0,0,0,14.28-19.26c4.41-15.88,1.68-32.31-1.38-43.3a111.42,111.42,0,0,0-17.84-36.74,63.37,63.37,0,0,0-12.37-12.6,65.16,65.16,0,0,0-2.67-29.29c-5.09-15.53-15.78-28.6-29.31-35.87a60.36,60.36,0,0,0-28.54-7h-.52a37.39,37.39,0,0,0-16.72-15.26,46.2,46.2,0,0,0-19.18-3.93c-1.52,0-3.06.06-4.64.18a57.09,57.09,0,0,0-32.1-29,54.74,54.74,0,0,0-18.05-3Z" fill="#7a122d"/><path d="M400.86,210.05c5-8.33-.92-19.87-9.78-23.88s-19.19-2.41-28.54.23a39.07,39.07,0,0,0-66.43-23.14c-3.67-3.11-7.73-6.38-12.53-6.52s-9.84,4.75-7.88,9.14a34.89,34.89,0,0,0-57.59,11.61c-11.94-1-24.57-1.67-35.3,3.68S164.47,200,169.68,210.8c-11.84-1.76-24.58-2.52-35.12,3.14S117.33,233.87,123.65,244c-37.19-.61-17.71,36.56-13,40.81-6.54,5.13-13.19,10.37-17.86,17.24s-7.12,15.77-4.41,23.62,11.61,13.7,19.53,11.18c-2.11,9.47-3.81,20.65,2.76,27.79a22.41,22.41,0,0,0,10,5.76,42.69,42.69,0,0,0,43.88-12.66" fill="#ffd3bf" stroke="#1c2126" stroke-linecap="round" stroke-linejoin="round" stroke-width="2"/><path d="M172.23,284.76c15.53-30.46,42.33-32,68.26-26.17,1.15-14.38,8.67-28.73,21.36-35.57s30.47-4.32,38.95,7.34c11.35-8.9,23.24-18.06,37.35-21.07s31.08,2.12,36.94,15.31c12-19.85,40.33-27.64,60.74-16.68s29.58,38.93,19.63,59.85c18.12-.62,44.19,47.49,35.6,78.43-3.93,14.16-24.88,17.23-33.46,6-3.89,12.19-11.59,23.64-23,29.55s-26.56,5.1-35.71-3.85c-29.48,29.37-76.68,10.41-75.83-5.8-26.58,37.24-80.67,18.64-80.14,5-11.22,9.16-24.22,16.75-38.55,18.88s-30.1-1.95-39.59-12.89-10.69-29.1-.74-39.62c-13.78-2.61-26.79-11.52-32-24.53s-1.12-29.81,10.82-37.17,36.83-.66,41,27.21" fill="#ffd3bf" stroke="#1c2126" stroke-linecap="round" stroke-linejoin="round" stroke-width="2"/><line x1="300.85" y1="167.07" x2="295.36" y2="162.63" fill="none" stroke="#1c2126" stroke-linecap="round" stroke-linejoin="round" stroke-width="2"/><line x1="277.83" y1="169.26" x2="275.7" y2="165.88" fill="none" stroke="#1c2126" stroke-linecap="round" stroke-linejoin="round" stroke-width="2"/><path d="M123.65,244s11.8,15.48,31.88,4.38" fill="none" stroke="#1c2126" stroke-linecap="round" stroke-linejoin="round" stroke-width="2"/><line x1="300.8" y1="230.36" x2="292.26" y2="236.84" fill="none" stroke="#1c2126" stroke-linecap="round" stroke-linejoin="round" stroke-width="2"/><path d="M408,366.26s-5.9,8.56-9.07,11.6" fill="none" stroke="#1c2126" stroke-linecap="round" stroke-linejoin="round" stroke-width="2"/><path d="M375.39,292.89s-10.16-10.49-20.65,0" fill="none" stroke="#1c2126" stroke-linecap="round" stroke-miterlimit="10" stroke-width="2"/><path d="M340,292.89s-10.17-10.49-20.66,0" fill="none" stroke="#1c2126" stroke-linecap="round" stroke-miterlimit="10" stroke-width="2"/><path d="M369.66,305.15c-.37,11.1-10.2,20-22.31,20s-21.94-8.89-22.3-20Z" fill="#7a122d" stroke="#1c2126" stroke-linecap="round" stroke-linejoin="round" stroke-width="2"/><line x1="259.6" y1="362.9" x2="241.35" y2="378.38" fill="none" stroke="#1c2126" stroke-linecap="round" stroke-linejoin="round" stroke-width="2"/><path d="M362.54,186.4a48.75,48.75,0,0,1-.83,10.06" fill="none" stroke="#1c2126" stroke-linecap="round" stroke-linejoin="round" stroke-width="2"/><path d="M213.81,177.15c9.25.94,17.26,3.13,23.52,6.25a28.73,28.73,0,0,1,6.83,4.24,9.6,9.6,0,0,1,3.39,7.05c-.09,3.61-2.88,6.6-5.94,8.51-9.45,5.86-31.09,1.07-41.32-3.3,0,0,39.76,13.25,12.73,30.46" fill="none" stroke="#1c2126" stroke-linecap="round" stroke-linejoin="round" stroke-width="2"/><path d="M155.53,236.66s-6,11.1,9.18,22.42" fill="none" stroke="#1c2126" stroke-linecap="round" stroke-linejoin="round" stroke-width="2"/><path d="M199.43,259.08s-17.25-4.93-17.25-16.69" fill="none" stroke="#1c2126" stroke-linecap="round" stroke-linejoin="round" stroke-width="2"/><path d="M119.51,292.41a26.94,26.94,0,0,1-8.9-7.57" fill="none" stroke="#1c2126" stroke-linecap="round" stroke-linejoin="round" stroke-width="2"/><path d="M326.25,177.15S294.91,200,266.67,183.4" fill="none" stroke="#1c2126" stroke-linecap="round" stroke-linejoin="round" stroke-width="2"/><path d="M296.46,189.43s9.7,21.21-8.91,31.5" fill="none" stroke="#1c2126" stroke-linecap="round" stroke-linejoin="round" stroke-width="2"/><path d="M332.3,193.35a24,24,0,0,1,5.85,15.94" fill="none" stroke="#1c2126" stroke-linecap="round" stroke-linejoin="round" stroke-width="2"/><path d="M122.67,341.14s-13.45-7.44-14.16-21.6" fill="none" stroke="#1c2126" stroke-linecap="round" stroke-linejoin="round" stroke-width="2"/><path d="M457.6,352.16s-7.37-6.27-11.47-26.18" fill="none" stroke="#1c2126" stroke-linecap="round" stroke-linejoin="round" stroke-width="2"/><path d="M457.6,324.52s-16.74-2.64-28.16,9.07" fill="none" stroke="#1c2126" stroke-linecap="round" stroke-linejoin="round" stroke-width="2"/><path d="M375.09,224.6s9.4,20.91-9.07,22.36" fill="none" stroke="#1c2126" stroke-linecap="round" stroke-linejoin="round" stroke-width="2"/><path d="M164.09,343.45s7.82-8.89,19.82,0" fill="none" stroke="#1c2126" stroke-linecap="round" stroke-linejoin="round" stroke-width="2"/><path d="M240.49,258.59s21.05,3.19,15.39,20.17" fill="none" stroke="#1c2126" stroke-linecap="round" stroke-linejoin="round" stroke-width="2"/><path d="M236,278.64a48.87,48.87,0,0,1,37.24,8" fill="none" stroke="#1c2126" stroke-linecap="round" stroke-linejoin="round" stroke-width="2"/><path d="M188.52,337.13s-6.6,5.75-4.61,14.38" fill="none" stroke="#1c2126" stroke-linecap="round" stroke-linejoin="round" stroke-width="2"/><path d="M240.49,284.84s.33-4.72-12.49-12.56" fill="none" stroke="#1c2126" stroke-linecap="round" stroke-linejoin="round" stroke-width="2"/><path d="M211.14,288.22s15.26,9.12,13,24.56" fill="none" stroke="#1c2126" stroke-linecap="round" stroke-linejoin="round" stroke-width="2"/><path d="M202.89,319.54a44.3,44.3,0,0,1,37.6-4.36" fill="none" stroke="#1c2126" stroke-linecap="round" stroke-linejoin="round" stroke-width="2"/><path d="M424.49,233.6s-20,8.33-27.65,28.45" fill="none" stroke="#1c2126" stroke-linecap="round" stroke-linejoin="round" stroke-width="2"/><path d="M374.19,259.76s19.2-2.38,28.5,6.2" fill="none" stroke="#1c2126" stroke-linecap="round" stroke-linejoin="round" stroke-width="2"/><path d="M290.91,254.63a33,33,0,0,0,29.29-3.76C334.87,241,343,234.56,352.94,233.6" fill="none" stroke="#1c2126" stroke-linecap="round" stroke-linejoin="round" stroke-width="2"/><path d="M347.35,230.36s8.87.22,5.59,6.48" fill="none" stroke="#1c2126" stroke-linecap="round" stroke-linejoin="round" stroke-width="2"/><path d="M323.11,372.06s8.3-10.57,12.11-18" fill="none" stroke="#1c2126" stroke-linecap="round" stroke-linejoin="round" stroke-width="2"/><path d="M307.18,346.2s25.12,12.89,52.05,4.54" fill="none" stroke="#1c2126" stroke-linecap="round" stroke-linejoin="round" stroke-width="2"/><path d="M228,346.2s29.54,8.36,42.42-7.13" fill="none" stroke="#1c2126" stroke-linecap="round" stroke-linejoin="round" stroke-width="2"/><path d="M262.34,335s3.51,5.27,14.92,4" fill="none" stroke="#1c2126" stroke-linecap="round" stroke-linejoin="round" stroke-width="2"/><path d="M405.16,297.82s14.56,23.8-6.22,43.65" fill="none" stroke="#1c2126" stroke-linecap="round" stroke-linejoin="round" stroke-width="2"/><path d="M455.46,267.77a129.52,129.52,0,0,1-13.39,22.79" fill="none" stroke="#1c2126" stroke-linecap="round" stroke-linejoin="round" stroke-width="2"/><line x1="107.87" y1="336.88" x2="113.31" y2="332.61" fill="none" stroke="#1c2126" stroke-linecap="round" stroke-linejoin="round" stroke-width="2"/><path d="M367.75,71.6a7.13,7.13,0,0,1,1.16-2.91,7.78,7.78,0,0,1,4-3.68,7.17,7.17,0,0,1,5.55,1,15.84,15.84,0,0,1,4,3.28,12.77,12.77,0,0,1,2.82-6.59,8,8,0,0,1,6.5-2.85A5.85,5.85,0,0,1,397,64.32c.45,2.31-.75,4.59-1.92,6.63q-4.39,7.64-9,15.14l-12.84-7.52C370.52,77,367.44,74.72,367.75,71.6Z" fill="#ffdd73" stroke="#1c2126" stroke-linejoin="round" stroke-width="2"/><path d="M411.68,43.19a8.32,8.32,0,0,1,3.15-1.77c2-.71,4.26-1.19,6.24-.4s3.41,2.88,4.22,5a18.06,18.06,0,0,1,1.2,5.85A14.79,14.79,0,0,1,433.81,48a9.23,9.23,0,0,1,7.89,2.17,6.75,6.75,0,0,1,1.48,7.77c-1.28,2.39-4,3.56-6.54,4.54q-9.5,3.66-19.09,7l-6-16.06C410.25,50,409.14,45.76,411.68,43.19Z" fill="#ffdd73" stroke="#1c2126" stroke-linejoin="round" stroke-width="2"/><path d="M395.08,107.7a8.62,8.62,0,0,1,3.56-1.46c2.21-.48,4.65-.69,6.64.41s3.21,3.49,3.79,5.8a19.26,19.26,0,0,1,.49,6.33,15.61,15.61,0,0,1,8.24-3.09,9.76,9.76,0,0,1,8,3.34,7.18,7.18,0,0,1,.53,8.4c-1.67,2.35-4.7,3.22-7.5,3.91q-10.5,2.61-21.08,4.86l-4.23-17.75C392.66,114.72,392.06,110.06,395.08,107.7Z" fill="#ffdd73" stroke="#1c2126" stroke-linejoin="round" stroke-width="2"/><rect y="500" width="1200" height="130" fill="#fff"/><rect x="1097.49" y="500" width="102.51" height="130" fill="url(#b)"/><line y1="499.19" x2="1200" y2="499.19" fill="none" stroke="#1c2126" stroke-miterlimit="10"/><line x1="1097.49" y1="498.72" x2="1097.49" y2="630" fill="none" stroke="#1c2126" stroke-miterlimit="10"/><path d="M35.09,576.62V557.86H28.7v-2.38H44.05v2.38H37.67v18.76Z" fill="#1c2126"/><path d="M54.92,577.06c-4.8,0-7.75-3.46-7.75-9.3v-3.41c0-5.85,2.95-9.31,7.75-9.31s7.75,3.46,7.75,9.31v3.41C62.67,573.6,59.73,577.06,54.92,577.06Zm5.14-9.32v-3.38c0-4.41-1.93-6.87-5.14-6.87s-5.14,2.46-5.14,6.87v3.38c0,4.41,1.93,6.88,5.14,6.88S60.06,572.15,60.06,567.74Z" fill="#1c2126"/><path d="M70.82,562.75a2.65,2.65,0,1,1,2.65,2.71A2.7,2.7,0,0,1,70.82,562.75Zm0,11.25a2.65,2.65,0,1,1,2.65,2.71A2.69,2.69,0,0,1,70.82,574Z" fill="#1c2126"/><path d="M209.27,581.51a14.89,14.89,0,0,1-5.34-.91,11.41,11.41,0,0,1-6.75-6.75,14.91,14.91,0,0,1-.93-5.39,14.58,14.58,0,0,1,1-5.4,11.83,11.83,0,0,1,2.76-4.18,12.58,12.58,0,0,1,4.26-2.72,14.82,14.82,0,0,1,5.43-1,14.26,14.26,0,0,1,4.87.8,11,11,0,0,1,3.8,2.26,9.83,9.83,0,0,1,2.44,3.51,11.69,11.69,0,0,1,.86,4.56,12.33,12.33,0,0,1-.75,4.5,6.89,6.89,0,0,1-2.07,3,4.86,4.86,0,0,1-3.12,1.05,3.48,3.48,0,0,1-2.73-1,3.58,3.58,0,0,1-.78-2.81l.54.15a6.19,6.19,0,0,1-2.18,2.75,5.2,5.2,0,0,1-3,.94,4.69,4.69,0,0,1-3.68-1.45,5.79,5.79,0,0,1-1.3-4,8.75,8.75,0,0,1,.85-3.94,6.69,6.69,0,0,1,2.36-2.7,6.14,6.14,0,0,1,3.42-1,4.45,4.45,0,0,1,2.77.81,3.8,3.8,0,0,1,1.4,2.28H213l.51-2.82h2l-1.38,7.77c0,.26-.08.51-.11.75s0,.46,0,.66a2.16,2.16,0,0,0,.46,1.5,1.81,1.81,0,0,0,1.4.51,2.93,2.93,0,0,0,2.1-.87,5.81,5.81,0,0,0,1.41-2.41,11.59,11.59,0,0,0,.51-3.62,10.11,10.11,0,0,0-.72-3.9,8.21,8.21,0,0,0-2.07-3,9.34,9.34,0,0,0-3.23-1.89,12.51,12.51,0,0,0-4.18-.66,12.93,12.93,0,0,0-4.73.83,10.42,10.42,0,0,0-3.63,2.34,10.18,10.18,0,0,0-2.32,3.64,13.24,13.24,0,0,0-.81,4.74,12.85,12.85,0,0,0,1.35,6.09,9.3,9.3,0,0,0,3.86,3.92,12.09,12.09,0,0,0,5.89,1.36,12.82,12.82,0,0,0,4.53-.76,8.71,8.71,0,0,0,3.36-2.18l1,1.47a9.5,9.5,0,0,1-3.8,2.34A15.33,15.33,0,0,1,209.27,581.51Zm-1.44-8.4a4,4,0,0,0,2.46-.79,5.3,5.3,0,0,0,1.69-2.21,8,8,0,0,0,.62-3.21,3.73,3.73,0,0,0-.75-2.55,3,3,0,0,0-2.37-.84,4.29,4.29,0,0,0-2.48.75,5.1,5.1,0,0,0-1.72,2.07,7,7,0,0,0-.63,3.06,4.12,4.12,0,0,0,.82,2.76A3,3,0,0,0,207.83,573.11Z" fill="#1c2126"/><path d="M227.27,576.62v-2.13h5V557.6h1.32l-5.82,3.63v-2.49l5.19-3.27h1.8v19h4.68v2.13Z" fill="#1c2126"/><path d="M245.27,576.62v-2.13h5V557.6h1.32l-5.82,3.63v-2.49l5.19-3.27h1.8v19h4.68v2.13Z" fill="#1c2126"/><path d="M267.17,576.89a4.37,4.37,0,0,1-3.39-1.27,5.55,5.55,0,0,1-1.17-3.86v-8.31h-2.94v-1.89h2.94v-4.11l2.43-.69v4.8h4.32v1.89H265v8a4.16,4.16,0,0,0,.61,2.57,2.23,2.23,0,0,0,1.85.76,4.52,4.52,0,0,0,1-.1,5.14,5.14,0,0,0,.81-.26v2a4.69,4.69,0,0,1-1,.29A6.46,6.46,0,0,1,267.17,576.89Z" fill="#1c2126"/><path d="M271.91,583.43l-.57-2a12.5,12.5,0,0,0,2.35-.76,4.67,4.67,0,0,0,1.58-1.16,6.51,6.51,0,0,0,1.08-1.8l.78-1.77-.06,1-6.57-15.39h2.64l5.43,13.23h-.78l5.37-13.23h2.55l-7,16.32a11.58,11.58,0,0,1-1.32,2.42,7.58,7.58,0,0,1-1.55,1.59,7,7,0,0,1-1.81,1A13.08,13.08,0,0,1,271.91,583.43Z" fill="#1c2126"/><circle cx="135.29" cy="563.72" r="40" fill="#1c2126"/><path d="M1163.33,555.54h0l0,0a.19.19,0,0,1,0-.15l1.25-7.62,5.84,5.85-6.08,2.58h-.08l0,0A2.57,2.57,0,0,0,1163.33,555.54Zm8.48-.46,6.25,6.25c1.3,1.3,2,1.95,2.19,2.7l.09.33L1165.4,558h0c-.06,0-.12,0-.12-.11s.07-.1.13-.12h0Zm8.27,11.29a11.28,11.28,0,0,1-2,2.3l-7,7.05-9.12-1.9h0c-.09,0-.17,0-.17-.1a2.75,2.75,0,0,0-1.06-1.93s0-.09,0-.14v0l1.71-10.52v0c0-.08,0-.17.1-.17a2.81,2.81,0,0,0,1.87-1.07.1.1,0,0,1,0,0,.22.22,0,0,1,.17,0l15.56,6.58Zm-10.68,11-11.59,11.58,2-12.19h0a.09.09,0,0,1,0-.05s0,0,.09-.07h0a2.88,2.88,0,0,0,1.12-.83.25.25,0,0,1,.15-.1h0l8.16,1.68Zm-14,14-1.31,1.3-14.44-20.87,0,0a.18.18,0,0,1,0-.1s0,0,0-.06v0a2.12,2.12,0,0,0,.12-.2l0-.06h0a.27.27,0,0,1,.08-.1.17.17,0,0,1,.12,0l16,3.3a.18.18,0,0,1,.12.05.09.09,0,0,1,0,.07,2.81,2.81,0,0,0,1.66,1.89s0,.08,0,.13l0,.07C1157.55,578,1155.82,588.53,1155.36,591.38Zm-2.73,2.72a6.1,6.1,0,0,1-2.17,1.67,3.24,3.24,0,0,1-2,0c-.75-.24-1.4-.89-2.7-2.19l-14.5-14.5,3.79-5.88a.2.2,0,0,1,.06-.07.16.16,0,0,1,.15,0A3.93,3.93,0,0,0,1138,573s.09,0,.12,0l0,0,14.51,21.06Zm-22.72-16.42-3.32-3.33,6.57-2.8h0s.09.05.11.1l.21.3,0,0a.09.09,0,0,1,0,.08l-3.63,5.63Zm-4.8-4.8-4.21-4.21c-.71-.71-1.23-1.23-1.59-1.68l12.8,2.65h0c.08,0,.17,0,.17.1s-.1.12-.18.15l0,0Zm-6.54-8a3.54,3.54,0,0,1,.15-.8c.24-.75.89-1.4,2.18-2.7l5.39-5.39q3.72,5.4,7.46,10.78c0,.06.09.13,0,.18a4.35,4.35,0,0,0-.63.85.28.28,0,0,1-.09.1H1133l-14.43-3Zm9.16-10.33,7.24-7.24c.68.3,3.16,1.34,5.38,2.28l3.68,1.56a.17.17,0,0,1,.11.09.12.12,0,0,1,0,.1,3.22,3.22,0,0,0,.85,2.94s0,.12,0,.18l0,0-7.35,11.38a.31.31,0,0,1-.07.09.22.22,0,0,1-.14,0,3.2,3.2,0,0,0-.87-.12,5.05,5.05,0,0,0-.84.1h0s-.06,0-.08,0a.3.3,0,0,1-.08-.08l-7.75-11.31Zm8.71-8.7,9.37-9.38c1.3-1.3,2-1.95,2.7-2.19a3.24,3.24,0,0,1,2,0c.75.24,1.4.89,2.7,2.19l2,2-6.67,10.33-.07.08a.22.22,0,0,1-.14,0,3.39,3.39,0,0,0-3.1.59s-.11,0-.16,0C1144.18,549.07,1137.41,546.21,1136.44,545.8Zm20.16-5.93,6.16,6.15-1.48,9.19v0a.14.14,0,0,1,0,.06s0,0-.08.05a2.8,2.8,0,0,0-.88.44l0,0a.1.1,0,0,1-.07,0s0,0-.07,0l-9.38-4h0c-.06,0-.13-.05-.13-.12a3.39,3.39,0,0,0-.5-1.47c0-.08-.09-.15,0-.23Zm-6.34,13.88,8.8,3.72a.19.19,0,0,1,.12.09.17.17,0,0,1,0,.1,1.79,1.79,0,0,0,0,.42v.25c0,.06-.06.08-.12.11h0l-19.58,8.35a.11.11,0,0,1-.09,0s0-.12,0-.18l0,0,7.23-11.19v0c0-.07.09-.15.17-.15l.07,0a3.75,3.75,0,0,0,.45,0,3.25,3.25,0,0,0,2.73-1.45l0-.06A.15.15,0,0,1,1150.26,553.75Zm-10.07,14.81,19.8-8.45a.09.09,0,0,1,.06,0,2.82,2.82,0,0,0,.29.25l0,0s.08.05.09.1a.08.08,0,0,1,0,0L1158.77,571v0c0,.08,0,.17-.1.17a2.75,2.75,0,0,0-2.21,1.37h0a.18.18,0,0,1-.08.09.14.14,0,0,1-.11,0l-15.8-3.25S1140.21,568.56,1140.19,568.56Z" fill="#fff"/><line x1="548.51" y1="498.72" x2="548.51" y2="630" fill="none" stroke="#1c2126" stroke-miterlimit="10"/><path d="M584.7,576.62V555.48h12.46v2.38h-9.87v7.25h9v2.3h-9v9.21Z" fill="#1c2126"/><path d="M604.74,568.2v8.42h-2.55V555.48h7.09c4.19,0,6.81,2.44,6.81,6.36a5.91,5.91,0,0,1-3.94,5.83l4.31,9h-2.92l-3.94-8.42Zm0-2.18h4.19c2.91,0,4.55-1.48,4.55-4.12s-1.61-4.12-4.44-4.12h-4.3Z" fill="#1c2126"/><path d="M627.34,577.06c-4.8,0-7.75-3.46-7.75-9.3v-3.41c0-5.85,2.95-9.31,7.75-9.31s7.75,3.46,7.75,9.31v3.41C635.09,573.6,632.14,577.06,627.34,577.06Zm5.14-9.32v-3.38c0-4.41-1.93-6.87-5.14-6.87s-5.14,2.46-5.14,6.87v3.38c0,4.41,1.93,6.88,5.14,6.88S632.48,572.15,632.48,567.74Z" fill="#1c2126"/><path d="M640.57,576.62h-2.3V555.48h2.88l4.65,13.13H646l4.61-13.13h2.9v21.14h-2.3v-8.11l.13-8.56h-.19l-4.25,11.71h-2L640.62,560h-.18l.13,8.56Z" fill="#1c2126"/><path d="M661.78,562.75a2.65,2.65,0,1,1,2.65,2.71A2.7,2.7,0,0,1,661.78,562.75Zm0,11.25a2.65,2.65,0,1,1,2.65,2.71A2.69,2.69,0,0,1,661.78,574Z" fill="#1c2126"/><path d="M804.86,581.51a14.89,14.89,0,0,1-5.34-.91,11.41,11.41,0,0,1-6.75-6.75,14.91,14.91,0,0,1-.93-5.39,14.58,14.58,0,0,1,1-5.4,11.83,11.83,0,0,1,2.76-4.18,12.58,12.58,0,0,1,4.26-2.72,14.82,14.82,0,0,1,5.43-1,14.31,14.31,0,0,1,4.88.8,11,11,0,0,1,3.79,2.26,10,10,0,0,1,2.45,3.51,11.69,11.69,0,0,1,.85,4.56,12.33,12.33,0,0,1-.75,4.5,6.89,6.89,0,0,1-2.07,3,4.86,4.86,0,0,1-3.12,1.05,3.48,3.48,0,0,1-2.73-1,3.58,3.58,0,0,1-.78-2.81l.54.15a6.18,6.18,0,0,1-2.17,2.75,5.24,5.24,0,0,1-3,.94,4.67,4.67,0,0,1-3.67-1.45,5.8,5.8,0,0,1-1.31-4,8.75,8.75,0,0,1,.86-3.94,6.66,6.66,0,0,1,2.35-2.7,6.14,6.14,0,0,1,3.42-1,4.48,4.48,0,0,1,2.78.81,3.79,3.79,0,0,1,1.39,2.28h-.36l.51-2.82h2l-1.38,7.77c0,.26-.07.51-.1.75a5.42,5.42,0,0,0,0,.66,2.16,2.16,0,0,0,.47,1.5,1.78,1.78,0,0,0,1.39.51,2.93,2.93,0,0,0,2.1-.87,5.81,5.81,0,0,0,1.41-2.41,11.59,11.59,0,0,0,.51-3.62,10.11,10.11,0,0,0-.72-3.9,8.21,8.21,0,0,0-2.07-3,9.29,9.29,0,0,0-3.22-1.89,12.57,12.57,0,0,0-4.19-.66,12.88,12.88,0,0,0-4.72.83,10.42,10.42,0,0,0-3.63,2.34,10.21,10.21,0,0,0-2.33,3.64,13.24,13.24,0,0,0-.81,4.74,12.85,12.85,0,0,0,1.35,6.09,9.35,9.35,0,0,0,3.86,3.92,12.12,12.12,0,0,0,5.89,1.36,12.82,12.82,0,0,0,4.53-.76,8.71,8.71,0,0,0,3.36-2.18l1,1.47A9.46,9.46,0,0,1,810,580.7,15.39,15.39,0,0,1,804.86,581.51Zm-1.44-8.4a4,4,0,0,0,2.46-.79,5.31,5.31,0,0,0,1.7-2.21,8,8,0,0,0,.61-3.21,3.73,3.73,0,0,0-.75-2.55,3,3,0,0,0-2.37-.84,4.26,4.26,0,0,0-2.47.75,5.12,5.12,0,0,0-1.73,2.07,7,7,0,0,0-.63,3.06,4.12,4.12,0,0,0,.83,2.76A2.93,2.93,0,0,0,803.42,573.11Z" fill="#1c2126"/><path d="M821.42,576.62V554.54h2.43v22.08Z" fill="#1c2126"/><path d="M828,583.43l-.57-2a12.62,12.62,0,0,0,2.36-.76,4.63,4.63,0,0,0,1.57-1.16,6.51,6.51,0,0,0,1.08-1.8l.78-1.77-.06,1-6.57-15.39h2.64l5.43,13.23h-.78l5.37-13.23h2.55l-7,16.32a11.58,11.58,0,0,1-1.32,2.42,7.55,7.55,0,0,1-1.54,1.59,7.06,7.06,0,0,1-1.82,1A13.08,13.08,0,0,1,828,583.43Z" fill="#1c2126"/><path d="M844.49,576.62V565c0-.56,0-1.13-.07-1.72s-.11-1.18-.17-1.76h2.34l.3,3.3h-.36a5.21,5.21,0,0,1,2.12-2.65,6.19,6.19,0,0,1,3.37-.92,5.35,5.35,0,0,1,4,1.43,6.29,6.29,0,0,1,1.36,4.48v9.42H855v-9.27a4.63,4.63,0,0,0-.85-3.1,3.36,3.36,0,0,0-2.66-1,4.38,4.38,0,0,0-3.33,1.29,4.79,4.79,0,0,0-1.23,3.45v8.61Z" fill="#1c2126"/><path d="M862.07,576.62V565c0-.56,0-1.13-.07-1.72s-.11-1.18-.17-1.76h2.34l.3,3.3h-.36a5.21,5.21,0,0,1,2.12-2.65,6.19,6.19,0,0,1,3.37-.92,5.35,5.35,0,0,1,4,1.43A6.29,6.29,0,0,1,875,567.2v9.42h-2.43v-9.27a4.63,4.63,0,0,0-.85-3.1,3.36,3.36,0,0,0-2.66-1,4.38,4.38,0,0,0-3.33,1.29A4.79,4.79,0,0,0,864.5,568v8.61Z" fill="#1c2126"/><path d="M885.38,576.89a6.44,6.44,0,0,1-3.51-.94,6.25,6.25,0,0,1-2.32-2.69,11,11,0,0,1,0-8.37,6.14,6.14,0,0,1,2.32-2.67,6.52,6.52,0,0,1,3.51-.93,6,6,0,0,1,3.53,1,4.85,4.85,0,0,1,2,2.8h-.36l.33-3.57h2.34c-.06.58-.11,1.17-.16,1.76s-.08,1.16-.08,1.72v11.58h-2.43v-3.54h.33a4.78,4.78,0,0,1-2,2.79A6,6,0,0,1,885.38,576.89Zm.48-2a4.25,4.25,0,0,0,3.42-1.48,8.14,8.14,0,0,0,0-8.7,4.65,4.65,0,0,0-6.82,0,8,8,0,0,0,0,8.7A4.25,4.25,0,0,0,885.86,574.91Z" fill="#1c2126"/><path d="M897.65,576.62V565c0-.56,0-1.13-.07-1.72s-.11-1.18-.17-1.76h2.34l.3,3.3h-.36a5.21,5.21,0,0,1,2.12-2.65,6.19,6.19,0,0,1,3.37-.92,5.35,5.35,0,0,1,4,1.43,6.29,6.29,0,0,1,1.36,4.48v9.42h-2.43v-9.27a4.63,4.63,0,0,0-.85-3.1,3.36,3.36,0,0,0-2.66-1,4.38,4.38,0,0,0-3.33,1.29,4.79,4.79,0,0,0-1.23,3.45v8.61Z" fill="#1c2126"/><path d="M920.93,576.89a6.39,6.39,0,0,1-3.48-.94,6.25,6.25,0,0,1-2.32-2.69,11,11,0,0,1,0-8.37,6.14,6.14,0,0,1,2.32-2.67,6.47,6.47,0,0,1,3.48-.93,6.09,6.09,0,0,1,3.53,1,4.93,4.93,0,0,1,2,2.76h-.36V554.54h2.43v22.08h-2.4V573h.33a4.86,4.86,0,0,1-2,2.84A6.08,6.08,0,0,1,920.93,576.89Zm.51-2a4.3,4.3,0,0,0,3.42-1.48,8,8,0,0,0,0-8.7,4.31,4.31,0,0,0-3.42-1.49,4.26,4.26,0,0,0-3.4,1.49,8,8,0,0,0,0,8.7A4.25,4.25,0,0,0,921.44,574.91Z" fill="#1c2126"/><path d="M938.57,576.89a4.37,4.37,0,0,1-3.39-1.27,5.55,5.55,0,0,1-1.17-3.86v-8.31h-2.94v-1.89H934v-4.11l2.43-.69v4.8h4.32v1.89h-4.32v8a4.16,4.16,0,0,0,.62,2.57,2.21,2.21,0,0,0,1.84.76,4.52,4.52,0,0,0,1-.1,5.14,5.14,0,0,0,.81-.26v2a4.59,4.59,0,0,1-1,.29A6.57,6.57,0,0,1,938.57,576.89Z" fill="#1c2126"/><path d="M949.76,576.89A7.26,7.26,0,0,1,946,576a6.3,6.3,0,0,1-2.48-2.7,10.4,10.4,0,0,1,0-8.33,6.31,6.31,0,0,1,2.48-2.68,7.27,7.27,0,0,1,3.76-1,7.37,7.37,0,0,1,3.8,1,6.39,6.39,0,0,1,2.49,2.68,10.3,10.3,0,0,1,0,8.33,6.39,6.39,0,0,1-2.49,2.7A7.36,7.36,0,0,1,949.76,576.89Zm0-2a4.25,4.25,0,0,0,3.42-1.48,8.14,8.14,0,0,0,0-8.7,4.64,4.64,0,0,0-6.81,0,8.14,8.14,0,0,0,0,8.7A4.21,4.21,0,0,0,949.76,574.91Z" fill="#1c2126"/><path d="M960.71,576.62V565c0-.56,0-1.13-.07-1.72s-.11-1.18-.17-1.76h2.34l.3,3.3h-.36a5.21,5.21,0,0,1,2.12-2.65,6.19,6.19,0,0,1,3.37-.92,5.35,5.35,0,0,1,4,1.43,6.29,6.29,0,0,1,1.36,4.48v9.42h-2.43v-9.27a4.63,4.63,0,0,0-.85-3.1,3.36,3.36,0,0,0-2.66-1,4.38,4.38,0,0,0-3.33,1.29,4.79,4.79,0,0,0-1.23,3.45v8.61Z" fill="#1c2126"/><path d="M978,558.14v-2.73h3v2.73Zm.3,18.48V561.56h2.43v15.06Z" fill="#1c2126"/><path d="M991.76,576.89a7.46,7.46,0,0,1-3.85-1,6.41,6.41,0,0,1-2.52-2.73,9.29,9.29,0,0,1-.89-4.2,8.93,8.93,0,0,1,.9-4.18,6.2,6.2,0,0,1,2.54-2.63,7.79,7.79,0,0,1,3.82-.9,8,8,0,0,1,2.81.51,6,6,0,0,1,2.26,1.44L996,565a6,6,0,0,0-2-1.29,5.69,5.69,0,0,0-2.09-.42,4.57,4.57,0,0,0-3.63,1.47A6.32,6.32,0,0,0,987,569a6.51,6.51,0,0,0,1.29,4.32,4.49,4.49,0,0,0,3.63,1.53,6,6,0,0,0,2.06-.39,5.66,5.66,0,0,0,2-1.29l.87,1.71a6.11,6.11,0,0,1-2.31,1.47A7.91,7.91,0,0,1,991.76,576.89Z" fill="#1c2126"/><circle cx="730.89" cy="563.72" r="40" fill="#1c2126"/></svg>