<?xml version="1.0" encoding="UTF-8"?><svg xmlns="http://www.w3.org/2000/svg" xmlns:xlink="http://www.w3.org/1999/xlink" viewBox="0 0 1200 630"><defs><clipPath id="e"><rect x="-.79" width="1200" height="498.72" fill="none"/></clipPath></defs><g id="b"><rect x="-.79" width="1200" height="498.72" fill="#b7303d"/></g><g id="d"><g clip-path="url(#e)"><path d="M36.78,537.79v-186.31c0-138.33,112.14-250.47,250.47-250.47h0c138.33,0,250.47,112.14,250.47,250.47v186.31s-500.94,0-500.94,0Z" fill="#ff6b60"/></g><path d="M737.02,165.78c-.38,0-.7-.13-.96-.4-.26-.26-.4-.6-.4-1.02v-36.89c0-.42.13-.76.4-1.02.26-.26.59-.4.96-.4h6.53c.38,0,.7.13.96.4.26.27.4.61.4,1.02v36.89c0,.42-.13.76-.4,1.02-.26.27-.59.4-.96.4h-6.53Z" fill="#fff"/><path d="M778.39,166.35c-2.8,0-5.25-.51-7.35-1.53-2.1-1.02-3.76-2.51-4.97-4.46-1.21-1.95-1.87-4.29-1.99-7.01-.04-.6-.06-1.37-.06-2.3s.02-1.69.06-2.3c.11-2.76.77-5.12,1.96-7.07,1.19-1.95,2.85-3.43,4.97-4.46,2.12-1.02,4.58-1.53,7.38-1.53,2.5,0,4.63.35,6.41,1.05,1.78.7,3.24,1.59,4.37,2.67,1.14,1.08,1.99,2.19,2.55,3.32.57,1.14.87,2.14.91,3.01.04.42-.09.76-.4,1.02-.3.27-.64.4-1.02.4h-6.07c-.42,0-.73-.09-.94-.28-.21-.19-.41-.49-.6-.91-.49-1.32-1.15-2.27-1.99-2.84-.83-.57-1.87-.85-3.12-.85-1.7,0-3.04.55-4,1.65-.96,1.1-1.49,2.8-1.56,5.11-.08,1.48-.08,2.82,0,4.03.08,2.35.6,4.05,1.56,5.11s2.3,1.59,4,1.59c1.32,0,2.38-.28,3.18-.85.79-.57,1.44-1.51,1.93-2.84.19-.42.39-.72.6-.91.21-.19.52-.28.94-.28h6.07c.38,0,.72.13,1.02.4.3.27.43.61.4,1.02-.04.64-.23,1.4-.57,2.27-.34.87-.86,1.76-1.56,2.67s-1.6,1.75-2.7,2.53c-1.1.78-2.43,1.4-4,1.87-1.57.47-3.38.71-5.42.71Z" fill="#fff"/><path d="M806.83,166.35c-2.01,0-3.8-.39-5.39-1.16-1.59-.78-2.86-1.83-3.8-3.15-.95-1.32-1.42-2.8-1.42-4.43,0-2.69,1.09-4.8,3.26-6.36,2.18-1.55,5.04-2.61,8.6-3.18l7.44-1.08v-1.02c0-1.48-.34-2.61-1.02-3.41-.68-.79-1.87-1.19-3.58-1.19-1.25,0-2.24.25-2.98.74-.74.49-1.32,1.14-1.73,1.93-.3.49-.76.74-1.36.74h-5.39c-.42,0-.74-.12-.96-.37-.23-.25-.32-.54-.28-.88,0-.64.25-1.4.74-2.27.49-.87,1.25-1.73,2.27-2.58,1.02-.85,2.34-1.56,3.94-2.13,1.61-.57,3.55-.85,5.82-.85,2.38,0,4.43.28,6.13.85,1.7.57,3.07,1.36,4.12,2.38,1.04,1.02,1.8,2.21,2.27,3.55.47,1.34.71,2.79.71,4.34v17.54c0,.42-.13.76-.4,1.02-.26.27-.59.4-.96.4h-5.62c-.38,0-.7-.13-.96-.4-.27-.26-.4-.6-.4-1.02v-2.1c-.49.72-1.15,1.39-1.99,2.02-.83.62-1.83,1.13-2.98,1.5s-2.51.57-4.06.57ZM809.1,160.44c1.25,0,2.37-.26,3.35-.79.98-.53,1.76-1.34,2.33-2.44.57-1.1.85-2.48.85-4.14v-.96l-5.28.85c-2.01.34-3.48.85-4.43,1.53-.95.68-1.42,1.51-1.42,2.5,0,.72.22,1.33.65,1.84.43.51,1,.91,1.7,1.19.7.28,1.45.43,2.24.43Z" fill="#fff"/><path d="M832.43,165.78c-.38,0-.71-.13-.99-.4-.28-.26-.43-.6-.43-1.02v-26.68c0-.42.14-.76.43-1.02.28-.26.61-.4.99-.4h5.56c.42,0,.76.13,1.02.4.26.27.4.61.4,1.02v2.21c.98-1.21,2.26-2.21,3.83-3.01s3.45-1.19,5.65-1.19,4.2.5,5.9,1.5,3.03,2.46,3.97,4.37c.95,1.91,1.42,4.23,1.42,6.95v15.84c0,.42-.13.76-.4,1.02s-.61.4-1.02.4h-6.02c-.42,0-.76-.13-1.02-.4-.26-.26-.4-.6-.4-1.02v-15.5c0-2.01-.48-3.57-1.45-4.68s-2.38-1.67-4.23-1.67-3.19.56-4.23,1.67c-1.04,1.12-1.56,2.68-1.56,4.68v15.5c0,.42-.13.76-.4,1.02-.27.27-.61.4-1.02.4h-6.02Z" fill="#fff"/><path d="M865.75,138.99c-.34,0-.62-.11-.82-.34-.21-.23-.29-.55-.26-.96l1.65-10.33c.08-.49.26-.93.57-1.3.3-.38.76-.57,1.36-.57h5.9c.3,0,.56.11.77.34.21.23.31.47.31.74s-.06.49-.17.68l-3.92,10.22c-.15.38-.37.73-.65,1.05-.28.32-.73.48-1.33.48h-3.41Z" fill="#fff"/><path d="M894.35,165.78c-2.35,0-4.34-.39-5.99-1.16-1.65-.77-2.9-1.98-3.77-3.6-.87-1.63-1.31-3.67-1.31-6.13v-11.92h-4.43c-.42,0-.76-.13-1.02-.4-.27-.26-.4-.59-.4-.96v-3.92c0-.42.13-.76.4-1.02s.6-.4,1.02-.4h4.43v-9.37c0-.42.14-.76.43-1.02.28-.26.62-.4.99-.4h5.62c.38,0,.7.13.96.4.26.27.4.61.4,1.02v9.37h7.1c.42,0,.76.13,1.02.4.26.27.4.61.4,1.02v3.92c0,.38-.13.7-.4.96s-.61.4-1.02.4h-7.1v11.24c0,1.44.26,2.56.79,3.38.53.81,1.42,1.22,2.67,1.22h4.14c.42,0,.76.13,1.02.4.26.26.4.59.4.96v4.2c0,.42-.13.76-.4,1.02-.27.27-.61.4-1.02.4h-4.94Z" fill="#fff"/><path d="M931.98,178.27c-2.8,0-5.13-.37-6.98-1.11-1.85-.74-3.32-1.63-4.4-2.67-1.08-1.04-1.84-2.07-2.3-3.09s-.7-1.84-.74-2.44c-.04-.38.09-.71.4-.99.3-.28.64-.43,1.02-.43h6.07c.38,0,.68.08.91.25.23.17.42.48.57.94.23.45.51.94.85,1.45.34.51.85.94,1.53,1.28.68.34,1.61.51,2.78.51,1.32,0,2.42-.19,3.29-.57.87-.38,1.52-1.02,1.96-1.93.43-.91.65-2.14.65-3.69v-3.8c-.91.98-2.05,1.8-3.43,2.44-1.38.64-3.07.96-5.08.96s-3.7-.31-5.19-.94c-1.5-.62-2.73-1.51-3.72-2.67-.98-1.15-1.74-2.54-2.27-4.17-.53-1.63-.83-3.46-.91-5.5-.04-1.02-.04-2.02,0-3.01.08-1.97.38-3.76.91-5.39.53-1.63,1.29-3.04,2.27-4.23.98-1.19,2.22-2.12,3.72-2.78,1.49-.66,3.23-.99,5.19-.99,2.08,0,3.86.4,5.34,1.19s2.69,1.78,3.63,2.95v-2.16c0-.38.13-.71.4-.99.26-.28.59-.42.96-.42h5.56c.42,0,.76.14,1.02.42.26.28.4.62.4.99l.06,27.3c0,2.84-.55,5.24-1.65,7.21-1.1,1.97-2.72,3.47-4.85,4.51-2.14,1.04-4.8,1.56-7.98,1.56ZM931.7,158.68c1.36,0,2.47-.3,3.32-.91s1.48-1.39,1.9-2.36c.42-.96.64-1.98.68-3.04.04-.42.06-1.01.06-1.79s-.02-1.37-.06-1.79c-.04-1.06-.27-2.06-.68-3.01-.42-.95-1.05-1.73-1.9-2.36s-1.96-.94-3.32-.94c-1.44,0-2.57.31-3.41.94-.83.62-1.43,1.45-1.79,2.47-.36,1.02-.58,2.14-.65,3.35-.08.91-.08,1.8,0,2.67.08,1.25.29,2.38.65,3.41.36,1.02.96,1.83,1.79,2.44.83.61,1.97.91,3.41.91Z" fill="#fff"/><path d="M966.78,166.35c-4.35,0-7.8-1.21-10.36-3.63-2.55-2.42-3.91-5.94-4.06-10.56v-2.38c.15-2.95.81-5.48,1.99-7.58,1.17-2.1,2.82-3.71,4.94-4.82,2.12-1.12,4.6-1.67,7.44-1.67,3.22,0,5.88.65,8,1.96,2.12,1.3,3.72,3.08,4.8,5.33,1.08,2.25,1.62,4.83,1.62,7.75v1.3c0,.38-.13.71-.4.99-.27.28-.61.43-1.02.43h-18.5v.4c.04,1.21.26,2.32.68,3.32.42,1,1.03,1.81,1.84,2.41s1.81.91,2.98.91c.91,0,1.66-.14,2.27-.43.6-.28,1.11-.61,1.5-.96s.69-.67.88-.94c.34-.42.61-.67.82-.77.21-.09.52-.14.94-.14h6.02c.34,0,.63.11.88.34.25.23.35.51.31.85-.04.64-.35,1.41-.94,2.3-.59.89-1.45,1.76-2.58,2.61-1.14.85-2.55,1.56-4.23,2.13-1.68.57-3.62.85-5.82.85ZM961.22,148.24h11.07v-.17c0-1.32-.22-2.49-.65-3.49-.43-1-1.07-1.79-1.9-2.36-.83-.57-1.84-.85-3.01-.85s-2.17.28-2.98.85c-.81.57-1.44,1.35-1.87,2.36-.43,1-.65,2.17-.65,3.49v.17Z" fill="#fff"/><path d="M1000.95,165.78c-2.35,0-4.34-.39-5.99-1.16-1.65-.77-2.9-1.98-3.77-3.6-.87-1.63-1.31-3.67-1.31-6.13v-11.92h-4.43c-.42,0-.76-.13-1.02-.4-.27-.26-.4-.59-.4-.96v-3.92c0-.42.13-.76.4-1.02s.6-.4,1.02-.4h4.43v-9.37c0-.42.14-.76.43-1.02.28-.26.62-.4.99-.4h5.62c.38,0,.7.13.96.4.26.27.4.61.4,1.02v9.37h7.1c.42,0,.76.13,1.02.4.26.27.4.61.4,1.02v3.92c0,.38-.13.7-.4.96s-.61.4-1.02.4h-7.1v11.24c0,1.44.26,2.56.79,3.38.53.81,1.42,1.22,2.67,1.22h4.14c.42,0,.76.13,1.02.4.26.26.4.59.4.96v4.2c0,.42-.13.76-.4,1.02-.27.27-.61.4-1.02.4h-4.94Z" fill="#fff"/><path d="M691.07,252.56c-.3,0-.58-.11-.82-.34-.25-.23-.37-.51-.37-.85,0-.08.02-.18.06-.31.04-.13.09-.29.17-.48l4.43-10.61-10.9-25.71c-.11-.3-.17-.55-.17-.74.04-.34.17-.63.4-.88.23-.25.51-.37.85-.37h5.56c.45,0,.79.12,1.02.37.23.25.4.5.51.77l7.04,17.54,7.21-17.54c.15-.3.34-.57.57-.79s.59-.34,1.08-.34h5.39c.34,0,.63.12.88.37.25.25.37.52.37.82,0,.19-.06.45-.17.79l-16.06,37.18c-.15.3-.35.57-.6.79-.25.23-.62.34-1.11.34h-5.33Z" fill="#fff"/><path d="M731.31,242.35c-3.14,0-5.77-.52-7.89-1.56-2.12-1.04-3.74-2.53-4.85-4.46s-1.73-4.18-1.84-6.75c-.04-.76-.06-1.62-.06-2.58s.02-1.81.06-2.53c.11-2.61.76-4.87,1.93-6.78,1.17-1.91,2.82-3.39,4.94-4.43,2.12-1.04,4.69-1.56,7.72-1.56s5.54.52,7.66,1.56c2.12,1.04,3.76,2.52,4.94,4.43,1.17,1.91,1.83,4.17,1.99,6.78.04.72.06,1.56.06,2.53s-.02,1.83-.06,2.58c-.15,2.57-.79,4.82-1.9,6.75-1.12,1.93-2.73,3.42-4.85,4.46s-4.73,1.56-7.83,1.56ZM731.31,236.05c1.85,0,3.25-.57,4.17-1.7s1.45-2.82,1.56-5.05c.04-.57.06-1.32.06-2.27s-.02-1.7-.06-2.27c-.11-2.19-.63-3.87-1.56-5.02s-2.32-1.73-4.17-1.73-3.25.58-4.2,1.73-1.48,2.83-1.59,5.02c-.04.57-.06,1.33-.06,2.27s.02,1.7.06,2.27c.11,2.23.64,3.92,1.59,5.05s2.35,1.7,4.2,1.7Z" fill="#fff"/><path d="M762.76,242.35c-2.19,0-4.13-.5-5.82-1.5-1.68-1-3-2.46-3.95-4.37-.95-1.91-1.42-4.23-1.42-6.95v-15.84c0-.42.14-.76.43-1.02.28-.26.61-.4.99-.4h6.07c.38,0,.7.13.96.4.26.27.4.61.4,1.02v15.5c0,4.24,1.85,6.36,5.56,6.36,1.78,0,3.19-.56,4.23-1.67,1.04-1.12,1.56-2.68,1.56-4.68v-15.5c0-.42.13-.76.4-1.02s.6-.4,1.02-.4h6.02c.38,0,.7.13.96.4.26.27.4.61.4,1.02v26.68c0,.42-.13.76-.4,1.02s-.59.4-.96.4h-5.62c-.38,0-.7-.13-.97-.4-.26-.26-.4-.6-.4-1.02v-2.21c-.98,1.36-2.25,2.4-3.8,3.12s-3.44,1.08-5.68,1.08Z" fill="#fff"/><path d="M813.78,242.35c-3.14,0-5.77-.52-7.89-1.56s-3.74-2.53-4.85-4.46c-1.12-1.93-1.73-4.18-1.84-6.75-.04-.76-.06-1.62-.06-2.58s.02-1.81.06-2.53c.11-2.61.76-4.87,1.93-6.78,1.17-1.91,2.82-3.39,4.94-4.43s4.69-1.56,7.72-1.56,5.54.52,7.66,1.56,3.77,2.52,4.94,4.43c1.17,1.91,1.83,4.17,1.99,6.78.04.72.06,1.56.06,2.53s-.02,1.83-.06,2.58c-.15,2.57-.79,4.82-1.9,6.75s-2.73,3.42-4.85,4.46c-2.12,1.04-4.73,1.56-7.83,1.56ZM813.78,236.05c1.85,0,3.24-.57,4.17-1.7.93-1.13,1.45-2.82,1.56-5.05.04-.57.06-1.32.06-2.27s-.02-1.7-.06-2.27c-.11-2.19-.63-3.87-1.56-5.02-.93-1.15-2.32-1.73-4.17-1.73s-3.25.58-4.2,1.73c-.95,1.15-1.48,2.83-1.59,5.02-.04.57-.06,1.33-.06,2.27s.02,1.7.06,2.27c.11,2.23.64,3.92,1.59,5.05.95,1.13,2.35,1.7,4.2,1.7Z" fill="#fff"/><path d="M845.23,242.35c-2.2,0-4.13-.5-5.82-1.5s-3-2.46-3.94-4.37c-.95-1.91-1.42-4.23-1.42-6.95v-15.84c0-.42.14-.76.43-1.02.28-.26.61-.4.99-.4h6.07c.38,0,.7.13.96.4.26.27.4.61.4,1.02v15.5c0,4.24,1.85,6.36,5.56,6.36,1.78,0,3.19-.56,4.23-1.67,1.04-1.12,1.56-2.68,1.56-4.68v-15.5c0-.42.13-.76.4-1.02.26-.26.6-.4,1.02-.4h6.02c.38,0,.7.13.96.4.26.27.4.61.4,1.02v26.68c0,.42-.13.76-.4,1.02-.26.27-.59.4-.96.4h-5.62c-.38,0-.7-.13-.96-.4-.27-.26-.4-.6-.4-1.02v-2.21c-.98,1.36-2.25,2.4-3.8,3.12-1.55.72-3.44,1.08-5.68,1.08Z" fill="#fff"/><path d="M884.39,241.78c-2.35,0-4.34-.39-5.99-1.16-1.65-.77-2.9-1.98-3.77-3.6-.87-1.63-1.31-3.67-1.31-6.13v-11.92h-4.43c-.42,0-.76-.13-1.02-.4-.26-.26-.4-.59-.4-.96v-3.92c0-.42.13-.76.4-1.02.26-.26.61-.4,1.02-.4h4.43v-9.37c0-.42.14-.76.43-1.02.28-.26.62-.4.99-.4h5.62c.38,0,.7.13.96.4.26.27.4.61.4,1.02v9.37h7.1c.42,0,.76.13,1.02.4.26.27.4.61.4,1.02v3.92c0,.38-.13.7-.4.96s-.61.4-1.02.4h-7.1v11.24c0,1.44.26,2.56.79,3.38.53.81,1.42,1.22,2.67,1.22h4.14c.42,0,.76.13,1.02.4.26.26.4.59.4.96v4.2c0,.42-.13.76-.4,1.02-.27.27-.61.4-1.02.4h-4.94Z" fill="#fff"/><path d="M921.68,242.35c-3.14,0-5.77-.52-7.89-1.56-2.12-1.04-3.74-2.53-4.85-4.46s-1.73-4.18-1.84-6.75c-.04-.76-.06-1.62-.06-2.58s.02-1.81.06-2.53c.11-2.61.76-4.87,1.93-6.78,1.17-1.91,2.82-3.39,4.94-4.43s4.69-1.56,7.72-1.56,5.54.52,7.66,1.56,3.76,2.52,4.94,4.43c1.17,1.91,1.83,4.17,1.99,6.78.04.72.06,1.56.06,2.53s-.02,1.83-.06,2.58c-.15,2.57-.79,4.82-1.9,6.75-1.12,1.93-2.73,3.42-4.85,4.46-2.12,1.04-4.73,1.56-7.83,1.56ZM921.68,236.05c1.85,0,3.24-.57,4.17-1.7.93-1.13,1.45-2.82,1.56-5.05.04-.57.06-1.32.06-2.27s-.02-1.7-.06-2.27c-.11-2.19-.63-3.87-1.56-5.02-.93-1.15-2.32-1.73-4.17-1.73s-3.25.58-4.2,1.73c-.95,1.15-1.48,2.83-1.59,5.02-.04.57-.06,1.33-.06,2.27s.02,1.7.06,2.27c.11,2.23.64,3.92,1.59,5.05.95,1.13,2.35,1.7,4.2,1.7Z" fill="#fff"/><path d="M946.66,241.78c-.42,0-.76-.13-1.02-.4-.27-.26-.4-.6-.4-1.02v-21.4h-4.43c-.42,0-.76-.13-1.02-.4-.27-.26-.4-.59-.4-.96v-3.92c0-.42.13-.76.4-1.02.26-.26.6-.4,1.02-.4h4.43v-2.04c0-2.42.45-4.41,1.36-5.96.91-1.55,2.24-2.69,4-3.41,1.76-.72,3.89-1.08,6.39-1.08h4.2c.38,0,.7.13.96.4.26.26.4.61.4,1.02v3.92c0,.38-.13.7-.4.96-.27.27-.59.4-.96.4h-3.8c-1.4,0-2.38.35-2.92,1.05-.55.7-.82,1.69-.82,2.98v1.76h6.98c.38,0,.7.13.96.4.26.27.4.61.4,1.02v3.92c0,.38-.13.7-.4.96-.27.27-.59.4-.96.4h-6.98v21.4c0,.42-.13.76-.4,1.02s-.61.4-1.02.4h-5.56Z" fill="#fff"/><path d="M979.07,241.78c-.38,0-.71-.13-.99-.4-.28-.26-.42-.6-.42-1.02v-26.68c0-.42.14-.76.42-1.02.28-.26.62-.4.99-.4h5.28c.42,0,.76.13,1.02.4.26.27.4.61.4,1.02v1.93c.79-1.06,1.86-1.97,3.21-2.72,1.34-.76,2.94-1.15,4.8-1.19,4.35-.08,7.36,1.59,9.03,5,.87-1.48,2.12-2.68,3.75-3.6,1.63-.93,3.42-1.39,5.39-1.39s3.75.45,5.34,1.33c1.59.89,2.86,2.25,3.8,4.09.95,1.84,1.42,4.19,1.42,7.07v16.18c0,.42-.14.76-.43,1.02-.28.27-.62.4-.99.4h-5.62c-.42,0-.76-.13-1.02-.4-.27-.26-.4-.6-.4-1.02v-15.72c0-1.55-.22-2.76-.65-3.63-.44-.87-1.02-1.5-1.76-1.9-.74-.4-1.56-.6-2.47-.6-.79,0-1.56.2-2.3.6-.74.4-1.34,1.03-1.82,1.9-.47.87-.71,2.08-.71,3.63v15.72c0,.42-.13.76-.4,1.02-.26.27-.59.4-.96.4h-5.62c-.42,0-.76-.13-1.02-.4-.27-.26-.4-.6-.4-1.02v-15.72c0-1.55-.23-2.76-.68-3.63-.45-.87-1.05-1.5-1.79-1.9-.74-.4-1.54-.6-2.41-.6-.79,0-1.56.2-2.3.6-.74.4-1.34,1.03-1.82,1.9-.47.87-.71,2.06-.71,3.58v15.78c0,.42-.13.76-.4,1.02-.26.27-.61.4-1.02.4h-5.73Z" fill="#fff"/><path d="M1033.67,252.56c-.3,0-.58-.11-.82-.34-.25-.23-.37-.51-.37-.85,0-.08.02-.18.06-.31.04-.13.09-.29.17-.48l4.43-10.61-10.9-25.71c-.11-.3-.17-.55-.17-.74.04-.34.17-.63.4-.88.23-.25.51-.37.85-.37h5.56c.45,0,.79.12,1.02.37.23.25.4.5.51.77l7.04,17.54,7.21-17.54c.15-.3.34-.57.57-.79s.59-.34,1.08-.34h5.39c.34,0,.63.12.88.37.25.25.37.52.37.82,0,.19-.06.45-.17.79l-16.06,37.18c-.15.3-.35.57-.6.79-.25.23-.62.34-1.11.34h-5.34Z" fill="#fff"/><rect x="589.98" y="283.93" width="560.11" height="83.36" rx="10.5" ry="10.5" fill="#1c2126" opacity=".2"/><path d="M618.46,328.07v.61l21.18,10.67v8.42l-29.11-16.12v-6.55l29.11-16.12v8.42l-21.18,10.67Z" fill="#fff"/><path d="M650.58,300.11h7.29v19.73h.48c1.77-4.29,5.77-6.74,10.99-6.74,7.71,0,11.9,4.64,11.9,13.12v22.83h-7.51v-20.99c0-5.64-2.35-8.38-7.22-8.38s-8.45,3.55-8.45,8.9v20.47h-7.48v-48.94Z" fill="#fff"/><path d="M722.23,339.48c-.84,6.06-6.83,10.29-14.73,10.29-10.06,0-15.86-5.77-15.86-15.83v-5.51c0-9.25,6.22-15.38,15.61-15.38s15.06,6.09,15.06,15.89v4.29h-23.28v1.71c0,5.38,3.32,8.87,8.45,8.87,3.9,0,6.9-1.71,7.64-4.32h7.12ZM699.02,328.19h15.99c0-5.74-2.97-9.22-7.9-9.22s-8.09,3.45-8.09,9.22Z" fill="#fff"/><path d="M732.07,339c0-6.32,4.58-10.06,13.03-10.58l8.83-.52v-2.97c0-3.64-2.35-5.71-6.48-5.71-3.45,0-5.96,1.48-6.74,4.06h-7.35c.65-6.09,6.35-10.12,14.28-10.12,8.74,0,13.7,4.29,13.7,11.83v24.05h-7.13v-4.93h-.68c-1.71,3.51-5.48,5.51-10.29,5.51-6.71,0-11.19-4.26-11.19-10.64ZM753.93,336.19v-3.22l-7.71.42c-4.42.26-6.71,2.03-6.71,5.16s2.39,4.96,6.16,4.96c4.77,0,8.25-3.06,8.25-7.32Z" fill="#fff"/><path d="M795.31,343.25c-1.48,4.13-5.06,6.35-10.19,6.35-8.09,0-13.12-5.67-13.12-15.09v-6.29c0-9.38,5.03-15.09,13.12-15.09,5.09,0,8.74,2.29,10.06,6.38h.64v-19.41h7.74v48.94h-7.61v-5.8h-.64ZM779.64,334.06c0,5.54,3.13,9,8.19,9s8.16-3.45,8.16-9v-5.51c0-5.58-3.13-9.03-8.16-9.03s-8.19,3.48-8.19,9.03v5.51Z" fill="#fff"/><path d="M814.66,317.39v-8.42l29.11,16.12v6.55l-29.11,16.12v-8.42l21.18-10.67v-.61l-21.18-10.67Z" fill="#fff"/><path d="M863.42,328.07v.61l21.18,10.67v8.42l-29.11-16.12v-6.55l29.11-16.12v8.42l-21.18,10.67Z" fill="#fff"/><path d="M895.96,355.05l22.18-58.52h7.61l-22.34,58.52h-7.45Z" fill="#fff"/><path d="M936.37,300.11h7.29v19.73h.48c1.77-4.29,5.77-6.74,11-6.74,7.71,0,11.9,4.64,11.9,13.12v22.83h-7.51v-20.99c0-5.64-2.35-8.38-7.22-8.38s-8.45,3.55-8.45,8.9v20.47h-7.48v-48.94Z" fill="#fff"/><path d="M1008.02,339.48c-.84,6.06-6.83,10.29-14.73,10.29-10.06,0-15.86-5.77-15.86-15.83v-5.51c0-9.25,6.22-15.38,15.6-15.38s15.06,6.09,15.06,15.89v4.29h-23.28v1.71c0,5.38,3.32,8.87,8.45,8.87,3.9,0,6.9-1.71,7.64-4.32h7.12ZM984.8,328.19h15.99c0-5.74-2.97-9.22-7.9-9.22s-8.09,3.45-8.09,9.22Z" fill="#fff"/><path d="M1017.86,339c0-6.32,4.58-10.06,13.03-10.58l8.83-.52v-2.97c0-3.64-2.35-5.71-6.48-5.71-3.45,0-5.96,1.48-6.74,4.06h-7.35c.64-6.09,6.35-10.12,14.28-10.12,8.74,0,13.7,4.29,13.7,11.83v24.05h-7.13v-4.93h-.68c-1.71,3.51-5.48,5.51-10.29,5.51-6.71,0-11.19-4.26-11.19-10.64ZM1039.72,336.19v-3.22l-7.71.42c-4.42.26-6.71,2.03-6.71,5.16s2.39,4.96,6.16,4.96c4.77,0,8.25-3.06,8.25-7.32Z" fill="#fff"/><path d="M1081.09,343.25c-1.48,4.13-5.06,6.35-10.19,6.35-8.09,0-13.12-5.67-13.12-15.09v-6.29c0-9.38,5.03-15.09,13.12-15.09,5.09,0,8.74,2.29,10.06,6.38h.64v-19.41h7.74v48.94h-7.61v-5.8h-.65ZM1065.42,334.06c0,5.54,3.13,9,8.19,9s8.16-3.45,8.16-9v-5.51c0-5.58-3.13-9.03-8.16-9.03s-8.19,3.48-8.19,9.03v5.51Z" fill="#fff"/><path d="M1100.45,317.39v-8.42l29.11,16.12v6.55l-29.11,16.12v-8.42l21.18-10.67v-.61l-21.18-10.67Z" fill="#fff"/><path d="M196.23,403.01c-14.94,0-28.47-5.72-37.11-15.68-3.23-3.73-5.71-8.16-7.28-12.96-6.34,2.8-13.28,4.3-20.22,4.3-4.71,0-9.31-.68-13.69-2.03-5.56-1.72-9.78-4.19-12.89-7.57-6.81-7.4-6.95-17.56-5.86-25.5-7.91-1.6-15.04-7.73-17.8-15.75-3.11-9.04-1.17-20.03,5.19-29.39,4.01-5.9,9.24-10.67,14.39-14.86-4.64-8.03-9.4-21.5-5.37-31.93,2.07-5.35,6.98-11.55,18.48-13.5-.39-3.19-.14-6.54.76-9.9,2.21-8.29,8.29-15.97,15.85-20.03,6.52-3.5,14.11-5.2,23.22-5.2,2.14,0,4.38.09,6.78.28,0-4.01.98-8.14,2.92-12.17,3.24-6.73,8.89-12.48,15.5-15.77,6.92-3.45,14.85-5.06,24.96-5.06,3.13,0,6.24.15,9.25.36,5.78-10.75,16.26-18.65,28.32-21.09,2.58-.52,5.24-.78,7.91-.78,7.88,0,15.57,2.21,22.12,6.25,2.82-2.97,6.86-4.8,10.89-4.8.14,0,.27,0,.41,0,4.82.15,8.88,2.26,12.15,4.58,7.92-6.01,17.91-9.38,28.19-9.38,5.06,0,9.96.82,14.59,2.43,13.83,4.82,24.74,16.65,28.82,30.62,4.12-.84,7.83-1.24,11.37-1.24,5.46,0,10.45,1.01,14.86,3,6.97,3.15,12.33,9.6,14.44,16.65,2.37-.31,4.75-.46,7.12-.46,8.41,0,16.56,1.99,23.57,5.76,20.98,11.27,31.57,38.28,25.19,60.99,6.41,2.94,11.88,8.76,15.77,13.87,13.52,17.79,23.86,47.84,17.46,70.88-2.92,10.51-12.91,17.57-24.86,17.57h0c-4.35,0-8.46-.97-12.04-2.79-5.25,11.11-13.14,19.74-22.77,24.75-5.68,2.95-12.14,4.52-18.66,4.52-7.34,0-14.17-1.96-19.77-5.62-13.23,10.91-27.71,13.33-37.98,13.33-15.38,0-30.6-5.58-38.8-14.22-.42-.44-.82-.89-1.19-1.34-10.96,10.59-25.53,16.31-41.99,16.31-15.36,0-30.7-5.21-38.16-12.97-.15-.16-.3-.31-.44-.47-11.84,8.48-23.69,13.64-35.29,15.37-2.75.41-5.56.62-8.35.62Z" fill="#b7303d"/><path d="M323.33,151.94c4.23,0,8.45.67,12.45,2.07,13.78,4.8,24.28,17.9,25.96,32.39,5.29-1.49,10.9-2.65,16.37-2.65,4.2,0,8.33.68,12.18,2.42,7.04,3.19,12.23,11.14,11.54,18.45,4.15-1.11,8.43-1.68,12.71-1.68,7.11,0,14.19,1.59,20.5,4.98,20.41,10.96,29.58,38.93,19.63,59.85.12,0,.23,0,.35,0,18.11,0,43.79,47.69,35.25,78.43-2.31,8.32-10.5,12.81-18.6,12.81-5.68,0-11.32-2.21-14.86-6.85-3.89,12.19-11.59,23.64-22.94,29.55-4.78,2.49-10.25,3.78-15.66,3.78-7.43,0-14.76-2.45-20.05-7.63-11.21,11.17-24.98,15.35-37.7,15.35-20.73,0-38.66-11.1-38.13-21.15-11.64,16.31-28.55,21.9-43.85,21.9-19.63,0-36.6-9.23-36.3-16.89-11.21,9.16-24.22,16.75-38.54,18.89-2.44.36-4.91.55-7.4.55-12.11,0-24.32-4.36-32.2-13.44-4.47-5.16-7.1-11.91-7.59-18.72-7.2,5.05-16.02,7.82-24.82,7.82-3.98,0-7.95-.57-11.77-1.74-3.73-1.15-7.38-2.89-10.02-5.76-6.57-7.14-4.87-18.31-2.76-27.78-1.27.4-2.56.59-3.85.59-6.76,0-13.41-5.17-15.68-11.77-2.7-7.86-.25-16.75,4.42-23.62,4.67-6.87,11.32-12.11,17.85-17.24-4.63-4.21-23.83-40.82,12.14-40.82.29,0,.6,0,.9,0-6.32-10.16.36-24.44,10.91-30.09,6.17-3.31,13.1-4.42,20.15-4.42,5,0,10.06.56,14.97,1.29-5.21-10.8,2.4-24.29,13.13-29.63,6.81-3.39,14.38-4.37,22.06-4.37,4.42,0,8.88.32,13.24.7,4.22-10.85,14.21-19.25,25.62-21.55,2.18-.44,4.4-.65,6.63-.65,9.39,0,18.8,3.83,25.34,10.59-1.93-4.32,2.93-9.14,7.67-9.14.07,0,.14,0,.21,0,4.8.15,8.86,3.42,12.52,6.53,7.32-7.32,17.69-11.33,28.01-11.33M323.33,138.94s0,0,0,0c-10.13,0-20.03,2.88-28.37,8.11-3.31-1.79-7.24-3.17-11.77-3.31-.2,0-.4,0-.61,0-4.13,0-8.18,1.26-11.62,3.49-6.58-3.21-13.91-4.94-21.4-4.94-3.1,0-6.2.31-9.2.91-12.55,2.53-23.62,10.18-30.59,20.74-1.88-.09-3.78-.14-5.7-.14-11.15,0-20,1.82-27.86,5.74-10.36,5.16-18.8,15.5-21.29,26.99-.34,0-.68,0-1.02,0-10.21,0-18.82,1.95-26.3,5.97-9.23,4.95-16.36,13.95-19.06,24.08-.58,2.17-.94,4.35-1.08,6.5-2.01.64-3.88,1.43-5.61,2.37-5.76,3.12-10.02,7.92-12.32,13.87-3.01,7.78-2.58,17.37,1.23,27.75.55,1.51,1.25,3.18,2.04,4.91-4.16,3.67-8.22,7.83-11.61,12.83-7.5,11.05-9.73,24.19-5.96,35.16,2.82,8.19,9.27,14.84,16.97,18.19-.41,8.23,1.01,17.7,8.05,25.35,3.91,4.25,9.06,7.31,15.75,9.38,4.99,1.54,10.24,2.32,15.6,2.32,5.62,0,11.25-.87,16.62-2.53,1.62,3.23,3.62,6.24,5.97,8.94,9.87,11.39,25.19,17.93,42.02,17.93,3.11,0,6.25-.23,9.31-.69,11.19-1.67,22.51-6.21,33.77-13.54,9.32,7.2,24.06,11.68,39.17,11.68,15.92,0,30.25-4.86,41.73-13.95,9.75,8.11,25,13.19,40.24,13.19,14.07,0,27.41-4.23,38.49-12.08,5.76,2.85,12.33,4.36,19.26,4.36,7.56,0,15.05-1.82,21.66-5.25,9.29-4.83,17.11-12.56,22.85-22.41,2.85.78,5.86,1.18,8.97,1.18,14.91,0,27.42-8.98,31.13-22.33,6.96-25.07-4.06-57.49-18.55-76.55-4.33-5.7-8.88-10.12-13.53-13.2,1.78-9.69,1.09-20.06-2.13-29.87-4.78-14.56-14.76-26.8-27.4-33.59-7.95-4.27-17.17-6.53-26.65-6.53-.95,0-1.9.02-2.85.07-3.31-6.73-8.97-12.48-16.04-15.68-5.25-2.37-11.15-3.58-17.53-3.58-2.29,0-4.64.15-7.08.45-5.68-13.51-17.03-24.61-30.97-29.47-5.32-1.85-10.94-2.79-16.73-2.79h0Z" fill="#b7303d"/><path d="M400.07,210.05c5.01-8.33-.92-19.87-9.77-23.88s-19.19-2.41-28.55.23c-1.68-14.49-12.18-27.6-25.96-32.39s-30.15-1.05-40.47,9.26c-3.66-3.11-7.72-6.38-12.52-6.53s-9.84,4.75-7.88,9.14c-8.1-8.36-20.56-12.24-31.97-9.93s-21.4,10.7-25.62,21.55c-11.94-1.03-24.57-1.67-35.3,3.67-10.73,5.35-18.34,18.84-13.13,29.63-11.84-1.76-24.58-2.52-35.12,3.14-10.54,5.66-17.23,19.93-10.91,30.09-37.19-.61-17.71,36.56-13.04,40.81-6.54,5.13-13.19,10.37-17.85,17.24-4.67,6.87-7.12,15.77-4.42,23.62,2.7,7.86,11.62,13.69,19.54,11.18-2.11,9.47-3.81,20.64,2.76,27.78,2.64,2.87,6.3,4.61,10.02,5.76,15.4,4.75,33.38-.44,43.88-12.65" fill="#ffd3bf" stroke="#1c2126" stroke-linecap="round" stroke-linejoin="round" stroke-width="2"/><path d="M171.44,284.76c15.53-30.46,42.33-31.96,68.26-26.17,1.14-14.38,8.66-28.73,21.36-35.57,12.7-6.84,30.47-4.33,38.95,7.34,11.35-8.9,23.24-18.06,37.35-21.08,14.11-3.02,31.08,2.13,36.94,15.31,11.95-19.85,40.33-27.64,60.74-16.67,20.41,10.96,29.58,38.93,19.63,59.85,18.12-.63,44.2,47.48,35.6,78.43-3.93,14.16-24.88,17.22-33.46,5.96-3.89,12.19-11.59,23.64-22.94,29.55-11.35,5.9-26.56,5.1-35.71-3.84-29.49,29.37-76.69,10.41-75.83-5.8-26.58,37.24-80.68,18.64-80.15,5.02-11.21,9.16-24.22,16.75-38.54,18.89-14.33,2.13-30.11-1.95-39.59-12.89-9.49-10.94-10.69-29.1-.74-39.62-13.78-2.61-26.79-11.51-32.03-24.52s-1.12-29.81,10.82-37.17c11.94-7.36,36.83-.66,40.97,27.2" fill="#ffd3bf" stroke="#1c2126" stroke-linecap="round" stroke-linejoin="round" stroke-width="2"/><line x1="300.06" y1="167.07" x2="294.57" y2="162.63" fill="none" stroke="#1c2126" stroke-linecap="round" stroke-linejoin="round" stroke-width="2"/><line x1="277.04" y1="169.26" x2="274.91" y2="165.88" fill="none" stroke="#1c2126" stroke-linecap="round" stroke-linejoin="round" stroke-width="2"/><path d="M122.86,244.03s11.8,15.48,31.88,4.37" fill="none" stroke="#1c2126" stroke-linecap="round" stroke-linejoin="round" stroke-width="2"/><line x1="300.01" y1="230.36" x2="291.47" y2="236.84" fill="none" stroke="#1c2126" stroke-linecap="round" stroke-linejoin="round" stroke-width="2"/><path d="M407.22,366.26s-5.89,8.56-9.06,11.6" fill="none" stroke="#1c2126" stroke-linecap="round" stroke-linejoin="round" stroke-width="2"/><path d="M374.6,292.89s-10.16-10.49-20.66,0" fill="none" stroke="#1c2126" stroke-linecap="round" stroke-miterlimit="10" stroke-width="2"/><path d="M339.17,292.89s-10.16-10.49-20.66,0" fill="none" stroke="#1c2126" stroke-linecap="round" stroke-miterlimit="10" stroke-width="2"/><path d="M368.86,305.15c-.37,11.09-10.2,19.99-22.3,19.99-12.11,0-21.94-8.89-22.3-19.99h44.61Z" fill="#7a122d" stroke="#1c2126" stroke-linecap="round" stroke-linejoin="round" stroke-width="2"/><line x1="258.81" y1="362.9" x2="240.56" y2="378.38" fill="none" stroke="#1c2126" stroke-linecap="round" stroke-linejoin="round" stroke-width="2"/><path d="M361.74,186.4s.19,5.16-.82,10.06" fill="none" stroke="#1c2126" stroke-linecap="round" stroke-linejoin="round" stroke-width="2"/><path d="M213.02,177.15c9.25.94,17.25,3.13,23.52,6.25,2.41,1.2,4.85,2.42,6.83,4.24s3.46,4.36,3.39,7.05c-.09,3.61-2.88,6.6-5.94,8.5-9.45,5.87-31.09,1.07-41.31-3.3,0,0,39.76,13.25,12.72,30.47" fill="none" stroke="#1c2126" stroke-linecap="round" stroke-linejoin="round" stroke-width="2"/><path d="M154.74,236.66s-5.98,11.11,9.18,22.43" fill="none" stroke="#1c2126" stroke-linecap="round" stroke-linejoin="round" stroke-width="2"/><path d="M198.64,259.08s-17.25-4.93-17.25-16.7" fill="none" stroke="#1c2126" stroke-linecap="round" stroke-linejoin="round" stroke-width="2"/><path d="M118.72,292.41s-4.45-1.99-8.9-7.57" fill="none" stroke="#1c2126" stroke-linecap="round" stroke-linejoin="round" stroke-width="2"/><path d="M325.46,177.15s-31.34,22.82-59.58,6.25" fill="none" stroke="#1c2126" stroke-linecap="round" stroke-linejoin="round" stroke-width="2"/><path d="M295.67,189.43s9.7,21.21-8.92,31.49" fill="none" stroke="#1c2126" stroke-linecap="round" stroke-linejoin="round" stroke-width="2"/><path d="M331.5,193.35s5.78,5.8,5.85,15.93" fill="none" stroke="#1c2126" stroke-linecap="round" stroke-linejoin="round" stroke-width="2"/><path d="M121.88,341.14s-13.45-7.43-14.16-21.6" fill="none" stroke="#1c2126" stroke-linecap="round" stroke-linejoin="round" stroke-width="2"/><path d="M456.81,352.16s-7.37-6.27-11.46-26.18" fill="none" stroke="#1c2126" stroke-linecap="round" stroke-linejoin="round" stroke-width="2"/><path d="M456.81,324.52s-16.74-2.64-28.16,9.08" fill="none" stroke="#1c2126" stroke-linecap="round" stroke-linejoin="round" stroke-width="2"/><path d="M374.29,224.6s9.4,20.91-9.07,22.36" fill="none" stroke="#1c2126" stroke-linecap="round" stroke-linejoin="round" stroke-width="2"/><path d="M163.3,343.45s7.82-8.89,19.82,0" fill="none" stroke="#1c2126" stroke-linecap="round" stroke-linejoin="round" stroke-width="2"/><path d="M239.7,258.59s21.05,3.19,15.38,20.17" fill="none" stroke="#1c2126" stroke-linecap="round" stroke-linejoin="round" stroke-width="2"/><path d="M235.18,278.64s19.34-4.77,37.25,8.03" fill="none" stroke="#1c2126" stroke-linecap="round" stroke-linejoin="round" stroke-width="2"/><path d="M187.73,337.13s-6.6,5.75-4.61,14.38" fill="none" stroke="#1c2126" stroke-linecap="round" stroke-linejoin="round" stroke-width="2"/><path d="M239.7,284.84s.33-4.72-12.49-12.56" fill="none" stroke="#1c2126" stroke-linecap="round" stroke-linejoin="round" stroke-width="2"/><path d="M210.35,288.22s15.26,9.12,13.01,24.56" fill="none" stroke="#1c2126" stroke-linecap="round" stroke-linejoin="round" stroke-width="2"/><path d="M202.1,319.54s16.42-11.55,37.61-4.36" fill="none" stroke="#1c2126" stroke-linecap="round" stroke-linejoin="round" stroke-width="2"/><path d="M423.7,233.6s-20.02,8.33-27.65,28.45" fill="none" stroke="#1c2126" stroke-linecap="round" stroke-linejoin="round" stroke-width="2"/><path d="M373.4,259.76s19.2-2.38,28.5,6.2" fill="none" stroke="#1c2126" stroke-linecap="round" stroke-linejoin="round" stroke-width="2"/><path d="M290.12,254.63s14.62,6.07,29.29-3.76c14.67-9.83,22.75-16.32,32.74-17.27" fill="none" stroke="#1c2126" stroke-linecap="round" stroke-linejoin="round" stroke-width="2"/><path d="M346.56,230.36s8.87.22,5.58,6.48" fill="none" stroke="#1c2126" stroke-linecap="round" stroke-linejoin="round" stroke-width="2"/><path d="M322.32,372.06s8.29-10.57,12.11-17.99" fill="none" stroke="#1c2126" stroke-linecap="round" stroke-linejoin="round" stroke-width="2"/><path d="M306.39,346.2s25.12,12.89,52.05,4.54" fill="none" stroke="#1c2126" stroke-linecap="round" stroke-linejoin="round" stroke-width="2"/><path d="M227.21,346.2s29.54,8.35,42.42-7.13" fill="none" stroke="#1c2126" stroke-linecap="round" stroke-linejoin="round" stroke-width="2"/><path d="M261.55,335.03s3.51,5.27,14.92,4.04" fill="none" stroke="#1c2126" stroke-linecap="round" stroke-linejoin="round" stroke-width="2"/><path d="M404.37,297.82s14.56,23.8-6.22,43.65" fill="none" stroke="#1c2126" stroke-linecap="round" stroke-linejoin="round" stroke-width="2"/><path d="M454.67,267.77s-5.45,12.34-13.38,22.78" fill="none" stroke="#1c2126" stroke-linecap="round" stroke-linejoin="round" stroke-width="2"/><line x1="107.08" y1="336.88" x2="112.52" y2="332.61" fill="none" stroke="#1c2126" stroke-linecap="round" stroke-linejoin="round" stroke-width="2"/><path d="M366.96,71.6c.1-1.05.6-2.02,1.15-2.92.96-1.58,2.22-3.13,3.99-3.68,1.85-.58,3.87.08,5.55,1.04,1.51.86,2.85,1.98,4,3.28.36-2.4,1.23-4.77,2.83-6.59,1.62-1.84,4.06-3.06,6.5-2.85,2.45.21,4.77,2.02,5.24,4.43.45,2.31-.75,4.59-1.93,6.63-2.93,5.1-5.94,10.15-9.03,15.15-4.28-2.51-8.56-5.02-12.84-7.52-2.7-1.58-5.78-3.85-5.47-6.97Z" fill="#ffdd73" stroke="#1c2126" stroke-linejoin="round" stroke-width="2"/><path d="M410.89,43.19c.86-.86,2-1.37,3.15-1.77,2.01-.71,4.26-1.19,6.24-.4,2.08.83,3.41,2.88,4.22,4.96.72,1.86,1.12,3.85,1.2,5.84,2.06-1.89,4.56-3.38,7.32-3.85,2.79-.48,5.85.21,7.89,2.17,2.04,1.96,2.81,5.27,1.47,7.77-1.28,2.39-4.01,3.56-6.54,4.54-6.33,2.44-12.69,4.78-19.09,7.01-2.01-5.35-4.02-10.71-6.03-16.06-1.27-3.38-2.37-7.65.17-10.21Z" fill="#ffdd73" stroke="#1c2126" stroke-linejoin="round" stroke-width="2"/><path d="M394.29,107.7c1.02-.8,2.3-1.18,3.56-1.45,2.22-.49,4.66-.69,6.64.41,2.08,1.15,3.22,3.49,3.79,5.8.52,2.06.67,4.21.49,6.33,2.43-1.72,5.27-2.96,8.24-3.09,3.01-.13,6.15,1,8.04,3.34,1.89,2.34,2.26,5.94.52,8.4-1.67,2.36-4.7,3.22-7.5,3.92-7,1.73-14.03,3.35-21.08,4.86-1.41-5.92-2.82-11.84-4.23-17.75-.89-3.73-1.49-8.39,1.53-10.76Z" fill="#ffdd73" stroke="#1c2126" stroke-linejoin="round" stroke-width="2"/><rect x="0" y="595" width="1200" height="35" fill="#fff"/><rect x="0" y="499.19" width="1200" height="95.81" fill="#fff"/><line x1="0" y1="499.19" x2="1200" y2="499.19" fill="none" stroke="#1c2126" stroke-miterlimit="10"/><line x1="0" y1="595" x2="1200" y2="595" fill="none" stroke="#1c2126" stroke-miterlimit="10"/><path d="M24.24,559.45v-18.76h-6.39v-2.37h15.35v2.37h-6.39v18.76h-2.58Z" fill="#1c2126"/><path d="M44.08,559.89c-4.8,0-7.75-3.46-7.75-9.3v-3.41c0-5.84,2.94-9.3,7.75-9.3s7.75,3.46,7.75,9.3v3.41c0,5.84-2.94,9.3-7.75,9.3ZM49.22,550.58v-3.38c0-4.41-1.93-6.87-5.14-6.87s-5.14,2.46-5.14,6.87v3.38c0,4.41,1.93,6.87,5.14,6.87s5.14-2.46,5.14-6.87Z" fill="#1c2126"/><path d="M59.97,545.58c0-1.48,1.2-2.71,2.65-2.71s2.65,1.23,2.65,2.71-1.2,2.71-2.65,2.71-2.65-1.23-2.65-2.71ZM59.97,556.83c0-1.48,1.2-2.7,2.65-2.7s2.65,1.21,2.65,2.7-1.2,2.71-2.65,2.71-2.65-1.21-2.65-2.71Z" fill="#1c2126"/><line x1="582.03" y1="498.72" x2="582.03" y2="595" fill="none" stroke="#1c2126" stroke-miterlimit="10"/><path d="M605.51,559.45v-21.14h12.47v2.37h-9.87v7.25h9.02v2.3h-9.02v9.21h-2.59Z" fill="#1c2126"/><path d="M625.54,551.03v8.42h-2.55v-21.14h7.09c4.19,0,6.81,2.43,6.81,6.36,0,2.77-1.54,5.04-3.94,5.83l4.31,8.95h-2.92l-3.94-8.42h-4.86ZM625.54,548.85h4.19c2.92,0,4.56-1.48,4.56-4.12s-1.61-4.12-4.44-4.12h-4.31v8.23Z" fill="#1c2126"/><path d="M648.15,559.89c-4.8,0-7.75-3.46-7.75-9.3v-3.41c0-5.84,2.94-9.3,7.75-9.3s7.75,3.46,7.75,9.3v3.41c0,5.84-2.94,9.3-7.75,9.3ZM653.29,550.58v-3.38c0-4.41-1.93-6.87-5.14-6.87s-5.14,2.46-5.14,6.87v3.38c0,4.41,1.93,6.87,5.14,6.87s5.14-2.46,5.14-6.87Z" fill="#1c2126"/><path d="M661.18,559.45h-2.31v-21.14h2.86l4.88,13.08h.19l4.86-13.08h2.86v21.14h-2.31v-8.1l.15-8.57h-.19l-4.45,11.71h-2.02l-4.45-11.71h-.19l.15,8.57v8.1Z" fill="#1c2126"/><path d="M682.59,545.58c0-1.48,1.2-2.71,2.65-2.71s2.65,1.23,2.65,2.71-1.2,2.71-2.65,2.71-2.65-1.23-2.65-2.71ZM682.59,556.83c0-1.48,1.2-2.7,2.65-2.7s2.65,1.21,2.65,2.7-1.2,2.71-2.65,2.71-2.65-1.21-2.65-2.71Z" fill="#1c2126"/><path d="M12.77,618.4c-.12,0-.21-.04-.26-.11s-.08-.17-.06-.27l2.22-10.42c.02-.12.07-.21.16-.29.08-.07.19-.11.3-.11h6.94c.12,0,.2.04.26.11.05.07.07.17.05.29l-.24,1.12c-.02.12-.07.21-.16.28-.09.07-.19.11-.3.11h-5.14l-.66,3.04h4.82c.12,0,.2.04.26.11.05.07.07.17.05.29l-.22,1.12c-.02.11-.08.2-.17.27-.09.07-.19.11-.31.11h-4.82l-.85,3.97c-.02.11-.08.2-.16.27-.09.07-.19.11-.3.11h-1.41Z" fill="#1c2126"/><path d="M25.41,618.56c-.81,0-1.49-.15-2.02-.45s-.92-.72-1.15-1.26c-.23-.54-.29-1.18-.17-1.9.03-.19.08-.43.14-.71s.11-.51.17-.7c.19-.74.49-1.37.89-1.91s.91-.96,1.54-1.26,1.36-.45,2.22-.45,1.49.15,2.02.45.93.72,1.16,1.26c.23.54.29,1.18.18,1.91-.04.19-.09.43-.14.7s-.11.51-.16.71c-.19.72-.48,1.36-.87,1.9-.39.54-.9.96-1.52,1.26s-1.38.45-2.26.45ZM25.57,616.98c.58,0,1.06-.18,1.46-.54s.69-.88.87-1.58c.04-.16.09-.37.14-.62.05-.26.1-.46.13-.62.12-.69.07-1.22-.14-1.58s-.61-.54-1.18-.54-1.05.18-1.46.54-.69.88-.86,1.58c-.04.16-.09.37-.15.62s-.1.46-.12.62c-.12.69-.07,1.22.14,1.58s.6.54,1.18.54Z" fill="#1c2126"/><path d="M31.53,618.4c-.11,0-.19-.04-.25-.11-.06-.07-.08-.17-.06-.27l1.6-7.54c.02-.12.08-.21.17-.29.09-.07.19-.11.3-.11h1.3c.11,0,.19.04.25.11s.08.17.06.29l-.14.66c.26-.34.58-.6.98-.78.39-.18.87-.27,1.44-.27h.78c.12,0,.2.04.26.11.05.07.07.16.05.27l-.24,1.15c-.02.11-.08.2-.17.27-.09.07-.19.11-.3.11h-1.25c-.51,0-.94.14-1.29.43-.35.28-.57.68-.68,1.19l-.94,4.4c-.02.11-.07.2-.16.27s-.19.11-.3.11h-1.39Z" fill="#1c2126"/><path d="M44.76,618.4c-.73,0-1.29-.11-1.7-.34-.41-.22-.67-.56-.78-1-.12-.44-.11-.99.03-1.66l.78-3.63h-1.26c-.11,0-.19-.04-.25-.11-.06-.07-.08-.17-.06-.29l.19-.91c.02-.11.08-.2.17-.27.09-.07.19-.11.31-.11h1.25l.58-2.65c.02-.11.07-.2.16-.27.08-.07.18-.11.29-.11h1.3c.12,0,.21.04.26.11.06.08.08.17.06.27l-.58,2.65h2c.11,0,.19.04.25.11s.08.16.06.27l-.19.91c-.02.12-.08.21-.17.29-.09.08-.19.11-.3.11h-2l-.74,3.47c-.06.29-.1.54-.1.74,0,.21.05.37.17.48s.33.17.62.17h1.15c.12,0,.2.04.26.11.05.08.07.17.05.27l-.21.99c-.02.11-.07.2-.16.27-.09.07-.19.11-.3.11h-1.14Z" fill="#1c2126"/><path d="M48.07,618.4c-.11,0-.19-.04-.25-.11-.06-.07-.08-.17-.06-.27l2.26-10.59c.02-.11.07-.2.16-.27.08-.07.18-.11.29-.11h1.44c.11,0,.19.04.25.11.06.08.08.17.06.27l-.78,3.65c.34-.34.72-.62,1.14-.83.42-.21.93-.32,1.53-.32.69,0,1.26.15,1.7.44.44.29.75.71.92,1.24.17.53.18,1.17.02,1.92l-.96,4.5c-.02.11-.07.2-.16.27s-.19.11-.3.11h-1.44c-.11,0-.19-.04-.25-.11s-.08-.17-.06-.27l.93-4.4c.14-.62.11-1.1-.08-1.46-.19-.35-.58-.53-1.17-.53-.36,0-.71.08-1.03.23-.33.15-.61.38-.84.68-.23.3-.4.66-.5,1.07l-.93,4.4c-.02.11-.07.2-.16.27s-.18.11-.29.11h-1.44Z" fill="#1c2126"/><path d="M61.51,618.56c-.78,0-1.43-.15-1.94-.46-.52-.31-.87-.76-1.07-1.35-.2-.59-.23-1.29-.09-2.13.02-.11.05-.24.08-.41.03-.17.06-.3.1-.39.21-.81.54-1.51.99-2.09.45-.58.99-1.03,1.64-1.34s1.36-.47,2.14-.47c.86,0,1.55.18,2.06.54.51.36.84.85,1.01,1.49.17.63.16,1.37,0,2.2l-.08.34c-.02.11-.08.2-.17.27-.09.08-.19.11-.31.11h-5.31c-.01.06-.02.11-.03.13-.05.38-.05.72.02,1.03s.21.57.42.76.51.29.87.29c.3,0,.56-.04.78-.13.22-.09.41-.2.55-.31s.25-.21.33-.29c.13-.13.22-.21.29-.23.06-.03.15-.04.27-.04h1.39c.1,0,.17.03.22.1.05.06.07.14.05.24-.05.17-.19.38-.4.62-.21.24-.5.48-.86.72-.36.24-.79.43-1.29.58s-1.04.23-1.64.23ZM60.82,613.53h3.54l.02-.05c.1-.42.1-.78.02-1.1s-.23-.56-.46-.74c-.22-.18-.52-.26-.9-.26s-.71.09-1.02.26c-.3.18-.56.42-.76.74s-.35.68-.43,1.1l-.02.05Z" fill="#1c2126"/><path d="M71.06,618.4c-.11,0-.19-.04-.25-.11-.06-.07-.08-.17-.06-.27l2.26-10.59c.02-.11.07-.2.16-.27.08-.07.18-.11.29-.11h1.33c.12,0,.21.04.26.11.06.08.08.17.06.27l-2.26,10.59c-.02.11-.08.2-.16.27-.09.07-.19.11-.3.11h-1.33Z" fill="#1c2126"/><path d="M78.64,618.56c-.81,0-1.49-.15-2.02-.45s-.92-.72-1.15-1.26c-.23-.54-.29-1.18-.17-1.9.03-.19.08-.43.14-.71s.11-.51.17-.7c.19-.74.49-1.37.89-1.91s.91-.96,1.54-1.26,1.36-.45,2.22-.45,1.49.15,2.02.45.93.72,1.16,1.26c.23.54.29,1.18.18,1.91-.04.19-.09.43-.14.7s-.11.51-.16.71c-.19.72-.48,1.36-.87,1.9-.39.54-.9.96-1.52,1.26s-1.38.45-2.26.45ZM78.8,616.98c.58,0,1.06-.18,1.46-.54s.69-.88.87-1.58c.04-.16.09-.37.14-.62.05-.26.1-.46.13-.62.12-.69.07-1.22-.14-1.58s-.61-.54-1.18-.54-1.05.18-1.46.54-.69.88-.86,1.58c-.04.16-.09.37-.15.62s-.1.46-.12.62c-.12.69-.07,1.22.14,1.58s.6.54,1.18.54Z" fill="#1c2126"/><path d="M86.92,618.4c-.16,0-.27-.04-.34-.12s-.11-.17-.13-.28l-1.42-7.49c-.02-.14,0-.25.08-.32s.18-.11.3-.11h1.22c.12,0,.21.03.27.1.06.06.11.15.13.27l.91,5.55,3.33-5.62c.03-.06.09-.13.17-.2.08-.07.18-.11.31-.11h1.39c.13,0,.22.05.26.14.05.1.03.21-.06.35l-4.56,7.42c-.07.11-.16.2-.25.28-.09.08-.22.12-.38.12h-1.25Z" fill="#1c2126"/><path d="M96.66,618.56c-.78,0-1.43-.15-1.94-.46-.52-.31-.87-.76-1.07-1.35-.2-.59-.23-1.29-.09-2.13.02-.11.05-.24.08-.41.03-.17.06-.3.1-.39.21-.81.54-1.51.99-2.09.45-.58.99-1.03,1.64-1.34s1.36-.47,2.14-.47c.86,0,1.55.18,2.06.54.51.36.84.85,1.01,1.49.17.63.16,1.37,0,2.2l-.08.34c-.02.11-.08.2-.17.27-.09.08-.19.11-.31.11h-5.31c-.01.06-.02.11-.03.13-.05.38-.05.72.02,1.03s.21.57.42.76.51.29.87.29c.3,0,.56-.04.78-.13.22-.09.41-.2.55-.31s.25-.21.33-.29c.13-.13.22-.21.29-.23.06-.03.15-.04.27-.04h1.39c.1,0,.17.03.22.1.05.06.07.14.05.24-.05.17-.19.38-.4.62-.21.24-.5.48-.86.72-.36.24-.79.43-1.29.58s-1.04.23-1.64.23ZM95.97,613.53h3.54l.02-.05c.1-.42.1-.78.02-1.1s-.23-.56-.46-.74c-.22-.18-.52-.26-.9-.26s-.71.09-1.02.26c-.3.18-.56.42-.76.74s-.35.68-.43,1.1l-.02.05Z" fill="#1c2126"/><path d="M109.56,618.56c-.81,0-1.49-.15-2.02-.45s-.92-.72-1.15-1.26c-.23-.54-.29-1.18-.17-1.9.03-.19.08-.43.14-.71s.11-.51.17-.7c.19-.74.49-1.37.89-1.91s.91-.96,1.54-1.26,1.36-.45,2.22-.45,1.49.15,2.02.45.93.72,1.16,1.26c.23.54.29,1.18.18,1.91-.04.19-.09.43-.14.7s-.11.51-.16.71c-.19.72-.48,1.36-.87,1.9-.39.54-.9.96-1.52,1.26s-1.38.45-2.26.45ZM109.72,616.98c.58,0,1.06-.18,1.46-.54s.69-.88.87-1.58c.04-.16.09-.37.14-.62.05-.26.1-.46.13-.62.12-.69.07-1.22-.14-1.58s-.61-.54-1.18-.54-1.05.18-1.46.54-.69.88-.86,1.58c-.04.16-.09.37-.15.62s-.1.46-.12.62c-.12.69-.07,1.22.14,1.58s.6.54,1.18.54Z" fill="#1c2126"/><path d="M116.42,618.4c-.12,0-.21-.04-.26-.11s-.08-.17-.06-.27l1.33-6.24h-1.3c-.11,0-.19-.04-.25-.11-.06-.07-.08-.17-.06-.29l.19-.91c.02-.11.08-.2.17-.27.09-.07.19-.11.31-.11h1.3l.13-.65c.15-.64.38-1.17.69-1.59.31-.42.7-.74,1.18-.95s1.04-.32,1.68-.32h1.28c.12,0,.2.04.26.11.05.07.07.16.05.27l-.19.91c-.02.12-.08.21-.17.29s-.19.11-.3.11h-.96c-.43,0-.76.11-.99.32-.23.21-.39.52-.46.93l-.13.58h1.98c.12,0,.2.04.26.11s.07.16.05.27l-.19.91c-.02.12-.07.21-.16.29-.09.08-.19.11-.3.11h-1.98l-1.34,6.24c-.02.11-.07.2-.16.27-.09.07-.18.11-.29.11h-1.3Z" fill="#1c2126"/><path d="M128.85,618.56c-.81,0-1.49-.15-2.02-.45s-.92-.72-1.15-1.26c-.23-.54-.29-1.18-.17-1.9.03-.19.08-.43.14-.71s.11-.51.17-.7c.19-.74.49-1.37.89-1.91s.91-.96,1.54-1.26,1.36-.45,2.22-.45,1.49.15,2.02.45.93.72,1.16,1.26c.23.54.29,1.18.18,1.91-.04.19-.09.43-.14.7s-.11.51-.16.71c-.19.72-.48,1.36-.87,1.9-.39.54-.9.96-1.52,1.26s-1.38.45-2.26.45ZM129.01,616.98c.58,0,1.06-.18,1.46-.54s.69-.88.87-1.58c.04-.16.09-.37.14-.62.05-.26.1-.46.13-.62.12-.69.07-1.22-.14-1.58s-.61-.54-1.18-.54-1.05.18-1.46.54-.69.88-.86,1.58c-.04.16-.09.37-.15.62s-.1.46-.12.62c-.12.69-.07,1.22.14,1.58s.6.54,1.18.54Z" fill="#1c2126"/><path d="M134.32,621.45c-.11,0-.19-.04-.25-.11-.06-.07-.08-.16-.06-.27l2.26-10.59c.02-.11.07-.2.16-.27s.18-.11.29-.11h1.28c.11,0,.19.04.25.11s.08.16.06.27l-.14.64c.33-.34.7-.62,1.1-.85.4-.22.93-.34,1.58-.34.55,0,1.03.09,1.42.28.39.19.7.45.92.79.22.34.37.74.44,1.21.07.46.06.97-.04,1.53-.02.18-.05.35-.09.51-.04.16-.08.34-.14.53-.13.52-.31,1.02-.54,1.48-.23.46-.52.87-.86,1.22-.34.35-.73.62-1.18.81-.45.19-.96.29-1.53.29-.6,0-1.09-.1-1.47-.31-.38-.21-.66-.48-.83-.82l-.78,3.63c-.02.11-.07.2-.16.27-.09.08-.19.11-.3.11h-1.36ZM138.88,616.85c.43,0,.79-.1,1.09-.3.3-.2.55-.46.74-.78.2-.33.35-.68.47-1.05.05-.16.1-.32.13-.48.03-.16.06-.32.08-.48.05-.38.06-.74.02-1.06-.04-.32-.16-.58-.36-.78-.2-.2-.51-.3-.94-.3-.45,0-.83.1-1.16.3-.33.2-.59.46-.8.78s-.35.64-.44.97c-.05.19-.1.39-.14.61-.04.21-.08.42-.11.62-.05.32-.05.63,0,.92.06.29.2.54.43.73s.56.29.98.29Z" fill="#1c2126"/><path d="M148.13,618.56c-.78,0-1.43-.15-1.94-.46-.52-.31-.87-.76-1.07-1.35-.2-.59-.23-1.29-.09-2.13.02-.11.05-.24.08-.41.03-.17.06-.3.1-.39.21-.81.54-1.51.99-2.09.45-.58.99-1.03,1.64-1.34s1.36-.47,2.14-.47c.86,0,1.55.18,2.06.54.51.36.84.85,1.01,1.49.17.63.16,1.37,0,2.2l-.08.34c-.02.11-.08.2-.17.27-.09.08-.19.11-.31.11h-5.31c-.01.06-.02.11-.03.13-.05.38-.05.72.02,1.03s.21.57.42.76.51.29.87.29c.3,0,.56-.04.78-.13.22-.09.41-.2.55-.31s.25-.21.33-.29c.13-.13.22-.21.29-.23.06-.03.15-.04.27-.04h1.39c.1,0,.17.03.22.1.05.06.07.14.05.24-.05.17-.19.38-.4.62-.21.24-.5.48-.86.72-.36.24-.79.43-1.29.58s-1.04.23-1.64.23ZM147.44,613.53h3.54l.02-.05c.1-.42.1-.78.02-1.1s-.23-.56-.46-.74c-.22-.18-.52-.26-.9-.26s-.71.09-1.02.26c-.3.18-.56.42-.76.74s-.35.68-.43,1.1l-.02.05Z" fill="#1c2126"/><path d="M153.96,618.4c-.11,0-.19-.04-.25-.11-.06-.07-.08-.17-.06-.27l1.6-7.55c.02-.11.08-.2.17-.27.09-.07.19-.11.3-.11h1.31c.11,0,.19.04.24.11.05.07.07.16.05.27l-.14.66c.34-.34.74-.63,1.21-.86.46-.23.99-.35,1.58-.35.73,0,1.31.15,1.74.44s.73.71.87,1.24.14,1.17-.02,1.92l-.96,4.5c-.02.11-.07.2-.16.27s-.19.11-.3.11h-1.41c-.11,0-.19-.04-.25-.11s-.08-.17-.06-.27l.93-4.4c.14-.65.12-1.14-.04-1.48-.17-.34-.56-.5-1.18-.5s-1.12.18-1.54.53c-.42.35-.7.84-.84,1.46l-.93,4.4c-.02.11-.07.2-.16.27s-.18.11-.29.11h-1.41Z" fill="#1c2126"/><path d="M170.61,618.56c-.64,0-1.17-.07-1.59-.22-.42-.15-.75-.34-.99-.56-.24-.22-.41-.45-.5-.67-.09-.22-.13-.41-.1-.56.02-.12.08-.21.17-.28.09-.07.18-.11.28-.11h1.26s.08,0,.11.02c.03,0,.06.04.1.1.12.12.24.24.37.37.13.13.29.24.49.33.2.09.46.14.78.14.42,0,.78-.08,1.1-.25.31-.17.5-.4.57-.71.04-.22.02-.4-.08-.54-.1-.14-.29-.27-.59-.38-.3-.11-.74-.23-1.33-.36-.58-.14-1.04-.31-1.38-.53-.35-.21-.58-.48-.7-.8s-.14-.69-.04-1.12c.09-.42.29-.81.62-1.19s.77-.69,1.32-.94c.55-.25,1.19-.37,1.93-.37.58,0,1.06.07,1.46.22.4.14.72.32.96.54.24.21.41.43.5.65.1.22.13.41.1.57-.01.12-.06.21-.15.28-.09.07-.18.11-.28.11h-1.17c-.05,0-.1-.01-.14-.03-.04-.02-.08-.05-.1-.08-.11-.11-.22-.22-.33-.34-.11-.12-.26-.23-.43-.31-.18-.08-.42-.13-.74-.13-.41,0-.73.09-.98.26s-.41.4-.47.66c-.03.18-.01.34.06.47.07.13.25.26.54.38s.73.24,1.31.37c.69.13,1.22.32,1.59.57.37.25.61.54.72.86.11.33.13.69.04,1.08-.1.48-.33.91-.7,1.29-.37.38-.85.69-1.45.9s-1.3.33-2.11.33Z" fill="#1c2126"/><path d="M179.52,618.56c-.81,0-1.49-.15-2.02-.45s-.92-.72-1.15-1.26c-.23-.54-.29-1.18-.17-1.9.03-.19.08-.43.14-.71s.11-.51.17-.7c.19-.74.49-1.37.89-1.91s.91-.96,1.54-1.26,1.36-.45,2.22-.45,1.49.15,2.02.45.93.72,1.16,1.26c.23.54.29,1.18.18,1.91-.04.19-.09.43-.14.7s-.11.51-.16.71c-.19.72-.48,1.36-.87,1.9-.39.54-.9.96-1.52,1.26s-1.38.45-2.26.45ZM179.68,616.98c.58,0,1.06-.18,1.46-.54s.69-.88.87-1.58c.04-.16.09-.37.14-.62.05-.26.1-.46.13-.62.12-.69.07-1.22-.14-1.58s-.61-.54-1.18-.54-1.05.18-1.46.54-.69.88-.86,1.58c-.04.16-.09.37-.15.62s-.1.46-.12.62c-.12.69-.07,1.22.14,1.58s.6.54,1.18.54Z" fill="#1c2126"/><path d="M188.45,618.56c-.69,0-1.26-.15-1.7-.44s-.73-.71-.87-1.25-.14-1.18,0-1.91l.96-4.5c.02-.11.08-.2.17-.27.09-.07.19-.11.3-.11h1.41c.11,0,.19.04.24.11s.07.16.05.27l-.93,4.4c-.1.44-.13.8-.09,1.1.04.29.16.52.36.66s.52.22.94.22c.58,0,1.08-.18,1.5-.53.43-.35.7-.84.83-1.46l.94-4.4c.02-.11.08-.2.17-.27.09-.07.19-.11.3-.11h1.39c.12,0,.2.04.26.11s.07.16.05.27l-1.6,7.55c-.02.11-.07.2-.16.27s-.19.11-.3.11h-1.3c-.11,0-.19-.04-.25-.11s-.08-.17-.06-.27l.13-.66c-.23.24-.48.46-.72.64-.25.18-.53.32-.85.42-.32.1-.71.14-1.18.14Z" fill="#1c2126"/><path d="M195.57,618.4c-.11,0-.19-.04-.25-.11-.06-.07-.08-.17-.06-.27l1.6-7.54c.02-.12.08-.21.17-.29.09-.07.19-.11.3-.11h1.3c.11,0,.19.04.25.11s.08.17.06.29l-.14.66c.26-.34.58-.6.98-.78.39-.18.87-.27,1.44-.27h.78c.12,0,.2.04.26.11.05.07.07.16.05.27l-.24,1.15c-.02.11-.08.2-.17.27-.09.07-.19.11-.3.11h-1.25c-.51,0-.94.14-1.29.43-.35.28-.57.68-.68,1.19l-.94,4.4c-.02.11-.07.2-.16.27s-.19.11-.3.11h-1.39Z" fill="#1c2126"/><path d="M205.46,618.56c-.71,0-1.34-.14-1.88-.43s-.94-.71-1.19-1.26c-.26-.55-.31-1.21-.18-1.99.03-.16.07-.37.13-.63.05-.26.1-.48.14-.65.29-1.16.82-2.07,1.6-2.71.78-.64,1.77-.97,2.98-.97.67,0,1.23.1,1.69.29.45.19.81.44,1.07.74s.44.61.54.93c.1.32.14.61.1.86-.01.12-.06.21-.14.28-.08.07-.17.1-.28.1h-1.46c-.11,0-.19-.03-.25-.08-.06-.05-.09-.13-.1-.24,0-.43-.11-.74-.34-.93s-.56-.29-.98-.29c-.52,0-.99.17-1.4.51-.41.34-.71.87-.89,1.59-.04.19-.09.39-.13.59s-.08.38-.11.53c-.12.74-.06,1.27.16,1.6.22.33.6.5,1.12.5.42,0,.79-.09,1.12-.26s.61-.48.83-.9c.06-.12.13-.2.2-.25.07-.05.16-.07.26-.07h1.44c.11,0,.19.04.25.11.06.07.07.16.04.28-.07.23-.21.51-.41.82s-.47.62-.81.92c-.34.3-.77.54-1.29.74-.52.19-1.13.29-1.85.29Z" fill="#1c2126"/><path d="M214.69,618.56c-.78,0-1.43-.15-1.94-.46-.52-.31-.87-.76-1.07-1.35-.2-.59-.23-1.29-.09-2.13.02-.11.05-.24.08-.41.03-.17.06-.3.1-.39.21-.81.54-1.51.99-2.09.45-.58.99-1.03,1.64-1.34s1.36-.47,2.14-.47c.86,0,1.55.18,2.06.54.51.36.84.85,1.01,1.49.17.63.16,1.37,0,2.2l-.08.34c-.02.11-.08.2-.17.27-.09.08-.19.11-.31.11h-5.31c-.01.06-.02.11-.03.13-.05.38-.05.72.02,1.03s.21.57.42.76.51.29.87.29c.3,0,.56-.04.78-.13.22-.09.41-.2.55-.31s.25-.21.33-.29c.13-.13.22-.21.29-.23.06-.03.15-.04.27-.04h1.39c.1,0,.17.03.22.1.05.06.07.14.05.24-.05.17-.19.38-.4.62-.21.24-.5.48-.86.72-.36.24-.79.43-1.29.58s-1.04.23-1.64.23ZM214,613.53h3.54l.02-.05c.1-.42.1-.78.02-1.1s-.23-.56-.46-.74c-.22-.18-.52-.26-.9-.26s-.71.09-1.02.26c-.3.18-.56.42-.76.74s-.35.68-.43,1.1l-.02.05Z" fill="#1c2126"/><path d="M227.19,618.56c-.64,0-1.17-.07-1.59-.22-.42-.15-.75-.34-.99-.56-.24-.22-.41-.45-.5-.67-.09-.22-.13-.41-.1-.56.02-.12.08-.21.17-.28.09-.07.18-.11.28-.11h1.26s.08,0,.11.02c.03,0,.06.04.1.1.12.12.24.24.37.37.13.13.29.24.49.33.2.09.46.14.78.14.42,0,.78-.08,1.1-.25.31-.17.5-.4.57-.71.04-.22.02-.4-.08-.54-.1-.14-.29-.27-.59-.38-.3-.11-.74-.23-1.33-.36-.58-.14-1.04-.31-1.38-.53-.35-.21-.58-.48-.7-.8s-.14-.69-.04-1.12c.09-.42.29-.81.62-1.19s.77-.69,1.32-.94c.55-.25,1.19-.37,1.93-.37.58,0,1.06.07,1.46.22.4.14.72.32.96.54.24.21.41.43.5.65.1.22.13.41.1.57-.01.12-.06.21-.15.28-.09.07-.18.11-.28.11h-1.17c-.05,0-.1-.01-.14-.03-.04-.02-.08-.05-.1-.08-.11-.11-.22-.22-.33-.34-.11-.12-.26-.23-.43-.31-.18-.08-.42-.13-.74-.13-.41,0-.73.09-.98.26s-.41.4-.47.66c-.03.18-.01.34.06.47.07.13.25.26.54.38s.73.24,1.31.37c.69.13,1.22.32,1.59.57.37.25.61.54.72.86.11.33.13.69.04,1.08-.1.48-.33.91-.7,1.29-.37.38-.85.69-1.45.9s-1.3.33-2.11.33Z" fill="#1c2126"/><path d="M236.1,618.56c-.81,0-1.49-.15-2.02-.45s-.92-.72-1.15-1.26c-.23-.54-.29-1.18-.17-1.9.03-.19.08-.43.14-.71s.11-.51.17-.7c.19-.74.49-1.37.89-1.91s.91-.96,1.54-1.26,1.36-.45,2.22-.45,1.49.15,2.02.45.93.72,1.16,1.26c.23.54.29,1.18.18,1.91-.04.19-.09.43-.14.7s-.11.51-.16.71c-.19.72-.48,1.36-.87,1.9-.39.54-.9.96-1.52,1.26s-1.38.45-2.26.45ZM236.26,616.98c.58,0,1.06-.18,1.46-.54s.69-.88.87-1.58c.04-.16.09-.37.14-.62.05-.26.1-.46.13-.62.12-.69.07-1.22-.14-1.58s-.61-.54-1.18-.54-1.05.18-1.46.54-.69.88-.86,1.58c-.04.16-.09.37-.15.62s-.1.46-.12.62c-.12.69-.07,1.22.14,1.58s.6.54,1.18.54Z" fill="#1c2126"/><path d="M242.96,618.4c-.12,0-.21-.04-.26-.11s-.08-.17-.06-.27l1.33-6.24h-1.3c-.11,0-.19-.04-.25-.11-.06-.07-.08-.17-.06-.29l.19-.91c.02-.11.08-.2.17-.27.09-.07.19-.11.31-.11h1.3l.13-.65c.15-.64.38-1.17.69-1.59.31-.42.7-.74,1.18-.95s1.04-.32,1.68-.32h1.28c.12,0,.2.04.26.11.05.07.07.16.05.27l-.19.91c-.02.12-.08.21-.17.29s-.19.11-.3.11h-.96c-.43,0-.76.11-.99.32-.23.21-.39.52-.46.93l-.13.58h1.98c.12,0,.2.04.26.11s.07.16.05.27l-.19.91c-.02.12-.07.21-.16.29-.09.08-.19.11-.3.11h-1.98l-1.34,6.24c-.02.11-.07.2-.16.27-.09.07-.18.11-.29.11h-1.3Z" fill="#1c2126"/><path d="M252.11,618.4c-.73,0-1.29-.11-1.7-.34-.41-.22-.67-.56-.78-1-.12-.44-.11-.99.03-1.66l.78-3.63h-1.26c-.11,0-.19-.04-.25-.11-.06-.07-.08-.17-.06-.29l.19-.91c.02-.11.08-.2.17-.27.09-.07.19-.11.31-.11h1.25l.58-2.65c.02-.11.07-.2.16-.27.08-.07.18-.11.29-.11h1.3c.12,0,.21.04.26.11.06.08.08.17.06.27l-.58,2.65h2c.11,0,.19.04.25.11s.08.16.06.27l-.19.91c-.02.12-.08.21-.17.29-.09.08-.19.11-.3.11h-2l-.74,3.47c-.06.29-.1.54-.1.74,0,.21.05.37.17.48s.33.17.62.17h1.15c.12,0,.2.04.26.11.05.08.07.17.05.27l-.21.99c-.02.11-.07.2-.16.27-.09.07-.19.11-.3.11h-1.14Z" fill="#1c2126"/><path d="M257.27,618.4c-.15,0-.26-.04-.32-.11-.06-.07-.1-.17-.11-.29l-.72-7.49c-.01-.12.02-.22.1-.3s.18-.13.32-.13h1.12c.13,0,.22.03.28.09.06.06.09.13.1.22l.46,5.3,2.75-5.25c.04-.08.11-.15.19-.23s.2-.12.34-.12h.83c.15,0,.25.04.3.12.05.08.09.16.1.23l.58,5.25,2.69-5.3c.03-.06.09-.13.16-.2.07-.07.18-.11.3-.11h1.3c.15,0,.24.05.26.14.03.1.01.2-.04.32l-3.86,7.46c-.06.12-.14.21-.23.29s-.21.11-.36.11h-1.06c-.15,0-.26-.04-.33-.11-.07-.07-.12-.17-.14-.29l-.66-5.05-2.72,5.05c-.06.12-.14.21-.24.29-.1.07-.22.11-.37.11h-1.04Z" fill="#1c2126"/><path d="M271.09,618.56c-.55,0-1.02-.09-1.41-.28-.38-.19-.69-.45-.9-.79-.22-.34-.36-.74-.42-1.21-.06-.46-.05-.97.03-1.53.04-.19.08-.37.11-.52.03-.15.07-.33.11-.52.14-.53.32-1.03.55-1.49s.51-.86.85-1.21c.34-.35.73-.62,1.18-.81.45-.19.97-.29,1.56-.29.66,0,1.17.11,1.51.31.35.21.62.46.81.76l.11-.53c.02-.11.07-.2.16-.27s.18-.11.29-.11h1.26c.11,0,.19.04.26.11s.08.16.06.27l-1.62,7.55c-.02.11-.07.2-.16.27-.09.07-.18.11-.29.11h-1.26c-.12,0-.21-.04-.26-.11-.06-.07-.08-.17-.06-.27l.13-.59c-.32.33-.67.6-1.06.81-.38.21-.9.32-1.55.32ZM271.81,616.85c.45,0,.83-.1,1.15-.3.32-.2.58-.46.78-.78.2-.31.34-.64.42-.97.05-.19.1-.4.14-.62s.08-.42.11-.62c.06-.32.07-.63.02-.92s-.19-.54-.41-.73c-.22-.19-.55-.29-.98-.29s-.77.1-1.06.3-.54.46-.73.78c-.19.32-.35.67-.46,1.06-.04.16-.08.32-.11.48-.03.16-.06.32-.08.48-.05.38-.07.74-.04,1.06.03.32.14.58.34.78s.5.3.92.3Z" fill="#1c2126"/><path d="M278.05,618.4c-.11,0-.19-.04-.25-.11-.06-.07-.08-.17-.06-.27l1.6-7.54c.02-.12.08-.21.17-.29.09-.07.19-.11.3-.11h1.3c.11,0,.19.04.25.11s.08.17.06.29l-.14.66c.26-.34.58-.6.98-.78.39-.18.87-.27,1.44-.27h.78c.12,0,.2.04.26.11.05.07.07.16.05.27l-.24,1.15c-.02.11-.08.2-.17.27-.09.07-.19.11-.3.11h-1.25c-.51,0-.94.14-1.29.43-.35.28-.57.68-.68,1.19l-.94,4.4c-.02.11-.07.2-.16.27s-.19.11-.3.11h-1.39Z" fill="#1c2126"/><path d="M288.05,618.56c-.78,0-1.43-.15-1.94-.46-.52-.31-.87-.76-1.07-1.35-.2-.59-.23-1.29-.09-2.13.02-.11.05-.24.08-.41.03-.17.06-.3.1-.39.21-.81.54-1.51.99-2.09.45-.58.99-1.03,1.64-1.34s1.36-.47,2.14-.47c.86,0,1.55.18,2.06.54.51.36.84.85,1.01,1.49.17.63.16,1.37,0,2.2l-.08.34c-.02.11-.08.2-.17.27-.09.08-.19.11-.31.11h-5.31c-.01.06-.02.11-.03.13-.05.38-.05.72.02,1.03s.21.57.42.76.51.29.87.29c.3,0,.56-.04.78-.13.22-.09.41-.2.55-.31s.25-.21.33-.29c.13-.13.22-.21.29-.23.06-.03.15-.04.27-.04h1.39c.1,0,.17.03.22.1.05.06.07.14.05.24-.05.17-.19.38-.4.62-.21.24-.5.48-.86.72-.36.24-.79.43-1.29.58s-1.04.23-1.64.23ZM287.36,613.53h3.54l.02-.05c.1-.42.1-.78.02-1.1s-.23-.56-.46-.74c-.22-.18-.52-.26-.9-.26s-.71.09-1.02.26c-.3.18-.56.42-.76.74s-.35.68-.43,1.1l-.02.05Z" fill="#1c2126"/><path d="M1113.68,618.56c-.89,0-1.63-.15-2.22-.44-.6-.29-1.05-.71-1.37-1.26-.32-.54-.49-1.18-.52-1.9-.01-.21-.02-.46-.02-.73s0-.51.02-.71c.03-.74.21-1.37.54-1.91.33-.54.79-.96,1.39-1.25.6-.29,1.32-.44,2.18-.44s1.56.15,2.16.44c.6.29,1.06.71,1.39,1.25s.52,1.18.56,1.91c0,.2.02.44.02.71s0,.52-.02.73c-.04.72-.22,1.36-.54,1.9-.32.54-.77.96-1.37,1.26-.6.29-1.33.44-2.21.44ZM1113.68,616.79c.52,0,.91-.16,1.18-.48s.41-.79.44-1.42c0-.16.02-.37.02-.64s0-.48-.02-.64c-.03-.62-.18-1.09-.44-1.42-.26-.33-.65-.49-1.18-.49s-.92.16-1.18.49c-.27.32-.42.8-.45,1.42-.01.16-.02.37-.02.64s0,.48.02.64c.03.63.18,1.1.45,1.42s.66.48,1.18.48Z" fill="#1c2126"/><path d="M1122.77,618.56c-.66,0-1.23-.08-1.7-.23s-.86-.34-1.15-.57c-.29-.22-.51-.45-.66-.68-.14-.23-.22-.42-.23-.58-.01-.12.03-.21.11-.29.09-.07.17-.11.26-.11h1.55s.08,0,.1.02c.03,0,.06.04.1.08.14.1.28.21.42.33.14.12.32.23.52.31.2.09.45.13.74.13.35,0,.65-.07.89-.22.24-.14.36-.35.36-.62,0-.19-.05-.35-.16-.48-.11-.13-.31-.24-.62-.35s-.77-.22-1.38-.35c-.58-.13-1.07-.3-1.47-.51-.41-.21-.71-.48-.91-.81-.2-.33-.3-.72-.3-1.18,0-.42.13-.82.39-1.2.26-.38.65-.7,1.16-.95s1.15-.38,1.92-.38c.59,0,1.1.07,1.54.22s.81.33,1.11.54.53.44.68.67c.15.23.24.43.25.6.01.12-.02.21-.1.29-.08.08-.16.11-.26.11h-1.42c-.05,0-.1-.01-.14-.03s-.08-.05-.11-.08c-.13-.07-.26-.17-.39-.29-.13-.12-.29-.22-.47-.3-.18-.08-.42-.13-.7-.13-.34,0-.61.08-.79.23-.19.16-.28.35-.28.58,0,.15.05.29.14.42.1.13.29.25.58.35.29.11.75.22,1.37.34.73.13,1.3.32,1.73.58s.73.55.91.89c.18.34.27.7.27,1.08,0,.5-.15.95-.44,1.34-.29.39-.73.69-1.3.91-.58.22-1.28.33-2.11.33Z" fill="#1c2126"/><path d="M1131.46,618.56c-.66,0-1.23-.08-1.7-.23s-.86-.34-1.15-.57c-.29-.22-.51-.45-.66-.68-.14-.23-.22-.42-.23-.58-.01-.12.03-.21.11-.29.09-.07.17-.11.26-.11h1.55s.08,0,.1.02c.03,0,.06.04.1.08.14.1.28.21.42.33.14.12.32.23.52.31.2.09.45.13.74.13.35,0,.65-.07.89-.22.24-.14.36-.35.36-.62,0-.19-.05-.35-.16-.48-.11-.13-.31-.24-.62-.35s-.77-.22-1.38-.35c-.58-.13-1.07-.3-1.47-.51-.41-.21-.71-.48-.91-.81-.2-.33-.3-.72-.3-1.18,0-.42.13-.82.39-1.2.26-.38.65-.7,1.16-.95s1.15-.38,1.92-.38c.59,0,1.1.07,1.54.22s.81.33,1.11.54.53.44.68.67c.15.23.24.43.25.6.01.12-.02.21-.1.29-.08.08-.16.11-.26.11h-1.42c-.05,0-.1-.01-.14-.03s-.08-.05-.11-.08c-.13-.07-.26-.17-.39-.29-.13-.12-.29-.22-.47-.3-.18-.08-.42-.13-.7-.13-.34,0-.61.08-.79.23-.19.16-.28.35-.28.58,0,.15.05.29.14.42.1.13.29.25.58.35.29.11.75.22,1.37.34.73.13,1.3.32,1.73.58s.73.55.91.89c.18.34.27.7.27,1.08,0,.5-.15.95-.44,1.34-.29.39-.73.69-1.3.91-.58.22-1.28.33-2.11.33Z" fill="#1c2126"/><path d="M1137.17,618.4c-.12,0-.21-.04-.29-.11-.07-.07-.11-.17-.11-.29v-1.81c0-.11.04-.2.11-.28.08-.08.17-.12.29-.12h1.81c.11,0,.2.04.28.12s.12.17.12.28v1.81c0,.12-.04.21-.12.29s-.17.11-.28.11h-1.81Z" fill="#1c2126"/><path d="M1144.9,618.56c-.79,0-1.48-.14-2.07-.43-.59-.29-1.06-.71-1.4-1.26-.34-.55-.53-1.21-.56-1.98-.01-.17-.02-.39-.02-.65s0-.48.02-.65c.03-.78.22-1.44.55-1.99.34-.55.8-.97,1.4-1.26.6-.29,1.29-.43,2.08-.43.7,0,1.31.1,1.81.3.5.2.91.45,1.23.75s.56.62.72.94.25.6.26.85c.01.12-.03.21-.11.29-.09.07-.18.11-.29.11h-1.71c-.12,0-.21-.03-.26-.08-.06-.05-.11-.14-.17-.26-.14-.37-.33-.64-.56-.8s-.53-.24-.88-.24c-.48,0-.86.15-1.13.46-.27.31-.42.79-.44,1.44-.02.42-.02.79,0,1.13.02.66.17,1.14.44,1.44.27.3.65.45,1.13.45.37,0,.67-.08.9-.24.22-.16.41-.43.54-.8.05-.12.11-.2.17-.26.06-.05.15-.08.26-.08h1.71c.11,0,.2.04.29.11.08.07.12.17.11.29-.01.18-.06.39-.16.64-.1.25-.24.5-.44.75s-.45.49-.76.71c-.31.22-.69.4-1.13.53-.44.13-.95.2-1.53.2Z" fill="#1c2126"/><path d="M1152.92,618.56c-.57,0-1.07-.11-1.52-.33s-.81-.51-1.07-.89c-.27-.38-.4-.79-.4-1.25,0-.76.31-1.36.92-1.79s1.42-.74,2.42-.9l2.1-.3v-.29c0-.42-.1-.74-.29-.96-.19-.22-.53-.34-1.01-.34-.35,0-.63.07-.84.21s-.37.32-.49.54c-.08.14-.21.21-.38.21h-1.52c-.12,0-.21-.03-.27-.1-.06-.07-.09-.15-.08-.25,0-.18.07-.39.21-.64.14-.24.35-.49.64-.73.29-.24.66-.44,1.11-.6s1-.24,1.64-.24,1.25.08,1.73.24c.48.16.87.38,1.16.67.29.29.51.62.64,1,.13.38.2.79.2,1.22v4.94c0,.12-.04.21-.11.29-.08.07-.17.11-.27.11h-1.58c-.11,0-.2-.04-.27-.11-.07-.07-.11-.17-.11-.29v-.59c-.14.2-.33.39-.56.57s-.51.32-.84.42c-.33.11-.71.16-1.14.16ZM1153.56,616.9c.35,0,.67-.07.94-.22.28-.15.5-.38.66-.69.16-.31.24-.7.24-1.17v-.27l-1.49.24c-.57.1-.98.24-1.25.43-.27.19-.4.43-.4.7,0,.2.06.38.18.52.12.14.28.26.48.34s.41.12.63.12Z" fill="#1c2126"/><path d="M1160.13,618.4c-.11,0-.2-.04-.28-.11-.08-.07-.12-.17-.12-.29v-7.52c0-.11.04-.2.12-.28.08-.08.17-.12.28-.12h1.57c.12,0,.21.04.29.12.07.08.11.17.11.28v.64c.27-.33.6-.59.99-.77s.84-.27,1.34-.27h.69c.12,0,.21.04.29.11.07.07.11.17.11.29v1.39c0,.11-.04.2-.11.27-.08.07-.17.11-.29.11h-1.39c-.48,0-.85.13-1.11.4-.26.27-.39.63-.39,1.11v4.24c0,.12-.04.21-.12.29s-.17.11-.28.11h-1.7Z" fill="#1c2126"/><path d="M1169.72,618.56c-.53,0-1.01-.09-1.42-.26s-.77-.43-1.06-.77c-.29-.34-.51-.74-.66-1.2-.15-.46-.24-.98-.27-1.54-.01-.2-.02-.39-.02-.55s0-.34.02-.54c.02-.55.11-1.06.26-1.52.15-.46.37-.86.66-1.19.28-.34.63-.6,1.06-.78.42-.19.9-.28,1.43-.28s1.03.09,1.42.28c.39.19.72.42.98.71v-3.47c0-.12.04-.21.11-.29.08-.07.17-.11.29-.11h1.65c.12,0,.21.04.29.11.07.08.11.17.11.29v10.56c0,.12-.04.21-.11.29-.08.07-.17.11-.29.11h-1.54c-.11,0-.2-.04-.27-.11-.07-.07-.11-.17-.11-.29v-.54c-.27.32-.6.58-1.01.79-.41.21-.91.31-1.52.31ZM1170.45,616.64c.39,0,.71-.09.95-.27.24-.18.42-.41.53-.69.11-.28.17-.58.18-.9.02-.2.03-.41.03-.61s-.01-.4-.03-.59c-.01-.3-.08-.58-.2-.84-.12-.26-.3-.48-.54-.65-.23-.17-.54-.26-.93-.26-.41,0-.73.09-.96.26-.24.18-.4.41-.5.7-.1.29-.16.6-.18.94-.02.33-.02.66,0,.99.02.34.08.66.18.95.1.29.27.52.5.7.23.18.55.26.96.26Z" fill="#1c2126"/><path d="M1179.86,618.56c-.66,0-1.23-.08-1.7-.23s-.86-.34-1.15-.57c-.29-.22-.51-.45-.66-.68-.14-.23-.22-.42-.23-.58-.01-.12.03-.21.11-.29.08-.07.17-.11.26-.11h1.55s.08,0,.1.02c.03,0,.06.04.1.08.14.1.28.21.42.33.14.12.32.23.52.31.2.09.45.13.74.13.35,0,.65-.07.89-.22.24-.14.36-.35.36-.62,0-.19-.05-.35-.16-.48-.11-.13-.31-.24-.62-.35s-.77-.22-1.38-.35c-.58-.13-1.07-.3-1.47-.51-.41-.21-.71-.48-.91-.81-.2-.33-.3-.72-.3-1.18,0-.42.13-.82.39-1.2.26-.38.65-.7,1.16-.95.51-.25,1.15-.38,1.92-.38.59,0,1.1.07,1.54.22.44.14.81.33,1.11.54s.53.44.68.67c.15.23.24.43.25.6,0,.12-.02.21-.1.29-.07.08-.16.11-.26.11h-1.42c-.05,0-.1-.01-.14-.03-.04-.02-.08-.05-.11-.08-.13-.07-.26-.17-.39-.29-.13-.12-.29-.22-.47-.3-.18-.08-.42-.13-.7-.13-.34,0-.61.08-.79.23-.19.16-.28.35-.28.58,0,.15.05.29.14.42.1.13.29.25.58.35.29.11.75.22,1.37.34.72.13,1.3.32,1.73.58s.73.55.91.89.27.7.27,1.08c0,.5-.15.95-.44,1.34-.29.39-.73.69-1.3.91s-1.28.33-2.11.33Z" fill="#1c2126"/><polygon points="1093.31 614.96 1087.74 611.74 1082.16 614.96 1093.31 621.39 1104.46 614.96 1098.89 611.74 1093.31 614.96" fill="#b7303d" stroke="#1c2126" stroke-linejoin="round" stroke-width=".33"/><polygon points="1087.74 605.3 1087.74 611.74 1082.16 614.96 1082.16 608.52 1087.74 605.3" fill="#ea4f4b" stroke="#1c2126" stroke-linejoin="round" stroke-width=".33"/><polygon points="1087.74 605.3 1087.74 611.74 1093.31 614.96 1093.31 608.52 1087.74 605.3" fill="#ff6b60" stroke="#1c2126" stroke-linejoin="round" stroke-width=".33"/><polygon points="1098.89 605.3 1098.89 611.74 1093.31 614.96 1093.31 608.52 1098.89 605.3" fill="#ea4f4b" stroke="#1c2126" stroke-linejoin="round" stroke-width=".33"/><polygon points="1098.89 605.3 1098.89 611.74 1104.46 614.96 1104.46 608.52 1098.89 605.3" fill="#ff6b60" stroke="#1c2126" stroke-linejoin="round" stroke-width=".33"/></g></svg>