<svg xmlns="http://www.w3.org/2000/svg" xmlns:xlink="http://www.w3.org/1999/xlink" width="1200" height="630" viewBox="0 0 1200 630"><defs><clipPath id="a"><rect width="1200" height="498.72" fill="none"/></clipPath></defs><rect x="-70.07" y="-1558.85" width="6221.73" height="2273.11" fill="#a6a6a6"/><rect width="1200" height="498.72" fill="#b7303d"/><g clip-path="url(#a)"><rect x="37.57" y="101" width="500.94" height="687.26" rx="250.47" fill="#ff6b60"/></g><path d="M737,122.7v43.08h-9.59V122.7Z" fill="#fff"/><path d="M794.74,146.59h-9.31a6.11,6.11,0,0,0-6.36-5.62c-4.2,0-7.09,3.24-7.09,9s2.89,8.91,7.09,8.91a6.1,6.1,0,0,0,6.36-5.56h9.31c-.23,7.38-6.53,13.28-15.67,13.28-10.21,0-16.34-6.64-16.34-16.63s6.13-16.63,16.34-16.63C788.21,133.31,794.51,139.16,794.74,146.59Z" fill="#fff"/><path d="M828.51,147.67v18.11h-8.85v-3.46c-2.22,2.55-5.68,4-10.33,4-6.65,0-10.79-3.35-10.79-8.86,0-5,3.29-8.8,11.58-10.22l9.54-1.58c0-3.07-1.93-4.83-5.51-4.83s-5.11,1.48-5.34,3.92h-9c.17-5.85,4.93-11.3,14.3-11.3C823.29,133.48,828.51,138.59,828.51,147.67Zm-8.85,4.77V152l-7.27,1.19c-3.8.62-4.77,1.93-4.77,3.57,0,1.42,1.36,2.45,3.92,2.45C816.42,159.2,819.66,156.47,819.66,152.44Z" fill="#fff"/><path d="M864.27,147.84v17.94h-8.85V149.54c0-4.88-2.33-7.6-5.91-7.6s-6.13,2.95-6.13,7.55v16.29h-8.85V134.05h8.85v3.57a10.75,10.75,0,0,1,9-4.31C859.62,133.31,864.27,138.48,864.27,147.84Z" fill="#fff"/><path d="M876,127.12c0,4.6-2.33,8-7.66,9.71l-1.2.4L865.8,133l1.19-.34c2.5-.74,3.81-1.82,4.32-3.47a5.94,5.94,0,0,1-1.08.12,4.56,4.56,0,0,1-4.83-4.54,4.65,4.65,0,0,1,5-4.72C873.92,120.08,876,122.87,876,127.12Z" fill="#fff"/><path d="M901.05,141.54h-6.87v24.24h-8.85V141.54h-6v-7.49h6v-10h8.85v10h6.87Z" fill="#fff"/><path d="M956.84,134.05v33.66c0,6.92-4.25,11.24-11.18,11.24h-15.1v-7.49h13.68c2.56,0,3.75-1.25,3.75-3.75v-6.53c-2.1,2.73-5.39,4.43-9.88,4.43-8.23,0-14.07-5.73-14.07-16.23s5.84-16.07,14.07-16.07c4.49,0,7.78,1.65,9.88,4.43v-3.69ZM948,149.15c0-5.17-3-8.23-7.32-8.23s-7.38,3.06-7.38,8.23,3.12,8.46,7.38,8.46S948,154.37,948,149.15Z" fill="#fff"/><path d="M993.85,152.55H970.41a6.82,6.82,0,0,0,7.21,6.42c3.12,0,5.22-1,6.18-2.84h9.43c-1.82,6-7.61,10.22-15.73,10.22-9.93,0-16.46-6.53-16.46-16.41s6.42-16.46,16.41-16.46,16.4,6.47,16.4,16.35Zm-23.33-6.07h14c-.63-3.58-3.41-5.62-7-5.62A7,7,0,0,0,970.52,146.48Z" fill="#fff"/><path d="M1017.12,141.54h-6.87v24.24h-8.85V141.54h-6v-7.49h6v-10h8.85v10h6.87Z" fill="#fff"/><path d="M700.49,210.05l-17.6,42.17h-8.57l4.88-11.63-12.37-30.54h8.91l8,19.75,8.23-19.75Z" fill="#fff"/><path d="M734.72,225.94c0,9.48-6.08,16.63-16.69,16.63s-16.75-7.15-16.75-16.63,6.08-16.63,16.75-16.63S734.72,216.46,734.72,225.94Zm-24.19,0c0,5.23,2.9,8.57,7.5,8.57s7.43-3.34,7.43-8.57-2.84-8.57-7.43-8.57S710.53,220.72,710.53,225.94Z" fill="#fff"/><path d="M767.92,210.05v31.73h-8.85v-3.41a10.37,10.37,0,0,1-8.69,4.2c-7,0-11.52-5.22-11.52-14.58V210.05h8.85v16.29c0,4.83,2.22,7.55,5.62,7.55s5.74-2.9,5.74-7.49V210.05Z" fill="#fff"/><path d="M826.61,225.94c0,9.48-6.07,16.63-16.69,16.63s-16.74-7.15-16.74-16.63,6.07-16.63,16.74-16.63S826.61,216.46,826.61,225.94Zm-24.18,0c0,5.23,2.89,8.57,7.49,8.57s7.44-3.34,7.44-8.57-2.84-8.57-7.44-8.57S802.43,220.72,802.43,225.94Z" fill="#fff"/><path d="M859.81,210.05v31.73H851v-3.41a10.37,10.37,0,0,1-8.69,4.2c-7,0-11.52-5.22-11.52-14.58V210.05h8.86v16.29c0,4.83,2.21,7.55,5.62,7.55S851,231,851,226.4V210.05Z" fill="#fff"/><path d="M886.38,217.54h-6.87v24.24h-8.86V217.54h-6v-7.49h6v-10h8.86v10h6.87Z" fill="#fff"/><path d="M942.8,225.94c0,9.48-6.08,16.63-16.69,16.63s-16.75-7.15-16.75-16.63,6.08-16.63,16.75-16.63S942.8,216.46,942.8,225.94Zm-24.18,0c0,5.23,2.89,8.57,7.49,8.57s7.43-3.34,7.43-8.57-2.83-8.57-7.43-8.57S918.62,220.72,918.62,225.94Z" fill="#fff"/><path d="M959,206.19v3.86h6.64v7.49H959v24.24h-8.85V217.54h-5.11v-7.49h5.11v-3.8c0-6.19,3.69-10.05,10.21-10.05h6.19v6.87h-4.37C960.05,203.07,959,204.15,959,206.19Z" fill="#fff"/><path d="M1039.23,223.84v17.94h-8.85v-16.4c0-5.23-2.1-7.95-5.45-7.95s-5.45,2.95-5.45,7.89v16.46h-8.86v-16.4c0-5.23-2.1-7.95-5.44-7.95s-5.45,2.95-5.45,7.89v16.46h-8.86V210.05h8.86v3.46a9.5,9.5,0,0,1,8.23-4.2,10.42,10.42,0,0,1,9.36,5,11.15,11.15,0,0,1,9.6-5C1034.35,209.31,1039.23,214.87,1039.23,223.84Z" fill="#fff"/><path d="M1074.82,210.05l-17.6,42.17h-8.57l4.88-11.63-12.37-30.54h8.91l8,19.75,8.23-19.75Z" fill="#fff"/><rect x="590.77" y="283.93" width="560.11" height="83.36" rx="10.5" fill="#1c2126" opacity="0.2"/><path d="M619.25,328.07v.61l21.18,10.67v8.41l-29.11-16.12V325.1L640.43,309v8.41Z" fill="#fff"/><path d="M651.37,300.11h7.29v19.73h.48c1.78-4.28,5.77-6.73,11-6.73,7.7,0,11.89,4.64,11.89,13.12v22.82h-7.51v-21c0-5.65-2.35-8.39-7.22-8.39-5.09,0-8.45,3.55-8.45,8.9v20.47h-7.48Z" fill="#fff"/><path d="M723,339.48c-.84,6.06-6.83,10.28-14.73,10.28-10.06,0-15.87-5.77-15.87-15.83v-5.51c0-9.25,6.23-15.38,15.61-15.38s15.06,6.09,15.06,15.9v4.28H699.81v1.71c0,5.39,3.32,8.87,8.44,8.87,3.91,0,6.9-1.71,7.65-4.32Zm-23.21-11.29h16c0-5.73-3-9.22-7.9-9.22S699.81,322.42,699.81,328.19Z" fill="#fff"/><path d="M732.86,339c0-6.32,4.58-10.06,13-10.58l8.83-.52v-3c0-3.65-2.35-5.71-6.48-5.71-3.45,0-6,1.48-6.74,4.06h-7.35c.65-6.09,6.35-10.12,14.29-10.12,8.73,0,13.7,4.29,13.7,11.83v24.05H755v-4.93h-.67c-1.71,3.52-5.48,5.51-10.29,5.51C737.35,349.63,732.86,345.38,732.86,339Zm21.86-2.81V333l-7.7.41c-4.42.26-6.71,2-6.71,5.16s2.39,5,6.16,5C751.24,343.51,754.72,340.45,754.72,336.19Z" fill="#fff"/><path d="M772.79,334.51v-6.28c0-9.39,5-15.09,13.12-15.09,5.09,0,8.74,2.29,10.06,6.38h.64V300.11h7.74v48.94h-7.61v-5.8h-.64c-1.48,4.13-5.06,6.35-10.19,6.35C777.82,349.6,772.79,343.93,772.79,334.51Zm24-.45v-5.51c0-5.58-3.13-9-8.16-9s-8.19,3.48-8.19,9v5.51c0,5.55,3.13,9,8.19,9S796.78,339.61,796.78,334.06Z" fill="#fff"/><path d="M815.45,309l29.12,16.12v6.54l-29.12,16.12v-8.41l21.18-10.67v-.61l-21.18-10.68Z" fill="#fff"/><path d="M864.21,328.07v.61l21.18,10.67v8.41l-29.11-16.12V325.1L885.39,309v8.41Z" fill="#fff"/><path d="M896.75,355.05l22.18-58.52h7.61L904.2,355.05Z" fill="#fff"/><path d="M937.16,300.11h7.28v19.73h.49c1.77-4.28,5.77-6.73,11-6.73,7.71,0,11.9,4.64,11.9,13.12v22.82h-7.51v-21c0-5.65-2.36-8.39-7.23-8.39-5.09,0-8.44,3.55-8.44,8.9v20.47h-7.48Z" fill="#fff"/><path d="M1008.81,339.48c-.84,6.06-6.84,10.28-14.74,10.28-10.06,0-15.86-5.77-15.86-15.83v-5.51c0-9.25,6.22-15.38,15.6-15.38s15.06,6.09,15.06,15.9v4.28H985.59v1.71c0,5.39,3.32,8.87,8.45,8.87,3.9,0,6.9-1.71,7.64-4.32Zm-23.22-11.29h16c0-5.73-3-9.22-7.89-9.22S985.59,322.42,985.59,328.19Z" fill="#fff"/><path d="M1018.65,339c0-6.32,4.58-10.06,13-10.58l8.83-.52v-3c0-3.65-2.35-5.71-6.48-5.71-3.45,0-6,1.48-6.74,4.06h-7.35c.64-6.09,6.35-10.12,14.28-10.12,8.74,0,13.71,4.29,13.71,11.83v24.05h-7.13v-4.93h-.68c-1.71,3.52-5.48,5.51-10.28,5.51C1023.13,349.63,1018.65,345.38,1018.65,339Zm21.86-2.81V333l-7.71.41c-4.41.26-6.7,2-6.7,5.16s2.38,5,6.16,5C1037,343.51,1040.51,340.45,1040.51,336.19Z" fill="#fff"/><path d="M1058.57,334.51v-6.28c0-9.39,5-15.09,13.13-15.09,5.09,0,8.73,2.29,10,6.38h.65V300.11h7.74v48.94h-7.61v-5.8h-.65c-1.48,4.13-5.06,6.35-10.18,6.35C1063.6,349.6,1058.57,343.93,1058.57,334.51Zm24-.45v-5.51c0-5.58-3.13-9-8.16-9s-8.19,3.48-8.19,9v5.51c0,5.55,3.13,9,8.19,9S1082.56,339.61,1082.56,334.06Z" fill="#fff"/><path d="M1101.24,309l29.11,16.12v6.54l-29.11,16.12v-8.41l21.18-10.67v-.61l-21.18-10.68Z" fill="#fff"/><path d="M197,405c-15.53,0-29.6-6-38.62-16.37A39.46,39.46,0,0,1,151.47,377a52.22,52.22,0,0,1-19.05,3.64,48.24,48.24,0,0,1-14.27-2.12c-5.92-1.83-10.42-4.48-13.77-8.13-6.86-7.45-7.47-17.29-6.6-25.34A26.6,26.6,0,0,1,80.3,328.47C77,318.84,79,307.19,85.72,297.3a70.34,70.34,0,0,1,13.51-14.24c-4.55-8.43-8.85-21.41-4.7-32.14,2.16-5.57,7.07-12,18.2-14.41a28.67,28.67,0,0,1,1-8.79,34.71,34.71,0,0,1,16.84-21.27c6.81-3.66,14.72-5.44,24.17-5.44,1.56,0,3.17.05,4.86.15a30.8,30.8,0,0,1,3-10.91A36.73,36.73,0,0,1,179,173.56c7.21-3.59,15.42-5.27,25.85-5.27,2.74,0,5.47.12,8.12.29a43.85,43.85,0,0,1,29.06-21,41.82,41.82,0,0,1,8.31-.82,44.43,44.43,0,0,1,21.84,5.75,17.31,17.31,0,0,1,11.17-4.31h.47a23.14,23.14,0,0,1,12.05,4.12,48.93,48.93,0,0,1,28.23-8.92A46.13,46.13,0,0,1,339.37,146a48.65,48.65,0,0,1,29.54,30.21,56.12,56.12,0,0,1,10-.94,37.81,37.81,0,0,1,15.68,3.18,29,29,0,0,1,15.05,16.3,56.9,56.9,0,0,1,5.69-.29,51.86,51.86,0,0,1,24.52,6c11.63,6.24,20.83,17.55,25.25,31a56,56,0,0,1,1.33,30.66c5.09,2.72,10.17,7.33,15,13.72,13.82,18.18,24.37,49,17.8,72.63-3.16,11.38-13.93,19-26.79,19h0a28.85,28.85,0,0,1-11.1-2.15c-5.43,10.65-13.28,18.95-22.79,23.89A42.59,42.59,0,0,1,419,394a38.3,38.3,0,0,1-19.62-5.17,61,61,0,0,1-38.13,12.89c-15.81,0-31.53-5.76-40.11-14.7-11.15,10.05-25.61,15.45-41.86,15.45-15.37,0-30.78-5.12-38.84-12.82-11.64,8.08-23.3,13-34.76,14.73A59.29,59.29,0,0,1,197,405Z" fill="#ff6b60"/><path d="M324.12,151.94A37.94,37.94,0,0,1,336.57,154a40,40,0,0,1,26,32.4,61.34,61.34,0,0,1,16.37-2.65,29.22,29.22,0,0,1,12.17,2.42c7.05,3.19,12.23,11.14,11.54,18.45a49.73,49.73,0,0,1,12.71-1.68,43.25,43.25,0,0,1,20.5,5c20.4,11,29.58,38.93,19.63,59.85h.35c18.1,0,43.79,47.69,35.25,78.43-2.31,8.33-10.5,12.81-18.6,12.81a18.42,18.42,0,0,1-14.86-6.85c-3.89,12.19-11.59,23.64-23,29.55A34.29,34.29,0,0,1,419,385.49c-7.43,0-14.75-2.45-20.05-7.63a52.52,52.52,0,0,1-37.7,15.35c-20.73,0-38.66-11.1-38.13-21.15C311.48,388.37,294.56,394,279.27,394c-19.64,0-36.6-9.24-36.3-16.89-11.22,9.16-24.22,16.75-38.55,18.88a49.19,49.19,0,0,1-7.39.55c-12.12,0-24.33-4.36-32.2-13.44a32.38,32.38,0,0,1-7.59-18.72,43.6,43.6,0,0,1-24.82,7.82,40.18,40.18,0,0,1-11.77-1.74,22.41,22.41,0,0,1-10-5.76c-6.57-7.14-4.87-18.32-2.76-27.79a12.47,12.47,0,0,1-3.85.6c-6.76,0-13.41-5.18-15.68-11.78-2.71-7.85-.25-16.75,4.41-23.62s11.32-12.11,17.86-17.24C106,280.62,86.77,244,122.75,244h.9c-6.32-10.16.36-24.44,10.91-30.09,6.17-3.32,13.09-4.43,20.15-4.43a102.52,102.52,0,0,1,15,1.29c-5.21-10.8,2.4-24.29,13.13-29.63,6.81-3.4,14.38-4.38,22.06-4.38,4.42,0,8.88.33,13.24.7a35.56,35.56,0,0,1,25.62-21.55,33.49,33.49,0,0,1,6.63-.65,35.61,35.61,0,0,1,25.34,10.59c-1.93-4.33,2.93-9.15,7.67-9.15h.21c4.8.14,8.86,3.41,12.53,6.52a40,40,0,0,1,28-11.32m0-17v0a57.71,57.71,0,0,0-28.56,7.56,29.59,29.59,0,0,0-11.46-2.76h-.73a25.33,25.33,0,0,0-11.83,3,52.93,52.93,0,0,0-21.18-4.43,50.44,50.44,0,0,0-10,1,52.39,52.39,0,0,0-31.83,20.57c-1.21,0-2.44-.06-3.67-.06-11.63,0-21.33,2-29.64,6.16A45.44,45.44,0,0,0,155,186.57a40.44,40.44,0,0,0-2.32,6c-10,.25-18.55,2.36-26.11,6.42a43.34,43.34,0,0,0-21,26.57,39.34,39.34,0,0,0-.94,4.59,30.77,30.77,0,0,0-18,17.73c-3.36,8.7-2.95,19.27,1.21,30.57.3.8.62,1.64,1,2.5a68.7,68.7,0,0,0-10.1,11.61c-8.21,12.08-10.61,26.55-6.43,38.7A34.94,34.94,0,0,0,89,350.69c0,8.35,2,17.75,9.13,25.49,4.34,4.71,10.24,8.24,17.52,10.49a56.77,56.77,0,0,0,16.78,2.5,60.28,60.28,0,0,0,14.64-1.82A46.24,46.24,0,0,0,152,394.2C162.62,406.47,179,413.51,197,413.51a68.19,68.19,0,0,0,9.9-.73c11-1.64,22-5.89,33-12.68,10,6.74,24.55,10.87,39.3,10.87,15.71,0,30-4.48,41.69-12.9,10.44,7.61,25.15,12.14,40.28,12.14a70.46,70.46,0,0,0,38.88-11.49A47.87,47.87,0,0,0,419,402.49a51.09,51.09,0,0,0,23.5-5.7,60.56,60.56,0,0,0,22.92-21.42,38,38,0,0,0,7,.64,38.59,38.59,0,0,0,20.7-6,33.75,33.75,0,0,0,14.28-19.26c4.41-15.88,1.68-32.31-1.38-43.3a111.42,111.42,0,0,0-17.84-36.74,63.37,63.37,0,0,0-12.37-12.6,65.16,65.16,0,0,0-2.67-29.29c-5.09-15.53-15.78-28.6-29.31-35.87a60.36,60.36,0,0,0-28.54-7h-.52a37.39,37.39,0,0,0-16.72-15.26,46.2,46.2,0,0,0-19.18-3.93c-1.52,0-3.06.06-4.64.18a57.09,57.09,0,0,0-32.1-29,54.74,54.74,0,0,0-18.05-3Z" fill="#7a122d"/><path d="M400.86,210.05c5-8.33-.92-19.87-9.78-23.88s-19.19-2.41-28.54.23a39.07,39.07,0,0,0-66.43-23.14c-3.67-3.11-7.73-6.38-12.53-6.52s-9.84,4.75-7.88,9.14a34.89,34.89,0,0,0-57.59,11.61c-11.94-1-24.57-1.67-35.3,3.68S164.47,200,169.68,210.8c-11.84-1.76-24.58-2.52-35.12,3.14S117.33,233.87,123.65,244c-37.19-.61-17.71,36.56-13,40.81-6.54,5.13-13.19,10.37-17.86,17.24s-7.12,15.77-4.41,23.62,11.61,13.7,19.53,11.18c-2.11,9.47-3.81,20.65,2.76,27.79a22.41,22.41,0,0,0,10,5.76,42.69,42.69,0,0,0,43.88-12.66" fill="#ffd3bf" stroke="#1c2126" stroke-linecap="round" stroke-linejoin="round" stroke-width="2"/><path d="M172.23,284.76c15.53-30.46,42.33-32,68.26-26.17,1.15-14.38,8.67-28.73,21.36-35.57s30.47-4.32,38.95,7.34c11.35-8.9,23.24-18.06,37.35-21.07s31.08,2.12,36.94,15.31c12-19.85,40.33-27.64,60.74-16.68s29.58,38.93,19.63,59.85c18.12-.62,44.19,47.49,35.6,78.43-3.93,14.16-24.88,17.23-33.46,6-3.89,12.19-11.59,23.64-23,29.55s-26.56,5.1-35.71-3.85c-29.48,29.37-76.68,10.41-75.83-5.8-26.58,37.24-80.67,18.64-80.14,5-11.22,9.16-24.22,16.75-38.55,18.88s-30.1-1.95-39.59-12.89-10.69-29.1-.74-39.62c-13.78-2.61-26.79-11.52-32-24.53s-1.12-29.81,10.82-37.17,36.83-.66,41,27.21" fill="#ffd3bf" stroke="#1c2126" stroke-linecap="round" stroke-linejoin="round" stroke-width="2"/><line x1="300.85" y1="167.07" x2="295.36" y2="162.63" fill="none" stroke="#1c2126" stroke-linecap="round" stroke-linejoin="round" stroke-width="2"/><line x1="277.83" y1="169.26" x2="275.7" y2="165.88" fill="none" stroke="#1c2126" stroke-linecap="round" stroke-linejoin="round" stroke-width="2"/><path d="M123.65,244s11.8,15.48,31.88,4.38" fill="none" stroke="#1c2126" stroke-linecap="round" stroke-linejoin="round" stroke-width="2"/><line x1="300.8" y1="230.36" x2="292.26" y2="236.84" fill="none" stroke="#1c2126" stroke-linecap="round" stroke-linejoin="round" stroke-width="2"/><path d="M408,366.26s-5.9,8.56-9.07,11.6" fill="none" stroke="#1c2126" stroke-linecap="round" stroke-linejoin="round" stroke-width="2"/><path d="M375.39,292.89s-10.16-10.49-20.65,0" fill="none" stroke="#1c2126" stroke-linecap="round" stroke-miterlimit="10" stroke-width="2"/><path d="M340,292.89s-10.17-10.49-20.66,0" fill="none" stroke="#1c2126" stroke-linecap="round" stroke-miterlimit="10" stroke-width="2"/><path d="M369.66,305.15c-.37,11.1-10.2,20-22.31,20s-21.94-8.89-22.3-20Z" fill="#7a122d" stroke="#1c2126" stroke-linecap="round" stroke-linejoin="round" stroke-width="2"/><line x1="259.6" y1="362.9" x2="241.35" y2="378.38" fill="none" stroke="#1c2126" stroke-linecap="round" stroke-linejoin="round" stroke-width="2"/><path d="M362.54,186.4a48.75,48.75,0,0,1-.83,10.06" fill="none" stroke="#1c2126" stroke-linecap="round" stroke-linejoin="round" stroke-width="2"/><path d="M213.81,177.15c9.25.94,17.26,3.13,23.52,6.25a28.73,28.73,0,0,1,6.83,4.24,9.6,9.6,0,0,1,3.39,7.05c-.09,3.61-2.88,6.6-5.94,8.51-9.45,5.86-31.09,1.07-41.32-3.3,0,0,39.76,13.25,12.73,30.46" fill="none" stroke="#1c2126" stroke-linecap="round" stroke-linejoin="round" stroke-width="2"/><path d="M155.53,236.66s-6,11.1,9.18,22.42" fill="none" stroke="#1c2126" stroke-linecap="round" stroke-linejoin="round" stroke-width="2"/><path d="M199.43,259.08s-17.25-4.93-17.25-16.69" fill="none" stroke="#1c2126" stroke-linecap="round" stroke-linejoin="round" stroke-width="2"/><path d="M119.51,292.41a26.94,26.94,0,0,1-8.9-7.57" fill="none" stroke="#1c2126" stroke-linecap="round" stroke-linejoin="round" stroke-width="2"/><path d="M326.25,177.15S294.91,200,266.67,183.4" fill="none" stroke="#1c2126" stroke-linecap="round" stroke-linejoin="round" stroke-width="2"/><path d="M296.46,189.43s9.7,21.21-8.91,31.5" fill="none" stroke="#1c2126" stroke-linecap="round" stroke-linejoin="round" stroke-width="2"/><path d="M332.3,193.35a24,24,0,0,1,5.85,15.94" fill="none" stroke="#1c2126" stroke-linecap="round" stroke-linejoin="round" stroke-width="2"/><path d="M122.67,341.14s-13.45-7.44-14.16-21.6" fill="none" stroke="#1c2126" stroke-linecap="round" stroke-linejoin="round" stroke-width="2"/><path d="M457.6,352.16s-7.37-6.27-11.47-26.18" fill="none" stroke="#1c2126" stroke-linecap="round" stroke-linejoin="round" stroke-width="2"/><path d="M457.6,324.52s-16.74-2.64-28.16,9.07" fill="none" stroke="#1c2126" stroke-linecap="round" stroke-linejoin="round" stroke-width="2"/><path d="M375.09,224.6s9.4,20.91-9.07,22.36" fill="none" stroke="#1c2126" stroke-linecap="round" stroke-linejoin="round" stroke-width="2"/><path d="M164.09,343.45s7.82-8.89,19.82,0" fill="none" stroke="#1c2126" stroke-linecap="round" stroke-linejoin="round" stroke-width="2"/><path d="M240.49,258.59s21.05,3.19,15.39,20.17" fill="none" stroke="#1c2126" stroke-linecap="round" stroke-linejoin="round" stroke-width="2"/><path d="M236,278.64a48.87,48.87,0,0,1,37.24,8" fill="none" stroke="#1c2126" stroke-linecap="round" stroke-linejoin="round" stroke-width="2"/><path d="M188.52,337.13s-6.6,5.75-4.61,14.38" fill="none" stroke="#1c2126" stroke-linecap="round" stroke-linejoin="round" stroke-width="2"/><path d="M240.49,284.84s.33-4.72-12.49-12.56" fill="none" stroke="#1c2126" stroke-linecap="round" stroke-linejoin="round" stroke-width="2"/><path d="M211.14,288.22s15.26,9.12,13,24.56" fill="none" stroke="#1c2126" stroke-linecap="round" stroke-linejoin="round" stroke-width="2"/><path d="M202.89,319.54a44.3,44.3,0,0,1,37.6-4.36" fill="none" stroke="#1c2126" stroke-linecap="round" stroke-linejoin="round" stroke-width="2"/><path d="M424.49,233.6s-20,8.33-27.65,28.45" fill="none" stroke="#1c2126" stroke-linecap="round" stroke-linejoin="round" stroke-width="2"/><path d="M374.19,259.76s19.2-2.38,28.5,6.2" fill="none" stroke="#1c2126" stroke-linecap="round" stroke-linejoin="round" stroke-width="2"/><path d="M290.91,254.63a33,33,0,0,0,29.29-3.76C334.87,241,343,234.56,352.94,233.6" fill="none" stroke="#1c2126" stroke-linecap="round" stroke-linejoin="round" stroke-width="2"/><path d="M347.35,230.36s8.87.22,5.59,6.48" fill="none" stroke="#1c2126" stroke-linecap="round" stroke-linejoin="round" stroke-width="2"/><path d="M323.11,372.06s8.3-10.57,12.11-18" fill="none" stroke="#1c2126" stroke-linecap="round" stroke-linejoin="round" stroke-width="2"/><path d="M307.18,346.2s25.12,12.89,52.05,4.54" fill="none" stroke="#1c2126" stroke-linecap="round" stroke-linejoin="round" stroke-width="2"/><path d="M228,346.2s29.54,8.36,42.42-7.13" fill="none" stroke="#1c2126" stroke-linecap="round" stroke-linejoin="round" stroke-width="2"/><path d="M262.34,335s3.51,5.27,14.92,4" fill="none" stroke="#1c2126" stroke-linecap="round" stroke-linejoin="round" stroke-width="2"/><path d="M405.16,297.82s14.56,23.8-6.22,43.65" fill="none" stroke="#1c2126" stroke-linecap="round" stroke-linejoin="round" stroke-width="2"/><path d="M455.46,267.77a129.52,129.52,0,0,1-13.39,22.79" fill="none" stroke="#1c2126" stroke-linecap="round" stroke-linejoin="round" stroke-width="2"/><line x1="107.87" y1="336.88" x2="113.31" y2="332.61" fill="none" stroke="#1c2126" stroke-linecap="round" stroke-linejoin="round" stroke-width="2"/><path d="M367.75,71.6a7.13,7.13,0,0,1,1.16-2.91,7.78,7.78,0,0,1,4-3.68,7.17,7.17,0,0,1,5.55,1,15.84,15.84,0,0,1,4,3.28,12.77,12.77,0,0,1,2.82-6.59,8,8,0,0,1,6.5-2.85A5.85,5.85,0,0,1,397,64.32c.45,2.31-.75,4.59-1.92,6.63q-4.39,7.64-9,15.14l-12.84-7.52C370.52,77,367.44,74.72,367.75,71.6Z" fill="#ffdd73" stroke="#1c2126" stroke-linejoin="round" stroke-width="2"/><path d="M411.68,43.19a8.32,8.32,0,0,1,3.15-1.77c2-.71,4.26-1.19,6.24-.4s3.41,2.88,4.22,5a18.06,18.06,0,0,1,1.2,5.85A14.79,14.79,0,0,1,433.81,48a9.23,9.23,0,0,1,7.89,2.17,6.75,6.75,0,0,1,1.48,7.77c-1.28,2.39-4,3.56-6.54,4.54q-9.5,3.66-19.09,7l-6-16.06C410.25,50,409.14,45.76,411.68,43.19Z" fill="#ffdd73" stroke="#1c2126" stroke-linejoin="round" stroke-width="2"/><path d="M395.08,107.7a8.62,8.62,0,0,1,3.56-1.46c2.21-.48,4.65-.69,6.64.41s3.21,3.49,3.79,5.8a19.26,19.26,0,0,1,.49,6.33,15.61,15.61,0,0,1,8.24-3.09,9.76,9.76,0,0,1,8,3.34,7.18,7.18,0,0,1,.53,8.4c-1.67,2.35-4.7,3.22-7.5,3.91q-10.5,2.61-21.08,4.86l-4.23-17.75C392.66,114.72,392.06,110.06,395.08,107.7Z" fill="#ffdd73" stroke="#1c2126" stroke-linejoin="round" stroke-width="2"/><rect y="595" width="1200" height="35" fill="#fff"/><rect y="499.19" width="1200" height="95.81" fill="#fff"/><line y1="499.19" x2="1200" y2="499.19" fill="none" stroke="#1c2126" stroke-miterlimit="10"/><line y1="595" x2="1200" y2="595" fill="none" stroke="#1c2126" stroke-miterlimit="10"/><path d="M24.24,559.45V540.69H17.85v-2.37H33.21v2.37H26.82v18.76Z" fill="#1c2126"/><path d="M44.08,559.89c-4.81,0-7.75-3.45-7.75-9.3v-3.41c0-5.85,2.94-9.3,7.75-9.3s7.74,3.45,7.74,9.3v3.41C51.82,556.44,48.88,559.89,44.08,559.89Zm5.14-9.31v-3.39c0-4.41-1.94-6.87-5.14-6.87s-5.15,2.46-5.15,6.87v3.39c0,4.41,1.94,6.87,5.15,6.87S49.22,555,49.22,550.58Z" fill="#1c2126"/><path d="M60,545.58a2.65,2.65,0,1,1,2.65,2.71A2.7,2.7,0,0,1,60,545.58Zm0,11.25a2.65,2.65,0,1,1,2.65,2.71A2.68,2.68,0,0,1,60,556.83Z" fill="#1c2126"/><circle cx="107.91" cy="548.15" r="31.98" fill="#1c2126"/><line x1="582.03" y1="498.72" x2="582.03" y2="595" fill="none" stroke="#1c2126" stroke-miterlimit="10"/><path d="M1129.73,614.6a4.72,4.72,0,1,1-4.71-4.69A4.43,4.43,0,0,1,1129.73,614.6Zm-6.82,0A2.12,2.12,0,0,0,1125,617c1.3,0,2.1-.94,2.1-2.41s-.8-2.42-2.1-2.42S1122.91,613.12,1122.91,614.6Z" fill="#1c2126"/><path d="M1138.54,612.93H1136c0-.57-.52-1-1.37-1s-1.25.3-1.25.72.19.62,1.2.8l1.2.19c2.3.39,2.91,1.43,2.91,2.79,0,1.74-1.39,2.85-3.92,2.85-2.72,0-4.08-1.3-4.08-3.09h2.48c0,.65.53,1.1,1.7,1.1.88,0,1.33-.3,1.33-.75s-.26-.72-1.3-.9l-1.25-.21c-2.11-.33-2.77-1.39-2.77-2.67,0-1.58,1.3-2.8,3.78-2.8S1138.54,611.24,1138.54,612.93Z" fill="#1c2126"/><path d="M1147.49,612.93H1145c0-.57-.53-1-1.38-1s-1.25.3-1.25.72.2.62,1.2.8l1.21.19c2.3.39,2.91,1.43,2.91,2.79,0,1.74-1.39,2.85-3.92,2.85-2.72,0-4.09-1.3-4.09-3.09h2.49c0,.65.52,1.1,1.69,1.1.88,0,1.33-.3,1.33-.75s-.25-.72-1.3-.9l-1.24-.21c-2.12-.33-2.77-1.39-2.77-2.67,0-1.58,1.29-2.8,3.77-2.8S1147.49,611.24,1147.49,612.93Z" fill="#1c2126"/><path d="M1152,617.64a1.6,1.6,0,1,1-1.6-1.62A1.55,1.55,0,0,1,1152,617.64Z" fill="#1c2126"/><path d="M1156.27,606.34v12.72h-2.5V606.34Z" fill="#1c2126"/><path d="M1167,614.6a4.71,4.71,0,1,1-4.7-4.69A4.42,4.42,0,0,1,1167,614.6Zm-6.81,0a2.12,2.12,0,0,0,2.11,2.41c1.29,0,2.1-.94,2.1-2.41s-.81-2.42-2.1-2.42S1160.16,613.12,1160.16,614.6Z" fill="#1c2126"/><path d="M1176.59,610.12l-3.26,8.94h-3l-3.28-8.94h2.64l2.16,6.32,2.16-6.32Z" fill="#1c2126"/><path d="M1186.06,615.33h-6.61a1.92,1.92,0,0,0,2,1.81,1.82,1.82,0,0,0,1.75-.8h2.66a5,5,0,1,1,.17-1.77Zm-6.58-1.71h3.94a1.87,1.87,0,0,0-2-1.58A2,2,0,0,0,1179.48,613.62Z" fill="#1c2126"/><path d="M605.51,559.45V538.32H618v2.37H608.1v7.25h9v2.3h-9v9.21Z" fill="#1c2126"/><path d="M625.54,551v8.42H623V538.32h7.09c4.19,0,6.81,2.43,6.81,6.35A5.91,5.91,0,0,1,633,550.5l4.3,9h-2.91L630.41,551Zm0-2.18h4.19c2.92,0,4.56-1.48,4.56-4.12s-1.61-4.11-4.44-4.11h-4.31Z" fill="#1c2126"/><path d="M648.15,559.89c-4.81,0-7.75-3.45-7.75-9.3v-3.41c0-5.85,2.94-9.3,7.75-9.3s7.75,3.45,7.75,9.3v3.41C655.9,556.44,653,559.89,648.15,559.89Zm5.14-9.31v-3.39c0-4.41-1.93-6.87-5.14-6.87s-5.14,2.46-5.14,6.87v3.39c0,4.41,1.93,6.87,5.14,6.87S653.29,555,653.29,550.58Z" fill="#1c2126"/><path d="M661.38,559.45h-2.3V538.32H662l4.64,13.12h.19l4.62-13.12h2.9v21.13H672v-8.11l.13-8.56H672l-4.25,11.71h-2l-4.25-11.71h-.19l.14,8.56Z" fill="#1c2126"/><path d="M682.59,545.58a2.65,2.65,0,1,1,2.65,2.71A2.7,2.7,0,0,1,682.59,545.58Zm0,11.25a2.65,2.65,0,1,1,2.65,2.71A2.68,2.68,0,0,1,682.59,556.83Z" fill="#1c2126"/><circle cx="733.24" cy="548.15" r="31.98" fill="#1c2126"/><path d="M791.37,562a13.93,13.93,0,0,1-5-.86,10.66,10.66,0,0,1-6.3-6.3,13.81,13.81,0,0,1-.87-5,13.54,13.54,0,0,1,.9-5,11.12,11.12,0,0,1,2.58-3.91,11.78,11.78,0,0,1,4-2.53,13.78,13.78,0,0,1,5.07-.9,13.44,13.44,0,0,1,4.55.74,10.32,10.32,0,0,1,3.54,2.12,9.19,9.19,0,0,1,2.28,3.27,10.78,10.78,0,0,1,.8,4.26,11.44,11.44,0,0,1-.7,4.2,6.47,6.47,0,0,1-1.93,2.77,4.55,4.55,0,0,1-2.91,1,3.24,3.24,0,0,1-2.55-1,3.31,3.31,0,0,1-.73-2.61l.51.14a5.85,5.85,0,0,1-2,2.56,4.88,4.88,0,0,1-2.79.88,4.34,4.34,0,0,1-3.43-1.36,5.39,5.39,0,0,1-1.22-3.73,8.24,8.24,0,0,1,.8-3.69,6.21,6.21,0,0,1,2.2-2.52,5.75,5.75,0,0,1,3.19-.91,4.13,4.13,0,0,1,2.59.76,3.51,3.51,0,0,1,1.3,2.13h-.33l.47-2.64h1.85l-1.29,7.26c0,.24-.07.47-.1.7s0,.43,0,.61a2,2,0,0,0,.44,1.4,1.65,1.65,0,0,0,1.3.48,2.75,2.75,0,0,0,2-.81,5.38,5.38,0,0,0,1.31-2.26,10.66,10.66,0,0,0,.48-3.37,9.37,9.37,0,0,0-.67-3.64,7.65,7.65,0,0,0-1.93-2.77,8.69,8.69,0,0,0-3-1.77,11.75,11.75,0,0,0-3.91-.61,11.94,11.94,0,0,0-4.41.77,9.42,9.42,0,0,0-5.56,5.58,12.48,12.48,0,0,0-.75,4.43,12,12,0,0,0,1.26,5.68,8.6,8.6,0,0,0,3.59,3.65,11.36,11.36,0,0,0,5.51,1.28,12.05,12.05,0,0,0,4.22-.71,8.25,8.25,0,0,0,3.14-2l.92,1.37a8.76,8.76,0,0,1-3.54,2.18A14.41,14.41,0,0,1,791.37,562ZM790,554.18a3.81,3.81,0,0,0,2.3-.74,5,5,0,0,0,1.58-2.06,7.5,7.5,0,0,0,.57-3,3.47,3.47,0,0,0-.7-2.38,2.81,2.81,0,0,0-2.21-.78,4,4,0,0,0-2.31.7,4.73,4.73,0,0,0-1.61,1.93,6.58,6.58,0,0,0-.59,2.86,3.85,3.85,0,0,0,.77,2.57A2.75,2.75,0,0,0,790,554.18Z" fill="#1c2126"/><path d="M806.82,557.45V536.84h2.27v20.61Z" fill="#1c2126"/><path d="M812.93,563.81l-.54-1.88a11.39,11.39,0,0,0,2.2-.71,4.26,4.26,0,0,0,1.47-1.08,6.19,6.19,0,0,0,1-1.68l.73-1.65-.06,1-6.13-14.36h2.46l5.07,12.35h-.73l5-12.35h2.38l-6.5,15.23a10.23,10.23,0,0,1-1.23,2.25,7.32,7.32,0,0,1-1.44,1.49,6.94,6.94,0,0,1-1.7.91A12.53,12.53,0,0,1,812.93,563.81Z" fill="#1c2126"/><path d="M828.35,557.45v-10.8c0-.53,0-1.06-.07-1.61s-.1-1.1-.15-1.64h2.18l.28,3.08h-.33a4.86,4.86,0,0,1,2-2.48,5.81,5.81,0,0,1,3.15-.85,5,5,0,0,1,3.77,1.33,5.86,5.86,0,0,1,1.27,4.18v8.79h-2.27V548.8a4.31,4.31,0,0,0-.8-2.9,3.13,3.13,0,0,0-2.47-.91,4.06,4.06,0,0,0-3.11,1.21,4.44,4.44,0,0,0-1.15,3.22v8Z" fill="#1c2126"/><path d="M844.76,557.45v-10.8c0-.53,0-1.06-.07-1.61s-.1-1.1-.15-1.64h2.18l.28,3.08h-.33a4.81,4.81,0,0,1,2-2.48,5.76,5.76,0,0,1,3.15-.85,4.94,4.94,0,0,1,3.76,1.33,5.86,5.86,0,0,1,1.28,4.18v8.79h-2.27V548.8a4.37,4.37,0,0,0-.8-2.9,3.13,3.13,0,0,0-2.47-.91,4.06,4.06,0,0,0-3.11,1.21,4.44,4.44,0,0,0-1.15,3.22v8Z" fill="#1c2126"/><path d="M866.52,557.71a6,6,0,0,1-3.28-.89,5.78,5.78,0,0,1-2.17-2.5,10.31,10.31,0,0,1,0-7.82,5.75,5.75,0,0,1,2.17-2.49,6.08,6.08,0,0,1,3.28-.86,5.64,5.64,0,0,1,3.29,1,4.56,4.56,0,0,1,1.83,2.62h-.34l.31-3.33h2.19c-.06.54-.11,1.08-.16,1.64s-.07,1.08-.07,1.61v10.8H871.3v-3.3h.31a4.42,4.42,0,0,1-1.85,2.6A5.57,5.57,0,0,1,866.52,557.71Zm.44-1.85a4,4,0,0,0,3.2-1.39,7.63,7.63,0,0,0,0-8.12,4.34,4.34,0,0,0-6.37,0,7.52,7.52,0,0,0,0,8.12A4,4,0,0,0,867,555.86Z" fill="#1c2126"/><path d="M878,557.45v-10.8c0-.53,0-1.06-.07-1.61s-.1-1.1-.15-1.64h2.18l.28,3.08h-.34a4.83,4.83,0,0,1,2-2.48,5.76,5.76,0,0,1,3.15-.85,5,5,0,0,1,3.76,1.33,5.86,5.86,0,0,1,1.28,4.18v8.79h-2.27V548.8a4.37,4.37,0,0,0-.8-2.9,3.15,3.15,0,0,0-2.48-.91,4.09,4.09,0,0,0-3.11,1.21,4.48,4.48,0,0,0-1.14,3.22v8Z" fill="#1c2126"/><path d="M899.7,557.71a5.93,5.93,0,0,1-3.25-.89,5.72,5.72,0,0,1-2.17-2.5,10.31,10.31,0,0,1,0-7.82,5.69,5.69,0,0,1,2.17-2.49,6,6,0,0,1,3.25-.86,5.66,5.66,0,0,1,3.29,1,4.61,4.61,0,0,1,1.86,2.57h-.34v-9.83h2.27v20.61h-2.24v-3.36h.31a4.58,4.58,0,0,1-1.85,2.65A5.71,5.71,0,0,1,899.7,557.71Zm.47-1.85a4,4,0,0,0,3.19-1.39,7.42,7.42,0,0,0,0-8.12,4.34,4.34,0,0,0-6.37,0,7.52,7.52,0,0,0,0,8.12A4,4,0,0,0,900.17,555.86Z" fill="#1c2126"/><path d="M916.16,557.71a4,4,0,0,1-3.16-1.2,5.14,5.14,0,0,1-1.1-3.59v-7.76h-2.74V543.4h2.74v-3.84l2.27-.64v4.48h4v1.76h-4v7.51a3.81,3.81,0,0,0,.58,2.39,2.05,2.05,0,0,0,1.72.71,4,4,0,0,0,.95-.1,4.87,4.87,0,0,0,.76-.23v1.9a5,5,0,0,1-.94.27A6.78,6.78,0,0,1,916.16,557.71Z" fill="#1c2126"/><path d="M926.6,557.71a6.78,6.78,0,0,1-3.51-.89,5.77,5.77,0,0,1-2.31-2.52,9.72,9.72,0,0,1,0-7.77,5.89,5.89,0,0,1,2.31-2.5,6.78,6.78,0,0,1,3.51-.88,6.85,6.85,0,0,1,3.55.88,6,6,0,0,1,2.32,2.5,9.51,9.51,0,0,1,0,7.77,5.91,5.91,0,0,1-2.32,2.52A6.85,6.85,0,0,1,926.6,557.71Zm0-1.85a4,4,0,0,0,3.2-1.39,7.63,7.63,0,0,0,0-8.12,4,4,0,0,0-3.2-1.39,4,4,0,0,0-3.16,1.39,7.57,7.57,0,0,0,0,8.12A3.92,3.92,0,0,0,926.6,555.86Z" fill="#1c2126"/><path d="M936.82,557.45v-10.8c0-.53,0-1.06-.07-1.61s-.09-1.1-.15-1.64h2.18l.28,3.08h-.33a4.86,4.86,0,0,1,2-2.48,5.81,5.81,0,0,1,3.15-.85,5,5,0,0,1,3.77,1.33,5.86,5.86,0,0,1,1.27,4.18v8.79h-2.27V548.8a4.37,4.37,0,0,0-.79-2.9,3.17,3.17,0,0,0-2.48-.91,4.08,4.08,0,0,0-3.11,1.21,4.44,4.44,0,0,0-1.15,3.22v8Z" fill="#1c2126"/><path d="M953,540.21v-2.55h2.8v2.55Zm.28,17.24V543.4h2.27v14.05Z" fill="#1c2126"/><path d="M965.8,557.71a6.91,6.91,0,0,1-3.59-.9,6,6,0,0,1-2.36-2.55,8.68,8.68,0,0,1-.82-3.92,8.32,8.32,0,0,1,.84-3.9,5.7,5.7,0,0,1,2.36-2.45,7.19,7.19,0,0,1,3.57-.84,7.35,7.35,0,0,1,2.62.47,5.79,5.79,0,0,1,2.12,1.34l-.82,1.63a5.77,5.77,0,0,0-1.83-1.21,5.29,5.29,0,0,0-1.95-.39,4.24,4.24,0,0,0-3.38,1.38,5.85,5.85,0,0,0-1.21,4,6,6,0,0,0,1.21,4,4.18,4.18,0,0,0,3.38,1.43,5.4,5.4,0,0,0,1.92-.37,5.28,5.28,0,0,0,1.86-1.2l.82,1.6a5.71,5.71,0,0,1-2.16,1.37A7.35,7.35,0,0,1,965.8,557.71Z" fill="#1c2126"/><path d="M167.16,562a13.84,13.84,0,0,1-5-.86,10.71,10.71,0,0,1-3.84-2.45,10.88,10.88,0,0,1-2.46-3.85,13.81,13.81,0,0,1-.87-5,13.54,13.54,0,0,1,.9-5,11,11,0,0,1,2.57-3.91,11.82,11.82,0,0,1,4-2.53,13.78,13.78,0,0,1,5.07-.9,13.49,13.49,0,0,1,4.55.74,10.32,10.32,0,0,1,3.54,2.12,9.19,9.19,0,0,1,2.28,3.27,11,11,0,0,1,.8,4.26,11.66,11.66,0,0,1-.7,4.2,6.47,6.47,0,0,1-1.93,2.77,4.58,4.58,0,0,1-2.92,1,3.2,3.2,0,0,1-2.54-1,3.31,3.31,0,0,1-.73-2.61l.5.14a5.71,5.71,0,0,1-2,2.56,4.85,4.85,0,0,1-2.78.88,4.34,4.34,0,0,1-3.43-1.36,5.34,5.34,0,0,1-1.22-3.73,8.11,8.11,0,0,1,.8-3.69,6.27,6.27,0,0,1,2.19-2.52,5.81,5.81,0,0,1,3.2-.91,4.15,4.15,0,0,1,2.59.76,3.55,3.55,0,0,1,1.3,2.13h-.34l.48-2.64H173l-1.29,7.26c0,.24-.07.47-.1.7a4.55,4.55,0,0,0,0,.61,2,2,0,0,0,.43,1.4,1.68,1.68,0,0,0,1.3.48,2.73,2.73,0,0,0,2-.81,5.5,5.5,0,0,0,1.32-2.26,10.66,10.66,0,0,0,.48-3.37,9.37,9.37,0,0,0-.68-3.64,7.53,7.53,0,0,0-1.93-2.77,8.6,8.6,0,0,0-3-1.77,11.69,11.69,0,0,0-3.9-.61,11.87,11.87,0,0,0-4.41.77,9.65,9.65,0,0,0-3.39,2.18,9.53,9.53,0,0,0-2.17,3.4,12.26,12.26,0,0,0-.76,4.43,12,12,0,0,0,1.26,5.68,8.62,8.62,0,0,0,3.6,3.65,11.32,11.32,0,0,0,5.5,1.28,12.11,12.11,0,0,0,4.23-.71,8.25,8.25,0,0,0,3.14-2l.92,1.37a8.83,8.83,0,0,1-3.54,2.18A14.47,14.47,0,0,1,167.16,562Zm-1.34-7.84a3.78,3.78,0,0,0,2.29-.74,5,5,0,0,0,1.59-2.06,7.5,7.5,0,0,0,.57-3,3.47,3.47,0,0,0-.7-2.38,2.83,2.83,0,0,0-2.21-.78,4,4,0,0,0-2.31.7,4.73,4.73,0,0,0-1.61,1.93,6.58,6.58,0,0,0-.59,2.86,3.85,3.85,0,0,0,.77,2.57A2.74,2.74,0,0,0,165.82,554.18Z" fill="#1c2126"/><path d="M184,557.45v-2h4.65V539.7h1.23l-5.43,3.39v-2.33l4.84-3h1.68v17.75h4.37v2Z" fill="#1c2126"/><path d="M200.76,557.45v-2h4.65V539.7h1.23l-5.43,3.39v-2.33l4.84-3h1.68v17.75h4.37v2Z" fill="#1c2126"/><path d="M221.2,557.71a4.06,4.06,0,0,1-3.16-1.2,5.14,5.14,0,0,1-1.09-3.59v-7.76H214.2V543.4H217v-3.84l2.26-.64v4.48h4v1.76h-4v7.51a3.88,3.88,0,0,0,.58,2.39,2.05,2.05,0,0,0,1.72.71,4,4,0,0,0,1-.1,4.87,4.87,0,0,0,.76-.23v1.9a4.82,4.82,0,0,1-.94.27A6.57,6.57,0,0,1,221.2,557.71Z" fill="#1c2126"/><path d="M225.63,563.81l-.54-1.88a11.39,11.39,0,0,0,2.2-.71,4.26,4.26,0,0,0,1.47-1.08,6.19,6.19,0,0,0,1-1.68l.73-1.65-.06,1-6.13-14.36h2.46l5.07,12.35h-.73l5-12.35h2.38L232,558.63a10.23,10.23,0,0,1-1.23,2.25,7.32,7.32,0,0,1-1.44,1.49,6.94,6.94,0,0,1-1.7.91A12.53,12.53,0,0,1,225.63,563.81Z" fill="#1c2126"/><path d="M27.75,606.92v12.14h-2.7v-2.13l-4.71-5.41v7.54H17.63V606.92H20l5.09,5.85v-5.85Z" fill="#1c2126"/><path d="M38.37,615.33H31.76a1.92,1.92,0,0,0,2,1.81,1.81,1.81,0,0,0,1.74-.8H38.2a4.35,4.35,0,0,1-4.44,2.88,4.63,4.63,0,1,1,0-9.26,4.32,4.32,0,0,1,4.62,4.61Zm-6.58-1.71h3.94a1.87,1.87,0,0,0-2-1.58A2,2,0,0,0,31.79,613.62Z" fill="#1c2126"/><path d="M44.93,612.23H43v6.83H40.5v-6.83H38.82v-2.11H40.5V607.3H43v2.82h1.93Z" fill="#1c2126"/><path d="M48.9,606.34v12.72H46.4V606.34Z" fill="#1c2126"/><path d="M53.62,607.59a1.46,1.46,0,0,1-1.51,1.5,1.51,1.51,0,1,1,1.51-1.5Zm-.24,2.32v9.15h-2.5v-9.15a2.06,2.06,0,0,0,1.25.37A2,2,0,0,0,53.38,609.91Z" fill="#1c2126"/><path d="M58.55,609v1.09h1.87v2.11H58.55v6.83h-2.5v-6.83H54.61v-2.11h1.44V609a2.62,2.62,0,0,1,2.88-2.83h1.75v1.94H59.44A.78.78,0,0,0,58.55,609Z" fill="#1c2126"/><path d="M70.71,610.12l-5,11.89H63.33l1.38-3.28-3.49-8.61h2.51L66,615.69l2.32-5.57Z" fill="#1c2126"/><path d="M109.4,613c0,3.92-2.34,6.22-5.8,6.22s-5.79-2.3-5.79-6.22,2.33-6.25,5.79-6.25S109.4,609.08,109.4,613Zm-8.79,0c0,2.35,1.3,3.66,3,3.66s3-1.31,3-3.66-1.32-3.67-3-3.67S100.61,610.63,100.61,613Z" fill="#1c2126"/><path d="M120.32,610.53h-2.8c0-.89-.67-1.52-1.85-1.52s-1.7.55-1.7,1.23.38,1,1.49,1.3l1.37.32c2.65.59,3.73,1.73,3.73,3.73s-1.6,3.63-4.73,3.63-4.9-1.61-4.9-4h2.8a1.88,1.88,0,0,0,2.11,1.84c1.27,0,1.92-.63,1.92-1.44s-.38-1.09-1.57-1.35l-1.32-.27c-2.77-.56-3.72-1.87-3.72-3.73,0-2.06,1.6-3.54,4.58-3.54S120.32,608.29,120.32,610.53Z" fill="#1c2126"/><path d="M131.38,610.53h-2.8c0-.89-.67-1.52-1.86-1.52-1,0-1.69.55-1.69,1.23s.38,1,1.48,1.3l1.38.32c2.64.59,3.73,1.73,3.73,3.73s-1.6,3.63-4.74,3.63-4.9-1.61-4.9-4h2.81a1.88,1.88,0,0,0,2.11,1.84c1.26,0,1.92-.63,1.92-1.44s-.39-1.09-1.57-1.35l-1.33-.27c-2.77-.56-3.71-1.87-3.71-3.73,0-2.06,1.6-3.54,4.58-3.54S131.38,608.29,131.38,610.53Z" fill="#1c2126"/><path d="M91.16,610.11a3.71,3.71,0,0,0-1-1.22,4,4,0,0,0-2.5-1.14,3.62,3.62,0,0,0-2.51,1.37,8,8,0,0,0-1.41,2.21,6.53,6.53,0,0,0-2.39-2.73,4.07,4.07,0,0,0-3.57-.35,3,3,0,0,0-1.83,3,5.09,5.09,0,0,0,2,2.88q3.32,3,6.72,5.87l5-5.64C90.67,613.14,91.8,611.56,91.16,610.11Z" fill="#ff6b60" stroke="#ff6b60" stroke-linejoin="round"/></svg>