<svg xmlns="http://www.w3.org/2000/svg" width="1200" height="630" viewBox="0 0 1200 630"><rect x="-2510.07" y="-1558.85" width="6221.73" height="2273.11" fill="#a6a6a6"/><rect width="1200" height="498.72" fill="#ffdd73"/><path d="M1111.26,503c0,26.78-50.21,48.49-112.14,48.49S887,529.73,887,503c0-45.56,50.21-52.48,112.15-52.48S1111.26,457.93,1111.26,503Z" fill="#ffb916" stroke="#1c2126" stroke-linejoin="round" stroke-width="2"/><ellipse cx="999.12" cy="491.46" rx="112.15" ry="48.48" fill="#b7790b" stroke="#1c2126" stroke-linejoin="round" stroke-width="2"/><path d="M1114.26,472.39c0,26.78-50.21,48.49-112.14,48.49S890,499.17,890,472.39c0-45.55,50.21-52.48,112.15-52.48S1114.26,427.37,1114.26,472.39Z" fill="#ffb916" stroke="#1c2126" stroke-linejoin="round" stroke-width="2"/><ellipse cx="1002.12" cy="460.9" rx="112.15" ry="48.48" fill="#b7790b" stroke="#1c2126" stroke-linejoin="round" stroke-width="2"/><path d="M1108.38,443.47c0,26.78-50.21,48.48-112.15,48.48s-112.14-21.7-112.14-48.48c0-45.56,50.21-52.48,112.14-52.48S1108.38,398.44,1108.38,443.47Z" fill="#ffb916" stroke="#1c2126" stroke-linejoin="round" stroke-width="2"/><ellipse cx="996.23" cy="431.98" rx="112.15" ry="48.48" fill="#b7790b" stroke="#1c2126" stroke-linejoin="round" stroke-width="2"/><path d="M1114.26,416c0,26.77-50.21,48.48-112.14,48.48S890,442.76,890,416c0-45.56,50.21-52.49,112.15-52.49S1114.26,371,1114.26,416Z" fill="#ffb916" stroke="#1c2126" stroke-linejoin="round" stroke-width="2"/><ellipse cx="1002.12" cy="404.49" rx="112.15" ry="48.48" fill="#b7790b" stroke="#1c2126" stroke-linejoin="round" stroke-width="2"/><path d="M1108.38,392.41c0,26.77-50.21,48.48-112.15,48.48s-112.14-21.71-112.14-48.48c0-45.56,50.21-52.49,112.14-52.49S1108.38,347.38,1108.38,392.41Z" fill="#ffb916" stroke="#1c2126" stroke-linejoin="round" stroke-width="2"/><ellipse cx="996.23" cy="380.91" rx="112.15" ry="48.48" fill="#b7790b" stroke="#1c2126" stroke-linejoin="round" stroke-width="2"/><path d="M1118.26,361.17c0,26.77-50.21,48.48-112.14,48.48S894,387.94,894,361.17c0-45.56,50.21-52.49,112.15-52.49S1118.26,316.14,1118.26,361.17Z" fill="#ffb916" stroke="#1c2126" stroke-linejoin="round" stroke-width="2"/><ellipse cx="1006.12" cy="349.67" rx="112.15" ry="48.48" fill="#b7790b" stroke="#1c2126" stroke-linejoin="round" stroke-width="2"/><path d="M1114.26,328.24c0,26.78-50.21,48.48-112.14,48.48S890,355,890,328.24c0-45.56,50.21-52.48,112.15-52.48S1114.26,283.21,1114.26,328.24Z" fill="#ffb916" stroke="#1c2126" stroke-linejoin="round" stroke-width="2"/><ellipse cx="1002.12" cy="316.75" rx="112.15" ry="48.48" fill="#b7790b" stroke="#1c2126" stroke-linejoin="round" stroke-width="2"/><path d="M1108.38,300.76c0,26.77-50.21,48.48-112.15,48.48s-112.14-21.71-112.14-48.48c0-45.56,50.21-52.49,112.14-52.49S1108.38,255.73,1108.38,300.76Z" fill="#ffb916" stroke="#1c2126" stroke-linejoin="round" stroke-width="2"/><ellipse cx="996.23" cy="289.26" rx="112.15" ry="48.48" fill="#b7790b" stroke="#1c2126" stroke-linejoin="round" stroke-width="2"/><path d="M1116.52,277.18c0,26.78-50.2,48.48-112.14,48.48S892.23,304,892.23,277.18c0-45.56,50.21-52.48,112.15-52.48S1116.52,232.15,1116.52,277.18Z" fill="#ffb916" stroke="#1c2126" stroke-linejoin="round" stroke-width="2"/><ellipse cx="1004.38" cy="265.69" rx="112.15" ry="48.48" fill="#b7790b" stroke="#1c2126" stroke-linejoin="round" stroke-width="2"/><path d="M1114.26,245.94c0,26.77-50.21,48.48-112.14,48.48S890,272.71,890,245.94c0-45.56,50.21-52.49,112.15-52.49S1114.26,200.91,1114.26,245.94Z" fill="#ffb916" stroke="#1c2126" stroke-linejoin="round" stroke-width="2"/><ellipse cx="1002.12" cy="234.44" rx="112.15" ry="48.48" fill="#b7790b" stroke="#1c2126" stroke-linejoin="round" stroke-width="2"/><path d="M1113.26,216c0,26.78-50.21,48.49-112.14,48.49S889,242.79,889,216c0-45.56,50.21-52.48,112.15-52.48S1113.26,171,1113.26,216Z" fill="#ffb916" stroke="#1c2126" stroke-linejoin="round" stroke-width="2"/><ellipse cx="1001.12" cy="204.52" rx="112.15" ry="48.48" fill="#b7790b" stroke="#1c2126" stroke-linejoin="round" stroke-width="2"/><path d="M1116.52,183.09c0,26.77-50.2,48.48-112.14,48.48s-112.15-21.71-112.15-48.48c0-45.56,50.21-52.49,112.15-52.49S1116.52,138.06,1116.52,183.09Z" fill="#ffb916" stroke="#1c2126" stroke-linejoin="round" stroke-width="2"/><ellipse cx="1004.38" cy="171.59" rx="112.15" ry="48.48" fill="#b7790b" stroke="#1c2126" stroke-linejoin="round" stroke-width="2"/><path d="M1109.26,155.6c0,26.78-50.21,48.49-112.14,48.49S885,182.38,885,155.6c0-45.56,50.21-52.48,112.15-52.48S1109.26,110.58,1109.26,155.6Z" fill="#ffb916" stroke="#1c2126" stroke-linejoin="round" stroke-width="2"/><ellipse cx="997.12" cy="144.11" rx="112.15" ry="48.48" fill="#b7790b" stroke="#1c2126" stroke-linejoin="round" stroke-width="2"/><path d="M1116.52,132c0,26.77-50.2,48.48-112.14,48.48S892.23,158.8,892.23,132c0-45.56,50.21-52.49,112.15-52.49S1116.52,87,1116.52,132Z" fill="#ffb916" stroke="#1c2126" stroke-linejoin="round" stroke-width="2"/><ellipse cx="1004.38" cy="120.53" rx="112.15" ry="48.48" fill="#b7790b" stroke="#1c2126" stroke-linejoin="round" stroke-width="2"/><path d="M1108.38,104.53c0,26.78-50.21,48.48-112.15,48.48s-112.14-21.7-112.14-48.48c0-45.56,50.21-52.48,112.14-52.48S1108.38,59.5,1108.38,104.53Z" fill="#ffb916" stroke="#1c2126" stroke-linejoin="round" stroke-width="2"/><ellipse cx="996.23" cy="93.04" rx="112.15" ry="48.48" fill="#b7790b" stroke="#1c2126" stroke-linejoin="round" stroke-width="2"/><path d="M967.09,84.16c0,2.43,0,3.85,0,6.28a4.74,4.74,0,0,0,.25,1.87,4.3,4.3,0,0,0,1.49,1.63c5.2,3.91,28.82,11.68,31.07,11.78a10.32,10.32,0,0,0,4.84-.66c1-.48,12.07-11.76,17.19-17.16a3.82,3.82,0,0,0,.93-1.33,46.37,46.37,0,0,0-1-10.19" fill="#fff6d0" stroke="#1c2126" stroke-linejoin="round" stroke-width="2"/><path d="M1019.41,73.49c-8.35-5.29-24.61-10.37-29.21-9.34S975.09,75,968.29,81.39c-.81.76-1.68,1.75-1.42,2.82s1.24,1.46,2.13,1.84c9.25,4,18.52,8,28.09,11.12a7.16,7.16,0,0,0,3,.51,7,7,0,0,0,3.18-1.65,113.86,113.86,0,0,0,17.23-16.41,4.67,4.67,0,0,0,1.39-2.64C1022,75.48,1020.69,74.3,1019.41,73.49Z" fill="#fff6d0" stroke="#1c2126" stroke-linejoin="round" stroke-width="2"/><path d="M850.52,516.64c0,26.78-50.21,48.48-112.14,48.48s-112.15-21.7-112.15-48.48c0-45.56,50.21-52.48,112.15-52.48S850.52,471.61,850.52,516.64Z" fill="#ffb916" stroke="#1c2126" stroke-linejoin="round" stroke-width="2"/><ellipse cx="738.38" cy="505.15" rx="112.15" ry="48.48" fill="#b7790b" stroke="#1c2126" stroke-linejoin="round" stroke-width="2"/><path d="M843.45,493.06c0,26.78-50.21,48.49-112.15,48.49s-112.14-21.71-112.14-48.49c0-45.56,50.21-52.48,112.14-52.48S843.45,448,843.45,493.06Z" fill="#ffb916" stroke="#1c2126" stroke-linejoin="round" stroke-width="2"/><ellipse cx="731.3" cy="481.57" rx="112.15" ry="48.48" fill="#b7790b" stroke="#1c2126" stroke-linejoin="round" stroke-width="2"/><path d="M835.45,461.82c0,26.78-50.21,48.48-112.14,48.48s-112.15-21.7-112.15-48.48c0-45.56,50.21-52.48,112.15-52.48S835.45,416.79,835.45,461.82Z" fill="#ffb916" stroke="#1c2126" stroke-linejoin="round" stroke-width="2"/><ellipse cx="723.31" cy="450.33" rx="112.15" ry="48.48" fill="#b7790b" stroke="#1c2126" stroke-linejoin="round" stroke-width="2"/><path d="M845.45,431.9c0,26.77-50.21,48.48-112.15,48.48S621.16,458.67,621.16,431.9c0-45.56,50.21-52.49,112.14-52.49S845.45,386.87,845.45,431.9Z" fill="#ffb916" stroke="#1c2126" stroke-linejoin="round" stroke-width="2"/><ellipse cx="733.3" cy="420.4" rx="112.15" ry="48.48" fill="#b7790b" stroke="#1c2126" stroke-linejoin="round" stroke-width="2"/><path d="M845.45,399c0,26.78-50.21,48.49-112.15,48.49S621.16,425.75,621.16,399c0-45.56,50.21-52.48,112.14-52.48S845.45,353.94,845.45,399Z" fill="#ffb916" stroke="#1c2126" stroke-linejoin="round" stroke-width="2"/><ellipse cx="733.3" cy="387.48" rx="112.15" ry="48.48" fill="#b7790b" stroke="#1c2126" stroke-linejoin="round" stroke-width="2"/><path d="M845.45,371.49c0,26.77-50.21,48.48-112.15,48.48s-112.14-21.71-112.14-48.48c0-45.56,50.21-52.49,112.14-52.49S845.45,326.46,845.45,371.49Z" fill="#ffb916" stroke="#1c2126" stroke-linejoin="round" stroke-width="2"/><ellipse cx="733.3" cy="359.99" rx="112.15" ry="48.48" fill="#b7790b" stroke="#1c2126" stroke-linejoin="round" stroke-width="2"/><path d="M835.45,347.91c0,26.78-50.21,48.48-112.14,48.48s-112.15-21.7-112.15-48.48c0-45.56,50.21-52.48,112.15-52.48S835.45,302.88,835.45,347.91Z" fill="#ffb916" stroke="#1c2126" stroke-linejoin="round" stroke-width="2"/><ellipse cx="723.31" cy="336.42" rx="112.15" ry="48.48" fill="#b7790b" stroke="#1c2126" stroke-linejoin="round" stroke-width="2"/><path d="M841.48,320.41c0,26.78-50.21,48.49-112.15,48.49s-112.14-21.71-112.14-48.49c0-45.55,50.2-52.48,112.14-52.48S841.48,275.39,841.48,320.41Z" fill="#ffb916" stroke="#1c2126" stroke-linejoin="round" stroke-width="2"/><ellipse cx="729.33" cy="308.92" rx="112.15" ry="48.48" fill="#b7790b" stroke="#1c2126" stroke-linejoin="round" stroke-width="2"/><path d="M696,300.05c0,2.42,0,3.85,0,6.27a4.69,4.69,0,0,0,.25,1.87,4.31,4.31,0,0,0,1.49,1.63c5.21,3.91,28.82,11.68,31.08,11.79a10.52,10.52,0,0,0,4.83-.66c1.05-.49,12.08-11.76,17.19-17.17a3.75,3.75,0,0,0,.94-1.33,47.18,47.18,0,0,0-1-10.19" fill="#fff6d0" stroke="#1c2126" stroke-linejoin="round" stroke-width="2"/><path d="M748.34,289.38C740,284.08,723.72,279,719.13,280s-15.11,10.9-21.91,17.25c-.81.75-1.69,1.74-1.42,2.81s1.23,1.46,2.13,1.85c9.25,4,18.51,8,28.09,11.11a6.8,6.8,0,0,0,3,.51,6.89,6.89,0,0,0,3.18-1.64,114.46,114.46,0,0,0,17.24-16.42,4.69,4.69,0,0,0,1.38-2.63C750.93,291.36,749.61,290.18,748.34,289.38Z" fill="#fff6d0" stroke="#1c2126" stroke-linejoin="round" stroke-width="2"/><path d="M309,516.64c0,26.78-50.21,48.48-112.15,48.48S84.71,543.42,84.71,516.64c0-45.56,50.2-52.48,112.14-52.48S309,471.61,309,516.64Z" fill="#ffb916" stroke="#1c2126" stroke-linejoin="round" stroke-width="2"/><ellipse cx="196.85" cy="505.15" rx="112.15" ry="48.48" fill="#b7790b" stroke="#1c2126" stroke-linejoin="round" stroke-width="2"/><path d="M302.56,493.06c0,26.78-50.21,48.49-112.14,48.49S78.27,519.84,78.27,493.06c0-45.56,50.21-52.48,112.15-52.48S302.56,448,302.56,493.06Z" fill="#ffb916" stroke="#1c2126" stroke-linejoin="round" stroke-width="2"/><ellipse cx="190.42" cy="481.57" rx="112.15" ry="48.48" fill="#b7790b" stroke="#1c2126" stroke-linejoin="round" stroke-width="2"/><path d="M307,461.82c0,26.78-50.21,48.48-112.15,48.48S82.71,488.6,82.71,461.82c0-45.56,50.2-52.48,112.14-52.48S307,416.79,307,461.82Z" fill="#ffb916" stroke="#1c2126" stroke-linejoin="round" stroke-width="2"/><ellipse cx="194.85" cy="450.33" rx="112.15" ry="48.48" fill="#b7790b" stroke="#1c2126" stroke-linejoin="round" stroke-width="2"/><path d="M309,431.9c0,26.77-50.21,48.48-112.15,48.48S84.71,458.67,84.71,431.9c0-45.56,50.2-52.49,112.14-52.49S309,386.87,309,431.9Z" fill="#ffb916" stroke="#1c2126" stroke-linejoin="round" stroke-width="2"/><ellipse cx="196.85" cy="420.4" rx="112.15" ry="48.48" fill="#b7790b" stroke="#1c2126" stroke-linejoin="round" stroke-width="2"/><path d="M314.07,399c0,26.78-50.21,48.49-112.14,48.49S89.78,425.75,89.78,399c0-45.56,50.21-52.48,112.15-52.48S314.07,353.94,314.07,399Z" fill="#ffb916" stroke="#1c2126" stroke-linejoin="round" stroke-width="2"/><ellipse cx="201.93" cy="387.48" rx="112.15" ry="48.48" fill="#b7790b" stroke="#1c2126" stroke-linejoin="round" stroke-width="2"/><path d="M302.56,371.49c0,26.77-50.21,48.48-112.14,48.48S78.27,398.26,78.27,371.49c0-45.56,50.21-52.49,112.15-52.49S302.56,326.46,302.56,371.49Z" fill="#ffb916" stroke="#1c2126" stroke-linejoin="round" stroke-width="2"/><ellipse cx="190.42" cy="359.99" rx="112.15" ry="48.48" fill="#b7790b" stroke="#1c2126" stroke-linejoin="round" stroke-width="2"/><path d="M305,347.91c0,26.78-50.2,48.48-112.14,48.48S80.73,374.69,80.73,347.91c0-45.56,50.21-52.48,112.15-52.48S305,302.88,305,347.91Z" fill="#ffb916" stroke="#1c2126" stroke-linejoin="round" stroke-width="2"/><ellipse cx="192.88" cy="336.42" rx="112.15" ry="48.48" fill="#b7790b" stroke="#1c2126" stroke-linejoin="round" stroke-width="2"/><path d="M159.56,328.06c0,2.43,0,3.85,0,6.28a4.74,4.74,0,0,0,.25,1.87,4.39,4.39,0,0,0,1.49,1.63c5.21,3.91,28.82,11.68,31.07,11.78a10.3,10.3,0,0,0,4.84-.66c1.05-.48,12.07-11.76,17.19-17.16a3.69,3.69,0,0,0,.93-1.33,46.32,46.32,0,0,0-1-10.19" fill="#fff6d0" stroke="#1c2126" stroke-linejoin="round" stroke-width="2"/><path d="M211.89,317.39c-8.36-5.29-24.62-10.37-29.22-9.34s-15.1,10.89-21.91,17.24c-.8.76-1.68,1.75-1.42,2.82s1.24,1.46,2.13,1.84c9.25,4,18.52,8,28.09,11.12a7.16,7.16,0,0,0,3.05.51,6.91,6.91,0,0,0,3.18-1.65A114.4,114.4,0,0,0,213,323.52a4.72,4.72,0,0,0,1.38-2.64C214.48,319.38,213.16,318.2,211.89,317.39Z" fill="#fff6d0" stroke="#1c2126" stroke-linejoin="round" stroke-width="2"/><path d="M580,516.64c0,26.78-50.21,48.48-112.14,48.48s-112.15-21.7-112.15-48.48c0-45.56,50.21-52.48,112.15-52.48S580,471.61,580,516.64Z" fill="#ffb916" stroke="#1c2126" stroke-linejoin="round" stroke-width="2"/><ellipse cx="467.9" cy="505.15" rx="112.15" ry="48.48" fill="#b7790b" stroke="#1c2126" stroke-linejoin="round" stroke-width="2"/><path d="M585.12,493.06c0,26.78-50.21,48.49-112.15,48.49s-112.14-21.71-112.14-48.49c0-45.56,50.21-52.48,112.14-52.48S585.12,448,585.12,493.06Z" fill="#ffb916" stroke="#1c2126" stroke-linejoin="round" stroke-width="2"/><ellipse cx="472.97" cy="481.57" rx="112.15" ry="48.48" fill="#b7790b" stroke="#1c2126" stroke-linejoin="round" stroke-width="2"/><path d="M575.7,461.82c0,26.78-50.21,48.48-112.15,48.48s-112.14-21.7-112.14-48.48c0-45.56,50.21-52.48,112.14-52.48S575.7,416.79,575.7,461.82Z" fill="#ffb916" stroke="#1c2126" stroke-linejoin="round" stroke-width="2"/><ellipse cx="463.55" cy="450.33" rx="112.15" ry="48.48" fill="#b7790b" stroke="#1c2126" stroke-linejoin="round" stroke-width="2"/><path d="M580.45,432.3c0,26.77-50.21,48.48-112.15,48.48S356.15,459.07,356.15,432.3c0-45.56,50.21-52.49,112.15-52.49S580.45,387.27,580.45,432.3Z" fill="#ffb916" stroke="#1c2126" stroke-linejoin="round" stroke-width="2"/><ellipse cx="468.3" cy="420.8" rx="112.15" ry="48.48" fill="#b7790b" stroke="#1c2126" stroke-linejoin="round" stroke-width="2"/><path d="M580,399c0,26.78-50.21,48.49-112.14,48.49S355.75,425.75,355.75,399c0-45.56,50.21-52.48,112.15-52.48S580,353.94,580,399Z" fill="#ffb916" stroke="#1c2126" stroke-linejoin="round" stroke-width="2"/><ellipse cx="467.9" cy="387.48" rx="112.15" ry="48.48" fill="#b7790b" stroke="#1c2126" stroke-linejoin="round" stroke-width="2"/><path d="M570.05,371.49c0,26.77-50.21,48.48-112.15,48.48s-112.14-21.71-112.14-48.48C345.76,325.93,396,319,457.9,319S570.05,326.46,570.05,371.49Z" fill="#ffb916" stroke="#1c2126" stroke-linejoin="round" stroke-width="2"/><ellipse cx="457.9" cy="359.99" rx="112.15" ry="48.48" fill="#b7790b" stroke="#1c2126" stroke-linejoin="round" stroke-width="2"/><path d="M575.7,347.91c0,26.78-50.21,48.48-112.15,48.48s-112.14-21.7-112.14-48.48c0-45.56,50.21-52.48,112.14-52.48S575.7,302.88,575.7,347.91Z" fill="#ffb916" stroke="#1c2126" stroke-linejoin="round" stroke-width="2"/><ellipse cx="463.55" cy="336.42" rx="112.15" ry="48.48" fill="#b7790b" stroke="#1c2126" stroke-linejoin="round" stroke-width="2"/><path d="M429.62,328.08c0,2.43,0,3.85,0,6.28a4.93,4.93,0,0,0,.26,1.87,4.3,4.3,0,0,0,1.49,1.63c5.2,3.91,28.82,11.68,31.07,11.78a10.32,10.32,0,0,0,4.84-.66c1-.48,12.07-11.76,17.19-17.16a3.82,3.82,0,0,0,.93-1.33,46.37,46.37,0,0,0-1-10.19" fill="#fff6d0" stroke="#1c2126" stroke-linejoin="round" stroke-width="2"/><path d="M482,317.41c-8.36-5.29-24.61-10.37-29.21-9.34S437.63,319,430.83,325.31c-.81.76-1.68,1.75-1.42,2.82s1.24,1.46,2.13,1.84c9.25,4,18.52,8,28.09,11.12a5.27,5.27,0,0,0,6.23-1.14,114.33,114.33,0,0,0,17.23-16.41,4.6,4.6,0,0,0,1.38-2.64C484.55,319.4,483.23,318.22,482,317.41Z" fill="#fff6d0" stroke="#1c2126" stroke-linejoin="round" stroke-width="2"/><path d="M79.69,123.11l8.84-55.66h17.06l-8.85,55.66Z" fill="#1c2126"/><path d="M116.56,97l-5.21-5.61a31.23,31.23,0,0,0,5.29-5.44,16.57,16.57,0,0,0,2.52-6.16l2.85,4H110.48l2.6-16.34h16.66l-1.81,11.37a29.61,29.61,0,0,1-1.78,6.67,22.48,22.48,0,0,1-3.47,5.8A35.07,35.07,0,0,1,116.56,97Z" fill="#1c2126"/><path d="M127.61,123.11l4.58-28.82q.39-2.83.71-5.72t.47-5.72h15.79L149,89.24h-.86A15.37,15.37,0,0,1,154,83.72a16.94,16.94,0,0,1,8-1.82,12.8,12.8,0,0,1,7.27,2A9.21,9.21,0,0,1,173,90.27h-1.81a18.31,18.31,0,0,1,6.75-6.16,17.58,17.58,0,0,1,8.33-2.21q7.33,0,10.26,4.46T198,100.29l-3.63,22.82h-16.5L181.45,100a7,7,0,0,0-.24-4.26,2.67,2.67,0,0,0-2.6-1.35,4.85,4.85,0,0,0-4,1.82,11,11,0,0,0-2,5.13l-3.47,21.79H152.72L156.35,100a7.18,7.18,0,0,0-.24-4.26,2.67,2.67,0,0,0-2.61-1.35,4.82,4.82,0,0,0-4,1.82,11.25,11.25,0,0,0-2,5.13L144,123.11Z" fill="#1c2126"/><path d="M243.82,140.79a49.77,49.77,0,0,1-10.78-1,30.85,30.85,0,0,1-8.09-3l4-11.69a18.91,18.91,0,0,0,4.18,1.94,36.12,36.12,0,0,0,5.09,1.3,27.76,27.76,0,0,0,4.94.47c3.52,0,6.09-.69,7.7-2.09a9.63,9.63,0,0,0,3-6l.87-5.6h.71a11.15,11.15,0,0,1-4.65,4.89,15.28,15.28,0,0,1-8,2,17.11,17.11,0,0,1-9.27-2.48,14.2,14.2,0,0,1-5.81-7.3q-1.82-4.81-.63-11.77A25.44,25.44,0,0,1,231,90.23,18.34,18.34,0,0,1,238.09,84a21.74,21.74,0,0,1,9.6-2.09,15.55,15.55,0,0,1,7.77,1.89,7.43,7.43,0,0,1,4,4.9h-.55l1.81-5.84H276.5c-.52,1.89-1,3.8-1.42,5.72s-.76,3.83-1,5.72l-3.95,24.64q-1.67,10.5-8.25,16.18T243.82,140.79ZM249,110a6.71,6.71,0,0,0,5-2,9.91,9.91,0,0,0,2.53-5.76q.63-4.18-.91-6.24a5.32,5.32,0,0,0-4.54-2,6.73,6.73,0,0,0-5,2,10.6,10.6,0,0,0-2.57,5.84q-.63,4.11.91,6.16A5.41,5.41,0,0,0,249,110Z" fill="#1c2126"/><path d="M277.06,123.11,286.29,65h16.42l-9.23,58.11Z" fill="#1c2126"/><path d="M318.34,124.06a15.18,15.18,0,0,1-9.39-2.92,15.91,15.91,0,0,1-5.53-8.06,25.21,25.21,0,0,1-.63-11.68,27.58,27.58,0,0,1,4-10.9A18.58,18.58,0,0,1,314,84a21,21,0,0,1,9.44-2.13,15.29,15.29,0,0,1,7.77,1.93,7.53,7.53,0,0,1,4,5l-.71.47,2-6.47h15.79q-.78,2.84-1.38,5.72t-1.07,5.72l-4.57,28.82H329l1-6.47h1.34a13,13,0,0,1-5,5.36A15.07,15.07,0,0,1,318.34,124.06ZM324.5,112a6.63,6.63,0,0,0,4.82-1.94c1.31-1.28,2.21-3.38,2.68-6.27q.87-5.53-.71-7.66A5.35,5.35,0,0,0,326.71,94a6.67,6.67,0,0,0-4.85,1.89c-1.29,1.27-2.17,3.37-2.65,6.32-.58,3.68-.34,6.24.71,7.66A5.36,5.36,0,0,0,324.5,112Z" fill="#1c2126"/><path d="M370.21,124.06a15.18,15.18,0,0,1-9.39-2.92,15.91,15.91,0,0,1-5.53-8.06,25.21,25.21,0,0,1-.63-11.68,26.66,26.66,0,0,1,3.95-10.9A18.54,18.54,0,0,1,365.87,84a21.19,21.19,0,0,1,9.47-2.13,15.3,15.3,0,0,1,7.78,1.93,7.53,7.53,0,0,1,4,5h-.95L390,65h16.42l-9.24,58.11H381l1-6.47h1.26a13.09,13.09,0,0,1-5,5.36A15.07,15.07,0,0,1,370.21,124.06ZM376.37,112a6.63,6.63,0,0,0,4.82-1.94c1.31-1.28,2.21-3.38,2.68-6.27q.87-5.53-.71-7.66A5.35,5.35,0,0,0,378.58,94a6.63,6.63,0,0,0-4.85,1.89c-1.29,1.27-2.18,3.37-2.65,6.32-.58,3.68-.34,6.24.71,7.66A5.35,5.35,0,0,0,376.37,112Z" fill="#1c2126"/><path d="M426,141l-2.45-12.63q3.94-.63,6.63-1.34a14.26,14.26,0,0,0,4.54-2,10.77,10.77,0,0,0,3.12-3.43l2.68-4.5-.79,6L428.63,82.85h16.66l5.21,24.08h-2.84l13.42-24.08h16.66l-24.32,40.42a46.63,46.63,0,0,1-6.2,8.37,28.6,28.6,0,0,1-6.39,5.09,27.5,27.5,0,0,1-6.91,2.76Q430.29,140.4,426,141Z" fill="#1c2126"/><path d="M494.08,124.06a25.09,25.09,0,0,1-12.47-2.81,15.68,15.68,0,0,1-7.07-7.89,22,22,0,0,1-1-12A23.2,23.2,0,0,1,478,90.58a21.09,21.09,0,0,1,8.61-6.51,29.65,29.65,0,0,1,11.53-2.17q7.58,0,12.47,2.8a15.68,15.68,0,0,1,6.95,7.86,22.25,22.25,0,0,1,.94,12,23.24,23.24,0,0,1-4.38,10.81,20.69,20.69,0,0,1-8.48,6.52A29.51,29.51,0,0,1,494.08,124.06ZM495,112a6.15,6.15,0,0,0,4.62-1.94c1.23-1.28,2.09-3.38,2.56-6.27q.87-5.53-.63-7.66A5,5,0,0,0,497.16,94a6.22,6.22,0,0,0-4.62,1.89c-1.24,1.27-2.09,3.37-2.57,6.32-.57,3.68-.38,6.24.6,7.66A5,5,0,0,0,495,112Z" fill="#1c2126"/><path d="M537.11,124.06q-7.82,0-11.14-4.62t-2.05-12.91l3.79-23.68h16.42l-3.79,23.84a4.65,4.65,0,0,0,.56,3.67,3.72,3.72,0,0,0,3.15,1.22,5.1,5.1,0,0,0,4.11-1.77,9.44,9.44,0,0,0,2-4.7l3.55-22.26h16.43l-6.4,40.26h-16l1-6.63H550a18.12,18.12,0,0,1-5.48,5.6A13.48,13.48,0,0,1,537.11,124.06Z" fill="#1c2126"/><path d="M582.74,97l-5.21-5.61a31.23,31.23,0,0,0,5.29-5.44,16.57,16.57,0,0,0,2.52-6.16l2.84,4H576.66l2.6-16.34h16.66l-1.81,11.37a30.14,30.14,0,0,1-1.78,6.67,22.48,22.48,0,0,1-3.47,5.8A35.07,35.07,0,0,1,582.74,97Z" fill="#1c2126"/><path d="M593.79,123.11l4.58-28.82q.39-2.83.71-5.72t.47-5.72h15.79L615,96h-2.77a29.74,29.74,0,0,1,3.79-7.93,14.83,14.83,0,0,1,5.13-4.66,14,14,0,0,1,6.64-1.54,15.19,15.19,0,0,1,2.32.16c.71.1,1.36.21,1.94.31l-2.29,14.37a14.5,14.5,0,0,0-3.12-1,19.14,19.14,0,0,0-3.35-.24,10.44,10.44,0,0,0-4.54,1,8.79,8.79,0,0,0-3.6,3.27,16,16,0,0,0-2.13,6.24l-2.68,17.13Z" fill="#1c2126"/><path d="M652.05,124.06q-8,0-13.18-3a16.82,16.82,0,0,1-7.42-8.13,21.28,21.28,0,0,1-1.19-11.81,24.26,24.26,0,0,1,4-10.14,20.7,20.7,0,0,1,7.7-6.71,23.21,23.21,0,0,1,10.77-2.41,18.28,18.28,0,0,1,10.42,2.76,15.08,15.08,0,0,1,5.85,7.5,21.1,21.1,0,0,1,.71,10.82l-.48,2.92H643.45l1.1-7.42h13.5l-1.58,1.5q.63-3.87-.55-5.65a4.07,4.07,0,0,0-3.63-1.77,5.1,5.1,0,0,0-3.08.91,6.66,6.66,0,0,0-2.05,2.44,11.58,11.58,0,0,0-1.11,3.44l-.63,4q-.55,4.11,1.46,6.36T654.5,112a18.62,18.62,0,0,0,4.7-.59,26,26,0,0,0,4.93-1.94L668,120.11a25.47,25.47,0,0,1-7.42,3A37.29,37.29,0,0,1,652.05,124.06Z" fill="#1c2126"/><path d="M76.22,225l7.26-45.86q.48-2.85.75-5.73c.19-1.92.33-3.83.44-5.72h15.79l-.08,6.47H99.19a13.08,13.08,0,0,1,5-5.37,16.56,16.56,0,0,1,17.37.87,16.13,16.13,0,0,1,5.57,8,24.24,24.24,0,0,1,.59,11.73,26.15,26.15,0,0,1-4,10.89,19,19,0,0,1-7.22,6.48,20.89,20.89,0,0,1-9.47,2.13A15.3,15.3,0,0,1,99.31,207a7.54,7.54,0,0,1-4-5h1l-3.63,23Zm27.63-28.18a6.6,6.6,0,0,0,4.86-1.93c1.28-1.29,2.17-3.39,2.64-6.28.58-3.68.34-6.24-.71-7.66a5.35,5.35,0,0,0-4.58-2.13,6.73,6.73,0,0,0-4.82,1.89C99.93,182,99,184.09,98.56,187c-.58,3.68-.33,6.24.75,7.66A5.37,5.37,0,0,0,103.85,196.83Z" fill="#1c2126"/><path d="M148.14,208.91a15.19,15.19,0,0,1-9.4-2.92,15.9,15.9,0,0,1-5.52-8.06,25,25,0,0,1-.63-11.68,27.47,27.47,0,0,1,4-10.89,18.62,18.62,0,0,1,7.23-6.48,20.93,20.93,0,0,1,9.43-2.13,15.4,15.4,0,0,1,7.78,1.93,7.57,7.57,0,0,1,4,5l-.71.47,2-6.47h15.79q-.79,2.84-1.39,5.72c-.39,1.92-.75,3.83-1.06,5.73L175.06,208H158.8l1-6.47h1.35a13.13,13.13,0,0,1-5,5.37A15.14,15.14,0,0,1,148.14,208.91Zm6.16-12.08a6.6,6.6,0,0,0,4.81-1.93c1.32-1.29,2.21-3.39,2.69-6.28.58-3.68.34-6.24-.71-7.66a5.36,5.36,0,0,0-4.58-2.13,6.67,6.67,0,0,0-4.86,1.89c-1.29,1.27-2.17,3.37-2.64,6.32-.58,3.68-.35,6.24.71,7.66A5.35,5.35,0,0,0,154.3,196.83Z" fill="#1c2126"/><path d="M182.64,208l4.58-28.81q.39-2.85.71-5.73t.47-5.72h15.79l-.31,13.18h-2.77A29.74,29.74,0,0,1,204.9,173a14.74,14.74,0,0,1,5.13-4.66,14,14,0,0,1,6.64-1.54,15.19,15.19,0,0,1,2.32.16c.71.1,1.36.21,1.94.31l-2.29,14.37a14.5,14.5,0,0,0-3.12-1,19.14,19.14,0,0,0-3.35-.24,10.51,10.51,0,0,0-4.55,1,8.83,8.83,0,0,0-3.59,3.27,16,16,0,0,0-2.13,6.24L199.22,208Z" fill="#1c2126"/><path d="M242.8,208.91q-9.41,0-13.31-4.62t-2.64-12.75l1.89-11.84h-7.42l1.9-12h7.42l1.42-9.08,17.05-3.79-2.05,12.87h9.32l-1.9,12h-9.32l-1.81,11.37c-.32,1.94,0,3.23,1,3.86a6.25,6.25,0,0,0,3.47.95,11,11,0,0,0,2.09-.16,17,17,0,0,0,2.09-.55l-2,12.48a16,16,0,0,1-3.83,1A26.9,26.9,0,0,1,242.8,208.91Z" fill="#1c2126"/><path d="M300.58,208.91a25.2,25.2,0,0,1-12.47-2.8,15.74,15.74,0,0,1-7.07-7.9,22,22,0,0,1-1-12,23,23,0,0,1,4.42-10.82,21,21,0,0,1,8.6-6.51,29.68,29.68,0,0,1,11.53-2.17q7.58,0,12.47,2.8a15.63,15.63,0,0,1,6.95,7.86,22.34,22.34,0,0,1,1,12,23.45,23.45,0,0,1-4.38,10.81,20.79,20.79,0,0,1-8.49,6.52A29.44,29.44,0,0,1,300.58,208.91Zm.87-12.08a6.14,6.14,0,0,0,4.62-1.93c1.24-1.29,2.09-3.39,2.57-6.28.57-3.68.36-6.24-.64-7.66a5,5,0,0,0-4.34-2.13,6.22,6.22,0,0,0-4.62,1.89c-1.23,1.27-2.09,3.37-2.56,6.32-.58,3.68-.38,6.24.59,7.66A5,5,0,0,0,301.45,196.83Z" fill="#1c2126"/><path d="M331.45,208,336,179.7h-7.42l1.9-12H342.5L337.14,172l.86-5.13q1.35-8.69,6.75-13t15.44-4.3a26.7,26.7,0,0,1,4.14.32,19.78,19.78,0,0,1,3.75.94l-2,12.4a10.8,10.8,0,0,0-2.13-.55,15.23,15.23,0,0,0-2.37-.16,14,14,0,0,0-2.88.35,7.22,7.22,0,0,0-2.92,1.38,4.58,4.58,0,0,0-1.62,3l-.47,2.85-1.82-2.37h11.53l-1.9,12h-9.16L347.87,208Z" fill="#1c2126"/><path d="M384.66,208l4.58-28.81q.39-2.85.71-5.73t.47-5.72h15.79l-.15,6.39h-.87a15.37,15.37,0,0,1,5.84-5.52,17,17,0,0,1,8-1.82,12.75,12.75,0,0,1,7.27,2,9.24,9.24,0,0,1,3.79,6.36h-1.82A18.31,18.31,0,0,1,435,169a17.58,17.58,0,0,1,8.33-2.21q7.33,0,10.26,4.46T455,185.15L451.37,208h-16.5l3.63-23.13a7.11,7.11,0,0,0-.23-4.26,2.69,2.69,0,0,0-2.61-1.35,4.87,4.87,0,0,0-4,1.82,11,11,0,0,0-2,5.13L426.19,208H409.77l3.63-23.13a7.1,7.1,0,0,0-.24-4.26,2.67,2.67,0,0,0-2.6-1.35,4.83,4.83,0,0,0-4,1.82,11.14,11.14,0,0,0-2,5.13L401.08,208Z" fill="#1c2126"/><path d="M456.11,225.88l-2.45-12.63q3.94-.63,6.63-1.34a14.48,14.48,0,0,0,4.54-2,10.92,10.92,0,0,0,3.12-3.44l2.68-4.5-.78,6L458.71,167.7h16.66l5.21,24.08h-2.84l13.42-24.08h16.66L483.5,208.12a47.1,47.1,0,0,1-6.19,8.37,28.87,28.87,0,0,1-6.4,5.09,27.13,27.13,0,0,1-6.91,2.76Q460.37,225.26,456.11,225.88Z" fill="#1c2126"/><path d="M543.58,208.91a45.58,45.58,0,0,1-10.18-1,26.76,26.76,0,0,1-7.5-2.76l4.1-10.58a34.79,34.79,0,0,0,6.79,2.49,29.29,29.29,0,0,0,7.42,1,8,8,0,0,0,3.67-.63,2.29,2.29,0,0,0,1.31-1.66,1.57,1.57,0,0,0-.44-1.5,3.25,3.25,0,0,0-1.77-.71l-7.82-1.18q-5.61-.87-8-4.11c-1.61-2.15-2.15-4.92-1.62-8.29a13.74,13.74,0,0,1,3.43-7.22,17,17,0,0,1,7-4.46,28.74,28.74,0,0,1,9.51-1.5,41.48,41.48,0,0,1,8.61.87,18.82,18.82,0,0,1,7,2.92l-4.42,10.26a22.19,22.19,0,0,0-5.41-2.25,21.56,21.56,0,0,0-5.8-.9,9.44,9.44,0,0,0-4.18.67A2.35,2.35,0,0,0,543.9,180a1.85,1.85,0,0,0,.39,1.35,2.5,2.5,0,0,0,1.74.79l7.81,1.18q5.68.79,8.14,3.91t1.57,8.41a13.64,13.64,0,0,1-3.51,7.53,16.5,16.5,0,0,1-7.06,4.35A30.45,30.45,0,0,1,543.58,208.91Z" fill="#1c2126"/><path d="M588.66,208.91q-9.39,0-13.3-4.62t-2.65-12.75l1.9-11.84h-7.42l1.89-12h7.42l1.42-9.08L595,154.83l-2.06,12.87h9.32l-1.9,12H591l-1.82,11.37c-.31,1.94,0,3.23,1,3.86a6.3,6.3,0,0,0,3.47.95,11,11,0,0,0,2.09-.16,17.07,17.07,0,0,0,2.1-.55l-2,12.48a15.92,15.92,0,0,1-3.83,1A26.78,26.78,0,0,1,588.66,208.91Z" fill="#1c2126"/><path d="M618,208.91a15.19,15.19,0,0,1-9.4-2.92,15.84,15.84,0,0,1-5.52-8.06,25,25,0,0,1-.63-11.68,27.31,27.31,0,0,1,4-10.89,18.62,18.62,0,0,1,7.23-6.48,20.93,20.93,0,0,1,9.43-2.13,15.4,15.4,0,0,1,7.78,1.93,7.57,7.57,0,0,1,4,5l-.71.47,2-6.47H651.9q-.79,2.84-1.39,5.72c-.39,1.92-.75,3.83-1.06,5.73L644.87,208H628.61l1-6.47H631a13,13,0,0,1-5,5.37A15.14,15.14,0,0,1,618,208.91Zm6.16-12.08a6.6,6.6,0,0,0,4.81-1.93c1.32-1.29,2.21-3.39,2.69-6.28.57-3.68.34-6.24-.71-7.66a5.36,5.36,0,0,0-4.58-2.13,6.67,6.67,0,0,0-4.86,1.89c-1.29,1.27-2.17,3.37-2.64,6.32-.58,3.68-.35,6.24.71,7.66A5.35,5.35,0,0,0,624.11,196.83Z" fill="#1c2126"/><path d="M675.34,208.91q-7.65,0-12.71-3a16.83,16.83,0,0,1-7.22-8.09,20.93,20.93,0,0,1-1.15-11.61,23,23,0,0,1,4.46-10.82,21.14,21.14,0,0,1,8.81-6.51,31.91,31.91,0,0,1,12.08-2.17,30.38,30.38,0,0,1,7.34.95,15.91,15.91,0,0,1,6,2.68l-4.66,11.05a11.61,11.61,0,0,0-3.83-1.73,17.06,17.06,0,0,0-4.46-.63,9.57,9.57,0,0,0-5.8,1.81c-1.66,1.21-2.73,3.27-3.2,6.16a9.28,9.28,0,0,0,1.18,6.71c1.21,1.9,3.27,2.84,6.16,2.84a12.87,12.87,0,0,0,3.95-.71,19.69,19.69,0,0,0,4.18-1.89l3.95,10.89a18,18,0,0,1-6.31,2.88A32.27,32.27,0,0,1,675.34,208.91Z" fill="#1c2126"/><path d="M693.5,208l9.24-58.1h16.42l-5.37,33.63H714l13.89-15.79h19.74l-20.13,21.71-.08-5.29,14,23.84H722.24l-9.56-16.26h-.15L709.92,208Z" fill="#1c2126"/><rect y="595" width="1200" height="35" fill="#fff"/><rect y="499.19" width="1200" height="95.81" fill="#fff"/><line y1="499.19" x2="1200" y2="499.19" fill="none" stroke="#1c2126" stroke-miterlimit="10"/><line y1="595" x2="1200" y2="595" fill="none" stroke="#1c2126" stroke-miterlimit="10"/><path d="M24.24,559.45V540.69H17.85v-2.37H33.21v2.37H26.82v18.76Z" fill="#1c2126"/><path d="M44.08,559.89c-4.81,0-7.75-3.45-7.75-9.3v-3.41c0-5.85,2.94-9.3,7.75-9.3s7.74,3.45,7.74,9.3v3.41C51.82,556.44,48.88,559.89,44.08,559.89Zm5.14-9.31v-3.39c0-4.41-1.94-6.87-5.14-6.87s-5.15,2.46-5.15,6.87v3.39c0,4.41,1.94,6.87,5.15,6.87S49.22,555,49.22,550.58Z" fill="#1c2126"/><path d="M60,545.58a2.65,2.65,0,1,1,2.65,2.71A2.7,2.7,0,0,1,60,545.58Zm0,11.25a2.65,2.65,0,1,1,2.65,2.71A2.68,2.68,0,0,1,60,556.83Z" fill="#1c2126"/><circle cx="107.91" cy="548.15" r="31.98" fill="#1c2126"/><line x1="582.03" y1="498.72" x2="582.03" y2="595" fill="none" stroke="#1c2126" stroke-miterlimit="10"/><path d="M1129.73,614.6a4.72,4.72,0,1,1-4.71-4.69A4.43,4.43,0,0,1,1129.73,614.6Zm-6.82,0A2.12,2.12,0,0,0,1125,617c1.3,0,2.1-.94,2.1-2.41s-.8-2.42-2.1-2.42S1122.91,613.12,1122.91,614.6Z" fill="#1c2126"/><path d="M1138.54,612.93H1136c0-.57-.52-1-1.37-1s-1.25.3-1.25.72.19.62,1.2.8l1.2.19c2.3.39,2.91,1.43,2.91,2.79,0,1.74-1.39,2.85-3.92,2.85-2.72,0-4.08-1.3-4.08-3.09h2.48c0,.65.53,1.1,1.7,1.1.88,0,1.33-.3,1.33-.75s-.26-.72-1.3-.9l-1.25-.21c-2.11-.33-2.77-1.39-2.77-2.67,0-1.58,1.3-2.8,3.78-2.8S1138.54,611.24,1138.54,612.93Z" fill="#1c2126"/><path d="M1147.49,612.93H1145c0-.57-.53-1-1.38-1s-1.25.3-1.25.72.2.62,1.2.8l1.21.19c2.3.39,2.91,1.43,2.91,2.79,0,1.74-1.39,2.85-3.92,2.85-2.72,0-4.09-1.3-4.09-3.09h2.49c0,.65.52,1.1,1.69,1.1.88,0,1.33-.3,1.33-.75s-.25-.72-1.3-.9l-1.24-.21c-2.12-.33-2.77-1.39-2.77-2.67,0-1.58,1.29-2.8,3.77-2.8S1147.49,611.24,1147.49,612.93Z" fill="#1c2126"/><path d="M1152,617.64a1.6,1.6,0,1,1-1.6-1.62A1.55,1.55,0,0,1,1152,617.64Z" fill="#1c2126"/><path d="M1156.27,606.34v12.72h-2.5V606.34Z" fill="#1c2126"/><path d="M1167,614.6a4.71,4.71,0,1,1-4.7-4.69A4.42,4.42,0,0,1,1167,614.6Zm-6.81,0a2.12,2.12,0,0,0,2.11,2.41c1.29,0,2.1-.94,2.1-2.41s-.81-2.42-2.1-2.42S1160.16,613.12,1160.16,614.6Z" fill="#1c2126"/><path d="M1176.59,610.12l-3.26,8.94h-3l-3.28-8.94h2.64l2.16,6.32,2.16-6.32Z" fill="#1c2126"/><path d="M1186.06,615.33h-6.61a1.92,1.92,0,0,0,2,1.81,1.82,1.82,0,0,0,1.75-.8h2.66a5,5,0,1,1,.17-1.77Zm-6.58-1.71h3.94a1.87,1.87,0,0,0-2-1.58A2,2,0,0,0,1179.48,613.62Z" fill="#1c2126"/><path d="M605.51,559.45V538.32H618v2.37H608.1v7.25h9v2.3h-9v9.21Z" fill="#1c2126"/><path d="M625.54,551v8.42H623V538.32h7.09c4.19,0,6.81,2.43,6.81,6.35A5.91,5.91,0,0,1,633,550.5l4.3,9h-2.91L630.41,551Zm0-2.18h4.19c2.92,0,4.56-1.48,4.56-4.12s-1.61-4.11-4.44-4.11h-4.31Z" fill="#1c2126"/><path d="M648.15,559.89c-4.81,0-7.75-3.45-7.75-9.3v-3.41c0-5.85,2.94-9.3,7.75-9.3s7.75,3.45,7.75,9.3v3.41C655.9,556.44,653,559.89,648.15,559.89Zm5.14-9.31v-3.39c0-4.41-1.93-6.87-5.14-6.87s-5.14,2.46-5.14,6.87v3.39c0,4.41,1.93,6.87,5.14,6.87S653.29,555,653.29,550.58Z" fill="#1c2126"/><path d="M661.38,559.45h-2.3V538.32H662l4.64,13.12h.19l4.62-13.12h2.9v21.13H672v-8.11l.13-8.56H672l-4.25,11.71h-2l-4.25-11.71h-.19l.14,8.56Z" fill="#1c2126"/><path d="M682.59,545.58a2.65,2.65,0,1,1,2.65,2.71A2.7,2.7,0,0,1,682.59,545.58Zm0,11.25a2.65,2.65,0,1,1,2.65,2.71A2.68,2.68,0,0,1,682.59,556.83Z" fill="#1c2126"/><circle cx="733.24" cy="548.15" r="31.98" fill="#1c2126"/><path d="M791.37,562a13.93,13.93,0,0,1-5-.86,10.66,10.66,0,0,1-6.3-6.3,13.81,13.81,0,0,1-.87-5,13.54,13.54,0,0,1,.9-5,11.12,11.12,0,0,1,2.58-3.91,11.78,11.78,0,0,1,4-2.53,13.78,13.78,0,0,1,5.07-.9,13.44,13.44,0,0,1,4.55.74,10.32,10.32,0,0,1,3.54,2.12,9.19,9.19,0,0,1,2.28,3.27,10.78,10.78,0,0,1,.8,4.26,11.44,11.44,0,0,1-.7,4.2,6.47,6.47,0,0,1-1.93,2.77,4.55,4.55,0,0,1-2.91,1,3.24,3.24,0,0,1-2.55-1,3.31,3.31,0,0,1-.73-2.61l.51.14a5.85,5.85,0,0,1-2,2.56,4.88,4.88,0,0,1-2.79.88,4.34,4.34,0,0,1-3.43-1.36,5.39,5.39,0,0,1-1.22-3.73,8.24,8.24,0,0,1,.8-3.69,6.21,6.21,0,0,1,2.2-2.52,5.75,5.75,0,0,1,3.19-.91,4.13,4.13,0,0,1,2.59.76,3.51,3.51,0,0,1,1.3,2.13h-.33l.47-2.64h1.85l-1.29,7.26c0,.24-.07.47-.1.7s0,.43,0,.61a2,2,0,0,0,.44,1.4,1.65,1.65,0,0,0,1.3.48,2.75,2.75,0,0,0,2-.81,5.38,5.38,0,0,0,1.31-2.26,10.66,10.66,0,0,0,.48-3.37,9.37,9.37,0,0,0-.67-3.64,7.65,7.65,0,0,0-1.93-2.77,8.69,8.69,0,0,0-3-1.77,11.75,11.75,0,0,0-3.91-.61,11.94,11.94,0,0,0-4.41.77,9.42,9.42,0,0,0-5.56,5.58,12.48,12.48,0,0,0-.75,4.43,12,12,0,0,0,1.26,5.68,8.6,8.6,0,0,0,3.59,3.65,11.36,11.36,0,0,0,5.51,1.28,12.05,12.05,0,0,0,4.22-.71,8.25,8.25,0,0,0,3.14-2l.92,1.37a8.76,8.76,0,0,1-3.54,2.18A14.41,14.41,0,0,1,791.37,562ZM790,554.18a3.81,3.81,0,0,0,2.3-.74,5,5,0,0,0,1.58-2.06,7.5,7.5,0,0,0,.57-3,3.47,3.47,0,0,0-.7-2.38,2.81,2.81,0,0,0-2.21-.78,4,4,0,0,0-2.31.7,4.73,4.73,0,0,0-1.61,1.93,6.58,6.58,0,0,0-.59,2.86,3.85,3.85,0,0,0,.77,2.57A2.75,2.75,0,0,0,790,554.18Z" fill="#1c2126"/><path d="M806.82,557.45V536.84h2.27v20.61Z" fill="#1c2126"/><path d="M812.93,563.81l-.54-1.88a11.39,11.39,0,0,0,2.2-.71,4.26,4.26,0,0,0,1.47-1.08,6.19,6.19,0,0,0,1-1.68l.73-1.65-.06,1-6.13-14.36h2.46l5.07,12.35h-.73l5-12.35h2.38l-6.5,15.23a10.23,10.23,0,0,1-1.23,2.25,7.32,7.32,0,0,1-1.44,1.49,6.94,6.94,0,0,1-1.7.91A12.53,12.53,0,0,1,812.93,563.81Z" fill="#1c2126"/><path d="M828.35,557.45v-10.8c0-.53,0-1.06-.07-1.61s-.1-1.1-.15-1.64h2.18l.28,3.08h-.33a4.86,4.86,0,0,1,2-2.48,5.81,5.81,0,0,1,3.15-.85,5,5,0,0,1,3.77,1.33,5.86,5.86,0,0,1,1.27,4.18v8.79h-2.27V548.8a4.31,4.31,0,0,0-.8-2.9,3.13,3.13,0,0,0-2.47-.91,4.06,4.06,0,0,0-3.11,1.21,4.44,4.44,0,0,0-1.15,3.22v8Z" fill="#1c2126"/><path d="M844.76,557.45v-10.8c0-.53,0-1.06-.07-1.61s-.1-1.1-.15-1.64h2.18l.28,3.08h-.33a4.81,4.81,0,0,1,2-2.48,5.76,5.76,0,0,1,3.15-.85,4.94,4.94,0,0,1,3.76,1.33,5.86,5.86,0,0,1,1.28,4.18v8.79h-2.27V548.8a4.37,4.37,0,0,0-.8-2.9,3.13,3.13,0,0,0-2.47-.91,4.06,4.06,0,0,0-3.11,1.21,4.44,4.44,0,0,0-1.15,3.22v8Z" fill="#1c2126"/><path d="M866.52,557.71a6,6,0,0,1-3.28-.89,5.78,5.78,0,0,1-2.17-2.5,10.31,10.31,0,0,1,0-7.82,5.75,5.75,0,0,1,2.17-2.49,6.08,6.08,0,0,1,3.28-.86,5.64,5.64,0,0,1,3.29,1,4.56,4.56,0,0,1,1.83,2.62h-.34l.31-3.33h2.19c-.06.54-.11,1.08-.16,1.64s-.07,1.08-.07,1.61v10.8H871.3v-3.3h.31a4.42,4.42,0,0,1-1.85,2.6A5.57,5.57,0,0,1,866.52,557.71Zm.44-1.85a4,4,0,0,0,3.2-1.39,7.63,7.63,0,0,0,0-8.12,4.34,4.34,0,0,0-6.37,0,7.52,7.52,0,0,0,0,8.12A4,4,0,0,0,867,555.86Z" fill="#1c2126"/><path d="M878,557.45v-10.8c0-.53,0-1.06-.07-1.61s-.1-1.1-.15-1.64h2.18l.28,3.08h-.34a4.83,4.83,0,0,1,2-2.48,5.76,5.76,0,0,1,3.15-.85,5,5,0,0,1,3.76,1.33,5.86,5.86,0,0,1,1.28,4.18v8.79h-2.27V548.8a4.37,4.37,0,0,0-.8-2.9,3.15,3.15,0,0,0-2.48-.91,4.09,4.09,0,0,0-3.11,1.21,4.48,4.48,0,0,0-1.14,3.22v8Z" fill="#1c2126"/><path d="M899.7,557.71a5.93,5.93,0,0,1-3.25-.89,5.72,5.72,0,0,1-2.17-2.5,10.31,10.31,0,0,1,0-7.82,5.69,5.69,0,0,1,2.17-2.49,6,6,0,0,1,3.25-.86,5.66,5.66,0,0,1,3.29,1,4.61,4.61,0,0,1,1.86,2.57h-.34v-9.83h2.27v20.61h-2.24v-3.36h.31a4.58,4.58,0,0,1-1.85,2.65A5.71,5.71,0,0,1,899.7,557.71Zm.47-1.85a4,4,0,0,0,3.19-1.39,7.42,7.42,0,0,0,0-8.12,4.34,4.34,0,0,0-6.37,0,7.52,7.52,0,0,0,0,8.12A4,4,0,0,0,900.17,555.86Z" fill="#1c2126"/><path d="M916.16,557.71a4,4,0,0,1-3.16-1.2,5.14,5.14,0,0,1-1.1-3.59v-7.76h-2.74V543.4h2.74v-3.84l2.27-.64v4.48h4v1.76h-4v7.51a3.81,3.81,0,0,0,.58,2.39,2.05,2.05,0,0,0,1.72.71,4,4,0,0,0,.95-.1,4.87,4.87,0,0,0,.76-.23v1.9a5,5,0,0,1-.94.27A6.78,6.78,0,0,1,916.16,557.71Z" fill="#1c2126"/><path d="M926.6,557.71a6.78,6.78,0,0,1-3.51-.89,5.77,5.77,0,0,1-2.31-2.52,9.72,9.72,0,0,1,0-7.77,5.89,5.89,0,0,1,2.31-2.5,6.78,6.78,0,0,1,3.51-.88,6.85,6.85,0,0,1,3.55.88,6,6,0,0,1,2.32,2.5,9.51,9.51,0,0,1,0,7.77,5.91,5.91,0,0,1-2.32,2.52A6.85,6.85,0,0,1,926.6,557.71Zm0-1.85a4,4,0,0,0,3.2-1.39,7.63,7.63,0,0,0,0-8.12,4,4,0,0,0-3.2-1.39,4,4,0,0,0-3.16,1.39,7.57,7.57,0,0,0,0,8.12A3.92,3.92,0,0,0,926.6,555.86Z" fill="#1c2126"/><path d="M936.82,557.45v-10.8c0-.53,0-1.06-.07-1.61s-.09-1.1-.15-1.64h2.18l.28,3.08h-.33a4.86,4.86,0,0,1,2-2.48,5.81,5.81,0,0,1,3.15-.85,5,5,0,0,1,3.77,1.33,5.86,5.86,0,0,1,1.27,4.18v8.79h-2.27V548.8a4.37,4.37,0,0,0-.79-2.9,3.17,3.17,0,0,0-2.48-.91,4.08,4.08,0,0,0-3.11,1.21,4.44,4.44,0,0,0-1.15,3.22v8Z" fill="#1c2126"/><path d="M953,540.21v-2.55h2.8v2.55Zm.28,17.24V543.4h2.27v14.05Z" fill="#1c2126"/><path d="M965.8,557.71a6.91,6.91,0,0,1-3.59-.9,6,6,0,0,1-2.36-2.55,8.68,8.68,0,0,1-.82-3.92,8.32,8.32,0,0,1,.84-3.9,5.7,5.7,0,0,1,2.36-2.45,7.19,7.19,0,0,1,3.57-.84,7.35,7.35,0,0,1,2.62.47,5.79,5.79,0,0,1,2.12,1.34l-.82,1.63a5.77,5.77,0,0,0-1.83-1.21,5.29,5.29,0,0,0-1.95-.39,4.24,4.24,0,0,0-3.38,1.38,5.85,5.85,0,0,0-1.21,4,6,6,0,0,0,1.21,4,4.18,4.18,0,0,0,3.38,1.43,5.4,5.4,0,0,0,1.92-.37,5.28,5.28,0,0,0,1.86-1.2l.82,1.6a5.71,5.71,0,0,1-2.16,1.37A7.35,7.35,0,0,1,965.8,557.71Z" fill="#1c2126"/><path d="M167.16,562a13.84,13.84,0,0,1-5-.86,10.71,10.71,0,0,1-3.84-2.45,10.88,10.88,0,0,1-2.46-3.85,13.81,13.81,0,0,1-.87-5,13.54,13.54,0,0,1,.9-5,11,11,0,0,1,2.57-3.91,11.82,11.82,0,0,1,4-2.53,13.78,13.78,0,0,1,5.07-.9,13.49,13.49,0,0,1,4.55.74,10.32,10.32,0,0,1,3.54,2.12,9.19,9.19,0,0,1,2.28,3.27,11,11,0,0,1,.8,4.26,11.66,11.66,0,0,1-.7,4.2,6.47,6.47,0,0,1-1.93,2.77,4.58,4.58,0,0,1-2.92,1,3.2,3.2,0,0,1-2.54-1,3.31,3.31,0,0,1-.73-2.61l.5.14a5.71,5.71,0,0,1-2,2.56,4.85,4.85,0,0,1-2.78.88,4.34,4.34,0,0,1-3.43-1.36,5.34,5.34,0,0,1-1.22-3.73,8.11,8.11,0,0,1,.8-3.69,6.27,6.27,0,0,1,2.19-2.52,5.81,5.81,0,0,1,3.2-.91,4.15,4.15,0,0,1,2.59.76,3.55,3.55,0,0,1,1.3,2.13h-.34l.48-2.64H173l-1.29,7.26c0,.24-.07.47-.1.7a4.55,4.55,0,0,0,0,.61,2,2,0,0,0,.43,1.4,1.68,1.68,0,0,0,1.3.48,2.73,2.73,0,0,0,2-.81,5.5,5.5,0,0,0,1.32-2.26,10.66,10.66,0,0,0,.48-3.37,9.37,9.37,0,0,0-.68-3.64,7.53,7.53,0,0,0-1.93-2.77,8.6,8.6,0,0,0-3-1.77,11.69,11.69,0,0,0-3.9-.61,11.87,11.87,0,0,0-4.41.77,9.65,9.65,0,0,0-3.39,2.18,9.53,9.53,0,0,0-2.17,3.4,12.26,12.26,0,0,0-.76,4.43,12,12,0,0,0,1.26,5.68,8.62,8.62,0,0,0,3.6,3.65,11.32,11.32,0,0,0,5.5,1.28,12.11,12.11,0,0,0,4.23-.71,8.25,8.25,0,0,0,3.14-2l.92,1.37a8.83,8.83,0,0,1-3.54,2.18A14.47,14.47,0,0,1,167.16,562Zm-1.34-7.84a3.78,3.78,0,0,0,2.29-.74,5,5,0,0,0,1.59-2.06,7.5,7.5,0,0,0,.57-3,3.47,3.47,0,0,0-.7-2.38,2.83,2.83,0,0,0-2.21-.78,4,4,0,0,0-2.31.7,4.73,4.73,0,0,0-1.61,1.93,6.58,6.58,0,0,0-.59,2.86,3.85,3.85,0,0,0,.77,2.57A2.74,2.74,0,0,0,165.82,554.18Z" fill="#1c2126"/><path d="M184,557.45v-2h4.65V539.7h1.23l-5.43,3.39v-2.33l4.84-3h1.68v17.75h4.37v2Z" fill="#1c2126"/><path d="M200.76,557.45v-2h4.65V539.7h1.23l-5.43,3.39v-2.33l4.84-3h1.68v17.75h4.37v2Z" fill="#1c2126"/><path d="M221.2,557.71a4.06,4.06,0,0,1-3.16-1.2,5.14,5.14,0,0,1-1.09-3.59v-7.76H214.2V543.4H217v-3.84l2.26-.64v4.48h4v1.76h-4v7.51a3.88,3.88,0,0,0,.58,2.39,2.05,2.05,0,0,0,1.72.71,4,4,0,0,0,1-.1,4.87,4.87,0,0,0,.76-.23v1.9a4.82,4.82,0,0,1-.94.27A6.57,6.57,0,0,1,221.2,557.71Z" fill="#1c2126"/><path d="M225.63,563.81l-.54-1.88a11.39,11.39,0,0,0,2.2-.71,4.26,4.26,0,0,0,1.47-1.08,6.19,6.19,0,0,0,1-1.68l.73-1.65-.06,1-6.13-14.36h2.46l5.07,12.35h-.73l5-12.35h2.38L232,558.63a10.23,10.23,0,0,1-1.23,2.25,7.32,7.32,0,0,1-1.44,1.49,6.94,6.94,0,0,1-1.7.91A12.53,12.53,0,0,1,225.63,563.81Z" fill="#1c2126"/><path d="M27.75,606.92v12.14H25v-2.13l-4.7-5.41v7.54H17.63V606.92H20L25,612.77v-5.85Z" fill="#1c2126"/><path d="M38.37,615.33H31.76a1.92,1.92,0,0,0,2,1.81,1.81,1.81,0,0,0,1.74-.8H38.2a4.35,4.35,0,0,1-4.44,2.88,4.63,4.63,0,1,1,0-9.26,4.32,4.32,0,0,1,4.62,4.61Zm-6.58-1.71h3.94a1.87,1.87,0,0,0-2-1.58A2,2,0,0,0,31.79,613.62Z" fill="#1c2126"/><path d="M44.93,612.23H43v6.83H40.5v-6.83H38.82v-2.11H40.5V607.3H43v2.82h1.93Z" fill="#1c2126"/><path d="M48.9,606.34v12.72H46.4V606.34Z" fill="#1c2126"/><path d="M53.62,607.59a1.5,1.5,0,1,1-3,0,1.5,1.5,0,1,1,3,0Zm-.24,2.32v9.15h-2.5v-9.15a2.06,2.06,0,0,0,1.25.37A2,2,0,0,0,53.38,609.91Z" fill="#1c2126"/><path d="M58.55,609v1.09h1.87v2.11H58.55v6.83h-2.5v-6.83H54.61v-2.11h1.44V609a2.62,2.62,0,0,1,2.88-2.83h1.75v1.94H59.44A.78.78,0,0,0,58.55,609Z" fill="#1c2126"/><path d="M70.71,610.12l-5,11.89H63.33l1.38-3.28-3.49-8.61h2.51L66,615.69l2.32-5.57Z" fill="#1c2126"/><path d="M109.4,613c0,3.92-2.34,6.22-5.8,6.22s-5.79-2.3-5.79-6.22,2.33-6.25,5.79-6.25S109.4,609.08,109.4,613Zm-8.79,0c0,2.35,1.3,3.66,3,3.66s3-1.31,3-3.66-1.32-3.67-3-3.67S100.61,610.63,100.61,613Z" fill="#1c2126"/><path d="M120.32,610.53h-2.8c0-.89-.67-1.52-1.85-1.52s-1.7.55-1.7,1.23.38,1,1.49,1.3l1.37.32c2.64.59,3.73,1.73,3.73,3.73s-1.6,3.63-4.73,3.63-4.9-1.61-4.9-4h2.8a1.88,1.88,0,0,0,2.11,1.84c1.27,0,1.92-.63,1.92-1.44s-.38-1.09-1.57-1.35l-1.32-.27c-2.77-.56-3.72-1.87-3.72-3.73,0-2.06,1.6-3.54,4.58-3.54S120.32,608.29,120.32,610.53Z" fill="#1c2126"/><path d="M131.38,610.53h-2.8c0-.89-.67-1.52-1.86-1.52-1,0-1.69.55-1.69,1.23s.38,1,1.48,1.3l1.38.32c2.64.59,3.73,1.73,3.73,3.73s-1.6,3.63-4.74,3.63-4.9-1.61-4.9-4h2.81a1.88,1.88,0,0,0,2.11,1.84c1.26,0,1.92-.63,1.92-1.44s-.39-1.09-1.57-1.35l-1.33-.27c-2.77-.56-3.71-1.87-3.71-3.73,0-2.06,1.6-3.54,4.58-3.54S131.38,608.29,131.38,610.53Z" fill="#1c2126"/><path d="M91.16,610.11a3.71,3.71,0,0,0-1-1.22,4,4,0,0,0-2.5-1.14,3.62,3.62,0,0,0-2.51,1.37,8,8,0,0,0-1.41,2.21,6.53,6.53,0,0,0-2.39-2.73,4.07,4.07,0,0,0-3.57-.35,3,3,0,0,0-1.83,3,5.09,5.09,0,0,0,2,2.88q3.32,3,6.72,5.87l5-5.64C90.67,613.14,91.8,611.56,91.16,610.11Z" fill="#ff6b60" stroke="#ff6b60" stroke-linejoin="round"/></svg>