<svg xmlns="http://www.w3.org/2000/svg" width="1200" height="630" viewBox="0 0 1200 630"><rect width="1200" height="498.72" fill="#db4648"/><rect y="595" width="1200" height="35" fill="#fff"/><rect y="499.19" width="1200" height="95.81" fill="#fff"/><line y1="499.19" x2="1200" y2="499.19" fill="none" stroke="#1c2126" stroke-miterlimit="10"/><line y1="595" x2="1200" y2="595" fill="none" stroke="#1c2126" stroke-miterlimit="10"/><path d="M24.24,559.45V540.69H17.85v-2.37H33.21v2.37H26.82v18.76Z" fill="#1c2126"/><path d="M44.08,559.89c-4.81,0-7.75-3.45-7.75-9.3v-3.41c0-5.85,2.94-9.3,7.75-9.3s7.74,3.45,7.74,9.3v3.41C51.82,556.44,48.88,559.89,44.08,559.89Zm5.14-9.31v-3.39c0-4.41-1.94-6.87-5.14-6.87s-5.15,2.46-5.15,6.87v3.39c0,4.41,1.94,6.87,5.15,6.87S49.22,555,49.22,550.58Z" fill="#1c2126"/><path d="M60,545.58a2.65,2.65,0,1,1,2.65,2.71A2.7,2.7,0,0,1,60,545.58Zm0,11.25a2.65,2.65,0,1,1,2.65,2.71A2.68,2.68,0,0,1,60,556.83Z" fill="#1c2126"/><line x1="582.03" y1="498.72" x2="582.03" y2="595" fill="none" stroke="#1c2126" stroke-miterlimit="10"/><path d="M1129.73,614.6a4.72,4.72,0,1,1-4.71-4.69A4.43,4.43,0,0,1,1129.73,614.6Zm-6.82,0A2.12,2.12,0,0,0,1125,617c1.3,0,2.1-.94,2.1-2.41s-.8-2.42-2.1-2.42S1122.91,613.12,1122.91,614.6Z" fill="#1c2126"/><path d="M1138.54,612.93H1136c0-.57-.52-1-1.37-1s-1.25.3-1.25.72.19.62,1.2.8l1.2.19c2.3.39,2.91,1.43,2.91,2.79,0,1.74-1.39,2.85-3.92,2.85-2.72,0-4.08-1.3-4.08-3.09h2.48c0,.65.53,1.1,1.7,1.1.88,0,1.33-.3,1.33-.75s-.26-.72-1.3-.9l-1.25-.21c-2.11-.33-2.77-1.39-2.77-2.67,0-1.58,1.3-2.8,3.78-2.8S1138.54,611.24,1138.54,612.93Z" fill="#1c2126"/><path d="M1147.49,612.93H1145c0-.57-.53-1-1.38-1s-1.25.3-1.25.72.2.62,1.2.8l1.21.19c2.3.39,2.91,1.43,2.91,2.79,0,1.74-1.39,2.85-3.92,2.85-2.72,0-4.09-1.3-4.09-3.09h2.49c0,.65.52,1.1,1.69,1.1.88,0,1.33-.3,1.33-.75s-.25-.72-1.3-.9l-1.24-.21c-2.12-.33-2.77-1.39-2.77-2.67,0-1.58,1.29-2.8,3.77-2.8S1147.49,611.24,1147.49,612.93Z" fill="#1c2126"/><path d="M1152,617.64a1.6,1.6,0,1,1-1.6-1.62A1.55,1.55,0,0,1,1152,617.64Z" fill="#1c2126"/><path d="M1156.27,606.34v12.72h-2.5V606.34Z" fill="#1c2126"/><path d="M1167,614.6a4.71,4.71,0,1,1-4.7-4.69A4.42,4.42,0,0,1,1167,614.6Zm-6.81,0a2.12,2.12,0,0,0,2.11,2.41c1.29,0,2.1-.94,2.1-2.41s-.81-2.42-2.1-2.42S1160.16,613.12,1160.16,614.6Z" fill="#1c2126"/><path d="M1176.59,610.12l-3.26,8.94h-3l-3.28-8.94h2.64l2.16,6.32,2.16-6.32Z" fill="#1c2126"/><path d="M1186.06,615.33h-6.61a1.92,1.92,0,0,0,2,1.81,1.82,1.82,0,0,0,1.75-.8h2.66a5,5,0,1,1,.17-1.77Zm-6.58-1.71h3.94a1.87,1.87,0,0,0-2-1.58A2,2,0,0,0,1179.48,613.62Z" fill="#1c2126"/><path d="M605.51,559.45V538.32H618v2.37H608.1v7.25h9v2.3h-9v9.21Z" fill="#1c2126"/><path d="M625.54,551v8.42H623V538.32h7.09c4.19,0,6.81,2.43,6.81,6.35A5.91,5.91,0,0,1,633,550.5l4.3,9h-2.91L630.41,551Zm0-2.18h4.19c2.92,0,4.56-1.48,4.56-4.12s-1.61-4.11-4.44-4.11h-4.31Z" fill="#1c2126"/><path d="M648.15,559.89c-4.81,0-7.75-3.45-7.75-9.3v-3.41c0-5.85,2.94-9.3,7.75-9.3s7.75,3.45,7.75,9.3v3.41C655.9,556.44,653,559.89,648.15,559.89Zm5.14-9.31v-3.39c0-4.41-1.93-6.87-5.14-6.87s-5.14,2.46-5.14,6.87v3.39c0,4.41,1.93,6.87,5.14,6.87S653.29,555,653.29,550.58Z" fill="#1c2126"/><path d="M661.38,559.45h-2.3V538.32H662l4.64,13.12h.19l4.62-13.12h2.9v21.13H672v-8.11l.13-8.56H672l-4.25,11.71h-2l-4.25-11.71h-.19l.14,8.56Z" fill="#1c2126"/><path d="M682.59,545.58a2.65,2.65,0,1,1,2.65,2.71A2.7,2.7,0,0,1,682.59,545.58Zm0,11.25a2.65,2.65,0,1,1,2.65,2.71A2.68,2.68,0,0,1,682.59,556.83Z" fill="#1c2126"/><path d="M27.75,606.92v12.14H25v-2.13l-4.7-5.41v7.54H17.63V606.92H20L25,612.77v-5.85Z" fill="#1c2126"/><path d="M38.37,615.33H31.76a1.92,1.92,0,0,0,2,1.81,1.81,1.81,0,0,0,1.74-.8H38.2a4.35,4.35,0,0,1-4.44,2.88,4.63,4.63,0,1,1,0-9.26,4.32,4.32,0,0,1,4.62,4.61Zm-6.58-1.71h3.94a1.87,1.87,0,0,0-2-1.58A2,2,0,0,0,31.79,613.62Z" fill="#1c2126"/><path d="M44.93,612.23H43v6.83H40.5v-6.83H38.82v-2.11H40.5V607.3H43v2.82h1.93Z" fill="#1c2126"/><path d="M48.9,606.34v12.72H46.4V606.34Z" fill="#1c2126"/><path d="M53.62,607.59a1.5,1.5,0,1,1-3,0,1.5,1.5,0,1,1,3,0Zm-.24,2.32v9.15h-2.5v-9.15a2.06,2.06,0,0,0,1.25.37A2,2,0,0,0,53.38,609.91Z" fill="#1c2126"/><path d="M58.55,609v1.09h1.87v2.11H58.55v6.83h-2.5v-6.83H54.61v-2.11h1.44V609a2.62,2.62,0,0,1,2.88-2.83h1.75v1.94H59.44A.78.78,0,0,0,58.55,609Z" fill="#1c2126"/><path d="M70.71,610.12l-5,11.89H63.33l1.38-3.28-3.49-8.61h2.51L66,615.69l2.32-5.57Z" fill="#1c2126"/><path d="M109.4,613c0,3.92-2.34,6.22-5.8,6.22s-5.79-2.3-5.79-6.22,2.33-6.25,5.79-6.25S109.4,609.08,109.4,613Zm-8.79,0c0,2.35,1.3,3.66,3,3.66s3-1.31,3-3.66-1.32-3.67-3-3.67S100.61,610.63,100.61,613Z" fill="#1c2126"/><path d="M120.32,610.53h-2.8c0-.89-.67-1.52-1.85-1.52s-1.7.55-1.7,1.23.38,1,1.49,1.3l1.37.32c2.64.59,3.73,1.73,3.73,3.73s-1.6,3.63-4.73,3.63-4.9-1.61-4.9-4h2.8a1.88,1.88,0,0,0,2.11,1.84c1.27,0,1.92-.63,1.92-1.44s-.38-1.09-1.57-1.35l-1.32-.27c-2.77-.56-3.72-1.87-3.72-3.73,0-2.06,1.6-3.54,4.58-3.54S120.32,608.29,120.32,610.53Z" fill="#1c2126"/><path d="M131.38,610.53h-2.8c0-.89-.67-1.52-1.86-1.52-1,0-1.69.55-1.69,1.23s.38,1,1.48,1.3l1.38.32c2.64.59,3.73,1.73,3.73,3.73s-1.6,3.63-4.74,3.63-4.9-1.61-4.9-4h2.81a1.88,1.88,0,0,0,2.11,1.84c1.26,0,1.92-.63,1.92-1.44s-.39-1.09-1.57-1.35l-1.33-.27c-2.77-.56-3.71-1.87-3.71-3.73,0-2.06,1.6-3.54,4.58-3.54S131.38,608.29,131.38,610.53Z" fill="#1c2126"/><path d="M91.16,610.11a3.62,3.62,0,0,0-1-1.22,3.91,3.91,0,0,0-2.49-1.14,3.62,3.62,0,0,0-2.51,1.37,8,8,0,0,0-1.41,2.21,6.53,6.53,0,0,0-2.39-2.73,4.09,4.09,0,0,0-3.58-.35,3,3,0,0,0-1.82,3,5,5,0,0,0,2,2.88q3.32,3,6.72,5.87l5-5.64C90.67,613.14,91.8,611.56,91.16,610.11Z" fill="#ff6b60" stroke="#ff6b60" stroke-linejoin="round"/><path d="M77.64,148.27l10.7-67.35H109l-10.7,67.35Z" fill="#fff"/><path d="M137.83,148.27l10.7-67.35H181.4q12.6,0,18.2,6.45t4,16.95a23.2,23.2,0,0,1-4.11,10.18,22.08,22.08,0,0,1-8.93,7.16,33.41,33.41,0,0,1-14.09,2.63H162.29l-3.82,24Zm26.94-39.65h11.37c2.55,0,4.44-.49,5.69-1.48a6.15,6.15,0,0,0,2.24-4.15,5.55,5.55,0,0,0-1-4.73c-1-1.12-2.82-1.67-5.5-1.67H166.68Z" fill="#fff"/><path d="M204.13,148.27l10.7-67.35h31.24q13.38,0,19.16,5.87t4.06,16.67a23,23,0,0,1-4.59,10.85,24.21,24.21,0,0,1-9.45,7.21,32.79,32.79,0,0,1-13.38,2.58l.19-2.77h5.06a10.69,10.69,0,0,1,7.12,2.44,16.15,16.15,0,0,1,4.54,6.35l7.55,18.15h-21.5l-8.21-21.21a3.69,3.69,0,0,0-2.44-2,11.42,11.42,0,0,0-3.68-.62h-1.91l-3.82,23.88ZM230.88,110h9.27q4.4,0,6.69-1.62a6.83,6.83,0,0,0,2.77-4.78q.57-3.63-1.44-5.3c-1.33-1.12-3.43-1.67-6.3-1.67H233Z" fill="#fff"/><path d="M276.46,112.64a41.55,41.55,0,0,1,6.78-17.77,33.84,33.84,0,0,1,13.14-11.23,40.92,40.92,0,0,1,18.1-3.87q11.85,0,19.35,4.83a25.81,25.81,0,0,1,10.55,13.13,36.35,36.35,0,0,1,1.34,18.73,41.65,41.65,0,0,1-6.78,17.77A34.28,34.28,0,0,1,325.8,145.5a40.78,40.78,0,0,1-18.2,3.92q-11.75,0-19.25-4.87a25.84,25.84,0,0,1-10.51-13.24A37.18,37.18,0,0,1,276.46,112.64Zm21.4,1a26.53,26.53,0,0,0,0,10.22,10.65,10.65,0,0,0,3.92,6.36,13.75,13.75,0,0,0,17.68-2.49,25.35,25.35,0,0,0,4.82-12.18,25.55,25.55,0,0,0-.1-10.17,10.8,10.8,0,0,0-4-6.31,12.51,12.51,0,0,0-7.6-2.15q-6.5,0-10,4.54C300.28,104.44,298.68,108.5,297.86,113.59Z" fill="#fff"/><path d="M350.5,148.27l10.7-67.35h18l13.18,45.76H389.1l27.7-45.76h18l-10.7,67.35H405.43l5.74-36.4h4.58l-22.93,36.4H381.45L370,111.87h4.87l-5.73,36.4Z" fill="#fff"/><path d="M435.43,148.27l10.7-67.35h20.64l-10.7,67.35Z" fill="#fff"/><path d="M494.28,149.42a63.3,63.3,0,0,1-14.47-1.67,39.27,39.27,0,0,1-11.61-4.45l6.21-15.86a53.06,53.06,0,0,0,6.35,2.54,60.8,60.8,0,0,0,7.55,2,41.48,41.48,0,0,0,7.88.76q5.64,0,7.74-1.2a4.26,4.26,0,0,0,2.39-3,3.28,3.28,0,0,0-.72-2.63c-.6-.73-1.86-1.26-3.77-1.58l-11.75-2.1q-8.31-1.53-12.95-6.93t-3.29-13.8a23,23,0,0,1,5.39-11.71,27.31,27.31,0,0,1,11.18-7.4,45.72,45.72,0,0,1,16-2.58,52.34,52.34,0,0,1,12.41,1.48,25.21,25.21,0,0,1,9.65,4.25L522,101a33.94,33.94,0,0,0-7.69-3.2,36.25,36.25,0,0,0-10.08-1.29,19.08,19.08,0,0,0-7.31,1.1,4.39,4.39,0,0,0-2.91,3.29,3.46,3.46,0,0,0,.76,2.58c.64.9,2,1.53,4.11,1.91l11.56,2q8.79,1.53,13.13,6.88t3,13.66a22.36,22.36,0,0,1-5,11.18,26.77,26.77,0,0,1-10.94,7.6A44.44,44.44,0,0,1,494.28,149.42Z" fill="#fff"/><path d="M532.59,148.27l10.7-67.35h50l-2.48,15.67H560.49L559,106.23h28l-2.48,15.67h-28l-1.72,10.7H585l-2.48,15.67Z" fill="#fff"/><path d="M634.24,148.27l8-50.73H622.78l2.67-16.62h59.62L682.4,97.54H662.91l-8,50.73Z" fill="#fff"/><path d="M681.25,112.64A41.55,41.55,0,0,1,688,94.87a33.84,33.84,0,0,1,13.14-11.23,41,41,0,0,1,18.1-3.87q11.85,0,19.35,4.83a25.83,25.83,0,0,1,10.56,13.13,36.47,36.47,0,0,1,1.33,18.73,41.65,41.65,0,0,1-6.78,17.77,34.28,34.28,0,0,1-13.14,11.27,40.75,40.75,0,0,1-18.2,3.92q-11.75,0-19.25-4.87a25.84,25.84,0,0,1-10.51-13.24A37.4,37.4,0,0,1,681.25,112.64Zm21.4,1a26.5,26.5,0,0,0,.05,10.22,10.64,10.64,0,0,0,3.91,6.36,13.75,13.75,0,0,0,17.68-2.49,25.35,25.35,0,0,0,4.82-12.18,25.57,25.57,0,0,0-.09-10.17,10.77,10.77,0,0,0-4-6.31,12.48,12.48,0,0,0-7.59-2.15q-6.5,0-10,4.54T702.65,113.59Z" fill="#fff"/><path d="M68.85,252.43l42.71-67.36h16.72l21.49,67.36h-20l-5.16-18.25,6.88,5.73H92.45l8.5-5.73L90.06,252.43Zm48.35-46.34-13.57,23.6-2-5.35h25.7l-3.44,5.35-6.21-23.6Z" fill="#fff"/><path d="M164.87,252.43,151.3,185.07h20.54l7.07,45h-4.68l23.41-45h14.62l7.26,45H215l22.83-45H258.4l-35.06,67.36H207l-7.54-39.36h2.19L181.3,252.43Z" fill="#fff"/><path d="M238.53,252.43l42.71-67.36H298l21.49,67.36h-20l-5.15-18.25,6.87,5.73H262.13l8.5-5.73-10.89,18.25Zm48.34-46.34-13.56,23.6-2-5.35H297l-3.44,5.35-6.21-23.6Z" fill="#fff"/><path d="M321.74,252.43l10.7-67.36h20.64l-10.7,67.36Z" fill="#fff"/><path d="M368.56,252.43l8-50.73H357.09l2.68-16.63h59.61l-2.67,16.63H397.22l-8,50.73Z" fill="#fff"/><path d="M443.84,252.43l10.7-67.36h48.92L501,200.74H472.69L471,211.25h26l-2.48,15.67h-26l-4,25.51Z" fill="#fff"/><path d="M503.74,216.79A41.79,41.79,0,0,1,510.53,199a33.87,33.87,0,0,1,13.13-11.22,41,41,0,0,1,18.11-3.87q11.84,0,19.34,4.82a25.89,25.89,0,0,1,10.56,13.14A36.35,36.35,0,0,1,573,220.62a41.78,41.78,0,0,1-6.78,17.77,34.28,34.28,0,0,1-13.14,11.27,40.81,40.81,0,0,1-18.2,3.92q-11.76,0-19.25-4.88a25.73,25.73,0,0,1-10.51-13.23A37.32,37.32,0,0,1,503.74,216.79Zm21.4,1a26.7,26.7,0,0,0,.05,10.22,10.65,10.65,0,0,0,3.92,6.36,13.73,13.73,0,0,0,17.67-2.49,25.45,25.45,0,0,0,4.83-12.18,25.74,25.74,0,0,0-.1-10.17,10.77,10.77,0,0,0-4-6.31A12.53,12.53,0,0,0,540,201q-6.5,0-10,4.54T525.14,217.75Z" fill="#fff"/><path d="M577.5,252.43l10.7-67.36h31.24q13.38,0,19.16,5.88t4.06,16.67a23,23,0,0,1-4.59,10.85,24.17,24.17,0,0,1-9.46,7.21,32.71,32.71,0,0,1-13.37,2.58l.19-2.77h5.06a10.75,10.75,0,0,1,7.12,2.43,16.36,16.36,0,0,1,4.54,6.36l7.55,18.15H618.2L610,231.22a3.65,3.65,0,0,0-2.43-2.05,11.46,11.46,0,0,0-3.68-.62H602l-3.82,23.88Zm26.75-38.31h9.27q4.4,0,6.69-1.63a6.83,6.83,0,0,0,2.77-4.77q.57-3.63-1.44-5.3c-1.33-1.12-3.44-1.68-6.3-1.68h-8.89Z" fill="#fff"/><path d="M691,252.43,696.16,220l2.19,11.08L675,185.07h23l11.56,25h-3.92l19.68-25H749l-38.12,47,5.92-12-5.16,32.39Z" fill="#fff"/><path d="M739.05,216.79A41.66,41.66,0,0,1,745.84,199,33.87,33.87,0,0,1,759,187.8a41,41,0,0,1,18.11-3.87q11.83,0,19.34,4.82A25.89,25.89,0,0,1,807,201.89q3.06,8.31,1.34,18.73a41.91,41.91,0,0,1-6.78,17.77,34.28,34.28,0,0,1-13.14,11.27,40.81,40.81,0,0,1-18.2,3.92q-11.76,0-19.25-4.88a25.73,25.73,0,0,1-10.51-13.23A37.32,37.32,0,0,1,739.05,216.79Zm21.4,1a26.7,26.7,0,0,0,0,10.22,10.6,10.6,0,0,0,3.92,6.36,13.73,13.73,0,0,0,17.67-2.49,25.45,25.45,0,0,0,4.83-12.18,25.74,25.74,0,0,0-.1-10.17,10.77,10.77,0,0,0-4-6.31,12.53,12.53,0,0,0-7.6-2.15q-6.5,0-10,4.54T760.45,217.75Z" fill="#fff"/><path d="M844.72,253.58a37.05,37.05,0,0,1-16.34-3.3,19.76,19.76,0,0,1-9.79-10.22q-3-6.93-1.29-17.72l5.92-37.27h20.64l-6.12,38.7q-.94,6.12,1.1,9.41t8.08,3.3q5.45,0,8.26-3.35t3.77-9.74l6.12-38.32h20.25l-6.21,39a45.08,45.08,0,0,1-5.49,16.24,25.08,25.08,0,0,1-11,9.93Q855.52,253.58,844.72,253.58Z" fill="#fff"/><polygon points="96.92 326.11 69.92 326.11 79.82 338.19 96.92 338.19 114.02 338.19 123.92 326.11 96.92 326.11" fill="#bffde7"/><polygon points="96.92 427.07 123.92 427.07 114.02 414.98 96.92 414.98 79.82 414.98 69.92 427.07 96.92 427.07" fill="#bffde7"/><polygon points="67.61 329.45 77.51 340.89 77.51 366.74 71.08 374.19 67.61 369.82 67.61 329.45" fill="#bffde7"/><polygon points="126.44 329.45 116.54 340.89 116.54 366.74 122.97 374.19 126.44 369.82 126.44 329.45" fill="#bffde7"/><polygon points="67.61 423.7 77.51 412.25 77.51 386.41 71.08 378.95 67.61 383.33 67.61 423.7" fill="#bffde7"/><polygon points="126.31 423.7 116.41 412.25 116.41 386.41 122.83 378.95 126.31 383.33 126.31 423.7" fill="#bffde7"/><polygon points="115.74 370.73 98.12 370.73 96.92 370.73 79.3 370.73 73.68 376.18 79.3 382.12 96.92 382.12 98.12 382.12 115.74 382.12 121.36 376.18 115.74 370.73" fill="#bffde7" opacity="0.2"/><polygon points="168.52 326.11 141.52 326.11 151.42 338.19 168.52 338.19 185.62 338.19 195.52 326.11 168.52 326.11" fill="#bffde7"/><polygon points="168.52 427.07 195.52 427.07 185.62 414.98 168.52 414.98 151.42 414.98 141.52 427.07 168.52 427.07" fill="#bffde7"/><polygon points="139.21 329.45 149.11 340.89 149.11 366.74 142.68 374.19 139.21 369.82 139.21 329.45" fill="#bffde7"/><polygon points="198.04 329.45 188.14 340.89 188.14 366.74 194.57 374.19 198.04 369.82 198.04 329.45" fill="#bffde7" opacity="0.2"/><polygon points="139.21 423.7 149.11 412.25 149.11 386.41 142.68 378.95 139.21 383.33 139.21 423.7" fill="#bffde7"/><polygon points="197.9 423.7 188 412.25 188 386.41 194.43 378.95 197.9 383.33 197.9 423.7" fill="#bffde7"/><polygon points="187.34 370.73 169.71 370.73 168.52 370.73 150.9 370.73 145.28 376.18 150.9 382.12 168.52 382.12 169.71 382.12 187.34 382.12 192.95 376.18 187.34 370.73" fill="#bffde7"/><path d="M226.25,371.64a2.65,2.65,0,1,1,2.65,2.71A2.7,2.7,0,0,1,226.25,371.64Zm0,11.25a2.65,2.65,0,1,1,2.65,2.71A2.69,2.69,0,0,1,226.25,382.89Z" fill="#bffde7"/><path d="M414.29,371.64a2.65,2.65,0,1,1,2.65,2.71A2.7,2.7,0,0,1,414.29,371.64Zm0,11.25a2.65,2.65,0,1,1,2.65,2.71A2.69,2.69,0,0,1,414.29,382.89Z" fill="#bffde7"/><path d="M604.47,371.64a2.65,2.65,0,1,1,2.65,2.71A2.7,2.7,0,0,1,604.47,371.64Zm0,11.25a2.65,2.65,0,1,1,2.65,2.71A2.69,2.69,0,0,1,604.47,382.89Z" fill="#bffde7"/><path d="M795.65,371.64a2.66,2.66,0,1,1,2.65,2.71A2.7,2.7,0,0,1,795.65,371.64Zm0,11.25a2.66,2.66,0,1,1,2.65,2.71A2.69,2.69,0,0,1,795.65,382.89Z" fill="#bffde7"/><polygon points="286.74 326.11 259.74 326.11 269.64 338.19 286.74 338.19 303.84 338.19 313.74 326.11 286.74 326.11" fill="#bffde7"/><polygon points="286.74 427.07 313.74 427.07 303.84 414.98 286.74 414.98 269.64 414.98 259.74 427.07 286.74 427.07" fill="#bffde7"/><polygon points="257.43 329.45 267.33 340.89 267.33 366.74 260.9 374.19 257.43 369.82 257.43 329.45" fill="#bffde7" opacity="0.2"/><polygon points="316.26 329.45 306.36 340.89 306.36 366.74 312.79 374.19 316.26 369.82 316.26 329.45" fill="#bffde7"/><polygon points="257.43 423.7 267.33 412.25 267.33 386.41 260.9 378.95 257.43 383.33 257.43 423.7" fill="#bffde7"/><polygon points="316.12 423.7 306.22 412.25 306.22 386.41 312.65 378.95 316.12 383.33 316.12 423.7" fill="#bffde7" opacity="0.2"/><polygon points="305.56 370.73 287.93 370.73 286.74 370.73 269.12 370.73 263.5 376.18 269.12 382.12 286.74 382.12 287.93 382.12 305.56 382.12 311.17 376.18 305.56 370.73" fill="#bffde7"/><polygon points="358.34 326.11 331.34 326.11 341.24 338.19 358.34 338.19 375.44 338.19 385.34 326.11 358.34 326.11" fill="#bffde7"/><polygon points="358.34 427.07 385.34 427.07 375.44 414.98 358.34 414.98 341.24 414.98 331.34 427.07 358.34 427.07" fill="#bffde7"/><polygon points="329.02 329.45 338.92 340.89 338.92 366.74 332.5 374.19 329.02 369.82 329.02 329.45" fill="#bffde7"/><polygon points="387.86 329.45 377.95 340.89 377.95 366.74 384.38 374.19 387.86 369.82 387.86 329.45" fill="#bffde7"/><polygon points="329.02 423.7 338.92 412.25 338.92 386.41 332.5 378.95 329.02 383.33 329.02 423.7" fill="#bffde7"/><polygon points="387.72 423.7 377.82 412.25 377.82 386.41 384.25 378.95 387.72 383.33 387.72 423.7" fill="#bffde7"/><polygon points="377.16 370.73 359.53 370.73 358.34 370.73 340.71 370.73 335.1 376.18 340.71 382.12 358.34 382.12 359.53 382.12 377.16 382.12 382.77 376.18 377.16 370.73" fill="#bffde7" opacity="0.2"/><polygon points="476.56 326.11 449.56 326.11 459.46 338.19 476.56 338.19 493.66 338.19 503.56 326.11 476.56 326.11" fill="#bffde7" opacity="0.2"/><polygon points="476.56 427.07 503.56 427.07 493.66 414.98 476.56 414.98 459.46 414.98 449.56 427.07 476.56 427.07" fill="#bffde7" opacity="0.2"/><polygon points="447.24 329.45 457.14 340.89 457.14 366.74 450.72 374.19 447.24 369.82 447.24 329.45" fill="#bffde7"/><polygon points="506.08 329.45 496.18 340.89 496.18 366.74 502.6 374.19 506.08 369.82 506.08 329.45" fill="#bffde7"/><polygon points="447.24 423.7 457.14 412.25 457.14 386.41 450.72 378.95 447.24 383.33 447.24 423.7" fill="#bffde7" opacity="0.2"/><polygon points="505.94 423.7 496.04 412.25 496.04 386.41 502.47 378.95 505.94 383.33 505.94 423.7" fill="#bffde7"/><polygon points="495.38 370.73 477.75 370.73 476.56 370.73 458.93 370.73 453.32 376.18 458.93 382.12 476.56 382.12 477.75 382.12 495.38 382.12 500.99 376.18 495.38 370.73" fill="#bffde7"/><polygon points="548.16 326.11 521.16 326.11 531.06 338.19 548.16 338.19 565.26 338.19 575.16 326.11 548.16 326.11" fill="#bffde7"/><polygon points="548.16 427.07 575.16 427.07 565.26 414.98 548.16 414.98 531.06 414.98 521.16 427.07 548.16 427.07" fill="#bffde7"/><polygon points="518.84 329.45 528.74 340.89 528.74 366.74 522.31 374.19 518.84 369.82 518.84 329.45" fill="#bffde7"/><polygon points="577.67 329.45 567.77 340.89 567.77 366.74 574.2 374.19 577.67 369.82 577.67 329.45" fill="#bffde7" opacity="0.2"/><polygon points="518.84 423.7 528.74 412.25 528.74 386.41 522.31 378.95 518.84 383.33 518.84 423.7" fill="#bffde7" opacity="0.2"/><polygon points="577.54 423.7 567.64 412.25 567.64 386.41 574.07 378.95 577.54 383.33 577.54 423.7" fill="#bffde7"/><polygon points="566.98 370.73 549.35 370.73 548.16 370.73 530.53 370.73 524.92 376.18 530.53 382.12 548.16 382.12 549.35 382.12 566.98 382.12 572.59 376.18 566.98 370.73" fill="#bffde7"/><polygon points="666.38 326.11 639.38 326.11 649.28 338.19 666.38 338.19 683.48 338.19 693.38 326.11 666.38 326.11" fill="#bffde7"/><polygon points="666.38 427.07 693.38 427.07 683.48 414.98 666.38 414.98 649.28 414.98 639.38 427.07 666.38 427.07" fill="#bffde7"/><polygon points="637.06 329.45 646.96 340.89 646.96 366.74 640.53 374.19 637.06 369.82 637.06 329.45" fill="#bffde7"/><polygon points="695.89 329.45 685.99 340.89 685.99 366.74 692.42 374.19 695.89 369.82 695.89 329.45" fill="#bffde7"/><polygon points="637.06 423.7 646.96 412.25 646.96 386.41 640.53 378.95 637.06 383.33 637.06 423.7" fill="#bffde7"/><polygon points="695.76 423.7 685.86 412.25 685.86 386.41 692.29 378.95 695.76 383.33 695.76 423.7" fill="#bffde7"/><polygon points="685.2 370.73 667.57 370.73 666.38 370.73 648.75 370.73 643.14 376.18 648.75 382.12 666.38 382.12 667.57 382.12 685.2 382.12 690.81 376.18 685.2 370.73" fill="#bffde7" opacity="0.2"/><polygon points="737.98 326.11 710.98 326.11 720.88 338.19 737.98 338.19 755.08 338.19 764.98 326.11 737.98 326.11" fill="#bffde7"/><polygon points="737.98 427.07 764.98 427.07 755.08 414.98 737.98 414.98 720.88 414.98 710.98 427.07 737.98 427.07" fill="#bffde7"/><polygon points="708.66 329.45 718.56 340.89 718.56 366.74 712.13 374.19 708.66 369.82 708.66 329.45" fill="#bffde7"/><polygon points="767.49 329.45 757.59 340.89 757.59 366.74 764.02 374.19 767.49 369.82 767.49 329.45" fill="#bffde7"/><polygon points="708.66 423.7 718.56 412.25 718.56 386.41 712.13 378.95 708.66 383.33 708.66 423.7" fill="#bffde7" opacity="0.2"/><polygon points="767.36 423.7 757.46 412.25 757.46 386.41 763.89 378.95 767.36 383.33 767.36 423.7" fill="#bffde7"/><polygon points="756.79 370.73 739.17 370.73 737.98 370.73 720.35 370.73 714.74 376.18 720.35 382.12 737.98 382.12 739.17 382.12 756.79 382.12 762.41 376.18 756.79 370.73" fill="#bffde7"/><polygon points="856.2 326.11 829.2 326.11 839.1 338.19 856.2 338.19 873.3 338.19 883.2 326.11 856.2 326.11" fill="#bffde7"/><polygon points="856.2 427.07 883.2 427.07 873.3 414.98 856.2 414.98 839.1 414.98 829.2 427.07 856.2 427.07" fill="#bffde7"/><polygon points="826.88 329.45 836.78 340.89 836.78 366.74 830.35 374.19 826.88 369.82 826.88 329.45" fill="#bffde7"/><polygon points="885.71 329.45 875.81 340.89 875.81 366.74 882.24 374.19 885.71 369.82 885.71 329.45" fill="#bffde7"/><polygon points="826.88 423.7 836.78 412.25 836.78 386.41 830.35 378.95 826.88 383.33 826.88 423.7" fill="#bffde7"/><polygon points="885.58 423.7 875.68 412.25 875.68 386.41 882.11 378.95 885.58 383.33 885.58 423.7" fill="#bffde7"/><polygon points="875.01 370.73 857.39 370.73 856.2 370.73 838.57 370.73 832.96 376.18 838.57 382.12 856.2 382.12 857.39 382.12 875.01 382.12 880.63 376.18 875.01 370.73" fill="#bffde7" opacity="0.2"/><polygon points="927.79 326.11 900.79 326.11 910.69 338.19 927.79 338.19 944.89 338.19 954.79 326.11 927.79 326.11" fill="#bffde7"/><polygon points="927.79 427.07 954.79 427.07 944.89 414.98 927.79 414.98 910.69 414.98 900.79 427.07 927.79 427.07" fill="#bffde7"/><polygon points="898.48 329.45 908.38 340.89 908.38 366.74 901.95 374.19 898.48 369.82 898.48 329.45" fill="#bffde7" opacity="0.2"/><polygon points="957.31 329.45 947.41 340.89 947.41 366.74 953.84 374.19 957.31 369.82 957.31 329.45" fill="#bffde7"/><polygon points="898.48 423.7 908.38 412.25 908.38 386.41 901.95 378.95 898.48 383.33 898.48 423.7" fill="#bffde7" opacity="0.2"/><polygon points="957.18 423.7 947.28 412.25 947.28 386.41 953.71 378.95 957.18 383.33 957.18 423.7" fill="#bffde7"/><polygon points="946.61 370.73 928.99 370.73 927.79 370.73 910.17 370.73 904.55 376.18 910.17 382.12 927.79 382.12 928.99 382.12 946.61 382.12 952.23 376.18 946.61 370.73" fill="#bffde7"/><polygon points="1000.21 326.11 973.21 326.11 983.11 338.19 1000.21 338.19 1017.31 338.19 1027.21 326.11 1000.21 326.11" fill="#bffde7"/><polygon points="1000.21 427.07 1027.21 427.07 1017.31 414.98 1000.21 414.98 983.11 414.98 973.21 427.07 1000.21 427.07" fill="#bffde7"/><polygon points="970.9 329.45 980.8 340.89 980.8 366.74 974.37 374.19 970.9 369.82 970.9 329.45" fill="#bffde7" opacity="0.2"/><polygon points="1029.73 329.45 1019.83 340.89 1019.83 366.74 1026.26 374.19 1029.73 369.82 1029.73 329.45" fill="#bffde7"/><polygon points="970.9 423.7 980.8 412.25 980.8 386.41 974.37 378.95 970.9 383.33 970.9 423.7" fill="#bffde7"/><polygon points="1029.59 423.7 1019.69 412.25 1019.69 386.41 1026.12 378.95 1029.59 383.33 1029.59 423.7" fill="#bffde7" opacity="0.2"/><polygon points="1019.03 370.73 1001.4 370.73 1000.21 370.73 982.59 370.73 976.97 376.18 982.59 382.12 1000.21 382.12 1001.4 382.12 1019.03 382.12 1024.64 376.18 1019.03 370.73" fill="#bffde7"/><path d="M953.5,169.58a7.19,7.19,0,0,0,0-3.13A7.83,7.83,0,0,0,951,161.6a7.21,7.21,0,0,0-5.56-1,15.55,15.55,0,0,0-4.9,1.67,12.76,12.76,0,0,0-.33-7.17,8,8,0,0,0-5.09-4.94,5.85,5.85,0,0,0-6.46,2.3c-1.23,2-.9,4.56-.52,6.88q1.43,8.72,3.14,17.36l14.66-2.54C949,173.66,952.7,172.61,953.5,169.58Z" fill="#ffdd73" stroke="#1c2126" stroke-linejoin="round" stroke-width="2"/><path d="M963.82,103.47a8.15,8.15,0,0,0-.93-3.49c-.89-1.94-2.12-3.88-4.07-4.75s-4.44-.44-6.49.43a18.21,18.21,0,0,0-5,3.22A14.8,14.8,0,0,0,945,91a9.25,9.25,0,0,0-7.06-4.14,6.75,6.75,0,0,0-6.6,4.36c-.83,2.59.24,5.35,1.3,7.85q4,9.35,8.29,18.57l15.72-6.88C959.92,109.27,963.75,107.08,963.82,103.47Z" fill="#ffdd73" stroke="#1c2126" stroke-linejoin="round" stroke-width="2"/><path d="M897,120.27a8.84,8.84,0,0,0-3.37-1.86c-2.14-.74-4.54-1.22-6.64-.36s-3.6,3.09-4.44,5.31a19.22,19.22,0,0,0-1.23,6.23,15.62,15.62,0,0,0-7.82-4,9.8,9.8,0,0,0-8.37,2.38,7.18,7.18,0,0,0-1.5,8.28c1.38,2.53,4.29,3.75,7,4.77q10.13,3.8,20.37,7.28,3.13-8.57,6.28-17.14C898.56,127.53,899.7,123,897,120.27Z" fill="#ffdd73" stroke="#1c2126" stroke-linejoin="round" stroke-width="2"/></svg>