<?xml version="1.0" encoding="UTF-8"?><svg xmlns="http://www.w3.org/2000/svg" viewBox="0 0 1200 630"><g id="b"><rect width="1200" height="498.72" fill="#db4648"/></g><g id="d"><path d="M77.64,148.27l10.7-67.36h20.64l-10.7,67.36h-20.64Z" fill="#fff"/><path d="M137.83,148.27l10.7-67.36h32.87c8.41,0,14.47,2.15,18.2,6.45,3.73,4.3,5.05,9.95,3.96,16.96-.57,3.76-1.94,7.15-4.11,10.17-2.17,3.03-5.14,5.42-8.93,7.17-3.79,1.75-8.49,2.63-14.09,2.63h-14.14l-3.82,23.98h-20.64ZM164.77,108.62h11.37c2.55,0,4.44-.49,5.68-1.48,1.24-.99,1.99-2.37,2.25-4.16.32-2.04-.02-3.61-1-4.73-.99-1.11-2.82-1.67-5.49-1.67h-10.89l-1.91,12.04Z" fill="#fff"/><path d="M204.13,148.27l10.7-67.36h31.24c8.92,0,15.3,1.96,19.16,5.88s5.21,9.47,4.06,16.67c-.64,4.14-2.17,7.75-4.59,10.84-2.42,3.09-5.57,5.49-9.46,7.21-3.89,1.72-8.34,2.58-13.38,2.58l.19-2.77h5.06c2.8,0,5.17.81,7.12,2.44,1.94,1.62,3.45,3.74,4.54,6.35l7.55,18.15h-21.5l-8.22-21.21c-.38-.96-1.19-1.64-2.44-2.05-1.24-.41-2.47-.62-3.68-.62h-1.91l-3.82,23.88h-20.64ZM230.88,109.96h9.27c2.93,0,5.16-.54,6.69-1.62,1.53-1.08,2.45-2.67,2.77-4.78.38-2.42-.1-4.19-1.43-5.3-1.34-1.11-3.44-1.67-6.3-1.67h-8.89l-2.1,13.38Z" fill="#fff"/><path d="M276.46,112.64c1.08-6.94,3.34-12.87,6.78-17.77,3.44-4.9,7.82-8.65,13.14-11.23,5.32-2.58,11.35-3.87,18.1-3.87,7.9,0,14.35,1.61,19.35,4.82,5,3.22,8.52,7.6,10.56,13.14,2.04,5.54,2.48,11.78,1.34,18.73-1.08,6.94-3.34,12.87-6.78,17.77-3.44,4.91-7.82,8.66-13.14,11.27-5.32,2.61-11.39,3.92-18.2,3.92-7.83,0-14.25-1.62-19.25-4.87-5-3.25-8.5-7.66-10.51-13.23-2.01-5.57-2.47-11.8-1.38-18.68ZM297.86,113.59c-.64,4.01-.62,7.42.05,10.22.67,2.8,1.97,4.92,3.92,6.35,1.94,1.43,4.44,2.15,7.5,2.15,4.33,0,7.72-1.54,10.17-4.63,2.45-3.09,4.06-7.15,4.83-12.18.64-4.01.6-7.4-.1-10.17-.7-2.77-2.02-4.87-3.96-6.31-1.94-1.43-4.48-2.15-7.6-2.15-4.33,0-7.68,1.51-10.03,4.54-2.36,3.03-3.95,7.09-4.78,12.18Z" fill="#fff"/><path d="M350.5,148.27l10.7-67.36h17.96l13.18,45.76h-3.25l27.71-45.76h17.96l-10.7,67.36h-18.63l5.73-36.4h4.59l-22.93,36.4h-11.37l-11.46-36.4h4.87l-5.73,36.4h-18.63Z" fill="#fff"/><path d="M435.43,148.27l10.7-67.36h20.64l-10.7,67.36h-20.64Z" fill="#fff"/><path d="M494.28,149.42c-4.91,0-9.73-.56-14.47-1.67-4.75-1.11-8.62-2.59-11.61-4.44l6.21-15.86c1.85.89,3.96,1.74,6.35,2.53,2.39.8,4.9,1.45,7.55,1.96,2.64.51,5.27.76,7.88.76,3.76,0,6.34-.4,7.74-1.19,1.4-.79,2.2-1.8,2.39-3.01.13-1.02-.11-1.89-.72-2.63-.61-.73-1.86-1.26-3.77-1.58l-11.75-2.1c-5.54-1.02-9.86-3.33-12.95-6.93-3.09-3.6-4.19-8.2-3.3-13.81.76-4.59,2.56-8.49,5.4-11.7,2.83-3.22,6.56-5.68,11.18-7.4,4.62-1.72,9.95-2.58,16-2.58,4.2,0,8.34.49,12.42,1.48,4.08.99,7.29,2.41,9.65,4.25l-6.5,15.48c-2.17-1.27-4.73-2.34-7.69-3.2-2.96-.86-6.32-1.29-10.08-1.29-3.19,0-5.62.37-7.31,1.1-1.69.73-2.66,1.83-2.91,3.3-.13.83.13,1.69.76,2.58.64.89,2.01,1.53,4.11,1.91l11.56,2.01c5.86,1.02,10.24,3.31,13.14,6.88,2.9,3.57,3.9,8.12,3.01,13.66-.64,4.2-2.31,7.93-5.02,11.18-2.71,3.25-6.35,5.78-10.94,7.6-4.58,1.82-10.03,2.72-16.34,2.72Z" fill="#fff"/><path d="M532.59,148.27l10.7-67.36h49.97l-2.48,15.67h-30.29l-1.53,9.65h27.99l-2.48,15.67h-27.99l-1.72,10.7h30.29l-2.48,15.67h-49.97Z" fill="#fff"/><path d="M634.24,148.27l8.03-50.73h-19.49l2.67-16.62h59.62l-2.67,16.62h-19.49l-8.03,50.73h-20.64Z" fill="#fff"/><path d="M681.25,112.64c1.08-6.94,3.34-12.87,6.78-17.77,3.44-4.9,7.82-8.65,13.14-11.23,5.32-2.58,11.35-3.87,18.1-3.87,7.9,0,14.35,1.61,19.35,4.82,5,3.22,8.52,7.6,10.56,13.14,2.04,5.54,2.48,11.78,1.34,18.73-1.08,6.94-3.34,12.87-6.78,17.77-3.44,4.91-7.82,8.66-13.14,11.27-5.32,2.61-11.39,3.92-18.2,3.92-7.83,0-14.25-1.62-19.25-4.87-5-3.25-8.5-7.66-10.51-13.23-2.01-5.57-2.47-11.8-1.38-18.68ZM702.65,113.59c-.64,4.01-.62,7.42.05,10.22.67,2.8,1.97,4.92,3.92,6.35,1.94,1.43,4.44,2.15,7.5,2.15,4.33,0,7.72-1.54,10.17-4.63,2.45-3.09,4.06-7.15,4.83-12.18.64-4.01.6-7.4-.1-10.17-.7-2.77-2.02-4.87-3.96-6.31-1.94-1.43-4.48-2.15-7.6-2.15-4.33,0-7.68,1.51-10.03,4.54-2.36,3.03-3.95,7.09-4.78,12.18Z" fill="#fff"/><path d="M68.85,252.43l42.71-67.36h16.72l21.5,67.36h-19.97l-5.16-18.25,6.88,5.73h-39.08l8.5-5.73-10.89,18.25h-21.21ZM117.2,206.09l-13.57,23.6-2.01-5.35h25.7l-3.44,5.35-6.21-23.6h-.48Z" fill="#fff"/><path d="M164.87,252.43l-13.57-67.36h20.54l7.07,45h-4.68l23.41-45h14.62l7.26,45h-4.49l22.83-45h20.54l-35.06,67.36h-16.34l-7.55-39.36h2.2l-20.35,39.36h-16.43Z" fill="#fff"/><path d="M238.53,252.43l42.71-67.36h16.72l21.5,67.36h-19.97l-5.16-18.25,6.88,5.73h-39.08l8.5-5.73-10.89,18.25h-21.21ZM286.87,206.09l-13.57,23.6-2.01-5.35h25.7l-3.44,5.35-6.21-23.6h-.48Z" fill="#fff"/><path d="M321.74,252.43l10.7-67.36h20.64l-10.7,67.36h-20.64Z" fill="#fff"/><path d="M368.56,252.43l8.03-50.73h-19.49l2.67-16.62h59.62l-2.67,16.62h-19.49l-8.03,50.73h-20.64Z" fill="#fff"/><path d="M443.84,252.43l10.7-67.36h48.92l-2.48,15.67h-28.28l-1.72,10.51h25.99l-2.48,15.67h-25.99l-4.01,25.51h-20.64Z" fill="#fff"/><path d="M503.74,216.79c1.08-6.94,3.34-12.87,6.78-17.77,3.44-4.9,7.82-8.65,13.14-11.23,5.32-2.58,11.35-3.87,18.1-3.87,7.9,0,14.35,1.61,19.35,4.82,5,3.22,8.52,7.6,10.56,13.14,2.04,5.54,2.48,11.78,1.34,18.73-1.08,6.94-3.34,12.87-6.78,17.77-3.44,4.91-7.82,8.66-13.14,11.27-5.32,2.61-11.39,3.92-18.2,3.92-7.83,0-14.25-1.62-19.25-4.87-5-3.25-8.5-7.66-10.51-13.23-2.01-5.57-2.47-11.8-1.38-18.68ZM525.14,217.75c-.64,4.01-.62,7.42.05,10.22.67,2.8,1.97,4.92,3.92,6.35,1.94,1.43,4.44,2.15,7.5,2.15,4.33,0,7.72-1.54,10.17-4.63,2.45-3.09,4.06-7.15,4.83-12.18.64-4.01.6-7.4-.1-10.17-.7-2.77-2.02-4.87-3.96-6.31-1.94-1.43-4.48-2.15-7.6-2.15-4.33,0-7.68,1.51-10.03,4.54-2.36,3.03-3.95,7.09-4.78,12.18Z" fill="#fff"/><path d="M577.5,252.43l10.7-67.36h31.24c8.92,0,15.3,1.96,19.16,5.88s5.21,9.47,4.06,16.67c-.64,4.14-2.17,7.75-4.59,10.84-2.42,3.09-5.57,5.49-9.46,7.21-3.89,1.72-8.34,2.58-13.38,2.58l.19-2.77h5.06c2.8,0,5.17.81,7.12,2.44,1.94,1.62,3.45,3.74,4.54,6.35l7.55,18.15h-21.5l-8.22-21.21c-.38-.96-1.19-1.64-2.44-2.05-1.24-.41-2.47-.62-3.68-.62h-1.91l-3.82,23.88h-20.64ZM604.25,214.12h9.27c2.93,0,5.16-.54,6.69-1.62,1.53-1.08,2.45-2.67,2.77-4.78.38-2.42-.1-4.19-1.43-5.3-1.34-1.11-3.44-1.67-6.3-1.67h-8.89l-2.1,13.38Z" fill="#fff"/><path d="M691,252.43l5.16-32.39,2.2,11.08-23.41-46.05h23.02l11.56,25.03h-3.92l19.68-25.03h23.69l-38.12,47.01,5.92-12.04-5.16,32.39h-20.64Z" fill="#fff"/><path d="M739.05,216.79c1.08-6.94,3.34-12.87,6.78-17.77,3.44-4.9,7.82-8.65,13.14-11.23,5.32-2.58,11.35-3.87,18.1-3.87,7.9,0,14.35,1.61,19.35,4.82,5,3.22,8.52,7.6,10.56,13.14,2.04,5.54,2.48,11.78,1.34,18.73-1.08,6.94-3.34,12.87-6.78,17.77-3.44,4.91-7.82,8.66-13.14,11.27-5.32,2.61-11.39,3.92-18.2,3.92-7.83,0-14.25-1.62-19.25-4.87-5-3.25-8.5-7.66-10.51-13.23-2.01-5.57-2.47-11.8-1.38-18.68ZM760.45,217.75c-.64,4.01-.62,7.42.05,10.22.67,2.8,1.97,4.92,3.92,6.35,1.94,1.43,4.44,2.15,7.5,2.15,4.33,0,7.72-1.54,10.17-4.63,2.45-3.09,4.06-7.15,4.83-12.18.64-4.01.6-7.4-.1-10.17-.7-2.77-2.02-4.87-3.96-6.31-1.94-1.43-4.48-2.15-7.6-2.15-4.33,0-7.68,1.51-10.03,4.54-2.36,3.03-3.95,7.09-4.78,12.18Z" fill="#fff"/><path d="M844.72,253.58c-6.37,0-11.82-1.1-16.34-3.3-4.52-2.2-7.79-5.6-9.79-10.22-2.01-4.62-2.44-10.52-1.29-17.72l5.92-37.26h20.64l-6.11,38.69c-.64,4.08-.27,7.21,1.1,9.41,1.37,2.2,4.06,3.3,8.07,3.3,3.63,0,6.38-1.11,8.26-3.34,1.88-2.23,3.14-5.48,3.77-9.75l6.11-38.31h20.25l-6.21,38.98c-1.02,6.43-2.85,11.85-5.49,16.24-2.64,4.4-6.32,7.71-11.04,9.94-4.71,2.23-10.67,3.34-17.87,3.34Z" fill="#fff"/><polygon points="96.92 326.11 69.92 326.11 79.82 338.2 96.92 338.2 114.02 338.2 123.92 326.11 96.92 326.11" fill="#bffde7"/><polygon points="96.92 427.07 123.92 427.07 114.02 414.98 96.92 414.98 79.82 414.98 69.92 427.07 96.92 427.07" fill="#bffde7"/><polygon points="67.61 329.45 77.51 340.9 77.51 366.74 71.08 374.2 67.61 369.82 67.61 329.45" fill="#bffde7"/><polygon points="126.44 329.45 116.54 340.9 116.54 366.74 122.97 374.2 126.44 369.82 126.44 329.45" fill="#bffde7"/><polygon points="67.61 423.7 77.51 412.26 77.51 386.41 71.08 378.96 67.61 383.33 67.61 423.7" fill="#bffde7"/><polygon points="126.31 423.7 116.4 412.26 116.4 386.41 122.83 378.96 126.31 383.33 126.31 423.7" fill="#bffde7"/><polygon points="115.74 370.73 98.12 370.73 96.92 370.73 79.3 370.73 73.68 376.18 79.3 382.12 96.92 382.12 98.12 382.12 115.74 382.12 121.35 376.18 115.74 370.73" fill="#bffde7" opacity=".2"/><polygon points="168.52 326.11 141.52 326.11 151.42 338.2 168.52 338.2 185.62 338.2 195.52 326.11 168.52 326.11" fill="#bffde7"/><polygon points="168.52 427.07 195.52 427.07 185.62 414.98 168.52 414.98 151.42 414.98 141.52 427.07 168.52 427.07" fill="#bffde7"/><polygon points="139.21 329.45 149.11 340.9 149.11 366.74 142.68 374.2 139.21 369.82 139.21 329.45" fill="#bffde7"/><polygon points="198.04 329.45 188.14 340.9 188.14 366.74 194.57 374.2 198.04 369.82 198.04 329.45" fill="#bffde7" opacity=".2"/><polygon points="139.21 423.7 149.11 412.26 149.11 386.41 142.68 378.96 139.21 383.33 139.21 423.7" fill="#bffde7"/><polygon points="197.9 423.7 188 412.26 188 386.41 194.43 378.96 197.9 383.33 197.9 423.7" fill="#bffde7"/><polygon points="187.34 370.73 169.71 370.73 168.52 370.73 150.9 370.73 145.28 376.18 150.9 382.12 168.52 382.12 169.71 382.12 187.34 382.12 192.95 376.18 187.34 370.73" fill="#bffde7"/><path d="M226.25,371.64c0-1.48,1.2-2.71,2.65-2.71s2.65,1.23,2.65,2.71-1.2,2.71-2.65,2.71-2.65-1.23-2.65-2.71ZM226.25,382.89c0-1.48,1.2-2.7,2.65-2.7s2.65,1.22,2.65,2.7-1.2,2.71-2.65,2.71-2.65-1.22-2.65-2.71Z" fill="#bffde7"/><path d="M414.29,371.64c0-1.48,1.2-2.71,2.65-2.71s2.65,1.23,2.65,2.71-1.2,2.71-2.65,2.71-2.65-1.23-2.65-2.71ZM414.29,382.89c0-1.48,1.2-2.7,2.65-2.7s2.65,1.22,2.65,2.7-1.2,2.71-2.65,2.71-2.65-1.22-2.65-2.71Z" fill="#bffde7"/><path d="M604.47,371.64c0-1.48,1.2-2.71,2.65-2.71s2.65,1.23,2.65,2.71-1.2,2.71-2.65,2.71-2.65-1.23-2.65-2.71ZM604.47,382.89c0-1.48,1.2-2.7,2.65-2.7s2.65,1.22,2.65,2.7-1.2,2.71-2.65,2.71-2.65-1.22-2.65-2.71Z" fill="#bffde7"/><path d="M795.65,371.64c0-1.48,1.2-2.71,2.65-2.71s2.65,1.23,2.65,2.71-1.2,2.71-2.65,2.71-2.65-1.23-2.65-2.71ZM795.65,382.89c0-1.48,1.2-2.7,2.65-2.7s2.65,1.22,2.65,2.7-1.2,2.71-2.65,2.71-2.65-1.22-2.65-2.71Z" fill="#bffde7"/><polygon points="286.74 326.11 259.74 326.11 269.64 338.2 286.74 338.2 303.84 338.2 313.74 326.11 286.74 326.11" fill="#bffde7"/><polygon points="286.74 427.07 313.74 427.07 303.84 414.98 286.74 414.98 269.64 414.98 259.74 427.07 286.74 427.07" fill="#bffde7"/><polygon points="257.43 329.45 267.33 340.9 267.33 366.74 260.9 374.2 257.43 369.82 257.43 329.45" fill="#bffde7" opacity=".2"/><polygon points="316.26 329.45 306.36 340.9 306.36 366.74 312.79 374.2 316.26 369.82 316.26 329.45" fill="#bffde7"/><polygon points="257.43 423.7 267.33 412.26 267.33 386.41 260.9 378.96 257.43 383.33 257.43 423.7" fill="#bffde7"/><polygon points="316.12 423.7 306.22 412.26 306.22 386.41 312.65 378.96 316.12 383.33 316.12 423.7" fill="#bffde7" opacity=".2"/><polygon points="305.56 370.73 287.93 370.73 286.74 370.73 269.12 370.73 263.5 376.18 269.12 382.12 286.74 382.12 287.93 382.12 305.56 382.12 311.17 376.18 305.56 370.73" fill="#bffde7"/><polygon points="358.34 326.11 331.34 326.11 341.24 338.2 358.34 338.2 375.44 338.2 385.34 326.11 358.34 326.11" fill="#bffde7"/><polygon points="358.34 427.07 385.34 427.07 375.44 414.98 358.34 414.98 341.24 414.98 331.34 427.07 358.34 427.07" fill="#bffde7"/><polygon points="329.02 329.45 338.92 340.9 338.92 366.74 332.5 374.2 329.02 369.82 329.02 329.45" fill="#bffde7"/><polygon points="387.86 329.45 377.96 340.9 377.96 366.74 384.38 374.2 387.86 369.82 387.86 329.45" fill="#bffde7"/><polygon points="329.02 423.7 338.92 412.26 338.92 386.41 332.5 378.96 329.02 383.33 329.02 423.7" fill="#bffde7"/><polygon points="387.72 423.7 377.82 412.26 377.82 386.41 384.25 378.96 387.72 383.33 387.72 423.7" fill="#bffde7"/><polygon points="377.16 370.73 359.53 370.73 358.34 370.73 340.71 370.73 335.1 376.18 340.71 382.12 358.34 382.12 359.53 382.12 377.16 382.12 382.77 376.18 377.16 370.73" fill="#bffde7" opacity=".2"/><polygon points="476.56 326.11 449.56 326.11 459.46 338.2 476.56 338.2 493.66 338.2 503.56 326.11 476.56 326.11" fill="#bffde7" opacity=".2"/><polygon points="476.56 427.07 503.56 427.07 493.66 414.98 476.56 414.98 459.46 414.98 449.56 427.07 476.56 427.07" fill="#bffde7" opacity=".2"/><polygon points="447.24 329.45 457.14 340.9 457.14 366.74 450.72 374.2 447.24 369.82 447.24 329.45" fill="#bffde7"/><polygon points="506.08 329.45 496.18 340.9 496.18 366.74 502.6 374.2 506.08 369.82 506.08 329.45" fill="#bffde7"/><polygon points="447.24 423.7 457.14 412.26 457.14 386.41 450.72 378.96 447.24 383.33 447.24 423.7" fill="#bffde7" opacity=".2"/><polygon points="505.94 423.7 496.04 412.26 496.04 386.41 502.47 378.96 505.94 383.33 505.94 423.7" fill="#bffde7"/><polygon points="495.38 370.73 477.75 370.73 476.56 370.73 458.93 370.73 453.32 376.18 458.93 382.12 476.56 382.12 477.75 382.12 495.38 382.12 500.99 376.18 495.38 370.73" fill="#bffde7"/><polygon points="548.16 326.11 521.16 326.11 531.06 338.2 548.16 338.2 565.26 338.2 575.16 326.11 548.16 326.11" fill="#bffde7"/><polygon points="548.16 427.07 575.16 427.07 565.26 414.98 548.16 414.98 531.06 414.98 521.16 427.07 548.16 427.07" fill="#bffde7"/><polygon points="518.84 329.45 528.74 340.9 528.74 366.74 522.31 374.2 518.84 369.82 518.84 329.45" fill="#bffde7"/><polygon points="577.67 329.45 567.77 340.9 567.77 366.74 574.2 374.2 577.67 369.82 577.67 329.45" fill="#bffde7" opacity=".2"/><polygon points="518.84 423.7 528.74 412.26 528.74 386.41 522.31 378.96 518.84 383.33 518.84 423.7" fill="#bffde7" opacity=".2"/><polygon points="577.54 423.7 567.64 412.26 567.64 386.41 574.07 378.96 577.54 383.33 577.54 423.7" fill="#bffde7"/><polygon points="566.98 370.73 549.35 370.73 548.16 370.73 530.53 370.73 524.92 376.18 530.53 382.12 548.16 382.12 549.35 382.12 566.98 382.12 572.59 376.18 566.98 370.73" fill="#bffde7"/><polygon points="666.38 326.11 639.38 326.11 649.28 338.2 666.38 338.2 683.48 338.2 693.38 326.11 666.38 326.11" fill="#bffde7"/><polygon points="666.38 427.07 693.38 427.07 683.48 414.98 666.38 414.98 649.28 414.98 639.38 427.07 666.38 427.07" fill="#bffde7"/><polygon points="637.06 329.45 646.96 340.9 646.96 366.74 640.53 374.2 637.06 369.82 637.06 329.45" fill="#bffde7"/><polygon points="695.89 329.45 685.99 340.9 685.99 366.74 692.42 374.2 695.89 369.82 695.89 329.45" fill="#bffde7"/><polygon points="637.06 423.7 646.96 412.26 646.96 386.41 640.53 378.96 637.06 383.33 637.06 423.7" fill="#bffde7"/><polygon points="695.76 423.7 685.86 412.26 685.86 386.41 692.29 378.96 695.76 383.33 695.76 423.7" fill="#bffde7"/><polygon points="685.2 370.73 667.57 370.73 666.38 370.73 648.75 370.73 643.14 376.18 648.75 382.12 666.38 382.12 667.57 382.12 685.2 382.12 690.81 376.18 685.2 370.73" fill="#bffde7" opacity=".2"/><polygon points="737.98 326.11 710.98 326.11 720.87 338.2 737.98 338.2 755.08 338.2 764.98 326.11 737.98 326.11" fill="#bffde7"/><polygon points="737.98 427.07 764.98 427.07 755.08 414.98 737.98 414.98 720.88 414.98 710.98 427.07 737.98 427.07" fill="#bffde7"/><polygon points="708.66 329.45 718.56 340.9 718.56 366.74 712.13 374.2 708.66 369.82 708.66 329.45" fill="#bffde7"/><polygon points="767.49 329.45 757.59 340.9 757.59 366.74 764.02 374.2 767.49 369.82 767.49 329.45" fill="#bffde7"/><polygon points="708.66 423.7 718.56 412.26 718.56 386.41 712.13 378.96 708.66 383.33 708.66 423.7" fill="#bffde7" opacity=".2"/><polygon points="767.36 423.7 757.46 412.26 757.46 386.41 763.89 378.96 767.36 383.33 767.36 423.7" fill="#bffde7"/><polygon points="756.79 370.73 739.17 370.73 737.98 370.73 720.35 370.73 714.74 376.18 720.35 382.12 737.98 382.12 739.17 382.12 756.79 382.12 762.41 376.18 756.79 370.73" fill="#bffde7"/><polygon points="856.2 326.11 829.2 326.11 839.09 338.2 856.2 338.2 873.3 338.2 883.2 326.11 856.2 326.11" fill="#bffde7"/><polygon points="856.2 427.07 883.2 427.07 873.3 414.98 856.2 414.98 839.1 414.98 829.2 427.07 856.2 427.07" fill="#bffde7"/><polygon points="826.88 329.45 836.78 340.9 836.78 366.74 830.35 374.2 826.88 369.82 826.88 329.45" fill="#bffde7"/><polygon points="885.71 329.45 875.81 340.9 875.81 366.74 882.24 374.2 885.71 369.82 885.71 329.45" fill="#bffde7"/><polygon points="826.88 423.7 836.78 412.26 836.78 386.41 830.35 378.96 826.88 383.33 826.88 423.7" fill="#bffde7"/><polygon points="885.58 423.7 875.68 412.26 875.68 386.41 882.11 378.96 885.58 383.33 885.58 423.7" fill="#bffde7"/><polygon points="875.01 370.73 857.39 370.73 856.2 370.73 838.57 370.73 832.96 376.18 838.57 382.12 856.2 382.12 857.39 382.12 875.01 382.12 880.63 376.18 875.01 370.73" fill="#bffde7" opacity=".2"/><polygon points="927.79 326.11 900.79 326.11 910.69 338.2 927.79 338.2 944.89 338.2 954.79 326.11 927.79 326.11" fill="#bffde7"/><polygon points="927.79 427.07 954.79 427.07 944.9 414.98 927.79 414.98 910.69 414.98 900.79 427.07 927.79 427.07" fill="#bffde7"/><polygon points="898.48 329.45 908.38 340.9 908.38 366.74 901.95 374.2 898.48 369.82 898.48 329.45" fill="#bffde7" opacity=".2"/><polygon points="957.31 329.45 947.41 340.9 947.41 366.74 953.84 374.2 957.31 369.82 957.31 329.45" fill="#bffde7"/><polygon points="898.48 423.7 908.38 412.26 908.38 386.41 901.95 378.96 898.48 383.33 898.48 423.7" fill="#bffde7" opacity=".2"/><polygon points="957.18 423.7 947.28 412.26 947.28 386.41 953.7 378.96 957.18 383.33 957.18 423.7" fill="#bffde7"/><polygon points="946.61 370.73 928.99 370.73 927.79 370.73 910.17 370.73 904.56 376.18 910.17 382.12 927.79 382.12 928.99 382.12 946.61 382.12 952.23 376.18 946.61 370.73" fill="#bffde7"/><polygon points="1000.21 326.11 973.21 326.11 983.11 338.2 1000.21 338.2 1017.31 338.2 1027.21 326.11 1000.21 326.11" fill="#bffde7"/><polygon points="1000.21 427.07 1027.21 427.07 1017.31 414.98 1000.21 414.98 983.11 414.98 973.21 427.07 1000.21 427.07" fill="#bffde7"/><polygon points="970.9 329.45 980.8 340.9 980.8 366.74 974.37 374.2 970.9 369.82 970.9 329.45" fill="#bffde7" opacity=".2"/><polygon points="1029.73 329.45 1019.83 340.9 1019.83 366.74 1026.26 374.2 1029.73 369.82 1029.73 329.45" fill="#bffde7"/><polygon points="970.9 423.7 980.8 412.26 980.8 386.41 974.37 378.96 970.9 383.33 970.9 423.7" fill="#bffde7"/><polygon points="1029.59 423.7 1019.69 412.26 1019.69 386.41 1026.12 378.96 1029.59 383.33 1029.59 423.7" fill="#bffde7" opacity=".2"/><polygon points="1019.03 370.73 1001.4 370.73 1000.21 370.73 982.59 370.73 976.97 376.18 982.59 382.12 1000.21 382.12 1001.4 382.12 1019.03 382.12 1024.64 376.18 1019.03 370.73" fill="#bffde7"/><path d="M953.5,169.58c.27-1.02.14-2.1-.06-3.13-.35-1.82-.98-3.71-2.44-4.84-1.53-1.19-3.65-1.29-5.56-.98-1.71.28-3.37.85-4.9,1.67.5-2.37.53-4.9-.33-7.16-.87-2.3-2.73-4.28-5.09-4.95-2.36-.66-5.18.22-6.46,2.31-1.23,2.01-.9,4.56-.52,6.88.95,5.8,2,11.59,3.14,17.35,4.89-.85,9.77-1.69,14.66-2.54,3.08-.53,6.76-1.58,7.56-4.61Z" fill="#ffdd73" stroke="#1c2126" stroke-linejoin="round" stroke-width="2"/><path d="M963.82,103.47c.02-1.22-.42-2.39-.93-3.49-.89-1.94-2.12-3.88-4.07-4.75-2.04-.91-4.44-.44-6.5.44-1.84.78-3.54,1.88-5.03,3.22-.09-2.8-.76-5.63-2.34-7.93-1.61-2.33-4.23-4.05-7.06-4.14-2.83-.09-5.74,1.67-6.6,4.36-.82,2.58.24,5.35,1.31,7.85,2.66,6.23,5.43,12.42,8.29,18.57,5.24-2.29,10.48-4.58,15.72-6.88,3.31-1.45,7.14-3.63,7.2-7.24Z" fill="#ffdd73" stroke="#1c2126" stroke-linejoin="round" stroke-width="2"/><path d="M896.98,120.27c-.92-.91-2.14-1.44-3.37-1.86-2.14-.74-4.54-1.23-6.64-.37-2.2.9-3.6,3.09-4.44,5.32-.75,1.99-1.15,4.1-1.22,6.23-2.21-1.99-4.88-3.56-7.82-4.03-2.97-.48-6.22.27-8.37,2.38-2.15,2.11-2.94,5.64-1.5,8.28,1.38,2.53,4.29,3.75,6.99,4.77,6.75,2.54,13.54,4.97,20.37,7.29,2.09-5.71,4.18-11.43,6.28-17.14,1.32-3.6,2.46-8.16-.27-10.86Z" fill="#ffdd73" stroke="#1c2126" stroke-linejoin="round" stroke-width="2"/><rect x="0" y="595" width="1200" height="35" fill="#fff"/><rect x="0" y="499.19" width="1200" height="95.81" fill="#fff"/><line x1="0" y1="499.19" x2="1200" y2="499.19" fill="none" stroke="#1c2126" stroke-miterlimit="10"/><line x1="0" y1="595" x2="1200" y2="595" fill="none" stroke="#1c2126" stroke-miterlimit="10"/><path d="M24.24,559.45v-18.76h-6.39v-2.37h15.35v2.37h-6.39v18.76h-2.58Z" fill="#1c2126"/><path d="M44.08,559.89c-4.8,0-7.75-3.46-7.75-9.3v-3.41c0-5.84,2.94-9.3,7.75-9.3s7.75,3.46,7.75,9.3v3.41c0,5.84-2.94,9.3-7.75,9.3ZM49.22,550.58v-3.38c0-4.41-1.93-6.87-5.14-6.87s-5.14,2.46-5.14,6.87v3.38c0,4.41,1.93,6.87,5.14,6.87s5.14-2.46,5.14-6.87Z" fill="#1c2126"/><path d="M59.97,545.58c0-1.48,1.2-2.71,2.65-2.71s2.65,1.23,2.65,2.71-1.2,2.71-2.65,2.71-2.65-1.23-2.65-2.71ZM59.97,556.83c0-1.48,1.2-2.7,2.65-2.7s2.65,1.22,2.65,2.7-1.2,2.71-2.65,2.71-2.65-1.22-2.65-2.71Z" fill="#1c2126"/><line x1="582.03" y1="498.72" x2="582.03" y2="595" fill="none" stroke="#1c2126" stroke-miterlimit="10"/><path d="M605.51,559.45v-21.14h12.47v2.37h-9.87v7.25h9.02v2.3h-9.02v9.21h-2.59Z" fill="#1c2126"/><path d="M625.54,551.03v8.42h-2.55v-21.14h7.09c4.19,0,6.81,2.43,6.81,6.36,0,2.77-1.54,5.04-3.94,5.83l4.31,8.95h-2.92l-3.94-8.42h-4.86ZM625.54,548.85h4.19c2.92,0,4.56-1.48,4.56-4.12s-1.61-4.12-4.44-4.12h-4.31v8.23Z" fill="#1c2126"/><path d="M648.15,559.89c-4.8,0-7.75-3.46-7.75-9.3v-3.41c0-5.84,2.94-9.3,7.75-9.3s7.75,3.46,7.75,9.3v3.41c0,5.84-2.94,9.3-7.75,9.3ZM653.29,550.58v-3.38c0-4.41-1.93-6.87-5.14-6.87s-5.14,2.46-5.14,6.87v3.38c0,4.41,1.93,6.87,5.14,6.87s5.14-2.46,5.14-6.87Z" fill="#1c2126"/><path d="M661.18,559.45h-2.31v-21.14h2.86l4.88,13.08h.19l4.86-13.08h2.86v21.14h-2.31v-8.1l.15-8.57h-.19l-4.45,11.7h-2.02l-4.45-11.7h-.19l.15,8.57v8.1Z" fill="#1c2126"/><path d="M682.59,545.58c0-1.48,1.2-2.71,2.65-2.71s2.65,1.23,2.65,2.71-1.2,2.71-2.65,2.71-2.65-1.23-2.65-2.71ZM682.59,556.83c0-1.48,1.2-2.7,2.65-2.7s2.65,1.22,2.65,2.7-1.2,2.71-2.65,2.71-2.65-1.22-2.65-2.71Z" fill="#1c2126"/><path d="M12.77,618.41c-.12,0-.21-.04-.26-.11-.06-.07-.08-.17-.06-.27l2.22-10.42c.02-.12.07-.21.16-.29.08-.07.19-.11.3-.11h6.95c.12,0,.2.04.26.11.05.07.07.17.05.29l-.24,1.12c-.02.12-.08.21-.16.28-.08.07-.19.1-.3.1h-5.14l-.66,3.04h4.82c.12,0,.2.04.26.11.05.07.07.17.05.29l-.22,1.12c-.02.11-.08.2-.17.27-.09.07-.19.11-.31.11h-4.82l-.85,3.97c-.02.11-.08.2-.16.27-.08.08-.19.11-.3.11h-1.41Z" fill="#1c2126"/><path d="M25.41,618.57c-.81,0-1.49-.15-2.02-.45s-.92-.72-1.15-1.26c-.23-.54-.29-1.18-.17-1.9.03-.19.08-.43.13-.7s.12-.51.17-.7c.19-.74.49-1.37.89-1.91.4-.54.91-.96,1.54-1.26.62-.3,1.36-.45,2.22-.45s1.49.15,2.02.45c.54.3.93.72,1.16,1.26.23.54.29,1.18.18,1.91-.04.19-.09.43-.14.7s-.11.51-.16.7c-.19.73-.48,1.36-.87,1.9-.39.54-.9.96-1.52,1.26s-1.38.45-2.26.45ZM25.57,616.98c.58,0,1.06-.18,1.46-.54.4-.36.69-.88.87-1.58.04-.16.09-.37.14-.62s.1-.46.13-.62c.12-.69.07-1.22-.14-1.58-.21-.36-.61-.54-1.18-.54s-1.05.18-1.46.54c-.41.36-.69.88-.86,1.58-.04.16-.09.37-.15.62s-.1.46-.12.62c-.12.69-.07,1.22.14,1.58s.6.54,1.18.54Z" fill="#1c2126"/><path d="M31.53,618.41c-.11,0-.19-.04-.25-.11-.06-.07-.08-.17-.06-.27l1.6-7.54c.02-.12.08-.21.17-.29.09-.07.19-.11.3-.11h1.3c.11,0,.19.04.25.11.06.08.08.17.06.29l-.14.66c.26-.34.58-.6.98-.78s.88-.27,1.44-.27h.78c.12,0,.2.04.26.11.05.08.07.17.05.27l-.24,1.15c-.02.11-.08.2-.17.27-.09.07-.19.11-.3.11h-1.25c-.51,0-.94.14-1.29.42-.35.28-.57.68-.68,1.19l-.94,4.4c-.02.11-.07.2-.16.27-.08.08-.19.11-.3.11h-1.39Z" fill="#1c2126"/><path d="M44.76,618.41c-.73,0-1.29-.11-1.7-.34-.4-.22-.67-.56-.78-1s-.11-.99.03-1.66l.79-3.63h-1.26c-.11,0-.19-.04-.25-.11-.06-.07-.08-.17-.06-.29l.19-.91c.02-.11.08-.2.17-.27.09-.07.2-.11.31-.11h1.25l.58-2.66c.02-.11.07-.2.16-.27.08-.07.18-.11.29-.11h1.3c.12,0,.21.04.26.11.06.08.08.17.06.27l-.58,2.66h2c.11,0,.19.04.25.11.06.08.08.17.06.27l-.19.91c-.02.12-.08.21-.17.29-.09.08-.19.11-.3.11h-2l-.74,3.47c-.06.29-.1.54-.1.74,0,.21.05.37.17.48.12.11.33.17.62.17h1.15c.12,0,.2.04.26.11.05.08.07.17.05.27l-.21.99c-.02.11-.08.2-.16.27-.09.08-.19.11-.3.11h-1.14Z" fill="#1c2126"/><path d="M48.07,618.41c-.11,0-.19-.04-.25-.11-.06-.07-.08-.17-.06-.27l2.26-10.59c.02-.11.08-.2.16-.27.08-.07.18-.11.29-.11h1.44c.11,0,.19.04.25.11.06.08.08.17.06.27l-.78,3.65c.34-.34.72-.62,1.14-.83.42-.21.93-.32,1.53-.32.69,0,1.26.15,1.7.44.44.29.75.71.92,1.24.17.53.18,1.17.02,1.92l-.96,4.5c-.02.11-.08.2-.16.27-.09.08-.19.11-.3.11h-1.44c-.11,0-.19-.04-.25-.11-.06-.07-.08-.17-.06-.27l.93-4.4c.14-.62.11-1.1-.08-1.46-.19-.35-.58-.53-1.17-.53-.36,0-.71.08-1.03.23-.33.16-.61.38-.84.68-.23.3-.4.66-.5,1.07l-.93,4.4c-.02.11-.08.2-.16.27-.09.08-.18.11-.29.11h-1.44Z" fill="#1c2126"/><path d="M61.51,618.57c-.78,0-1.43-.16-1.95-.46-.52-.31-.87-.76-1.07-1.34-.2-.59-.23-1.3-.09-2.13.02-.11.05-.24.08-.41.03-.17.06-.3.1-.39.21-.81.54-1.51.99-2.09.45-.58.99-1.03,1.64-1.34s1.36-.47,2.14-.47c.86,0,1.55.18,2.06.54.51.36.84.85,1.01,1.49s.16,1.37,0,2.2l-.08.34c-.02.11-.08.2-.17.27-.09.08-.19.11-.31.11h-5.31c-.01.06-.02.11-.03.13-.05.37-.05.72.02,1.03.06.31.21.57.42.76.22.19.51.29.87.29.3,0,.56-.04.79-.14.22-.09.41-.19.55-.31.14-.12.25-.21.33-.29.13-.13.22-.21.29-.23.06-.03.15-.04.27-.04h1.39c.1,0,.17.03.22.1.05.06.07.14.05.24-.05.17-.19.38-.4.62s-.5.49-.86.72c-.36.24-.79.43-1.29.58s-1.04.23-1.64.23ZM60.82,613.53h3.54l.02-.05c.1-.42.1-.78.02-1.1-.08-.31-.23-.56-.46-.74-.22-.18-.52-.26-.9-.26s-.71.09-1.02.26c-.3.18-.56.42-.76.74-.2.32-.35.68-.43,1.1l-.02.05Z" fill="#1c2126"/><path d="M71.06,618.41c-.11,0-.19-.04-.25-.11-.06-.07-.08-.17-.06-.27l2.26-10.59c.02-.11.08-.2.16-.27.08-.07.18-.11.29-.11h1.33c.12,0,.21.04.26.11.06.08.08.17.06.27l-2.26,10.59c-.02.11-.08.2-.16.27-.09.08-.19.11-.3.11h-1.33Z" fill="#1c2126"/><path d="M78.64,618.57c-.81,0-1.49-.15-2.02-.45-.54-.3-.92-.72-1.15-1.26-.23-.54-.29-1.18-.17-1.9.03-.19.08-.43.14-.7s.11-.51.17-.7c.19-.74.49-1.37.89-1.91.4-.54.91-.96,1.54-1.26.62-.3,1.36-.45,2.22-.45s1.49.15,2.02.45c.54.3.92.72,1.16,1.26.23.54.29,1.18.18,1.91-.04.19-.09.43-.14.7-.05.28-.11.51-.16.7-.19.73-.48,1.36-.87,1.9s-.9.96-1.52,1.26c-.62.3-1.38.45-2.26.45ZM78.8,616.98c.58,0,1.06-.18,1.46-.54s.69-.88.87-1.58c.04-.16.09-.37.14-.62.05-.26.1-.46.13-.62.12-.69.07-1.22-.14-1.58-.21-.36-.61-.54-1.18-.54s-1.05.18-1.46.54c-.41.36-.69.88-.86,1.58-.04.16-.09.37-.15.62s-.1.46-.12.62c-.12.69-.07,1.22.14,1.58.21.36.6.54,1.18.54Z" fill="#1c2126"/><path d="M86.92,618.41c-.16,0-.27-.04-.34-.12-.06-.08-.11-.17-.13-.28l-1.42-7.49c-.02-.14,0-.25.08-.32.08-.07.18-.11.3-.11h1.22c.12,0,.21.03.27.1.06.06.11.15.13.27l.91,5.55,3.33-5.62c.03-.06.09-.13.17-.2s.18-.1.31-.1h1.39c.13,0,.22.05.26.14.05.1.03.21-.06.35l-4.56,7.42c-.08.11-.16.2-.25.28-.09.08-.22.12-.38.12h-1.25Z" fill="#1c2126"/><path d="M96.66,618.57c-.78,0-1.43-.16-1.94-.46-.52-.31-.88-.76-1.07-1.34-.2-.59-.23-1.3-.09-2.13.02-.11.05-.24.08-.41.03-.17.06-.3.1-.39.21-.81.54-1.51.99-2.09.45-.58.99-1.03,1.64-1.34s1.36-.47,2.14-.47c.86,0,1.55.18,2.06.54.51.36.84.85,1.01,1.49.17.63.16,1.37,0,2.2l-.08.34c-.02.11-.08.2-.17.27-.09.08-.2.11-.31.11h-5.31c-.01.06-.02.11-.03.13-.05.37-.05.72.02,1.03.06.31.21.57.42.76.22.19.51.29.87.29.3,0,.56-.04.78-.14.22-.09.41-.19.55-.31.14-.12.25-.21.33-.29.13-.13.22-.21.29-.23.06-.03.15-.04.27-.04h1.39c.1,0,.17.03.22.1.05.06.07.14.05.24-.05.17-.19.38-.4.62-.21.25-.5.49-.87.72-.36.24-.79.43-1.29.58s-1.04.23-1.64.23ZM95.97,613.53h3.54l.02-.05c.1-.42.1-.78.02-1.1-.08-.31-.23-.56-.46-.74-.22-.18-.52-.26-.9-.26s-.71.09-1.02.26-.56.42-.76.74c-.2.32-.35.68-.43,1.1l-.02.05Z" fill="#1c2126"/><path d="M109.56,618.57c-.81,0-1.49-.15-2.02-.45s-.92-.72-1.15-1.26c-.23-.54-.29-1.18-.17-1.9.03-.19.08-.43.13-.7s.12-.51.17-.7c.19-.74.49-1.37.89-1.91.4-.54.91-.96,1.54-1.26.62-.3,1.36-.45,2.22-.45s1.49.15,2.02.45c.54.3.93.72,1.16,1.26.23.54.29,1.18.18,1.91-.04.19-.09.43-.14.7s-.11.51-.16.7c-.19.73-.48,1.36-.87,1.9-.39.54-.9.96-1.52,1.26s-1.38.45-2.26.45ZM109.72,616.98c.58,0,1.06-.18,1.46-.54.4-.36.69-.88.87-1.58.04-.16.09-.37.14-.62s.1-.46.13-.62c.12-.69.07-1.22-.14-1.58-.21-.36-.61-.54-1.18-.54s-1.05.18-1.46.54c-.41.36-.69.88-.86,1.58-.04.16-.09.37-.15.62s-.1.46-.12.62c-.12.69-.07,1.22.14,1.58s.6.54,1.18.54Z" fill="#1c2126"/><path d="M116.42,618.41c-.12,0-.21-.04-.26-.11-.06-.07-.08-.17-.06-.27l1.33-6.24h-1.29c-.11,0-.19-.04-.25-.11-.06-.07-.08-.17-.06-.29l.19-.91c.02-.11.08-.2.17-.27.09-.07.19-.11.31-.11h1.3l.13-.66c.15-.64.38-1.17.69-1.59.31-.42.7-.74,1.18-.95.48-.21,1.04-.32,1.68-.32h1.28c.12,0,.2.04.26.11.05.07.07.17.05.27l-.19.91c-.02.12-.08.21-.17.29s-.19.11-.3.11h-.96c-.43,0-.76.11-.99.32-.23.21-.39.52-.46.93l-.13.58h1.98c.12,0,.2.04.26.11.05.08.07.17.05.27l-.19.91c-.02.12-.08.21-.16.29-.09.08-.19.11-.3.11h-1.98l-1.34,6.24c-.02.11-.07.2-.16.27-.08.08-.18.11-.29.11h-1.3Z" fill="#1c2126"/><path d="M128.85,618.57c-.81,0-1.48-.15-2.02-.45s-.92-.72-1.15-1.26c-.23-.54-.29-1.18-.17-1.9.03-.19.08-.43.14-.7s.11-.51.17-.7c.19-.74.49-1.37.89-1.91.4-.54.91-.96,1.54-1.26.62-.3,1.36-.45,2.22-.45s1.49.15,2.02.45c.54.3.92.72,1.16,1.26.23.54.29,1.18.18,1.91-.04.19-.09.43-.14.7s-.11.51-.16.7c-.19.73-.48,1.36-.87,1.9-.39.54-.9.96-1.52,1.26s-1.38.45-2.26.45ZM129.01,616.98c.58,0,1.06-.18,1.46-.54.4-.36.69-.88.87-1.58.04-.16.09-.37.14-.62.05-.26.1-.46.13-.62.12-.69.07-1.22-.14-1.58-.21-.36-.61-.54-1.18-.54s-1.05.18-1.46.54c-.41.36-.69.88-.86,1.58-.04.16-.09.37-.15.62s-.1.46-.12.62c-.12.69-.07,1.22.14,1.58s.6.54,1.18.54Z" fill="#1c2126"/><path d="M134.32,621.45c-.11,0-.19-.04-.25-.11-.06-.07-.08-.17-.06-.27l2.26-10.59c.02-.11.08-.2.16-.27.09-.07.18-.11.29-.11h1.28c.11,0,.19.04.25.11.06.08.08.17.06.27l-.14.64c.33-.34.7-.62,1.1-.85.4-.22.93-.34,1.58-.34.55,0,1.03.09,1.42.28.39.19.7.45.92.79.22.34.37.74.44,1.21s.06.97-.04,1.53c-.02.18-.05.35-.09.51s-.08.34-.14.53c-.13.52-.31,1.02-.54,1.48-.24.46-.52.87-.86,1.22s-.73.62-1.18.81-.96.29-1.53.29c-.6,0-1.09-.1-1.47-.31-.38-.21-.66-.48-.83-.82l-.78,3.63c-.02.11-.08.2-.16.27-.09.08-.19.11-.3.11h-1.36ZM138.88,616.85c.43,0,.79-.1,1.09-.3.3-.2.55-.46.74-.78.2-.33.35-.67.47-1.05.05-.16.1-.32.13-.48.03-.16.06-.32.08-.48.05-.38.06-.74.02-1.06-.04-.32-.16-.58-.36-.78-.2-.2-.51-.3-.94-.3-.45,0-.83.1-1.16.3s-.59.46-.8.78c-.21.32-.36.64-.44.97-.05.19-.1.39-.14.61-.04.21-.08.42-.11.62-.05.32-.05.63,0,.92.06.29.2.54.43.73.23.19.56.29.98.29Z" fill="#1c2126"/><path d="M148.13,618.57c-.78,0-1.43-.16-1.95-.46-.52-.31-.87-.76-1.07-1.34-.2-.59-.23-1.3-.09-2.13.02-.11.05-.24.08-.41.03-.17.06-.3.1-.39.21-.81.54-1.51.99-2.09.45-.58.99-1.03,1.64-1.34s1.36-.47,2.14-.47c.86,0,1.55.18,2.06.54.51.36.84.85,1.01,1.49s.16,1.37,0,2.2l-.08.34c-.02.11-.08.2-.17.27-.09.08-.19.11-.31.11h-5.31c-.01.06-.02.11-.03.13-.05.37-.05.72.02,1.03.06.31.21.57.42.76.22.19.51.29.87.29.3,0,.56-.04.79-.14.22-.09.41-.19.55-.31.14-.12.25-.21.33-.29.13-.13.22-.21.29-.23.06-.03.15-.04.27-.04h1.39c.1,0,.17.03.22.1.05.06.07.14.05.24-.05.17-.19.38-.4.62s-.5.49-.86.72c-.36.24-.79.43-1.29.58s-1.04.23-1.64.23ZM147.44,613.53h3.54l.02-.05c.1-.42.1-.78.02-1.1-.08-.31-.23-.56-.46-.74-.22-.18-.52-.26-.9-.26s-.71.09-1.02.26c-.3.18-.56.42-.76.74-.2.32-.35.68-.43,1.1l-.02.05Z" fill="#1c2126"/><path d="M153.96,618.41c-.11,0-.19-.04-.25-.11-.06-.07-.08-.17-.06-.27l1.6-7.55c.02-.11.08-.2.17-.27.09-.07.19-.11.3-.11h1.31c.11,0,.19.04.24.11.05.08.07.17.05.27l-.14.66c.34-.34.74-.63,1.21-.86s.99-.34,1.58-.34c.73,0,1.31.15,1.74.44.44.29.73.71.87,1.24.14.53.14,1.17-.02,1.92l-.96,4.5c-.02.11-.07.2-.16.27-.09.08-.19.11-.3.11h-1.41c-.11,0-.19-.04-.25-.11-.06-.07-.08-.17-.06-.27l.93-4.4c.14-.65.12-1.14-.04-1.48s-.56-.5-1.18-.5-1.12.18-1.54.53c-.42.35-.7.84-.84,1.46l-.93,4.4c-.02.11-.08.2-.16.27-.09.08-.18.11-.29.11h-1.41Z" fill="#1c2126"/><path d="M170.61,618.57c-.64,0-1.17-.08-1.59-.22-.42-.15-.75-.34-.99-.56s-.41-.45-.5-.67c-.09-.22-.12-.41-.1-.56.02-.12.08-.21.17-.28.09-.07.18-.1.28-.1h1.26s.08,0,.11.02c.03.01.06.04.1.1.12.12.24.24.37.37.13.13.29.24.49.33s.46.14.78.14c.42,0,.78-.08,1.1-.25.31-.17.5-.4.57-.71.04-.22.02-.41-.08-.54-.1-.14-.29-.26-.59-.38-.3-.11-.74-.23-1.33-.36-.58-.14-1.04-.31-1.38-.53-.35-.21-.58-.48-.71-.8-.12-.32-.13-.69-.04-1.12.08-.42.29-.81.62-1.19.33-.38.77-.69,1.32-.94.55-.25,1.19-.37,1.93-.37.58,0,1.06.07,1.46.22.4.14.72.32.96.54.24.21.41.43.5.65.1.22.13.41.1.57-.01.12-.06.21-.15.28-.09.07-.18.1-.28.1h-1.17c-.05,0-.1-.01-.14-.03-.04-.02-.08-.05-.1-.08-.11-.11-.22-.22-.33-.34-.11-.12-.26-.23-.43-.31-.18-.08-.42-.13-.74-.13-.41,0-.73.09-.98.26s-.41.4-.47.66c-.03.18-.01.34.06.47.07.13.25.26.54.38s.73.24,1.31.37c.69.13,1.22.32,1.59.57.37.25.61.54.72.86.11.33.13.69.04,1.08-.1.48-.33.91-.7,1.3-.37.38-.85.69-1.45.9-.6.22-1.3.33-2.11.33Z" fill="#1c2126"/><path d="M179.52,618.57c-.81,0-1.49-.15-2.02-.45-.54-.3-.92-.72-1.15-1.26-.23-.54-.29-1.18-.17-1.9.03-.19.08-.43.14-.7s.11-.51.17-.7c.19-.74.49-1.37.89-1.91.4-.54.91-.96,1.54-1.26.62-.3,1.36-.45,2.22-.45s1.49.15,2.02.45c.54.3.92.72,1.16,1.26.23.54.29,1.18.18,1.91-.04.19-.09.43-.14.7-.05.28-.11.51-.16.7-.19.73-.48,1.36-.87,1.9s-.9.96-1.52,1.26c-.62.3-1.38.45-2.26.45ZM179.68,616.98c.58,0,1.06-.18,1.46-.54s.69-.88.87-1.58c.04-.16.09-.37.14-.62.05-.26.1-.46.13-.62.12-.69.07-1.22-.14-1.58-.21-.36-.61-.54-1.18-.54s-1.05.18-1.46.54c-.41.36-.69.88-.86,1.58-.04.16-.09.37-.15.62s-.1.46-.12.62c-.12.69-.07,1.22.14,1.58.21.36.6.54,1.18.54Z" fill="#1c2126"/><path d="M188.45,618.57c-.69,0-1.26-.15-1.7-.44-.44-.29-.73-.71-.87-1.25-.14-.54-.14-1.18,0-1.91l.96-4.5c.02-.11.08-.2.17-.27.09-.07.19-.11.29-.11h1.41c.11,0,.19.04.24.11.05.08.07.17.05.27l-.93,4.4c-.1.44-.13.8-.09,1.1.04.29.16.52.36.66.2.15.52.22.94.22.58,0,1.08-.18,1.5-.53.43-.35.7-.84.83-1.46l.94-4.4c.02-.11.08-.2.17-.27.09-.07.19-.11.3-.11h1.39c.12,0,.2.04.26.11.05.08.07.17.05.27l-1.6,7.55c-.02.11-.07.2-.16.27-.08.08-.19.11-.3.11h-1.3c-.11,0-.19-.04-.25-.11-.06-.07-.08-.17-.06-.27l.13-.66c-.23.25-.47.46-.72.64-.25.18-.53.32-.85.42-.32.1-.71.14-1.18.14Z" fill="#1c2126"/><path d="M195.57,618.41c-.11,0-.19-.04-.25-.11-.06-.07-.08-.17-.06-.27l1.6-7.54c.02-.12.08-.21.17-.29.09-.07.19-.11.3-.11h1.3c.11,0,.19.04.25.11.06.08.08.17.06.29l-.14.66c.26-.34.58-.6.98-.78.39-.18.87-.27,1.44-.27h.78c.12,0,.2.04.26.11.05.08.07.17.05.27l-.24,1.15c-.02.11-.08.2-.17.27-.09.07-.19.11-.3.11h-1.25c-.51,0-.94.14-1.29.42-.35.28-.57.68-.68,1.19l-.94,4.4c-.02.11-.08.2-.16.27-.09.08-.19.11-.3.11h-1.39Z" fill="#1c2126"/><path d="M205.46,618.57c-.71,0-1.34-.14-1.88-.43-.54-.29-.94-.71-1.19-1.26-.26-.55-.31-1.21-.18-1.99.03-.16.07-.37.13-.63.05-.26.1-.48.14-.65.29-1.16.82-2.07,1.6-2.71s1.77-.97,2.98-.97c.67,0,1.23.1,1.69.29.45.19.81.44,1.07.74.26.3.44.61.54.93.1.32.14.61.1.86,0,.12-.06.21-.14.28s-.17.1-.28.1h-1.46c-.11,0-.19-.03-.25-.08-.06-.05-.09-.13-.1-.24,0-.43-.11-.74-.34-.93-.23-.19-.56-.29-.98-.29-.52,0-.99.17-1.4.5-.41.34-.71.87-.89,1.59-.04.19-.09.39-.13.59-.04.2-.08.38-.11.53-.12.74-.06,1.27.16,1.6.22.33.6.5,1.12.5.42,0,.79-.09,1.12-.26.33-.18.61-.48.83-.9.06-.12.13-.2.2-.25.07-.05.16-.07.26-.07h1.44c.11,0,.19.04.25.1s.07.16.04.28c-.07.24-.21.51-.41.82s-.47.62-.81.92c-.34.3-.77.54-1.29.74s-1.13.29-1.85.29Z" fill="#1c2126"/><path d="M214.69,618.57c-.78,0-1.43-.16-1.95-.46-.52-.31-.87-.76-1.07-1.34-.2-.59-.23-1.3-.09-2.13.02-.11.05-.24.08-.41.03-.17.06-.3.1-.39.21-.81.54-1.51.99-2.09.45-.58.99-1.03,1.64-1.34s1.36-.47,2.14-.47c.86,0,1.55.18,2.06.54.51.36.84.85,1.01,1.49s.16,1.37,0,2.2l-.08.34c-.02.11-.08.2-.17.27-.09.08-.19.11-.31.11h-5.31c-.01.06-.02.11-.03.13-.05.37-.05.72.02,1.03.06.31.21.57.42.76.22.19.51.29.87.29.3,0,.56-.04.79-.14.22-.09.41-.19.55-.31.14-.12.25-.21.33-.29.13-.13.22-.21.29-.23.06-.03.15-.04.27-.04h1.39c.1,0,.17.03.22.1.05.06.07.14.05.24-.05.17-.19.38-.4.62s-.5.49-.86.72c-.36.24-.79.43-1.29.58s-1.04.23-1.64.23ZM214,613.53h3.54l.02-.05c.1-.42.1-.78.02-1.1-.08-.31-.23-.56-.46-.74-.22-.18-.52-.26-.9-.26s-.71.09-1.02.26c-.3.18-.56.42-.76.74-.2.32-.35.68-.43,1.1l-.02.05Z" fill="#1c2126"/><path d="M227.19,618.57c-.64,0-1.17-.08-1.59-.22-.42-.15-.75-.34-.99-.56-.24-.22-.41-.45-.5-.67s-.13-.41-.1-.56c.02-.12.08-.21.17-.28.09-.07.18-.1.28-.1h1.26s.08,0,.11.02c.03.01.06.04.1.1.12.12.24.24.37.37.13.13.29.24.49.33s.46.14.78.14c.42,0,.78-.08,1.1-.25s.5-.4.57-.71c.04-.22.02-.41-.08-.54s-.29-.26-.59-.38c-.3-.11-.74-.23-1.33-.36-.58-.14-1.04-.31-1.38-.53-.35-.21-.58-.48-.7-.8-.12-.32-.14-.69-.04-1.12.09-.42.29-.81.62-1.19.33-.38.77-.69,1.32-.94.55-.25,1.19-.37,1.93-.37.58,0,1.06.07,1.46.22.4.14.72.32.96.54.24.21.41.43.5.65s.13.41.1.57c-.01.12-.06.21-.15.28-.09.07-.18.1-.28.1h-1.17c-.05,0-.1-.01-.14-.03s-.07-.05-.1-.08c-.11-.11-.22-.22-.33-.34-.11-.12-.26-.23-.43-.31-.18-.08-.42-.13-.74-.13-.41,0-.73.09-.98.26s-.41.4-.47.66c-.03.18-.01.34.06.47.07.13.25.26.54.38s.73.24,1.31.37c.69.13,1.22.32,1.59.57.37.25.61.54.72.86.11.33.12.69.04,1.08-.1.48-.33.91-.7,1.3-.37.38-.85.69-1.45.9-.6.22-1.3.33-2.11.33Z" fill="#1c2126"/><path d="M236.1,618.57c-.81,0-1.49-.15-2.02-.45-.54-.3-.92-.72-1.15-1.26s-.29-1.18-.17-1.9c.03-.19.08-.43.14-.7s.12-.51.17-.7c.19-.74.49-1.37.89-1.91.4-.54.91-.96,1.54-1.26.62-.3,1.36-.45,2.22-.45s1.48.15,2.02.45c.54.3.93.72,1.16,1.26.23.54.29,1.18.18,1.91-.04.19-.09.43-.14.7-.05.28-.11.51-.16.7-.19.73-.48,1.36-.87,1.9-.39.54-.9.96-1.52,1.26-.62.3-1.38.45-2.26.45ZM236.26,616.98c.58,0,1.06-.18,1.46-.54s.69-.88.87-1.58c.04-.16.09-.37.14-.62.05-.26.1-.46.13-.62.12-.69.07-1.22-.14-1.58-.21-.36-.61-.54-1.18-.54s-1.05.18-1.46.54c-.4.36-.69.88-.86,1.58-.04.16-.09.37-.15.62s-.1.46-.12.62c-.12.69-.07,1.22.13,1.58.21.36.6.54,1.18.54Z" fill="#1c2126"/><path d="M242.96,618.41c-.12,0-.21-.04-.26-.11-.06-.07-.08-.17-.06-.27l1.33-6.24h-1.3c-.11,0-.19-.04-.25-.11-.06-.07-.08-.17-.06-.29l.19-.91c.02-.11.08-.2.17-.27.09-.07.19-.11.31-.11h1.29l.13-.66c.15-.64.38-1.17.69-1.59.31-.42.7-.74,1.18-.95.48-.21,1.04-.32,1.68-.32h1.28c.12,0,.2.04.26.11.05.07.07.17.05.27l-.19.91c-.02.12-.08.21-.17.29s-.19.11-.3.11h-.96c-.43,0-.76.11-.99.32-.23.21-.39.52-.46.93l-.13.58h1.98c.12,0,.2.04.26.11.05.08.07.17.05.27l-.19.91c-.02.12-.07.21-.16.29-.08.08-.19.11-.3.11h-1.98l-1.34,6.24c-.02.11-.08.2-.16.27-.09.08-.18.11-.29.11h-1.29Z" fill="#1c2126"/><path d="M252.11,618.41c-.73,0-1.29-.11-1.7-.34-.4-.22-.67-.56-.78-1s-.11-.99.03-1.66l.79-3.63h-1.26c-.11,0-.19-.04-.25-.11-.06-.07-.08-.17-.06-.29l.19-.91c.02-.11.08-.2.17-.27.09-.07.2-.11.31-.11h1.25l.58-2.66c.02-.11.07-.2.16-.27.08-.07.18-.11.29-.11h1.3c.12,0,.21.04.26.11.06.08.08.17.06.27l-.58,2.66h2c.11,0,.19.04.25.11.06.08.08.17.06.27l-.19.91c-.02.12-.08.21-.17.29-.09.08-.19.11-.3.11h-2l-.74,3.47c-.06.29-.1.54-.1.74,0,.21.05.37.17.48.12.11.33.17.62.17h1.15c.12,0,.2.04.26.11.05.08.07.17.05.27l-.21.99c-.02.11-.08.2-.16.27-.09.08-.19.11-.3.11h-1.14Z" fill="#1c2126"/><path d="M257.27,618.41c-.15,0-.26-.04-.32-.11-.06-.07-.1-.17-.11-.29l-.72-7.49c-.01-.12.02-.22.1-.3.08-.08.18-.13.32-.13h1.12c.13,0,.22.03.28.09.06.06.09.13.1.22l.46,5.3,2.75-5.25c.04-.08.11-.15.19-.23.09-.08.2-.12.34-.12h.83c.15,0,.25.04.3.12.05.08.09.16.1.23l.58,5.25,2.69-5.3c.03-.06.09-.13.16-.2s.18-.1.3-.1h1.3c.15,0,.24.05.26.14.03.1.01.2-.04.32l-3.86,7.46c-.06.12-.14.21-.23.29-.09.08-.21.11-.36.11h-1.06c-.15,0-.26-.04-.33-.11-.07-.07-.12-.17-.14-.29l-.66-5.06-2.72,5.06c-.06.12-.14.21-.24.29-.1.08-.22.11-.37.11h-1.04Z" fill="#1c2126"/><path d="M271.09,618.57c-.55,0-1.02-.09-1.41-.28s-.69-.45-.9-.79c-.22-.34-.36-.74-.42-1.21-.06-.46-.05-.97.03-1.53.04-.19.08-.37.11-.52.03-.15.07-.33.11-.52.14-.53.32-1.03.55-1.49.23-.46.51-.86.85-1.21s.73-.62,1.18-.81c.45-.19.97-.29,1.56-.29.66,0,1.17.1,1.51.31s.62.46.81.76l.11-.53c.02-.11.08-.2.16-.27.08-.07.18-.11.29-.11h1.26c.11,0,.19.04.26.11.06.08.09.17.06.27l-1.62,7.55c-.02.11-.08.2-.16.27-.09.08-.18.11-.29.11h-1.26c-.12,0-.21-.04-.26-.11-.06-.07-.08-.17-.06-.27l.13-.59c-.32.33-.67.6-1.06.82-.38.21-.9.32-1.55.32ZM271.81,616.85c.45,0,.83-.1,1.15-.3.32-.2.58-.46.78-.78s.34-.64.42-.97c.05-.19.1-.4.14-.62s.08-.42.11-.62c.06-.32.07-.63.02-.92s-.19-.54-.41-.73c-.22-.19-.55-.29-.98-.29s-.77.1-1.06.3-.54.46-.73.78c-.19.32-.35.67-.46,1.06-.04.16-.08.32-.11.48s-.06.32-.08.48c-.05.38-.07.74-.04,1.06.03.32.14.58.34.78s.5.3.92.3Z" fill="#1c2126"/><path d="M278.05,618.41c-.11,0-.19-.04-.25-.11-.06-.07-.08-.17-.06-.27l1.6-7.54c.02-.12.08-.21.17-.29.09-.07.19-.11.3-.11h1.29c.11,0,.19.04.25.11.06.08.08.17.06.29l-.14.66c.26-.34.58-.6.98-.78s.88-.27,1.44-.27h.78c.12,0,.2.04.26.11.05.08.07.17.05.27l-.24,1.15c-.02.11-.08.2-.17.27-.09.07-.19.11-.29.11h-1.25c-.51,0-.94.14-1.29.42-.35.28-.57.68-.68,1.19l-.94,4.4c-.02.11-.07.2-.16.27-.09.08-.19.11-.3.11h-1.39Z" fill="#1c2126"/><path d="M288.05,618.57c-.78,0-1.43-.16-1.95-.46-.52-.31-.87-.76-1.07-1.34-.2-.59-.23-1.3-.09-2.13.02-.11.05-.24.08-.41.03-.17.06-.3.1-.39.21-.81.54-1.51.99-2.09.45-.58.99-1.03,1.64-1.34s1.36-.47,2.14-.47c.86,0,1.55.18,2.06.54.51.36.84.85,1.01,1.49s.16,1.37,0,2.2l-.08.34c-.02.11-.08.2-.17.27-.09.08-.19.11-.31.11h-5.31c-.01.06-.02.11-.03.13-.05.37-.05.72.02,1.03.06.31.21.57.42.76.22.19.51.29.87.29.3,0,.56-.04.79-.14.22-.09.41-.19.55-.31.14-.12.25-.21.33-.29.13-.13.22-.21.29-.23.06-.03.15-.04.27-.04h1.39c.1,0,.17.03.22.1.05.06.07.14.05.24-.05.17-.19.38-.4.62s-.5.49-.86.72c-.36.24-.79.43-1.29.58s-1.04.23-1.64.23ZM287.36,613.53h3.54l.02-.05c.1-.42.1-.78.02-1.1-.08-.31-.23-.56-.46-.74-.22-.18-.52-.26-.9-.26s-.71.09-1.02.26c-.3.18-.56.42-.76.74-.2.32-.35.68-.43,1.1l-.02.05Z" fill="#1c2126"/><path d="M1113.68,618.57c-.89,0-1.63-.15-2.22-.44-.6-.29-1.05-.71-1.37-1.26-.32-.54-.49-1.18-.52-1.9,0-.21-.02-.46-.02-.73s0-.51.02-.71c.03-.74.21-1.37.54-1.91.33-.54.79-.95,1.39-1.25.6-.29,1.32-.44,2.18-.44s1.56.15,2.16.44c.6.29,1.06.71,1.39,1.25.33.54.52,1.18.56,1.91,0,.2.02.44.02.71s0,.51-.02.73c-.04.73-.22,1.36-.54,1.9-.32.54-.77.96-1.37,1.26-.6.29-1.33.44-2.21.44ZM1113.68,616.79c.52,0,.92-.16,1.18-.48.26-.32.41-.79.44-1.42,0-.16.02-.37.02-.64s0-.48-.02-.64c-.03-.62-.18-1.09-.44-1.42-.26-.33-.65-.49-1.18-.49s-.92.16-1.18.49c-.27.33-.42.8-.45,1.42-.01.16-.02.37-.02.64s0,.48.02.64c.03.63.18,1.1.45,1.42.27.32.66.48,1.18.48Z" fill="#1c2126"/><path d="M1122.77,618.57c-.66,0-1.23-.08-1.7-.23s-.86-.34-1.15-.57c-.29-.22-.51-.45-.66-.68-.14-.23-.22-.42-.23-.58-.01-.12.03-.21.11-.29.08-.07.17-.11.26-.11h1.55s.08,0,.1.02c.03.01.06.04.1.08.14.1.28.21.42.33.14.12.32.23.52.31.2.09.45.13.74.13.35,0,.65-.07.89-.22.24-.14.36-.35.36-.62,0-.19-.05-.35-.16-.48-.11-.13-.31-.25-.62-.35-.31-.11-.77-.22-1.38-.35-.58-.13-1.07-.3-1.47-.51-.41-.21-.71-.48-.91-.81-.2-.33-.3-.72-.3-1.18,0-.42.13-.82.39-1.2.26-.38.65-.7,1.16-.95.51-.25,1.15-.38,1.92-.38.59,0,1.1.07,1.54.22.44.14.81.33,1.11.54s.53.44.68.67c.15.23.24.43.25.6,0,.12-.02.21-.1.29-.08.08-.16.11-.26.11h-1.42c-.05,0-.1-.01-.14-.03-.04-.02-.08-.05-.11-.08-.13-.07-.26-.17-.39-.29-.13-.12-.29-.22-.47-.3-.18-.08-.42-.13-.7-.13-.34,0-.61.08-.79.23-.19.16-.28.35-.28.58,0,.15.05.29.14.42.1.13.29.25.58.35.29.11.75.22,1.37.34.72.13,1.3.32,1.73.58s.73.55.91.89c.18.34.27.7.27,1.08,0,.5-.15.95-.44,1.34-.29.39-.73.69-1.3.91s-1.28.33-2.11.33Z" fill="#1c2126"/><path d="M1131.46,618.57c-.66,0-1.23-.08-1.7-.23s-.86-.34-1.15-.57c-.29-.22-.51-.45-.66-.68-.14-.23-.22-.42-.23-.58-.01-.12.03-.21.11-.29.09-.07.17-.11.26-.11h1.55s.08,0,.1.02c.03.01.06.04.1.08.14.1.28.21.42.33.14.12.32.23.52.31.2.09.45.13.74.13.35,0,.65-.07.89-.22.24-.14.36-.35.36-.62,0-.19-.05-.35-.16-.48-.11-.13-.31-.25-.62-.35-.31-.11-.77-.22-1.38-.35-.58-.13-1.07-.3-1.47-.51-.41-.21-.71-.48-.91-.81-.2-.33-.3-.72-.3-1.18,0-.42.13-.82.39-1.2.26-.38.65-.7,1.16-.95.51-.25,1.15-.38,1.92-.38.59,0,1.1.07,1.54.22.44.14.81.33,1.11.54s.53.44.68.67.24.43.25.6c.01.12-.02.21-.1.29-.07.08-.16.11-.26.11h-1.42c-.05,0-.1-.01-.14-.03s-.08-.05-.11-.08c-.13-.07-.26-.17-.39-.29-.13-.12-.29-.22-.47-.3-.18-.08-.42-.13-.7-.13-.34,0-.61.08-.79.23-.19.16-.28.35-.28.58,0,.15.05.29.14.42.1.13.29.25.58.35.29.11.75.22,1.37.34.73.13,1.3.32,1.73.58s.73.55.91.89.27.7.27,1.08c0,.5-.15.95-.44,1.34s-.73.69-1.3.91c-.58.22-1.28.33-2.11.33Z" fill="#1c2126"/><path d="M1137.17,618.41c-.12,0-.21-.04-.29-.11-.08-.07-.11-.17-.11-.29v-1.81c0-.11.04-.2.11-.28.07-.08.17-.12.29-.12h1.81c.11,0,.2.04.28.12s.12.17.12.28v1.81c0,.12-.04.21-.12.29-.08.08-.17.11-.28.11h-1.81Z" fill="#1c2126"/><path d="M1144.9,618.57c-.79,0-1.48-.14-2.07-.43-.59-.29-1.06-.71-1.4-1.26-.34-.55-.53-1.21-.56-1.98-.01-.17-.02-.39-.02-.65s0-.48.02-.65c.03-.78.21-1.44.55-1.99.34-.55.8-.97,1.4-1.26s1.29-.43,2.08-.43c.7,0,1.31.1,1.81.3.5.2.91.45,1.23.75.32.3.56.62.72.94s.25.6.26.85c.01.12-.03.21-.11.29-.09.08-.18.11-.29.11h-1.71c-.12,0-.21-.03-.26-.08-.06-.05-.12-.14-.17-.26-.14-.37-.33-.64-.56-.8s-.53-.24-.88-.24c-.48,0-.86.15-1.13.46s-.42.79-.44,1.44c-.02.42-.02.79,0,1.14.02.66.17,1.14.44,1.44.27.3.65.45,1.13.45.37,0,.67-.08.9-.24.22-.16.41-.43.54-.8.05-.12.11-.2.17-.26.06-.05.15-.08.26-.08h1.71c.11,0,.2.04.29.11.09.08.12.17.11.29,0,.18-.06.39-.16.64-.1.25-.24.5-.44.75s-.45.49-.76.71c-.31.22-.69.4-1.13.53s-.95.2-1.53.2Z" fill="#1c2126"/><path d="M1152.92,618.57c-.57,0-1.07-.11-1.52-.33-.45-.22-.81-.51-1.07-.89-.27-.37-.4-.79-.4-1.25,0-.76.31-1.35.92-1.79s1.42-.74,2.42-.9l2.1-.3v-.29c0-.42-.1-.74-.29-.96-.19-.22-.53-.34-1.01-.34-.35,0-.63.07-.84.21-.21.14-.37.32-.49.54-.09.14-.21.21-.38.21h-1.52c-.12,0-.21-.03-.27-.1-.06-.07-.09-.15-.08-.25,0-.18.07-.39.21-.64.14-.25.35-.49.64-.73.29-.24.66-.44,1.11-.6s1-.24,1.64-.24,1.25.08,1.73.24c.48.16.87.38,1.16.67.29.29.51.62.64,1,.13.38.2.79.2,1.22v4.94c0,.12-.04.21-.11.29s-.17.11-.27.11h-1.58c-.11,0-.2-.04-.27-.11-.08-.07-.11-.17-.11-.29v-.59c-.14.2-.33.39-.56.57-.24.18-.52.32-.84.42-.33.11-.71.16-1.14.16ZM1153.56,616.9c.35,0,.67-.07.94-.22s.5-.38.66-.69.24-.7.24-1.17v-.27l-1.49.24c-.57.1-.98.24-1.25.43-.27.19-.4.43-.4.7,0,.2.06.38.18.52.12.14.28.26.48.34s.41.12.63.12Z" fill="#1c2126"/><path d="M1160.13,618.41c-.11,0-.2-.04-.28-.11-.08-.07-.12-.17-.12-.29v-7.52c0-.11.04-.2.12-.28.08-.08.17-.12.28-.12h1.57c.12,0,.21.04.29.12s.11.17.11.28v.64c.27-.33.6-.59.99-.77s.84-.27,1.34-.27h.69c.12,0,.21.04.29.11.07.08.11.17.11.29v1.39c0,.11-.04.2-.11.27s-.17.11-.29.11h-1.39c-.48,0-.85.13-1.11.4s-.39.63-.39,1.1v4.24c0,.12-.04.21-.12.29-.08.08-.17.11-.28.11h-1.7Z" fill="#1c2126"/><path d="M1169.72,618.57c-.53,0-1.01-.09-1.42-.26-.42-.18-.77-.43-1.06-.77-.29-.34-.51-.74-.66-1.2s-.24-.98-.27-1.54c-.01-.2-.02-.39-.02-.55s0-.34.02-.54c.02-.55.11-1.06.26-1.52.15-.46.37-.86.66-1.19.28-.34.63-.6,1.06-.78s.9-.28,1.43-.28,1.03.09,1.42.28.72.42.98.71v-3.47c0-.12.04-.21.11-.29s.17-.11.29-.11h1.65c.12,0,.21.04.29.11.08.08.11.17.11.29v10.56c0,.12-.04.21-.11.29-.08.08-.17.11-.29.11h-1.54c-.11,0-.2-.04-.27-.11s-.11-.17-.11-.29v-.54c-.27.32-.6.58-1.01.79-.41.21-.91.31-1.52.31ZM1170.45,616.65c.39,0,.71-.09.95-.27.24-.18.42-.41.53-.69.11-.28.17-.58.18-.9.02-.2.03-.41.03-.61s-.01-.4-.03-.59c-.01-.3-.08-.58-.2-.84-.12-.26-.3-.48-.54-.65-.23-.17-.54-.26-.93-.26-.41,0-.73.09-.96.26s-.4.41-.5.7-.16.6-.18.94c-.02.33-.02.66,0,.99.02.34.08.66.18.94s.27.52.5.7c.23.18.55.26.96.26Z" fill="#1c2126"/><path d="M1179.86,618.57c-.66,0-1.23-.08-1.7-.23s-.86-.34-1.15-.57c-.29-.22-.51-.45-.66-.68-.14-.23-.22-.42-.23-.58,0-.12.03-.21.11-.29.08-.07.17-.11.26-.11h1.55s.08,0,.1.02.06.04.1.08c.14.1.28.21.42.33s.32.23.52.31c.2.09.45.13.74.13.35,0,.65-.07.89-.22.24-.14.36-.35.36-.62,0-.19-.05-.35-.16-.48-.11-.13-.31-.25-.62-.35-.31-.11-.77-.22-1.38-.35-.58-.13-1.07-.3-1.47-.51-.4-.21-.71-.48-.91-.81-.2-.33-.3-.72-.3-1.18,0-.42.13-.82.39-1.2.26-.38.65-.7,1.16-.95.51-.25,1.15-.38,1.92-.38.59,0,1.1.07,1.54.22.44.14.81.33,1.11.54s.53.44.68.67c.15.23.24.43.25.6.01.12-.02.21-.1.29-.07.08-.16.11-.26.11h-1.42c-.05,0-.1-.01-.14-.03-.04-.02-.08-.05-.11-.08-.13-.07-.26-.17-.39-.29-.13-.12-.29-.22-.47-.3-.18-.08-.42-.13-.71-.13-.34,0-.61.08-.79.23-.19.16-.28.35-.28.58,0,.15.05.29.14.42.1.13.29.25.58.35s.75.22,1.37.34c.73.13,1.3.32,1.73.58.43.26.73.55.91.89s.27.7.27,1.08c0,.5-.15.95-.44,1.34s-.73.69-1.3.91c-.58.22-1.28.33-2.11.33Z" fill="#1c2126"/><polygon points="1093.31 614.96 1087.74 611.74 1082.16 614.96 1093.31 621.39 1104.46 614.96 1098.89 611.74 1093.31 614.96" fill="#b7303d" stroke="#1c2126" stroke-linejoin="round" stroke-width=".33"/><polygon points="1087.74 605.3 1087.74 611.74 1082.16 614.96 1082.16 608.52 1087.74 605.3" fill="#ea4f4b" stroke="#1c2126" stroke-linejoin="round" stroke-width=".33"/><polygon points="1087.74 605.3 1087.74 611.74 1093.31 614.96 1093.31 608.52 1087.74 605.3" fill="#ff6b60" stroke="#1c2126" stroke-linejoin="round" stroke-width=".33"/><polygon points="1098.89 605.3 1098.89 611.74 1093.31 614.96 1093.31 608.52 1098.89 605.3" fill="#ea4f4b" stroke="#1c2126" stroke-linejoin="round" stroke-width=".33"/><polygon points="1098.89 605.3 1098.89 611.74 1104.46 614.96 1104.46 608.52 1098.89 605.3" fill="#ff6b60" stroke="#1c2126" stroke-linejoin="round" stroke-width=".33"/></g></svg>