<svg xmlns="http://www.w3.org/2000/svg" xmlns:xlink="http://www.w3.org/1999/xlink" width="1200" height="630" viewBox="0 0 1200 630"><defs><radialGradient id="a" cx="1097.44" cy="565" r="111.35" gradientUnits="userSpaceOnUse"><stop offset="0" stop-color="#20c6b7"/><stop offset="1" stop-color="#4d9abf"/></radialGradient></defs><rect x="-3730.07" y="-89.85" width="6221.73" height="2273.11" fill="#a6a6a6"/><rect width="1200" height="498.72" fill="#ffdd73"/><path d="M67.52,440.17l10.7-67.36h31.24q13.38,0,19.16,5.88t4.06,16.67a22.88,22.88,0,0,1-4.59,10.84,24.19,24.19,0,0,1-9.46,7.22A32.71,32.71,0,0,1,105.26,416l.19-2.77h5.06a10.75,10.75,0,0,1,7.12,2.43,16.29,16.29,0,0,1,4.54,6.36l7.55,18.15h-21.5L100,419a3.66,3.66,0,0,0-2.43-2.06,11.74,11.74,0,0,0-3.68-.62H92l-3.82,23.89Zm26.75-38.31h9.27q4.39,0,6.69-1.63a6.83,6.83,0,0,0,2.77-4.77q.57-3.63-1.44-5.31c-1.33-1.11-3.44-1.67-6.3-1.67H96.37Z" fill="#1c2126"/><path d="M168.22,441.31A37.06,37.06,0,0,1,151.88,438a19.8,19.8,0,0,1-9.79-10.22q-3-6.93-1.29-17.73l5.92-37.26h20.64l-6.12,38.7q-.94,6.11,1.1,9.41t8.07,3.29q5.44,0,8.27-3.34t3.77-9.75l6.12-38.31h20.25l-6.21,39A45,45,0,0,1,197.12,428a25.15,25.15,0,0,1-11,9.94Q179,441.31,168.22,441.31Z" fill="#1c2126"/><path d="M208.72,440.17l10.71-67.36h15.09l25.22,39.08-3-1.34,6-37.74H282l-10.7,67.36H256.21l-25.13-39.08,3,1.34-6,37.74Z" fill="#1c2126"/><path d="M302.06,440.17l42.71-67.36h16.72L383,440.17H363l-5.16-18.25,6.88,5.73H325.66l8.51-5.73-10.89,18.25Zm48.35-46.34-13.57,23.6-2-5.35h25.7l-3.44,5.35-6.21-23.6Z" fill="#1c2126"/><path d="M385.28,440.17,396,372.81h31.24q13.38,0,19.16,5.88t4.06,16.67a22.88,22.88,0,0,1-4.59,10.84,24.19,24.19,0,0,1-9.46,7.22A32.71,32.71,0,0,1,423,416l.19-2.77h5.06a10.75,10.75,0,0,1,7.12,2.43,16.29,16.29,0,0,1,4.54,6.36l7.54,18.15H426L417.76,419a3.66,3.66,0,0,0-2.43-2.06,11.74,11.74,0,0,0-3.68-.62h-1.91l-3.82,23.89ZM412,401.86h9.27q4.4,0,6.68-1.63a6.8,6.8,0,0,0,2.78-4.77q.57-3.63-1.44-5.31t-6.3-1.67h-8.89Z" fill="#1c2126"/><path d="M454.07,440.17l10.7-67.36H496q13.37,0,19.15,5.88t4.06,16.67a22.77,22.77,0,0,1-4.58,10.84,24.26,24.26,0,0,1-9.46,7.22A32.79,32.79,0,0,1,491.8,416l.19-2.77h5.07a10.77,10.77,0,0,1,7.12,2.43,16.17,16.17,0,0,1,4.53,6.36l7.55,18.15H494.77L486.55,419a3.66,3.66,0,0,0-2.44-2.06,11.68,11.68,0,0,0-3.67-.62h-1.92l-3.82,23.89Zm26.75-38.31h9.26q4.4,0,6.69-1.63a6.79,6.79,0,0,0,2.77-4.77c.38-2.42-.09-4.19-1.43-5.31s-3.44-1.67-6.31-1.67h-8.88Z" fill="#1c2126"/><path d="M512.63,440.17l42.71-67.36h16.71l21.5,67.36h-20l-5.16-18.25,6.88,5.73H536.23l8.5-5.73-10.89,18.25ZM561,393.83l-13.56,23.6-2-5.35h25.7l-3.44,5.35-6.21-23.6Z" fill="#1c2126"/><path d="M605.88,440.17,611,407.78l2.19,11.08-23.4-46.05h23l11.56,25h-3.92l19.68-25h23.7l-38.12,47,5.92-12-5.16,32.39Z" fill="#1c2126"/><path d="M701.7,440.17l-13.57-67.36h20.54l7.07,45h-4.68l23.41-45h14.62l7.26,45h-4.49l22.83-45h20.54l-35.06,67.36H743.83l-7.54-39.36h2.19l-20.35,39.36Z" fill="#1c2126"/><path d="M790.84,440.17l10.7-67.36h20.63l-10.7,67.36Z" fill="#1c2126"/><path d="M837.65,440.17l8-50.73H826.19l2.67-16.63h59.62l-2.68,16.63H866.31l-8,50.73Z" fill="#1c2126"/><path d="M884.46,440.17l10.7-67.36H915.8l-4,24.84h23l4-24.84h20.64l-10.7,67.36H928.12l4.11-25.7h-23l-4.11,25.7Z" fill="#1c2126"/><path d="M988.6,440.17l10.7-67.36h18l13.19,45.77h-3.25l27.7-45.77h18l-10.7,67.36h-18.63l5.74-36.4h4.58l-22.93,36.4h-11.37l-11.46-36.4H1013l-5.73,36.4Z" fill="#1c2126"/><path d="M1073.53,440.17l10.7-67.36h50l-2.48,15.67h-30.29l-1.53,9.65h28l-2.48,15.67h-28l-1.72,10.7H1126l-2.48,15.67Z" fill="#1c2126"/><path d="M262.14,205.68h-52A21.69,21.69,0,0,1,188.45,184V110.25a21.68,21.68,0,0,1,21.67-21.66h52a21.68,21.68,0,0,1,21.66,21.66V184A21.69,21.69,0,0,1,262.14,205.68Zm-52-102.26a6.84,6.84,0,0,0-6.84,6.83V184a6.85,6.85,0,0,0,6.84,6.83h52A6.85,6.85,0,0,0,269,184V110.25a6.84,6.84,0,0,0-6.83-6.83Z" fill="#b7790b" stroke="#1c2126" stroke-linejoin="round" stroke-width="2"/><rect x="94.72" y="128.82" width="282.8" height="176.2" rx="24.55" fill="#b7790b" stroke="#1c2126" stroke-linejoin="round" stroke-width="2"/><path d="M353,128.82H336.61a40.92,40.92,0,0,0,40.92,40.92V153.37A24.55,24.55,0,0,0,353,128.82Z" fill="#7a4804" stroke="#1c2126" stroke-linejoin="round" stroke-width="2"/><path d="M377.53,280.48V264.1A40.92,40.92,0,0,0,336.61,305H353A24.55,24.55,0,0,0,377.53,280.48Z" fill="#7a4804" stroke="#1c2126" stroke-linejoin="round" stroke-width="2"/><path d="M94.72,264.1v16.38A24.55,24.55,0,0,0,119.27,305h16.37A40.92,40.92,0,0,0,94.72,264.1Z" fill="#7a4804" stroke="#1c2126" stroke-linejoin="round" stroke-width="2"/><path d="M94.72,153.37v16.37a40.92,40.92,0,0,0,40.92-40.92H119.27A24.55,24.55,0,0,0,94.72,153.37Z" fill="#7a4804" stroke="#1c2126" stroke-linejoin="round" stroke-width="2"/><rect x="102.79" y="135.42" width="266.66" height="163" rx="22.93" fill="none" stroke="#1c2126" stroke-linecap="round" stroke-linejoin="round" stroke-width="2" stroke-dasharray="8"/><rect x="145.65" y="126.28" width="17.54" height="181.28" fill="#db4648" stroke="#1c2126" stroke-linecap="round" stroke-linejoin="round" stroke-width="2"/><polygon points="163.19 228.88 154.42 234.72 145.65 228.88 145.65 126.28 163.19 126.28 163.19 228.88" fill="#ff6b60" stroke="#1c2126" stroke-miterlimit="10" stroke-width="2"/><rect x="309.89" y="126.28" width="17.54" height="181.28" fill="#db4648" stroke="#1c2126" stroke-linecap="round" stroke-linejoin="round" stroke-width="2"/><polygon points="327.44 228.88 318.67 234.72 309.89 228.88 309.89 126.28 327.44 126.28 327.44 228.88" fill="#ff6b60" stroke="#1c2126" stroke-miterlimit="10" stroke-width="2"/><circle cx="154.42" cy="216.74" r="1" fill="#1c2126"/><circle cx="154.42" cy="205.49" r="1" fill="#1c2126"/><circle cx="154.42" cy="194.25" r="1" fill="#1c2126"/><line x1="142.5" y1="183.98" x2="167.16" y2="183.98" fill="#ff6b60" stroke="#1c2126" stroke-linecap="round" stroke-linejoin="round" stroke-width="2"/><line x1="154.42" y1="179.45" x2="154.42" y2="183.98" fill="#ff6b60" stroke="#1c2126" stroke-linecap="round" stroke-linejoin="round" stroke-width="2"/><circle cx="318.79" cy="216.74" r="1" fill="#1c2126"/><circle cx="318.79" cy="205.49" r="1" fill="#1c2126"/><circle cx="318.79" cy="194.25" r="1" fill="#1c2126"/><line x1="306.86" y1="183.98" x2="331.53" y2="183.98" fill="#ff6b60" stroke="#1c2126" stroke-linecap="round" stroke-linejoin="round" stroke-width="2"/><line x1="318.79" y1="179.45" x2="318.79" y2="183.98" fill="#ff6b60" stroke="#1c2126" stroke-linecap="round" stroke-linejoin="round" stroke-width="2"/><path d="M162,67a8.32,8.32,0,0,0-3.15-1.77c-2-.72-4.27-1.19-6.25-.4s-3.41,2.88-4.22,5a18.6,18.6,0,0,0-1.2,5.85,14.71,14.71,0,0,0-7.31-3.85A9.22,9.22,0,0,0,132,74a6.75,6.75,0,0,0-1.48,7.77c1.28,2.39,4,3.56,6.54,4.54q9.48,3.66,19.09,7l6-16.07C163.42,73.86,164.52,69.59,162,67Z" fill="#ff6b60" stroke="#1c2126" stroke-linejoin="round" stroke-width="2"/><path d="M197.84,51.89a8.31,8.31,0,0,0-1.23-3.4c-1.06-1.85-2.45-3.68-4.47-4.38s-4.46,0-6.44,1A18.13,18.13,0,0,0,181,48.76a14.71,14.71,0,0,0-3-7.69,9.2,9.2,0,0,0-7.4-3.51,6.76,6.76,0,0,0-6.19,4.92c-.59,2.65.71,5.32,2,7.71q4.8,9,9.89,17.77,7.53-4.11,15-8.23C194.46,58,198.08,55.49,197.84,51.89Z" fill="#db4648" stroke="#1c2126" stroke-linecap="round" stroke-linejoin="round" stroke-width="2"/><polygon points="279.63 166.57 255.41 166.48 239.33 186.99 239.09 253.26 295.3 253.47 295.55 187.2 279.63 166.57" fill="#1c2126" stroke="#1c2126" stroke-linejoin="round" stroke-width="2" opacity="0.2"/><polygon points="274.12 161.28 249.9 161.19 233.82 181.69 233.57 247.96 289.79 248.17 290.04 181.9 274.12 161.28" fill="#ffb916" stroke="#1c2126" stroke-linejoin="round" stroke-width="2"/><path d="M260.88,221.7a8.76,8.76,0,0,1-7.64-3.77q-2.69-3.78-2.69-10.78t2.68-10.76a9.78,9.78,0,0,1,15.3,0q2.66,3.68,2.66,10.72t-2.65,10.82A8.8,8.8,0,0,1,260.88,221.7Zm0-4.24a4.28,4.28,0,0,0,4-2.5q1.32-2.49,1.32-7.86a24.37,24.37,0,0,0-.58-5.84,6.49,6.49,0,0,0-1.78-3.3,4.4,4.4,0,0,0-3-1.06,4.34,4.34,0,0,0-4,2.43c-.9,1.61-1.34,4.2-1.34,7.78a23.83,23.83,0,0,0,.6,5.86,7,7,0,0,0,1.78,3.4A4.18,4.18,0,0,0,260.88,217.46Z" fill="#1c2126"/><line x1="261.81" y1="161.23" x2="261.81" y2="128.82" fill="#ffb916" stroke="#1c2126" stroke-linecap="round" stroke-linejoin="round" stroke-width="2"/><path d="M625.67,205.68h-52A21.69,21.69,0,0,1,552,184V110.25a21.68,21.68,0,0,1,21.66-21.66h52a21.68,21.68,0,0,1,21.66,21.66V184A21.68,21.68,0,0,1,625.67,205.68Zm-52-102.26a6.84,6.84,0,0,0-6.83,6.83V184a6.85,6.85,0,0,0,6.83,6.83h52a6.85,6.85,0,0,0,6.84-6.83V110.25a6.84,6.84,0,0,0-6.84-6.83Z" fill="#b7790b" stroke="#1c2126" stroke-linejoin="round" stroke-width="2"/><rect x="458.26" y="128.82" width="282.8" height="176.2" rx="24.55" fill="#b7790b" stroke="#1c2126" stroke-linejoin="round" stroke-width="2"/><path d="M716.52,128.82H700.14a40.92,40.92,0,0,0,40.92,40.92V153.37A24.55,24.55,0,0,0,716.52,128.82Z" fill="#7a4804" stroke="#1c2126" stroke-linejoin="round" stroke-width="2"/><path d="M741.06,280.48V264.1A40.92,40.92,0,0,0,700.14,305h16.38A24.54,24.54,0,0,0,741.06,280.48Z" fill="#7a4804" stroke="#1c2126" stroke-linejoin="round" stroke-width="2"/><path d="M458.26,264.1v16.38A24.55,24.55,0,0,0,482.81,305h16.37A40.92,40.92,0,0,0,458.26,264.1Z" fill="#7a4804" stroke="#1c2126" stroke-linejoin="round" stroke-width="2"/><path d="M458.26,153.37v16.37a40.92,40.92,0,0,0,40.92-40.92H482.81A24.55,24.55,0,0,0,458.26,153.37Z" fill="#7a4804" stroke="#1c2126" stroke-linejoin="round" stroke-width="2"/><rect x="466.33" y="135.42" width="266.66" height="163" rx="22.93" fill="none" stroke="#1c2126" stroke-linecap="round" stroke-linejoin="round" stroke-width="2" stroke-dasharray="8"/><rect x="511.26" y="126.47" width="17.54" height="181.28" fill="#db4648" stroke="#1c2126" stroke-linecap="round" stroke-linejoin="round" stroke-width="2"/><polygon points="528.81 229.07 520.03 234.91 511.26 229.07 511.26 126.47 528.81 126.47 528.81 229.07" fill="#ff6b60" stroke="#1c2126" stroke-miterlimit="10" stroke-width="2"/><rect x="675.5" y="126.47" width="17.54" height="181.28" fill="#db4648" stroke="#1c2126" stroke-linecap="round" stroke-linejoin="round" stroke-width="2"/><polygon points="693.05 229.07 684.28 234.91 675.5 229.07 675.5 126.47 693.05 126.47 693.05 229.07" fill="#ff6b60" stroke="#1c2126" stroke-miterlimit="10" stroke-width="2"/><circle cx="520.03" cy="216.92" r="1" fill="#1c2126"/><circle cx="520.03" cy="205.68" r="1" fill="#1c2126"/><circle cx="520.03" cy="194.44" r="1" fill="#1c2126"/><line x1="508.11" y1="184.17" x2="532.77" y2="184.17" fill="#ff6b60" stroke="#1c2126" stroke-linecap="round" stroke-linejoin="round" stroke-width="2"/><line x1="520.03" y1="179.64" x2="520.03" y2="184.17" fill="#ff6b60" stroke="#1c2126" stroke-linecap="round" stroke-linejoin="round" stroke-width="2"/><circle cx="684.4" cy="216.92" r="1" fill="#1c2126"/><circle cx="684.4" cy="205.68" r="1" fill="#1c2126"/><circle cx="684.4" cy="194.44" r="1" fill="#1c2126"/><line x1="672.47" y1="184.17" x2="697.14" y2="184.17" fill="#ff6b60" stroke="#1c2126" stroke-linecap="round" stroke-linejoin="round" stroke-width="2"/><line x1="684.4" y1="179.64" x2="684.4" y2="184.17" fill="#ff6b60" stroke="#1c2126" stroke-linecap="round" stroke-linejoin="round" stroke-width="2"/><path d="M705.12,85.5a8.14,8.14,0,0,0-1-3.47c-.93-1.91-2.21-3.83-4.18-4.65s-4.45-.32-6.49.6a18.23,18.23,0,0,0-4.94,3.34A14.8,14.8,0,0,0,686,73.45a9.24,9.24,0,0,0-7.17-4A6.74,6.74,0,0,0,672.3,74c-.76,2.6.37,5.35,1.5,7.81q4.23,9.26,8.75,18.36l15.55-7.27C701.36,91.39,705.14,89.11,705.12,85.5Z" fill="#ff6b60" stroke="#1c2126" stroke-linejoin="round" stroke-width="2"/><polygon points="643.16 166.57 618.95 166.48 602.87 186.99 602.62 253.26 658.84 253.47 659.09 187.2 643.16 166.57" fill="#1c2126" stroke="#1c2126" stroke-linejoin="round" stroke-width="2" opacity="0.2"/><polygon points="637.65 161.28 613.44 161.19 597.36 181.69 597.11 247.96 653.33 248.17 653.58 181.9 637.65 161.28" fill="#ffb916" stroke="#1c2126" stroke-linejoin="round" stroke-width="2"/><path d="M616.85,221.31V217h6.48v-19.6h2.48l-8.31,5v-4.88l7.32-4.41h3.68V217h6.08v4.28Z" fill="#1c2126"/><line x1="625.34" y1="161.23" x2="625.34" y2="128.82" fill="#ffb916" stroke="#1c2126" stroke-linecap="round" stroke-linejoin="round" stroke-width="2"/><path d="M989.89,205.68h-52A21.69,21.69,0,0,1,916.2,184V110.25a21.68,21.68,0,0,1,21.67-21.66h52a21.68,21.68,0,0,1,21.66,21.66V184A21.69,21.69,0,0,1,989.89,205.68Zm-52-102.26a6.84,6.84,0,0,0-6.84,6.83V184a6.85,6.85,0,0,0,6.84,6.83h52a6.85,6.85,0,0,0,6.83-6.83V110.25a6.84,6.84,0,0,0-6.83-6.83Z" fill="#b7790b" stroke="#1c2126" stroke-linejoin="round" stroke-width="2"/><rect x="822.47" y="128.82" width="282.8" height="176.2" rx="24.55" fill="#b7790b" stroke="#1c2126" stroke-linejoin="round" stroke-width="2"/><path d="M1080.73,128.82h-16.37a40.92,40.92,0,0,0,40.92,40.92V153.37A24.55,24.55,0,0,0,1080.73,128.82Z" fill="#7a4804" stroke="#1c2126" stroke-linejoin="round" stroke-width="2"/><path d="M1105.28,280.48V264.1A40.92,40.92,0,0,0,1064.36,305h16.37A24.55,24.55,0,0,0,1105.28,280.48Z" fill="#7a4804" stroke="#1c2126" stroke-linejoin="round" stroke-width="2"/><path d="M822.47,264.1v16.38A24.55,24.55,0,0,0,847,305h16.37A40.92,40.92,0,0,0,822.47,264.1Z" fill="#7a4804" stroke="#1c2126" stroke-linejoin="round" stroke-width="2"/><path d="M822.47,153.37v16.37a40.92,40.92,0,0,0,40.92-40.92H847A24.55,24.55,0,0,0,822.47,153.37Z" fill="#7a4804" stroke="#1c2126" stroke-linejoin="round" stroke-width="2"/><rect x="830.54" y="135.42" width="266.66" height="163" rx="22.93" fill="none" stroke="#1c2126" stroke-linecap="round" stroke-linejoin="round" stroke-width="2" stroke-dasharray="8"/><rect x="872.51" y="127.28" width="17.54" height="181.28" fill="#db4648" stroke="#1c2126" stroke-linecap="round" stroke-linejoin="round" stroke-width="2"/><polygon points="890.06 229.88 881.28 235.72 872.51 229.88 872.51 127.28 890.06 127.28 890.06 229.88" fill="#ff6b60" stroke="#1c2126" stroke-miterlimit="10" stroke-width="2"/><rect x="1036.76" y="127.28" width="17.54" height="181.28" fill="#db4648" stroke="#1c2126" stroke-linecap="round" stroke-linejoin="round" stroke-width="2"/><polygon points="1054.3 229.88 1045.53 235.72 1036.76 229.88 1036.76 127.28 1054.3 127.28 1054.3 229.88" fill="#ff6b60" stroke="#1c2126" stroke-miterlimit="10" stroke-width="2"/><circle cx="881.29" cy="217.74" r="1" fill="#1c2126"/><circle cx="881.29" cy="206.49" r="1" fill="#1c2126"/><circle cx="881.29" cy="195.25" r="1" fill="#1c2126"/><line x1="869.36" y1="184.98" x2="894.03" y2="184.98" fill="#ff6b60" stroke="#1c2126" stroke-linecap="round" stroke-linejoin="round" stroke-width="2"/><line x1="881.29" y1="180.45" x2="881.29" y2="184.98" fill="#ff6b60" stroke="#1c2126" stroke-linecap="round" stroke-linejoin="round" stroke-width="2"/><circle cx="1045.65" cy="217.74" r="1" fill="#1c2126"/><circle cx="1045.65" cy="206.49" r="1" fill="#1c2126"/><circle cx="1045.65" cy="195.25" r="1" fill="#1c2126"/><line x1="1033.73" y1="184.98" x2="1058.39" y2="184.98" fill="#ff6b60" stroke="#1c2126" stroke-linecap="round" stroke-linejoin="round" stroke-width="2"/><line x1="1045.65" y1="180.45" x2="1045.65" y2="184.98" fill="#ff6b60" stroke="#1c2126" stroke-linecap="round" stroke-linejoin="round" stroke-width="2"/><path d="M1083.28,42.22a8.17,8.17,0,0,0-3.15-1.77c-2-.72-4.26-1.19-6.24-.4s-3.41,2.88-4.22,5a18.6,18.6,0,0,0-1.2,5.85,14.71,14.71,0,0,0-7.31-3.85,9.25,9.25,0,0,0-7.9,2.17,6.76,6.76,0,0,0-1.47,7.77c1.28,2.39,4,3.56,6.54,4.54q9.48,3.66,19.09,7l6-16.07C1084.72,49.06,1085.82,44.79,1083.28,42.22Z" fill="#ff6b60" stroke="#1c2126" stroke-linecap="round" stroke-linejoin="round" stroke-width="2"/><path d="M1063.48,89a8,8,0,0,0-1.34-3.35c-1.11-1.82-2.57-3.6-4.61-4.23s-4.46.11-6.4,1.22a18.47,18.47,0,0,0-4.6,3.8,14.73,14.73,0,0,0-3.28-7.59,9.21,9.21,0,0,0-7.51-3.25,6.73,6.73,0,0,0-6,5.12c-.51,2.67.88,5.29,2.24,7.64q5.1,8.79,10.47,17.43l14.78-8.73C1060.31,95.25,1063.85,92.61,1063.48,89Z" fill="#db4648" stroke="#1c2126" stroke-linecap="round" stroke-linejoin="round" stroke-width="2"/><polygon points="1007.38 166.57 983.16 166.48 967.08 186.99 966.84 253.26 1023.05 253.47 1023.3 187.2 1007.38 166.57" fill="#1c2126" stroke="#1c2126" stroke-linejoin="round" stroke-width="2" opacity="0.2"/><polygon points="1001.87 161.28 977.65 161.19 961.57 181.69 961.33 247.96 1017.54 248.17 1017.79 181.9 1001.87 161.28" fill="#ffb916" stroke="#1c2126" stroke-linejoin="round" stroke-width="2"/><path d="M979.75,221.31v-3.8l9.35-9.77a16.21,16.21,0,0,0,2.6-3.4,6.65,6.65,0,0,0,.84-3.2,3.75,3.75,0,0,0-1.28-3.08,5.76,5.76,0,0,0-3.72-1,10.2,10.2,0,0,0-3.76.7,11.92,11.92,0,0,0-3.52,2.18l-1.68-3.84a13,13,0,0,1,4.25-2.44,15.46,15.46,0,0,1,5.34-.92,12.68,12.68,0,0,1,5.14.91,7,7,0,0,1,3.21,2.68,7.94,7.94,0,0,1,1.1,4.28,10.69,10.69,0,0,1-1.24,5,20.74,20.74,0,0,1-3.84,5l-7.79,7.81V217h14v4.28Z" fill="#1c2126"/><line x1="989.56" y1="161.23" x2="989.56" y2="128.82" fill="#ffb916" stroke="#1c2126" stroke-linecap="round" stroke-linejoin="round" stroke-width="2"/><rect y="500" width="1200" height="130" fill="#fff"/><rect x="1097.49" y="500" width="102.51" height="130" fill="url(#a)"/><line y1="499.19" x2="1200" y2="499.19" fill="none" stroke="#1c2126" stroke-miterlimit="10"/><line x1="1097.49" y1="498.72" x2="1097.49" y2="630" fill="none" stroke="#1c2126" stroke-miterlimit="10"/><path d="M35.09,576.62V557.86H28.7v-2.38H44.05v2.38H37.67v18.76Z" fill="#1c2126"/><path d="M54.92,577.06c-4.8,0-7.75-3.46-7.75-9.3v-3.41c0-5.85,2.95-9.31,7.75-9.31s7.75,3.46,7.75,9.31v3.41C62.67,573.6,59.73,577.06,54.92,577.06Zm5.14-9.31v-3.39c0-4.41-1.93-6.87-5.14-6.87s-5.14,2.46-5.14,6.87v3.39c0,4.4,1.93,6.87,5.14,6.87S60.06,572.15,60.06,567.75Z" fill="#1c2126"/><path d="M70.82,562.75a2.65,2.65,0,1,1,2.65,2.71A2.7,2.7,0,0,1,70.82,562.75Zm0,11.25a2.65,2.65,0,1,1,2.65,2.71A2.69,2.69,0,0,1,70.82,574Z" fill="#1c2126"/><path d="M209.27,581.51a14.89,14.89,0,0,1-5.34-.91,11.41,11.41,0,0,1-6.75-6.75,14.91,14.91,0,0,1-.93-5.39,14.58,14.58,0,0,1,1-5.4,11.83,11.83,0,0,1,2.76-4.18,12.58,12.58,0,0,1,4.26-2.72,14.82,14.82,0,0,1,5.43-1,14.26,14.26,0,0,1,4.87.8,11,11,0,0,1,3.8,2.26,9.83,9.83,0,0,1,2.44,3.51,11.69,11.69,0,0,1,.86,4.56,12.33,12.33,0,0,1-.75,4.5,6.89,6.89,0,0,1-2.07,3,4.86,4.86,0,0,1-3.12,1.05,3.48,3.48,0,0,1-2.73-1,3.58,3.58,0,0,1-.78-2.81l.54.15a6.19,6.19,0,0,1-2.18,2.75,5.2,5.2,0,0,1-3,.94,4.69,4.69,0,0,1-3.68-1.45,5.79,5.79,0,0,1-1.3-4,8.75,8.75,0,0,1,.85-3.94,6.69,6.69,0,0,1,2.36-2.7,6.14,6.14,0,0,1,3.42-1,4.45,4.45,0,0,1,2.77.81,3.8,3.8,0,0,1,1.4,2.28H213l.51-2.82h2l-1.38,7.77c0,.26-.08.51-.11.75s0,.46,0,.66a2.16,2.16,0,0,0,.46,1.5,1.81,1.81,0,0,0,1.4.51,2.93,2.93,0,0,0,2.1-.87,5.81,5.81,0,0,0,1.41-2.41,11.59,11.59,0,0,0,.51-3.62,10.11,10.11,0,0,0-.72-3.9,8.21,8.21,0,0,0-2.07-3,9.34,9.34,0,0,0-3.23-1.89,12.51,12.51,0,0,0-4.18-.66,12.93,12.93,0,0,0-4.73.83,10.42,10.42,0,0,0-3.63,2.34,10.18,10.18,0,0,0-2.32,3.64,13.24,13.24,0,0,0-.81,4.74,12.85,12.85,0,0,0,1.35,6.09,9.3,9.3,0,0,0,3.86,3.92,12.09,12.09,0,0,0,5.89,1.36,12.82,12.82,0,0,0,4.53-.76,8.71,8.71,0,0,0,3.36-2.18l1,1.47a9.5,9.5,0,0,1-3.8,2.34A15.33,15.33,0,0,1,209.27,581.51Zm-1.44-8.4a4,4,0,0,0,2.46-.79,5.3,5.3,0,0,0,1.69-2.21,8,8,0,0,0,.62-3.21,3.73,3.73,0,0,0-.75-2.55,3,3,0,0,0-2.37-.84,4.29,4.29,0,0,0-2.48.75,5.1,5.1,0,0,0-1.72,2.07,7,7,0,0,0-.63,3.06,4.12,4.12,0,0,0,.82,2.76A3,3,0,0,0,207.83,573.11Z" fill="#1c2126"/><path d="M227.27,576.62v-2.13h5V557.6h1.32l-5.82,3.63v-2.49l5.19-3.27h1.8v19h4.68v2.13Z" fill="#1c2126"/><path d="M245.27,576.62v-2.13h5V557.6h1.32l-5.82,3.63v-2.49l5.19-3.27h1.8v19h4.68v2.13Z" fill="#1c2126"/><path d="M267.17,576.89a4.37,4.37,0,0,1-3.39-1.27,5.55,5.55,0,0,1-1.17-3.86v-8.31h-2.94v-1.89h2.94v-4.11l2.43-.69v4.8h4.32v1.89H265v8a4.16,4.16,0,0,0,.61,2.57,2.23,2.23,0,0,0,1.85.76,4.52,4.52,0,0,0,1-.1,5.14,5.14,0,0,0,.81-.26v2a4.69,4.69,0,0,1-1,.29A6.46,6.46,0,0,1,267.17,576.89Z" fill="#1c2126"/><path d="M271.91,583.43l-.57-2a12.5,12.5,0,0,0,2.35-.76,4.67,4.67,0,0,0,1.58-1.16,6.51,6.51,0,0,0,1.08-1.8l.78-1.77-.06,1-6.57-15.39h2.64l5.43,13.23h-.78l5.37-13.23h2.55l-7,16.32a11.58,11.58,0,0,1-1.32,2.42,7.58,7.58,0,0,1-1.55,1.59,7,7,0,0,1-1.81,1A13.08,13.08,0,0,1,271.91,583.43Z" fill="#1c2126"/><circle cx="135.29" cy="563.72" r="40" fill="#1c2126"/><path d="M1163.33,555.54h0l0,0a.19.19,0,0,1,0-.15l1.25-7.62,5.84,5.85-6.08,2.58h-.08l0,0A2.57,2.57,0,0,0,1163.33,555.54Zm8.48-.46,6.25,6.25c1.3,1.3,2,1.95,2.19,2.7l.09.33L1165.4,558h0c-.06,0-.12,0-.12-.11s.07-.1.13-.12h0Zm8.27,11.29a11.28,11.28,0,0,1-2,2.3l-7,7.05-9.12-1.9h0c-.09,0-.17,0-.17-.1a2.75,2.75,0,0,0-1.06-1.93s0-.09,0-.14v0l1.71-10.52v0c0-.08,0-.17.1-.17a2.81,2.81,0,0,0,1.87-1.07.1.1,0,0,1,0,0,.22.22,0,0,1,.17,0l15.56,6.58Zm-10.68,11-11.59,11.58,2-12.19h0a.09.09,0,0,1,0-.05s0,0,.09-.07h0a2.88,2.88,0,0,0,1.12-.83.25.25,0,0,1,.15-.1h0l8.16,1.68Zm-14,14-1.31,1.3-14.44-20.87,0,0a.18.18,0,0,1,0-.1s0,0,0-.06v0a2.12,2.12,0,0,0,.12-.2l0-.06h0a.27.27,0,0,1,.08-.1.17.17,0,0,1,.12,0l16,3.3a.18.18,0,0,1,.12.05.09.09,0,0,1,0,.07,2.81,2.81,0,0,0,1.66,1.89s0,.08,0,.13l0,.07C1157.55,578,1155.82,588.53,1155.36,591.38Zm-2.73,2.72a6.1,6.1,0,0,1-2.17,1.67,3.24,3.24,0,0,1-2,0c-.75-.24-1.4-.89-2.7-2.19l-14.5-14.5,3.79-5.88a.2.2,0,0,1,.06-.07.16.16,0,0,1,.15,0A3.93,3.93,0,0,0,1138,573s.09,0,.12,0l0,0,14.51,21.06Zm-22.72-16.42-3.32-3.33,6.57-2.8h0s.09.05.11.1l.21.3,0,0a.09.09,0,0,1,0,.08l-3.63,5.63Zm-4.8-4.8-4.21-4.21c-.71-.71-1.23-1.23-1.59-1.68l12.8,2.65h0c.08,0,.17,0,.17.1s-.1.12-.18.15l0,0Zm-6.54-8a3.54,3.54,0,0,1,.15-.8c.24-.75.89-1.4,2.18-2.7l5.39-5.39q3.72,5.4,7.46,10.78c0,.06.09.13,0,.18a4.35,4.35,0,0,0-.63.85.28.28,0,0,1-.09.1H1133l-14.43-3Zm9.16-10.33,7.24-7.24c.68.3,3.16,1.34,5.38,2.28l3.68,1.56a.17.17,0,0,1,.11.09.12.12,0,0,1,0,.1,3.22,3.22,0,0,0,.85,2.94s0,.12,0,.18l0,0-7.35,11.38a.31.31,0,0,1-.07.09.22.22,0,0,1-.14,0,3.2,3.2,0,0,0-.87-.12,5.05,5.05,0,0,0-.84.1h0s-.06,0-.08,0a.3.3,0,0,1-.08-.08l-7.75-11.31Zm8.71-8.7,9.37-9.38c1.3-1.3,2-1.95,2.7-2.19a3.24,3.24,0,0,1,2,0c.75.24,1.4.89,2.7,2.19l2,2-6.67,10.33-.07.08a.22.22,0,0,1-.14,0,3.39,3.39,0,0,0-3.1.59s-.11,0-.16,0C1144.18,549.07,1137.41,546.21,1136.44,545.8Zm20.16-5.93,6.16,6.15-1.48,9.19v0a.14.14,0,0,1,0,.06s0,0-.08.05a2.8,2.8,0,0,0-.88.44l0,0a.1.1,0,0,1-.07,0s0,0-.07,0l-9.38-4h0c-.06,0-.13-.05-.13-.12a3.39,3.39,0,0,0-.5-1.47c0-.08-.09-.15,0-.23Zm-6.34,13.88,8.8,3.72a.19.19,0,0,1,.12.09.17.17,0,0,1,0,.1,1.79,1.79,0,0,0,0,.42v.25c0,.06-.06.08-.12.11h0l-19.58,8.35a.11.11,0,0,1-.09,0s0-.12,0-.18l0,0,7.23-11.19v0c0-.07.09-.15.17-.15l.07,0a3.75,3.75,0,0,0,.45,0,3.25,3.25,0,0,0,2.73-1.45l0-.06A.15.15,0,0,1,1150.26,553.75Zm-10.07,14.81,19.8-8.45a.09.09,0,0,1,.06,0,2.82,2.82,0,0,0,.29.25l0,0s.08.05.09.1a.08.08,0,0,1,0,0L1158.77,571v0c0,.08,0,.17-.1.17a2.75,2.75,0,0,0-2.21,1.37h0a.18.18,0,0,1-.08.09.14.14,0,0,1-.11,0l-15.8-3.25S1140.21,568.56,1140.19,568.56Z" fill="#fff"/><line x1="548.51" y1="498.72" x2="548.51" y2="630" fill="none" stroke="#1c2126" stroke-miterlimit="10"/><path d="M584.7,576.62V555.48h12.46v2.38h-9.87v7.25h9v2.3h-9v9.21Z" fill="#1c2126"/><path d="M604.74,568.2v8.42h-2.55V555.48h7.09c4.19,0,6.81,2.44,6.81,6.36a5.91,5.91,0,0,1-3.94,5.83l4.31,9h-2.92l-3.94-8.42Zm0-2.18h4.19c2.91,0,4.55-1.48,4.55-4.12s-1.61-4.12-4.44-4.12h-4.3Z" fill="#1c2126"/><path d="M627.34,577.06c-4.8,0-7.75-3.46-7.75-9.3v-3.41c0-5.85,2.95-9.31,7.75-9.31s7.75,3.46,7.75,9.31v3.41C635.09,573.6,632.14,577.06,627.34,577.06Zm5.14-9.31v-3.39c0-4.41-1.93-6.87-5.14-6.87s-5.14,2.46-5.14,6.87v3.39c0,4.4,1.93,6.87,5.14,6.87S632.48,572.15,632.48,567.75Z" fill="#1c2126"/><path d="M640.57,576.62h-2.3V555.48h2.88l4.65,13.13H646l4.61-13.13h2.9v21.14h-2.3v-8.11l.13-8.56h-.19l-4.25,11.71h-2L640.62,560h-.18l.13,8.56Z" fill="#1c2126"/><path d="M661.78,562.75a2.65,2.65,0,1,1,2.65,2.71A2.7,2.7,0,0,1,661.78,562.75Zm0,11.25a2.65,2.65,0,1,1,2.65,2.71A2.69,2.69,0,0,1,661.78,574Z" fill="#1c2126"/><path d="M804.86,581.51a14.89,14.89,0,0,1-5.34-.91,11.41,11.41,0,0,1-6.75-6.75,14.91,14.91,0,0,1-.93-5.39,14.58,14.58,0,0,1,1-5.4,11.83,11.83,0,0,1,2.76-4.18,12.58,12.58,0,0,1,4.26-2.72,14.82,14.82,0,0,1,5.43-1,14.31,14.31,0,0,1,4.88.8,11,11,0,0,1,3.79,2.26,10,10,0,0,1,2.45,3.51,11.69,11.69,0,0,1,.85,4.56,12.33,12.33,0,0,1-.75,4.5,6.89,6.89,0,0,1-2.07,3,4.86,4.86,0,0,1-3.12,1.05,3.48,3.48,0,0,1-2.73-1,3.58,3.58,0,0,1-.78-2.81l.54.15a6.18,6.18,0,0,1-2.17,2.75,5.24,5.24,0,0,1-3,.94,4.67,4.67,0,0,1-3.67-1.45,5.8,5.8,0,0,1-1.31-4,8.75,8.75,0,0,1,.86-3.94,6.66,6.66,0,0,1,2.35-2.7,6.14,6.14,0,0,1,3.42-1,4.48,4.48,0,0,1,2.78.81,3.79,3.79,0,0,1,1.39,2.28h-.36l.51-2.82h2l-1.38,7.77c0,.26-.07.51-.1.75a5.42,5.42,0,0,0,0,.66,2.16,2.16,0,0,0,.47,1.5,1.78,1.78,0,0,0,1.39.51,2.93,2.93,0,0,0,2.1-.87,5.81,5.81,0,0,0,1.41-2.41,11.59,11.59,0,0,0,.51-3.62,10.11,10.11,0,0,0-.72-3.9,8.21,8.21,0,0,0-2.07-3,9.29,9.29,0,0,0-3.22-1.89,12.57,12.57,0,0,0-4.19-.66,12.88,12.88,0,0,0-4.72.83,10.42,10.42,0,0,0-3.63,2.34,10.21,10.21,0,0,0-2.33,3.64,13.24,13.24,0,0,0-.81,4.74,12.85,12.85,0,0,0,1.35,6.09,9.35,9.35,0,0,0,3.86,3.92,12.12,12.12,0,0,0,5.89,1.36,12.82,12.82,0,0,0,4.53-.76,8.71,8.71,0,0,0,3.36-2.18l1,1.47A9.46,9.46,0,0,1,810,580.7,15.39,15.39,0,0,1,804.86,581.51Zm-1.44-8.4a4,4,0,0,0,2.46-.79,5.31,5.31,0,0,0,1.7-2.21,8,8,0,0,0,.61-3.21,3.73,3.73,0,0,0-.75-2.55,3,3,0,0,0-2.37-.84,4.26,4.26,0,0,0-2.47.75,5.12,5.12,0,0,0-1.73,2.07,7,7,0,0,0-.63,3.06,4.12,4.12,0,0,0,.83,2.76A2.93,2.93,0,0,0,803.42,573.11Z" fill="#1c2126"/><path d="M821.42,576.62V554.54h2.43v22.08Z" fill="#1c2126"/><path d="M828,583.43l-.57-2a12.62,12.62,0,0,0,2.36-.76,4.63,4.63,0,0,0,1.57-1.16,6.51,6.51,0,0,0,1.08-1.8l.78-1.77-.06,1-6.57-15.39h2.64l5.43,13.23h-.78l5.37-13.23h2.55l-7,16.32a11.58,11.58,0,0,1-1.32,2.42,7.55,7.55,0,0,1-1.54,1.59,7.06,7.06,0,0,1-1.82,1A13.08,13.08,0,0,1,828,583.43Z" fill="#1c2126"/><path d="M844.49,576.62V565c0-.56,0-1.13-.07-1.72s-.11-1.18-.17-1.76h2.34l.3,3.3h-.36a5.21,5.21,0,0,1,2.12-2.65,6.19,6.19,0,0,1,3.37-.92,5.35,5.35,0,0,1,4,1.43,6.29,6.29,0,0,1,1.36,4.48v9.42H855v-9.27a4.63,4.63,0,0,0-.85-3.1,3.36,3.36,0,0,0-2.66-1,4.38,4.38,0,0,0-3.33,1.29,4.79,4.79,0,0,0-1.23,3.45v8.61Z" fill="#1c2126"/><path d="M862.07,576.62V565c0-.56,0-1.13-.07-1.72s-.11-1.18-.17-1.76h2.34l.3,3.3h-.36a5.21,5.21,0,0,1,2.12-2.65,6.19,6.19,0,0,1,3.37-.92,5.35,5.35,0,0,1,4,1.43A6.29,6.29,0,0,1,875,567.2v9.42h-2.43v-9.27a4.63,4.63,0,0,0-.85-3.1,3.36,3.36,0,0,0-2.66-1,4.38,4.38,0,0,0-3.33,1.29A4.79,4.79,0,0,0,864.5,568v8.61Z" fill="#1c2126"/><path d="M885.38,576.89a6.44,6.44,0,0,1-3.51-.94,6.25,6.25,0,0,1-2.32-2.69,11,11,0,0,1,0-8.37,6.14,6.14,0,0,1,2.32-2.67,6.52,6.52,0,0,1,3.51-.93,6,6,0,0,1,3.53,1,4.85,4.85,0,0,1,2,2.8h-.36l.33-3.57h2.34c-.06.58-.11,1.17-.16,1.76s-.08,1.16-.08,1.72v11.58h-2.43v-3.54h.33a4.78,4.78,0,0,1-2,2.79A6,6,0,0,1,885.38,576.89Zm.48-2a4.25,4.25,0,0,0,3.42-1.48,8.14,8.14,0,0,0,0-8.7,4.65,4.65,0,0,0-6.82,0,8,8,0,0,0,0,8.7A4.25,4.25,0,0,0,885.86,574.91Z" fill="#1c2126"/><path d="M897.65,576.62V565c0-.56,0-1.13-.07-1.72s-.11-1.18-.17-1.76h2.34l.3,3.3h-.36a5.21,5.21,0,0,1,2.12-2.65,6.19,6.19,0,0,1,3.37-.92,5.35,5.35,0,0,1,4,1.43,6.29,6.29,0,0,1,1.36,4.48v9.42h-2.43v-9.27a4.63,4.63,0,0,0-.85-3.1,3.36,3.36,0,0,0-2.66-1,4.38,4.38,0,0,0-3.33,1.29,4.79,4.79,0,0,0-1.23,3.45v8.61Z" fill="#1c2126"/><path d="M920.93,576.89a6.39,6.39,0,0,1-3.48-.94,6.25,6.25,0,0,1-2.32-2.69,11,11,0,0,1,0-8.37,6.14,6.14,0,0,1,2.32-2.67,6.47,6.47,0,0,1,3.48-.93,6.09,6.09,0,0,1,3.53,1,4.93,4.93,0,0,1,2,2.76h-.36V554.54h2.43v22.08h-2.4V573h.33a4.86,4.86,0,0,1-2,2.84A6.08,6.08,0,0,1,920.93,576.89Zm.51-2a4.3,4.3,0,0,0,3.42-1.48,8,8,0,0,0,0-8.7,4.31,4.31,0,0,0-3.42-1.49,4.26,4.26,0,0,0-3.4,1.49,8,8,0,0,0,0,8.7A4.25,4.25,0,0,0,921.44,574.91Z" fill="#1c2126"/><path d="M938.57,576.89a4.37,4.37,0,0,1-3.39-1.27,5.55,5.55,0,0,1-1.17-3.86v-8.31h-2.94v-1.89H934v-4.11l2.43-.69v4.8h4.32v1.89h-4.32v8a4.16,4.16,0,0,0,.62,2.57,2.21,2.21,0,0,0,1.84.76,4.52,4.52,0,0,0,1-.1,5.14,5.14,0,0,0,.81-.26v2a4.59,4.59,0,0,1-1,.29A6.57,6.57,0,0,1,938.57,576.89Z" fill="#1c2126"/><path d="M949.76,576.89A7.26,7.26,0,0,1,946,576a6.3,6.3,0,0,1-2.48-2.7,10.4,10.4,0,0,1,0-8.33,6.31,6.31,0,0,1,2.48-2.68,7.27,7.27,0,0,1,3.76-1,7.37,7.37,0,0,1,3.8,1,6.39,6.39,0,0,1,2.49,2.68,10.3,10.3,0,0,1,0,8.33,6.39,6.39,0,0,1-2.49,2.7A7.36,7.36,0,0,1,949.76,576.89Zm0-2a4.25,4.25,0,0,0,3.42-1.48,8.14,8.14,0,0,0,0-8.7,4.64,4.64,0,0,0-6.81,0,8.14,8.14,0,0,0,0,8.7A4.21,4.21,0,0,0,949.76,574.91Z" fill="#1c2126"/><path d="M960.71,576.62V565c0-.56,0-1.13-.07-1.72s-.11-1.18-.17-1.76h2.34l.3,3.3h-.36a5.21,5.21,0,0,1,2.12-2.65,6.19,6.19,0,0,1,3.37-.92,5.35,5.35,0,0,1,4,1.43,6.29,6.29,0,0,1,1.36,4.48v9.42h-2.43v-9.27a4.63,4.63,0,0,0-.85-3.1,3.36,3.36,0,0,0-2.66-1,4.38,4.38,0,0,0-3.33,1.29,4.79,4.79,0,0,0-1.23,3.45v8.61Z" fill="#1c2126"/><path d="M978,558.14v-2.73h3v2.73Zm.3,18.48V561.56h2.43v15.06Z" fill="#1c2126"/><path d="M991.76,576.89a7.46,7.46,0,0,1-3.85-1,6.41,6.41,0,0,1-2.52-2.73,9.29,9.29,0,0,1-.89-4.2,8.93,8.93,0,0,1,.9-4.18,6.2,6.2,0,0,1,2.54-2.63,7.79,7.79,0,0,1,3.82-.9,8,8,0,0,1,2.81.51,6,6,0,0,1,2.26,1.44L996,565a6,6,0,0,0-2-1.29,5.69,5.69,0,0,0-2.09-.42,4.57,4.57,0,0,0-3.63,1.47A6.32,6.32,0,0,0,987,569a6.51,6.51,0,0,0,1.29,4.32,4.49,4.49,0,0,0,3.63,1.53,6,6,0,0,0,2.06-.39,5.66,5.66,0,0,0,2-1.29l.87,1.71a6.11,6.11,0,0,1-2.31,1.47A7.91,7.91,0,0,1,991.76,576.89Z" fill="#1c2126"/><circle cx="730.89" cy="563.72" r="40" fill="#1c2126"/></svg>