<svg xmlns="http://www.w3.org/2000/svg" width="1200" height="630" viewBox="0 0 1200 630"><rect x="-3730.07" y="-89.85" width="6221.73" height="2273.11" fill="#a6a6a6"/><rect width="1200" height="498.72" fill="#ffdd73"/><path d="M67.52,440.17l10.7-67.36h31.24q13.38,0,19.16,5.88t4.06,16.67a22.88,22.88,0,0,1-4.59,10.84,24.19,24.19,0,0,1-9.46,7.22A32.71,32.71,0,0,1,105.26,416l.19-2.77h5.06a10.75,10.75,0,0,1,7.12,2.43,16.29,16.29,0,0,1,4.54,6.36l7.55,18.15h-21.5L100,419a3.66,3.66,0,0,0-2.43-2.06,11.74,11.74,0,0,0-3.68-.62H92l-3.82,23.89Zm26.75-38.31h9.27q4.39,0,6.69-1.63a6.83,6.83,0,0,0,2.77-4.77q.57-3.63-1.44-5.31c-1.33-1.11-3.44-1.67-6.3-1.67H96.37Z" fill="#1c2126"/><path d="M168.22,441.31A37.06,37.06,0,0,1,151.88,438a19.8,19.8,0,0,1-9.79-10.22q-3-6.93-1.29-17.73l5.92-37.26h20.64l-6.12,38.7q-.94,6.11,1.1,9.41t8.07,3.29q5.44,0,8.27-3.34t3.77-9.75l6.12-38.31h20.25l-6.21,39A45,45,0,0,1,197.12,428a25.15,25.15,0,0,1-11,9.94Q179,441.31,168.22,441.31Z" fill="#1c2126"/><path d="M208.72,440.17l10.71-67.36h15.09l25.22,39.08-3-1.34,6-37.74H282l-10.7,67.36H256.21l-25.13-39.08,3,1.34-6,37.74Z" fill="#1c2126"/><path d="M302.06,440.17l42.71-67.36h16.72L383,440.17H363l-5.16-18.25,6.88,5.73H325.66l8.51-5.73-10.89,18.25Zm48.35-46.34-13.57,23.6-2-5.35h25.7l-3.44,5.35-6.21-23.6Z" fill="#1c2126"/><path d="M385.28,440.17,396,372.81h31.24q13.38,0,19.16,5.88t4.06,16.67a22.88,22.88,0,0,1-4.59,10.84,24.19,24.19,0,0,1-9.46,7.22A32.71,32.71,0,0,1,423,416l.19-2.77h5.06a10.75,10.75,0,0,1,7.12,2.43,16.29,16.29,0,0,1,4.54,6.36l7.54,18.15H426L417.76,419a3.66,3.66,0,0,0-2.43-2.06,11.74,11.74,0,0,0-3.68-.62h-1.91l-3.82,23.89ZM412,401.86h9.27q4.4,0,6.68-1.63a6.8,6.8,0,0,0,2.78-4.77q.57-3.63-1.44-5.31t-6.3-1.67h-8.89Z" fill="#1c2126"/><path d="M454.07,440.17l10.7-67.36H496q13.37,0,19.15,5.88t4.06,16.67a22.77,22.77,0,0,1-4.58,10.84,24.26,24.26,0,0,1-9.46,7.22A32.79,32.79,0,0,1,491.8,416l.19-2.77h5.07a10.77,10.77,0,0,1,7.12,2.43,16.17,16.17,0,0,1,4.53,6.36l7.55,18.15H494.77L486.55,419a3.66,3.66,0,0,0-2.44-2.06,11.68,11.68,0,0,0-3.67-.62h-1.92l-3.82,23.89Zm26.75-38.31h9.26q4.4,0,6.69-1.63a6.79,6.79,0,0,0,2.77-4.77c.38-2.42-.09-4.19-1.43-5.31s-3.44-1.67-6.31-1.67h-8.88Z" fill="#1c2126"/><path d="M512.63,440.17l42.71-67.36h16.71l21.5,67.36h-20l-5.16-18.25,6.88,5.73H536.23l8.5-5.73-10.89,18.25ZM561,393.83l-13.56,23.6-2-5.35h25.7l-3.44,5.35-6.21-23.6Z" fill="#1c2126"/><path d="M605.88,440.17,611,407.78l2.19,11.08-23.4-46.05h23l11.56,25h-3.92l19.68-25h23.7l-38.12,47,5.92-12-5.16,32.39Z" fill="#1c2126"/><path d="M701.7,440.17l-13.57-67.36h20.54l7.07,45h-4.68l23.41-45h14.62l7.26,45h-4.49l22.83-45h20.54l-35.06,67.36H743.83l-7.54-39.36h2.19l-20.35,39.36Z" fill="#1c2126"/><path d="M790.84,440.17l10.7-67.36h20.63l-10.7,67.36Z" fill="#1c2126"/><path d="M837.65,440.17l8-50.73H826.19l2.67-16.63h59.62l-2.68,16.63H866.31l-8,50.73Z" fill="#1c2126"/><path d="M884.46,440.17l10.7-67.36H915.8l-4,24.84h23l4-24.84h20.64l-10.7,67.36H928.12l4.11-25.7h-23l-4.11,25.7Z" fill="#1c2126"/><path d="M988.6,440.17l10.7-67.36h18l13.19,45.77h-3.25l27.7-45.77h18l-10.7,67.36h-18.63l5.74-36.4h4.58l-22.93,36.4h-11.37l-11.46-36.4H1013l-5.73,36.4Z" fill="#1c2126"/><path d="M1073.53,440.17l10.7-67.36h50l-2.48,15.67h-30.29l-1.53,9.65h28l-2.48,15.67h-28l-1.72,10.7H1126l-2.48,15.67Z" fill="#1c2126"/><path d="M262.14,205.68h-52A21.69,21.69,0,0,1,188.45,184V110.25a21.68,21.68,0,0,1,21.67-21.66h52a21.68,21.68,0,0,1,21.66,21.66V184A21.69,21.69,0,0,1,262.14,205.68Zm-52-102.26a6.84,6.84,0,0,0-6.84,6.83V184a6.85,6.85,0,0,0,6.84,6.83h52A6.85,6.85,0,0,0,269,184V110.25a6.84,6.84,0,0,0-6.83-6.83Z" fill="#b7790b" stroke="#1c2126" stroke-linejoin="round" stroke-width="2"/><rect x="94.72" y="128.82" width="282.8" height="176.2" rx="24.55" fill="#b7790b" stroke="#1c2126" stroke-linejoin="round" stroke-width="2"/><path d="M353,128.82H336.61a40.92,40.92,0,0,0,40.92,40.92V153.37A24.55,24.55,0,0,0,353,128.82Z" fill="#7a4804" stroke="#1c2126" stroke-linejoin="round" stroke-width="2"/><path d="M377.53,280.48V264.1A40.92,40.92,0,0,0,336.61,305H353A24.55,24.55,0,0,0,377.53,280.48Z" fill="#7a4804" stroke="#1c2126" stroke-linejoin="round" stroke-width="2"/><path d="M94.72,264.1v16.38A24.55,24.55,0,0,0,119.27,305h16.37A40.92,40.92,0,0,0,94.72,264.1Z" fill="#7a4804" stroke="#1c2126" stroke-linejoin="round" stroke-width="2"/><path d="M94.72,153.37v16.37a40.92,40.92,0,0,0,40.92-40.92H119.27A24.55,24.55,0,0,0,94.72,153.37Z" fill="#7a4804" stroke="#1c2126" stroke-linejoin="round" stroke-width="2"/><rect x="102.79" y="135.42" width="266.66" height="163" rx="22.93" fill="none" stroke="#1c2126" stroke-linecap="round" stroke-linejoin="round" stroke-width="2" stroke-dasharray="8"/><rect x="145.65" y="126.28" width="17.54" height="181.28" fill="#db4648" stroke="#1c2126" stroke-linecap="round" stroke-linejoin="round" stroke-width="2"/><polygon points="163.19 228.88 154.42 234.72 145.65 228.88 145.65 126.28 163.19 126.28 163.19 228.88" fill="#ff6b60" stroke="#1c2126" stroke-miterlimit="10" stroke-width="2"/><rect x="309.89" y="126.28" width="17.54" height="181.28" fill="#db4648" stroke="#1c2126" stroke-linecap="round" stroke-linejoin="round" stroke-width="2"/><polygon points="327.44 228.88 318.67 234.72 309.89 228.88 309.89 126.28 327.44 126.28 327.44 228.88" fill="#ff6b60" stroke="#1c2126" stroke-miterlimit="10" stroke-width="2"/><circle cx="154.42" cy="216.74" r="1" fill="#1c2126"/><circle cx="154.42" cy="205.49" r="1" fill="#1c2126"/><circle cx="154.42" cy="194.25" r="1" fill="#1c2126"/><line x1="142.5" y1="183.98" x2="167.16" y2="183.98" fill="#ff6b60" stroke="#1c2126" stroke-linecap="round" stroke-linejoin="round" stroke-width="2"/><line x1="154.42" y1="179.45" x2="154.42" y2="183.98" fill="#ff6b60" stroke="#1c2126" stroke-linecap="round" stroke-linejoin="round" stroke-width="2"/><circle cx="318.79" cy="216.74" r="1" fill="#1c2126"/><circle cx="318.79" cy="205.49" r="1" fill="#1c2126"/><circle cx="318.79" cy="194.25" r="1" fill="#1c2126"/><line x1="306.86" y1="183.98" x2="331.53" y2="183.98" fill="#ff6b60" stroke="#1c2126" stroke-linecap="round" stroke-linejoin="round" stroke-width="2"/><line x1="318.79" y1="179.45" x2="318.79" y2="183.98" fill="#ff6b60" stroke="#1c2126" stroke-linecap="round" stroke-linejoin="round" stroke-width="2"/><path d="M162,67a8.32,8.32,0,0,0-3.15-1.77c-2-.72-4.27-1.19-6.25-.4s-3.41,2.88-4.22,5a18.6,18.6,0,0,0-1.2,5.85,14.71,14.71,0,0,0-7.31-3.85A9.22,9.22,0,0,0,132,74a6.75,6.75,0,0,0-1.48,7.77c1.28,2.39,4,3.56,6.54,4.54q9.48,3.66,19.09,7l6-16.07C163.42,73.86,164.52,69.59,162,67Z" fill="#ff6b60" stroke="#1c2126" stroke-linejoin="round" stroke-width="2"/><path d="M197.84,51.89a8.31,8.31,0,0,0-1.23-3.4c-1.06-1.85-2.45-3.68-4.47-4.38s-4.46,0-6.44,1A18.13,18.13,0,0,0,181,48.76a14.71,14.71,0,0,0-3-7.69,9.2,9.2,0,0,0-7.4-3.51,6.76,6.76,0,0,0-6.19,4.92c-.59,2.65.71,5.32,2,7.71q4.8,9,9.89,17.77,7.53-4.11,15-8.23C194.46,58,198.08,55.49,197.84,51.89Z" fill="#db4648" stroke="#1c2126" stroke-linecap="round" stroke-linejoin="round" stroke-width="2"/><polygon points="279.63 166.57 255.41 166.48 239.33 186.99 239.09 253.26 295.3 253.47 295.55 187.2 279.63 166.57" fill="#1c2126" stroke="#1c2126" stroke-linejoin="round" stroke-width="2" opacity="0.2"/><polygon points="274.12 161.28 249.9 161.19 233.82 181.69 233.57 247.96 289.79 248.17 290.04 181.9 274.12 161.28" fill="#ffb916" stroke="#1c2126" stroke-linejoin="round" stroke-width="2"/><path d="M260.88,221.7a8.76,8.76,0,0,1-7.64-3.77q-2.69-3.78-2.69-10.78t2.68-10.76a9.78,9.78,0,0,1,15.3,0q2.66,3.68,2.66,10.72t-2.65,10.82A8.8,8.8,0,0,1,260.88,221.7Zm0-4.24a4.28,4.28,0,0,0,4-2.5q1.32-2.49,1.32-7.86a24.37,24.37,0,0,0-.58-5.84,6.49,6.49,0,0,0-1.78-3.3,4.4,4.4,0,0,0-3-1.06,4.34,4.34,0,0,0-4,2.43c-.9,1.61-1.34,4.2-1.34,7.78a23.83,23.83,0,0,0,.6,5.86,7,7,0,0,0,1.78,3.4A4.18,4.18,0,0,0,260.88,217.46Z" fill="#1c2126"/><line x1="261.81" y1="161.23" x2="261.81" y2="128.82" fill="#ffb916" stroke="#1c2126" stroke-linecap="round" stroke-linejoin="round" stroke-width="2"/><path d="M625.67,205.68h-52A21.69,21.69,0,0,1,552,184V110.25a21.68,21.68,0,0,1,21.66-21.66h52a21.68,21.68,0,0,1,21.66,21.66V184A21.68,21.68,0,0,1,625.67,205.68Zm-52-102.26a6.84,6.84,0,0,0-6.83,6.83V184a6.85,6.85,0,0,0,6.83,6.83h52a6.85,6.85,0,0,0,6.84-6.83V110.25a6.84,6.84,0,0,0-6.84-6.83Z" fill="#b7790b" stroke="#1c2126" stroke-linejoin="round" stroke-width="2"/><rect x="458.26" y="128.82" width="282.8" height="176.2" rx="24.55" fill="#b7790b" stroke="#1c2126" stroke-linejoin="round" stroke-width="2"/><path d="M716.52,128.82H700.14a40.92,40.92,0,0,0,40.92,40.92V153.37A24.55,24.55,0,0,0,716.52,128.82Z" fill="#7a4804" stroke="#1c2126" stroke-linejoin="round" stroke-width="2"/><path d="M741.06,280.48V264.1A40.92,40.92,0,0,0,700.14,305h16.38A24.54,24.54,0,0,0,741.06,280.48Z" fill="#7a4804" stroke="#1c2126" stroke-linejoin="round" stroke-width="2"/><path d="M458.26,264.1v16.38A24.55,24.55,0,0,0,482.81,305h16.37A40.92,40.92,0,0,0,458.26,264.1Z" fill="#7a4804" stroke="#1c2126" stroke-linejoin="round" stroke-width="2"/><path d="M458.26,153.37v16.37a40.92,40.92,0,0,0,40.92-40.92H482.81A24.55,24.55,0,0,0,458.26,153.37Z" fill="#7a4804" stroke="#1c2126" stroke-linejoin="round" stroke-width="2"/><rect x="466.33" y="135.42" width="266.66" height="163" rx="22.93" fill="none" stroke="#1c2126" stroke-linecap="round" stroke-linejoin="round" stroke-width="2" stroke-dasharray="8"/><rect x="511.26" y="126.47" width="17.54" height="181.28" fill="#db4648" stroke="#1c2126" stroke-linecap="round" stroke-linejoin="round" stroke-width="2"/><polygon points="528.81 229.07 520.03 234.91 511.26 229.07 511.26 126.47 528.81 126.47 528.81 229.07" fill="#ff6b60" stroke="#1c2126" stroke-miterlimit="10" stroke-width="2"/><rect x="675.5" y="126.47" width="17.54" height="181.28" fill="#db4648" stroke="#1c2126" stroke-linecap="round" stroke-linejoin="round" stroke-width="2"/><polygon points="693.05 229.07 684.28 234.91 675.5 229.07 675.5 126.47 693.05 126.47 693.05 229.07" fill="#ff6b60" stroke="#1c2126" stroke-miterlimit="10" stroke-width="2"/><circle cx="520.03" cy="216.92" r="1" fill="#1c2126"/><circle cx="520.03" cy="205.68" r="1" fill="#1c2126"/><circle cx="520.03" cy="194.44" r="1" fill="#1c2126"/><line x1="508.11" y1="184.17" x2="532.77" y2="184.17" fill="#ff6b60" stroke="#1c2126" stroke-linecap="round" stroke-linejoin="round" stroke-width="2"/><line x1="520.03" y1="179.64" x2="520.03" y2="184.17" fill="#ff6b60" stroke="#1c2126" stroke-linecap="round" stroke-linejoin="round" stroke-width="2"/><circle cx="684.4" cy="216.92" r="1" fill="#1c2126"/><circle cx="684.4" cy="205.68" r="1" fill="#1c2126"/><circle cx="684.4" cy="194.44" r="1" fill="#1c2126"/><line x1="672.47" y1="184.17" x2="697.14" y2="184.17" fill="#ff6b60" stroke="#1c2126" stroke-linecap="round" stroke-linejoin="round" stroke-width="2"/><line x1="684.4" y1="179.64" x2="684.4" y2="184.17" fill="#ff6b60" stroke="#1c2126" stroke-linecap="round" stroke-linejoin="round" stroke-width="2"/><path d="M705.12,85.5a8.14,8.14,0,0,0-1-3.47c-.93-1.91-2.21-3.83-4.18-4.65s-4.45-.32-6.49.6a18.23,18.23,0,0,0-4.94,3.34A14.8,14.8,0,0,0,686,73.45a9.24,9.24,0,0,0-7.17-4A6.74,6.74,0,0,0,672.3,74c-.76,2.6.37,5.35,1.5,7.81q4.23,9.26,8.75,18.36l15.55-7.27C701.36,91.39,705.14,89.11,705.12,85.5Z" fill="#ff6b60" stroke="#1c2126" stroke-linejoin="round" stroke-width="2"/><polygon points="643.16 166.57 618.95 166.48 602.87 186.99 602.62 253.26 658.84 253.47 659.09 187.2 643.16 166.57" fill="#1c2126" stroke="#1c2126" stroke-linejoin="round" stroke-width="2" opacity="0.2"/><polygon points="637.65 161.28 613.44 161.19 597.36 181.69 597.11 247.96 653.33 248.17 653.58 181.9 637.65 161.28" fill="#ffb916" stroke="#1c2126" stroke-linejoin="round" stroke-width="2"/><path d="M616.85,221.31V217h6.48v-19.6h2.48l-8.31,5v-4.88l7.32-4.41h3.68V217h6.08v4.28Z" fill="#1c2126"/><line x1="625.34" y1="161.23" x2="625.34" y2="128.82" fill="#ffb916" stroke="#1c2126" stroke-linecap="round" stroke-linejoin="round" stroke-width="2"/><path d="M989.89,205.68h-52A21.69,21.69,0,0,1,916.2,184V110.25a21.68,21.68,0,0,1,21.67-21.66h52a21.68,21.68,0,0,1,21.66,21.66V184A21.69,21.69,0,0,1,989.89,205.68Zm-52-102.26a6.84,6.84,0,0,0-6.84,6.83V184a6.85,6.85,0,0,0,6.84,6.83h52a6.85,6.85,0,0,0,6.83-6.83V110.25a6.84,6.84,0,0,0-6.83-6.83Z" fill="#b7790b" stroke="#1c2126" stroke-linejoin="round" stroke-width="2"/><rect x="822.47" y="128.82" width="282.8" height="176.2" rx="24.55" fill="#b7790b" stroke="#1c2126" stroke-linejoin="round" stroke-width="2"/><path d="M1080.73,128.82h-16.37a40.92,40.92,0,0,0,40.92,40.92V153.37A24.55,24.55,0,0,0,1080.73,128.82Z" fill="#7a4804" stroke="#1c2126" stroke-linejoin="round" stroke-width="2"/><path d="M1105.28,280.48V264.1A40.92,40.92,0,0,0,1064.36,305h16.37A24.55,24.55,0,0,0,1105.28,280.48Z" fill="#7a4804" stroke="#1c2126" stroke-linejoin="round" stroke-width="2"/><path d="M822.47,264.1v16.38A24.55,24.55,0,0,0,847,305h16.37A40.92,40.92,0,0,0,822.47,264.1Z" fill="#7a4804" stroke="#1c2126" stroke-linejoin="round" stroke-width="2"/><path d="M822.47,153.37v16.37a40.92,40.92,0,0,0,40.92-40.92H847A24.55,24.55,0,0,0,822.47,153.37Z" fill="#7a4804" stroke="#1c2126" stroke-linejoin="round" stroke-width="2"/><rect x="830.54" y="135.42" width="266.66" height="163" rx="22.93" fill="none" stroke="#1c2126" stroke-linecap="round" stroke-linejoin="round" stroke-width="2" stroke-dasharray="8"/><rect x="872.51" y="127.28" width="17.54" height="181.28" fill="#db4648" stroke="#1c2126" stroke-linecap="round" stroke-linejoin="round" stroke-width="2"/><polygon points="890.06 229.88 881.28 235.72 872.51 229.88 872.51 127.28 890.06 127.28 890.06 229.88" fill="#ff6b60" stroke="#1c2126" stroke-miterlimit="10" stroke-width="2"/><rect x="1036.76" y="127.28" width="17.54" height="181.28" fill="#db4648" stroke="#1c2126" stroke-linecap="round" stroke-linejoin="round" stroke-width="2"/><polygon points="1054.3 229.88 1045.53 235.72 1036.76 229.88 1036.76 127.28 1054.3 127.28 1054.3 229.88" fill="#ff6b60" stroke="#1c2126" stroke-miterlimit="10" stroke-width="2"/><circle cx="881.29" cy="217.74" r="1" fill="#1c2126"/><circle cx="881.29" cy="206.49" r="1" fill="#1c2126"/><circle cx="881.29" cy="195.25" r="1" fill="#1c2126"/><line x1="869.36" y1="184.98" x2="894.03" y2="184.98" fill="#ff6b60" stroke="#1c2126" stroke-linecap="round" stroke-linejoin="round" stroke-width="2"/><line x1="881.29" y1="180.45" x2="881.29" y2="184.98" fill="#ff6b60" stroke="#1c2126" stroke-linecap="round" stroke-linejoin="round" stroke-width="2"/><circle cx="1045.65" cy="217.74" r="1" fill="#1c2126"/><circle cx="1045.65" cy="206.49" r="1" fill="#1c2126"/><circle cx="1045.65" cy="195.25" r="1" fill="#1c2126"/><line x1="1033.73" y1="184.98" x2="1058.39" y2="184.98" fill="#ff6b60" stroke="#1c2126" stroke-linecap="round" stroke-linejoin="round" stroke-width="2"/><line x1="1045.65" y1="180.45" x2="1045.65" y2="184.98" fill="#ff6b60" stroke="#1c2126" stroke-linecap="round" stroke-linejoin="round" stroke-width="2"/><path d="M1083.28,42.22a8.17,8.17,0,0,0-3.15-1.77c-2-.72-4.26-1.19-6.24-.4s-3.41,2.88-4.22,5a18.6,18.6,0,0,0-1.2,5.85,14.71,14.71,0,0,0-7.31-3.85,9.25,9.25,0,0,0-7.9,2.17,6.76,6.76,0,0,0-1.47,7.77c1.28,2.39,4,3.56,6.54,4.54q9.48,3.66,19.09,7l6-16.07C1084.72,49.06,1085.82,44.79,1083.28,42.22Z" fill="#ff6b60" stroke="#1c2126" stroke-linecap="round" stroke-linejoin="round" stroke-width="2"/><path d="M1063.48,89a8,8,0,0,0-1.34-3.35c-1.11-1.82-2.57-3.6-4.61-4.23s-4.46.11-6.4,1.22a18.47,18.47,0,0,0-4.6,3.8,14.73,14.73,0,0,0-3.28-7.59,9.21,9.21,0,0,0-7.51-3.25,6.73,6.73,0,0,0-6,5.12c-.51,2.67.88,5.29,2.24,7.64q5.1,8.79,10.47,17.43l14.78-8.73C1060.31,95.25,1063.85,92.61,1063.48,89Z" fill="#db4648" stroke="#1c2126" stroke-linecap="round" stroke-linejoin="round" stroke-width="2"/><polygon points="1007.38 166.57 983.16 166.48 967.08 186.99 966.84 253.26 1023.05 253.47 1023.3 187.2 1007.38 166.57" fill="#1c2126" stroke="#1c2126" stroke-linejoin="round" stroke-width="2" opacity="0.2"/><polygon points="1001.87 161.28 977.65 161.19 961.57 181.69 961.33 247.96 1017.54 248.17 1017.79 181.9 1001.87 161.28" fill="#ffb916" stroke="#1c2126" stroke-linejoin="round" stroke-width="2"/><path d="M979.75,221.31v-3.8l9.35-9.77a16.21,16.21,0,0,0,2.6-3.4,6.65,6.65,0,0,0,.84-3.2,3.75,3.75,0,0,0-1.28-3.08,5.76,5.76,0,0,0-3.72-1,10.2,10.2,0,0,0-3.76.7,11.92,11.92,0,0,0-3.52,2.18l-1.68-3.84a13,13,0,0,1,4.25-2.44,15.46,15.46,0,0,1,5.34-.92,12.68,12.68,0,0,1,5.14.91,7,7,0,0,1,3.21,2.68,7.94,7.94,0,0,1,1.1,4.28,10.69,10.69,0,0,1-1.24,5,20.74,20.74,0,0,1-3.84,5l-7.79,7.81V217h14v4.28Z" fill="#1c2126"/><line x1="989.56" y1="161.23" x2="989.56" y2="128.82" fill="#ffb916" stroke="#1c2126" stroke-linecap="round" stroke-linejoin="round" stroke-width="2"/><rect y="595" width="1200" height="35" fill="#fff"/><rect y="499.19" width="1200" height="95.81" fill="#fff"/><line y1="499.19" x2="1200" y2="499.19" fill="none" stroke="#1c2126" stroke-miterlimit="10"/><line y1="595" x2="1200" y2="595" fill="none" stroke="#1c2126" stroke-miterlimit="10"/><path d="M24.24,559.45V540.69H17.85v-2.37H33.21v2.37H26.82v18.76Z" fill="#1c2126"/><path d="M44.08,559.89c-4.81,0-7.75-3.45-7.75-9.3v-3.41c0-5.85,2.94-9.3,7.75-9.3s7.74,3.45,7.74,9.3v3.41C51.82,556.44,48.88,559.89,44.08,559.89Zm5.14-9.31v-3.39c0-4.41-1.94-6.87-5.14-6.87s-5.15,2.46-5.15,6.87v3.39c0,4.41,1.94,6.87,5.15,6.87S49.22,555,49.22,550.58Z" fill="#1c2126"/><path d="M60,545.58a2.65,2.65,0,1,1,2.65,2.71A2.7,2.7,0,0,1,60,545.58Zm0,11.25a2.65,2.65,0,1,1,2.65,2.71A2.68,2.68,0,0,1,60,556.83Z" fill="#1c2126"/><circle cx="107.91" cy="548.15" r="31.98" fill="#1c2126"/><line x1="582.03" y1="498.72" x2="582.03" y2="595" fill="none" stroke="#1c2126" stroke-miterlimit="10"/><path d="M1129.73,614.6a4.72,4.72,0,1,1-4.71-4.69A4.43,4.43,0,0,1,1129.73,614.6Zm-6.82,0A2.12,2.12,0,0,0,1125,617c1.3,0,2.1-.94,2.1-2.41s-.8-2.42-2.1-2.42S1122.91,613.12,1122.91,614.6Z" fill="#1c2126"/><path d="M1138.54,612.93H1136c0-.57-.52-1-1.37-1s-1.25.3-1.25.72.19.62,1.2.8l1.2.19c2.3.39,2.91,1.43,2.91,2.79,0,1.74-1.39,2.85-3.92,2.85-2.72,0-4.08-1.3-4.08-3.09h2.48c0,.65.53,1.1,1.7,1.1.88,0,1.33-.3,1.33-.75s-.26-.72-1.3-.9l-1.25-.21c-2.11-.33-2.77-1.39-2.77-2.67,0-1.58,1.3-2.8,3.78-2.8S1138.54,611.24,1138.54,612.93Z" fill="#1c2126"/><path d="M1147.49,612.93H1145c0-.57-.53-1-1.38-1s-1.25.3-1.25.72.2.62,1.2.8l1.21.19c2.3.39,2.91,1.43,2.91,2.79,0,1.74-1.39,2.85-3.92,2.85-2.72,0-4.09-1.3-4.09-3.09h2.49c0,.65.52,1.1,1.69,1.1.88,0,1.33-.3,1.33-.75s-.25-.72-1.3-.9l-1.24-.21c-2.12-.33-2.77-1.39-2.77-2.67,0-1.58,1.29-2.8,3.77-2.8S1147.49,611.24,1147.49,612.93Z" fill="#1c2126"/><path d="M1152,617.64a1.6,1.6,0,1,1-1.6-1.62A1.55,1.55,0,0,1,1152,617.64Z" fill="#1c2126"/><path d="M1156.27,606.34v12.72h-2.5V606.34Z" fill="#1c2126"/><path d="M1167,614.6a4.71,4.71,0,1,1-4.7-4.69A4.42,4.42,0,0,1,1167,614.6Zm-6.81,0a2.12,2.12,0,0,0,2.11,2.41c1.29,0,2.1-.94,2.1-2.41s-.81-2.42-2.1-2.42S1160.16,613.12,1160.16,614.6Z" fill="#1c2126"/><path d="M1176.59,610.12l-3.26,8.94h-3l-3.28-8.94h2.64l2.16,6.32,2.16-6.32Z" fill="#1c2126"/><path d="M1186.06,615.33h-6.61a1.92,1.92,0,0,0,2,1.81,1.82,1.82,0,0,0,1.75-.8h2.66a5,5,0,1,1,.17-1.77Zm-6.58-1.71h3.94a1.87,1.87,0,0,0-2-1.58A2,2,0,0,0,1179.48,613.62Z" fill="#1c2126"/><path d="M605.51,559.45V538.32H618v2.37H608.1v7.25h9v2.3h-9v9.21Z" fill="#1c2126"/><path d="M625.54,551v8.42H623V538.32h7.09c4.19,0,6.81,2.43,6.81,6.35A5.91,5.91,0,0,1,633,550.5l4.3,9h-2.91L630.41,551Zm0-2.18h4.19c2.92,0,4.56-1.48,4.56-4.12s-1.61-4.11-4.44-4.11h-4.31Z" fill="#1c2126"/><path d="M648.15,559.89c-4.81,0-7.75-3.45-7.75-9.3v-3.41c0-5.85,2.94-9.3,7.75-9.3s7.75,3.45,7.75,9.3v3.41C655.9,556.44,653,559.89,648.15,559.89Zm5.14-9.31v-3.39c0-4.41-1.93-6.87-5.14-6.87s-5.14,2.46-5.14,6.87v3.39c0,4.41,1.93,6.87,5.14,6.87S653.29,555,653.29,550.58Z" fill="#1c2126"/><path d="M661.38,559.45h-2.3V538.32H662l4.64,13.12h.19l4.62-13.12h2.9v21.13H672v-8.11l.13-8.56H672l-4.25,11.71h-2l-4.25-11.71h-.19l.14,8.56Z" fill="#1c2126"/><path d="M682.59,545.58a2.65,2.65,0,1,1,2.65,2.71A2.7,2.7,0,0,1,682.59,545.58Zm0,11.25a2.65,2.65,0,1,1,2.65,2.71A2.68,2.68,0,0,1,682.59,556.83Z" fill="#1c2126"/><circle cx="733.24" cy="548.15" r="31.98" fill="#1c2126"/><path d="M791.37,562a13.93,13.93,0,0,1-5-.86,10.66,10.66,0,0,1-6.3-6.3,13.81,13.81,0,0,1-.87-5,13.54,13.54,0,0,1,.9-5,11.12,11.12,0,0,1,2.58-3.91,11.78,11.78,0,0,1,4-2.53,13.78,13.78,0,0,1,5.07-.9,13.44,13.44,0,0,1,4.55.74,10.32,10.32,0,0,1,3.54,2.12,9.19,9.19,0,0,1,2.28,3.27,10.78,10.78,0,0,1,.8,4.26,11.44,11.44,0,0,1-.7,4.2,6.47,6.47,0,0,1-1.93,2.77,4.55,4.55,0,0,1-2.91,1,3.24,3.24,0,0,1-2.55-1,3.31,3.31,0,0,1-.73-2.61l.51.14a5.85,5.85,0,0,1-2,2.56,4.88,4.88,0,0,1-2.79.88,4.34,4.34,0,0,1-3.43-1.36,5.39,5.39,0,0,1-1.22-3.73,8.24,8.24,0,0,1,.8-3.69,6.21,6.21,0,0,1,2.2-2.52,5.75,5.75,0,0,1,3.19-.91,4.13,4.13,0,0,1,2.59.76,3.51,3.51,0,0,1,1.3,2.13h-.33l.47-2.64h1.85l-1.29,7.26c0,.24-.07.47-.1.7s0,.43,0,.61a2,2,0,0,0,.44,1.4,1.65,1.65,0,0,0,1.3.48,2.75,2.75,0,0,0,2-.81,5.38,5.38,0,0,0,1.31-2.26,10.66,10.66,0,0,0,.48-3.37,9.37,9.37,0,0,0-.67-3.64,7.65,7.65,0,0,0-1.93-2.77,8.69,8.69,0,0,0-3-1.77,11.75,11.75,0,0,0-3.91-.61,11.94,11.94,0,0,0-4.41.77,9.42,9.42,0,0,0-5.56,5.58,12.48,12.48,0,0,0-.75,4.43,12,12,0,0,0,1.26,5.68,8.6,8.6,0,0,0,3.59,3.65,11.36,11.36,0,0,0,5.51,1.28,12.05,12.05,0,0,0,4.22-.71,8.25,8.25,0,0,0,3.14-2l.92,1.37a8.76,8.76,0,0,1-3.54,2.18A14.41,14.41,0,0,1,791.37,562ZM790,554.18a3.81,3.81,0,0,0,2.3-.74,5,5,0,0,0,1.58-2.06,7.5,7.5,0,0,0,.57-3,3.47,3.47,0,0,0-.7-2.38,2.81,2.81,0,0,0-2.21-.78,4,4,0,0,0-2.31.7,4.73,4.73,0,0,0-1.61,1.93,6.58,6.58,0,0,0-.59,2.86,3.85,3.85,0,0,0,.77,2.57A2.75,2.75,0,0,0,790,554.18Z" fill="#1c2126"/><path d="M806.82,557.45V536.84h2.27v20.61Z" fill="#1c2126"/><path d="M812.93,563.81l-.54-1.88a11.39,11.39,0,0,0,2.2-.71,4.26,4.26,0,0,0,1.47-1.08,6.19,6.19,0,0,0,1-1.68l.73-1.65-.06,1-6.13-14.36h2.46l5.07,12.35h-.73l5-12.35h2.38l-6.5,15.23a10.23,10.23,0,0,1-1.23,2.25,7.32,7.32,0,0,1-1.44,1.49,6.94,6.94,0,0,1-1.7.91A12.53,12.53,0,0,1,812.93,563.81Z" fill="#1c2126"/><path d="M828.35,557.45v-10.8c0-.53,0-1.06-.07-1.61s-.1-1.1-.15-1.64h2.18l.28,3.08h-.33a4.86,4.86,0,0,1,2-2.48,5.81,5.81,0,0,1,3.15-.85,5,5,0,0,1,3.77,1.33,5.86,5.86,0,0,1,1.27,4.18v8.79h-2.27V548.8a4.31,4.31,0,0,0-.8-2.9,3.13,3.13,0,0,0-2.47-.91,4.06,4.06,0,0,0-3.11,1.21,4.44,4.44,0,0,0-1.15,3.22v8Z" fill="#1c2126"/><path d="M844.76,557.45v-10.8c0-.53,0-1.06-.07-1.61s-.1-1.1-.15-1.64h2.18l.28,3.08h-.33a4.81,4.81,0,0,1,2-2.48,5.76,5.76,0,0,1,3.15-.85,4.94,4.94,0,0,1,3.76,1.33,5.86,5.86,0,0,1,1.28,4.18v8.79h-2.27V548.8a4.37,4.37,0,0,0-.8-2.9,3.13,3.13,0,0,0-2.47-.91,4.06,4.06,0,0,0-3.11,1.21,4.44,4.44,0,0,0-1.15,3.22v8Z" fill="#1c2126"/><path d="M866.52,557.71a6,6,0,0,1-3.28-.89,5.78,5.78,0,0,1-2.17-2.5,10.31,10.31,0,0,1,0-7.82,5.75,5.75,0,0,1,2.17-2.49,6.08,6.08,0,0,1,3.28-.86,5.64,5.64,0,0,1,3.29,1,4.56,4.56,0,0,1,1.83,2.62h-.34l.31-3.33h2.19c-.06.54-.11,1.08-.16,1.64s-.07,1.08-.07,1.61v10.8H871.3v-3.3h.31a4.42,4.42,0,0,1-1.85,2.6A5.57,5.57,0,0,1,866.52,557.71Zm.44-1.85a4,4,0,0,0,3.2-1.39,7.63,7.63,0,0,0,0-8.12,4.34,4.34,0,0,0-6.37,0,7.52,7.52,0,0,0,0,8.12A4,4,0,0,0,867,555.86Z" fill="#1c2126"/><path d="M878,557.45v-10.8c0-.53,0-1.06-.07-1.61s-.1-1.1-.15-1.64h2.18l.28,3.08h-.34a4.83,4.83,0,0,1,2-2.48,5.76,5.76,0,0,1,3.15-.85,5,5,0,0,1,3.76,1.33,5.86,5.86,0,0,1,1.28,4.18v8.79h-2.27V548.8a4.37,4.37,0,0,0-.8-2.9,3.15,3.15,0,0,0-2.48-.91,4.09,4.09,0,0,0-3.11,1.21,4.48,4.48,0,0,0-1.14,3.22v8Z" fill="#1c2126"/><path d="M899.7,557.71a5.93,5.93,0,0,1-3.25-.89,5.72,5.72,0,0,1-2.17-2.5,10.31,10.31,0,0,1,0-7.82,5.69,5.69,0,0,1,2.17-2.49,6,6,0,0,1,3.25-.86,5.66,5.66,0,0,1,3.29,1,4.61,4.61,0,0,1,1.86,2.57h-.34v-9.83h2.27v20.61h-2.24v-3.36h.31a4.58,4.58,0,0,1-1.85,2.65A5.71,5.71,0,0,1,899.7,557.71Zm.47-1.85a4,4,0,0,0,3.19-1.39,7.42,7.42,0,0,0,0-8.12,4.34,4.34,0,0,0-6.37,0,7.52,7.52,0,0,0,0,8.12A4,4,0,0,0,900.17,555.86Z" fill="#1c2126"/><path d="M916.16,557.71a4,4,0,0,1-3.16-1.2,5.14,5.14,0,0,1-1.1-3.59v-7.76h-2.74V543.4h2.74v-3.84l2.27-.64v4.48h4v1.76h-4v7.51a3.81,3.81,0,0,0,.58,2.39,2.05,2.05,0,0,0,1.72.71,4,4,0,0,0,.95-.1,4.87,4.87,0,0,0,.76-.23v1.9a5,5,0,0,1-.94.27A6.78,6.78,0,0,1,916.16,557.71Z" fill="#1c2126"/><path d="M926.6,557.71a6.78,6.78,0,0,1-3.51-.89,5.77,5.77,0,0,1-2.31-2.52,9.72,9.72,0,0,1,0-7.77,5.89,5.89,0,0,1,2.31-2.5,6.78,6.78,0,0,1,3.51-.88,6.85,6.85,0,0,1,3.55.88,6,6,0,0,1,2.32,2.5,9.51,9.51,0,0,1,0,7.77,5.91,5.91,0,0,1-2.32,2.52A6.85,6.85,0,0,1,926.6,557.71Zm0-1.85a4,4,0,0,0,3.2-1.39,7.63,7.63,0,0,0,0-8.12,4,4,0,0,0-3.2-1.39,4,4,0,0,0-3.16,1.39,7.57,7.57,0,0,0,0,8.12A3.92,3.92,0,0,0,926.6,555.86Z" fill="#1c2126"/><path d="M936.82,557.45v-10.8c0-.53,0-1.06-.07-1.61s-.09-1.1-.15-1.64h2.18l.28,3.08h-.33a4.86,4.86,0,0,1,2-2.48,5.81,5.81,0,0,1,3.15-.85,5,5,0,0,1,3.77,1.33,5.86,5.86,0,0,1,1.27,4.18v8.79h-2.27V548.8a4.37,4.37,0,0,0-.79-2.9,3.17,3.17,0,0,0-2.48-.91,4.08,4.08,0,0,0-3.11,1.21,4.44,4.44,0,0,0-1.15,3.22v8Z" fill="#1c2126"/><path d="M953,540.21v-2.55h2.8v2.55Zm.28,17.24V543.4h2.27v14.05Z" fill="#1c2126"/><path d="M965.8,557.71a6.91,6.91,0,0,1-3.59-.9,6,6,0,0,1-2.36-2.55,8.68,8.68,0,0,1-.82-3.92,8.32,8.32,0,0,1,.84-3.9,5.7,5.7,0,0,1,2.36-2.45,7.19,7.19,0,0,1,3.57-.84,7.35,7.35,0,0,1,2.62.47,5.79,5.79,0,0,1,2.12,1.34l-.82,1.63a5.77,5.77,0,0,0-1.83-1.21,5.29,5.29,0,0,0-1.95-.39,4.24,4.24,0,0,0-3.38,1.38,5.85,5.85,0,0,0-1.21,4,6,6,0,0,0,1.21,4,4.18,4.18,0,0,0,3.38,1.43,5.4,5.4,0,0,0,1.92-.37,5.28,5.28,0,0,0,1.86-1.2l.82,1.6a5.71,5.71,0,0,1-2.16,1.37A7.35,7.35,0,0,1,965.8,557.71Z" fill="#1c2126"/><path d="M167.16,562a13.84,13.84,0,0,1-5-.86,10.71,10.71,0,0,1-3.84-2.45,10.88,10.88,0,0,1-2.46-3.85,13.81,13.81,0,0,1-.87-5,13.54,13.54,0,0,1,.9-5,11,11,0,0,1,2.57-3.91,11.82,11.82,0,0,1,4-2.53,13.78,13.78,0,0,1,5.07-.9,13.49,13.49,0,0,1,4.55.74,10.32,10.32,0,0,1,3.54,2.12,9.19,9.19,0,0,1,2.28,3.27,11,11,0,0,1,.8,4.26,11.66,11.66,0,0,1-.7,4.2,6.47,6.47,0,0,1-1.93,2.77,4.58,4.58,0,0,1-2.92,1,3.2,3.2,0,0,1-2.54-1,3.31,3.31,0,0,1-.73-2.61l.5.14a5.71,5.71,0,0,1-2,2.56,4.85,4.85,0,0,1-2.78.88,4.34,4.34,0,0,1-3.43-1.36,5.34,5.34,0,0,1-1.22-3.73,8.11,8.11,0,0,1,.8-3.69,6.27,6.27,0,0,1,2.19-2.52,5.81,5.81,0,0,1,3.2-.91,4.15,4.15,0,0,1,2.59.76,3.55,3.55,0,0,1,1.3,2.13h-.34l.48-2.64H173l-1.29,7.26c0,.24-.07.47-.1.7a4.55,4.55,0,0,0,0,.61,2,2,0,0,0,.43,1.4,1.68,1.68,0,0,0,1.3.48,2.73,2.73,0,0,0,2-.81,5.5,5.5,0,0,0,1.32-2.26,10.66,10.66,0,0,0,.48-3.37,9.37,9.37,0,0,0-.68-3.64,7.53,7.53,0,0,0-1.93-2.77,8.6,8.6,0,0,0-3-1.77,11.69,11.69,0,0,0-3.9-.61,11.87,11.87,0,0,0-4.41.77,9.65,9.65,0,0,0-3.39,2.18,9.53,9.53,0,0,0-2.17,3.4,12.26,12.26,0,0,0-.76,4.43,12,12,0,0,0,1.26,5.68,8.62,8.62,0,0,0,3.6,3.65,11.32,11.32,0,0,0,5.5,1.28,12.11,12.11,0,0,0,4.23-.71,8.25,8.25,0,0,0,3.14-2l.92,1.37a8.83,8.83,0,0,1-3.54,2.18A14.47,14.47,0,0,1,167.16,562Zm-1.34-7.84a3.78,3.78,0,0,0,2.29-.74,5,5,0,0,0,1.59-2.06,7.5,7.5,0,0,0,.57-3,3.47,3.47,0,0,0-.7-2.38,2.83,2.83,0,0,0-2.21-.78,4,4,0,0,0-2.31.7,4.73,4.73,0,0,0-1.61,1.93,6.58,6.58,0,0,0-.59,2.86,3.85,3.85,0,0,0,.77,2.57A2.74,2.74,0,0,0,165.82,554.18Z" fill="#1c2126"/><path d="M184,557.45v-2h4.65V539.7h1.23l-5.43,3.39v-2.33l4.84-3h1.68v17.75h4.37v2Z" fill="#1c2126"/><path d="M200.76,557.45v-2h4.65V539.7h1.23l-5.43,3.39v-2.33l4.84-3h1.68v17.75h4.37v2Z" fill="#1c2126"/><path d="M221.2,557.71a4.06,4.06,0,0,1-3.16-1.2,5.14,5.14,0,0,1-1.09-3.59v-7.76H214.2V543.4H217v-3.84l2.26-.64v4.48h4v1.76h-4v7.51a3.88,3.88,0,0,0,.58,2.39,2.05,2.05,0,0,0,1.72.71,4,4,0,0,0,1-.1,4.87,4.87,0,0,0,.76-.23v1.9a4.82,4.82,0,0,1-.94.27A6.57,6.57,0,0,1,221.2,557.71Z" fill="#1c2126"/><path d="M225.63,563.81l-.54-1.88a11.39,11.39,0,0,0,2.2-.71,4.26,4.26,0,0,0,1.47-1.08,6.19,6.19,0,0,0,1-1.68l.73-1.65-.06,1-6.13-14.36h2.46l5.07,12.35h-.73l5-12.35h2.38L232,558.63a10.23,10.23,0,0,1-1.23,2.25,7.32,7.32,0,0,1-1.44,1.49,6.94,6.94,0,0,1-1.7.91A12.53,12.53,0,0,1,225.63,563.81Z" fill="#1c2126"/><path d="M27.75,606.92v12.14H25v-2.13l-4.7-5.41v7.54H17.63V606.92H20L25,612.77v-5.85Z" fill="#1c2126"/><path d="M38.37,615.33H31.76a1.92,1.92,0,0,0,2,1.81,1.81,1.81,0,0,0,1.74-.8H38.2a4.35,4.35,0,0,1-4.44,2.88,4.63,4.63,0,1,1,0-9.26,4.32,4.32,0,0,1,4.62,4.61Zm-6.58-1.71h3.94a1.87,1.87,0,0,0-2-1.58A2,2,0,0,0,31.79,613.62Z" fill="#1c2126"/><path d="M44.93,612.23H43v6.83H40.5v-6.83H38.82v-2.11H40.5V607.3H43v2.82h1.93Z" fill="#1c2126"/><path d="M48.9,606.34v12.72H46.4V606.34Z" fill="#1c2126"/><path d="M53.62,607.59a1.5,1.5,0,1,1-3,0,1.5,1.5,0,1,1,3,0Zm-.24,2.32v9.15h-2.5v-9.15a2.06,2.06,0,0,0,1.25.37A2,2,0,0,0,53.38,609.91Z" fill="#1c2126"/><path d="M58.55,609v1.09h1.87v2.11H58.55v6.83h-2.5v-6.83H54.61v-2.11h1.44V609a2.62,2.62,0,0,1,2.88-2.83h1.75v1.94H59.44A.78.78,0,0,0,58.55,609Z" fill="#1c2126"/><path d="M70.71,610.12l-5,11.89H63.33l1.38-3.28-3.49-8.61h2.51L66,615.69l2.32-5.57Z" fill="#1c2126"/><path d="M109.4,613c0,3.92-2.34,6.22-5.8,6.22s-5.79-2.3-5.79-6.22,2.33-6.25,5.79-6.25S109.4,609.08,109.4,613Zm-8.79,0c0,2.35,1.3,3.66,3,3.66s3-1.31,3-3.66-1.32-3.67-3-3.67S100.61,610.63,100.61,613Z" fill="#1c2126"/><path d="M120.32,610.53h-2.8c0-.89-.67-1.52-1.85-1.52s-1.7.55-1.7,1.23.38,1,1.49,1.3l1.37.32c2.64.59,3.73,1.73,3.73,3.73s-1.6,3.63-4.73,3.63-4.9-1.61-4.9-4h2.8a1.88,1.88,0,0,0,2.11,1.84c1.27,0,1.92-.63,1.92-1.44s-.38-1.09-1.57-1.35l-1.32-.27c-2.77-.56-3.72-1.87-3.72-3.73,0-2.06,1.6-3.54,4.58-3.54S120.32,608.29,120.32,610.53Z" fill="#1c2126"/><path d="M131.38,610.53h-2.8c0-.89-.67-1.52-1.86-1.52-1,0-1.69.55-1.69,1.23s.38,1,1.48,1.3l1.38.32c2.64.59,3.73,1.73,3.73,3.73s-1.6,3.63-4.74,3.63-4.9-1.61-4.9-4h2.81a1.88,1.88,0,0,0,2.11,1.84c1.26,0,1.92-.63,1.92-1.44s-.39-1.09-1.57-1.35l-1.33-.27c-2.77-.56-3.71-1.87-3.71-3.73,0-2.06,1.6-3.54,4.58-3.54S131.38,608.29,131.38,610.53Z" fill="#1c2126"/><path d="M91.16,610.11a3.71,3.71,0,0,0-1-1.22,4,4,0,0,0-2.5-1.14,3.62,3.62,0,0,0-2.51,1.37,8,8,0,0,0-1.41,2.21,6.53,6.53,0,0,0-2.39-2.73,4.07,4.07,0,0,0-3.57-.35,3,3,0,0,0-1.83,3,5.09,5.09,0,0,0,2,2.88q3.32,3,6.72,5.87l5-5.64C90.67,613.14,91.8,611.56,91.16,610.11Z" fill="#ff6b60" stroke="#ff6b60" stroke-linejoin="round"/></svg>