<?xml version="1.0" encoding="UTF-8"?><svg xmlns="http://www.w3.org/2000/svg" viewBox="0 0 1200 630"><g id="b"><rect x="-.79" width="1200" height="498.72" fill="#5cebdf" stroke-width="0"/></g><g id="d"><g opacity=".4"><path d="M913.18,442.65c-2.92,0-5.62-.8-8.05-2.37-4.41-2.15-8.92-8.73-15.86-30.79-4.65-14.77-9.87-34.91-15.52-59.87-10.87-48.03-20.24-100.08-24.35-128.15-3.75-22.38-8.82-55.26-11.77-75.48-16.79-31.78,5.37-60.2,5.6-60.49.93-1.17,2.26-1.94,3.73-2.18,10.44-1.7,23.05-2.55,37.45-2.55,42.85,0,96.54,7.62,140.12,19.88,36.79,10.35,82.38,28.38,90.68,55.51,5,16.35-3.87,32.5-26.37,48.02-8.77,15.03-87.68,149.49-137.61,208.65-.08.09-.16.18-.25.27-1.46,1.53-3.22,3.54-5.1,5.67-9.35,10.64-20.99,23.89-32.73,23.89h0Z" fill="#30c8c9" stroke-width="0"/><path d="M884.42,86.76c107.21,0,295.37,48.77,199.93,113.21-5.69,9.79-86.6,148.44-137.7,208.98-8.02,8.4-22.31,27.7-33.48,27.7-1.8,0-3.53-.5-5.13-1.64-14.34-5.36-43.92-154.4-52.71-214.47-3.92-23.38-9.13-57.33-11.92-76.46-15.8-28.58,4.3-54.57,4.51-54.83,10.32-1.68,22.74-2.48,36.49-2.48M884.42,74.76c-14.73,0-27.65.89-38.42,2.63-2.94.48-5.61,2.04-7.46,4.37-.27.33-6.56,8.32-10.35,20.78-4.75,15.61-3.49,31.23,3.65,45.31,2.97,20.27,7.93,52.45,11.64,74.55,4.13,28.2,13.53,80.4,24.42,128.54,5.69,25.12,10.95,45.42,15.64,60.34,6.67,21.22,11.72,30.64,18.62,34.22,3.31,2.06,7.09,3.15,11.01,3.15,14.45,0,27.08-14.37,37.23-25.92,1.83-2.08,3.56-4.05,4.93-5.49.17-.18.33-.36.49-.55,49.24-58.34,123.94-185.05,137.54-208.36,11.22-7.89,19.01-15.84,23.8-24.26,5.47-9.63,6.79-19.9,3.79-29.68-4.01-13.11-15.67-25.2-34.64-35.95-15.48-8.77-35.72-16.7-60.15-23.57-44.08-12.4-98.39-20.1-141.75-20.1h0Z" fill="#bffde7" stroke-width="0"/></g><rect x="0" y="595" width="1200" height="35" fill="#fff" stroke-width="0"/><rect x="0" y="499.19" width="1200" height="95.81" fill="#fff" stroke-width="0"/><line x1="0" y1="499.19" x2="1200" y2="499.19" fill="none" stroke="#1c2126" stroke-miterlimit="10"/><line x1="0" y1="595" x2="1200" y2="595" fill="none" stroke="#1c2126" stroke-miterlimit="10"/><path d="M24.24,559.45v-18.76h-6.39v-2.37h15.35v2.37h-6.39v18.76h-2.58Z" fill="#1c2126" stroke-width="0"/><path d="M44.08,559.89c-4.8,0-7.75-3.46-7.75-9.3v-3.41c0-5.84,2.94-9.3,7.75-9.3s7.75,3.46,7.75,9.3v3.41c0,5.84-2.94,9.3-7.75,9.3ZM49.22,550.58v-3.38c0-4.41-1.93-6.87-5.14-6.87s-5.14,2.46-5.14,6.87v3.38c0,4.41,1.93,6.87,5.14,6.87s5.14-2.46,5.14-6.87Z" fill="#1c2126" stroke-width="0"/><path d="M59.97,545.58c0-1.48,1.2-2.71,2.65-2.71s2.65,1.23,2.65,2.71-1.2,2.71-2.65,2.71-2.65-1.23-2.65-2.71ZM59.97,556.83c0-1.48,1.2-2.7,2.65-2.7s2.65,1.21,2.65,2.7-1.2,2.71-2.65,2.71-2.65-1.21-2.65-2.71Z" fill="#1c2126" stroke-width="0"/><line x1="582.03" y1="498.72" x2="582.03" y2="595" fill="none" stroke="#1c2126" stroke-miterlimit="10"/><path d="M605.51,559.45v-21.14h12.47v2.37h-9.87v7.25h9.02v2.3h-9.02v9.21h-2.59Z" fill="#1c2126" stroke-width="0"/><path d="M625.54,551.03v8.42h-2.55v-21.14h7.09c4.19,0,6.81,2.43,6.81,6.36,0,2.77-1.54,5.04-3.94,5.83l4.31,8.95h-2.92l-3.94-8.42h-4.86ZM625.54,548.85h4.19c2.92,0,4.56-1.48,4.56-4.12s-1.61-4.12-4.44-4.12h-4.31v8.23Z" fill="#1c2126" stroke-width="0"/><path d="M648.15,559.89c-4.8,0-7.75-3.46-7.75-9.3v-3.41c0-5.84,2.94-9.3,7.75-9.3s7.75,3.46,7.75,9.3v3.41c0,5.84-2.94,9.3-7.75,9.3ZM653.29,550.58v-3.38c0-4.41-1.93-6.87-5.14-6.87s-5.14,2.46-5.14,6.87v3.38c0,4.41,1.93,6.87,5.14,6.87s5.14-2.46,5.14-6.87Z" fill="#1c2126" stroke-width="0"/><path d="M661.18,559.45h-2.31v-21.14h2.86l4.88,13.08h.19l4.86-13.08h2.86v21.14h-2.31v-8.1l.15-8.57h-.19l-4.45,11.71h-2.02l-4.45-11.71h-.19l.15,8.57v8.1Z" fill="#1c2126" stroke-width="0"/><path d="M682.59,545.58c0-1.48,1.2-2.71,2.65-2.71s2.65,1.23,2.65,2.71-1.2,2.71-2.65,2.71-2.65-1.23-2.65-2.71ZM682.59,556.83c0-1.48,1.2-2.7,2.65-2.7s2.65,1.21,2.65,2.7-1.2,2.71-2.65,2.71-2.65-1.21-2.65-2.71Z" fill="#1c2126" stroke-width="0"/><path d="M12.77,618.4c-.12,0-.21-.04-.26-.11s-.08-.17-.06-.27l2.22-10.42c.02-.12.07-.21.16-.29.08-.07.19-.11.3-.11h6.95c.12,0,.2.04.26.11.05.07.07.17.05.29l-.24,1.12c-.02.12-.08.21-.16.28-.08.07-.19.11-.3.11h-5.14l-.66,3.04h4.82c.12,0,.2.04.26.11.05.07.07.17.05.29l-.22,1.12c-.02.11-.08.2-.17.27-.09.07-.19.11-.31.11h-4.82l-.85,3.97c-.02.11-.08.2-.16.27s-.19.11-.3.11h-1.41Z" fill="#1c2126" stroke-width="0"/><path d="M25.41,618.56c-.81,0-1.49-.15-2.02-.45s-.92-.72-1.15-1.26c-.23-.54-.29-1.18-.17-1.9.03-.19.08-.43.13-.71s.12-.51.17-.7c.19-.74.49-1.37.89-1.91s.91-.96,1.54-1.26c.62-.3,1.36-.45,2.22-.45s1.49.15,2.02.45c.54.3.93.72,1.16,1.26s.29,1.18.18,1.91c-.04.19-.09.43-.14.7s-.11.51-.16.71c-.19.72-.48,1.36-.87,1.9-.39.54-.9.96-1.52,1.26s-1.38.45-2.26.45ZM25.57,616.98c.58,0,1.06-.18,1.46-.54.4-.36.69-.88.87-1.58.04-.16.09-.37.14-.62s.1-.46.13-.62c.12-.69.07-1.22-.14-1.58-.21-.36-.61-.54-1.18-.54s-1.05.18-1.46.54-.69.88-.86,1.58c-.04.16-.09.37-.15.62s-.1.46-.12.62c-.12.69-.07,1.22.14,1.58s.6.54,1.18.54Z" fill="#1c2126" stroke-width="0"/><path d="M31.53,618.4c-.11,0-.19-.04-.25-.11s-.08-.17-.06-.27l1.6-7.54c.02-.12.08-.21.17-.29s.19-.11.3-.11h1.3c.11,0,.19.04.25.11s.08.17.06.29l-.14.66c.26-.34.58-.6.98-.78s.88-.27,1.44-.27h.78c.12,0,.2.04.26.11.05.07.07.16.05.27l-.24,1.15c-.02.11-.08.2-.17.27s-.19.11-.3.11h-1.25c-.51,0-.94.14-1.29.43-.35.28-.57.68-.68,1.19l-.94,4.4c-.02.11-.07.2-.16.27-.08.07-.19.11-.3.11h-1.39Z" fill="#1c2126" stroke-width="0"/><path d="M44.76,618.4c-.73,0-1.29-.11-1.7-.34-.4-.22-.67-.56-.78-1-.12-.44-.11-.99.03-1.66l.79-3.63h-1.26c-.11,0-.19-.04-.25-.11-.06-.07-.08-.17-.06-.29l.19-.91c.02-.11.08-.2.17-.27.09-.07.2-.11.31-.11h1.25l.58-2.65c.02-.11.07-.2.16-.27.08-.07.18-.11.29-.11h1.3c.12,0,.21.04.26.11.06.08.08.17.06.27l-.58,2.65h2c.11,0,.19.04.25.11s.08.16.06.27l-.19.91c-.02.12-.08.21-.17.29-.09.08-.19.11-.3.11h-2l-.74,3.47c-.06.29-.1.54-.1.74,0,.21.05.37.17.48s.33.17.62.17h1.15c.12,0,.2.04.26.11.05.08.07.17.05.27l-.21.99c-.02.11-.08.2-.16.27-.09.07-.19.11-.3.11h-1.14Z" fill="#1c2126" stroke-width="0"/><path d="M48.07,618.4c-.11,0-.19-.04-.25-.11s-.08-.17-.06-.27l2.26-10.59c.02-.11.08-.2.16-.27.08-.07.18-.11.29-.11h1.44c.11,0,.19.04.25.11.06.08.08.17.06.27l-.78,3.65c.34-.34.72-.62,1.14-.83.42-.21.93-.32,1.53-.32.69,0,1.26.15,1.7.44.44.29.75.71.92,1.24.17.53.18,1.17.02,1.92l-.96,4.5c-.02.11-.08.2-.16.27-.09.07-.19.11-.3.11h-1.44c-.11,0-.19-.04-.25-.11s-.08-.17-.06-.27l.93-4.4c.14-.62.11-1.1-.08-1.46-.19-.35-.58-.53-1.17-.53-.36,0-.71.08-1.03.23-.33.15-.61.38-.84.68s-.4.66-.5,1.07l-.93,4.4c-.02.11-.08.2-.16.27-.09.07-.18.11-.29.11h-1.44Z" fill="#1c2126" stroke-width="0"/><path d="M61.51,618.56c-.78,0-1.43-.15-1.95-.46-.52-.31-.87-.76-1.07-1.35-.2-.59-.23-1.29-.09-2.13.02-.11.05-.24.08-.41.03-.17.06-.3.1-.39.21-.81.54-1.51.99-2.09.45-.58.99-1.03,1.64-1.34s1.36-.47,2.14-.47c.86,0,1.55.18,2.06.54s.84.85,1.01,1.49.16,1.37,0,2.2l-.08.34c-.02.11-.08.2-.17.27-.09.08-.19.11-.31.11h-5.31c-.01.06-.02.11-.03.13-.05.38-.05.72.02,1.03.06.31.21.57.42.76s.51.29.87.29c.3,0,.56-.04.79-.13.22-.09.41-.2.55-.31.14-.12.25-.21.33-.29.13-.13.22-.21.29-.23.06-.03.15-.04.27-.04h1.39c.1,0,.17.03.22.1.05.06.07.14.05.24-.05.17-.19.38-.4.62-.21.24-.5.48-.86.72-.36.24-.79.43-1.29.58s-1.04.23-1.64.23ZM60.82,613.53h3.54l.02-.05c.1-.42.1-.78.02-1.1s-.23-.56-.46-.74c-.22-.18-.52-.26-.9-.26s-.71.09-1.02.26c-.3.18-.56.42-.76.74-.2.31-.35.68-.43,1.1l-.02.05Z" fill="#1c2126" stroke-width="0"/><path d="M71.06,618.4c-.11,0-.19-.04-.25-.11s-.08-.17-.06-.27l2.26-10.59c.02-.11.08-.2.16-.27.08-.07.18-.11.29-.11h1.33c.12,0,.21.04.26.11.06.08.08.17.06.27l-2.26,10.59c-.02.11-.08.2-.16.27-.09.07-.19.11-.3.11h-1.33Z" fill="#1c2126" stroke-width="0"/><path d="M78.64,618.56c-.81,0-1.49-.15-2.02-.45-.54-.3-.92-.72-1.15-1.26-.23-.54-.29-1.18-.17-1.9.03-.19.08-.43.14-.71s.11-.51.17-.7c.19-.74.49-1.37.89-1.91.4-.54.91-.96,1.54-1.26s1.36-.45,2.22-.45,1.49.15,2.02.45.92.72,1.16,1.26c.23.54.29,1.18.18,1.91-.04.19-.09.43-.14.7-.05.28-.11.51-.16.71-.19.72-.48,1.36-.87,1.9-.39.54-.9.96-1.52,1.26-.62.3-1.38.45-2.26.45ZM78.8,616.98c.58,0,1.06-.18,1.46-.54s.69-.88.87-1.58c.04-.16.09-.37.14-.62.05-.26.1-.46.13-.62.12-.69.07-1.22-.14-1.58s-.61-.54-1.18-.54-1.05.18-1.46.54c-.41.36-.69.88-.86,1.58-.04.16-.09.37-.15.62s-.1.46-.12.62c-.12.69-.07,1.22.14,1.58.21.36.6.54,1.18.54Z" fill="#1c2126" stroke-width="0"/><path d="M86.92,618.4c-.16,0-.27-.04-.34-.12-.06-.08-.11-.17-.13-.28l-1.42-7.49c-.02-.14,0-.25.08-.32s.18-.11.3-.11h1.22c.12,0,.21.03.27.1.06.06.11.15.13.27l.91,5.55,3.33-5.62c.03-.06.09-.13.17-.2.08-.07.18-.11.31-.11h1.39c.13,0,.22.05.26.14.05.1.03.21-.06.35l-4.56,7.42c-.08.11-.16.2-.25.28-.09.08-.22.12-.38.12h-1.25Z" fill="#1c2126" stroke-width="0"/><path d="M96.66,618.56c-.78,0-1.43-.15-1.94-.46-.52-.31-.88-.76-1.07-1.35-.2-.59-.23-1.29-.09-2.13.02-.11.05-.24.08-.41.03-.17.06-.3.1-.39.21-.81.54-1.51.99-2.09.45-.58.99-1.03,1.64-1.34s1.36-.47,2.14-.47c.86,0,1.55.18,2.06.54.51.36.84.85,1.01,1.49.17.63.16,1.37,0,2.2l-.08.34c-.02.11-.08.2-.17.27-.09.08-.2.11-.31.11h-5.31c-.01.06-.02.11-.03.13-.05.38-.05.72.02,1.03.06.31.21.57.42.76s.51.29.87.29c.3,0,.56-.04.78-.13.22-.09.41-.2.55-.31.14-.12.25-.21.33-.29.13-.13.22-.21.29-.23.06-.03.15-.04.27-.04h1.39c.1,0,.17.03.22.1.05.06.07.14.05.24-.05.17-.19.38-.4.62-.21.24-.5.48-.87.72-.36.24-.79.43-1.29.58s-1.04.23-1.64.23ZM95.97,613.53h3.54l.02-.05c.1-.42.1-.78.02-1.1s-.23-.56-.46-.74c-.22-.18-.52-.26-.9-.26s-.71.09-1.02.26-.56.42-.76.74c-.2.31-.35.68-.43,1.1l-.02.05Z" fill="#1c2126" stroke-width="0"/><path d="M109.56,618.56c-.81,0-1.49-.15-2.02-.45s-.92-.72-1.15-1.26c-.23-.54-.29-1.18-.17-1.9.03-.19.08-.43.13-.71s.12-.51.17-.7c.19-.74.49-1.37.89-1.91s.91-.96,1.54-1.26c.62-.3,1.36-.45,2.22-.45s1.49.15,2.02.45c.54.3.93.72,1.16,1.26s.29,1.18.18,1.91c-.04.19-.09.43-.14.7s-.11.51-.16.71c-.19.72-.48,1.36-.87,1.9-.39.54-.9.96-1.52,1.26s-1.38.45-2.26.45ZM109.72,616.98c.58,0,1.06-.18,1.46-.54.4-.36.69-.88.87-1.58.04-.16.09-.37.14-.62s.1-.46.13-.62c.12-.69.07-1.22-.14-1.58-.21-.36-.61-.54-1.18-.54s-1.05.18-1.46.54-.69.88-.86,1.58c-.04.16-.09.37-.15.62s-.1.46-.12.62c-.12.69-.07,1.22.14,1.58s.6.54,1.18.54Z" fill="#1c2126" stroke-width="0"/><path d="M116.42,618.4c-.12,0-.21-.04-.26-.11s-.08-.17-.06-.27l1.33-6.24h-1.29c-.11,0-.19-.04-.25-.11-.06-.07-.08-.17-.06-.29l.19-.91c.02-.11.08-.2.17-.27s.19-.11.31-.11h1.3l.13-.65c.15-.64.38-1.17.69-1.59.31-.42.7-.74,1.18-.95.48-.21,1.04-.32,1.68-.32h1.28c.12,0,.2.04.26.11.05.07.07.16.05.27l-.19.91c-.02.12-.08.21-.17.29s-.19.11-.3.11h-.96c-.43,0-.76.11-.99.32-.23.21-.39.52-.46.93l-.13.58h1.98c.12,0,.2.04.26.11.05.07.07.16.05.27l-.19.91c-.02.12-.08.21-.16.29-.09.08-.19.11-.3.11h-1.98l-1.34,6.24c-.02.11-.07.2-.16.27-.08.07-.18.11-.29.11h-1.3Z" fill="#1c2126" stroke-width="0"/><path d="M128.85,618.56c-.81,0-1.48-.15-2.02-.45s-.92-.72-1.15-1.26c-.23-.54-.29-1.18-.17-1.9.03-.19.08-.43.14-.71s.11-.51.17-.7c.19-.74.49-1.37.89-1.91s.91-.96,1.54-1.26c.62-.3,1.36-.45,2.22-.45s1.49.15,2.02.45c.54.3.92.72,1.16,1.26.23.54.29,1.18.18,1.91-.04.19-.09.43-.14.7s-.11.51-.16.71c-.19.72-.48,1.36-.87,1.9-.39.54-.9.96-1.52,1.26s-1.38.45-2.26.45ZM129.01,616.98c.58,0,1.06-.18,1.46-.54.4-.36.69-.88.87-1.58.04-.16.09-.37.14-.62.05-.26.1-.46.13-.62.12-.69.07-1.22-.14-1.58-.21-.36-.61-.54-1.18-.54s-1.05.18-1.46.54-.69.88-.86,1.58c-.04.16-.09.37-.15.62s-.1.46-.12.62c-.12.69-.07,1.22.14,1.58s.6.54,1.18.54Z" fill="#1c2126" stroke-width="0"/><path d="M134.32,621.45c-.11,0-.19-.04-.25-.11-.06-.07-.08-.16-.06-.27l2.26-10.59c.02-.11.08-.2.16-.27.09-.07.18-.11.29-.11h1.28c.11,0,.19.04.25.11s.08.16.06.27l-.14.64c.33-.34.7-.62,1.1-.85.4-.22.93-.34,1.58-.34.55,0,1.03.09,1.42.28.39.19.7.45.92.79.22.34.37.74.44,1.21.07.46.06.97-.04,1.53-.02.18-.05.35-.09.51s-.08.34-.14.53c-.13.52-.31,1.02-.54,1.48-.24.46-.52.87-.86,1.22-.34.35-.73.62-1.18.81-.45.19-.96.29-1.53.29-.6,0-1.09-.1-1.47-.31-.38-.21-.66-.48-.83-.82l-.78,3.63c-.02.11-.08.2-.16.27-.09.08-.19.11-.3.11h-1.36ZM138.88,616.85c.43,0,.79-.1,1.09-.3.3-.2.55-.46.74-.78.2-.33.35-.68.47-1.05.05-.16.1-.32.13-.48.03-.16.06-.32.08-.48.05-.38.06-.74.02-1.06s-.16-.58-.36-.78c-.2-.2-.51-.3-.94-.3-.45,0-.83.1-1.16.3-.33.2-.59.46-.8.78s-.36.64-.44.97c-.05.19-.1.39-.14.61s-.08.42-.11.62c-.05.32-.05.63,0,.92.06.29.2.54.43.73.23.19.56.29.98.29Z" fill="#1c2126" stroke-width="0"/><path d="M148.13,618.56c-.78,0-1.43-.15-1.95-.46-.52-.31-.87-.76-1.07-1.35-.2-.59-.23-1.29-.09-2.13.02-.11.05-.24.08-.41.03-.17.06-.3.1-.39.21-.81.54-1.51.99-2.09.45-.58.99-1.03,1.64-1.34s1.36-.47,2.14-.47c.86,0,1.55.18,2.06.54s.84.85,1.01,1.49.16,1.37,0,2.2l-.08.34c-.02.11-.08.2-.17.27-.09.08-.19.11-.31.11h-5.31c-.01.06-.02.11-.03.13-.05.38-.05.72.02,1.03.06.31.21.57.42.76s.51.29.87.29c.3,0,.56-.04.79-.13.22-.09.41-.2.55-.31.14-.12.25-.21.33-.29.13-.13.22-.21.29-.23.06-.03.15-.04.27-.04h1.39c.1,0,.17.03.22.1.05.06.07.14.05.24-.05.17-.19.38-.4.62-.21.24-.5.48-.86.72-.36.24-.79.43-1.29.58s-1.04.23-1.64.23ZM147.44,613.53h3.54l.02-.05c.1-.42.1-.78.02-1.1s-.23-.56-.46-.74c-.22-.18-.52-.26-.9-.26s-.71.09-1.02.26c-.3.18-.56.42-.76.74-.2.31-.35.68-.43,1.1l-.02.05Z" fill="#1c2126" stroke-width="0"/><path d="M153.96,618.4c-.11,0-.19-.04-.25-.11-.06-.07-.08-.17-.06-.27l1.6-7.55c.02-.11.08-.2.17-.27.09-.07.19-.11.3-.11h1.31c.11,0,.19.04.24.11.05.07.07.16.05.27l-.14.66c.34-.34.74-.63,1.21-.86.46-.23.99-.35,1.58-.35.73,0,1.31.15,1.74.44s.73.71.87,1.24c.14.53.14,1.17-.02,1.92l-.96,4.5c-.02.11-.07.2-.16.27s-.19.11-.3.11h-1.41c-.11,0-.19-.04-.25-.11s-.08-.17-.06-.27l.93-4.4c.14-.65.12-1.14-.04-1.48s-.56-.5-1.18-.5-1.12.18-1.54.53c-.42.35-.7.84-.84,1.46l-.93,4.4c-.02.11-.08.2-.16.27-.09.07-.18.11-.29.11h-1.41Z" fill="#1c2126" stroke-width="0"/><path d="M170.61,618.56c-.64,0-1.17-.07-1.59-.22-.42-.15-.75-.34-.99-.56-.24-.22-.41-.45-.5-.67-.09-.22-.12-.41-.1-.56.02-.12.08-.21.17-.28.09-.07.18-.11.28-.11h1.26s.08,0,.11.02c.03,0,.06.04.1.1l.37.37c.13.13.29.24.49.33.2.09.46.14.78.14.42,0,.78-.08,1.1-.25.31-.17.5-.4.57-.71.04-.22.02-.4-.08-.54-.1-.14-.29-.27-.59-.38s-.74-.23-1.33-.36c-.58-.14-1.04-.31-1.38-.53-.35-.21-.58-.48-.71-.8-.12-.32-.13-.69-.04-1.12.08-.42.29-.81.62-1.19.33-.38.77-.69,1.32-.94s1.19-.37,1.93-.37c.58,0,1.06.07,1.46.22s.72.32.96.54c.24.21.41.43.5.65.1.22.13.41.1.57-.01.12-.06.21-.15.28-.09.07-.18.11-.28.11h-1.17c-.05,0-.1-.01-.14-.03-.04-.02-.08-.05-.1-.08-.11-.11-.22-.22-.33-.34-.11-.12-.26-.23-.43-.31-.18-.08-.42-.13-.74-.13-.41,0-.73.09-.98.26s-.41.4-.47.66c-.03.18-.01.34.06.47.07.13.25.26.54.38s.73.24,1.31.37c.69.13,1.22.32,1.59.57.37.25.61.54.72.86s.13.69.04,1.08c-.1.48-.33.91-.7,1.29-.37.38-.85.69-1.45.9-.6.22-1.3.33-2.11.33Z" fill="#1c2126" stroke-width="0"/><path d="M179.52,618.56c-.81,0-1.49-.15-2.02-.45-.54-.3-.92-.72-1.15-1.26-.23-.54-.29-1.18-.17-1.9.03-.19.08-.43.14-.71s.11-.51.17-.7c.19-.74.49-1.37.89-1.91.4-.54.91-.96,1.54-1.26s1.36-.45,2.22-.45,1.49.15,2.02.45.92.72,1.16,1.26c.23.54.29,1.18.18,1.91-.04.19-.09.43-.14.7-.05.28-.11.51-.16.71-.19.72-.48,1.36-.87,1.9-.39.54-.9.96-1.52,1.26-.62.3-1.38.45-2.26.45ZM179.68,616.98c.58,0,1.06-.18,1.46-.54s.69-.88.87-1.58c.04-.16.09-.37.14-.62.05-.26.1-.46.13-.62.12-.69.07-1.22-.14-1.58s-.61-.54-1.18-.54-1.05.18-1.46.54c-.41.36-.69.88-.86,1.58-.04.16-.09.37-.15.62s-.1.46-.12.62c-.12.69-.07,1.22.14,1.58.21.36.6.54,1.18.54Z" fill="#1c2126" stroke-width="0"/><path d="M188.45,618.56c-.69,0-1.26-.15-1.7-.44s-.73-.71-.87-1.25-.14-1.18,0-1.91l.96-4.5c.02-.11.08-.2.17-.27.09-.07.19-.11.29-.11h1.41c.11,0,.19.04.24.11s.07.16.05.27l-.93,4.4c-.1.44-.13.8-.09,1.1.04.29.16.52.36.66.2.15.52.22.94.22.58,0,1.08-.18,1.5-.53.43-.35.7-.84.83-1.46l.94-4.4c.02-.11.08-.2.17-.27s.19-.11.3-.11h1.39c.12,0,.2.04.26.11.05.07.07.16.05.27l-1.6,7.55c-.02.11-.07.2-.16.27-.08.07-.19.11-.3.11h-1.3c-.11,0-.19-.04-.25-.11s-.08-.17-.06-.27l.13-.66c-.23.24-.47.46-.72.64-.25.18-.53.32-.85.42-.32.1-.71.14-1.18.14Z" fill="#1c2126" stroke-width="0"/><path d="M195.57,618.4c-.11,0-.19-.04-.25-.11-.06-.07-.08-.17-.06-.27l1.6-7.54c.02-.12.08-.21.17-.29.09-.07.19-.11.3-.11h1.3c.11,0,.19.04.25.11s.08.17.06.29l-.14.66c.26-.34.58-.6.98-.78.39-.18.87-.27,1.44-.27h.78c.12,0,.2.04.26.11s.07.16.05.27l-.24,1.15c-.02.11-.08.2-.17.27-.09.07-.19.11-.3.11h-1.25c-.51,0-.94.14-1.29.43-.35.28-.57.68-.68,1.19l-.94,4.4c-.02.11-.08.2-.16.27-.09.07-.19.11-.3.11h-1.39Z" fill="#1c2126" stroke-width="0"/><path d="M205.46,618.56c-.71,0-1.34-.14-1.88-.43s-.94-.71-1.19-1.26-.31-1.21-.18-1.99c.03-.16.07-.37.13-.63.05-.26.1-.48.14-.65.29-1.16.82-2.07,1.6-2.71.78-.64,1.77-.97,2.98-.97.67,0,1.23.1,1.69.29.45.19.81.44,1.07.74.26.3.44.61.54.93s.14.61.1.86c0,.12-.06.21-.14.28-.08.07-.17.1-.28.1h-1.46c-.11,0-.19-.03-.25-.08-.06-.05-.09-.13-.1-.24,0-.43-.11-.74-.34-.93-.23-.19-.56-.29-.98-.29-.52,0-.99.17-1.4.51-.41.34-.71.87-.89,1.59-.04.19-.09.39-.13.59s-.08.38-.11.53c-.12.74-.06,1.27.16,1.6.22.33.6.5,1.12.5.42,0,.79-.09,1.12-.26s.61-.48.83-.9c.06-.12.13-.2.2-.25.07-.05.16-.07.26-.07h1.44c.11,0,.19.04.25.11.06.07.07.16.04.28-.07.23-.21.51-.41.82s-.47.62-.81.92c-.34.3-.77.54-1.29.74-.52.19-1.13.29-1.85.29Z" fill="#1c2126" stroke-width="0"/><path d="M214.69,618.56c-.78,0-1.43-.15-1.95-.46-.52-.31-.87-.76-1.07-1.35-.2-.59-.23-1.29-.09-2.13.02-.11.05-.24.08-.41.03-.17.06-.3.1-.39.21-.81.54-1.51.99-2.09.45-.58.99-1.03,1.64-1.34s1.36-.47,2.14-.47c.86,0,1.55.18,2.06.54s.84.85,1.01,1.49.16,1.37,0,2.2l-.08.34c-.02.11-.08.2-.17.27-.09.08-.19.11-.31.11h-5.31c-.01.06-.02.11-.03.13-.05.38-.05.72.02,1.03.06.31.21.57.42.76s.51.29.87.29c.3,0,.56-.04.79-.13.22-.09.41-.2.55-.31.14-.12.25-.21.33-.29.13-.13.22-.21.29-.23.06-.03.15-.04.27-.04h1.39c.1,0,.17.03.22.1.05.06.07.14.05.24-.05.17-.19.38-.4.62-.21.24-.5.48-.86.72-.36.24-.79.43-1.29.58s-1.04.23-1.64.23ZM214,613.53h3.54l.02-.05c.1-.42.1-.78.02-1.1s-.23-.56-.46-.74c-.22-.18-.52-.26-.9-.26s-.71.09-1.02.26c-.3.18-.56.42-.76.74-.2.31-.35.68-.43,1.1l-.02.05Z" fill="#1c2126" stroke-width="0"/><path d="M227.19,618.56c-.64,0-1.17-.07-1.59-.22-.42-.15-.75-.34-.99-.56-.24-.22-.41-.45-.5-.67-.09-.22-.13-.41-.1-.56.02-.12.08-.21.17-.28.09-.07.18-.11.28-.11h1.26s.08,0,.11.02c.03,0,.06.04.1.1.12.12.24.24.37.37.13.13.29.24.49.33.2.09.46.14.78.14.42,0,.78-.08,1.1-.25.31-.17.5-.4.57-.71.04-.22.02-.4-.08-.54s-.29-.27-.59-.38c-.3-.11-.74-.23-1.33-.36-.58-.14-1.04-.31-1.38-.53-.35-.21-.58-.48-.7-.8-.12-.32-.14-.69-.04-1.12.09-.42.29-.81.62-1.19.33-.38.77-.69,1.32-.94.55-.25,1.19-.37,1.93-.37.58,0,1.06.07,1.46.22.4.14.72.32.96.54.24.21.41.43.5.65s.13.41.1.57c-.01.12-.06.21-.15.28-.09.07-.18.11-.28.11h-1.17c-.05,0-.1-.01-.14-.03s-.07-.05-.1-.08c-.11-.11-.22-.22-.33-.34-.11-.12-.26-.23-.43-.31-.18-.08-.42-.13-.74-.13-.41,0-.73.09-.98.26s-.41.4-.47.66c-.03.18-.01.34.06.47s.25.26.54.38.73.24,1.31.37c.69.13,1.22.32,1.59.57.37.25.61.54.72.86.11.33.12.69.04,1.08-.1.48-.33.91-.7,1.29-.37.38-.85.69-1.45.9-.6.22-1.3.33-2.11.33Z" fill="#1c2126" stroke-width="0"/><path d="M236.1,618.56c-.81,0-1.49-.15-2.02-.45-.54-.3-.92-.72-1.15-1.26-.23-.54-.29-1.18-.17-1.9.03-.19.08-.43.14-.71s.12-.51.17-.7c.19-.74.49-1.37.89-1.91.4-.54.91-.96,1.54-1.26s1.36-.45,2.22-.45,1.48.15,2.02.45.93.72,1.16,1.26.29,1.18.18,1.91c-.04.19-.09.43-.14.7-.05.28-.11.51-.16.71-.19.72-.48,1.36-.87,1.9-.39.54-.9.96-1.52,1.26-.62.3-1.38.45-2.26.45ZM236.26,616.98c.58,0,1.06-.18,1.46-.54s.69-.88.87-1.58c.04-.16.09-.37.14-.62.05-.26.1-.46.13-.62.12-.69.07-1.22-.14-1.58s-.61-.54-1.18-.54-1.05.18-1.46.54c-.4.36-.69.88-.86,1.58-.04.16-.09.37-.15.62s-.1.46-.12.62c-.12.69-.07,1.22.13,1.58.21.36.6.54,1.18.54Z" fill="#1c2126" stroke-width="0"/><path d="M242.96,618.4c-.12,0-.21-.04-.26-.11s-.08-.17-.06-.27l1.33-6.24h-1.3c-.11,0-.19-.04-.25-.11-.06-.07-.08-.17-.06-.29l.19-.91c.02-.11.08-.2.17-.27.09-.07.19-.11.31-.11h1.29l.13-.65c.15-.64.38-1.17.69-1.59.31-.42.7-.74,1.18-.95.48-.21,1.04-.32,1.68-.32h1.28c.12,0,.2.04.26.11.05.07.07.16.05.27l-.19.91c-.02.12-.08.21-.17.29s-.19.11-.3.11h-.96c-.43,0-.76.11-.99.32-.23.21-.39.52-.46.93l-.13.58h1.98c.12,0,.2.04.26.11.05.07.07.16.05.27l-.19.91c-.02.12-.07.21-.16.29-.08.08-.19.11-.3.11h-1.98l-1.34,6.24c-.02.11-.08.2-.16.27-.09.07-.18.11-.29.11h-1.29Z" fill="#1c2126" stroke-width="0"/><path d="M252.11,618.4c-.73,0-1.29-.11-1.7-.34-.4-.22-.67-.56-.78-1-.12-.44-.11-.99.03-1.66l.79-3.63h-1.26c-.11,0-.19-.04-.25-.11-.06-.07-.08-.17-.06-.29l.19-.91c.02-.11.08-.2.17-.27.09-.07.2-.11.31-.11h1.25l.58-2.65c.02-.11.07-.2.16-.27.08-.07.18-.11.29-.11h1.3c.12,0,.21.04.26.11.06.08.08.17.06.27l-.58,2.65h2c.11,0,.19.04.25.11s.08.16.06.27l-.19.91c-.02.12-.08.21-.17.29-.09.08-.19.11-.3.11h-2l-.74,3.47c-.06.29-.1.54-.1.74,0,.21.05.37.17.48s.33.17.62.17h1.15c.12,0,.2.04.26.11.05.08.07.17.05.27l-.21.99c-.02.11-.08.2-.16.27-.09.07-.19.11-.3.11h-1.14Z" fill="#1c2126" stroke-width="0"/><path d="M257.27,618.4c-.15,0-.26-.04-.32-.11-.06-.07-.1-.17-.11-.29l-.72-7.49c-.01-.12.02-.22.1-.3s.18-.13.32-.13h1.12c.13,0,.22.03.28.09.06.06.09.13.1.22l.46,5.3,2.75-5.25c.04-.08.11-.15.19-.23.09-.08.2-.12.34-.12h.83c.15,0,.25.04.3.12.05.08.09.16.1.23l.58,5.25,2.69-5.3c.03-.06.09-.13.16-.2.07-.07.18-.11.3-.11h1.3c.15,0,.24.05.26.14s.01.2-.04.32l-3.86,7.46c-.06.12-.14.21-.23.29s-.21.11-.36.11h-1.06c-.15,0-.26-.04-.33-.11s-.12-.17-.14-.29l-.66-5.05-2.72,5.05c-.06.12-.14.21-.24.29s-.22.11-.37.11h-1.04Z" fill="#1c2126" stroke-width="0"/><path d="M271.09,618.56c-.55,0-1.02-.09-1.41-.28-.38-.19-.69-.45-.9-.79-.22-.34-.36-.74-.42-1.21-.06-.46-.05-.97.03-1.53.04-.19.08-.37.11-.52.03-.15.07-.33.11-.52.14-.53.32-1.03.55-1.49.23-.46.51-.86.85-1.21.34-.35.73-.62,1.18-.81.45-.19.97-.29,1.56-.29.66,0,1.17.11,1.51.31.35.21.62.46.81.76l.11-.53c.02-.11.08-.2.16-.27s.18-.11.29-.11h1.26c.11,0,.19.04.26.11.06.07.09.16.06.27l-1.62,7.55c-.02.11-.08.2-.16.27-.09.07-.18.11-.29.11h-1.26c-.12,0-.21-.04-.26-.11s-.08-.17-.06-.27l.13-.59c-.32.33-.67.6-1.06.81-.38.21-.9.32-1.55.32ZM271.81,616.85c.45,0,.83-.1,1.15-.3s.58-.46.78-.78.34-.64.42-.97c.05-.19.1-.4.14-.62s.08-.42.11-.62c.06-.32.07-.63.02-.92s-.19-.54-.41-.73c-.22-.19-.55-.29-.98-.29s-.77.1-1.06.3-.54.46-.73.78-.35.67-.46,1.06c-.04.16-.08.32-.11.48s-.06.32-.08.48c-.05.38-.07.74-.04,1.06.03.32.14.58.34.78s.5.3.92.3Z" fill="#1c2126" stroke-width="0"/><path d="M278.05,618.4c-.11,0-.19-.04-.25-.11-.06-.07-.08-.17-.06-.27l1.6-7.54c.02-.12.08-.21.17-.29.09-.07.19-.11.3-.11h1.29c.11,0,.19.04.25.11s.08.17.06.29l-.14.66c.26-.34.58-.6.98-.78s.88-.27,1.44-.27h.78c.12,0,.2.04.26.11.05.07.07.16.05.27l-.24,1.15c-.02.11-.08.2-.17.27-.09.07-.19.11-.29.11h-1.25c-.51,0-.94.14-1.29.43-.35.28-.57.68-.68,1.19l-.94,4.4c-.02.11-.07.2-.16.27s-.19.11-.3.11h-1.39Z" fill="#1c2126" stroke-width="0"/><path d="M288.05,618.56c-.78,0-1.43-.15-1.95-.46-.52-.31-.87-.76-1.07-1.35-.2-.59-.23-1.29-.09-2.13.02-.11.05-.24.08-.41.03-.17.06-.3.1-.39.21-.81.54-1.51.99-2.09.45-.58.99-1.03,1.64-1.34s1.36-.47,2.14-.47c.86,0,1.55.18,2.06.54s.84.85,1.01,1.49.16,1.37,0,2.2l-.08.34c-.02.11-.08.2-.17.27-.09.08-.19.11-.31.11h-5.31c-.01.06-.02.11-.03.13-.05.38-.05.72.02,1.03.06.31.21.57.42.76s.51.29.87.29c.3,0,.56-.04.79-.13.22-.09.41-.2.55-.31.14-.12.25-.21.33-.29.13-.13.22-.21.29-.23.06-.03.15-.04.27-.04h1.39c.1,0,.17.03.22.1.05.06.07.14.05.24-.05.17-.19.38-.4.62-.21.24-.5.48-.86.72-.36.24-.79.43-1.29.58s-1.04.23-1.64.23ZM287.36,613.53h3.54l.02-.05c.1-.42.1-.78.02-1.1s-.23-.56-.46-.74c-.22-.18-.52-.26-.9-.26s-.71.09-1.02.26c-.3.18-.56.42-.76.74-.2.31-.35.68-.43,1.1l-.02.05Z" fill="#1c2126" stroke-width="0"/><path d="M1125.56,618.56c-.88,0-1.63-.15-2.22-.44s-1.05-.71-1.37-1.26c-.31-.54-.49-1.18-.52-1.9-.01-.21-.02-.46-.02-.73s0-.51.02-.71c.03-.74.21-1.37.54-1.91.33-.54.79-.96,1.39-1.25s1.32-.44,2.18-.44,1.56.15,2.16.44,1.06.71,1.39,1.25c.33.54.52,1.18.56,1.91.01.2.02.44.02.71s0,.52-.02.73c-.04.72-.22,1.36-.54,1.9-.31.54-.77.96-1.37,1.26s-1.33.44-2.21.44ZM1125.56,616.79c.52,0,.92-.16,1.18-.48.26-.32.41-.79.44-1.42.01-.16.02-.37.02-.64s0-.48-.02-.64c-.03-.62-.18-1.09-.44-1.42-.26-.33-.65-.49-1.18-.49s-.92.16-1.18.49c-.27.32-.42.8-.45,1.42-.01.16-.02.37-.02.64s0,.48.02.64c.03.63.18,1.1.45,1.42s.66.48,1.18.48Z" fill="#1c2126" stroke-width="0"/><path d="M1134.64,618.56c-.66,0-1.23-.08-1.7-.23s-.86-.34-1.15-.57c-.29-.22-.51-.45-.66-.68-.14-.23-.22-.42-.23-.58-.01-.12.03-.21.11-.29.09-.07.17-.11.26-.11h1.55s.08,0,.1.02c.03,0,.06.04.1.08.14.1.28.21.42.33.14.12.32.23.52.31.2.09.45.13.74.13.35,0,.65-.07.89-.22.24-.14.36-.35.36-.62,0-.19-.05-.35-.16-.48-.11-.13-.31-.24-.62-.35s-.77-.22-1.38-.35c-.58-.13-1.07-.3-1.47-.51-.41-.21-.71-.48-.91-.81-.2-.33-.3-.72-.3-1.18,0-.42.13-.82.39-1.2.26-.38.65-.7,1.16-.95s1.15-.38,1.92-.38c.59,0,1.1.07,1.54.22s.81.33,1.11.54.53.44.68.67c.15.23.24.43.25.6.01.12-.02.21-.1.29-.08.08-.16.11-.26.11h-1.42c-.05,0-.1-.01-.14-.03s-.08-.05-.11-.08c-.13-.07-.26-.17-.39-.29-.13-.12-.29-.22-.47-.3-.18-.08-.42-.13-.7-.13-.34,0-.61.08-.79.23-.19.16-.28.35-.28.58,0,.15.05.29.14.42.1.13.29.25.58.35.29.11.75.22,1.37.34.73.13,1.3.32,1.73.58s.73.55.91.89c.18.34.27.7.27,1.08,0,.5-.15.95-.44,1.34-.29.39-.73.69-1.3.91-.58.22-1.28.33-2.11.33Z" fill="#1c2126" stroke-width="0"/><path d="M1143.33,618.56c-.66,0-1.23-.08-1.7-.23s-.86-.34-1.15-.57c-.29-.22-.51-.45-.66-.68-.14-.23-.22-.42-.23-.58-.01-.12.03-.21.11-.29.09-.07.17-.11.26-.11h1.55s.08,0,.1.02c.03,0,.06.04.1.08.14.1.28.21.42.33.14.12.32.23.52.31.2.09.45.13.74.13.35,0,.65-.07.89-.22.24-.14.36-.35.36-.62,0-.19-.05-.35-.16-.48-.11-.13-.31-.24-.62-.35s-.77-.22-1.38-.35c-.58-.13-1.07-.3-1.47-.51-.41-.21-.71-.48-.91-.81-.2-.33-.3-.72-.3-1.18,0-.42.13-.82.39-1.2.26-.38.65-.7,1.16-.95s1.15-.38,1.92-.38c.59,0,1.1.07,1.54.22s.81.33,1.11.54.53.44.68.67c.15.23.24.43.25.6.01.12-.02.21-.1.29-.08.08-.16.11-.26.11h-1.42c-.05,0-.1-.01-.14-.03s-.08-.05-.11-.08c-.13-.07-.26-.17-.39-.29-.13-.12-.29-.22-.47-.3-.18-.08-.42-.13-.7-.13-.34,0-.61.08-.79.23-.19.16-.28.35-.28.58,0,.15.05.29.14.42.1.13.29.25.58.35.29.11.75.22,1.37.34.73.13,1.3.32,1.73.58s.73.55.91.89c.18.34.27.7.27,1.08,0,.5-.15.95-.44,1.34-.29.39-.73.69-1.3.91-.58.22-1.28.33-2.11.33Z" fill="#1c2126" stroke-width="0"/><path d="M1149.04,618.4c-.12,0-.21-.04-.29-.11-.07-.07-.11-.17-.11-.29v-1.81c0-.11.04-.2.11-.28.08-.08.17-.12.29-.12h1.81c.11,0,.2.04.28.12s.12.17.12.28v1.81c0,.12-.04.21-.12.29s-.17.11-.28.11h-1.81Z" fill="#1c2126" stroke-width="0"/><path d="M1153.56,618.4c-.12,0-.21-.04-.29-.11s-.11-.17-.11-.29v-10.56c0-.12.04-.21.11-.29.07-.07.17-.11.29-.11h1.6c.12,0,.21.04.29.11.08.08.11.17.11.29v10.56c0,.12-.04.21-.11.29-.07.07-.17.11-.29.11h-1.6Z" fill="#1c2126" stroke-width="0"/><path d="M1161.38,618.56c-.88,0-1.63-.15-2.22-.44s-1.05-.71-1.37-1.26c-.31-.54-.49-1.18-.52-1.9-.01-.21-.02-.46-.02-.73s0-.51.02-.71c.03-.74.21-1.37.54-1.91.33-.54.79-.96,1.39-1.25s1.32-.44,2.18-.44,1.56.15,2.16.44,1.06.71,1.39,1.25c.33.54.52,1.18.56,1.91.01.2.02.44.02.71s0,.52-.02.73c-.04.72-.22,1.36-.54,1.9-.31.54-.77.96-1.37,1.26s-1.33.44-2.21.44ZM1161.38,616.79c.52,0,.92-.16,1.18-.48.26-.32.41-.79.44-1.42.01-.16.02-.37.02-.64s0-.48-.02-.64c-.03-.62-.18-1.09-.44-1.42-.26-.33-.65-.49-1.18-.49s-.92.16-1.18.49c-.27.32-.42.8-.45,1.42-.01.16-.02.37-.02.64s0,.48.02.64c.03.63.18,1.1.45,1.42s.66.48,1.18.48Z" fill="#1c2126" stroke-width="0"/><path d="M1169.81,618.4c-.16,0-.28-.04-.36-.12-.08-.08-.15-.17-.2-.28l-3.01-7.42s-.03-.09-.03-.14c0-.1.03-.18.1-.25.07-.07.15-.11.25-.11h1.55c.14,0,.24.04.31.11s.11.14.14.21l1.97,5.26,1.97-5.26c.03-.06.08-.13.14-.21.06-.07.17-.11.3-.11h1.55c.1,0,.18.04.25.11s.1.15.1.25c0,.05,0,.1-.02.14l-3.01,7.42c-.04.11-.11.2-.19.28-.09.08-.21.12-.38.12h-1.44Z" fill="#1c2126" stroke-width="0"/><path d="M1179.6,618.56c-1.23,0-2.2-.34-2.92-1.02-.72-.68-1.1-1.67-1.14-2.98v-.67c.04-.83.23-1.54.56-2.14.33-.59.79-1.04,1.39-1.36.6-.31,1.3-.47,2.1-.47.91,0,1.66.19,2.26.55.6.37,1.05.87,1.35,1.5.3.63.46,1.36.46,2.18v.37c0,.11-.04.2-.11.28-.07.08-.17.12-.29.12h-5.22v.11c.01.34.08.65.19.94.12.28.29.51.52.68.23.17.51.26.84.26.26,0,.47-.04.64-.12s.31-.17.42-.27.19-.19.25-.26c.1-.12.17-.19.23-.22s.15-.04.26-.04h1.7c.1,0,.18.03.25.1.07.06.1.14.09.24-.01.18-.1.4-.26.65-.17.25-.41.5-.73.74s-.72.44-1.19.6-1.02.24-1.64.24ZM1178.04,613.46h3.12v-.05c0-.37-.06-.7-.18-.98-.12-.28-.3-.51-.54-.66-.23-.16-.52-.24-.85-.24s-.61.08-.84.24c-.23.16-.41.38-.53.66-.12.28-.18.61-.18.98v.05Z" fill="#1c2126" stroke-width="0"/><polygon points="1104.46 614.96 1098.89 611.74 1093.31 614.96 1104.46 621.39 1115.62 614.96 1110.04 611.74 1104.46 614.96" fill="#b7303d" stroke="#1c2126" stroke-linejoin="round" stroke-width=".33"/><polygon points="1098.89 605.3 1098.89 611.74 1093.31 614.96 1093.31 608.52 1098.89 605.3" fill="#ea4f4b" stroke="#1c2126" stroke-linejoin="round" stroke-width=".33"/><polygon points="1098.89 605.3 1098.89 611.74 1104.46 614.96 1104.46 608.52 1098.89 605.3" fill="#ff6b60" stroke="#1c2126" stroke-linejoin="round" stroke-width=".33"/><polygon points="1110.04 605.3 1110.04 611.74 1104.46 614.96 1104.46 608.52 1110.04 605.3" fill="#ea4f4b" stroke="#1c2126" stroke-linejoin="round" stroke-width=".33"/><polygon points="1110.04 605.3 1110.04 611.74 1115.61 614.96 1115.62 608.52 1110.04 605.3" fill="#ff6b60" stroke="#1c2126" stroke-linejoin="round" stroke-width=".33"/><path d="M1134.07,98.64c.23-1.03.06-2.1-.18-3.13-.42-1.8-1.13-3.67-2.63-4.74-1.58-1.13-3.7-1.14-5.6-.75-1.7.34-3.33.99-4.83,1.86.41-2.39.33-4.91-.62-7.14-.96-2.26-2.89-4.17-5.28-4.74-2.39-.57-5.16.42-6.36,2.57-1.15,2.05-.72,4.59-.25,6.9,1.18,5.76,2.46,11.5,3.83,17.21,4.85-1.04,9.7-2.08,14.55-3.12,3.06-.66,6.69-1.85,7.37-4.91Z" fill="#ff6b60" stroke="#1c2126" stroke-linejoin="round" stroke-width="2"/><path d="M1095.78,61.18c-.54-1.09-1.48-1.93-2.44-2.67-1.68-1.31-3.67-2.46-5.8-2.33-2.23.14-4.14,1.67-5.56,3.39-1.27,1.54-2.27,3.3-2.97,5.17-1.37-2.44-3.27-4.64-5.74-5.95-2.5-1.33-5.62-1.63-8.17-.41-2.55,1.23-4.32,4.13-3.84,6.92.46,2.67,2.69,4.64,4.79,6.36,5.24,4.3,10.55,8.51,15.93,12.64,3.59-4.45,7.17-8.91,10.76-13.36,2.26-2.81,4.65-6.52,3.04-9.75Z" fill="#ff6b60" stroke="#1c2126" stroke-linejoin="round" stroke-width="2"/><path d="M103.48,177.3c-.59,0-1.07-.19-1.44-.56-.37-.37-.56-.85-.56-1.44v-17.6l-18.72-33.84c-.05-.16-.11-.31-.16-.44-.05-.13-.08-.28-.08-.44,0-.43.17-.81.52-1.16.35-.35.73-.52,1.16-.52h8.56c.69,0,1.25.19,1.68.56.43.37.72.72.88,1.04l12.56,22,12.56-22c.16-.32.45-.67.88-1.04.43-.37,1.01-.56,1.76-.56h8.48c.48,0,.88.17,1.2.52.32.35.48.73.48,1.16,0,.16-.01.31-.04.44-.03.13-.09.28-.2.44l-18.72,33.84v17.6c0,.59-.19,1.07-.56,1.44s-.85.56-1.44.56h-8.8Z" fill="#1c2126" stroke-width="0"/><path d="M151.88,178.1c-4.43,0-8.13-.73-11.12-2.2-2.99-1.47-5.27-3.56-6.84-6.28-1.57-2.72-2.44-5.89-2.6-9.52-.05-1.07-.08-2.28-.08-3.64s.03-2.55.08-3.56c.16-3.68,1.07-6.87,2.72-9.56,1.65-2.69,3.97-4.77,6.96-6.24,2.99-1.47,6.61-2.2,10.88-2.2s7.81.73,10.8,2.2c2.99,1.47,5.31,3.55,6.96,6.24,1.65,2.69,2.59,5.88,2.8,9.56.05,1.01.08,2.2.08,3.56s-.03,2.57-.08,3.64c-.21,3.63-1.11,6.8-2.68,9.52-1.57,2.72-3.85,4.81-6.84,6.28-2.99,1.47-6.67,2.2-11.04,2.2ZM151.88,169.22c2.61,0,4.57-.8,5.88-2.4,1.31-1.6,2.04-3.97,2.2-7.12.05-.8.08-1.87.08-3.2s-.03-2.4-.08-3.2c-.16-3.09-.89-5.45-2.2-7.08-1.31-1.63-3.27-2.44-5.88-2.44s-4.59.81-5.92,2.44c-1.33,1.63-2.08,3.99-2.24,7.08-.05.8-.08,1.87-.08,3.2s.03,2.4.08,3.2c.16,3.15.91,5.52,2.24,7.12,1.33,1.6,3.31,2.4,5.92,2.4Z" fill="#1c2126" stroke-width="0"/><path d="M196.2,178.1c-3.09,0-5.83-.71-8.2-2.12-2.37-1.41-4.23-3.47-5.56-6.16-1.33-2.69-2-5.96-2-9.8v-22.32c0-.59.2-1.07.6-1.44.4-.37.87-.56,1.4-.56h8.56c.53,0,.99.19,1.36.56.37.37.56.85.56,1.44v21.84c0,5.97,2.61,8.96,7.84,8.96,2.51,0,4.49-.79,5.96-2.36,1.47-1.57,2.2-3.77,2.2-6.6v-21.84c0-.59.19-1.07.56-1.44.37-.37.85-.56,1.44-.56h8.48c.53,0,.99.19,1.36.56.37.37.56.85.56,1.44v37.6c0,.59-.19,1.07-.56,1.44-.37.37-.83.56-1.36.56h-7.92c-.53,0-.99-.19-1.36-.56-.37-.37-.56-.85-.56-1.44v-3.12c-1.39,1.92-3.17,3.39-5.36,4.4-2.19,1.01-4.85,1.52-8,1.52Z" fill="#1c2126" stroke-width="0"/><path d="M233.32,177.3c-.53,0-1-.19-1.4-.56-.4-.37-.6-.85-.6-1.44v-37.6c0-.53.2-1,.6-1.4.4-.4.87-.6,1.4-.6h7.84c.59,0,1.07.2,1.44.6.37.4.56.87.56,1.4v3.2c1.33-1.65,2.99-2.93,4.96-3.84,1.97-.91,4.21-1.36,6.72-1.36h3.44c.59,0,1.07.19,1.44.56.37.37.56.85.56,1.44v6.96c0,.53-.19.99-.56,1.36s-.85.56-1.44.56h-6.96c-2.4,0-4.25.67-5.56,2-1.31,1.33-1.96,3.17-1.96,5.52v21.2c0,.59-.2,1.07-.6,1.44-.4.37-.87.56-1.4.56h-8.48Z" fill="#1c2126" stroke-width="0"/><path d="M300.92,178.1c-3.95,0-7.4-.72-10.36-2.16-2.96-1.44-5.29-3.53-7-6.28-1.71-2.75-2.64-6.04-2.8-9.88-.05-.85-.08-1.93-.08-3.24s.03-2.39.08-3.24c.16-3.89,1.08-7.21,2.76-9.96,1.68-2.75,4.01-4.84,7-6.28,2.99-1.44,6.45-2.16,10.4-2.16,3.52,0,6.53.49,9.04,1.48,2.51.99,4.56,2.24,6.16,3.76,1.6,1.52,2.8,3.08,3.6,4.68.8,1.6,1.23,3.01,1.28,4.24.05.59-.13,1.07-.56,1.44-.43.37-.91.56-1.44.56h-8.56c-.59,0-1.03-.13-1.32-.4-.29-.27-.57-.69-.84-1.28-.69-1.87-1.63-3.2-2.8-4-1.17-.8-2.64-1.2-4.4-1.2-2.4,0-4.28.77-5.64,2.32s-2.09,3.95-2.2,7.2c-.11,2.08-.11,3.97,0,5.68.11,3.31.84,5.71,2.2,7.2s3.24,2.24,5.64,2.24c1.87,0,3.36-.4,4.48-1.2,1.12-.8,2.03-2.13,2.72-4,.27-.59.55-1.01.84-1.28.29-.27.73-.4,1.32-.4h8.56c.53,0,1.01.19,1.44.56.43.37.61.85.56,1.44-.05.91-.32,1.97-.8,3.2-.48,1.23-1.21,2.48-2.2,3.76-.99,1.28-2.25,2.47-3.8,3.56-1.55,1.09-3.43,1.97-5.64,2.64-2.21.67-4.76,1-7.64,1Z" fill="#1c2126" stroke-width="0"/><path d="M347.8,178.1c-4.43,0-8.13-.73-11.12-2.2-2.99-1.47-5.27-3.56-6.84-6.28-1.57-2.72-2.44-5.89-2.6-9.52-.05-1.07-.08-2.28-.08-3.64s.03-2.55.08-3.56c.16-3.68,1.07-6.87,2.72-9.56,1.65-2.69,3.97-4.77,6.96-6.24,2.99-1.47,6.61-2.2,10.88-2.2s7.81.73,10.8,2.2c2.99,1.47,5.31,3.55,6.96,6.24,1.65,2.69,2.59,5.88,2.8,9.56.05,1.01.08,2.2.08,3.56s-.03,2.57-.08,3.64c-.21,3.63-1.11,6.8-2.68,9.52-1.57,2.72-3.85,4.81-6.84,6.28-2.99,1.47-6.67,2.2-11.04,2.2ZM347.8,169.22c2.61,0,4.57-.8,5.88-2.4,1.31-1.6,2.04-3.97,2.2-7.12.05-.8.08-1.87.08-3.2s-.03-2.4-.08-3.2c-.16-3.09-.89-5.45-2.2-7.08-1.31-1.63-3.27-2.44-5.88-2.44s-4.59.81-5.92,2.44c-1.33,1.63-2.08,3.99-2.24,7.08-.05.8-.08,1.87-.08,3.2s.03,2.4.08,3.2c.16,3.15.91,5.52,2.24,7.12,1.33,1.6,3.31,2.4,5.92,2.4Z" fill="#1c2126" stroke-width="0"/><path d="M392.28,178.1c-2.67,0-5.04-.44-7.12-1.32-2.08-.88-3.84-2.16-5.28-3.84-1.44-1.68-2.53-3.68-3.28-6-.75-2.32-1.2-4.89-1.36-7.72-.05-1.01-.08-1.93-.08-2.76s.03-1.72.08-2.68c.11-2.77.55-5.31,1.32-7.6.77-2.29,1.87-4.28,3.28-5.96,1.41-1.68,3.17-2.99,5.28-3.92,2.11-.93,4.49-1.4,7.16-1.4s5.15.47,7.12,1.4c1.97.93,3.6,2.12,4.88,3.56v-17.36c0-.59.19-1.07.56-1.44s.85-.56,1.44-.56h8.24c.59,0,1.07.19,1.44.56.37.37.56.85.56,1.44v52.8c0,.59-.19,1.07-.56,1.44-.37.37-.85.56-1.44.56h-7.68c-.53,0-.99-.19-1.36-.56s-.56-.85-.56-1.44v-2.72c-1.33,1.6-3.01,2.92-5.04,3.96-2.03,1.04-4.56,1.56-7.6,1.56ZM395.96,168.5c1.97,0,3.56-.45,4.76-1.36,1.2-.91,2.08-2.05,2.64-3.44.56-1.39.87-2.88.92-4.48.11-1.01.16-2.03.16-3.04s-.05-2-.16-2.96c-.05-1.49-.39-2.89-1-4.2-.61-1.31-1.51-2.39-2.68-3.24-1.17-.85-2.72-1.28-4.64-1.28-2.03,0-3.63.44-4.8,1.32-1.17.88-2.01,2.04-2.52,3.48-.51,1.44-.81,3.01-.92,4.72-.11,1.65-.11,3.31,0,4.96.11,1.71.41,3.28.92,4.72.51,1.44,1.35,2.6,2.52,3.48,1.17.88,2.77,1.32,4.8,1.32Z" fill="#1c2126" stroke-width="0"/><path d="M445.16,178.1c-6.13,0-11-1.71-14.6-5.12-3.6-3.41-5.51-8.37-5.72-14.88v-3.36c.21-4.16,1.15-7.72,2.8-10.68,1.65-2.96,3.97-5.23,6.96-6.8,2.99-1.57,6.48-2.36,10.48-2.36,4.53,0,8.29.92,11.28,2.76,2.99,1.84,5.24,4.35,6.76,7.52,1.52,3.17,2.28,6.81,2.28,10.92v1.84c0,.53-.19,1-.56,1.4-.37.4-.85.6-1.44.6h-26.08v.56c.05,1.71.37,3.27.96,4.68.59,1.41,1.45,2.55,2.6,3.4,1.15.85,2.55,1.28,4.2,1.28,1.28,0,2.35-.2,3.2-.6.85-.4,1.56-.85,2.12-1.36.56-.51.97-.95,1.24-1.32.48-.59.87-.95,1.16-1.08.29-.13.73-.2,1.32-.2h8.48c.48,0,.89.16,1.24.48.35.32.49.72.44,1.2-.05.91-.49,1.99-1.32,3.24-.83,1.25-2.04,2.48-3.64,3.68-1.6,1.2-3.59,2.2-5.96,3-2.37.8-5.11,1.2-8.2,1.2ZM437.32,152.58h15.6v-.24c0-1.87-.31-3.51-.92-4.92-.61-1.41-1.51-2.52-2.68-3.32-1.17-.8-2.59-1.2-4.24-1.2s-3.05.4-4.2,1.2c-1.15.8-2.03,1.91-2.64,3.32-.61,1.41-.92,3.05-.92,4.92v.24Z" fill="#1c2126" stroke-width="0"/><path d="M492.84,129.3c-.53,0-.99-.19-1.36-.56-.37-.37-.56-.85-.56-1.44v-6.48c0-.53.19-1,.56-1.4.37-.4.83-.6,1.36-.6h8.48c.53,0,1,.2,1.4.6.4.4.6.87.6,1.4v6.48c0,.59-.2,1.07-.6,1.44-.4.37-.87.56-1.4.56h-8.48ZM493.08,177.3c-.53,0-1-.19-1.4-.56-.4-.37-.6-.85-.6-1.44v-37.6c0-.59.2-1.07.6-1.44.4-.37.87-.56,1.4-.56h8.08c.53,0,.99.19,1.36.56.37.37.56.85.56,1.44v37.6c0,.59-.19,1.07-.56,1.44-.37.37-.83.56-1.36.56h-8.08Z" fill="#1c2126" stroke-width="0"/><path d="M529.56,178.1c-3.31,0-6.15-.39-8.52-1.16-2.37-.77-4.29-1.72-5.76-2.84-1.47-1.12-2.56-2.25-3.28-3.4-.72-1.15-1.11-2.12-1.16-2.92-.05-.59.13-1.07.56-1.44.43-.37.85-.56,1.28-.56h7.76c.21,0,.39.03.52.08.13.05.31.19.52.4.69.48,1.4,1.03,2.12,1.64.72.61,1.59,1.13,2.6,1.56,1.01.43,2.24.64,3.68.64,1.76,0,3.24-.36,4.44-1.08,1.2-.72,1.8-1.75,1.8-3.08,0-.96-.27-1.76-.8-2.4-.53-.64-1.57-1.23-3.12-1.76-1.55-.53-3.84-1.12-6.88-1.76-2.88-.64-5.33-1.49-7.36-2.56-2.03-1.07-3.55-2.41-4.56-4.04-1.01-1.63-1.52-3.59-1.52-5.88,0-2.08.65-4.08,1.96-6,1.31-1.92,3.24-3.51,5.8-4.76,2.56-1.25,5.76-1.88,9.6-1.88,2.93,0,5.51.36,7.72,1.08,2.21.72,4.07,1.63,5.56,2.72,1.49,1.09,2.63,2.21,3.4,3.36.77,1.15,1.19,2.15,1.24,3,.05.59-.11,1.07-.48,1.44-.37.37-.8.56-1.28.56h-7.12c-.27,0-.51-.05-.72-.16-.21-.11-.4-.24-.56-.4-.64-.37-1.29-.85-1.96-1.44-.67-.59-1.45-1.09-2.36-1.52-.91-.43-2.08-.64-3.52-.64-1.71,0-3.03.39-3.96,1.16-.93.77-1.4,1.75-1.4,2.92,0,.75.24,1.44.72,2.08.48.64,1.45,1.23,2.92,1.76,1.47.53,3.75,1.09,6.84,1.68,3.63.64,6.51,1.6,8.64,2.88,2.13,1.28,3.65,2.76,4.56,4.44.91,1.68,1.36,3.48,1.36,5.4,0,2.51-.73,4.73-2.2,6.68-1.47,1.95-3.64,3.47-6.52,4.56s-6.4,1.64-10.56,1.64Z" fill="#1c2126" stroke-width="0"/><path d="M105.56,290.9c-3.95,0-7.23-.52-9.84-1.56-2.61-1.04-4.68-2.29-6.2-3.76-1.52-1.47-2.6-2.92-3.24-4.36-.64-1.44-.99-2.59-1.04-3.44-.05-.53.13-1,.56-1.4.43-.4.91-.6,1.44-.6h8.56c.53,0,.96.12,1.28.36s.59.68.8,1.32c.32.64.72,1.32,1.2,2.04.48.72,1.2,1.32,2.16,1.8s2.27.72,3.92.72c1.87,0,3.41-.27,4.64-.8,1.23-.53,2.15-1.44,2.76-2.72s.92-3.01.92-5.2v-5.36c-1.28,1.39-2.89,2.53-4.84,3.44-1.95.91-4.33,1.36-7.16,1.36s-5.21-.44-7.32-1.32c-2.11-.88-3.85-2.13-5.24-3.76-1.39-1.63-2.45-3.59-3.2-5.88-.75-2.29-1.17-4.88-1.28-7.76-.05-1.44-.05-2.85,0-4.24.11-2.77.53-5.31,1.28-7.6.75-2.29,1.81-4.28,3.2-5.96,1.39-1.68,3.13-2.99,5.24-3.92,2.11-.93,4.55-1.4,7.32-1.4,2.93,0,5.44.56,7.52,1.68s3.79,2.51,5.12,4.16v-3.04c0-.53.19-1,.56-1.4s.83-.6,1.36-.6h7.84c.59,0,1.07.2,1.44.6.37.4.56.87.56,1.4l.08,38.48c0,4-.77,7.39-2.32,10.16-1.55,2.77-3.83,4.89-6.84,6.36-3.01,1.47-6.76,2.2-11.24,2.2ZM105.16,263.3c1.92,0,3.48-.43,4.68-1.28,1.2-.85,2.09-1.96,2.68-3.32.59-1.36.91-2.79.96-4.28.05-.59.08-1.43.08-2.52s-.03-1.93-.08-2.52c-.05-1.49-.37-2.91-.96-4.24-.59-1.33-1.48-2.44-2.68-3.32-1.2-.88-2.76-1.32-4.68-1.32-2.03,0-3.63.44-4.8,1.32-1.17.88-2.01,2.04-2.52,3.48-.51,1.44-.81,3.01-.92,4.72-.11,1.28-.11,2.53,0,3.76.11,1.76.41,3.36.92,4.8.51,1.44,1.35,2.59,2.52,3.44,1.17.85,2.77,1.28,4.8,1.28Z" fill="#1c2126" stroke-width="0"/><path d="M137.96,273.3c-.53,0-1-.19-1.4-.56-.4-.37-.6-.85-.6-1.44v-37.6c0-.53.2-1,.6-1.4.4-.4.87-.6,1.4-.6h7.84c.59,0,1.07.2,1.44.6.37.4.56.87.56,1.4v3.2c1.33-1.65,2.99-2.93,4.96-3.84,1.97-.91,4.21-1.36,6.72-1.36h3.44c.59,0,1.07.19,1.44.56.37.37.56.85.56,1.44v6.96c0,.53-.19.99-.56,1.36s-.85.56-1.44.56h-6.96c-2.4,0-4.25.67-5.56,2-1.31,1.33-1.96,3.17-1.96,5.52v21.2c0,.59-.2,1.07-.6,1.44-.4.37-.87.56-1.4.56h-8.48Z" fill="#1c2126" stroke-width="0"/><path d="M189,274.1c-6.13,0-11-1.71-14.6-5.12-3.6-3.41-5.51-8.37-5.72-14.88v-3.36c.21-4.16,1.15-7.72,2.8-10.68,1.65-2.96,3.97-5.23,6.96-6.8,2.99-1.57,6.48-2.36,10.48-2.36,4.53,0,8.29.92,11.28,2.76,2.99,1.84,5.24,4.35,6.76,7.52,1.52,3.17,2.28,6.81,2.28,10.92v1.84c0,.53-.19,1-.56,1.4-.37.4-.85.6-1.44.6h-26.08v.56c.05,1.71.37,3.27.96,4.68.59,1.41,1.45,2.55,2.6,3.4,1.15.85,2.55,1.28,4.2,1.28,1.28,0,2.35-.2,3.2-.6.85-.4,1.56-.85,2.12-1.36.56-.51.97-.95,1.24-1.32.48-.59.87-.95,1.16-1.08.29-.13.73-.2,1.32-.2h8.48c.48,0,.89.16,1.24.48.35.32.49.72.44,1.2-.05.91-.49,1.99-1.32,3.24-.83,1.25-2.04,2.48-3.64,3.68-1.6,1.2-3.59,2.2-5.96,3-2.37.8-5.11,1.2-8.2,1.2ZM181.16,248.58h15.6v-.24c0-1.87-.31-3.51-.92-4.92-.61-1.41-1.51-2.52-2.68-3.32-1.17-.8-2.59-1.2-4.24-1.2s-3.05.4-4.2,1.2c-1.15.8-2.03,1.91-2.64,3.32-.61,1.41-.92,3.05-.92,4.92v.24Z" fill="#1c2126" stroke-width="0"/><path d="M229.56,274.1c-2.83,0-5.36-.55-7.6-1.64-2.24-1.09-4.03-2.57-5.36-4.44-1.33-1.87-2-3.95-2-6.24,0-3.79,1.53-6.77,4.6-8.96,3.07-2.19,7.11-3.68,12.12-4.48l10.48-1.52v-1.44c0-2.08-.48-3.68-1.44-4.8s-2.64-1.68-5.04-1.68c-1.76,0-3.16.35-4.2,1.04-1.04.69-1.85,1.6-2.44,2.72-.43.69-1.07,1.04-1.92,1.04h-7.6c-.59,0-1.04-.17-1.36-.52-.32-.35-.45-.76-.4-1.24,0-.91.35-1.97,1.04-3.2.69-1.23,1.76-2.44,3.2-3.64,1.44-1.2,3.29-2.2,5.56-3,2.27-.8,5-1.2,8.2-1.2,3.36,0,6.24.4,8.64,1.2,2.4.8,4.33,1.92,5.8,3.36,1.47,1.44,2.53,3.11,3.2,5,.67,1.89,1,3.93,1,6.12v24.72c0,.59-.19,1.07-.56,1.44-.37.37-.83.56-1.36.56h-7.92c-.53,0-.99-.19-1.36-.56s-.56-.85-.56-1.44v-2.96c-.69,1.01-1.63,1.96-2.8,2.84-1.17.88-2.57,1.59-4.2,2.12-1.63.53-3.53.8-5.72.8ZM232.76,265.78c1.76,0,3.33-.37,4.72-1.12,1.39-.75,2.48-1.89,3.28-3.44.8-1.55,1.2-3.49,1.2-5.84v-1.36l-7.44,1.2c-2.83.48-4.91,1.2-6.24,2.16-1.33.96-2,2.13-2,3.52,0,1.01.31,1.88.92,2.6.61.72,1.41,1.28,2.4,1.68.99.4,2.04.6,3.16.6Z" fill="#1c2126" stroke-width="0"/><path d="M283.4,273.3c-3.31,0-6.12-.55-8.44-1.64-2.32-1.09-4.09-2.79-5.32-5.08-1.23-2.29-1.84-5.17-1.84-8.64v-16.8h-6.24c-.59,0-1.07-.19-1.44-.56s-.56-.83-.56-1.36v-5.52c0-.59.19-1.07.56-1.44.37-.37.85-.56,1.44-.56h6.24v-13.2c0-.59.2-1.07.6-1.44.4-.37.87-.56,1.4-.56h7.92c.53,0,.99.19,1.36.56.37.37.56.85.56,1.44v13.2h10c.59,0,1.07.19,1.44.56.37.37.56.85.56,1.44v5.52c0,.53-.19.99-.56,1.36s-.85.56-1.44.56h-10v15.84c0,2.03.37,3.61,1.12,4.76.75,1.15,2,1.72,3.76,1.72h5.84c.59,0,1.07.19,1.44.56.37.37.56.83.56,1.36v5.92c0,.59-.19,1.07-.56,1.44-.37.37-.85.56-1.44.56h-6.96Z" fill="#1c2126" stroke-width="0"/><path d="M318.84,273.3c-.53,0-1-.19-1.4-.56-.4-.37-.6-.85-.6-1.44v-37.6c0-.59.2-1.07.6-1.44.4-.37.87-.56,1.4-.56h7.84c.59,0,1.07.19,1.44.56.37.37.56.85.56,1.44v3.12c1.39-1.71,3.19-3.12,5.4-4.24,2.21-1.12,4.87-1.68,7.96-1.68s5.92.71,8.32,2.12c2.4,1.41,4.27,3.47,5.6,6.16,1.33,2.69,2,5.96,2,9.8v22.32c0,.59-.19,1.07-.56,1.44s-.85.56-1.44.56h-8.48c-.59,0-1.07-.19-1.44-.56-.37-.37-.56-.85-.56-1.44v-21.84c0-2.83-.68-5.03-2.04-6.6-1.36-1.57-3.35-2.36-5.96-2.36s-4.49.79-5.96,2.36c-1.47,1.57-2.2,3.77-2.2,6.6v21.84c0,.59-.19,1.07-.56,1.44-.37.37-.85.56-1.44.56h-8.48Z" fill="#1c2126" stroke-width="0"/><path d="M386.6,274.1c-4.43,0-8.13-.73-11.12-2.2-2.99-1.47-5.27-3.56-6.84-6.28-1.57-2.72-2.44-5.89-2.6-9.52-.05-1.07-.08-2.28-.08-3.64s.03-2.55.08-3.56c.16-3.68,1.07-6.87,2.72-9.56,1.65-2.69,3.97-4.77,6.96-6.24,2.99-1.47,6.61-2.2,10.88-2.2s7.81.73,10.8,2.2c2.99,1.47,5.31,3.55,6.96,6.24,1.65,2.69,2.59,5.88,2.8,9.56.05,1.01.08,2.2.08,3.56s-.03,2.57-.08,3.64c-.21,3.63-1.11,6.8-2.68,9.52-1.57,2.72-3.85,4.81-6.84,6.28-2.99,1.47-6.67,2.2-11.04,2.2ZM386.6,265.22c2.61,0,4.57-.8,5.88-2.4,1.31-1.6,2.04-3.97,2.2-7.12.05-.8.08-1.87.08-3.2s-.03-2.4-.08-3.2c-.16-3.09-.89-5.45-2.2-7.08-1.31-1.63-3.27-2.44-5.88-2.44s-4.59.81-5.92,2.44c-1.33,1.63-2.08,3.99-2.24,7.08-.05.8-.08,1.87-.08,3.2s.03,2.4.08,3.2c.16,3.15.91,5.52,2.24,7.12,1.33,1.6,3.31,2.4,5.92,2.4Z" fill="#1c2126" stroke-width="0"/><path d="M435.24,273.3c-.53,0-1-.19-1.4-.56-.4-.37-.6-.85-.6-1.44v-37.6c0-.59.2-1.07.6-1.44.4-.37.87-.56,1.4-.56h7.44c.59,0,1.07.19,1.44.56.37.37.56.85.56,1.44v2.72c1.12-1.49,2.63-2.77,4.52-3.84,1.89-1.07,4.15-1.63,6.76-1.68,6.13-.11,10.37,2.24,12.72,7.04,1.23-2.08,2.99-3.77,5.28-5.08,2.29-1.31,4.83-1.96,7.6-1.96s5.28.63,7.52,1.88,4.03,3.17,5.36,5.76c1.33,2.59,2,5.91,2,9.96v22.8c0,.59-.2,1.07-.6,1.44-.4.37-.87.56-1.4.56h-7.92c-.59,0-1.07-.19-1.44-.56-.37-.37-.56-.85-.56-1.44v-22.16c0-2.19-.31-3.89-.92-5.12-.61-1.23-1.44-2.12-2.48-2.68s-2.2-.84-3.48-.84c-1.12,0-2.2.28-3.24.84s-1.89,1.45-2.56,2.68c-.67,1.23-1,2.93-1,5.12v22.16c0,.59-.19,1.07-.56,1.44-.37.37-.83.56-1.36.56h-7.92c-.59,0-1.07-.19-1.44-.56-.37-.37-.56-.85-.56-1.44v-22.16c0-2.19-.32-3.89-.96-5.12-.64-1.23-1.48-2.12-2.52-2.68s-2.17-.84-3.4-.84c-1.12,0-2.2.28-3.24.84s-1.89,1.45-2.56,2.68c-.67,1.23-1,2.91-1,5.04v22.24c0,.59-.19,1.07-.56,1.44-.37.37-.85.56-1.44.56h-8.08Z" fill="#1c2126" stroke-width="0"/><path d="M518.28,274.1c-2.83,0-5.36-.55-7.6-1.64-2.24-1.09-4.03-2.57-5.36-4.44-1.33-1.87-2-3.95-2-6.24,0-3.79,1.53-6.77,4.6-8.96,3.07-2.19,7.11-3.68,12.12-4.48l10.48-1.52v-1.44c0-2.08-.48-3.68-1.44-4.8s-2.64-1.68-5.04-1.68c-1.76,0-3.16.35-4.2,1.04-1.04.69-1.85,1.6-2.44,2.72-.43.69-1.07,1.04-1.92,1.04h-7.6c-.59,0-1.04-.17-1.36-.52-.32-.35-.45-.76-.4-1.24,0-.91.35-1.97,1.04-3.2.69-1.23,1.76-2.44,3.2-3.64,1.44-1.2,3.29-2.2,5.56-3,2.27-.8,5-1.2,8.2-1.2,3.36,0,6.24.4,8.64,1.2,2.4.8,4.33,1.92,5.8,3.36,1.47,1.44,2.53,3.11,3.2,5,.67,1.89,1,3.93,1,6.12v24.72c0,.59-.19,1.07-.56,1.44-.37.37-.83.56-1.36.56h-7.92c-.53,0-.99-.19-1.36-.56s-.56-.85-.56-1.44v-2.96c-.69,1.01-1.63,1.96-2.8,2.84-1.17.88-2.57,1.59-4.2,2.12-1.63.53-3.53.8-5.72.8ZM521.48,265.78c1.76,0,3.33-.37,4.72-1.12,1.39-.75,2.48-1.89,3.28-3.44.8-1.55,1.2-3.49,1.2-5.84v-1.36l-7.44,1.2c-2.83.48-4.91,1.2-6.24,2.16-1.33.96-2,2.13-2,3.52,0,1.01.31,1.88.92,2.6.61.72,1.41,1.28,2.4,1.68.99.4,2.04.6,3.16.6Z" fill="#1c2126" stroke-width="0"/><path d="M572.12,273.3c-3.31,0-6.12-.55-8.44-1.64-2.32-1.09-4.09-2.79-5.32-5.08-1.23-2.29-1.84-5.17-1.84-8.64v-16.8h-6.24c-.59,0-1.07-.19-1.44-.56s-.56-.83-.56-1.36v-5.52c0-.59.19-1.07.56-1.44.37-.37.85-.56,1.44-.56h6.24v-13.2c0-.59.2-1.07.6-1.44.4-.37.87-.56,1.4-.56h7.92c.53,0,.99.19,1.36.56.37.37.56.85.56,1.44v13.2h10c.59,0,1.07.19,1.44.56.37.37.56.85.56,1.44v5.52c0,.53-.19.99-.56,1.36s-.85.56-1.44.56h-10v15.84c0,2.03.37,3.61,1.12,4.76.75,1.15,2,1.72,3.76,1.72h5.84c.59,0,1.07.19,1.44.56.37.37.56.83.56,1.36v5.92c0,.59-.19,1.07-.56,1.44-.37.37-.85.56-1.44.56h-6.96Z" fill="#1c2126" stroke-width="0"/><path d="M607.96,273.3c-3.31,0-6.12-.55-8.44-1.64-2.32-1.09-4.09-2.79-5.32-5.08-1.23-2.29-1.84-5.17-1.84-8.64v-16.8h-6.24c-.59,0-1.07-.19-1.44-.56s-.56-.83-.56-1.36v-5.52c0-.59.19-1.07.56-1.44.37-.37.85-.56,1.44-.56h6.24v-13.2c0-.59.2-1.07.6-1.44.4-.37.87-.56,1.4-.56h7.92c.53,0,.99.19,1.36.56.37.37.56.85.56,1.44v13.2h10c.59,0,1.07.19,1.44.56.37.37.56.85.56,1.44v5.52c0,.53-.19.99-.56,1.36s-.85.56-1.44.56h-10v15.84c0,2.03.37,3.61,1.12,4.76.75,1.15,2,1.72,3.76,1.72h5.84c.59,0,1.07.19,1.44.56.37.37.56.83.56,1.36v5.92c0,.59-.19,1.07-.56,1.44-.37.37-.85.56-1.44.56h-6.96Z" fill="#1c2126" stroke-width="0"/><path d="M642.36,274.1c-6.13,0-11-1.71-14.6-5.12-3.6-3.41-5.51-8.37-5.72-14.88v-3.36c.21-4.16,1.15-7.72,2.8-10.68,1.65-2.96,3.97-5.23,6.96-6.8,2.99-1.57,6.48-2.36,10.48-2.36,4.53,0,8.29.92,11.28,2.76,2.99,1.84,5.24,4.35,6.76,7.52,1.52,3.17,2.28,6.81,2.28,10.92v1.84c0,.53-.19,1-.56,1.4-.37.4-.85.6-1.44.6h-26.08v.56c.05,1.71.37,3.27.96,4.68.59,1.41,1.45,2.55,2.6,3.4,1.15.85,2.55,1.28,4.2,1.28,1.28,0,2.35-.2,3.2-.6.85-.4,1.56-.85,2.12-1.36.56-.51.97-.95,1.24-1.32.48-.59.87-.95,1.16-1.08.29-.13.73-.2,1.32-.2h8.48c.48,0,.89.16,1.24.48.35.32.49.72.44,1.2-.05.91-.49,1.99-1.32,3.24-.83,1.25-2.04,2.48-3.64,3.68-1.6,1.2-3.59,2.2-5.96,3-2.37.8-5.11,1.2-8.2,1.2ZM634.52,248.58h15.6v-.24c0-1.87-.31-3.51-.92-4.92-.61-1.41-1.51-2.52-2.68-3.32-1.17-.8-2.59-1.2-4.24-1.2s-3.05.4-4.2,1.2c-1.15.8-2.03,1.91-2.64,3.32-.61,1.41-.92,3.05-.92,4.92v.24Z" fill="#1c2126" stroke-width="0"/><path d="M672.6,273.3c-.53,0-1-.19-1.4-.56-.4-.37-.6-.85-.6-1.44v-37.6c0-.53.2-1,.6-1.4.4-.4.87-.6,1.4-.6h7.84c.59,0,1.07.2,1.44.6.37.4.56.87.56,1.4v3.2c1.33-1.65,2.99-2.93,4.96-3.84,1.97-.91,4.21-1.36,6.72-1.36h3.44c.59,0,1.07.19,1.44.56.37.37.56.85.56,1.44v6.96c0,.53-.19.99-.56,1.36s-.85.56-1.44.56h-6.96c-2.4,0-4.25.67-5.56,2-1.31,1.33-1.96,3.17-1.96,5.52v21.2c0,.59-.2,1.07-.6,1.44-.4.37-.87.56-1.4.56h-8.48Z" fill="#1c2126" stroke-width="0"/><path d="M88.04,369.3c-.59,0-1.07-.19-1.44-.56s-.56-.85-.56-1.44v-52.8c0-.59.19-1.07.56-1.44.37-.37.85-.56,1.44-.56h8.64c.59,0,1.07.19,1.44.56.37.37.56.85.56,1.44v18c1.39-1.71,3.13-3.07,5.24-4.08,2.11-1.01,4.63-1.52,7.56-1.52,3.15,0,5.93.71,8.36,2.12,2.43,1.41,4.32,3.47,5.68,6.16,1.36,2.69,2.04,5.96,2.04,9.8v22.32c0,.59-.19,1.07-.56,1.44-.37.37-.85.56-1.44.56h-8.72c-.53,0-.99-.19-1.36-.56-.37-.37-.56-.85-.56-1.44v-21.84c0-2.83-.69-5.03-2.08-6.6-1.39-1.57-3.36-2.36-5.92-2.36s-4.51.79-6,2.36c-1.49,1.57-2.24,3.77-2.24,6.6v21.84c0,.59-.19,1.07-.56,1.44-.37.37-.85.56-1.44.56h-8.64Z" fill="#1c2126" stroke-width="0"/><path d="M156.2,370.1c-4.43,0-8.13-.73-11.12-2.2-2.99-1.47-5.27-3.56-6.84-6.28-1.57-2.72-2.44-5.89-2.6-9.52-.05-1.07-.08-2.28-.08-3.64s.03-2.55.08-3.56c.16-3.68,1.07-6.87,2.72-9.56,1.65-2.69,3.97-4.77,6.96-6.24,2.99-1.47,6.61-2.2,10.88-2.2s7.81.73,10.8,2.2c2.99,1.47,5.31,3.55,6.96,6.24,1.65,2.69,2.59,5.88,2.8,9.56.05,1.01.08,2.2.08,3.56s-.03,2.57-.08,3.64c-.21,3.63-1.11,6.8-2.68,9.52-1.57,2.72-3.85,4.81-6.84,6.28-2.99,1.47-6.67,2.2-11.04,2.2ZM156.2,361.22c2.61,0,4.57-.8,5.88-2.4,1.31-1.6,2.04-3.97,2.2-7.12.05-.8.08-1.87.08-3.2s-.03-2.4-.08-3.2c-.16-3.09-.89-5.45-2.2-7.08-1.31-1.63-3.27-2.44-5.88-2.44s-4.59.81-5.92,2.44c-1.33,1.63-2.08,3.99-2.24,7.08-.05.8-.08,1.87-.08,3.2s.03,2.4.08,3.2c.16,3.15.91,5.52,2.24,7.12,1.33,1.6,3.31,2.4,5.92,2.4Z" fill="#1c2126" stroke-width="0"/><path d="M195.48,369.3c-.75,0-1.32-.19-1.72-.56-.4-.37-.71-.85-.92-1.44l-11.44-37.04c-.11-.27-.16-.53-.16-.8,0-.48.17-.89.52-1.24.35-.35.76-.52,1.24-.52h7.12c.64,0,1.15.19,1.52.56.37.37.61.72.72,1.04l7.28,24.64,7.76-24.48c.11-.37.36-.76.76-1.16.4-.4.97-.6,1.72-.6h4.56c.75,0,1.32.2,1.72.6.4.4.65.79.76,1.16l7.76,24.48,7.28-24.64c.05-.32.27-.67.64-1.04.37-.37.91-.56,1.6-.56h7.12c.48,0,.89.17,1.24.52.35.35.52.76.52,1.24,0,.27-.05.53-.16.8l-11.44,37.04c-.21.59-.51,1.07-.88,1.44s-.96.56-1.76.56h-6.16c-.75,0-1.33-.19-1.76-.56-.43-.37-.75-.85-.96-1.44l-7.76-23.6-7.84,23.6c-.21.59-.52,1.07-.92,1.44-.4.37-1,.56-1.8.56h-6.16Z" fill="#1c2126" stroke-width="0"/><path d="M271.8,384.5c-.43,0-.81-.16-1.16-.48-.35-.32-.52-.72-.52-1.2,0-.11.03-.25.08-.44.05-.19.13-.41.24-.68l6.24-14.96-15.36-36.24c-.16-.43-.24-.77-.24-1.04.05-.48.24-.89.56-1.24.32-.35.72-.52,1.2-.52h7.84c.64,0,1.12.17,1.44.52.32.35.56.71.72,1.08l9.92,24.72,10.16-24.72c.21-.43.48-.8.8-1.12.32-.32.83-.48,1.52-.48h7.6c.48,0,.89.17,1.24.52.35.35.52.73.52,1.16,0,.27-.08.64-.24,1.12l-22.64,52.4c-.21.43-.49.8-.84,1.12-.35.32-.87.48-1.56.48h-7.52Z" fill="#1c2126" stroke-width="0"/><path d="M328.52,370.1c-4.43,0-8.13-.73-11.12-2.2-2.99-1.47-5.27-3.56-6.84-6.28-1.57-2.72-2.44-5.89-2.6-9.52-.05-1.07-.08-2.28-.08-3.64s.03-2.55.08-3.56c.16-3.68,1.07-6.87,2.72-9.56,1.65-2.69,3.97-4.77,6.96-6.24,2.99-1.47,6.61-2.2,10.88-2.2s7.81.73,10.8,2.2c2.99,1.47,5.31,3.55,6.96,6.24,1.65,2.69,2.59,5.88,2.8,9.56.05,1.01.08,2.2.08,3.56s-.03,2.57-.08,3.64c-.21,3.63-1.11,6.8-2.68,9.52-1.57,2.72-3.85,4.81-6.84,6.28-2.99,1.47-6.67,2.2-11.04,2.2ZM328.52,361.22c2.61,0,4.57-.8,5.88-2.4,1.31-1.6,2.04-3.97,2.2-7.12.05-.8.08-1.87.08-3.2s-.03-2.4-.08-3.2c-.16-3.09-.89-5.45-2.2-7.08-1.31-1.63-3.27-2.44-5.88-2.44s-4.59.81-5.92,2.44c-1.33,1.63-2.08,3.99-2.24,7.08-.05.8-.08,1.87-.08,3.2s.03,2.4.08,3.2c.16,3.15.91,5.52,2.24,7.12,1.33,1.6,3.31,2.4,5.92,2.4Z" fill="#1c2126" stroke-width="0"/><path d="M372.84,370.1c-3.09,0-5.83-.71-8.2-2.12-2.37-1.41-4.23-3.47-5.56-6.16-1.33-2.69-2-5.96-2-9.8v-22.32c0-.59.2-1.07.6-1.44.4-.37.87-.56,1.4-.56h8.56c.53,0,.99.19,1.36.56.37.37.56.85.56,1.44v21.84c0,5.97,2.61,8.96,7.84,8.96,2.51,0,4.49-.79,5.96-2.36,1.47-1.57,2.2-3.77,2.2-6.6v-21.84c0-.59.19-1.07.56-1.44.37-.37.85-.56,1.44-.56h8.48c.53,0,.99.19,1.36.56.37.37.56.85.56,1.44v37.6c0,.59-.19,1.07-.56,1.44-.37.37-.83.56-1.36.56h-7.92c-.53,0-.99-.19-1.36-.56-.37-.37-.56-.85-.56-1.44v-3.12c-1.39,1.92-3.17,3.39-5.36,4.4-2.19,1.01-4.85,1.52-8,1.52Z" fill="#1c2126" stroke-width="0"/><path d="M442.12,370.1c-3.31,0-6.15-.39-8.52-1.16-2.37-.77-4.29-1.72-5.76-2.84-1.47-1.12-2.56-2.25-3.28-3.4-.72-1.15-1.11-2.12-1.16-2.92-.05-.59.13-1.07.56-1.44.43-.37.85-.56,1.28-.56h7.76c.21,0,.39.03.52.08.13.05.31.19.52.4.69.48,1.4,1.03,2.12,1.64.72.61,1.59,1.13,2.6,1.56,1.01.43,2.24.64,3.68.64,1.76,0,3.24-.36,4.44-1.08,1.2-.72,1.8-1.75,1.8-3.08,0-.96-.27-1.76-.8-2.4-.53-.64-1.57-1.23-3.12-1.76-1.55-.53-3.84-1.12-6.88-1.76-2.88-.64-5.33-1.49-7.36-2.56-2.03-1.07-3.55-2.41-4.56-4.04-1.01-1.63-1.52-3.59-1.52-5.88,0-2.08.65-4.08,1.96-6,1.31-1.92,3.24-3.51,5.8-4.76,2.56-1.25,5.76-1.88,9.6-1.88,2.93,0,5.51.36,7.72,1.08,2.21.72,4.07,1.63,5.56,2.72,1.49,1.09,2.63,2.21,3.4,3.36.77,1.15,1.19,2.15,1.24,3,.05.59-.11,1.07-.48,1.44-.37.37-.8.56-1.28.56h-7.12c-.27,0-.51-.05-.72-.16-.21-.11-.4-.24-.56-.4-.64-.37-1.29-.85-1.96-1.44-.67-.59-1.45-1.09-2.36-1.52-.91-.43-2.08-.64-3.52-.64-1.71,0-3.03.39-3.96,1.16-.93.77-1.4,1.75-1.4,2.92,0,.75.24,1.44.72,2.08.48.64,1.45,1.23,2.92,1.76,1.47.53,3.75,1.09,6.84,1.68,3.63.64,6.51,1.6,8.64,2.88,2.13,1.28,3.65,2.76,4.56,4.44.91,1.68,1.36,3.48,1.36,5.4,0,2.51-.73,4.73-2.2,6.68-1.47,1.95-3.64,3.47-6.52,4.56s-6.4,1.64-10.56,1.64Z" fill="#1c2126" stroke-width="0"/><path d="M471.16,369.3c-.59,0-1.07-.19-1.44-.56s-.56-.85-.56-1.44v-52.8c0-.59.19-1.07.56-1.44.37-.37.85-.56,1.44-.56h8c.59,0,1.07.19,1.44.56.37.37.56.85.56,1.44v52.8c0,.59-.19,1.07-.56,1.44-.37.37-.85.56-1.44.56h-8Z" fill="#1c2126" stroke-width="0"/><path d="M492.92,321.3c-.53,0-.99-.19-1.36-.56-.37-.37-.56-.85-.56-1.44v-6.48c0-.53.19-1,.56-1.4.37-.4.83-.6,1.36-.6h8.48c.53,0,1,.2,1.4.6.4.4.6.87.6,1.4v6.48c0,.59-.2,1.07-.6,1.44-.4.37-.87.56-1.4.56h-8.48ZM493.16,369.3c-.53,0-1-.19-1.4-.56-.4-.37-.6-.85-.6-1.44v-37.6c0-.59.2-1.07.6-1.44.4-.37.87-.56,1.4-.56h8.08c.53,0,.99.19,1.36.56.37.37.56.85.56,1.44v37.6c0,.59-.19,1.07-.56,1.44-.37.37-.83.56-1.36.56h-8.08Z" fill="#1c2126" stroke-width="0"/><path d="M531.8,370.1c-3.95,0-7.4-.72-10.36-2.16-2.96-1.44-5.29-3.53-7-6.28-1.71-2.75-2.64-6.04-2.8-9.88-.05-.85-.08-1.93-.08-3.24s.03-2.39.08-3.24c.16-3.89,1.08-7.21,2.76-9.96,1.68-2.75,4.01-4.84,7-6.28,2.99-1.44,6.45-2.16,10.4-2.16,3.52,0,6.53.49,9.04,1.48,2.51.99,4.56,2.24,6.16,3.76,1.6,1.52,2.8,3.08,3.6,4.68.8,1.6,1.23,3.01,1.28,4.24.05.59-.13,1.07-.56,1.44-.43.37-.91.56-1.44.56h-8.56c-.59,0-1.03-.13-1.32-.4-.29-.27-.57-.69-.84-1.28-.69-1.87-1.63-3.2-2.8-4-1.17-.8-2.64-1.2-4.4-1.2-2.4,0-4.28.77-5.64,2.32s-2.09,3.95-2.2,7.2c-.11,2.08-.11,3.97,0,5.68.11,3.31.84,5.71,2.2,7.2s3.24,2.24,5.64,2.24c1.87,0,3.36-.4,4.48-1.2,1.12-.8,2.03-2.13,2.72-4,.27-.59.55-1.01.84-1.28.29-.27.73-.4,1.32-.4h8.56c.53,0,1.01.19,1.44.56.43.37.61.85.56,1.44-.05.91-.32,1.97-.8,3.2-.48,1.23-1.21,2.48-2.2,3.76-.99,1.28-2.25,2.47-3.8,3.56-1.55,1.09-3.43,1.97-5.64,2.64-2.21.67-4.76,1-7.64,1Z" fill="#1c2126" stroke-width="0"/><path d="M578.2,370.1c-6.13,0-11-1.71-14.6-5.12-3.6-3.41-5.51-8.37-5.72-14.88v-3.36c.21-4.16,1.15-7.72,2.8-10.68,1.65-2.96,3.97-5.23,6.96-6.8,2.99-1.57,6.48-2.36,10.48-2.36,4.53,0,8.29.92,11.28,2.76,2.99,1.84,5.24,4.35,6.76,7.52,1.52,3.17,2.28,6.81,2.28,10.92v1.84c0,.53-.19,1-.56,1.4-.37.4-.85.6-1.44.6h-26.08v.56c.05,1.71.37,3.27.96,4.68.59,1.41,1.45,2.55,2.6,3.4,1.15.85,2.55,1.28,4.2,1.28,1.28,0,2.35-.2,3.2-.6.85-.4,1.56-.85,2.12-1.36.56-.51.97-.95,1.24-1.32.48-.59.87-.95,1.16-1.08.29-.13.73-.2,1.32-.2h8.48c.48,0,.89.16,1.24.48.35.32.49.72.44,1.2-.05.91-.49,1.99-1.32,3.24-.83,1.25-2.04,2.48-3.64,3.68-1.6,1.2-3.59,2.2-5.96,3-2.37.8-5.11,1.2-8.2,1.2ZM570.36,344.58h15.6v-.24c0-1.87-.31-3.51-.92-4.92-.61-1.41-1.51-2.52-2.68-3.32-1.17-.8-2.59-1.2-4.24-1.2s-3.05.4-4.2,1.2c-1.15.8-2.03,1.91-2.64,3.32-.61,1.41-.92,3.05-.92,4.92v.24Z" fill="#1c2126" stroke-width="0"/><path d="M625.88,321.3c-.53,0-.99-.19-1.36-.56-.37-.37-.56-.85-.56-1.44v-6.48c0-.53.19-1,.56-1.4.37-.4.83-.6,1.36-.6h8.48c.53,0,1,.2,1.4.6.4.4.6.87.6,1.4v6.48c0,.59-.2,1.07-.6,1.44-.4.37-.87.56-1.4.56h-8.48ZM626.12,369.3c-.53,0-1-.19-1.4-.56-.4-.37-.6-.85-.6-1.44v-37.6c0-.59.2-1.07.6-1.44.4-.37.87-.56,1.4-.56h8.08c.53,0,.99.19,1.36.56.37.37.56.85.56,1.44v37.6c0,.59-.19,1.07-.56,1.44-.37.37-.83.56-1.36.56h-8.08Z" fill="#1c2126" stroke-width="0"/><path d="M666.2,369.3c-3.31,0-6.12-.55-8.44-1.64-2.32-1.09-4.09-2.79-5.32-5.08-1.23-2.29-1.84-5.17-1.84-8.64v-16.8h-6.24c-.59,0-1.07-.19-1.44-.56s-.56-.83-.56-1.36v-5.52c0-.59.19-1.07.56-1.44.37-.37.85-.56,1.44-.56h6.24v-13.2c0-.59.2-1.07.6-1.44.4-.37.87-.56,1.4-.56h7.92c.53,0,.99.19,1.36.56.37.37.56.85.56,1.44v13.2h10c.59,0,1.07.19,1.44.56.37.37.56.85.56,1.44v5.52c0,.53-.19.99-.56,1.36s-.85.56-1.44.56h-10v15.84c0,2.03.37,3.61,1.12,4.76.75,1.15,2,1.72,3.76,1.72h5.84c.59,0,1.07.19,1.44.56.37.37.56.83.56,1.36v5.92c0,.59-.19,1.07-.56,1.44-.37.37-.85.56-1.44.56h-6.96Z" fill="#1c2126" stroke-width="0"/><path d="M844.33,143.37s38.92,272.45,65.13,291.52,174.17-235.66,174.17-235.66c0,0-53.96-95.44-239.3-55.86Z" fill="#b7303d" stroke="#1c2126" stroke-linejoin="round" stroke-width="2"/><path d="M1056.98,213.31c-9.49-1.35-18.28-4.91-25.41-11.42-4.12-3.76-7.4-8.31-11.46-12.14-3.65-3.44-7.67-6.47-12.06-8.9-8.32-4.61-17.68-6.74-27.06-7.79-12.34-1.38-24.88-1.11-36.88-4.73-5.8-1.75-10.81-5.25-16.12-8.09-5.63-3.01-11.74-5.09-18.13-5.56-12.31-.92-23.97,3.87-35.6,7.14-4.45,1.25-8.99,2.4-13.6,2.8-3.82.34-7.67.24-11.48-.17-.57-.06-1.16-.13-1.75-.21,9.72,64.11,40.26,254.8,62.04,270.64,22.29,16.21,132.64-165.59,165.14-220.33-5.89-.21-11.79-.42-17.63-1.24Z" fill="#ffdd73" stroke="#1c2126" stroke-linejoin="round" stroke-width="2"/><path d="M848.71,89.86s-20.13,25.45-4.37,53.82c0,0,162.93-4.83,239.29,55.55,0,0,37.24-19.5,22.06-51.61,0,0-86.31-71.14-256.98-57.77Z" fill="#b7790b" stroke="#1c2126" stroke-linejoin="round" stroke-width="2"/><path d="M925.23,205.43s11.82-8.58,20.35,3.56" fill="none" stroke="#1c2126" stroke-linecap="round" stroke-miterlimit="10" stroke-width="2"/><path d="M960.13,211.53s11.82-8.58,20.35,3.56" fill="none" stroke="#1c2126" stroke-linecap="round" stroke-miterlimit="10" stroke-width="2"/><path d="M929.06,218.55c-1.55,10.99,6.6,21.45,18.53,23.53,11.93,2.09,23.14-4.98,25.41-15.85l-43.94-7.69Z" fill="#7a122d" stroke="#1c2126" stroke-linecap="round" stroke-linejoin="round" stroke-width="2"/><path d="M1030.74,242.02c-15.3,0-27.7,12.4-27.7,27.7,0,13.04,9.02,23.98,21.16,26.92,10.04-15.78,19.52-31.05,27.83-44.63-5.08-6.1-12.73-9.98-21.29-9.98Z" fill="#b7303d" stroke="#1c2126" stroke-linejoin="round" stroke-width="2"/><circle cx="907.7" cy="310.4" r="27.7" fill="#b7303d" stroke="#1c2126" stroke-linejoin="round" stroke-width="2"/><path d="M852.01,193.77c2.44,15.37,5.37,33.26,8.64,52.23,1.22.16,2.46.26,3.73.26,15.3,0,27.7-12.4,27.7-27.7s-12.4-27.7-27.7-27.7c-4.45,0-8.64,1.05-12.37,2.92Z" fill="#b7303d" stroke="#1c2126" stroke-linejoin="round" stroke-width="2"/><path d="M970.73,376.17c-5.03-5.13-12.03-8.32-19.79-8.32-15.3,0-27.7,12.4-27.7,27.7,0,9.94,5.24,18.65,13.1,23.54,10.06-10.67,21.88-25.68,34.39-42.92Z" fill="#b7303d" stroke="#1c2126" stroke-linejoin="round" stroke-width="2"/><path d="M975.93,298.75c1.93,0,1.93-3,0-3s-1.93,3,0,3h0Z" fill="#1c2126" stroke-width="0"/><path d="M905.68,259.35c1.93,0,1.93-3,0-3s-1.93,3,0,3h0Z" fill="#1c2126" stroke-width="0"/><path d="M1022.76,225.9c1.93,0,1.93-3,0-3s-1.93,3,0,3h0Z" fill="#1c2126" stroke-width="0"/><path d="M896.39,178.7c1.93,0,1.93-3,0-3s-1.93,3,0,3h0Z" fill="#1c2126" stroke-width="0"/><path d="M909.4,378.66c1.93,0,1.93-3,0-3s-1.93,3,0,3h0Z" fill="#1c2126" stroke-width="0"/><path d="M816.13,218.24c-.91-.8-2.09-1.22-3.27-1.55-2.05-.57-4.33-.89-6.25.03-2.01.97-3.2,3.11-3.87,5.24-.59,1.91-.85,3.92-.79,5.91-2.19-1.74-4.79-3.06-7.57-3.33-2.82-.28-5.82.61-7.72,2.71-1.9,2.1-2.44,5.46-.93,7.86,1.44,2.3,4.24,3.27,6.84,4.07,6.48,1.99,12.99,3.88,19.53,5.67,1.64-5.48,3.27-10.96,4.91-16.44,1.03-3.46,1.84-7.79-.87-10.18Z" fill="#ff6b60" stroke="#1c2126" stroke-linejoin="round" stroke-width="2"/></g></svg>