<svg xmlns="http://www.w3.org/2000/svg" xmlns:xlink="http://www.w3.org/1999/xlink" width="1200" height="630" viewBox="0 0 1200 630"><defs><pattern id="a" width="12.01" height="12" patternUnits="userSpaceOnUse" viewBox="0 0 12.01 12"><rect width="12.01" height="12" fill="none"/><rect width="7" height="7" fill="#30c8c9"/><rect x="7.01" width="5" height="7" fill="#054861" opacity="0"/><polygon points="0 12 0 7 12.01 7 12.01 12 0 12" fill="#054861" opacity="0"/></pattern><linearGradient id="b" x1="596.47" y1="167.34" x2="596.47" y2="293.34" gradientUnits="userSpaceOnUse"><stop offset="0" stop-color="#ff6b60"/><stop offset="1" stop-color="#db4648"/></linearGradient></defs><rect x="-3730.07" y="-1558.85" width="6221.73" height="2273.11" fill="#a6a6a6"/><rect width="1200" height="498.72" fill="#054861"/><rect width="1200" height="498.72" opacity="0.1" fill="url(#a)"/><rect x="1045.84" y="355.27" width="7" height="7" fill="#ff6b60"/><rect x="1069.84" y="355.27" width="7" height="7" fill="#ff6b60"/><rect x="1069.84" y="367.27" width="7" height="7" fill="#ff6b60"/><rect x="1033.84" y="367.27" width="7" height="7" fill="#ff6b60"/><rect x="1045.84" y="367.27" width="7" height="7" fill="#ff6b60"/><rect x="1057.84" y="367.27" width="7" height="7" fill="#ff6b60"/><rect x="1081.84" y="367.27" width="7" height="7" fill="#ff6b60"/><rect x="1069.84" y="379.27" width="7" height="7" fill="#ff6b60"/><rect x="1033.84" y="379.27" width="7" height="7" fill="#ff6b60"/><rect x="1045.84" y="379.27" width="7" height="7" fill="#ff6b60"/><rect x="1057.84" y="379.27" width="7" height="7" fill="#ff6b60"/><rect x="1069.84" y="391.27" width="7" height="7" fill="#ff6b60"/><rect x="1045.84" y="391.27" width="7" height="7" fill="#ff6b60"/><rect x="1057.84" y="391.27" width="7" height="7" fill="#ff6b60"/><rect x="1057.84" y="403.27" width="7" height="7" fill="#ff6b60"/><rect x="1081.84" y="379.27" width="7" height="7" fill="#ff6b60"/><rect x="121.67" y="43.05" width="7" height="7" fill="#ff6b60"/><rect x="145.67" y="43.05" width="7" height="7" fill="#ff6b60"/><rect x="145.67" y="55.05" width="7" height="7" fill="#ff6b60"/><rect x="109.67" y="55.05" width="7" height="7" fill="#ff6b60"/><rect x="121.67" y="55.05" width="7" height="7" fill="#ff6b60"/><rect x="133.67" y="55.05" width="7" height="7" fill="#ff6b60"/><rect x="157.67" y="55.05" width="7" height="7" fill="#ff6b60"/><rect x="145.67" y="67.05" width="7" height="7" fill="#ff6b60"/><rect x="109.67" y="67.05" width="7" height="7" fill="#ff6b60"/><rect x="121.67" y="67.05" width="7" height="7" fill="#ff6b60"/><rect x="133.67" y="67.05" width="7" height="7" fill="#ff6b60"/><rect x="145.67" y="79.05" width="7" height="7" fill="#ff6b60"/><rect x="121.67" y="79.05" width="7" height="7" fill="#ff6b60"/><rect x="133.67" y="79.05" width="7" height="7" fill="#ff6b60"/><rect x="133.67" y="91.05" width="7" height="7" fill="#ff6b60"/><rect x="157.67" y="67.05" width="7" height="7" fill="#ff6b60"/><rect x="205.62" y="67.05" width="7" height="7" fill="#ff6b60"/><rect x="229.62" y="67.05" width="7" height="7" fill="#ff6b60"/><rect x="229.62" y="79.05" width="7" height="7" fill="#ff6b60"/><rect x="193.62" y="79.05" width="7" height="7" fill="#ff6b60"/><rect x="205.62" y="79.05" width="7" height="7" fill="#ff6b60"/><rect x="217.62" y="79.05" width="7" height="7" fill="#ff6b60"/><rect x="241.62" y="79.05" width="7" height="7" fill="#ff6b60"/><rect x="229.62" y="91.05" width="7" height="7" fill="#ff6b60"/><rect x="193.62" y="91.05" width="7" height="7" fill="#ff6b60"/><rect x="205.62" y="91.05" width="7" height="7" fill="#ff6b60"/><rect x="217.62" y="91.05" width="7" height="7" fill="#ff6b60"/><rect x="229.62" y="103.05" width="7" height="7" fill="#ff6b60"/><rect x="205.62" y="103.05" width="7" height="7" fill="#ff6b60"/><rect x="217.62" y="103.05" width="7" height="7" fill="#ff6b60"/><rect x="217.62" y="115.05" width="7" height="7" fill="#ff6b60"/><rect x="241.62" y="91.05" width="7" height="7" fill="#ff6b60"/><path d="M180.16,213.09H144.9l-14.52,91.77H93.05l-9.62-13.6,24.14-78.17H72.31l-9.62-13.6L77.15,183l98.23-13.59L185,183ZM276.08,183,268.82,228H227.17L234.42,183l-9.62-13.59L197.09,183l-29,108.25,9.62,13.6h37.33l7.43-46.49h41.65l-17,32.89,9.62,13.6h37.33L313.41,183l-9.62-13.59Zm129.62,0,38.88,121.85H408.46l-9.62-13.6,3.22-9h-52l-13.52,22.64H298.2l-9.62-13.6L375.45,183l20.63-13.59Zm-39,71H395.2l-8.69-33h-.86Zm169.75-7.48-41-63.56-9.62-13.59L468.09,183l-29,108.25,9.62,13.6h34.91l10.13-63.53,40.86,63.53h27.3L581.29,183l-9.62-13.59L546.55,183ZM681,183l-50.12,51.33h-.34L638.67,183l-9.62-13.59L601.34,183l-29,108.25,9.62,13.6h37.33L628,250.59h.35L666,304.86h42.86L665.39,242.4,725.26,183l-9.62-13.59Zm212.24,0-9.62-13.59L850.38,183l-31.14,39.61L801,183l-9.62-13.59L759.3,183l36.89,72.57-17.47,35.68,9.62,13.6h37.33l7.63-47.93Zm104.9,30.42q5.54,15,2.42,33.88-2.94,18.84-12.27,32.14a62,62,0,0,1-23.76,20.4q-14.43,7.08-32.93,7.08-21.25,0-34.82-8.81c-9-5.88-19-18.83-24.75-29.24-5.2-9.37,1.27-16,3.23-28.49s6.05-23.27,12.27-32.14a61.26,61.26,0,0,1,23.77-20.31q14.43-7,32.75-7c14.28,0,24-7.43,31.78,0C984.15,188.87,994.46,203.41,998.15,213.43Zm-36.46,13.74q-1.91-7.51-7.18-11.4t-13.74-3.89q-11.74,0-18.14,8.21t-8.65,22q-1.72,10.89.09,18.49t7.09,11.5q5.26,3.88,13.56,3.89,11.76,0,18.41-8.39t8.73-22Q963.59,234.69,961.69,227.17ZM1103.23,183l-11.06,69.31q-1.73,11.58-6.83,17.63T1070.4,276q-10.89,0-14.61-6t-2-17l11.06-70-9.61-13.59L1027.53,183l-10.71,67.41c-2.08,13-10.65,10.6-7,19s15.88,26.29,27.07,31.6c8.21,3.9,18,6,29.55,6,13,0,25.23-2.55,32.32-6.05a46.54,46.54,0,0,0,20-18q7.17-11.93,9.94-29.38L1139.87,183l-9.29-13.59Z" fill="#1c2126" stroke="#1c2126" stroke-linejoin="round" stroke-width="2"/><path d="M170.54,199.49H135.28l-14.52,91.77H83.43L98,199.49H62.69l4.84-30.07H175.38Zm95.92-30.07-7.26,44.93H217.55l7.25-44.93H187.47L168.12,291.26h37.33l7.43-46.49h41.65l-7.43,46.49h37.33l19.36-121.84Zm129.62,0L435,291.26H398.84l-6.4-22.64h-52L327,291.26H288.58l77.25-121.84Zm-39,71h28.53l-8.69-33H376ZM526.8,233l-41-63.55h-27.3L439.11,291.26H474l10.13-63.53L525,291.26h27.3l19.36-121.84H536.93Zm144.59-63.55-50.12,51.33h-.34l8.12-51.33H591.72L572.36,291.26h37.33L618.33,237h.35l37.68,54.27h42.86l-43.45-62.45,59.87-59.39Zm212.24,0H840.76L809.63,209l-18.3-39.6H749.68L786.57,242l-7.85,49.28h37.33l7.64-47.93Zm104.9,30.42q5.54,15,2.42,33.87-2.94,18.84-12.27,32.15a61.93,61.93,0,0,1-23.76,20.39q-14.43,7.1-32.93,7.09-21.25,0-34.82-8.82a46.64,46.64,0,0,1-19-23.94q-5.45-15.12-2.51-33.78,2.94-18.84,12.27-32.15a61.26,61.26,0,0,1,23.77-20.31q14.43-7,32.75-7,21.42,0,35,8.73A46.79,46.79,0,0,1,988.53,199.84Zm-36.46,13.74q-1.91-7.53-7.18-11.41t-13.74-3.89q-11.74,0-18.14,8.21t-8.64,22q-1.74,10.88.08,18.49t7.09,11.49q5.26,3.89,13.56,3.89,11.76,0,18.41-8.38t8.73-22Q954,221.09,952.07,213.58Zm141.54-44.16-11.06,69.3q-1.72,11.58-6.82,17.63t-15,6q-10.89,0-14.61-6t-2-17l11.07-70h-37.34l-10.71,67.4q-3.12,19.53,2.33,32.06a35.73,35.73,0,0,0,17.72,18.49q12.27,6,29.55,6,19.53,0,32.32-6a45.38,45.38,0,0,0,20-18q7.17-11.93,9.94-29.38l11.23-70.51Z" stroke="#1c2126" stroke-linejoin="round" stroke-width="2" fill="url(#b)"/><path d="M267.69,353.93v3.64H274v7.07h-6.27V387.5h-8.35V364.64h-4.82v-7.07h4.82V354c0-5.84,3.48-9.48,9.64-9.48h5.84V351h-4.13C268.66,351,267.69,352,267.69,353.93Z" fill="#fff"/><path d="M307.59,372.56c0,8.95-5.73,15.69-15.75,15.69s-15.79-6.74-15.79-15.69,5.73-15.68,15.79-15.68S307.59,363.62,307.59,372.56Zm-22.81,0c0,4.93,2.73,8.09,7.06,8.09s7-3.16,7-8.09-2.68-8.08-7-8.08S284.78,367.64,284.78,372.56Z" fill="#fff"/><path d="M331.1,356.88v8.78h-3.38c-4.92,0-7.17,2.35-7.17,7.44v14.4H312.2V357.57h8.35v4.07C322.42,358.7,325.9,356.88,331.1,356.88Z" fill="#fff"/><path d="M386.14,372.56c0,10.12-5.51,15.69-13.27,15.69-4.23,0-7.39-1.6-9.37-4.28v3.53h-8.36V344.94h8.36v16.17c2-2.63,5.14-4.23,9.37-4.23C380.63,356.88,386.14,362.39,386.14,372.56Zm-8.78.16c0-5.19-2.89-8.29-6.9-8.29s-7,3.05-7,8.29c0,5,2.83,8.36,7,8.36S377.36,377.65,377.36,372.72Z" fill="#fff"/><path d="M417.47,357.57V387.5h-8.35v-3.21a9.76,9.76,0,0,1-8.19,4c-6.59,0-10.87-4.92-10.87-13.76V357.57h8.35v15.37c0,4.55,2.09,7.12,5.3,7.12s5.41-2.73,5.41-7.07V357.57Z" fill="#fff"/><path d="M432.9,349.11a5,5,0,1,1-10,0,5,5,0,1,1,10,0Zm-.81,7.77V387.5h-8.35V356.88a6.79,6.79,0,0,0,4.18,1.23A6.66,6.66,0,0,0,432.09,356.88Z" fill="#fff"/><path d="M447,344.94V387.5h-8.35V344.94Z" fill="#fff"/><path d="M482.11,344.94V387.5h-8.36V384c-2,2.68-5.08,4.28-9.26,4.28-7.76,0-13.23-5.57-13.23-15.69s5.47-15.68,13.23-15.68c4.18,0,7.28,1.6,9.26,4.23V344.94Zm-8.36,27.41c0-5.3-2.78-8.3-6.85-8.3s-6.91,3.05-6.91,8.3,2.89,8.3,6.91,8.3S473.75,377.65,473.75,372.35Z" fill="#fff"/><path d="M497.85,349.11a5,5,0,1,1-10,0,5,5,0,1,1,10,0Zm-.8,7.77V387.5H488.7V356.88a6.78,6.78,0,0,0,4.17,1.23A6.69,6.69,0,0,0,497.05,356.88Z" fill="#fff"/><path d="M531.69,370.58V387.5h-8.35V372.19c0-4.61-2.19-7.18-5.57-7.18S512,367.8,512,372.14V387.5h-8.35V357.57H512V361a10.11,10.11,0,0,1,8.51-4.07C527.3,356.88,531.69,361.75,531.69,370.58Z" fill="#fff"/><path d="M566.88,357.57v31.75c0,6.54-4,10.6-10.55,10.6H542.09v-7.06H555c2.41,0,3.53-1.18,3.53-3.54v-6.15c-2,2.57-5.08,4.17-9.31,4.17-7.77,0-13.28-5.41-13.28-15.31s5.51-15.15,13.28-15.15c4.23,0,7.33,1.55,9.31,4.17v-3.48Zm-8.36,14.24c0-4.87-2.78-7.76-6.9-7.76s-7,2.89-7,7.76,2.94,8,7,8S558.52,376.74,558.52,371.81Z" fill="#fff"/><path d="M619.36,370.42V387.5H611v-3.26c-2.09,2.41-5.35,3.8-9.74,3.8-6.27,0-10.18-3.16-10.18-8.35,0-4.72,3.11-8.3,10.93-9.64l9-1.5c0-2.89-1.82-4.55-5.19-4.55s-4.82,1.39-5,3.69h-8.46c.16-5.51,4.65-10.65,13.49-10.65C614.43,357,619.36,361.86,619.36,370.42Zm-8.36,4.5v-.43l-6.85,1.13c-3.59.59-4.5,1.82-4.5,3.37,0,1.34,1.29,2.3,3.7,2.3C608,381.29,611,378.72,611,374.92Z" fill="#fff"/><path d="M676,372.56c0,10.12-5.51,15.69-13.28,15.69-4.23,0-7.39-1.6-9.37-4.28v3.53H645V344.94h8.35v16.17c2-2.63,5.14-4.23,9.37-4.23C670.5,356.88,676,362.39,676,372.56Zm-8.78.16c0-5.19-2.89-8.29-6.91-8.29s-7,3.05-7,8.29c0,5,2.84,8.36,7,8.36S667.23,377.65,667.23,372.72Z" fill="#fff"/><path d="M710,375H687.9a6.43,6.43,0,0,0,6.8,6.05c2.95,0,4.93-1,5.84-2.68h8.89c-1.72,5.62-7.18,9.64-14.84,9.64-9.36,0-15.52-6.16-15.52-15.48s6-15.52,15.47-15.52S710,363.14,710,372.46Zm-22-5.73h13.17c-.59-3.38-3.21-5.3-6.64-5.3A6.56,6.56,0,0,0,688,369.3Z" fill="#fff"/><path d="M732,364.64h-6.48V387.5h-8.35V364.64h-5.62v-7.07h5.62v-9.42h8.35v9.42H732Z" fill="#fff"/><path d="M755.43,364.64H749V387.5H740.6V364.64H735v-7.07h5.63v-9.42H749v9.42h6.48Z" fill="#fff"/><path d="M787.93,375H765.82a6.43,6.43,0,0,0,6.8,6.05c2.94,0,4.92-1,5.83-2.68h8.89c-1.71,5.62-7.17,9.64-14.83,9.64-9.37,0-15.53-6.16-15.53-15.48S763,357,772.46,357s15.47,6.1,15.47,15.42Zm-22-5.73H779.1c-.59-3.38-3.22-5.3-6.64-5.3A6.57,6.57,0,0,0,765.92,369.3Z" fill="#fff"/><path d="M811.33,356.88v8.78H808c-4.93,0-7.17,2.35-7.17,7.44v14.4h-8.36V357.57h8.36v4.07C802.66,358.7,806.14,356.88,811.33,356.88Z" fill="#fff"/><path d="M878.05,357.57l-8.78,29.93h-8.4l-6-19-6.11,19h-8.19l-8.78-29.93h8.14l5.62,19.06,5.89-19.06h7.17l5.84,19,5.62-19Z" fill="#fff"/><path d="M909.6,375H887.48a6.43,6.43,0,0,0,6.8,6.05c3,0,4.93-1,5.84-2.68H909c-1.72,5.62-7.18,9.64-14.84,9.64-9.36,0-15.52-6.16-15.52-15.48S884.7,357,894.12,357s15.48,6.1,15.48,15.42Zm-22-5.73h13.17c-.59-3.38-3.21-5.3-6.64-5.3A6.56,6.56,0,0,0,887.59,369.3Z" fill="#fff"/><path d="M945.31,372.56c0,10.12-5.51,15.69-13.28,15.69-4.23,0-7.38-1.6-9.37-4.28v3.53h-8.35V344.94h8.35v16.17c2-2.63,5.14-4.23,9.37-4.23C939.8,356.88,945.31,362.39,945.31,372.56Zm-8.78.16c0-5.19-2.89-8.29-6.91-8.29s-7,3.05-7,8.29c0,5,2.84,8.36,7,8.36S936.53,377.65,936.53,372.72Z" fill="#fff"/><polygon points="297.17 291.26 288.58 291.26 294.4 298.64 297.17 291.26" fill="#1c2126" stroke="#1c2126" stroke-linejoin="round" stroke-width="2"/><polyline points="99.27 234.03 91.31 284.01 99.27 284.01" fill="none" stroke="#ffd3bf" stroke-linecap="round" stroke-linejoin="round" stroke-width="2"/><polyline points="259.3 258.37 255.22 284.01 263.18 284.01" fill="none" stroke="#ffd3bf" stroke-linecap="round" stroke-linejoin="round" stroke-width="2"/><polyline points="520.13 270.51 528.81 284.01 536.77 284.01" fill="none" stroke="#ffd3bf" stroke-linecap="round" stroke-linejoin="round" stroke-width="2"/><polyline points="651.72 271.24 660.75 284.01 668.72 284.01" fill="none" stroke="#ffd3bf" stroke-linecap="round" stroke-linejoin="round" stroke-width="2"/><polyline points="79.75 175.05 73.11 175.05 70.25 193.01" fill="none" stroke="#ffd3bf" stroke-linecap="round" stroke-linejoin="round" stroke-width="2"/><polyline points="199.14 175.05 192.5 175.05 179.57 256.17" fill="none" stroke="#ffd3bf" stroke-linecap="round" stroke-linejoin="round" stroke-width="2"/><polyline points="471.65 175.05 465.01 175.05 452.08 256.17" fill="none" stroke="#ffd3bf" stroke-linecap="round" stroke-linejoin="round" stroke-width="2"/><polyline points="604.15 175.05 597.51 175.05 589.22 227.09" fill="none" stroke="#ffd3bf" stroke-linecap="round" stroke-linejoin="round" stroke-width="2"/><polyline points="1029.77 175.05 1023.13 175.05 1015.96 220.05" fill="none" stroke="#ffd3bf" stroke-linecap="round" stroke-linejoin="round" stroke-width="2"/><polyline points="767.03 175.05 760.39 175.05 780.22 213.57" fill="none" stroke="#ffd3bf" stroke-linecap="round" stroke-linejoin="round" stroke-width="2"/><polyline points="376.36 175.05 369.73 175.05 324.73 247.7" fill="none" stroke="#ffd3bf" stroke-linecap="round" stroke-linejoin="round" stroke-width="2"/><path d="M891.59,277.65a41.69,41.69,0,0,1-17-21.37q-4.86-13.5-2.24-30.16,2.63-16.81,11-28.7a54.67,54.67,0,0,1,21.22-18.12" fill="none" stroke="#ffd3bf" stroke-linecap="round" stroke-linejoin="round" stroke-width="2"/><rect x="1118.26" y="31.13" width="7" height="7" fill="#ff6b60"/><rect x="1142.26" y="31.13" width="7" height="7" fill="#ff6b60"/><rect x="1142.26" y="43.13" width="7" height="7" fill="#ff6b60"/><rect x="1106.26" y="43.13" width="7" height="7" fill="#ff6b60"/><rect x="1118.26" y="43.13" width="7" height="7" fill="#ff6b60"/><rect x="1130.26" y="43.13" width="7" height="7" fill="#ff6b60"/><rect x="1154.26" y="43.13" width="7" height="7" fill="#ff6b60"/><rect x="1142.26" y="55.13" width="7" height="7" fill="#ff6b60"/><rect x="1106.26" y="55.13" width="7" height="7" fill="#ff6b60"/><rect x="1118.26" y="55.13" width="7" height="7" fill="#ff6b60"/><rect x="1130.26" y="55.13" width="7" height="7" fill="#ff6b60"/><rect x="1142.26" y="67.13" width="7" height="7" fill="#ff6b60"/><rect x="1118.26" y="67.13" width="7" height="7" fill="#ff6b60"/><rect x="1130.26" y="67.13" width="7" height="7" fill="#ff6b60"/><rect x="1130.26" y="79.13" width="7" height="7" fill="#ff6b60"/><rect x="1154.26" y="55.13" width="7" height="7" fill="#ff6b60"/><rect y="595" width="1200" height="35" fill="#fff"/><rect y="499.19" width="1200" height="95.81" fill="#fff"/><line y1="499.19" x2="1200" y2="499.19" fill="none" stroke="#1c2126" stroke-miterlimit="10"/><line y1="595" x2="1200" y2="595" fill="none" stroke="#1c2126" stroke-miterlimit="10"/><path d="M24.24,559.45V540.69H17.85v-2.37H33.21v2.37H26.82v18.76Z" fill="#1c2126"/><path d="M44.08,559.89c-4.81,0-7.75-3.45-7.75-9.3v-3.41c0-5.85,2.94-9.3,7.75-9.3s7.74,3.45,7.74,9.3v3.41C51.82,556.44,48.88,559.89,44.08,559.89Zm5.14-9.31v-3.39c0-4.41-1.94-6.87-5.14-6.87s-5.15,2.46-5.15,6.87v3.39c0,4.41,1.94,6.87,5.15,6.87S49.22,555,49.22,550.58Z" fill="#1c2126"/><path d="M60,545.58a2.65,2.65,0,1,1,2.65,2.71A2.7,2.7,0,0,1,60,545.58Zm0,11.25a2.65,2.65,0,1,1,2.65,2.71A2.68,2.68,0,0,1,60,556.83Z" fill="#1c2126"/><circle cx="107.91" cy="548.15" r="31.98" fill="#1c2126"/><line x1="582.03" y1="498.72" x2="582.03" y2="595" fill="none" stroke="#1c2126" stroke-miterlimit="10"/><path d="M1129.73,614.6a4.72,4.72,0,1,1-4.71-4.69A4.43,4.43,0,0,1,1129.73,614.6Zm-6.82,0A2.12,2.12,0,0,0,1125,617c1.3,0,2.1-.94,2.1-2.41s-.8-2.42-2.1-2.42S1122.91,613.12,1122.91,614.6Z" fill="#1c2126"/><path d="M1138.54,612.93H1136c0-.57-.52-1-1.37-1s-1.25.3-1.25.72.19.62,1.2.8l1.2.19c2.3.39,2.91,1.43,2.91,2.79,0,1.74-1.39,2.85-3.92,2.85-2.72,0-4.08-1.3-4.08-3.09h2.48c0,.65.53,1.1,1.7,1.1.88,0,1.33-.3,1.33-.75s-.26-.72-1.3-.9l-1.25-.21c-2.11-.33-2.77-1.39-2.77-2.67,0-1.58,1.3-2.8,3.78-2.8S1138.54,611.24,1138.54,612.93Z" fill="#1c2126"/><path d="M1147.49,612.93H1145c0-.57-.53-1-1.38-1s-1.25.3-1.25.72.2.62,1.2.8l1.21.19c2.3.39,2.91,1.43,2.91,2.79,0,1.74-1.39,2.85-3.92,2.85-2.72,0-4.09-1.3-4.09-3.09h2.49c0,.65.52,1.1,1.69,1.1.88,0,1.33-.3,1.33-.75s-.25-.72-1.3-.9l-1.24-.21c-2.12-.33-2.77-1.39-2.77-2.67,0-1.58,1.29-2.8,3.77-2.8S1147.49,611.24,1147.49,612.93Z" fill="#1c2126"/><path d="M1152,617.64a1.6,1.6,0,1,1-1.6-1.62A1.55,1.55,0,0,1,1152,617.64Z" fill="#1c2126"/><path d="M1156.27,606.34v12.72h-2.5V606.34Z" fill="#1c2126"/><path d="M1167,614.6a4.71,4.71,0,1,1-4.7-4.69A4.42,4.42,0,0,1,1167,614.6Zm-6.81,0a2.12,2.12,0,0,0,2.11,2.41c1.29,0,2.1-.94,2.1-2.41s-.81-2.42-2.1-2.42S1160.16,613.12,1160.16,614.6Z" fill="#1c2126"/><path d="M1176.59,610.12l-3.26,8.94h-3l-3.28-8.94h2.64l2.16,6.32,2.16-6.32Z" fill="#1c2126"/><path d="M1186.06,615.33h-6.61a1.92,1.92,0,0,0,2,1.81,1.82,1.82,0,0,0,1.75-.8h2.66a5,5,0,1,1,.17-1.77Zm-6.58-1.71h3.94a1.87,1.87,0,0,0-2-1.58A2,2,0,0,0,1179.48,613.62Z" fill="#1c2126"/><path d="M605.51,559.45V538.32H618v2.37H608.1v7.25h9v2.3h-9v9.21Z" fill="#1c2126"/><path d="M625.54,551v8.42H623V538.32h7.09c4.19,0,6.81,2.43,6.81,6.35A5.91,5.91,0,0,1,633,550.5l4.3,9h-2.91L630.41,551Zm0-2.18h4.19c2.92,0,4.56-1.48,4.56-4.12s-1.61-4.11-4.44-4.11h-4.31Z" fill="#1c2126"/><path d="M648.15,559.89c-4.81,0-7.75-3.45-7.75-9.3v-3.41c0-5.85,2.94-9.3,7.75-9.3s7.75,3.45,7.75,9.3v3.41C655.9,556.44,653,559.89,648.15,559.89Zm5.14-9.31v-3.39c0-4.41-1.93-6.87-5.14-6.87s-5.14,2.46-5.14,6.87v3.39c0,4.41,1.93,6.87,5.14,6.87S653.29,555,653.29,550.58Z" fill="#1c2126"/><path d="M661.38,559.45h-2.3V538.32H662l4.64,13.12h.19l4.62-13.12h2.9v21.13H672v-8.11l.13-8.56H672l-4.25,11.71h-2l-4.25-11.71h-.19l.14,8.56Z" fill="#1c2126"/><path d="M682.59,545.58a2.65,2.65,0,1,1,2.65,2.71A2.7,2.7,0,0,1,682.59,545.58Zm0,11.25a2.65,2.65,0,1,1,2.65,2.71A2.68,2.68,0,0,1,682.59,556.83Z" fill="#1c2126"/><circle cx="733.24" cy="548.15" r="31.98" fill="#1c2126"/><path d="M791.37,562a13.93,13.93,0,0,1-5-.86,10.66,10.66,0,0,1-6.3-6.3,13.81,13.81,0,0,1-.87-5,13.54,13.54,0,0,1,.9-5,11.12,11.12,0,0,1,2.58-3.91,11.78,11.78,0,0,1,4-2.53,13.78,13.78,0,0,1,5.07-.9,13.44,13.44,0,0,1,4.55.74,10.32,10.32,0,0,1,3.54,2.12,9.19,9.19,0,0,1,2.28,3.27,10.78,10.78,0,0,1,.8,4.26,11.44,11.44,0,0,1-.7,4.2,6.47,6.47,0,0,1-1.93,2.77,4.55,4.55,0,0,1-2.91,1,3.24,3.24,0,0,1-2.55-1,3.31,3.31,0,0,1-.73-2.61l.51.14a5.85,5.85,0,0,1-2,2.56,4.88,4.88,0,0,1-2.79.88,4.34,4.34,0,0,1-3.43-1.36,5.39,5.39,0,0,1-1.22-3.73,8.24,8.24,0,0,1,.8-3.69,6.21,6.21,0,0,1,2.2-2.52,5.75,5.75,0,0,1,3.19-.91,4.13,4.13,0,0,1,2.59.76,3.51,3.51,0,0,1,1.3,2.13h-.33l.47-2.64h1.85l-1.29,7.26c0,.24-.07.47-.1.7s0,.43,0,.61a2,2,0,0,0,.44,1.4,1.65,1.65,0,0,0,1.3.48,2.75,2.75,0,0,0,2-.81,5.38,5.38,0,0,0,1.31-2.26,10.66,10.66,0,0,0,.48-3.37,9.37,9.37,0,0,0-.67-3.64,7.65,7.65,0,0,0-1.93-2.77,8.69,8.69,0,0,0-3-1.77,11.75,11.75,0,0,0-3.91-.61,11.94,11.94,0,0,0-4.41.77,9.42,9.42,0,0,0-5.56,5.58,12.48,12.48,0,0,0-.75,4.43,12,12,0,0,0,1.26,5.68,8.6,8.6,0,0,0,3.59,3.65,11.36,11.36,0,0,0,5.51,1.28,12.05,12.05,0,0,0,4.22-.71,8.25,8.25,0,0,0,3.14-2l.92,1.37a8.76,8.76,0,0,1-3.54,2.18A14.41,14.41,0,0,1,791.37,562ZM790,554.18a3.81,3.81,0,0,0,2.3-.74,5,5,0,0,0,1.58-2.06,7.5,7.5,0,0,0,.57-3,3.47,3.47,0,0,0-.7-2.38,2.81,2.81,0,0,0-2.21-.78,4,4,0,0,0-2.31.7,4.73,4.73,0,0,0-1.61,1.93,6.58,6.58,0,0,0-.59,2.86,3.85,3.85,0,0,0,.77,2.57A2.75,2.75,0,0,0,790,554.18Z" fill="#1c2126"/><path d="M806.82,557.45V536.84h2.27v20.61Z" fill="#1c2126"/><path d="M812.93,563.81l-.54-1.88a11.39,11.39,0,0,0,2.2-.71,4.26,4.26,0,0,0,1.47-1.08,6.19,6.19,0,0,0,1-1.68l.73-1.65-.06,1-6.13-14.36h2.46l5.07,12.35h-.73l5-12.35h2.38l-6.5,15.23a10.23,10.23,0,0,1-1.23,2.25,7.32,7.32,0,0,1-1.44,1.49,6.94,6.94,0,0,1-1.7.91A12.53,12.53,0,0,1,812.93,563.81Z" fill="#1c2126"/><path d="M828.35,557.45v-10.8c0-.53,0-1.06-.07-1.61s-.1-1.1-.15-1.64h2.18l.28,3.08h-.33a4.86,4.86,0,0,1,2-2.48,5.81,5.81,0,0,1,3.15-.85,5,5,0,0,1,3.77,1.33,5.86,5.86,0,0,1,1.27,4.18v8.79h-2.27V548.8a4.31,4.31,0,0,0-.8-2.9,3.13,3.13,0,0,0-2.47-.91,4.06,4.06,0,0,0-3.11,1.21,4.44,4.44,0,0,0-1.15,3.22v8Z" fill="#1c2126"/><path d="M844.76,557.45v-10.8c0-.53,0-1.06-.07-1.61s-.1-1.1-.15-1.64h2.18l.28,3.08h-.33a4.81,4.81,0,0,1,2-2.48,5.76,5.76,0,0,1,3.15-.85,4.94,4.94,0,0,1,3.76,1.33,5.86,5.86,0,0,1,1.28,4.18v8.79h-2.27V548.8a4.37,4.37,0,0,0-.8-2.9,3.13,3.13,0,0,0-2.47-.91,4.06,4.06,0,0,0-3.11,1.21,4.44,4.44,0,0,0-1.15,3.22v8Z" fill="#1c2126"/><path d="M866.52,557.71a6,6,0,0,1-3.28-.89,5.78,5.78,0,0,1-2.17-2.5,10.31,10.31,0,0,1,0-7.82,5.75,5.75,0,0,1,2.17-2.49,6.08,6.08,0,0,1,3.28-.86,5.64,5.64,0,0,1,3.29,1,4.56,4.56,0,0,1,1.83,2.62h-.34l.31-3.33h2.19c-.06.54-.11,1.08-.16,1.64s-.07,1.08-.07,1.61v10.8H871.3v-3.3h.31a4.42,4.42,0,0,1-1.85,2.6A5.57,5.57,0,0,1,866.52,557.71Zm.44-1.85a4,4,0,0,0,3.2-1.39,7.63,7.63,0,0,0,0-8.12,4.34,4.34,0,0,0-6.37,0,7.52,7.52,0,0,0,0,8.12A4,4,0,0,0,867,555.86Z" fill="#1c2126"/><path d="M878,557.45v-10.8c0-.53,0-1.06-.07-1.61s-.1-1.1-.15-1.64h2.18l.28,3.08h-.34a4.83,4.83,0,0,1,2-2.48,5.76,5.76,0,0,1,3.15-.85,5,5,0,0,1,3.76,1.33,5.86,5.86,0,0,1,1.28,4.18v8.79h-2.27V548.8a4.37,4.37,0,0,0-.8-2.9,3.15,3.15,0,0,0-2.48-.91,4.09,4.09,0,0,0-3.11,1.21,4.48,4.48,0,0,0-1.14,3.22v8Z" fill="#1c2126"/><path d="M899.7,557.71a5.93,5.93,0,0,1-3.25-.89,5.72,5.72,0,0,1-2.17-2.5,10.31,10.31,0,0,1,0-7.82,5.69,5.69,0,0,1,2.17-2.49,6,6,0,0,1,3.25-.86,5.66,5.66,0,0,1,3.29,1,4.61,4.61,0,0,1,1.86,2.57h-.34v-9.83h2.27v20.61h-2.24v-3.36h.31a4.58,4.58,0,0,1-1.85,2.65A5.71,5.71,0,0,1,899.7,557.71Zm.47-1.85a4,4,0,0,0,3.19-1.39,7.42,7.42,0,0,0,0-8.12,4.34,4.34,0,0,0-6.37,0,7.52,7.52,0,0,0,0,8.12A4,4,0,0,0,900.17,555.86Z" fill="#1c2126"/><path d="M916.16,557.71a4,4,0,0,1-3.16-1.2,5.14,5.14,0,0,1-1.1-3.59v-7.76h-2.74V543.4h2.74v-3.84l2.27-.64v4.48h4v1.76h-4v7.51a3.81,3.81,0,0,0,.58,2.39,2.05,2.05,0,0,0,1.72.71,4,4,0,0,0,.95-.1,4.87,4.87,0,0,0,.76-.23v1.9a5,5,0,0,1-.94.27A6.78,6.78,0,0,1,916.16,557.71Z" fill="#1c2126"/><path d="M926.6,557.71a6.78,6.78,0,0,1-3.51-.89,5.77,5.77,0,0,1-2.31-2.52,9.72,9.72,0,0,1,0-7.77,5.89,5.89,0,0,1,2.31-2.5,6.78,6.78,0,0,1,3.51-.88,6.85,6.85,0,0,1,3.55.88,6,6,0,0,1,2.32,2.5,9.51,9.51,0,0,1,0,7.77,5.91,5.91,0,0,1-2.32,2.52A6.85,6.85,0,0,1,926.6,557.71Zm0-1.85a4,4,0,0,0,3.2-1.39,7.63,7.63,0,0,0,0-8.12,4,4,0,0,0-3.2-1.39,4,4,0,0,0-3.16,1.39,7.57,7.57,0,0,0,0,8.12A3.92,3.92,0,0,0,926.6,555.86Z" fill="#1c2126"/><path d="M936.82,557.45v-10.8c0-.53,0-1.06-.07-1.61s-.09-1.1-.15-1.64h2.18l.28,3.08h-.33a4.86,4.86,0,0,1,2-2.48,5.81,5.81,0,0,1,3.15-.85,5,5,0,0,1,3.77,1.33,5.86,5.86,0,0,1,1.27,4.18v8.79h-2.27V548.8a4.37,4.37,0,0,0-.79-2.9,3.17,3.17,0,0,0-2.48-.91,4.08,4.08,0,0,0-3.11,1.21,4.44,4.44,0,0,0-1.15,3.22v8Z" fill="#1c2126"/><path d="M953,540.21v-2.55h2.8v2.55Zm.28,17.24V543.4h2.27v14.05Z" fill="#1c2126"/><path d="M965.8,557.71a6.91,6.91,0,0,1-3.59-.9,6,6,0,0,1-2.36-2.55,8.68,8.68,0,0,1-.82-3.92,8.32,8.32,0,0,1,.84-3.9,5.7,5.7,0,0,1,2.36-2.45,7.19,7.19,0,0,1,3.57-.84,7.35,7.35,0,0,1,2.62.47,5.79,5.79,0,0,1,2.12,1.34l-.82,1.63a5.77,5.77,0,0,0-1.83-1.21,5.29,5.29,0,0,0-1.95-.39,4.24,4.24,0,0,0-3.38,1.38,5.85,5.85,0,0,0-1.21,4,6,6,0,0,0,1.21,4,4.18,4.18,0,0,0,3.38,1.43,5.4,5.4,0,0,0,1.92-.37,5.28,5.28,0,0,0,1.86-1.2l.82,1.6a5.71,5.71,0,0,1-2.16,1.37A7.35,7.35,0,0,1,965.8,557.71Z" fill="#1c2126"/><path d="M167.16,562a13.84,13.84,0,0,1-5-.86,10.71,10.71,0,0,1-3.84-2.45,10.88,10.88,0,0,1-2.46-3.85,13.81,13.81,0,0,1-.87-5,13.54,13.54,0,0,1,.9-5,11,11,0,0,1,2.57-3.91,11.82,11.82,0,0,1,4-2.53,13.78,13.78,0,0,1,5.07-.9,13.49,13.49,0,0,1,4.55.74,10.32,10.32,0,0,1,3.54,2.12,9.19,9.19,0,0,1,2.28,3.27,11,11,0,0,1,.8,4.26,11.66,11.66,0,0,1-.7,4.2,6.47,6.47,0,0,1-1.93,2.77,4.58,4.58,0,0,1-2.92,1,3.2,3.2,0,0,1-2.54-1,3.31,3.31,0,0,1-.73-2.61l.5.14a5.71,5.71,0,0,1-2,2.56,4.85,4.85,0,0,1-2.78.88,4.34,4.34,0,0,1-3.43-1.36,5.34,5.34,0,0,1-1.22-3.73,8.11,8.11,0,0,1,.8-3.69,6.27,6.27,0,0,1,2.19-2.52,5.81,5.81,0,0,1,3.2-.91,4.15,4.15,0,0,1,2.59.76,3.55,3.55,0,0,1,1.3,2.13h-.34l.48-2.64H173l-1.29,7.26c0,.24-.07.47-.1.7a4.55,4.55,0,0,0,0,.61,2,2,0,0,0,.43,1.4,1.68,1.68,0,0,0,1.3.48,2.73,2.73,0,0,0,2-.81,5.5,5.5,0,0,0,1.32-2.26,10.66,10.66,0,0,0,.48-3.37,9.37,9.37,0,0,0-.68-3.64,7.53,7.53,0,0,0-1.93-2.77,8.6,8.6,0,0,0-3-1.77,11.69,11.69,0,0,0-3.9-.61,11.87,11.87,0,0,0-4.41.77,9.65,9.65,0,0,0-3.39,2.18,9.53,9.53,0,0,0-2.17,3.4,12.26,12.26,0,0,0-.76,4.43,12,12,0,0,0,1.26,5.68,8.62,8.62,0,0,0,3.6,3.65,11.32,11.32,0,0,0,5.5,1.28,12.11,12.11,0,0,0,4.23-.71,8.25,8.25,0,0,0,3.14-2l.92,1.37a8.83,8.83,0,0,1-3.54,2.18A14.47,14.47,0,0,1,167.16,562Zm-1.34-7.84a3.78,3.78,0,0,0,2.29-.74,5,5,0,0,0,1.59-2.06,7.5,7.5,0,0,0,.57-3,3.47,3.47,0,0,0-.7-2.38,2.83,2.83,0,0,0-2.21-.78,4,4,0,0,0-2.31.7,4.73,4.73,0,0,0-1.61,1.93,6.58,6.58,0,0,0-.59,2.86,3.85,3.85,0,0,0,.77,2.57A2.74,2.74,0,0,0,165.82,554.18Z" fill="#1c2126"/><path d="M184,557.45v-2h4.65V539.7h1.23l-5.43,3.39v-2.33l4.84-3h1.68v17.75h4.37v2Z" fill="#1c2126"/><path d="M200.76,557.45v-2h4.65V539.7h1.23l-5.43,3.39v-2.33l4.84-3h1.68v17.75h4.37v2Z" fill="#1c2126"/><path d="M221.2,557.71a4.06,4.06,0,0,1-3.16-1.2,5.14,5.14,0,0,1-1.09-3.59v-7.76H214.2V543.4H217v-3.84l2.26-.64v4.48h4v1.76h-4v7.51a3.88,3.88,0,0,0,.58,2.39,2.05,2.05,0,0,0,1.72.71,4,4,0,0,0,1-.1,4.87,4.87,0,0,0,.76-.23v1.9a4.82,4.82,0,0,1-.94.27A6.57,6.57,0,0,1,221.2,557.71Z" fill="#1c2126"/><path d="M225.63,563.81l-.54-1.88a11.39,11.39,0,0,0,2.2-.71,4.26,4.26,0,0,0,1.47-1.08,6.19,6.19,0,0,0,1-1.68l.73-1.65-.06,1-6.13-14.36h2.46l5.07,12.35h-.73l5-12.35h2.38L232,558.63a10.23,10.23,0,0,1-1.23,2.25,7.32,7.32,0,0,1-1.44,1.49,6.94,6.94,0,0,1-1.7.91A12.53,12.53,0,0,1,225.63,563.81Z" fill="#1c2126"/><path d="M27.75,606.92v12.14H25v-2.13l-4.7-5.41v7.54H17.63V606.92H20L25,612.77v-5.85Z" fill="#1c2126"/><path d="M38.37,615.33H31.76a1.92,1.92,0,0,0,2,1.81,1.81,1.81,0,0,0,1.74-.8H38.2a4.35,4.35,0,0,1-4.44,2.88,4.63,4.63,0,1,1,0-9.26,4.32,4.32,0,0,1,4.62,4.61Zm-6.58-1.71h3.94a1.87,1.87,0,0,0-2-1.58A2,2,0,0,0,31.79,613.62Z" fill="#1c2126"/><path d="M44.93,612.23H43v6.83H40.5v-6.83H38.82v-2.11H40.5V607.3H43v2.82h1.93Z" fill="#1c2126"/><path d="M48.9,606.34v12.72H46.4V606.34Z" fill="#1c2126"/><path d="M53.62,607.59a1.5,1.5,0,1,1-3,0,1.5,1.5,0,1,1,3,0Zm-.24,2.32v9.15h-2.5v-9.15a2.06,2.06,0,0,0,1.25.37A2,2,0,0,0,53.38,609.91Z" fill="#1c2126"/><path d="M58.55,609v1.09h1.87v2.11H58.55v6.83h-2.5v-6.83H54.61v-2.11h1.44V609a2.62,2.62,0,0,1,2.88-2.83h1.75v1.94H59.44A.78.78,0,0,0,58.55,609Z" fill="#1c2126"/><path d="M70.71,610.12l-5,11.89H63.33l1.38-3.28-3.49-8.61h2.51L66,615.69l2.32-5.57Z" fill="#1c2126"/><path d="M109.4,613c0,3.92-2.34,6.22-5.8,6.22s-5.79-2.3-5.79-6.22,2.33-6.25,5.79-6.25S109.4,609.08,109.4,613Zm-8.79,0c0,2.35,1.3,3.66,3,3.66s3-1.31,3-3.66-1.32-3.67-3-3.67S100.61,610.63,100.61,613Z" fill="#1c2126"/><path d="M120.32,610.53h-2.8c0-.89-.67-1.52-1.85-1.52s-1.7.55-1.7,1.23.38,1,1.49,1.3l1.37.32c2.64.59,3.73,1.73,3.73,3.73s-1.6,3.63-4.73,3.63-4.9-1.61-4.9-4h2.8a1.88,1.88,0,0,0,2.11,1.84c1.27,0,1.92-.63,1.92-1.44s-.38-1.09-1.57-1.35l-1.32-.27c-2.77-.56-3.72-1.87-3.72-3.73,0-2.06,1.6-3.54,4.58-3.54S120.32,608.29,120.32,610.53Z" fill="#1c2126"/><path d="M131.38,610.53h-2.8c0-.89-.67-1.52-1.86-1.52-1,0-1.69.55-1.69,1.23s.38,1,1.48,1.3l1.38.32c2.64.59,3.73,1.73,3.73,3.73s-1.6,3.63-4.74,3.63-4.9-1.61-4.9-4h2.81a1.88,1.88,0,0,0,2.11,1.84c1.26,0,1.92-.63,1.92-1.44s-.39-1.09-1.57-1.35l-1.33-.27c-2.77-.56-3.71-1.87-3.71-3.73,0-2.06,1.6-3.54,4.58-3.54S131.38,608.29,131.38,610.53Z" fill="#1c2126"/><path d="M91.16,610.11a3.71,3.71,0,0,0-1-1.22,4,4,0,0,0-2.5-1.14,3.62,3.62,0,0,0-2.51,1.37,8,8,0,0,0-1.41,2.21,6.53,6.53,0,0,0-2.39-2.73,4.07,4.07,0,0,0-3.57-.35,3,3,0,0,0-1.83,3,5.09,5.09,0,0,0,2,2.88q3.32,3,6.72,5.87l5-5.64C90.67,613.14,91.8,611.56,91.16,610.11Z" fill="#ff6b60" stroke="#ff6b60" stroke-linejoin="round"/></svg>