<svg xmlns="http://www.w3.org/2000/svg" xmlns:xlink="http://www.w3.org/1999/xlink" width="1200" height="630" viewBox="0 0 1200 630"><defs><pattern id="a" width="12.01" height="12" patternUnits="userSpaceOnUse" viewBox="0 0 12.01 12"><rect width="12.01" height="12" fill="none"/><rect width="7" height="7" fill="#30c8c9"/><rect x="7.01" width="5" height="7" fill="#054861" opacity="0"/><polygon points="0 12 0 7 12.01 7 12.01 12 0 12" fill="#054861" opacity="0"/></pattern><linearGradient id="b" x1="596.47" y1="167.34" x2="596.47" y2="293.34" gradientUnits="userSpaceOnUse"><stop offset="0" stop-color="#ff6b60"/><stop offset="1" stop-color="#db4648"/></linearGradient><radialGradient id="c" cx="1097.44" cy="565" r="111.35" gradientUnits="userSpaceOnUse"><stop offset="0" stop-color="#20c6b7"/><stop offset="1" stop-color="#4d9abf"/></radialGradient></defs><rect x="-3730.07" y="-1558.85" width="6221.73" height="2273.11" fill="#a6a6a6"/><rect width="1200" height="498.72" fill="#054861"/><rect width="1200" height="498.72" opacity="0.1" fill="url(#a)"/><rect x="1045.84" y="355.27" width="7" height="7" fill="#ff6b60"/><rect x="1069.84" y="355.27" width="7" height="7" fill="#ff6b60"/><rect x="1069.84" y="367.27" width="7" height="7" fill="#ff6b60"/><rect x="1033.84" y="367.27" width="7" height="7" fill="#ff6b60"/><rect x="1045.84" y="367.27" width="7" height="7" fill="#ff6b60"/><rect x="1057.84" y="367.27" width="7" height="7" fill="#ff6b60"/><rect x="1081.84" y="367.27" width="7" height="7" fill="#ff6b60"/><rect x="1069.84" y="379.27" width="7" height="7" fill="#ff6b60"/><rect x="1033.84" y="379.27" width="7" height="7" fill="#ff6b60"/><rect x="1045.84" y="379.27" width="7" height="7" fill="#ff6b60"/><rect x="1057.84" y="379.27" width="7" height="7" fill="#ff6b60"/><rect x="1069.84" y="391.27" width="7" height="7" fill="#ff6b60"/><rect x="1045.84" y="391.27" width="7" height="7" fill="#ff6b60"/><rect x="1057.84" y="391.27" width="7" height="7" fill="#ff6b60"/><rect x="1057.84" y="403.27" width="7" height="7" fill="#ff6b60"/><rect x="1081.84" y="379.27" width="7" height="7" fill="#ff6b60"/><rect x="121.67" y="43.05" width="7" height="7" fill="#ff6b60"/><rect x="145.67" y="43.05" width="7" height="7" fill="#ff6b60"/><rect x="145.67" y="55.05" width="7" height="7" fill="#ff6b60"/><rect x="109.67" y="55.05" width="7" height="7" fill="#ff6b60"/><rect x="121.67" y="55.05" width="7" height="7" fill="#ff6b60"/><rect x="133.67" y="55.05" width="7" height="7" fill="#ff6b60"/><rect x="157.67" y="55.05" width="7" height="7" fill="#ff6b60"/><rect x="145.67" y="67.05" width="7" height="7" fill="#ff6b60"/><rect x="109.67" y="67.05" width="7" height="7" fill="#ff6b60"/><rect x="121.67" y="67.05" width="7" height="7" fill="#ff6b60"/><rect x="133.67" y="67.05" width="7" height="7" fill="#ff6b60"/><rect x="145.67" y="79.05" width="7" height="7" fill="#ff6b60"/><rect x="121.67" y="79.05" width="7" height="7" fill="#ff6b60"/><rect x="133.67" y="79.05" width="7" height="7" fill="#ff6b60"/><rect x="133.67" y="91.05" width="7" height="7" fill="#ff6b60"/><rect x="157.67" y="67.05" width="7" height="7" fill="#ff6b60"/><rect x="205.62" y="67.05" width="7" height="7" fill="#ff6b60"/><rect x="229.62" y="67.05" width="7" height="7" fill="#ff6b60"/><rect x="229.62" y="79.05" width="7" height="7" fill="#ff6b60"/><rect x="193.62" y="79.05" width="7" height="7" fill="#ff6b60"/><rect x="205.62" y="79.05" width="7" height="7" fill="#ff6b60"/><rect x="217.62" y="79.05" width="7" height="7" fill="#ff6b60"/><rect x="241.62" y="79.05" width="7" height="7" fill="#ff6b60"/><rect x="229.62" y="91.05" width="7" height="7" fill="#ff6b60"/><rect x="193.62" y="91.05" width="7" height="7" fill="#ff6b60"/><rect x="205.62" y="91.05" width="7" height="7" fill="#ff6b60"/><rect x="217.62" y="91.05" width="7" height="7" fill="#ff6b60"/><rect x="229.62" y="103.05" width="7" height="7" fill="#ff6b60"/><rect x="205.62" y="103.05" width="7" height="7" fill="#ff6b60"/><rect x="217.62" y="103.05" width="7" height="7" fill="#ff6b60"/><rect x="217.62" y="115.05" width="7" height="7" fill="#ff6b60"/><rect x="241.62" y="91.05" width="7" height="7" fill="#ff6b60"/><path d="M180.16,213.09H144.9l-14.52,91.77H93.05l-9.62-13.6,24.14-78.17H72.31l-9.62-13.6L77.15,183l98.23-13.59L185,183ZM276.08,183,268.82,228H227.17L234.42,183l-9.62-13.59L197.09,183l-29,108.25,9.62,13.6h37.33l7.43-46.49h41.65l-17,32.89,9.62,13.6h37.33L313.41,183l-9.62-13.59Zm129.62,0,38.88,121.85H408.46l-9.62-13.6,3.22-9h-52l-13.52,22.64H298.2l-9.62-13.6L375.45,183l20.63-13.59Zm-39,71H395.2l-8.69-33h-.86Zm169.75-7.48-41-63.56-9.62-13.59L468.09,183l-29,108.25,9.62,13.6h34.91l10.13-63.53,40.86,63.53h27.3L581.29,183l-9.62-13.59L546.55,183ZM681,183l-50.12,51.33h-.34L638.67,183l-9.62-13.59L601.34,183l-29,108.25,9.62,13.6h37.33L628,250.59h.35L666,304.86h42.86L665.39,242.4,725.26,183l-9.62-13.59Zm212.24,0-9.62-13.59L850.38,183l-31.14,39.61L801,183l-9.62-13.59L759.3,183l36.89,72.57-17.47,35.68,9.62,13.6h37.33l7.63-47.93Zm104.9,30.42q5.54,15,2.42,33.88-2.94,18.84-12.27,32.14a62,62,0,0,1-23.76,20.4q-14.43,7.08-32.93,7.08-21.25,0-34.82-8.81c-9-5.88-19-18.83-24.75-29.24-5.2-9.37,1.27-16,3.23-28.49s6.05-23.27,12.27-32.14a61.26,61.26,0,0,1,23.77-20.31q14.43-7,32.75-7c14.28,0,24-7.43,31.78,0C984.15,188.87,994.46,203.41,998.15,213.43Zm-36.46,13.74q-1.91-7.51-7.18-11.4t-13.74-3.89q-11.74,0-18.14,8.21t-8.65,22q-1.72,10.89.09,18.49t7.09,11.5q5.26,3.88,13.56,3.89,11.76,0,18.41-8.39t8.73-22Q963.59,234.69,961.69,227.17ZM1103.23,183l-11.06,69.31q-1.73,11.58-6.83,17.63T1070.4,276q-10.89,0-14.61-6t-2-17l11.06-70-9.61-13.59L1027.53,183l-10.71,67.41c-2.08,13-10.65,10.6-7,19s15.88,26.29,27.07,31.6c8.21,3.9,18,6,29.55,6,13,0,25.23-2.55,32.32-6.05a46.54,46.54,0,0,0,20-18q7.17-11.93,9.94-29.38L1139.87,183l-9.29-13.59Z" fill="#1c2126" stroke="#1c2126" stroke-linejoin="round" stroke-width="2"/><path d="M170.54,199.49H135.28l-14.52,91.77H83.43L98,199.49H62.69l4.84-30.07H175.38Zm95.92-30.07-7.26,44.93H217.55l7.25-44.93H187.47L168.12,291.26h37.33l7.43-46.49h41.65l-7.43,46.49h37.33l19.36-121.84Zm129.62,0L435,291.26H398.84l-6.4-22.64h-52L327,291.26H288.58l77.25-121.84Zm-39,71h28.53l-8.69-33H376ZM526.8,233l-41-63.55h-27.3L439.11,291.26H474l10.13-63.53L525,291.26h27.3l19.36-121.84H536.93Zm144.59-63.55-50.12,51.33h-.34l8.12-51.33H591.72L572.36,291.26h37.33L618.33,237h.35l37.68,54.27h42.86l-43.45-62.45,59.87-59.39Zm212.24,0H840.76L809.63,209l-18.3-39.6H749.68L786.57,242l-7.85,49.28h37.33l7.64-47.93Zm104.9,30.42q5.54,15,2.42,33.87-2.94,18.84-12.27,32.15a61.93,61.93,0,0,1-23.76,20.39q-14.43,7.1-32.93,7.09-21.25,0-34.82-8.82a46.64,46.64,0,0,1-19-23.94q-5.45-15.12-2.51-33.78,2.94-18.84,12.27-32.15a61.26,61.26,0,0,1,23.77-20.31q14.43-7,32.75-7,21.42,0,35,8.73A46.79,46.79,0,0,1,988.53,199.84Zm-36.46,13.74q-1.91-7.53-7.18-11.41t-13.74-3.89q-11.74,0-18.14,8.21t-8.64,22q-1.74,10.88.08,18.49t7.09,11.49q5.26,3.89,13.56,3.89,11.76,0,18.41-8.38t8.73-22Q954,221.09,952.07,213.58Zm141.54-44.16-11.06,69.3q-1.72,11.58-6.82,17.63t-15,6q-10.89,0-14.61-6t-2-17l11.07-70h-37.34l-10.71,67.4q-3.12,19.53,2.33,32.06a35.73,35.73,0,0,0,17.72,18.49q12.27,6,29.55,6,19.53,0,32.32-6a45.38,45.38,0,0,0,20-18q7.17-11.93,9.94-29.38l11.23-70.51Z" stroke="#1c2126" stroke-linejoin="round" stroke-width="2" fill="url(#b)"/><path d="M267.69,353.93v3.64H274v7.07h-6.27V387.5h-8.35V364.64h-4.82v-7.07h4.82V354c0-5.84,3.48-9.48,9.64-9.48h5.84V351h-4.13C268.66,351,267.69,352,267.69,353.93Z" fill="#fff"/><path d="M307.59,372.56c0,8.95-5.73,15.69-15.75,15.69s-15.79-6.74-15.79-15.69,5.73-15.68,15.79-15.68S307.59,363.62,307.59,372.56Zm-22.81,0c0,4.93,2.73,8.09,7.06,8.09s7-3.16,7-8.09-2.68-8.08-7-8.08S284.78,367.64,284.78,372.56Z" fill="#fff"/><path d="M331.1,356.88v8.78h-3.38c-4.92,0-7.17,2.35-7.17,7.44v14.4H312.2V357.57h8.35v4.07C322.42,358.7,325.9,356.88,331.1,356.88Z" fill="#fff"/><path d="M386.14,372.56c0,10.12-5.51,15.69-13.27,15.69-4.23,0-7.39-1.6-9.37-4.28v3.53h-8.36V344.94h8.36v16.17c2-2.63,5.14-4.23,9.37-4.23C380.63,356.88,386.14,362.39,386.14,372.56Zm-8.78.16c0-5.19-2.89-8.29-6.9-8.29s-7,3.05-7,8.29c0,5,2.83,8.36,7,8.36S377.36,377.65,377.36,372.72Z" fill="#fff"/><path d="M417.47,357.57V387.5h-8.35v-3.21a9.76,9.76,0,0,1-8.19,4c-6.59,0-10.87-4.92-10.87-13.76V357.57h8.35v15.37c0,4.55,2.09,7.12,5.3,7.12s5.41-2.73,5.41-7.07V357.57Z" fill="#fff"/><path d="M432.9,349.11a5,5,0,1,1-10,0,5,5,0,1,1,10,0Zm-.81,7.77V387.5h-8.35V356.88a6.79,6.79,0,0,0,4.18,1.23A6.66,6.66,0,0,0,432.09,356.88Z" fill="#fff"/><path d="M447,344.94V387.5h-8.35V344.94Z" fill="#fff"/><path d="M482.11,344.94V387.5h-8.36V384c-2,2.68-5.08,4.28-9.26,4.28-7.76,0-13.23-5.57-13.23-15.69s5.47-15.68,13.23-15.68c4.18,0,7.28,1.6,9.26,4.23V344.94Zm-8.36,27.41c0-5.3-2.78-8.3-6.85-8.3s-6.91,3.05-6.91,8.3,2.89,8.3,6.91,8.3S473.75,377.65,473.75,372.35Z" fill="#fff"/><path d="M497.85,349.11a5,5,0,1,1-10,0,5,5,0,1,1,10,0Zm-.8,7.77V387.5H488.7V356.88a6.78,6.78,0,0,0,4.17,1.23A6.69,6.69,0,0,0,497.05,356.88Z" fill="#fff"/><path d="M531.69,370.58V387.5h-8.35V372.19c0-4.61-2.19-7.18-5.57-7.18S512,367.8,512,372.14V387.5h-8.35V357.57H512V361a10.11,10.11,0,0,1,8.51-4.07C527.3,356.88,531.69,361.75,531.69,370.58Z" fill="#fff"/><path d="M566.88,357.57v31.75c0,6.54-4,10.6-10.55,10.6H542.09v-7.06H555c2.41,0,3.53-1.18,3.53-3.54v-6.15c-2,2.57-5.08,4.17-9.31,4.17-7.77,0-13.28-5.41-13.28-15.31s5.51-15.15,13.28-15.15c4.23,0,7.33,1.55,9.31,4.17v-3.48Zm-8.36,14.24c0-4.87-2.78-7.76-6.9-7.76s-7,2.89-7,7.76,2.94,8,7,8S558.52,376.74,558.52,371.81Z" fill="#fff"/><path d="M619.36,370.42V387.5H611v-3.26c-2.09,2.41-5.35,3.8-9.74,3.8-6.27,0-10.18-3.16-10.18-8.35,0-4.72,3.11-8.3,10.93-9.64l9-1.5c0-2.89-1.82-4.55-5.19-4.55s-4.82,1.39-5,3.69h-8.46c.16-5.51,4.65-10.65,13.49-10.65C614.43,357,619.36,361.86,619.36,370.42Zm-8.36,4.5v-.43l-6.85,1.13c-3.59.59-4.5,1.82-4.5,3.37,0,1.34,1.29,2.3,3.7,2.3C608,381.29,611,378.72,611,374.92Z" fill="#fff"/><path d="M676,372.56c0,10.12-5.51,15.69-13.28,15.69-4.23,0-7.39-1.6-9.37-4.28v3.53H645V344.94h8.35v16.17c2-2.63,5.14-4.23,9.37-4.23C670.5,356.88,676,362.39,676,372.56Zm-8.78.16c0-5.19-2.89-8.29-6.91-8.29s-7,3.05-7,8.29c0,5,2.84,8.36,7,8.36S667.23,377.65,667.23,372.72Z" fill="#fff"/><path d="M710,375H687.9a6.43,6.43,0,0,0,6.8,6.05c2.95,0,4.93-1,5.84-2.68h8.89c-1.72,5.62-7.18,9.64-14.84,9.64-9.36,0-15.52-6.16-15.52-15.48s6-15.52,15.47-15.52S710,363.14,710,372.46Zm-22-5.73h13.17c-.59-3.38-3.21-5.3-6.64-5.3A6.56,6.56,0,0,0,688,369.3Z" fill="#fff"/><path d="M732,364.64h-6.48V387.5h-8.35V364.64h-5.62v-7.07h5.62v-9.42h8.35v9.42H732Z" fill="#fff"/><path d="M755.43,364.64H749V387.5H740.6V364.64H735v-7.07h5.63v-9.42H749v9.42h6.48Z" fill="#fff"/><path d="M787.93,375H765.82a6.43,6.43,0,0,0,6.8,6.05c2.94,0,4.92-1,5.83-2.68h8.89c-1.71,5.62-7.17,9.64-14.83,9.64-9.37,0-15.53-6.16-15.53-15.48S763,357,772.46,357s15.47,6.1,15.47,15.42Zm-22-5.73H779.1c-.59-3.38-3.22-5.3-6.64-5.3A6.57,6.57,0,0,0,765.92,369.3Z" fill="#fff"/><path d="M811.33,356.88v8.78H808c-4.93,0-7.17,2.35-7.17,7.44v14.4h-8.36V357.57h8.36v4.07C802.66,358.7,806.14,356.88,811.33,356.88Z" fill="#fff"/><path d="M878.05,357.57l-8.78,29.93h-8.4l-6-19-6.11,19h-8.19l-8.78-29.93h8.14l5.62,19.06,5.89-19.06h7.17l5.84,19,5.62-19Z" fill="#fff"/><path d="M909.6,375H887.48a6.43,6.43,0,0,0,6.8,6.05c3,0,4.93-1,5.84-2.68H909c-1.72,5.62-7.18,9.64-14.84,9.64-9.36,0-15.52-6.16-15.52-15.48S884.7,357,894.12,357s15.48,6.1,15.48,15.42Zm-22-5.73h13.17c-.59-3.38-3.21-5.3-6.64-5.3A6.56,6.56,0,0,0,887.59,369.3Z" fill="#fff"/><path d="M945.31,372.56c0,10.12-5.51,15.69-13.28,15.69-4.23,0-7.38-1.6-9.37-4.28v3.53h-8.35V344.94h8.35v16.17c2-2.63,5.14-4.23,9.37-4.23C939.8,356.88,945.31,362.39,945.31,372.56Zm-8.78.16c0-5.19-2.89-8.29-6.91-8.29s-7,3.05-7,8.29c0,5,2.84,8.36,7,8.36S936.53,377.65,936.53,372.72Z" fill="#fff"/><polygon points="297.17 291.26 288.58 291.26 294.4 298.64 297.17 291.26" fill="#1c2126" stroke="#1c2126" stroke-linejoin="round" stroke-width="2"/><polyline points="99.27 234.03 91.31 284.01 99.27 284.01" fill="none" stroke="#ffd3bf" stroke-linecap="round" stroke-linejoin="round" stroke-width="2"/><polyline points="259.3 258.37 255.22 284.01 263.18 284.01" fill="none" stroke="#ffd3bf" stroke-linecap="round" stroke-linejoin="round" stroke-width="2"/><polyline points="520.13 270.51 528.81 284.01 536.77 284.01" fill="none" stroke="#ffd3bf" stroke-linecap="round" stroke-linejoin="round" stroke-width="2"/><polyline points="651.72 271.24 660.75 284.01 668.72 284.01" fill="none" stroke="#ffd3bf" stroke-linecap="round" stroke-linejoin="round" stroke-width="2"/><polyline points="79.75 175.05 73.11 175.05 70.25 193.01" fill="none" stroke="#ffd3bf" stroke-linecap="round" stroke-linejoin="round" stroke-width="2"/><polyline points="199.14 175.05 192.5 175.05 179.57 256.17" fill="none" stroke="#ffd3bf" stroke-linecap="round" stroke-linejoin="round" stroke-width="2"/><polyline points="471.65 175.05 465.01 175.05 452.08 256.17" fill="none" stroke="#ffd3bf" stroke-linecap="round" stroke-linejoin="round" stroke-width="2"/><polyline points="604.15 175.05 597.51 175.05 589.22 227.09" fill="none" stroke="#ffd3bf" stroke-linecap="round" stroke-linejoin="round" stroke-width="2"/><polyline points="1029.77 175.05 1023.13 175.05 1015.96 220.05" fill="none" stroke="#ffd3bf" stroke-linecap="round" stroke-linejoin="round" stroke-width="2"/><polyline points="767.03 175.05 760.39 175.05 780.22 213.57" fill="none" stroke="#ffd3bf" stroke-linecap="round" stroke-linejoin="round" stroke-width="2"/><polyline points="376.36 175.05 369.73 175.05 324.73 247.7" fill="none" stroke="#ffd3bf" stroke-linecap="round" stroke-linejoin="round" stroke-width="2"/><path d="M891.59,277.65a41.69,41.69,0,0,1-17-21.37q-4.86-13.5-2.24-30.16,2.63-16.81,11-28.7a54.67,54.67,0,0,1,21.22-18.12" fill="none" stroke="#ffd3bf" stroke-linecap="round" stroke-linejoin="round" stroke-width="2"/><rect x="1118.26" y="31.13" width="7" height="7" fill="#ff6b60"/><rect x="1142.26" y="31.13" width="7" height="7" fill="#ff6b60"/><rect x="1142.26" y="43.13" width="7" height="7" fill="#ff6b60"/><rect x="1106.26" y="43.13" width="7" height="7" fill="#ff6b60"/><rect x="1118.26" y="43.13" width="7" height="7" fill="#ff6b60"/><rect x="1130.26" y="43.13" width="7" height="7" fill="#ff6b60"/><rect x="1154.26" y="43.13" width="7" height="7" fill="#ff6b60"/><rect x="1142.26" y="55.13" width="7" height="7" fill="#ff6b60"/><rect x="1106.26" y="55.13" width="7" height="7" fill="#ff6b60"/><rect x="1118.26" y="55.13" width="7" height="7" fill="#ff6b60"/><rect x="1130.26" y="55.13" width="7" height="7" fill="#ff6b60"/><rect x="1142.26" y="67.13" width="7" height="7" fill="#ff6b60"/><rect x="1118.26" y="67.13" width="7" height="7" fill="#ff6b60"/><rect x="1130.26" y="67.13" width="7" height="7" fill="#ff6b60"/><rect x="1130.26" y="79.13" width="7" height="7" fill="#ff6b60"/><rect x="1154.26" y="55.13" width="7" height="7" fill="#ff6b60"/><rect y="500" width="1200" height="130" fill="#fff"/><rect x="1097.49" y="500" width="102.51" height="130" fill="url(#c)"/><line y1="499.19" x2="1200" y2="499.19" fill="none" stroke="#1c2126" stroke-miterlimit="10"/><line x1="1097.49" y1="498.72" x2="1097.49" y2="630" fill="none" stroke="#1c2126" stroke-miterlimit="10"/><path d="M35.09,576.62V557.86H28.7v-2.38H44.05v2.38H37.67v18.76Z" fill="#1c2126"/><path d="M54.92,577.06c-4.8,0-7.75-3.46-7.75-9.3v-3.41c0-5.85,2.95-9.31,7.75-9.31s7.75,3.46,7.75,9.31v3.41C62.67,573.6,59.73,577.06,54.92,577.06Zm5.14-9.32v-3.38c0-4.41-1.93-6.87-5.14-6.87s-5.14,2.46-5.14,6.87v3.38c0,4.41,1.93,6.88,5.14,6.88S60.06,572.15,60.06,567.74Z" fill="#1c2126"/><path d="M70.82,562.75a2.65,2.65,0,1,1,2.65,2.71A2.7,2.7,0,0,1,70.82,562.75Zm0,11.25a2.65,2.65,0,1,1,2.65,2.71A2.69,2.69,0,0,1,70.82,574Z" fill="#1c2126"/><path d="M209.27,581.51a14.89,14.89,0,0,1-5.34-.91,11.41,11.41,0,0,1-6.75-6.75,14.91,14.91,0,0,1-.93-5.39,14.58,14.58,0,0,1,1-5.4,11.83,11.83,0,0,1,2.76-4.18,12.58,12.58,0,0,1,4.26-2.72,14.82,14.82,0,0,1,5.43-1,14.26,14.26,0,0,1,4.87.8,11,11,0,0,1,3.8,2.26,9.83,9.83,0,0,1,2.44,3.51,11.69,11.69,0,0,1,.86,4.56,12.33,12.33,0,0,1-.75,4.5,6.89,6.89,0,0,1-2.07,3,4.86,4.86,0,0,1-3.12,1.05,3.48,3.48,0,0,1-2.73-1,3.58,3.58,0,0,1-.78-2.81l.54.15a6.19,6.19,0,0,1-2.18,2.75,5.2,5.2,0,0,1-3,.94,4.69,4.69,0,0,1-3.68-1.45,5.79,5.79,0,0,1-1.3-4,8.75,8.75,0,0,1,.85-3.94,6.69,6.69,0,0,1,2.36-2.7,6.14,6.14,0,0,1,3.42-1,4.45,4.45,0,0,1,2.77.81,3.8,3.8,0,0,1,1.4,2.28H213l.51-2.82h2l-1.38,7.77c0,.26-.08.51-.11.75s0,.46,0,.66a2.16,2.16,0,0,0,.46,1.5,1.81,1.81,0,0,0,1.4.51,2.93,2.93,0,0,0,2.1-.87,5.81,5.81,0,0,0,1.41-2.41,11.59,11.59,0,0,0,.51-3.62,10.11,10.11,0,0,0-.72-3.9,8.21,8.21,0,0,0-2.07-3,9.34,9.34,0,0,0-3.23-1.89,12.51,12.51,0,0,0-4.18-.66,12.93,12.93,0,0,0-4.73.83,10.42,10.42,0,0,0-3.63,2.34,10.18,10.18,0,0,0-2.32,3.64,13.24,13.24,0,0,0-.81,4.74,12.85,12.85,0,0,0,1.35,6.09,9.3,9.3,0,0,0,3.86,3.92,12.09,12.09,0,0,0,5.89,1.36,12.82,12.82,0,0,0,4.53-.76,8.71,8.71,0,0,0,3.36-2.18l1,1.47a9.5,9.5,0,0,1-3.8,2.34A15.33,15.33,0,0,1,209.27,581.51Zm-1.44-8.4a4,4,0,0,0,2.46-.79,5.3,5.3,0,0,0,1.69-2.21,8,8,0,0,0,.62-3.21,3.73,3.73,0,0,0-.75-2.55,3,3,0,0,0-2.37-.84,4.29,4.29,0,0,0-2.48.75,5.1,5.1,0,0,0-1.72,2.07,7,7,0,0,0-.63,3.06,4.12,4.12,0,0,0,.82,2.76A3,3,0,0,0,207.83,573.11Z" fill="#1c2126"/><path d="M227.27,576.62v-2.13h5V557.6h1.32l-5.82,3.63v-2.49l5.19-3.27h1.8v19h4.68v2.13Z" fill="#1c2126"/><path d="M245.27,576.62v-2.13h5V557.6h1.32l-5.82,3.63v-2.49l5.19-3.27h1.8v19h4.68v2.13Z" fill="#1c2126"/><path d="M267.17,576.89a4.37,4.37,0,0,1-3.39-1.27,5.55,5.55,0,0,1-1.17-3.86v-8.31h-2.94v-1.89h2.94v-4.11l2.43-.69v4.8h4.32v1.89H265v8a4.16,4.16,0,0,0,.61,2.57,2.23,2.23,0,0,0,1.85.76,4.52,4.52,0,0,0,1-.1,5.14,5.14,0,0,0,.81-.26v2a4.69,4.69,0,0,1-1,.29A6.46,6.46,0,0,1,267.17,576.89Z" fill="#1c2126"/><path d="M271.91,583.43l-.57-2a12.5,12.5,0,0,0,2.35-.76,4.67,4.67,0,0,0,1.58-1.16,6.51,6.51,0,0,0,1.08-1.8l.78-1.77-.06,1-6.57-15.39h2.64l5.43,13.23h-.78l5.37-13.23h2.55l-7,16.32a11.58,11.58,0,0,1-1.32,2.42,7.58,7.58,0,0,1-1.55,1.59,7,7,0,0,1-1.81,1A13.08,13.08,0,0,1,271.91,583.43Z" fill="#1c2126"/><circle cx="135.29" cy="563.72" r="40" fill="#1c2126"/><path d="M1163.33,555.54h0l0,0a.19.19,0,0,1,0-.15l1.25-7.62,5.84,5.85-6.08,2.58h-.08l0,0A2.57,2.57,0,0,0,1163.33,555.54Zm8.48-.46,6.25,6.25c1.3,1.3,2,1.95,2.19,2.7l.09.33L1165.4,558h0c-.06,0-.12,0-.12-.11s.07-.1.13-.12h0Zm8.27,11.29a11.28,11.28,0,0,1-2,2.3l-7,7.05-9.12-1.9h0c-.09,0-.17,0-.17-.1a2.75,2.75,0,0,0-1.06-1.93s0-.09,0-.14v0l1.71-10.52v0c0-.08,0-.17.1-.17a2.81,2.81,0,0,0,1.87-1.07.1.1,0,0,1,0,0,.22.22,0,0,1,.17,0l15.56,6.58Zm-10.68,11-11.59,11.58,2-12.19h0a.09.09,0,0,1,0-.05s0,0,.09-.07h0a2.88,2.88,0,0,0,1.12-.83.25.25,0,0,1,.15-.1h0l8.16,1.68Zm-14,14-1.31,1.3-14.44-20.87,0,0a.18.18,0,0,1,0-.1s0,0,0-.06v0a2.12,2.12,0,0,0,.12-.2l0-.06h0a.27.27,0,0,1,.08-.1.17.17,0,0,1,.12,0l16,3.3a.18.18,0,0,1,.12.05.09.09,0,0,1,0,.07,2.81,2.81,0,0,0,1.66,1.89s0,.08,0,.13l0,.07C1157.55,578,1155.82,588.53,1155.36,591.38Zm-2.73,2.72a6.1,6.1,0,0,1-2.17,1.67,3.24,3.24,0,0,1-2,0c-.75-.24-1.4-.89-2.7-2.19l-14.5-14.5,3.79-5.88a.2.2,0,0,1,.06-.07.16.16,0,0,1,.15,0A3.93,3.93,0,0,0,1138,573s.09,0,.12,0l0,0,14.51,21.06Zm-22.72-16.42-3.32-3.33,6.57-2.8h0s.09.05.11.1l.21.3,0,0a.09.09,0,0,1,0,.08l-3.63,5.63Zm-4.8-4.8-4.21-4.21c-.71-.71-1.23-1.23-1.59-1.68l12.8,2.65h0c.08,0,.17,0,.17.1s-.1.12-.18.15l0,0Zm-6.54-8a3.54,3.54,0,0,1,.15-.8c.24-.75.89-1.4,2.18-2.7l5.39-5.39q3.72,5.4,7.46,10.78c0,.06.09.13,0,.18a4.35,4.35,0,0,0-.63.85.28.28,0,0,1-.09.1H1133l-14.43-3Zm9.16-10.33,7.24-7.24c.68.3,3.16,1.34,5.38,2.28l3.68,1.56a.17.17,0,0,1,.11.09.12.12,0,0,1,0,.1,3.22,3.22,0,0,0,.85,2.94s0,.12,0,.18l0,0-7.35,11.38a.31.31,0,0,1-.07.09.22.22,0,0,1-.14,0,3.2,3.2,0,0,0-.87-.12,5.05,5.05,0,0,0-.84.1h0s-.06,0-.08,0a.3.3,0,0,1-.08-.08l-7.75-11.31Zm8.71-8.7,9.37-9.38c1.3-1.3,2-1.95,2.7-2.19a3.24,3.24,0,0,1,2,0c.75.24,1.4.89,2.7,2.19l2,2-6.67,10.33-.07.08a.22.22,0,0,1-.14,0,3.39,3.39,0,0,0-3.1.59s-.11,0-.16,0C1144.18,549.07,1137.41,546.21,1136.44,545.8Zm20.16-5.93,6.16,6.15-1.48,9.19v0a.14.14,0,0,1,0,.06s0,0-.08.05a2.8,2.8,0,0,0-.88.44l0,0a.1.1,0,0,1-.07,0s0,0-.07,0l-9.38-4h0c-.06,0-.13-.05-.13-.12a3.39,3.39,0,0,0-.5-1.47c0-.08-.09-.15,0-.23Zm-6.34,13.88,8.8,3.72a.19.19,0,0,1,.12.09.17.17,0,0,1,0,.1,1.79,1.79,0,0,0,0,.42v.25c0,.06-.06.08-.12.11h0l-19.58,8.35a.11.11,0,0,1-.09,0s0-.12,0-.18l0,0,7.23-11.19v0c0-.07.09-.15.17-.15l.07,0a3.75,3.75,0,0,0,.45,0,3.25,3.25,0,0,0,2.73-1.45l0-.06A.15.15,0,0,1,1150.26,553.75Zm-10.07,14.81,19.8-8.45a.09.09,0,0,1,.06,0,2.82,2.82,0,0,0,.29.25l0,0s.08.05.09.1a.08.08,0,0,1,0,0L1158.77,571v0c0,.08,0,.17-.1.17a2.75,2.75,0,0,0-2.21,1.37h0a.18.18,0,0,1-.08.09.14.14,0,0,1-.11,0l-15.8-3.25S1140.21,568.56,1140.19,568.56Z" fill="#fff"/><line x1="548.51" y1="498.72" x2="548.51" y2="630" fill="none" stroke="#1c2126" stroke-miterlimit="10"/><path d="M584.7,576.62V555.48h12.46v2.38h-9.87v7.25h9v2.3h-9v9.21Z" fill="#1c2126"/><path d="M604.74,568.2v8.42h-2.55V555.48h7.09c4.19,0,6.81,2.44,6.81,6.36a5.91,5.91,0,0,1-3.94,5.83l4.31,9h-2.92l-3.94-8.42Zm0-2.18h4.19c2.91,0,4.55-1.48,4.55-4.12s-1.61-4.12-4.44-4.12h-4.3Z" fill="#1c2126"/><path d="M627.34,577.06c-4.8,0-7.75-3.46-7.75-9.3v-3.41c0-5.85,2.95-9.31,7.75-9.31s7.75,3.46,7.75,9.31v3.41C635.09,573.6,632.14,577.06,627.34,577.06Zm5.14-9.32v-3.38c0-4.41-1.93-6.87-5.14-6.87s-5.14,2.46-5.14,6.87v3.38c0,4.41,1.93,6.88,5.14,6.88S632.48,572.15,632.48,567.74Z" fill="#1c2126"/><path d="M640.57,576.62h-2.3V555.48h2.88l4.65,13.13H646l4.61-13.13h2.9v21.14h-2.3v-8.11l.13-8.56h-.19l-4.25,11.71h-2L640.62,560h-.18l.13,8.56Z" fill="#1c2126"/><path d="M661.78,562.75a2.65,2.65,0,1,1,2.65,2.71A2.7,2.7,0,0,1,661.78,562.75Zm0,11.25a2.65,2.65,0,1,1,2.65,2.71A2.69,2.69,0,0,1,661.78,574Z" fill="#1c2126"/><path d="M804.86,581.51a14.89,14.89,0,0,1-5.34-.91,11.41,11.41,0,0,1-6.75-6.75,14.91,14.91,0,0,1-.93-5.39,14.58,14.58,0,0,1,1-5.4,11.83,11.83,0,0,1,2.76-4.18,12.58,12.58,0,0,1,4.26-2.72,14.82,14.82,0,0,1,5.43-1,14.31,14.31,0,0,1,4.88.8,11,11,0,0,1,3.79,2.26,10,10,0,0,1,2.45,3.51,11.69,11.69,0,0,1,.85,4.56,12.33,12.33,0,0,1-.75,4.5,6.89,6.89,0,0,1-2.07,3,4.86,4.86,0,0,1-3.12,1.05,3.48,3.48,0,0,1-2.73-1,3.58,3.58,0,0,1-.78-2.81l.54.15a6.18,6.18,0,0,1-2.17,2.75,5.24,5.24,0,0,1-3,.94,4.67,4.67,0,0,1-3.67-1.45,5.8,5.8,0,0,1-1.31-4,8.75,8.75,0,0,1,.86-3.94,6.66,6.66,0,0,1,2.35-2.7,6.14,6.14,0,0,1,3.42-1,4.48,4.48,0,0,1,2.78.81,3.79,3.79,0,0,1,1.39,2.28h-.36l.51-2.82h2l-1.38,7.77c0,.26-.07.51-.1.75a5.42,5.42,0,0,0,0,.66,2.16,2.16,0,0,0,.47,1.5,1.78,1.78,0,0,0,1.39.51,2.93,2.93,0,0,0,2.1-.87,5.81,5.81,0,0,0,1.41-2.41,11.59,11.59,0,0,0,.51-3.62,10.11,10.11,0,0,0-.72-3.9,8.21,8.21,0,0,0-2.07-3,9.29,9.29,0,0,0-3.22-1.89,12.57,12.57,0,0,0-4.19-.66,12.88,12.88,0,0,0-4.72.83,10.42,10.42,0,0,0-3.63,2.34,10.21,10.21,0,0,0-2.33,3.64,13.24,13.24,0,0,0-.81,4.74,12.85,12.85,0,0,0,1.35,6.09,9.35,9.35,0,0,0,3.86,3.92,12.12,12.12,0,0,0,5.89,1.36,12.82,12.82,0,0,0,4.53-.76,8.71,8.71,0,0,0,3.36-2.18l1,1.47A9.46,9.46,0,0,1,810,580.7,15.39,15.39,0,0,1,804.86,581.51Zm-1.44-8.4a4,4,0,0,0,2.46-.79,5.31,5.31,0,0,0,1.7-2.21,8,8,0,0,0,.61-3.21,3.73,3.73,0,0,0-.75-2.55,3,3,0,0,0-2.37-.84,4.26,4.26,0,0,0-2.47.75,5.12,5.12,0,0,0-1.73,2.07,7,7,0,0,0-.63,3.06,4.12,4.12,0,0,0,.83,2.76A2.93,2.93,0,0,0,803.42,573.11Z" fill="#1c2126"/><path d="M821.42,576.62V554.54h2.43v22.08Z" fill="#1c2126"/><path d="M828,583.43l-.57-2a12.62,12.62,0,0,0,2.36-.76,4.63,4.63,0,0,0,1.57-1.16,6.51,6.51,0,0,0,1.08-1.8l.78-1.77-.06,1-6.57-15.39h2.64l5.43,13.23h-.78l5.37-13.23h2.55l-7,16.32a11.58,11.58,0,0,1-1.32,2.42,7.55,7.55,0,0,1-1.54,1.59,7.06,7.06,0,0,1-1.82,1A13.08,13.08,0,0,1,828,583.43Z" fill="#1c2126"/><path d="M844.49,576.62V565c0-.56,0-1.13-.07-1.72s-.11-1.18-.17-1.76h2.34l.3,3.3h-.36a5.21,5.21,0,0,1,2.12-2.65,6.19,6.19,0,0,1,3.37-.92,5.35,5.35,0,0,1,4,1.43,6.29,6.29,0,0,1,1.36,4.48v9.42H855v-9.27a4.63,4.63,0,0,0-.85-3.1,3.36,3.36,0,0,0-2.66-1,4.38,4.38,0,0,0-3.33,1.29,4.79,4.79,0,0,0-1.23,3.45v8.61Z" fill="#1c2126"/><path d="M862.07,576.62V565c0-.56,0-1.13-.07-1.72s-.11-1.18-.17-1.76h2.34l.3,3.3h-.36a5.21,5.21,0,0,1,2.12-2.65,6.19,6.19,0,0,1,3.37-.92,5.35,5.35,0,0,1,4,1.43A6.29,6.29,0,0,1,875,567.2v9.42h-2.43v-9.27a4.63,4.63,0,0,0-.85-3.1,3.36,3.36,0,0,0-2.66-1,4.38,4.38,0,0,0-3.33,1.29A4.79,4.79,0,0,0,864.5,568v8.61Z" fill="#1c2126"/><path d="M885.38,576.89a6.44,6.44,0,0,1-3.51-.94,6.25,6.25,0,0,1-2.32-2.69,11,11,0,0,1,0-8.37,6.14,6.14,0,0,1,2.32-2.67,6.52,6.52,0,0,1,3.51-.93,6,6,0,0,1,3.53,1,4.85,4.85,0,0,1,2,2.8h-.36l.33-3.57h2.34c-.06.58-.11,1.17-.16,1.76s-.08,1.16-.08,1.72v11.58h-2.43v-3.54h.33a4.78,4.78,0,0,1-2,2.79A6,6,0,0,1,885.38,576.89Zm.48-2a4.25,4.25,0,0,0,3.42-1.48,8.14,8.14,0,0,0,0-8.7,4.65,4.65,0,0,0-6.82,0,8,8,0,0,0,0,8.7A4.25,4.25,0,0,0,885.86,574.91Z" fill="#1c2126"/><path d="M897.65,576.62V565c0-.56,0-1.13-.07-1.72s-.11-1.18-.17-1.76h2.34l.3,3.3h-.36a5.21,5.21,0,0,1,2.12-2.65,6.19,6.19,0,0,1,3.37-.92,5.35,5.35,0,0,1,4,1.43,6.29,6.29,0,0,1,1.36,4.48v9.42h-2.43v-9.27a4.63,4.63,0,0,0-.85-3.1,3.36,3.36,0,0,0-2.66-1,4.38,4.38,0,0,0-3.33,1.29,4.79,4.79,0,0,0-1.23,3.45v8.61Z" fill="#1c2126"/><path d="M920.93,576.89a6.39,6.39,0,0,1-3.48-.94,6.25,6.25,0,0,1-2.32-2.69,11,11,0,0,1,0-8.37,6.14,6.14,0,0,1,2.32-2.67,6.47,6.47,0,0,1,3.48-.93,6.09,6.09,0,0,1,3.53,1,4.93,4.93,0,0,1,2,2.76h-.36V554.54h2.43v22.08h-2.4V573h.33a4.86,4.86,0,0,1-2,2.84A6.08,6.08,0,0,1,920.93,576.89Zm.51-2a4.3,4.3,0,0,0,3.42-1.48,8,8,0,0,0,0-8.7,4.31,4.31,0,0,0-3.42-1.49,4.26,4.26,0,0,0-3.4,1.49,8,8,0,0,0,0,8.7A4.25,4.25,0,0,0,921.44,574.91Z" fill="#1c2126"/><path d="M938.57,576.89a4.37,4.37,0,0,1-3.39-1.27,5.55,5.55,0,0,1-1.17-3.86v-8.31h-2.94v-1.89H934v-4.11l2.43-.69v4.8h4.32v1.89h-4.32v8a4.16,4.16,0,0,0,.62,2.57,2.21,2.21,0,0,0,1.84.76,4.52,4.52,0,0,0,1-.1,5.14,5.14,0,0,0,.81-.26v2a4.59,4.59,0,0,1-1,.29A6.57,6.57,0,0,1,938.57,576.89Z" fill="#1c2126"/><path d="M949.76,576.89A7.26,7.26,0,0,1,946,576a6.3,6.3,0,0,1-2.48-2.7,10.4,10.4,0,0,1,0-8.33,6.31,6.31,0,0,1,2.48-2.68,7.27,7.27,0,0,1,3.76-1,7.37,7.37,0,0,1,3.8,1,6.39,6.39,0,0,1,2.49,2.68,10.3,10.3,0,0,1,0,8.33,6.39,6.39,0,0,1-2.49,2.7A7.36,7.36,0,0,1,949.76,576.89Zm0-2a4.25,4.25,0,0,0,3.42-1.48,8.14,8.14,0,0,0,0-8.7,4.64,4.64,0,0,0-6.81,0,8.14,8.14,0,0,0,0,8.7A4.21,4.21,0,0,0,949.76,574.91Z" fill="#1c2126"/><path d="M960.71,576.62V565c0-.56,0-1.13-.07-1.72s-.11-1.18-.17-1.76h2.34l.3,3.3h-.36a5.21,5.21,0,0,1,2.12-2.65,6.19,6.19,0,0,1,3.37-.92,5.35,5.35,0,0,1,4,1.43,6.29,6.29,0,0,1,1.36,4.48v9.42h-2.43v-9.27a4.63,4.63,0,0,0-.85-3.1,3.36,3.36,0,0,0-2.66-1,4.38,4.38,0,0,0-3.33,1.29,4.79,4.79,0,0,0-1.23,3.45v8.61Z" fill="#1c2126"/><path d="M978,558.14v-2.73h3v2.73Zm.3,18.48V561.56h2.43v15.06Z" fill="#1c2126"/><path d="M991.76,576.89a7.46,7.46,0,0,1-3.85-1,6.41,6.41,0,0,1-2.52-2.73,9.29,9.29,0,0,1-.89-4.2,8.93,8.93,0,0,1,.9-4.18,6.2,6.2,0,0,1,2.54-2.63,7.79,7.79,0,0,1,3.82-.9,8,8,0,0,1,2.81.51,6,6,0,0,1,2.26,1.44L996,565a6,6,0,0,0-2-1.29,5.69,5.69,0,0,0-2.09-.42,4.57,4.57,0,0,0-3.63,1.47A6.32,6.32,0,0,0,987,569a6.51,6.51,0,0,0,1.29,4.32,4.49,4.49,0,0,0,3.63,1.53,6,6,0,0,0,2.06-.39,5.66,5.66,0,0,0,2-1.29l.87,1.71a6.11,6.11,0,0,1-2.31,1.47A7.91,7.91,0,0,1,991.76,576.89Z" fill="#1c2126"/><circle cx="730.89" cy="563.72" r="40" fill="#1c2126"/></svg>