<?xml version="1.0" encoding="UTF-8"?><svg xmlns="http://www.w3.org/2000/svg" xmlns:xlink="http://www.w3.org/1999/xlink" viewBox="0 0 1200 630"><defs><pattern id="d" x="0" y="0" width="12.01" height="12" patternTransform="translate(-3660 -1469)" patternUnits="userSpaceOnUse" viewBox="0 0 12.01 12"><rect width="12.01" height="12" fill="none"/><rect x="0" y="0" width="7" height="7" fill="#30c8c9"/><rect x="7.01" y="0" width="5" height="7" fill="#054861" opacity="0"/><polygon points="0 12 0 7 12.01 7 12.01 12 0 12" fill="#054861" opacity="0"/></pattern><linearGradient id="f" x1="595.68" y1="167.34" x2="595.68" y2="293.34" gradientUnits="userSpaceOnUse"><stop offset="0" stop-color="#ff6b60"/><stop offset="1" stop-color="#db4648"/></linearGradient></defs><g id="b"><rect width="1200" height="498.72" fill="#054861"/></g><g id="c"><rect width="1200" height="498.72" fill="url(#d)" opacity=".1"/><rect x="1045.98" y="355.09" width="7" height="7" fill="#ff6b60"/><rect x="1069.98" y="355.09" width="7" height="7" fill="#ff6b60"/><rect x="1069.98" y="367.09" width="7" height="7" fill="#ff6b60"/><rect x="1033.98" y="367.09" width="7" height="7" fill="#ff6b60"/><rect x="1045.98" y="367.09" width="7" height="7" fill="#ff6b60"/><rect x="1057.98" y="367.09" width="7" height="7" fill="#ff6b60"/><rect x="1081.98" y="367.09" width="7" height="7" fill="#ff6b60"/><rect x="1069.98" y="379.09" width="7" height="7" fill="#ff6b60"/><rect x="1033.98" y="379.09" width="7" height="7" fill="#ff6b60"/><rect x="1045.98" y="379.09" width="7" height="7" fill="#ff6b60"/><rect x="1057.98" y="379.09" width="7" height="7" fill="#ff6b60"/><rect x="1069.98" y="391.09" width="7" height="7" fill="#ff6b60"/><rect x="1045.98" y="391.09" width="7" height="7" fill="#ff6b60"/><rect x="1057.98" y="391.09" width="7" height="7" fill="#ff6b60"/><rect x="1057.98" y="403.09" width="7" height="7" fill="#ff6b60"/><rect x="1081.98" y="379.09" width="7" height="7" fill="#ff6b60"/><rect x="121.74" y="43.05" width="7" height="7" fill="#ff6b60"/><rect x="145.74" y="43.05" width="7" height="7" fill="#ff6b60"/><rect x="145.74" y="55.05" width="7" height="7" fill="#ff6b60"/><rect x="109.74" y="55.05" width="7" height="7" fill="#ff6b60"/><rect x="121.74" y="55.05" width="7" height="7" fill="#ff6b60"/><rect x="133.74" y="55.05" width="7" height="7" fill="#ff6b60"/><rect x="157.74" y="55.05" width="7" height="7" fill="#ff6b60"/><rect x="145.74" y="67.05" width="7" height="7" fill="#ff6b60"/><rect x="109.74" y="67.05" width="7" height="7" fill="#ff6b60"/><rect x="121.74" y="67.05" width="7" height="7" fill="#ff6b60"/><rect x="133.74" y="67.05" width="7" height="7" fill="#ff6b60"/><rect x="145.74" y="79.05" width="7" height="7" fill="#ff6b60"/><rect x="121.74" y="79.05" width="7" height="7" fill="#ff6b60"/><rect x="133.74" y="79.05" width="7" height="7" fill="#ff6b60"/><rect x="133.74" y="91.05" width="7" height="7" fill="#ff6b60"/><rect x="157.74" y="67.05" width="7" height="7" fill="#ff6b60"/><rect x="205.68" y="67.05" width="7" height="7" fill="#ff6b60"/><rect x="229.68" y="67.05" width="7" height="7" fill="#ff6b60"/><rect x="229.68" y="79.05" width="7" height="7" fill="#ff6b60"/><rect x="193.68" y="79.05" width="7" height="7" fill="#ff6b60"/><rect x="205.68" y="79.05" width="7" height="7" fill="#ff6b60"/><rect x="217.68" y="79.05" width="7" height="7" fill="#ff6b60"/><rect x="241.68" y="79.05" width="7" height="7" fill="#ff6b60"/><rect x="229.68" y="91.05" width="7" height="7" fill="#ff6b60"/><rect x="193.68" y="91.05" width="7" height="7" fill="#ff6b60"/><rect x="205.68" y="91.05" width="7" height="7" fill="#ff6b60"/><rect x="217.68" y="91.05" width="7" height="7" fill="#ff6b60"/><rect x="229.68" y="103.05" width="7" height="7" fill="#ff6b60"/><rect x="205.68" y="103.05" width="7" height="7" fill="#ff6b60"/><rect x="217.68" y="103.05" width="7" height="7" fill="#ff6b60"/><rect x="217.68" y="115.05" width="7" height="7" fill="#ff6b60"/><rect x="241.68" y="91.05" width="7" height="7" fill="#ff6b60"/></g><g id="e"><path d="M179.37,213.09h-35.26l-14.52,91.77h-37.33l-9.62-13.6,24.14-78.18h-35.26l-9.62-13.6,14.46-16.48,98.23-13.6,9.62,13.6-4.84,30.07ZM275.29,183.01l-7.26,44.94h-41.65l7.26-44.94-9.62-13.6-27.71,13.6-28.98,108.25,9.62,13.6h37.33l7.43-46.49h41.65l-17.05,32.89,9.62,13.6h37.33l19.36-121.84-9.62-13.6-27.71,13.6ZM404.91,183.01l38.89,121.84h-36.12l-9.62-13.6,3.22-9.04h-51.98l-13.51,22.64h-38.37l-9.62-13.6,86.87-108.25,20.63-13.6,9.62,13.6ZM365.88,254.05h28.53l-8.69-33.01h-.86l-18.98,33.01ZM535.62,246.57l-41.02-63.55-9.62-13.6-17.69,13.6-28.98,108.25,9.62,13.6h34.91l10.13-63.53,40.85,63.53h27.31l19.36-121.84-9.62-13.6-25.12,13.6-10.14,63.55ZM680.22,183.01l-50.12,51.33h-.35l8.12-51.33-9.62-13.6-27.71,13.6-28.98,108.25,9.62,13.6h37.33l8.64-54.27h.35l37.68,54.27h42.86l-43.45-62.46,59.87-59.39-9.62-13.6-34.62,13.6ZM892.46,183.01l-9.62-13.6-33.24,13.6-31.14,39.6-18.29-39.6-9.62-13.6-32.03,13.6,36.88,72.57-17.47,35.68,9.62,13.6h37.33l7.64-47.93,59.94-73.91ZM997.36,213.43c3.69,10.02,4.49,21.32,2.42,33.87-1.96,12.56-6.05,23.28-12.27,32.15-6.22,8.87-14.14,15.67-23.76,20.39-9.62,4.73-20.6,7.09-32.92,7.09-14.17,0-25.78-2.94-34.83-8.81-9.05-5.88-18.98-18.83-24.75-29.24-5.19-9.37,1.27-16.04,3.23-28.49,1.96-12.56,6.05-23.27,12.27-32.15,6.22-8.87,14.14-15.64,23.76-20.31,9.62-4.67,20.54-7,32.75-7,14.29,0,24-7.43,31.78,0,8.31,7.93,18.63,22.47,22.31,32.49ZM960.89,227.17c-1.27-5.01-3.66-8.81-7.17-11.41-3.52-2.59-8.1-3.89-13.74-3.89-7.84,0-13.89,2.74-18.15,8.21-4.26,5.47-7.15,12.82-8.64,22.04-1.15,7.26-1.12,13.42.09,18.49,1.21,5.07,3.57,8.9,7.09,11.49,3.51,2.59,8.04,3.89,13.57,3.89,7.83,0,13.97-2.79,18.41-8.38,4.43-5.59,7.35-12.93,8.73-22.04,1.15-7.26,1.09-13.39-.17-18.41ZM1102.44,183.01l-11.06,69.3c-1.15,7.72-3.43,13.6-6.83,17.63-3.4,4.04-8.38,6.05-14.95,6.05-7.26,0-12.13-1.99-14.6-5.96-2.48-3.98-3.14-9.65-1.99-17.02l11.06-70-9.62-13.6-27.71,13.6-10.71,67.4c-2.07,13.02-10.65,10.6-7.02,18.95,3.63,8.36,15.89,26.29,27.07,31.6,8.22,3.9,18.03,5.96,29.55,5.96,13.02,0,25.23-2.56,32.32-6.05,8.46-4.17,15.18-10.02,19.96-17.97,4.78-7.95,8.09-17.74,9.94-29.38l11.23-70.51-9.29-13.6-27.35,13.6Z" fill="#1c2126" stroke="#1c2126" stroke-linejoin="round" stroke-width="2"/><path d="M169.75,199.49h-35.26l-14.52,91.77h-37.33l14.52-91.77h-35.26l4.84-30.07h107.85l-4.84,30.07ZM265.67,169.42l-7.26,44.94h-41.65l7.26-44.94h-37.33l-19.36,121.84h37.33l7.43-46.49h41.65l-7.43,46.49h37.33l19.36-121.84h-37.33ZM395.29,169.42l38.89,121.84h-36.12l-6.4-22.64h-51.98l-13.51,22.64h-38.37l77.25-121.84h30.25ZM356.26,240.45h28.53l-8.69-33.01h-.86l-18.98,33.01ZM526.01,232.97l-41.02-63.55h-27.31l-19.36,121.84h34.91l10.13-63.53,40.85,63.53h27.31l19.36-121.84h-34.74l-10.14,63.55ZM670.6,169.42l-50.12,51.33h-.35l8.12-51.33h-37.33l-19.36,121.84h37.33l8.64-54.27h.35l37.68,54.27h42.86l-43.45-62.46,59.87-59.39h-44.24ZM882.84,169.42h-42.86l-31.14,39.6-18.29-39.6h-41.65l36.88,72.57-7.85,49.28h37.33l7.64-47.93,59.94-73.91ZM987.74,199.84c3.69,10.02,4.49,21.32,2.42,33.87-1.96,12.56-6.05,23.28-12.27,32.15-6.22,8.87-14.14,15.67-23.76,20.39-9.62,4.73-20.6,7.09-32.92,7.09-14.17,0-25.78-2.94-34.83-8.81-9.05-5.88-15.38-13.85-19.01-23.94-3.63-10.08-4.47-21.34-2.51-33.79,1.96-12.56,6.05-23.27,12.27-32.15,6.22-8.87,14.14-15.64,23.76-20.31,9.62-4.67,20.54-7,32.75-7,14.29,0,25.95,2.91,35,8.73,9.04,5.82,15.41,13.74,19.1,23.76ZM951.28,213.58c-1.27-5.01-3.66-8.81-7.17-11.41-3.52-2.59-8.1-3.89-13.74-3.89-7.84,0-13.89,2.74-18.15,8.21-4.26,5.47-7.15,12.82-8.64,22.04-1.15,7.26-1.12,13.42.09,18.49,1.21,5.07,3.57,8.9,7.09,11.49,3.51,2.59,8.04,3.89,13.57,3.89,7.83,0,13.97-2.79,18.41-8.38,4.43-5.59,7.35-12.93,8.73-22.04,1.15-7.26,1.09-13.39-.17-18.41ZM1092.82,169.42l-11.06,69.3c-1.15,7.72-3.43,13.6-6.83,17.63-3.4,4.04-8.38,6.05-14.95,6.05-7.26,0-12.13-1.99-14.6-5.96-2.48-3.98-3.14-9.65-1.99-17.02l11.06-70h-37.33l-10.71,67.4c-2.07,13.02-1.3,23.71,2.33,32.06,3.63,8.36,9.53,14.52,17.71,18.49,8.18,3.97,18.03,5.96,29.55,5.96,13.02,0,23.79-2.02,32.32-6.05,8.53-4.03,15.18-10.02,19.96-17.97,4.78-7.95,8.09-17.74,9.94-29.38l11.23-70.51h-36.64Z" fill="url(#f)" stroke="#1c2126" stroke-linejoin="round" stroke-width="2"/><path d="M296.35,387.5c-.39,0-.71-.12-.96-.38-.25-.25-.38-.57-.38-.96v-20.19h-4.18c-.39,0-.71-.12-.96-.38-.25-.25-.38-.55-.38-.91v-3.7c0-.39.12-.71.38-.96.25-.25.57-.37.96-.37h4.18v-1.93c0-2.29.43-4.16,1.29-5.62.86-1.46,2.12-2.53,3.78-3.21,1.66-.68,3.67-1.02,6.02-1.02h3.96c.36,0,.66.12.91.38s.38.57.38.96v3.69c0,.36-.12.66-.38.91s-.55.37-.91.37h-3.59c-1.32,0-2.24.33-2.76.99-.52.66-.78,1.6-.78,2.81v1.66h6.59c.36,0,.66.12.91.37.25.25.38.57.38.96v3.7c0,.36-.13.66-.38.91-.25.25-.55.38-.91.38h-6.59v20.19c0,.39-.13.71-.38.96s-.57.38-.96.38h-5.25Z" fill="#fff"/><path d="M327.24,388.04c-2.96,0-5.44-.49-7.44-1.47s-3.53-2.38-4.58-4.2c-1.05-1.82-1.63-3.94-1.74-6.37-.04-.71-.05-1.53-.05-2.44s.02-1.7.05-2.38c.11-2.46.71-4.6,1.82-6.4,1.11-1.8,2.66-3.19,4.66-4.18,2-.98,4.43-1.47,7.28-1.47s5.23.49,7.23,1.47c2,.98,3.55,2.38,4.66,4.18,1.11,1.8,1.73,3.94,1.87,6.4.04.68.05,1.47.05,2.38s-.02,1.72-.05,2.44c-.14,2.43-.74,4.55-1.79,6.37-1.05,1.82-2.58,3.22-4.58,4.2-2,.98-4.46,1.47-7.39,1.47ZM327.24,382.09c1.75,0,3.06-.54,3.94-1.61.87-1.07,1.37-2.66,1.47-4.77.04-.54.05-1.25.05-2.14s-.02-1.61-.05-2.14c-.11-2.07-.6-3.65-1.47-4.74-.88-1.09-2.19-1.63-3.94-1.63s-3.07.54-3.96,1.63c-.89,1.09-1.39,2.67-1.5,4.74-.04.54-.05,1.25-.05,2.14s.02,1.61.05,2.14c.11,2.11.61,3.7,1.5,4.77.89,1.07,2.21,1.61,3.96,1.61Z" fill="#fff"/><path d="M347.97,387.5c-.36,0-.67-.12-.94-.38-.27-.25-.4-.57-.4-.96v-25.17c0-.36.13-.67.4-.94s.58-.4.94-.4h5.25c.39,0,.71.13.96.4.25.27.37.58.37.94v2.14c.89-1.11,2-1.96,3.32-2.57,1.32-.61,2.82-.91,4.5-.91h2.3c.39,0,.71.12.96.37.25.25.38.57.38.96v4.66c0,.36-.12.66-.38.91-.25.25-.57.38-.96.38h-4.66c-1.61,0-2.85.45-3.72,1.34-.88.89-1.31,2.12-1.31,3.7v14.19c0,.39-.13.71-.4.96-.27.25-.58.38-.94.38h-5.68Z" fill="#fff"/><path d="M384.49,397.68c-.29,0-.54-.11-.78-.32-.23-.21-.35-.48-.35-.8,0-.07.02-.17.05-.29.04-.13.09-.28.16-.46l4.18-10.01-10.28-24.26c-.11-.29-.16-.52-.16-.7.04-.32.16-.6.38-.83.21-.23.48-.35.8-.35h5.25c.43,0,.75.12.96.35.21.23.38.47.48.72l6.64,16.55,6.8-16.55c.14-.29.32-.54.54-.75.21-.21.55-.32,1.02-.32h5.09c.32,0,.6.12.83.35.23.23.35.49.35.78,0,.18-.05.43-.16.75l-15.15,35.08c-.14.29-.33.54-.56.75-.23.21-.58.32-1.04.32h-5.03Z" fill="#fff"/><path d="M422.46,388.04c-2.96,0-5.44-.49-7.44-1.47s-3.53-2.38-4.58-4.2c-1.05-1.82-1.63-3.94-1.74-6.37-.04-.71-.05-1.53-.05-2.44s.02-1.7.05-2.38c.11-2.46.71-4.6,1.82-6.4,1.11-1.8,2.66-3.19,4.66-4.18,2-.98,4.43-1.47,7.28-1.47s5.23.49,7.23,1.47c2,.98,3.55,2.38,4.66,4.18,1.11,1.8,1.73,3.94,1.87,6.4.04.68.05,1.47.05,2.38s-.02,1.72-.05,2.44c-.14,2.43-.74,4.55-1.79,6.37-1.05,1.82-2.58,3.22-4.58,4.2-2,.98-4.46,1.47-7.39,1.47ZM422.46,382.09c1.75,0,3.06-.54,3.94-1.61.87-1.07,1.37-2.66,1.47-4.77.04-.54.05-1.25.05-2.14s-.02-1.61-.05-2.14c-.11-2.07-.6-3.65-1.47-4.74-.88-1.09-2.19-1.63-3.94-1.63s-3.07.54-3.96,1.63c-.89,1.09-1.39,2.67-1.5,4.74-.04.54-.05,1.25-.05,2.14s.02,1.61.05,2.14c.11,2.11.61,3.7,1.5,4.77.89,1.07,2.21,1.61,3.96,1.61Z" fill="#fff"/><path d="M452.12,388.04c-2.07,0-3.9-.47-5.49-1.42-1.59-.95-2.83-2.32-3.72-4.12-.89-1.8-1.34-3.99-1.34-6.56v-14.94c0-.39.13-.71.4-.96.27-.25.58-.37.94-.37h5.73c.36,0,.66.12.91.37.25.25.38.57.38.96v14.62c0,4,1.75,6,5.25,6,1.68,0,3.01-.53,3.99-1.58.98-1.05,1.47-2.52,1.47-4.42v-14.62c0-.39.12-.71.38-.96.25-.25.57-.37.96-.37h5.68c.36,0,.66.12.91.37.25.25.37.57.37.96v25.17c0,.39-.12.71-.37.96-.25.25-.55.38-.91.38h-5.3c-.36,0-.66-.12-.91-.38-.25-.25-.38-.57-.38-.96v-2.09c-.93,1.29-2.12,2.27-3.59,2.94-1.46.68-3.25,1.02-5.36,1.02Z" fill="#fff"/><path d="M476.97,387.5c-.36,0-.67-.12-.94-.38-.27-.25-.4-.57-.4-.96v-25.17c0-.36.13-.67.4-.94s.58-.4.94-.4h5.25c.39,0,.71.13.96.4.25.27.37.58.37.94v2.14c.89-1.11,2-1.96,3.32-2.57,1.32-.61,2.82-.91,4.5-.91h2.3c.39,0,.71.12.96.37.25.25.38.57.38.96v4.66c0,.36-.12.66-.38.91-.25.25-.57.38-.96.38h-4.66c-1.61,0-2.85.45-3.72,1.34-.88.89-1.31,2.12-1.31,3.7v14.19c0,.39-.13.71-.4.96-.27.25-.58.38-.94.38h-5.68Z" fill="#fff"/><path d="M510.92,355.37c-.36,0-.66-.12-.91-.38-.25-.25-.38-.57-.38-.96v-4.34c0-.36.12-.67.38-.94.25-.27.55-.4.91-.4h5.68c.36,0,.67.13.94.4.27.27.4.58.4.94v4.34c0,.39-.13.71-.4.96-.27.25-.58.38-.94.38h-5.68ZM511.08,387.5c-.36,0-.67-.12-.94-.38-.27-.25-.4-.57-.4-.96v-25.17c0-.39.13-.71.4-.96.27-.25.58-.37.94-.37h5.41c.36,0,.66.12.91.37.25.25.38.57.38.96v25.17c0,.39-.12.71-.38.96-.25.25-.55.38-.91.38h-5.41Z" fill="#fff"/><path d="M525.81,387.5c-.36,0-.67-.12-.94-.38-.27-.25-.4-.57-.4-.96v-25.17c0-.39.13-.71.4-.96.27-.25.58-.37.94-.37h4.98c.39,0,.71.12.96.37.25.25.38.57.38.96v1.82c.75-1,1.76-1.86,3.03-2.57,1.27-.71,2.78-1.09,4.53-1.12,4.11-.07,6.94,1.5,8.51,4.71.82-1.39,2-2.53,3.53-3.4,1.53-.88,3.23-1.31,5.09-1.31s3.53.42,5.03,1.26c1.5.84,2.7,2.12,3.59,3.86.89,1.73,1.34,3.95,1.34,6.67v15.26c0,.39-.13.71-.4.96-.27.25-.58.38-.94.38h-5.3c-.39,0-.71-.12-.96-.38-.25-.25-.38-.57-.38-.96v-14.83c0-1.46-.21-2.61-.62-3.43-.41-.82-.96-1.42-1.66-1.79s-1.47-.56-2.33-.56c-.75,0-1.47.19-2.17.56-.7.38-1.27.97-1.71,1.79-.45.82-.67,1.96-.67,3.43v14.83c0,.39-.12.71-.37.96-.25.25-.55.38-.91.38h-5.3c-.39,0-.71-.12-.96-.38-.25-.25-.38-.57-.38-.96v-14.83c0-1.46-.21-2.61-.64-3.43-.43-.82-.99-1.42-1.69-1.79-.7-.38-1.46-.56-2.28-.56-.75,0-1.47.19-2.17.56s-1.27.97-1.71,1.79c-.45.82-.67,1.95-.67,3.37v14.89c0,.39-.13.71-.38.96s-.57.38-.96.38h-5.41Z" fill="#fff"/><path d="M574.54,397.68c-.39,0-.71-.13-.96-.38-.25-.25-.37-.57-.37-.96v-35.34c0-.39.12-.71.37-.96.25-.25.57-.37.96-.37h5.09c.39,0,.71.12.96.37.25.25.38.57.38.96v2.04c.86-1.14,1.97-2.08,3.35-2.81,1.37-.73,3.08-1.1,5.11-1.1,1.82,0,3.42.29,4.79.88,1.37.59,2.53,1.43,3.48,2.52.95,1.09,1.69,2.4,2.22,3.94.54,1.54.84,3.27.91,5.19.04.68.05,1.32.05,1.93s-.02,1.27-.05,1.98c-.07,1.82-.37,3.5-.88,5.03-.52,1.54-1.26,2.86-2.22,3.96-.96,1.11-2.13,1.96-3.51,2.57-1.38.61-2.97.91-4.79.91s-3.45-.33-4.77-.99-2.41-1.56-3.27-2.7v12c0,.39-.12.71-.37.96-.25.25-.57.38-.96.38h-5.52ZM586.96,381.61c1.36,0,2.43-.29,3.21-.88.79-.59,1.35-1.37,1.69-2.33.34-.96.54-2.02.62-3.16.07-1.11.07-2.21,0-3.32-.07-1.14-.28-2.2-.62-3.16-.34-.96-.9-1.74-1.69-2.33s-1.86-.88-3.21-.88-2.38.3-3.19.91c-.8.61-1.39,1.37-1.77,2.3s-.58,1.93-.62,3c-.04.64-.05,1.3-.05,1.98s.02,1.36.05,2.04c.04,1,.25,1.94.64,2.81.39.88,1,1.6,1.82,2.17.82.57,1.86.86,3.11.86Z" fill="#fff"/><path d="M619.25,388.04c-2.96,0-5.44-.49-7.44-1.47s-3.53-2.38-4.58-4.2c-1.05-1.82-1.63-3.94-1.74-6.37-.04-.71-.05-1.53-.05-2.44s.02-1.7.05-2.38c.11-2.46.71-4.6,1.82-6.4,1.11-1.8,2.66-3.19,4.66-4.18,2-.98,4.43-1.47,7.28-1.47s5.23.49,7.23,1.47c2,.98,3.55,2.38,4.66,4.18,1.11,1.8,1.73,3.94,1.87,6.4.04.68.05,1.47.05,2.38s-.02,1.72-.05,2.44c-.14,2.43-.74,4.55-1.79,6.37-1.05,1.82-2.58,3.22-4.58,4.2-2,.98-4.46,1.47-7.39,1.47ZM619.25,382.09c1.75,0,3.06-.54,3.94-1.61.87-1.07,1.37-2.66,1.47-4.77.04-.54.05-1.25.05-2.14s-.02-1.61-.05-2.14c-.11-2.07-.6-3.65-1.47-4.74-.88-1.09-2.19-1.63-3.94-1.63s-3.07.54-3.96,1.63c-.89,1.09-1.39,2.67-1.5,4.74-.04.54-.05,1.25-.05,2.14s.02,1.61.05,2.14c.11,2.11.61,3.7,1.5,4.77.89,1.07,2.21,1.61,3.96,1.61Z" fill="#fff"/><path d="M639.98,387.5c-.36,0-.67-.12-.94-.38-.27-.25-.4-.57-.4-.96v-25.17c0-.36.13-.67.4-.94s.58-.4.94-.4h5.25c.39,0,.71.13.96.4.25.27.37.58.37.94v2.14c.89-1.11,2-1.96,3.32-2.57,1.32-.61,2.82-.91,4.5-.91h2.3c.39,0,.71.12.96.37.25.25.38.57.38.96v4.66c0,.36-.12.66-.38.91-.25.25-.57.38-.96.38h-4.66c-1.61,0-2.85.45-3.72,1.34-.88.89-1.31,2.12-1.31,3.7v14.19c0,.39-.13.71-.4.96-.27.25-.58.38-.94.38h-5.68Z" fill="#fff"/><path d="M675.43,387.5c-2.21,0-4.1-.37-5.65-1.1-1.55-.73-2.74-1.87-3.56-3.4-.82-1.54-1.23-3.46-1.23-5.78v-11.25h-4.18c-.39,0-.71-.12-.96-.38-.25-.25-.37-.55-.37-.91v-3.7c0-.39.12-.71.37-.96.25-.25.57-.37.96-.37h4.18v-8.84c0-.39.13-.71.4-.96s.58-.38.94-.38h5.3c.36,0,.66.12.91.38s.38.57.38.96v8.84h6.69c.39,0,.71.12.96.37.25.25.38.57.38.96v3.7c0,.36-.13.66-.38.91s-.57.38-.96.38h-6.69v10.6c0,1.36.25,2.42.75,3.19.5.77,1.34,1.15,2.52,1.15h3.91c.39,0,.71.13.96.38.25.25.38.55.38.91v3.96c0,.39-.12.71-.38.96-.25.25-.57.38-.96.38h-4.66Z" fill="#fff"/><path d="M694.22,388.04c-1.89,0-3.59-.37-5.09-1.1s-2.7-1.72-3.59-2.97c-.89-1.25-1.34-2.64-1.34-4.18,0-2.54,1.03-4.53,3.08-6,2.05-1.46,4.76-2.46,8.11-3l7.01-1.02v-.96c0-1.39-.32-2.46-.96-3.21-.64-.75-1.77-1.12-3.37-1.12-1.18,0-2.12.23-2.81.7s-1.24,1.07-1.63,1.82c-.29.46-.71.7-1.29.7h-5.09c-.39,0-.7-.12-.91-.35-.21-.23-.3-.51-.27-.83,0-.61.23-1.32.7-2.14.46-.82,1.18-1.63,2.14-2.44.96-.8,2.2-1.47,3.72-2.01,1.52-.54,3.35-.8,5.49-.8,2.25,0,4.18.27,5.78.8,1.61.54,2.9,1.29,3.88,2.25.98.96,1.7,2.08,2.14,3.35.45,1.27.67,2.63.67,4.1v16.55c0,.39-.12.71-.38.96-.25.25-.55.38-.91.38h-5.3c-.36,0-.66-.12-.91-.38-.25-.25-.38-.57-.38-.96v-1.98c-.46.68-1.09,1.31-1.87,1.9-.79.59-1.72,1.06-2.81,1.42s-2.37.54-3.83.54ZM696.36,382.47c1.18,0,2.23-.25,3.16-.75.93-.5,1.66-1.27,2.2-2.3.54-1.04.8-2.34.8-3.91v-.91l-4.98.8c-1.89.32-3.29.8-4.18,1.45-.89.64-1.34,1.43-1.34,2.36,0,.68.21,1.26.62,1.74.41.48.95.86,1.61,1.12.66.27,1.37.4,2.12.4Z" fill="#fff"/><path d="M718.37,387.5c-.36,0-.67-.12-.94-.38-.27-.25-.4-.57-.4-.96v-25.17c0-.39.13-.71.4-.96.27-.25.58-.37.94-.37h5.25c.39,0,.71.12.96.37.25.25.37.57.37.96v2.09c.93-1.14,2.13-2.09,3.62-2.84,1.48-.75,3.26-1.12,5.33-1.12s3.96.47,5.57,1.42c1.61.95,2.86,2.32,3.75,4.12s1.34,3.99,1.34,6.56v14.94c0,.39-.12.71-.38.96-.25.25-.57.38-.96.38h-5.68c-.39,0-.71-.12-.96-.38-.25-.25-.38-.57-.38-.96v-14.62c0-1.89-.46-3.36-1.37-4.42-.91-1.05-2.24-1.58-3.99-1.58s-3.01.53-3.99,1.58c-.98,1.05-1.47,2.53-1.47,4.42v14.62c0,.39-.12.71-.38.96-.25.25-.57.38-.96.38h-5.68Z" fill="#fff"/><path d="M764.05,387.5c-2.21,0-4.1-.37-5.65-1.1-1.55-.73-2.74-1.87-3.56-3.4-.82-1.54-1.23-3.46-1.23-5.78v-11.25h-4.18c-.39,0-.71-.12-.96-.38-.25-.25-.37-.55-.37-.91v-3.7c0-.39.12-.71.37-.96.25-.25.57-.37.96-.37h4.18v-8.84c0-.39.13-.71.4-.96s.58-.38.94-.38h5.3c.36,0,.66.12.91.38s.38.57.38.96v8.84h6.69c.39,0,.71.12.96.37.25.25.38.57.38.96v3.7c0,.36-.13.66-.38.91s-.57.38-.96.38h-6.69v10.6c0,1.36.25,2.42.75,3.19.5.77,1.34,1.15,2.52,1.15h3.91c.39,0,.71.13.96.38.25.25.38.55.38.91v3.96c0,.39-.12.71-.38.96-.25.25-.57.38-.96.38h-4.66Z" fill="#fff"/><path d="M792.97,387.5c-.5,0-.88-.12-1.15-.38-.27-.25-.47-.57-.62-.96l-7.66-24.79c-.07-.18-.11-.36-.11-.54,0-.32.12-.6.35-.83s.51-.35.83-.35h4.77c.43,0,.77.12,1.02.37.25.25.41.48.48.7l4.87,16.49,5.19-16.39c.07-.25.24-.51.51-.78.27-.27.65-.4,1.15-.4h3.05c.5,0,.88.13,1.15.4s.44.53.51.78l5.19,16.39,4.87-16.49c.04-.21.18-.45.43-.7.25-.25.61-.37,1.07-.37h4.77c.32,0,.6.12.83.35.23.23.35.51.35.83,0,.18-.04.36-.11.54l-7.66,24.79c-.14.39-.34.71-.59.96s-.64.38-1.18.38h-4.12c-.5,0-.89-.12-1.18-.38-.29-.25-.5-.57-.64-.96l-5.19-15.8-5.25,15.8c-.14.39-.35.71-.62.96-.27.25-.67.38-1.21.38h-4.12Z" fill="#fff"/><path d="M841.64,388.04c-2.96,0-5.44-.49-7.44-1.47s-3.53-2.38-4.58-4.2c-1.05-1.82-1.63-3.94-1.74-6.37-.04-.71-.05-1.53-.05-2.44s.02-1.7.05-2.38c.11-2.46.71-4.6,1.82-6.4,1.11-1.8,2.66-3.19,4.66-4.18,2-.98,4.43-1.47,7.28-1.47s5.23.49,7.23,1.47c2,.98,3.55,2.38,4.66,4.18,1.11,1.8,1.73,3.94,1.87,6.4.04.68.05,1.47.05,2.38s-.02,1.72-.05,2.44c-.14,2.43-.74,4.55-1.79,6.37-1.05,1.82-2.58,3.22-4.58,4.2-2,.98-4.46,1.47-7.39,1.47ZM841.64,382.09c1.75,0,3.06-.54,3.94-1.61.87-1.07,1.37-2.66,1.47-4.77.04-.54.05-1.25.05-2.14s-.02-1.61-.05-2.14c-.11-2.07-.6-3.65-1.47-4.74-.88-1.09-2.19-1.63-3.94-1.63s-3.07.54-3.96,1.63c-.89,1.09-1.39,2.67-1.5,4.74-.04.54-.05,1.25-.05,2.14s.02,1.61.05,2.14c.11,2.11.61,3.7,1.5,4.77.89,1.07,2.21,1.61,3.96,1.61Z" fill="#fff"/><path d="M862.37,387.5c-.36,0-.67-.12-.94-.38-.27-.25-.4-.57-.4-.96v-25.17c0-.36.13-.67.4-.94s.58-.4.94-.4h5.25c.39,0,.71.13.96.4.25.27.37.58.37.94v2.14c.89-1.11,2-1.96,3.32-2.57,1.32-.61,2.82-.91,4.5-.91h2.3c.39,0,.71.12.96.37.25.25.38.57.38.96v4.66c0,.36-.12.66-.38.91-.25.25-.57.38-.96.38h-4.66c-1.61,0-2.85.45-3.72,1.34-.88.89-1.31,2.12-1.31,3.7v14.19c0,.39-.13.71-.4.96-.27.25-.58.38-.94.38h-5.68Z" fill="#fff"/><path d="M885.77,387.5c-.39,0-.71-.12-.96-.38-.25-.25-.37-.57-.37-.96v-35.34c0-.39.12-.71.37-.96s.57-.38.96-.38h5.25c.36,0,.67.12.94.38s.4.57.4.96v18.1l8.19-8.35c.29-.25.54-.46.78-.64s.6-.27,1.1-.27h6.11c.32,0,.6.12.83.35.23.23.35.51.35.83,0,.14-.04.3-.11.48s-.2.32-.38.43l-10.33,10.39,11.67,13.33c.29.29.43.57.43.86,0,.32-.11.6-.32.83s-.5.35-.86.35h-6.21c-.54,0-.92-.09-1.15-.27-.23-.18-.49-.39-.78-.64l-9.32-10.5v10.07c0,.39-.13.71-.4.96-.27.25-.58.38-.94.38h-5.25Z" fill="#fff"/><polygon points="296.38 291.26 287.79 291.26 293.61 298.64 296.38 291.26" fill="#1c2126" stroke="#1c2126" stroke-linejoin="round" stroke-width="2"/><polyline points="98.48 234.03 90.52 284.01 98.48 284.01" fill="none" stroke="#ffd3bf" stroke-linecap="round" stroke-linejoin="round" stroke-width="2"/><polyline points="258.51 258.37 254.43 284.01 262.39 284.01" fill="none" stroke="#ffd3bf" stroke-linecap="round" stroke-linejoin="round" stroke-width="2"/><polyline points="519.34 270.51 528.01 284.01 535.98 284.01" fill="none" stroke="#ffd3bf" stroke-linecap="round" stroke-linejoin="round" stroke-width="2"/><polyline points="650.92 271.24 659.96 284.01 667.93 284.01" fill="none" stroke="#ffd3bf" stroke-linecap="round" stroke-linejoin="round" stroke-width="2"/><polyline points="78.96 175.05 72.32 175.05 69.46 193.01" fill="none" stroke="#ffd3bf" stroke-linecap="round" stroke-linejoin="round" stroke-width="2"/><polyline points="198.35 175.05 191.71 175.05 178.78 256.17" fill="none" stroke="#ffd3bf" stroke-linecap="round" stroke-linejoin="round" stroke-width="2"/><polyline points="470.86 175.05 464.22 175.05 451.29 256.17" fill="none" stroke="#ffd3bf" stroke-linecap="round" stroke-linejoin="round" stroke-width="2"/><polyline points="603.36 175.05 596.72 175.05 588.43 227.09" fill="none" stroke="#ffd3bf" stroke-linecap="round" stroke-linejoin="round" stroke-width="2"/><polyline points="1028.98 175.05 1022.34 175.05 1015.17 220.05" fill="none" stroke="#ffd3bf" stroke-linecap="round" stroke-linejoin="round" stroke-width="2"/><polyline points="766.24 175.05 759.6 175.05 779.43 213.57" fill="none" stroke="#ffd3bf" stroke-linecap="round" stroke-linejoin="round" stroke-width="2"/><polyline points="375.57 175.05 368.94 175.05 323.94 247.7" fill="none" stroke="#ffd3bf" stroke-linecap="round" stroke-linejoin="round" stroke-width="2"/><path d="M890.8,277.65c-8.07-5.25-13.73-12.37-16.97-21.37-3.24-9-3.99-19.05-2.24-30.16,1.75-11.21,5.4-20.77,10.95-28.7,5.55-7.92,12.62-13.96,21.21-18.13" fill="none" stroke="#ffd3bf" stroke-linecap="round" stroke-linejoin="round" stroke-width="2"/><rect x="1118.21" y="30.99" width="7" height="7" fill="#ff6b60"/><rect x="1142.21" y="30.99" width="7" height="7" fill="#ff6b60"/><rect x="1142.21" y="42.99" width="7" height="7" fill="#ff6b60"/><rect x="1106.21" y="42.99" width="7" height="7" fill="#ff6b60"/><rect x="1118.21" y="42.99" width="7" height="7" fill="#ff6b60"/><rect x="1130.21" y="42.99" width="7" height="7" fill="#ff6b60"/><rect x="1154.21" y="42.99" width="7" height="7" fill="#ff6b60"/><rect x="1142.21" y="54.99" width="7" height="7" fill="#ff6b60"/><rect x="1106.21" y="54.99" width="7" height="7" fill="#ff6b60"/><rect x="1118.21" y="54.99" width="7" height="7" fill="#ff6b60"/><rect x="1130.21" y="54.99" width="7" height="7" fill="#ff6b60"/><rect x="1142.21" y="66.99" width="7" height="7" fill="#ff6b60"/><rect x="1118.21" y="66.99" width="7" height="7" fill="#ff6b60"/><rect x="1130.21" y="66.99" width="7" height="7" fill="#ff6b60"/><rect x="1130.21" y="78.99" width="7" height="7" fill="#ff6b60"/><rect x="1154.21" y="54.99" width="7" height="7" fill="#ff6b60"/><rect x="0" y="595" width="1200" height="35" fill="#fff"/><rect x="0" y="499.19" width="1200" height="95.81" fill="#fff"/><line x1="0" y1="499.19" x2="1200" y2="499.19" fill="none" stroke="#1c2126" stroke-miterlimit="10"/><line x1="0" y1="595" x2="1200" y2="595" fill="none" stroke="#1c2126" stroke-miterlimit="10"/><path d="M24.24,559.45v-18.76h-6.39v-2.37h15.35v2.37h-6.39v18.76h-2.58Z" fill="#1c2126"/><path d="M44.08,559.89c-4.8,0-7.75-3.46-7.75-9.3v-3.41c0-5.84,2.94-9.3,7.75-9.3s7.75,3.46,7.75,9.3v3.41c0,5.84-2.94,9.3-7.75,9.3ZM49.22,550.58v-3.38c0-4.41-1.93-6.87-5.14-6.87s-5.14,2.46-5.14,6.87v3.38c0,4.41,1.93,6.87,5.14,6.87s5.14-2.46,5.14-6.87Z" fill="#1c2126"/><path d="M59.97,545.58c0-1.48,1.2-2.71,2.65-2.71s2.65,1.23,2.65,2.71-1.2,2.71-2.65,2.71-2.65-1.23-2.65-2.71ZM59.97,556.83c0-1.48,1.2-2.7,2.65-2.7s2.65,1.21,2.65,2.7-1.2,2.71-2.65,2.71-2.65-1.21-2.65-2.71Z" fill="#1c2126"/><line x1="582.03" y1="498.72" x2="582.03" y2="595" fill="none" stroke="#1c2126" stroke-miterlimit="10"/><path d="M605.51,559.45v-21.14h12.47v2.37h-9.87v7.25h9.02v2.3h-9.02v9.21h-2.59Z" fill="#1c2126"/><path d="M625.54,551.03v8.42h-2.55v-21.14h7.09c4.19,0,6.81,2.43,6.81,6.36,0,2.77-1.54,5.04-3.94,5.83l4.31,8.95h-2.92l-3.94-8.42h-4.86ZM625.54,548.85h4.19c2.92,0,4.56-1.48,4.56-4.12s-1.61-4.12-4.44-4.12h-4.31v8.23Z" fill="#1c2126"/><path d="M648.15,559.89c-4.8,0-7.75-3.46-7.75-9.3v-3.41c0-5.84,2.94-9.3,7.75-9.3s7.75,3.46,7.75,9.3v3.41c0,5.84-2.94,9.3-7.75,9.3ZM653.29,550.58v-3.38c0-4.41-1.93-6.87-5.14-6.87s-5.14,2.46-5.14,6.87v3.38c0,4.41,1.93,6.87,5.14,6.87s5.14-2.46,5.14-6.87Z" fill="#1c2126"/><path d="M661.18,559.45h-2.31v-21.14h2.86l4.88,13.08h.19l4.86-13.08h2.86v21.14h-2.31v-8.1l.15-8.57h-.19l-4.45,11.71h-2.02l-4.45-11.71h-.19l.15,8.57v8.1Z" fill="#1c2126"/><path d="M682.59,545.58c0-1.48,1.2-2.71,2.65-2.71s2.65,1.23,2.65,2.71-1.2,2.71-2.65,2.71-2.65-1.23-2.65-2.71ZM682.59,556.83c0-1.48,1.2-2.7,2.65-2.7s2.65,1.21,2.65,2.7-1.2,2.71-2.65,2.71-2.65-1.21-2.65-2.71Z" fill="#1c2126"/><path d="M12.77,618.4c-.12,0-.21-.04-.26-.11s-.08-.17-.06-.27l2.22-10.42c.02-.12.07-.21.16-.29.08-.07.19-.11.3-.11h6.95c.12,0,.2.04.26.11.05.07.07.17.05.29l-.24,1.12c-.02.12-.08.21-.16.28-.08.07-.19.11-.3.11h-5.14l-.66,3.04h4.82c.12,0,.2.04.26.11.05.07.07.17.05.29l-.22,1.12c-.02.11-.08.2-.17.27-.09.07-.19.11-.31.11h-4.82l-.85,3.97c-.02.11-.08.2-.16.27s-.19.11-.3.11h-1.41Z" fill="#1c2126"/><path d="M25.41,618.56c-.81,0-1.49-.15-2.02-.45s-.92-.72-1.15-1.26c-.23-.54-.29-1.18-.17-1.9.03-.19.08-.43.13-.71s.12-.51.17-.7c.19-.74.49-1.37.89-1.91s.91-.96,1.54-1.26c.62-.3,1.36-.45,2.22-.45s1.49.15,2.02.45c.54.3.93.72,1.16,1.26s.29,1.18.18,1.91c-.04.19-.09.43-.14.7s-.11.51-.16.71c-.19.72-.48,1.36-.87,1.9-.39.54-.9.96-1.52,1.26s-1.38.45-2.26.45ZM25.57,616.98c.58,0,1.06-.18,1.46-.54.4-.36.69-.88.87-1.58.04-.16.09-.37.14-.62s.1-.46.13-.62c.12-.69.07-1.22-.14-1.58-.21-.36-.61-.54-1.18-.54s-1.05.18-1.46.54-.69.88-.86,1.58c-.04.16-.09.37-.15.62s-.1.46-.12.62c-.12.69-.07,1.22.14,1.58s.6.54,1.18.54Z" fill="#1c2126"/><path d="M31.53,618.4c-.11,0-.19-.04-.25-.11s-.08-.17-.06-.27l1.6-7.54c.02-.12.08-.21.17-.29s.19-.11.3-.11h1.3c.11,0,.19.04.25.11s.08.17.06.29l-.14.66c.26-.34.58-.6.98-.78s.88-.27,1.44-.27h.78c.12,0,.2.04.26.11.05.07.07.16.05.27l-.24,1.15c-.02.11-.08.2-.17.27s-.19.11-.3.11h-1.25c-.51,0-.94.14-1.29.43-.35.28-.57.68-.68,1.19l-.94,4.4c-.02.11-.07.2-.16.27-.08.07-.19.11-.3.11h-1.39Z" fill="#1c2126"/><path d="M44.76,618.4c-.73,0-1.29-.11-1.7-.34-.4-.22-.67-.56-.78-1-.12-.44-.11-.99.03-1.66l.79-3.63h-1.26c-.11,0-.19-.04-.25-.11-.06-.07-.08-.17-.06-.29l.19-.91c.02-.11.08-.2.17-.27.09-.07.2-.11.31-.11h1.25l.58-2.65c.02-.11.07-.2.16-.27.08-.07.18-.11.29-.11h1.3c.12,0,.21.04.26.11.06.08.08.17.06.27l-.58,2.65h2c.11,0,.19.04.25.11s.08.16.06.27l-.19.91c-.02.12-.08.21-.17.29-.09.08-.19.11-.3.11h-2l-.74,3.47c-.06.29-.1.54-.1.74,0,.21.05.37.17.48s.33.17.62.17h1.15c.12,0,.2.04.26.11.05.08.07.17.05.27l-.21.99c-.02.11-.08.2-.16.27-.09.07-.19.11-.3.11h-1.14Z" fill="#1c2126"/><path d="M48.07,618.4c-.11,0-.19-.04-.25-.11s-.08-.17-.06-.27l2.26-10.59c.02-.11.08-.2.16-.27.08-.07.18-.11.29-.11h1.44c.11,0,.19.04.25.11.06.08.08.17.06.27l-.78,3.65c.34-.34.72-.62,1.14-.83.42-.21.93-.32,1.53-.32.69,0,1.26.15,1.7.44.44.29.75.71.92,1.24.17.53.18,1.17.02,1.92l-.96,4.5c-.02.11-.08.2-.16.27-.09.07-.19.11-.3.11h-1.44c-.11,0-.19-.04-.25-.11s-.08-.17-.06-.27l.93-4.4c.14-.62.11-1.1-.08-1.46-.19-.35-.58-.53-1.17-.53-.36,0-.71.08-1.03.23-.33.15-.61.38-.84.68s-.4.66-.5,1.07l-.93,4.4c-.02.11-.08.2-.16.27-.09.07-.18.11-.29.11h-1.44Z" fill="#1c2126"/><path d="M61.51,618.56c-.78,0-1.43-.15-1.95-.46-.52-.31-.87-.76-1.07-1.35-.2-.59-.23-1.29-.09-2.13.02-.11.05-.24.08-.41.03-.17.06-.3.1-.39.21-.81.54-1.51.99-2.09.45-.58.99-1.03,1.64-1.34s1.36-.47,2.14-.47c.86,0,1.55.18,2.06.54s.84.85,1.01,1.49.16,1.37,0,2.2l-.08.34c-.02.11-.08.2-.17.27-.09.08-.19.11-.31.11h-5.31c-.01.06-.02.11-.03.13-.05.38-.05.72.02,1.03.06.31.21.57.42.76s.51.29.87.29c.3,0,.56-.04.79-.13.22-.09.41-.2.55-.31.14-.12.25-.21.33-.29.13-.13.22-.21.29-.23.06-.03.15-.04.27-.04h1.39c.1,0,.17.03.22.1.05.06.07.14.05.24-.05.17-.19.38-.4.62-.21.24-.5.48-.86.72-.36.24-.79.43-1.29.58s-1.04.23-1.64.23ZM60.82,613.53h3.54l.02-.05c.1-.42.1-.78.02-1.1s-.23-.56-.46-.74c-.22-.18-.52-.26-.9-.26s-.71.09-1.02.26c-.3.18-.56.42-.76.74-.2.31-.35.68-.43,1.1l-.02.05Z" fill="#1c2126"/><path d="M71.06,618.4c-.11,0-.19-.04-.25-.11s-.08-.17-.06-.27l2.26-10.59c.02-.11.08-.2.16-.27.08-.07.18-.11.29-.11h1.33c.12,0,.21.04.26.11.06.08.08.17.06.27l-2.26,10.59c-.02.11-.08.2-.16.27-.09.07-.19.11-.3.11h-1.33Z" fill="#1c2126"/><path d="M78.64,618.56c-.81,0-1.49-.15-2.02-.45-.54-.3-.92-.72-1.15-1.26-.23-.54-.29-1.18-.17-1.9.03-.19.08-.43.14-.71s.11-.51.17-.7c.19-.74.49-1.37.89-1.91.4-.54.91-.96,1.54-1.26s1.36-.45,2.22-.45,1.49.15,2.02.45.92.72,1.16,1.26c.23.54.29,1.18.18,1.91-.04.19-.09.43-.14.7-.05.28-.11.51-.16.71-.19.72-.48,1.36-.87,1.9-.39.54-.9.96-1.52,1.26-.62.3-1.38.45-2.26.45ZM78.8,616.98c.58,0,1.06-.18,1.46-.54s.69-.88.87-1.58c.04-.16.09-.37.14-.62.05-.26.1-.46.13-.62.12-.69.07-1.22-.14-1.58s-.61-.54-1.18-.54-1.05.18-1.46.54c-.41.36-.69.88-.86,1.58-.04.16-.09.37-.15.62s-.1.46-.12.62c-.12.69-.07,1.22.14,1.58.21.36.6.54,1.18.54Z" fill="#1c2126"/><path d="M86.92,618.4c-.16,0-.27-.04-.34-.12-.06-.08-.11-.17-.13-.28l-1.42-7.49c-.02-.14,0-.25.08-.32s.18-.11.3-.11h1.22c.12,0,.21.03.27.1.06.06.11.15.13.27l.91,5.55,3.33-5.62c.03-.06.09-.13.17-.2.08-.07.18-.11.31-.11h1.39c.13,0,.22.05.26.14.05.1.03.21-.06.35l-4.56,7.42c-.08.11-.16.2-.25.28-.09.08-.22.12-.38.12h-1.25Z" fill="#1c2126"/><path d="M96.66,618.56c-.78,0-1.43-.15-1.94-.46-.52-.31-.88-.76-1.07-1.35-.2-.59-.23-1.29-.09-2.13.02-.11.05-.24.08-.41.03-.17.06-.3.1-.39.21-.81.54-1.51.99-2.09.45-.58.99-1.03,1.64-1.34s1.36-.47,2.14-.47c.86,0,1.55.18,2.06.54.51.36.84.85,1.01,1.49.17.63.16,1.37,0,2.2l-.08.34c-.02.11-.08.2-.17.27-.09.08-.2.11-.31.11h-5.31c-.01.06-.02.11-.03.13-.05.38-.05.72.02,1.03.06.31.21.57.42.76s.51.29.87.29c.3,0,.56-.04.78-.13.22-.09.41-.2.55-.31.14-.12.25-.21.33-.29.13-.13.22-.21.29-.23.06-.03.15-.04.27-.04h1.39c.1,0,.17.03.22.1.05.06.07.14.05.24-.05.17-.19.38-.4.62-.21.24-.5.48-.87.72-.36.24-.79.43-1.29.58s-1.04.23-1.64.23ZM95.97,613.53h3.54l.02-.05c.1-.42.1-.78.02-1.1s-.23-.56-.46-.74c-.22-.18-.52-.26-.9-.26s-.71.09-1.02.26-.56.42-.76.74c-.2.31-.35.68-.43,1.1l-.02.05Z" fill="#1c2126"/><path d="M109.56,618.56c-.81,0-1.49-.15-2.02-.45s-.92-.72-1.15-1.26c-.23-.54-.29-1.18-.17-1.9.03-.19.08-.43.13-.71s.12-.51.17-.7c.19-.74.49-1.37.89-1.91s.91-.96,1.54-1.26c.62-.3,1.36-.45,2.22-.45s1.49.15,2.02.45c.54.3.93.72,1.16,1.26s.29,1.18.18,1.91c-.04.19-.09.43-.14.7s-.11.51-.16.71c-.19.72-.48,1.36-.87,1.9-.39.54-.9.96-1.52,1.26s-1.38.45-2.26.45ZM109.72,616.98c.58,0,1.06-.18,1.46-.54.4-.36.69-.88.87-1.58.04-.16.09-.37.14-.62s.1-.46.13-.62c.12-.69.07-1.22-.14-1.58-.21-.36-.61-.54-1.18-.54s-1.05.18-1.46.54-.69.88-.86,1.58c-.04.16-.09.37-.15.62s-.1.46-.12.62c-.12.69-.07,1.22.14,1.58s.6.54,1.18.54Z" fill="#1c2126"/><path d="M116.42,618.4c-.12,0-.21-.04-.26-.11s-.08-.17-.06-.27l1.33-6.24h-1.29c-.11,0-.19-.04-.25-.11-.06-.07-.08-.17-.06-.29l.19-.91c.02-.11.08-.2.17-.27s.19-.11.31-.11h1.3l.13-.65c.15-.64.38-1.17.69-1.59.31-.42.7-.74,1.18-.95.48-.21,1.04-.32,1.68-.32h1.28c.12,0,.2.04.26.11.05.07.07.16.05.27l-.19.91c-.02.12-.08.21-.17.29s-.19.11-.3.11h-.96c-.43,0-.76.11-.99.32-.23.21-.39.52-.46.93l-.13.58h1.98c.12,0,.2.04.26.11.05.07.07.16.05.27l-.19.91c-.02.12-.08.21-.16.29-.09.08-.19.11-.3.11h-1.98l-1.34,6.24c-.02.11-.07.2-.16.27-.08.07-.18.11-.29.11h-1.3Z" fill="#1c2126"/><path d="M128.85,618.56c-.81,0-1.48-.15-2.02-.45s-.92-.72-1.15-1.26c-.23-.54-.29-1.18-.17-1.9.03-.19.08-.43.14-.71s.11-.51.17-.7c.19-.74.49-1.37.89-1.91s.91-.96,1.54-1.26c.62-.3,1.36-.45,2.22-.45s1.49.15,2.02.45c.54.3.92.72,1.16,1.26.23.54.29,1.18.18,1.91-.04.19-.09.43-.14.7s-.11.51-.16.71c-.19.72-.48,1.36-.87,1.9-.39.54-.9.96-1.52,1.26s-1.38.45-2.26.45ZM129.01,616.98c.58,0,1.06-.18,1.46-.54.4-.36.69-.88.87-1.58.04-.16.09-.37.14-.62.05-.26.1-.46.13-.62.12-.69.07-1.22-.14-1.58-.21-.36-.61-.54-1.18-.54s-1.05.18-1.46.54-.69.88-.86,1.58c-.04.16-.09.37-.15.62s-.1.46-.12.62c-.12.69-.07,1.22.14,1.58s.6.54,1.18.54Z" fill="#1c2126"/><path d="M134.32,621.45c-.11,0-.19-.04-.25-.11-.06-.07-.08-.16-.06-.27l2.26-10.59c.02-.11.08-.2.16-.27.09-.07.18-.11.29-.11h1.28c.11,0,.19.04.25.11s.08.16.06.27l-.14.64c.33-.34.7-.62,1.1-.85.4-.22.93-.34,1.58-.34.55,0,1.03.09,1.42.28.39.19.7.45.92.79.22.34.37.74.44,1.21.07.46.06.97-.04,1.53-.02.18-.05.35-.09.51s-.08.34-.14.53c-.13.52-.31,1.02-.54,1.48-.24.46-.52.87-.86,1.22-.34.35-.73.62-1.18.81-.45.19-.96.29-1.53.29-.6,0-1.09-.1-1.47-.31-.38-.21-.66-.48-.83-.82l-.78,3.63c-.02.11-.08.2-.16.27-.09.08-.19.11-.3.11h-1.36ZM138.88,616.85c.43,0,.79-.1,1.09-.3.3-.2.55-.46.74-.78.2-.33.35-.68.47-1.05.05-.16.1-.32.13-.48.03-.16.06-.32.08-.48.05-.38.06-.74.02-1.06s-.16-.58-.36-.78c-.2-.2-.51-.3-.94-.3-.45,0-.83.1-1.16.3-.33.2-.59.46-.8.78s-.36.64-.44.97c-.05.19-.1.39-.14.61s-.08.42-.11.62c-.05.32-.05.63,0,.92.06.29.2.54.43.73.23.19.56.29.98.29Z" fill="#1c2126"/><path d="M148.13,618.56c-.78,0-1.43-.15-1.95-.46-.52-.31-.87-.76-1.07-1.35-.2-.59-.23-1.29-.09-2.13.02-.11.05-.24.08-.41.03-.17.06-.3.1-.39.21-.81.54-1.51.99-2.09.45-.58.99-1.03,1.64-1.34s1.36-.47,2.14-.47c.86,0,1.55.18,2.06.54s.84.85,1.01,1.49.16,1.37,0,2.2l-.08.34c-.02.11-.08.2-.17.27-.09.08-.19.11-.31.11h-5.31c-.01.06-.02.11-.03.13-.05.38-.05.72.02,1.03.06.31.21.57.42.76s.51.29.87.29c.3,0,.56-.04.79-.13.22-.09.41-.2.55-.31.14-.12.25-.21.33-.29.13-.13.22-.21.29-.23.06-.03.15-.04.27-.04h1.39c.1,0,.17.03.22.1.05.06.07.14.05.24-.05.17-.19.38-.4.62-.21.24-.5.48-.86.72-.36.24-.79.43-1.29.58s-1.04.23-1.64.23ZM147.44,613.53h3.54l.02-.05c.1-.42.1-.78.02-1.1s-.23-.56-.46-.74c-.22-.18-.52-.26-.9-.26s-.71.09-1.02.26c-.3.18-.56.42-.76.74-.2.31-.35.68-.43,1.1l-.02.05Z" fill="#1c2126"/><path d="M153.96,618.4c-.11,0-.19-.04-.25-.11-.06-.07-.08-.17-.06-.27l1.6-7.55c.02-.11.08-.2.17-.27.09-.07.19-.11.3-.11h1.31c.11,0,.19.04.24.11.05.07.07.16.05.27l-.14.66c.34-.34.74-.63,1.21-.86.46-.23.99-.35,1.58-.35.73,0,1.31.15,1.74.44s.73.71.87,1.24c.14.53.14,1.17-.02,1.92l-.96,4.5c-.02.11-.07.2-.16.27s-.19.11-.3.11h-1.41c-.11,0-.19-.04-.25-.11s-.08-.17-.06-.27l.93-4.4c.14-.65.12-1.14-.04-1.48s-.56-.5-1.18-.5-1.12.18-1.54.53c-.42.35-.7.84-.84,1.46l-.93,4.4c-.02.11-.08.2-.16.27-.09.07-.18.11-.29.11h-1.41Z" fill="#1c2126"/><path d="M170.61,618.56c-.64,0-1.17-.07-1.59-.22-.42-.15-.75-.34-.99-.56-.24-.22-.41-.45-.5-.67-.09-.22-.12-.41-.1-.56.02-.12.08-.21.17-.28.09-.07.18-.11.28-.11h1.26s.08,0,.11.02c.03,0,.06.04.1.1l.37.37c.13.13.29.24.49.33.2.09.46.14.78.14.42,0,.78-.08,1.1-.25.31-.17.5-.4.57-.71.04-.22.02-.4-.08-.54-.1-.14-.29-.27-.59-.38s-.74-.23-1.33-.36c-.58-.14-1.04-.31-1.38-.53-.35-.21-.58-.48-.71-.8-.12-.32-.13-.69-.04-1.12.08-.42.29-.81.62-1.19.33-.38.77-.69,1.32-.94s1.19-.37,1.93-.37c.58,0,1.06.07,1.46.22s.72.32.96.54c.24.21.41.43.5.65.1.22.13.41.1.57-.01.12-.06.21-.15.28-.09.07-.18.11-.28.11h-1.17c-.05,0-.1-.01-.14-.03-.04-.02-.08-.05-.1-.08-.11-.11-.22-.22-.33-.34-.11-.12-.26-.23-.43-.31-.18-.08-.42-.13-.74-.13-.41,0-.73.09-.98.26s-.41.4-.47.66c-.03.18-.01.34.06.47.07.13.25.26.54.38s.73.24,1.31.37c.69.13,1.22.32,1.59.57.37.25.61.54.72.86s.13.69.04,1.08c-.1.48-.33.91-.7,1.29-.37.38-.85.69-1.45.9-.6.22-1.3.33-2.11.33Z" fill="#1c2126"/><path d="M179.52,618.56c-.81,0-1.49-.15-2.02-.45-.54-.3-.92-.72-1.15-1.26-.23-.54-.29-1.18-.17-1.9.03-.19.08-.43.14-.71s.11-.51.17-.7c.19-.74.49-1.37.89-1.91.4-.54.91-.96,1.54-1.26s1.36-.45,2.22-.45,1.49.15,2.02.45.92.72,1.16,1.26c.23.54.29,1.18.18,1.91-.04.19-.09.43-.14.7-.05.28-.11.51-.16.71-.19.72-.48,1.36-.87,1.9-.39.54-.9.96-1.52,1.26-.62.3-1.38.45-2.26.45ZM179.68,616.98c.58,0,1.06-.18,1.46-.54s.69-.88.87-1.58c.04-.16.09-.37.14-.62.05-.26.1-.46.13-.62.12-.69.07-1.22-.14-1.58s-.61-.54-1.18-.54-1.05.18-1.46.54c-.41.36-.69.88-.86,1.58-.04.16-.09.37-.15.62s-.1.46-.12.62c-.12.69-.07,1.22.14,1.58.21.36.6.54,1.18.54Z" fill="#1c2126"/><path d="M188.45,618.56c-.69,0-1.26-.15-1.7-.44s-.73-.71-.87-1.25-.14-1.18,0-1.91l.96-4.5c.02-.11.08-.2.17-.27.09-.07.19-.11.29-.11h1.41c.11,0,.19.04.24.11s.07.16.05.27l-.93,4.4c-.1.44-.13.8-.09,1.1.04.29.16.52.36.66.2.15.52.22.94.22.58,0,1.08-.18,1.5-.53.43-.35.7-.84.83-1.46l.94-4.4c.02-.11.08-.2.17-.27s.19-.11.3-.11h1.39c.12,0,.2.04.26.11.05.07.07.16.05.27l-1.6,7.55c-.02.11-.07.2-.16.27-.08.07-.19.11-.3.11h-1.3c-.11,0-.19-.04-.25-.11s-.08-.17-.06-.27l.13-.66c-.23.24-.47.46-.72.64-.25.18-.53.32-.85.42-.32.1-.71.14-1.18.14Z" fill="#1c2126"/><path d="M195.57,618.4c-.11,0-.19-.04-.25-.11-.06-.07-.08-.17-.06-.27l1.6-7.54c.02-.12.08-.21.17-.29.09-.07.19-.11.3-.11h1.3c.11,0,.19.04.25.11s.08.17.06.29l-.14.66c.26-.34.58-.6.98-.78.39-.18.87-.27,1.44-.27h.78c.12,0,.2.04.26.11s.07.16.05.27l-.24,1.15c-.02.11-.08.2-.17.27-.09.07-.19.11-.3.11h-1.25c-.51,0-.94.14-1.29.43-.35.28-.57.68-.68,1.19l-.94,4.4c-.02.11-.08.2-.16.27-.09.07-.19.11-.3.11h-1.39Z" fill="#1c2126"/><path d="M205.46,618.56c-.71,0-1.34-.14-1.88-.43s-.94-.71-1.19-1.26-.31-1.21-.18-1.99c.03-.16.07-.37.13-.63.05-.26.1-.48.14-.65.29-1.16.82-2.07,1.6-2.71.78-.64,1.77-.97,2.98-.97.67,0,1.23.1,1.69.29.45.19.81.44,1.07.74.26.3.44.61.54.93s.14.61.1.86c0,.12-.06.21-.14.28-.08.07-.17.1-.28.1h-1.46c-.11,0-.19-.03-.25-.08-.06-.05-.09-.13-.1-.24,0-.43-.11-.74-.34-.93-.23-.19-.56-.29-.98-.29-.52,0-.99.17-1.4.51-.41.34-.71.87-.89,1.59-.04.19-.09.39-.13.59s-.08.38-.11.53c-.12.74-.06,1.27.16,1.6.22.33.6.5,1.12.5.42,0,.79-.09,1.12-.26s.61-.48.83-.9c.06-.12.13-.2.2-.25.07-.05.16-.07.26-.07h1.44c.11,0,.19.04.25.11.06.07.07.16.04.28-.07.23-.21.51-.41.82s-.47.62-.81.92c-.34.3-.77.54-1.29.74-.52.19-1.13.29-1.85.29Z" fill="#1c2126"/><path d="M214.69,618.56c-.78,0-1.43-.15-1.95-.46-.52-.31-.87-.76-1.07-1.35-.2-.59-.23-1.29-.09-2.13.02-.11.05-.24.08-.41.03-.17.06-.3.1-.39.21-.81.54-1.51.99-2.09.45-.58.99-1.03,1.64-1.34s1.36-.47,2.14-.47c.86,0,1.55.18,2.06.54s.84.85,1.01,1.49.16,1.37,0,2.2l-.08.34c-.02.11-.08.2-.17.27-.09.08-.19.11-.31.11h-5.31c-.01.06-.02.11-.03.13-.05.38-.05.72.02,1.03.06.31.21.57.42.76s.51.29.87.29c.3,0,.56-.04.79-.13.22-.09.41-.2.55-.31.14-.12.25-.21.33-.29.13-.13.22-.21.29-.23.06-.03.15-.04.27-.04h1.39c.1,0,.17.03.22.1.05.06.07.14.05.24-.05.17-.19.38-.4.62-.21.24-.5.48-.86.72-.36.24-.79.43-1.29.58s-1.04.23-1.64.23ZM214,613.53h3.54l.02-.05c.1-.42.1-.78.02-1.1s-.23-.56-.46-.74c-.22-.18-.52-.26-.9-.26s-.71.09-1.02.26c-.3.18-.56.42-.76.74-.2.31-.35.68-.43,1.1l-.02.05Z" fill="#1c2126"/><path d="M227.19,618.56c-.64,0-1.17-.07-1.59-.22-.42-.15-.75-.34-.99-.56-.24-.22-.41-.45-.5-.67-.09-.22-.13-.41-.1-.56.02-.12.08-.21.17-.28.09-.07.18-.11.28-.11h1.26s.08,0,.11.02c.03,0,.06.04.1.1.12.12.24.24.37.37.13.13.29.24.49.33.2.09.46.14.78.14.42,0,.78-.08,1.1-.25.31-.17.5-.4.57-.71.04-.22.02-.4-.08-.54s-.29-.27-.59-.38c-.3-.11-.74-.23-1.33-.36-.58-.14-1.04-.31-1.38-.53-.35-.21-.58-.48-.7-.8-.12-.32-.14-.69-.04-1.12.09-.42.29-.81.62-1.19.33-.38.77-.69,1.32-.94.55-.25,1.19-.37,1.93-.37.58,0,1.06.07,1.46.22.4.14.72.32.96.54.24.21.41.43.5.65s.13.41.1.57c-.01.12-.06.21-.15.28-.09.07-.18.11-.28.11h-1.17c-.05,0-.1-.01-.14-.03s-.07-.05-.1-.08c-.11-.11-.22-.22-.33-.34-.11-.12-.26-.23-.43-.31-.18-.08-.42-.13-.74-.13-.41,0-.73.09-.98.26s-.41.4-.47.66c-.03.18-.01.34.06.47s.25.26.54.38.73.24,1.31.37c.69.13,1.22.32,1.59.57.37.25.61.54.72.86.11.33.12.69.04,1.08-.1.48-.33.91-.7,1.29-.37.38-.85.69-1.45.9-.6.22-1.3.33-2.11.33Z" fill="#1c2126"/><path d="M236.1,618.56c-.81,0-1.49-.15-2.02-.45-.54-.3-.92-.72-1.15-1.26-.23-.54-.29-1.18-.17-1.9.03-.19.08-.43.14-.71s.12-.51.17-.7c.19-.74.49-1.37.89-1.91.4-.54.91-.96,1.54-1.26s1.36-.45,2.22-.45,1.48.15,2.02.45.93.72,1.16,1.26.29,1.18.18,1.91c-.04.19-.09.43-.14.7-.05.28-.11.51-.16.71-.19.72-.48,1.36-.87,1.9-.39.54-.9.96-1.52,1.26-.62.3-1.38.45-2.26.45ZM236.26,616.98c.58,0,1.06-.18,1.46-.54s.69-.88.87-1.58c.04-.16.09-.37.14-.62.05-.26.1-.46.13-.62.12-.69.07-1.22-.14-1.58s-.61-.54-1.18-.54-1.05.18-1.46.54c-.4.36-.69.88-.86,1.58-.04.16-.09.37-.15.62s-.1.46-.12.62c-.12.69-.07,1.22.13,1.58.21.36.6.54,1.18.54Z" fill="#1c2126"/><path d="M242.96,618.4c-.12,0-.21-.04-.26-.11s-.08-.17-.06-.27l1.33-6.24h-1.3c-.11,0-.19-.04-.25-.11-.06-.07-.08-.17-.06-.29l.19-.91c.02-.11.08-.2.17-.27.09-.07.19-.11.31-.11h1.29l.13-.65c.15-.64.38-1.17.69-1.59.31-.42.7-.74,1.18-.95.48-.21,1.04-.32,1.68-.32h1.28c.12,0,.2.04.26.11.05.07.07.16.05.27l-.19.91c-.02.12-.08.21-.17.29s-.19.11-.3.11h-.96c-.43,0-.76.11-.99.32-.23.21-.39.52-.46.93l-.13.58h1.98c.12,0,.2.04.26.11.05.07.07.16.05.27l-.19.91c-.02.12-.07.21-.16.29-.08.08-.19.11-.3.11h-1.98l-1.34,6.24c-.02.11-.08.2-.16.27-.09.07-.18.11-.29.11h-1.29Z" fill="#1c2126"/><path d="M252.11,618.4c-.73,0-1.29-.11-1.7-.34-.4-.22-.67-.56-.78-1-.12-.44-.11-.99.03-1.66l.79-3.63h-1.26c-.11,0-.19-.04-.25-.11-.06-.07-.08-.17-.06-.29l.19-.91c.02-.11.08-.2.17-.27.09-.07.2-.11.31-.11h1.25l.58-2.65c.02-.11.07-.2.16-.27.08-.07.18-.11.29-.11h1.3c.12,0,.21.04.26.11.06.08.08.17.06.27l-.58,2.65h2c.11,0,.19.04.25.11s.08.16.06.27l-.19.91c-.02.12-.08.21-.17.29-.09.08-.19.11-.3.11h-2l-.74,3.47c-.06.29-.1.54-.1.74,0,.21.05.37.17.48s.33.17.62.17h1.15c.12,0,.2.04.26.11.05.08.07.17.05.27l-.21.99c-.02.11-.08.2-.16.27-.09.07-.19.11-.3.11h-1.14Z" fill="#1c2126"/><path d="M257.27,618.4c-.15,0-.26-.04-.32-.11-.06-.07-.1-.17-.11-.29l-.72-7.49c-.01-.12.02-.22.1-.3s.18-.13.32-.13h1.12c.13,0,.22.03.28.09.06.06.09.13.1.22l.46,5.3,2.75-5.25c.04-.08.11-.15.19-.23.09-.08.2-.12.34-.12h.83c.15,0,.25.04.3.12.05.08.09.16.1.23l.58,5.25,2.69-5.3c.03-.06.09-.13.16-.2.07-.07.18-.11.3-.11h1.3c.15,0,.24.05.26.14s.01.2-.04.32l-3.86,7.46c-.06.12-.14.21-.23.29s-.21.11-.36.11h-1.06c-.15,0-.26-.04-.33-.11s-.12-.17-.14-.29l-.66-5.05-2.72,5.05c-.06.12-.14.21-.24.29s-.22.11-.37.11h-1.04Z" fill="#1c2126"/><path d="M271.09,618.56c-.55,0-1.02-.09-1.41-.28-.38-.19-.69-.45-.9-.79-.22-.34-.36-.74-.42-1.21-.06-.46-.05-.97.03-1.53.04-.19.08-.37.11-.52.03-.15.07-.33.11-.52.14-.53.32-1.03.55-1.49.23-.46.51-.86.85-1.21.34-.35.73-.62,1.18-.81.45-.19.97-.29,1.56-.29.66,0,1.17.11,1.51.31.35.21.62.46.81.76l.11-.53c.02-.11.08-.2.16-.27s.18-.11.29-.11h1.26c.11,0,.19.04.26.11.06.07.09.16.06.27l-1.62,7.55c-.02.11-.08.2-.16.27-.09.07-.18.11-.29.11h-1.26c-.12,0-.21-.04-.26-.11s-.08-.17-.06-.27l.13-.59c-.32.33-.67.6-1.06.81-.38.21-.9.32-1.55.32ZM271.81,616.85c.45,0,.83-.1,1.15-.3s.58-.46.78-.78.34-.64.42-.97c.05-.19.1-.4.14-.62s.08-.42.11-.62c.06-.32.07-.63.02-.92s-.19-.54-.41-.73c-.22-.19-.55-.29-.98-.29s-.77.1-1.06.3-.54.46-.73.78-.35.67-.46,1.06c-.04.16-.08.32-.11.48s-.06.32-.08.48c-.05.38-.07.74-.04,1.06.03.32.14.58.34.78s.5.3.92.3Z" fill="#1c2126"/><path d="M278.05,618.4c-.11,0-.19-.04-.25-.11-.06-.07-.08-.17-.06-.27l1.6-7.54c.02-.12.08-.21.17-.29.09-.07.19-.11.3-.11h1.29c.11,0,.19.04.25.11s.08.17.06.29l-.14.66c.26-.34.58-.6.98-.78s.88-.27,1.44-.27h.78c.12,0,.2.04.26.11.05.07.07.16.05.27l-.24,1.15c-.02.11-.08.2-.17.27-.09.07-.19.11-.29.11h-1.25c-.51,0-.94.14-1.29.43-.35.28-.57.68-.68,1.19l-.94,4.4c-.02.11-.07.2-.16.27s-.19.11-.3.11h-1.39Z" fill="#1c2126"/><path d="M288.05,618.56c-.78,0-1.43-.15-1.95-.46-.52-.31-.87-.76-1.07-1.35-.2-.59-.23-1.29-.09-2.13.02-.11.05-.24.08-.41.03-.17.06-.3.1-.39.21-.81.54-1.51.99-2.09.45-.58.99-1.03,1.64-1.34s1.36-.47,2.14-.47c.86,0,1.55.18,2.06.54s.84.85,1.01,1.49.16,1.37,0,2.2l-.08.34c-.02.11-.08.2-.17.27-.09.08-.19.11-.31.11h-5.31c-.01.06-.02.11-.03.13-.05.38-.05.72.02,1.03.06.31.21.57.42.76s.51.29.87.29c.3,0,.56-.04.79-.13.22-.09.41-.2.55-.31.14-.12.25-.21.33-.29.13-.13.22-.21.29-.23.06-.03.15-.04.27-.04h1.39c.1,0,.17.03.22.1.05.06.07.14.05.24-.05.17-.19.38-.4.62-.21.24-.5.48-.86.72-.36.24-.79.43-1.29.58s-1.04.23-1.64.23ZM287.36,613.53h3.54l.02-.05c.1-.42.1-.78.02-1.1s-.23-.56-.46-.74c-.22-.18-.52-.26-.9-.26s-.71.09-1.02.26c-.3.18-.56.42-.76.74-.2.31-.35.68-.43,1.1l-.02.05Z" fill="#1c2126"/><path d="M1113.68,618.56c-.89,0-1.63-.15-2.22-.44s-1.05-.71-1.37-1.26c-.32-.54-.49-1.18-.52-1.9,0-.21-.02-.46-.02-.73s0-.51.02-.71c.03-.74.21-1.37.54-1.91.33-.54.79-.96,1.39-1.25.6-.29,1.32-.44,2.18-.44s1.56.15,2.16.44c.6.29,1.06.71,1.39,1.25.33.54.52,1.18.56,1.91,0,.2.02.44.02.71s0,.52-.02.73c-.04.72-.22,1.36-.54,1.9-.32.54-.77.96-1.37,1.26s-1.33.44-2.21.44ZM1113.68,616.79c.52,0,.92-.16,1.18-.48.26-.32.41-.79.44-1.42,0-.16.02-.37.02-.64s0-.48-.02-.64c-.03-.62-.18-1.09-.44-1.42-.26-.33-.65-.49-1.18-.49s-.92.16-1.18.49c-.27.32-.42.8-.45,1.42-.01.16-.02.37-.02.64s0,.48.02.64c.03.63.18,1.1.45,1.42.27.32.66.48,1.18.48Z" fill="#1c2126"/><path d="M1122.77,618.56c-.66,0-1.23-.08-1.7-.23s-.86-.34-1.15-.57c-.29-.22-.51-.45-.66-.68-.14-.23-.22-.42-.23-.58-.01-.12.03-.21.11-.29.08-.07.17-.11.26-.11h1.55s.08,0,.1.02c.03,0,.06.04.1.08.14.1.28.21.42.33.14.12.32.23.52.31.2.09.45.13.74.13.35,0,.65-.07.89-.22.24-.14.36-.35.36-.62,0-.19-.05-.35-.16-.48-.11-.13-.31-.24-.62-.35-.31-.11-.77-.22-1.38-.35-.58-.13-1.07-.3-1.47-.51-.41-.21-.71-.48-.91-.81-.2-.33-.3-.72-.3-1.18,0-.42.13-.82.39-1.2.26-.38.65-.7,1.16-.95.51-.25,1.15-.38,1.92-.38.59,0,1.1.07,1.54.22.44.14.81.33,1.11.54s.53.44.68.67c.15.23.24.43.25.6,0,.12-.02.21-.1.29-.08.08-.16.11-.26.11h-1.42c-.05,0-.1-.01-.14-.03-.04-.02-.08-.05-.11-.08-.13-.07-.26-.17-.39-.29s-.29-.22-.47-.3c-.18-.08-.42-.13-.7-.13-.34,0-.61.08-.79.23-.19.16-.28.35-.28.58,0,.15.05.29.14.42.1.13.29.25.58.35.29.11.75.22,1.37.34.72.13,1.3.32,1.73.58s.73.55.91.89c.18.34.27.7.27,1.08,0,.5-.15.95-.44,1.34-.29.39-.73.69-1.3.91s-1.28.33-2.11.33Z" fill="#1c2126"/><path d="M1131.46,618.56c-.66,0-1.23-.08-1.7-.23s-.86-.34-1.15-.57c-.29-.22-.51-.45-.66-.68-.14-.23-.22-.42-.23-.58-.01-.12.03-.21.11-.29.09-.07.17-.11.26-.11h1.55s.08,0,.1.02c.03,0,.06.04.1.08.14.1.28.21.42.33.14.12.32.23.52.31.2.09.45.13.74.13.35,0,.65-.07.89-.22.24-.14.36-.35.36-.62,0-.19-.05-.35-.16-.48-.11-.13-.31-.24-.62-.35-.31-.11-.77-.22-1.38-.35-.58-.13-1.07-.3-1.47-.51-.41-.21-.71-.48-.91-.81s-.3-.72-.3-1.18c0-.42.13-.82.39-1.2.26-.38.65-.7,1.16-.95s1.15-.38,1.92-.38c.59,0,1.1.07,1.54.22.44.14.81.33,1.11.54s.53.44.68.67c.15.23.24.43.25.6.01.12-.02.21-.1.29-.07.08-.16.11-.26.11h-1.42c-.05,0-.1-.01-.14-.03s-.08-.05-.11-.08c-.13-.07-.26-.17-.39-.29s-.29-.22-.47-.3c-.18-.08-.42-.13-.7-.13-.34,0-.61.08-.79.23-.19.16-.28.35-.28.58,0,.15.05.29.14.42.1.13.29.25.58.35.29.11.75.22,1.37.34.73.13,1.3.32,1.73.58s.73.55.91.89.27.7.27,1.08c0,.5-.15.95-.44,1.34-.29.39-.73.69-1.3.91-.58.22-1.28.33-2.11.33Z" fill="#1c2126"/><path d="M1137.17,618.4c-.12,0-.21-.04-.29-.11-.08-.07-.11-.17-.11-.29v-1.81c0-.11.04-.2.11-.28.07-.08.17-.12.29-.12h1.81c.11,0,.2.04.28.12s.12.17.12.28v1.81c0,.12-.04.21-.12.29s-.17.11-.28.11h-1.81Z" fill="#1c2126"/><path d="M1144.9,618.56c-.79,0-1.48-.14-2.07-.43-.59-.29-1.06-.71-1.4-1.26s-.53-1.21-.56-1.98c-.01-.17-.02-.39-.02-.65s0-.48.02-.65c.03-.78.21-1.44.55-1.99.34-.55.8-.97,1.4-1.26.6-.29,1.29-.43,2.08-.43.7,0,1.31.1,1.81.3.5.2.91.45,1.23.75.32.3.56.62.72.94s.25.6.26.85c.01.12-.03.21-.11.29s-.18.11-.29.11h-1.71c-.12,0-.21-.03-.26-.08-.06-.05-.12-.14-.17-.26-.14-.37-.33-.64-.56-.8s-.53-.24-.88-.24c-.48,0-.86.15-1.13.46-.27.31-.42.79-.44,1.44-.02.42-.02.79,0,1.13.02.66.17,1.14.44,1.44.27.3.65.45,1.13.45.37,0,.67-.08.9-.24.22-.16.41-.43.54-.8.05-.12.11-.2.17-.26.06-.05.15-.08.26-.08h1.71c.11,0,.2.04.29.11s.12.17.11.29c0,.18-.06.39-.16.64-.1.25-.24.5-.44.75s-.45.49-.76.71c-.31.22-.69.4-1.13.53s-.95.2-1.53.2Z" fill="#1c2126"/><path d="M1152.92,618.56c-.57,0-1.07-.11-1.52-.33-.45-.22-.81-.51-1.07-.89-.27-.38-.4-.79-.4-1.25,0-.76.31-1.36.92-1.79s1.42-.74,2.42-.9l2.1-.3v-.29c0-.42-.1-.74-.29-.96-.19-.22-.53-.34-1.01-.34-.35,0-.63.07-.84.21-.21.14-.37.32-.49.54-.09.14-.21.21-.38.21h-1.52c-.12,0-.21-.03-.27-.1-.06-.07-.09-.15-.08-.25,0-.18.07-.39.21-.64.14-.24.35-.49.64-.73.29-.24.66-.44,1.11-.6s1-.24,1.64-.24,1.25.08,1.73.24c.48.16.87.38,1.16.67.29.29.51.62.64,1,.13.38.2.79.2,1.22v4.94c0,.12-.04.21-.11.29-.08.07-.17.11-.27.11h-1.58c-.11,0-.2-.04-.27-.11-.08-.07-.11-.17-.11-.29v-.59c-.14.2-.33.39-.56.57-.24.18-.52.32-.84.42-.33.11-.71.16-1.14.16ZM1153.56,616.9c.35,0,.67-.07.94-.22.28-.15.5-.38.66-.69.16-.31.24-.7.24-1.17v-.27l-1.49.24c-.57.1-.98.24-1.25.43-.27.19-.4.43-.4.7,0,.2.06.38.18.52.12.14.28.26.48.34s.41.12.63.12Z" fill="#1c2126"/><path d="M1160.13,618.4c-.11,0-.2-.04-.28-.11-.08-.07-.12-.17-.12-.29v-7.52c0-.11.04-.2.12-.28.08-.08.17-.12.28-.12h1.57c.12,0,.21.04.29.12s.11.17.11.28v.64c.27-.33.6-.59.99-.77s.84-.27,1.34-.27h.69c.12,0,.21.04.29.11s.11.17.11.29v1.39c0,.11-.04.2-.11.27s-.17.11-.29.11h-1.39c-.48,0-.85.13-1.11.4-.26.27-.39.63-.39,1.11v4.24c0,.12-.04.21-.12.29s-.17.11-.28.11h-1.7Z" fill="#1c2126"/><path d="M1169.72,618.56c-.53,0-1.01-.09-1.42-.26s-.77-.43-1.06-.77c-.29-.34-.51-.74-.66-1.2-.15-.46-.24-.98-.27-1.54-.01-.2-.02-.39-.02-.55s0-.34.02-.54c.02-.55.11-1.06.26-1.52.15-.46.37-.86.66-1.19.28-.34.63-.6,1.06-.78.42-.19.9-.28,1.43-.28s1.03.09,1.42.28c.39.19.72.42.98.71v-3.47c0-.12.04-.21.11-.29.07-.07.17-.11.29-.11h1.65c.12,0,.21.04.29.11.08.08.11.17.11.29v10.56c0,.12-.04.21-.11.29s-.17.11-.29.11h-1.54c-.11,0-.2-.04-.27-.11-.07-.07-.11-.17-.11-.29v-.54c-.27.32-.6.58-1.01.79-.41.21-.91.31-1.52.31ZM1170.45,616.64c.39,0,.71-.09.95-.27s.42-.41.53-.69c.11-.28.17-.58.18-.9.02-.2.03-.41.03-.61s-.01-.4-.03-.59c-.01-.3-.08-.58-.2-.84-.12-.26-.3-.48-.54-.65-.23-.17-.54-.26-.93-.26-.41,0-.73.09-.96.26s-.4.41-.5.7c-.1.29-.16.6-.18.94-.02.33-.02.66,0,.99.02.34.08.66.18.95.1.29.27.52.5.7s.55.26.96.26Z" fill="#1c2126"/><path d="M1179.86,618.56c-.66,0-1.23-.08-1.7-.23s-.86-.34-1.15-.57c-.29-.22-.51-.45-.66-.68-.14-.23-.22-.42-.23-.58,0-.12.03-.21.11-.29s.17-.11.26-.11h1.55s.08,0,.1.02c.03,0,.06.04.1.08.14.1.28.21.42.33s.32.23.52.31c.2.09.45.13.74.13.35,0,.65-.07.89-.22.24-.14.36-.35.36-.62,0-.19-.05-.35-.16-.48-.11-.13-.31-.24-.62-.35s-.77-.22-1.38-.35c-.58-.13-1.07-.3-1.47-.51-.4-.21-.71-.48-.91-.81-.2-.33-.3-.72-.3-1.18,0-.42.13-.82.39-1.2.26-.38.65-.7,1.16-.95.51-.25,1.15-.38,1.92-.38.59,0,1.1.07,1.54.22.44.14.81.33,1.11.54s.53.44.68.67c.15.23.24.43.25.6.01.12-.02.21-.1.29-.07.08-.16.11-.26.11h-1.42c-.05,0-.1-.01-.14-.03-.04-.02-.08-.05-.11-.08-.13-.07-.26-.17-.39-.29-.13-.12-.29-.22-.47-.3-.18-.08-.42-.13-.71-.13-.34,0-.61.08-.79.23-.19.16-.28.35-.28.58,0,.15.05.29.14.42.1.13.29.25.58.35.29.11.75.22,1.37.34.73.13,1.3.32,1.73.58.43.26.73.55.91.89s.27.7.27,1.08c0,.5-.15.95-.44,1.34-.29.39-.73.69-1.3.91-.58.22-1.28.33-2.11.33Z" fill="#1c2126"/><polygon points="1093.31 614.96 1087.74 611.74 1082.16 614.96 1093.31 621.39 1104.46 614.96 1098.89 611.74 1093.31 614.96" fill="#b7303d" stroke="#1c2126" stroke-linejoin="round" stroke-width=".33"/><polygon points="1087.74 605.3 1087.74 611.74 1082.16 614.96 1082.16 608.52 1087.74 605.3" fill="#ea4f4b" stroke="#1c2126" stroke-linejoin="round" stroke-width=".33"/><polygon points="1087.74 605.3 1087.74 611.74 1093.31 614.96 1093.31 608.52 1087.74 605.3" fill="#ff6b60" stroke="#1c2126" stroke-linejoin="round" stroke-width=".33"/><polygon points="1098.89 605.3 1098.89 611.74 1093.31 614.96 1093.31 608.52 1098.89 605.3" fill="#ea4f4b" stroke="#1c2126" stroke-linejoin="round" stroke-width=".33"/><polygon points="1098.89 605.3 1098.89 611.74 1104.46 614.96 1104.46 608.52 1098.89 605.3" fill="#ff6b60" stroke="#1c2126" stroke-linejoin="round" stroke-width=".33"/></g></svg>