<svg xmlns="http://www.w3.org/2000/svg" width="1200" height="630" viewBox="0 0 1200 630"><rect width="1200" height="498.72" fill="#054861"/><polyline points="108.44 396.15 140.81 387.05 173.96 396.15" fill="none" stroke="#a3a7ac" stroke-linecap="round" stroke-linejoin="round" stroke-width="2"/><path d="M210.57,397.84l-45.17-6.13c-4.26,9.34-13.67,18.22-24.6,18.22s-20.33-8.88-24.59-18.22L71,397.84,32.52,465.62,71,499.85v56.81H210.57V499.85l38.52-34.23Z" fill="#fff6d0" stroke="#1c2126" stroke-linejoin="round" stroke-width="2"/><line x1="71.04" y1="499.85" x2="71.04" y2="459.82" fill="#ffdd73" stroke="#1c2126" stroke-linecap="round" stroke-linejoin="round" stroke-width="2"/><line x1="210.57" y1="499.85" x2="210.57" y2="459.82" fill="#ffdd73" stroke="#1c2126" stroke-linecap="round" stroke-linejoin="round" stroke-width="2"/><path d="M140.8,387.05V369.59a14.52,14.52,0,1,0-14.52-14.52" fill="none" stroke="#a3a7ac" stroke-linecap="round" stroke-linejoin="round" stroke-width="2"/><polyline points="223.26 396.15 255.63 387.05 288.78 396.15" fill="none" stroke="#a3a7ac" stroke-linecap="round" stroke-linejoin="round" stroke-width="2"/><path d="M325.39,397.84l-45.17-6.13c-4.25,9.34-13.66,18.22-24.59,18.22s-20.34-8.88-24.59-18.22l-45.17,6.13-38.53,67.78,38.53,34.23v56.81H325.39V499.85l38.53-34.23Z" fill="#ffdd73" stroke="#1c2126" stroke-linejoin="round" stroke-width="2"/><line x1="185.87" y1="499.85" x2="185.87" y2="459.82" fill="#ffdd73" stroke="#1c2126" stroke-linecap="round" stroke-linejoin="round" stroke-width="2"/><line x1="325.39" y1="499.85" x2="325.39" y2="459.82" fill="#ffdd73" stroke="#1c2126" stroke-linecap="round" stroke-linejoin="round" stroke-width="2"/><path d="M255.63,387.05V369.59a14.52,14.52,0,1,0-14.52-14.52" fill="none" stroke="#a3a7ac" stroke-linecap="round" stroke-linejoin="round" stroke-width="2"/><polyline points="338.09 396.15 370.46 387.05 403.61 396.15" fill="none" stroke="#a3a7ac" stroke-linecap="round" stroke-linejoin="round" stroke-width="2"/><path d="M440.22,397.84l-45.17-6.13c-4.26,9.34-13.66,18.22-24.59,18.22s-20.34-8.88-24.6-18.22l-45.17,6.13-38.52,67.78,38.52,34.23v56.81H440.22V499.85l38.52-34.23Z" fill="#ffb916" stroke="#1c2126" stroke-linejoin="round" stroke-width="2"/><line x1="300.69" y1="499.85" x2="300.69" y2="459.82" fill="#ffdd73" stroke="#1c2126" stroke-linecap="round" stroke-linejoin="round" stroke-width="2"/><line x1="440.22" y1="499.85" x2="440.22" y2="459.82" fill="#ffdd73" stroke="#1c2126" stroke-linecap="round" stroke-linejoin="round" stroke-width="2"/><path d="M370.46,387.05V369.59a14.52,14.52,0,1,0-14.53-14.52" fill="none" stroke="#a3a7ac" stroke-linecap="round" stroke-linejoin="round" stroke-width="2"/><polyline points="452.86 396.15 485.23 387.05 518.38 396.15" fill="none" stroke="#a3a7ac" stroke-linecap="round" stroke-linejoin="round" stroke-width="2"/><path d="M555,397.84l-45.17-6.13c-4.25,9.34-13.66,18.22-24.59,18.22s-20.34-8.88-24.6-18.22l-45.17,6.13-38.52,67.78,38.52,34.23v56.81H555V499.85l38.52-34.23Z" fill="#ffd3bf" stroke="#1c2126" stroke-linejoin="round" stroke-width="2"/><line x1="415.46" y1="499.85" x2="415.46" y2="459.82" fill="#ffdd73" stroke="#1c2126" stroke-linecap="round" stroke-linejoin="round" stroke-width="2"/><line x1="554.99" y1="499.85" x2="554.99" y2="459.82" fill="#ffdd73" stroke="#1c2126" stroke-linecap="round" stroke-linejoin="round" stroke-width="2"/><path d="M485.23,387.05V369.59a14.52,14.52,0,1,0-14.53-14.52" fill="none" stroke="#a3a7ac" stroke-linecap="round" stroke-linejoin="round" stroke-width="2"/><polyline points="567.69 396.15 600.05 387.05 633.2 396.15" fill="none" stroke="#a3a7ac" stroke-linecap="round" stroke-linejoin="round" stroke-width="2"/><path d="M669.82,397.84l-45.17-6.13c-4.26,9.34-13.67,18.22-24.6,18.22s-20.33-8.88-24.59-18.22l-45.17,6.13-38.52,67.78,38.52,34.23v56.81H669.82V499.85l38.52-34.23Z" fill="#ff6b60" stroke="#1c2126" stroke-linejoin="round" stroke-width="2"/><line x1="530.29" y1="499.85" x2="530.29" y2="459.82" fill="#ffdd73" stroke="#1c2126" stroke-linecap="round" stroke-linejoin="round" stroke-width="2"/><line x1="669.82" y1="499.85" x2="669.82" y2="459.82" fill="#ffdd73" stroke="#1c2126" stroke-linecap="round" stroke-linejoin="round" stroke-width="2"/><path d="M600.05,387.05V369.59a14.52,14.52,0,1,0-14.52-14.52" fill="none" stroke="#a3a7ac" stroke-linecap="round" stroke-linejoin="round" stroke-width="2"/><polyline points="682.46 396.15 714.83 387.05 747.98 396.15" fill="none" stroke="#a3a7ac" stroke-linecap="round" stroke-linejoin="round" stroke-width="2"/><path d="M784.59,397.84l-45.17-6.13c-4.26,9.34-13.66,18.22-24.59,18.22s-20.34-8.88-24.6-18.22l-45.17,6.13-38.52,67.78,38.52,34.23v56.81H784.59V499.85l38.52-34.23Z" fill="#db4648" stroke="#1c2126" stroke-linejoin="round" stroke-width="2"/><line x1="645.06" y1="499.85" x2="645.06" y2="459.82" fill="#ffdd73" stroke="#1c2126" stroke-linecap="round" stroke-linejoin="round" stroke-width="2"/><line x1="784.59" y1="499.85" x2="784.59" y2="459.82" fill="#ffdd73" stroke="#1c2126" stroke-linecap="round" stroke-linejoin="round" stroke-width="2"/><path d="M714.83,387.05V369.59a14.52,14.52,0,1,0-14.53-14.52" fill="none" stroke="#a3a7ac" stroke-linecap="round" stroke-linejoin="round" stroke-width="2"/><polyline points="797.23 396.15 829.6 387.05 862.75 396.15" fill="none" stroke="#a3a7ac" stroke-linecap="round" stroke-linejoin="round" stroke-width="2"/><path d="M899.36,397.84l-45.17-6.13c-4.25,9.34-13.66,18.22-24.59,18.22s-20.34-8.88-24.6-18.22l-45.17,6.13-38.52,67.78,38.52,34.23v56.81H899.36V499.85l38.52-34.23Z" fill="#30c8c9" stroke="#1c2126" stroke-linejoin="round" stroke-width="2"/><line x1="759.83" y1="499.85" x2="759.83" y2="459.82" fill="#ffdd73" stroke="#1c2126" stroke-linecap="round" stroke-linejoin="round" stroke-width="2"/><line x1="899.36" y1="499.85" x2="899.36" y2="459.82" fill="#ffdd73" stroke="#1c2126" stroke-linecap="round" stroke-linejoin="round" stroke-width="2"/><path d="M829.6,387.05V369.59a14.52,14.52,0,1,0-14.53-14.52" fill="none" stroke="#a3a7ac" stroke-linecap="round" stroke-linejoin="round" stroke-width="2"/><polyline points="912.06 396.15 944.42 387.05 977.57 396.15" fill="none" stroke="#a3a7ac" stroke-linecap="round" stroke-linejoin="round" stroke-width="2"/><path d="M1014.19,397.84,969,391.71c-4.26,9.34-13.67,18.22-24.6,18.22s-20.33-8.88-24.59-18.22l-45.17,6.13-38.52,67.78,38.52,34.23v56.81h139.53V499.85l38.52-34.23Z" fill="#5cebdf" stroke="#1c2126" stroke-linejoin="round" stroke-width="2"/><line x1="874.66" y1="499.85" x2="874.66" y2="459.82" fill="#ffdd73" stroke="#1c2126" stroke-linecap="round" stroke-linejoin="round" stroke-width="2"/><line x1="1014.19" y1="499.85" x2="1014.19" y2="459.82" fill="#ffdd73" stroke="#1c2126" stroke-linecap="round" stroke-linejoin="round" stroke-width="2"/><path d="M944.42,387.05V369.59a14.52,14.52,0,1,0-14.52-14.52" fill="none" stroke="#a3a7ac" stroke-linecap="round" stroke-linejoin="round" stroke-width="2"/><polyline points="1026.83 396.15 1059.19 387.05 1092.35 396.15" fill="none" stroke="#a3a7ac" stroke-linejoin="round" stroke-width="2"/><path d="M1129,397.84l-45.17-6.13c-4.26,9.34-13.66,18.22-24.59,18.22s-20.34-8.88-24.6-18.22l-45.17,6.13-38.52,67.78,38.52,34.23v56.81H1129V499.85l38.52-34.23Z" fill="#bffde7" stroke="#1c2126" stroke-linejoin="round" stroke-width="2"/><line x1="989.43" y1="499.85" x2="989.43" y2="459.82" fill="#ffdd73" stroke="#1c2126" stroke-linecap="round" stroke-linejoin="round" stroke-width="2"/><line x1="1128.96" y1="499.85" x2="1128.96" y2="459.82" fill="#ffdd73" stroke="#1c2126" stroke-linecap="round" stroke-linejoin="round" stroke-width="2"/><path d="M1059.2,387.05V369.59a14.52,14.52,0,1,0-14.53-14.52" fill="none" stroke="#a3a7ac" stroke-linecap="round" stroke-linejoin="round" stroke-width="2"/><rect y="595" width="1200" height="35" fill="#fff"/><rect y="499.19" width="1200" height="95.81" fill="#fff"/><line y1="499.19" x2="1200" y2="499.19" fill="none" stroke="#1c2126" stroke-miterlimit="10"/><line y1="595" x2="1200" y2="595" fill="none" stroke="#1c2126" stroke-miterlimit="10"/><path d="M24.24,559.45V540.69H17.85v-2.37H33.21v2.37H26.82v18.76Z" fill="#1c2126"/><path d="M44.08,559.89c-4.81,0-7.75-3.45-7.75-9.3v-3.41c0-5.85,2.94-9.3,7.75-9.3s7.74,3.45,7.74,9.3v3.41C51.82,556.44,48.88,559.89,44.08,559.89Zm5.14-9.31v-3.39c0-4.41-1.94-6.87-5.14-6.87s-5.15,2.46-5.15,6.87v3.39c0,4.41,1.94,6.87,5.15,6.87S49.22,555,49.22,550.58Z" fill="#1c2126"/><path d="M60,545.58a2.65,2.65,0,1,1,2.65,2.71A2.7,2.7,0,0,1,60,545.58Zm0,11.25a2.65,2.65,0,1,1,2.65,2.71A2.68,2.68,0,0,1,60,556.83Z" fill="#1c2126"/><line x1="582.03" y1="498.72" x2="582.03" y2="595" fill="none" stroke="#1c2126" stroke-miterlimit="10"/><path d="M1129.73,614.6a4.72,4.72,0,1,1-4.71-4.69A4.43,4.43,0,0,1,1129.73,614.6Zm-6.82,0A2.12,2.12,0,0,0,1125,617c1.3,0,2.1-.94,2.1-2.41s-.8-2.42-2.1-2.42S1122.91,613.12,1122.91,614.6Z" fill="#1c2126"/><path d="M1138.54,612.93H1136c0-.57-.52-1-1.37-1s-1.25.3-1.25.72.19.62,1.2.8l1.2.19c2.3.39,2.91,1.43,2.91,2.79,0,1.74-1.39,2.85-3.92,2.85-2.72,0-4.08-1.3-4.08-3.09h2.48c0,.65.53,1.1,1.7,1.1.88,0,1.33-.3,1.33-.75s-.26-.72-1.3-.9l-1.25-.21c-2.11-.33-2.77-1.39-2.77-2.67,0-1.58,1.3-2.8,3.78-2.8S1138.54,611.24,1138.54,612.93Z" fill="#1c2126"/><path d="M1147.49,612.93H1145c0-.57-.53-1-1.38-1s-1.25.3-1.25.72.2.62,1.2.8l1.21.19c2.3.39,2.91,1.43,2.91,2.79,0,1.74-1.39,2.85-3.92,2.85-2.72,0-4.09-1.3-4.09-3.09h2.49c0,.65.52,1.1,1.69,1.1.88,0,1.33-.3,1.33-.75s-.25-.72-1.3-.9l-1.24-.21c-2.12-.33-2.77-1.39-2.77-2.67,0-1.58,1.29-2.8,3.77-2.8S1147.49,611.24,1147.49,612.93Z" fill="#1c2126"/><path d="M1152,617.64a1.6,1.6,0,1,1-1.6-1.62A1.55,1.55,0,0,1,1152,617.64Z" fill="#1c2126"/><path d="M1156.27,606.34v12.72h-2.5V606.34Z" fill="#1c2126"/><path d="M1167,614.6a4.71,4.71,0,1,1-4.7-4.69A4.42,4.42,0,0,1,1167,614.6Zm-6.81,0a2.12,2.12,0,0,0,2.11,2.41c1.29,0,2.1-.94,2.1-2.41s-.81-2.42-2.1-2.42S1160.16,613.12,1160.16,614.6Z" fill="#1c2126"/><path d="M1176.59,610.12l-3.26,8.94h-3l-3.28-8.94h2.64l2.16,6.32,2.16-6.32Z" fill="#1c2126"/><path d="M1186.06,615.33h-6.61a1.92,1.92,0,0,0,2,1.81,1.82,1.82,0,0,0,1.75-.8h2.66a5,5,0,1,1,.17-1.77Zm-6.58-1.71h3.94a1.87,1.87,0,0,0-2-1.58A2,2,0,0,0,1179.48,613.62Z" fill="#1c2126"/><path d="M605.51,559.45V538.32H618v2.37H608.1v7.25h9v2.3h-9v9.21Z" fill="#1c2126"/><path d="M625.54,551v8.42H623V538.32h7.09c4.19,0,6.81,2.43,6.81,6.35A5.91,5.91,0,0,1,633,550.5l4.3,9h-2.91L630.41,551Zm0-2.18h4.19c2.92,0,4.56-1.48,4.56-4.12s-1.61-4.11-4.44-4.11h-4.31Z" fill="#1c2126"/><path d="M648.15,559.89c-4.81,0-7.75-3.45-7.75-9.3v-3.41c0-5.85,2.94-9.3,7.75-9.3s7.75,3.45,7.75,9.3v3.41C655.9,556.44,653,559.89,648.15,559.89Zm5.14-9.31v-3.39c0-4.41-1.93-6.87-5.14-6.87s-5.14,2.46-5.14,6.87v3.39c0,4.41,1.93,6.87,5.14,6.87S653.29,555,653.29,550.58Z" fill="#1c2126"/><path d="M661.38,559.45h-2.3V538.32H662l4.64,13.12h.19l4.62-13.12h2.9v21.13H672v-8.11l.13-8.56H672l-4.25,11.71h-2l-4.25-11.71h-.19l.14,8.56Z" fill="#1c2126"/><path d="M682.59,545.58a2.65,2.65,0,1,1,2.65,2.71A2.7,2.7,0,0,1,682.59,545.58Zm0,11.25a2.65,2.65,0,1,1,2.65,2.71A2.68,2.68,0,0,1,682.59,556.83Z" fill="#1c2126"/><path d="M27.75,606.92v12.14H25v-2.13l-4.7-5.41v7.54H17.63V606.92H20L25,612.77v-5.85Z" fill="#1c2126"/><path d="M38.37,615.33H31.76a1.92,1.92,0,0,0,2,1.81,1.81,1.81,0,0,0,1.74-.8H38.2a4.35,4.35,0,0,1-4.44,2.88,4.63,4.63,0,1,1,0-9.26,4.32,4.32,0,0,1,4.62,4.61Zm-6.58-1.71h3.94a1.87,1.87,0,0,0-2-1.58A2,2,0,0,0,31.79,613.62Z" fill="#1c2126"/><path d="M44.93,612.23H43v6.83H40.5v-6.83H38.82v-2.11H40.5V607.3H43v2.82h1.93Z" fill="#1c2126"/><path d="M48.9,606.34v12.72H46.4V606.34Z" fill="#1c2126"/><path d="M53.62,607.59a1.5,1.5,0,1,1-3,0,1.5,1.5,0,1,1,3,0Zm-.24,2.32v9.15h-2.5v-9.15a2.06,2.06,0,0,0,1.25.37A2,2,0,0,0,53.38,609.91Z" fill="#1c2126"/><path d="M58.55,609v1.09h1.87v2.11H58.55v6.83h-2.5v-6.83H54.61v-2.11h1.44V609a2.62,2.62,0,0,1,2.88-2.83h1.75v1.94H59.44A.78.78,0,0,0,58.55,609Z" fill="#1c2126"/><path d="M70.71,610.12l-5,11.89H63.33l1.38-3.28-3.49-8.61h2.51L66,615.69l2.32-5.57Z" fill="#1c2126"/><path d="M109.4,613c0,3.92-2.34,6.22-5.8,6.22s-5.79-2.3-5.79-6.22,2.33-6.25,5.79-6.25S109.4,609.08,109.4,613Zm-8.79,0c0,2.35,1.3,3.66,3,3.66s3-1.31,3-3.66-1.32-3.67-3-3.67S100.61,610.63,100.61,613Z" fill="#1c2126"/><path d="M120.32,610.53h-2.8c0-.89-.67-1.52-1.85-1.52s-1.7.55-1.7,1.23.38,1,1.49,1.3l1.37.32c2.64.59,3.73,1.73,3.73,3.73s-1.6,3.63-4.73,3.63-4.9-1.61-4.9-4h2.8a1.88,1.88,0,0,0,2.11,1.84c1.27,0,1.92-.63,1.92-1.44s-.38-1.09-1.57-1.35l-1.32-.27c-2.77-.56-3.72-1.87-3.72-3.73,0-2.06,1.6-3.54,4.58-3.54S120.32,608.29,120.32,610.53Z" fill="#1c2126"/><path d="M131.38,610.53h-2.8c0-.89-.67-1.52-1.86-1.52-1,0-1.69.55-1.69,1.23s.38,1,1.48,1.3l1.38.32c2.64.59,3.73,1.73,3.73,3.73s-1.6,3.63-4.74,3.63-4.9-1.61-4.9-4h2.81a1.88,1.88,0,0,0,2.11,1.84c1.26,0,1.92-.63,1.92-1.44s-.39-1.09-1.57-1.35l-1.33-.27c-2.77-.56-3.71-1.87-3.71-3.73,0-2.06,1.6-3.54,4.58-3.54S131.38,608.29,131.38,610.53Z" fill="#1c2126"/><path d="M91.16,610.11a3.62,3.62,0,0,0-1-1.22,3.91,3.91,0,0,0-2.49-1.14,3.62,3.62,0,0,0-2.51,1.37,8,8,0,0,0-1.41,2.21,6.53,6.53,0,0,0-2.39-2.73,4.09,4.09,0,0,0-3.58-.35,3,3,0,0,0-1.82,3,5,5,0,0,0,2,2.88q3.32,3,6.72,5.87l5-5.64C90.67,613.14,91.8,611.56,91.16,610.11Z" fill="#ff6b60" stroke="#ff6b60" stroke-linejoin="round"/><path d="M200.7,159.38,205.86,127l2.19,11.08-23.4-46h23l11.56,25h-3.91L235,92h23.69l-38.12,47,5.92-12-5.15,32.39Z" fill="#fff"/><path d="M248.76,123.74A41.65,41.65,0,0,1,255.54,106a33.9,33.9,0,0,1,13.14-11.22,40.92,40.92,0,0,1,18.1-3.87q11.85,0,19.35,4.82a25.93,25.93,0,0,1,10.55,13.14A36.32,36.32,0,0,1,318,127.56a41.55,41.55,0,0,1-6.78,17.77,34.22,34.22,0,0,1-13.14,11.28,40.81,40.81,0,0,1-18.2,3.91q-11.75,0-19.25-4.87a25.86,25.86,0,0,1-10.51-13.23A37.21,37.21,0,0,1,248.76,123.74Zm21.4,1a26.72,26.72,0,0,0,0,10.22,10.62,10.62,0,0,0,3.92,6.35,13.74,13.74,0,0,0,17.67-2.48,25.25,25.25,0,0,0,4.83-12.18,25.81,25.81,0,0,0-.09-10.18,10.84,10.84,0,0,0-4-6.3A12.45,12.45,0,0,0,285,108q-6.49,0-10,4.54C272.58,115.54,271,119.6,270.16,124.7Z" fill="#fff"/><path d="M354.42,160.52a37.09,37.09,0,0,1-16.34-3.29A19.84,19.84,0,0,1,328.29,147q-3-6.93-1.29-17.73L332.92,92h20.64l-6.11,38.7q-1,6.1,1.09,9.41c1.37,2.19,4.07,3.29,8.08,3.29q5.44,0,8.26-3.34t3.78-9.75L374.77,92H395l-6.21,39a45,45,0,0,1-5.49,16.24,25.08,25.08,0,0,1-11,9.94Q365.21,160.52,354.42,160.52Z" fill="#fff"/><path d="M407.83,127.75,401.52,121a37.64,37.64,0,0,0,6.4-6.59,20,20,0,0,0,3.06-7.45l3.44,4.87H400.47L403.62,92h20.16l-2.2,13.76a36.11,36.11,0,0,1-2.14,8.07,27.1,27.1,0,0,1-4.21,7A42.2,42.2,0,0,1,407.83,127.75Z" fill="#fff"/><path d="M446,159.38,425.69,92h21.5L460,140.17h-6L482,92h22l-41.56,67.36Z" fill="#fff"/><path d="M496.2,159.38,506.9,92h50l-2.49,15.67H524.1l-1.53,9.65h28L548.08,133h-28l-1.72,10.7h30.29l-2.48,15.67Z" fill="#fff"/><path d="M620.21,160.52q-13.19,0-21.17-4.63a24.12,24.12,0,0,1-11-12.85q-3-8.22-1.39-18.82a38.56,38.56,0,0,1,7.55-18.1,37.54,37.54,0,0,1,14.9-11.33,51.65,51.65,0,0,1,20.64-3.91,52.62,52.62,0,0,1,12.75,1.38,32.1,32.1,0,0,1,9,3.58l-6.68,15.77a39.9,39.9,0,0,0-5-2,26.79,26.79,0,0,0-4.87-1,53.19,53.19,0,0,0-5.88-.29q-9.36,0-14.52,4.39t-6.4,12.42q-1.33,8.61,2,13.43t12.66,4.82A40.11,40.11,0,0,0,629,143a64.51,64.51,0,0,0,6.49-1.44l-5.63,6.88,2.19-13.66h-12.9l2.2-14.14H651l-5.45,34.49a44.09,44.09,0,0,1-8,3,68.2,68.2,0,0,1-8.79,1.81A61,61,0,0,1,620.21,160.52Z" fill="#fff"/><path d="M659,123.74A41.79,41.79,0,0,1,665.78,106a33.94,33.94,0,0,1,13.13-11.22A41,41,0,0,1,697,90.88q11.85,0,19.35,4.82a25.87,25.87,0,0,1,10.55,13.14,36.32,36.32,0,0,1,1.34,18.72,41.55,41.55,0,0,1-6.78,17.77,34.22,34.22,0,0,1-13.14,11.28,40.78,40.78,0,0,1-18.2,3.91q-11.75,0-19.25-4.87a25.86,25.86,0,0,1-10.51-13.23A37.32,37.32,0,0,1,659,123.74Zm21.4,1a26.7,26.7,0,0,0,.05,10.22,10.62,10.62,0,0,0,3.92,6.35A13.76,13.76,0,0,0,702,138.79a25.35,25.35,0,0,0,4.82-12.18,25.6,25.6,0,0,0-.1-10.18,10.78,10.78,0,0,0-4-6.3,12.45,12.45,0,0,0-7.6-2.15q-6.5,0-10,4.54T680.39,124.7Z" fill="#fff"/><path d="M744,159.38l8-50.73H732.56L735.23,92h59.62l-2.67,16.63H772.69l-8,50.73Z" fill="#fff"/><path d="M834.4,159.38l8-50.73H822.94L825.61,92h59.62l-2.68,16.63H863.06l-8,50.73Z" fill="#fff"/><path d="M881.22,159.38,891.92,92h20.63l-4,24.84h23l4-24.84h20.63l-10.7,67.36H924.88l4.11-25.7H906l-4.11,25.7Z" fill="#fff"/><path d="M956.6,159.38,967.29,92h50l-2.48,15.67H984.49L983,117.34h28L1008.47,133h-28l-1.72,10.7h30.29l-2.49,15.67Z" fill="#fff"/><path d="M274.94,263.54l10.7-67.36h33.53q12,0,17.53,4.87t4.16,13.47a16.76,16.76,0,0,1-4.78,9.32,20.64,20.64,0,0,1-10.22,5.68l.19-1.62q6.88,1.44,10,6.07t2.06,11.22a19.47,19.47,0,0,1-8.31,13.23q-7.08,5.11-18.44,5.12ZM297,248.63h13.28q4.2,0,6.21-1.38a5.67,5.67,0,0,0,2.38-4.06,6.17,6.17,0,0,0-.28-3.68,4.22,4.22,0,0,0-2.39-2.06,13.45,13.45,0,0,0-4.68-.66H298.82Zm4.2-26.75h11.18q4.2,0,6.11-1.24a5.18,5.18,0,0,0,2.29-3.82c.32-2.1-.06-3.59-1.14-4.44s-3.12-1.3-6.11-1.3H302.93Z" fill="#fff"/><path d="M342.58,263.54l10.7-67.36h50l-2.48,15.67H370.47L369,221.5h28l-2.48,15.67h-28l-1.72,10.7H395l-2.49,15.67Z" fill="#fff"/><path d="M426.84,264.68A63.3,63.3,0,0,1,412.37,263a39,39,0,0,1-11.61-4.44L407,242.71a55.58,55.58,0,0,0,6.35,2.53,59.09,59.09,0,0,0,7.55,2,41.48,41.48,0,0,0,7.88.76c3.76,0,6.34-.39,7.74-1.19a4.29,4.29,0,0,0,2.39-3,3.29,3.29,0,0,0-.72-2.63c-.6-.73-1.86-1.25-3.77-1.57l-11.75-2.11q-8.31-1.51-12.95-6.92t-3.29-13.81a23,23,0,0,1,5.39-11.7A27.23,27.23,0,0,1,423,197.61,45.73,45.73,0,0,1,439,195a52.48,52.48,0,0,1,12.42,1.48,24.93,24.93,0,0,1,9.64,4.25l-6.49,15.47a33.94,33.94,0,0,0-7.69-3.2,36.15,36.15,0,0,0-10.08-1.29,19.08,19.08,0,0,0-7.31,1.1,4.4,4.4,0,0,0-2.91,3.3,3.46,3.46,0,0,0,.76,2.58q1,1.34,4.11,1.91l11.56,2q8.79,1.53,13.13,6.87t3,13.67a22.24,22.24,0,0,1-5,11.17,26.7,26.7,0,0,1-10.94,7.6A44.24,44.24,0,0,1,426.84,264.68Z" fill="#fff"/><path d="M478.81,263.54l8-50.74H467.35L470,196.18h59.61L527,212.8H507.48l-8,50.74Z" fill="#fff"/><rect x="553.52" y="179.82" width="407.46" height="100.97" rx="9.85" fill="#1c2126" opacity="0.3"/><path d="M602.39,233.86l-.12.7,23.28,12.93-1.6,9.65-31.84-19.53,1.33-7.93,38.75-19.53-1.8,10.74Z" fill="#fff"/><path d="M661.53,215c9.49,0,15.86,4.61,16.09,11.64a8.62,8.62,0,0,1-.08,1.21h-8.67v-.23c-.31-3.52-3.16-5.55-7.73-5.55-4.77,0-8,2.19-8,5.35,0,2.39,1.76,4,5.82,5.28l5.7,1.83c7.5,2.39,10.67,5.78,10.67,11.29,0,8.17-7.39,13.83-18.09,13.83-10.31,0-17.31-4.84-17.5-12.11a5.9,5.9,0,0,1,.08-.9h8.9v.2c.39,3.55,3.68,5.7,8.79,5.7s8.4-2.15,8.4-5.55c0-2.42-1.72-3.94-5.9-5.31l-5.74-1.87c-7-2.31-10.19-5.86-10.19-11.25C644.11,220.38,651.14,215,661.53,215Z" fill="#fff"/><path d="M715.16,204l-2.11,12.22h16.52l-1.28,7.35H712l-4,21.56a8.41,8.41,0,0,0-.15,1.6c0,3.16,2.1,4.73,6.56,4.73,1.72,0,7.85,0,8.55-.12l-1.25,7.26c-.62.12-9.1.24-10.47.24-8.32,0-12.69-3.4-12.69-9.88a21.1,21.1,0,0,1,.39-3.87l3.91-21.52H691.61l1.28-7.35h11.25L706.25,204Z" fill="#fff"/><path d="M735.86,274l1.29-7.54a18.53,18.53,0,0,0,2.54.11c4.06,0,6.33-1.36,8.48-5.62l.94-1.92-7.86-43.08h9.69l4.53,34.14h.59l16.4-34.14h10l-23,43.75c-5.74,11-10.43,14.37-19.77,14.37C738.09,274.05,736.25,274,735.86,274Z" fill="#fff"/><path d="M786.21,258.7l1.25-7.26h14l8-44.77H795.9l1.25-7.26h22.62l-9.22,52h13.32l-1.25,7.26Z" fill="#fff"/><path d="M855.67,259.56c-10.71,0-17.35-6.33-17.35-16.56a37.6,37.6,0,0,1,.63-6.21l.9-5.12c1.72-10.19,9.49-16.6,20.15-16.6,10.28,0,17.39,6.91,16.76,16.25a34.17,34.17,0,0,1-.43,4.3l-.58,3.9H847.43a27.1,27.1,0,0,0-.39,3c-.43,5.94,3.16,9.8,9.1,9.8,4.41,0,7.93-2,8.94-5.23h9C872.78,254.44,865.24,259.56,855.67,259.56Zm-6.92-28.28c0,.2-.35,1.91-.39,2.15h19.53a17.66,17.66,0,0,0,.24-2.15c.51-5.35-3-9.06-8.59-9.06S850,225.58,848.75,231.28Z" fill="#fff"/><path d="M915.2,233.47l.08-.74L892,219.8l1.64-9.65,31.79,19.53-1.32,7.93-38.75,19.53,1.79-10.74Z" fill="#fff"/></svg>