<?xml version="1.0" encoding="UTF-8"?><svg xmlns="http://www.w3.org/2000/svg" viewBox="0 0 1200 630"><g id="b"><rect width="1200" height="498.72" fill="#054861"/></g><g id="d"><polyline points="108.44 396.15 140.8 387.05 173.95 396.15" fill="none" stroke="#a3a7ac" stroke-linecap="round" stroke-linejoin="round" stroke-width="2"/><path d="M210.57,397.84l-45.17-6.13c-4.26,9.34-13.66,18.22-24.59,18.22s-20.34-8.88-24.59-18.22l-45.17,6.13-38.52,67.78,38.52,34.24v56.8h139.53v-56.8l38.52-34.24-38.52-67.78Z" fill="#fff6d0" stroke="#1c2126" stroke-linejoin="round" stroke-width="2"/><line x1="71.04" y1="499.85" x2="71.04" y2="459.82" fill="#ffdd73" stroke="#1c2126" stroke-linecap="round" stroke-linejoin="round" stroke-width="2"/><line x1="210.57" y1="499.85" x2="210.57" y2="459.82" fill="#ffdd73" stroke="#1c2126" stroke-linecap="round" stroke-linejoin="round" stroke-width="2"/><path d="M140.8,387.05v-17.46c8.02,0,14.52-6.5,14.52-14.52s-6.5-14.52-14.52-14.52-14.52,6.5-14.52,14.52" fill="none" stroke="#a3a7ac" stroke-linecap="round" stroke-linejoin="round" stroke-width="2"/><polyline points="223.26 396.15 255.63 387.05 288.78 396.15" fill="none" stroke="#a3a7ac" stroke-linecap="round" stroke-linejoin="round" stroke-width="2"/><path d="M325.39,397.84l-45.17-6.13c-4.26,9.34-13.66,18.22-24.59,18.22s-20.34-8.88-24.59-18.22l-45.17,6.13-38.52,67.78,38.52,34.24v56.8h139.53v-56.8l38.52-34.24-38.52-67.78Z" fill="#ffdd73" stroke="#1c2126" stroke-linejoin="round" stroke-width="2"/><line x1="185.87" y1="499.85" x2="185.87" y2="459.82" fill="#ffdd73" stroke="#1c2126" stroke-linecap="round" stroke-linejoin="round" stroke-width="2"/><line x1="325.39" y1="499.85" x2="325.39" y2="459.82" fill="#ffdd73" stroke="#1c2126" stroke-linecap="round" stroke-linejoin="round" stroke-width="2"/><path d="M255.63,387.05v-17.46c8.02,0,14.52-6.5,14.52-14.52s-6.5-14.52-14.52-14.52-14.52,6.5-14.52,14.52" fill="none" stroke="#a3a7ac" stroke-linecap="round" stroke-linejoin="round" stroke-width="2"/><polyline points="338.09 396.15 370.46 387.05 403.61 396.15" fill="none" stroke="#a3a7ac" stroke-linecap="round" stroke-linejoin="round" stroke-width="2"/><path d="M440.22,397.84l-45.17-6.13c-4.26,9.34-13.66,18.22-24.59,18.22s-20.34-8.88-24.59-18.22l-45.17,6.13-38.52,67.78,38.52,34.24v56.8h139.53v-56.8l38.52-34.24-38.52-67.78Z" fill="#ffb916" stroke="#1c2126" stroke-linejoin="round" stroke-width="2"/><line x1="300.69" y1="499.85" x2="300.69" y2="459.82" fill="#ffdd73" stroke="#1c2126" stroke-linecap="round" stroke-linejoin="round" stroke-width="2"/><line x1="440.22" y1="499.85" x2="440.22" y2="459.82" fill="#ffdd73" stroke="#1c2126" stroke-linecap="round" stroke-linejoin="round" stroke-width="2"/><path d="M370.46,387.05v-17.46c8.02,0,14.52-6.5,14.52-14.52s-6.5-14.52-14.52-14.52-14.52,6.5-14.52,14.52" fill="none" stroke="#a3a7ac" stroke-linecap="round" stroke-linejoin="round" stroke-width="2"/><polyline points="452.86 396.15 485.23 387.05 518.38 396.15" fill="none" stroke="#a3a7ac" stroke-linecap="round" stroke-linejoin="round" stroke-width="2"/><path d="M554.99,397.84l-45.17-6.13c-4.26,9.34-13.66,18.22-24.59,18.22s-20.34-8.88-24.59-18.22l-45.17,6.13-38.52,67.78,38.52,34.24v56.8h139.53v-56.8l38.52-34.24-38.52-67.78Z" fill="#ffd3bf" stroke="#1c2126" stroke-linejoin="round" stroke-width="2"/><line x1="415.46" y1="499.85" x2="415.46" y2="459.82" fill="#ffdd73" stroke="#1c2126" stroke-linecap="round" stroke-linejoin="round" stroke-width="2"/><line x1="554.99" y1="499.85" x2="554.99" y2="459.82" fill="#ffdd73" stroke="#1c2126" stroke-linecap="round" stroke-linejoin="round" stroke-width="2"/><path d="M485.23,387.05v-17.46c8.02,0,14.52-6.5,14.52-14.52s-6.5-14.52-14.52-14.52-14.52,6.5-14.52,14.52" fill="none" stroke="#a3a7ac" stroke-linecap="round" stroke-linejoin="round" stroke-width="2"/><polyline points="567.69 396.15 600.05 387.05 633.2 396.15" fill="none" stroke="#a3a7ac" stroke-linecap="round" stroke-linejoin="round" stroke-width="2"/><path d="M669.82,397.84l-45.17-6.13c-4.26,9.34-13.66,18.22-24.59,18.22s-20.34-8.88-24.59-18.22l-45.17,6.13-38.52,67.78,38.52,34.24v56.8h139.53v-56.8l38.52-34.24-38.52-67.78Z" fill="#ff6b60" stroke="#1c2126" stroke-linejoin="round" stroke-width="2"/><line x1="530.29" y1="499.85" x2="530.29" y2="459.82" fill="#ffdd73" stroke="#1c2126" stroke-linecap="round" stroke-linejoin="round" stroke-width="2"/><line x1="669.82" y1="499.85" x2="669.82" y2="459.82" fill="#ffdd73" stroke="#1c2126" stroke-linecap="round" stroke-linejoin="round" stroke-width="2"/><path d="M600.05,387.05v-17.46c8.02,0,14.52-6.5,14.52-14.52s-6.5-14.52-14.52-14.52-14.52,6.5-14.52,14.52" fill="none" stroke="#a3a7ac" stroke-linecap="round" stroke-linejoin="round" stroke-width="2"/><polyline points="682.46 396.15 714.83 387.05 747.98 396.15" fill="none" stroke="#a3a7ac" stroke-linecap="round" stroke-linejoin="round" stroke-width="2"/><path d="M784.59,397.84l-45.17-6.13c-4.26,9.34-13.66,18.22-24.59,18.22s-20.34-8.88-24.59-18.22l-45.17,6.13-38.52,67.78,38.52,34.24v56.8h139.53v-56.8l38.52-34.24-38.52-67.78Z" fill="#db4648" stroke="#1c2126" stroke-linejoin="round" stroke-width="2"/><line x1="645.06" y1="499.85" x2="645.06" y2="459.82" fill="#ffdd73" stroke="#1c2126" stroke-linecap="round" stroke-linejoin="round" stroke-width="2"/><line x1="784.59" y1="499.85" x2="784.59" y2="459.82" fill="#ffdd73" stroke="#1c2126" stroke-linecap="round" stroke-linejoin="round" stroke-width="2"/><path d="M714.83,387.05v-17.46c8.02,0,14.52-6.5,14.52-14.52s-6.5-14.52-14.52-14.52-14.52,6.5-14.52,14.52" fill="none" stroke="#a3a7ac" stroke-linecap="round" stroke-linejoin="round" stroke-width="2"/><polyline points="797.23 396.15 829.6 387.05 862.75 396.15" fill="none" stroke="#a3a7ac" stroke-linecap="round" stroke-linejoin="round" stroke-width="2"/><path d="M899.36,397.84l-45.17-6.13c-4.26,9.34-13.66,18.22-24.59,18.22s-20.34-8.88-24.59-18.22l-45.17,6.13-38.52,67.78,38.52,34.24v56.8h139.53v-56.8l38.52-34.24-38.52-67.78Z" fill="#30c8c9" stroke="#1c2126" stroke-linejoin="round" stroke-width="2"/><line x1="759.83" y1="499.85" x2="759.83" y2="459.82" fill="#ffdd73" stroke="#1c2126" stroke-linecap="round" stroke-linejoin="round" stroke-width="2"/><line x1="899.36" y1="499.85" x2="899.36" y2="459.82" fill="#ffdd73" stroke="#1c2126" stroke-linecap="round" stroke-linejoin="round" stroke-width="2"/><path d="M829.6,387.05v-17.46c8.02,0,14.52-6.5,14.52-14.52s-6.5-14.52-14.52-14.52-14.52,6.5-14.52,14.52" fill="none" stroke="#a3a7ac" stroke-linecap="round" stroke-linejoin="round" stroke-width="2"/><polyline points="912.06 396.15 944.42 387.05 977.57 396.15" fill="none" stroke="#a3a7ac" stroke-linecap="round" stroke-linejoin="round" stroke-width="2"/><path d="M1014.19,397.84l-45.17-6.13c-4.26,9.34-13.66,18.22-24.59,18.22s-20.34-8.88-24.59-18.22l-45.17,6.13-38.52,67.78,38.52,34.24v56.8h139.53v-56.8l38.52-34.24-38.52-67.78Z" fill="#5cebdf" stroke="#1c2126" stroke-linejoin="round" stroke-width="2"/><line x1="874.66" y1="499.85" x2="874.66" y2="459.82" fill="#ffdd73" stroke="#1c2126" stroke-linecap="round" stroke-linejoin="round" stroke-width="2"/><line x1="1014.19" y1="499.85" x2="1014.19" y2="459.82" fill="#ffdd73" stroke="#1c2126" stroke-linecap="round" stroke-linejoin="round" stroke-width="2"/><path d="M944.42,387.05v-17.46c8.02,0,14.52-6.5,14.52-14.52s-6.5-14.52-14.52-14.52-14.52,6.5-14.52,14.52" fill="none" stroke="#a3a7ac" stroke-linecap="round" stroke-linejoin="round" stroke-width="2"/><polyline points="1026.83 396.15 1059.2 387.05 1092.35 396.15" fill="none" stroke="#a3a7ac" stroke-linejoin="round" stroke-width="2"/><path d="M1128.96,397.84l-45.17-6.13c-4.26,9.34-13.66,18.22-24.59,18.22s-20.34-8.88-24.59-18.22l-45.17,6.13-38.52,67.78,38.52,34.24v56.8h139.53v-56.8l38.52-34.24-38.52-67.78Z" fill="#bffde7" stroke="#1c2126" stroke-linejoin="round" stroke-width="2"/><line x1="989.43" y1="499.85" x2="989.43" y2="459.82" fill="#ffdd73" stroke="#1c2126" stroke-linecap="round" stroke-linejoin="round" stroke-width="2"/><line x1="1128.96" y1="499.85" x2="1128.96" y2="459.82" fill="#ffdd73" stroke="#1c2126" stroke-linecap="round" stroke-linejoin="round" stroke-width="2"/><path d="M1059.2,387.05v-17.46c8.02,0,14.52-6.5,14.52-14.52s-6.5-14.52-14.52-14.52-14.52,6.5-14.52,14.52" fill="none" stroke="#a3a7ac" stroke-linecap="round" stroke-linejoin="round" stroke-width="2"/><rect x="173.63" y="183.32" width="4.52" height="0" fill="none"/><path d="M200.7,159.38l5.16-32.39,2.2,11.08-23.41-46.05h23.03l11.56,25.03h-3.92l19.68-25.03h23.69l-38.12,47.01,5.92-12.04-5.16,32.39h-20.64Z" fill="#fff"/><path d="M248.76,123.74c1.08-6.94,3.34-12.87,6.78-17.77,3.44-4.9,7.82-8.65,13.14-11.23,5.32-2.58,11.35-3.87,18.1-3.87,7.9,0,14.35,1.61,19.35,4.82,5,3.22,8.52,7.6,10.56,13.14,2.04,5.54,2.48,11.78,1.34,18.73-1.08,6.94-3.34,12.87-6.78,17.77-3.44,4.91-7.82,8.66-13.14,11.27-5.32,2.61-11.39,3.92-18.2,3.92-7.83,0-14.25-1.62-19.25-4.87-5-3.25-8.5-7.66-10.51-13.23-2.01-5.57-2.47-11.8-1.38-18.68ZM270.16,124.7c-.64,4.01-.62,7.42.05,10.22.67,2.8,1.97,4.92,3.92,6.35,1.94,1.43,4.44,2.15,7.5,2.15,4.33,0,7.72-1.54,10.17-4.63,2.45-3.09,4.06-7.15,4.83-12.18.63-4.01.6-7.4-.1-10.17-.7-2.77-2.02-4.87-3.96-6.31-1.94-1.43-4.48-2.15-7.6-2.15-4.33,0-7.68,1.51-10.03,4.54-2.36,3.03-3.95,7.09-4.78,12.18Z" fill="#fff"/><path d="M354.42,160.52c-6.37,0-11.81-1.1-16.34-3.3-4.52-2.2-7.79-5.6-9.79-10.22-2.01-4.62-2.44-10.52-1.29-17.72l5.92-37.26h20.64l-6.12,38.69c-.64,4.08-.27,7.21,1.1,9.41,1.37,2.2,4.06,3.3,8.07,3.3,3.63,0,6.38-1.11,8.26-3.34,1.88-2.23,3.14-5.48,3.78-9.75l6.11-38.31h20.25l-6.21,38.98c-1.02,6.43-2.85,11.85-5.49,16.24-2.64,4.4-6.32,7.71-11.04,9.94s-10.67,3.34-17.87,3.34Z" fill="#fff"/><path d="M407.83,127.75l-6.3-6.78c2.87-2.42,5-4.62,6.4-6.59,1.4-1.97,2.42-4.46,3.06-7.45l3.44,4.87h-13.95l3.15-19.78h20.16l-2.2,13.76c-.45,2.93-1.16,5.62-2.15,8.07-.99,2.45-2.39,4.79-4.21,7.02-1.81,2.23-4.28,4.52-7.4,6.88Z" fill="#fff"/><path d="M445.95,159.38l-20.26-67.36h21.5l12.8,48.15h-6.02l27.99-48.15h21.97l-41.56,67.36h-16.43Z" fill="#fff"/><path d="M496.2,159.38l10.7-67.36h49.97l-2.48,15.67h-30.29l-1.53,9.65h27.99l-2.48,15.67h-27.99l-1.72,10.7h30.29l-2.48,15.67h-49.97Z" fill="#fff"/><path d="M620.21,160.52c-8.79,0-15.84-1.54-21.16-4.63-5.32-3.09-8.98-7.37-10.99-12.85-2.01-5.48-2.47-11.75-1.38-18.82,1.15-7.13,3.66-13.17,7.55-18.1,3.88-4.94,8.85-8.71,14.9-11.32,6.05-2.61,12.93-3.92,20.64-3.92,4.84,0,9.09.46,12.75,1.38,3.66.92,6.67,2.12,9.03,3.58l-6.69,15.76c-1.79-.83-3.46-1.48-5.02-1.96-1.56-.48-3.19-.81-4.87-1-1.69-.19-3.65-.29-5.88-.29-6.24,0-11.08,1.47-14.52,4.39-3.44,2.93-5.57,7.07-6.4,12.42-.89,5.73-.24,10.21,1.96,13.42,2.2,3.22,6.42,4.82,12.66,4.82,2.16,0,4.23-.16,6.21-.48,1.97-.32,4.14-.8,6.5-1.43l-5.64,6.88,2.2-13.66h-12.9l2.2-14.14h29.62l-5.45,34.49c-2.42,1.21-5.08,2.21-7.98,3.01-2.9.8-5.83,1.4-8.79,1.82-2.96.41-5.81.62-8.55.62Z" fill="#fff"/><path d="M658.99,123.74c1.08-6.94,3.34-12.87,6.78-17.77,3.44-4.9,7.82-8.65,13.14-11.23,5.32-2.58,11.35-3.87,18.11-3.87,7.9,0,14.35,1.61,19.35,4.82,5,3.22,8.52,7.6,10.56,13.14s2.48,11.78,1.34,18.73c-1.08,6.94-3.34,12.87-6.78,17.77-3.44,4.91-7.82,8.66-13.14,11.27-5.32,2.61-11.38,3.92-18.2,3.92-7.83,0-14.25-1.62-19.25-4.87-5-3.25-8.5-7.66-10.51-13.23-2.01-5.57-2.47-11.8-1.38-18.68ZM680.39,124.7c-.64,4.01-.62,7.42.05,10.22.67,2.8,1.97,4.92,3.92,6.35,1.94,1.43,4.44,2.15,7.5,2.15,4.33,0,7.72-1.54,10.18-4.63,2.45-3.09,4.06-7.15,4.82-12.18.64-4.01.61-7.4-.1-10.17-.7-2.77-2.02-4.87-3.96-6.31-1.94-1.43-4.47-2.15-7.6-2.15-4.33,0-7.68,1.51-10.03,4.54-2.36,3.03-3.95,7.09-4.78,12.18Z" fill="#fff"/><path d="M744.02,159.38l8.03-50.73h-19.49l2.67-16.62h59.62l-2.68,16.62h-19.49l-8.03,50.73h-20.64Z" fill="#fff"/><path d="M834.4,159.38l8.03-50.73h-19.49l2.68-16.62h59.62l-2.67,16.62h-19.49l-8.03,50.73h-20.64Z" fill="#fff"/><path d="M881.22,159.38l10.7-67.36h20.64l-4.01,24.84h23.02l4.01-24.84h20.64l-10.7,67.36h-20.64l4.11-25.7h-23.03l-4.11,25.7h-20.64Z" fill="#fff"/><path d="M956.6,159.38l10.7-67.36h49.97l-2.48,15.67h-30.29l-1.53,9.65h27.99l-2.48,15.67h-27.99l-1.72,10.7h30.29l-2.48,15.67h-49.97Z" fill="#fff"/><path d="M274.94,263.54l10.7-67.36h33.54c8.03,0,13.87,1.62,17.53,4.87,3.66,3.25,5.05,7.74,4.16,13.47-.51,3.44-2.1,6.54-4.78,9.32s-6.08,4.67-10.22,5.68l.19-1.62c4.59.96,7.91,2.98,9.98,6.07,2.07,3.09,2.76,6.83,2.05,11.23-.83,5.42-3.6,9.83-8.31,13.23-4.71,3.41-10.86,5.11-18.44,5.11h-36.4ZM297.01,248.63h13.28c2.8,0,4.87-.46,6.21-1.38,1.34-.92,2.13-2.28,2.39-4.06.25-1.53.16-2.75-.29-3.68-.45-.92-1.24-1.61-2.39-2.05-1.15-.45-2.71-.67-4.68-.67h-12.71l-1.82,11.85ZM301.21,221.88h11.18c2.8,0,4.84-.41,6.11-1.24,1.27-.83,2.04-2.1,2.29-3.82.32-2.1-.06-3.58-1.15-4.44-1.08-.86-3.12-1.29-6.11-1.29h-10.61l-1.72,10.8Z" fill="#fff"/><path d="M342.58,263.54l10.7-67.36h49.97l-2.48,15.67h-30.29l-1.53,9.65h27.99l-2.48,15.67h-27.99l-1.72,10.7h30.29l-2.48,15.67h-49.97Z" fill="#fff"/><path d="M426.84,264.68c-4.9,0-9.73-.56-14.47-1.67-4.75-1.11-8.62-2.59-11.61-4.44l6.21-15.86c1.85.89,3.96,1.74,6.35,2.53,2.39.8,4.9,1.45,7.55,1.96,2.64.51,5.27.76,7.88.76,3.76,0,6.34-.4,7.74-1.19,1.4-.79,2.2-1.8,2.39-3.01.13-1.02-.11-1.89-.72-2.63-.61-.73-1.86-1.26-3.77-1.58l-11.75-2.1c-5.54-1.02-9.86-3.33-12.95-6.93-3.09-3.6-4.19-8.2-3.3-13.81.77-4.59,2.56-8.49,5.4-11.7,2.83-3.22,6.56-5.68,11.18-7.4,4.62-1.72,9.95-2.58,16-2.58,4.2,0,8.34.49,12.42,1.48,4.07.99,7.29,2.41,9.65,4.25l-6.5,15.48c-2.17-1.27-4.73-2.34-7.69-3.2-2.96-.86-6.32-1.29-10.08-1.29-3.19,0-5.62.37-7.31,1.1-1.69.73-2.66,1.83-2.91,3.3-.13.83.13,1.69.76,2.58.64.89,2.01,1.53,4.11,1.91l11.56,2.01c5.86,1.02,10.24,3.31,13.14,6.88,2.9,3.57,3.9,8.12,3.01,13.66-.64,4.2-2.31,7.93-5.02,11.18-2.71,3.25-6.35,5.78-10.94,7.6s-10.03,2.72-16.34,2.72Z" fill="#fff"/><path d="M478.81,263.54l8.03-50.73h-19.49l2.67-16.62h59.62l-2.68,16.62h-19.49l-8.03,50.73h-20.64Z" fill="#fff"/><rect x="553.52" y="179.82" width="407.46" height="100.97" rx="9.85" ry="9.85" fill="#1c2126" opacity=".3"/><path d="M602.39,233.86l-.12.7,23.28,12.93-1.6,9.65-31.84-19.53,1.33-7.93,38.75-19.53-1.8,10.74-28.01,12.97Z" fill="#fff"/><path d="M661.53,214.95c9.49,0,15.86,4.61,16.09,11.64,0,.55-.04.9-.08,1.21h-8.67v-.23c-.31-3.52-3.16-5.55-7.73-5.55s-7.97,2.19-7.97,5.35c0,2.38,1.76,3.98,5.82,5.27l5.7,1.84c7.5,2.38,10.66,5.78,10.66,11.29,0,8.16-7.38,13.83-18.09,13.83s-17.3-4.84-17.5-12.11c0-.39.04-.59.08-.9h8.91v.2c.39,3.55,3.67,5.7,8.79,5.7s8.4-2.15,8.4-5.55c0-2.42-1.72-3.95-5.9-5.31l-5.74-1.88c-6.99-2.3-10.2-5.86-10.2-11.25,0-8.12,7.03-13.55,17.42-13.55Z" fill="#fff"/><path d="M715.16,203.98l-2.11,12.23h16.52l-1.29,7.34h-16.33l-3.95,21.56c-.12.66-.16,1.13-.16,1.6,0,3.16,2.11,4.73,6.56,4.73,1.72,0,7.85-.04,8.55-.12l-1.25,7.27c-.62.12-9.1.23-10.47.23-8.32,0-12.7-3.4-12.7-9.88,0-1.13.12-2.42.39-3.87l3.91-21.52h-11.25l1.29-7.34h11.25l2.11-12.23h8.91Z" fill="#fff"/><path d="M735.86,273.98l1.29-7.54c.27.08,1.37.12,2.54.12,4.06,0,6.33-1.37,8.48-5.62l.94-1.91-7.85-43.09h9.69l4.53,34.14h.59l16.41-34.14h9.96l-23.01,43.75c-5.74,11.02-10.43,14.38-19.77,14.38-1.56,0-3.4-.04-3.79-.08Z" fill="#fff"/><path d="M786.21,258.7l1.25-7.27h13.98l8.01-44.77h-13.55l1.25-7.27h22.62l-9.22,52.03h13.32l-1.25,7.27h-36.41Z" fill="#fff"/><path d="M874.07,247.1c-1.29,7.34-8.83,12.46-18.4,12.46-10.7,0-17.34-6.33-17.34-16.56,0-1.84.2-3.52.62-6.21l.9-5.12c1.72-10.2,9.49-16.6,20.16-16.6s17.38,6.91,16.76,16.25c0,1.05-.27,3.48-.43,4.3l-.59,3.91h-28.32c-.16.66-.39,2.7-.39,3.01-.43,5.94,3.16,9.8,9.1,9.8,4.41,0,7.93-2.03,8.95-5.23h8.98ZM867.89,233.43c.08-.35.23-1.72.23-2.15.51-5.35-2.97-9.06-8.59-9.06s-9.57,3.36-10.78,9.06l-.39,2.15h19.53Z" fill="#fff"/><path d="M915.2,233.47l.08-.74-23.28-12.93,1.64-9.65,31.8,19.53-1.33,7.93-38.75,19.53,1.8-10.74,28.05-12.93Z" fill="#fff"/><rect x="0" y="595" width="1200" height="35" fill="#fff"/><rect x="0" y="499.19" width="1200" height="95.81" fill="#fff"/><line x1="0" y1="499.19" x2="1200" y2="499.19" fill="none" stroke="#1c2126" stroke-miterlimit="10"/><line x1="0" y1="595" x2="1200" y2="595" fill="none" stroke="#1c2126" stroke-miterlimit="10"/><path d="M24.24,559.45v-18.76h-6.39v-2.37h15.35v2.37h-6.39v18.76h-2.58Z" fill="#1c2126"/><path d="M44.08,559.89c-4.8,0-7.75-3.46-7.75-9.3v-3.41c0-5.84,2.94-9.3,7.75-9.3s7.75,3.46,7.75,9.3v3.41c0,5.84-2.94,9.3-7.75,9.3ZM49.22,550.58v-3.38c0-4.41-1.93-6.87-5.14-6.87s-5.14,2.46-5.14,6.87v3.38c0,4.41,1.93,6.87,5.14,6.87s5.14-2.46,5.14-6.87Z" fill="#1c2126"/><path d="M59.97,545.58c0-1.48,1.2-2.71,2.65-2.71s2.65,1.23,2.65,2.71-1.2,2.71-2.65,2.71-2.65-1.23-2.65-2.71ZM59.97,556.83c0-1.48,1.2-2.7,2.65-2.7s2.65,1.21,2.65,2.7-1.2,2.71-2.65,2.71-2.65-1.21-2.65-2.71Z" fill="#1c2126"/><line x1="582.03" y1="498.72" x2="582.03" y2="595" fill="none" stroke="#1c2126" stroke-miterlimit="10"/><path d="M605.51,559.45v-21.14h12.47v2.37h-9.87v7.25h9.02v2.3h-9.02v9.21h-2.59Z" fill="#1c2126"/><path d="M625.54,551.03v8.42h-2.55v-21.14h7.09c4.19,0,6.81,2.43,6.81,6.36,0,2.77-1.54,5.04-3.94,5.83l4.31,8.95h-2.92l-3.94-8.42h-4.86ZM625.54,548.85h4.19c2.92,0,4.56-1.48,4.56-4.12s-1.61-4.12-4.44-4.12h-4.31v8.23Z" fill="#1c2126"/><path d="M648.15,559.89c-4.8,0-7.75-3.46-7.75-9.3v-3.41c0-5.84,2.94-9.3,7.75-9.3s7.75,3.46,7.75,9.3v3.41c0,5.84-2.94,9.3-7.75,9.3ZM653.29,550.58v-3.38c0-4.41-1.93-6.87-5.14-6.87s-5.14,2.46-5.14,6.87v3.38c0,4.41,1.93,6.87,5.14,6.87s5.14-2.46,5.14-6.87Z" fill="#1c2126"/><path d="M661.18,559.45h-2.31v-21.14h2.86l4.88,13.08h.19l4.86-13.08h2.86v21.14h-2.31v-8.1l.15-8.57h-.19l-4.45,11.71h-2.02l-4.45-11.71h-.19l.15,8.57v8.1Z" fill="#1c2126"/><path d="M682.59,545.58c0-1.48,1.2-2.71,2.65-2.71s2.65,1.23,2.65,2.71-1.2,2.71-2.65,2.71-2.65-1.23-2.65-2.71ZM682.59,556.83c0-1.48,1.2-2.7,2.65-2.7s2.65,1.21,2.65,2.7-1.2,2.71-2.65,2.71-2.65-1.21-2.65-2.71Z" fill="#1c2126"/><path d="M12.77,618.4c-.12,0-.21-.04-.26-.11s-.08-.17-.06-.27l2.22-10.42c.02-.12.07-.21.16-.29.08-.07.19-.11.3-.11h6.95c.12,0,.2.04.26.11.05.07.07.17.05.29l-.24,1.12c-.02.12-.08.21-.16.28-.08.07-.19.11-.3.11h-5.14l-.66,3.04h4.82c.12,0,.2.04.26.11.05.07.07.17.05.29l-.22,1.12c-.02.11-.08.2-.17.27-.09.07-.19.11-.31.11h-4.82l-.85,3.97c-.02.11-.08.2-.16.27s-.19.11-.3.11h-1.41Z" fill="#1c2126"/><path d="M25.41,618.56c-.81,0-1.49-.15-2.02-.45s-.92-.72-1.15-1.26c-.23-.54-.29-1.18-.17-1.9.03-.19.08-.43.13-.71s.12-.51.17-.7c.19-.74.49-1.37.89-1.91s.91-.96,1.54-1.26c.62-.3,1.36-.45,2.22-.45s1.49.15,2.02.45c.54.3.93.72,1.16,1.26s.29,1.18.18,1.91c-.04.19-.09.43-.14.7s-.11.51-.16.71c-.19.72-.48,1.36-.87,1.9-.39.54-.9.96-1.52,1.26s-1.38.45-2.26.45ZM25.57,616.98c.58,0,1.06-.18,1.46-.54.4-.36.69-.88.87-1.58.04-.16.09-.37.14-.62s.1-.46.13-.62c.12-.69.07-1.22-.14-1.58-.21-.36-.61-.54-1.18-.54s-1.05.18-1.46.54-.69.88-.86,1.58c-.04.16-.09.37-.15.62s-.1.46-.12.62c-.12.69-.07,1.22.14,1.58s.6.54,1.18.54Z" fill="#1c2126"/><path d="M31.53,618.4c-.11,0-.19-.04-.25-.11s-.08-.17-.06-.27l1.6-7.54c.02-.12.08-.21.17-.29s.19-.11.3-.11h1.3c.11,0,.19.04.25.11s.08.17.06.29l-.14.66c.26-.34.58-.6.98-.78s.88-.27,1.44-.27h.78c.12,0,.2.04.26.11.05.07.07.16.05.27l-.24,1.15c-.02.11-.08.2-.17.27s-.19.11-.3.11h-1.25c-.51,0-.94.14-1.29.43-.35.28-.57.68-.68,1.19l-.94,4.4c-.02.11-.07.2-.16.27-.08.07-.19.11-.3.11h-1.39Z" fill="#1c2126"/><path d="M44.76,618.4c-.73,0-1.29-.11-1.7-.34-.4-.22-.67-.56-.78-1-.12-.44-.11-.99.03-1.66l.79-3.63h-1.26c-.11,0-.19-.04-.25-.11-.06-.07-.08-.17-.06-.29l.19-.91c.02-.11.08-.2.17-.27.09-.07.2-.11.31-.11h1.25l.58-2.65c.02-.11.07-.2.16-.27.08-.07.18-.11.29-.11h1.3c.12,0,.21.04.26.11.06.08.08.17.06.27l-.58,2.65h2c.11,0,.19.04.25.11s.08.16.06.27l-.19.91c-.02.12-.08.21-.17.29-.09.08-.19.11-.3.11h-2l-.74,3.47c-.06.29-.1.54-.1.74,0,.21.05.37.17.48s.33.17.62.17h1.15c.12,0,.2.04.26.11.05.08.07.17.05.27l-.21.99c-.02.11-.08.2-.16.27-.09.07-.19.11-.3.11h-1.14Z" fill="#1c2126"/><path d="M48.07,618.4c-.11,0-.19-.04-.25-.11s-.08-.17-.06-.27l2.26-10.59c.02-.11.08-.2.16-.27.08-.07.18-.11.29-.11h1.44c.11,0,.19.04.25.11.06.08.08.17.06.27l-.78,3.65c.34-.34.72-.62,1.14-.83.42-.21.93-.32,1.53-.32.69,0,1.26.15,1.7.44.44.29.75.71.92,1.24.17.53.18,1.17.02,1.92l-.96,4.5c-.02.11-.08.2-.16.27-.09.07-.19.11-.3.11h-1.44c-.11,0-.19-.04-.25-.11s-.08-.17-.06-.27l.93-4.4c.14-.62.11-1.1-.08-1.46-.19-.35-.58-.53-1.17-.53-.36,0-.71.08-1.03.23-.33.15-.61.38-.84.68s-.4.66-.5,1.07l-.93,4.4c-.02.11-.08.2-.16.27-.09.07-.18.11-.29.11h-1.44Z" fill="#1c2126"/><path d="M61.51,618.56c-.78,0-1.43-.15-1.95-.46-.52-.31-.87-.76-1.07-1.35-.2-.59-.23-1.29-.09-2.13.02-.11.05-.24.08-.41.03-.17.06-.3.1-.39.21-.81.54-1.51.99-2.09.45-.58.99-1.03,1.64-1.34s1.36-.47,2.14-.47c.86,0,1.55.18,2.06.54s.84.85,1.01,1.49.16,1.37,0,2.2l-.08.34c-.02.11-.08.2-.17.27-.09.08-.19.11-.31.11h-5.31c-.01.06-.02.11-.03.13-.05.38-.05.72.02,1.03.06.31.21.57.42.76s.51.29.87.29c.3,0,.56-.04.79-.13.22-.09.41-.2.55-.31.14-.12.25-.21.33-.29.13-.13.22-.21.29-.23.06-.03.15-.04.27-.04h1.39c.1,0,.17.03.22.1.05.06.07.14.05.24-.05.17-.19.38-.4.62-.21.24-.5.48-.86.72-.36.24-.79.43-1.29.58s-1.04.23-1.64.23ZM60.82,613.53h3.54l.02-.05c.1-.42.1-.78.02-1.1s-.23-.56-.46-.74c-.22-.18-.52-.26-.9-.26s-.71.09-1.02.26c-.3.18-.56.42-.76.74-.2.31-.35.68-.43,1.1l-.02.05Z" fill="#1c2126"/><path d="M71.06,618.4c-.11,0-.19-.04-.25-.11s-.08-.17-.06-.27l2.26-10.59c.02-.11.08-.2.16-.27.08-.07.18-.11.29-.11h1.33c.12,0,.21.04.26.11.06.08.08.17.06.27l-2.26,10.59c-.02.11-.08.2-.16.27-.09.07-.19.11-.3.11h-1.33Z" fill="#1c2126"/><path d="M78.64,618.56c-.81,0-1.49-.15-2.02-.45-.54-.3-.92-.72-1.15-1.26-.23-.54-.29-1.18-.17-1.9.03-.19.08-.43.14-.71s.11-.51.17-.7c.19-.74.49-1.37.89-1.91.4-.54.91-.96,1.54-1.26s1.36-.45,2.22-.45,1.49.15,2.02.45.92.72,1.16,1.26c.23.54.29,1.18.18,1.91-.04.19-.09.43-.14.7-.05.28-.11.51-.16.71-.19.72-.48,1.36-.87,1.9-.39.54-.9.96-1.52,1.26-.62.3-1.38.45-2.26.45ZM78.8,616.98c.58,0,1.06-.18,1.46-.54s.69-.88.87-1.58c.04-.16.09-.37.14-.62.05-.26.1-.46.13-.62.12-.69.07-1.22-.14-1.58s-.61-.54-1.18-.54-1.05.18-1.46.54c-.41.36-.69.88-.86,1.58-.04.16-.09.37-.15.62s-.1.46-.12.62c-.12.69-.07,1.22.14,1.58.21.36.6.54,1.18.54Z" fill="#1c2126"/><path d="M86.92,618.4c-.16,0-.27-.04-.34-.12-.06-.08-.11-.17-.13-.28l-1.42-7.49c-.02-.14,0-.25.08-.32s.18-.11.3-.11h1.22c.12,0,.21.03.27.1.06.06.11.15.13.27l.91,5.55,3.33-5.62c.03-.06.09-.13.17-.2.08-.07.18-.11.31-.11h1.39c.13,0,.22.05.26.14.05.1.03.21-.06.35l-4.56,7.42c-.08.11-.16.2-.25.28-.09.08-.22.12-.38.12h-1.25Z" fill="#1c2126"/><path d="M96.66,618.56c-.78,0-1.43-.15-1.94-.46-.52-.31-.88-.76-1.07-1.35-.2-.59-.23-1.29-.09-2.13.02-.11.05-.24.08-.41.03-.17.06-.3.1-.39.21-.81.54-1.51.99-2.09.45-.58.99-1.03,1.64-1.34s1.36-.47,2.14-.47c.86,0,1.55.18,2.06.54.51.36.84.85,1.01,1.49.17.63.16,1.37,0,2.2l-.08.34c-.02.11-.08.2-.17.27-.09.08-.2.11-.31.11h-5.31c-.01.06-.02.11-.03.13-.05.38-.05.72.02,1.03.06.31.21.57.42.76s.51.29.87.29c.3,0,.56-.04.78-.13.22-.09.41-.2.55-.31.14-.12.25-.21.33-.29.13-.13.22-.21.29-.23.06-.03.15-.04.27-.04h1.39c.1,0,.17.03.22.1.05.06.07.14.05.24-.05.17-.19.38-.4.62-.21.24-.5.48-.87.72-.36.24-.79.43-1.29.58s-1.04.23-1.64.23ZM95.97,613.53h3.54l.02-.05c.1-.42.1-.78.02-1.1s-.23-.56-.46-.74c-.22-.18-.52-.26-.9-.26s-.71.09-1.02.26-.56.42-.76.74c-.2.31-.35.68-.43,1.1l-.02.05Z" fill="#1c2126"/><path d="M109.56,618.56c-.81,0-1.49-.15-2.02-.45s-.92-.72-1.15-1.26c-.23-.54-.29-1.18-.17-1.9.03-.19.08-.43.13-.71s.12-.51.17-.7c.19-.74.49-1.37.89-1.91s.91-.96,1.54-1.26c.62-.3,1.36-.45,2.22-.45s1.49.15,2.02.45c.54.3.93.72,1.16,1.26s.29,1.18.18,1.91c-.04.19-.09.43-.14.7s-.11.51-.16.71c-.19.72-.48,1.36-.87,1.9-.39.54-.9.96-1.52,1.26s-1.38.45-2.26.45ZM109.72,616.98c.58,0,1.06-.18,1.46-.54.4-.36.69-.88.87-1.58.04-.16.09-.37.14-.62s.1-.46.13-.62c.12-.69.07-1.22-.14-1.58-.21-.36-.61-.54-1.18-.54s-1.05.18-1.46.54-.69.88-.86,1.58c-.04.16-.09.37-.15.62s-.1.46-.12.62c-.12.69-.07,1.22.14,1.58s.6.54,1.18.54Z" fill="#1c2126"/><path d="M116.42,618.4c-.12,0-.21-.04-.26-.11s-.08-.17-.06-.27l1.33-6.24h-1.29c-.11,0-.19-.04-.25-.11-.06-.07-.08-.17-.06-.29l.19-.91c.02-.11.08-.2.17-.27s.19-.11.31-.11h1.3l.13-.65c.15-.64.38-1.17.69-1.59.31-.42.7-.74,1.18-.95.48-.21,1.04-.32,1.68-.32h1.28c.12,0,.2.04.26.11.05.07.07.16.05.27l-.19.91c-.02.12-.08.21-.17.29s-.19.11-.3.11h-.96c-.43,0-.76.11-.99.32-.23.21-.39.52-.46.93l-.13.58h1.98c.12,0,.2.04.26.11.05.07.07.16.05.27l-.19.91c-.02.12-.08.21-.16.29-.09.08-.19.11-.3.11h-1.98l-1.34,6.24c-.02.11-.07.2-.16.27-.08.07-.18.11-.29.11h-1.3Z" fill="#1c2126"/><path d="M128.85,618.56c-.81,0-1.48-.15-2.02-.45s-.92-.72-1.15-1.26c-.23-.54-.29-1.18-.17-1.9.03-.19.08-.43.14-.71s.11-.51.17-.7c.19-.74.49-1.37.89-1.91s.91-.96,1.54-1.26c.62-.3,1.36-.45,2.22-.45s1.49.15,2.02.45c.54.3.92.72,1.16,1.26.23.54.29,1.18.18,1.91-.04.19-.09.43-.14.7s-.11.51-.16.71c-.19.72-.48,1.36-.87,1.9-.39.54-.9.96-1.52,1.26s-1.38.45-2.26.45ZM129.01,616.98c.58,0,1.06-.18,1.46-.54.4-.36.69-.88.87-1.58.04-.16.09-.37.14-.62.05-.26.1-.46.13-.62.12-.69.07-1.22-.14-1.58-.21-.36-.61-.54-1.18-.54s-1.05.18-1.46.54-.69.88-.86,1.58c-.04.16-.09.37-.15.62s-.1.46-.12.62c-.12.69-.07,1.22.14,1.58s.6.54,1.18.54Z" fill="#1c2126"/><path d="M134.32,621.45c-.11,0-.19-.04-.25-.11-.06-.07-.08-.16-.06-.27l2.26-10.59c.02-.11.08-.2.16-.27.09-.07.18-.11.29-.11h1.28c.11,0,.19.04.25.11s.08.16.06.27l-.14.64c.33-.34.7-.62,1.1-.85.4-.22.93-.34,1.58-.34.55,0,1.03.09,1.42.28.39.19.7.45.92.79.22.34.37.74.44,1.21.07.46.06.97-.04,1.53-.02.18-.05.35-.09.51s-.08.34-.14.53c-.13.52-.31,1.02-.54,1.48-.24.46-.52.87-.86,1.22-.34.35-.73.62-1.18.81-.45.19-.96.29-1.53.29-.6,0-1.09-.1-1.47-.31-.38-.21-.66-.48-.83-.82l-.78,3.63c-.02.11-.08.2-.16.27-.09.08-.19.11-.3.11h-1.36ZM138.88,616.85c.43,0,.79-.1,1.09-.3.3-.2.55-.46.74-.78.2-.33.35-.68.47-1.05.05-.16.1-.32.13-.48.03-.16.06-.32.08-.48.05-.38.06-.74.02-1.06s-.16-.58-.36-.78c-.2-.2-.51-.3-.94-.3-.45,0-.83.1-1.16.3-.33.2-.59.46-.8.78s-.36.64-.44.97c-.05.19-.1.39-.14.61s-.08.42-.11.62c-.05.32-.05.63,0,.92.06.29.2.54.43.73.23.19.56.29.98.29Z" fill="#1c2126"/><path d="M148.13,618.56c-.78,0-1.43-.15-1.95-.46-.52-.31-.87-.76-1.07-1.35-.2-.59-.23-1.29-.09-2.13.02-.11.05-.24.08-.41.03-.17.06-.3.1-.39.21-.81.54-1.51.99-2.09.45-.58.99-1.03,1.64-1.34s1.36-.47,2.14-.47c.86,0,1.55.18,2.06.54s.84.85,1.01,1.49.16,1.37,0,2.2l-.08.34c-.02.11-.08.2-.17.27-.09.08-.19.11-.31.11h-5.31c-.01.06-.02.11-.03.13-.05.38-.05.72.02,1.03.06.31.21.57.42.76s.51.29.87.29c.3,0,.56-.04.79-.13.22-.09.41-.2.55-.31.14-.12.25-.21.33-.29.13-.13.22-.21.29-.23.06-.03.15-.04.27-.04h1.39c.1,0,.17.03.22.1.05.06.07.14.05.24-.05.17-.19.38-.4.62-.21.24-.5.48-.86.72-.36.24-.79.43-1.29.58s-1.04.23-1.64.23ZM147.44,613.53h3.54l.02-.05c.1-.42.1-.78.02-1.1s-.23-.56-.46-.74c-.22-.18-.52-.26-.9-.26s-.71.09-1.02.26c-.3.18-.56.42-.76.74-.2.31-.35.68-.43,1.1l-.02.05Z" fill="#1c2126"/><path d="M153.96,618.4c-.11,0-.19-.04-.25-.11-.06-.07-.08-.17-.06-.27l1.6-7.55c.02-.11.08-.2.17-.27.09-.07.19-.11.3-.11h1.31c.11,0,.19.04.24.11.05.07.07.16.05.27l-.14.66c.34-.34.74-.63,1.21-.86.46-.23.99-.35,1.58-.35.73,0,1.31.15,1.74.44s.73.71.87,1.24c.14.53.14,1.17-.02,1.92l-.96,4.5c-.02.11-.07.2-.16.27s-.19.11-.3.11h-1.41c-.11,0-.19-.04-.25-.11s-.08-.17-.06-.27l.93-4.4c.14-.65.12-1.14-.04-1.48s-.56-.5-1.18-.5-1.12.18-1.54.53c-.42.35-.7.84-.84,1.46l-.93,4.4c-.02.11-.08.2-.16.27-.09.07-.18.11-.29.11h-1.41Z" fill="#1c2126"/><path d="M170.61,618.56c-.64,0-1.17-.07-1.59-.22-.42-.15-.75-.34-.99-.56-.24-.22-.41-.45-.5-.67-.09-.22-.12-.41-.1-.56.02-.12.08-.21.17-.28.09-.07.18-.11.28-.11h1.26s.08,0,.11.02c.03,0,.06.04.1.1l.37.37c.13.13.29.24.49.33.2.09.46.14.78.14.42,0,.78-.08,1.1-.25.31-.17.5-.4.57-.71.04-.22.02-.4-.08-.54-.1-.14-.29-.27-.59-.38s-.74-.23-1.33-.36c-.58-.14-1.04-.31-1.38-.53-.35-.21-.58-.48-.71-.8-.12-.32-.13-.69-.04-1.12.08-.42.29-.81.62-1.19.33-.38.77-.69,1.32-.94s1.19-.37,1.93-.37c.58,0,1.06.07,1.46.22s.72.32.96.54c.24.21.41.43.5.65.1.22.13.41.1.57-.01.12-.06.21-.15.28-.09.07-.18.11-.28.11h-1.17c-.05,0-.1-.01-.14-.03-.04-.02-.08-.05-.1-.08-.11-.11-.22-.22-.33-.34-.11-.12-.26-.23-.43-.31-.18-.08-.42-.13-.74-.13-.41,0-.73.09-.98.26s-.41.4-.47.66c-.03.18-.01.34.06.47.07.13.25.26.54.38s.73.24,1.31.37c.69.13,1.22.32,1.59.57.37.25.61.54.72.86s.13.69.04,1.08c-.1.48-.33.91-.7,1.29-.37.38-.85.69-1.45.9-.6.22-1.3.33-2.11.33Z" fill="#1c2126"/><path d="M179.52,618.56c-.81,0-1.49-.15-2.02-.45-.54-.3-.92-.72-1.15-1.26-.23-.54-.29-1.18-.17-1.9.03-.19.08-.43.14-.71s.11-.51.17-.7c.19-.74.49-1.37.89-1.91.4-.54.91-.96,1.54-1.26s1.36-.45,2.22-.45,1.49.15,2.02.45.92.72,1.16,1.26c.23.54.29,1.18.18,1.91-.04.19-.09.43-.14.7-.05.28-.11.51-.16.71-.19.72-.48,1.36-.87,1.9-.39.54-.9.96-1.52,1.26-.62.3-1.38.45-2.26.45ZM179.68,616.98c.58,0,1.06-.18,1.46-.54s.69-.88.87-1.58c.04-.16.09-.37.14-.62.05-.26.1-.46.13-.62.12-.69.07-1.22-.14-1.58s-.61-.54-1.18-.54-1.05.18-1.46.54c-.41.36-.69.88-.86,1.58-.04.16-.09.37-.15.62s-.1.46-.12.62c-.12.69-.07,1.22.14,1.58.21.36.6.54,1.18.54Z" fill="#1c2126"/><path d="M188.45,618.56c-.69,0-1.26-.15-1.7-.44s-.73-.71-.87-1.25-.14-1.18,0-1.91l.96-4.5c.02-.11.08-.2.17-.27.09-.07.19-.11.29-.11h1.41c.11,0,.19.04.24.11s.07.16.05.27l-.93,4.4c-.1.44-.13.8-.09,1.1.04.29.16.52.36.66.2.15.52.22.94.22.58,0,1.08-.18,1.5-.53.43-.35.7-.84.83-1.46l.94-4.4c.02-.11.08-.2.17-.27s.19-.11.3-.11h1.39c.12,0,.2.04.26.11.05.07.07.16.05.27l-1.6,7.55c-.02.11-.07.2-.16.27-.08.07-.19.11-.3.11h-1.3c-.11,0-.19-.04-.25-.11s-.08-.17-.06-.27l.13-.66c-.23.24-.47.46-.72.64-.25.18-.53.32-.85.42-.32.1-.71.14-1.18.14Z" fill="#1c2126"/><path d="M195.57,618.4c-.11,0-.19-.04-.25-.11-.06-.07-.08-.17-.06-.27l1.6-7.54c.02-.12.08-.21.17-.29.09-.07.19-.11.3-.11h1.3c.11,0,.19.04.25.11s.08.17.06.29l-.14.66c.26-.34.58-.6.98-.78.39-.18.87-.27,1.44-.27h.78c.12,0,.2.04.26.11s.07.16.05.27l-.24,1.15c-.02.11-.08.2-.17.27-.09.07-.19.11-.3.11h-1.25c-.51,0-.94.14-1.29.43-.35.28-.57.68-.68,1.19l-.94,4.4c-.02.11-.08.2-.16.27-.09.07-.19.11-.3.11h-1.39Z" fill="#1c2126"/><path d="M205.46,618.56c-.71,0-1.34-.14-1.88-.43s-.94-.71-1.19-1.26-.31-1.21-.18-1.99c.03-.16.07-.37.13-.63.05-.26.1-.48.14-.65.29-1.16.82-2.07,1.6-2.71.78-.64,1.77-.97,2.98-.97.67,0,1.23.1,1.69.29.45.19.81.44,1.07.74.26.3.44.61.54.93s.14.61.1.86c0,.12-.06.21-.14.28-.08.07-.17.1-.28.1h-1.46c-.11,0-.19-.03-.25-.08-.06-.05-.09-.13-.1-.24,0-.43-.11-.74-.34-.93-.23-.19-.56-.29-.98-.29-.52,0-.99.17-1.4.51-.41.34-.71.87-.89,1.59-.04.19-.09.39-.13.59s-.08.38-.11.53c-.12.74-.06,1.27.16,1.6.22.33.6.5,1.12.5.42,0,.79-.09,1.12-.26s.61-.48.83-.9c.06-.12.13-.2.2-.25.07-.05.16-.07.26-.07h1.44c.11,0,.19.04.25.11.06.07.07.16.04.28-.07.23-.21.51-.41.82s-.47.62-.81.92c-.34.3-.77.54-1.29.74-.52.19-1.13.29-1.85.29Z" fill="#1c2126"/><path d="M214.69,618.56c-.78,0-1.43-.15-1.95-.46-.52-.31-.87-.76-1.07-1.35-.2-.59-.23-1.29-.09-2.13.02-.11.05-.24.08-.41.03-.17.06-.3.1-.39.21-.81.54-1.51.99-2.09.45-.58.99-1.03,1.64-1.34s1.36-.47,2.14-.47c.86,0,1.55.18,2.06.54s.84.85,1.01,1.49.16,1.37,0,2.2l-.08.34c-.02.11-.08.2-.17.27-.09.08-.19.11-.31.11h-5.31c-.01.06-.02.11-.03.13-.05.38-.05.72.02,1.03.06.31.21.57.42.76s.51.29.87.29c.3,0,.56-.04.79-.13.22-.09.41-.2.55-.31.14-.12.25-.21.33-.29.13-.13.22-.21.29-.23.06-.03.15-.04.27-.04h1.39c.1,0,.17.03.22.1.05.06.07.14.05.24-.05.17-.19.38-.4.62-.21.24-.5.48-.86.72-.36.24-.79.43-1.29.58s-1.04.23-1.64.23ZM214,613.53h3.54l.02-.05c.1-.42.1-.78.02-1.1s-.23-.56-.46-.74c-.22-.18-.52-.26-.9-.26s-.71.09-1.02.26c-.3.18-.56.42-.76.74-.2.31-.35.68-.43,1.1l-.02.05Z" fill="#1c2126"/><path d="M227.19,618.56c-.64,0-1.17-.07-1.59-.22-.42-.15-.75-.34-.99-.56-.24-.22-.41-.45-.5-.67-.09-.22-.13-.41-.1-.56.02-.12.08-.21.17-.28.09-.07.18-.11.28-.11h1.26s.08,0,.11.02c.03,0,.06.04.1.1.12.12.24.24.37.37.13.13.29.24.49.33.2.09.46.14.78.14.42,0,.78-.08,1.1-.25.31-.17.5-.4.57-.71.04-.22.02-.4-.08-.54s-.29-.27-.59-.38c-.3-.11-.74-.23-1.33-.36-.58-.14-1.04-.31-1.38-.53-.35-.21-.58-.48-.7-.8-.12-.32-.14-.69-.04-1.12.09-.42.29-.81.62-1.19.33-.38.77-.69,1.32-.94.55-.25,1.19-.37,1.93-.37.58,0,1.06.07,1.46.22.4.14.72.32.96.54.24.21.41.43.5.65s.13.41.1.57c-.01.12-.06.21-.15.28-.09.07-.18.11-.28.11h-1.17c-.05,0-.1-.01-.14-.03s-.07-.05-.1-.08c-.11-.11-.22-.22-.33-.34-.11-.12-.26-.23-.43-.31-.18-.08-.42-.13-.74-.13-.41,0-.73.09-.98.26s-.41.4-.47.66c-.03.18-.01.34.06.47s.25.26.54.38.73.24,1.31.37c.69.13,1.22.32,1.59.57.37.25.61.54.72.86.11.33.12.69.04,1.08-.1.48-.33.91-.7,1.29-.37.38-.85.69-1.45.9-.6.22-1.3.33-2.11.33Z" fill="#1c2126"/><path d="M236.1,618.56c-.81,0-1.49-.15-2.02-.45-.54-.3-.92-.72-1.15-1.26-.23-.54-.29-1.18-.17-1.9.03-.19.08-.43.14-.71s.12-.51.17-.7c.19-.74.49-1.37.89-1.91.4-.54.91-.96,1.54-1.26s1.36-.45,2.22-.45,1.48.15,2.02.45.93.72,1.16,1.26.29,1.18.18,1.91c-.04.19-.09.43-.14.7-.05.28-.11.51-.16.71-.19.72-.48,1.36-.87,1.9-.39.54-.9.96-1.52,1.26-.62.3-1.38.45-2.26.45ZM236.26,616.98c.58,0,1.06-.18,1.46-.54s.69-.88.87-1.58c.04-.16.09-.37.14-.62.05-.26.1-.46.13-.62.12-.69.07-1.22-.14-1.58s-.61-.54-1.18-.54-1.05.18-1.46.54c-.4.36-.69.88-.86,1.58-.04.16-.09.37-.15.62s-.1.46-.12.62c-.12.69-.07,1.22.13,1.58.21.36.6.54,1.18.54Z" fill="#1c2126"/><path d="M242.96,618.4c-.12,0-.21-.04-.26-.11s-.08-.17-.06-.27l1.33-6.24h-1.3c-.11,0-.19-.04-.25-.11-.06-.07-.08-.17-.06-.29l.19-.91c.02-.11.08-.2.17-.27.09-.07.19-.11.31-.11h1.29l.13-.65c.15-.64.38-1.17.69-1.59.31-.42.7-.74,1.18-.95.48-.21,1.04-.32,1.68-.32h1.28c.12,0,.2.04.26.11.05.07.07.16.05.27l-.19.91c-.02.12-.08.21-.17.29s-.19.11-.3.11h-.96c-.43,0-.76.11-.99.32-.23.21-.39.52-.46.93l-.13.58h1.98c.12,0,.2.04.26.11.05.07.07.16.05.27l-.19.91c-.02.12-.07.21-.16.29-.08.08-.19.11-.3.11h-1.98l-1.34,6.24c-.02.11-.08.2-.16.27-.09.07-.18.11-.29.11h-1.29Z" fill="#1c2126"/><path d="M252.11,618.4c-.73,0-1.29-.11-1.7-.34-.4-.22-.67-.56-.78-1-.12-.44-.11-.99.03-1.66l.79-3.63h-1.26c-.11,0-.19-.04-.25-.11-.06-.07-.08-.17-.06-.29l.19-.91c.02-.11.08-.2.17-.27.09-.07.2-.11.31-.11h1.25l.58-2.65c.02-.11.07-.2.16-.27.08-.07.18-.11.29-.11h1.3c.12,0,.21.04.26.11.06.08.08.17.06.27l-.58,2.65h2c.11,0,.19.04.25.11s.08.16.06.27l-.19.91c-.02.12-.08.21-.17.29-.09.08-.19.11-.3.11h-2l-.74,3.47c-.06.29-.1.54-.1.74,0,.21.05.37.17.48s.33.17.62.17h1.15c.12,0,.2.04.26.11.05.08.07.17.05.27l-.21.99c-.02.11-.08.2-.16.27-.09.07-.19.11-.3.11h-1.14Z" fill="#1c2126"/><path d="M257.27,618.4c-.15,0-.26-.04-.32-.11-.06-.07-.1-.17-.11-.29l-.72-7.49c-.01-.12.02-.22.1-.3s.18-.13.32-.13h1.12c.13,0,.22.03.28.09.06.06.09.13.1.22l.46,5.3,2.75-5.25c.04-.08.11-.15.19-.23.09-.08.2-.12.34-.12h.83c.15,0,.25.04.3.12.05.08.09.16.1.23l.58,5.25,2.69-5.3c.03-.06.09-.13.16-.2.07-.07.18-.11.3-.11h1.3c.15,0,.24.05.26.14s.01.2-.04.32l-3.86,7.46c-.06.12-.14.21-.23.29s-.21.11-.36.11h-1.06c-.15,0-.26-.04-.33-.11s-.12-.17-.14-.29l-.66-5.05-2.72,5.05c-.06.12-.14.21-.24.29s-.22.11-.37.11h-1.04Z" fill="#1c2126"/><path d="M271.09,618.56c-.55,0-1.02-.09-1.41-.28-.38-.19-.69-.45-.9-.79-.22-.34-.36-.74-.42-1.21-.06-.46-.05-.97.03-1.53.04-.19.08-.37.11-.52.03-.15.07-.33.11-.52.14-.53.32-1.03.55-1.49.23-.46.51-.86.85-1.21.34-.35.73-.62,1.18-.81.45-.19.97-.29,1.56-.29.66,0,1.17.11,1.51.31.35.21.62.46.81.76l.11-.53c.02-.11.08-.2.16-.27s.18-.11.29-.11h1.26c.11,0,.19.04.26.11.06.07.09.16.06.27l-1.62,7.55c-.02.11-.08.2-.16.27-.09.07-.18.11-.29.11h-1.26c-.12,0-.21-.04-.26-.11s-.08-.17-.06-.27l.13-.59c-.32.33-.67.6-1.06.81-.38.21-.9.32-1.55.32ZM271.81,616.85c.45,0,.83-.1,1.15-.3s.58-.46.78-.78.34-.64.42-.97c.05-.19.1-.4.14-.62s.08-.42.11-.62c.06-.32.07-.63.02-.92s-.19-.54-.41-.73c-.22-.19-.55-.29-.98-.29s-.77.1-1.06.3-.54.46-.73.78-.35.67-.46,1.06c-.04.16-.08.32-.11.48s-.06.32-.08.48c-.05.38-.07.74-.04,1.06.03.32.14.58.34.78s.5.3.92.3Z" fill="#1c2126"/><path d="M278.05,618.4c-.11,0-.19-.04-.25-.11-.06-.07-.08-.17-.06-.27l1.6-7.54c.02-.12.08-.21.17-.29.09-.07.19-.11.3-.11h1.29c.11,0,.19.04.25.11s.08.17.06.29l-.14.66c.26-.34.58-.6.98-.78s.88-.27,1.44-.27h.78c.12,0,.2.04.26.11.05.07.07.16.05.27l-.24,1.15c-.02.11-.08.2-.17.27-.09.07-.19.11-.29.11h-1.25c-.51,0-.94.14-1.29.43-.35.28-.57.68-.68,1.19l-.94,4.4c-.02.11-.07.2-.16.27s-.19.11-.3.11h-1.39Z" fill="#1c2126"/><path d="M288.05,618.56c-.78,0-1.43-.15-1.95-.46-.52-.31-.87-.76-1.07-1.35-.2-.59-.23-1.29-.09-2.13.02-.11.05-.24.08-.41.03-.17.06-.3.1-.39.21-.81.54-1.51.99-2.09.45-.58.99-1.03,1.64-1.34s1.36-.47,2.14-.47c.86,0,1.55.18,2.06.54s.84.85,1.01,1.49.16,1.37,0,2.2l-.08.34c-.02.11-.08.2-.17.27-.09.08-.19.11-.31.11h-5.31c-.01.06-.02.11-.03.13-.05.38-.05.72.02,1.03.06.31.21.57.42.76s.51.29.87.29c.3,0,.56-.04.79-.13.22-.09.41-.2.55-.31.14-.12.25-.21.33-.29.13-.13.22-.21.29-.23.06-.03.15-.04.27-.04h1.39c.1,0,.17.03.22.1.05.06.07.14.05.24-.05.17-.19.38-.4.62-.21.24-.5.48-.86.72-.36.24-.79.43-1.29.58s-1.04.23-1.64.23ZM287.36,613.53h3.54l.02-.05c.1-.42.1-.78.02-1.1s-.23-.56-.46-.74c-.22-.18-.52-.26-.9-.26s-.71.09-1.02.26c-.3.18-.56.42-.76.74-.2.31-.35.68-.43,1.1l-.02.05Z" fill="#1c2126"/><path d="M1113.68,618.56c-.89,0-1.63-.15-2.22-.44s-1.05-.71-1.37-1.26c-.32-.54-.49-1.18-.52-1.9,0-.21-.02-.46-.02-.73s0-.51.02-.71c.03-.74.21-1.37.54-1.91.33-.54.79-.96,1.39-1.25.6-.29,1.32-.44,2.18-.44s1.56.15,2.16.44c.6.29,1.06.71,1.39,1.25.33.54.52,1.18.56,1.91,0,.2.02.44.02.71s0,.52-.02.73c-.04.72-.22,1.36-.54,1.9-.32.54-.77.96-1.37,1.26s-1.33.44-2.21.44ZM1113.68,616.79c.52,0,.92-.16,1.18-.48.26-.32.41-.79.44-1.42,0-.16.02-.37.02-.64s0-.48-.02-.64c-.03-.62-.18-1.09-.44-1.42-.26-.33-.65-.49-1.18-.49s-.92.16-1.18.49c-.27.32-.42.8-.45,1.42-.01.16-.02.37-.02.64s0,.48.02.64c.03.63.18,1.1.45,1.42.27.32.66.48,1.18.48Z" fill="#1c2126"/><path d="M1122.77,618.56c-.66,0-1.23-.08-1.7-.23s-.86-.34-1.15-.57c-.29-.22-.51-.45-.66-.68-.14-.23-.22-.42-.23-.58-.01-.12.03-.21.11-.29.08-.07.17-.11.26-.11h1.55s.08,0,.1.02c.03,0,.06.04.1.08.14.1.28.21.42.33.14.12.32.23.52.31.2.09.45.13.74.13.35,0,.65-.07.89-.22.24-.14.36-.35.36-.62,0-.19-.05-.35-.16-.48-.11-.13-.31-.24-.62-.35-.31-.11-.77-.22-1.38-.35-.58-.13-1.07-.3-1.47-.51-.41-.21-.71-.48-.91-.81-.2-.33-.3-.72-.3-1.18,0-.42.13-.82.39-1.2.26-.38.65-.7,1.16-.95.51-.25,1.15-.38,1.92-.38.59,0,1.1.07,1.54.22.44.14.81.33,1.11.54s.53.44.68.67c.15.23.24.43.25.6,0,.12-.02.21-.1.29-.08.08-.16.11-.26.11h-1.42c-.05,0-.1-.01-.14-.03-.04-.02-.08-.05-.11-.08-.13-.07-.26-.17-.39-.29s-.29-.22-.47-.3c-.18-.08-.42-.13-.7-.13-.34,0-.61.08-.79.23-.19.16-.28.35-.28.58,0,.15.05.29.14.42.1.13.29.25.58.35.29.11.75.22,1.37.34.72.13,1.3.32,1.73.58s.73.55.91.89c.18.34.27.7.27,1.08,0,.5-.15.95-.44,1.34-.29.39-.73.69-1.3.91s-1.28.33-2.11.33Z" fill="#1c2126"/><path d="M1131.46,618.56c-.66,0-1.23-.08-1.7-.23s-.86-.34-1.15-.57c-.29-.22-.51-.45-.66-.68-.14-.23-.22-.42-.23-.58-.01-.12.03-.21.11-.29.09-.07.17-.11.26-.11h1.55s.08,0,.1.02c.03,0,.06.04.1.08.14.1.28.21.42.33.14.12.32.23.52.31.2.09.45.13.74.13.35,0,.65-.07.89-.22.24-.14.36-.35.36-.62,0-.19-.05-.35-.16-.48-.11-.13-.31-.24-.62-.35-.31-.11-.77-.22-1.38-.35-.58-.13-1.07-.3-1.47-.51-.41-.21-.71-.48-.91-.81s-.3-.72-.3-1.18c0-.42.13-.82.39-1.2.26-.38.65-.7,1.16-.95s1.15-.38,1.92-.38c.59,0,1.1.07,1.54.22.44.14.81.33,1.11.54s.53.44.68.67c.15.23.24.43.25.6.01.12-.02.21-.1.29-.07.08-.16.11-.26.11h-1.42c-.05,0-.1-.01-.14-.03s-.08-.05-.11-.08c-.13-.07-.26-.17-.39-.29s-.29-.22-.47-.3c-.18-.08-.42-.13-.7-.13-.34,0-.61.08-.79.23-.19.16-.28.35-.28.58,0,.15.05.29.14.42.1.13.29.25.58.35.29.11.75.22,1.37.34.73.13,1.3.32,1.73.58s.73.55.91.89.27.7.27,1.08c0,.5-.15.95-.44,1.34-.29.39-.73.69-1.3.91-.58.22-1.28.33-2.11.33Z" fill="#1c2126"/><path d="M1137.17,618.4c-.12,0-.21-.04-.29-.11-.08-.07-.11-.17-.11-.29v-1.81c0-.11.04-.2.11-.28.07-.08.17-.12.29-.12h1.81c.11,0,.2.04.28.12s.12.17.12.28v1.81c0,.12-.04.21-.12.29s-.17.11-.28.11h-1.81Z" fill="#1c2126"/><path d="M1144.9,618.56c-.79,0-1.48-.14-2.07-.43-.59-.29-1.06-.71-1.4-1.26s-.53-1.21-.56-1.98c-.01-.17-.02-.39-.02-.65s0-.48.02-.65c.03-.78.21-1.44.55-1.99.34-.55.8-.97,1.4-1.26.6-.29,1.29-.43,2.08-.43.7,0,1.31.1,1.81.3.5.2.91.45,1.23.75.32.3.56.62.72.94s.25.6.26.85c.01.12-.03.21-.11.29s-.18.11-.29.11h-1.71c-.12,0-.21-.03-.26-.08-.06-.05-.12-.14-.17-.26-.14-.37-.33-.64-.56-.8s-.53-.24-.88-.24c-.48,0-.86.15-1.13.46-.27.31-.42.79-.44,1.44-.02.42-.02.79,0,1.13.02.66.17,1.14.44,1.44.27.3.65.45,1.13.45.37,0,.67-.08.9-.24.22-.16.41-.43.54-.8.05-.12.11-.2.17-.26.06-.05.15-.08.26-.08h1.71c.11,0,.2.04.29.11s.12.17.11.29c0,.18-.06.39-.16.64-.1.25-.24.5-.44.75s-.45.49-.76.71c-.31.22-.69.4-1.13.53s-.95.2-1.53.2Z" fill="#1c2126"/><path d="M1152.92,618.56c-.57,0-1.07-.11-1.52-.33-.45-.22-.81-.51-1.07-.89-.27-.38-.4-.79-.4-1.25,0-.76.31-1.36.92-1.79s1.42-.74,2.42-.9l2.1-.3v-.29c0-.42-.1-.74-.29-.96-.19-.22-.53-.34-1.01-.34-.35,0-.63.07-.84.21-.21.14-.37.32-.49.54-.09.14-.21.21-.38.21h-1.52c-.12,0-.21-.03-.27-.1-.06-.07-.09-.15-.08-.25,0-.18.07-.39.21-.64.14-.24.35-.49.64-.73.29-.24.66-.44,1.11-.6s1-.24,1.64-.24,1.25.08,1.73.24c.48.16.87.38,1.16.67.29.29.51.62.64,1,.13.38.2.79.2,1.22v4.94c0,.12-.04.21-.11.29-.08.07-.17.11-.27.11h-1.58c-.11,0-.2-.04-.27-.11-.08-.07-.11-.17-.11-.29v-.59c-.14.2-.33.39-.56.57-.24.18-.52.32-.84.42-.33.11-.71.16-1.14.16ZM1153.56,616.9c.35,0,.67-.07.94-.22.28-.15.5-.38.66-.69.16-.31.24-.7.24-1.17v-.27l-1.49.24c-.57.1-.98.24-1.25.43-.27.19-.4.43-.4.7,0,.2.06.38.18.52.12.14.28.26.48.34s.41.12.63.12Z" fill="#1c2126"/><path d="M1160.13,618.4c-.11,0-.2-.04-.28-.11-.08-.07-.12-.17-.12-.29v-7.52c0-.11.04-.2.12-.28.08-.08.17-.12.28-.12h1.57c.12,0,.21.04.29.12s.11.17.11.28v.64c.27-.33.6-.59.99-.77s.84-.27,1.34-.27h.69c.12,0,.21.04.29.11s.11.17.11.29v1.39c0,.11-.04.2-.11.27s-.17.11-.29.11h-1.39c-.48,0-.85.13-1.11.4-.26.27-.39.63-.39,1.11v4.24c0,.12-.04.21-.12.29s-.17.11-.28.11h-1.7Z" fill="#1c2126"/><path d="M1169.72,618.56c-.53,0-1.01-.09-1.42-.26s-.77-.43-1.06-.77c-.29-.34-.51-.74-.66-1.2-.15-.46-.24-.98-.27-1.54-.01-.2-.02-.39-.02-.55s0-.34.02-.54c.02-.55.11-1.06.26-1.52.15-.46.37-.86.66-1.19.28-.34.63-.6,1.06-.78.42-.19.9-.28,1.43-.28s1.03.09,1.42.28c.39.19.72.42.98.71v-3.47c0-.12.04-.21.11-.29.07-.07.17-.11.29-.11h1.65c.12,0,.21.04.29.11.08.08.11.17.11.29v10.56c0,.12-.04.21-.11.29s-.17.11-.29.11h-1.54c-.11,0-.2-.04-.27-.11-.07-.07-.11-.17-.11-.29v-.54c-.27.32-.6.58-1.01.79-.41.21-.91.31-1.52.31ZM1170.45,616.64c.39,0,.71-.09.95-.27s.42-.41.53-.69c.11-.28.17-.58.18-.9.02-.2.03-.41.03-.61s-.01-.4-.03-.59c-.01-.3-.08-.58-.2-.84-.12-.26-.3-.48-.54-.65-.23-.17-.54-.26-.93-.26-.41,0-.73.09-.96.26s-.4.41-.5.7c-.1.29-.16.6-.18.94-.02.33-.02.66,0,.99.02.34.08.66.18.95.1.29.27.52.5.7s.55.26.96.26Z" fill="#1c2126"/><path d="M1179.86,618.56c-.66,0-1.23-.08-1.7-.23s-.86-.34-1.15-.57c-.29-.22-.51-.45-.66-.68-.14-.23-.22-.42-.23-.58,0-.12.03-.21.11-.29s.17-.11.26-.11h1.55s.08,0,.1.02c.03,0,.06.04.1.08.14.1.28.21.42.33s.32.23.52.31c.2.09.45.13.74.13.35,0,.65-.07.89-.22.24-.14.36-.35.36-.62,0-.19-.05-.35-.16-.48-.11-.13-.31-.24-.62-.35s-.77-.22-1.38-.35c-.58-.13-1.07-.3-1.47-.51-.4-.21-.71-.48-.91-.81-.2-.33-.3-.72-.3-1.18,0-.42.13-.82.39-1.2.26-.38.65-.7,1.16-.95.51-.25,1.15-.38,1.92-.38.59,0,1.1.07,1.54.22.44.14.81.33,1.11.54s.53.44.68.67c.15.23.24.43.25.6.01.12-.02.21-.1.29-.07.08-.16.11-.26.11h-1.42c-.05,0-.1-.01-.14-.03-.04-.02-.08-.05-.11-.08-.13-.07-.26-.17-.39-.29-.13-.12-.29-.22-.47-.3-.18-.08-.42-.13-.71-.13-.34,0-.61.08-.79.23-.19.16-.28.35-.28.58,0,.15.05.29.14.42.1.13.29.25.58.35.29.11.75.22,1.37.34.73.13,1.3.32,1.73.58.43.26.73.55.91.89s.27.7.27,1.08c0,.5-.15.95-.44,1.34-.29.39-.73.69-1.3.91-.58.22-1.28.33-2.11.33Z" fill="#1c2126"/><polygon points="1093.31 614.96 1087.74 611.74 1082.16 614.96 1093.31 621.39 1104.46 614.96 1098.89 611.74 1093.31 614.96" fill="#b7303d" stroke="#1c2126" stroke-linejoin="round" stroke-width=".33"/><polygon points="1087.74 605.3 1087.74 611.74 1082.16 614.96 1082.16 608.52 1087.74 605.3" fill="#ea4f4b" stroke="#1c2126" stroke-linejoin="round" stroke-width=".33"/><polygon points="1087.74 605.3 1087.74 611.74 1093.31 614.96 1093.31 608.52 1087.74 605.3" fill="#ff6b60" stroke="#1c2126" stroke-linejoin="round" stroke-width=".33"/><polygon points="1098.89 605.3 1098.89 611.74 1093.31 614.96 1093.31 608.52 1098.89 605.3" fill="#ea4f4b" stroke="#1c2126" stroke-linejoin="round" stroke-width=".33"/><polygon points="1098.89 605.3 1098.89 611.74 1104.46 614.96 1104.46 608.52 1098.89 605.3" fill="#ff6b60" stroke="#1c2126" stroke-linejoin="round" stroke-width=".33"/></g></svg>