<svg xmlns="http://www.w3.org/2000/svg" xmlns:xlink="http://www.w3.org/1999/xlink" width="1200" height="630" viewBox="0 0 1200 630"><defs><clipPath id="a"><rect y="-732" width="1200" height="498.72" fill="none"/></clipPath><linearGradient id="b" x1="331.61" y1="414.5" x2="331.61" y2="306.05" gradientUnits="userSpaceOnUse"><stop offset="0" stop-color="#30c8c9"/><stop offset="1" stop-color="#5cebdf"/></linearGradient><linearGradient id="c" x1="137.3" y1="268.02" x2="137.3" y2="417" gradientUnits="userSpaceOnUse"><stop offset="0" stop-color="#ff6b60"/><stop offset="1" stop-color="#db4648"/></linearGradient><linearGradient id="d" x1="253.09" y1="323.04" x2="253.09" y2="289.05" xlink:href="#b"/><linearGradient id="e" x1="413.08" y1="324.38" x2="413.08" y2="290.39" xlink:href="#b"/><linearGradient id="f" x1="526.77" y1="268.02" x2="526.77" y2="414.5" xlink:href="#c"/></defs><rect width="1200" height="498.72" fill="#5cebdf"/><path d="M372.71,321.41a46,46,0,0,0-21.09,4.89,39.44,39.44,0,0,0-13.53,11.31l.34-13.7-11.82-15.37-29.73,15.37c-.28,5-.7,10-1.25,15.06s-1.18,10.08-1.87,15.06L269.88,414.5l11.83,15.37h43.21l9.35-59a21.59,21.59,0,0,1,5.82-12.05,15.8,15.8,0,0,1,11.64-4.57,9,9,0,0,1,7.48,3.43q2.7,3.43,1.45,11.32L339.28,414.5l11.82,15.37h43.22l9.56-60.46q3.94-24.72-4.37-36.36T372.71,321.41Z" fill="#1c2126" stroke="#1c2126" stroke-linejoin="round" stroke-width="2"/><path d="M166.43,366.71q-2.09,13.92-8.21,21.19t-18,7.27q-13.09,0-17.56-7.16t-2.39-20.47l13.3-84.15L121.78,268,88.72,283.39l-12.88,81Q72.1,387.91,78.64,403a43.06,43.06,0,0,0,21.3,22.23q14.76,7.17,35.53,7.16,23.47,0,38.85-7.27a54.55,54.55,0,0,0,24-21.61q8.63-14.33,12-35.32l13.5-84.77L212,268l-32.22,15.37Z" fill="#1c2126" stroke="#1c2126" stroke-linejoin="round" stroke-width="2"/><path d="M267.5,319.6a15.44,15.44,0,0,1,1.41-2.5,32.92,32.92,0,0,1,6.09-6.23L263.18,295.5s-9.13,5.93-10.52,7.61c-1.76,2.12,6.26,12.19,5.35,14.49S242,323,242,323l11.82,15.37H273l3-18.81-11.82-15.37Z" fill="#1c2126" stroke="#1c2126" stroke-linejoin="round" stroke-width="2"/><path d="M413.82,324.57h8.49c-.41.89-18.79-7.39-19.31-6.65l11.82,15.37,6,6.45a41,41,0,0,0,7-6.54,26,26,0,0,0,4-6.68,34.53,34.53,0,0,0,2-7.68L436,305.76l-11.82-15.37-7.35,15.37L402,309.2Z" fill="#1c2126" stroke="#1c2126" stroke-linejoin="round" stroke-width="2"/><polygon points="609.26 319.54 615.07 283.39 603.25 268.02 485.42 283.39 467.78 304.18 479.61 319.54 521.99 319.54 510.26 393.72 467.92 393.72 450.28 414.5 462.1 429.87 504.54 429.87 549.42 429.87 591.75 429.87 597.57 393.72 585.75 378.35 555.14 393.72 566.87 319.54 609.26 319.54" fill="#1c2126" stroke="#1c2126" stroke-linejoin="round" stroke-width="2"/><g clip-path="url(#a)"><rect x="523.49" y="371.54" width="200" height="200" transform="translate(-150.81 578.99) rotate(-45)" fill="#ff6b60"/><polyline points="626.32 610.13 623.49 612.96 620.66 610.13" fill="none" stroke="#1c2126" stroke-linejoin="round" stroke-width="2"/><line x1="615.23" y1="604.7" x2="487.62" y2="477.08" fill="none" stroke="#1c2126" stroke-linejoin="round" stroke-width="2" stroke-dasharray="7.68 7.68"/><polyline points="484.9 474.36 482.07 471.54 484.9 468.71" fill="none" stroke="#1c2126" stroke-linejoin="round" stroke-width="2"/><line x1="490.33" y1="463.28" x2="617.95" y2="335.66" fill="none" stroke="#1c2126" stroke-linejoin="round" stroke-width="2" stroke-dasharray="7.68 7.68"/><polyline points="620.66 332.94 623.49 330.11 626.32 332.94" fill="none" stroke="#1c2126" stroke-linejoin="round" stroke-width="2"/><line x1="631.75" y1="338.37" x2="759.37" y2="465.99" fill="none" stroke="#1c2126" stroke-linejoin="round" stroke-width="2" stroke-dasharray="7.68 7.68"/><polyline points="762.09 468.71 764.91 471.54 762.09 474.36" fill="none" stroke="#1c2126" stroke-linejoin="round" stroke-width="2"/><line x1="756.66" y1="479.79" x2="629.04" y2="607.41" fill="none" stroke="#1c2126" stroke-linejoin="round" stroke-width="2" stroke-dasharray="7.68 7.68"/><rect x="548.5" y="396.55" width="149.98" height="149.98" transform="translate(516.04 -302.77) rotate(45)" fill="#ffd3bf" stroke="#1c2126" stroke-linejoin="round" stroke-width="2"/><rect x="577.96" y="426" width="91.07" height="91.07" transform="translate(516.04 -302.77) rotate(45)" fill="#bffde7" stroke="#1c2126" stroke-linejoin="round" stroke-width="2" stroke-dasharray="8"/><rect x="604.07" y="452.11" width="38.85" height="38.85" transform="translate(516.04 -302.77) rotate(45)" fill="#30c8c9" stroke="#1c2126" stroke-linejoin="round" stroke-width="2"/></g><path d="M89.17,123.82v18.35H77.41V124L58.72,89H71.46l12,22.26L95.47,89h12.4Z" fill="#1c2126"/><path d="M142.31,122.63c0,11.7-7.5,20.52-20.59,20.52s-20.65-8.82-20.65-20.52,7.49-20.51,20.65-20.51S142.31,110.94,142.31,122.63Zm-29.83,0c0,6.44,3.57,10.58,9.24,10.58s9.17-4.14,9.17-10.58-3.5-10.57-9.17-10.57S112.48,116.19,112.48,122.63Z" fill="#1c2126"/><path d="M183.26,103v39.14H172.33V138a12.77,12.77,0,0,1-10.71,5.18c-8.61,0-14.21-6.44-14.21-18V103h10.92v20.09c0,5.95,2.73,9.31,6.93,9.31s7.07-3.57,7.07-9.24V103Z" fill="#1c2126"/><path d="M253.88,118.5H242.4a7.53,7.53,0,0,0-7.84-6.93c-5.18,0-8.75,4-8.75,11.06s3.57,11,8.75,11a7.53,7.53,0,0,0,7.84-6.86h11.48c-.27,9.11-8,16.39-19.32,16.39-12.6,0-20.16-8.19-20.16-20.52s7.56-20.51,20.16-20.51C245.83,102.12,253.61,109.33,253.88,118.5Z" fill="#1c2126"/><path d="M295.54,119.83v22.34H284.61V137.9c-2.73,3.15-7,5-12.74,5-8.19,0-13.3-4.13-13.3-10.92,0-6.17,4.06-10.86,14.28-12.61l11.76-2c0-3.78-2.38-5.95-6.79-5.95s-6.3,1.82-6.58,4.83H260.18c.21-7.21,6.09-13.93,17.64-13.93C289.09,102.33,295.54,108.63,295.54,119.83Zm-10.93,5.88v-.56l-9,1.47c-4.69.77-5.88,2.38-5.88,4.42,0,1.75,1.68,3,4.83,3C280.62,134,284.61,130.68,284.61,125.71Z" fill="#1c2126"/><path d="M339.64,120v22.13H328.71v-20c0-6-2.87-9.38-7.28-9.38s-7.56,3.64-7.56,9.31v20.1H303V103h10.92v4.41c2.17-3.15,6.16-5.32,11.13-5.32C333.89,102.12,339.64,108.49,339.64,120Z" fill="#1c2126"/><path d="M354.12,94.49c0,5.67-2.87,9.87-9.45,12l-1.47.49-1.68-5.18,1.47-.42c3.08-.91,4.69-2.24,5.32-4.27a7.75,7.75,0,0,1-1.33.14,5.62,5.62,0,0,1-6-5.6c0-3.36,2.45-5.81,6.16-5.81C351.53,85.81,354.12,89.24,354.12,94.49Z" fill="#1c2126"/><path d="M385,112.27h-8.47v29.9H365.6v-29.9h-7.35V103h7.35V90.71h10.92V103H385Z" fill="#1c2126"/><path d="M448,115.35H437.07c-.07-2.52-2.31-4.48-6-4.48s-5.46,1.33-5.46,3.15.84,2.73,5.25,3.5l5.25.84c10.08,1.68,12.74,6.23,12.74,12.18,0,7.64-6.09,12.47-17.15,12.47-11.9,0-17.85-5.67-17.85-13.51h10.85c.07,2.87,2.31,4.83,7.42,4.83,3.85,0,5.81-1.33,5.81-3.29s-1.12-3.16-5.67-3.93l-5.46-.91c-9.24-1.47-12.11-6.09-12.11-11.69,0-6.93,5.67-12.25,16.52-12.25S448,107.93,448,115.35Z" fill="#1c2126"/><path d="M494.82,122.63c0,13.24-7.14,20.52-17.29,20.52-5.46,0-9.52-2.1-12.11-5.6v17.92H454.5V103h10.92v4.62c2.59-3.43,6.65-5.53,12.11-5.53C487.68,102.12,494.82,109.33,494.82,122.63Zm-11.41.21c0-6.79-3.78-10.85-9-10.85s-9,4-9,10.85,3.64,10.92,9,10.92S483.41,129.71,483.41,122.84Z" fill="#1c2126"/><path d="M539.27,125.85H510.36c.56,4.69,3.71,7.91,8.89,7.91,3.85,0,6.44-1.26,7.63-3.5H538.5c-2.24,7.36-9.38,12.61-19.39,12.61-12.25,0-20.3-8.05-20.3-20.24s7.91-20.3,20.23-20.3,20.23,8,20.23,20.16Zm-28.77-7.49h17.22c-.77-4.41-4.2-6.93-8.68-6.93A8.58,8.58,0,0,0,510.5,118.36Z" fill="#1c2126"/><path d="M556.35,86.51v55.66H545.43V86.51Z" fill="#1c2126"/><path d="M576.09,86.51v55.66H565.17V86.51Z" fill="#1c2126"/><path d="M75.59,173v31.36c0,7.78,3.92,11.28,9.17,11.28s9.17-3.5,9.17-11.28V173h11.41V205c0,14.15-7.21,21.92-20.79,21.92S63.76,219.1,63.76,205V173Z" fill="#1c2126"/><path d="M150.63,204v22.13H139.71v-20c0-6-2.87-9.38-7.28-9.38s-7.56,3.64-7.56,9.31v20.1H114V187h10.92v4.41c2.17-3.15,6.16-5.32,11.13-5.32C144.89,186.12,150.63,192.49,150.63,204Z" fill="#1c2126"/><path d="M170.58,176a6.55,6.55,0,1,1-13.09,0,6.55,6.55,0,1,1,13.09,0Zm-1.05,10.15v40H158.61v-40a8.89,8.89,0,0,0,5.46,1.61A8.74,8.74,0,0,0,169.53,186.12Z" fill="#1c2126"/><path d="M214.33,202.5H202.85a7.53,7.53,0,0,0-7.84-6.93c-5.18,0-8.75,4-8.75,11.06s3.57,11,8.75,11a7.53,7.53,0,0,0,7.84-6.86h11.48c-.28,9.11-8.05,16.39-19.32,16.39-12.6,0-20.16-8.19-20.16-20.52s7.56-20.51,20.16-20.51C206.28,186.12,214.05,193.33,214.33,202.5Z" fill="#1c2126"/><path d="M259.62,206.63c0,11.7-7.49,20.52-20.58,20.52s-20.65-8.82-20.65-20.52,7.49-20.51,20.65-20.51S259.62,194.94,259.62,206.63Zm-29.82,0c0,6.44,3.57,10.58,9.24,10.58s9.17-4.14,9.17-10.58-3.5-10.57-9.17-10.57S229.8,200.19,229.8,206.63Z" fill="#1c2126"/><path d="M303.93,170.51v55.66H293v-4.62c-2.59,3.5-6.65,5.6-12.11,5.6-10.15,0-17.29-7.28-17.29-20.52s7.14-20.51,17.29-20.51c5.46,0,9.52,2.1,12.11,5.53V170.51ZM293,206.35c0-6.93-3.64-10.85-9-10.85s-9,4-9,10.85,3.78,10.86,9,10.86S293,213.28,293,206.35Z" fill="#1c2126"/><path d="M349.92,209.85H321c.56,4.69,3.71,7.91,8.89,7.91,3.85,0,6.44-1.26,7.63-3.5h11.62c-2.24,7.36-9.38,12.61-19.39,12.61-12.25,0-20.3-8.05-20.3-20.24s7.91-20.3,20.23-20.3,20.23,8,20.23,20.16Zm-28.77-7.49h17.22c-.77-4.41-4.2-6.93-8.68-6.93A8.58,8.58,0,0,0,321.15,202.36Z" fill="#1c2126"/><path d="M437.21,187l-11.48,39.14h-11l-7.91-24.86-8,24.86H388.14L376.66,187H387.3L394.65,212l7.7-24.92h9.38l7.63,24.78L426.71,187Z" fill="#1c2126"/><path d="M452.33,176a6.55,6.55,0,1,1-13.09,0,6.55,6.55,0,1,1,13.09,0Zm-1.05,10.15v40H440.36v-40a8.89,8.89,0,0,0,5.46,1.61A8.74,8.74,0,0,0,451.28,186.12Z" fill="#1c2126"/><path d="M484.67,196.27H476.2v29.9H465.28v-29.9h-7.35V187h7.35V174.71H476.2V187h8.47Z" fill="#1c2126"/><path d="M528.35,204v22.13H517.43v-20c0-6-2.87-9.38-7.28-9.38s-7.49,3.64-7.49,9.31l-.07-.49v20.59H491.67V170.51h10.92v20.93c2.17-3.15,6.09-5.32,11.13-5.32C522.61,186.12,528.35,192.49,528.35,204Z" fill="#1c2126"/><path d="M575,206.63c0,11.7-7.49,20.52-20.58,20.52s-20.65-8.82-20.65-20.52,7.49-20.51,20.65-20.51S575,194.94,575,206.63Zm-29.82,0c0,6.44,3.57,10.58,9.24,10.58s9.17-4.14,9.17-10.58-3.5-10.57-9.17-10.57S545.22,200.19,545.22,206.63Z" fill="#1c2126"/><path d="M616,187v39.14H605.07V222a12.79,12.79,0,0,1-10.71,5.18c-8.61,0-14.21-6.44-14.21-18V187h10.92v20.09c0,5.95,2.73,9.31,6.93,9.31s7.07-3.57,7.07-9.24V187Z" fill="#1c2126"/><path d="M648.75,196.27h-8.47v29.9H629.36v-29.9H622V187h7.35V174.71h10.92V187h8.47Z" fill="#1c2126"/><rect x="751.33" y="67.51" width="380.06" height="100.97" rx="9.52" fill="#1c2126" opacity="0.15"/><path d="M805.42,127.92v-36h9.41v36.56c0,13.16-7.61,20.94-20.5,20.94s-20.51-7.78-20.51-20.94V91.91h9.41v36c0,8.28,4,13,11.1,13S805.42,136.2,805.42,127.92Z"/><path d="M848,144.21h-8.48V127.33H822.69v-8.2h16.83V102.22H848v16.91h16.83v8.2H848Z"/><path d="M874.87,148.27v-7.93h15.75V101.59H890l-15.15,10v-9.18l15.86-10.46h9.21v48.43h15v7.93Z"/><path d="M927,148.27V91.91h34.65v8.24H936.44V117.1h23V125h-23v23.28Z"/><path d="M992.53,149.41c-12.11,0-20.55-8.25-20.55-20.12,0-6.72,2.31-12.89,7.85-20.82,1.29-2,11.1-15.24,12.15-16.56h10.75l-14.65,19.76a18.62,18.62,0,0,0-2.31,3.52l.71.15c1.91-2.18,5.62-3.63,9.18-3.63,10,0,17.34,7.66,17.34,18C1013,141.05,1004.29,149.41,992.53,149.41Zm11.17-19.3a11.25,11.25,0,1,0-11.25,11.29A11,11,0,0,0,1003.7,130.11Z"/><path d="M1021.28,120.07c0-18.83,7.3-29.38,20.35-29.38s20.31,10.55,20.31,29.38-7.3,29.41-20.31,29.41S1021.28,138.94,1021.28,120.07Zm9.34,3.36,20.78-15.24c-1.68-6.32-5-9.61-9.77-9.61-7.22,0-11.09,7.5-11.09,21.49C1030.54,121.24,1030.58,122.37,1030.62,123.43Zm22.07-3.36c0-1.13,0-2.27-.08-3.32L1031.87,132c1.68,6.29,5,9.57,9.76,9.57C1048.82,141.59,1052.69,134.09,1052.69,120.07Z"/><path d="M1088.82,91.91c15.86,0,24,9.49,24,27.89,0,18.86-8.08,28.47-24,28.47h-17.19V91.91ZM1081.08,140h6.57c10.62,0,15.54-6.29,15.54-20.08,0-13.4-5-19.8-15.54-19.8h-6.57Z"/><rect x="751.33" y="198.87" width="380.06" height="100.97" rx="9.52" fill="#1c2126" opacity="0.15"/><path d="M805.42,259.29v-36h9.41v36.56c0,13.17-7.61,20.94-20.5,20.94s-20.51-7.77-20.51-20.94V223.27h9.41v36c0,8.28,4,13,11.1,13S805.42,267.57,805.42,259.29Z"/><path d="M848,275.58h-8.48V258.7H822.69v-8.2h16.83V233.58H848V250.5h16.83v8.2H848Z"/><path d="M874.87,279.64v-7.93h15.75V233H890l-15.15,10v-9.18l15.86-10.47h9.21v48.44h15v7.93Z"/><path d="M927,279.64V223.27h34.65v8.24H936.44v17h23v7.89h-23v23.28Z"/><path d="M992.53,280.77c-12.11,0-20.55-8.24-20.55-20.11,0-6.72,2.31-12.9,7.85-20.83,1.29-2,11.1-15.23,12.15-16.56h10.75L988.08,243a18.71,18.71,0,0,0-2.31,3.51l.71.16c1.91-2.19,5.62-3.63,9.18-3.63,10,0,17.34,7.65,17.34,18C1013,272.41,1004.29,280.77,992.53,280.77Zm11.17-19.29a11.25,11.25,0,1,0-11.25,11.28A11,11,0,0,0,1003.7,261.48Z"/><path d="M1021.28,251.44c0-18.83,7.3-29.38,20.35-29.38s20.31,10.55,20.31,29.38-7.3,29.41-20.31,29.41S1021.28,270.3,1021.28,251.44Zm9.34,3.36,20.78-15.24c-1.68-6.33-5-9.61-9.77-9.61-7.22,0-11.09,7.5-11.09,21.49C1030.54,252.61,1030.58,253.74,1030.62,254.8Zm22.07-3.36c0-1.14,0-2.27-.08-3.32l-20.74,15.27c1.68,6.29,5,9.57,9.76,9.57C1048.82,273,1052.69,265.46,1052.69,251.44Z"/><path d="M1088.82,223.27c15.86,0,24,9.49,24,27.89,0,18.87-8.08,28.48-24,28.48h-17.19V223.27Zm-7.74,48.13h6.57c10.62,0,15.54-6.29,15.54-20.08,0-13.4-5-19.81-15.54-19.81h-6.57Z"/><rect x="751.33" y="330.24" width="380.06" height="100.97" rx="9.52" fill="#1c2126" opacity="0.15"/><path d="M805.42,390.65v-36h9.41V391.2c0,13.17-7.61,20.94-20.5,20.94s-20.51-7.77-20.51-20.94V354.64h9.41v36c0,8.29,4,13,11.1,13S805.42,398.94,805.42,390.65Z"/><path d="M848,406.94h-8.48V390.07H822.69v-8.2h16.83V365H848v16.92h16.83v8.2H848Z"/><path d="M874.87,411v-7.93h15.75V364.33H890l-15.15,10v-9.18l15.86-10.47h9.21v48.44h15V411Z"/><path d="M927,411V354.64h34.65v8.24H936.44v16.95h23v7.89h-23V411Z"/><path d="M992.53,412.14C980.42,412.14,972,403.9,972,392c0-6.72,2.31-12.89,7.85-20.82,1.29-1.95,11.1-15.23,12.15-16.56h10.75L988.08,374.4a19,19,0,0,0-2.31,3.52l.71.16c1.91-2.19,5.62-3.64,9.18-3.64,10,0,17.34,7.66,17.34,18C1013,403.78,1004.29,412.14,992.53,412.14Zm11.17-19.3a11.25,11.25,0,1,0-11.25,11.29A11,11,0,0,0,1003.7,392.84Z"/><path d="M1021.28,382.8c0-18.83,7.3-29.37,20.35-29.37s20.31,10.54,20.31,29.37-7.3,29.42-20.31,29.42S1021.28,401.67,1021.28,382.8Zm9.34,3.36,20.78-15.23c-1.68-6.33-5-9.61-9.77-9.61-7.22,0-11.09,7.5-11.09,21.48C1030.54,384,1030.58,385.11,1030.62,386.16Zm22.07-3.36c0-1.13,0-2.26-.08-3.32l-20.74,15.28c1.68,6.28,5,9.57,9.76,9.57C1048.82,404.33,1052.69,396.83,1052.69,382.8Z"/><path d="M1088.82,354.64c15.86,0,24,9.49,24,27.89,0,18.87-8.08,28.48-24,28.48h-17.19V354.64Zm-7.74,48.12h6.57c10.62,0,15.54-6.29,15.54-20.07,0-13.4-5-19.81-15.54-19.81h-6.57Z"/><path d="M271.7,49.18a8.61,8.61,0,0,0-2.91-2.51c-1.94-1.17-4.19-2.15-6.42-1.74s-4.16,2.27-5.45,4.27A19.47,19.47,0,0,0,254.43,55a15.69,15.69,0,0,0-6.81-5.56,9.8,9.8,0,0,0-8.69.59,7.18,7.18,0,0,0-3.18,7.79c.82,2.76,3.42,4.56,5.85,6.11q9.12,5.82,18.41,11.35,4.85-7.72,9.7-15.46C271.75,56.61,273.8,52.4,271.7,49.18Z" fill="#ff6b60" stroke="#1c2126" stroke-linejoin="round" stroke-width="2"/><path d="M686.44,271.11a8.66,8.66,0,0,0-.73-3.77c-.81-2.12-2-4.27-4-5.33s-4.69-.78-6.93,0a19.36,19.36,0,0,0-5.56,3.06,15.75,15.75,0,0,0-1.93-8.58,9.83,9.83,0,0,0-7.2-4.89,7.17,7.17,0,0,0-7.31,4.16c-1.06,2.69-.12,5.7.83,8.43q3.58,10.2,7.49,20.29l17.17-6.19C681.9,277,686.12,274.94,686.44,271.11Z" fill="#ff6b60" stroke="#1c2126" stroke-linejoin="round" stroke-width="2"/><path d="M360.89,306.05a46,46,0,0,0-21.09,4.88,39.27,39.27,0,0,0-13.53,11.32l.34-13.71H285.05q-.42,7.48-1.24,15.06t-1.87,15.07L269.88,414.5H313.1l9.35-59a21.52,21.52,0,0,1,5.82-12.05,15.79,15.79,0,0,1,11.64-4.57,9,9,0,0,1,7.47,3.43q2.7,3.43,1.46,11.33l-9.56,60.87H382.5L392.06,354q3.94-24.72-4.37-36.36T360.89,306.05Z" stroke="#1c2126" stroke-linejoin="round" stroke-width="2" fill="url(#b)"/><path d="M154.61,351.34q-2.09,13.92-8.21,21.19t-18,7.28q-13.09,0-17.56-7.17t-2.39-20.47L121.78,268H76.9L64,349.05q-3.75,23.49,2.8,38.55a43,43,0,0,0,21.3,22.23Q102.87,417,123.65,417q23.47,0,38.85-7.28a54.59,54.59,0,0,0,24-21.6q8.63-14.34,11.95-35.33L212,268h-44Z" stroke="#1c2126" stroke-linejoin="round" stroke-width="2" fill="url(#c)"/><path d="M255.68,304.23a15.44,15.44,0,0,1,1.41-2.5,32.92,32.92,0,0,1,6.09-6.23l-6-6.45a44.24,44.24,0,0,0-7,6.55,24.44,24.44,0,0,0-4,6.63A38.39,38.39,0,0,0,244.1,310L242,323h19.17l3-18.81Z" stroke="#1c2126" stroke-linejoin="round" stroke-width="2" fill="url(#d)"/><path d="M402,309.2h8.49a14.92,14.92,0,0,1-1.41,2.45,35.75,35.75,0,0,1-6.08,6.27l6,6.46a40.73,40.73,0,0,0,7.05-6.55,25.93,25.93,0,0,0,4-6.68,34.59,34.59,0,0,0,2.05-7.67l2.09-13.09H405Z" stroke="#1c2126" stroke-linejoin="round" stroke-width="2" fill="url(#e)"/><polygon points="597.43 304.18 603.25 268.02 473.6 268.02 467.78 304.18 510.17 304.18 498.44 378.35 456.1 378.35 450.28 414.5 492.72 414.5 537.6 414.5 579.93 414.5 585.75 378.35 543.32 378.35 555.05 304.18 597.43 304.18" stroke="#1c2126" stroke-linejoin="round" stroke-width="2" fill="url(#f)"/><line x1="385.99" y1="315.54" x2="396.62" y2="329.74" fill="#1c2126" stroke="#1c2126" stroke-linejoin="round" stroke-width="2"/><line x1="75.42" y1="400.6" x2="82.75" y2="410.39" fill="#1c2126" stroke="#1c2126" stroke-linejoin="round" stroke-width="2"/><polyline points="89.63 274.85 82.99 274.85 75.82 319.85" fill="none" stroke="#ffd3bf" stroke-linecap="round" stroke-linejoin="round" stroke-width="2"/><polyline points="299.73 315 293.09 315 285.92 360" fill="none" stroke="#fff" stroke-linecap="round" stroke-linejoin="round" stroke-width="2"/><polyline points="379.24 387.97 376.18 407.19 367.62 407.19" fill="none" stroke="#fff" stroke-linecap="round" stroke-linejoin="round" stroke-width="2"/><polyline points="576.57 387.97 573.51 407.19 564.96 407.19" fill="none" stroke="#ffd3bf" stroke-linecap="round" stroke-linejoin="round" stroke-width="2"/><polyline points="485.84 274.47 479.21 274.47 475.62 296.97" fill="none" stroke="#ffd3bf" stroke-linecap="round" stroke-linejoin="round" stroke-width="2"/><rect y="595" width="1200" height="35" fill="#fff"/><rect y="499.19" width="1200" height="95.81" fill="#fff"/><line y1="499.19" x2="1200" y2="499.19" fill="none" stroke="#1c2126" stroke-miterlimit="10"/><line y1="595" x2="1200" y2="595" fill="none" stroke="#1c2126" stroke-miterlimit="10"/><path d="M24.24,559.45V540.69H17.85v-2.37H33.21v2.37H26.82v18.76Z" fill="#1c2126"/><path d="M44.08,559.89c-4.81,0-7.75-3.45-7.75-9.3v-3.41c0-5.85,2.94-9.3,7.75-9.3s7.74,3.45,7.74,9.3v3.41C51.82,556.44,48.88,559.89,44.08,559.89Zm5.14-9.31v-3.39c0-4.41-1.94-6.87-5.14-6.87s-5.15,2.46-5.15,6.87v3.39c0,4.41,1.94,6.87,5.15,6.87S49.22,555,49.22,550.58Z" fill="#1c2126"/><path d="M60,545.58a2.65,2.65,0,1,1,2.65,2.71A2.7,2.7,0,0,1,60,545.58Zm0,11.25a2.65,2.65,0,1,1,2.65,2.71A2.68,2.68,0,0,1,60,556.83Z" fill="#1c2126"/><line x1="582.03" y1="498.72" x2="582.03" y2="595" fill="none" stroke="#1c2126" stroke-miterlimit="10"/><path d="M1129.73,614.6a4.72,4.72,0,1,1-4.71-4.69A4.43,4.43,0,0,1,1129.73,614.6Zm-6.82,0A2.12,2.12,0,0,0,1125,617c1.3,0,2.1-.94,2.1-2.41s-.8-2.42-2.1-2.42S1122.91,613.12,1122.91,614.6Z" fill="#1c2126"/><path d="M1138.54,612.93H1136c0-.57-.52-1-1.37-1s-1.25.3-1.25.72.19.62,1.2.8l1.2.19c2.3.39,2.91,1.43,2.91,2.79,0,1.74-1.39,2.85-3.92,2.85-2.72,0-4.08-1.3-4.08-3.09h2.48c0,.65.53,1.1,1.7,1.1.88,0,1.33-.3,1.33-.75s-.26-.72-1.3-.9l-1.25-.21c-2.11-.33-2.77-1.39-2.77-2.67,0-1.58,1.3-2.8,3.78-2.8S1138.54,611.24,1138.54,612.93Z" fill="#1c2126"/><path d="M1147.49,612.93H1145c0-.57-.53-1-1.38-1s-1.25.3-1.25.72.2.62,1.2.8l1.21.19c2.3.39,2.91,1.43,2.91,2.79,0,1.74-1.39,2.85-3.92,2.85-2.72,0-4.09-1.3-4.09-3.09h2.49c0,.65.52,1.1,1.69,1.1.88,0,1.33-.3,1.33-.75s-.25-.72-1.3-.9l-1.24-.21c-2.12-.33-2.77-1.39-2.77-2.67,0-1.58,1.29-2.8,3.77-2.8S1147.49,611.24,1147.49,612.93Z" fill="#1c2126"/><path d="M1152,617.64a1.6,1.6,0,1,1-1.6-1.62A1.55,1.55,0,0,1,1152,617.64Z" fill="#1c2126"/><path d="M1156.27,606.34v12.72h-2.5V606.34Z" fill="#1c2126"/><path d="M1167,614.6a4.71,4.71,0,1,1-4.7-4.69A4.42,4.42,0,0,1,1167,614.6Zm-6.81,0a2.12,2.12,0,0,0,2.11,2.41c1.29,0,2.1-.94,2.1-2.41s-.81-2.42-2.1-2.42S1160.16,613.12,1160.16,614.6Z" fill="#1c2126"/><path d="M1176.59,610.12l-3.26,8.94h-3l-3.28-8.94h2.64l2.16,6.32,2.16-6.32Z" fill="#1c2126"/><path d="M1186.06,615.33h-6.61a1.92,1.92,0,0,0,2,1.81,1.82,1.82,0,0,0,1.75-.8h2.66a5,5,0,1,1,.17-1.77Zm-6.58-1.71h3.94a1.87,1.87,0,0,0-2-1.58A2,2,0,0,0,1179.48,613.62Z" fill="#1c2126"/><path d="M605.51,559.45V538.32H618v2.37H608.1v7.25h9v2.3h-9v9.21Z" fill="#1c2126"/><path d="M625.54,551v8.42H623V538.32h7.09c4.19,0,6.81,2.43,6.81,6.35A5.91,5.91,0,0,1,633,550.5l4.3,9h-2.91L630.41,551Zm0-2.18h4.19c2.92,0,4.56-1.48,4.56-4.12s-1.61-4.11-4.44-4.11h-4.31Z" fill="#1c2126"/><path d="M648.15,559.89c-4.81,0-7.75-3.45-7.75-9.3v-3.41c0-5.85,2.94-9.3,7.75-9.3s7.75,3.45,7.75,9.3v3.41C655.9,556.44,653,559.89,648.15,559.89Zm5.14-9.31v-3.39c0-4.41-1.93-6.87-5.14-6.87s-5.14,2.46-5.14,6.87v3.39c0,4.41,1.93,6.87,5.14,6.87S653.29,555,653.29,550.58Z" fill="#1c2126"/><path d="M661.38,559.45h-2.3V538.32H662l4.64,13.12h.19l4.62-13.12h2.9v21.13H672v-8.11l.13-8.56H672l-4.25,11.71h-2l-4.25-11.71h-.19l.14,8.56Z" fill="#1c2126"/><path d="M682.59,545.58a2.65,2.65,0,1,1,2.65,2.71A2.7,2.7,0,0,1,682.59,545.58Zm0,11.25a2.65,2.65,0,1,1,2.65,2.71A2.68,2.68,0,0,1,682.59,556.83Z" fill="#1c2126"/><path d="M27.75,606.92v12.14H25v-2.13l-4.7-5.41v7.54H17.63V606.92H20L25,612.77v-5.85Z" fill="#1c2126"/><path d="M38.37,615.33H31.76a1.92,1.92,0,0,0,2,1.81,1.81,1.81,0,0,0,1.74-.8H38.2a4.35,4.35,0,0,1-4.44,2.88,4.63,4.63,0,1,1,0-9.26,4.32,4.32,0,0,1,4.62,4.61Zm-6.58-1.71h3.94a1.87,1.87,0,0,0-2-1.58A2,2,0,0,0,31.79,613.62Z" fill="#1c2126"/><path d="M44.93,612.23H43v6.83H40.5v-6.83H38.82v-2.11H40.5V607.3H43v2.82h1.93Z" fill="#1c2126"/><path d="M48.9,606.34v12.72H46.4V606.34Z" fill="#1c2126"/><path d="M53.62,607.59a1.5,1.5,0,1,1-3,0,1.5,1.5,0,1,1,3,0Zm-.24,2.32v9.15h-2.5v-9.15a2.06,2.06,0,0,0,1.25.37A2,2,0,0,0,53.38,609.91Z" fill="#1c2126"/><path d="M58.55,609v1.09h1.87v2.11H58.55v6.83h-2.5v-6.83H54.61v-2.11h1.44V609a2.62,2.62,0,0,1,2.88-2.83h1.75v1.94H59.44A.78.78,0,0,0,58.55,609Z" fill="#1c2126"/><path d="M70.71,610.12l-5,11.89H63.33l1.38-3.28-3.49-8.61h2.51L66,615.69l2.32-5.57Z" fill="#1c2126"/><path d="M109.4,613c0,3.92-2.34,6.22-5.8,6.22s-5.79-2.3-5.79-6.22,2.33-6.25,5.79-6.25S109.4,609.08,109.4,613Zm-8.79,0c0,2.35,1.3,3.66,3,3.66s3-1.31,3-3.66-1.32-3.67-3-3.67S100.61,610.63,100.61,613Z" fill="#1c2126"/><path d="M120.32,610.53h-2.8c0-.89-.67-1.52-1.85-1.52s-1.7.55-1.7,1.23.38,1,1.49,1.3l1.37.32c2.64.59,3.73,1.73,3.73,3.73s-1.6,3.63-4.73,3.63-4.9-1.61-4.9-4h2.8a1.88,1.88,0,0,0,2.11,1.84c1.27,0,1.92-.63,1.92-1.44s-.38-1.09-1.57-1.35l-1.32-.27c-2.77-.56-3.72-1.87-3.72-3.73,0-2.06,1.6-3.54,4.58-3.54S120.32,608.29,120.32,610.53Z" fill="#1c2126"/><path d="M131.38,610.53h-2.8c0-.89-.67-1.52-1.86-1.52-1,0-1.69.55-1.69,1.23s.38,1,1.48,1.3l1.38.32c2.64.59,3.73,1.73,3.73,3.73s-1.6,3.63-4.74,3.63-4.9-1.61-4.9-4h2.81a1.88,1.88,0,0,0,2.11,1.84c1.26,0,1.92-.63,1.92-1.44s-.39-1.09-1.57-1.35l-1.33-.27c-2.77-.56-3.71-1.87-3.71-3.73,0-2.06,1.6-3.54,4.58-3.54S131.38,608.29,131.38,610.53Z" fill="#1c2126"/><path d="M91.16,610.11a3.62,3.62,0,0,0-1-1.22,3.91,3.91,0,0,0-2.49-1.14,3.62,3.62,0,0,0-2.51,1.37,8,8,0,0,0-1.41,2.21,6.53,6.53,0,0,0-2.39-2.73,4.09,4.09,0,0,0-3.58-.35,3,3,0,0,0-1.82,3,5,5,0,0,0,2,2.88q3.32,3,6.72,5.87l5-5.64C90.67,613.14,91.8,611.56,91.16,610.11Z" fill="#ff6b60" stroke="#ff6b60" stroke-linejoin="round"/></svg>