<svg xmlns="http://www.w3.org/2000/svg" xmlns:xlink="http://www.w3.org/1999/xlink" width="1200" height="630" viewBox="0 0 1200 630"><defs><clipPath id="a"><rect y="-732" width="1200" height="498.72" fill="none"/></clipPath><linearGradient id="b" x1="332.4" y1="414.5" x2="332.4" y2="306.05" gradientUnits="userSpaceOnUse"><stop offset="0" stop-color="#30c8c9"/><stop offset="1" stop-color="#5cebdf"/></linearGradient><linearGradient id="c" x1="138.1" y1="268.02" x2="138.1" y2="417" gradientUnits="userSpaceOnUse"><stop offset="0" stop-color="#ff6b60"/><stop offset="1" stop-color="#db4648"/></linearGradient><linearGradient id="d" x1="253.88" y1="323.04" x2="253.88" y2="289.05" xlink:href="#b"/><linearGradient id="e" x1="413.87" y1="324.38" x2="413.87" y2="290.39" xlink:href="#b"/><linearGradient id="f" x1="527.56" y1="268.02" x2="527.56" y2="414.5" xlink:href="#c"/></defs><rect x="-2510.07" y="-821.85" width="6221.73" height="2273.11" fill="#a6a6a6"/><rect width="1200" height="498.72" fill="#5cebdf"/><path d="M373.5,321.41a46,46,0,0,0-21.09,4.89,39.44,39.44,0,0,0-13.53,11.31l.34-13.7L327.4,308.54l-29.73,15.37c-.28,5-.7,10-1.25,15.06s-1.18,10.08-1.87,15.06L270.68,414.5l11.82,15.37h43.22l9.35-59a21.51,21.51,0,0,1,5.81-12.05,15.8,15.8,0,0,1,11.64-4.57,9,9,0,0,1,7.48,3.43q2.7,3.43,1.45,11.32L340.07,414.5l11.83,15.37h43.21l9.56-60.46q3.94-24.72-4.36-36.36T373.5,321.41Z" fill="#1c2126" stroke="#1c2126" stroke-linejoin="round" stroke-width="2"/><path d="M167.22,366.71q-2.08,13.92-8.21,21.19t-18,7.27q-13.09,0-17.56-7.16t-2.39-20.47l13.3-84.15L122.57,268,89.51,283.39l-12.88,81Q72.9,387.91,79.43,403a43.06,43.06,0,0,0,21.3,22.23q14.76,7.17,35.53,7.16,23.48,0,38.85-7.27a54.55,54.55,0,0,0,24-21.61q8.63-14.33,11.95-35.32l13.51-84.77L212.74,268l-32.22,15.37Z" fill="#1c2126" stroke="#1c2126" stroke-linejoin="round" stroke-width="2"/><path d="M268.29,319.6a15.44,15.44,0,0,1,1.41-2.5,32.92,32.92,0,0,1,6.09-6.23L264,295.5s-9.13,5.93-10.52,7.61c-1.76,2.12,6.26,12.19,5.35,14.49s-16,5.44-16,5.44l11.82,15.37h19.17l3-18.81L265,304.23Z" fill="#1c2126" stroke="#1c2126" stroke-linejoin="round" stroke-width="2"/><path d="M414.61,324.57h8.49c-.41.89-18.79-7.39-19.31-6.65l11.82,15.37,6,6.45a41,41,0,0,0,7-6.54,25.69,25.69,0,0,0,4-6.68,34,34,0,0,0,2-7.68l2.09-13.08L425,290.39l-7.35,15.37-14.82,3.44Z" fill="#1c2126" stroke="#1c2126" stroke-linejoin="round" stroke-width="2"/><polygon points="610.05 319.54 615.87 283.39 604.04 268.02 486.21 283.39 468.57 304.18 480.4 319.54 522.78 319.54 511.05 393.72 468.71 393.72 451.07 414.5 462.89 429.87 505.33 429.87 550.21 429.87 592.54 429.87 598.36 393.72 586.54 378.35 555.93 393.72 567.66 319.54 610.05 319.54" fill="#1c2126" stroke="#1c2126" stroke-linejoin="round" stroke-width="2"/><g clip-path="url(#a)"><rect x="364.53" y="-106.49" width="200" height="200" transform="translate(140.65 326.57) rotate(-45)" fill="#ff6b60"/><polyline points="467.36 132.1 464.53 134.93 461.7 132.1" fill="none" stroke="#1c2126" stroke-linejoin="round" stroke-width="2"/><line x1="456.27" y1="126.67" x2="328.65" y2="-0.94" fill="none" stroke="#1c2126" stroke-linejoin="round" stroke-width="2" stroke-dasharray="7.68 7.68"/><line x1="597.69" y1="1.77" x2="470.07" y2="129.39" fill="none" stroke="#1c2126" stroke-linejoin="round" stroke-width="2" stroke-dasharray="7.68 7.68"/><rect x="389.54" y="-81.48" width="149.98" height="149.98" transform="translate(131.47 -330.37) rotate(45)" fill="#ffd3bf" stroke="#1c2126" stroke-linejoin="round" stroke-width="2"/><rect x="418.99" y="-52.02" width="91.07" height="91.07" transform="translate(131.47 -330.37) rotate(45)" fill="#bffde7" stroke="#1c2126" stroke-linejoin="round" stroke-width="2" stroke-dasharray="8"/><rect x="445.1" y="-25.91" width="38.85" height="38.85" transform="translate(131.47 -330.37) rotate(45)" fill="#30c8c9" stroke="#1c2126" stroke-linejoin="round" stroke-width="2"/><rect x="46.34" y="-105.62" width="200" height="200" transform="translate(46.83 101.83) rotate(-45)" fill="#ff6b60"/><polyline points="149.17 132.97 146.34 135.8 143.51 132.97" fill="none" stroke="#1c2126" stroke-linejoin="round" stroke-width="2"/><line x1="138.08" y1="127.54" x2="10.46" y2="-0.07" fill="none" stroke="#1c2126" stroke-linejoin="round" stroke-width="2" stroke-dasharray="7.68 7.68"/><line x1="279.5" y1="2.64" x2="151.88" y2="130.26" fill="none" stroke="#1c2126" stroke-linejoin="round" stroke-width="2" stroke-dasharray="7.68 7.68"/><rect x="71.35" y="-80.61" width="149.98" height="149.98" transform="translate(38.89 -105.12) rotate(45)" fill="#ffd3bf" stroke="#1c2126" stroke-linejoin="round" stroke-width="2"/><rect x="100.8" y="-51.15" width="91.07" height="91.07" transform="translate(38.89 -105.12) rotate(45)" fill="#bffde7" stroke="#1c2126" stroke-linejoin="round" stroke-width="2" stroke-dasharray="8"/><rect x="126.91" y="-25.04" width="38.85" height="38.85" transform="translate(38.89 -105.12) rotate(45)" fill="#30c8c9" stroke="#1c2126" stroke-linejoin="round" stroke-width="2"/><rect x="205" y="53.04" width="200" height="200" transform="translate(-18.88 260.49) rotate(-45)" fill="#ff6b60"/><polyline points="307.83 291.63 305 294.46 302.17 291.63" fill="none" stroke="#1c2126" stroke-linejoin="round" stroke-width="2"/><line x1="296.74" y1="286.2" x2="169.12" y2="158.59" fill="none" stroke="#1c2126" stroke-linejoin="round" stroke-width="2" stroke-dasharray="7.68 7.68"/><polyline points="166.41 155.87 163.58 153.04 166.41 150.21" fill="none" stroke="#1c2126" stroke-linejoin="round" stroke-width="2"/><line x1="171.84" y1="144.78" x2="299.46" y2="17.16" fill="none" stroke="#1c2126" stroke-linejoin="round" stroke-width="2" stroke-dasharray="7.68 7.68"/><polyline points="302.17 14.45 305 11.62 307.83 14.45" fill="none" stroke="#1c2126" stroke-linejoin="round" stroke-width="2"/><line x1="313.26" y1="19.88" x2="440.88" y2="147.5" fill="none" stroke="#1c2126" stroke-linejoin="round" stroke-width="2" stroke-dasharray="7.68 7.68"/><polyline points="443.59 150.21 446.42 153.04 443.59 155.87" fill="none" stroke="#1c2126" stroke-linejoin="round" stroke-width="2"/><line x1="438.16" y1="161.3" x2="310.54" y2="288.92" fill="none" stroke="#1c2126" stroke-linejoin="round" stroke-width="2" stroke-dasharray="7.68 7.68"/><rect x="230.01" y="78.05" width="149.98" height="149.98" transform="translate(197.55 -170.84) rotate(45)" fill="#ffd3bf" stroke="#1c2126" stroke-linejoin="round" stroke-width="2"/><rect x="259.46" y="107.51" width="91.07" height="91.07" transform="translate(197.55 -170.84) rotate(45)" fill="#bffde7" stroke="#1c2126" stroke-linejoin="round" stroke-width="2" stroke-dasharray="8"/><rect x="285.57" y="133.62" width="38.85" height="38.85" transform="translate(197.55 -170.84) rotate(45)" fill="#30c8c9" stroke="#1c2126" stroke-linejoin="round" stroke-width="2"/><rect x="683.89" y="-106.18" width="200" height="200" transform="translate(233.97 552.49) rotate(-45)" fill="#ff6b60"/><polyline points="786.72 132.41 783.89 135.24 781.07 132.41" fill="none" stroke="#1c2126" stroke-linejoin="round" stroke-width="2"/><line x1="775.63" y1="126.98" x2="648.02" y2="-0.64" fill="none" stroke="#1c2126" stroke-linejoin="round" stroke-width="2" stroke-dasharray="7.68 7.68"/><line x1="917.06" y1="2.08" x2="789.44" y2="129.69" fill="none" stroke="#1c2126" stroke-linejoin="round" stroke-width="2" stroke-dasharray="7.68 7.68"/><rect x="708.9" y="-81.17" width="149.98" height="149.98" transform="translate(225.22 -556.11) rotate(45)" fill="#ffd3bf" stroke="#1c2126" stroke-linejoin="round" stroke-width="2"/><rect x="738.36" y="-51.72" width="91.07" height="91.07" transform="translate(225.22 -556.11) rotate(45)" fill="#bffde7" stroke="#1c2126" stroke-linejoin="round" stroke-width="2" stroke-dasharray="8"/><rect x="764.47" y="-25.61" width="38.85" height="38.85" transform="translate(225.22 -556.11) rotate(45)" fill="#30c8c9" stroke="#1c2126" stroke-linejoin="round" stroke-width="2"/><rect x="524.36" y="53.35" width="200" height="200" transform="translate(74.44 486.41) rotate(-45)" fill="#ff6b60"/><polyline points="627.19 291.94 624.36 294.77 621.53 291.94" fill="none" stroke="#1c2126" stroke-linejoin="round" stroke-width="2"/><line x1="616.1" y1="286.51" x2="488.49" y2="158.89" fill="none" stroke="#1c2126" stroke-linejoin="round" stroke-width="2" stroke-dasharray="7.68 7.68"/><polyline points="485.77 156.17 482.94 153.35 485.77 150.52" fill="none" stroke="#1c2126" stroke-linejoin="round" stroke-width="2"/><line x1="491.2" y1="145.09" x2="618.82" y2="17.47" fill="none" stroke="#1c2126" stroke-linejoin="round" stroke-width="2" stroke-dasharray="7.68 7.68"/><polyline points="621.53 14.75 624.36 11.93 627.19 14.75" fill="none" stroke="#1c2126" stroke-linejoin="round" stroke-width="2"/><line x1="632.62" y1="20.18" x2="760.24" y2="147.8" fill="none" stroke="#1c2126" stroke-linejoin="round" stroke-width="2" stroke-dasharray="7.68 7.68"/><polyline points="762.96 150.52 765.78 153.35 762.96 156.17" fill="none" stroke="#1c2126" stroke-linejoin="round" stroke-width="2"/><line x1="757.53" y1="161.6" x2="629.91" y2="289.22" fill="none" stroke="#1c2126" stroke-linejoin="round" stroke-width="2" stroke-dasharray="7.68 7.68"/><rect x="549.37" y="78.36" width="149.98" height="149.98" transform="translate(291.3 -396.58) rotate(45)" fill="#ffd3bf" stroke="#1c2126" stroke-linejoin="round" stroke-width="2"/><rect x="578.83" y="107.81" width="91.07" height="91.07" transform="translate(291.3 -396.58) rotate(45)" fill="#bffde7" stroke="#1c2126" stroke-linejoin="round" stroke-width="2" stroke-dasharray="8"/><rect x="604.94" y="133.92" width="38.85" height="38.85" transform="translate(291.3 -396.58) rotate(45)" fill="#30c8c9" stroke="#1c2126" stroke-linejoin="round" stroke-width="2"/><rect x="683.02" y="212.01" width="200" height="200" transform="translate(8.72 645.06) rotate(-45)" fill="#ff6b60"/><polyline points="785.85 450.6 783.02 453.43 780.19 450.6" fill="none" stroke="#1c2126" stroke-linejoin="round" stroke-width="2"/><line x1="774.76" y1="445.17" x2="647.15" y2="317.55" fill="none" stroke="#1c2126" stroke-linejoin="round" stroke-width="2" stroke-dasharray="7.68 7.68"/><polyline points="644.43 314.83 641.6 312 644.43 309.18" fill="none" stroke="#1c2126" stroke-linejoin="round" stroke-width="2"/><line x1="649.86" y1="303.75" x2="777.48" y2="176.13" fill="none" stroke="#1c2126" stroke-linejoin="round" stroke-width="2" stroke-dasharray="7.68 7.68"/><polyline points="780.19 173.41 783.02 170.58 785.85 173.41" fill="none" stroke="#1c2126" stroke-linejoin="round" stroke-width="2"/><line x1="791.28" y1="178.84" x2="918.9" y2="306.46" fill="none" stroke="#1c2126" stroke-linejoin="round" stroke-width="2" stroke-dasharray="7.68 7.68"/><polyline points="921.62 309.18 924.44 312 921.62 314.83" fill="none" stroke="#1c2126" stroke-linejoin="round" stroke-width="2"/><line x1="916.19" y1="320.26" x2="788.57" y2="447.88" fill="none" stroke="#1c2126" stroke-linejoin="round" stroke-width="2" stroke-dasharray="7.68 7.68"/><rect x="708.03" y="237.02" width="149.98" height="149.98" transform="translate(449.96 -462.3) rotate(45)" fill="#ffd3bf" stroke="#1c2126" stroke-linejoin="round" stroke-width="2"/><rect x="737.49" y="266.47" width="91.07" height="91.07" transform="translate(449.96 -462.3) rotate(45)" fill="#bffde7" stroke="#1c2126" stroke-linejoin="round" stroke-width="2" stroke-dasharray="8"/><rect x="763.6" y="292.58" width="38.85" height="38.85" transform="translate(449.96 -462.3) rotate(45)" fill="#30c8c9" stroke="#1c2126" stroke-linejoin="round" stroke-width="2"/><rect x="364.83" y="212.88" width="200" height="200" transform="translate(-85.09 420.33) rotate(-45)" fill="#ff6b60"/><polyline points="467.66 451.47 464.83 454.3 462 451.47" fill="none" stroke="#1c2126" stroke-linejoin="round" stroke-width="2"/><line x1="456.57" y1="446.04" x2="328.96" y2="318.42" fill="none" stroke="#1c2126" stroke-linejoin="round" stroke-width="2" stroke-dasharray="7.68 7.68"/><polyline points="326.24 315.7 323.41 312.88 326.24 310.05" fill="none" stroke="#1c2126" stroke-linejoin="round" stroke-width="2"/><line x1="331.67" y1="304.62" x2="459.29" y2="177" fill="none" stroke="#1c2126" stroke-linejoin="round" stroke-width="2" stroke-dasharray="7.68 7.68"/><polyline points="462 174.28 464.83 171.46 467.66 174.28" fill="none" stroke="#1c2126" stroke-linejoin="round" stroke-width="2"/><line x1="473.09" y1="179.71" x2="600.71" y2="307.33" fill="none" stroke="#1c2126" stroke-linejoin="round" stroke-width="2" stroke-dasharray="7.68 7.68"/><polyline points="603.43 310.05 606.25 312.88 603.43 315.7" fill="none" stroke="#1c2126" stroke-linejoin="round" stroke-width="2"/><line x1="598" y1="321.14" x2="470.38" y2="448.75" fill="none" stroke="#1c2126" stroke-linejoin="round" stroke-width="2" stroke-dasharray="7.68 7.68"/><rect x="389.84" y="237.89" width="149.98" height="149.98" transform="translate(357.38 -237.05) rotate(45)" fill="#ffd3bf" stroke="#1c2126" stroke-linejoin="round" stroke-width="2"/><rect x="419.3" y="267.34" width="91.07" height="91.07" transform="translate(357.38 -237.05) rotate(45)" fill="#bffde7" stroke="#1c2126" stroke-linejoin="round" stroke-width="2" stroke-dasharray="8"/><rect x="445.41" y="293.45" width="38.85" height="38.85" transform="translate(357.38 -237.05) rotate(45)" fill="#30c8c9" stroke="#1c2126" stroke-linejoin="round" stroke-width="2"/><rect x="523.49" y="371.54" width="200" height="200" transform="translate(-150.81 578.99) rotate(-45)" fill="#ff6b60"/><polyline points="626.32 610.13 623.49 612.96 620.66 610.13" fill="none" stroke="#1c2126" stroke-linejoin="round" stroke-width="2"/><line x1="615.23" y1="604.7" x2="487.62" y2="477.08" fill="none" stroke="#1c2126" stroke-linejoin="round" stroke-width="2" stroke-dasharray="7.68 7.68"/><polyline points="484.9 474.36 482.07 471.54 484.9 468.71" fill="none" stroke="#1c2126" stroke-linejoin="round" stroke-width="2"/><line x1="490.33" y1="463.28" x2="617.95" y2="335.66" fill="none" stroke="#1c2126" stroke-linejoin="round" stroke-width="2" stroke-dasharray="7.68 7.68"/><polyline points="620.66 332.94 623.49 330.11 626.32 332.94" fill="none" stroke="#1c2126" stroke-linejoin="round" stroke-width="2"/><line x1="631.75" y1="338.37" x2="759.37" y2="465.99" fill="none" stroke="#1c2126" stroke-linejoin="round" stroke-width="2" stroke-dasharray="7.68 7.68"/><polyline points="762.09 468.71 764.91 471.54 762.09 474.36" fill="none" stroke="#1c2126" stroke-linejoin="round" stroke-width="2"/><line x1="756.66" y1="479.79" x2="629.04" y2="607.41" fill="none" stroke="#1c2126" stroke-linejoin="round" stroke-width="2" stroke-dasharray="7.68 7.68"/><rect x="548.5" y="396.55" width="149.98" height="149.98" transform="translate(516.04 -302.77) rotate(45)" fill="#ffd3bf" stroke="#1c2126" stroke-linejoin="round" stroke-width="2"/><rect x="577.96" y="426" width="91.07" height="91.07" transform="translate(516.04 -302.77) rotate(45)" fill="#bffde7" stroke="#1c2126" stroke-linejoin="round" stroke-width="2" stroke-dasharray="8"/><rect x="604.07" y="452.11" width="38.85" height="38.85" transform="translate(516.04 -302.77) rotate(45)" fill="#30c8c9" stroke="#1c2126" stroke-linejoin="round" stroke-width="2"/></g><path d="M90,123.82v18.35H78.2V124L59.51,89H72.25l12,22.26L96.26,89h12.4Z" fill="#1c2126"/><path d="M143.1,122.63c0,11.7-7.49,20.52-20.59,20.52s-20.65-8.82-20.65-20.52,7.49-20.51,20.65-20.51S143.1,110.94,143.1,122.63Zm-29.83,0c0,6.44,3.57,10.58,9.24,10.58s9.18-4.14,9.18-10.58-3.51-10.57-9.18-10.57S113.27,116.19,113.27,122.63Z" fill="#1c2126"/><path d="M184.05,103v39.14H173.13V138a12.79,12.79,0,0,1-10.71,5.18c-8.62,0-14.22-6.44-14.22-18V103h10.92v20.09c0,5.95,2.73,9.31,6.94,9.31s7.07-3.57,7.07-9.24V103Z" fill="#1c2126"/><path d="M254.68,118.5H243.2a7.54,7.54,0,0,0-7.85-6.93c-5.18,0-8.75,4-8.75,11.06s3.57,11,8.75,11a7.54,7.54,0,0,0,7.85-6.86h11.48c-.28,9.11-8.06,16.39-19.33,16.39-12.6,0-20.16-8.19-20.16-20.52s7.56-20.51,20.16-20.51C246.62,102.12,254.4,109.33,254.68,118.5Z" fill="#1c2126"/><path d="M296.33,119.83v22.34H285.4V137.9c-2.73,3.15-7,5-12.74,5-8.19,0-13.3-4.13-13.3-10.92,0-6.17,4.06-10.86,14.28-12.61l11.76-2c0-3.78-2.38-5.95-6.79-5.95s-6.3,1.82-6.58,4.83H261c.21-7.21,6.09-13.93,17.64-13.93C289.88,102.33,296.33,108.63,296.33,119.83Zm-10.93,5.88v-.56l-9,1.47c-4.69.77-5.88,2.38-5.88,4.42,0,1.75,1.68,3,4.83,3C281.41,134,285.4,130.68,285.4,125.71Z" fill="#1c2126"/><path d="M340.43,120v22.13H329.5v-20c0-6-2.87-9.38-7.28-9.38s-7.56,3.64-7.56,9.31v20.1H303.74V103h10.92v4.41c2.17-3.15,6.16-5.32,11.13-5.32C334.69,102.12,340.43,108.49,340.43,120Z" fill="#1c2126"/><path d="M354.91,94.49c0,5.67-2.87,9.87-9.45,12L344,107l-1.68-5.18,1.47-.42c3.08-.91,4.69-2.24,5.32-4.27a7.75,7.75,0,0,1-1.33.14,5.62,5.62,0,0,1-5.95-5.6c0-3.36,2.45-5.81,6.16-5.81C352.32,85.81,354.91,89.24,354.91,94.49Z" fill="#1c2126"/><path d="M385.78,112.27h-8.47v29.9H366.39v-29.9H359V103h7.35V90.71h10.92V103h8.47Z" fill="#1c2126"/><path d="M448.78,115.35H437.86c-.07-2.52-2.31-4.48-6-4.48s-5.46,1.33-5.46,3.15.84,2.73,5.25,3.5l5.25.84c10.08,1.68,12.74,6.23,12.74,12.18,0,7.64-6.09,12.47-17.15,12.47-11.9,0-17.85-5.67-17.85-13.51h10.85c.07,2.87,2.31,4.83,7.42,4.83,3.85,0,5.81-1.33,5.81-3.29s-1.12-3.16-5.67-3.93l-5.46-.91c-9.24-1.47-12.11-6.09-12.11-11.69,0-6.93,5.67-12.25,16.52-12.25S448.78,107.93,448.78,115.35Z" fill="#1c2126"/><path d="M495.61,122.63c0,13.24-7.14,20.52-17.29,20.52-5.46,0-9.52-2.1-12.11-5.6v17.92H455.29V103h10.92v4.62c2.59-3.43,6.65-5.53,12.11-5.53C488.47,102.12,495.61,109.33,495.61,122.63Zm-11.41.21c0-6.79-3.78-10.85-9-10.85s-9,4-9,10.85,3.64,10.92,9,10.92S484.2,129.71,484.2,122.84Z" fill="#1c2126"/><path d="M540.06,125.85H511.15c.56,4.69,3.71,7.91,8.89,7.91,3.85,0,6.44-1.26,7.63-3.5h11.62c-2.24,7.36-9.38,12.61-19.39,12.61-12.25,0-20.3-8.05-20.3-20.24s7.91-20.3,20.23-20.3,20.23,8,20.23,20.16Zm-28.77-7.49h17.22c-.77-4.41-4.2-6.93-8.68-6.93A8.58,8.58,0,0,0,511.29,118.36Z" fill="#1c2126"/><path d="M557.14,86.51v55.66H546.22V86.51Z" fill="#1c2126"/><path d="M576.88,86.51v55.66H566V86.51Z" fill="#1c2126"/><path d="M76.38,173v31.36c0,7.78,3.92,11.28,9.17,11.28s9.17-3.5,9.17-11.28V173h11.42V205c0,14.15-7.22,21.92-20.8,21.92S64.55,219.1,64.55,205V173Z" fill="#1c2126"/><path d="M151.42,204v22.13H140.5v-20c0-6-2.87-9.38-7.28-9.38s-7.56,3.64-7.56,9.31v20.1H114.74V187h10.92v4.41c2.17-3.15,6.16-5.32,11.13-5.32C145.68,186.12,151.42,192.49,151.42,204Z" fill="#1c2126"/><path d="M171.37,176a6.55,6.55,0,1,1-13.09,0,6.55,6.55,0,1,1,13.09,0Zm-1.05,10.15v40H159.4v-40a8.89,8.89,0,0,0,5.46,1.61A8.74,8.74,0,0,0,170.32,186.12Z" fill="#1c2126"/><path d="M215.12,202.5H203.64a7.53,7.53,0,0,0-7.84-6.93c-5.18,0-8.75,4-8.75,11.06s3.57,11,8.75,11a7.53,7.53,0,0,0,7.84-6.86h11.48c-.28,9.11-8.05,16.39-19.32,16.39-12.6,0-20.16-8.19-20.16-20.52s7.56-20.51,20.16-20.51C207.07,186.12,214.84,193.33,215.12,202.5Z" fill="#1c2126"/><path d="M260.41,206.63c0,11.7-7.49,20.52-20.58,20.52s-20.65-8.82-20.65-20.52,7.49-20.51,20.65-20.51S260.41,194.94,260.41,206.63Zm-29.82,0c0,6.44,3.57,10.58,9.24,10.58s9.17-4.14,9.17-10.58-3.5-10.57-9.17-10.57S230.59,200.19,230.59,206.63Z" fill="#1c2126"/><path d="M304.72,170.51v55.66H293.8v-4.62c-2.59,3.5-6.65,5.6-12.11,5.6-10.15,0-17.29-7.28-17.29-20.52s7.14-20.51,17.29-20.51c5.46,0,9.52,2.1,12.11,5.53V170.51ZM293.8,206.35c0-6.93-3.64-10.85-9-10.85s-9,4-9,10.85,3.78,10.86,9,10.86S293.8,213.28,293.8,206.35Z" fill="#1c2126"/><path d="M350.71,209.85H321.8c.56,4.69,3.71,7.91,8.89,7.91,3.85,0,6.44-1.26,7.63-3.5h11.62c-2.24,7.36-9.38,12.61-19.39,12.61-12.25,0-20.3-8.05-20.3-20.24s7.91-20.3,20.23-20.3,20.23,8,20.23,20.16Zm-28.77-7.49h17.22c-.77-4.41-4.2-6.93-8.68-6.93A8.58,8.58,0,0,0,321.94,202.36Z" fill="#1c2126"/><path d="M438,187l-11.48,39.14h-11l-7.91-24.86-8,24.86H388.93L377.45,187h10.64L395.44,212l7.7-24.92h9.38l7.63,24.78L427.5,187Z" fill="#1c2126"/><path d="M453.12,176A6.55,6.55,0,1,1,440,176a6.55,6.55,0,1,1,13.09,0Zm-1.05,10.15v40H441.15v-40a8.89,8.89,0,0,0,5.46,1.61A8.74,8.74,0,0,0,452.07,186.12Z" fill="#1c2126"/><path d="M485.46,196.27H477v29.9H466.07v-29.9h-7.35V187h7.35V174.71H477V187h8.47Z" fill="#1c2126"/><path d="M529.14,204v22.13H518.22v-20c0-6-2.87-9.38-7.28-9.38s-7.49,3.64-7.49,9.31l-.07-.49v20.59H492.46V170.51h10.92v20.93c2.17-3.15,6.09-5.32,11.13-5.32C523.4,186.12,529.14,192.49,529.14,204Z" fill="#1c2126"/><path d="M575.83,206.63c0,11.7-7.49,20.52-20.58,20.52s-20.65-8.82-20.65-20.52,7.49-20.51,20.65-20.51S575.83,194.94,575.83,206.63Zm-29.82,0c0,6.44,3.57,10.58,9.24,10.58s9.17-4.14,9.17-10.58-3.5-10.57-9.17-10.57S546,200.19,546,206.63Z" fill="#1c2126"/><path d="M616.79,187v39.14H605.86V222a12.79,12.79,0,0,1-10.71,5.18c-8.61,0-14.21-6.44-14.21-18V187h10.92v20.09c0,5.95,2.73,9.31,6.93,9.31s7.07-3.57,7.07-9.24V187Z" fill="#1c2126"/><path d="M649.54,196.27h-8.47v29.9H630.15v-29.9H622.8V187h7.35V174.71h10.92V187h8.47Z" fill="#1c2126"/><rect x="752.12" y="67.51" width="380.06" height="100.97" rx="9.52" fill="#1c2126" opacity="0.15"/><path d="M806.21,127.92v-36h9.42v36.56c0,13.16-7.62,20.94-20.51,20.94s-20.51-7.78-20.51-20.94V91.91H784v36c0,8.28,4,13,11.1,13S806.21,136.2,806.21,127.92Z"/><path d="M848.79,144.21h-8.48V127.33H823.48v-8.2h16.83V102.22h8.48v16.91h16.84v8.2H848.79Z"/><path d="M875.67,148.27v-7.93h15.74V101.59h-.67l-15.15,10v-9.18l15.86-10.46h9.22v48.43h15v7.93Z"/><path d="M927.77,148.27V91.91h34.65v8.24H937.23V117.1h23V125h-23v23.28Z"/><path d="M993.32,149.41c-12.11,0-20.55-8.25-20.55-20.12,0-6.72,2.31-12.89,7.86-20.82,1.29-2,11.09-15.24,12.14-16.56h10.75l-14.65,19.76a18.62,18.62,0,0,0-2.31,3.52l.71.15c1.91-2.18,5.62-3.63,9.18-3.63,10,0,17.34,7.66,17.34,18C1013.79,141.05,1005.08,149.41,993.32,149.41Zm11.17-19.3a11.25,11.25,0,1,0-11.25,11.29A11,11,0,0,0,1004.49,130.11Z"/><path d="M1022.07,120.07c0-18.83,7.31-29.38,20.35-29.38s20.32,10.55,20.32,29.38-7.31,29.41-20.32,29.41S1022.07,138.94,1022.07,120.07Zm9.34,3.36,20.78-15.24c-1.68-6.32-5-9.61-9.77-9.61-7.22,0-11.09,7.5-11.09,21.49C1031.33,121.24,1031.37,122.37,1031.41,123.43Zm22.07-3.36c0-1.13,0-2.27-.08-3.32L1032.66,132c1.68,6.29,5,9.57,9.76,9.57C1049.61,141.59,1053.48,134.09,1053.48,120.07Z"/><path d="M1089.61,91.91c15.86,0,24,9.49,24,27.89,0,18.86-8.08,28.47-24,28.47h-17.19V91.91ZM1081.88,140h6.56c10.62,0,15.55-6.29,15.55-20.08,0-13.4-5-19.8-15.55-19.8h-6.56Z"/><rect x="752.12" y="198.87" width="380.06" height="100.97" rx="9.52" fill="#1c2126" opacity="0.15"/><path d="M806.21,259.29v-36h9.42v36.56c0,13.17-7.62,20.94-20.51,20.94s-20.51-7.77-20.51-20.94V223.27H784v36c0,8.28,4,13,11.1,13S806.21,267.57,806.21,259.29Z"/><path d="M848.79,275.58h-8.48V258.7H823.48v-8.2h16.83V233.58h8.48V250.5h16.84v8.2H848.79Z"/><path d="M875.67,279.64v-7.93h15.74V233h-.67l-15.15,10v-9.18l15.86-10.47h9.22v48.44h15v7.93Z"/><path d="M927.77,279.64V223.27h34.65v8.24H937.23v17h23v7.89h-23v23.28Z"/><path d="M993.32,280.77c-12.11,0-20.55-8.24-20.55-20.11,0-6.72,2.31-12.9,7.86-20.83,1.29-2,11.09-15.23,12.14-16.56h10.75L988.87,243a18.71,18.71,0,0,0-2.31,3.51l.71.16c1.91-2.19,5.62-3.63,9.18-3.63,10,0,17.34,7.65,17.34,18C1013.79,272.41,1005.08,280.77,993.32,280.77Zm11.17-19.29a11.25,11.25,0,1,0-11.25,11.28A11,11,0,0,0,1004.49,261.48Z"/><path d="M1022.07,251.44c0-18.83,7.31-29.38,20.35-29.38s20.32,10.55,20.32,29.38-7.31,29.41-20.32,29.41S1022.07,270.3,1022.07,251.44Zm9.34,3.36,20.78-15.24c-1.68-6.33-5-9.61-9.77-9.61-7.22,0-11.09,7.5-11.09,21.49C1031.33,252.61,1031.37,253.74,1031.41,254.8Zm22.07-3.36c0-1.14,0-2.27-.08-3.32l-20.74,15.27c1.68,6.29,5,9.57,9.76,9.57C1049.61,273,1053.48,265.46,1053.48,251.44Z"/><path d="M1089.61,223.27c15.86,0,24,9.49,24,27.89,0,18.87-8.08,28.48-24,28.48h-17.19V223.27Zm-7.73,48.13h6.56c10.62,0,15.55-6.29,15.55-20.08,0-13.4-5-19.81-15.55-19.81h-6.56Z"/><rect x="752.12" y="330.24" width="380.06" height="100.97" rx="9.52" fill="#1c2126" opacity="0.15"/><path d="M806.21,390.65v-36h9.42V391.2c0,13.17-7.62,20.94-20.51,20.94s-20.51-7.77-20.51-20.94V354.64H784v36c0,8.29,4,13,11.1,13S806.21,398.94,806.21,390.65Z"/><path d="M848.79,406.94h-8.48V390.07H823.48v-8.2h16.83V365h8.48v16.92h16.84v8.2H848.79Z"/><path d="M875.67,411v-7.93h15.74V364.33h-.67l-15.15,10v-9.18l15.86-10.47h9.22v48.44h15V411Z"/><path d="M927.77,411V354.64h34.65v8.24H937.23v16.95h23v7.89h-23V411Z"/><path d="M993.32,412.14c-12.11,0-20.55-8.24-20.55-20.12,0-6.72,2.31-12.89,7.86-20.82,1.29-1.95,11.09-15.23,12.14-16.56h10.75L988.87,374.4a19,19,0,0,0-2.31,3.52l.71.16c1.91-2.19,5.62-3.64,9.18-3.64,10,0,17.34,7.66,17.34,18C1013.79,403.78,1005.08,412.14,993.32,412.14Zm11.17-19.3a11.25,11.25,0,1,0-11.25,11.29A11,11,0,0,0,1004.49,392.84Z"/><path d="M1022.07,382.8c0-18.83,7.31-29.37,20.35-29.37s20.32,10.54,20.32,29.37-7.31,29.42-20.32,29.42S1022.07,401.67,1022.07,382.8Zm9.34,3.36,20.78-15.23c-1.68-6.33-5-9.61-9.77-9.61-7.22,0-11.09,7.5-11.09,21.48C1031.33,384,1031.37,385.11,1031.41,386.16Zm22.07-3.36c0-1.13,0-2.26-.08-3.32l-20.74,15.28c1.68,6.28,5,9.57,9.76,9.57C1049.61,404.33,1053.48,396.83,1053.48,382.8Z"/><path d="M1089.61,354.64c15.86,0,24,9.49,24,27.89,0,18.87-8.08,28.48-24,28.48h-17.19V354.64Zm-7.73,48.12h6.56c10.62,0,15.55-6.29,15.55-20.07,0-13.4-5-19.81-15.55-19.81h-6.56Z"/><path d="M272.49,49.18a8.67,8.67,0,0,0-2.9-2.51c-1.95-1.17-4.19-2.15-6.43-1.74S259,47.2,257.71,49.2A19.47,19.47,0,0,0,255.22,55a15.69,15.69,0,0,0-6.81-5.56,9.78,9.78,0,0,0-8.68.59,7.17,7.17,0,0,0-3.19,7.79c.82,2.76,3.42,4.56,5.85,6.11q9.12,5.82,18.41,11.35,4.86-7.72,9.7-15.46C272.54,56.61,274.59,52.4,272.49,49.18Z" fill="#ff6b60" stroke="#1c2126" stroke-linejoin="round" stroke-width="2"/><path d="M687.24,271.11a8.67,8.67,0,0,0-.74-3.77c-.81-2.12-2-4.27-4-5.33s-4.69-.78-6.93,0a19.36,19.36,0,0,0-5.56,3.06,15.75,15.75,0,0,0-1.93-8.58,9.83,9.83,0,0,0-7.2-4.89,7.17,7.17,0,0,0-7.31,4.16c-1.06,2.69-.12,5.7.83,8.43q3.58,10.2,7.49,20.29l17.17-6.19C682.69,277,686.91,274.94,687.24,271.11Z" fill="#ff6b60" stroke="#1c2126" stroke-linejoin="round" stroke-width="2"/><path d="M361.68,306.05a46,46,0,0,0-21.09,4.88,39.36,39.36,0,0,0-13.53,11.32l.34-13.71H285.84q-.42,7.48-1.24,15.06t-1.87,15.07L270.68,414.5h43.21l9.35-59a21.52,21.52,0,0,1,5.82-12.05,15.79,15.79,0,0,1,11.64-4.57,9,9,0,0,1,7.48,3.43q2.69,3.43,1.45,11.33l-9.56,60.87h43.22L392.85,354q3.94-24.72-4.37-36.36T361.68,306.05Z" stroke="#1c2126" stroke-linejoin="round" stroke-width="2" fill="url(#b)"/><path d="M155.4,351.34q-2.09,13.92-8.21,21.19t-18,7.28q-13.09,0-17.56-7.17t-2.39-20.47L122.57,268H77.69l-12.88,81q-3.75,23.49,2.8,38.55a43.06,43.06,0,0,0,21.3,22.23Q103.66,417,124.44,417q23.48,0,38.85-7.28a54.59,54.59,0,0,0,24-21.6q8.63-14.34,12-35.33L212.74,268H168.69Z" stroke="#1c2126" stroke-linejoin="round" stroke-width="2" fill="url(#c)"/><path d="M256.47,304.23a15.44,15.44,0,0,1,1.41-2.5A32.92,32.92,0,0,1,264,295.5l-6-6.45a44.24,44.24,0,0,0-7,6.55,24.44,24.44,0,0,0-4,6.63,38.39,38.39,0,0,0-2.09,7.72L242.8,323H262l3-18.81Z" stroke="#1c2126" stroke-linejoin="round" stroke-width="2" fill="url(#d)"/><path d="M402.79,309.2h8.49a15.64,15.64,0,0,1-1.4,2.45,36.23,36.23,0,0,1-6.09,6.27l6,6.46a40.73,40.73,0,0,0,7.05-6.55,25.93,25.93,0,0,0,4-6.68,34.59,34.59,0,0,0,2.05-7.67L425,290.39H405.79Z" stroke="#1c2126" stroke-linejoin="round" stroke-width="2" fill="url(#e)"/><polygon points="598.22 304.18 604.04 268.02 474.39 268.02 468.57 304.18 510.96 304.18 499.23 378.35 456.89 378.35 451.07 414.5 493.51 414.5 538.39 414.5 580.72 414.5 586.54 378.35 544.11 378.35 555.84 304.18 598.22 304.18" stroke="#1c2126" stroke-linejoin="round" stroke-width="2" fill="url(#f)"/><line x1="386.78" y1="315.54" x2="397.42" y2="329.74" fill="#1c2126" stroke="#1c2126" stroke-linejoin="round" stroke-width="2"/><line x1="76.21" y1="400.6" x2="83.54" y2="410.39" fill="#1c2126" stroke="#1c2126" stroke-linejoin="round" stroke-width="2"/><polyline points="90.42 274.85 83.78 274.85 76.61 319.85" fill="none" stroke="#ffd3bf" stroke-linecap="round" stroke-linejoin="round" stroke-width="2"/><polyline points="300.52 315 293.88 315 286.71 360" fill="none" stroke="#fff" stroke-linecap="round" stroke-linejoin="round" stroke-width="2"/><polyline points="380.03 387.97 376.97 407.19 368.41 407.19" fill="none" stroke="#fff" stroke-linecap="round" stroke-linejoin="round" stroke-width="2"/><polyline points="577.37 387.97 574.3 407.19 565.75 407.19" fill="none" stroke="#ffd3bf" stroke-linecap="round" stroke-linejoin="round" stroke-width="2"/><polyline points="486.63 274.47 480 274.47 476.41 296.97" fill="none" stroke="#ffd3bf" stroke-linecap="round" stroke-linejoin="round" stroke-width="2"/><rect y="595" width="1200" height="35" fill="#fff"/><rect y="499.19" width="1200" height="95.81" fill="#fff"/><line y1="499.19" x2="1200" y2="499.19" fill="none" stroke="#1c2126" stroke-miterlimit="10"/><line y1="595" x2="1200" y2="595" fill="none" stroke="#1c2126" stroke-miterlimit="10"/><path d="M24.24,559.45V540.69H17.85v-2.37H33.21v2.37H26.82v18.76Z" fill="#1c2126"/><path d="M44.08,559.89c-4.81,0-7.75-3.45-7.75-9.3v-3.41c0-5.85,2.94-9.3,7.75-9.3s7.74,3.45,7.74,9.3v3.41C51.82,556.44,48.88,559.89,44.08,559.89Zm5.14-9.31v-3.39c0-4.41-1.94-6.87-5.14-6.87s-5.15,2.46-5.15,6.87v3.39c0,4.41,1.94,6.87,5.15,6.87S49.22,555,49.22,550.58Z" fill="#1c2126"/><path d="M60,545.58a2.65,2.65,0,1,1,2.65,2.71A2.7,2.7,0,0,1,60,545.58Zm0,11.25a2.65,2.65,0,1,1,2.65,2.71A2.68,2.68,0,0,1,60,556.83Z" fill="#1c2126"/><circle cx="107.91" cy="548.15" r="31.98" fill="#1c2126"/><line x1="582.03" y1="498.72" x2="582.03" y2="595" fill="none" stroke="#1c2126" stroke-miterlimit="10"/><path d="M1129.73,614.6a4.72,4.72,0,1,1-4.71-4.69A4.43,4.43,0,0,1,1129.73,614.6Zm-6.82,0A2.12,2.12,0,0,0,1125,617c1.3,0,2.1-.94,2.1-2.41s-.8-2.42-2.1-2.42S1122.91,613.12,1122.91,614.6Z" fill="#1c2126"/><path d="M1138.54,612.93H1136c0-.57-.52-1-1.37-1s-1.25.3-1.25.72.19.62,1.2.8l1.2.19c2.3.39,2.91,1.43,2.91,2.79,0,1.74-1.39,2.85-3.92,2.85-2.72,0-4.08-1.3-4.08-3.09h2.48c0,.65.53,1.1,1.7,1.1.88,0,1.33-.3,1.33-.75s-.26-.72-1.3-.9l-1.25-.21c-2.11-.33-2.77-1.39-2.77-2.67,0-1.58,1.3-2.8,3.78-2.8S1138.54,611.24,1138.54,612.93Z" fill="#1c2126"/><path d="M1147.49,612.93H1145c0-.57-.53-1-1.38-1s-1.25.3-1.25.72.2.62,1.2.8l1.21.19c2.3.39,2.91,1.43,2.91,2.79,0,1.74-1.39,2.85-3.92,2.85-2.72,0-4.09-1.3-4.09-3.09h2.49c0,.65.52,1.1,1.69,1.1.88,0,1.33-.3,1.33-.75s-.25-.72-1.3-.9l-1.24-.21c-2.12-.33-2.77-1.39-2.77-2.67,0-1.58,1.29-2.8,3.77-2.8S1147.49,611.24,1147.49,612.93Z" fill="#1c2126"/><path d="M1152,617.64a1.6,1.6,0,1,1-1.6-1.62A1.55,1.55,0,0,1,1152,617.64Z" fill="#1c2126"/><path d="M1156.27,606.34v12.72h-2.5V606.34Z" fill="#1c2126"/><path d="M1167,614.6a4.71,4.71,0,1,1-4.7-4.69A4.42,4.42,0,0,1,1167,614.6Zm-6.81,0a2.12,2.12,0,0,0,2.11,2.41c1.29,0,2.1-.94,2.1-2.41s-.81-2.42-2.1-2.42S1160.16,613.12,1160.16,614.6Z" fill="#1c2126"/><path d="M1176.59,610.12l-3.26,8.94h-3l-3.28-8.94h2.64l2.16,6.32,2.16-6.32Z" fill="#1c2126"/><path d="M1186.06,615.33h-6.61a1.92,1.92,0,0,0,2,1.81,1.82,1.82,0,0,0,1.75-.8h2.66a5,5,0,1,1,.17-1.77Zm-6.58-1.71h3.94a1.87,1.87,0,0,0-2-1.58A2,2,0,0,0,1179.48,613.62Z" fill="#1c2126"/><path d="M605.51,559.45V538.32H618v2.37H608.1v7.25h9v2.3h-9v9.21Z" fill="#1c2126"/><path d="M625.54,551v8.42H623V538.32h7.09c4.19,0,6.81,2.43,6.81,6.35A5.91,5.91,0,0,1,633,550.5l4.3,9h-2.91L630.41,551Zm0-2.18h4.19c2.92,0,4.56-1.48,4.56-4.12s-1.61-4.11-4.44-4.11h-4.31Z" fill="#1c2126"/><path d="M648.15,559.89c-4.81,0-7.75-3.45-7.75-9.3v-3.41c0-5.85,2.94-9.3,7.75-9.3s7.75,3.45,7.75,9.3v3.41C655.9,556.44,653,559.89,648.15,559.89Zm5.14-9.31v-3.39c0-4.41-1.93-6.87-5.14-6.87s-5.14,2.46-5.14,6.87v3.39c0,4.41,1.93,6.87,5.14,6.87S653.29,555,653.29,550.58Z" fill="#1c2126"/><path d="M661.38,559.45h-2.3V538.32H662l4.64,13.12h.19l4.62-13.12h2.9v21.13H672v-8.11l.13-8.56H672l-4.25,11.71h-2l-4.25-11.71h-.19l.14,8.56Z" fill="#1c2126"/><path d="M682.59,545.58a2.65,2.65,0,1,1,2.65,2.71A2.7,2.7,0,0,1,682.59,545.58Zm0,11.25a2.65,2.65,0,1,1,2.65,2.71A2.68,2.68,0,0,1,682.59,556.83Z" fill="#1c2126"/><circle cx="733.24" cy="548.15" r="31.98" fill="#1c2126"/><path d="M791.37,562a13.93,13.93,0,0,1-5-.86,10.66,10.66,0,0,1-6.3-6.3,13.81,13.81,0,0,1-.87-5,13.54,13.54,0,0,1,.9-5,11.12,11.12,0,0,1,2.58-3.91,11.78,11.78,0,0,1,4-2.53,13.78,13.78,0,0,1,5.07-.9,13.44,13.44,0,0,1,4.55.74,10.32,10.32,0,0,1,3.54,2.12,9.19,9.19,0,0,1,2.28,3.27,10.78,10.78,0,0,1,.8,4.26,11.44,11.44,0,0,1-.7,4.2,6.47,6.47,0,0,1-1.93,2.77,4.55,4.55,0,0,1-2.91,1,3.24,3.24,0,0,1-2.55-1,3.31,3.31,0,0,1-.73-2.61l.51.14a5.85,5.85,0,0,1-2,2.56,4.88,4.88,0,0,1-2.79.88,4.34,4.34,0,0,1-3.43-1.36,5.39,5.39,0,0,1-1.22-3.73,8.24,8.24,0,0,1,.8-3.69,6.21,6.21,0,0,1,2.2-2.52,5.75,5.75,0,0,1,3.19-.91,4.13,4.13,0,0,1,2.59.76,3.51,3.51,0,0,1,1.3,2.13h-.33l.47-2.64h1.85l-1.29,7.26c0,.24-.07.47-.1.7s0,.43,0,.61a2,2,0,0,0,.44,1.4,1.65,1.65,0,0,0,1.3.48,2.75,2.75,0,0,0,2-.81,5.38,5.38,0,0,0,1.31-2.26,10.66,10.66,0,0,0,.48-3.37,9.37,9.37,0,0,0-.67-3.64,7.65,7.65,0,0,0-1.93-2.77,8.69,8.69,0,0,0-3-1.77,11.75,11.75,0,0,0-3.91-.61,11.94,11.94,0,0,0-4.41.77,9.42,9.42,0,0,0-5.56,5.58,12.48,12.48,0,0,0-.75,4.43,12,12,0,0,0,1.26,5.68,8.6,8.6,0,0,0,3.59,3.65,11.36,11.36,0,0,0,5.51,1.28,12.05,12.05,0,0,0,4.22-.71,8.25,8.25,0,0,0,3.14-2l.92,1.37a8.76,8.76,0,0,1-3.54,2.18A14.41,14.41,0,0,1,791.37,562ZM790,554.18a3.81,3.81,0,0,0,2.3-.74,5,5,0,0,0,1.58-2.06,7.5,7.5,0,0,0,.57-3,3.47,3.47,0,0,0-.7-2.38,2.81,2.81,0,0,0-2.21-.78,4,4,0,0,0-2.31.7,4.73,4.73,0,0,0-1.61,1.93,6.58,6.58,0,0,0-.59,2.86,3.85,3.85,0,0,0,.77,2.57A2.75,2.75,0,0,0,790,554.18Z" fill="#1c2126"/><path d="M806.82,557.45V536.84h2.27v20.61Z" fill="#1c2126"/><path d="M812.93,563.81l-.54-1.88a11.39,11.39,0,0,0,2.2-.71,4.26,4.26,0,0,0,1.47-1.08,6.19,6.19,0,0,0,1-1.68l.73-1.65-.06,1-6.13-14.36h2.46l5.07,12.35h-.73l5-12.35h2.38l-6.5,15.23a10.23,10.23,0,0,1-1.23,2.25,7.32,7.32,0,0,1-1.44,1.49,6.94,6.94,0,0,1-1.7.91A12.53,12.53,0,0,1,812.93,563.81Z" fill="#1c2126"/><path d="M828.35,557.45v-10.8c0-.53,0-1.06-.07-1.61s-.1-1.1-.15-1.64h2.18l.28,3.08h-.33a4.86,4.86,0,0,1,2-2.48,5.81,5.81,0,0,1,3.15-.85,5,5,0,0,1,3.77,1.33,5.86,5.86,0,0,1,1.27,4.18v8.79h-2.27V548.8a4.31,4.31,0,0,0-.8-2.9,3.13,3.13,0,0,0-2.47-.91,4.06,4.06,0,0,0-3.11,1.21,4.44,4.44,0,0,0-1.15,3.22v8Z" fill="#1c2126"/><path d="M844.76,557.45v-10.8c0-.53,0-1.06-.07-1.61s-.1-1.1-.15-1.64h2.18l.28,3.08h-.33a4.81,4.81,0,0,1,2-2.48,5.76,5.76,0,0,1,3.15-.85,4.94,4.94,0,0,1,3.76,1.33,5.86,5.86,0,0,1,1.28,4.18v8.79h-2.27V548.8a4.37,4.37,0,0,0-.8-2.9,3.13,3.13,0,0,0-2.47-.91,4.06,4.06,0,0,0-3.11,1.21,4.44,4.44,0,0,0-1.15,3.22v8Z" fill="#1c2126"/><path d="M866.52,557.71a6,6,0,0,1-3.28-.89,5.78,5.78,0,0,1-2.17-2.5,10.31,10.31,0,0,1,0-7.82,5.75,5.75,0,0,1,2.17-2.49,6.08,6.08,0,0,1,3.28-.86,5.64,5.64,0,0,1,3.29,1,4.56,4.56,0,0,1,1.83,2.62h-.34l.31-3.33h2.19c-.06.54-.11,1.08-.16,1.64s-.07,1.08-.07,1.61v10.8H871.3v-3.3h.31a4.42,4.42,0,0,1-1.85,2.6A5.57,5.57,0,0,1,866.52,557.71Zm.44-1.85a4,4,0,0,0,3.2-1.39,7.63,7.63,0,0,0,0-8.12,4.34,4.34,0,0,0-6.37,0,7.52,7.52,0,0,0,0,8.12A4,4,0,0,0,867,555.86Z" fill="#1c2126"/><path d="M878,557.45v-10.8c0-.53,0-1.06-.07-1.61s-.1-1.1-.15-1.64h2.18l.28,3.08h-.34a4.83,4.83,0,0,1,2-2.48,5.76,5.76,0,0,1,3.15-.85,5,5,0,0,1,3.76,1.33,5.86,5.86,0,0,1,1.28,4.18v8.79h-2.27V548.8a4.37,4.37,0,0,0-.8-2.9,3.15,3.15,0,0,0-2.48-.91,4.09,4.09,0,0,0-3.11,1.21,4.48,4.48,0,0,0-1.14,3.22v8Z" fill="#1c2126"/><path d="M899.7,557.71a5.93,5.93,0,0,1-3.25-.89,5.72,5.72,0,0,1-2.17-2.5,10.31,10.31,0,0,1,0-7.82,5.69,5.69,0,0,1,2.17-2.49,6,6,0,0,1,3.25-.86,5.66,5.66,0,0,1,3.29,1,4.61,4.61,0,0,1,1.86,2.57h-.34v-9.83h2.27v20.61h-2.24v-3.36h.31a4.58,4.58,0,0,1-1.85,2.65A5.71,5.71,0,0,1,899.7,557.71Zm.47-1.85a4,4,0,0,0,3.19-1.39,7.42,7.42,0,0,0,0-8.12,4.34,4.34,0,0,0-6.37,0,7.52,7.52,0,0,0,0,8.12A4,4,0,0,0,900.17,555.86Z" fill="#1c2126"/><path d="M916.16,557.71a4,4,0,0,1-3.16-1.2,5.14,5.14,0,0,1-1.1-3.59v-7.76h-2.74V543.4h2.74v-3.84l2.27-.64v4.48h4v1.76h-4v7.51a3.81,3.81,0,0,0,.58,2.39,2.05,2.05,0,0,0,1.72.71,4,4,0,0,0,.95-.1,4.87,4.87,0,0,0,.76-.23v1.9a5,5,0,0,1-.94.27A6.78,6.78,0,0,1,916.16,557.71Z" fill="#1c2126"/><path d="M926.6,557.71a6.78,6.78,0,0,1-3.51-.89,5.77,5.77,0,0,1-2.31-2.52,9.72,9.72,0,0,1,0-7.77,5.89,5.89,0,0,1,2.31-2.5,6.78,6.78,0,0,1,3.51-.88,6.85,6.85,0,0,1,3.55.88,6,6,0,0,1,2.32,2.5,9.51,9.51,0,0,1,0,7.77,5.91,5.91,0,0,1-2.32,2.52A6.85,6.85,0,0,1,926.6,557.71Zm0-1.85a4,4,0,0,0,3.2-1.39,7.63,7.63,0,0,0,0-8.12,4,4,0,0,0-3.2-1.39,4,4,0,0,0-3.16,1.39,7.57,7.57,0,0,0,0,8.12A3.92,3.92,0,0,0,926.6,555.86Z" fill="#1c2126"/><path d="M936.82,557.45v-10.8c0-.53,0-1.06-.07-1.61s-.09-1.1-.15-1.64h2.18l.28,3.08h-.33a4.86,4.86,0,0,1,2-2.48,5.81,5.81,0,0,1,3.15-.85,5,5,0,0,1,3.77,1.33,5.86,5.86,0,0,1,1.27,4.18v8.79h-2.27V548.8a4.37,4.37,0,0,0-.79-2.9,3.17,3.17,0,0,0-2.48-.91,4.08,4.08,0,0,0-3.11,1.21,4.44,4.44,0,0,0-1.15,3.22v8Z" fill="#1c2126"/><path d="M953,540.21v-2.55h2.8v2.55Zm.28,17.24V543.4h2.27v14.05Z" fill="#1c2126"/><path d="M965.8,557.71a6.91,6.91,0,0,1-3.59-.9,6,6,0,0,1-2.36-2.55,8.68,8.68,0,0,1-.82-3.92,8.32,8.32,0,0,1,.84-3.9,5.7,5.7,0,0,1,2.36-2.45,7.19,7.19,0,0,1,3.57-.84,7.35,7.35,0,0,1,2.62.47,5.79,5.79,0,0,1,2.12,1.34l-.82,1.63a5.77,5.77,0,0,0-1.83-1.21,5.29,5.29,0,0,0-1.95-.39,4.24,4.24,0,0,0-3.38,1.38,5.85,5.85,0,0,0-1.21,4,6,6,0,0,0,1.21,4,4.18,4.18,0,0,0,3.38,1.43,5.4,5.4,0,0,0,1.92-.37,5.28,5.28,0,0,0,1.86-1.2l.82,1.6a5.71,5.71,0,0,1-2.16,1.37A7.35,7.35,0,0,1,965.8,557.71Z" fill="#1c2126"/><path d="M167.16,562a13.84,13.84,0,0,1-5-.86,10.71,10.71,0,0,1-3.84-2.45,10.88,10.88,0,0,1-2.46-3.85,13.81,13.81,0,0,1-.87-5,13.54,13.54,0,0,1,.9-5,11,11,0,0,1,2.57-3.91,11.82,11.82,0,0,1,4-2.53,13.78,13.78,0,0,1,5.07-.9,13.49,13.49,0,0,1,4.55.74,10.32,10.32,0,0,1,3.54,2.12,9.19,9.19,0,0,1,2.28,3.27,11,11,0,0,1,.8,4.26,11.66,11.66,0,0,1-.7,4.2,6.47,6.47,0,0,1-1.93,2.77,4.58,4.58,0,0,1-2.92,1,3.2,3.2,0,0,1-2.54-1,3.31,3.31,0,0,1-.73-2.61l.5.14a5.71,5.71,0,0,1-2,2.56,4.85,4.85,0,0,1-2.78.88,4.34,4.34,0,0,1-3.43-1.36,5.34,5.34,0,0,1-1.22-3.73,8.11,8.11,0,0,1,.8-3.69,6.27,6.27,0,0,1,2.19-2.52,5.81,5.81,0,0,1,3.2-.91,4.15,4.15,0,0,1,2.59.76,3.55,3.55,0,0,1,1.3,2.13h-.34l.48-2.64H173l-1.29,7.26c0,.24-.07.47-.1.7a4.55,4.55,0,0,0,0,.61,2,2,0,0,0,.43,1.4,1.68,1.68,0,0,0,1.3.48,2.73,2.73,0,0,0,2-.81,5.5,5.5,0,0,0,1.32-2.26,10.66,10.66,0,0,0,.48-3.37,9.37,9.37,0,0,0-.68-3.64,7.53,7.53,0,0,0-1.93-2.77,8.6,8.6,0,0,0-3-1.77,11.69,11.69,0,0,0-3.9-.61,11.87,11.87,0,0,0-4.41.77,9.65,9.65,0,0,0-3.39,2.18,9.53,9.53,0,0,0-2.17,3.4,12.26,12.26,0,0,0-.76,4.43,12,12,0,0,0,1.26,5.68,8.62,8.62,0,0,0,3.6,3.65,11.32,11.32,0,0,0,5.5,1.28,12.11,12.11,0,0,0,4.23-.71,8.25,8.25,0,0,0,3.14-2l.92,1.37a8.83,8.83,0,0,1-3.54,2.18A14.47,14.47,0,0,1,167.16,562Zm-1.34-7.84a3.78,3.78,0,0,0,2.29-.74,5,5,0,0,0,1.59-2.06,7.5,7.5,0,0,0,.57-3,3.47,3.47,0,0,0-.7-2.38,2.83,2.83,0,0,0-2.21-.78,4,4,0,0,0-2.31.7,4.73,4.73,0,0,0-1.61,1.93,6.58,6.58,0,0,0-.59,2.86,3.85,3.85,0,0,0,.77,2.57A2.74,2.74,0,0,0,165.82,554.18Z" fill="#1c2126"/><path d="M184,557.45v-2h4.65V539.7h1.23l-5.43,3.39v-2.33l4.84-3h1.68v17.75h4.37v2Z" fill="#1c2126"/><path d="M200.76,557.45v-2h4.65V539.7h1.23l-5.43,3.39v-2.33l4.84-3h1.68v17.75h4.37v2Z" fill="#1c2126"/><path d="M221.2,557.71a4.06,4.06,0,0,1-3.16-1.2,5.14,5.14,0,0,1-1.09-3.59v-7.76H214.2V543.4H217v-3.84l2.26-.64v4.48h4v1.76h-4v7.51a3.88,3.88,0,0,0,.58,2.39,2.05,2.05,0,0,0,1.72.71,4,4,0,0,0,1-.1,4.87,4.87,0,0,0,.76-.23v1.9a4.82,4.82,0,0,1-.94.27A6.57,6.57,0,0,1,221.2,557.71Z" fill="#1c2126"/><path d="M225.63,563.81l-.54-1.88a11.39,11.39,0,0,0,2.2-.71,4.26,4.26,0,0,0,1.47-1.08,6.19,6.19,0,0,0,1-1.68l.73-1.65-.06,1-6.13-14.36h2.46l5.07,12.35h-.73l5-12.35h2.38L232,558.63a10.23,10.23,0,0,1-1.23,2.25,7.32,7.32,0,0,1-1.44,1.49,6.94,6.94,0,0,1-1.7.91A12.53,12.53,0,0,1,225.63,563.81Z" fill="#1c2126"/><path d="M27.75,606.92v12.14H25v-2.13l-4.7-5.41v7.54H17.63V606.92H20L25,612.77v-5.85Z" fill="#1c2126"/><path d="M38.37,615.33H31.76a1.92,1.92,0,0,0,2,1.81,1.81,1.81,0,0,0,1.74-.8H38.2a4.35,4.35,0,0,1-4.44,2.88,4.63,4.63,0,1,1,0-9.26,4.32,4.32,0,0,1,4.62,4.61Zm-6.58-1.71h3.94a1.87,1.87,0,0,0-2-1.58A2,2,0,0,0,31.79,613.62Z" fill="#1c2126"/><path d="M44.93,612.23H43v6.83H40.5v-6.83H38.82v-2.11H40.5V607.3H43v2.82h1.93Z" fill="#1c2126"/><path d="M48.9,606.34v12.72H46.4V606.34Z" fill="#1c2126"/><path d="M53.62,607.59a1.5,1.5,0,1,1-3,0,1.5,1.5,0,1,1,3,0Zm-.24,2.32v9.15h-2.5v-9.15a2.06,2.06,0,0,0,1.25.37A2,2,0,0,0,53.38,609.91Z" fill="#1c2126"/><path d="M58.55,609v1.09h1.87v2.11H58.55v6.83h-2.5v-6.83H54.61v-2.11h1.44V609a2.62,2.62,0,0,1,2.88-2.83h1.75v1.94H59.44A.78.78,0,0,0,58.55,609Z" fill="#1c2126"/><path d="M70.71,610.12l-5,11.89H63.33l1.38-3.28-3.49-8.61h2.51L66,615.69l2.32-5.57Z" fill="#1c2126"/><path d="M109.4,613c0,3.92-2.34,6.22-5.8,6.22s-5.79-2.3-5.79-6.22,2.33-6.25,5.79-6.25S109.4,609.08,109.4,613Zm-8.79,0c0,2.35,1.3,3.66,3,3.66s3-1.31,3-3.66-1.32-3.67-3-3.67S100.61,610.63,100.61,613Z" fill="#1c2126"/><path d="M120.32,610.53h-2.8c0-.89-.67-1.52-1.85-1.52s-1.7.55-1.7,1.23.38,1,1.49,1.3l1.37.32c2.64.59,3.73,1.73,3.73,3.73s-1.6,3.63-4.73,3.63-4.9-1.61-4.9-4h2.8a1.88,1.88,0,0,0,2.11,1.84c1.27,0,1.92-.63,1.92-1.44s-.38-1.09-1.57-1.35l-1.32-.27c-2.77-.56-3.72-1.87-3.72-3.73,0-2.06,1.6-3.54,4.58-3.54S120.32,608.29,120.32,610.53Z" fill="#1c2126"/><path d="M131.38,610.53h-2.8c0-.89-.67-1.52-1.86-1.52-1,0-1.69.55-1.69,1.23s.38,1,1.48,1.3l1.38.32c2.64.59,3.73,1.73,3.73,3.73s-1.6,3.63-4.74,3.63-4.9-1.61-4.9-4h2.81a1.88,1.88,0,0,0,2.11,1.84c1.26,0,1.92-.63,1.92-1.44s-.39-1.09-1.57-1.35l-1.33-.27c-2.77-.56-3.71-1.87-3.71-3.73,0-2.06,1.6-3.54,4.58-3.54S131.38,608.29,131.38,610.53Z" fill="#1c2126"/><path d="M91.16,610.11a3.71,3.71,0,0,0-1-1.22,4,4,0,0,0-2.5-1.14,3.62,3.62,0,0,0-2.51,1.37,8,8,0,0,0-1.41,2.21,6.53,6.53,0,0,0-2.39-2.73,4.07,4.07,0,0,0-3.57-.35,3,3,0,0,0-1.83,3,5.09,5.09,0,0,0,2,2.88q3.32,3,6.72,5.87l5-5.64C90.67,613.14,91.8,611.56,91.16,610.11Z" fill="#ff6b60" stroke="#ff6b60" stroke-linejoin="round"/></svg>