<?xml version="1.0" encoding="UTF-8"?><svg xmlns="http://www.w3.org/2000/svg" xmlns:xlink="http://www.w3.org/1999/xlink" viewBox="0 0 1200 630"><defs><clipPath id="e"><rect width="1200" height="572.27" fill="none" stroke-width="0"/></clipPath></defs><g id="b"><rect width="1200" height="498.72" fill="#054861" stroke-width="0"/></g><g id="d"><g clip-path="url(#e)"><path d="M916.64,523.48h-28.1c0-77.07-30.01-149.53-84.51-204.03-54.5-54.5-126.96-84.51-204.03-84.51s-149.53,30.01-204.03,84.51c-54.5,54.5-84.51,126.96-84.51,204.03h-28.1c0-84.58,32.94-164.09,92.74-223.9,59.8-59.8,139.32-92.74,223.9-92.74s164.09,32.94,223.9,92.74c59.8,59.8,92.74,139.32,92.74,223.9Z" fill="#db4648" stroke="#1c2126" stroke-miterlimit="10" stroke-width="2"/><path d="M888.73,523.48h-28.1c0-69.62-27.11-135.07-76.34-184.29-49.23-49.23-114.68-76.34-184.3-76.34s-135.07,27.11-184.3,76.34c-49.23,49.23-76.34,114.68-76.34,184.29h-28.1c0-77.12,30.03-149.63,84.57-204.16,54.53-54.53,127.04-84.57,204.16-84.57s149.63,30.03,204.16,84.57c54.53,54.53,84.57,127.04,84.57,204.16Z" fill="#ff6b60" stroke="#1c2126" stroke-miterlimit="10" stroke-width="2"/><path d="M861.56,522.08h-28.1c0-127.96-104.1-232.06-232.06-232.06s-232.06,104.1-232.06,232.06h-28.1c0-69.49,27.06-134.82,76.2-183.96,49.14-49.14,114.47-76.2,183.96-76.2s134.82,27.06,183.96,76.2c49.14,49.14,76.2,114.47,76.2,183.96Z" fill="#ffd3bf" stroke="#1c2126" stroke-miterlimit="10" stroke-width="2"/><path d="M834.98,522.08h-28.1c0-113.3-92.18-205.48-205.48-205.48s-205.48,92.18-205.48,205.48h-28.1c0-128.8,104.78-233.58,233.58-233.58s233.58,104.78,233.58,233.58Z" fill="#fff6d0" stroke="#1c2126" stroke-miterlimit="10" stroke-width="2"/><path d="M806.41,522.08h-28.1c0-97.55-79.36-176.9-176.91-176.9s-176.9,79.36-176.9,176.9h-28.1c0-113.04,91.96-205,205-205s205.01,91.96,205.01,205Z" fill="#ffdd73" stroke="#1c2126" stroke-miterlimit="10" stroke-width="2"/><path d="M777.83,522.08h-28.1c0-81.79-66.54-148.33-148.33-148.33s-148.33,66.54-148.33,148.33h-28.1c0-97.28,79.14-176.43,176.43-176.43s176.43,79.14,176.43,176.43Z" fill="#ffb916" stroke="#1c2126" stroke-miterlimit="10" stroke-width="2"/><path d="M-26.4,585.39c23.62-.92,47.24-1.92,70.87-2.16,25.46-.25,50.92-.04,76.38-.1,51.04-.11,102.09-.48,153.12-1.69,50.8-1.21,101.58-3.26,152.28-6.77,24.86-1.72,49.59-3.54,74.33-6.65,6.19-.78,12.39-1.55,18.6-2.26,3.15-10.47,5.48-21.15,6.65-32.05.72-6.73.94-13.79-1.73-20.01-1.14-2.65-2.65-4.91-4.47-6.86,1.28-.98,2.51-2,3.7-3.09-3.96-8.13-9.44-16.1-17.66-19.88-6.31-2.91-13.63-2.95-20.33-1-6.49-15.33-15.77-28.72-30.56-35.63-23.4-10.92-52.48.05-69.59,19.4-1.21-14.16-10.35-27.38-23.17-33.52-12.82-6.14-28.85-4.97-40.64,2.96-3.67-15.91-8.7-33.69-23.07-41.44-7.17-3.87-15.63-4.52-23.78-4.32-13.13.34-26.79,2.97-37.1,11.11,1.53-14.92-6.77-30.39-20.05-37.36-12.13-6.37-27.71-5.28-39.02,2.35-5.59-8.01-14.64-13.67-24.4-14.59-13.45-1.28-27.3,6.49-33.23,18.63-10.21-14.91-25.11-27.81-43-30.43s-38.24,8.1-41.85,25.8c-16.44-16.79-49.83-9.38-57.62,12.8-2.41,6.86-2.61,14.28-2.78,21.55l-1.24,52.35c-1.05,44.3-2.1,88.61-2.62,132.92.66-.03,1.33-.05,1.99-.08Z" fill="#fff" stroke="#1c2126" stroke-linejoin="round" stroke-width="2"/><path d="M185.35,211.6c-1.93,3.13-.94,7.55,1.8,10.01,2.74,2.46,6.82,3.07,10.38,2.15,5.7-1.48,10.41-6.49,16.3-6.4,3.77.05,7.24,2.29,9.67,5.17,2.43,2.89,3.97,6.4,5.48,9.85-.04-4.62,2.23-9.2,5.92-11.98,3.69-2.78,8.73-3.68,13.16-2.36,2.98.89,5.69,2.71,8.78,3.1,5.99.74,11.79-5.35,10.75-11.29" fill="none" stroke="#ffd3bf" stroke-linecap="round" stroke-linejoin="round" stroke-width="2"/><path d="M273.36,259.44c-.58,3.41-.86,7.32,1.44,9.9,2.82,3.16,7.99,2.55,11.78.66s7.16-4.8,11.31-5.67c7.27-1.53,14.88,4.56,15.89,11.92.24-6.56,6.62-12.23,13.16-11.7,4.63.38,8.88,3.37,13.51,3.02,5.44-.4,9.81-6.21,8.68-11.55" fill="none" stroke="#ffd3bf" stroke-linecap="round" stroke-linejoin="round" stroke-width="2"/><path d="M844.39,239.11c.23,9.09.32,12.86.55,21.95" fill="none" stroke="#30c8c9" stroke-linecap="round" stroke-linejoin="round" stroke-width="2"/><path d="M854.86,243.37c-7.11,4.16-10.65,6.65-19.93,16.07" fill="none" stroke="#30c8c9" stroke-linecap="round" stroke-linejoin="round" stroke-width="2"/><path d="M834.54,244.4c10.2,6.4,12.93,9.77,20.88,13.48" fill="none" stroke="#30c8c9" stroke-linecap="round" stroke-linejoin="round" stroke-width="2"/><path d="M983.5,298.82v19.87" fill="none" stroke="#30c8c9" stroke-linecap="round" stroke-linejoin="round" stroke-width="2"/><path d="M976.22,303.58c4.97,3.75,9.95,7.5,14.92,11.25" fill="none" stroke="#30c8c9" stroke-linecap="round" stroke-linejoin="round" stroke-width="2"/><path d="M975,312.69c5.38-2.34,10.77-4.67,16.15-7.01" fill="none" stroke="#30c8c9" stroke-linecap="round" stroke-linejoin="round" stroke-width="2"/><path d="M1118.06,234.94l-17.96,15.19" fill="none" stroke="#30c8c9" stroke-linecap="round" stroke-linejoin="round" stroke-width="2"/><path d="M1108.2,232l1.24,22.09" fill="none" stroke="#30c8c9" stroke-linecap="round" stroke-linejoin="round" stroke-width="2"/><path d="M1099.03,237.86c6.22,3.08,12.45,6.16,18.67,9.24" fill="none" stroke="#30c8c9" stroke-linecap="round" stroke-linejoin="round" stroke-width="2"/><path d="M625.98,422.35c-5.99,5.06-11.98,10.13-17.96,15.19" fill="none" stroke="#30c8c9" stroke-linecap="round" stroke-linejoin="round" stroke-width="2"/><path d="M616.12,419.42c.41,7.36.82,14.73,1.24,22.09" fill="none" stroke="#30c8c9" stroke-linecap="round" stroke-linejoin="round" stroke-width="2"/><path d="M606.95,425.27c6.22,3.08,12.45,6.16,18.67,9.24" fill="none" stroke="#30c8c9" stroke-linecap="round" stroke-linejoin="round" stroke-width="2"/><path d="M691.39,578.1h543.37c-.54-41.85-1.53-83.71-2.52-125.55l-1.24-52.35c-.17-7.27-.37-14.69-2.78-21.55-7.79-22.18-41.18-29.59-57.62-12.8-3.61-17.71-23.97-28.42-41.85-25.8-17.88,2.61-32.79,15.51-43,30.43-5.92-12.14-19.78-19.91-33.22-18.63-9.76.93-18.81,6.58-24.4,14.59-11.31-7.64-26.89-8.73-39.02-2.35-13.28,6.98-21.58,22.44-20.05,37.36-10.32-8.13-23.97-10.77-37.1-11.11-8.15-.21-16.61.45-23.78,4.32-14.37,7.75-19.41,25.53-23.07,41.44-11.79-7.93-27.82-9.1-40.64-2.96-12.82,6.14-21.96,19.36-23.17,33.52-17.1-19.35-46.18-30.32-69.59-19.4-14.79,6.9-24.07,20.3-30.56,35.63-6.7-1.96-14.03-1.91-20.33,1-8.21,3.78-13.69,11.75-17.66,19.88,1.18,1.09,2.42,2.12,3.7,3.09-1.81,1.95-3.33,4.21-4.47,6.86-2.67,6.22-2.45,13.27-1.73,20.01,1.62,15.21,5.53,30,10.75,44.39Z" fill="#fff" stroke="#1c2126" stroke-linejoin="round" stroke-width="2"/><path d="M133.32,283.14c.17,6.87.24,9.72.41,16.59" fill="none" stroke="#30c8c9" stroke-linecap="round" stroke-linejoin="round" stroke-width="2"/><path d="M141.23,286.35c-5.37,3.14-8.05,5.03-15.06,12.14" fill="none" stroke="#30c8c9" stroke-linecap="round" stroke-linejoin="round" stroke-width="2"/><path d="M125.88,287.13c7.71,4.83,9.77,7.38,15.78,10.18" fill="none" stroke="#30c8c9" stroke-linecap="round" stroke-linejoin="round" stroke-width="2"/></g><path d="M128.22,139.41v-4.92c.32.06,1.28.09,1.74.09,3.05,0,4.71-1.28,5.88-4.62l.49-1.57-11.55-31.93h6.4l8.35,25.94h.41l8.29-25.94h6.2l-11.63,32.66c-2.76,7.88-5.73,10.38-12.19,10.38-.9,0-2.01-.06-2.38-.09Z" fill="#ffb916" stroke-width="0"/><path d="M162.49,114.72v-4.8c0-8.61,5.44-14.05,13.99-14.05s13.99,5.44,13.99,14.05v4.8c0,8.58-5.44,14.05-13.99,14.05s-13.99-5.47-13.99-14.05ZM168.24,110.33v3.98c0,5.88,3.17,9.51,8.23,9.51s8.23-3.64,8.23-9.51v-3.98c0-5.87-3.17-9.51-8.23-9.51s-8.23,3.64-8.23,9.51Z" fill="#ffb916" stroke-width="0"/><path d="M226.62,128.16h-5.64v-5.5h-.41c-1.66,3.9-5.24,6.11-9.98,6.11-6.89,0-10.62-4.13-10.62-11.75v-20.56h5.85v19.14c0,5.41,2.18,7.97,6.86,7.97s8.12-3.4,8.12-8.52v-18.58h5.82v31.7Z" fill="#ffb916" stroke-width="0"/><path d="M249.87,104.54c1.25-5.96,4.94-8.9,11.02-8.9,1.8,0,3.52.23,4.56.67v6.4c-1.42-.52-3.49-.9-5.23-.9-7.15,0-11.14,4.45-11.14,12.22v9.66h9.63v4.48h-21.58v-4.48h6.28v-22.74h-6.89v-4.48h12.54v8.08h.81Z" fill="#ffb916" stroke-width="0"/><path d="M271.57,112.19v-5.29h30.77v5.29h-30.77Z" fill="#ffb916" stroke-width="0"/><path d="M331.58,106.66c-.55-3.66-3.4-5.85-7.27-5.85-5.15,0-8,3.61-8,10.12v2.68c0,6.51,2.85,10.12,8,10.12,3.9,0,6.69-2.12,7.27-5.7h5.76c-.79,6.75-5.58,10.73-12.97,10.73-8.81,0-13.9-5.29-13.9-14.54v-3.9c0-9.25,5.09-14.51,13.9-14.51,7.39,0,12.19,3.98,12.97,10.85h-5.76Z" fill="#ffb916" stroke-width="0"/><path d="M346.62,114.72v-4.8c0-8.61,5.44-14.05,13.99-14.05s13.99,5.44,13.99,14.05v4.8c0,8.58-5.44,14.05-13.99,14.05s-13.99-5.47-13.99-14.05ZM352.38,110.33v3.98c0,5.88,3.17,9.51,8.23,9.51s8.23-3.64,8.23-9.51v-3.98c0-5.87-3.17-9.51-8.23-9.51s-8.23,3.64-8.23,9.51Z" fill="#ffb916" stroke-width="0"/><path d="M404.34,123.15c-1.51,3.58-4.77,5.53-9.34,5.53-7.3,0-11.95-5.21-11.95-13.49v-5.76c0-8.29,4.65-13.49,11.95-13.49,4.57,0,7.91,2.01,9.19,5.55h.55v-17.39h5.99v44.06h-5.85v-5h-.55ZM388.95,114.63c0,5.44,3.08,8.87,7.97,8.87s7.97-3.43,7.97-8.87v-4.74c0-5.47-3.08-8.9-7.97-8.9s-7.97,3.46-7.97,8.9v4.74Z" fill="#ffb916" stroke-width="0"/><path d="M447.91,119.78c-.84,5.32-6.08,8.99-12.91,8.99-8.9,0-13.99-5.23-13.99-14.25v-4.83c0-8.35,5.44-13.84,13.67-13.84s13.32,5.47,13.32,14.48v3.43h-21.26v1.42c0,5.35,3.23,8.78,8.23,8.78,3.75,0,6.57-1.6,7.36-4.19h5.58ZM426.74,109.66h15.53c0-5.64-2.85-9.04-7.65-9.04s-7.88,3.37-7.88,9.04Z" fill="#ffb916" stroke-width="0"/><path d="M494.55,84.1h5.64v17.92h.44c1.63-3.9,5.24-6.11,10.04-6.11,6.89,0,10.64,4.16,10.64,11.75v20.5h-5.82v-19.08c0-5.38-2.24-7.97-6.92-7.97-4.92,0-8.17,3.4-8.17,8.52v18.53h-5.85v-44.06Z" fill="#30c8c9" stroke-width="0"/><path d="M531.17,119.14c0-5.64,4.07-8.96,11.46-9.39l8.32-.44v-2.79c0-3.64-2.27-5.67-6.34-5.67-3.38,0-5.79,1.45-6.54,3.96h-5.7c.58-5.23,5.55-8.78,12.36-8.78,7.65,0,12.01,3.84,12.01,10.5v21.67h-5.55v-4.62h-.55c-1.51,3.26-4.92,5.12-9.39,5.12-6.05,0-10.06-3.81-10.06-9.54ZM550.95,116.79v-3.34l-7.53.38c-4.22.23-6.43,1.98-6.43,5.06s2.33,4.94,6.05,4.94c4.54,0,7.91-3,7.91-7.04Z" fill="#30c8c9" stroke-width="0"/><path d="M581.67,95.82c6.92,0,11.46,3.32,11.98,8.81h-5.58c-.52-2.59-3-4.19-6.49-4.19-3.72,0-6.14,1.75-6.14,4.36,0,2.27,1.54,3.52,5.23,4.33l4.6,1.02c6.25,1.4,9.07,4.07,9.07,8.73,0,6.02-4.97,9.86-12.71,9.86s-12.3-3.34-12.83-8.93h5.88c.64,2.7,3.26,4.25,7.1,4.25s6.54-1.77,6.54-4.54c0-2.33-1.43-3.52-5.27-4.39l-4.74-1.08c-5.79-1.31-8.67-4.22-8.67-8.84,0-5.67,4.74-9.39,12.01-9.39Z" fill="#30c8c9" stroke-width="0"/><path d="M702.65,128.16h-5.38l-5.03-23.76h-.32l-5.06,23.76h-5.38l-6.69-31.7h5.64l3.75,24.58h.67l4.62-24.52h5.18l4.62,24.52h.67l3.75-24.58h5.64l-6.69,31.7Z" fill="#ff6b60" stroke-width="0"/><path d="M715.52,84.1h5.64v17.92h.44c1.63-3.9,5.23-6.11,10.03-6.11,6.89,0,10.64,4.16,10.64,11.75v20.5h-5.82v-19.08c0-5.38-2.24-7.97-6.92-7.97-4.91,0-8.17,3.4-8.17,8.52v18.53h-5.85v-44.06Z" fill="#ff6b60" stroke-width="0"/><path d="M752.14,119.14c0-5.64,4.07-8.96,11.46-9.39l8.32-.44v-2.79c0-3.64-2.27-5.67-6.34-5.67-3.38,0-5.79,1.45-6.54,3.96h-5.7c.58-5.23,5.55-8.78,12.36-8.78,7.65,0,12.01,3.84,12.01,10.5v21.67h-5.55v-4.62h-.55c-1.51,3.26-4.92,5.12-9.39,5.12-6.05,0-10.06-3.81-10.06-9.54ZM771.92,116.79v-3.34l-7.53.38c-4.22.23-6.43,1.98-6.43,5.06s2.33,4.94,6.05,4.94c4.54,0,7.91-3,7.91-7.04Z" fill="#ff6b60" stroke-width="0"/><path d="M802.55,87.79v8.84h12.54v4.8h-12.45v17.13c0,3.14,2.18,4.86,6.22,4.86,1.48,0,5.35-.06,6.05-.15v4.77c-.64.12-5.24.23-6.46.23-8.12,0-11.66-2.91-11.66-9.71v-17.13h-8.38v-4.8h8.38v-8.84h5.76Z" fill="#ff6b60" stroke-width="0"/><path d="M823.99,112.19v-5.29h30.77v5.29h-30.77Z" fill="#ff6b60" stroke-width="0"/><path d="M863.5,128.16v-4.71h10.67v-22.28h-10.44v-4.71h16.14v26.99h10.24v4.71h-26.61ZM872.22,84.74c0-2.53,1.92-4.33,4.51-4.33s4.51,1.8,4.51,4.33-1.89,4.3-4.51,4.3-4.51-1.8-4.51-4.3Z" fill="#ff6b60" stroke-width="0"/><path d="M897.65,112.19v-5.29h30.77v5.29h-30.77Z" fill="#ff6b60" stroke-width="0"/><path d="M936.54,96.46h5.64v5.53h.41c1.66-3.93,5.23-6.14,9.97-6.14,6.89,0,10.62,4.13,10.62,11.75v20.56h-5.85v-19.11c0-5.44-2.18-8-6.86-8s-8.11,3.4-8.11,8.52v18.58h-5.82v-31.7Z" fill="#ff6b60" stroke-width="0"/><path d="M1000.33,119.78c-.84,5.32-6.08,8.99-12.91,8.99-8.9,0-13.99-5.23-13.99-14.25v-4.83c0-8.35,5.44-13.84,13.67-13.84s13.32,5.47,13.32,14.48v3.43h-21.26v1.42c0,5.35,3.23,8.78,8.23,8.78,3.75,0,6.57-1.6,7.36-4.19h5.58ZM979.16,109.66h15.53c0-5.64-2.85-9.04-7.65-9.04s-7.88,3.37-7.88,9.04Z" fill="#ff6b60" stroke-width="0"/><path d="M1037.16,119.78c-.84,5.32-6.08,8.99-12.91,8.99-8.9,0-13.99-5.23-13.99-14.25v-4.83c0-8.35,5.44-13.84,13.67-13.84s13.32,5.47,13.32,14.48v3.43h-21.26v1.42c0,5.35,3.23,8.78,8.23,8.78,3.75,0,6.57-1.6,7.36-4.19h5.58ZM1015.98,109.66h15.53c0-5.64-2.85-9.04-7.65-9.04s-7.88,3.37-7.88,9.04Z" fill="#ff6b60" stroke-width="0"/><path d="M1067.24,123.15c-1.51,3.58-4.77,5.53-9.34,5.53-7.3,0-11.95-5.21-11.95-13.49v-5.76c0-8.29,4.65-13.49,11.95-13.49,4.57,0,7.91,2.01,9.19,5.55h.55v-17.39h5.99v44.06h-5.85v-5h-.55ZM1051.85,114.63c0,5.44,3.08,8.87,7.97,8.87s7.97-3.43,7.97-8.87v-4.74c0-5.47-3.08-8.9-7.97-8.9s-7.97,3.46-7.97,8.9v4.74Z" fill="#ff6b60" stroke-width="0"/><g opacity=".7"><path d="M112.47,102.36l-1.8,9.1h6.05l-.96,4.97h-6.05l-2.33,11.72h-4.83l2.33-11.72h-8l-2.27,11.72h-4.86l2.36-11.72h-6.02l.99-4.97h6.02l1.77-9.1h-6.02l.96-4.92h6.02l2.24-11.28h4.83l-2.24,11.28h7.97l2.24-11.28h4.83l-2.24,11.28h6.05l-.99,4.92h-6.05ZM97.67,111.75h8.32l1.89-9.6h-8.35l-1.86,9.6Z" fill="#fff" stroke-width="0"/><path d="M465.51,100.5c0-3.14,2.53-5.7,5.58-5.7s5.58,2.56,5.58,5.7-2.5,5.67-5.58,5.67-5.58-2.56-5.58-5.67ZM465.51,122.75c0-3.14,2.53-5.7,5.58-5.7s5.58,2.56,5.58,5.7-2.5,5.7-5.58,5.7-5.58-2.59-5.58-5.7Z" fill="#fff" stroke-width="0"/><path d="M620.45,81.59h5.9c-6.11,8.75-8.64,16.26-8.64,25.56s2.53,16.81,8.64,25.56h-5.9c-5.88-6.63-8.96-15.44-8.96-25.56s3.08-18.93,8.96-25.56Z" fill="#fff" stroke-width="0"/><path d="M649.65,122.75c0-3.14,2.5-5.7,5.58-5.7s5.58,2.56,5.58,5.7-2.5,5.7-5.58,5.7-5.58-2.59-5.58-5.7Z" fill="#fff" stroke-width="0"/><path d="M1095.14,81.59c5.88,6.63,8.96,15.44,8.96,25.56s-3.08,18.93-8.96,25.56h-5.9c6.11-8.75,8.64-16.23,8.64-25.56s-2.53-16.81-8.64-25.56h5.9Z" fill="#fff" stroke-width="0"/></g><rect x="0" y="595" width="1200" height="35" fill="#fff" stroke-width="0"/><rect x="0" y="499.19" width="1200" height="95.81" fill="#fff" stroke-width="0"/><line x1="0" y1="499.19" x2="1200" y2="499.19" fill="none" stroke="#1c2126" stroke-miterlimit="10"/><line x1="0" y1="595" x2="1200" y2="595" fill="none" stroke="#1c2126" stroke-miterlimit="10"/><path d="M24.24,559.45v-18.76h-6.39v-2.37h15.35v2.37h-6.39v18.76h-2.58Z" fill="#1c2126" stroke-width="0"/><path d="M44.08,559.89c-4.8,0-7.75-3.46-7.75-9.3v-3.41c0-5.84,2.94-9.3,7.75-9.3s7.75,3.46,7.75,9.3v3.41c0,5.84-2.94,9.3-7.75,9.3ZM49.22,550.58v-3.38c0-4.41-1.93-6.87-5.14-6.87s-5.14,2.46-5.14,6.87v3.38c0,4.41,1.93,6.87,5.14,6.87s5.14-2.46,5.14-6.87Z" fill="#1c2126" stroke-width="0"/><path d="M59.97,545.58c0-1.48,1.2-2.71,2.65-2.71s2.65,1.23,2.65,2.71-1.2,2.71-2.65,2.71-2.65-1.23-2.65-2.71ZM59.97,556.83c0-1.48,1.2-2.7,2.65-2.7s2.65,1.22,2.65,2.7-1.2,2.71-2.65,2.71-2.65-1.22-2.65-2.71Z" fill="#1c2126" stroke-width="0"/><line x1="582.03" y1="498.72" x2="582.03" y2="595" fill="none" stroke="#1c2126" stroke-miterlimit="10"/><path d="M605.51,559.45v-21.14h12.47v2.37h-9.87v7.25h9.02v2.3h-9.02v9.21h-2.59Z" fill="#1c2126" stroke-width="0"/><path d="M625.54,551.03v8.42h-2.55v-21.14h7.09c4.19,0,6.81,2.43,6.81,6.36,0,2.77-1.54,5.04-3.94,5.83l4.31,8.95h-2.92l-3.94-8.42h-4.86ZM625.54,548.85h4.19c2.92,0,4.56-1.48,4.56-4.12s-1.61-4.12-4.44-4.12h-4.31v8.23Z" fill="#1c2126" stroke-width="0"/><path d="M648.15,559.89c-4.8,0-7.75-3.46-7.75-9.3v-3.41c0-5.84,2.94-9.3,7.75-9.3s7.75,3.46,7.75,9.3v3.41c0,5.84-2.94,9.3-7.75,9.3ZM653.29,550.58v-3.38c0-4.41-1.93-6.87-5.14-6.87s-5.14,2.46-5.14,6.87v3.38c0,4.41,1.93,6.87,5.14,6.87s5.14-2.46,5.14-6.87Z" fill="#1c2126" stroke-width="0"/><path d="M661.18,559.45h-2.31v-21.14h2.86l4.88,13.08h.19l4.86-13.08h2.86v21.14h-2.31v-8.1l.15-8.57h-.19l-4.45,11.7h-2.02l-4.45-11.7h-.19l.15,8.57v8.1Z" fill="#1c2126" stroke-width="0"/><path d="M682.59,545.58c0-1.48,1.2-2.71,2.65-2.71s2.65,1.23,2.65,2.71-1.2,2.71-2.65,2.71-2.65-1.23-2.65-2.71ZM682.59,556.83c0-1.48,1.2-2.7,2.65-2.7s2.65,1.22,2.65,2.7-1.2,2.71-2.65,2.71-2.65-1.22-2.65-2.71Z" fill="#1c2126" stroke-width="0"/><path d="M12.77,618.4c-.12,0-.21-.04-.26-.11-.06-.07-.08-.17-.06-.27l2.22-10.42c.02-.12.07-.21.16-.29.08-.07.19-.11.3-.11h6.95c.12,0,.2.04.26.11.05.07.07.17.05.29l-.24,1.12c-.02.12-.08.21-.16.28-.08.07-.19.1-.3.1h-5.14l-.66,3.04h4.82c.12,0,.2.04.26.11.05.07.07.17.05.29l-.22,1.12c-.02.11-.08.2-.17.27-.09.07-.19.11-.31.11h-4.82l-.85,3.97c-.02.11-.08.2-.16.27-.08.08-.19.11-.3.11h-1.41Z" fill="#1c2126" stroke-width="0"/><path d="M25.41,618.56c-.81,0-1.49-.15-2.02-.45s-.92-.72-1.15-1.26c-.23-.54-.29-1.18-.17-1.9.03-.19.08-.43.13-.7s.12-.51.17-.7c.19-.74.49-1.37.89-1.91.4-.54.91-.96,1.54-1.26.62-.3,1.36-.45,2.22-.45s1.49.15,2.02.45c.54.3.93.72,1.16,1.26.23.54.29,1.18.18,1.91-.04.19-.09.43-.14.7s-.11.51-.16.7c-.19.73-.48,1.36-.87,1.9-.39.54-.9.96-1.52,1.26s-1.38.45-2.26.45ZM25.57,616.98c.58,0,1.06-.18,1.46-.54.4-.36.69-.88.87-1.58.04-.16.09-.37.14-.62s.1-.46.13-.62c.12-.69.07-1.22-.14-1.58-.21-.36-.61-.54-1.18-.54s-1.05.18-1.46.54c-.41.36-.69.88-.86,1.58-.04.16-.09.37-.15.62s-.1.46-.12.62c-.12.69-.07,1.22.14,1.58s.6.54,1.18.54Z" fill="#1c2126" stroke-width="0"/><path d="M31.53,618.4c-.11,0-.19-.04-.25-.11-.06-.07-.08-.17-.06-.27l1.6-7.54c.02-.12.08-.21.17-.29.09-.07.19-.11.3-.11h1.3c.11,0,.19.04.25.11.06.08.08.17.06.29l-.14.66c.26-.34.58-.6.98-.78s.88-.27,1.44-.27h.78c.12,0,.2.04.26.11.05.08.07.17.05.27l-.24,1.15c-.02.11-.08.2-.17.27-.09.07-.19.11-.3.11h-1.25c-.51,0-.94.14-1.29.42-.35.28-.57.68-.68,1.19l-.94,4.4c-.02.11-.07.2-.16.27-.08.08-.19.11-.3.11h-1.39Z" fill="#1c2126" stroke-width="0"/><path d="M44.76,618.4c-.73,0-1.29-.11-1.7-.34-.4-.22-.67-.56-.78-1s-.11-.99.03-1.66l.79-3.63h-1.26c-.11,0-.19-.04-.25-.11-.06-.07-.08-.17-.06-.29l.19-.91c.02-.11.08-.2.17-.27.09-.07.2-.11.31-.11h1.25l.58-2.66c.02-.11.07-.2.16-.27.08-.07.18-.11.29-.11h1.3c.12,0,.21.04.26.11.06.08.08.17.06.27l-.58,2.66h2c.11,0,.19.04.25.11.06.08.08.17.06.27l-.19.91c-.02.12-.08.21-.17.29-.09.08-.19.11-.3.11h-2l-.74,3.47c-.06.29-.1.54-.1.74,0,.21.05.37.17.48.12.11.33.17.62.17h1.15c.12,0,.2.04.26.11.05.08.07.17.05.27l-.21.99c-.02.11-.08.2-.16.27-.09.08-.19.11-.3.11h-1.14Z" fill="#1c2126" stroke-width="0"/><path d="M48.07,618.4c-.11,0-.19-.04-.25-.11-.06-.07-.08-.17-.06-.27l2.26-10.59c.02-.11.08-.2.16-.27.08-.07.18-.11.29-.11h1.44c.11,0,.19.04.25.11.06.08.08.17.06.27l-.78,3.65c.34-.34.72-.62,1.14-.83.42-.21.93-.32,1.53-.32.69,0,1.26.15,1.7.44.44.29.75.71.92,1.24.17.53.18,1.17.02,1.92l-.96,4.5c-.02.11-.08.2-.16.27-.09.08-.19.11-.3.11h-1.44c-.11,0-.19-.04-.25-.11-.06-.07-.08-.17-.06-.27l.93-4.4c.14-.62.11-1.1-.08-1.46-.19-.35-.58-.53-1.17-.53-.36,0-.71.08-1.03.23-.33.16-.61.38-.84.68-.23.3-.4.66-.5,1.07l-.93,4.4c-.02.11-.08.2-.16.27-.09.08-.18.11-.29.11h-1.44Z" fill="#1c2126" stroke-width="0"/><path d="M61.51,618.56c-.78,0-1.43-.16-1.95-.46-.52-.31-.87-.76-1.07-1.34-.2-.59-.23-1.3-.09-2.13.02-.11.05-.24.08-.41.03-.17.06-.3.1-.39.21-.81.54-1.51.99-2.09.45-.58.99-1.03,1.64-1.34s1.36-.47,2.14-.47c.86,0,1.55.18,2.06.54.51.36.84.85,1.01,1.49s.16,1.37,0,2.2l-.08.34c-.02.11-.08.2-.17.27-.09.08-.19.11-.31.11h-5.31c-.01.06-.02.11-.03.13-.05.37-.05.72.02,1.03.06.31.21.57.42.76.22.19.51.29.87.29.3,0,.56-.04.79-.14.22-.09.41-.19.55-.31.14-.12.25-.21.33-.29.13-.13.22-.21.29-.23.06-.03.15-.04.27-.04h1.39c.1,0,.17.03.22.1.05.06.07.14.05.24-.05.17-.19.38-.4.62s-.5.49-.86.72c-.36.24-.79.43-1.29.58s-1.04.23-1.64.23ZM60.82,613.52h3.54l.02-.05c.1-.42.1-.78.02-1.1-.08-.31-.23-.56-.46-.74-.22-.18-.52-.26-.9-.26s-.71.09-1.02.26c-.3.18-.56.42-.76.74-.2.32-.35.68-.43,1.1l-.02.05Z" fill="#1c2126" stroke-width="0"/><path d="M71.06,618.4c-.11,0-.19-.04-.25-.11-.06-.07-.08-.17-.06-.27l2.26-10.59c.02-.11.08-.2.16-.27.08-.07.18-.11.29-.11h1.33c.12,0,.21.04.26.11.06.08.08.17.06.27l-2.26,10.59c-.02.11-.08.2-.16.27-.09.08-.19.11-.3.11h-1.33Z" fill="#1c2126" stroke-width="0"/><path d="M78.64,618.56c-.81,0-1.49-.15-2.02-.45-.54-.3-.92-.72-1.15-1.26-.23-.54-.29-1.18-.17-1.9.03-.19.08-.43.14-.7s.11-.51.17-.7c.19-.74.49-1.37.89-1.91.4-.54.91-.96,1.54-1.26.62-.3,1.36-.45,2.22-.45s1.49.15,2.02.45c.54.3.92.72,1.16,1.26.23.54.29,1.18.18,1.91-.04.19-.09.43-.14.7-.05.28-.11.51-.16.7-.19.73-.48,1.36-.87,1.9s-.9.96-1.52,1.26c-.62.3-1.38.45-2.26.45ZM78.8,616.98c.58,0,1.06-.18,1.46-.54s.69-.88.87-1.58c.04-.16.09-.37.14-.62.05-.26.1-.46.13-.62.12-.69.07-1.22-.14-1.58-.21-.36-.61-.54-1.18-.54s-1.05.18-1.46.54c-.41.36-.69.88-.86,1.58-.04.16-.09.37-.15.62s-.1.46-.12.62c-.12.69-.07,1.22.14,1.58.21.36.6.54,1.18.54Z" fill="#1c2126" stroke-width="0"/><path d="M86.92,618.4c-.16,0-.27-.04-.34-.12-.06-.08-.11-.17-.13-.28l-1.42-7.49c-.02-.14,0-.25.08-.32.08-.07.18-.11.3-.11h1.22c.12,0,.21.03.27.1.06.06.11.15.13.27l.91,5.55,3.33-5.62c.03-.06.09-.13.17-.2s.18-.1.31-.1h1.39c.13,0,.22.05.26.14.05.1.03.21-.06.35l-4.56,7.42c-.08.11-.16.2-.25.28-.09.08-.22.12-.38.12h-1.25Z" fill="#1c2126" stroke-width="0"/><path d="M96.66,618.56c-.78,0-1.43-.16-1.94-.46-.52-.31-.88-.76-1.07-1.34-.2-.59-.23-1.3-.09-2.13.02-.11.05-.24.08-.41.03-.17.06-.3.1-.39.21-.81.54-1.51.99-2.09.45-.58.99-1.03,1.64-1.34s1.36-.47,2.14-.47c.86,0,1.55.18,2.06.54.51.36.84.85,1.01,1.49.17.63.16,1.37,0,2.2l-.08.34c-.02.11-.08.2-.17.27-.09.08-.2.11-.31.11h-5.31c-.01.06-.02.11-.03.13-.05.37-.05.72.02,1.03.06.31.21.57.42.76.22.19.51.29.87.29.3,0,.56-.04.78-.14.22-.09.41-.19.55-.31.14-.12.25-.21.33-.29.13-.13.22-.21.29-.23.06-.03.15-.04.27-.04h1.39c.1,0,.17.03.22.1.05.06.07.14.05.24-.05.17-.19.38-.4.62-.21.25-.5.49-.87.72-.36.24-.79.43-1.29.58s-1.04.23-1.64.23ZM95.97,613.52h3.54l.02-.05c.1-.42.1-.78.02-1.1-.08-.31-.23-.56-.46-.74-.22-.18-.52-.26-.9-.26s-.71.09-1.02.26-.56.42-.76.74c-.2.32-.35.68-.43,1.1l-.02.05Z" fill="#1c2126" stroke-width="0"/><path d="M109.56,618.56c-.81,0-1.49-.15-2.02-.45s-.92-.72-1.15-1.26c-.23-.54-.29-1.18-.17-1.9.03-.19.08-.43.13-.7s.12-.51.17-.7c.19-.74.49-1.37.89-1.91.4-.54.91-.96,1.54-1.26.62-.3,1.36-.45,2.22-.45s1.49.15,2.02.45c.54.3.93.72,1.16,1.26.23.54.29,1.18.18,1.91-.04.19-.09.43-.14.7s-.11.51-.16.7c-.19.73-.48,1.36-.87,1.9-.39.54-.9.96-1.52,1.26s-1.38.45-2.26.45ZM109.72,616.98c.58,0,1.06-.18,1.46-.54.4-.36.69-.88.87-1.58.04-.16.09-.37.14-.62s.1-.46.13-.62c.12-.69.07-1.22-.14-1.58-.21-.36-.61-.54-1.18-.54s-1.05.18-1.46.54c-.41.36-.69.88-.86,1.58-.04.16-.09.37-.15.62s-.1.46-.12.62c-.12.69-.07,1.22.14,1.58s.6.54,1.18.54Z" fill="#1c2126" stroke-width="0"/><path d="M116.42,618.4c-.12,0-.21-.04-.26-.11-.06-.07-.08-.17-.06-.27l1.33-6.24h-1.29c-.11,0-.19-.04-.25-.11-.06-.07-.08-.17-.06-.29l.19-.91c.02-.11.08-.2.17-.27.09-.07.19-.11.31-.11h1.3l.13-.66c.15-.64.38-1.17.69-1.59.31-.42.7-.74,1.18-.95.48-.21,1.04-.32,1.68-.32h1.28c.12,0,.2.04.26.11.05.07.07.17.05.27l-.19.91c-.02.12-.08.21-.17.29s-.19.11-.3.11h-.96c-.43,0-.76.11-.99.32-.23.21-.39.52-.46.93l-.13.58h1.98c.12,0,.2.04.26.11.05.08.07.17.05.27l-.19.91c-.02.12-.08.21-.16.29-.09.08-.19.11-.3.11h-1.98l-1.34,6.24c-.02.11-.07.2-.16.27-.08.08-.18.11-.29.11h-1.3Z" fill="#1c2126" stroke-width="0"/><path d="M128.85,618.56c-.81,0-1.48-.15-2.02-.45s-.92-.72-1.15-1.26c-.23-.54-.29-1.18-.17-1.9.03-.19.08-.43.14-.7s.11-.51.17-.7c.19-.74.49-1.37.89-1.91.4-.54.91-.96,1.54-1.26.62-.3,1.36-.45,2.22-.45s1.49.15,2.02.45c.54.3.92.72,1.16,1.26.23.54.29,1.18.18,1.91-.04.19-.09.43-.14.7s-.11.51-.16.7c-.19.73-.48,1.36-.87,1.9-.39.54-.9.96-1.52,1.26s-1.38.45-2.26.45ZM129.01,616.98c.58,0,1.06-.18,1.46-.54.4-.36.69-.88.87-1.58.04-.16.09-.37.14-.62.05-.26.1-.46.13-.62.12-.69.07-1.22-.14-1.58-.21-.36-.61-.54-1.18-.54s-1.05.18-1.46.54c-.41.36-.69.88-.86,1.58-.04.16-.09.37-.15.62s-.1.46-.12.62c-.12.69-.07,1.22.14,1.58s.6.54,1.18.54Z" fill="#1c2126" stroke-width="0"/><path d="M134.32,621.44c-.11,0-.19-.04-.25-.11-.06-.07-.08-.17-.06-.27l2.26-10.59c.02-.11.08-.2.16-.27.09-.07.18-.11.29-.11h1.28c.11,0,.19.04.25.11.06.08.08.17.06.27l-.14.64c.33-.34.7-.62,1.1-.85.4-.22.93-.34,1.58-.34.55,0,1.03.09,1.42.28.39.19.7.45.92.79.22.34.37.74.44,1.21s.06.97-.04,1.53c-.02.18-.05.35-.09.51s-.08.34-.14.53c-.13.52-.31,1.02-.54,1.48-.24.46-.52.87-.86,1.22s-.73.62-1.18.81-.96.29-1.53.29c-.6,0-1.09-.1-1.47-.31-.38-.21-.66-.48-.83-.82l-.78,3.63c-.02.11-.08.2-.16.27-.09.08-.19.11-.3.11h-1.36ZM138.88,616.85c.43,0,.79-.1,1.09-.3.3-.2.55-.46.74-.78.2-.33.35-.67.47-1.05.05-.16.1-.32.13-.48.03-.16.06-.32.08-.48.05-.38.06-.74.02-1.06-.04-.32-.16-.58-.36-.78-.2-.2-.51-.3-.94-.3-.45,0-.83.1-1.16.3s-.59.46-.8.78c-.21.32-.36.64-.44.97-.05.19-.1.39-.14.61-.04.21-.08.42-.11.62-.05.32-.05.63,0,.92.06.29.2.54.43.73.23.19.56.29.98.29Z" fill="#1c2126" stroke-width="0"/><path d="M148.13,618.56c-.78,0-1.43-.16-1.95-.46-.52-.31-.87-.76-1.07-1.34-.2-.59-.23-1.3-.09-2.13.02-.11.05-.24.08-.41.03-.17.06-.3.1-.39.21-.81.54-1.51.99-2.09.45-.58.99-1.03,1.64-1.34s1.36-.47,2.14-.47c.86,0,1.55.18,2.06.54.51.36.84.85,1.01,1.49s.16,1.37,0,2.2l-.08.34c-.02.11-.08.2-.17.27-.09.08-.19.11-.31.11h-5.31c-.01.06-.02.11-.03.13-.05.37-.05.72.02,1.03.06.31.21.57.42.76.22.19.51.29.87.29.3,0,.56-.04.79-.14.22-.09.41-.19.55-.31.14-.12.25-.21.33-.29.13-.13.22-.21.29-.23.06-.03.15-.04.27-.04h1.39c.1,0,.17.03.22.1.05.06.07.14.05.24-.05.17-.19.38-.4.62s-.5.49-.86.72c-.36.24-.79.43-1.29.58s-1.04.23-1.64.23ZM147.44,613.52h3.54l.02-.05c.1-.42.1-.78.02-1.1-.08-.31-.23-.56-.46-.74-.22-.18-.52-.26-.9-.26s-.71.09-1.02.26c-.3.18-.56.42-.76.74-.2.32-.35.68-.43,1.1l-.02.05Z" fill="#1c2126" stroke-width="0"/><path d="M153.96,618.4c-.11,0-.19-.04-.25-.11-.06-.07-.08-.17-.06-.27l1.6-7.55c.02-.11.08-.2.17-.27.09-.07.19-.11.3-.11h1.31c.11,0,.19.04.24.11.05.08.07.17.05.27l-.14.66c.34-.34.74-.63,1.21-.86s.99-.34,1.58-.34c.73,0,1.31.15,1.74.44.44.29.73.71.87,1.24.14.53.14,1.17-.02,1.92l-.96,4.5c-.02.11-.07.2-.16.27-.09.08-.19.11-.3.11h-1.41c-.11,0-.19-.04-.25-.11-.06-.07-.08-.17-.06-.27l.93-4.4c.14-.65.12-1.14-.04-1.48s-.56-.5-1.18-.5-1.12.18-1.54.53c-.42.35-.7.84-.84,1.46l-.93,4.4c-.02.11-.08.2-.16.27-.09.08-.18.11-.29.11h-1.41Z" fill="#1c2126" stroke-width="0"/><path d="M170.61,618.56c-.64,0-1.17-.08-1.59-.22-.42-.15-.75-.34-.99-.56s-.41-.45-.5-.67c-.09-.22-.12-.41-.1-.56.02-.12.08-.21.17-.28.09-.07.18-.1.28-.1h1.26s.08,0,.11.02c.03.01.06.04.1.1.12.12.24.24.37.37.13.13.29.24.49.33s.46.14.78.14c.42,0,.78-.08,1.1-.25.31-.17.5-.4.57-.71.04-.22.02-.41-.08-.54-.1-.14-.29-.26-.59-.38-.3-.11-.74-.23-1.33-.36-.58-.14-1.04-.31-1.38-.53-.35-.21-.58-.48-.71-.8-.12-.32-.13-.69-.04-1.12.08-.42.29-.81.62-1.19.33-.38.77-.69,1.32-.94.55-.25,1.19-.37,1.93-.37.58,0,1.06.07,1.46.22.4.14.72.32.96.54.24.21.41.43.5.65.1.22.13.41.1.57-.01.12-.06.21-.15.28-.09.07-.18.1-.28.1h-1.17c-.05,0-.1-.01-.14-.03-.04-.02-.08-.05-.1-.08-.11-.11-.22-.22-.33-.34-.11-.12-.26-.23-.43-.31-.18-.08-.42-.13-.74-.13-.41,0-.73.09-.98.26s-.41.4-.47.66c-.03.18-.01.34.06.47.07.13.25.26.54.38s.73.24,1.31.37c.69.13,1.22.32,1.59.57.37.25.61.54.72.86.11.33.13.69.04,1.08-.1.48-.33.91-.7,1.3-.37.38-.85.69-1.45.9-.6.22-1.3.33-2.11.33Z" fill="#1c2126" stroke-width="0"/><path d="M179.52,618.56c-.81,0-1.49-.15-2.02-.45-.54-.3-.92-.72-1.15-1.26-.23-.54-.29-1.18-.17-1.9.03-.19.08-.43.14-.7s.11-.51.17-.7c.19-.74.49-1.37.89-1.91.4-.54.91-.96,1.54-1.26.62-.3,1.36-.45,2.22-.45s1.49.15,2.02.45c.54.3.92.72,1.16,1.26.23.54.29,1.18.18,1.91-.04.19-.09.43-.14.7-.05.28-.11.51-.16.7-.19.73-.48,1.36-.87,1.9s-.9.96-1.52,1.26c-.62.3-1.38.45-2.26.45ZM179.68,616.98c.58,0,1.06-.18,1.46-.54s.69-.88.87-1.58c.04-.16.09-.37.14-.62.05-.26.1-.46.13-.62.12-.69.07-1.22-.14-1.58-.21-.36-.61-.54-1.18-.54s-1.05.18-1.46.54c-.41.36-.69.88-.86,1.58-.04.16-.09.37-.15.62s-.1.46-.12.62c-.12.69-.07,1.22.14,1.58.21.36.6.54,1.18.54Z" fill="#1c2126" stroke-width="0"/><path d="M188.45,618.56c-.69,0-1.26-.15-1.7-.44-.44-.29-.73-.71-.87-1.25-.14-.54-.14-1.18,0-1.91l.96-4.5c.02-.11.08-.2.17-.27.09-.07.19-.11.29-.11h1.41c.11,0,.19.04.24.11.05.08.07.17.05.27l-.93,4.4c-.1.44-.13.8-.09,1.1.04.29.16.52.36.66.2.15.52.22.94.22.58,0,1.08-.18,1.5-.53.43-.35.7-.84.83-1.46l.94-4.4c.02-.11.08-.2.17-.27.09-.07.19-.11.3-.11h1.39c.12,0,.2.04.26.11.05.08.07.17.05.27l-1.6,7.55c-.02.11-.07.2-.16.27-.08.08-.19.11-.3.11h-1.3c-.11,0-.19-.04-.25-.11-.06-.07-.08-.17-.06-.27l.13-.66c-.23.25-.47.46-.72.64-.25.18-.53.32-.85.42-.32.1-.71.14-1.18.14Z" fill="#1c2126" stroke-width="0"/><path d="M195.57,618.4c-.11,0-.19-.04-.25-.11-.06-.07-.08-.17-.06-.27l1.6-7.54c.02-.12.08-.21.17-.29.09-.07.19-.11.3-.11h1.3c.11,0,.19.04.25.11.06.08.08.17.06.29l-.14.66c.26-.34.58-.6.98-.78.39-.18.87-.27,1.44-.27h.78c.12,0,.2.04.26.11.05.08.07.17.05.27l-.24,1.15c-.02.11-.08.2-.17.27-.09.07-.19.11-.3.11h-1.25c-.51,0-.94.14-1.29.42-.35.28-.57.68-.68,1.19l-.94,4.4c-.02.11-.08.2-.16.27-.09.08-.19.11-.3.11h-1.39Z" fill="#1c2126" stroke-width="0"/><path d="M205.46,618.56c-.71,0-1.34-.14-1.88-.43-.54-.29-.94-.71-1.19-1.26-.26-.55-.31-1.21-.18-1.99.03-.16.07-.37.13-.63.05-.26.1-.48.14-.65.29-1.16.82-2.07,1.6-2.71s1.77-.97,2.98-.97c.67,0,1.23.1,1.69.29.45.19.81.44,1.07.74.26.3.44.61.54.93.1.32.14.61.1.86,0,.12-.06.21-.14.28s-.17.1-.28.1h-1.46c-.11,0-.19-.03-.25-.08-.06-.05-.09-.13-.1-.24,0-.43-.11-.74-.34-.93-.23-.19-.56-.29-.98-.29-.52,0-.99.17-1.4.5-.41.34-.71.87-.89,1.59-.04.19-.09.39-.13.59-.04.2-.08.38-.11.53-.12.74-.06,1.27.16,1.6.22.33.6.5,1.12.5.42,0,.79-.09,1.12-.26.33-.18.61-.48.83-.9.06-.12.13-.2.2-.25.07-.05.16-.07.26-.07h1.44c.11,0,.19.04.25.1s.07.16.04.28c-.07.24-.21.51-.41.82s-.47.62-.81.92c-.34.3-.77.54-1.29.74s-1.13.29-1.85.29Z" fill="#1c2126" stroke-width="0"/><path d="M214.69,618.56c-.78,0-1.43-.16-1.95-.46-.52-.31-.87-.76-1.07-1.34-.2-.59-.23-1.3-.09-2.13.02-.11.05-.24.08-.41.03-.17.06-.3.1-.39.21-.81.54-1.51.99-2.09.45-.58.99-1.03,1.64-1.34s1.36-.47,2.14-.47c.86,0,1.55.18,2.06.54.51.36.84.85,1.01,1.49s.16,1.37,0,2.2l-.08.34c-.02.11-.08.2-.17.27-.09.08-.19.11-.31.11h-5.31c-.01.06-.02.11-.03.13-.05.37-.05.72.02,1.03.06.31.21.57.42.76.22.19.51.29.87.29.3,0,.56-.04.79-.14.22-.09.41-.19.55-.31.14-.12.25-.21.33-.29.13-.13.22-.21.29-.23.06-.03.15-.04.27-.04h1.39c.1,0,.17.03.22.1.05.06.07.14.05.24-.05.17-.19.38-.4.62s-.5.49-.86.72c-.36.24-.79.43-1.29.58s-1.04.23-1.64.23ZM214,613.52h3.54l.02-.05c.1-.42.1-.78.02-1.1-.08-.31-.23-.56-.46-.74-.22-.18-.52-.26-.9-.26s-.71.09-1.02.26c-.3.18-.56.42-.76.74-.2.32-.35.68-.43,1.1l-.02.05Z" fill="#1c2126" stroke-width="0"/><path d="M227.19,618.56c-.64,0-1.17-.08-1.59-.22-.42-.15-.75-.34-.99-.56-.24-.22-.41-.45-.5-.67s-.13-.41-.1-.56c.02-.12.08-.21.17-.28.09-.07.18-.1.28-.1h1.26s.08,0,.11.02c.03.01.06.04.1.1.12.12.24.24.37.37.13.13.29.24.49.33s.46.14.78.14c.42,0,.78-.08,1.1-.25s.5-.4.57-.71c.04-.22.02-.41-.08-.54s-.29-.26-.59-.38c-.3-.11-.74-.23-1.33-.36-.58-.14-1.04-.31-1.38-.53-.35-.21-.58-.48-.7-.8-.12-.32-.14-.69-.04-1.12.09-.42.29-.81.62-1.19.33-.38.77-.69,1.32-.94.55-.25,1.19-.37,1.93-.37.58,0,1.06.07,1.46.22.4.14.72.32.96.54.24.21.41.43.5.65s.13.41.1.57c-.01.12-.06.21-.15.28-.09.07-.18.1-.28.1h-1.17c-.05,0-.1-.01-.14-.03s-.07-.05-.1-.08c-.11-.11-.22-.22-.33-.34-.11-.12-.26-.23-.43-.31-.18-.08-.42-.13-.74-.13-.41,0-.73.09-.98.26s-.41.4-.47.66c-.03.18-.01.34.06.47.07.13.25.26.54.38s.73.24,1.31.37c.69.13,1.22.32,1.59.57.37.25.61.54.72.86.11.33.12.69.04,1.08-.1.48-.33.91-.7,1.3-.37.38-.85.69-1.45.9-.6.22-1.3.33-2.11.33Z" fill="#1c2126" stroke-width="0"/><path d="M236.1,618.56c-.81,0-1.49-.15-2.02-.45-.54-.3-.92-.72-1.15-1.26s-.29-1.18-.17-1.9c.03-.19.08-.43.14-.7s.12-.51.17-.7c.19-.74.49-1.37.89-1.91.4-.54.91-.96,1.54-1.26.62-.3,1.36-.45,2.22-.45s1.48.15,2.02.45c.54.3.93.72,1.16,1.26.23.54.29,1.18.18,1.91-.04.19-.09.43-.14.7-.05.28-.11.51-.16.7-.19.73-.48,1.36-.87,1.9-.39.54-.9.96-1.52,1.26-.62.3-1.38.45-2.26.45ZM236.26,616.98c.58,0,1.06-.18,1.46-.54s.69-.88.87-1.58c.04-.16.09-.37.14-.62.05-.26.1-.46.13-.62.12-.69.07-1.22-.14-1.58-.21-.36-.61-.54-1.18-.54s-1.05.18-1.46.54c-.4.36-.69.88-.86,1.58-.04.16-.09.37-.15.62s-.1.46-.12.62c-.12.69-.07,1.22.13,1.58.21.36.6.54,1.18.54Z" fill="#1c2126" stroke-width="0"/><path d="M242.96,618.4c-.12,0-.21-.04-.26-.11-.06-.07-.08-.17-.06-.27l1.33-6.24h-1.3c-.11,0-.19-.04-.25-.11-.06-.07-.08-.17-.06-.29l.19-.91c.02-.11.08-.2.17-.27.09-.07.19-.11.31-.11h1.29l.13-.66c.15-.64.38-1.17.69-1.59.31-.42.7-.74,1.18-.95.48-.21,1.04-.32,1.68-.32h1.28c.12,0,.2.04.26.11.05.07.07.17.05.27l-.19.91c-.02.12-.08.21-.17.29s-.19.11-.3.11h-.96c-.43,0-.76.11-.99.32-.23.21-.39.52-.46.93l-.13.58h1.98c.12,0,.2.04.26.11.05.08.07.17.05.27l-.19.91c-.02.12-.07.21-.16.29-.08.08-.19.11-.3.11h-1.98l-1.34,6.24c-.02.11-.08.2-.16.27-.09.08-.18.11-.29.11h-1.29Z" fill="#1c2126" stroke-width="0"/><path d="M252.11,618.4c-.73,0-1.29-.11-1.7-.34-.4-.22-.67-.56-.78-1s-.11-.99.03-1.66l.79-3.63h-1.26c-.11,0-.19-.04-.25-.11-.06-.07-.08-.17-.06-.29l.19-.91c.02-.11.08-.2.17-.27.09-.07.2-.11.31-.11h1.25l.58-2.66c.02-.11.07-.2.16-.27.08-.07.18-.11.29-.11h1.3c.12,0,.21.04.26.11.06.08.08.17.06.27l-.58,2.66h2c.11,0,.19.04.25.11.06.08.08.17.06.27l-.19.91c-.02.12-.08.21-.17.29-.09.08-.19.11-.3.11h-2l-.74,3.47c-.06.29-.1.54-.1.74,0,.21.05.37.17.48.12.11.33.17.62.17h1.15c.12,0,.2.04.26.11.05.08.07.17.05.27l-.21.99c-.02.11-.08.2-.16.27-.09.08-.19.11-.3.11h-1.14Z" fill="#1c2126" stroke-width="0"/><path d="M257.27,618.4c-.15,0-.26-.04-.32-.11-.06-.07-.1-.17-.11-.29l-.72-7.49c-.01-.12.02-.22.1-.3.08-.08.18-.13.32-.13h1.12c.13,0,.22.03.28.09.06.06.09.13.1.22l.46,5.3,2.75-5.25c.04-.08.11-.15.19-.23.09-.08.2-.12.34-.12h.83c.15,0,.25.04.3.12.05.08.09.16.1.23l.58,5.25,2.69-5.3c.03-.06.09-.13.16-.2s.18-.1.3-.1h1.3c.15,0,.24.05.26.14.03.1.01.2-.04.32l-3.86,7.46c-.06.12-.14.21-.23.29-.09.08-.21.11-.36.11h-1.06c-.15,0-.26-.04-.33-.11-.07-.07-.12-.17-.14-.29l-.66-5.06-2.72,5.06c-.06.12-.14.21-.24.29-.1.08-.22.11-.37.11h-1.04Z" fill="#1c2126" stroke-width="0"/><path d="M271.09,618.56c-.55,0-1.02-.09-1.41-.28s-.69-.45-.9-.79c-.22-.34-.36-.74-.42-1.21-.06-.46-.05-.97.03-1.53.04-.19.08-.37.11-.52.03-.15.07-.33.11-.52.14-.53.32-1.03.55-1.49.23-.46.51-.86.85-1.21s.73-.62,1.18-.81c.45-.19.97-.29,1.56-.29.66,0,1.17.1,1.51.31s.62.46.81.76l.11-.53c.02-.11.08-.2.16-.27.08-.07.18-.11.29-.11h1.26c.11,0,.19.04.26.11.06.08.09.17.06.27l-1.62,7.55c-.02.11-.08.2-.16.27-.09.08-.18.11-.29.11h-1.26c-.12,0-.21-.04-.26-.11-.06-.07-.08-.17-.06-.27l.13-.59c-.32.33-.67.6-1.06.82-.38.21-.9.32-1.55.32ZM271.81,616.85c.45,0,.83-.1,1.15-.3.32-.2.58-.46.78-.78s.34-.64.42-.97c.05-.19.1-.4.14-.62s.08-.42.11-.62c.06-.32.07-.63.02-.92s-.19-.54-.41-.73c-.22-.19-.55-.29-.98-.29s-.77.1-1.06.3-.54.46-.73.78c-.19.32-.35.67-.46,1.06-.04.16-.08.32-.11.48s-.06.32-.08.48c-.05.38-.07.74-.04,1.06.03.32.14.58.34.78s.5.3.92.3Z" fill="#1c2126" stroke-width="0"/><path d="M278.05,618.4c-.11,0-.19-.04-.25-.11-.06-.07-.08-.17-.06-.27l1.6-7.54c.02-.12.08-.21.17-.29.09-.07.19-.11.3-.11h1.29c.11,0,.19.04.25.11.06.08.08.17.06.29l-.14.66c.26-.34.58-.6.98-.78s.88-.27,1.44-.27h.78c.12,0,.2.04.26.11.05.08.07.17.05.27l-.24,1.15c-.02.11-.08.2-.17.27-.09.07-.19.11-.29.11h-1.25c-.51,0-.94.14-1.29.42-.35.28-.57.68-.68,1.19l-.94,4.4c-.02.11-.07.2-.16.27-.09.08-.19.11-.3.11h-1.39Z" fill="#1c2126" stroke-width="0"/><path d="M288.05,618.56c-.78,0-1.43-.16-1.95-.46-.52-.31-.87-.76-1.07-1.34-.2-.59-.23-1.3-.09-2.13.02-.11.05-.24.08-.41.03-.17.06-.3.1-.39.21-.81.54-1.51.99-2.09.45-.58.99-1.03,1.64-1.34s1.36-.47,2.14-.47c.86,0,1.55.18,2.06.54.51.36.84.85,1.01,1.49s.16,1.37,0,2.2l-.08.34c-.02.11-.08.2-.17.27-.09.08-.19.11-.31.11h-5.31c-.01.06-.02.11-.03.13-.05.37-.05.72.02,1.03.06.31.21.57.42.76.22.19.51.29.87.29.3,0,.56-.04.79-.14.22-.09.41-.19.55-.31.14-.12.25-.21.33-.29.13-.13.22-.21.29-.23.06-.03.15-.04.27-.04h1.39c.1,0,.17.03.22.1.05.06.07.14.05.24-.05.17-.19.38-.4.62s-.5.49-.86.72c-.36.24-.79.43-1.29.58s-1.04.23-1.64.23ZM287.36,613.52h3.54l.02-.05c.1-.42.1-.78.02-1.1-.08-.31-.23-.56-.46-.74-.22-.18-.52-.26-.9-.26s-.71.09-1.02.26c-.3.18-.56.42-.76.74-.2.32-.35.68-.43,1.1l-.02.05Z" fill="#1c2126" stroke-width="0"/><path d="M1125.56,618.56c-.89,0-1.63-.15-2.22-.44-.6-.29-1.05-.71-1.37-1.26-.32-.54-.49-1.18-.52-1.9-.01-.21-.02-.46-.02-.73s0-.51.02-.71c.03-.74.21-1.37.54-1.91.33-.54.79-.95,1.39-1.25.6-.29,1.32-.44,2.18-.44s1.56.15,2.16.44c.6.29,1.06.71,1.39,1.25.33.54.52,1.18.56,1.91.01.2.02.44.02.71s0,.51-.02.73c-.04.73-.22,1.36-.54,1.9-.32.54-.77.96-1.37,1.26-.6.29-1.33.44-2.21.44ZM1125.56,616.79c.52,0,.91-.16,1.18-.48.26-.32.41-.79.44-1.42.01-.16.02-.37.02-.64s0-.48-.02-.64c-.03-.62-.18-1.09-.44-1.42s-.65-.49-1.18-.49-.92.16-1.18.49-.42.8-.45,1.42c0,.16-.02.37-.02.64s0,.48.02.64c.03.63.18,1.1.45,1.42.27.32.66.48,1.18.48Z" fill="#1c2126" stroke-width="0"/><path d="M1134.64,618.56c-.66,0-1.23-.08-1.7-.23s-.86-.34-1.15-.57c-.29-.22-.51-.45-.66-.68-.14-.23-.22-.42-.23-.58-.01-.12.03-.21.11-.29.09-.07.17-.11.26-.11h1.55s.08,0,.1.02c.03.01.06.04.1.08.14.1.28.21.42.33.14.12.32.23.52.31.2.09.45.13.74.13.35,0,.65-.07.89-.22.24-.14.36-.35.36-.62,0-.19-.05-.35-.16-.48-.11-.13-.31-.25-.62-.35-.31-.11-.77-.22-1.38-.35-.58-.13-1.07-.3-1.47-.51-.41-.21-.71-.48-.91-.81-.2-.33-.3-.72-.3-1.18,0-.42.13-.82.39-1.2.26-.38.65-.7,1.16-.95.51-.25,1.15-.38,1.92-.38.59,0,1.1.07,1.54.22.44.14.81.33,1.11.54s.53.44.68.67.24.43.25.6c.01.12-.02.21-.1.29-.07.08-.16.11-.26.11h-1.42c-.05,0-.1-.01-.14-.03s-.08-.05-.11-.08c-.13-.07-.26-.17-.39-.29-.13-.12-.29-.22-.47-.3-.18-.08-.42-.13-.7-.13-.34,0-.61.08-.79.23-.19.16-.28.35-.28.58,0,.15.05.29.14.42.1.13.29.25.58.35.29.11.75.22,1.37.34.73.13,1.3.32,1.73.58s.73.55.91.89.27.7.27,1.08c0,.5-.15.95-.44,1.34s-.73.69-1.3.91c-.58.22-1.28.33-2.11.33Z" fill="#1c2126" stroke-width="0"/><path d="M1143.33,618.56c-.66,0-1.23-.08-1.7-.23s-.86-.34-1.15-.57c-.29-.22-.51-.45-.66-.68-.14-.23-.22-.42-.23-.58-.01-.12.03-.21.11-.29.09-.07.17-.11.26-.11h1.55s.08,0,.1.02c.03.01.06.04.1.08.14.1.28.21.42.33.14.12.32.23.52.31.2.09.45.13.74.13.35,0,.65-.07.89-.22.24-.14.36-.35.36-.62,0-.19-.05-.35-.16-.48-.11-.13-.31-.25-.62-.35-.31-.11-.77-.22-1.38-.35-.58-.13-1.07-.3-1.47-.51-.41-.21-.71-.48-.91-.81-.2-.33-.3-.72-.3-1.18,0-.42.13-.82.39-1.2.26-.38.65-.7,1.16-.95.51-.25,1.15-.38,1.92-.38.59,0,1.1.07,1.54.22.44.14.81.33,1.11.54s.53.44.68.67.24.43.25.6c.01.12-.02.21-.1.29-.07.08-.16.11-.26.11h-1.42c-.05,0-.1-.01-.14-.03s-.08-.05-.11-.08c-.13-.07-.26-.17-.39-.29-.13-.12-.29-.22-.47-.3-.18-.08-.42-.13-.7-.13-.34,0-.61.08-.79.23-.19.16-.28.35-.28.58,0,.15.05.29.14.42.1.13.29.25.58.35.29.11.75.22,1.37.34.73.13,1.3.32,1.73.58s.73.55.91.89.27.7.27,1.08c0,.5-.15.95-.44,1.34s-.73.69-1.3.91c-.58.22-1.28.33-2.11.33Z" fill="#1c2126" stroke-width="0"/><path d="M1149.04,618.4c-.12,0-.21-.04-.29-.11s-.11-.17-.11-.29v-1.81c0-.11.04-.2.11-.28.08-.08.17-.12.29-.12h1.81c.11,0,.2.04.28.12s.12.17.12.28v1.81c0,.12-.04.21-.12.29-.08.08-.17.11-.28.11h-1.81Z" fill="#1c2126" stroke-width="0"/><path d="M1153.56,618.4c-.12,0-.21-.04-.29-.11-.07-.07-.11-.17-.11-.29v-10.56c0-.12.04-.21.11-.29.07-.07.17-.11.29-.11h1.6c.12,0,.21.04.29.11s.11.17.11.29v10.56c0,.12-.04.21-.11.29-.07.08-.17.11-.29.11h-1.6Z" fill="#1c2126" stroke-width="0"/><path d="M1161.38,618.56c-.88,0-1.63-.15-2.22-.44-.6-.29-1.05-.71-1.37-1.26s-.49-1.18-.52-1.9c-.01-.21-.02-.46-.02-.73s0-.51.02-.71c.03-.74.21-1.37.54-1.91.33-.54.79-.95,1.39-1.25.6-.29,1.32-.44,2.18-.44s1.56.15,2.16.44c.6.29,1.06.71,1.39,1.25.33.54.52,1.18.56,1.91,0,.2.02.44.02.71s0,.51-.02.73c-.04.73-.22,1.36-.54,1.9s-.77.96-1.37,1.26c-.6.29-1.33.44-2.21.44ZM1161.38,616.79c.52,0,.92-.16,1.18-.48.26-.32.41-.79.44-1.42,0-.16.02-.37.02-.64s0-.48-.02-.64c-.03-.62-.18-1.09-.44-1.42-.26-.33-.65-.49-1.18-.49s-.92.16-1.18.49-.42.8-.45,1.42c-.01.16-.02.37-.02.64s0,.48.02.64c.03.63.18,1.1.45,1.42.27.32.66.48,1.18.48Z" fill="#1c2126" stroke-width="0"/><path d="M1169.81,618.4c-.16,0-.28-.04-.36-.12-.08-.08-.15-.17-.2-.28l-3.01-7.42s-.03-.09-.03-.14c0-.1.03-.18.1-.25.07-.07.15-.1.25-.1h1.55c.14,0,.24.04.31.11.07.08.12.14.14.21l1.97,5.26,1.97-5.26c.03-.06.08-.13.14-.21.06-.07.16-.11.3-.11h1.55c.1,0,.18.04.25.1.07.07.1.15.1.25,0,.05,0,.1-.02.14l-3.01,7.42c-.04.11-.11.2-.19.28s-.21.12-.38.12h-1.44Z" fill="#1c2126" stroke-width="0"/><path d="M1179.6,618.56c-1.23,0-2.2-.34-2.92-1.02-.72-.68-1.1-1.67-1.14-2.98v-.67c.04-.83.23-1.54.56-2.14.33-.59.79-1.04,1.39-1.36.6-.31,1.29-.47,2.1-.47.91,0,1.66.18,2.26.55s1.05.87,1.35,1.5c.3.63.46,1.36.46,2.18v.37c0,.11-.04.2-.11.28-.07.08-.17.12-.29.12h-5.22v.11c.01.34.08.65.19.94.12.28.29.51.52.68.23.17.51.26.84.26.26,0,.47-.04.64-.12.17-.08.31-.17.42-.27.11-.1.19-.19.25-.26.1-.12.17-.19.23-.22.06-.03.15-.04.26-.04h1.7c.1,0,.18.03.25.1.07.06.1.14.09.24-.01.18-.1.4-.26.65-.17.25-.41.5-.73.74-.32.24-.72.44-1.19.6s-1.02.24-1.64.24ZM1178.04,613.46h3.12v-.05c0-.37-.06-.7-.18-.98-.12-.28-.3-.5-.54-.66-.23-.16-.52-.24-.85-.24s-.61.08-.84.24c-.23.16-.41.38-.53.66-.12.28-.18.61-.18.98v.05Z" fill="#1c2126" stroke-width="0"/><polygon points="1104.46 614.96 1098.89 611.74 1093.31 614.96 1104.46 621.39 1115.62 614.96 1110.04 611.74 1104.46 614.96" fill="#b7303d" stroke="#1c2126" stroke-linejoin="round" stroke-width=".33"/><polygon points="1098.89 605.3 1098.89 611.74 1093.31 614.96 1093.31 608.52 1098.89 605.3" fill="#ea4f4b" stroke="#1c2126" stroke-linejoin="round" stroke-width=".33"/><polygon points="1098.89 605.3 1098.89 611.74 1104.46 614.96 1104.46 608.52 1098.89 605.3" fill="#ff6b60" stroke="#1c2126" stroke-linejoin="round" stroke-width=".33"/><polygon points="1110.04 605.3 1110.04 611.74 1104.46 614.96 1104.46 608.52 1110.04 605.3" fill="#ea4f4b" stroke="#1c2126" stroke-linejoin="round" stroke-width=".33"/><polygon points="1110.04 605.3 1110.04 611.74 1115.61 614.96 1115.62 608.52 1110.04 605.3" fill="#ff6b60" stroke="#1c2126" stroke-linejoin="round" stroke-width=".33"/></g></svg>